v 0.826557 1.21393 -0.532443
v 0.861427 1.17011 -0.536917
v 0.855844 1.2189 -0.580125
v 0.884694 1.12068 -0.55
v 0.888089 1.17128 -0.588555
v 0.873953 1.21454 -0.633125
v 0.894586 1.0694 -0.570695
v 0.907802 1.1114 -0.608636
v 0.890351 1.02017 -0.597427
v 0.908493 1.05899 -0.633756
v 0.91145 1.10065 -0.671322
v 0.902156 1.16075 -0.652338
v 0.879506 1.20119 -0.687411
v 0.902156 1.13716 -0.772338
v 0.91145 1.07706 -0.791322
v 0.898996 1.1184 -0.827265
v 0.879506 1.1776 -0.807411
v 0.872078 1.15627 -0.858848
v 0.803604 1.25464 -0.563621
v 0.829605 1.25677 -0.615564
v 0.77345 1.2833 -0.601374
v 0.843671 1.24624 -0.679347
v 0.841173 1.20293 -0.853968
v 0.843671 1.22265 -0.799347
v 0.800207 1.23968 -0.842696
v 0.790834 1.28239 -0.662655
v 0.73839 1.29773 -0.642829
v 0.790834 1.2588 -0.782655
v 0.752297 1.26373 -0.82589
v 0.752297 1.28732 -0.70589
v 0.701092 1.29683 -0.68483
v 0.776901 1.22793 -0.510214
v 0.749758 1.26591 -0.544854
v 0.722076 1.23192 -0.498626
v 0.710987 1.29152 -0.591944
v 0.673354 1.29635 -0.63598
v 0.648329 1.28065 -0.588197
v 0.683978 1.26451 -0.537926
v 0.666255 1.22559 -0.498561
v 0.627923 1.25092 -0.545118
v 0.613689 1.20943 -0.510024
v 0.812637 1.17569 -0.49371
v 0.758894 1.18606 -0.474143
v 0.790828 1.13142 -0.466875
v 0.693114 1.18467 -0.467215
v 0.636956 1.17198 -0.475207
v 0.665707 1.12877 -0.453697
v 0.729259 1.13183 -0.450523
v 0.76279 1.08448 -0.453979
v 0.697754 1.0831 -0.44713
v 0.730657 1.03844 -0.456005
v 0.844387 1.12757 -0.501152
v 0.814752 1.07335 -0.477532
v 0.78228 1.02528 -0.473833
v 0.828325 1.01753 -0.505071
v 0.8641 1.0677 -0.521233
v 0.865286 1.01578 -0.547342
v 0.887789 0.998938 -0.649377
v 0.887789 0.975348 -0.769377
v 0.871618 0.961536 -0.821374
v 0.900928 1.01655 -0.808219
v 0.908493 1.0354 -0.753756
v 0.843068 0.956193 -0.869461
v 0.87434 1.00516 -0.86772
v 0.804312 0.959725 -0.909976
v 0.837485 1.00498 -0.912668
v 0.860878 1.0554 -0.9045
v 0.895281 1.0659 -0.85192
v 0.872709 1.10714 -0.886093
v 0.836973 1.15938 -0.902596
v 0.832549 1.10735 -0.928114
v 0.792126 1.15591 -0.936251
v 0.811608 1.04661 -0.943913
v 0.781045 0.997175 -0.944793
v 0.752293 1.04038 -0.966303
v 0.775462 1.09945 -0.960606
v 0.740951 1.1461 -0.95725
v 0.720246 1.08605 -0.97287
v 0.687343 1.13071 -0.963995
v 0.800652 1.20423 -0.895622
v 0.743566 1.19633 -0.928114
v 0.688711 1.18184 -0.940746
v 0.691622 1.22466 -0.9045
v 0.747814 1.24037 -0.878929
v 0.695857 1.25592 -0.858015
v 0.701092 1.27324 -0.80483
v 0.647067 1.2615 -0.814808
v 0.64138 1.23812 -0.86772
v 0.597757 1.2354 -0.821374
v 0.637131 1.19408 -0.916904
v 0.63572 1.14387 -0.946167
v 0.589675 1.15162 -0.914929
v 0.587783 1.19972 -0.873203
v 0.556915 1.19692 -0.82403
v 0.552714 1.15337 -0.872658
v 0.52765 1.14898 -0.822573
v 0.647067 1.28509 -0.694808
v 0.597757 1.25899 -0.701374
v 0.618619 1.27874 -0.644517
v 0.565023 1.21676 -0.77
v 0.530211 1.17021 -0.770623
v 0.565023 1.24035 -0.65
v 0.530211 1.1938 -0.650623
v 0.546382 1.20761 -0.598626
v 0.556915 1.22051 -0.70403
v 0.59161 1.25174 -0.590499
v 0.574933 1.21296 -0.550539
v 0.580515 1.16417 -0.507332
v 0.54366 1.16399 -0.55228
v 0.557123 1.11375 -0.5155
v 0.517073 1.1526 -0.611781
v 0.509507 1.11016 -0.786244
v 0.509507 1.13375 -0.666244
v 0.50655 1.09209 -0.628678
v 0.522719 1.10326 -0.56808
v 0.545291 1.06201 -0.533907
v 0.519005 1.05075 -0.592735
v 0.545922 1.01288 -0.561152
v 0.606393 1.12254 -0.476087
v 0.585452 1.06181 -0.491886
v 0.581028 1.00977 -0.517404
v 0.625875 1.01325 -0.483749
v 0.642538 1.0697 -0.459394
v 0.67705 1.02305 -0.46275
v 0.72929 0.987315 -0.479254
v 0.674435 0.972822 -0.491886
v 0.726378 0.944493 -0.5155
v 0.617348 0.964925 -0.524378
v 0.576827 0.966222 -0.566032
v 0.617794 0.929471 -0.577304
v 0.670186 0.928779 -0.541071
v 0.722144 0.913232 -0.561985
v 0.665703 0.905424 -0.59411
v 0.716909 0.895913 -0.61517
v 0.780869 0.975074 -0.503096
v 0.776621 0.931031 -0.55228
v 0.770933 0.90765 -0.605192
v 0.820244 0.933753 -0.598626
v 0.830217 0.969427 -0.546797
v 0.861086 0.972235 -0.59597
v 0.852978 0.952393 -0.65
v 0.852978 0.928802 -0.77
v 0.861086 0.948644 -0.71597
v 0.820244 0.910162 -0.718626
v 0.770933 0.884059 -0.725192
v 0.799381 0.890406 -0.775483
v 0.716909 0.872322 -0.73517
v 0.744647 0.872801 -0.78402
v 0.769671 0.888502 -0.831803
v 0.82639 0.917415 -0.829501
v 0.790077 0.918231 -0.874882
v 0.591443 0.955223 -0.887557
v 0.605363 0.993459 -0.92629
v 0.641099 0.941219 -0.909786
v 0.627172 1.03773 -0.953125
v 0.659106 0.983092 -0.945857
v 0.695925 0.93723 -0.921374
v 0.65521 1.08468 -0.966021
v 0.688741 1.03732 -0.969477
v 0.724886 0.984483 -0.952785
v 0.751745 0.943559 -0.921439
v 0.556573 0.999041 -0.883083
v 0.533307 1.04847 -0.87
v 0.573613 1.04158 -0.918848
v 0.523415 1.09976 -0.849305
v 0.5539 1.10145 -0.898767
v 0.603248 1.09581 -0.942468
v 0.562156 0.950252 -0.839875
v 0.544047 0.954608 -0.786875
v 0.529912 0.997874 -0.831445
v 0.538495 0.967959 -0.732589
v 0.515845 1.0084 -0.767662
v 0.538495 0.99155 -0.612589
v 0.515845 1.03199 -0.647662
v 0.510198 1.05775 -0.811363
v 0.50655 1.0685 -0.748678
v 0.614396 0.914515 -0.856379
v 0.64455 0.885855 -0.818626
v 0.588396 0.912381 -0.804436
v 0.679611 0.871425 -0.777171
v 0.627167 0.886763 -0.757345
v 0.665703 0.881833 -0.71411
v 0.627167 0.910354 -0.637345
v 0.574329 0.922909 -0.740653
v 0.574329 0.946499 -0.620653
v 0.668243 0.903245 -0.875146
v 0.734023 0.904636 -0.882074
v 0.707014 0.877627 -0.828056
f 1 2 3
f 2 4 5
f 3 5 6
f 2 5 3
f 4 7 8
f 7 9 10
f 8 10 11
f 7 10 8
f 6 12 13
f 14 15 16
f 17 16 18
f 14 16 17
f 4 8 5
f 8 11 12
f 5 12 6
f 8 12 5
f 1 3 19
f 3 6 20
f 19 20 21
f 3 20 19
f 6 13 22
f 17 18 23
f 24 23 25
f 17 23 24
f 21 26 27
f 28 25 29
f 27 30 31
f 26 30 27
f 6 22 20
f 24 25 28
f 20 26 21
f 22 26 20
f 1 19 32
f 19 21 33
f 32 33 34
f 19 33 32
f 21 27 35
f 27 31 36
f 35 36 37
f 27 36 35
f 34 38 39
f 38 37 40
f 39 40 41
f 38 40 39
f 21 35 33
f 35 37 38
f 33 38 34
f 35 38 33
f 1 32 42
f 32 34 43
f 42 43 44
f 32 43 42
f 34 39 45
f 39 41 46
f 45 46 47
f 39 46 45
f 44 48 49
f 48 47 50
f 49 50 51
f 48 50 49
f 34 45 43
f 45 47 48
f 43 48 44
f 45 48 43
f 1 42 2
f 42 44 52
f 2 52 4
f 42 52 2
f 44 49 53
f 49 51 54
f 53 54 55
f 49 54 53
f 4 56 7
f 56 55 57
f 7 57 9
f 56 57 7
f 44 53 52
f 53 55 56
f 52 56 4
f 53 56 52
f 9 58 10
f 59 60 61
f 62 61 15
f 59 61 62
f 60 63 64
f 63 65 66
f 64 66 67
f 63 66 64
f 15 68 16
f 68 67 69
f 16 69 18
f 68 69 16
f 60 64 61
f 64 67 68
f 61 68 15
f 64 68 61
f 18 69 70
f 69 67 71
f 70 71 72
f 69 71 70
f 67 66 73
f 66 65 74
f 73 74 75
f 66 74 73
f 72 76 77
f 76 75 78
f 77 78 79
f 76 78 77
f 67 73 71
f 73 75 76
f 71 76 72
f 73 76 71
f 18 70 23
f 70 72 80
f 23 80 25
f 70 80 23
f 72 77 81
f 77 79 82
f 81 82 83
f 77 82 81
f 25 84 29
f 84 83 85
f 29 85 86
f 84 85 29
f 72 81 80
f 81 83 84
f 80 84 25
f 81 84 80
f 86 85 87
f 85 83 88
f 87 88 89
f 85 88 87
f 83 82 90
f 82 79 91
f 90 91 92
f 82 91 90
f 89 93 94
f 93 92 95
f 94 95 96
f 93 95 94
f 83 90 88
f 90 92 93
f 88 93 89
f 90 93 88
f 31 97 36
f 97 98 99
f 36 99 37
f 97 99 36
f 89 94 100
f 94 96 101
f 102 103 104
f 105 103 102
f 37 106 40
f 106 104 107
f 40 107 41
f 106 107 40
f 98 102 99
f 102 104 106
f 99 106 37
f 102 106 99
f 41 107 108
f 107 104 109
f 108 109 110
f 107 109 108
f 104 103 111
f 101 96 112
f 111 113 114
f 103 113 111
f 110 115 116
f 115 114 117
f 116 117 118
f 115 117 116
f 104 111 109
f 111 114 115
f 109 115 110
f 111 115 109
f 41 108 46
f 108 110 119
f 46 119 47
f 108 119 46
f 110 116 120
f 116 118 121
f 120 121 122
f 116 121 120
f 47 123 50
f 123 122 124
f 50 124 51
f 123 124 50
f 110 120 119
f 120 122 123
f 119 123 47
f 120 123 119
f 51 124 125
f 124 122 126
f 125 126 127
f 124 126 125
f 122 121 128
f 121 118 129
f 128 129 130
f 121 129 128
f 127 131 132
f 131 130 133
f 132 133 134
f 131 133 132
f 122 128 126
f 128 130 131
f 126 131 127
f 128 131 126
f 51 125 54
f 125 127 135
f 54 135 55
f 125 135 54
f 127 132 136
f 132 134 137
f 136 137 138
f 132 137 136
f 55 139 57
f 139 138 140
f 57 140 9
f 139 140 57
f 127 136 135
f 136 138 139
f 135 139 55
f 136 139 135
f 9 140 58
f 140 138 141
f 59 142 60
f 143 142 59
f 144 145 146
f 145 147 148
f 146 148 149
f 145 148 146
f 60 150 63
f 150 149 151
f 63 151 65
f 150 151 63
f 144 146 142
f 146 149 150
f 142 150 60
f 146 150 142
f 152 153 154
f 153 155 156
f 154 156 157
f 153 156 154
f 155 158 159
f 158 79 78
f 159 78 75
f 158 78 159
f 157 160 161
f 160 75 74
f 161 74 65
f 160 74 161
f 155 159 156
f 159 75 160
f 156 160 157
f 159 160 156
f 152 162 153
f 162 163 164
f 153 164 155
f 162 164 153
f 163 165 166
f 165 96 95
f 166 95 92
f 165 95 166
f 155 167 158
f 167 92 91
f 158 91 79
f 167 91 158
f 163 166 164
f 166 92 167
f 164 167 155
f 166 167 164
f 152 168 162
f 168 169 170
f 162 170 163
f 168 170 162
f 169 171 172
f 173 118 117
f 174 117 114
f 173 117 174
f 163 175 165
f 175 176 112
f 165 112 96
f 175 112 165
f 169 172 170
f 172 176 175
f 170 175 163
f 172 175 170
f 152 177 168
f 177 178 179
f 168 179 169
f 177 179 168
f 178 180 181
f 180 147 182
f 183 133 130
f 180 182 181
f 169 184 171
f 185 130 129
f 173 129 118
f 185 129 173
f 178 181 179
f 183 130 185
f 179 184 169
f 181 184 179
f 152 154 177
f 154 157 186
f 177 186 178
f 154 186 177
f 157 161 187
f 161 65 151
f 187 151 149
f 161 151 187
f 178 188 180
f 188 149 148
f 180 148 147
f 188 148 180
f 157 187 186
f 187 149 188
f 186 188 178
f 187 188 186
f 14 12 15
f 15 12 11
f 17 13 14
f 14 13 12
f 24 22 17
f 17 22 13
f 29 30 28
f 28 30 26
f 28 26 24
f 24 26 22
f 15 11 62
f 62 11 10
f 62 10 59
f 59 10 58
f 86 31 29
f 29 31 30
f 87 97 86
f 86 97 31
f 89 98 87
f 87 98 97
f 94 105 100
f 100 105 102
f 100 102 89
f 89 102 98
f 101 103 94
f 94 103 105
f 112 113 101
f 101 113 103
f 143 140 142
f 142 140 141
f 59 58 143
f 143 58 140
f 144 138 145
f 145 138 137
f 145 137 147
f 147 137 134
f 142 141 144
f 144 141 138
f 171 173 172
f 172 173 174
f 176 114 112
f 112 114 113
f 172 174 176
f 176 174 114
f 147 134 182
f 182 134 133
f 182 133 181
f 181 133 183
f 184 185 171
f 171 185 173
f 181 183 184
f 184 183 185
