v 0.826557 1.21429 -0.452443
v 0.861427 1.17047 -0.456917
v 0.855844 1.21926 -0.500125
v 0.884694 1.12104 -0.47
v 0.888089 1.17164 -0.508555
v 0.873953 1.21491 -0.553125
v 0.894586 1.06976 -0.490695
v 0.907802 1.11176 -0.528637
v 0.890351 1.02053 -0.517427
v 0.908493 1.05935 -0.553756
v 0.91145 1.10102 -0.591322
v 0.873953 1.21454 -0.633125
v 0.902156 1.16075 -0.652338
v 0.879506 1.20119 -0.687411
v 0.91145 1.10065 -0.671322
v 0.898996 1.14199 -0.707265
v 0.872078 1.17986 -0.738848
v 0.902156 1.16111 -0.572338
v 0.803604 1.255 -0.483621
v 0.829605 1.25713 -0.535564
v 0.77345 1.28366 -0.521374
v 0.843671 1.24624 -0.679347
v 0.841173 1.22652 -0.733968
v 0.800207 1.26327 -0.722696
v 0.790834 1.28275 -0.582655
v 0.73839 1.29809 -0.562829
v 0.790834 1.28239 -0.662655
v 0.752297 1.28732 -0.70589
v 0.73839 1.29773 -0.642829
v 0.701092 1.29683 -0.68483
v 0.843671 1.24661 -0.599347
v 0.829605 1.25677 -0.615564
v 0.776901 1.2283 -0.430214
v 0.749758 1.26627 -0.464854
v 0.722076 1.23228 -0.418626
v 0.710987 1.29189 -0.511944
v 0.701092 1.29719 -0.60483
v 0.673354 1.29671 -0.55598
v 0.648329 1.28101 -0.508197
v 0.683978 1.26488 -0.457926
v 0.666255 1.22595 -0.418561
v 0.627923 1.25128 -0.465118
v 0.613689 1.20979 -0.430024
v 0.812637 1.17606 -0.41371
v 0.758894 1.18642 -0.394143
v 0.790828 1.13178 -0.386875
v 0.693114 1.18503 -0.387215
v 0.636956 1.17234 -0.395207
v 0.665707 1.12913 -0.373697
v 0.729259 1.13219 -0.370523
v 0.76279 1.08484 -0.373979
v 0.697754 1.08346 -0.36713
v 0.730657 1.0388 -0.376006
v 0.844387 1.12794 -0.421152
v 0.814752 1.07371 -0.397532
v 0.78228 1.02564 -0.393833
v 0.828325 1.01789 -0.425071
v 0.8641 1.06806 -0.441233
v 0.865286 1.01614 -0.467342
v 0.887789 0.999302 -0.569377
v 0.887789 0.998938 -0.649377
v 0.871618 0.985127 -0.701374
v 0.900928 1.04014 -0.688219
v 0.908493 1.05899 -0.633756
v 0.843068 0.979784 -0.749461
v 0.87434 1.02875 -0.74772
v 0.804312 0.983316 -0.789976
v 0.837485 1.02857 -0.792668
v 0.860878 1.07899 -0.7845
v 0.895281 1.08949 -0.73192
v 0.872709 1.13073 -0.766093
v 0.836973 1.18297 -0.782596
v 0.832549 1.13094 -0.808114
v 0.792126 1.1795 -0.816251
v 0.811608 1.0702 -0.823913
v 0.781045 1.02077 -0.824793
v 0.752293 1.06397 -0.846303
v 0.775462 1.12304 -0.840606
v 0.740951 1.16969 -0.83725
v 0.720246 1.10964 -0.85287
v 0.687343 1.1543 -0.843994
v 0.800652 1.22782 -0.775622
v 0.743566 1.21992 -0.808114
v 0.688711 1.20543 -0.820746
v 0.691622 1.24825 -0.7845
v 0.747814 1.26396 -0.758929
v 0.695857 1.27951 -0.738015
v 0.647067 1.28509 -0.694808
v 0.64138 1.26171 -0.74772
v 0.597757 1.25899 -0.701374
v 0.637131 1.21767 -0.796904
v 0.63572 1.16746 -0.826167
v 0.589675 1.17521 -0.794929
v 0.587783 1.22331 -0.753203
v 0.556915 1.22051 -0.70403
v 0.552714 1.17696 -0.752658
v 0.52765 1.17257 -0.702573
v 0.673354 1.29635 -0.63598
v 0.618619 1.27874 -0.644517
v 0.618619 1.27911 -0.564517
v 0.565023 1.24035 -0.65
v 0.530211 1.1938 -0.650623
v 0.565023 1.24071 -0.57
v 0.530211 1.19417 -0.570623
v 0.546382 1.20798 -0.518626
v 0.59161 1.2521 -0.510499
v 0.574933 1.21332 -0.470539
v 0.580515 1.16453 -0.427332
v 0.54366 1.16435 -0.47228
v 0.557123 1.11411 -0.4355
v 0.517073 1.15297 -0.531781
v 0.509507 1.13375 -0.666244
v 0.509507 1.13412 -0.586244
v 0.50655 1.09245 -0.548678
v 0.522719 1.10362 -0.48808
v 0.545291 1.06237 -0.453907
v 0.519005 1.05111 -0.512735
v 0.545922 1.01324 -0.481152
v 0.606393 1.1229 -0.396087
v 0.585452 1.06217 -0.411886
v 0.581028 1.01013 -0.437404
v 0.625875 1.01361 -0.403749
v 0.642538 1.07007 -0.379394
v 0.67705 1.02341 -0.38275
v 0.72929 0.987678 -0.399254
v 0.674435 0.973186 -0.411886
v 0.726378 0.944856 -0.4355
v 0.617348 0.965288 -0.444378
v 0.576827 0.966586 -0.486032
v 0.617794 0.929834 -0.497304
v 0.670186 0.929143 -0.461071
v 0.722144 0.913596 -0.481985
v 0.665703 0.905787 -0.51411
v 0.716909 0.896276 -0.53517
v 0.780869 0.975437 -0.423096
v 0.776621 0.931394 -0.47228
v 0.770933 0.908013 -0.525192
v 0.820244 0.934116 -0.518626
v 0.830217 0.96979 -0.466797
v 0.861086 0.972598 -0.51597
v 0.852978 0.952757 -0.57
v 0.852978 0.952393 -0.65
v 0.799381 0.91436 -0.575483
v 0.744647 0.896755 -0.58402
v 0.799381 0.913997 -0.655483
v 0.744647 0.896391 -0.66402
v 0.769671 0.912093 -0.711803
v 0.82639 0.941006 -0.709501
v 0.790077 0.941822 -0.754882
v 0.591443 0.978814 -0.767557
v 0.605363 1.01705 -0.80629
v 0.641099 0.96481 -0.789786
v 0.627172 1.06132 -0.833125
v 0.659106 1.00668 -0.825857
v 0.695925 0.960821 -0.801374
v 0.65521 1.10827 -0.846021
v 0.688741 1.06091 -0.849477
v 0.724886 1.00807 -0.832785
v 0.751745 0.96715 -0.801439
v 0.556573 1.02263 -0.763083
v 0.533307 1.07206 -0.75
v 0.573613 1.06517 -0.798848
v 0.523415 1.12335 -0.729305
v 0.5539 1.12504 -0.778767
v 0.603248 1.1194 -0.822468
v 0.562156 0.973843 -0.719875
v 0.544047 0.978199 -0.666875
v 0.529912 1.02147 -0.711445
v 0.544047 0.978562 -0.586875
v 0.538495 0.991914 -0.532589
v 0.515845 1.03236 -0.567662
v 0.510198 1.08134 -0.691363
v 0.50655 1.09209 -0.628678
v 0.515845 1.03199 -0.647662
v 0.614396 0.938106 -0.736379
v 0.64455 0.909446 -0.698626
v 0.588396 0.935972 -0.684436
v 0.679611 0.895016 -0.657171
v 0.627167 0.910354 -0.637345
v 0.679611 0.895379 -0.577171
v 0.627167 0.910718 -0.557345
v 0.574329 0.946863 -0.540653
v 0.574329 0.946499 -0.620653
v 0.588396 0.936335 -0.604436
v 0.668243 0.926836 -0.755146
v 0.734023 0.928227 -0.762074
v 0.707014 0.901218 -0.708056
v 0.716909 0.895913 -0.61517
f 1 2 3
f 2 4 5
f 3 5 6
f 2 5 3
f 4 7 8
f 7 9 10
f 8 10 11
f 7 10 8
f 12 13 14
f 13 15 16
f 14 16 17
f 13 16 14
f 4 8 5
f 8 11 18
f 5 18 6
f 8 18 5
f 1 3 19
f 3 6 20
f 19 20 21
f 3 20 19
f 12 14 22
f 14 17 23
f 22 23 24
f 14 23 22
f 21 25 26
f 27 24 28
f 29 28 30
f 27 28 29
f 6 31 20
f 22 24 27
f 20 25 21
f 22 27 32
f 1 19 33
f 19 21 34
f 33 34 35
f 19 34 33
f 21 26 36
f 26 37 38
f 36 38 39
f 26 38 36
f 35 40 41
f 40 39 42
f 41 42 43
f 40 42 41
f 21 36 34
f 36 39 40
f 34 40 35
f 36 40 34
f 1 33 44
f 33 35 45
f 44 45 46
f 33 45 44
f 35 41 47
f 41 43 48
f 47 48 49
f 41 48 47
f 46 50 51
f 50 49 52
f 51 52 53
f 50 52 51
f 35 47 45
f 47 49 50
f 45 50 46
f 47 50 45
f 1 44 2
f 44 46 54
f 2 54 4
f 44 54 2
f 46 51 55
f 51 53 56
f 55 56 57
f 51 56 55
f 4 58 7
f 58 57 59
f 7 59 9
f 58 59 7
f 46 55 54
f 55 57 58
f 54 58 4
f 55 58 54
f 9 60 10
f 61 62 63
f 64 63 15
f 61 63 64
f 62 65 66
f 65 67 68
f 66 68 69
f 65 68 66
f 15 70 16
f 70 69 71
f 16 71 17
f 70 71 16
f 62 66 63
f 66 69 70
f 63 70 15
f 66 70 63
f 17 71 72
f 71 69 73
f 72 73 74
f 71 73 72
f 69 68 75
f 68 67 76
f 75 76 77
f 68 76 75
f 74 78 79
f 78 77 80
f 79 80 81
f 78 80 79
f 69 75 73
f 75 77 78
f 73 78 74
f 75 78 73
f 17 72 23
f 72 74 82
f 23 82 24
f 72 82 23
f 74 79 83
f 79 81 84
f 83 84 85
f 79 84 83
f 24 86 28
f 86 85 87
f 28 87 30
f 86 87 28
f 74 83 82
f 83 85 86
f 82 86 24
f 83 86 82
f 30 87 88
f 87 85 89
f 88 89 90
f 87 89 88
f 85 84 91
f 84 81 92
f 91 92 93
f 84 92 91
f 90 94 95
f 94 93 96
f 95 96 97
f 94 96 95
f 85 91 89
f 91 93 94
f 89 94 90
f 91 94 89
f 30 88 98
f 88 90 99
f 38 100 39
f 88 99 98
f 90 95 101
f 95 97 102
f 103 104 105
f 95 102 101
f 39 106 42
f 106 105 107
f 42 107 43
f 106 107 42
f 90 101 99
f 103 105 106
f 100 106 39
f 103 106 100
f 43 107 108
f 107 105 109
f 108 109 110
f 107 109 108
f 105 104 111
f 102 97 112
f 111 113 114
f 104 113 111
f 110 115 116
f 115 114 117
f 116 117 118
f 115 117 116
f 105 111 109
f 111 114 115
f 109 115 110
f 111 115 109
f 43 108 48
f 108 110 119
f 48 119 49
f 108 119 48
f 110 116 120
f 116 118 121
f 120 121 122
f 116 121 120
f 49 123 52
f 123 122 124
f 52 124 53
f 123 124 52
f 110 120 119
f 120 122 123
f 119 123 49
f 120 123 119
f 53 124 125
f 124 122 126
f 125 126 127
f 124 126 125
f 122 121 128
f 121 118 129
f 128 129 130
f 121 129 128
f 127 131 132
f 131 130 133
f 132 133 134
f 131 133 132
f 122 128 126
f 128 130 131
f 126 131 127
f 128 131 126
f 53 125 56
f 125 127 135
f 56 135 57
f 125 135 56
f 127 132 136
f 132 134 137
f 136 137 138
f 132 137 136
f 57 139 59
f 139 138 140
f 59 140 9
f 139 140 59
f 127 136 135
f 136 138 139
f 135 139 57
f 136 139 135
f 9 140 60
f 140 138 141
f 61 142 62
f 140 141 60
f 138 137 143
f 137 134 144
f 145 146 147
f 137 144 143
f 62 148 65
f 148 147 149
f 65 149 67
f 148 149 65
f 138 143 141
f 145 147 148
f 142 148 62
f 145 148 142
f 150 151 152
f 151 153 154
f 152 154 155
f 151 154 152
f 153 156 157
f 156 81 80
f 157 80 77
f 156 80 157
f 155 158 159
f 158 77 76
f 159 76 67
f 158 76 159
f 153 157 154
f 157 77 158
f 154 158 155
f 157 158 154
f 150 160 151
f 160 161 162
f 151 162 153
f 160 162 151
f 161 163 164
f 163 97 96
f 164 96 93
f 163 96 164
f 153 165 156
f 165 93 92
f 156 92 81
f 165 92 156
f 161 164 162
f 164 93 165
f 162 165 153
f 164 165 162
f 150 166 160
f 166 167 168
f 160 168 161
f 166 168 160
f 169 170 171
f 170 118 117
f 171 117 114
f 170 117 171
f 161 172 163
f 172 173 112
f 163 112 97
f 172 112 163
f 167 174 168
f 174 173 172
f 168 172 161
f 174 172 168
f 150 175 166
f 175 176 177
f 166 177 167
f 175 177 166
f 176 178 179
f 180 134 133
f 181 133 130
f 180 133 181
f 169 182 170
f 182 130 129
f 170 129 118
f 182 129 170
f 176 179 177
f 181 130 182
f 177 183 167
f 181 182 184
f 150 152 175
f 152 155 185
f 175 185 176
f 152 185 175
f 155 159 186
f 159 67 149
f 186 149 147
f 159 149 186
f 176 187 178
f 187 147 146
f 178 146 188
f 187 146 178
f 155 186 185
f 186 147 187
f 185 187 176
f 186 187 185
f 12 6 13
f 13 6 18
f 13 18 15
f 15 18 11
f 22 31 12
f 12 31 6
f 30 37 29
f 29 37 26
f 29 26 27
f 27 26 25
f 27 25 32
f 32 25 20
f 32 20 22
f 22 20 31
f 15 11 64
f 64 11 10
f 64 10 61
f 61 10 60
f 98 38 30
f 30 38 37
f 99 100 98
f 98 100 38
f 102 104 101
f 101 104 103
f 101 103 99
f 99 103 100
f 112 113 102
f 102 113 104
f 61 60 142
f 142 60 141
f 145 143 146
f 146 143 144
f 142 141 145
f 145 141 143
f 173 114 112
f 112 114 113
f 167 169 174
f 174 169 171
f 174 171 173
f 173 171 114
f 178 180 179
f 179 180 181
f 179 181 177
f 177 181 184
f 177 184 183
f 183 184 182
f 183 182 167
f 167 182 169
f 146 144 188
f 188 144 134
f 188 134 178
f 178 134 180
