v 0.826557 1.1559 0.307557
v 0.861427 1.11208 0.303083
v 0.855844 1.16087 0.259875
v 0.884694 1.06265 0.29
v 0.888089 1.11325 0.251445
v 0.873953 1.15652 0.206875
v 0.894586 1.01137 0.269305
v 0.907802 1.05338 0.231364
v 0.890351 0.962142 0.242573
v 0.908493 1.00096 0.206244
v 0.91145 1.04263 0.168678
v 0.873953 1.16683 0.166875
v 0.902156 1.11304 0.147662
v 0.879506 1.15348 0.112589
v 0.91145 1.05294 0.128678
v 0.898996 1.09428 0.0927354
v 0.872078 1.13215 0.0611518
v 0.907802 1.06369 0.191364
v 0.902156 1.10272 0.187662
v 0.803604 1.19661 0.276379
v 0.829605 1.19874 0.224436
v 0.77345 1.22527 0.238626
v 0.843671 1.19853 0.120653
v 0.841173 1.17881 0.0660318
v 0.800207 1.21556 0.0773038
v 0.77345 1.23559 0.198626
v 0.790834 1.23468 0.137345
v 0.73839 1.25002 0.157171
v 0.752297 1.23961 0.0941096
v 0.701092 1.24912 0.11517
v 0.829605 1.20906 0.184436
v 0.776901 1.16991 0.329786
v 0.749758 1.20788 0.295146
v 0.722076 1.1739 0.341374
v 0.710987 1.24381 0.208056
v 0.673354 1.24864 0.16402
v 0.648329 1.23294 0.211804
v 0.683978 1.20649 0.302074
v 0.666255 1.16757 0.341439
v 0.648329 1.22262 0.251803
v 0.627923 1.19289 0.294882
v 0.613689 1.1514 0.329976
v 0.710987 1.2335 0.248056
v 0.812637 1.11767 0.34629
v 0.758894 1.12803 0.365857
v 0.790828 1.07339 0.373125
v 0.693114 1.12664 0.372785
v 0.636956 1.11395 0.364793
v 0.665707 1.07075 0.386303
v 0.729259 1.0738 0.389477
v 0.76279 1.02645 0.386021
v 0.697754 1.02507 0.39287
v 0.730657 0.980414 0.383995
v 0.844387 1.06955 0.338848
v 0.814752 1.01532 0.362468
v 0.78228 0.967252 0.366167
v 0.828325 0.959503 0.334929
v 0.8641 1.00967 0.318767
v 0.865286 0.957755 0.292658
v 0.887789 0.940914 0.190623
v 0.887789 0.951228 0.150623
v 0.871618 0.937417 0.0986258
v 0.900928 0.992428 0.111781
v 0.908493 1.01128 0.166244
v 0.900928 0.982113 0.151781
v 0.843068 0.932074 0.0505391
v 0.87434 0.98104 0.0522803
v 0.804312 0.935606 0.0100238
v 0.837485 0.980864 0.00733189
v 0.860878 1.03128 0.0155004
v 0.895281 1.04178 0.0680798
v 0.872709 1.08302 0.0339074
v 0.836973 1.13526 0.0174038
v 0.832549 1.08323 -0.00811382
v 0.792126 1.13179 -0.0162507
v 0.811608 1.02249 -0.0239132
v 0.781045 0.973056 -0.0247925
v 0.752293 1.01626 -0.046303
v 0.775462 1.07533 -0.0406058
v 0.740951 1.12198 -0.0372496
v 0.720246 1.06193 -0.0528703
v 0.687343 1.10659 -0.0439944
v 0.800652 1.18011 0.0243782
v 0.743566 1.17221 -0.00811382
v 0.688711 1.15772 -0.0207459
v 0.691622 1.20054 0.0155004
v 0.747814 1.21625 0.0410707
v 0.695857 1.2318 0.0619852
v 0.647067 1.23738 0.105192
v 0.64138 1.214 0.0522803
v 0.597757 1.21128 0.0986258
v 0.637131 1.16996 0.00309582
v 0.63572 1.11975 -0.0261667
v 0.589675 1.1275 0.0050713
v 0.587783 1.1756 0.0467975
v 0.556915 1.1728 0.0959699
v 0.552714 1.12925 0.0473418
v 0.52765 1.12486 0.097427
v 0.618619 1.23103 0.155483
v 0.565023 1.19264 0.15
v 0.530211 1.14609 0.149377
v 0.546382 1.1599 0.201374
v 0.59161 1.19371 0.249501
v 0.546382 1.14959 0.241374
v 0.574933 1.15493 0.289461
v 0.565023 1.18232 0.19
v 0.59161 1.20403 0.209501
v 0.580515 1.10614 0.332668
v 0.54366 1.10597 0.28772
v 0.557123 1.05572 0.3245
v 0.530211 1.13578 0.189377
v 0.517073 1.09458 0.228219
v 0.509507 1.08604 0.133756
v 0.509507 1.07573 0.173756
v 0.50655 1.03406 0.211322
v 0.517073 1.10489 0.188219
v 0.522719 1.04523 0.27192
v 0.545291 1.00398 0.306093
v 0.519005 0.992724 0.247265
v 0.545922 0.954856 0.278848
v 0.606393 1.06452 0.363913
v 0.585452 1.00378 0.348114
v 0.581028 0.951742 0.322596
v 0.625875 0.95522 0.356251
v 0.642538 1.01168 0.380606
v 0.67705 0.965026 0.37725
v 0.72929 0.92929 0.360746
v 0.674435 0.914797 0.348114
v 0.726378 0.886468 0.3245
v 0.617348 0.9069 0.315622
v 0.576827 0.908197 0.273968
v 0.617794 0.871446 0.262696
v 0.670186 0.870754 0.298929
v 0.722144 0.855208 0.278015
v 0.665703 0.847399 0.245891
v 0.716909 0.837888 0.22483
v 0.780869 0.917049 0.336904
v 0.776621 0.873006 0.28772
v 0.770933 0.849625 0.234808
v 0.820244 0.875728 0.241374
v 0.830217 0.911402 0.293203
v 0.861086 0.91421 0.24403
v 0.852978 0.894368 0.19
v 0.871618 0.927102 0.138626
v 0.799381 0.855972 0.184517
v 0.744647 0.838366 0.17598
v 0.769671 0.854068 0.128197
v 0.82639 0.893296 0.090499
v 0.769671 0.864383 0.0881967
v 0.790077 0.894112 0.0451182
v 0.82639 0.882981 0.130499
v 0.852978 0.904683 0.15
v 0.591443 0.931104 0.032443
v 0.605363 0.96934 -0.00628977
v 0.641099 0.9171 0.0102139
v 0.627172 1.01361 -0.0331253
v 0.659106 0.958973 -0.0258568
v 0.695925 0.913111 -0.00137424
v 0.65521 1.06056 -0.0460207
v 0.688741 1.0132 -0.0494773
v 0.724886 0.960364 -0.0327848
v 0.751745 0.91944 -0.00143926
v 0.556573 0.974922 0.0369175
v 0.533307 1.02435 0.0500001
v 0.573613 1.01746 0.00115226
v 0.523415 1.07564 0.0706951
v 0.5539 1.07733 0.0212334
v 0.603248 1.07169 -0.0224682
v 0.562156 0.926133 0.0801247
v 0.544047 0.930489 0.133125
v 0.529912 0.973755 0.0885555
v 0.544047 0.920174 0.173125
v 0.538495 0.933525 0.227411
v 0.515845 0.973968 0.192338
v 0.510198 1.03363 0.108637
v 0.50655 1.04438 0.171322
v 0.515845 0.984283 0.152338
v 0.510198 1.02332 0.148637
v 0.614396 0.890396 0.063621
v 0.64455 0.861736 0.101374
v 0.588396 0.888262 0.115565
v 0.64455 0.851421 0.141374
v 0.679611 0.836991 0.182829
v 0.627167 0.852329 0.202655
v 0.574329 0.888475 0.219347
v 0.588396 0.877947 0.155564
v 0.668243 0.879126 0.0448538
v 0.734023 0.880517 0.0379259
v 0.707014 0.843193 0.131944
v 0.707014 0.853508 0.0919441
f 1 2 3
f 2 4 5
f 3 5 6
f 2 5 3
f 4 7 8
f 7 9 10
f 8 10 11
f 7 10 8
f 12 13 14
f 13 15 16
f 14 16 17
f 13 16 14
f 4 8 5
f 18 15 13
f 5 19 6
f 8 19 5
f 1 3 20
f 3 6 21
f 20 21 22
f 3 21 20
f 12 14 23
f 14 17 24
f 23 24 25
f 14 24 23
f 26 27 28
f 27 25 29
f 28 29 30
f 27 29 28
f 12 23 31
f 23 25 27
f 31 27 26
f 23 27 31
f 1 20 32
f 20 22 33
f 32 33 34
f 20 33 32
f 26 28 35
f 28 30 36
f 35 36 37
f 28 36 35
f 34 38 39
f 38 40 41
f 39 41 42
f 38 41 39
f 22 43 33
f 43 40 38
f 33 38 34
f 43 38 33
f 1 32 44
f 32 34 45
f 44 45 46
f 32 45 44
f 34 39 47
f 39 42 48
f 47 48 49
f 39 48 47
f 46 50 51
f 50 49 52
f 51 52 53
f 50 52 51
f 34 47 45
f 47 49 50
f 45 50 46
f 47 50 45
f 1 44 2
f 44 46 54
f 2 54 4
f 44 54 2
f 46 51 55
f 51 53 56
f 55 56 57
f 51 56 55
f 4 58 7
f 58 57 59
f 7 59 9
f 58 59 7
f 46 55 54
f 55 57 58
f 54 58 4
f 55 58 54
f 9 60 10
f 61 62 63
f 64 63 15
f 60 65 10
f 62 66 67
f 66 68 69
f 67 69 70
f 66 69 67
f 15 71 16
f 71 70 72
f 16 72 17
f 71 72 16
f 62 67 63
f 67 70 71
f 63 71 15
f 67 71 63
f 17 72 73
f 72 70 74
f 73 74 75
f 72 74 73
f 70 69 76
f 69 68 77
f 76 77 78
f 69 77 76
f 75 79 80
f 79 78 81
f 80 81 82
f 79 81 80
f 70 76 74
f 76 78 79
f 74 79 75
f 76 79 74
f 17 73 24
f 73 75 83
f 24 83 25
f 73 83 24
f 75 80 84
f 80 82 85
f 84 85 86
f 80 85 84
f 25 87 29
f 87 86 88
f 29 88 30
f 87 88 29
f 75 84 83
f 84 86 87
f 83 87 25
f 84 87 83
f 30 88 89
f 88 86 90
f 89 90 91
f 88 90 89
f 86 85 92
f 85 82 93
f 92 93 94
f 85 93 92
f 91 95 96
f 95 94 97
f 96 97 98
f 95 97 96
f 86 92 90
f 92 94 95
f 90 95 91
f 92 95 90
f 30 89 36
f 89 91 99
f 36 99 37
f 89 99 36
f 91 96 100
f 96 98 101
f 100 101 102
f 96 101 100
f 40 103 41
f 103 104 105
f 41 105 42
f 103 105 41
f 91 100 99
f 106 104 103
f 99 107 37
f 100 107 99
f 42 105 108
f 105 104 109
f 108 109 110
f 105 109 108
f 104 111 112
f 101 98 113
f 112 114 115
f 101 113 116
f 110 117 118
f 117 115 119
f 118 119 120
f 117 119 118
f 104 112 109
f 112 115 117
f 109 117 110
f 112 117 109
f 42 108 48
f 108 110 121
f 48 121 49
f 108 121 48
f 110 118 122
f 118 120 123
f 122 123 124
f 118 123 122
f 49 125 52
f 125 124 126
f 52 126 53
f 125 126 52
f 110 122 121
f 122 124 125
f 121 125 49
f 122 125 121
f 53 126 127
f 126 124 128
f 127 128 129
f 126 128 127
f 124 123 130
f 123 120 131
f 130 131 132
f 123 131 130
f 129 133 134
f 133 132 135
f 134 135 136
f 133 135 134
f 124 130 128
f 130 132 133
f 128 133 129
f 130 133 128
f 53 127 56
f 127 129 137
f 56 137 57
f 127 137 56
f 129 134 138
f 134 136 139
f 138 139 140
f 134 139 138
f 57 141 59
f 141 140 142
f 59 142 9
f 141 142 59
f 129 138 137
f 138 140 141
f 137 141 57
f 138 141 137
f 9 142 60
f 142 140 143
f 60 143 144
f 142 143 60
f 140 139 145
f 139 136 146
f 145 146 147
f 139 146 145
f 62 148 66
f 148 149 150
f 66 150 68
f 148 150 66
f 140 145 143
f 145 147 151
f 152 148 62
f 145 151 143
f 153 154 155
f 154 156 157
f 155 157 158
f 154 157 155
f 156 159 160
f 159 82 81
f 160 81 78
f 159 81 160
f 158 161 162
f 161 78 77
f 162 77 68
f 161 77 162
f 156 160 157
f 160 78 161
f 157 161 158
f 160 161 157
f 153 163 154
f 163 164 165
f 154 165 156
f 163 165 154
f 164 166 167
f 166 98 97
f 167 97 94
f 166 97 167
f 156 168 159
f 168 94 93
f 159 93 82
f 168 93 159
f 164 167 165
f 167 94 168
f 165 168 156
f 167 168 165
f 153 169 163
f 169 170 171
f 163 171 164
f 169 171 163
f 172 173 174
f 173 120 119
f 174 119 115
f 173 119 174
f 164 175 166
f 175 176 113
f 166 113 98
f 175 113 166
f 170 177 171
f 174 115 178
f 171 175 164
f 177 175 171
f 153 179 169
f 179 180 181
f 169 181 170
f 179 181 169
f 182 183 184
f 183 136 135
f 184 135 132
f 183 135 184
f 172 185 173
f 185 132 131
f 173 131 120
f 185 131 173
f 182 184 186
f 184 132 185
f 186 185 172
f 184 185 186
f 153 155 179
f 155 158 187
f 179 187 180
f 155 187 179
f 158 162 188
f 162 68 150
f 188 150 149
f 162 150 188
f 182 189 183
f 189 147 146
f 183 146 136
f 189 146 183
f 158 188 187
f 188 149 190
f 187 190 180
f 188 190 187
f 12 6 13
f 13 6 19
f 18 8 15
f 15 8 11
f 13 19 18
f 18 19 8
f 31 21 12
f 12 21 6
f 26 22 31
f 31 22 21
f 35 43 26
f 26 43 22
f 37 40 35
f 35 40 43
f 61 60 62
f 62 60 144
f 63 65 61
f 61 65 60
f 64 10 63
f 63 10 65
f 15 11 64
f 64 11 10
f 101 111 102
f 102 111 104
f 102 104 100
f 100 104 106
f 107 103 37
f 37 103 40
f 100 106 107
f 107 106 103
f 113 114 116
f 116 114 112
f 116 112 101
f 101 112 111
f 148 151 149
f 149 151 147
f 152 143 148
f 148 143 151
f 62 144 152
f 152 144 143
f 175 178 176
f 176 178 115
f 176 115 113
f 113 115 114
f 170 172 177
f 177 172 174
f 177 174 175
f 175 174 178
f 180 182 181
f 181 182 186
f 181 186 170
f 170 186 172
f 149 147 190
f 190 147 189
f 190 189 180
f 180 189 182
