v 0.106557 1.07163 -0.652443
v 0.141427 1.02781 -0.656917
v 0.135844 1.0766 -0.700125
v 0.164694 0.978383 -0.67
v 0.168089 1.02898 -0.708555
v 0.153953 1.07225 -0.753125
v 0.174586 0.9271 -0.690695
v 0.187802 0.969106 -0.728637
v 0.174586 0.912277 -0.690695
v 0.170351 0.863048 -0.717427
v 0.188493 0.901868 -0.753756
v 0.187802 0.954282 -0.728637
v 0.19145 0.943534 -0.791322
v 0.182155 1.01845 -0.772338
v 0.159506 1.0589 -0.807411
v 0.19145 0.958358 -0.791322
v 0.178996 0.999698 -0.827265
v 0.152078 1.03757 -0.858848
v 0.0836044 1.11234 -0.683621
v 0.109604 1.11447 -0.735564
v 0.05345 1.141 -0.721374
v 0.123671 1.10395 -0.799347
v 0.121173 1.08422 -0.853968
v 0.0802066 1.12098 -0.842696
v 0.0708335 1.14009 -0.782655
v 0.0183895 1.15543 -0.762829
v 0.0322972 1.14502 -0.82589
v -0.0189082 1.15453 -0.80483
v 0.0569008 1.08564 -0.630214
v 0.0297577 1.12361 -0.664854
v 0.00207569 1.08963 -0.618626
v -0.00901328 1.14923 -0.711944
v -0.0466464 1.15406 -0.75598
v -0.071671 1.13835 -0.708197
v -0.0360224 1.12222 -0.657926
v -0.0537448 1.0833 -0.618561
v -0.0920772 1.10862 -0.665118
v -0.106311 1.06713 -0.630024
v 0.0926371 1.0334 -0.61371
v 0.0388938 1.04376 -0.594143
v 0.070828 0.989123 -0.586875
v -0.0268862 1.04237 -0.587215
v -0.0830444 1.02968 -0.595207
v -0.0542931 0.986476 -0.573697
v 0.00925899 0.989535 -0.570523
v 0.0427898 0.942181 -0.573979
v -0.0222461 0.940805 -0.56713
v 0.0427898 0.927357 -0.573979
v -0.0222461 0.925981 -0.56713
v 0.0106569 0.88132 -0.576005
v 0.124387 0.98528 -0.621152
v 0.0947522 0.931051 -0.597532
v 0.06228 0.868159 -0.593833
v 0.0947522 0.916227 -0.597532
v 0.108325 0.860409 -0.625071
v 0.164694 0.963559 -0.67
v 0.1441 0.910581 -0.641233
v 0.145286 0.858661 -0.667342
v 0.1441 0.925404 -0.641233
v 0.124387 0.970456 -0.621152
v 0.167789 0.84182 -0.769377
v 0.151618 0.828009 -0.821374
v 0.180928 0.883019 -0.808219
v 0.123068 0.822666 -0.869461
v 0.15434 0.871632 -0.86772
v 0.0843116 0.826198 -0.909976
v 0.117485 0.871456 -0.912668
v 0.140878 0.921874 -0.9045
v 0.175281 0.947191 -0.85192
v 0.140878 0.936698 -0.9045
v 0.152709 0.98844 -0.886093
v 0.175281 0.932367 -0.85192
v 0.116973 1.04068 -0.902596
v 0.112548 0.988641 -0.928114
v 0.0721255 1.0372 -0.936251
v 0.0916075 0.913082 -0.943913
v 0.0610446 0.863647 -0.944793
v 0.0322932 0.906852 -0.966303
v 0.0554622 0.980744 -0.960606
v 0.0209505 1.0274 -0.95725
v 0.0322932 0.921676 -0.966303
v 0.000246303 0.967347 -0.97287
v -0.0326567 1.01201 -0.963995
v 0.112548 0.973818 -0.928114
v 0.0554622 0.96592 -0.960606
v 0.0916075 0.927906 -0.943913
v 0.0806518 1.08552 -0.895622
v 0.0235656 1.07762 -0.928114
v -0.0312896 1.06313 -0.940746
v -0.0283779 1.10595 -0.9045
v 0.0278141 1.12167 -0.878929
v -0.0241433 1.13721 -0.858015
v -0.0729331 1.1428 -0.814808
v -0.0786202 1.11942 -0.86772
v -0.122243 1.11669 -0.821374
v -0.0828687 1.07537 -0.916904
v -0.0842798 1.02517 -0.946167
v -0.130325 1.03292 -0.914929
v -0.132217 1.08102 -0.873203
v -0.163086 1.07821 -0.82403
v -0.167286 1.03467 -0.872658
v -0.19235 1.03028 -0.822573
v -0.101381 1.13645 -0.764517
v -0.154977 1.09805 -0.77
v -0.189789 1.05151 -0.770623
v -0.173618 1.06532 -0.718626
v -0.12839 1.10944 -0.710499
v -0.145067 1.07066 -0.670539
v -0.139485 1.02187 -0.627332
v -0.17634 1.0217 -0.67228
v -0.162878 0.971454 -0.6355
v -0.202927 1.01031 -0.731781
v -0.210493 0.99146 -0.786244
v -0.21345 0.949794 -0.748678
v -0.162878 0.95663 -0.6355
v -0.197281 0.946137 -0.68808
v -0.174709 0.904889 -0.653907
v -0.21345 0.93497 -0.748678
v -0.200996 0.89363 -0.712735
v -0.174078 0.855763 -0.681152
v -0.197281 0.960961 -0.68808
v -0.113607 0.980246 -0.596087
v -0.134548 0.904687 -0.611886
v -0.138973 0.852649 -0.637404
v -0.0941253 0.856127 -0.603749
v -0.0542931 0.971653 -0.573697
v -0.0774621 0.912585 -0.579394
v -0.0429503 0.865933 -0.58275
v -0.134548 0.91951 -0.611886
v -0.0774621 0.927408 -0.579394
v -0.113607 0.965422 -0.596087
v 0.00928974 0.830197 -0.599254
v -0.0455654 0.815704 -0.611886
v 0.00637807 0.787375 -0.6355
v -0.102652 0.807806 -0.644378
v -0.143173 0.809104 -0.686032
v -0.102206 0.772352 -0.697304
v -0.0498139 0.771661 -0.661071
v 0.00214352 0.756114 -0.681985
v -0.054297 0.748306 -0.71411
v -0.00309155 0.738795 -0.73517
v 0.0608689 0.817955 -0.623096
v 0.0566204 0.773912 -0.67228
v 0.0509333 0.750532 -0.725192
v 0.100244 0.776634 -0.718626
v 0.110217 0.812309 -0.666797
v 0.141086 0.815117 -0.71597
v 0.132978 0.795275 -0.77
v 0.079381 0.756878 -0.775483
v 0.0246466 0.739273 -0.78402
v 0.0496712 0.754974 -0.831803
v 0.10639 0.783888 -0.829501
v 0.0700773 0.784704 -0.874882
v -0.128557 0.821695 -0.887557
v -0.114637 0.859931 -0.92629
v -0.0789007 0.807691 -0.909786
v -0.0928278 0.904206 -0.953125
v -0.0608936 0.849564 -0.945857
v -0.0240755 0.803702 -0.921374
v -0.0647896 0.951148 -0.966021
v -0.0312588 0.903793 -0.969477
v -0.0647896 0.965971 -0.966021
v 0.000246303 0.952523 -0.97287
v 0.00488639 0.850956 -0.952785
v 0.031745 0.810032 -0.921439
v -0.163427 0.865514 -0.883083
v -0.186693 0.914946 -0.87
v -0.146387 0.908048 -0.918848
v -0.186693 0.929769 -0.87
v -0.196586 0.981051 -0.849305
v -0.1661 0.982748 -0.898767
v -0.116752 0.962277 -0.942468
v -0.116752 0.977101 -0.942468
v -0.1661 0.967924 -0.898767
v -0.146387 0.922872 -0.918848
v -0.157844 0.816724 -0.839875
v -0.175953 0.82108 -0.786875
v -0.190088 0.864347 -0.831445
v -0.181505 0.834432 -0.732589
v -0.204155 0.874874 -0.767662
v -0.209802 0.924222 -0.811363
v -0.196586 0.966228 -0.849305
v -0.209802 0.939046 -0.811363
v -0.105604 0.780988 -0.856379
v -0.0754498 0.752328 -0.818626
v -0.131604 0.778854 -0.804436
v -0.0403893 0.737897 -0.777171
v -0.0928334 0.753236 -0.757345
v -0.145671 0.789381 -0.740653
v -0.0517575 0.769717 -0.875146
v 0.0140225 0.771109 -0.882074
v -0.0129865 0.7441 -0.828056
f 1 2 3
f 2 4 5
f 3 5 6
f 2 5 3
f 4 7 8
f 9 10 11
f 12 11 13
f 9 11 12
f 6 14 15
f 14 16 17
f 15 17 18
f 14 17 15
f 4 8 5
f 8 16 14
f 5 14 6
f 8 14 5
f 1 3 19
f 3 6 20
f 19 20 21
f 3 20 19
f 6 15 22
f 15 18 23
f 22 23 24
f 15 23 22
f 21 25 26
f 25 24 27
f 26 27 28
f 25 27 26
f 6 22 20
f 22 24 25
f 20 25 21
f 22 25 20
f 1 19 29
f 19 21 30
f 29 30 31
f 19 30 29
f 21 26 32
f 26 28 33
f 32 33 34
f 26 33 32
f 31 35 36
f 35 34 37
f 36 37 38
f 35 37 36
f 21 32 30
f 32 34 35
f 30 35 31
f 32 35 30
f 1 29 39
f 29 31 40
f 39 40 41
f 29 40 39
f 31 36 42
f 36 38 43
f 42 43 44
f 36 43 42
f 41 45 46
f 45 44 47
f 48 49 50
f 45 47 46
f 31 42 40
f 42 44 45
f 40 45 41
f 42 45 40
f 1 39 2
f 39 41 51
f 2 51 4
f 39 51 2
f 41 46 52
f 48 50 53
f 54 53 55
f 48 53 54
f 56 57 9
f 57 55 58
f 9 58 10
f 57 58 9
f 41 52 51
f 54 55 57
f 51 59 4
f 54 57 60
f 10 61 11
f 61 62 63
f 11 63 13
f 61 63 11
f 62 64 65
f 64 66 67
f 65 67 68
f 64 67 65
f 16 69 17
f 69 70 71
f 17 71 18
f 69 71 17
f 62 65 63
f 65 68 72
f 63 72 13
f 65 72 63
f 18 71 73
f 71 70 74
f 73 74 75
f 71 74 73
f 68 67 76
f 67 66 77
f 76 77 78
f 67 77 76
f 75 79 80
f 79 81 82
f 80 82 83
f 79 82 80
f 68 76 84
f 76 78 85
f 74 79 75
f 86 79 74
f 18 73 23
f 73 75 87
f 23 87 24
f 73 87 23
f 75 80 88
f 80 83 89
f 88 89 90
f 80 89 88
f 24 91 27
f 91 90 92
f 27 92 28
f 91 92 27
f 75 88 87
f 88 90 91
f 87 91 24
f 88 91 87
f 28 92 93
f 92 90 94
f 93 94 95
f 92 94 93
f 90 89 96
f 89 83 97
f 96 97 98
f 89 97 96
f 95 99 100
f 99 98 101
f 100 101 102
f 99 101 100
f 90 96 94
f 96 98 99
f 94 99 95
f 96 99 94
f 28 93 33
f 93 95 103
f 33 103 34
f 93 103 33
f 95 100 104
f 100 102 105
f 104 105 106
f 100 105 104
f 34 107 37
f 107 106 108
f 37 108 38
f 107 108 37
f 95 104 103
f 104 106 107
f 103 107 34
f 104 107 103
f 38 108 109
f 108 106 110
f 109 110 111
f 108 110 109
f 106 105 112
f 105 102 113
f 112 113 114
f 105 113 112
f 115 116 117
f 116 118 119
f 117 119 120
f 116 119 117
f 106 112 110
f 112 114 121
f 110 121 111
f 112 121 110
f 38 109 43
f 109 111 122
f 43 122 44
f 109 122 43
f 115 117 123
f 117 120 124
f 123 124 125
f 117 124 123
f 126 127 49
f 127 125 128
f 49 128 50
f 127 128 49
f 111 129 122
f 123 125 127
f 122 130 44
f 123 127 131
f 50 128 132
f 128 125 133
f 132 133 134
f 128 133 132
f 125 124 135
f 124 120 136
f 135 136 137
f 124 136 135
f 134 138 139
f 138 137 140
f 139 140 141
f 138 140 139
f 125 135 133
f 135 137 138
f 133 138 134
f 135 138 133
f 50 132 53
f 132 134 142
f 53 142 55
f 132 142 53
f 134 139 143
f 139 141 144
f 143 144 145
f 139 144 143
f 55 146 58
f 146 145 147
f 58 147 10
f 146 147 58
f 134 143 142
f 143 145 146
f 142 146 55
f 143 146 142
f 10 147 61
f 147 145 148
f 61 148 62
f 147 148 61
f 145 144 149
f 144 141 150
f 149 150 151
f 144 150 149
f 62 152 64
f 152 151 153
f 64 153 66
f 152 153 64
f 145 149 148
f 149 151 152
f 148 152 62
f 149 152 148
f 154 155 156
f 155 157 158
f 156 158 159
f 155 158 156
f 157 160 161
f 162 83 82
f 161 163 78
f 160 163 161
f 159 164 165
f 164 78 77
f 165 77 66
f 164 77 165
f 157 161 158
f 161 78 164
f 158 164 159
f 161 164 158
f 154 166 155
f 166 167 168
f 155 168 157
f 166 168 155
f 169 170 171
f 170 102 101
f 171 101 98
f 170 101 171
f 157 172 160
f 173 98 97
f 162 97 83
f 173 97 162
f 167 174 168
f 171 98 173
f 168 172 157
f 171 173 175
f 154 176 166
f 176 177 178
f 166 178 167
f 176 178 166
f 177 179 180
f 179 120 119
f 180 119 118
f 179 119 180
f 167 181 182
f 183 114 113
f 170 113 102
f 183 113 170
f 177 180 178
f 180 118 181
f 178 181 167
f 180 181 178
f 154 184 176
f 184 185 186
f 176 186 177
f 184 186 176
f 185 187 188
f 187 141 140
f 188 140 137
f 187 140 188
f 177 189 179
f 189 137 136
f 179 136 120
f 189 136 179
f 185 188 186
f 188 137 189
f 186 189 177
f 188 189 186
f 154 156 184
f 156 159 190
f 184 190 185
f 156 190 184
f 159 165 191
f 165 66 153
f 191 153 151
f 165 153 191
f 185 192 187
f 192 151 150
f 187 150 141
f 192 150 187
f 159 191 190
f 191 151 192
f 190 192 185
f 191 192 190
f 4 56 7
f 7 56 9
f 7 9 8
f 8 9 12
f 8 12 16
f 16 12 13
f 44 126 47
f 47 126 49
f 47 49 46
f 46 49 48
f 46 48 52
f 52 48 54
f 52 54 51
f 51 54 60
f 51 60 59
f 59 60 57
f 59 57 4
f 4 57 56
f 16 13 69
f 69 13 72
f 69 72 70
f 70 72 68
f 70 68 74
f 74 68 84
f 79 85 81
f 81 85 78
f 81 78 82
f 82 78 163
f 86 76 79
f 79 76 85
f 74 84 86
f 86 84 76
f 114 118 121
f 121 118 116
f 121 116 111
f 111 116 115
f 111 115 129
f 129 115 123
f 129 123 122
f 122 123 131
f 122 131 130
f 130 131 127
f 130 127 44
f 44 127 126
f 82 163 162
f 162 163 160
f 169 167 170
f 170 167 182
f 171 174 169
f 169 174 167
f 162 160 173
f 173 160 172
f 173 172 175
f 175 172 168
f 175 168 171
f 171 168 174
f 183 181 114
f 114 181 118
f 170 182 183
f 183 182 181
