v 0.106557 1.1395 -0.452443
v 0.141427 1.09568 -0.456917
v 0.135844 1.14447 -0.500125
v 0.164694 1.04625 -0.47
v 0.168089 1.09685 -0.508555
v 0.153953 1.14012 -0.553125
v 0.174586 0.994969 -0.490695
v 0.187802 1.03698 -0.528637
v 0.170351 0.945741 -0.517427
v 0.188493 0.984561 -0.553756
v 0.19145 1.02623 -0.591322
v 0.182155 1.08632 -0.572338
v 0.159506 1.12677 -0.607411
v 0.182155 1.00363 -0.772338
v 0.19145 0.943534 -0.791322
v 0.178996 0.984875 -0.827265
v 0.159506 1.04407 -0.807411
v 0.152078 1.02274 -0.858848
v 0.0836044 1.18021 -0.483621
v 0.109604 1.18234 -0.535564
v 0.05345 1.20887 -0.521374
v 0.123671 1.17182 -0.599347
v 0.121173 1.0694 -0.853968
v 0.121173 1.15209 -0.653968
v 0.0802066 1.18884 -0.642696
v 0.123671 1.08912 -0.799347
v 0.0708335 1.20796 -0.582655
v 0.0183895 1.2233 -0.562829
v 0.0322972 1.21289 -0.62589
v -0.0189082 1.2224 -0.60483
v 0.0569008 1.15351 -0.430214
v 0.0297577 1.19148 -0.464854
v 0.00207569 1.1575 -0.418626
v -0.00901328 1.2171 -0.511944
v -0.0466464 1.22192 -0.55598
v -0.071671 1.20622 -0.508197
v -0.0360224 1.19009 -0.457926
v -0.0537448 1.15117 -0.418561
v -0.0920772 1.17649 -0.465118
v -0.106311 1.135 -0.430024
v 0.0926371 1.10127 -0.41371
v 0.0388938 1.11163 -0.394143
v 0.070828 1.05699 -0.386875
v -0.0268862 1.11024 -0.387215
v -0.0830444 1.09755 -0.395207
v -0.0542931 1.05435 -0.373697
v 0.00925899 1.0574 -0.370523
v 0.0427898 1.01005 -0.373979
v -0.0222461 1.00867 -0.36713
v 0.0106569 0.964013 -0.376006
v 0.124387 1.05315 -0.421152
v 0.0947522 0.99892 -0.397532
v 0.06228 0.950851 -0.393833
v 0.108325 0.943102 -0.425071
v 0.1441 0.993273 -0.441233
v 0.145286 0.941354 -0.467342
v 0.170351 0.863048 -0.717427
v 0.167789 0.84182 -0.769377
v 0.188493 0.901868 -0.753756
v 0.151618 0.828009 -0.821374
v 0.180928 0.883019 -0.808219
v 0.123068 0.822666 -0.869461
v 0.15434 0.871632 -0.86772
v 0.0843116 0.826198 -0.909976
v 0.117485 0.871456 -0.912668
v 0.140878 0.921874 -0.9045
v 0.175281 0.932367 -0.85192
v 0.152709 0.973616 -0.886093
v 0.116973 1.02586 -0.902596
v 0.112548 0.973818 -0.928114
v 0.0721255 1.02238 -0.936251
v 0.0916075 0.913082 -0.943913
v 0.0610446 0.863647 -0.944793
v 0.0322932 0.906852 -0.966303
v 0.0554622 0.96592 -0.960606
v 0.0209505 1.01257 -0.95725
v 0.000246303 0.952523 -0.97287
v -0.0326567 0.997184 -0.963995
v 0.0806518 1.0707 -0.895622
v 0.0802066 1.10615 -0.842696
v 0.0235656 1.0628 -0.928114
v -0.0312896 1.04831 -0.940746
v -0.0283779 1.09113 -0.9045
v 0.0278141 1.10684 -0.878929
v 0.0322972 1.1302 -0.82589
v -0.0241433 1.12239 -0.858015
v -0.0241433 1.20508 -0.658015
v -0.0729331 1.21067 -0.614808
v -0.0786202 1.10459 -0.86772
v -0.0786202 1.18729 -0.66772
v -0.122243 1.18456 -0.621374
v -0.0729331 1.12797 -0.814808
v -0.0828687 1.06055 -0.916904
v -0.0842798 1.01035 -0.946167
v -0.130325 1.0181 -0.914929
v -0.122243 1.10187 -0.821374
v -0.132217 1.0662 -0.873203
v -0.163086 1.06339 -0.82403
v -0.167286 1.01984 -0.872658
v -0.19235 1.01546 -0.822573
v -0.101381 1.20432 -0.564517
v -0.163086 1.14608 -0.62403
v -0.154977 1.16592 -0.57
v -0.19235 1.09815 -0.622573
v -0.189789 1.11938 -0.570623
v -0.173618 1.13319 -0.518626
v -0.12839 1.17731 -0.510499
v -0.145067 1.13853 -0.470539
v -0.139485 1.08974 -0.427332
v -0.17634 1.08957 -0.47228
v -0.162878 1.03932 -0.4355
v -0.202927 1.07818 -0.531781
v -0.210493 1.05933 -0.586244
v -0.21345 1.01766 -0.548678
v -0.197281 1.02883 -0.48808
v -0.174709 0.987581 -0.453907
v -0.200996 0.976323 -0.512735
v -0.174078 0.938456 -0.481152
v -0.113607 1.04811 -0.396087
v -0.134548 0.987379 -0.411886
v -0.138973 0.935341 -0.437404
v -0.0941253 0.93882 -0.403749
v -0.0774621 0.995277 -0.379394
v -0.0429503 0.948626 -0.38275
v 0.00928974 0.912889 -0.399254
v -0.0455654 0.898397 -0.411886
v 0.00637807 0.870067 -0.4355
v -0.102652 0.890499 -0.444378
v -0.143173 0.891797 -0.486032
v -0.102206 0.855045 -0.497304
v -0.0498139 0.854354 -0.461071
v 0.00214352 0.838807 -0.481985
v -0.054297 0.830998 -0.51411
v 0.00214352 0.756114 -0.681985
v -0.054297 0.748306 -0.71411
v -0.00309155 0.738795 -0.73517
v 0.0608689 0.900648 -0.423096
v 0.0566204 0.856605 -0.47228
v 0.0509333 0.750532 -0.725192
v 0.0566204 0.773912 -0.67228
v 0.100244 0.776634 -0.718626
v 0.0509333 0.833224 -0.525192
v 0.110217 0.895001 -0.466797
v 0.100244 0.859327 -0.518626
v 0.141086 0.897809 -0.51597
v 0.141086 0.815117 -0.71597
v 0.132978 0.795275 -0.77
v 0.079381 0.756878 -0.775483
v 0.0246466 0.739273 -0.78402
v 0.0496712 0.754974 -0.831803
v 0.10639 0.783888 -0.829501
v 0.0700773 0.784704 -0.874882
v -0.128557 0.821695 -0.887557
v -0.114637 0.859931 -0.92629
v -0.0789007 0.807691 -0.909786
v -0.0928278 0.904206 -0.953125
v -0.0608936 0.849564 -0.945857
v -0.0240755 0.803702 -0.921374
v -0.0647896 0.951148 -0.966021
v -0.0312588 0.903793 -0.969477
v 0.00488639 0.850956 -0.952785
v 0.031745 0.810032 -0.921439
v -0.163427 0.865514 -0.883083
v -0.186693 0.914946 -0.87
v -0.146387 0.908048 -0.918848
v -0.196586 0.966228 -0.849305
v -0.1661 0.967924 -0.898767
v -0.116752 0.962277 -0.942468
v -0.157844 0.816724 -0.839875
v -0.175953 0.82108 -0.786875
v -0.190088 0.864347 -0.831445
v -0.181505 0.834432 -0.732589
v -0.204155 0.874874 -0.767662
v -0.181505 0.917125 -0.532589
v -0.204155 0.957567 -0.567662
v -0.209802 0.924222 -0.811363
v -0.21345 0.93497 -0.748678
v -0.210493 0.976636 -0.786244
v -0.105604 0.780988 -0.856379
v -0.0754498 0.752328 -0.818626
v -0.131604 0.778854 -0.804436
v -0.0403893 0.737897 -0.777171
v -0.0928334 0.753236 -0.757345
v -0.102206 0.772352 -0.697304
v -0.145671 0.789381 -0.740653
v -0.143173 0.809104 -0.686032
v -0.145671 0.872074 -0.540653
v -0.0517575 0.769717 -0.875146
v 0.0140225 0.771109 -0.882074
v -0.0129865 0.7441 -0.828056
f 1 2 3
f 2 4 5
f 3 5 6
f 2 5 3
f 4 7 8
f 7 9 10
f 8 10 11
f 7 10 8
f 6 12 13
f 14 15 16
f 17 16 18
f 14 16 17
f 4 8 5
f 8 11 12
f 5 12 6
f 8 12 5
f 1 3 19
f 3 6 20
f 19 20 21
f 3 20 19
f 6 13 22
f 17 18 23
f 22 24 25
f 17 23 26
f 21 27 28
f 27 25 29
f 28 29 30
f 27 29 28
f 6 22 20
f 22 25 27
f 20 27 21
f 22 27 20
f 1 19 31
f 19 21 32
f 31 32 33
f 19 32 31
f 21 28 34
f 28 30 35
f 34 35 36
f 28 35 34
f 33 37 38
f 37 36 39
f 38 39 40
f 37 39 38
f 21 34 32
f 34 36 37
f 32 37 33
f 34 37 32
f 1 31 41
f 31 33 42
f 41 42 43
f 31 42 41
f 33 38 44
f 38 40 45
f 44 45 46
f 38 45 44
f 43 47 48
f 47 46 49
f 48 49 50
f 47 49 48
f 33 44 42
f 44 46 47
f 42 47 43
f 44 47 42
f 1 41 2
f 41 43 51
f 2 51 4
f 41 51 2
f 43 48 52
f 48 50 53
f 52 53 54
f 48 53 52
f 4 55 7
f 55 54 56
f 7 56 9
f 55 56 7
f 43 52 51
f 52 54 55
f 51 55 4
f 52 55 51
f 57 58 59
f 58 60 61
f 59 61 15
f 58 61 59
f 60 62 63
f 62 64 65
f 63 65 66
f 62 65 63
f 15 67 16
f 67 66 68
f 16 68 18
f 67 68 16
f 60 63 61
f 63 66 67
f 61 67 15
f 63 67 61
f 18 68 69
f 68 66 70
f 69 70 71
f 68 70 69
f 66 65 72
f 65 64 73
f 72 73 74
f 65 73 72
f 71 75 76
f 75 74 77
f 76 77 78
f 75 77 76
f 66 72 70
f 72 74 75
f 70 75 71
f 72 75 70
f 18 69 23
f 69 71 79
f 23 79 80
f 69 79 23
f 71 76 81
f 76 78 82
f 81 82 83
f 76 82 81
f 80 84 85
f 84 83 86
f 29 87 30
f 84 86 85
f 71 81 79
f 81 83 84
f 79 84 80
f 81 84 79
f 30 87 88
f 86 83 89
f 88 90 91
f 86 89 92
f 83 82 93
f 82 78 94
f 93 94 95
f 82 94 93
f 96 97 98
f 97 95 99
f 98 99 100
f 97 99 98
f 83 93 89
f 93 95 97
f 89 97 96
f 93 97 89
f 30 88 35
f 88 91 101
f 35 101 36
f 88 101 35
f 91 102 103
f 102 104 105
f 103 105 106
f 102 105 103
f 36 107 39
f 107 106 108
f 39 108 40
f 107 108 39
f 91 103 101
f 103 106 107
f 101 107 36
f 103 107 101
f 40 108 109
f 108 106 110
f 109 110 111
f 108 110 109
f 106 105 112
f 105 104 113
f 112 113 114
f 105 113 112
f 111 115 116
f 115 114 117
f 116 117 118
f 115 117 116
f 106 112 110
f 112 114 115
f 110 115 111
f 112 115 110
f 40 109 45
f 109 111 119
f 45 119 46
f 109 119 45
f 111 116 120
f 116 118 121
f 120 121 122
f 116 121 120
f 46 123 49
f 123 122 124
f 49 124 50
f 123 124 49
f 111 120 119
f 120 122 123
f 119 123 46
f 120 123 119
f 50 124 125
f 124 122 126
f 125 126 127
f 124 126 125
f 122 121 128
f 121 118 129
f 128 129 130
f 121 129 128
f 127 131 132
f 131 130 133
f 134 135 136
f 131 133 132
f 122 128 126
f 128 130 131
f 126 131 127
f 128 131 126
f 50 125 53
f 125 127 137
f 53 137 54
f 125 137 53
f 127 132 138
f 134 136 139
f 140 139 141
f 132 142 138
f 54 143 56
f 143 144 145
f 56 145 9
f 143 145 56
f 127 138 137
f 138 144 143
f 137 143 54
f 138 143 137
f 57 146 58
f 146 141 147
f 58 147 60
f 146 147 58
f 141 139 148
f 139 136 149
f 148 149 150
f 139 149 148
f 60 151 62
f 151 150 152
f 62 152 64
f 151 152 62
f 141 148 147
f 148 150 151
f 147 151 60
f 148 151 147
f 153 154 155
f 154 156 157
f 155 157 158
f 154 157 155
f 156 159 160
f 159 78 77
f 160 77 74
f 159 77 160
f 158 161 162
f 161 74 73
f 162 73 64
f 161 73 162
f 156 160 157
f 160 74 161
f 157 161 158
f 160 161 157
f 153 163 154
f 163 164 165
f 154 165 156
f 163 165 154
f 164 166 167
f 166 100 99
f 167 99 95
f 166 99 167
f 156 168 159
f 168 95 94
f 159 94 78
f 168 94 159
f 164 167 165
f 167 95 168
f 165 168 156
f 167 168 165
f 153 169 163
f 169 170 171
f 163 171 164
f 169 171 163
f 170 172 173
f 174 118 117
f 175 117 114
f 174 117 175
f 164 176 166
f 176 177 178
f 166 178 100
f 176 178 166
f 170 173 171
f 173 177 176
f 171 176 164
f 173 176 171
f 153 179 169
f 179 180 181
f 169 181 170
f 179 181 169
f 180 182 183
f 182 136 135
f 183 135 184
f 182 135 183
f 170 185 172
f 185 184 186
f 174 129 118
f 187 129 174
f 180 183 181
f 183 184 185
f 181 185 170
f 183 185 181
f 153 155 179
f 155 158 188
f 179 188 180
f 155 188 179
f 158 162 189
f 162 64 152
f 189 152 150
f 162 152 189
f 180 190 182
f 190 150 149
f 182 149 136
f 190 149 182
f 158 189 188
f 189 150 190
f 188 190 180
f 189 190 188
f 14 12 15
f 15 12 11
f 17 13 14
f 14 13 12
f 23 24 26
f 26 24 22
f 26 22 17
f 17 22 13
f 59 10 57
f 57 10 9
f 15 11 59
f 59 11 10
f 80 25 23
f 23 25 24
f 85 29 80
f 80 29 25
f 86 87 85
f 85 87 29
f 89 90 92
f 92 90 88
f 92 88 86
f 86 88 87
f 98 102 96
f 96 102 91
f 100 104 98
f 98 104 102
f 96 91 89
f 89 91 90
f 134 132 135
f 135 132 133
f 139 142 134
f 134 142 132
f 140 138 139
f 139 138 142
f 141 144 140
f 140 144 138
f 57 9 146
f 146 9 145
f 146 145 141
f 141 145 144
f 172 174 173
f 173 174 175
f 177 114 178
f 178 114 113
f 178 113 100
f 100 113 104
f 173 175 177
f 177 175 114
f 135 133 184
f 184 133 130
f 185 187 172
f 172 187 174
f 184 130 186
f 186 130 129
f 186 129 185
f 185 129 187
