v 0.106557 1.1666 -0.292443
v 0.141427 1.12278 -0.296917
v 0.135844 1.17157 -0.340125
v 0.164694 1.07335 -0.31
v 0.168089 1.12395 -0.348555
v 0.153953 1.16721 -0.393125
v 0.174586 1.02207 -0.330695
v 0.187802 1.06407 -0.368636
v 0.170351 0.972838 -0.357427
v 0.188493 1.01166 -0.393756
v 0.19145 1.05332 -0.431322
v 0.182155 1.11342 -0.412338
v 0.159506 1.15386 -0.447411
v 0.182155 1.08632 -0.572338
v 0.19145 1.02623 -0.591322
v 0.178996 1.06757 -0.627265
v 0.159506 1.12677 -0.607411
v 0.152078 1.10543 -0.658848
v 0.0836044 1.20731 -0.323621
v 0.109604 1.20944 -0.375564
v 0.05345 1.23597 -0.361374
v 0.123671 1.19891 -0.439347
v 0.121173 1.15209 -0.653968
v 0.123671 1.17182 -0.599347
v 0.0802066 1.18884 -0.642696
v 0.0708335 1.23506 -0.422655
v 0.0183895 1.2504 -0.402829
v 0.0708335 1.20796 -0.582655
v 0.0322972 1.21289 -0.62589
v 0.0322972 1.23999 -0.46589
v -0.0189082 1.2495 -0.44483
v 0.0569008 1.1806 -0.270214
v 0.0297577 1.21858 -0.304854
v 0.00207569 1.18459 -0.258626
v -0.00901328 1.24419 -0.351944
v -0.0466464 1.24902 -0.39598
v -0.071671 1.23332 -0.348197
v -0.0360224 1.21719 -0.297926
v -0.0537448 1.17826 -0.258561
v -0.0920772 1.20359 -0.305118
v -0.106311 1.1621 -0.270024
v 0.0926371 1.12836 -0.25371
v 0.0388938 1.13873 -0.234143
v 0.070828 1.08409 -0.226875
v -0.0268862 1.13734 -0.227215
v -0.0830444 1.12465 -0.235207
v -0.0542931 1.08144 -0.213697
v 0.00925899 1.0845 -0.210523
v 0.0427898 1.03715 -0.213979
v -0.0222461 1.03577 -0.20713
v 0.0106569 0.99111 -0.216005
v 0.124387 1.08025 -0.261152
v 0.0947522 1.02602 -0.237532
v 0.06228 0.977949 -0.233833
v 0.108325 0.970199 -0.265071
v 0.1441 1.02037 -0.281233
v 0.145286 0.968451 -0.307342
v 0.167789 0.95161 -0.409377
v 0.167789 0.924513 -0.569377
v 0.151618 0.910702 -0.621374
v 0.180928 0.965712 -0.608219
v 0.188493 0.984561 -0.553756
v 0.123068 0.905358 -0.669461
v 0.15434 0.954325 -0.66772
v 0.0843116 0.90889 -0.709976
v 0.117485 0.954148 -0.712668
v 0.140878 1.00457 -0.7045
v 0.175281 1.01506 -0.65192
v 0.152709 1.05631 -0.686093
v 0.116973 1.10855 -0.702596
v 0.112548 1.05651 -0.728114
v 0.0721255 1.10507 -0.736251
v 0.0916075 0.995775 -0.743913
v 0.0610446 0.94634 -0.744793
v 0.0322932 0.989545 -0.766303
v 0.0554622 1.04861 -0.760606
v 0.0209505 1.09526 -0.75725
v 0.000246303 1.03522 -0.77287
v -0.0326567 1.07988 -0.763994
v 0.0806518 1.15339 -0.695622
v 0.0235656 1.14549 -0.728114
v -0.0312896 1.131 -0.740746
v -0.0283779 1.17382 -0.7045
v 0.0278141 1.18954 -0.678929
v -0.0241433 1.20508 -0.658015
v -0.0189082 1.2224 -0.60483
v -0.0729331 1.21067 -0.614808
v -0.0786202 1.18729 -0.66772
v -0.122243 1.18456 -0.621374
v -0.0828687 1.14324 -0.716904
v -0.0842798 1.09304 -0.746167
v -0.130325 1.10079 -0.714929
v -0.132217 1.14889 -0.673203
v -0.163086 1.14608 -0.62403
v -0.167286 1.10254 -0.672658
v -0.19235 1.09815 -0.622573
v -0.0729331 1.23776 -0.454808
v -0.122243 1.21166 -0.461374
v -0.101381 1.23142 -0.404517
v -0.154977 1.16592 -0.57
v -0.189789 1.11938 -0.570623
v -0.154977 1.19302 -0.41
v -0.189789 1.14647 -0.410623
v -0.173618 1.16029 -0.358626
v -0.163086 1.17318 -0.46403
v -0.12839 1.20441 -0.350499
v -0.145067 1.16563 -0.310539
v -0.139485 1.11684 -0.267332
v -0.17634 1.11666 -0.31228
v -0.162878 1.06642 -0.2755
v -0.202927 1.10528 -0.371781
v -0.210493 1.05933 -0.586244
v -0.210493 1.08643 -0.426244
v -0.21345 1.04476 -0.388678
v -0.197281 1.05593 -0.32808
v -0.174709 1.01468 -0.293907
v -0.200996 1.00342 -0.352735
v -0.174078 0.965553 -0.321152
v -0.113607 1.07521 -0.236087
v -0.134548 1.01448 -0.251886
v -0.138973 0.962439 -0.277404
v -0.0941253 0.965917 -0.243749
v -0.0774621 1.02237 -0.219394
v -0.0429503 0.975723 -0.22275
v 0.00928974 0.939987 -0.239254
v -0.0455654 0.925494 -0.251886
v 0.00637807 0.897165 -0.2755
v -0.102652 0.917596 -0.284378
v -0.143173 0.918894 -0.326032
v -0.102206 0.882142 -0.337304
v -0.0498139 0.881451 -0.301071
v 0.00214352 0.865904 -0.321985
v -0.054297 0.858096 -0.354109
v -0.00309155 0.848584 -0.37517
v 0.0608689 0.927745 -0.263096
v 0.0566204 0.883702 -0.31228
v 0.0509333 0.860321 -0.365192
v 0.100244 0.886424 -0.358626
v 0.110217 0.922099 -0.306797
v 0.141086 0.924906 -0.35597
v 0.132978 0.905065 -0.41
v 0.132978 0.877968 -0.57
v 0.141086 0.897809 -0.51597
v 0.100244 0.859327 -0.518626
v 0.0509333 0.833224 -0.525192
v 0.079381 0.839571 -0.575483
v -0.00309155 0.821487 -0.53517
v 0.0246466 0.821966 -0.58402
v 0.0496712 0.837667 -0.631803
v 0.10639 0.86658 -0.629501
v 0.0700773 0.867396 -0.674882
v -0.128557 0.904388 -0.687557
v -0.114637 0.942624 -0.72629
v -0.0789007 0.890384 -0.709786
v -0.0928278 0.986898 -0.753125
v -0.0608936 0.932257 -0.745857
v -0.0240755 0.886395 -0.721374
v -0.0647896 1.03384 -0.766021
v -0.0312588 0.986486 -0.769477
v 0.00488639 0.933648 -0.752785
v 0.031745 0.892724 -0.721439
v -0.163427 0.948207 -0.683083
v -0.186693 0.997638 -0.67
v -0.146387 0.990741 -0.718848
v -0.196586 1.04892 -0.649305
v -0.1661 1.05062 -0.698767
v -0.116752 1.04497 -0.742468
v -0.157844 0.899417 -0.639875
v -0.175953 0.903773 -0.586875
v -0.190088 0.947039 -0.631445
v -0.181505 0.917125 -0.532589
v -0.204155 0.957567 -0.567662
v -0.181505 0.944222 -0.372589
v -0.204155 0.984664 -0.407662
v -0.209802 1.00691 -0.611363
v -0.21345 1.01766 -0.548678
v -0.105604 0.86368 -0.656379
v -0.0754498 0.835021 -0.618626
v -0.131604 0.861546 -0.604436
v -0.0403893 0.82059 -0.577171
v -0.0928334 0.835928 -0.557345
v -0.054297 0.830998 -0.51411
v -0.0928334 0.863026 -0.397345
v -0.145671 0.872074 -0.540653
v -0.145671 0.899171 -0.380653
v -0.0517575 0.85241 -0.675146
v 0.0140225 0.853801 -0.682074
v -0.0129865 0.826792 -0.628056
f 1 2 3
f 2 4 5
f 3 5 6
f 2 5 3
f 4 7 8
f 7 9 10
f 8 10 11
f 7 10 8
f 6 12 13
f 14 15 16
f 17 16 18
f 14 16 17
f 4 8 5
f 8 11 12
f 5 12 6
f 8 12 5
f 1 3 19
f 3 6 20
f 19 20 21
f 3 20 19
f 6 13 22
f 17 18 23
f 24 23 25
f 17 23 24
f 21 26 27
f 28 25 29
f 27 30 31
f 26 30 27
f 6 22 20
f 24 25 28
f 20 26 21
f 22 26 20
f 1 19 32
f 19 21 33
f 32 33 34
f 19 33 32
f 21 27 35
f 27 31 36
f 35 36 37
f 27 36 35
f 34 38 39
f 38 37 40
f 39 40 41
f 38 40 39
f 21 35 33
f 35 37 38
f 33 38 34
f 35 38 33
f 1 32 42
f 32 34 43
f 42 43 44
f 32 43 42
f 34 39 45
f 39 41 46
f 45 46 47
f 39 46 45
f 44 48 49
f 48 47 50
f 49 50 51
f 48 50 49
f 34 45 43
f 45 47 48
f 43 48 44
f 45 48 43
f 1 42 2
f 42 44 52
f 2 52 4
f 42 52 2
f 44 49 53
f 49 51 54
f 53 54 55
f 49 54 53
f 4 56 7
f 56 55 57
f 7 57 9
f 56 57 7
f 44 53 52
f 53 55 56
f 52 56 4
f 53 56 52
f 9 58 10
f 59 60 61
f 62 61 15
f 59 61 62
f 60 63 64
f 63 65 66
f 64 66 67
f 63 66 64
f 15 68 16
f 68 67 69
f 16 69 18
f 68 69 16
f 60 64 61
f 64 67 68
f 61 68 15
f 64 68 61
f 18 69 70
f 69 67 71
f 70 71 72
f 69 71 70
f 67 66 73
f 66 65 74
f 73 74 75
f 66 74 73
f 72 76 77
f 76 75 78
f 77 78 79
f 76 78 77
f 67 73 71
f 73 75 76
f 71 76 72
f 73 76 71
f 18 70 23
f 70 72 80
f 23 80 25
f 70 80 23
f 72 77 81
f 77 79 82
f 81 82 83
f 77 82 81
f 25 84 29
f 84 83 85
f 29 85 86
f 84 85 29
f 72 81 80
f 81 83 84
f 80 84 25
f 81 84 80
f 86 85 87
f 85 83 88
f 87 88 89
f 85 88 87
f 83 82 90
f 82 79 91
f 90 91 92
f 82 91 90
f 89 93 94
f 93 92 95
f 94 95 96
f 93 95 94
f 83 90 88
f 90 92 93
f 88 93 89
f 90 93 88
f 31 97 36
f 97 98 99
f 36 99 37
f 97 99 36
f 89 94 100
f 94 96 101
f 102 103 104
f 105 103 102
f 37 106 40
f 106 104 107
f 40 107 41
f 106 107 40
f 98 102 99
f 102 104 106
f 99 106 37
f 102 106 99
f 41 107 108
f 107 104 109
f 108 109 110
f 107 109 108
f 104 103 111
f 101 96 112
f 111 113 114
f 103 113 111
f 110 115 116
f 115 114 117
f 116 117 118
f 115 117 116
f 104 111 109
f 111 114 115
f 109 115 110
f 111 115 109
f 41 108 46
f 108 110 119
f 46 119 47
f 108 119 46
f 110 116 120
f 116 118 121
f 120 121 122
f 116 121 120
f 47 123 50
f 123 122 124
f 50 124 51
f 123 124 50
f 110 120 119
f 120 122 123
f 119 123 47
f 120 123 119
f 51 124 125
f 124 122 126
f 125 126 127
f 124 126 125
f 122 121 128
f 121 118 129
f 128 129 130
f 121 129 128
f 127 131 132
f 131 130 133
f 132 133 134
f 131 133 132
f 122 128 126
f 128 130 131
f 126 131 127
f 128 131 126
f 51 125 54
f 125 127 135
f 54 135 55
f 125 135 54
f 127 132 136
f 132 134 137
f 136 137 138
f 132 137 136
f 55 139 57
f 139 138 140
f 57 140 9
f 139 140 57
f 127 136 135
f 136 138 139
f 135 139 55
f 136 139 135
f 9 140 58
f 140 138 141
f 59 142 60
f 143 142 59
f 144 145 146
f 145 147 148
f 146 148 149
f 145 148 146
f 60 150 63
f 150 149 151
f 63 151 65
f 150 151 63
f 144 146 142
f 146 149 150
f 142 150 60
f 146 150 142
f 152 153 154
f 153 155 156
f 154 156 157
f 153 156 154
f 155 158 159
f 158 79 78
f 159 78 75
f 158 78 159
f 157 160 161
f 160 75 74
f 161 74 65
f 160 74 161
f 155 159 156
f 159 75 160
f 156 160 157
f 159 160 156
f 152 162 153
f 162 163 164
f 153 164 155
f 162 164 153
f 163 165 166
f 165 96 95
f 166 95 92
f 165 95 166
f 155 167 158
f 167 92 91
f 158 91 79
f 167 91 158
f 163 166 164
f 166 92 167
f 164 167 155
f 166 167 164
f 152 168 162
f 168 169 170
f 162 170 163
f 168 170 162
f 169 171 172
f 173 118 117
f 174 117 114
f 173 117 174
f 163 175 165
f 175 176 112
f 165 112 96
f 175 112 165
f 169 172 170
f 172 176 175
f 170 175 163
f 172 175 170
f 152 177 168
f 177 178 179
f 168 179 169
f 177 179 168
f 178 180 181
f 180 147 182
f 183 133 130
f 180 182 181
f 169 184 171
f 185 130 129
f 173 129 118
f 185 129 173
f 178 181 179
f 183 130 185
f 179 184 169
f 181 184 179
f 152 154 177
f 154 157 186
f 177 186 178
f 154 186 177
f 157 161 187
f 161 65 151
f 187 151 149
f 161 151 187
f 178 188 180
f 188 149 148
f 180 148 147
f 188 148 180
f 157 187 186
f 187 149 188
f 186 188 178
f 187 188 186
f 14 12 15
f 15 12 11
f 17 13 14
f 14 13 12
f 24 22 17
f 17 22 13
f 29 30 28
f 28 30 26
f 28 26 24
f 24 26 22
f 15 11 62
f 62 11 10
f 62 10 59
f 59 10 58
f 86 31 29
f 29 31 30
f 87 97 86
f 86 97 31
f 89 98 87
f 87 98 97
f 94 105 100
f 100 105 102
f 100 102 89
f 89 102 98
f 101 103 94
f 94 103 105
f 112 113 101
f 101 113 103
f 143 140 142
f 142 140 141
f 59 58 143
f 143 58 140
f 144 138 145
f 145 138 137
f 145 137 147
f 147 137 134
f 142 141 144
f 144 141 138
f 171 173 172
f 172 173 174
f 176 114 112
f 112 114 113
f 172 174 176
f 176 174 114
f 147 134 182
f 182 134 133
f 182 133 181
f 181 133 183
f 184 185 171
f 171 185 173
f 181 183 184
f 184 183 185
