v 0.106557 1.19187 -0.212443
v 0.141427 1.14805 -0.216917
v 0.135844 1.19684 -0.260125
v 0.164694 1.09862 -0.23
v 0.168089 1.14922 -0.268555
v 0.153953 1.19248 -0.313125
v 0.174586 1.04734 -0.250695
v 0.187802 1.08934 -0.288637
v 0.170351 0.998108 -0.277427
v 0.188493 1.03693 -0.313756
v 0.19145 1.07859 -0.351322
v 0.182155 1.13869 -0.332338
v 0.159506 1.17913 -0.367411
v 0.182155 1.11342 -0.412338
v 0.19145 1.05332 -0.431322
v 0.178996 1.09466 -0.467265
v 0.159506 1.15386 -0.447411
v 0.152078 1.13253 -0.498848
v 0.0836044 1.23258 -0.243621
v 0.109604 1.23471 -0.295564
v 0.05345 1.26124 -0.281374
v 0.123671 1.22418 -0.359347
v 0.121173 1.17919 -0.493968
v 0.123671 1.19891 -0.439347
v 0.0802066 1.21594 -0.482696
v 0.0708335 1.26033 -0.342655
v 0.0183895 1.27567 -0.322829
v 0.0802066 1.24121 -0.402696
v 0.0322972 1.26526 -0.38589
v -0.0189082 1.27477 -0.36483
v 0.0569008 1.20587 -0.190214
v 0.0297577 1.24385 -0.224854
v 0.00207569 1.20986 -0.178626
v -0.00901328 1.26946 -0.271944
v -0.0466464 1.27429 -0.31598
v -0.071671 1.25859 -0.268197
v -0.0360224 1.24246 -0.217926
v -0.0537448 1.20353 -0.178561
v -0.0920772 1.22886 -0.225118
v -0.106311 1.18737 -0.190024
v 0.0926371 1.15363 -0.17371
v 0.0388938 1.164 -0.154143
v 0.070828 1.10936 -0.146875
v -0.0268862 1.16261 -0.147215
v -0.0830444 1.14992 -0.155207
v -0.0542931 1.10671 -0.133697
v 0.00925899 1.10977 -0.130523
v 0.0427898 1.06242 -0.133979
v -0.0222461 1.06104 -0.12713
v 0.0106569 1.01638 -0.136005
v 0.124387 1.10552 -0.181152
v 0.0947522 1.05129 -0.157532
v 0.06228 1.00322 -0.153833
v 0.108325 0.995469 -0.185071
v 0.1441 1.04564 -0.201233
v 0.145286 0.993721 -0.227342
v 0.170351 0.972838 -0.357427
v 0.167789 0.95161 -0.409377
v 0.188493 1.01166 -0.393756
v 0.151618 0.937799 -0.461374
v 0.180928 0.992809 -0.448219
v 0.123068 0.932456 -0.509461
v 0.15434 0.981422 -0.50772
v 0.0843116 0.935988 -0.549976
v 0.117485 0.981246 -0.552668
v 0.140878 1.03166 -0.5445
v 0.175281 1.04216 -0.49192
v 0.152709 1.08341 -0.526093
v 0.116973 1.13565 -0.542596
v 0.112548 1.08361 -0.568114
v 0.0721255 1.13217 -0.576251
v 0.0916075 1.02287 -0.583913
v 0.0610446 0.973437 -0.584793
v 0.0322932 1.01664 -0.606303
v 0.0554622 1.07571 -0.600606
v 0.0209505 1.12236 -0.59725
v 0.000246303 1.06231 -0.61287
v -0.0326567 1.10697 -0.603994
v 0.0806518 1.18049 -0.535622
v 0.0235656 1.17259 -0.568114
v -0.0312896 1.1581 -0.580746
v -0.0283779 1.20092 -0.5445
v 0.0278141 1.21663 -0.518929
v 0.0322972 1.23999 -0.46589
v -0.0241433 1.23218 -0.498015
v -0.0189082 1.2495 -0.44483
v -0.0241433 1.25745 -0.418015
v -0.0729331 1.26303 -0.374808
v -0.0786202 1.21438 -0.50772
v -0.0729331 1.23776 -0.454808
v -0.122243 1.21166 -0.461374
v -0.0828687 1.17034 -0.556904
v -0.0842798 1.12014 -0.586167
v -0.130325 1.12789 -0.554929
v -0.132217 1.17599 -0.513203
v -0.163086 1.17318 -0.46403
v -0.167286 1.12963 -0.512658
v -0.19235 1.12525 -0.462573
v -0.122243 1.23693 -0.381374
v -0.101381 1.25669 -0.324517
v -0.163086 1.19845 -0.38403
v -0.154977 1.21829 -0.33
v -0.189789 1.14647 -0.410623
v -0.189789 1.17174 -0.330623
v -0.173618 1.18556 -0.278626
v -0.12839 1.22968 -0.270499
v -0.145067 1.1909 -0.230539
v -0.139485 1.14211 -0.187332
v -0.17634 1.14193 -0.23228
v -0.162878 1.09169 -0.1955
v -0.202927 1.13055 -0.291781
v -0.19235 1.15052 -0.382573
v -0.210493 1.1117 -0.346244
v -0.21345 1.07003 -0.308678
v -0.197281 1.0812 -0.24808
v -0.174709 1.03995 -0.213907
v -0.200996 1.02869 -0.272735
v -0.174078 0.990823 -0.241152
v -0.113607 1.10048 -0.156087
v -0.134548 1.03975 -0.171886
v -0.138973 0.987709 -0.197404
v -0.0941253 0.991187 -0.163749
v -0.0774621 1.04764 -0.139394
v -0.0429503 1.00099 -0.14275
v 0.00928974 0.965257 -0.159254
v -0.0455654 0.950764 -0.171886
v 0.00637807 0.922435 -0.1955
v -0.102652 0.942866 -0.204378
v -0.143173 0.944164 -0.246032
v -0.102206 0.907412 -0.257304
v -0.0498139 0.906721 -0.221071
v 0.00214352 0.891174 -0.241985
v -0.054297 0.883366 -0.27411
v -0.00309155 0.873855 -0.29517
v 0.0608689 0.953015 -0.183096
v 0.0566204 0.908972 -0.23228
v 0.00214352 0.865904 -0.321985
v -0.00309155 0.848584 -0.37517
v 0.0509333 0.860321 -0.365192
v 0.0509333 0.885592 -0.285192
v 0.100244 0.911695 -0.278626
v 0.110217 0.947369 -0.226797
v 0.141086 0.950177 -0.27597
v 0.167789 0.97688 -0.329377
v 0.141086 0.924906 -0.35597
v 0.100244 0.886424 -0.358626
v 0.132978 0.905065 -0.41
v 0.079381 0.866668 -0.415483
v 0.0246466 0.849063 -0.42402
v 0.0496712 0.864764 -0.471803
v 0.10639 0.893677 -0.469501
v 0.0700773 0.894494 -0.514882
v -0.128557 0.931485 -0.527557
v -0.114637 0.969721 -0.56629
v -0.0789007 0.917481 -0.549786
v -0.0928278 1.014 -0.593125
v -0.0608936 0.959354 -0.585857
v -0.0240755 0.913492 -0.561374
v -0.0647896 1.06094 -0.606021
v -0.0312588 1.01358 -0.609477
v 0.00488639 0.960746 -0.592785
v 0.031745 0.919822 -0.561439
v -0.163427 0.975304 -0.523083
v -0.186693 1.02474 -0.51
v -0.146387 1.01784 -0.558848
v -0.196586 1.07602 -0.489305
v -0.1661 1.07771 -0.538767
v -0.116752 1.07207 -0.582468
v -0.157844 0.926514 -0.479875
v -0.175953 0.93087 -0.426875
v -0.190088 0.974137 -0.471445
v -0.181505 0.944222 -0.372589
v -0.204155 0.984664 -0.407662
v -0.181505 0.969492 -0.292589
v -0.204155 1.00993 -0.327662
v -0.209802 1.03401 -0.451363
v -0.21345 1.04476 -0.388678
v -0.210493 1.08643 -0.426244
v -0.105604 0.890778 -0.496379
v -0.0754498 0.862118 -0.458626
v -0.131604 0.888643 -0.444436
v -0.0403893 0.847687 -0.417171
v -0.0928334 0.863026 -0.397345
v -0.054297 0.858096 -0.354109
v -0.102206 0.882142 -0.337304
v -0.145671 0.899171 -0.380653
v -0.145671 0.924441 -0.300653
v -0.0517575 0.879507 -0.515146
v 0.0140225 0.880899 -0.522074
v -0.0129865 0.85389 -0.468056
f 1 2 3
f 2 4 5
f 3 5 6
f 2 5 3
f 4 7 8
f 7 9 10
f 8 10 11
f 7 10 8
f 6 12 13
f 14 15 16
f 17 16 18
f 14 16 17
f 4 8 5
f 8 11 12
f 5 12 6
f 8 12 5
f 1 3 19
f 3 6 20
f 19 20 21
f 3 20 19
f 6 13 22
f 17 18 23
f 24 23 25
f 17 23 24
f 21 26 27
f 26 28 29
f 27 29 30
f 26 29 27
f 6 22 20
f 22 28 26
f 20 26 21
f 22 26 20
f 1 19 31
f 19 21 32
f 31 32 33
f 19 32 31
f 21 27 34
f 27 30 35
f 34 35 36
f 27 35 34
f 33 37 38
f 37 36 39
f 38 39 40
f 37 39 38
f 21 34 32
f 34 36 37
f 32 37 33
f 34 37 32
f 1 31 41
f 31 33 42
f 41 42 43
f 31 42 41
f 33 38 44
f 38 40 45
f 44 45 46
f 38 45 44
f 43 47 48
f 47 46 49
f 48 49 50
f 47 49 48
f 33 44 42
f 44 46 47
f 42 47 43
f 44 47 42
f 1 41 2
f 41 43 51
f 2 51 4
f 41 51 2
f 43 48 52
f 48 50 53
f 52 53 54
f 48 53 52
f 4 55 7
f 55 54 56
f 7 56 9
f 55 56 7
f 43 52 51
f 52 54 55
f 51 55 4
f 52 55 51
f 57 58 59
f 58 60 61
f 59 61 15
f 58 61 59
f 60 62 63
f 62 64 65
f 63 65 66
f 62 65 63
f 15 67 16
f 67 66 68
f 16 68 18
f 67 68 16
f 60 63 61
f 63 66 67
f 61 67 15
f 63 67 61
f 18 68 69
f 68 66 70
f 69 70 71
f 68 70 69
f 66 65 72
f 65 64 73
f 72 73 74
f 65 73 72
f 71 75 76
f 75 74 77
f 76 77 78
f 75 77 76
f 66 72 70
f 72 74 75
f 70 75 71
f 72 75 70
f 18 69 23
f 69 71 79
f 23 79 25
f 69 79 23
f 71 76 80
f 76 78 81
f 80 81 82
f 76 81 80
f 25 83 84
f 83 82 85
f 84 85 86
f 83 85 84
f 71 80 79
f 80 82 83
f 79 83 25
f 80 83 79
f 30 87 88
f 85 82 89
f 90 89 91
f 85 89 90
f 82 81 92
f 81 78 93
f 92 93 94
f 81 93 92
f 91 95 96
f 95 94 97
f 96 97 98
f 95 97 96
f 82 92 89
f 92 94 95
f 89 95 91
f 92 95 89
f 30 88 35
f 88 99 100
f 35 100 36
f 88 100 35
f 99 101 102
f 96 98 103
f 102 104 105
f 101 104 102
f 36 106 39
f 106 105 107
f 39 107 40
f 106 107 39
f 99 102 100
f 102 105 106
f 100 106 36
f 102 106 100
f 40 107 108
f 107 105 109
f 108 109 110
f 107 109 108
f 105 104 111
f 104 112 113
f 111 113 114
f 104 113 111
f 110 115 116
f 115 114 117
f 116 117 118
f 115 117 116
f 105 111 109
f 111 114 115
f 109 115 110
f 111 115 109
f 40 108 45
f 108 110 119
f 45 119 46
f 108 119 45
f 110 116 120
f 116 118 121
f 120 121 122
f 116 121 120
f 46 123 49
f 123 122 124
f 49 124 50
f 123 124 49
f 110 120 119
f 120 122 123
f 119 123 46
f 120 123 119
f 50 124 125
f 124 122 126
f 125 126 127
f 124 126 125
f 122 121 128
f 121 118 129
f 128 129 130
f 121 129 128
f 127 131 132
f 131 130 133
f 132 133 134
f 131 133 132
f 122 128 126
f 128 130 131
f 126 131 127
f 128 131 126
f 50 125 53
f 125 127 135
f 53 135 54
f 125 135 53
f 127 132 136
f 137 138 139
f 136 140 141
f 132 140 136
f 54 142 56
f 142 141 143
f 56 143 9
f 142 143 56
f 127 136 135
f 136 141 142
f 135 142 54
f 136 142 135
f 9 143 144
f 145 146 147
f 58 147 60
f 145 147 58
f 146 139 148
f 139 138 149
f 148 149 150
f 139 149 148
f 60 151 62
f 151 150 152
f 62 152 64
f 151 152 62
f 146 148 147
f 148 150 151
f 147 151 60
f 148 151 147
f 153 154 155
f 154 156 157
f 155 157 158
f 154 157 155
f 156 159 160
f 159 78 77
f 160 77 74
f 159 77 160
f 158 161 162
f 161 74 73
f 162 73 64
f 161 73 162
f 156 160 157
f 160 74 161
f 157 161 158
f 160 161 157
f 153 163 154
f 163 164 165
f 154 165 156
f 163 165 154
f 164 166 167
f 166 98 97
f 167 97 94
f 166 97 167
f 156 168 159
f 168 94 93
f 159 93 78
f 168 93 159
f 164 167 165
f 167 94 168
f 165 168 156
f 167 168 165
f 153 169 163
f 169 170 171
f 163 171 164
f 169 171 163
f 170 172 173
f 174 118 117
f 175 117 114
f 174 117 175
f 164 176 166
f 176 177 178
f 166 178 98
f 176 178 166
f 170 173 171
f 173 177 176
f 171 176 164
f 173 176 171
f 153 179 169
f 179 180 181
f 169 181 170
f 179 181 169
f 180 182 183
f 182 138 184
f 183 184 185
f 182 184 183
f 170 186 172
f 187 130 129
f 174 129 118
f 187 129 174
f 180 183 181
f 183 185 186
f 181 186 170
f 183 186 181
f 153 155 179
f 155 158 188
f 179 188 180
f 155 188 179
f 158 162 189
f 162 64 152
f 189 152 150
f 162 152 189
f 180 190 182
f 190 150 149
f 182 149 138
f 190 149 182
f 158 189 188
f 189 150 190
f 188 190 180
f 189 190 188
f 14 12 15
f 15 12 11
f 17 13 14
f 14 13 12
f 25 28 24
f 24 28 22
f 24 22 17
f 17 22 13
f 57 9 58
f 58 9 144
f 59 10 57
f 57 10 9
f 15 11 59
f 59 11 10
f 84 29 25
f 25 29 28
f 85 87 86
f 86 87 30
f 86 30 84
f 84 30 29
f 91 99 90
f 90 99 88
f 90 88 85
f 85 88 87
f 96 101 91
f 91 101 99
f 98 112 103
f 103 112 104
f 103 104 96
f 96 104 101
f 137 132 138
f 138 132 134
f 139 140 137
f 137 140 132
f 145 143 146
f 146 143 141
f 58 144 145
f 145 144 143
f 146 141 139
f 139 141 140
f 172 174 173
f 173 174 175
f 177 114 178
f 178 114 113
f 178 113 98
f 98 113 112
f 173 175 177
f 177 175 114
f 138 134 184
f 184 134 133
f 184 133 185
f 185 133 130
f 186 187 172
f 172 187 174
f 185 130 186
f 186 130 187
