v 0.106557 1.22045 -0.132443
v 0.141427 1.17663 -0.136917
v 0.135844 1.22542 -0.180125
v 0.164694 1.1272 -0.15
v 0.168089 1.1778 -0.188555
v 0.153953 1.22106 -0.233125
v 0.174586 1.07592 -0.170695
v 0.187802 1.11792 -0.208636
v 0.170351 1.02669 -0.197427
v 0.188493 1.06551 -0.233756
v 0.19145 1.10717 -0.271322
v 0.182155 1.16727 -0.252338
v 0.159506 1.20771 -0.287411
v 0.182155 1.13869 -0.332338
v 0.19145 1.07859 -0.351322
v 0.178996 1.11993 -0.387265
v 0.159506 1.17913 -0.367411
v 0.152078 1.1578 -0.418848
v 0.0836044 1.26116 -0.163621
v 0.109604 1.26329 -0.215564
v 0.05345 1.28982 -0.201374
v 0.123671 1.25276 -0.279347
v 0.121173 1.20446 -0.413968
v 0.123671 1.22418 -0.359347
v 0.0802066 1.24121 -0.402696
v 0.0708335 1.28891 -0.262655
v 0.0183895 1.30425 -0.242829
v 0.0802066 1.26979 -0.322696
v 0.0322972 1.29384 -0.30589
v -0.0189082 1.30335 -0.28483
v 0.0569008 1.23445 -0.110214
v 0.0297577 1.27243 -0.144854
v 0.00207569 1.23844 -0.0986256
v -0.00901328 1.29805 -0.191944
v -0.0466464 1.30287 -0.23598
v -0.071671 1.28717 -0.188197
v -0.0360224 1.27104 -0.137926
v -0.0537448 1.23211 -0.0985606
v -0.0920772 1.25744 -0.145118
v -0.106311 1.21595 -0.110024
v 0.0926371 1.18221 -0.0937101
v 0.0388938 1.19258 -0.074143
v 0.070828 1.13794 -0.0668745
v -0.0268862 1.19119 -0.0672151
v -0.0830444 1.1785 -0.0752073
v -0.0542931 1.13529 -0.0536968
v 0.00925899 1.13835 -0.0505225
v 0.0427898 1.091 -0.0539791
v -0.0222461 1.08962 -0.0471296
v 0.0106569 1.04496 -0.0560054
v 0.124387 1.1341 -0.101152
v 0.0947522 1.07987 -0.0775316
v 0.06228 1.0318 -0.0738331
v 0.108325 1.02405 -0.105071
v 0.1441 1.07422 -0.121233
v 0.145286 1.0223 -0.147342
v 0.170351 0.998108 -0.277427
v 0.167789 0.97688 -0.329377
v 0.188493 1.03693 -0.313756
v 0.151618 0.963069 -0.381374
v 0.180928 1.01808 -0.368219
v 0.123068 0.957726 -0.429461
v 0.15434 1.00669 -0.42772
v 0.0843116 0.961258 -0.469976
v 0.117485 1.00652 -0.472668
v 0.140878 1.05693 -0.4645
v 0.175281 1.06743 -0.41192
v 0.152709 1.10868 -0.446093
v 0.116973 1.16092 -0.462596
v 0.112548 1.10888 -0.488114
v 0.0721255 1.15744 -0.496251
v 0.0916075 1.04814 -0.503913
v 0.0610446 0.998707 -0.504793
v 0.0322932 1.04191 -0.526303
v 0.0554622 1.10098 -0.520606
v 0.0209505 1.14763 -0.51725
v 0.000246303 1.08758 -0.53287
v -0.0326567 1.13224 -0.523994
v 0.0806518 1.20576 -0.455622
v 0.0235656 1.19786 -0.488114
v -0.0312896 1.18337 -0.500746
v -0.0283779 1.22619 -0.4645
v 0.0278141 1.2419 -0.438929
v 0.0322972 1.26526 -0.38589
v -0.0241433 1.25745 -0.418015
v -0.0241433 1.28603 -0.338015
v -0.0729331 1.29161 -0.294808
v -0.0786202 1.23965 -0.42772
v -0.0729331 1.26303 -0.374808
v -0.122243 1.23693 -0.381374
v -0.0828687 1.19561 -0.476904
v -0.0842798 1.14541 -0.506167
v -0.130325 1.15316 -0.474929
v -0.132217 1.20126 -0.433203
v -0.163086 1.19845 -0.38403
v -0.167286 1.1549 -0.432658
v -0.19235 1.15052 -0.382573
v -0.122243 1.26551 -0.301374
v -0.101381 1.28527 -0.244517
v -0.163086 1.22703 -0.30403
v -0.154977 1.24687 -0.25
v -0.19235 1.1791 -0.302573
v -0.189789 1.20032 -0.250623
v -0.173618 1.21414 -0.198626
v -0.12839 1.25826 -0.190499
v -0.145067 1.21948 -0.150539
v -0.139485 1.17069 -0.107332
v -0.17634 1.17051 -0.15228
v -0.162878 1.12027 -0.1155
v -0.202927 1.15913 -0.211781
v -0.210493 1.14028 -0.266244
v -0.21345 1.09861 -0.228678
v -0.197281 1.10978 -0.16808
v -0.174709 1.06853 -0.133907
v -0.200996 1.05727 -0.192735
v -0.174078 1.0194 -0.161152
v -0.113607 1.12906 -0.0760866
v -0.134548 1.06833 -0.091886
v -0.138973 1.01629 -0.117404
v -0.0941253 1.01977 -0.0837492
v -0.0774621 1.07622 -0.0593941
v -0.0429503 1.02957 -0.0627503
v 0.00928974 0.993837 -0.079254
v -0.0455654 0.979344 -0.0918861
v 0.00637807 0.951015 -0.1155
v -0.102652 0.971447 -0.124378
v -0.143173 0.972744 -0.166032
v -0.102206 0.935993 -0.177304
v -0.0498139 0.935301 -0.141071
v 0.00214352 0.919754 -0.161985
v -0.054297 0.911946 -0.194109
v 0.00214352 0.891174 -0.241985
v -0.054297 0.883366 -0.27411
v -0.00309155 0.873855 -0.29517
v 0.0608689 0.981595 -0.103096
v 0.0566204 0.937553 -0.15228
v 0.0509333 0.885592 -0.285192
v 0.0509333 0.914172 -0.205192
v 0.100244 0.940275 -0.198626
v 0.110217 0.975949 -0.146797
v 0.141086 0.978757 -0.19597
v 0.141086 0.950177 -0.27597
v 0.100244 0.911695 -0.278626
v 0.132978 0.930335 -0.33
v 0.079381 0.891938 -0.335483
v 0.0246466 0.874333 -0.34402
v 0.0496712 0.890034 -0.391803
v 0.10639 0.918948 -0.389501
v 0.0700773 0.919764 -0.434882
v -0.128557 0.956755 -0.447557
v -0.114637 0.994991 -0.48629
v -0.0789007 0.942751 -0.469786
v -0.0928278 1.03927 -0.513125
v -0.0608936 0.984624 -0.505857
v -0.0240755 0.938762 -0.481374
v -0.0647896 1.08621 -0.526021
v -0.0312588 1.03885 -0.529477
v 0.00488639 0.986016 -0.512785
v 0.031745 0.945092 -0.481439
v -0.163427 1.00057 -0.443083
v -0.186693 1.05001 -0.43
v -0.146387 1.04311 -0.478848
v -0.196586 1.10129 -0.409305
v -0.1661 1.10298 -0.458767
v -0.116752 1.09734 -0.502468
v -0.157844 0.951784 -0.399875
v -0.175953 0.95614 -0.346875
v -0.190088 0.999407 -0.391445
v -0.181505 0.969492 -0.292589
v -0.204155 1.00993 -0.327662
v -0.181505 0.998072 -0.212589
v -0.204155 1.03851 -0.247662
v -0.209802 1.05928 -0.371363
v -0.21345 1.07003 -0.308678
v -0.210493 1.1117 -0.346244
v -0.105604 0.916048 -0.416379
v -0.0754498 0.887388 -0.378626
v -0.131604 0.913914 -0.364436
v -0.0403893 0.872957 -0.337171
v -0.0928334 0.888296 -0.317345
v -0.102206 0.907412 -0.257304
v -0.145671 0.924441 -0.300653
v -0.145671 0.953021 -0.220653
v -0.0517575 0.904777 -0.435146
v 0.0140225 0.906169 -0.442074
v -0.0129865 0.87916 -0.388056
f 1 2 3
f 2 4 5
f 3 5 6
f 2 5 3
f 4 7 8
f 7 9 10
f 8 10 11
f 7 10 8
f 6 12 13
f 14 15 16
f 17 16 18
f 14 16 17
f 4 8 5
f 8 11 12
f 5 12 6
f 8 12 5
f 1 3 19
f 3 6 20
f 19 20 21
f 3 20 19
f 6 13 22
f 17 18 23
f 24 23 25
f 17 23 24
f 21 26 27
f 26 28 29
f 27 29 30
f 26 29 27
f 6 22 20
f 22 28 26
f 20 26 21
f 22 26 20
f 1 19 31
f 19 21 32
f 31 32 33
f 19 32 31
f 21 27 34
f 27 30 35
f 34 35 36
f 27 35 34
f 33 37 38
f 37 36 39
f 38 39 40
f 37 39 38
f 21 34 32
f 34 36 37
f 32 37 33
f 34 37 32
f 1 31 41
f 31 33 42
f 41 42 43
f 31 42 41
f 33 38 44
f 38 40 45
f 44 45 46
f 38 45 44
f 43 47 48
f 47 46 49
f 48 49 50
f 47 49 48
f 33 44 42
f 44 46 47
f 42 47 43
f 44 47 42
f 1 41 2
f 41 43 51
f 2 51 4
f 41 51 2
f 43 48 52
f 48 50 53
f 52 53 54
f 48 53 52
f 4 55 7
f 55 54 56
f 7 56 9
f 55 56 7
f 43 52 51
f 52 54 55
f 51 55 4
f 52 55 51
f 57 58 59
f 58 60 61
f 59 61 15
f 58 61 59
f 60 62 63
f 62 64 65
f 63 65 66
f 62 65 63
f 15 67 16
f 67 66 68
f 16 68 18
f 67 68 16
f 60 63 61
f 63 66 67
f 61 67 15
f 63 67 61
f 18 68 69
f 68 66 70
f 69 70 71
f 68 70 69
f 66 65 72
f 65 64 73
f 72 73 74
f 65 73 72
f 71 75 76
f 75 74 77
f 76 77 78
f 75 77 76
f 66 72 70
f 72 74 75
f 70 75 71
f 72 75 70
f 18 69 23
f 69 71 79
f 23 79 25
f 69 79 23
f 71 76 80
f 76 78 81
f 80 81 82
f 76 81 80
f 25 83 84
f 83 82 85
f 29 86 30
f 83 85 84
f 71 80 79
f 80 82 83
f 79 83 25
f 80 83 79
f 30 86 87
f 85 82 88
f 89 88 90
f 85 88 89
f 82 81 91
f 81 78 92
f 91 92 93
f 81 92 91
f 90 94 95
f 94 93 96
f 95 96 97
f 94 96 95
f 82 91 88
f 91 93 94
f 88 94 90
f 91 94 88
f 30 87 35
f 87 98 99
f 35 99 36
f 87 99 35
f 98 100 101
f 100 102 103
f 101 103 104
f 100 103 101
f 36 105 39
f 105 104 106
f 39 106 40
f 105 106 39
f 98 101 99
f 101 104 105
f 99 105 36
f 101 105 99
f 40 106 107
f 106 104 108
f 107 108 109
f 106 108 107
f 104 103 110
f 103 102 111
f 110 111 112
f 103 111 110
f 109 113 114
f 113 112 115
f 114 115 116
f 113 115 114
f 104 110 108
f 110 112 113
f 108 113 109
f 110 113 108
f 40 107 45
f 107 109 117
f 45 117 46
f 107 117 45
f 109 114 118
f 114 116 119
f 118 119 120
f 114 119 118
f 46 121 49
f 121 120 122
f 49 122 50
f 121 122 49
f 109 118 117
f 118 120 121
f 117 121 46
f 118 121 117
f 50 122 123
f 122 120 124
f 123 124 125
f 122 124 123
f 120 119 126
f 119 116 127
f 126 127 128
f 119 127 126
f 125 129 130
f 129 128 131
f 132 133 134
f 129 131 130
f 120 126 124
f 126 128 129
f 124 129 125
f 126 129 124
f 50 123 53
f 123 125 135
f 53 135 54
f 123 135 53
f 125 130 136
f 132 134 137
f 136 138 139
f 130 138 136
f 54 140 56
f 140 139 141
f 56 141 9
f 140 141 56
f 125 136 135
f 136 139 140
f 135 140 54
f 136 140 135
f 57 142 58
f 142 143 144
f 58 144 60
f 142 144 58
f 143 137 145
f 137 134 146
f 145 146 147
f 137 146 145
f 60 148 62
f 148 147 149
f 62 149 64
f 148 149 62
f 143 145 144
f 145 147 148
f 144 148 60
f 145 148 144
f 150 151 152
f 151 153 154
f 152 154 155
f 151 154 152
f 153 156 157
f 156 78 77
f 157 77 74
f 156 77 157
f 155 158 159
f 158 74 73
f 159 73 64
f 158 73 159
f 153 157 154
f 157 74 158
f 154 158 155
f 157 158 154
f 150 160 151
f 160 161 162
f 151 162 153
f 160 162 151
f 161 163 164
f 163 97 96
f 164 96 93
f 163 96 164
f 153 165 156
f 165 93 92
f 156 92 78
f 165 92 156
f 161 164 162
f 164 93 165
f 162 165 153
f 164 165 162
f 150 166 160
f 166 167 168
f 160 168 161
f 166 168 160
f 167 169 170
f 171 116 115
f 172 115 112
f 171 115 172
f 161 173 163
f 173 174 175
f 163 175 97
f 173 175 163
f 167 170 168
f 170 174 173
f 168 173 161
f 170 173 168
f 150 176 166
f 176 177 178
f 166 178 167
f 176 178 166
f 177 179 180
f 179 134 133
f 180 133 181
f 179 133 180
f 167 182 169
f 183 128 127
f 171 127 116
f 183 127 171
f 177 180 178
f 180 181 182
f 178 182 167
f 180 182 178
f 150 152 176
f 152 155 184
f 176 184 177
f 152 184 176
f 155 159 185
f 159 64 149
f 185 149 147
f 159 149 185
f 177 186 179
f 186 147 146
f 179 146 134
f 186 146 179
f 155 185 184
f 185 147 186
f 184 186 177
f 185 186 184
f 14 12 15
f 15 12 11
f 17 13 14
f 14 13 12
f 25 28 24
f 24 28 22
f 24 22 17
f 17 22 13
f 59 10 57
f 57 10 9
f 15 11 59
f 59 11 10
f 84 29 25
f 25 29 28
f 85 86 84
f 84 86 29
f 90 98 89
f 89 98 87
f 89 87 85
f 85 87 86
f 95 100 90
f 90 100 98
f 97 102 95
f 95 102 100
f 132 130 133
f 133 130 131
f 137 138 132
f 132 138 130
f 57 9 142
f 142 9 141
f 142 141 143
f 143 141 139
f 143 139 137
f 137 139 138
f 169 171 170
f 170 171 172
f 174 112 175
f 175 112 111
f 175 111 97
f 97 111 102
f 170 172 174
f 174 172 112
f 133 131 181
f 181 131 128
f 182 183 169
f 169 183 171
f 181 128 182
f 182 128 183
