v 0.106557 1.26608 -0.0524429
v 0.141427 1.22226 -0.0569173
v 0.135844 1.27105 -0.100125
v 0.164694 1.17283 -0.0699999
v 0.168089 1.22343 -0.108555
v 0.153953 1.26669 -0.153125
v 0.174586 1.12155 -0.0906949
v 0.187802 1.16355 -0.128636
v 0.170351 1.07232 -0.117427
v 0.188493 1.11114 -0.153756
v 0.19145 1.1528 -0.191322
v 0.182155 1.2129 -0.172338
v 0.159506 1.25334 -0.207411
v 0.182155 1.16727 -0.252338
v 0.19145 1.10717 -0.271322
v 0.178996 1.14851 -0.307265
v 0.159506 1.20771 -0.287411
v 0.152078 1.18638 -0.338848
v 0.178996 1.19414 -0.227265
v 0.0836044 1.30679 -0.0836209
v 0.109604 1.30892 -0.135564
v 0.05345 1.33545 -0.121374
v 0.123671 1.29839 -0.199347
v 0.121173 1.23304 -0.333968
v 0.121173 1.27867 -0.253968
v 0.0802066 1.31542 -0.242696
v 0.0708335 1.33454 -0.182655
v 0.0183895 1.34988 -0.162829
v 0.0322972 1.33947 -0.22589
v -0.0189082 1.34898 -0.20483
v 0.0569008 1.28008 -0.0302138
v 0.0297577 1.31806 -0.0648537
v 0.00207569 1.28407 -0.0186256
v -0.00901328 1.34367 -0.111944
v -0.0466464 1.3485 -0.15598
v -0.071671 1.3328 -0.108197
v -0.0360224 1.31667 -0.0579258
v -0.0537448 1.27774 -0.0185606
v -0.0920772 1.30307 -0.0651181
v -0.106311 1.26158 -0.0300236
v 0.0926371 1.22784 -0.0137101
v 0.0388938 1.23821 0.00585698
v 0.070828 1.18357 0.0131254
v -0.0268862 1.23682 0.0127849
v -0.0830444 1.22413 0.00479268
v -0.0542931 1.18092 0.0263032
v 0.00925899 1.18398 0.0294774
v 0.0427898 1.13663 0.0260209
v -0.0222461 1.13525 0.0328704
v 0.0106569 1.09059 0.0239945
v 0.124387 1.17973 -0.0211521
v 0.0947522 1.1255 0.00246835
v 0.06228 1.07743 0.00616688
v 0.108325 1.06968 -0.0250712
v 0.1441 1.11985 -0.0412333
v 0.145286 1.06793 -0.0673417
v 0.170351 1.02669 -0.197427
v 0.167789 1.00546 -0.249377
v 0.188493 1.06551 -0.233756
v 0.151618 0.991649 -0.301374
v 0.180928 1.04666 -0.288219
v 0.123068 0.986306 -0.349461
v 0.15434 1.03527 -0.34772
v 0.0843116 0.989838 -0.389976
v 0.117485 1.0351 -0.392668
v 0.140878 1.08551 -0.3845
v 0.175281 1.09601 -0.33192
v 0.152709 1.13726 -0.366093
v 0.116973 1.1895 -0.382596
v 0.112548 1.13746 -0.408114
v 0.0721255 1.18602 -0.416251
v 0.0916075 1.07672 -0.423913
v 0.0610446 1.02729 -0.424793
v 0.0322932 1.07049 -0.446303
v 0.0554622 1.12956 -0.440606
v 0.0209505 1.17621 -0.43725
v 0.000246303 1.11616 -0.45287
v -0.0326567 1.16082 -0.443994
v 0.0806518 1.23434 -0.375622
v 0.0802066 1.26979 -0.322696
v 0.0235656 1.22644 -0.408114
v -0.0312896 1.21195 -0.420746
v -0.0283779 1.25477 -0.3845
v 0.0278141 1.31611 -0.278929
v 0.0278141 1.27048 -0.358929
v -0.0241433 1.28603 -0.338015
v -0.0241433 1.33166 -0.258015
v -0.0729331 1.33724 -0.214808
v -0.0786202 1.26823 -0.34772
v -0.0786202 1.31386 -0.26772
v -0.122243 1.31114 -0.221374
v -0.0828687 1.22419 -0.396904
v -0.0842798 1.17399 -0.426167
v -0.130325 1.18174 -0.394929
v -0.132217 1.27547 -0.273203
v -0.163086 1.27266 -0.22403
v -0.132217 1.22984 -0.353203
v -0.167286 1.18348 -0.352658
v -0.163086 1.22703 -0.30403
v -0.19235 1.1791 -0.302573
v -0.101381 1.3309 -0.164517
v -0.154977 1.2925 -0.17
v -0.19235 1.22473 -0.222573
v -0.189789 1.24595 -0.170623
v -0.173618 1.25977 -0.118626
v -0.12839 1.30389 -0.110499
v -0.145067 1.26511 -0.070539
v -0.139485 1.21632 -0.0273317
v -0.17634 1.21614 -0.0722802
v -0.162878 1.1659 -0.0355002
v -0.202927 1.20475 -0.131781
v -0.210493 1.18591 -0.186244
v -0.21345 1.14424 -0.148678
v -0.197281 1.15541 -0.0880796
v -0.174709 1.11416 -0.0539073
v -0.200996 1.1029 -0.112735
v -0.174078 1.06503 -0.0811517
v -0.113607 1.17469 0.0039134
v -0.134548 1.11396 -0.011886
v -0.138973 1.06192 -0.0374036
v -0.0941253 1.0654 -0.00374918
v -0.0774621 1.12185 0.0206059
v -0.0429503 1.0752 0.0172497
v 0.00928974 1.03947 0.000745997
v -0.0455654 1.02497 -0.0118861
v 0.00637807 0.996644 -0.0355003
v -0.102652 1.01708 -0.044378
v -0.143173 1.01837 -0.0860317
v -0.102206 0.981622 -0.0973037
v -0.0498139 0.98093 -0.0610706
v 0.00214352 0.965383 -0.0819851
v -0.0498139 0.935301 -0.141071
v -0.102206 0.935993 -0.177304
v -0.054297 0.911946 -0.194109
v 0.00214352 0.919754 -0.161985
v -0.00309155 0.902435 -0.21517
v 0.0608689 1.02722 -0.0230957
v 0.0566204 0.983182 -0.0722802
v 0.0509333 0.914172 -0.205192
v 0.0566204 0.937553 -0.15228
v 0.100244 0.940275 -0.198626
v 0.110217 1.02158 -0.0667973
v 0.110217 0.975949 -0.146797
v 0.141086 0.978757 -0.19597
v 0.141086 1.02439 -0.11597
v 0.132978 0.958915 -0.25
v 0.079381 0.920519 -0.255483
v 0.0246466 0.902913 -0.26402
v 0.0496712 0.918615 -0.311803
v 0.10639 0.947528 -0.309501
v 0.0700773 0.948344 -0.354882
v -0.128557 0.985336 -0.367557
v -0.114637 1.02357 -0.40629
v -0.0789007 0.971332 -0.389786
v -0.0928278 1.06785 -0.433125
v -0.0608936 1.0132 -0.425857
v -0.0240755 0.967342 -0.401374
v -0.0647896 1.11479 -0.446021
v -0.0312588 1.06743 -0.449477
v 0.00488639 1.0146 -0.432785
v 0.031745 0.973672 -0.401439
v -0.163427 1.02915 -0.363083
v -0.186693 1.07859 -0.35
v -0.146387 1.07169 -0.398848
v -0.196586 1.12987 -0.329305
v -0.1661 1.13156 -0.378767
v -0.116752 1.12592 -0.422468
v -0.157844 0.980364 -0.319875
v -0.175953 0.98472 -0.266875
v -0.190088 1.02799 -0.311445
v -0.181505 0.998072 -0.212589
v -0.204155 1.03851 -0.247662
v -0.181505 1.0437 -0.132589
v -0.204155 1.08414 -0.167662
v -0.200996 1.05727 -0.192735
v -0.209802 1.08786 -0.291363
v -0.21345 1.09861 -0.228678
v -0.210493 1.14028 -0.266244
v -0.105604 0.944628 -0.336379
v -0.0754498 0.915968 -0.298626
v -0.131604 0.942494 -0.284436
v -0.0403893 0.901538 -0.257171
v -0.0928334 0.916876 -0.237345
v -0.145671 0.953021 -0.220653
v -0.143173 0.972744 -0.166032
v -0.0517575 0.933358 -0.355146
v 0.0140225 0.934749 -0.362074
v -0.0129865 0.90774 -0.308056
f 1 2 3
f 2 4 5
f 3 5 6
f 2 5 3
f 4 7 8
f 7 9 10
f 8 10 11
f 7 10 8
f 6 12 13
f 14 15 16
f 17 16 18
f 12 19 13
f 4 8 5
f 8 11 12
f 5 12 6
f 8 12 5
f 1 3 20
f 3 6 21
f 20 21 22
f 3 21 20
f 6 13 23
f 17 18 24
f 23 25 26
f 13 25 23
f 22 27 28
f 27 26 29
f 28 29 30
f 27 29 28
f 6 23 21
f 23 26 27
f 21 27 22
f 23 27 21
f 1 20 31
f 20 22 32
f 31 32 33
f 20 32 31
f 22 28 34
f 28 30 35
f 34 35 36
f 28 35 34
f 33 37 38
f 37 36 39
f 38 39 40
f 37 39 38
f 22 34 32
f 34 36 37
f 32 37 33
f 34 37 32
f 1 31 41
f 31 33 42
f 41 42 43
f 31 42 41
f 33 38 44
f 38 40 45
f 44 45 46
f 38 45 44
f 43 47 48
f 47 46 49
f 48 49 50
f 47 49 48
f 33 44 42
f 44 46 47
f 42 47 43
f 44 47 42
f 1 41 2
f 41 43 51
f 2 51 4
f 41 51 2
f 43 48 52
f 48 50 53
f 52 53 54
f 48 53 52
f 4 55 7
f 55 54 56
f 7 56 9
f 55 56 7
f 43 52 51
f 52 54 55
f 51 55 4
f 52 55 51
f 57 58 59
f 58 60 61
f 59 61 15
f 58 61 59
f 60 62 63
f 62 64 65
f 63 65 66
f 62 65 63
f 15 67 16
f 67 66 68
f 16 68 18
f 67 68 16
f 60 63 61
f 63 66 67
f 61 67 15
f 63 67 61
f 18 68 69
f 68 66 70
f 69 70 71
f 68 70 69
f 66 65 72
f 65 64 73
f 72 73 74
f 65 73 72
f 71 75 76
f 75 74 77
f 76 77 78
f 75 77 76
f 66 72 70
f 72 74 75
f 70 75 71
f 72 75 70
f 18 69 24
f 69 71 79
f 24 79 80
f 69 79 24
f 71 76 81
f 76 78 82
f 81 82 83
f 76 82 81
f 26 84 29
f 85 83 86
f 29 87 30
f 84 87 29
f 71 81 79
f 81 83 85
f 79 85 80
f 81 85 79
f 30 87 88
f 86 83 89
f 88 90 91
f 87 90 88
f 83 82 92
f 82 78 93
f 92 93 94
f 82 93 92
f 91 95 96
f 97 94 98
f 99 98 100
f 97 98 99
f 83 92 89
f 92 94 97
f 90 95 91
f 92 97 89
f 30 88 35
f 88 91 101
f 35 101 36
f 88 101 35
f 91 96 102
f 96 103 104
f 102 104 105
f 96 104 102
f 36 106 39
f 106 105 107
f 39 107 40
f 106 107 39
f 91 102 101
f 102 105 106
f 101 106 36
f 102 106 101
f 40 107 108
f 107 105 109
f 108 109 110
f 107 109 108
f 105 104 111
f 104 103 112
f 111 112 113
f 104 112 111
f 110 114 115
f 114 113 116
f 115 116 117
f 114 116 115
f 105 111 109
f 111 113 114
f 109 114 110
f 111 114 109
f 40 108 45
f 108 110 118
f 45 118 46
f 108 118 45
f 110 115 119
f 115 117 120
f 119 120 121
f 115 120 119
f 46 122 49
f 122 121 123
f 49 123 50
f 122 123 49
f 110 119 118
f 119 121 122
f 118 122 46
f 119 122 118
f 50 123 124
f 123 121 125
f 124 125 126
f 123 125 124
f 121 120 127
f 120 117 128
f 127 128 129
f 120 128 127
f 126 130 131
f 132 133 134
f 135 134 136
f 132 134 135
f 121 127 125
f 127 129 130
f 125 130 126
f 127 130 125
f 50 124 53
f 124 126 137
f 53 137 54
f 124 137 53
f 126 131 138
f 135 136 139
f 140 139 141
f 135 139 140
f 54 142 56
f 143 141 144
f 56 145 9
f 142 145 56
f 126 138 137
f 140 141 143
f 137 142 54
f 138 142 137
f 57 144 58
f 144 141 146
f 58 146 60
f 144 146 58
f 141 139 147
f 139 136 148
f 147 148 149
f 139 148 147
f 60 150 62
f 150 149 151
f 62 151 64
f 150 151 62
f 141 147 146
f 147 149 150
f 146 150 60
f 147 150 146
f 152 153 154
f 153 155 156
f 154 156 157
f 153 156 154
f 155 158 159
f 158 78 77
f 159 77 74
f 158 77 159
f 157 160 161
f 160 74 73
f 161 73 64
f 160 73 161
f 155 159 156
f 159 74 160
f 156 160 157
f 159 160 156
f 152 162 153
f 162 163 164
f 153 164 155
f 162 164 153
f 163 165 166
f 165 100 98
f 166 98 94
f 165 98 166
f 155 167 158
f 167 94 93
f 158 93 78
f 167 93 158
f 163 166 164
f 166 94 167
f 164 167 155
f 166 167 164
f 152 168 162
f 168 169 170
f 162 170 163
f 168 170 162
f 169 171 172
f 173 117 116
f 174 116 113
f 171 175 172
f 163 176 165
f 176 177 178
f 165 178 100
f 176 178 165
f 169 172 170
f 172 177 176
f 170 176 163
f 172 176 170
f 152 179 168
f 179 180 181
f 168 181 169
f 179 181 168
f 180 182 183
f 182 136 134
f 183 134 133
f 182 134 183
f 169 184 171
f 184 133 185
f 173 128 117
f 184 185 171
f 180 183 181
f 183 133 184
f 181 184 169
f 183 184 181
f 152 154 179
f 154 157 186
f 179 186 180
f 154 186 179
f 157 161 187
f 161 64 151
f 187 151 149
f 161 151 187
f 180 188 182
f 188 149 148
f 182 148 136
f 188 148 182
f 157 187 186
f 187 149 188
f 186 188 180
f 187 188 186
f 14 12 15
f 15 12 11
f 16 19 14
f 14 19 12
f 17 13 16
f 16 13 19
f 24 25 17
f 17 25 13
f 59 10 57
f 57 10 9
f 15 11 59
f 59 11 10
f 80 26 24
f 24 26 25
f 86 87 85
f 85 87 84
f 85 84 80
f 80 84 26
f 89 90 86
f 86 90 87
f 100 103 99
f 99 103 96
f 99 96 97
f 97 96 95
f 97 95 89
f 89 95 90
f 132 130 133
f 133 130 129
f 135 131 132
f 132 131 130
f 140 138 135
f 135 138 131
f 144 145 143
f 143 145 142
f 143 142 140
f 140 142 138
f 57 9 144
f 144 9 145
f 171 173 175
f 175 173 116
f 175 116 172
f 172 116 174
f 177 113 178
f 178 113 112
f 178 112 100
f 100 112 103
f 172 174 177
f 177 174 113
f 133 129 185
f 185 129 128
f 185 128 171
f 171 128 173
