v 0.106557 1.2962 0.187557
v 0.141427 1.25238 0.183083
v 0.135844 1.30117 0.139875
v 0.164694 1.20295 0.17
v 0.168089 1.25355 0.131445
v 0.153953 1.29682 0.0868747
v 0.174586 1.15167 0.149305
v 0.187802 1.19367 0.111364
v 0.170351 1.10244 0.122573
v 0.188493 1.14126 0.0862439
v 0.19145 1.18293 0.0486781
v 0.153953 1.29682 -0.153125
v 0.182155 1.24302 -0.172338
v 0.159506 1.28346 -0.207411
v 0.19145 1.18293 -0.191322
v 0.178996 1.22427 -0.227265
v 0.152078 1.26213 -0.258848
v 0.182155 1.24302 0.0676619
v 0.0836044 1.33691 0.156379
v 0.109604 1.33904 0.104436
v 0.05345 1.36557 0.118626
v 0.123671 1.32851 -0.199347
v 0.121173 1.30879 -0.253968
v 0.0802066 1.34554 -0.242696
v 0.0708335 1.36466 0.0573454
v 0.0183895 1.38 0.0771708
v 0.0708335 1.36466 -0.182655
v 0.0322972 1.36959 -0.22589
v 0.0183895 1.38 -0.162829
v -0.0189082 1.3791 -0.20483
v 0.123671 1.32851 0.0406528
v 0.109604 1.33904 -0.135564
v 0.0569008 1.3102 0.209786
v 0.0297577 1.34818 0.175146
v 0.00207569 1.31419 0.221374
v -0.00901328 1.3738 0.128056
v -0.0466464 1.37862 -0.15598
v -0.0466464 1.37862 0.0840204
v -0.071671 1.36292 0.131803
v -0.0360224 1.34679 0.182074
v -0.0537448 1.30786 0.221439
v -0.0920772 1.33319 0.174882
v -0.106311 1.2917 0.209976
v 0.0926371 1.25796 0.22629
v 0.0388938 1.26833 0.245857
v 0.070828 1.21369 0.253125
v -0.0268862 1.26694 0.252785
v -0.0830444 1.25425 0.244793
v -0.0542931 1.21104 0.266303
v 0.00925899 1.2141 0.269477
v 0.0427898 1.16675 0.266021
v -0.0222461 1.16537 0.27287
v 0.0106569 1.12071 0.263995
v 0.124387 1.20985 0.218848
v 0.0947522 1.15562 0.242468
v 0.06228 1.10755 0.246167
v 0.108325 1.0998 0.214929
v 0.1441 1.14997 0.198767
v 0.145286 1.09805 0.172658
v 0.167789 1.08121 0.0706232
v 0.167789 1.08121 -0.169377
v 0.151618 1.0674 -0.221374
v 0.180928 1.12241 -0.208219
v 0.188493 1.14126 -0.153756
v 0.123068 1.06206 -0.269461
v 0.15434 1.11102 -0.26772
v 0.0843116 1.06559 -0.309976
v 0.117485 1.11085 -0.312668
v 0.140878 1.16127 -0.3045
v 0.175281 1.17176 -0.25192
v 0.152709 1.21301 -0.286093
v 0.116973 1.26525 -0.302596
v 0.112548 1.21321 -0.328114
v 0.0721255 1.26177 -0.336251
v 0.0916075 1.15247 -0.343913
v 0.0610446 1.10304 -0.344793
v 0.0322932 1.14624 -0.366303
v 0.0554622 1.20531 -0.360606
v 0.0209505 1.25196 -0.35725
v 0.000246303 1.19191 -0.37287
v -0.0326567 1.23658 -0.363994
v 0.0806518 1.31009 -0.295622
v 0.0235656 1.30219 -0.328114
v -0.0312896 1.2877 -0.340746
v -0.0283779 1.33052 -0.3045
v 0.0278141 1.34623 -0.278929
v -0.0241433 1.36178 -0.258015
v -0.0729331 1.36736 -0.214808
v -0.0786202 1.34398 -0.26772
v -0.122243 1.34126 -0.221374
v -0.0828687 1.29994 -0.316904
v -0.0842798 1.24974 -0.346167
v -0.130325 1.25749 -0.314929
v -0.132217 1.30559 -0.273203
v -0.163086 1.30278 -0.22403
v -0.167286 1.25923 -0.272658
v -0.19235 1.25485 -0.222573
v -0.101381 1.36102 -0.164517
v -0.101381 1.36102 0.075483
v -0.154977 1.32262 -0.17
v -0.189789 1.27608 -0.170623
v -0.154977 1.32262 0.0700001
v -0.189789 1.27608 0.069377
v -0.173618 1.28989 0.121374
v -0.12839 1.33401 0.129501
v -0.145067 1.29523 0.169461
v -0.139485 1.24644 0.212668
v -0.17634 1.24626 0.16772
v -0.162878 1.19602 0.2045
v -0.202927 1.23488 0.108219
v -0.210493 1.21603 -0.186244
v -0.210493 1.21603 0.0537562
v -0.21345 1.17436 0.091322
v -0.197281 1.18553 0.15192
v -0.174709 1.14428 0.186093
v -0.200996 1.13302 0.127265
v -0.174078 1.09515 0.158848
v -0.113607 1.20481 0.243913
v -0.134548 1.14408 0.228114
v -0.138973 1.09204 0.202596
v -0.0941253 1.09552 0.236251
v -0.0774621 1.15198 0.260606
v -0.0429503 1.10532 0.25725
v 0.00928974 1.06959 0.240746
v -0.0455654 1.05509 0.228114
v 0.00637807 1.02677 0.2045
v -0.102652 1.0472 0.195622
v -0.143173 1.04849 0.153968
v -0.102206 1.01174 0.142696
v -0.0498139 1.01105 0.178929
v 0.00214352 0.995505 0.158015
v -0.054297 0.987697 0.125891
v -0.00309155 0.978185 0.10483
v 0.0608689 1.05735 0.216904
v 0.0566204 1.0133 0.16772
v 0.0509333 0.989922 0.114808
v 0.100244 1.01603 0.121374
v 0.110217 1.0517 0.173203
v 0.141086 1.05451 0.12403
v 0.132978 1.03467 0.07
v 0.132978 1.03467 -0.17
v 0.079381 0.996269 0.0645171
v 0.0246466 0.978664 0.0559797
v 0.079381 0.996269 -0.175483
v 0.0246466 0.978664 -0.18402
v 0.0496712 0.994365 -0.231803
v 0.10639 1.02328 -0.229501
v 0.0700773 1.02409 -0.274882
v -0.128557 1.06109 -0.287557
v -0.114637 1.09932 -0.32629
v -0.0789007 1.04708 -0.309786
v -0.0928278 1.1436 -0.353125
v -0.0608936 1.08896 -0.345857
v -0.0240755 1.04309 -0.321374
v -0.0647896 1.19054 -0.366021
v -0.0312588 1.14318 -0.369477
v 0.00488639 1.09035 -0.352785
v 0.031745 1.04942 -0.321439
v -0.163427 1.1049 -0.283083
v -0.186693 1.15434 -0.27
v -0.146387 1.14744 -0.318848
v -0.196586 1.20562 -0.249305
v -0.1661 1.20731 -0.298767
v -0.116752 1.20167 -0.342468
v -0.157844 1.05612 -0.239875
v -0.175953 1.06047 -0.186875
v -0.190088 1.10374 -0.231445
v -0.175953 1.06047 0.0531254
v -0.181505 1.07382 0.107411
v -0.204155 1.11427 0.0723382
v -0.209802 1.16361 -0.211363
v -0.21345 1.17436 -0.148678
v -0.204155 1.11427 -0.167662
v -0.105604 1.02038 -0.256379
v -0.0754498 0.991719 -0.218626
v -0.131604 1.01824 -0.204436
v -0.0403893 0.977288 -0.177171
v -0.0928334 0.992627 -0.157345
v -0.0403893 0.977288 0.0628293
v -0.0928334 0.992627 0.0826547
v -0.145671 1.02877 0.0993472
v -0.145671 1.02877 -0.140653
v -0.131604 1.01824 0.0355645
v -0.0517575 1.00911 -0.275146
v 0.0140225 1.0105 -0.282074
v -0.0129865 0.983491 -0.228056
f 1 2 3
f 2 4 5
f 3 5 6
f 2 5 3
f 4 7 8
f 7 9 10
f 8 10 11
f 7 10 8
f 12 13 14
f 13 15 16
f 14 16 17
f 13 16 14
f 4 8 5
f 8 11 18
f 5 18 6
f 8 18 5
f 1 3 19
f 3 6 20
f 19 20 21
f 3 20 19
f 12 14 22
f 14 17 23
f 22 23 24
f 14 23 22
f 21 25 26
f 27 24 28
f 29 28 30
f 27 28 29
f 6 31 20
f 22 24 27
f 20 25 21
f 22 27 32
f 1 19 33
f 19 21 34
f 33 34 35
f 19 34 33
f 21 26 36
f 29 30 37
f 36 38 39
f 26 38 36
f 35 40 41
f 40 39 42
f 41 42 43
f 40 42 41
f 21 36 34
f 36 39 40
f 34 40 35
f 36 40 34
f 1 33 44
f 33 35 45
f 44 45 46
f 33 45 44
f 35 41 47
f 41 43 48
f 47 48 49
f 41 48 47
f 46 50 51
f 50 49 52
f 51 52 53
f 50 52 51
f 35 47 45
f 47 49 50
f 45 50 46
f 47 50 45
f 1 44 2
f 44 46 54
f 2 54 4
f 44 54 2
f 46 51 55
f 51 53 56
f 55 56 57
f 51 56 55
f 4 58 7
f 58 57 59
f 7 59 9
f 58 59 7
f 46 55 54
f 55 57 58
f 54 58 4
f 55 58 54
f 9 60 10
f 61 62 63
f 64 63 15
f 61 63 64
f 62 65 66
f 65 67 68
f 66 68 69
f 65 68 66
f 15 70 16
f 70 69 71
f 16 71 17
f 70 71 16
f 62 66 63
f 66 69 70
f 63 70 15
f 66 70 63
f 17 71 72
f 71 69 73
f 72 73 74
f 71 73 72
f 69 68 75
f 68 67 76
f 75 76 77
f 68 76 75
f 74 78 79
f 78 77 80
f 79 80 81
f 78 80 79
f 69 75 73
f 75 77 78
f 73 78 74
f 75 78 73
f 17 72 23
f 72 74 82
f 23 82 24
f 72 82 23
f 74 79 83
f 79 81 84
f 83 84 85
f 79 84 83
f 24 86 28
f 86 85 87
f 28 87 30
f 86 87 28
f 74 83 82
f 83 85 86
f 82 86 24
f 83 86 82
f 30 87 88
f 87 85 89
f 88 89 90
f 87 89 88
f 85 84 91
f 84 81 92
f 91 92 93
f 84 92 91
f 90 94 95
f 94 93 96
f 95 96 97
f 94 96 95
f 85 91 89
f 91 93 94
f 89 94 90
f 91 94 89
f 30 88 37
f 88 90 98
f 38 99 39
f 88 98 37
f 90 95 100
f 95 97 101
f 102 103 104
f 95 101 100
f 39 105 42
f 105 104 106
f 42 106 43
f 105 106 42
f 90 100 98
f 102 104 105
f 99 105 39
f 102 105 99
f 43 106 107
f 106 104 108
f 107 108 109
f 106 108 107
f 104 103 110
f 101 97 111
f 110 112 113
f 103 112 110
f 109 114 115
f 114 113 116
f 115 116 117
f 114 116 115
f 104 110 108
f 110 113 114
f 108 114 109
f 110 114 108
f 43 107 48
f 107 109 118
f 48 118 49
f 107 118 48
f 109 115 119
f 115 117 120
f 119 120 121
f 115 120 119
f 49 122 52
f 122 121 123
f 52 123 53
f 122 123 52
f 109 119 118
f 119 121 122
f 118 122 49
f 119 122 118
f 53 123 124
f 123 121 125
f 124 125 126
f 123 125 124
f 121 120 127
f 120 117 128
f 127 128 129
f 120 128 127
f 126 130 131
f 130 129 132
f 131 132 133
f 130 132 131
f 121 127 125
f 127 129 130
f 125 130 126
f 127 130 125
f 53 124 56
f 124 126 134
f 56 134 57
f 124 134 56
f 126 131 135
f 131 133 136
f 135 136 137
f 131 136 135
f 57 138 59
f 138 137 139
f 59 139 9
f 138 139 59
f 126 135 134
f 135 137 138
f 134 138 57
f 135 138 134
f 9 139 60
f 139 137 140
f 61 141 62
f 139 140 60
f 137 136 142
f 136 133 143
f 144 145 146
f 136 143 142
f 62 147 65
f 147 146 148
f 65 148 67
f 147 148 65
f 137 142 140
f 144 146 147
f 141 147 62
f 144 147 141
f 149 150 151
f 150 152 153
f 151 153 154
f 150 153 151
f 152 155 156
f 155 81 80
f 156 80 77
f 155 80 156
f 154 157 158
f 157 77 76
f 158 76 67
f 157 76 158
f 152 156 153
f 156 77 157
f 153 157 154
f 156 157 153
f 149 159 150
f 159 160 161
f 150 161 152
f 159 161 150
f 160 162 163
f 162 97 96
f 163 96 93
f 162 96 163
f 152 164 155
f 164 93 92
f 155 92 81
f 164 92 155
f 160 163 161
f 163 93 164
f 161 164 152
f 163 164 161
f 149 165 159
f 165 166 167
f 159 167 160
f 165 167 159
f 168 169 170
f 169 117 116
f 170 116 113
f 169 116 170
f 160 171 162
f 171 172 111
f 162 111 97
f 171 111 162
f 166 173 167
f 173 172 171
f 167 171 160
f 173 171 167
f 149 174 165
f 174 175 176
f 165 176 166
f 174 176 165
f 175 177 178
f 179 133 132
f 180 132 129
f 179 132 180
f 168 181 169
f 181 129 128
f 169 128 117
f 181 128 169
f 175 178 176
f 180 129 181
f 176 182 166
f 180 181 183
f 149 151 174
f 151 154 184
f 174 184 175
f 151 184 174
f 154 158 185
f 158 67 148
f 185 148 146
f 158 148 185
f 175 186 177
f 186 146 145
f 179 143 133
f 186 145 177
f 154 185 184
f 185 146 186
f 184 186 175
f 185 186 184
f 12 6 13
f 13 6 18
f 13 18 15
f 15 18 11
f 22 31 12
f 12 31 6
f 29 26 27
f 27 26 25
f 27 25 32
f 32 25 20
f 32 20 22
f 22 20 31
f 37 38 29
f 29 38 26
f 15 11 64
f 64 11 10
f 64 10 61
f 61 10 60
f 98 99 37
f 37 99 38
f 101 103 100
f 100 103 102
f 100 102 98
f 98 102 99
f 111 112 101
f 101 112 103
f 61 60 141
f 141 60 140
f 144 142 145
f 145 142 143
f 141 140 144
f 144 140 142
f 172 113 111
f 111 113 112
f 166 168 173
f 173 168 170
f 173 170 172
f 172 170 113
f 177 179 178
f 178 179 180
f 178 180 176
f 176 180 183
f 176 183 182
f 182 183 181
f 182 181 166
f 166 181 168
f 145 143 177
f 177 143 179
