v 0.106557 1.2962 0.187557
v 0.141427 1.25238 0.183083
v 0.135844 1.30117 0.139875
v 0.164694 1.20295 0.17
v 0.168089 1.25355 0.131445
v 0.153953 1.29682 0.0868747
v 0.174586 1.15167 0.149305
v 0.187802 1.19367 0.111364
v 0.174586 1.12155 0.149305
v 0.170351 1.07232 0.122573
v 0.188493 1.11114 0.0862439
v 0.187802 1.16355 0.111364
v 0.19145 1.1528 0.0486781
v 0.182155 1.24302 0.0676619
v 0.159506 1.28346 0.0325893
v 0.19145 1.18293 0.0486781
v 0.178996 1.22427 0.0127353
v 0.152078 1.26213 -0.0188482
v 0.0836044 1.33691 0.156379
v 0.109604 1.33904 0.104436
v 0.05345 1.36557 0.118626
v 0.123671 1.32851 0.0406528
v 0.121173 1.30879 -0.0139682
v 0.0802066 1.34554 -0.00269625
v 0.0708335 1.36466 0.0573454
v 0.0183895 1.38 0.0771708
v 0.0322972 1.36959 0.0141096
v -0.0189082 1.3791 0.03517
v 0.0569008 1.3102 0.209786
v 0.0297577 1.34818 0.175146
v 0.00207569 1.31419 0.221374
v -0.00901328 1.3738 0.128056
v -0.0466464 1.37862 0.0840204
v -0.071671 1.36292 0.131803
v -0.0360224 1.34679 0.182074
v -0.0537448 1.30786 0.221439
v -0.0920772 1.33319 0.174882
v -0.106311 1.2917 0.209976
v 0.0926371 1.25796 0.22629
v 0.0388938 1.26833 0.245857
v 0.070828 1.21369 0.253125
v -0.0268862 1.26694 0.252785
v -0.0830444 1.25425 0.244793
v -0.0542931 1.21104 0.266303
v 0.00925899 1.2141 0.269477
v 0.0427898 1.16675 0.266021
v -0.0222461 1.16537 0.27287
v 0.0427898 1.13663 0.266021
v -0.0222461 1.13525 0.27287
v 0.0106569 1.09059 0.263995
v 0.124387 1.20985 0.218848
v 0.0947522 1.15562 0.242468
v 0.06228 1.07743 0.246167
v 0.0947522 1.1255 0.242468
v 0.108325 1.06968 0.214929
v 0.164694 1.17283 0.17
v 0.1441 1.11985 0.198767
v 0.145286 1.06793 0.172658
v 0.1441 1.14997 0.198767
v 0.124387 1.17973 0.218848
v 0.167789 1.05109 0.0706232
v 0.151618 1.03728 0.0186257
v 0.180928 1.09229 0.0317813
v 0.123068 1.03194 -0.0294609
v 0.15434 1.0809 -0.0277197
v 0.0843116 1.03547 -0.0699763
v 0.117485 1.08072 -0.0726682
v 0.140878 1.13114 -0.0644997
v 0.175281 1.17176 -0.0119203
v 0.140878 1.16127 -0.0644997
v 0.152709 1.21301 -0.0460926
v 0.175281 1.14164 -0.0119203
v 0.116973 1.26525 -0.0625963
v 0.112548 1.21321 -0.0881139
v 0.0721255 1.26177 -0.0962507
v 0.0916075 1.12235 -0.103913
v 0.0610446 1.07292 -0.104793
v 0.0322932 1.11612 -0.126303
v 0.0554622 1.20531 -0.120606
v 0.0209505 1.25196 -0.11725
v 0.0322932 1.14624 -0.126303
v 0.000246303 1.19191 -0.13287
v -0.0326567 1.23658 -0.123994
v 0.112548 1.18309 -0.0881139
v 0.0554622 1.17519 -0.120606
v 0.0916075 1.15247 -0.103913
v 0.0806518 1.31009 -0.0556219
v 0.0235656 1.30219 -0.0881139
v -0.0312896 1.2877 -0.100746
v -0.0283779 1.33052 -0.0644997
v 0.0278141 1.34623 -0.0389293
v -0.0241433 1.36178 -0.0180148
v -0.0729331 1.36736 0.0251924
v -0.0786202 1.34398 -0.0277197
v -0.122243 1.34126 0.0186257
v -0.0828687 1.29994 -0.0769042
v -0.0842798 1.24974 -0.106167
v -0.130325 1.25749 -0.0749287
v -0.132217 1.30559 -0.0332026
v -0.163086 1.30278 0.0159699
v -0.167286 1.25923 -0.0326582
v -0.19235 1.25485 0.0174269
v -0.101381 1.36102 0.075483
v -0.154977 1.32262 0.0700001
v -0.189789 1.27608 0.069377
v -0.173618 1.28989 0.121374
v -0.12839 1.33401 0.129501
v -0.145067 1.29523 0.169461
v -0.139485 1.24644 0.212668
v -0.17634 1.24626 0.16772
v -0.162878 1.19602 0.2045
v -0.202927 1.23488 0.108219
v -0.210493 1.21603 0.0537562
v -0.21345 1.17436 0.091322
v -0.162878 1.1659 0.2045
v -0.197281 1.15541 0.15192
v -0.174709 1.11416 0.186093
v -0.21345 1.14424 0.091322
v -0.200996 1.1029 0.127265
v -0.174078 1.06503 0.158848
v -0.197281 1.18553 0.15192
v -0.113607 1.20481 0.243913
v -0.134548 1.11396 0.228114
v -0.138973 1.06192 0.202596
v -0.0941253 1.0654 0.236251
v -0.0542931 1.18092 0.266303
v -0.0774621 1.12185 0.260606
v -0.0429503 1.0752 0.25725
v -0.134548 1.14408 0.228114
v -0.0774621 1.15198 0.260606
v -0.113607 1.17469 0.243913
v 0.00928974 1.03947 0.240746
v -0.0455654 1.02497 0.228114
v 0.00637807 0.996644 0.2045
v -0.102652 1.01708 0.195622
v -0.143173 1.01837 0.153968
v -0.102206 0.981622 0.142696
v -0.0498139 0.98093 0.178929
v 0.00214352 0.965383 0.158015
v -0.054297 0.957575 0.125891
v -0.00309155 0.948064 0.10483
v 0.0608689 1.02722 0.216904
v 0.0566204 0.983182 0.16772
v 0.0509333 0.959801 0.114808
v 0.100244 0.985904 0.121374
v 0.110217 1.02158 0.173203
v 0.141086 1.02439 0.12403
v 0.132978 1.00454 0.07
v 0.079381 0.966148 0.0645171
v 0.0246466 0.948542 0.0559797
v 0.0496712 0.964244 0.00819663
v 0.10639 0.993157 0.010499
v 0.0700773 0.993973 -0.0348818
v -0.128557 1.03096 -0.047557
v -0.114637 1.0692 -0.0862898
v -0.0789007 1.01696 -0.0697861
v -0.0928278 1.11347 -0.113125
v -0.0608936 1.05883 -0.105857
v -0.0240755 1.01297 -0.0813743
v -0.0647896 1.16042 -0.126021
v -0.0312588 1.11306 -0.129477
v -0.0647896 1.19054 -0.126021
v 0.000246303 1.16179 -0.13287
v 0.00488639 1.06022 -0.112785
v 0.031745 1.0193 -0.0814393
v -0.163427 1.07478 -0.0430826
v -0.186693 1.12422 -0.03
v -0.146387 1.11732 -0.0788478
v -0.186693 1.15434 -0.03
v -0.196586 1.20562 -0.00930498
v -0.1661 1.20731 -0.0587666
v -0.116752 1.17155 -0.102468
v -0.116752 1.20167 -0.102468
v -0.1661 1.17719 -0.0587666
v -0.146387 1.14744 -0.0788478
v -0.157844 1.02599 0.000124648
v -0.175953 1.03035 0.0531254
v -0.190088 1.07362 0.00855542
v -0.181505 1.0437 0.107411
v -0.204155 1.08414 0.0723382
v -0.209802 1.13349 0.0286366
v -0.196586 1.1755 -0.00930498
v -0.209802 1.16361 0.0286366
v -0.105604 0.990257 -0.0163791
v -0.0754498 0.961597 0.0213743
v -0.131604 0.988123 0.0355645
v -0.0403893 0.947167 0.0628293
v -0.0928334 0.962505 0.0826547
v -0.145671 0.99865 0.0993472
v -0.0517575 0.978987 -0.0351462
v 0.0140225 0.980378 -0.0420741
v -0.0129865 0.953369 0.011944
f 1 2 3
f 2 4 5
f 3 5 6
f 2 5 3
f 4 7 8
f 9 10 11
f 12 11 13
f 9 11 12
f 6 14 15
f 14 16 17
f 15 17 18
f 14 17 15
f 4 8 5
f 8 16 14
f 5 14 6
f 8 14 5
f 1 3 19
f 3 6 20
f 19 20 21
f 3 20 19
f 6 15 22
f 15 18 23
f 22 23 24
f 15 23 22
f 21 25 26
f 25 24 27
f 26 27 28
f 25 27 26
f 6 22 20
f 22 24 25
f 20 25 21
f 22 25 20
f 1 19 29
f 19 21 30
f 29 30 31
f 19 30 29
f 21 26 32
f 26 28 33
f 32 33 34
f 26 33 32
f 31 35 36
f 35 34 37
f 36 37 38
f 35 37 36
f 21 32 30
f 32 34 35
f 30 35 31
f 32 35 30
f 1 29 39
f 29 31 40
f 39 40 41
f 29 40 39
f 31 36 42
f 36 38 43
f 42 43 44
f 36 43 42
f 41 45 46
f 45 44 47
f 48 49 50
f 45 47 46
f 31 42 40
f 42 44 45
f 40 45 41
f 42 45 40
f 1 39 2
f 39 41 51
f 2 51 4
f 39 51 2
f 41 46 52
f 48 50 53
f 54 53 55
f 48 53 54
f 56 57 9
f 57 55 58
f 9 58 10
f 57 58 9
f 41 52 51
f 54 55 57
f 51 59 4
f 54 57 60
f 10 61 11
f 61 62 63
f 11 63 13
f 61 63 11
f 62 64 65
f 64 66 67
f 65 67 68
f 64 67 65
f 16 69 17
f 69 70 71
f 17 71 18
f 69 71 17
f 62 65 63
f 65 68 72
f 63 72 13
f 65 72 63
f 18 71 73
f 71 70 74
f 73 74 75
f 71 74 73
f 68 67 76
f 67 66 77
f 76 77 78
f 67 77 76
f 75 79 80
f 79 81 82
f 80 82 83
f 79 82 80
f 68 76 84
f 76 78 85
f 74 79 75
f 86 79 74
f 18 73 23
f 73 75 87
f 23 87 24
f 73 87 23
f 75 80 88
f 80 83 89
f 88 89 90
f 80 89 88
f 24 91 27
f 91 90 92
f 27 92 28
f 91 92 27
f 75 88 87
f 88 90 91
f 87 91 24
f 88 91 87
f 28 92 93
f 92 90 94
f 93 94 95
f 92 94 93
f 90 89 96
f 89 83 97
f 96 97 98
f 89 97 96
f 95 99 100
f 99 98 101
f 100 101 102
f 99 101 100
f 90 96 94
f 96 98 99
f 94 99 95
f 96 99 94
f 28 93 33
f 93 95 103
f 33 103 34
f 93 103 33
f 95 100 104
f 100 102 105
f 104 105 106
f 100 105 104
f 34 107 37
f 107 106 108
f 37 108 38
f 107 108 37
f 95 104 103
f 104 106 107
f 103 107 34
f 104 107 103
f 38 108 109
f 108 106 110
f 109 110 111
f 108 110 109
f 106 105 112
f 105 102 113
f 112 113 114
f 105 113 112
f 115 116 117
f 116 118 119
f 117 119 120
f 116 119 117
f 106 112 110
f 112 114 121
f 110 121 111
f 112 121 110
f 38 109 43
f 109 111 122
f 43 122 44
f 109 122 43
f 115 117 123
f 117 120 124
f 123 124 125
f 117 124 123
f 126 127 49
f 127 125 128
f 49 128 50
f 127 128 49
f 111 129 122
f 123 125 127
f 122 130 44
f 123 127 131
f 50 128 132
f 128 125 133
f 132 133 134
f 128 133 132
f 125 124 135
f 124 120 136
f 135 136 137
f 124 136 135
f 134 138 139
f 138 137 140
f 139 140 141
f 138 140 139
f 125 135 133
f 135 137 138
f 133 138 134
f 135 138 133
f 50 132 53
f 132 134 142
f 53 142 55
f 132 142 53
f 134 139 143
f 139 141 144
f 143 144 145
f 139 144 143
f 55 146 58
f 146 145 147
f 58 147 10
f 146 147 58
f 134 143 142
f 143 145 146
f 142 146 55
f 143 146 142
f 10 147 61
f 147 145 148
f 61 148 62
f 147 148 61
f 145 144 149
f 144 141 150
f 149 150 151
f 144 150 149
f 62 152 64
f 152 151 153
f 64 153 66
f 152 153 64
f 145 149 148
f 149 151 152
f 148 152 62
f 149 152 148
f 154 155 156
f 155 157 158
f 156 158 159
f 155 158 156
f 157 160 161
f 162 83 82
f 161 163 78
f 160 163 161
f 159 164 165
f 164 78 77
f 165 77 66
f 164 77 165
f 157 161 158
f 161 78 164
f 158 164 159
f 161 164 158
f 154 166 155
f 166 167 168
f 155 168 157
f 166 168 155
f 169 170 171
f 170 102 101
f 171 101 98
f 170 101 171
f 157 172 160
f 173 98 97
f 162 97 83
f 173 97 162
f 167 174 168
f 171 98 173
f 168 172 157
f 171 173 175
f 154 176 166
f 176 177 178
f 166 178 167
f 176 178 166
f 177 179 180
f 179 120 119
f 180 119 118
f 179 119 180
f 167 181 182
f 183 114 113
f 170 113 102
f 183 113 170
f 177 180 178
f 180 118 181
f 178 181 167
f 180 181 178
f 154 184 176
f 184 185 186
f 176 186 177
f 184 186 176
f 185 187 188
f 187 141 140
f 188 140 137
f 187 140 188
f 177 189 179
f 189 137 136
f 179 136 120
f 189 136 179
f 185 188 186
f 188 137 189
f 186 189 177
f 188 189 186
f 154 156 184
f 156 159 190
f 184 190 185
f 156 190 184
f 159 165 191
f 165 66 153
f 191 153 151
f 165 153 191
f 185 192 187
f 192 151 150
f 187 150 141
f 192 150 187
f 159 191 190
f 191 151 192
f 190 192 185
f 191 192 190
f 4 56 7
f 7 56 9
f 7 9 8
f 8 9 12
f 8 12 16
f 16 12 13
f 44 126 47
f 47 126 49
f 47 49 46
f 46 49 48
f 46 48 52
f 52 48 54
f 52 54 51
f 51 54 60
f 51 60 59
f 59 60 57
f 59 57 4
f 4 57 56
f 16 13 69
f 69 13 72
f 69 72 70
f 70 72 68
f 70 68 74
f 74 68 84
f 79 85 81
f 81 85 78
f 81 78 82
f 82 78 163
f 86 76 79
f 79 76 85
f 74 84 86
f 86 84 76
f 114 118 121
f 121 118 116
f 121 116 111
f 111 116 115
f 111 115 129
f 129 115 123
f 129 123 122
f 122 123 131
f 122 131 130
f 130 131 127
f 130 127 44
f 44 127 126
f 82 163 162
f 162 163 160
f 169 167 170
f 170 167 182
f 171 174 169
f 169 174 167
f 162 160 173
f 173 160 172
f 173 172 175
f 175 172 168
f 175 168 171
f 171 168 174
f 183 181 114
f 114 181 118
f 170 182 183
f 183 182 181
