v 0.106557 1.16349 0.467557
v 0.141427 1.11967 0.463083
v 0.135844 1.16846 0.419876
v 0.164694 1.07024 0.45
v 0.168089 1.12084 0.411445
v 0.153953 1.1641 0.366875
v 0.174586 1.01896 0.429305
v 0.187802 1.06096 0.391364
v 0.170351 0.969727 0.402573
v 0.188493 1.00855 0.366244
v 0.19145 1.05021 0.328678
v 0.153953 1.26669 0.0868747
v 0.182155 1.2129 0.0676619
v 0.159506 1.25334 0.0325893
v 0.19145 1.1528 0.0486781
v 0.178996 1.19414 0.0127353
v 0.152078 1.23201 -0.0188482
v 0.187802 1.16355 0.111364
v 0.168089 1.22343 0.131445
v 0.182155 1.11031 0.347662
v 0.0836044 1.2042 0.436379
v 0.135844 1.27105 0.139875
v 0.109604 1.30892 0.104436
v 0.0836044 1.30679 0.156379
v 0.05345 1.33545 0.118626
v 0.109604 1.20633 0.384436
v 0.123671 1.29839 0.0406528
v 0.121173 1.27867 -0.0139682
v 0.0802066 1.31542 -0.00269625
v 0.0708335 1.33454 0.0573454
v 0.0183895 1.34988 0.0771708
v 0.0322972 1.33947 0.0141096
v -0.0189082 1.34898 0.03517
v 0.0569008 1.17749 0.489786
v 0.05345 1.23286 0.398626
v 0.0297577 1.21547 0.455146
v 0.00207569 1.18148 0.501374
v -0.00901328 1.34367 0.128056
v -0.0466464 1.3485 0.0840204
v -0.071671 1.3328 0.131803
v -0.0360224 1.21408 0.462074
v -0.0537448 1.17515 0.50144
v -0.071671 1.23021 0.411804
v -0.0920772 1.20048 0.454882
v -0.106311 1.15899 0.489976
v -0.00901328 1.24108 0.408056
v 0.0926371 1.12525 0.50629
v 0.0388938 1.13562 0.525857
v 0.070828 1.08098 0.533126
v -0.0268862 1.13423 0.532785
v -0.0830444 1.12154 0.524793
v -0.0542931 1.07833 0.546303
v 0.00925899 1.08139 0.549478
v 0.0427898 1.03404 0.546021
v -0.0222461 1.03266 0.552871
v 0.0106569 0.988 0.543995
v 0.124387 1.07714 0.498848
v 0.0947522 1.02291 0.522468
v 0.06228 0.974838 0.526167
v 0.108325 0.967088 0.494929
v 0.1441 1.01726 0.478767
v 0.145286 0.96534 0.452658
v 0.167789 0.948499 0.350623
v 0.167789 1.05109 0.0706232
v 0.151618 1.03728 0.0186257
v 0.180928 1.09229 0.0317813
v 0.188493 1.11114 0.0862439
v 0.180928 0.989699 0.311781
v 0.123068 1.03194 -0.0294609
v 0.15434 1.0809 -0.0277197
v 0.0843116 1.03547 -0.0699763
v 0.117485 1.08072 -0.0726682
v 0.140878 1.13114 -0.0644997
v 0.175281 1.14164 -0.0119203
v 0.152709 1.18289 -0.0460926
v 0.116973 1.23513 -0.0625963
v 0.112548 1.18309 -0.0881139
v 0.0721255 1.23165 -0.0962507
v 0.0916075 1.12235 -0.103913
v 0.0610446 1.07292 -0.104793
v 0.0322932 1.11612 -0.126303
v 0.0554622 1.17519 -0.120606
v 0.0209505 1.22184 -0.11725
v 0.000246303 1.16179 -0.13287
v -0.0326567 1.20645 -0.123994
v 0.0806518 1.27997 -0.0556219
v 0.0235656 1.27207 -0.0881139
v -0.0312896 1.25758 -0.100746
v -0.0283779 1.3004 -0.0644997
v 0.0278141 1.31611 -0.0389293
v -0.0241433 1.33166 -0.0180148
v -0.0729331 1.33724 0.0251924
v -0.0786202 1.31386 -0.0277197
v -0.122243 1.31114 0.0186257
v -0.0828687 1.26982 -0.0769042
v -0.0842798 1.21962 -0.106167
v -0.130325 1.22736 -0.0749287
v -0.132217 1.27547 -0.0332026
v -0.163086 1.27266 0.0159699
v -0.167286 1.22911 -0.0326582
v -0.19235 1.22473 0.0174269
v -0.101381 1.3309 0.075483
v -0.154977 1.2925 0.0700001
v -0.189789 1.24595 0.069377
v -0.173618 1.25977 0.121374
v -0.12839 1.2013 0.409501
v -0.173618 1.15718 0.401374
v -0.145067 1.16252 0.449461
v -0.12839 1.30389 0.129501
v -0.139485 1.11373 0.492668
v -0.17634 1.11355 0.44772
v -0.162878 1.06331 0.4845
v -0.189789 1.14336 0.349377
v -0.202927 1.10216 0.388219
v -0.210493 1.18591 0.0537562
v -0.210493 1.08332 0.333756
v -0.21345 1.04165 0.371322
v -0.202927 1.20475 0.108219
v -0.197281 1.05282 0.43192
v -0.174709 1.01157 0.466093
v -0.200996 1.00031 0.407265
v -0.174078 0.962442 0.438848
v -0.113607 1.0721 0.523914
v -0.134548 1.01137 0.508114
v -0.138973 0.959328 0.482596
v -0.0941253 0.962806 0.516251
v -0.0774621 1.01926 0.540606
v -0.0429503 0.972612 0.53725
v 0.00928974 0.936876 0.520746
v -0.0455654 0.922383 0.508114
v 0.00637807 0.894054 0.4845
v -0.102652 0.914485 0.475622
v -0.143173 0.915783 0.433968
v -0.102206 0.879032 0.422696
v -0.0498139 0.87834 0.45893
v 0.00214352 0.862793 0.438015
v -0.054297 0.854985 0.405891
v -0.00309155 0.845474 0.38483
v 0.0608689 0.924634 0.496904
v 0.0566204 0.880592 0.44772
v 0.0509333 0.857211 0.394808
v 0.100244 0.883314 0.401374
v 0.110217 0.918988 0.453203
v 0.141086 0.921796 0.40403
v 0.132978 0.901954 0.35
v 0.151618 0.934688 0.298626
v 0.079381 0.863558 0.344517
v 0.0246466 0.845952 0.33598
v 0.0496712 0.861654 0.288197
v 0.10639 0.993157 0.010499
v 0.0496712 0.964244 0.00819663
v 0.0700773 0.993973 -0.0348818
v 0.10639 0.890567 0.290499
v -0.128557 1.03096 -0.047557
v -0.114637 1.0692 -0.0862898
v -0.0789007 1.01696 -0.0697861
v -0.0928278 1.11347 -0.113125
v -0.0608936 1.05883 -0.105857
v -0.0240755 1.01297 -0.0813743
v -0.0647896 1.16042 -0.126021
v -0.0312588 1.11306 -0.129477
v 0.00488639 1.06022 -0.112785
v 0.031745 1.0193 -0.0814393
v -0.163427 1.07478 -0.0430826
v -0.186693 1.12422 -0.03
v -0.146387 1.11732 -0.0788478
v -0.196586 1.1755 -0.00930498
v -0.1661 1.17719 -0.0587666
v -0.116752 1.17155 -0.102468
v -0.157844 1.02599 0.000124648
v -0.175953 1.03035 0.0531254
v -0.190088 1.07362 0.00855542
v -0.175953 0.927759 0.333126
v -0.181505 0.941111 0.387411
v -0.204155 0.981554 0.352338
v -0.209802 1.13349 0.0286366
v -0.21345 1.14424 0.091322
v -0.190088 0.971026 0.288556
v -0.209802 1.0309 0.308637
v -0.204155 1.08414 0.0723382
v -0.105604 0.990257 -0.0163791
v -0.105604 0.887667 0.263621
v -0.0754498 0.859007 0.301374
v -0.131604 0.885533 0.315565
v -0.157844 0.923403 0.280125
v -0.131604 0.988123 0.0355645
v -0.0403893 0.844577 0.342829
v -0.0928334 0.859915 0.362655
v -0.145671 0.89606 0.379347
v -0.0517575 0.978987 -0.0351462
v -0.0754498 0.961597 0.0213743
v 0.0140225 0.980378 -0.0420741
v -0.0129865 0.850779 0.291944
v -0.0129865 0.953369 0.011944
f 1 2 3
f 2 4 5
f 3 5 6
f 2 5 3
f 4 7 8
f 7 9 10
f 8 10 11
f 7 10 8
f 12 13 14
f 13 15 16
f 14 16 17
f 13 16 14
f 4 8 5
f 18 15 13
f 19 13 12
f 8 20 5
f 1 3 21
f 22 12 23
f 24 23 25
f 3 26 21
f 12 14 27
f 14 17 28
f 27 28 29
f 14 28 27
f 25 30 31
f 30 29 32
f 31 32 33
f 30 32 31
f 12 27 23
f 27 29 30
f 23 30 25
f 27 30 23
f 1 21 34
f 21 35 36
f 34 36 37
f 21 36 34
f 25 31 38
f 31 33 39
f 38 39 40
f 31 39 38
f 37 41 42
f 41 43 44
f 42 44 45
f 41 44 42
f 35 46 36
f 46 43 41
f 36 41 37
f 46 41 36
f 1 34 47
f 34 37 48
f 47 48 49
f 34 48 47
f 37 42 50
f 42 45 51
f 50 51 52
f 42 51 50
f 49 53 54
f 53 52 55
f 54 55 56
f 53 55 54
f 37 50 48
f 50 52 53
f 48 53 49
f 50 53 48
f 1 47 2
f 47 49 57
f 2 57 4
f 47 57 2
f 49 54 58
f 54 56 59
f 58 59 60
f 54 59 58
f 4 61 7
f 61 60 62
f 7 62 9
f 61 62 7
f 49 58 57
f 58 60 61
f 57 61 4
f 58 61 57
f 9 63 10
f 64 65 66
f 67 66 15
f 63 68 10
f 65 69 70
f 69 71 72
f 70 72 73
f 69 72 70
f 15 74 16
f 74 73 75
f 16 75 17
f 74 75 16
f 65 70 66
f 70 73 74
f 66 74 15
f 70 74 66
f 17 75 76
f 75 73 77
f 76 77 78
f 75 77 76
f 73 72 79
f 72 71 80
f 79 80 81
f 72 80 79
f 78 82 83
f 82 81 84
f 83 84 85
f 82 84 83
f 73 79 77
f 79 81 82
f 77 82 78
f 79 82 77
f 17 76 28
f 76 78 86
f 28 86 29
f 76 86 28
f 78 83 87
f 83 85 88
f 87 88 89
f 83 88 87
f 29 90 32
f 90 89 91
f 32 91 33
f 90 91 32
f 78 87 86
f 87 89 90
f 86 90 29
f 87 90 86
f 33 91 92
f 91 89 93
f 92 93 94
f 91 93 92
f 89 88 95
f 88 85 96
f 95 96 97
f 88 96 95
f 94 98 99
f 98 97 100
f 99 100 101
f 98 100 99
f 89 95 93
f 95 97 98
f 93 98 94
f 95 98 93
f 33 92 39
f 92 94 102
f 39 102 40
f 92 102 39
f 94 99 103
f 99 101 104
f 103 104 105
f 99 104 103
f 43 106 44
f 106 107 108
f 44 108 45
f 106 108 44
f 94 103 102
f 103 105 109
f 102 109 40
f 103 109 102
f 45 108 110
f 108 107 111
f 110 111 112
f 108 111 110
f 107 113 114
f 104 101 115
f 114 116 117
f 104 115 118
f 112 119 120
f 119 117 121
f 120 121 122
f 119 121 120
f 107 114 111
f 114 117 119
f 111 119 112
f 114 119 111
f 45 110 51
f 110 112 123
f 51 123 52
f 110 123 51
f 112 120 124
f 120 122 125
f 124 125 126
f 120 125 124
f 52 127 55
f 127 126 128
f 55 128 56
f 127 128 55
f 112 124 123
f 124 126 127
f 123 127 52
f 124 127 123
f 56 128 129
f 128 126 130
f 129 130 131
f 128 130 129
f 126 125 132
f 125 122 133
f 132 133 134
f 125 133 132
f 131 135 136
f 135 134 137
f 136 137 138
f 135 137 136
f 126 132 130
f 132 134 135
f 130 135 131
f 132 135 130
f 56 129 59
f 129 131 139
f 59 139 60
f 129 139 59
f 131 136 140
f 136 138 141
f 140 141 142
f 136 141 140
f 60 143 62
f 143 142 144
f 62 144 9
f 143 144 62
f 131 140 139
f 140 142 143
f 139 143 60
f 140 143 139
f 9 144 63
f 144 142 145
f 63 145 146
f 144 145 63
f 142 141 147
f 141 138 148
f 147 148 149
f 141 148 147
f 65 150 69
f 150 151 152
f 69 152 71
f 150 152 69
f 142 147 145
f 147 149 153
f 145 153 146
f 147 153 145
f 154 155 156
f 155 157 158
f 156 158 159
f 155 158 156
f 157 160 161
f 160 85 84
f 161 84 81
f 160 84 161
f 159 162 163
f 162 81 80
f 163 80 71
f 162 80 163
f 157 161 158
f 161 81 162
f 158 162 159
f 161 162 158
f 154 164 155
f 164 165 166
f 155 166 157
f 164 166 155
f 165 167 168
f 167 101 100
f 168 100 97
f 167 100 168
f 157 169 160
f 169 97 96
f 160 96 85
f 169 96 160
f 165 168 166
f 168 97 169
f 166 169 157
f 168 169 166
f 154 170 164
f 170 171 172
f 164 172 165
f 170 172 164
f 173 174 175
f 174 122 121
f 175 121 117
f 174 121 175
f 165 176 167
f 176 177 115
f 167 115 101
f 176 115 167
f 173 175 178
f 175 117 179
f 172 176 165
f 180 176 172
f 154 181 170
f 182 183 184
f 185 184 173
f 181 186 170
f 183 187 188
f 187 138 137
f 188 137 134
f 187 137 188
f 173 189 174
f 189 134 133
f 174 133 122
f 189 133 174
f 183 188 184
f 188 134 189
f 184 189 173
f 188 189 184
f 154 156 181
f 156 159 190
f 181 190 191
f 156 190 181
f 159 163 192
f 163 71 152
f 192 152 151
f 163 152 192
f 183 193 187
f 193 149 148
f 187 148 138
f 193 148 187
f 159 192 190
f 192 151 194
f 190 194 191
f 192 194 190
f 18 8 15
f 15 8 11
f 13 20 18
f 18 20 8
f 19 5 13
f 13 5 20
f 12 6 19
f 19 6 5
f 22 3 12
f 12 3 6
f 23 26 22
f 22 26 3
f 24 21 23
f 23 21 26
f 25 35 24
f 24 35 21
f 38 46 25
f 25 46 35
f 40 43 38
f 38 43 46
f 64 63 65
f 65 63 146
f 66 68 64
f 64 68 63
f 67 10 66
f 66 10 68
f 15 11 67
f 67 11 10
f 104 113 105
f 105 113 107
f 105 107 109
f 109 107 106
f 109 106 40
f 40 106 43
f 115 116 118
f 118 116 114
f 118 114 104
f 104 114 113
f 65 146 150
f 150 146 153
f 150 153 151
f 151 153 149
f 170 185 171
f 171 185 173
f 171 173 172
f 172 173 178
f 176 179 177
f 177 179 117
f 177 117 115
f 115 117 116
f 180 175 176
f 176 175 179
f 172 178 180
f 180 178 175
f 181 182 186
f 186 182 184
f 186 184 170
f 170 184 185
f 191 183 181
f 181 183 182
f 151 149 194
f 194 149 193
f 194 193 191
f 191 193 183
