v 0.826557 1.10752 0.427557
v 0.861427 1.0637 0.423083
v 0.855844 1.11249 0.379875
v 0.884694 1.01427 0.41
v 0.888089 1.06487 0.371445
v 0.873953 1.10814 0.326875
v 0.894586 0.962988 0.389305
v 0.907802 1.00499 0.351364
v 0.890351 0.913759 0.362573
v 0.908493 0.952579 0.326244
v 0.91145 0.994245 0.288678
v 0.873953 1.15652 0.206875
v 0.902156 1.10272 0.187662
v 0.879506 1.14317 0.152589
v 0.91145 1.04263 0.168678
v 0.898996 1.08397 0.132735
v 0.872078 1.12184 0.101152
v 0.907802 1.05338 0.231364
v 0.888089 1.11325 0.251445
v 0.902156 1.05434 0.307662
v 0.803604 1.14823 0.396379
v 0.855844 1.16087 0.259875
v 0.829605 1.19874 0.224436
v 0.803604 1.19661 0.276379
v 0.77345 1.22527 0.238626
v 0.829605 1.15036 0.344436
v 0.843671 1.18822 0.160653
v 0.841173 1.16849 0.106032
v 0.800207 1.20525 0.117304
v 0.790834 1.22436 0.177345
v 0.73839 1.2397 0.197171
v 0.752297 1.22929 0.13411
v 0.701092 1.2388 0.15517
v 0.776901 1.12152 0.449786
v 0.77345 1.17689 0.358626
v 0.749758 1.1595 0.415146
v 0.722076 1.12551 0.461374
v 0.710987 1.2335 0.248056
v 0.673354 1.23833 0.20402
v 0.648329 1.22262 0.251803
v 0.683978 1.15811 0.422074
v 0.666255 1.11918 0.461439
v 0.648329 1.17424 0.371803
v 0.627923 1.14451 0.414882
v 0.613689 1.10302 0.449976
v 0.749758 1.20788 0.295146
v 0.710987 1.18512 0.368056
v 0.812637 1.06928 0.46629
v 0.758894 1.07965 0.485857
v 0.790828 1.02501 0.493125
v 0.693114 1.07826 0.492785
v 0.636956 1.06557 0.484793
v 0.665707 1.02236 0.506303
v 0.729259 1.02542 0.509477
v 0.76279 0.978068 0.506021
v 0.697754 0.976692 0.51287
v 0.730657 0.932031 0.503995
v 0.844387 1.02117 0.458848
v 0.814752 0.966938 0.482468
v 0.78228 0.91887 0.486167
v 0.828325 0.91112 0.454929
v 0.8641 0.961291 0.438767
v 0.865286 0.909372 0.412658
v 0.887789 0.892531 0.310623
v 0.871618 0.87872 0.258626
v 0.900928 0.93373 0.271781
v 0.908493 1.00096 0.206244
v 0.900928 0.982113 0.151781
v 0.871618 0.927102 0.138626
v 0.843068 0.921759 0.0905391
v 0.87434 0.970726 0.0922803
v 0.804312 0.925291 0.0500237
v 0.837485 0.970549 0.0473319
v 0.860878 1.02097 0.0555003
v 0.895281 1.03146 0.10808
v 0.872709 1.07271 0.0739074
v 0.836973 1.12495 0.0574037
v 0.832549 1.07291 0.0318861
v 0.792126 1.12147 0.0237493
v 0.811608 1.01218 0.0160867
v 0.781045 0.962741 0.0152075
v 0.752293 1.00595 -0.00630306
v 0.775462 1.06501 -0.000605822
v 0.740951 1.11167 0.0027504
v 0.720246 1.05162 -0.0128703
v 0.687343 1.09628 -0.00399444
v 0.800652 1.16979 0.0643781
v 0.743566 1.16189 0.0318861
v 0.688711 1.1474 0.0192541
v 0.691622 1.19022 0.0555003
v 0.747814 1.20594 0.0810707
v 0.695857 1.22148 0.101985
v 0.647067 1.22707 0.145192
v 0.64138 1.20369 0.0922803
v 0.597757 1.20096 0.138626
v 0.637131 1.15964 0.0430958
v 0.63572 1.10944 0.0138332
v 0.589675 1.11719 0.0450713
v 0.587783 1.16529 0.0867974
v 0.556915 1.16248 0.13597
v 0.552714 1.11894 0.0873418
v 0.52765 1.11455 0.137427
v 0.618619 1.22072 0.195483
v 0.565023 1.18232 0.19
v 0.530211 1.13578 0.189377
v 0.546382 1.14959 0.241374
v 0.59161 1.14533 0.369501
v 0.546382 1.10121 0.361374
v 0.574933 1.10655 0.409461
v 0.59161 1.19371 0.249501
v 0.580515 1.05776 0.452668
v 0.54366 1.05758 0.40772
v 0.557123 1.00734 0.4445
v 0.517073 1.09458 0.228219
v 0.509507 1.07573 0.173756
v 0.517073 1.0462 0.348219
v 0.509507 1.02735 0.293756
v 0.50655 0.985681 0.331322
v 0.522719 0.996848 0.39192
v 0.545291 0.955599 0.426093
v 0.519005 0.944341 0.367265
v 0.545922 0.906474 0.398848
v 0.606393 1.01613 0.483913
v 0.585452 0.955398 0.468114
v 0.581028 0.903359 0.442596
v 0.625875 0.906838 0.476251
v 0.642538 0.963295 0.500606
v 0.67705 0.916644 0.49725
v 0.72929 0.880907 0.480746
v 0.674435 0.866415 0.468114
v 0.726378 0.838085 0.4445
v 0.617348 0.858517 0.435622
v 0.576827 0.859815 0.393968
v 0.617794 0.823063 0.382696
v 0.670186 0.822372 0.418929
v 0.722144 0.806825 0.398015
v 0.665703 0.799016 0.365891
v 0.716909 0.789505 0.34483
v 0.780869 0.868666 0.456904
v 0.776621 0.824623 0.40772
v 0.770933 0.801242 0.354808
v 0.820244 0.827345 0.361374
v 0.830217 0.86302 0.413203
v 0.861086 0.865827 0.36403
v 0.852978 0.845986 0.31
v 0.799381 0.807589 0.304517
v 0.744647 0.789984 0.29598
v 0.769671 0.805685 0.248197
v 0.82639 0.882981 0.130499
v 0.769671 0.854068 0.128197
v 0.790077 0.883797 0.0851182
v 0.82639 0.834598 0.250499
v 0.591443 0.920789 0.072443
v 0.605363 0.959025 0.0337102
v 0.641099 0.906785 0.0502139
v 0.627172 1.0033 0.00687465
v 0.659106 0.948658 0.0141431
v 0.695925 0.902796 0.0386257
v 0.65521 1.05024 -0.00602075
v 0.688741 1.00289 -0.00947735
v 0.724886 0.950049 0.00721519
v 0.751745 0.909125 0.0385607
v 0.556573 0.964607 0.0769174
v 0.533307 1.01404 0.09
v 0.573613 1.00714 0.0411522
v 0.523415 1.06532 0.110695
v 0.5539 1.06702 0.0612334
v 0.603248 1.06137 0.0175318
v 0.562156 0.915818 0.120125
v 0.544047 0.920174 0.173125
v 0.529912 0.96344 0.128555
v 0.544047 0.871791 0.293125
v 0.538495 0.885143 0.347411
v 0.515845 0.925585 0.312338
v 0.510198 1.02332 0.148637
v 0.50655 1.03406 0.211322
v 0.529912 0.915058 0.248555
v 0.510198 0.974933 0.268637
v 0.515845 0.973968 0.192338
v 0.614396 0.880081 0.103621
v 0.614396 0.831699 0.223621
v 0.64455 0.803039 0.261374
v 0.588396 0.829564 0.275564
v 0.562156 0.867435 0.240125
v 0.588396 0.877947 0.155564
v 0.679611 0.788608 0.302829
v 0.627167 0.803947 0.322655
v 0.574329 0.840092 0.339347
v 0.668243 0.868811 0.0848538
v 0.64455 0.851421 0.141374
v 0.734023 0.870202 0.0779259
v 0.707014 0.794811 0.251944
v 0.707014 0.843193 0.131944
v 0.668243 0.820428 0.204854
f 1 2 3
f 2 4 5
f 3 5 6
f 2 5 3
f 4 7 8
f 7 9 10
f 8 10 11
f 7 10 8
f 12 13 14
f 13 15 16
f 14 16 17
f 13 16 14
f 4 8 5
f 18 15 13
f 19 13 12
f 8 20 5
f 1 3 21
f 22 12 23
f 24 23 25
f 3 26 21
f 12 14 27
f 14 17 28
f 27 28 29
f 14 28 27
f 25 30 31
f 30 29 32
f 31 32 33
f 30 32 31
f 12 27 23
f 27 29 30
f 23 30 25
f 27 30 23
f 1 21 34
f 21 35 36
f 34 36 37
f 21 36 34
f 25 31 38
f 31 33 39
f 38 39 40
f 31 39 38
f 37 41 42
f 41 43 44
f 42 44 45
f 41 44 42
f 25 38 46
f 47 43 41
f 36 41 37
f 47 41 36
f 1 34 48
f 34 37 49
f 48 49 50
f 34 49 48
f 37 42 51
f 42 45 52
f 51 52 53
f 42 52 51
f 50 54 55
f 54 53 56
f 55 56 57
f 54 56 55
f 37 51 49
f 51 53 54
f 49 54 50
f 51 54 49
f 1 48 2
f 48 50 58
f 2 58 4
f 48 58 2
f 50 55 59
f 55 57 60
f 59 60 61
f 55 60 59
f 4 62 7
f 62 61 63
f 7 63 9
f 62 63 7
f 50 59 58
f 59 61 62
f 58 62 4
f 59 62 58
f 9 64 10
f 64 65 66
f 67 68 15
f 64 66 10
f 69 70 71
f 70 72 73
f 71 73 74
f 70 73 71
f 15 75 16
f 75 74 76
f 16 76 17
f 75 76 16
f 69 71 68
f 71 74 75
f 68 75 15
f 71 75 68
f 17 76 77
f 76 74 78
f 77 78 79
f 76 78 77
f 74 73 80
f 73 72 81
f 80 81 82
f 73 81 80
f 79 83 84
f 83 82 85
f 84 85 86
f 83 85 84
f 74 80 78
f 80 82 83
f 78 83 79
f 80 83 78
f 17 77 28
f 77 79 87
f 28 87 29
f 77 87 28
f 79 84 88
f 84 86 89
f 88 89 90
f 84 89 88
f 29 91 32
f 91 90 92
f 32 92 33
f 91 92 32
f 79 88 87
f 88 90 91
f 87 91 29
f 88 91 87
f 33 92 93
f 92 90 94
f 93 94 95
f 92 94 93
f 90 89 96
f 89 86 97
f 96 97 98
f 89 97 96
f 95 99 100
f 99 98 101
f 100 101 102
f 99 101 100
f 90 96 94
f 96 98 99
f 94 99 95
f 96 99 94
f 33 93 39
f 93 95 103
f 39 103 40
f 93 103 39
f 95 100 104
f 100 102 105
f 104 105 106
f 100 105 104
f 43 107 44
f 107 108 109
f 44 109 45
f 107 109 44
f 95 104 103
f 104 106 110
f 103 110 40
f 104 110 103
f 45 109 111
f 109 108 112
f 111 112 113
f 109 112 111
f 106 105 114
f 105 102 115
f 116 117 118
f 105 115 114
f 113 119 120
f 119 118 121
f 120 121 122
f 119 121 120
f 108 116 112
f 116 118 119
f 112 119 113
f 116 119 112
f 45 111 52
f 111 113 123
f 52 123 53
f 111 123 52
f 113 120 124
f 120 122 125
f 124 125 126
f 120 125 124
f 53 127 56
f 127 126 128
f 56 128 57
f 127 128 56
f 113 124 123
f 124 126 127
f 123 127 53
f 124 127 123
f 57 128 129
f 128 126 130
f 129 130 131
f 128 130 129
f 126 125 132
f 125 122 133
f 132 133 134
f 125 133 132
f 131 135 136
f 135 134 137
f 136 137 138
f 135 137 136
f 126 132 130
f 132 134 135
f 130 135 131
f 132 135 130
f 57 129 60
f 129 131 139
f 60 139 61
f 129 139 60
f 131 136 140
f 136 138 141
f 140 141 142
f 136 141 140
f 61 143 63
f 143 142 144
f 63 144 9
f 143 144 63
f 131 140 139
f 140 142 143
f 139 143 61
f 140 143 139
f 9 144 64
f 144 142 145
f 64 145 65
f 144 145 64
f 142 141 146
f 141 138 147
f 146 147 148
f 141 147 146
f 69 149 70
f 149 150 151
f 70 151 72
f 149 151 70
f 142 146 145
f 146 148 152
f 145 152 65
f 146 152 145
f 153 154 155
f 154 156 157
f 155 157 158
f 154 157 155
f 156 159 160
f 159 86 85
f 160 85 82
f 159 85 160
f 158 161 162
f 161 82 81
f 162 81 72
f 161 81 162
f 156 160 157
f 160 82 161
f 157 161 158
f 160 161 157
f 153 163 154
f 163 164 165
f 154 165 156
f 163 165 154
f 164 166 167
f 166 102 101
f 167 101 98
f 166 101 167
f 156 168 159
f 168 98 97
f 159 97 86
f 168 97 159
f 164 167 165
f 167 98 168
f 165 168 156
f 167 168 165
f 153 169 163
f 169 170 171
f 163 171 164
f 169 171 163
f 172 173 174
f 173 122 121
f 174 121 118
f 173 121 174
f 164 175 166
f 175 176 115
f 166 115 102
f 175 115 166
f 172 174 177
f 174 118 178
f 171 175 164
f 179 175 171
f 153 180 169
f 181 182 183
f 184 183 172
f 180 185 169
f 182 186 187
f 186 138 137
f 187 137 134
f 186 137 187
f 172 188 173
f 188 134 133
f 173 133 122
f 188 133 173
f 182 187 183
f 187 134 188
f 183 188 172
f 187 188 183
f 153 155 180
f 155 158 189
f 180 189 190
f 155 189 180
f 158 162 191
f 162 72 151
f 191 151 150
f 162 151 191
f 182 192 186
f 192 148 147
f 186 147 138
f 192 147 186
f 158 191 189
f 191 150 193
f 194 192 182
f 191 193 189
f 18 8 15
f 15 8 11
f 13 20 18
f 18 20 8
f 19 5 13
f 13 5 20
f 12 6 19
f 19 6 5
f 22 3 12
f 12 3 6
f 23 26 22
f 22 26 3
f 24 21 23
f 23 21 26
f 25 35 24
f 24 35 21
f 40 43 38
f 38 43 47
f 38 47 46
f 46 47 36
f 46 36 25
f 25 36 35
f 67 10 68
f 68 10 66
f 15 11 67
f 67 11 10
f 68 66 69
f 69 66 65
f 106 108 110
f 110 108 107
f 110 107 40
f 40 107 43
f 114 116 106
f 106 116 108
f 115 117 114
f 114 117 116
f 69 65 149
f 149 65 152
f 149 152 150
f 150 152 148
f 169 184 170
f 170 184 172
f 170 172 171
f 171 172 177
f 175 178 176
f 176 178 118
f 176 118 115
f 115 118 117
f 179 174 175
f 175 174 178
f 171 177 179
f 179 177 174
f 180 181 185
f 185 181 183
f 185 183 169
f 169 183 184
f 189 194 190
f 190 194 182
f 190 182 180
f 180 182 181
f 150 148 193
f 193 148 192
f 193 192 189
f 189 192 194
