v 0.106557 1.17036 0.547557
v 0.141427 1.12654 0.543083
v 0.135844 1.17533 0.499875
v 0.164694 1.07711 0.53
v 0.168089 1.1277 0.491445
v 0.153953 1.17097 0.446875
v 0.174586 1.02582 0.509305
v 0.187802 1.06783 0.471364
v 0.170351 0.976595 0.482573
v 0.188493 1.01542 0.446244
v 0.19145 1.05708 0.408678
v 0.182155 1.11718 0.427662
v 0.159506 1.15762 0.392589
v 0.182155 1.11031 0.347662
v 0.19145 1.05021 0.328678
v 0.178996 1.09155 0.292735
v 0.159506 1.15075 0.312589
v 0.152078 1.12942 0.261152
v 0.0836044 1.21106 0.516379
v 0.109604 1.2132 0.464436
v 0.05345 1.23972 0.478626
v 0.153953 1.1641 0.366875
v 0.123671 1.1958 0.320653
v 0.121173 1.17608 0.266032
v 0.0802066 1.21283 0.277304
v 0.0708335 1.23882 0.417345
v 0.0183895 1.25415 0.437171
v 0.0708335 1.23195 0.337345
v 0.0322972 1.23688 0.29411
v 0.0183895 1.24729 0.357171
v -0.0189082 1.24639 0.31517
v 0.123671 1.20267 0.400653
v 0.0569008 1.18436 0.569786
v 0.0297577 1.22233 0.535146
v 0.00207569 1.18835 0.581374
v -0.00901328 1.24795 0.488056
v -0.0189082 1.25326 0.39517
v -0.0466464 1.25278 0.44402
v -0.071671 1.23708 0.491803
v -0.0360224 1.22094 0.542074
v -0.0537448 1.18202 0.581439
v -0.0920772 1.20735 0.534882
v -0.106311 1.16585 0.569976
v 0.0926371 1.13212 0.58629
v 0.0388938 1.14249 0.605857
v 0.070828 1.08785 0.613125
v -0.0268862 1.1411 0.612785
v -0.0830444 1.1284 0.604793
v -0.0542931 1.0852 0.626303
v 0.00925899 1.08826 0.629478
v 0.0427898 1.0409 0.626021
v -0.0222461 1.03953 0.63287
v 0.0106569 0.994868 0.623995
v 0.124387 1.084 0.578848
v 0.0947522 1.02977 0.602468
v 0.06228 0.981706 0.606167
v 0.108325 0.973956 0.574929
v 0.1441 1.02413 0.558767
v 0.145286 0.972208 0.532658
v 0.167789 0.955367 0.430623
v 0.167789 0.948499 0.350623
v 0.151618 0.934688 0.298626
v 0.180928 0.989699 0.311781
v 0.188493 1.00855 0.366244
v 0.123068 0.929345 0.250539
v 0.15434 0.978311 0.25228
v 0.0843116 0.932877 0.210024
v 0.117485 0.978135 0.207332
v 0.140878 1.02855 0.2155
v 0.175281 1.03905 0.26808
v 0.152709 1.0803 0.233907
v 0.116973 1.13254 0.217404
v 0.112548 1.0805 0.191886
v 0.0721255 1.12906 0.183749
v 0.0916075 1.01976 0.176087
v 0.0610446 0.970327 0.175208
v 0.0322932 1.01353 0.153697
v 0.0554622 1.0726 0.159394
v 0.0209505 1.11925 0.16275
v 0.000246303 1.0592 0.14713
v -0.0326567 1.10386 0.156006
v 0.0806518 1.17738 0.224378
v 0.0235656 1.16948 0.191886
v -0.0312896 1.15499 0.179254
v -0.0283779 1.19781 0.2155
v 0.0278141 1.21352 0.241071
v -0.0241433 1.22907 0.261985
v -0.0729331 1.23465 0.305193
v -0.0786202 1.21127 0.25228
v -0.122243 1.20855 0.298626
v -0.0828687 1.16723 0.203096
v -0.0842798 1.11703 0.173833
v -0.130325 1.12477 0.205071
v -0.132217 1.17288 0.246798
v -0.163086 1.17007 0.29597
v -0.167286 1.12652 0.247342
v -0.19235 1.12214 0.297427
v -0.0466464 1.24591 0.36402
v -0.101381 1.22831 0.355483
v -0.101381 1.23517 0.435483
v -0.0729331 1.24152 0.385192
v -0.154977 1.18991 0.35
v -0.189789 1.14336 0.349377
v -0.154977 1.19678 0.43
v -0.189789 1.15023 0.429377
v -0.173618 1.16404 0.481374
v -0.12839 1.20816 0.489501
v -0.145067 1.16939 0.529461
v -0.139485 1.1206 0.572668
v -0.17634 1.12042 0.52772
v -0.162878 1.07018 0.5645
v -0.202927 1.10903 0.468219
v -0.210493 1.08332 0.333756
v -0.210493 1.09018 0.413756
v -0.21345 1.04852 0.451322
v -0.197281 1.05968 0.51192
v -0.174709 1.01844 0.546093
v -0.200996 1.00718 0.487265
v -0.174078 0.96931 0.518848
v -0.113607 1.07897 0.603913
v -0.134548 1.01823 0.588114
v -0.138973 0.966196 0.562596
v -0.0941253 0.969674 0.596251
v -0.0774621 1.02613 0.620606
v -0.0429503 0.97948 0.61725
v 0.00928974 0.943744 0.600746
v -0.0455654 0.929251 0.588114
v 0.00637807 0.900922 0.5645
v -0.102652 0.921353 0.555622
v -0.143173 0.922651 0.513968
v -0.102206 0.885899 0.502696
v -0.0498139 0.885208 0.538929
v 0.00214352 0.869661 0.518015
v -0.054297 0.861853 0.485891
v -0.00309155 0.852342 0.46483
v 0.0608689 0.931502 0.576904
v 0.0566204 0.887459 0.52772
v 0.0509333 0.864079 0.474808
v 0.100244 0.890182 0.481374
v 0.110217 0.925856 0.533203
v 0.141086 0.928664 0.48403
v 0.132978 0.908822 0.43
v 0.132978 0.901954 0.35
v 0.079381 0.870426 0.424517
v 0.0246466 0.85282 0.41598
v 0.079381 0.863558 0.344517
v 0.0246466 0.845952 0.33598
v 0.0496712 0.861654 0.288197
v 0.0509333 0.857211 0.394808
v 0.10639 0.890567 0.290499
v 0.0700773 0.891383 0.245118
v -0.128557 0.928375 0.232443
v -0.114637 0.966611 0.19371
v -0.0789007 0.914371 0.210214
v -0.0928278 1.01088 0.166875
v -0.0608936 0.956244 0.174143
v -0.0240755 0.910381 0.198626
v -0.0647896 1.05783 0.153979
v -0.0312588 1.01047 0.150523
v 0.00488639 0.957635 0.167215
v 0.031745 0.916711 0.198561
v -0.163427 0.972193 0.236918
v -0.186693 1.02162 0.25
v -0.146387 1.01473 0.201152
v -0.196586 1.07291 0.270695
v -0.1661 1.0746 0.221233
v -0.116752 1.06896 0.177532
v -0.157844 0.923403 0.280125
v -0.175953 0.927759 0.333126
v -0.190088 0.971026 0.288556
v -0.181505 0.941111 0.387411
v -0.204155 0.981554 0.352338
v -0.181505 0.947979 0.467411
v -0.204155 0.988421 0.432338
v -0.209802 1.0309 0.308637
v -0.21345 1.04165 0.371322
v -0.105604 0.887667 0.263621
v -0.0754498 0.859007 0.301374
v -0.131604 0.885533 0.315565
v -0.0403893 0.844577 0.342829
v -0.0928334 0.859915 0.362655
v -0.0403893 0.851444 0.422829
v -0.0928334 0.866783 0.442655
v -0.175953 0.934627 0.413125
v -0.145671 0.902928 0.459347
v -0.145671 0.89606 0.379347
v -0.0517575 0.876397 0.244854
v 0.0140225 0.877788 0.237926
v -0.0129865 0.850779 0.291944
v -0.00309155 0.845474 0.38483
f 1 2 3
f 2 4 5
f 3 5 6
f 2 5 3
f 4 7 8
f 7 9 10
f 8 10 11
f 7 10 8
f 6 12 13
f 14 15 16
f 17 16 18
f 14 16 17
f 4 8 5
f 8 11 12
f 5 12 6
f 8 12 5
f 1 3 19
f 3 6 20
f 19 20 21
f 3 20 19
f 22 17 23
f 17 18 24
f 23 24 25
f 17 24 23
f 21 26 27
f 28 25 29
f 30 29 31
f 28 29 30
f 6 32 20
f 23 25 28
f 20 26 21
f 32 26 20
f 1 19 33
f 19 21 34
f 33 34 35
f 19 34 33
f 21 27 36
f 27 37 38
f 36 38 39
f 27 38 36
f 35 40 41
f 40 39 42
f 41 42 43
f 40 42 41
f 21 36 34
f 36 39 40
f 34 40 35
f 36 40 34
f 1 33 44
f 33 35 45
f 44 45 46
f 33 45 44
f 35 41 47
f 41 43 48
f 47 48 49
f 41 48 47
f 46 50 51
f 50 49 52
f 51 52 53
f 50 52 51
f 35 47 45
f 47 49 50
f 45 50 46
f 47 50 45
f 1 44 2
f 44 46 54
f 2 54 4
f 44 54 2
f 46 51 55
f 51 53 56
f 55 56 57
f 51 56 55
f 4 58 7
f 58 57 59
f 7 59 9
f 58 59 7
f 46 55 54
f 55 57 58
f 54 58 4
f 55 58 54
f 9 60 10
f 61 62 63
f 64 63 15
f 61 63 64
f 62 65 66
f 65 67 68
f 66 68 69
f 65 68 66
f 15 70 16
f 70 69 71
f 16 71 18
f 70 71 16
f 62 66 63
f 66 69 70
f 63 70 15
f 66 70 63
f 18 71 72
f 71 69 73
f 72 73 74
f 71 73 72
f 69 68 75
f 68 67 76
f 75 76 77
f 68 76 75
f 74 78 79
f 78 77 80
f 79 80 81
f 78 80 79
f 69 75 73
f 75 77 78
f 73 78 74
f 75 78 73
f 18 72 24
f 72 74 82
f 24 82 25
f 72 82 24
f 74 79 83
f 79 81 84
f 83 84 85
f 79 84 83
f 25 86 29
f 86 85 87
f 29 87 31
f 86 87 29
f 74 83 82
f 83 85 86
f 82 86 25
f 83 86 82
f 31 87 88
f 87 85 89
f 88 89 90
f 87 89 88
f 85 84 91
f 84 81 92
f 91 92 93
f 84 92 91
f 90 94 95
f 94 93 96
f 95 96 97
f 94 96 95
f 85 91 89
f 91 93 94
f 89 94 90
f 91 94 89
f 31 88 98
f 88 90 99
f 38 100 39
f 101 100 38
f 90 95 102
f 95 97 103
f 104 105 106
f 95 103 102
f 39 107 42
f 107 106 108
f 42 108 43
f 107 108 42
f 90 102 99
f 104 106 107
f 100 107 39
f 104 107 100
f 43 108 109
f 108 106 110
f 109 110 111
f 108 110 109
f 106 105 112
f 103 97 113
f 112 114 115
f 105 114 112
f 111 116 117
f 116 115 118
f 117 118 119
f 116 118 117
f 106 112 110
f 112 115 116
f 110 116 111
f 112 116 110
f 43 109 48
f 109 111 120
f 48 120 49
f 109 120 48
f 111 117 121
f 117 119 122
f 121 122 123
f 117 122 121
f 49 124 52
f 124 123 125
f 52 125 53
f 124 125 52
f 111 121 120
f 121 123 124
f 120 124 49
f 121 124 120
f 53 125 126
f 125 123 127
f 126 127 128
f 125 127 126
f 123 122 129
f 122 119 130
f 129 130 131
f 122 130 129
f 128 132 133
f 132 131 134
f 133 134 135
f 132 134 133
f 123 129 127
f 129 131 132
f 127 132 128
f 129 132 127
f 53 126 56
f 126 128 136
f 56 136 57
f 126 136 56
f 128 133 137
f 133 135 138
f 137 138 139
f 133 138 137
f 57 140 59
f 140 139 141
f 59 141 9
f 140 141 59
f 128 137 136
f 137 139 140
f 136 140 57
f 137 140 136
f 9 141 60
f 141 139 142
f 61 143 62
f 141 142 60
f 139 138 144
f 138 135 145
f 146 147 148
f 149 147 146
f 62 150 65
f 150 148 151
f 65 151 67
f 150 151 65
f 139 144 142
f 146 148 150
f 143 150 62
f 146 150 143
f 152 153 154
f 153 155 156
f 154 156 157
f 153 156 154
f 155 158 159
f 158 81 80
f 159 80 77
f 158 80 159
f 157 160 161
f 160 77 76
f 161 76 67
f 160 76 161
f 155 159 156
f 159 77 160
f 156 160 157
f 159 160 156
f 152 162 153
f 162 163 164
f 153 164 155
f 162 164 153
f 163 165 166
f 165 97 96
f 166 96 93
f 165 96 166
f 155 167 158
f 167 93 92
f 158 92 81
f 167 92 158
f 163 166 164
f 166 93 167
f 164 167 155
f 166 167 164
f 152 168 162
f 168 169 170
f 162 170 163
f 168 170 162
f 169 171 172
f 173 119 118
f 174 118 115
f 173 118 174
f 163 175 165
f 175 176 113
f 165 113 97
f 175 113 165
f 169 172 170
f 172 176 175
f 170 175 163
f 172 175 170
f 152 177 168
f 177 178 179
f 168 179 169
f 177 179 168
f 178 180 181
f 182 135 134
f 183 134 131
f 182 134 183
f 184 185 173
f 185 131 130
f 173 130 119
f 185 130 173
f 178 181 179
f 183 131 185
f 179 186 169
f 181 186 179
f 152 154 177
f 154 157 187
f 177 187 178
f 154 187 177
f 157 161 188
f 161 67 151
f 188 151 148
f 161 151 188
f 178 189 180
f 189 148 147
f 180 147 190
f 189 147 180
f 157 188 187
f 188 148 189
f 187 189 178
f 188 189 187
f 14 12 15
f 15 12 11
f 17 13 14
f 14 13 12
f 22 6 17
f 17 6 13
f 23 32 22
f 22 32 6
f 31 37 30
f 30 37 27
f 30 27 28
f 28 27 26
f 28 26 23
f 23 26 32
f 15 11 64
f 64 11 10
f 64 10 61
f 61 10 60
f 88 101 98
f 98 101 38
f 98 38 31
f 31 38 37
f 99 100 88
f 88 100 101
f 103 105 102
f 102 105 104
f 102 104 99
f 99 104 100
f 113 114 103
f 103 114 105
f 61 60 143
f 143 60 142
f 149 138 147
f 147 138 145
f 146 144 149
f 149 144 138
f 143 142 146
f 146 142 144
f 169 184 171
f 171 184 173
f 171 173 172
f 172 173 174
f 176 115 113
f 113 115 114
f 172 174 176
f 176 174 115
f 180 182 181
f 181 182 183
f 186 185 169
f 169 185 184
f 181 183 186
f 186 183 185
f 147 145 190
f 190 145 135
f 190 135 180
f 180 135 182
