v 0.106557 1.16259 0.627557
v 0.141427 1.11878 0.623083
v 0.135844 1.16757 0.579876
v 0.164694 1.06934 0.61
v 0.168089 1.11994 0.571445
v 0.153953 1.16321 0.526875
v 0.174586 1.01806 0.589305
v 0.187802 1.06007 0.551364
v 0.170351 0.968833 0.562573
v 0.188493 1.00765 0.526244
v 0.19145 1.04932 0.488678
v 0.153953 1.17097 0.446875
v 0.182155 1.11718 0.427662
v 0.159506 1.15762 0.392589
v 0.19145 1.05708 0.408678
v 0.178996 1.09842 0.372735
v 0.152078 1.13629 0.341152
v 0.182155 1.10942 0.507662
v 0.0836044 1.2033 0.596379
v 0.109604 1.20544 0.544436
v 0.05345 1.23196 0.558626
v 0.123671 1.20267 0.400653
v 0.121173 1.18295 0.346032
v 0.0802066 1.2197 0.357304
v 0.05345 1.23972 0.478626
v 0.0708335 1.23882 0.417345
v 0.0183895 1.25415 0.437171
v 0.0322972 1.24375 0.37411
v -0.0189082 1.25326 0.39517
v 0.109604 1.2132 0.464436
v 0.0708335 1.23105 0.497345
v 0.0569008 1.1766 0.649786
v 0.0297577 1.21457 0.615146
v 0.00207569 1.18059 0.661374
v 0.0183895 1.24639 0.517171
v -0.00901328 1.24019 0.568056
v -0.0466464 1.25278 0.44402
v -0.0466464 1.24502 0.52402
v -0.071671 1.22932 0.571804
v -0.0360224 1.21318 0.622074
v -0.0537448 1.17426 0.661439
v -0.0920772 1.19959 0.614882
v -0.106311 1.15809 0.649976
v 0.0926371 1.12436 0.66629
v 0.0388938 1.13473 0.685857
v 0.070828 1.08008 0.693125
v -0.0268862 1.13333 0.692785
v -0.0830444 1.12064 0.684793
v -0.0542931 1.07744 0.706303
v 0.00925899 1.0805 0.709478
v 0.0427898 1.03314 0.706021
v -0.0222461 1.03177 0.71287
v 0.0106569 0.987106 0.703995
v 0.124387 1.07624 0.658848
v 0.0947522 1.02201 0.682468
v 0.06228 0.973944 0.686167
v 0.108325 0.966194 0.654929
v 0.1441 1.01637 0.638767
v 0.145286 0.964446 0.612658
v 0.167789 0.947605 0.510623
v 0.167789 0.955367 0.430623
v 0.151618 0.941556 0.378626
v 0.180928 0.996567 0.391781
v 0.188493 1.01542 0.446244
v 0.180928 0.988805 0.471781
v 0.123068 0.936213 0.330539
v 0.15434 0.985179 0.33228
v 0.0843116 0.939745 0.290024
v 0.117485 0.985003 0.287332
v 0.140878 1.03542 0.2955
v 0.175281 1.04591 0.34808
v 0.152709 1.08716 0.313907
v 0.116973 1.1394 0.297404
v 0.112548 1.08736 0.271886
v 0.0721255 1.13592 0.263749
v 0.0916075 1.02663 0.256087
v 0.0610446 0.977194 0.255207
v 0.0322932 1.0204 0.233697
v 0.0554622 1.07947 0.239394
v 0.0209505 1.12612 0.24275
v 0.000246303 1.06607 0.22713
v -0.0326567 1.11073 0.236006
v 0.0806518 1.18425 0.304378
v 0.0235656 1.17635 0.271886
v -0.0312896 1.16186 0.259254
v -0.0283779 1.20468 0.2955
v 0.0278141 1.22039 0.321071
v -0.0241433 1.23594 0.341985
v -0.0729331 1.24152 0.385192
v -0.0786202 1.21814 0.33228
v -0.122243 1.21542 0.378626
v -0.0828687 1.1741 0.283096
v -0.0842798 1.12389 0.253833
v -0.130325 1.13164 0.285071
v -0.132217 1.17974 0.326797
v -0.163086 1.17694 0.37597
v -0.167286 1.13339 0.327342
v -0.19235 1.129 0.377427
v -0.101381 1.23517 0.435483
v -0.101381 1.22741 0.515483
v -0.154977 1.19678 0.43
v -0.189789 1.15023 0.429377
v -0.154977 1.18901 0.51
v -0.189789 1.14247 0.509377
v -0.173618 1.15628 0.561374
v -0.12839 1.2004 0.569501
v -0.145067 1.16162 0.609461
v -0.139485 1.11283 0.652668
v -0.17634 1.11266 0.60772
v -0.162878 1.06242 0.6445
v -0.202927 1.10127 0.548219
v -0.210493 1.09018 0.413756
v -0.210493 1.08242 0.493756
v -0.21345 1.04076 0.531322
v -0.202927 1.10903 0.468219
v -0.197281 1.05192 0.59192
v -0.174709 1.01067 0.626093
v -0.200996 0.999415 0.567265
v -0.174078 0.961548 0.598848
v -0.113607 1.07121 0.683913
v -0.134548 1.01047 0.668114
v -0.138973 0.958434 0.642596
v -0.0941253 0.961912 0.676251
v -0.0774621 1.01837 0.700606
v -0.0429503 0.971718 0.69725
v 0.00928974 0.935982 0.680746
v -0.0455654 0.921489 0.668114
v 0.00637807 0.89316 0.6445
v -0.102652 0.913591 0.635622
v -0.143173 0.914889 0.593968
v -0.102206 0.878138 0.582696
v -0.0498139 0.877446 0.61893
v 0.00214352 0.861899 0.598015
v -0.054297 0.854091 0.565891
v -0.00309155 0.84458 0.54483
v 0.0608689 0.92374 0.656904
v 0.0566204 0.879697 0.60772
v 0.0509333 0.856317 0.554808
v 0.100244 0.88242 0.561374
v 0.110217 0.918094 0.613203
v 0.141086 0.920902 0.56403
v 0.132978 0.90106 0.51
v 0.132978 0.908822 0.43
v 0.079381 0.862664 0.504517
v 0.0246466 0.845058 0.49598
v 0.079381 0.870426 0.424517
v 0.0246466 0.85282 0.41598
v 0.0496712 0.868522 0.368197
v 0.10639 0.897435 0.370499
v 0.0700773 0.898251 0.325118
v -0.128557 0.935242 0.312443
v -0.114637 0.973478 0.27371
v -0.0789007 0.921238 0.290214
v -0.0928278 1.01775 0.246875
v -0.0608936 0.963111 0.254143
v -0.0240755 0.917249 0.278626
v -0.0647896 1.06469 0.233979
v -0.0312588 1.01734 0.230523
v 0.00488639 0.964503 0.247215
v 0.031745 0.923579 0.278561
v -0.163427 0.979061 0.316917
v -0.186693 1.02849 0.33
v -0.146387 1.0216 0.281152
v -0.196586 1.07977 0.350695
v -0.1661 1.08147 0.301233
v -0.116752 1.07582 0.257532
v -0.157844 0.930271 0.360125
v -0.175953 0.934627 0.413125
v -0.190088 0.977894 0.368555
v -0.175953 0.926865 0.493125
v -0.181505 0.940217 0.547411
v -0.204155 0.980659 0.512338
v -0.209802 1.03777 0.388637
v -0.21345 1.04852 0.451322
v -0.204155 0.988421 0.432338
v -0.105604 0.894535 0.343621
v -0.0754498 0.865875 0.381374
v -0.131604 0.892401 0.395564
v -0.0754498 0.858113 0.461374
v -0.0403893 0.843683 0.502829
v -0.0928334 0.859021 0.522655
v -0.145671 0.895166 0.539347
v -0.0928334 0.866783 0.442655
v -0.131604 0.884639 0.475565
v -0.0517575 0.883265 0.324854
v 0.0140225 0.884656 0.317926
v -0.0129865 0.857647 0.371944
v -0.0403893 0.851444 0.422829
f 1 2 3
f 2 4 5
f 3 5 6
f 2 5 3
f 4 7 8
f 7 9 10
f 8 10 11
f 7 10 8
f 12 13 14
f 13 15 16
f 14 16 17
f 13 16 14
f 4 8 5
f 8 11 18
f 5 18 6
f 8 18 5
f 1 3 19
f 3 6 20
f 19 20 21
f 3 20 19
f 12 14 22
f 14 17 23
f 22 23 24
f 14 23 22
f 25 26 27
f 26 24 28
f 27 28 29
f 26 28 27
f 12 22 30
f 22 24 26
f 20 31 21
f 22 26 30
f 1 19 32
f 19 21 33
f 32 33 34
f 19 33 32
f 21 35 36
f 27 29 37
f 36 38 39
f 35 38 36
f 34 40 41
f 40 39 42
f 41 42 43
f 40 42 41
f 21 36 33
f 36 39 40
f 33 40 34
f 36 40 33
f 1 32 44
f 32 34 45
f 44 45 46
f 32 45 44
f 34 41 47
f 41 43 48
f 47 48 49
f 41 48 47
f 46 50 51
f 50 49 52
f 51 52 53
f 50 52 51
f 34 47 45
f 47 49 50
f 45 50 46
f 47 50 45
f 1 44 2
f 44 46 54
f 2 54 4
f 44 54 2
f 46 51 55
f 51 53 56
f 55 56 57
f 51 56 55
f 4 58 7
f 58 57 59
f 7 59 9
f 58 59 7
f 46 55 54
f 55 57 58
f 54 58 4
f 55 58 54
f 9 60 10
f 61 62 63
f 64 63 15
f 60 65 10
f 62 66 67
f 66 68 69
f 67 69 70
f 66 69 67
f 15 71 16
f 71 70 72
f 16 72 17
f 71 72 16
f 62 67 63
f 67 70 71
f 63 71 15
f 67 71 63
f 17 72 73
f 72 70 74
f 73 74 75
f 72 74 73
f 70 69 76
f 69 68 77
f 76 77 78
f 69 77 76
f 75 79 80
f 79 78 81
f 80 81 82
f 79 81 80
f 70 76 74
f 76 78 79
f 74 79 75
f 76 79 74
f 17 73 23
f 73 75 83
f 23 83 24
f 73 83 23
f 75 80 84
f 80 82 85
f 84 85 86
f 80 85 84
f 24 87 28
f 87 86 88
f 28 88 29
f 87 88 28
f 75 84 83
f 84 86 87
f 83 87 24
f 84 87 83
f 29 88 89
f 88 86 90
f 89 90 91
f 88 90 89
f 86 85 92
f 85 82 93
f 92 93 94
f 85 93 92
f 91 95 96
f 95 94 97
f 96 97 98
f 95 97 96
f 86 92 90
f 92 94 95
f 90 95 91
f 92 95 90
f 29 89 37
f 89 91 99
f 38 100 39
f 89 99 37
f 91 96 101
f 96 98 102
f 103 104 105
f 96 102 101
f 39 106 42
f 106 105 107
f 42 107 43
f 106 107 42
f 91 101 99
f 103 105 106
f 100 106 39
f 103 106 100
f 43 107 108
f 107 105 109
f 108 109 110
f 107 109 108
f 105 104 111
f 102 98 112
f 111 113 114
f 102 112 115
f 110 116 117
f 116 114 118
f 117 118 119
f 116 118 117
f 105 111 109
f 111 114 116
f 109 116 110
f 111 116 109
f 43 108 48
f 108 110 120
f 48 120 49
f 108 120 48
f 110 117 121
f 117 119 122
f 121 122 123
f 117 122 121
f 49 124 52
f 124 123 125
f 52 125 53
f 124 125 52
f 110 121 120
f 121 123 124
f 120 124 49
f 121 124 120
f 53 125 126
f 125 123 127
f 126 127 128
f 125 127 126
f 123 122 129
f 122 119 130
f 129 130 131
f 122 130 129
f 128 132 133
f 132 131 134
f 133 134 135
f 132 134 133
f 123 129 127
f 129 131 132
f 127 132 128
f 129 132 127
f 53 126 56
f 126 128 136
f 56 136 57
f 126 136 56
f 128 133 137
f 133 135 138
f 137 138 139
f 133 138 137
f 57 140 59
f 140 139 141
f 59 141 9
f 140 141 59
f 128 137 136
f 137 139 140
f 136 140 57
f 137 140 136
f 9 141 60
f 141 139 142
f 61 143 62
f 141 142 60
f 139 138 144
f 138 135 145
f 146 147 148
f 138 145 144
f 62 149 66
f 149 148 150
f 66 150 68
f 149 150 66
f 139 144 142
f 146 148 149
f 143 149 62
f 146 149 143
f 151 152 153
f 152 154 155
f 153 155 156
f 152 155 153
f 154 157 158
f 157 82 81
f 158 81 78
f 157 81 158
f 156 159 160
f 159 78 77
f 160 77 68
f 159 77 160
f 154 158 155
f 158 78 159
f 155 159 156
f 158 159 155
f 151 161 152
f 161 162 163
f 152 163 154
f 161 163 152
f 162 164 165
f 164 98 97
f 165 97 94
f 164 97 165
f 154 166 157
f 166 94 93
f 157 93 82
f 166 93 157
f 162 165 163
f 165 94 166
f 163 166 154
f 165 166 163
f 151 167 161
f 167 168 169
f 161 169 162
f 167 169 161
f 170 171 172
f 171 119 118
f 172 118 114
f 171 118 172
f 162 173 164
f 173 174 112
f 164 112 98
f 173 112 164
f 168 175 169
f 175 174 173
f 169 173 162
f 175 173 169
f 151 176 167
f 176 177 178
f 167 178 168
f 176 178 167
f 179 180 181
f 180 135 134
f 181 134 131
f 180 134 181
f 170 182 171
f 182 131 130
f 171 130 119
f 182 130 171
f 177 183 178
f 181 131 182
f 184 182 170
f 181 182 184
f 151 153 176
f 153 156 185
f 176 185 177
f 153 185 176
f 156 160 186
f 160 68 150
f 186 150 148
f 160 150 186
f 177 187 188
f 187 148 147
f 180 145 135
f 187 147 188
f 156 186 185
f 186 148 187
f 185 187 177
f 186 187 185
f 12 6 13
f 13 6 18
f 13 18 15
f 15 18 11
f 25 21 26
f 26 21 31
f 27 35 25
f 25 35 21
f 30 20 12
f 12 20 6
f 26 31 30
f 30 31 20
f 37 38 27
f 27 38 35
f 63 65 61
f 61 65 60
f 64 10 63
f 63 10 65
f 15 11 64
f 64 11 10
f 99 100 37
f 37 100 38
f 102 104 101
f 101 104 103
f 101 103 99
f 99 103 100
f 112 113 115
f 115 113 111
f 115 111 102
f 102 111 104
f 61 60 143
f 143 60 142
f 146 144 147
f 147 144 145
f 143 142 146
f 146 142 144
f 174 114 112
f 112 114 113
f 168 170 175
f 175 170 172
f 175 172 174
f 174 172 114
f 178 184 168
f 168 184 170
f 177 179 183
f 183 179 181
f 183 181 178
f 178 181 184
f 188 180 177
f 177 180 179
f 147 145 188
f 188 145 180
