v 0.106557 1.13828 0.747557
v 0.141427 1.09446 0.743083
v 0.135844 1.14325 0.699876
v 0.164694 1.04503 0.73
v 0.168089 1.09563 0.691445
v 0.153953 1.1389 0.646875
v 0.174586 0.993751 0.709305
v 0.187802 1.03576 0.671364
v 0.170351 0.944522 0.682573
v 0.188493 0.983343 0.646244
v 0.19145 1.02501 0.608678
v 0.153953 1.16321 0.526875
v 0.182155 1.10942 0.507662
v 0.159506 1.14986 0.472589
v 0.19145 1.04932 0.488678
v 0.178996 1.09066 0.452735
v 0.152078 1.12853 0.421152
v 0.182155 1.0851 0.627662
v 0.0836044 1.17899 0.716379
v 0.109604 1.18113 0.664436
v 0.05345 1.20765 0.678626
v 0.123671 1.19491 0.480653
v 0.121173 1.17519 0.426032
v 0.0802066 1.21194 0.437304
v 0.05345 1.23196 0.558626
v 0.0708335 1.23105 0.497345
v 0.0183895 1.24639 0.517171
v 0.0322972 1.23598 0.45411
v -0.0189082 1.2455 0.47517
v 0.109604 1.20544 0.544436
v 0.0569008 1.15229 0.769786
v 0.0297577 1.19026 0.735146
v 0.00207569 1.15628 0.781374
v 0.0183895 1.22208 0.637171
v -0.00901328 1.21588 0.688056
v -0.0466464 1.24502 0.52402
v -0.0466464 1.22071 0.64402
v -0.071671 1.205 0.691804
v -0.00901328 1.24019 0.568056
v -0.0360224 1.18887 0.742074
v -0.0537448 1.14995 0.781439
v -0.0920772 1.17528 0.734882
v -0.106311 1.13378 0.769976
v 0.0926371 1.10005 0.78629
v 0.0388938 1.11041 0.805857
v 0.070828 1.05577 0.813125
v -0.0268862 1.10902 0.812785
v -0.0830444 1.09633 0.804793
v -0.0542931 1.05313 0.826303
v 0.00925899 1.05619 0.829478
v 0.0427898 1.00883 0.826021
v -0.0222461 1.00746 0.83287
v 0.0106569 0.962794 0.823995
v 0.124387 1.05193 0.778848
v 0.0947522 0.997701 0.802468
v 0.06228 0.949633 0.806167
v 0.108325 0.941883 0.774929
v 0.1441 0.992055 0.758767
v 0.145286 0.940135 0.732658
v 0.167789 0.923294 0.630623
v 0.167789 0.947605 0.510623
v 0.151618 0.933794 0.458626
v 0.180928 0.988805 0.471781
v 0.188493 1.00765 0.526244
v 0.180928 0.964494 0.591781
v 0.123068 0.928451 0.410539
v 0.15434 0.977417 0.41228
v 0.0843116 0.931983 0.370024
v 0.117485 0.977241 0.367332
v 0.140878 1.02766 0.3755
v 0.175281 1.03815 0.42808
v 0.152709 1.0794 0.393907
v 0.116973 1.13164 0.377404
v 0.112548 1.0796 0.351886
v 0.0721255 1.12816 0.343749
v 0.0916075 1.01887 0.336087
v 0.0610446 0.969432 0.335208
v 0.0322932 1.01264 0.313697
v 0.0554622 1.07171 0.319394
v 0.0209505 1.11836 0.32275
v 0.000246303 1.05831 0.30713
v -0.0326567 1.10297 0.316006
v 0.0806518 1.17648 0.384378
v 0.0235656 1.16859 0.351886
v -0.0312896 1.15409 0.339254
v -0.0283779 1.19692 0.3755
v 0.0278141 1.21263 0.401071
v -0.0241433 1.22818 0.421985
v -0.0729331 1.23376 0.465192
v -0.0786202 1.21038 0.41228
v -0.122243 1.20766 0.458626
v -0.0828687 1.16633 0.363096
v -0.0842798 1.11613 0.333833
v -0.130325 1.12388 0.365071
v -0.132217 1.17198 0.406797
v -0.163086 1.16917 0.45597
v -0.167286 1.12563 0.407342
v -0.19235 1.12124 0.457427
v -0.101381 1.22741 0.515483
v -0.071671 1.22932 0.571804
v -0.154977 1.18901 0.51
v -0.189789 1.14247 0.509377
v -0.173618 1.15628 0.561374
v -0.12839 1.17609 0.689501
v -0.173618 1.13197 0.681374
v -0.145067 1.13731 0.729461
v -0.154977 1.1647 0.63
v -0.101381 1.2031 0.635483
v -0.12839 1.2004 0.569501
v -0.139485 1.08852 0.772668
v -0.17634 1.08835 0.72772
v -0.162878 1.0381 0.7645
v -0.189789 1.11816 0.629377
v -0.202927 1.07696 0.668219
v -0.210493 1.08242 0.493756
v -0.210493 1.05811 0.613756
v -0.21345 1.01644 0.651322
v -0.202927 1.10127 0.548219
v -0.197281 1.02761 0.71192
v -0.174709 0.986363 0.746093
v -0.200996 0.975104 0.687265
v -0.174078 0.937237 0.718848
v -0.113607 1.0469 0.803913
v -0.134548 0.986161 0.788114
v -0.138973 0.934123 0.762596
v -0.0941253 0.937601 0.796251
v -0.0774621 0.994059 0.820606
v -0.0429503 0.947407 0.81725
v 0.00928974 0.911671 0.800746
v -0.0455654 0.897178 0.788114
v 0.00637807 0.868849 0.7645
v -0.102652 0.88928 0.755622
v -0.143173 0.890578 0.713968
v -0.102206 0.853826 0.702696
v -0.0498139 0.853135 0.73893
v 0.00214352 0.837588 0.718015
v -0.054297 0.82978 0.685891
v -0.00309155 0.820269 0.66483
v 0.0608689 0.899429 0.776904
v 0.0566204 0.855386 0.72772
v 0.0509333 0.832006 0.674808
v 0.100244 0.858109 0.681374
v 0.110217 0.893783 0.733203
v 0.141086 0.896591 0.68403
v 0.132978 0.876749 0.63
v 0.151618 0.909483 0.578626
v 0.079381 0.838353 0.624517
v 0.0246466 0.820747 0.61598
v 0.0496712 0.836449 0.568197
v 0.10639 0.889673 0.450499
v 0.0496712 0.86076 0.448197
v 0.0700773 0.890489 0.405118
v 0.079381 0.862664 0.504517
v 0.132978 0.90106 0.51
v 0.10639 0.865362 0.570499
v -0.128557 0.92748 0.392443
v -0.114637 0.965717 0.35371
v -0.0789007 0.913477 0.370214
v -0.0928278 1.00999 0.326875
v -0.0608936 0.955349 0.334143
v -0.0240755 0.909487 0.358626
v -0.0647896 1.05693 0.313979
v -0.0312588 1.00958 0.310523
v 0.00488639 0.956741 0.327215
v 0.031745 0.915817 0.358561
v -0.163427 0.971299 0.396917
v -0.186693 1.02073 0.41
v -0.146387 1.01383 0.361152
v -0.196586 1.07201 0.430695
v -0.1661 1.07371 0.381233
v -0.116752 1.06806 0.337532
v -0.157844 0.922509 0.440125
v -0.175953 0.926865 0.493125
v -0.190088 0.970132 0.448555
v -0.175953 0.902554 0.613126
v -0.181505 0.915906 0.667411
v -0.204155 0.956348 0.632338
v -0.209802 1.03001 0.468637
v -0.21345 1.04076 0.531322
v -0.204155 0.980659 0.512338
v -0.105604 0.886773 0.423621
v -0.0754498 0.858113 0.461374
v -0.131604 0.884639 0.475565
v -0.0754498 0.833802 0.581374
v -0.0403893 0.819371 0.622829
v -0.0928334 0.83471 0.642655
v -0.145671 0.870855 0.659347
v -0.131604 0.860328 0.595565
v -0.0517575 0.875503 0.404854
v 0.0140225 0.876894 0.397926
v -0.0129865 0.849885 0.451944
v -0.0403893 0.843683 0.502829
v 0.0246466 0.845058 0.49598
v -0.0129865 0.825574 0.571944
f 1 2 3
f 2 4 5
f 3 5 6
f 2 5 3
f 4 7 8
f 7 9 10
f 8 10 11
f 7 10 8
f 12 13 14
f 13 15 16
f 14 16 17
f 13 16 14
f 4 8 5
f 8 11 18
f 5 18 6
f 8 18 5
f 1 3 19
f 3 6 20
f 19 20 21
f 3 20 19
f 12 14 22
f 14 17 23
f 22 23 24
f 14 23 22
f 25 26 27
f 26 24 28
f 27 28 29
f 26 28 27
f 12 22 30
f 22 24 26
f 30 26 25
f 22 26 30
f 1 19 31
f 19 21 32
f 31 32 33
f 19 32 31
f 21 34 35
f 27 29 36
f 35 37 38
f 27 36 39
f 33 40 41
f 40 38 42
f 41 42 43
f 40 42 41
f 21 35 32
f 35 38 40
f 32 40 33
f 35 40 32
f 1 31 44
f 31 33 45
f 44 45 46
f 31 45 44
f 33 41 47
f 41 43 48
f 47 48 49
f 41 48 47
f 46 50 51
f 50 49 52
f 51 52 53
f 50 52 51
f 33 47 45
f 47 49 50
f 45 50 46
f 47 50 45
f 1 44 2
f 44 46 54
f 2 54 4
f 44 54 2
f 46 51 55
f 51 53 56
f 55 56 57
f 51 56 55
f 4 58 7
f 58 57 59
f 7 59 9
f 58 59 7
f 46 55 54
f 55 57 58
f 54 58 4
f 55 58 54
f 9 60 10
f 61 62 63
f 64 63 15
f 60 65 10
f 62 66 67
f 66 68 69
f 67 69 70
f 66 69 67
f 15 71 16
f 71 70 72
f 16 72 17
f 71 72 16
f 62 67 63
f 67 70 71
f 63 71 15
f 67 71 63
f 17 72 73
f 72 70 74
f 73 74 75
f 72 74 73
f 70 69 76
f 69 68 77
f 76 77 78
f 69 77 76
f 75 79 80
f 79 78 81
f 80 81 82
f 79 81 80
f 70 76 74
f 76 78 79
f 74 79 75
f 76 79 74
f 17 73 23
f 73 75 83
f 23 83 24
f 73 83 23
f 75 80 84
f 80 82 85
f 84 85 86
f 80 85 84
f 24 87 28
f 87 86 88
f 28 88 29
f 87 88 28
f 75 84 83
f 84 86 87
f 83 87 24
f 84 87 83
f 29 88 89
f 88 86 90
f 89 90 91
f 88 90 89
f 86 85 92
f 85 82 93
f 92 93 94
f 85 93 92
f 91 95 96
f 95 94 97
f 96 97 98
f 95 97 96
f 86 92 90
f 92 94 95
f 90 95 91
f 92 95 90
f 29 89 36
f 89 91 99
f 36 99 100
f 89 99 36
f 91 96 101
f 96 98 102
f 101 102 103
f 96 102 101
f 38 104 42
f 104 105 106
f 42 106 43
f 104 106 42
f 91 101 99
f 107 105 104
f 108 104 38
f 101 109 99
f 43 106 110
f 106 105 111
f 110 111 112
f 106 111 110
f 105 113 114
f 102 98 115
f 114 116 117
f 102 115 118
f 112 119 120
f 119 117 121
f 120 121 122
f 119 121 120
f 105 114 111
f 114 117 119
f 111 119 112
f 114 119 111
f 43 110 48
f 110 112 123
f 48 123 49
f 110 123 48
f 112 120 124
f 120 122 125
f 124 125 126
f 120 125 124
f 49 127 52
f 127 126 128
f 52 128 53
f 127 128 52
f 112 124 123
f 124 126 127
f 123 127 49
f 124 127 123
f 53 128 129
f 128 126 130
f 129 130 131
f 128 130 129
f 126 125 132
f 125 122 133
f 132 133 134
f 125 133 132
f 131 135 136
f 135 134 137
f 136 137 138
f 135 137 136
f 126 132 130
f 132 134 135
f 130 135 131
f 132 135 130
f 53 129 56
f 129 131 139
f 56 139 57
f 129 139 56
f 131 136 140
f 136 138 141
f 140 141 142
f 136 141 140
f 57 143 59
f 143 142 144
f 59 144 9
f 143 144 59
f 131 140 139
f 140 142 143
f 139 143 57
f 140 143 139
f 9 144 60
f 144 142 145
f 60 145 146
f 144 145 60
f 142 141 147
f 141 138 148
f 147 148 149
f 141 148 147
f 62 150 66
f 150 151 152
f 66 152 68
f 150 152 66
f 142 147 145
f 153 151 150
f 154 150 62
f 147 155 145
f 156 157 158
f 157 159 160
f 158 160 161
f 157 160 158
f 159 162 163
f 162 82 81
f 163 81 78
f 162 81 163
f 161 164 165
f 164 78 77
f 165 77 68
f 164 77 165
f 159 163 160
f 163 78 164
f 160 164 161
f 163 164 160
f 156 166 157
f 166 167 168
f 157 168 159
f 166 168 157
f 167 169 170
f 169 98 97
f 170 97 94
f 169 97 170
f 159 171 162
f 171 94 93
f 162 93 82
f 171 93 162
f 167 170 168
f 170 94 171
f 168 171 159
f 170 171 168
f 156 172 166
f 172 173 174
f 166 174 167
f 172 174 166
f 175 176 177
f 176 122 121
f 177 121 117
f 176 121 177
f 167 178 169
f 178 179 115
f 169 115 98
f 178 115 169
f 173 180 174
f 180 179 178
f 174 178 167
f 180 178 174
f 156 181 172
f 181 182 183
f 172 183 173
f 181 183 172
f 184 185 186
f 185 138 137
f 186 137 134
f 185 137 186
f 175 187 176
f 187 134 133
f 176 133 122
f 187 133 176
f 184 186 188
f 186 134 187
f 188 187 175
f 186 187 188
f 156 158 181
f 158 161 189
f 181 189 182
f 158 189 181
f 161 165 190
f 165 68 152
f 190 152 151
f 165 152 190
f 182 191 192
f 191 151 193
f 185 148 138
f 194 148 185
f 161 190 189
f 190 151 191
f 189 191 182
f 190 191 189
f 12 6 13
f 13 6 18
f 13 18 15
f 15 18 11
f 27 34 25
f 25 34 21
f 30 20 12
f 12 20 6
f 25 21 30
f 30 21 20
f 36 37 39
f 39 37 35
f 39 35 27
f 27 35 34
f 61 60 62
f 62 60 146
f 63 65 61
f 61 65 60
f 64 10 63
f 63 10 65
f 15 11 64
f 64 11 10
f 99 108 100
f 100 108 38
f 100 38 36
f 36 38 37
f 102 113 103
f 103 113 105
f 103 105 101
f 101 105 107
f 101 107 109
f 109 107 104
f 109 104 99
f 99 104 108
f 115 116 118
f 118 116 114
f 118 114 102
f 102 114 113
f 153 147 151
f 151 147 149
f 150 155 153
f 153 155 147
f 154 145 150
f 150 145 155
f 62 146 154
f 154 146 145
f 179 117 115
f 115 117 116
f 173 175 180
f 180 175 177
f 180 177 179
f 179 177 117
f 182 184 183
f 183 184 188
f 183 188 173
f 173 188 175
f 191 194 192
f 192 194 185
f 192 185 182
f 182 185 184
f 151 149 193
f 193 149 148
f 193 148 191
f 191 148 194
