v 0.106557 1.12184 0.787557
v 0.141427 1.07802 0.783083
v 0.135844 1.12681 0.739875
v 0.164694 1.02859 0.77
v 0.168089 1.07919 0.731445
v 0.153953 1.12245 0.686875
v 0.174586 0.977306 0.749305
v 0.187802 1.01931 0.711364
v 0.170351 0.928077 0.722573
v 0.188493 0.966897 0.686244
v 0.19145 1.00856 0.648678
v 0.153953 1.1389 0.646875
v 0.182155 1.0851 0.627662
v 0.159506 1.12555 0.592589
v 0.19145 1.02501 0.608678
v 0.178996 1.06635 0.572735
v 0.152078 1.10422 0.541152
v 0.187802 1.03576 0.671364
v 0.168089 1.09563 0.691445
v 0.182155 1.06866 0.667662
v 0.0836044 1.16255 0.756379
v 0.135844 1.14325 0.699876
v 0.109604 1.18113 0.664436
v 0.0836044 1.17899 0.716379
v 0.05345 1.20765 0.678626
v 0.109604 1.16468 0.704436
v 0.123671 1.1706 0.600653
v 0.121173 1.15087 0.546032
v 0.0802066 1.18763 0.557304
v 0.0708335 1.20674 0.617345
v 0.0183895 1.22208 0.637171
v 0.0322972 1.21167 0.57411
v -0.0189082 1.22118 0.59517
v 0.0569008 1.13584 0.809786
v 0.05345 1.19121 0.718626
v 0.0297577 1.17382 0.775146
v 0.00207569 1.13983 0.821374
v -0.00901328 1.21588 0.688056
v -0.0466464 1.22071 0.64402
v -0.071671 1.205 0.691804
v -0.0360224 1.17242 0.782074
v -0.0537448 1.1335 0.821439
v -0.071671 1.18856 0.731803
v -0.0920772 1.15883 0.774882
v -0.106311 1.11734 0.809976
v 0.0297577 1.19026 0.735146
v -0.00901328 1.19943 0.728056
v 0.0926371 1.0836 0.82629
v 0.0388938 1.09397 0.845857
v 0.070828 1.03933 0.853125
v -0.0268862 1.09258 0.852785
v -0.0830444 1.07989 0.844793
v -0.0542931 1.03668 0.866303
v 0.00925899 1.03974 0.869478
v 0.0427898 0.992386 0.866021
v -0.0222461 0.99101 0.87287
v 0.0106569 0.946349 0.863995
v 0.124387 1.03548 0.818848
v 0.0947522 0.981256 0.842468
v 0.06228 0.933187 0.846167
v 0.108325 0.925438 0.814929
v 0.1441 0.975609 0.798767
v 0.145286 0.92369 0.772658
v 0.167789 0.906849 0.670623
v 0.151618 0.893038 0.618626
v 0.180928 0.948048 0.631781
v 0.188493 0.983343 0.646244
v 0.180928 0.964494 0.591781
v 0.151618 0.909483 0.578626
v 0.123068 0.90414 0.530539
v 0.15434 0.953106 0.53228
v 0.0843116 0.907672 0.490024
v 0.117485 0.95293 0.487332
v 0.140878 1.00335 0.4955
v 0.175281 1.01384 0.54808
v 0.152709 1.05509 0.513907
v 0.116973 1.10733 0.497404
v 0.112548 1.05529 0.471886
v 0.0721255 1.10385 0.463749
v 0.0916075 0.994556 0.456087
v 0.0610446 0.945121 0.455208
v 0.0322932 0.988326 0.433697
v 0.0554622 1.04739 0.439394
v 0.0209505 1.09405 0.44275
v 0.000246303 1.034 0.42713
v -0.0326567 1.07866 0.436006
v 0.0806518 1.15217 0.504378
v 0.0235656 1.14427 0.471886
v -0.0312896 1.12978 0.459254
v -0.0283779 1.1726 0.4955
v 0.0278141 1.18832 0.521071
v -0.0241433 1.20386 0.541985
v -0.0729331 1.20945 0.585192
v -0.0786202 1.18607 0.53228
v -0.122243 1.18334 0.578626
v -0.0828687 1.14202 0.483096
v -0.0842798 1.09182 0.453833
v -0.130325 1.09957 0.485071
v -0.132217 1.14767 0.526797
v -0.163086 1.14486 0.57597
v -0.167286 1.10132 0.527342
v -0.19235 1.09693 0.577427
v -0.101381 1.2031 0.635483
v -0.154977 1.1647 0.63
v -0.189789 1.11816 0.629377
v -0.173618 1.13197 0.681374
v -0.12839 1.15965 0.729501
v -0.173618 1.11552 0.721374
v -0.145067 1.12087 0.769461
v -0.12839 1.17609 0.689501
v -0.139485 1.07208 0.812668
v -0.17634 1.0719 0.76772
v -0.162878 1.02166 0.8045
v -0.202927 1.07696 0.668219
v -0.210493 1.05811 0.613756
v -0.202927 1.06051 0.708219
v -0.210493 1.04166 0.653756
v -0.21345 0.999999 0.691322
v -0.197281 1.01117 0.75192
v -0.174709 0.969917 0.786093
v -0.200996 0.958659 0.727265
v -0.174078 0.920792 0.758848
v -0.113607 1.03045 0.843913
v -0.134548 0.969716 0.828114
v -0.138973 0.917677 0.802596
v -0.0941253 0.921156 0.836251
v -0.0774621 0.977613 0.860606
v -0.0429503 0.930962 0.85725
v 0.00928974 0.895225 0.840746
v -0.0455654 0.880733 0.828114
v 0.00637807 0.852403 0.8045
v -0.102652 0.872835 0.795622
v -0.143173 0.874133 0.753968
v -0.102206 0.837381 0.742696
v -0.0498139 0.83669 0.778929
v 0.00214352 0.821143 0.758015
v -0.054297 0.813334 0.725891
v -0.00309155 0.803823 0.70483
v 0.0608689 0.882984 0.816904
v 0.0566204 0.838941 0.76772
v 0.0509333 0.81556 0.714808
v 0.100244 0.841663 0.721374
v 0.110217 0.877337 0.773203
v 0.141086 0.880145 0.72403
v 0.132978 0.860304 0.67
v 0.079381 0.821907 0.664517
v 0.0246466 0.804302 0.65598
v 0.0496712 0.820003 0.608197
v 0.10639 0.865362 0.570499
v 0.0496712 0.836449 0.568197
v 0.0700773 0.866178 0.525118
v 0.10639 0.848916 0.610499
v -0.128557 0.903169 0.512443
v -0.114637 0.941405 0.47371
v -0.0789007 0.889165 0.490214
v -0.0928278 0.98568 0.446875
v -0.0608936 0.931038 0.454143
v -0.0240755 0.885176 0.478626
v -0.0647896 1.03262 0.433979
v -0.0312588 0.985267 0.430523
v 0.00488639 0.93243 0.447215
v 0.031745 0.891506 0.478561
v -0.163427 0.946988 0.516917
v -0.186693 0.99642 0.53
v -0.146387 0.989523 0.481152
v -0.196586 1.0477 0.550695
v -0.1661 1.0494 0.501233
v -0.116752 1.04375 0.457532
v -0.157844 0.898198 0.560125
v -0.175953 0.902554 0.613126
v -0.190088 0.945821 0.568555
v -0.175953 0.886109 0.653125
v -0.181505 0.899461 0.707411
v -0.204155 0.939903 0.672338
v -0.209802 1.0057 0.588637
v -0.21345 1.01644 0.651322
v -0.190088 0.929376 0.608555
v -0.209802 0.989251 0.628637
v -0.204155 0.956348 0.632338
v -0.105604 0.862462 0.543621
v -0.105604 0.846017 0.583621
v -0.0754498 0.817357 0.621374
v -0.131604 0.843882 0.635565
v -0.157844 0.881753 0.600125
v -0.131604 0.860328 0.595565
v -0.0403893 0.802926 0.662829
v -0.0928334 0.818265 0.682655
v -0.145671 0.85441 0.699347
v -0.0517575 0.851192 0.524854
v -0.0754498 0.833802 0.581374
v 0.0140225 0.852583 0.517926
v -0.0129865 0.809128 0.611944
v -0.0129865 0.825574 0.571944
v -0.0517575 0.834746 0.564854
f 1 2 3
f 2 4 5
f 3 5 6
f 2 5 3
f 4 7 8
f 7 9 10
f 8 10 11
f 7 10 8
f 12 13 14
f 13 15 16
f 14 16 17
f 13 16 14
f 4 8 5
f 18 15 13
f 19 13 12
f 8 20 5
f 1 3 21
f 22 12 23
f 24 23 25
f 3 26 21
f 12 14 27
f 14 17 28
f 27 28 29
f 14 28 27
f 25 30 31
f 30 29 32
f 31 32 33
f 30 32 31
f 12 27 23
f 27 29 30
f 23 30 25
f 27 30 23
f 1 21 34
f 21 35 36
f 34 36 37
f 21 36 34
f 25 31 38
f 31 33 39
f 38 39 40
f 31 39 38
f 37 41 42
f 41 43 44
f 42 44 45
f 41 44 42
f 25 38 46
f 47 43 41
f 36 41 37
f 47 41 36
f 1 34 48
f 34 37 49
f 48 49 50
f 34 49 48
f 37 42 51
f 42 45 52
f 51 52 53
f 42 52 51
f 50 54 55
f 54 53 56
f 55 56 57
f 54 56 55
f 37 51 49
f 51 53 54
f 49 54 50
f 51 54 49
f 1 48 2
f 48 50 58
f 2 58 4
f 48 58 2
f 50 55 59
f 55 57 60
f 59 60 61
f 55 60 59
f 4 62 7
f 62 61 63
f 7 63 9
f 62 63 7
f 50 59 58
f 59 61 62
f 58 62 4
f 59 62 58
f 9 64 10
f 64 65 66
f 67 68 15
f 64 66 10
f 69 70 71
f 70 72 73
f 71 73 74
f 70 73 71
f 15 75 16
f 75 74 76
f 16 76 17
f 75 76 16
f 69 71 68
f 71 74 75
f 68 75 15
f 71 75 68
f 17 76 77
f 76 74 78
f 77 78 79
f 76 78 77
f 74 73 80
f 73 72 81
f 80 81 82
f 73 81 80
f 79 83 84
f 83 82 85
f 84 85 86
f 83 85 84
f 74 80 78
f 80 82 83
f 78 83 79
f 80 83 78
f 17 77 28
f 77 79 87
f 28 87 29
f 77 87 28
f 79 84 88
f 84 86 89
f 88 89 90
f 84 89 88
f 29 91 32
f 91 90 92
f 32 92 33
f 91 92 32
f 79 88 87
f 88 90 91
f 87 91 29
f 88 91 87
f 33 92 93
f 92 90 94
f 93 94 95
f 92 94 93
f 90 89 96
f 89 86 97
f 96 97 98
f 89 97 96
f 95 99 100
f 99 98 101
f 100 101 102
f 99 101 100
f 90 96 94
f 96 98 99
f 94 99 95
f 96 99 94
f 33 93 39
f 93 95 103
f 39 103 40
f 93 103 39
f 95 100 104
f 100 102 105
f 104 105 106
f 100 105 104
f 43 107 44
f 107 108 109
f 44 109 45
f 107 109 44
f 95 104 103
f 104 106 110
f 103 110 40
f 104 110 103
f 45 109 111
f 109 108 112
f 111 112 113
f 109 112 111
f 106 105 114
f 105 102 115
f 116 117 118
f 105 115 114
f 113 119 120
f 119 118 121
f 120 121 122
f 119 121 120
f 108 116 112
f 116 118 119
f 112 119 113
f 116 119 112
f 45 111 52
f 111 113 123
f 52 123 53
f 111 123 52
f 113 120 124
f 120 122 125
f 124 125 126
f 120 125 124
f 53 127 56
f 127 126 128
f 56 128 57
f 127 128 56
f 113 124 123
f 124 126 127
f 123 127 53
f 124 127 123
f 57 128 129
f 128 126 130
f 129 130 131
f 128 130 129
f 126 125 132
f 125 122 133
f 132 133 134
f 125 133 132
f 131 135 136
f 135 134 137
f 136 137 138
f 135 137 136
f 126 132 130
f 132 134 135
f 130 135 131
f 132 135 130
f 57 129 60
f 129 131 139
f 60 139 61
f 129 139 60
f 131 136 140
f 136 138 141
f 140 141 142
f 136 141 140
f 61 143 63
f 143 142 144
f 63 144 9
f 143 144 63
f 131 140 139
f 140 142 143
f 139 143 61
f 140 143 139
f 9 144 64
f 144 142 145
f 64 145 65
f 144 145 64
f 142 141 146
f 141 138 147
f 146 147 148
f 141 147 146
f 69 149 70
f 149 150 151
f 70 151 72
f 149 151 70
f 142 146 145
f 146 148 152
f 145 152 65
f 146 152 145
f 153 154 155
f 154 156 157
f 155 157 158
f 154 157 155
f 156 159 160
f 159 86 85
f 160 85 82
f 159 85 160
f 158 161 162
f 161 82 81
f 162 81 72
f 161 81 162
f 156 160 157
f 160 82 161
f 157 161 158
f 160 161 157
f 153 163 154
f 163 164 165
f 154 165 156
f 163 165 154
f 164 166 167
f 166 102 101
f 167 101 98
f 166 101 167
f 156 168 159
f 168 98 97
f 159 97 86
f 168 97 159
f 164 167 165
f 167 98 168
f 165 168 156
f 167 168 165
f 153 169 163
f 169 170 171
f 163 171 164
f 169 171 163
f 172 173 174
f 173 122 121
f 174 121 118
f 173 121 174
f 164 175 166
f 175 176 115
f 166 115 102
f 175 115 166
f 172 174 177
f 174 118 178
f 171 175 164
f 179 175 171
f 153 180 169
f 181 182 183
f 184 183 172
f 180 185 169
f 182 186 187
f 186 138 137
f 187 137 134
f 186 137 187
f 172 188 173
f 188 134 133
f 173 133 122
f 188 133 173
f 182 187 183
f 187 134 188
f 183 188 172
f 187 188 183
f 153 155 180
f 155 158 189
f 180 189 190
f 155 189 180
f 158 162 191
f 162 72 151
f 191 151 150
f 162 151 191
f 182 192 186
f 192 148 147
f 186 147 138
f 192 147 186
f 158 191 189
f 191 150 193
f 194 192 182
f 191 193 189
f 18 8 15
f 15 8 11
f 13 20 18
f 18 20 8
f 19 5 13
f 13 5 20
f 12 6 19
f 19 6 5
f 22 3 12
f 12 3 6
f 23 26 22
f 22 26 3
f 24 21 23
f 23 21 26
f 25 35 24
f 24 35 21
f 40 43 38
f 38 43 47
f 38 47 46
f 46 47 36
f 46 36 25
f 25 36 35
f 67 10 68
f 68 10 66
f 15 11 67
f 67 11 10
f 68 66 69
f 69 66 65
f 106 108 110
f 110 108 107
f 110 107 40
f 40 107 43
f 114 116 106
f 106 116 108
f 115 117 114
f 114 117 116
f 69 65 149
f 149 65 152
f 149 152 150
f 150 152 148
f 169 184 170
f 170 184 172
f 170 172 171
f 171 172 177
f 175 178 176
f 176 178 118
f 176 118 115
f 115 118 117
f 179 174 175
f 175 174 178
f 171 177 179
f 179 177 174
f 180 181 185
f 185 181 183
f 185 183 169
f 169 183 184
f 189 194 190
f 190 194 182
f 190 182 180
f 180 182 181
f 150 148 193
f 193 148 192
f 193 192 189
f 189 192 194
