v 0.106557 1.11485 0.867557
v 0.141427 1.07104 0.863083
v 0.135844 1.11983 0.819876
v 0.164694 1.0216 0.85
v 0.168089 1.0722 0.811445
v 0.153953 1.11547 0.766875
v 0.174586 0.970322 0.829305
v 0.187802 1.01233 0.791364
v 0.170351 0.921093 0.802573
v 0.188493 0.959913 0.766244
v 0.19145 1.00158 0.728678
v 0.153953 1.12245 0.686875
v 0.182155 1.06866 0.667662
v 0.159506 1.1091 0.632589
v 0.19145 1.00856 0.648678
v 0.178996 1.0499 0.612735
v 0.152078 1.08777 0.581152
v 0.182155 1.06168 0.747662
v 0.0836044 1.15556 0.836379
v 0.109604 1.1577 0.784436
v 0.05345 1.18422 0.798626
v 0.123671 1.15415 0.640653
v 0.121173 1.13443 0.586032
v 0.0802066 1.17118 0.597304
v 0.05345 1.19121 0.718626
v 0.0708335 1.1903 0.657345
v 0.0183895 1.20564 0.677171
v 0.0322972 1.19523 0.61411
v -0.0189082 1.20474 0.63517
v 0.109604 1.16468 0.704436
v 0.0708335 1.18331 0.737345
v 0.0569008 1.12886 0.889786
v 0.0297577 1.16683 0.855146
v 0.00207569 1.13285 0.901374
v 0.0183895 1.19865 0.757171
v -0.00901328 1.19245 0.808056
v -0.0466464 1.20426 0.68402
v -0.0466464 1.19728 0.76402
v -0.071671 1.18158 0.811804
v -0.0360224 1.16544 0.862074
v -0.0537448 1.12652 0.901439
v -0.0920772 1.15185 0.854882
v -0.106311 1.11035 0.889977
v 0.0926371 1.07662 0.90629
v 0.0388938 1.08699 0.925857
v 0.070828 1.03234 0.933125
v -0.0268862 1.08559 0.932785
v -0.0830444 1.0729 0.924793
v -0.0542931 1.0297 0.946303
v 0.00925899 1.03276 0.949478
v 0.0427898 0.985402 0.946021
v -0.0222461 0.984026 0.95287
v 0.0106569 0.939365 0.943995
v 0.124387 1.0285 0.898848
v 0.0947522 0.974272 0.922468
v 0.06228 0.926204 0.926167
v 0.108325 0.918454 0.894929
v 0.1441 0.968626 0.878767
v 0.145286 0.916706 0.852658
v 0.167789 0.899865 0.750623
v 0.167789 0.906849 0.670623
v 0.151618 0.893038 0.618626
v 0.180928 0.948048 0.631781
v 0.188493 0.966897 0.686244
v 0.180928 0.941064 0.711781
v 0.123068 0.887695 0.570539
v 0.15434 0.936661 0.57228
v 0.0843116 0.891226 0.530024
v 0.117485 0.936484 0.527332
v 0.140878 0.986903 0.5355
v 0.175281 0.997396 0.58808
v 0.152709 1.03864 0.553907
v 0.116973 1.09088 0.537404
v 0.112548 1.03885 0.511886
v 0.0721255 1.08741 0.503749
v 0.0916075 0.978111 0.496087
v 0.0610446 0.928676 0.495207
v 0.0322932 0.971881 0.473697
v 0.0554622 1.03095 0.479394
v 0.0209505 1.0776 0.48275
v 0.000246303 1.01755 0.46713
v -0.0326567 1.06221 0.476006
v 0.0806518 1.13573 0.544378
v 0.0235656 1.12783 0.511886
v -0.0312896 1.11334 0.499254
v -0.0283779 1.15616 0.5355
v 0.0278141 1.17187 0.561071
v -0.0241433 1.18742 0.581985
v -0.0729331 1.193 0.625192
v -0.0786202 1.16962 0.57228
v -0.122243 1.1669 0.618626
v -0.0828687 1.12558 0.523096
v -0.0842798 1.07537 0.493833
v -0.130325 1.08312 0.525071
v -0.132217 1.13122 0.566797
v -0.163086 1.12842 0.61597
v -0.167286 1.08487 0.567342
v -0.19235 1.08049 0.617427
v -0.101381 1.18665 0.675483
v -0.101381 1.17967 0.755483
v -0.154977 1.14826 0.67
v -0.189789 1.10171 0.669377
v -0.154977 1.14127 0.75
v -0.189789 1.09473 0.749377
v -0.173618 1.10854 0.801374
v -0.12839 1.15266 0.809501
v -0.145067 1.11388 0.849461
v -0.139485 1.06509 0.892668
v -0.17634 1.06492 0.84772
v -0.162878 1.01468 0.8845
v -0.202927 1.05353 0.788219
v -0.210493 1.04166 0.653756
v -0.210493 1.03468 0.733756
v -0.21345 0.993015 0.771322
v -0.202927 1.06051 0.708219
v -0.197281 1.00418 0.83192
v -0.174709 0.962934 0.866093
v -0.200996 0.951675 0.807265
v -0.174078 0.913808 0.838848
v -0.113607 1.02347 0.923913
v -0.134548 0.962732 0.908114
v -0.138973 0.910694 0.882596
v -0.0941253 0.914172 0.916251
v -0.0774621 0.970629 0.940606
v -0.0429503 0.923978 0.93725
v 0.00928974 0.888242 0.920746
v -0.0455654 0.873749 0.908114
v 0.00637807 0.84542 0.8845
v -0.102652 0.865851 0.875622
v -0.143173 0.867149 0.833968
v -0.102206 0.830397 0.822696
v -0.0498139 0.829706 0.85893
v 0.00214352 0.814159 0.838015
v -0.054297 0.806351 0.805891
v -0.00309155 0.796839 0.78483
v 0.0608689 0.876 0.896904
v 0.0566204 0.831957 0.84772
v 0.0509333 0.808576 0.794808
v 0.100244 0.834679 0.801374
v 0.110217 0.870354 0.853203
v 0.141086 0.873161 0.80403
v 0.132978 0.85332 0.75
v 0.132978 0.860304 0.67
v 0.079381 0.814923 0.744517
v 0.0246466 0.797318 0.73598
v 0.079381 0.821907 0.664517
v 0.0246466 0.804302 0.65598
v 0.0496712 0.820003 0.608197
v 0.10639 0.848916 0.610499
v 0.0700773 0.849732 0.565118
v -0.128557 0.886724 0.552443
v -0.114637 0.92496 0.51371
v -0.0789007 0.87272 0.530214
v -0.0928278 0.969234 0.486875
v -0.0608936 0.914593 0.494143
v -0.0240755 0.868731 0.518626
v -0.0647896 1.01618 0.473979
v -0.0312588 0.968822 0.470523
v 0.00488639 0.915984 0.487215
v 0.031745 0.87506 0.518561
v -0.163427 0.930543 0.556917
v -0.186693 0.979974 0.57
v -0.146387 0.973077 0.521152
v -0.196586 1.03126 0.590695
v -0.1661 1.03295 0.541233
v -0.116752 1.02731 0.497532
v -0.157844 0.881753 0.600125
v -0.175953 0.886109 0.653125
v -0.190088 0.929376 0.608555
v -0.175953 0.879125 0.733126
v -0.181505 0.892477 0.787411
v -0.204155 0.932919 0.752338
v -0.209802 0.989251 0.628637
v -0.21345 0.999999 0.691322
v -0.204155 0.939903 0.672338
v -0.105604 0.846017 0.583621
v -0.0754498 0.817357 0.621374
v -0.131604 0.843882 0.635565
v -0.0754498 0.810373 0.701374
v -0.0403893 0.795942 0.742829
v -0.0928334 0.811281 0.762655
v -0.145671 0.847426 0.779347
v -0.0928334 0.818265 0.682655
v -0.131604 0.836898 0.715565
v -0.0517575 0.834746 0.564854
v 0.0140225 0.836138 0.557926
v -0.0129865 0.809128 0.611944
v -0.0403893 0.802926 0.662829
f 1 2 3
f 2 4 5
f 3 5 6
f 2 5 3
f 4 7 8
f 7 9 10
f 8 10 11
f 7 10 8
f 12 13 14
f 13 15 16
f 14 16 17
f 13 16 14
f 4 8 5
f 8 11 18
f 5 18 6
f 8 18 5
f 1 3 19
f 3 6 20
f 19 20 21
f 3 20 19
f 12 14 22
f 14 17 23
f 22 23 24
f 14 23 22
f 25 26 27
f 26 24 28
f 27 28 29
f 26 28 27
f 12 22 30
f 22 24 26
f 20 31 21
f 22 26 30
f 1 19 32
f 19 21 33
f 32 33 34
f 19 33 32
f 21 35 36
f 27 29 37
f 36 38 39
f 35 38 36
f 34 40 41
f 40 39 42
f 41 42 43
f 40 42 41
f 21 36 33
f 36 39 40
f 33 40 34
f 36 40 33
f 1 32 44
f 32 34 45
f 44 45 46
f 32 45 44
f 34 41 47
f 41 43 48
f 47 48 49
f 41 48 47
f 46 50 51
f 50 49 52
f 51 52 53
f 50 52 51
f 34 47 45
f 47 49 50
f 45 50 46
f 47 50 45
f 1 44 2
f 44 46 54
f 2 54 4
f 44 54 2
f 46 51 55
f 51 53 56
f 55 56 57
f 51 56 55
f 4 58 7
f 58 57 59
f 7 59 9
f 58 59 7
f 46 55 54
f 55 57 58
f 54 58 4
f 55 58 54
f 9 60 10
f 61 62 63
f 64 63 15
f 60 65 10
f 62 66 67
f 66 68 69
f 67 69 70
f 66 69 67
f 15 71 16
f 71 70 72
f 16 72 17
f 71 72 16
f 62 67 63
f 67 70 71
f 63 71 15
f 67 71 63
f 17 72 73
f 72 70 74
f 73 74 75
f 72 74 73
f 70 69 76
f 69 68 77
f 76 77 78
f 69 77 76
f 75 79 80
f 79 78 81
f 80 81 82
f 79 81 80
f 70 76 74
f 76 78 79
f 74 79 75
f 76 79 74
f 17 73 23
f 73 75 83
f 23 83 24
f 73 83 23
f 75 80 84
f 80 82 85
f 84 85 86
f 80 85 84
f 24 87 28
f 87 86 88
f 28 88 29
f 87 88 28
f 75 84 83
f 84 86 87
f 83 87 24
f 84 87 83
f 29 88 89
f 88 86 90
f 89 90 91
f 88 90 89
f 86 85 92
f 85 82 93
f 92 93 94
f 85 93 92
f 91 95 96
f 95 94 97
f 96 97 98
f 95 97 96
f 86 92 90
f 92 94 95
f 90 95 91
f 92 95 90
f 29 89 37
f 89 91 99
f 38 100 39
f 89 99 37
f 91 96 101
f 96 98 102
f 103 104 105
f 96 102 101
f 39 106 42
f 106 105 107
f 42 107 43
f 106 107 42
f 91 101 99
f 103 105 106
f 100 106 39
f 103 106 100
f 43 107 108
f 107 105 109
f 108 109 110
f 107 109 108
f 105 104 111
f 102 98 112
f 111 113 114
f 102 112 115
f 110 116 117
f 116 114 118
f 117 118 119
f 116 118 117
f 105 111 109
f 111 114 116
f 109 116 110
f 111 116 109
f 43 108 48
f 108 110 120
f 48 120 49
f 108 120 48
f 110 117 121
f 117 119 122
f 121 122 123
f 117 122 121
f 49 124 52
f 124 123 125
f 52 125 53
f 124 125 52
f 110 121 120
f 121 123 124
f 120 124 49
f 121 124 120
f 53 125 126
f 125 123 127
f 126 127 128
f 125 127 126
f 123 122 129
f 122 119 130
f 129 130 131
f 122 130 129
f 128 132 133
f 132 131 134
f 133 134 135
f 132 134 133
f 123 129 127
f 129 131 132
f 127 132 128
f 129 132 127
f 53 126 56
f 126 128 136
f 56 136 57
f 126 136 56
f 128 133 137
f 133 135 138
f 137 138 139
f 133 138 137
f 57 140 59
f 140 139 141
f 59 141 9
f 140 141 59
f 128 137 136
f 137 139 140
f 136 140 57
f 137 140 136
f 9 141 60
f 141 139 142
f 61 143 62
f 141 142 60
f 139 138 144
f 138 135 145
f 146 147 148
f 138 145 144
f 62 149 66
f 149 148 150
f 66 150 68
f 149 150 66
f 139 144 142
f 146 148 149
f 143 149 62
f 146 149 143
f 151 152 153
f 152 154 155
f 153 155 156
f 152 155 153
f 154 157 158
f 157 82 81
f 158 81 78
f 157 81 158
f 156 159 160
f 159 78 77
f 160 77 68
f 159 77 160
f 154 158 155
f 158 78 159
f 155 159 156
f 158 159 155
f 151 161 152
f 161 162 163
f 152 163 154
f 161 163 152
f 162 164 165
f 164 98 97
f 165 97 94
f 164 97 165
f 154 166 157
f 166 94 93
f 157 93 82
f 166 93 157
f 162 165 163
f 165 94 166
f 163 166 154
f 165 166 163
f 151 167 161
f 167 168 169
f 161 169 162
f 167 169 161
f 170 171 172
f 171 119 118
f 172 118 114
f 171 118 172
f 162 173 164
f 173 174 112
f 164 112 98
f 173 112 164
f 168 175 169
f 175 174 173
f 169 173 162
f 175 173 169
f 151 176 167
f 176 177 178
f 167 178 168
f 176 178 167
f 179 180 181
f 180 135 134
f 181 134 131
f 180 134 181
f 170 182 171
f 182 131 130
f 171 130 119
f 182 130 171
f 177 183 178
f 181 131 182
f 184 182 170
f 181 182 184
f 151 153 176
f 153 156 185
f 176 185 177
f 153 185 176
f 156 160 186
f 160 68 150
f 186 150 148
f 160 150 186
f 177 187 188
f 187 148 147
f 180 145 135
f 187 147 188
f 156 186 185
f 186 148 187
f 185 187 177
f 186 187 185
f 12 6 13
f 13 6 18
f 13 18 15
f 15 18 11
f 25 21 26
f 26 21 31
f 27 35 25
f 25 35 21
f 30 20 12
f 12 20 6
f 26 31 30
f 30 31 20
f 37 38 27
f 27 38 35
f 63 65 61
f 61 65 60
f 64 10 63
f 63 10 65
f 15 11 64
f 64 11 10
f 99 100 37
f 37 100 38
f 102 104 101
f 101 104 103
f 101 103 99
f 99 103 100
f 112 113 115
f 115 113 111
f 115 111 102
f 102 111 104
f 61 60 143
f 143 60 142
f 146 144 147
f 147 144 145
f 143 142 146
f 146 142 144
f 174 114 112
f 112 114 113
f 168 170 175
f 175 170 172
f 175 172 174
f 174 172 114
f 178 184 168
f 168 184 170
f 177 179 183
f 183 179 181
f 183 181 178
f 178 181 184
f 188 180 177
f 177 180 179
f 147 145 188
f 188 145 180
