v 0.106557 1.29552 0.867557
v 0.141427 1.2517 0.863083
v 0.135844 1.30049 0.819876
v 0.164694 1.20227 0.85
v 0.168089 1.25287 0.811445
v 0.153953 1.29614 0.766875
v 0.174586 1.15099 0.829305
v 0.187802 1.193 0.791364
v 0.170351 1.10176 0.802573
v 0.188493 1.14058 0.766244
v 0.19145 1.18225 0.728678
v 0.182155 1.24234 0.747662
v 0.159506 1.28279 0.712589
v 0.178996 1.22359 0.692735
v 0.0395055 1.28279 -0.207411
v 0.0589958 1.22359 -0.227265
v 0.0320783 1.26145 -0.258848
v 0.0621554 1.24234 -0.172338
v 0.0836044 1.33623 0.836379
v 0.109604 1.33836 0.784436
v 0.05345 1.36489 0.798626
v 0.123671 1.32784 0.720653
v 0.00117317 1.30811 -0.253968
v 0.00367127 1.32784 -0.199347
v -0.0397934 1.34487 -0.242696
v 0.0708335 1.36398 0.737345
v 0.0183895 1.37932 0.757171
v -0.0491665 1.36398 -0.182655
v -0.0877029 1.36891 -0.22589
v -0.101611 1.37932 -0.162829
v -0.138908 1.37842 -0.20483
v 0.0569008 1.30953 0.889786
v 0.0297577 1.3475 0.855146
v 0.00207569 1.31352 0.901374
v -0.00901328 1.37312 0.808056
v -0.166646 1.37794 -0.15598
v -0.0466464 1.37794 0.76402
v -0.071671 1.36224 0.811804
v -0.0360224 1.34611 0.862074
v -0.0537448 1.30719 0.901439
v -0.0920772 1.33251 0.854882
v -0.106311 1.29102 0.889977
v 0.0926371 1.25729 0.90629
v 0.0388938 1.26765 0.925857
v 0.070828 1.21301 0.933125
v -0.0268862 1.26626 0.932785
v -0.0830444 1.25357 0.924793
v -0.0542931 1.21037 0.946303
v 0.00925899 1.21342 0.949478
v 0.0427898 1.16607 0.946021
v -0.0222461 1.16469 0.95287
v 0.0106569 1.12003 0.943995
v 0.124387 1.20917 0.898848
v 0.0947522 1.15494 0.922468
v 0.06228 1.10687 0.926167
v 0.108325 1.09912 0.894929
v 0.1441 1.14929 0.878767
v 0.145286 1.09737 0.852658
v 0.167789 1.08053 0.750623
v 0.0477892 1.08053 -0.169377
v 0.0316179 1.06672 -0.221374
v 0.0609276 1.12173 -0.208219
v 0.180928 1.12173 0.711781
v 0.00306755 1.06138 -0.269461
v 0.0343401 1.11035 -0.26772
v -0.0356884 1.06491 -0.309976
v -0.002515 1.11017 -0.312668
v 0.0208777 1.16059 -0.3045
v 0.0714501 1.18225 -0.191322
v 0.0552812 1.17108 -0.25192
v 0.032709 1.21233 -0.286093
v -0.00302731 1.26457 -0.302596
v -0.00745151 1.21253 -0.328114
v -0.0478745 1.26109 -0.336251
v -0.0283926 1.1518 -0.343913
v -0.0589554 1.10236 -0.344793
v -0.0877068 1.14557 -0.366303
v -0.0645378 1.20463 -0.360606
v -0.0990496 1.25128 -0.35725
v -0.119754 1.19124 -0.37287
v -0.152657 1.2359 -0.363994
v -0.0393482 1.30941 -0.295622
v -0.0964344 1.30151 -0.328114
v -0.15129 1.28702 -0.340746
v -0.148378 1.32984 -0.3045
v -0.0921859 1.34556 -0.278929
v -0.144143 1.3611 -0.258015
v -0.192933 1.36669 -0.214808
v -0.19862 1.34331 -0.26772
v -0.242243 1.34058 -0.221374
v -0.202869 1.29926 -0.316904
v -0.20428 1.24906 -0.346167
v -0.250325 1.25681 -0.314929
v -0.252217 1.30491 -0.273203
v -0.283086 1.3021 -0.22403
v -0.287286 1.25856 -0.272658
v -0.31235 1.25417 -0.222573
v -0.221381 1.36034 -0.164517
v -0.101381 1.36034 0.755483
v -0.274977 1.32194 -0.17
v -0.309789 1.2754 -0.170623
v -0.293618 1.28921 -0.118626
v -0.12839 1.33333 0.809501
v -0.173618 1.28921 0.801374
v -0.145067 1.29455 0.849461
v -0.154977 1.32194 0.75
v -0.139485 1.24576 0.892668
v -0.17634 1.24559 0.84772
v -0.162878 1.19534 0.8845
v -0.189789 1.2754 0.749377
v -0.202927 1.2342 0.788219
v -0.330493 1.21535 -0.186244
v -0.322927 1.2342 -0.131781
v -0.33345 1.17368 -0.148678
v -0.197281 1.18485 0.83192
v -0.174709 1.1436 0.866093
v -0.21345 1.17368 0.771322
v -0.200996 1.13234 0.807265
v -0.174078 1.09448 0.838848
v -0.113607 1.20414 0.923913
v -0.134548 1.1434 0.908114
v -0.138973 1.09136 0.882596
v -0.0941253 1.09484 0.916251
v -0.0774621 1.1513 0.940606
v -0.0429503 1.10465 0.93725
v 0.00928974 1.06891 0.920746
v -0.0455654 1.05442 0.908114
v 0.00637807 1.02609 0.8845
v -0.102652 1.04652 0.875622
v -0.143173 1.04782 0.833968
v -0.102206 1.01107 0.822696
v -0.0498139 1.01037 0.85893
v 0.00214352 0.994827 0.838015
v -0.054297 0.987019 0.805891
v -0.00309155 0.977508 0.78483
v 0.0608689 1.05667 0.896904
v 0.0566204 1.01263 0.84772
v 0.0509333 0.989245 0.794808
v 0.100244 1.01535 0.801374
v 0.110217 1.05102 0.853203
v 0.141086 1.05383 0.80403
v 0.132978 1.03399 0.75
v 0.151618 1.06672 0.698626
v 0.079381 0.995592 0.744517
v 0.0246466 0.977986 0.73598
v -0.040619 0.995592 -0.175483
v -0.0953534 0.977986 -0.18402
v -0.0703288 0.993688 -0.231803
v -0.01361 1.0226 -0.229501
v -0.0499227 1.02342 -0.274882
v 0.0129775 1.03399 -0.17
v -0.248557 1.06041 -0.287557
v -0.234637 1.09864 -0.32629
v -0.198901 1.0464 -0.309786
v -0.212828 1.14292 -0.353125
v -0.180894 1.08828 -0.345857
v -0.144076 1.04242 -0.321374
v -0.18479 1.18986 -0.366021
v -0.151259 1.14251 -0.369477
v -0.115114 1.08967 -0.352785
v -0.088255 1.04874 -0.321439
v -0.283427 1.10423 -0.283083
v -0.306693 1.15366 -0.27
v -0.266387 1.14676 -0.318848
v -0.316586 1.20494 -0.249305
v -0.2861 1.20664 -0.298767
v -0.236752 1.20099 -0.342468
v -0.277844 1.05544 -0.239875
v -0.295953 1.05979 -0.186875
v -0.310088 1.10306 -0.231445
v -0.301505 1.07315 -0.132589
v -0.324155 1.11359 -0.167662
v -0.181505 1.07315 0.787411
v -0.320996 1.13234 -0.112735
v -0.204155 1.11359 0.752338
v -0.329802 1.16294 -0.211363
v -0.225604 1.0197 -0.256379
v -0.19545 0.991041 -0.218626
v -0.251604 1.01757 -0.204436
v -0.160389 0.976611 -0.177171
v -0.212833 0.991949 -0.157345
v -0.0403893 0.976611 0.742829
v -0.0928334 0.991949 0.762655
v -0.265671 1.02809 -0.140653
v -0.145671 1.02809 0.779347
v -0.171757 1.00843 -0.275146
v -0.105977 1.00982 -0.282074
v -0.132987 0.982813 -0.228056
f 1 2 3
f 2 4 5
f 3 5 6
f 2 5 3
f 4 7 8
f 7 9 10
f 8 10 11
f 7 10 8
f 6 12 13
f 12 11 14
f 15 16 17
f 18 16 15
f 4 8 5
f 8 11 12
f 5 12 6
f 8 12 5
f 1 3 19
f 3 6 20
f 19 20 21
f 3 20 19
f 6 13 22
f 15 17 23
f 24 23 25
f 15 23 24
f 21 26 27
f 28 25 29
f 30 29 31
f 28 29 30
f 6 22 20
f 24 25 28
f 20 26 21
f 22 26 20
f 1 19 32
f 19 21 33
f 32 33 34
f 19 33 32
f 21 27 35
f 30 31 36
f 35 37 38
f 27 37 35
f 34 39 40
f 39 38 41
f 40 41 42
f 39 41 40
f 21 35 33
f 35 38 39
f 33 39 34
f 35 39 33
f 1 32 43
f 32 34 44
f 43 44 45
f 32 44 43
f 34 40 46
f 40 42 47
f 46 47 48
f 40 47 46
f 45 49 50
f 49 48 51
f 50 51 52
f 49 51 50
f 34 46 44
f 46 48 49
f 44 49 45
f 46 49 44
f 1 43 2
f 43 45 53
f 2 53 4
f 43 53 2
f 45 50 54
f 50 52 55
f 54 55 56
f 50 55 54
f 4 57 7
f 57 56 58
f 7 58 9
f 57 58 7
f 45 54 53
f 54 56 57
f 53 57 4
f 54 57 53
f 9 59 10
f 60 61 62
f 10 63 11
f 59 63 10
f 61 64 65
f 64 66 67
f 65 67 68
f 64 67 65
f 69 70 16
f 70 68 71
f 16 71 17
f 70 71 16
f 61 65 62
f 65 68 70
f 62 70 69
f 65 70 62
f 17 71 72
f 71 68 73
f 72 73 74
f 71 73 72
f 68 67 75
f 67 66 76
f 75 76 77
f 67 76 75
f 74 78 79
f 78 77 80
f 79 80 81
f 78 80 79
f 68 75 73
f 75 77 78
f 73 78 74
f 75 78 73
f 17 72 23
f 72 74 82
f 23 82 25
f 72 82 23
f 74 79 83
f 79 81 84
f 83 84 85
f 79 84 83
f 25 86 29
f 86 85 87
f 29 87 31
f 86 87 29
f 74 83 82
f 83 85 86
f 82 86 25
f 83 86 82
f 31 87 88
f 87 85 89
f 88 89 90
f 87 89 88
f 85 84 91
f 84 81 92
f 91 92 93
f 84 92 91
f 90 94 95
f 94 93 96
f 95 96 97
f 94 96 95
f 85 91 89
f 91 93 94
f 89 94 90
f 91 94 89
f 31 88 36
f 88 90 98
f 37 99 38
f 88 98 36
f 90 95 100
f 95 97 101
f 100 101 102
f 95 101 100
f 38 103 41
f 103 104 105
f 41 105 42
f 103 105 41
f 90 100 98
f 106 104 103
f 99 103 38
f 106 103 99
f 42 105 107
f 105 104 108
f 107 108 109
f 105 108 107
f 104 110 111
f 101 97 112
f 113 112 114
f 101 112 113
f 109 115 116
f 115 117 118
f 116 118 119
f 115 118 116
f 104 111 108
f 111 117 115
f 108 115 109
f 111 115 108
f 42 107 47
f 107 109 120
f 47 120 48
f 107 120 47
f 109 116 121
f 116 119 122
f 121 122 123
f 116 122 121
f 48 124 51
f 124 123 125
f 51 125 52
f 124 125 51
f 109 121 120
f 121 123 124
f 120 124 48
f 121 124 120
f 52 125 126
f 125 123 127
f 126 127 128
f 125 127 126
f 123 122 129
f 122 119 130
f 129 130 131
f 122 130 129
f 128 132 133
f 132 131 134
f 133 134 135
f 132 134 133
f 123 129 127
f 129 131 132
f 127 132 128
f 129 132 127
f 52 126 55
f 126 128 136
f 55 136 56
f 126 136 55
f 128 133 137
f 133 135 138
f 137 138 139
f 133 138 137
f 56 140 58
f 140 139 141
f 58 141 9
f 140 141 58
f 128 137 136
f 137 139 140
f 136 140 56
f 137 140 136
f 9 141 59
f 141 139 142
f 59 142 143
f 141 142 59
f 139 138 144
f 138 135 145
f 146 147 148
f 138 145 144
f 61 149 64
f 149 148 150
f 64 150 66
f 149 150 64
f 139 144 142
f 146 148 149
f 151 149 61
f 146 149 151
f 152 153 154
f 153 155 156
f 154 156 157
f 153 156 154
f 155 158 159
f 158 81 80
f 159 80 77
f 158 80 159
f 157 160 161
f 160 77 76
f 161 76 66
f 160 76 161
f 155 159 156
f 159 77 160
f 156 160 157
f 159 160 156
f 152 162 153
f 162 163 164
f 153 164 155
f 162 164 153
f 163 165 166
f 165 97 96
f 166 96 93
f 165 96 166
f 155 167 158
f 167 93 92
f 158 92 81
f 167 92 158
f 163 166 164
f 166 93 167
f 164 167 155
f 166 167 164
f 152 168 162
f 168 169 170
f 162 170 163
f 168 170 162
f 169 171 172
f 173 119 118
f 172 174 114
f 173 118 175
f 163 176 165
f 176 114 112
f 165 112 97
f 176 112 165
f 169 172 170
f 172 114 176
f 170 176 163
f 172 176 170
f 152 177 168
f 177 178 179
f 168 179 169
f 177 179 168
f 178 180 181
f 182 135 134
f 183 134 131
f 182 134 183
f 169 184 171
f 185 131 130
f 173 130 119
f 185 130 173
f 178 181 179
f 183 131 185
f 179 184 169
f 181 184 179
f 152 154 177
f 154 157 186
f 177 186 178
f 154 186 177
f 157 161 187
f 161 66 150
f 187 150 148
f 161 150 187
f 178 188 180
f 188 148 147
f 182 145 135
f 188 147 180
f 157 187 186
f 187 148 188
f 186 188 178
f 187 188 186
f 12 18 13
f 13 18 15
f 11 69 14
f 14 69 16
f 14 16 12
f 12 16 18
f 13 15 22
f 22 15 24
f 26 28 27
f 27 28 30
f 22 24 26
f 26 24 28
f 27 30 37
f 37 30 36
f 63 62 11
f 11 62 69
f 59 60 63
f 63 60 62
f 37 36 99
f 99 36 98
f 106 100 104
f 104 100 102
f 99 98 106
f 106 98 100
f 104 102 110
f 110 102 101
f 110 101 111
f 111 101 113
f 117 114 118
f 118 114 174
f 111 113 117
f 117 113 114
f 142 151 143
f 143 151 61
f 143 61 59
f 59 61 60
f 145 147 144
f 144 147 146
f 144 146 142
f 142 146 151
f 118 174 175
f 175 174 172
f 175 172 173
f 173 172 171
f 183 181 182
f 182 181 180
f 173 171 185
f 185 171 184
f 185 184 183
f 183 184 181
f 182 180 145
f 145 180 147
