v -0.0134429 1.29552 -0.0524429
v 0.0214269 1.2517 -0.0569173
v 0.0158444 1.30049 -0.100125
v 0.0446935 1.20227 -0.0699999
v 0.0480886 1.25287 -0.108555
v 0.0339534 1.29614 -0.153125
v 0.0545857 1.15099 -0.0906949
v 0.0678019 1.193 -0.128636
v 0.0545857 1.12044 -0.0906949
v 0.0503505 1.07121 -0.117427
v 0.0684934 1.11003 -0.153756
v 0.0678019 1.16244 -0.128636
v 0.0714501 1.15169 -0.191322
v 0.0621554 1.24234 -0.172338
v 0.0395055 1.28279 -0.207411
v 0.0714501 1.18225 -0.191322
v 0.0589958 1.22359 -0.227265
v 0.0320783 1.26145 -0.258848
v -0.0363957 1.33623 -0.0836209
v -0.0103955 1.33836 -0.135564
v -0.06655 1.36489 -0.121374
v 0.00367127 1.32784 -0.199347
v 0.00117317 1.30811 -0.253968
v -0.0397934 1.34487 -0.242696
v -0.0491665 1.36398 -0.182655
v -0.101611 1.37932 -0.162829
v -0.0877029 1.36891 -0.22589
v -0.138908 1.37842 -0.20483
v -0.0630992 1.30953 -0.0302138
v -0.0902423 1.3475 -0.0648537
v -0.117924 1.31352 -0.0186256
v -0.129013 1.37312 -0.111944
v -0.166646 1.37794 -0.15598
v -0.191671 1.36224 -0.108197
v -0.156022 1.34611 -0.0579258
v -0.173745 1.30719 -0.0185606
v -0.212077 1.33251 -0.0651181
v -0.226311 1.29102 -0.0300236
v -0.0273629 1.25729 -0.0137101
v -0.0811062 1.26765 0.00585698
v -0.049172 1.21301 0.0131254
v -0.146886 1.26626 0.0127849
v -0.203044 1.25357 0.00479268
v -0.174293 1.21037 0.0263032
v -0.110741 1.21342 0.0294774
v -0.0772102 1.16607 0.0260209
v -0.142246 1.16469 0.0328704
v -0.0772102 1.13552 0.0260209
v -0.142246 1.13414 0.0328704
v -0.109343 1.08948 0.0239945
v 0.00438704 1.20917 -0.0211521
v -0.0252478 1.15494 0.00246835
v -0.05772 1.07632 0.00616688
v -0.0252478 1.12439 0.00246835
v -0.0116753 1.06857 -0.0250712
v 0.0446935 1.17172 -0.0699999
v 0.0241003 1.11874 -0.0412333
v 0.0252861 1.06682 -0.0673417
v 0.0241003 1.14929 -0.0412333
v 0.00438704 1.17862 -0.0211521
v 0.0477892 1.04998 -0.169377
v 0.0316179 1.03617 -0.221374
v 0.0609276 1.09118 -0.208219
v 0.00306755 1.03083 -0.269461
v 0.0343401 1.07979 -0.26772
v -0.0356884 1.03436 -0.309976
v -0.002515 1.07961 -0.312668
v 0.0208777 1.13003 -0.3045
v 0.0552812 1.17108 -0.25192
v 0.0208777 1.16059 -0.3045
v 0.032709 1.21233 -0.286093
v 0.0552812 1.14053 -0.25192
v -0.00302731 1.26457 -0.302596
v -0.00745151 1.21253 -0.328114
v -0.0478745 1.26109 -0.336251
v -0.0283926 1.12124 -0.343913
v -0.0589554 1.07181 -0.344793
v -0.0877068 1.11501 -0.366303
v -0.0645378 1.20463 -0.360606
v -0.0990496 1.25128 -0.35725
v -0.0877068 1.14557 -0.366303
v -0.119754 1.19124 -0.37287
v -0.152657 1.2359 -0.363994
v -0.00745151 1.18198 -0.328114
v -0.0645378 1.17408 -0.360606
v -0.0283926 1.1518 -0.343913
v -0.0393482 1.30941 -0.295622
v -0.0964344 1.30151 -0.328114
v -0.15129 1.28702 -0.340746
v -0.148378 1.32984 -0.3045
v -0.0921859 1.34556 -0.278929
v -0.144143 1.3611 -0.258015
v -0.192933 1.36669 -0.214808
v -0.19862 1.34331 -0.26772
v -0.242243 1.34058 -0.221374
v -0.202869 1.29926 -0.316904
v -0.20428 1.24906 -0.346167
v -0.250325 1.25681 -0.314929
v -0.252217 1.30491 -0.273203
v -0.283086 1.3021 -0.22403
v -0.287286 1.25856 -0.272658
v -0.31235 1.25417 -0.222573
v -0.221381 1.36034 -0.164517
v -0.274977 1.32194 -0.17
v -0.309789 1.2754 -0.170623
v -0.293618 1.28921 -0.118626
v -0.24839 1.33333 -0.110499
v -0.265067 1.29455 -0.070539
v -0.259485 1.24576 -0.0273317
v -0.29634 1.24559 -0.0722802
v -0.282878 1.19534 -0.0355002
v -0.322927 1.2342 -0.131781
v -0.330493 1.21535 -0.186244
v -0.33345 1.17368 -0.148678
v -0.282878 1.16479 -0.0355002
v -0.317281 1.1543 -0.0880796
v -0.294709 1.11305 -0.0539073
v -0.33345 1.14313 -0.148678
v -0.320996 1.10179 -0.112735
v -0.294078 1.06392 -0.0811517
v -0.317281 1.18485 -0.0880796
v -0.233607 1.20414 0.0039134
v -0.254548 1.11285 -0.011886
v -0.258973 1.06081 -0.0374036
v -0.214125 1.06429 -0.00374918
v -0.174293 1.17981 0.0263032
v -0.197462 1.12074 0.0206059
v -0.16295 1.07409 0.0172497
v -0.254548 1.1434 -0.011886
v -0.197462 1.1513 0.0206059
v -0.233607 1.17358 0.0039134
v -0.11071 1.03836 0.000745997
v -0.165565 1.02386 -0.0118861
v -0.113622 0.995534 -0.0355003
v -0.222652 1.01597 -0.044378
v -0.263173 1.01726 -0.0860317
v -0.222206 0.980511 -0.0973037
v -0.169814 0.97982 -0.0610706
v -0.117856 0.964273 -0.0819851
v -0.174297 0.956465 -0.11411
v -0.123092 0.946954 -0.13517
v -0.0591311 1.02611 -0.0230957
v -0.0633796 0.982071 -0.0722802
v -0.0690667 0.958691 -0.125192
v -0.0197564 0.984794 -0.118626
v -0.00978305 1.02047 -0.0667973
v 0.0210857 1.02328 -0.11597
v 0.0129775 1.00343 -0.17
v -0.040619 0.965038 -0.175483
v -0.0953534 0.947432 -0.18402
v -0.0703288 0.963134 -0.231803
v -0.01361 0.992047 -0.229501
v -0.0499227 0.992863 -0.274882
v -0.248557 1.02985 -0.287557
v -0.234637 1.06809 -0.32629
v -0.198901 1.01585 -0.309786
v -0.212828 1.11236 -0.353125
v -0.180894 1.05772 -0.345857
v -0.144076 1.01186 -0.321374
v -0.18479 1.15931 -0.366021
v -0.151259 1.11195 -0.369477
v -0.18479 1.18986 -0.366021
v -0.119754 1.16068 -0.37287
v -0.115114 1.05911 -0.352785
v -0.088255 1.01819 -0.321439
v -0.283427 1.07367 -0.283083
v -0.306693 1.1231 -0.27
v -0.266387 1.11621 -0.318848
v -0.306693 1.15366 -0.27
v -0.316586 1.20494 -0.249305
v -0.2861 1.20664 -0.298767
v -0.236752 1.17044 -0.342468
v -0.236752 1.20099 -0.342468
v -0.2861 1.17608 -0.298767
v -0.266387 1.14676 -0.318848
v -0.277844 1.02488 -0.239875
v -0.295953 1.02924 -0.186875
v -0.310088 1.07251 -0.231445
v -0.301505 1.04259 -0.132589
v -0.324155 1.08303 -0.167662
v -0.329802 1.13238 -0.211363
v -0.316586 1.17439 -0.249305
v -0.329802 1.16294 -0.211363
v -0.225604 0.989147 -0.256379
v -0.19545 0.960487 -0.218626
v -0.251604 0.987013 -0.204436
v -0.160389 0.946056 -0.177171
v -0.212833 0.961395 -0.157345
v -0.265671 0.99754 -0.140653
v -0.171757 0.977877 -0.275146
v -0.105977 0.979268 -0.282074
v -0.132987 0.952259 -0.228056
f 1 2 3
f 2 4 5
f 3 5 6
f 2 5 3
f 4 7 8
f 9 10 11
f 12 11 13
f 9 11 12
f 6 14 15
f 14 16 17
f 15 17 18
f 14 17 15
f 4 8 5
f 8 16 14
f 5 14 6
f 8 14 5
f 1 3 19
f 3 6 20
f 19 20 21
f 3 20 19
f 6 15 22
f 15 18 23
f 22 23 24
f 15 23 22
f 21 25 26
f 25 24 27
f 26 27 28
f 25 27 26
f 6 22 20
f 22 24 25
f 20 25 21
f 22 25 20
f 1 19 29
f 19 21 30
f 29 30 31
f 19 30 29
f 21 26 32
f 26 28 33
f 32 33 34
f 26 33 32
f 31 35 36
f 35 34 37
f 36 37 38
f 35 37 36
f 21 32 30
f 32 34 35
f 30 35 31
f 32 35 30
f 1 29 39
f 29 31 40
f 39 40 41
f 29 40 39
f 31 36 42
f 36 38 43
f 42 43 44
f 36 43 42
f 41 45 46
f 45 44 47
f 48 49 50
f 45 47 46
f 31 42 40
f 42 44 45
f 40 45 41
f 42 45 40
f 1 39 2
f 39 41 51
f 2 51 4
f 39 51 2
f 41 46 52
f 48 50 53
f 54 53 55
f 48 53 54
f 56 57 9
f 57 55 58
f 9 58 10
f 57 58 9
f 41 52 51
f 54 55 57
f 51 59 4
f 54 57 60
f 10 61 11
f 61 62 63
f 11 63 13
f 61 63 11
f 62 64 65
f 64 66 67
f 65 67 68
f 64 67 65
f 16 69 17
f 69 70 71
f 17 71 18
f 69 71 17
f 62 65 63
f 65 68 72
f 63 72 13
f 65 72 63
f 18 71 73
f 71 70 74
f 73 74 75
f 71 74 73
f 68 67 76
f 67 66 77
f 76 77 78
f 67 77 76
f 75 79 80
f 79 81 82
f 80 82 83
f 79 82 80
f 68 76 84
f 76 78 85
f 74 79 75
f 86 79 74
f 18 73 23
f 73 75 87
f 23 87 24
f 73 87 23
f 75 80 88
f 80 83 89
f 88 89 90
f 80 89 88
f 24 91 27
f 91 90 92
f 27 92 28
f 91 92 27
f 75 88 87
f 88 90 91
f 87 91 24
f 88 91 87
f 28 92 93
f 92 90 94
f 93 94 95
f 92 94 93
f 90 89 96
f 89 83 97
f 96 97 98
f 89 97 96
f 95 99 100
f 99 98 101
f 100 101 102
f 99 101 100
f 90 96 94
f 96 98 99
f 94 99 95
f 96 99 94
f 28 93 33
f 93 95 103
f 33 103 34
f 93 103 33
f 95 100 104
f 100 102 105
f 104 105 106
f 100 105 104
f 34 107 37
f 107 106 108
f 37 108 38
f 107 108 37
f 95 104 103
f 104 106 107
f 103 107 34
f 104 107 103
f 38 108 109
f 108 106 110
f 109 110 111
f 108 110 109
f 106 105 112
f 105 102 113
f 112 113 114
f 105 113 112
f 115 116 117
f 116 118 119
f 117 119 120
f 116 119 117
f 106 112 110
f 112 114 121
f 110 121 111
f 112 121 110
f 38 109 43
f 109 111 122
f 43 122 44
f 109 122 43
f 115 117 123
f 117 120 124
f 123 124 125
f 117 124 123
f 126 127 49
f 127 125 128
f 49 128 50
f 127 128 49
f 111 129 122
f 123 125 127
f 122 130 44
f 123 127 131
f 50 128 132
f 128 125 133
f 132 133 134
f 128 133 132
f 125 124 135
f 124 120 136
f 135 136 137
f 124 136 135
f 134 138 139
f 138 137 140
f 139 140 141
f 138 140 139
f 125 135 133
f 135 137 138
f 133 138 134
f 135 138 133
f 50 132 53
f 132 134 142
f 53 142 55
f 132 142 53
f 134 139 143
f 139 141 144
f 143 144 145
f 139 144 143
f 55 146 58
f 146 145 147
f 58 147 10
f 146 147 58
f 134 143 142
f 143 145 146
f 142 146 55
f 143 146 142
f 10 147 61
f 147 145 148
f 61 148 62
f 147 148 61
f 145 144 149
f 144 141 150
f 149 150 151
f 144 150 149
f 62 152 64
f 152 151 153
f 64 153 66
f 152 153 64
f 145 149 148
f 149 151 152
f 148 152 62
f 149 152 148
f 154 155 156
f 155 157 158
f 156 158 159
f 155 158 156
f 157 160 161
f 162 83 82
f 161 163 78
f 160 163 161
f 159 164 165
f 164 78 77
f 165 77 66
f 164 77 165
f 157 161 158
f 161 78 164
f 158 164 159
f 161 164 158
f 154 166 155
f 166 167 168
f 155 168 157
f 166 168 155
f 169 170 171
f 170 102 101
f 171 101 98
f 170 101 171
f 157 172 160
f 173 98 97
f 162 97 83
f 173 97 162
f 167 174 168
f 171 98 173
f 168 172 157
f 171 173 175
f 154 176 166
f 176 177 178
f 166 178 167
f 176 178 166
f 177 179 180
f 179 120 119
f 180 119 118
f 179 119 180
f 167 181 182
f 183 114 113
f 170 113 102
f 183 113 170
f 177 180 178
f 180 118 181
f 178 181 167
f 180 181 178
f 154 184 176
f 184 185 186
f 176 186 177
f 184 186 176
f 185 187 188
f 187 141 140
f 188 140 137
f 187 140 188
f 177 189 179
f 189 137 136
f 179 136 120
f 189 136 179
f 185 188 186
f 188 137 189
f 186 189 177
f 188 189 186
f 154 156 184
f 156 159 190
f 184 190 185
f 156 190 184
f 159 165 191
f 165 66 153
f 191 153 151
f 165 153 191
f 185 192 187
f 192 151 150
f 187 150 141
f 192 150 187
f 159 191 190
f 191 151 192
f 190 192 185
f 191 192 190
f 4 56 7
f 7 56 9
f 7 9 8
f 8 9 12
f 8 12 16
f 16 12 13
f 44 126 47
f 47 126 49
f 47 49 46
f 46 49 48
f 46 48 52
f 52 48 54
f 52 54 51
f 51 54 60
f 51 60 59
f 59 60 57
f 59 57 4
f 4 57 56
f 16 13 69
f 69 13 72
f 69 72 70
f 70 72 68
f 70 68 74
f 74 68 84
f 79 85 81
f 81 85 78
f 81 78 82
f 82 78 163
f 86 76 79
f 79 76 85
f 74 84 86
f 86 84 76
f 114 118 121
f 121 118 116
f 121 116 111
f 111 116 115
f 111 115 129
f 129 115 123
f 129 123 122
f 122 123 131
f 122 131 130
f 130 131 127
f 130 127 44
f 44 127 126
f 82 163 162
f 162 163 160
f 169 167 170
f 170 167 182
f 171 174 169
f 169 174 167
f 162 160 173
f 173 160 172
f 173 172 175
f 175 172 168
f 175 168 171
f 171 168 174
f 183 181 114
f 114 181 118
f 170 182 183
f 183 182 181
