v -0.0134429 1.26497 -0.0524429
v 0.0214269 1.22115 -0.0569173
v 0.0158444 1.26994 -0.100125
v 0.0446935 1.17172 -0.0699999
v 0.0480886 1.22232 -0.108555
v 0.0339534 1.26558 -0.153125
v 0.0545857 1.12044 -0.0906949
v 0.0678019 1.16244 -0.128636
v 0.0503505 1.07121 -0.117427
v 0.0684934 1.11003 -0.153756
v 0.0714501 1.15169 -0.191322
v 0.0621554 1.21179 -0.172338
v 0.0395055 1.25223 -0.207411
v 0.0621554 1.18544 -0.292338
v 0.0714501 1.12535 -0.311322
v 0.0589958 1.16669 -0.347265
v 0.0395055 1.22588 -0.327411
v 0.0320783 1.20455 -0.378848
v -0.0363957 1.30568 -0.0836209
v -0.0103955 1.30781 -0.135564
v -0.06655 1.33434 -0.121374
v 0.00367127 1.29728 -0.199347
v 0.00117317 1.25121 -0.373968
v 0.00367127 1.27094 -0.319347
v -0.0397934 1.28796 -0.362696
v -0.0491665 1.33343 -0.182655
v -0.101611 1.34877 -0.162829
v -0.0491665 1.30708 -0.302655
v -0.0877029 1.31201 -0.34589
v -0.0877029 1.33836 -0.22589
v -0.138908 1.34787 -0.20483
v -0.0630992 1.27897 -0.0302138
v -0.0902423 1.31695 -0.0648537
v -0.117924 1.28296 -0.0186256
v -0.129013 1.34256 -0.111944
v -0.166646 1.34739 -0.15598
v -0.191671 1.33169 -0.108197
v -0.156022 1.31555 -0.0579258
v -0.173745 1.27663 -0.0185606
v -0.212077 1.30196 -0.0651181
v -0.226311 1.26047 -0.0300236
v -0.0273629 1.22673 -0.0137101
v -0.0811062 1.2371 0.00585698
v -0.049172 1.18246 0.0131254
v -0.146886 1.23571 0.0127849
v -0.203044 1.22302 0.00479268
v -0.174293 1.17981 0.0263032
v -0.110741 1.18287 0.0294774
v -0.0772102 1.13552 0.0260209
v -0.142246 1.13414 0.0328704
v -0.109343 1.08948 0.0239945
v 0.00438704 1.17862 -0.0211521
v -0.0252478 1.12439 0.00246835
v -0.05772 1.07632 0.00616688
v -0.0116753 1.06857 -0.0250712
v 0.0241003 1.11874 -0.0412333
v 0.0252861 1.06682 -0.0673417
v 0.0477892 1.04998 -0.169377
v 0.0477892 1.02363 -0.289377
v 0.0316179 1.00982 -0.341374
v 0.0609276 1.06483 -0.328219
v 0.0684934 1.08368 -0.273756
v 0.00306755 1.00448 -0.389461
v 0.0343401 1.05344 -0.38772
v -0.0356884 1.00801 -0.429976
v -0.002515 1.05327 -0.432668
v 0.0208777 1.10369 -0.4245
v 0.0552812 1.11418 -0.37192
v 0.032709 1.15543 -0.406093
v -0.00302731 1.20767 -0.422596
v -0.00745151 1.15563 -0.448114
v -0.0478745 1.20419 -0.456251
v -0.0283926 1.09489 -0.463913
v -0.0589554 1.04546 -0.464793
v -0.0877068 1.08866 -0.486303
v -0.0645378 1.14773 -0.480606
v -0.0990496 1.19438 -0.47725
v -0.119754 1.13434 -0.49287
v -0.152657 1.179 -0.483994
v -0.0393482 1.25251 -0.415622
v -0.0964344 1.24461 -0.448114
v -0.15129 1.23012 -0.460746
v -0.148378 1.27294 -0.4245
v -0.0921859 1.28866 -0.398929
v -0.144143 1.3042 -0.378015
v -0.138908 1.32152 -0.32483
v -0.192933 1.30979 -0.334808
v -0.19862 1.2864 -0.38772
v -0.242243 1.28368 -0.341374
v -0.202869 1.24236 -0.436904
v -0.20428 1.19216 -0.466167
v -0.250325 1.19991 -0.434929
v -0.252217 1.24801 -0.393203
v -0.283086 1.2452 -0.34403
v -0.287286 1.20166 -0.392658
v -0.31235 1.19727 -0.342573
v -0.192933 1.33613 -0.214808
v -0.242243 1.31003 -0.221374
v -0.221381 1.32979 -0.164517
v -0.274977 1.26504 -0.29
v -0.309789 1.2185 -0.290623
v -0.274977 1.29139 -0.17
v -0.309789 1.24484 -0.170623
v -0.293618 1.25865 -0.118626
v -0.283086 1.27155 -0.22403
v -0.24839 1.30278 -0.110499
v -0.265067 1.264 -0.070539
v -0.259485 1.21521 -0.0273317
v -0.29634 1.21503 -0.0722802
v -0.282878 1.16479 -0.0355002
v -0.322927 1.20364 -0.131781
v -0.330493 1.15845 -0.306244
v -0.330493 1.1848 -0.186244
v -0.33345 1.14313 -0.148678
v -0.317281 1.1543 -0.0880796
v -0.294709 1.11305 -0.0539073
v -0.320996 1.10179 -0.112735
v -0.294078 1.06392 -0.0811517
v -0.233607 1.17358 0.0039134
v -0.254548 1.11285 -0.011886
v -0.258973 1.06081 -0.0374036
v -0.214125 1.06429 -0.00374918
v -0.197462 1.12074 0.0206059
v -0.16295 1.07409 0.0172497
v -0.11071 1.03836 0.000745997
v -0.165565 1.02386 -0.0118861
v -0.113622 0.995534 -0.0355003
v -0.222652 1.01597 -0.044378
v -0.263173 1.01726 -0.0860317
v -0.222206 0.980511 -0.0973037
v -0.169814 0.97982 -0.0610706
v -0.117856 0.964273 -0.0819851
v -0.174297 0.956465 -0.11411
v -0.123092 0.946954 -0.13517
v -0.0591311 1.02611 -0.0230957
v -0.0633796 0.982071 -0.0722802
v -0.0690667 0.958691 -0.125192
v -0.0197564 0.984794 -0.118626
v -0.00978305 1.02047 -0.0667973
v 0.0210857 1.02328 -0.11597
v 0.0129775 1.00343 -0.17
v 0.0129775 0.977087 -0.29
v 0.0210857 0.996929 -0.23597
v -0.0197564 0.958447 -0.238626
v -0.0690667 0.932344 -0.245192
v -0.040619 0.938691 -0.295483
v -0.123092 0.920607 -0.25517
v -0.0953534 0.921085 -0.30402
v -0.0703288 0.936787 -0.351803
v -0.01361 0.9657 -0.349501
v -0.0499227 0.966516 -0.394882
v -0.248557 1.00351 -0.407557
v -0.234637 1.04174 -0.44629
v -0.198901 0.989503 -0.429786
v -0.212828 1.08602 -0.473125
v -0.180894 1.03138 -0.465857
v -0.144076 0.985514 -0.441374
v -0.18479 1.13296 -0.486021
v -0.151259 1.08561 -0.489477
v -0.115114 1.03277 -0.472785
v -0.088255 0.991844 -0.441439
v -0.283427 1.04733 -0.403083
v -0.306693 1.09676 -0.39
v -0.266387 1.08986 -0.438848
v -0.316586 1.14804 -0.369305
v -0.2861 1.14974 -0.418767
v -0.236752 1.14409 -0.462468
v -0.277844 0.998536 -0.359875
v -0.295953 1.00289 -0.306875
v -0.310088 1.04616 -0.351445
v -0.301505 1.01624 -0.252589
v -0.324155 1.05669 -0.287662
v -0.301505 1.04259 -0.132589
v -0.324155 1.08303 -0.167662
v -0.329802 1.10603 -0.331363
v -0.33345 1.11678 -0.268678
v -0.225604 0.9628 -0.376379
v -0.19545 0.93414 -0.338626
v -0.251604 0.960666 -0.324436
v -0.160389 0.919709 -0.297171
v -0.212833 0.935048 -0.277345
v -0.174297 0.930118 -0.23411
v -0.212833 0.961395 -0.157345
v -0.265671 0.971193 -0.260653
v -0.265671 0.99754 -0.140653
v -0.171757 0.95153 -0.395146
v -0.105977 0.952921 -0.402074
v -0.132987 0.925912 -0.348056
f 1 2 3
f 2 4 5
f 3 5 6
f 2 5 3
f 4 7 8
f 7 9 10
f 8 10 11
f 7 10 8
f 6 12 13
f 14 15 16
f 17 16 18
f 14 16 17
f 4 8 5
f 8 11 12
f 5 12 6
f 8 12 5
f 1 3 19
f 3 6 20
f 19 20 21
f 3 20 19
f 6 13 22
f 17 18 23
f 24 23 25
f 17 23 24
f 21 26 27
f 28 25 29
f 27 30 31
f 26 30 27
f 6 22 20
f 24 25 28
f 20 26 21
f 22 26 20
f 1 19 32
f 19 21 33
f 32 33 34
f 19 33 32
f 21 27 35
f 27 31 36
f 35 36 37
f 27 36 35
f 34 38 39
f 38 37 40
f 39 40 41
f 38 40 39
f 21 35 33
f 35 37 38
f 33 38 34
f 35 38 33
f 1 32 42
f 32 34 43
f 42 43 44
f 32 43 42
f 34 39 45
f 39 41 46
f 45 46 47
f 39 46 45
f 44 48 49
f 48 47 50
f 49 50 51
f 48 50 49
f 34 45 43
f 45 47 48
f 43 48 44
f 45 48 43
f 1 42 2
f 42 44 52
f 2 52 4
f 42 52 2
f 44 49 53
f 49 51 54
f 53 54 55
f 49 54 53
f 4 56 7
f 56 55 57
f 7 57 9
f 56 57 7
f 44 53 52
f 53 55 56
f 52 56 4
f 53 56 52
f 9 58 10
f 59 60 61
f 62 61 15
f 59 61 62
f 60 63 64
f 63 65 66
f 64 66 67
f 63 66 64
f 15 68 16
f 68 67 69
f 16 69 18
f 68 69 16
f 60 64 61
f 64 67 68
f 61 68 15
f 64 68 61
f 18 69 70
f 69 67 71
f 70 71 72
f 69 71 70
f 67 66 73
f 66 65 74
f 73 74 75
f 66 74 73
f 72 76 77
f 76 75 78
f 77 78 79
f 76 78 77
f 67 73 71
f 73 75 76
f 71 76 72
f 73 76 71
f 18 70 23
f 70 72 80
f 23 80 25
f 70 80 23
f 72 77 81
f 77 79 82
f 81 82 83
f 77 82 81
f 25 84 29
f 84 83 85
f 29 85 86
f 84 85 29
f 72 81 80
f 81 83 84
f 80 84 25
f 81 84 80
f 86 85 87
f 85 83 88
f 87 88 89
f 85 88 87
f 83 82 90
f 82 79 91
f 90 91 92
f 82 91 90
f 89 93 94
f 93 92 95
f 94 95 96
f 93 95 94
f 83 90 88
f 90 92 93
f 88 93 89
f 90 93 88
f 31 97 36
f 97 98 99
f 36 99 37
f 97 99 36
f 89 94 100
f 94 96 101
f 102 103 104
f 105 103 102
f 37 106 40
f 106 104 107
f 40 107 41
f 106 107 40
f 98 102 99
f 102 104 106
f 99 106 37
f 102 106 99
f 41 107 108
f 107 104 109
f 108 109 110
f 107 109 108
f 104 103 111
f 101 96 112
f 111 113 114
f 103 113 111
f 110 115 116
f 115 114 117
f 116 117 118
f 115 117 116
f 104 111 109
f 111 114 115
f 109 115 110
f 111 115 109
f 41 108 46
f 108 110 119
f 46 119 47
f 108 119 46
f 110 116 120
f 116 118 121
f 120 121 122
f 116 121 120
f 47 123 50
f 123 122 124
f 50 124 51
f 123 124 50
f 110 120 119
f 120 122 123
f 119 123 47
f 120 123 119
f 51 124 125
f 124 122 126
f 125 126 127
f 124 126 125
f 122 121 128
f 121 118 129
f 128 129 130
f 121 129 128
f 127 131 132
f 131 130 133
f 132 133 134
f 131 133 132
f 122 128 126
f 128 130 131
f 126 131 127
f 128 131 126
f 51 125 54
f 125 127 135
f 54 135 55
f 125 135 54
f 127 132 136
f 132 134 137
f 136 137 138
f 132 137 136
f 55 139 57
f 139 138 140
f 57 140 9
f 139 140 57
f 127 136 135
f 136 138 139
f 135 139 55
f 136 139 135
f 9 140 58
f 140 138 141
f 59 142 60
f 143 142 59
f 144 145 146
f 145 147 148
f 146 148 149
f 145 148 146
f 60 150 63
f 150 149 151
f 63 151 65
f 150 151 63
f 144 146 142
f 146 149 150
f 142 150 60
f 146 150 142
f 152 153 154
f 153 155 156
f 154 156 157
f 153 156 154
f 155 158 159
f 158 79 78
f 159 78 75
f 158 78 159
f 157 160 161
f 160 75 74
f 161 74 65
f 160 74 161
f 155 159 156
f 159 75 160
f 156 160 157
f 159 160 156
f 152 162 153
f 162 163 164
f 153 164 155
f 162 164 153
f 163 165 166
f 165 96 95
f 166 95 92
f 165 95 166
f 155 167 158
f 167 92 91
f 158 91 79
f 167 91 158
f 163 166 164
f 166 92 167
f 164 167 155
f 166 167 164
f 152 168 162
f 168 169 170
f 162 170 163
f 168 170 162
f 169 171 172
f 173 118 117
f 174 117 114
f 173 117 174
f 163 175 165
f 175 176 112
f 165 112 96
f 175 112 165
f 169 172 170
f 172 176 175
f 170 175 163
f 172 175 170
f 152 177 168
f 177 178 179
f 168 179 169
f 177 179 168
f 178 180 181
f 180 147 182
f 183 133 130
f 180 182 181
f 169 184 171
f 185 130 129
f 173 129 118
f 185 129 173
f 178 181 179
f 183 130 185
f 179 184 169
f 181 184 179
f 152 154 177
f 154 157 186
f 177 186 178
f 154 186 177
f 157 161 187
f 161 65 151
f 187 151 149
f 161 151 187
f 178 188 180
f 188 149 148
f 180 148 147
f 188 148 180
f 157 187 186
f 187 149 188
f 186 188 178
f 187 188 186
f 10 62 11
f 11 62 15
f 12 14 13
f 13 14 17
f 11 15 12
f 12 15 14
f 13 17 22
f 22 17 24
f 30 29 31
f 31 29 86
f 26 28 30
f 30 28 29
f 22 24 26
f 26 24 28
f 58 59 10
f 10 59 62
f 31 86 97
f 97 86 87
f 97 87 98
f 98 87 89
f 105 94 103
f 103 94 101
f 102 100 105
f 105 100 94
f 98 89 102
f 102 89 100
f 113 112 114
f 114 112 176
f 103 101 113
f 113 101 112
f 133 182 134
f 134 182 147
f 134 147 137
f 137 147 145
f 137 145 138
f 138 145 144
f 140 143 58
f 58 143 59
f 138 144 141
f 141 144 142
f 141 142 140
f 140 142 143
f 114 176 174
f 174 176 172
f 174 172 173
f 173 172 171
f 183 181 133
f 133 181 182
f 173 171 185
f 185 171 184
f 185 184 183
f 183 184 181
