v -0.0134429 1.23862 -0.172443
v 0.0214269 1.1948 -0.176917
v 0.0158444 1.24359 -0.220125
v 0.0446935 1.14537 -0.19
v 0.0480886 1.19597 -0.228555
v 0.0339534 1.23924 -0.273125
v 0.0545857 1.09409 -0.210695
v 0.0678019 1.13609 -0.248636
v 0.0503505 1.04486 -0.237427
v 0.0684934 1.08368 -0.273756
v 0.0714501 1.12535 -0.311322
v 0.0621554 1.18544 -0.292338
v 0.0395055 1.22588 -0.327411
v 0.0621554 1.15094 -0.372338
v 0.0714501 1.09085 -0.391322
v 0.0589958 1.13219 -0.427265
v 0.0395055 1.19138 -0.407411
v 0.0320783 1.17005 -0.458848
v -0.0363957 1.27933 -0.203621
v -0.0103955 1.28146 -0.255564
v -0.06655 1.30799 -0.241374
v 0.00367127 1.27094 -0.319347
v 0.00117317 1.21671 -0.453968
v 0.00117317 1.25121 -0.373968
v -0.0397934 1.28796 -0.362696
v -0.0491665 1.30708 -0.302655
v -0.101611 1.32242 -0.282829
v -0.0877029 1.31201 -0.34589
v -0.138908 1.32152 -0.32483
v -0.0630992 1.25263 -0.150214
v -0.0902423 1.2906 -0.184854
v -0.117924 1.25661 -0.138626
v -0.129013 1.31622 -0.231944
v -0.166646 1.32104 -0.27598
v -0.191671 1.30534 -0.228197
v -0.156022 1.28921 -0.177926
v -0.173745 1.25029 -0.138561
v -0.212077 1.27561 -0.185118
v -0.226311 1.23412 -0.150024
v -0.0273629 1.20039 -0.13371
v -0.0811062 1.21075 -0.114143
v -0.049172 1.15611 -0.106875
v -0.146886 1.20936 -0.107215
v -0.203044 1.19667 -0.115207
v -0.174293 1.15346 -0.0936968
v -0.110741 1.15652 -0.0905226
v -0.0772102 1.10917 -0.0939792
v -0.142246 1.10779 -0.0871296
v -0.109343 1.06313 -0.0960055
v 0.00438704 1.15227 -0.141152
v -0.0252478 1.09804 -0.117532
v -0.05772 1.04997 -0.113833
v -0.0116753 1.04222 -0.145071
v 0.0241003 1.09239 -0.161233
v 0.0252861 1.04047 -0.187342
v 0.0503505 1.01036 -0.317427
v 0.0477892 0.989131 -0.369377
v 0.0684934 1.04918 -0.353756
v 0.0316179 0.97532 -0.421374
v 0.0609276 1.03033 -0.408219
v 0.00306755 0.969977 -0.469461
v 0.0343401 1.01894 -0.46772
v -0.0356884 0.973509 -0.509976
v -0.002515 1.01877 -0.512668
v 0.0208777 1.06919 -0.5045
v 0.0552812 1.07968 -0.45192
v 0.032709 1.12093 -0.486093
v -0.00302731 1.17317 -0.502596
v -0.00745151 1.12113 -0.528114
v -0.0478745 1.16969 -0.536251
v -0.0283926 1.06039 -0.543913
v -0.0589554 1.01096 -0.544793
v -0.0877068 1.05416 -0.566303
v -0.0645378 1.11323 -0.560606
v -0.0990496 1.15988 -0.55725
v -0.119754 1.09983 -0.57287
v -0.152657 1.1445 -0.563994
v -0.0393482 1.21801 -0.495622
v -0.0397934 1.25346 -0.442696
v -0.0964344 1.21011 -0.528114
v -0.15129 1.19562 -0.540746
v -0.148378 1.23844 -0.5045
v -0.0921859 1.25415 -0.478929
v -0.0877029 1.27751 -0.42589
v -0.144143 1.2697 -0.458015
v -0.144143 1.3042 -0.378015
v -0.192933 1.30979 -0.334808
v -0.19862 1.2519 -0.46772
v -0.19862 1.2864 -0.38772
v -0.242243 1.28368 -0.341374
v -0.202869 1.20786 -0.516904
v -0.20428 1.15766 -0.546167
v -0.250325 1.16541 -0.514929
v -0.242243 1.24918 -0.421374
v -0.252217 1.21351 -0.473203
v -0.283086 1.2107 -0.42403
v -0.287286 1.16715 -0.472658
v -0.31235 1.16277 -0.422573
v -0.221381 1.30344 -0.284517
v -0.283086 1.2452 -0.34403
v -0.274977 1.26504 -0.29
v -0.31235 1.19727 -0.342573
v -0.309789 1.2185 -0.290623
v -0.293618 1.23231 -0.238626
v -0.24839 1.27643 -0.230499
v -0.265067 1.23765 -0.190539
v -0.259485 1.18886 -0.147332
v -0.29634 1.18868 -0.19228
v -0.282878 1.13844 -0.1555
v -0.322927 1.1773 -0.251781
v -0.330493 1.15845 -0.306244
v -0.33345 1.11678 -0.268678
v -0.317281 1.12795 -0.20808
v -0.294709 1.0867 -0.173907
v -0.320996 1.07544 -0.232735
v -0.294078 1.03758 -0.201152
v -0.233607 1.14723 -0.116087
v -0.254548 1.0865 -0.131886
v -0.258973 1.03446 -0.157404
v -0.214125 1.03794 -0.123749
v -0.197462 1.0944 -0.0993941
v -0.16295 1.04775 -0.10275
v -0.11071 1.01201 -0.119254
v -0.165565 0.997516 -0.131886
v -0.113622 0.969187 -0.1555
v -0.222652 0.989618 -0.164378
v -0.263173 0.990916 -0.206032
v -0.222206 0.954164 -0.217304
v -0.169814 0.953473 -0.181071
v -0.117856 0.937926 -0.201985
v -0.174297 0.930118 -0.23411
v -0.117856 0.903425 -0.281985
v -0.174297 0.895617 -0.314109
v -0.123092 0.886106 -0.33517
v -0.0591311 0.999767 -0.143096
v -0.0633796 0.955724 -0.19228
v -0.0690667 0.897843 -0.325192
v -0.0633796 0.921224 -0.27228
v -0.0197564 0.923946 -0.318626
v -0.00978305 0.994121 -0.186797
v -0.0197564 0.958447 -0.238626
v 0.0210857 0.996929 -0.23597
v 0.0210857 0.962428 -0.31597
v 0.0129775 0.942586 -0.37
v -0.040619 0.90419 -0.375483
v -0.0953534 0.886584 -0.38402
v -0.0703288 0.902286 -0.431803
v -0.01361 0.931199 -0.429501
v -0.0499227 0.932015 -0.474882
v -0.248557 0.969007 -0.487557
v -0.234637 1.00724 -0.52629
v -0.198901 0.955003 -0.509786
v -0.212828 1.05152 -0.553125
v -0.180894 0.996876 -0.545857
v -0.144076 0.951013 -0.521374
v -0.18479 1.09846 -0.566021
v -0.151259 1.0511 -0.569477
v -0.115114 0.998267 -0.552785
v -0.088255 0.957343 -0.521439
v -0.283427 1.01283 -0.483083
v -0.306693 1.06226 -0.47
v -0.266387 1.05536 -0.518848
v -0.316586 1.11354 -0.449305
v -0.2861 1.11524 -0.498767
v -0.236752 1.10959 -0.542468
v -0.277844 0.964035 -0.439875
v -0.295953 0.968391 -0.386875
v -0.310088 1.01166 -0.431445
v -0.301505 0.981743 -0.332589
v -0.324155 1.02219 -0.367662
v -0.301505 1.01624 -0.252589
v -0.324155 1.05669 -0.287662
v -0.329802 1.07153 -0.411363
v -0.33345 1.08228 -0.348678
v -0.330493 1.12395 -0.386244
v -0.225604 0.928299 -0.456379
v -0.19545 0.899639 -0.418626
v -0.251604 0.926165 -0.404436
v -0.160389 0.885209 -0.377171
v -0.212833 0.900547 -0.357345
v -0.222206 0.919664 -0.297304
v -0.265671 0.936692 -0.340653
v -0.263173 0.956415 -0.286032
v -0.171757 0.917029 -0.475146
v -0.105977 0.91842 -0.482074
v -0.132987 0.891411 -0.428056
f 1 2 3
f 2 4 5
f 3 5 6
f 2 5 3
f 4 7 8
f 7 9 10
f 8 10 11
f 7 10 8
f 6 12 13
f 14 15 16
f 17 16 18
f 14 16 17
f 4 8 5
f 8 11 12
f 5 12 6
f 8 12 5
f 1 3 19
f 3 6 20
f 19 20 21
f 3 20 19
f 6 13 22
f 17 18 23
f 22 24 25
f 13 24 22
f 21 26 27
f 26 25 28
f 27 28 29
f 26 28 27
f 6 22 20
f 22 25 26
f 20 26 21
f 22 26 20
f 1 19 30
f 19 21 31
f 30 31 32
f 19 31 30
f 21 27 33
f 27 29 34
f 33 34 35
f 27 34 33
f 32 36 37
f 36 35 38
f 37 38 39
f 36 38 37
f 21 33 31
f 33 35 36
f 31 36 32
f 33 36 31
f 1 30 40
f 30 32 41
f 40 41 42
f 30 41 40
f 32 37 43
f 37 39 44
f 43 44 45
f 37 44 43
f 42 46 47
f 46 45 48
f 47 48 49
f 46 48 47
f 32 43 41
f 43 45 46
f 41 46 42
f 43 46 41
f 1 40 2
f 40 42 50
f 2 50 4
f 40 50 2
f 42 47 51
f 47 49 52
f 51 52 53
f 47 52 51
f 4 54 7
f 54 53 55
f 7 55 9
f 54 55 7
f 42 51 50
f 51 53 54
f 50 54 4
f 51 54 50
f 56 57 58
f 57 59 60
f 58 60 15
f 57 60 58
f 59 61 62
f 61 63 64
f 62 64 65
f 61 64 62
f 15 66 16
f 66 65 67
f 16 67 18
f 66 67 16
f 59 62 60
f 62 65 66
f 60 66 15
f 62 66 60
f 18 67 68
f 67 65 69
f 68 69 70
f 67 69 68
f 65 64 71
f 64 63 72
f 71 72 73
f 64 72 71
f 70 74 75
f 74 73 76
f 75 76 77
f 74 76 75
f 65 71 69
f 71 73 74
f 69 74 70
f 71 74 69
f 18 68 23
f 68 70 78
f 23 78 79
f 68 78 23
f 70 75 80
f 75 77 81
f 80 81 82
f 75 81 80
f 79 83 84
f 83 82 85
f 28 86 29
f 83 85 84
f 70 80 78
f 80 82 83
f 78 83 79
f 80 83 78
f 29 86 87
f 85 82 88
f 87 89 90
f 86 89 87
f 82 81 91
f 81 77 92
f 91 92 93
f 81 92 91
f 94 95 96
f 95 93 97
f 96 97 98
f 95 97 96
f 82 91 88
f 91 93 95
f 88 95 94
f 91 95 88
f 29 87 34
f 87 90 99
f 34 99 35
f 87 99 34
f 90 100 101
f 100 102 103
f 101 103 104
f 100 103 101
f 35 105 38
f 105 104 106
f 38 106 39
f 105 106 38
f 90 101 99
f 101 104 105
f 99 105 35
f 101 105 99
f 39 106 107
f 106 104 108
f 107 108 109
f 106 108 107
f 104 103 110
f 103 102 111
f 110 111 112
f 103 111 110
f 109 113 114
f 113 112 115
f 114 115 116
f 113 115 114
f 104 110 108
f 110 112 113
f 108 113 109
f 110 113 108
f 39 107 44
f 107 109 117
f 44 117 45
f 107 117 44
f 109 114 118
f 114 116 119
f 118 119 120
f 114 119 118
f 45 121 48
f 121 120 122
f 48 122 49
f 121 122 48
f 109 118 117
f 118 120 121
f 117 121 45
f 118 121 117
f 49 122 123
f 122 120 124
f 123 124 125
f 122 124 123
f 120 119 126
f 119 116 127
f 126 127 128
f 119 127 126
f 125 129 130
f 129 128 131
f 132 133 134
f 129 131 130
f 120 126 124
f 126 128 129
f 124 129 125
f 126 129 124
f 49 123 52
f 123 125 135
f 52 135 53
f 123 135 52
f 125 130 136
f 132 134 137
f 138 137 139
f 132 137 138
f 53 140 55
f 140 141 142
f 55 142 9
f 140 142 55
f 125 136 135
f 136 141 140
f 135 140 53
f 136 140 135
f 56 143 57
f 143 139 144
f 57 144 59
f 143 144 57
f 139 137 145
f 137 134 146
f 145 146 147
f 137 146 145
f 59 148 61
f 148 147 149
f 61 149 63
f 148 149 61
f 139 145 144
f 145 147 148
f 144 148 59
f 145 148 144
f 150 151 152
f 151 153 154
f 152 154 155
f 151 154 152
f 153 156 157
f 156 77 76
f 157 76 73
f 156 76 157
f 155 158 159
f 158 73 72
f 159 72 63
f 158 72 159
f 153 157 154
f 157 73 158
f 154 158 155
f 157 158 154
f 150 160 151
f 160 161 162
f 151 162 153
f 160 162 151
f 161 163 164
f 163 98 97
f 164 97 93
f 163 97 164
f 153 165 156
f 165 93 92
f 156 92 77
f 165 92 156
f 161 164 162
f 164 93 165
f 162 165 153
f 164 165 162
f 150 166 160
f 166 167 168
f 160 168 161
f 166 168 160
f 167 169 170
f 171 116 115
f 172 115 112
f 171 115 172
f 161 173 163
f 173 174 175
f 163 175 98
f 173 175 163
f 167 170 168
f 170 174 173
f 168 173 161
f 170 173 168
f 150 176 166
f 176 177 178
f 166 178 167
f 176 178 166
f 177 179 180
f 179 134 133
f 180 133 181
f 179 133 180
f 167 182 169
f 182 181 183
f 171 127 116
f 182 183 169
f 177 180 178
f 180 181 182
f 178 182 167
f 180 182 178
f 150 152 176
f 152 155 184
f 176 184 177
f 152 184 176
f 155 159 185
f 159 63 149
f 185 149 147
f 159 149 185
f 177 186 179
f 186 147 146
f 179 146 134
f 186 146 179
f 155 185 184
f 185 147 186
f 184 186 177
f 185 186 184
f 9 56 10
f 10 56 58
f 10 58 11
f 11 58 15
f 12 14 13
f 13 14 17
f 11 15 12
f 12 15 14
f 24 23 25
f 25 23 79
f 13 17 24
f 24 17 23
f 25 79 28
f 28 79 84
f 28 84 86
f 86 84 85
f 89 88 90
f 90 88 94
f 86 85 89
f 89 85 88
f 90 94 100
f 100 94 96
f 100 96 102
f 102 96 98
f 102 98 111
f 111 98 175
f 111 175 112
f 112 175 174
f 127 183 128
f 128 183 181
f 128 181 131
f 131 181 133
f 131 133 130
f 130 133 132
f 130 132 136
f 136 132 138
f 141 139 142
f 142 139 143
f 142 143 9
f 9 143 56
f 136 138 141
f 141 138 139
f 112 174 172
f 172 174 170
f 172 170 171
f 171 170 169
f 171 169 127
f 127 169 183
