v 0.826557 1.09629 0.507557
v 0.861427 1.05247 0.503083
v 0.855844 1.10126 0.459876
v 0.884694 1.00304 0.49
v 0.888089 1.05363 0.451445
v 0.873953 1.0969 0.406875
v 0.894586 0.951753 0.469305
v 0.907802 0.993758 0.431364
v 0.890351 0.902524 0.442573
v 0.908493 0.941345 0.406244
v 0.91145 0.983011 0.368678
v 0.873953 1.10814 0.326875
v 0.902156 1.05434 0.307662
v 0.879506 1.09478 0.272589
v 0.91145 0.994245 0.288678
v 0.898996 1.03559 0.252735
v 0.872078 1.07345 0.221152
v 0.902156 1.04311 0.387662
v 0.803604 1.13699 0.476379
v 0.829605 1.13913 0.424436
v 0.77345 1.16565 0.438626
v 0.843671 1.13983 0.280653
v 0.841173 1.12011 0.226032
v 0.800207 1.15686 0.237304
v 0.77345 1.17689 0.358626
v 0.790834 1.17598 0.297345
v 0.73839 1.19132 0.317171
v 0.752297 1.18091 0.25411
v 0.701092 1.19042 0.27517
v 0.829605 1.15036 0.344436
v 0.776901 1.11029 0.529786
v 0.749758 1.14826 0.495146
v 0.722076 1.11428 0.541374
v 0.73839 1.18008 0.397171
v 0.710987 1.17388 0.448056
v 0.673354 1.18994 0.32402
v 0.673354 1.17871 0.40402
v 0.648329 1.16301 0.451804
v 0.710987 1.18512 0.368056
v 0.683978 1.14687 0.502074
v 0.666255 1.10795 0.541439
v 0.627923 1.13328 0.494882
v 0.613689 1.09178 0.529976
v 0.812637 1.05805 0.54629
v 0.758894 1.06842 0.565857
v 0.790828 1.01378 0.573125
v 0.693114 1.06703 0.572785
v 0.636956 1.05433 0.564793
v 0.665707 1.01113 0.586303
v 0.729259 1.01419 0.589478
v 0.76279 0.966833 0.586021
v 0.697754 0.965457 0.59287
v 0.730657 0.920797 0.583995
v 0.844387 1.00993 0.538848
v 0.814752 0.955703 0.562468
v 0.78228 0.907635 0.566167
v 0.828325 0.899885 0.534929
v 0.8641 0.950057 0.518767
v 0.865286 0.898137 0.492658
v 0.887789 0.881296 0.390623
v 0.887789 0.892531 0.310623
v 0.871618 0.87872 0.258626
v 0.900928 0.93373 0.271781
v 0.908493 0.952579 0.326244
v 0.900928 0.922496 0.351781
v 0.843068 0.873377 0.210539
v 0.87434 0.922343 0.21228
v 0.804312 0.876909 0.170024
v 0.837485 0.922166 0.167332
v 0.860878 0.972585 0.1755
v 0.895281 0.983078 0.22808
v 0.872709 1.02433 0.193907
v 0.836973 1.07657 0.177404
v 0.832549 1.02453 0.151886
v 0.792126 1.07309 0.143749
v 0.811608 0.963793 0.136087
v 0.781045 0.914358 0.135207
v 0.752293 0.957563 0.113697
v 0.775462 1.01663 0.119394
v 0.740951 1.06328 0.12275
v 0.720246 1.00323 0.10713
v 0.687343 1.0479 0.116006
v 0.800652 1.12141 0.184378
v 0.743566 1.11351 0.151886
v 0.688711 1.09902 0.139254
v 0.691622 1.14184 0.1755
v 0.747814 1.15755 0.201071
v 0.695857 1.1731 0.221985
v 0.647067 1.17868 0.265192
v 0.64138 1.1553 0.21228
v 0.597757 1.15258 0.258626
v 0.637131 1.11126 0.163096
v 0.63572 1.06106 0.133833
v 0.589675 1.06881 0.165071
v 0.587783 1.11691 0.206797
v 0.556915 1.1141 0.25597
v 0.552714 1.07055 0.207342
v 0.52765 1.06617 0.257427
v 0.618619 1.17234 0.315483
v 0.618619 1.1611 0.395483
v 0.565023 1.13394 0.31
v 0.530211 1.0874 0.309377
v 0.565023 1.12271 0.39
v 0.530211 1.07616 0.389377
v 0.546382 1.08997 0.441374
v 0.59161 1.13409 0.449501
v 0.574933 1.09531 0.489461
v 0.59161 1.14533 0.369501
v 0.580515 1.04653 0.532668
v 0.54366 1.04635 0.48772
v 0.557123 0.996106 0.5245
v 0.517073 1.03496 0.428219
v 0.509507 1.02735 0.293756
v 0.509507 1.01611 0.373756
v 0.50655 0.974446 0.411322
v 0.517073 1.0462 0.348219
v 0.522719 0.985613 0.47192
v 0.545291 0.944365 0.506093
v 0.519005 0.933106 0.447265
v 0.545922 0.895239 0.478848
v 0.606393 1.0049 0.563913
v 0.585452 0.944163 0.548114
v 0.581028 0.892125 0.522596
v 0.625875 0.895603 0.556251
v 0.642538 0.952061 0.580606
v 0.67705 0.905409 0.57725
v 0.72929 0.869673 0.560746
v 0.674435 0.85518 0.548114
v 0.726378 0.826851 0.5245
v 0.617348 0.847282 0.515622
v 0.576827 0.84858 0.473968
v 0.617794 0.811828 0.462696
v 0.670186 0.811137 0.498929
v 0.722144 0.79559 0.478015
v 0.665703 0.787782 0.445891
v 0.716909 0.778271 0.42483
v 0.780869 0.857431 0.536904
v 0.776621 0.813388 0.48772
v 0.770933 0.790008 0.434808
v 0.820244 0.816111 0.441374
v 0.830217 0.851785 0.493203
v 0.861086 0.854593 0.44403
v 0.852978 0.834751 0.39
v 0.852978 0.845986 0.31
v 0.799381 0.796355 0.384517
v 0.744647 0.778749 0.37598
v 0.799381 0.807589 0.304517
v 0.744647 0.789984 0.29598
v 0.769671 0.805685 0.248197
v 0.82639 0.834598 0.250499
v 0.790077 0.835415 0.205118
v 0.82639 0.823364 0.330499
v 0.591443 0.872406 0.192443
v 0.605363 0.910642 0.15371
v 0.641099 0.858402 0.170214
v 0.627172 0.954916 0.126875
v 0.659106 0.900275 0.134143
v 0.695925 0.854413 0.158626
v 0.65521 1.00186 0.113979
v 0.688741 0.954504 0.110523
v 0.724886 0.901666 0.127215
v 0.751745 0.860742 0.158561
v 0.556573 0.916225 0.196917
v 0.533307 0.965657 0.21
v 0.573613 0.958759 0.161152
v 0.523415 1.01694 0.230695
v 0.5539 1.01863 0.181233
v 0.603248 1.01299 0.137532
v 0.562156 0.867435 0.240125
v 0.544047 0.871791 0.293125
v 0.529912 0.915058 0.248555
v 0.544047 0.860556 0.373125
v 0.538495 0.873908 0.427411
v 0.515845 0.91435 0.392338
v 0.510198 0.974933 0.268637
v 0.50655 0.985681 0.331322
v 0.515845 0.925585 0.312338
v 0.614396 0.831699 0.223621
v 0.64455 0.803039 0.261374
v 0.588396 0.829564 0.275564
v 0.64455 0.791804 0.341374
v 0.679611 0.777373 0.382829
v 0.627167 0.792712 0.402655
v 0.574329 0.828857 0.419347
v 0.588396 0.81833 0.355565
v 0.668243 0.820428 0.204854
v 0.734023 0.82182 0.197926
v 0.707014 0.794811 0.251944
v 0.679611 0.788608 0.302829
v 0.707014 0.783576 0.331944
f 1 2 3
f 2 4 5
f 3 5 6
f 2 5 3
f 4 7 8
f 7 9 10
f 8 10 11
f 7 10 8
f 12 13 14
f 13 15 16
f 14 16 17
f 13 16 14
f 4 8 5
f 8 11 18
f 5 18 6
f 8 18 5
f 1 3 19
f 3 6 20
f 19 20 21
f 3 20 19
f 12 14 22
f 14 17 23
f 22 23 24
f 14 23 22
f 25 26 27
f 26 24 28
f 27 28 29
f 26 28 27
f 12 22 30
f 22 24 26
f 30 26 25
f 22 26 30
f 1 19 31
f 19 21 32
f 31 32 33
f 19 32 31
f 21 34 35
f 27 29 36
f 35 37 38
f 27 36 39
f 33 40 41
f 40 38 42
f 41 42 43
f 40 42 41
f 21 35 32
f 35 38 40
f 32 40 33
f 35 40 32
f 1 31 44
f 31 33 45
f 44 45 46
f 31 45 44
f 33 41 47
f 41 43 48
f 47 48 49
f 41 48 47
f 46 50 51
f 50 49 52
f 51 52 53
f 50 52 51
f 33 47 45
f 47 49 50
f 45 50 46
f 47 50 45
f 1 44 2
f 44 46 54
f 2 54 4
f 44 54 2
f 46 51 55
f 51 53 56
f 55 56 57
f 51 56 55
f 4 58 7
f 58 57 59
f 7 59 9
f 58 59 7
f 46 55 54
f 55 57 58
f 54 58 4
f 55 58 54
f 9 60 10
f 61 62 63
f 64 63 15
f 60 65 10
f 62 66 67
f 66 68 69
f 67 69 70
f 66 69 67
f 15 71 16
f 71 70 72
f 16 72 17
f 71 72 16
f 62 67 63
f 67 70 71
f 63 71 15
f 67 71 63
f 17 72 73
f 72 70 74
f 73 74 75
f 72 74 73
f 70 69 76
f 69 68 77
f 76 77 78
f 69 77 76
f 75 79 80
f 79 78 81
f 80 81 82
f 79 81 80
f 70 76 74
f 76 78 79
f 74 79 75
f 76 79 74
f 17 73 23
f 73 75 83
f 23 83 24
f 73 83 23
f 75 80 84
f 80 82 85
f 84 85 86
f 80 85 84
f 24 87 28
f 87 86 88
f 28 88 29
f 87 88 28
f 75 84 83
f 84 86 87
f 83 87 24
f 84 87 83
f 29 88 89
f 88 86 90
f 89 90 91
f 88 90 89
f 86 85 92
f 85 82 93
f 92 93 94
f 85 93 92
f 91 95 96
f 95 94 97
f 96 97 98
f 95 97 96
f 86 92 90
f 92 94 95
f 90 95 91
f 92 95 90
f 29 89 36
f 89 91 99
f 37 100 38
f 89 99 36
f 91 96 101
f 96 98 102
f 103 104 105
f 96 102 101
f 38 106 42
f 106 105 107
f 42 107 43
f 106 107 42
f 91 101 99
f 103 105 106
f 100 106 38
f 101 108 99
f 43 107 109
f 107 105 110
f 109 110 111
f 107 110 109
f 105 104 112
f 102 98 113
f 112 114 115
f 102 113 116
f 111 117 118
f 117 115 119
f 118 119 120
f 117 119 118
f 105 112 110
f 112 115 117
f 110 117 111
f 112 117 110
f 43 109 48
f 109 111 121
f 48 121 49
f 109 121 48
f 111 118 122
f 118 120 123
f 122 123 124
f 118 123 122
f 49 125 52
f 125 124 126
f 52 126 53
f 125 126 52
f 111 122 121
f 122 124 125
f 121 125 49
f 122 125 121
f 53 126 127
f 126 124 128
f 127 128 129
f 126 128 127
f 124 123 130
f 123 120 131
f 130 131 132
f 123 131 130
f 129 133 134
f 133 132 135
f 134 135 136
f 133 135 134
f 124 130 128
f 130 132 133
f 128 133 129
f 130 133 128
f 53 127 56
f 127 129 137
f 56 137 57
f 127 137 56
f 129 134 138
f 134 136 139
f 138 139 140
f 134 139 138
f 57 141 59
f 141 140 142
f 59 142 9
f 141 142 59
f 129 138 137
f 138 140 141
f 137 141 57
f 138 141 137
f 9 142 60
f 142 140 143
f 61 144 62
f 142 143 60
f 140 139 145
f 139 136 146
f 147 148 149
f 139 146 145
f 62 150 66
f 150 149 151
f 66 151 68
f 150 151 66
f 140 145 143
f 147 149 150
f 144 150 62
f 145 152 143
f 153 154 155
f 154 156 157
f 155 157 158
f 154 157 155
f 156 159 160
f 159 82 81
f 160 81 78
f 159 81 160
f 158 161 162
f 161 78 77
f 162 77 68
f 161 77 162
f 156 160 157
f 160 78 161
f 157 161 158
f 160 161 157
f 153 163 154
f 163 164 165
f 154 165 156
f 163 165 154
f 164 166 167
f 166 98 97
f 167 97 94
f 166 97 167
f 156 168 159
f 168 94 93
f 159 93 82
f 168 93 159
f 164 167 165
f 167 94 168
f 165 168 156
f 167 168 165
f 153 169 163
f 169 170 171
f 163 171 164
f 169 171 163
f 172 173 174
f 173 120 119
f 174 119 115
f 173 119 174
f 164 175 166
f 175 176 113
f 166 113 98
f 175 113 166
f 170 177 171
f 177 176 175
f 171 175 164
f 177 175 171
f 153 178 169
f 178 179 180
f 169 180 170
f 178 180 169
f 181 182 183
f 182 136 135
f 183 135 132
f 182 135 183
f 172 184 173
f 184 132 131
f 173 131 120
f 184 131 173
f 181 183 185
f 183 132 184
f 185 184 172
f 183 184 185
f 153 155 178
f 155 158 186
f 178 186 179
f 155 186 178
f 158 162 187
f 162 68 151
f 187 151 149
f 162 151 187
f 179 188 189
f 188 149 148
f 182 146 136
f 190 146 182
f 158 187 186
f 187 149 188
f 186 188 179
f 187 188 186
f 12 6 13
f 13 6 18
f 13 18 15
f 15 18 11
f 27 34 25
f 25 34 21
f 30 20 12
f 12 20 6
f 25 21 30
f 30 21 20
f 36 37 39
f 39 37 35
f 39 35 27
f 27 35 34
f 63 65 61
f 61 65 60
f 64 10 63
f 63 10 65
f 15 11 64
f 64 11 10
f 99 100 36
f 36 100 37
f 102 104 101
f 101 104 103
f 101 103 108
f 108 103 106
f 108 106 99
f 99 106 100
f 113 114 116
f 116 114 112
f 116 112 102
f 102 112 104
f 61 60 144
f 144 60 143
f 147 145 148
f 148 145 146
f 150 152 147
f 147 152 145
f 144 143 150
f 150 143 152
f 176 115 113
f 113 115 114
f 170 172 177
f 177 172 174
f 177 174 176
f 176 174 115
f 179 181 180
f 180 181 185
f 180 185 170
f 170 185 172
f 188 190 189
f 189 190 182
f 189 182 179
f 179 182 181
f 148 146 188
f 188 146 190
