v -0.0134429 1.20412 -0.252443
v 0.0214269 1.1603 -0.256917
v 0.0158444 1.20909 -0.300125
v 0.0446935 1.11087 -0.27
v 0.0480886 1.16147 -0.308555
v 0.0339534 1.20474 -0.353125
v 0.0545857 1.05959 -0.290695
v 0.0678019 1.10159 -0.328636
v 0.0503505 1.01036 -0.317427
v 0.0684934 1.04918 -0.353756
v 0.0714501 1.09085 -0.391322
v 0.0621554 1.15094 -0.372338
v 0.0395055 1.19138 -0.407411
v 0.0621554 1.13232 -0.452338
v 0.0714501 1.07223 -0.471322
v 0.0589958 1.11357 -0.507265
v 0.0395055 1.17277 -0.487411
v 0.0320783 1.15144 -0.538848
v -0.0363957 1.24483 -0.283621
v -0.0103955 1.24696 -0.335564
v -0.06655 1.27349 -0.321374
v 0.00367127 1.23643 -0.399347
v 0.00117317 1.19809 -0.533968
v 0.00367127 1.21782 -0.479347
v -0.0397934 1.23485 -0.522696
v -0.0491665 1.27258 -0.382655
v -0.101611 1.28792 -0.362829
v -0.0491665 1.25396 -0.462655
v -0.0877029 1.25889 -0.50589
v -0.0877029 1.27751 -0.42589
v -0.138908 1.28702 -0.40483
v -0.0397934 1.25346 -0.442696
v -0.0630992 1.21812 -0.230214
v -0.0902423 1.2561 -0.264854
v -0.117924 1.22211 -0.218626
v -0.129013 1.28172 -0.311944
v -0.166646 1.28654 -0.35598
v -0.191671 1.27084 -0.308197
v -0.156022 1.25471 -0.257926
v -0.173745 1.21578 -0.218561
v -0.212077 1.24111 -0.265118
v -0.226311 1.19962 -0.230024
v -0.0273629 1.16588 -0.21371
v -0.0811062 1.17625 -0.194143
v -0.049172 1.12161 -0.186875
v -0.146886 1.17486 -0.187215
v -0.203044 1.16217 -0.195207
v -0.174293 1.11896 -0.173697
v -0.110741 1.12202 -0.170523
v -0.0772102 1.07467 -0.173979
v -0.142246 1.07329 -0.16713
v -0.109343 1.02863 -0.176005
v 0.00438704 1.11777 -0.221152
v -0.0252478 1.06354 -0.197532
v -0.05772 1.01547 -0.193833
v -0.0116753 1.00772 -0.225071
v 0.0241003 1.05789 -0.241233
v 0.0252861 1.00597 -0.267342
v 0.0477892 0.989131 -0.369377
v 0.0477892 0.970514 -0.449377
v 0.0316179 0.956702 -0.501374
v 0.0609276 1.01171 -0.488219
v 0.0684934 1.03056 -0.433756
v 0.00306755 0.951359 -0.549461
v 0.0343401 1.00033 -0.54772
v -0.0356884 0.954891 -0.589976
v -0.002515 1.00015 -0.592668
v 0.0208777 1.05057 -0.5845
v 0.0552812 1.06106 -0.53192
v 0.032709 1.10231 -0.566093
v -0.00302731 1.15455 -0.582596
v -0.00745151 1.10251 -0.608114
v -0.0478745 1.15107 -0.616251
v -0.0283926 1.04178 -0.623913
v -0.0589554 0.992341 -0.624793
v -0.0877068 1.03555 -0.646303
v -0.0645378 1.09461 -0.640606
v -0.0990496 1.14127 -0.63725
v -0.119754 1.08122 -0.65287
v -0.152657 1.12588 -0.643994
v -0.0393482 1.19939 -0.575622
v -0.0964344 1.19149 -0.608114
v -0.15129 1.177 -0.620746
v -0.148378 1.21982 -0.5845
v -0.0921859 1.23554 -0.558929
v -0.144143 1.25108 -0.538015
v -0.138908 1.2684 -0.48483
v -0.192933 1.25667 -0.494808
v -0.19862 1.23329 -0.54772
v -0.242243 1.23056 -0.501374
v -0.202869 1.18924 -0.596904
v -0.20428 1.13904 -0.626167
v -0.250325 1.14679 -0.594929
v -0.252217 1.19489 -0.553203
v -0.283086 1.19208 -0.50403
v -0.287286 1.14854 -0.552658
v -0.31235 1.14415 -0.502573
v -0.192933 1.27528 -0.414808
v -0.242243 1.24918 -0.421374
v -0.221381 1.26894 -0.364517
v -0.283086 1.2107 -0.42403
v -0.274977 1.23054 -0.37
v -0.309789 1.16538 -0.450623
v -0.309789 1.184 -0.370623
v -0.293618 1.19781 -0.318626
v -0.24839 1.24193 -0.310499
v -0.265067 1.20315 -0.270539
v -0.259485 1.15436 -0.227332
v -0.29634 1.15418 -0.27228
v -0.282878 1.10394 -0.2355
v -0.322927 1.1428 -0.331781
v -0.330493 1.10533 -0.466244
v -0.330493 1.12395 -0.386244
v -0.33345 1.08228 -0.348678
v -0.317281 1.09345 -0.28808
v -0.294709 1.0522 -0.253907
v -0.320996 1.04094 -0.312735
v -0.294078 1.00307 -0.281152
v -0.233607 1.11273 -0.196087
v -0.254548 1.052 -0.211886
v -0.258973 0.99996 -0.237404
v -0.214125 1.00344 -0.203749
v -0.197462 1.0599 -0.179394
v -0.16295 1.01324 -0.18275
v -0.11071 0.977508 -0.199254
v -0.165565 0.963015 -0.211886
v -0.113622 0.934686 -0.2355
v -0.222652 0.955117 -0.244378
v -0.263173 0.956415 -0.286032
v -0.222206 0.919664 -0.297304
v -0.169814 0.918972 -0.261071
v -0.117856 0.903425 -0.281985
v -0.174297 0.895617 -0.314109
v -0.123092 0.886106 -0.33517
v -0.0591311 0.965266 -0.223096
v -0.0633796 0.921224 -0.27228
v -0.0690667 0.897843 -0.325192
v -0.0197564 0.923946 -0.318626
v -0.00978305 0.95962 -0.266797
v 0.0210857 0.962428 -0.31597
v 0.0210857 0.94381 -0.39597
v -0.0197564 0.905328 -0.398626
v 0.0129775 0.923968 -0.45
v -0.0690667 0.879225 -0.405192
v -0.040619 0.885572 -0.455483
v -0.123092 0.867488 -0.41517
v -0.0953534 0.867966 -0.46402
v -0.0703288 0.883668 -0.511803
v -0.01361 0.912581 -0.509501
v -0.0499227 0.913397 -0.554882
v -0.248557 0.950389 -0.567557
v -0.234637 0.988625 -0.60629
v -0.198901 0.936385 -0.589786
v -0.212828 1.0329 -0.633125
v -0.180894 0.978258 -0.625857
v -0.144076 0.932396 -0.601374
v -0.18479 1.07984 -0.646021
v -0.151259 1.03249 -0.649477
v -0.115114 0.979649 -0.632785
v -0.088255 0.938725 -0.601439
v -0.283427 0.994207 -0.563083
v -0.306693 1.04364 -0.55
v -0.266387 1.03674 -0.598848
v -0.316586 1.09492 -0.529305
v -0.2861 1.09662 -0.578767
v -0.236752 1.09097 -0.622468
v -0.277844 0.945418 -0.519875
v -0.295953 0.949774 -0.466875
v -0.310088 0.99304 -0.511445
v -0.301505 0.963125 -0.412589
v -0.324155 1.00357 -0.447662
v -0.301505 0.981743 -0.332589
v -0.324155 1.02219 -0.367662
v -0.329802 1.05292 -0.491363
v -0.33345 1.06366 -0.428678
v -0.225604 0.909681 -0.536379
v -0.19545 0.881021 -0.498626
v -0.251604 0.907547 -0.484436
v -0.160389 0.866591 -0.457171
v -0.212833 0.881929 -0.437345
v -0.174297 0.876999 -0.39411
v -0.212833 0.900547 -0.357345
v -0.265671 0.918075 -0.420653
v -0.265671 0.936692 -0.340653
v -0.222206 0.901046 -0.377304
v -0.171757 0.898411 -0.555146
v -0.105977 0.899802 -0.562074
v -0.132987 0.872793 -0.508056
f 1 2 3
f 2 4 5
f 3 5 6
f 2 5 3
f 4 7 8
f 7 9 10
f 8 10 11
f 7 10 8
f 6 12 13
f 14 15 16
f 17 16 18
f 14 16 17
f 4 8 5
f 8 11 12
f 5 12 6
f 8 12 5
f 1 3 19
f 3 6 20
f 19 20 21
f 3 20 19
f 6 13 22
f 17 18 23
f 24 23 25
f 17 23 24
f 21 26 27
f 28 25 29
f 27 30 31
f 26 30 27
f 6 22 20
f 22 32 26
f 20 26 21
f 22 26 20
f 1 19 33
f 19 21 34
f 33 34 35
f 19 34 33
f 21 27 36
f 27 31 37
f 36 37 38
f 27 37 36
f 35 39 40
f 39 38 41
f 40 41 42
f 39 41 40
f 21 36 34
f 36 38 39
f 34 39 35
f 36 39 34
f 1 33 43
f 33 35 44
f 43 44 45
f 33 44 43
f 35 40 46
f 40 42 47
f 46 47 48
f 40 47 46
f 45 49 50
f 49 48 51
f 50 51 52
f 49 51 50
f 35 46 44
f 46 48 49
f 44 49 45
f 46 49 44
f 1 43 2
f 43 45 53
f 2 53 4
f 43 53 2
f 45 50 54
f 50 52 55
f 54 55 56
f 50 55 54
f 4 57 7
f 57 56 58
f 7 58 9
f 57 58 7
f 45 54 53
f 54 56 57
f 53 57 4
f 54 57 53
f 9 59 10
f 60 61 62
f 63 62 15
f 60 62 63
f 61 64 65
f 64 66 67
f 65 67 68
f 64 67 65
f 15 69 16
f 69 68 70
f 16 70 18
f 69 70 16
f 61 65 62
f 65 68 69
f 62 69 15
f 65 69 62
f 18 70 71
f 70 68 72
f 71 72 73
f 70 72 71
f 68 67 74
f 67 66 75
f 74 75 76
f 67 75 74
f 73 77 78
f 77 76 79
f 78 79 80
f 77 79 78
f 68 74 72
f 74 76 77
f 72 77 73
f 74 77 72
f 18 71 23
f 71 73 81
f 23 81 25
f 71 81 23
f 73 78 82
f 78 80 83
f 82 83 84
f 78 83 82
f 25 85 29
f 85 84 86
f 29 86 87
f 85 86 29
f 73 82 81
f 82 84 85
f 81 85 25
f 82 85 81
f 87 86 88
f 86 84 89
f 88 89 90
f 86 89 88
f 84 83 91
f 83 80 92
f 91 92 93
f 83 92 91
f 90 94 95
f 94 93 96
f 95 96 97
f 94 96 95
f 84 91 89
f 91 93 94
f 89 94 90
f 91 94 89
f 31 98 37
f 98 99 100
f 37 100 38
f 98 100 37
f 99 101 102
f 95 97 103
f 102 104 105
f 101 104 102
f 38 106 41
f 106 105 107
f 41 107 42
f 106 107 41
f 99 102 100
f 102 105 106
f 100 106 38
f 102 106 100
f 42 107 108
f 107 105 109
f 108 109 110
f 107 109 108
f 105 104 111
f 103 97 112
f 111 113 114
f 104 113 111
f 110 115 116
f 115 114 117
f 116 117 118
f 115 117 116
f 105 111 109
f 111 114 115
f 109 115 110
f 111 115 109
f 42 108 47
f 108 110 119
f 47 119 48
f 108 119 47
f 110 116 120
f 116 118 121
f 120 121 122
f 116 121 120
f 48 123 51
f 123 122 124
f 51 124 52
f 123 124 51
f 110 120 119
f 120 122 123
f 119 123 48
f 120 123 119
f 52 124 125
f 124 122 126
f 125 126 127
f 124 126 125
f 122 121 128
f 121 118 129
f 128 129 130
f 121 129 128
f 127 131 132
f 131 130 133
f 132 133 134
f 131 133 132
f 122 128 126
f 128 130 131
f 126 131 127
f 128 131 126
f 52 125 55
f 125 127 135
f 55 135 56
f 125 135 55
f 127 132 136
f 132 134 137
f 136 137 138
f 132 137 136
f 56 139 58
f 139 138 140
f 58 140 9
f 139 140 58
f 127 136 135
f 136 138 139
f 135 139 56
f 136 139 135
f 9 140 59
f 141 142 143
f 60 143 61
f 141 143 60
f 142 144 145
f 144 146 147
f 145 147 148
f 144 147 145
f 61 149 64
f 149 148 150
f 64 150 66
f 149 150 64
f 142 145 143
f 145 148 149
f 143 149 61
f 145 149 143
f 151 152 153
f 152 154 155
f 153 155 156
f 152 155 153
f 154 157 158
f 157 80 79
f 158 79 76
f 157 79 158
f 156 159 160
f 159 76 75
f 160 75 66
f 159 75 160
f 154 158 155
f 158 76 159
f 155 159 156
f 158 159 155
f 151 161 152
f 161 162 163
f 152 163 154
f 161 163 152
f 162 164 165
f 164 97 96
f 165 96 93
f 164 96 165
f 154 166 157
f 166 93 92
f 157 92 80
f 166 92 157
f 162 165 163
f 165 93 166
f 163 166 154
f 165 166 163
f 151 167 161
f 167 168 169
f 161 169 162
f 167 169 161
f 168 170 171
f 172 118 117
f 173 117 114
f 172 117 173
f 162 174 164
f 174 175 112
f 164 112 97
f 174 112 164
f 168 171 169
f 171 175 174
f 169 174 162
f 171 174 169
f 151 176 167
f 176 177 178
f 167 178 168
f 176 178 167
f 177 179 180
f 179 146 181
f 182 133 130
f 179 181 180
f 168 183 170
f 184 130 129
f 172 129 118
f 184 129 172
f 177 180 178
f 180 185 183
f 178 183 168
f 180 183 178
f 151 153 176
f 153 156 186
f 176 186 177
f 153 186 176
f 156 160 187
f 160 66 150
f 187 150 148
f 160 150 187
f 177 188 179
f 188 148 147
f 179 147 146
f 188 147 179
f 156 187 186
f 187 148 188
f 186 188 177
f 187 188 186
f 10 63 11
f 11 63 15
f 12 14 13
f 13 14 17
f 11 15 12
f 12 15 14
f 13 17 22
f 22 17 24
f 30 29 31
f 31 29 87
f 26 28 30
f 30 28 29
f 22 24 32
f 32 24 25
f 32 25 26
f 26 25 28
f 59 60 10
f 10 60 63
f 31 87 98
f 98 87 88
f 98 88 99
f 99 88 90
f 99 90 101
f 101 90 95
f 101 95 104
f 104 95 103
f 113 112 114
f 114 112 175
f 104 103 113
f 113 103 112
f 133 181 134
f 134 181 146
f 134 146 137
f 137 146 144
f 137 144 138
f 138 144 142
f 138 142 140
f 140 142 141
f 140 141 59
f 59 141 60
f 114 175 173
f 173 175 171
f 173 171 172
f 172 171 170
f 182 180 133
f 133 180 181
f 130 185 182
f 182 185 180
f 184 183 130
f 130 183 185
f 172 170 184
f 184 170 183
