v -0.0134429 1.1855 -0.332443
v 0.0214269 1.14168 -0.336917
v 0.0158444 1.19047 -0.380125
v 0.0446935 1.09225 -0.35
v 0.0480886 1.14285 -0.388555
v 0.0339534 1.18612 -0.433125
v 0.0545857 1.04097 -0.370695
v 0.0678019 1.08298 -0.408637
v 0.0503505 0.991742 -0.397427
v 0.0684934 1.03056 -0.433756
v 0.0714501 1.07223 -0.471322
v 0.0621554 1.13232 -0.452338
v 0.0395055 1.17277 -0.487411
v 0.0621554 1.09442 -0.532338
v 0.0714501 1.03432 -0.551322
v 0.0589958 1.07566 -0.587265
v 0.0395055 1.13486 -0.567411
v 0.0320783 1.11353 -0.618848
v -0.0363957 1.22621 -0.363621
v -0.0103955 1.22834 -0.415564
v -0.06655 1.25487 -0.401374
v 0.00367127 1.21782 -0.479347
v 0.00117317 1.16019 -0.613968
v 0.00117317 1.19809 -0.533968
v -0.0397934 1.23485 -0.522696
v -0.0491665 1.25396 -0.462655
v -0.101611 1.2693 -0.442829
v -0.0877029 1.25889 -0.50589
v -0.138908 1.2684 -0.48483
v -0.0630992 1.19951 -0.310214
v -0.0902423 1.23748 -0.344854
v -0.117924 1.2035 -0.298626
v -0.129013 1.2631 -0.391944
v -0.166646 1.26793 -0.43598
v -0.191671 1.25222 -0.388197
v -0.156022 1.23609 -0.337926
v -0.173745 1.19717 -0.298561
v -0.212077 1.22249 -0.345118
v -0.226311 1.181 -0.310024
v -0.0273629 1.14727 -0.29371
v -0.0811062 1.15763 -0.274143
v -0.049172 1.10299 -0.266875
v -0.146886 1.15624 -0.267215
v -0.203044 1.14355 -0.275207
v -0.174293 1.10035 -0.253697
v -0.110741 1.1034 -0.250523
v -0.0772102 1.05605 -0.253979
v -0.142246 1.05467 -0.24713
v -0.109343 1.01001 -0.256005
v 0.00438704 1.09915 -0.301152
v -0.0252478 1.04492 -0.277532
v -0.05772 0.996852 -0.273833
v -0.0116753 0.989103 -0.305071
v 0.0241003 1.03927 -0.321233
v 0.0252861 0.987355 -0.347342
v 0.0503505 0.953837 -0.477427
v 0.0477892 0.932609 -0.529377
v 0.0684934 0.992657 -0.513756
v 0.0316179 0.918798 -0.581374
v 0.0609276 0.973808 -0.568219
v 0.00306755 0.913455 -0.629461
v 0.0343401 0.962421 -0.62772
v -0.0356884 0.916987 -0.669976
v -0.002515 0.962245 -0.672668
v 0.0208777 1.01266 -0.6645
v 0.0552812 1.02316 -0.61192
v 0.032709 1.0644 -0.646093
v -0.00302731 1.11664 -0.662596
v -0.00745151 1.06461 -0.688114
v -0.0478745 1.11317 -0.696251
v -0.0283926 1.00387 -0.703913
v -0.0589554 0.954436 -0.704793
v -0.0877068 0.997641 -0.726303
v -0.0645378 1.05671 -0.720606
v -0.0990496 1.10336 -0.71725
v -0.119754 1.04331 -0.73287
v -0.152657 1.08797 -0.723994
v -0.0393482 1.16149 -0.655622
v -0.0397934 1.19694 -0.602696
v -0.0964344 1.15359 -0.688114
v -0.15129 1.1391 -0.700746
v -0.148378 1.18192 -0.6645
v -0.0921859 1.23554 -0.558929
v -0.0921859 1.19763 -0.638929
v -0.144143 1.21318 -0.618015
v -0.144143 1.25108 -0.538015
v -0.192933 1.25667 -0.494808
v -0.19862 1.19538 -0.62772
v -0.19862 1.23329 -0.54772
v -0.242243 1.23056 -0.501374
v -0.202869 1.15134 -0.676904
v -0.20428 1.10113 -0.706167
v -0.250325 1.10888 -0.674929
v -0.242243 1.19266 -0.581374
v -0.252217 1.15698 -0.633203
v -0.283086 1.15418 -0.58403
v -0.287286 1.11063 -0.632658
v -0.31235 1.10625 -0.582573
v -0.221381 1.25032 -0.444517
v -0.283086 1.19208 -0.50403
v -0.274977 1.21192 -0.45
v -0.31235 1.14415 -0.502573
v -0.309789 1.16538 -0.450623
v -0.293618 1.17919 -0.398626
v -0.24839 1.22331 -0.390499
v -0.265067 1.18453 -0.350539
v -0.259485 1.13574 -0.307332
v -0.29634 1.13557 -0.35228
v -0.282878 1.08532 -0.3155
v -0.322927 1.12418 -0.411781
v -0.330493 1.10533 -0.466244
v -0.33345 1.06366 -0.428678
v -0.317281 1.07483 -0.36808
v -0.294709 1.03358 -0.333907
v -0.320996 1.02232 -0.392735
v -0.294078 0.984456 -0.361152
v -0.233607 1.09412 -0.276087
v -0.254548 1.03338 -0.291886
v -0.258973 0.981342 -0.317404
v -0.214125 0.98482 -0.283749
v -0.197462 1.04128 -0.259394
v -0.16295 0.994627 -0.26275
v -0.11071 0.95889 -0.279254
v -0.165565 0.944397 -0.291886
v -0.113622 0.916068 -0.3155
v -0.222652 0.9365 -0.324378
v -0.263173 0.937797 -0.366032
v -0.222206 0.901046 -0.377304
v -0.169814 0.900355 -0.341071
v -0.117856 0.884808 -0.361985
v -0.169814 0.86245 -0.421071
v -0.222206 0.863141 -0.457304
v -0.174297 0.839095 -0.47411
v -0.117856 0.846903 -0.441985
v -0.123092 0.829583 -0.49517
v -0.0591311 0.946649 -0.303096
v -0.0633796 0.902606 -0.35228
v -0.0690667 0.84132 -0.485192
v -0.0633796 0.864701 -0.43228
v -0.0197564 0.867423 -0.478626
v -0.00978305 0.941002 -0.346797
v -0.0197564 0.905328 -0.398626
v 0.0210857 0.94381 -0.39597
v 0.0210857 0.905905 -0.47597
v 0.0129775 0.886064 -0.53
v -0.040619 0.847667 -0.535483
v -0.0953534 0.830062 -0.54402
v -0.0703288 0.845763 -0.591803
v -0.01361 0.874676 -0.589501
v -0.0499227 0.875493 -0.634882
v -0.248557 0.912484 -0.647557
v -0.234637 0.95072 -0.68629
v -0.198901 0.89848 -0.669786
v -0.212828 0.994994 -0.713125
v -0.180894 0.940353 -0.705857
v -0.144076 0.894491 -0.681374
v -0.18479 1.04194 -0.726021
v -0.151259 0.994582 -0.729477
v -0.115114 0.941745 -0.712785
v -0.088255 0.900821 -0.681439
v -0.283427 0.956303 -0.643083
v -0.306693 1.00573 -0.63
v -0.266387 0.998837 -0.678848
v -0.316586 1.05702 -0.609305
v -0.2861 1.05871 -0.658767
v -0.236752 1.05307 -0.702468
v -0.277844 0.907513 -0.599875
v -0.295953 0.911869 -0.546875
v -0.310088 0.955136 -0.591445
v -0.301505 0.925221 -0.492589
v -0.324155 0.965663 -0.527662
v -0.301505 0.963125 -0.412589
v -0.324155 1.00357 -0.447662
v -0.329802 1.01501 -0.571363
v -0.33345 1.02576 -0.508678
v -0.330493 1.06743 -0.546244
v -0.225604 0.871777 -0.616379
v -0.19545 0.843117 -0.578626
v -0.251604 0.869642 -0.564436
v -0.160389 0.828686 -0.537171
v -0.212833 0.844025 -0.517345
v -0.265671 0.88017 -0.500653
v -0.263173 0.899893 -0.446032
v -0.171757 0.860506 -0.635146
v -0.105977 0.861898 -0.642074
v -0.132987 0.834889 -0.588056
f 1 2 3
f 2 4 5
f 3 5 6
f 2 5 3
f 4 7 8
f 7 9 10
f 8 10 11
f 7 10 8
f 6 12 13
f 14 15 16
f 17 16 18
f 14 16 17
f 4 8 5
f 8 11 12
f 5 12 6
f 8 12 5
f 1 3 19
f 3 6 20
f 19 20 21
f 3 20 19
f 6 13 22
f 17 18 23
f 22 24 25
f 13 24 22
f 21 26 27
f 26 25 28
f 27 28 29
f 26 28 27
f 6 22 20
f 22 25 26
f 20 26 21
f 22 26 20
f 1 19 30
f 19 21 31
f 30 31 32
f 19 31 30
f 21 27 33
f 27 29 34
f 33 34 35
f 27 34 33
f 32 36 37
f 36 35 38
f 37 38 39
f 36 38 37
f 21 33 31
f 33 35 36
f 31 36 32
f 33 36 31
f 1 30 40
f 30 32 41
f 40 41 42
f 30 41 40
f 32 37 43
f 37 39 44
f 43 44 45
f 37 44 43
f 42 46 47
f 46 45 48
f 47 48 49
f 46 48 47
f 32 43 41
f 43 45 46
f 41 46 42
f 43 46 41
f 1 40 2
f 40 42 50
f 2 50 4
f 40 50 2
f 42 47 51
f 47 49 52
f 51 52 53
f 47 52 51
f 4 54 7
f 54 53 55
f 7 55 9
f 54 55 7
f 42 51 50
f 51 53 54
f 50 54 4
f 51 54 50
f 56 57 58
f 57 59 60
f 58 60 15
f 57 60 58
f 59 61 62
f 61 63 64
f 62 64 65
f 61 64 62
f 15 66 16
f 66 65 67
f 16 67 18
f 66 67 16
f 59 62 60
f 62 65 66
f 60 66 15
f 62 66 60
f 18 67 68
f 67 65 69
f 68 69 70
f 67 69 68
f 65 64 71
f 64 63 72
f 71 72 73
f 64 72 71
f 70 74 75
f 74 73 76
f 75 76 77
f 74 76 75
f 65 71 69
f 71 73 74
f 69 74 70
f 71 74 69
f 18 68 23
f 68 70 78
f 23 78 79
f 68 78 23
f 70 75 80
f 75 77 81
f 80 81 82
f 75 81 80
f 25 83 28
f 84 82 85
f 28 86 29
f 83 86 28
f 70 80 78
f 80 82 84
f 78 84 79
f 80 84 78
f 29 86 87
f 85 82 88
f 87 89 90
f 86 89 87
f 82 81 91
f 81 77 92
f 91 92 93
f 81 92 91
f 94 95 96
f 95 93 97
f 96 97 98
f 95 97 96
f 82 91 88
f 91 93 95
f 88 95 94
f 91 95 88
f 29 87 34
f 87 90 99
f 34 99 35
f 87 99 34
f 90 100 101
f 100 102 103
f 101 103 104
f 100 103 101
f 35 105 38
f 105 104 106
f 38 106 39
f 105 106 38
f 90 101 99
f 101 104 105
f 99 105 35
f 101 105 99
f 39 106 107
f 106 104 108
f 107 108 109
f 106 108 107
f 104 103 110
f 103 102 111
f 110 111 112
f 103 111 110
f 109 113 114
f 113 112 115
f 114 115 116
f 113 115 114
f 104 110 108
f 110 112 113
f 108 113 109
f 110 113 108
f 39 107 44
f 107 109 117
f 44 117 45
f 107 117 44
f 109 114 118
f 114 116 119
f 118 119 120
f 114 119 118
f 45 121 48
f 121 120 122
f 48 122 49
f 121 122 48
f 109 118 117
f 118 120 121
f 117 121 45
f 118 121 117
f 49 122 123
f 122 120 124
f 123 124 125
f 122 124 123
f 120 119 126
f 119 116 127
f 126 127 128
f 119 127 126
f 125 129 130
f 131 132 133
f 134 133 135
f 131 133 134
f 120 126 124
f 126 128 129
f 124 129 125
f 126 129 124
f 49 123 52
f 123 125 136
f 52 136 53
f 123 136 52
f 125 130 137
f 134 135 138
f 139 138 140
f 134 138 139
f 53 141 55
f 141 142 143
f 55 143 9
f 141 143 55
f 125 137 136
f 137 142 141
f 136 141 53
f 137 141 136
f 56 144 57
f 144 140 145
f 57 145 59
f 144 145 57
f 140 138 146
f 138 135 147
f 146 147 148
f 138 147 146
f 59 149 61
f 149 148 150
f 61 150 63
f 149 150 61
f 140 146 145
f 146 148 149
f 145 149 59
f 146 149 145
f 151 152 153
f 152 154 155
f 153 155 156
f 152 155 153
f 154 157 158
f 157 77 76
f 158 76 73
f 157 76 158
f 156 159 160
f 159 73 72
f 160 72 63
f 159 72 160
f 154 158 155
f 158 73 159
f 155 159 156
f 158 159 155
f 151 161 152
f 161 162 163
f 152 163 154
f 161 163 152
f 162 164 165
f 164 98 97
f 165 97 93
f 164 97 165
f 154 166 157
f 166 93 92
f 157 92 77
f 166 92 157
f 162 165 163
f 165 93 166
f 163 166 154
f 165 166 163
f 151 167 161
f 167 168 169
f 161 169 162
f 167 169 161
f 168 170 171
f 172 116 115
f 173 115 112
f 172 115 173
f 162 174 164
f 174 175 176
f 164 176 98
f 174 176 164
f 168 171 169
f 171 175 174
f 169 174 162
f 171 174 169
f 151 177 167
f 177 178 179
f 167 179 168
f 177 179 167
f 178 180 181
f 180 135 133
f 181 133 132
f 180 133 181
f 168 182 170
f 182 132 183
f 172 127 116
f 182 183 170
f 178 181 179
f 181 132 182
f 179 182 168
f 181 182 179
f 151 153 177
f 153 156 184
f 177 184 178
f 153 184 177
f 156 160 185
f 160 63 150
f 185 150 148
f 160 150 185
f 178 186 180
f 186 148 147
f 180 147 135
f 186 147 180
f 156 185 184
f 185 148 186
f 184 186 178
f 185 186 184
f 9 56 10
f 10 56 58
f 10 58 11
f 11 58 15
f 12 14 13
f 13 14 17
f 11 15 12
f 12 15 14
f 24 23 25
f 25 23 79
f 13 17 24
f 24 17 23
f 25 79 83
f 83 79 84
f 83 84 86
f 86 84 85
f 89 88 90
f 90 88 94
f 86 85 89
f 89 85 88
f 90 94 100
f 100 94 96
f 100 96 102
f 102 96 98
f 102 98 111
f 111 98 176
f 111 176 112
f 112 176 175
f 127 183 128
f 128 183 132
f 129 131 130
f 130 131 134
f 128 132 129
f 129 132 131
f 130 134 137
f 137 134 139
f 142 140 143
f 143 140 144
f 143 144 9
f 9 144 56
f 137 139 142
f 142 139 140
f 112 175 173
f 173 175 171
f 173 171 172
f 172 171 170
f 172 170 127
f 127 170 183
