v -0.0134429 1.1476 -0.412443
v 0.0214269 1.10378 -0.416917
v 0.0158444 1.15257 -0.460125
v 0.0446935 1.05435 -0.43
v 0.0480886 1.10495 -0.468555
v 0.0339534 1.14821 -0.513125
v 0.0545857 1.00307 -0.450695
v 0.0678019 1.04507 -0.488636
v 0.0503505 0.953837 -0.477427
v 0.0684934 0.992657 -0.513756
v 0.0714501 1.03432 -0.551322
v 0.0621554 1.09442 -0.532338
v 0.0395055 1.13486 -0.567411
v 0.0621554 1.06933 -0.652338
v 0.0714501 1.00924 -0.671322
v 0.0589958 1.05058 -0.707265
v 0.0395055 1.10978 -0.687411
v 0.0320783 1.08844 -0.738848
v -0.0363957 1.18831 -0.443621
v -0.0103955 1.19044 -0.495564
v -0.06655 1.21697 -0.481374
v 0.00367127 1.17991 -0.559347
v 0.00117317 1.1351 -0.733968
v 0.00367127 1.15483 -0.679347
v -0.0397934 1.17186 -0.722696
v -0.0491665 1.21606 -0.542655
v -0.101611 1.2314 -0.522829
v -0.0491665 1.19097 -0.662655
v -0.0877029 1.1959 -0.70589
v -0.0877029 1.22099 -0.58589
v -0.138908 1.2305 -0.56483
v -0.0630992 1.1616 -0.390214
v -0.0902423 1.19958 -0.424854
v -0.117924 1.16559 -0.378626
v -0.129013 1.22519 -0.471944
v -0.166646 1.23002 -0.51598
v -0.191671 1.21432 -0.468197
v -0.156022 1.19818 -0.417926
v -0.173745 1.15926 -0.378561
v -0.212077 1.18459 -0.425118
v -0.226311 1.1431 -0.390024
v -0.0273629 1.10936 -0.37371
v -0.0811062 1.11973 -0.354143
v -0.049172 1.06509 -0.346875
v -0.146886 1.11834 -0.347215
v -0.203044 1.10565 -0.355207
v -0.174293 1.06244 -0.333697
v -0.110741 1.0655 -0.330523
v -0.0772102 1.01815 -0.333979
v -0.142246 1.01677 -0.32713
v -0.109343 0.972109 -0.336005
v 0.00438704 1.06125 -0.381152
v -0.0252478 1.00702 -0.357532
v -0.05772 0.958948 -0.353833
v -0.0116753 0.951198 -0.385071
v 0.0241003 1.00137 -0.401233
v 0.0252861 0.94945 -0.427342
v 0.0477892 0.932609 -0.529377
v 0.0477892 0.907523 -0.649377
v 0.0316179 0.893712 -0.701374
v 0.0609276 0.948722 -0.688219
v 0.0684934 0.967571 -0.633756
v 0.00306755 0.888369 -0.749461
v 0.0343401 0.937335 -0.74772
v -0.0356884 0.891901 -0.789976
v -0.002515 0.937159 -0.792668
v 0.0208777 0.987577 -0.7845
v 0.0552812 0.99807 -0.73192
v 0.032709 1.03932 -0.766093
v -0.00302731 1.09156 -0.782596
v -0.00745151 1.03952 -0.808114
v -0.0478745 1.08808 -0.816251
v -0.0283926 0.978785 -0.823913
v -0.0589554 0.92935 -0.824793
v -0.0877068 0.972555 -0.846303
v -0.0645378 1.03162 -0.840606
v -0.0990496 1.07827 -0.83725
v -0.119754 1.01823 -0.85287
v -0.152657 1.06289 -0.843994
v -0.0393482 1.1364 -0.775622
v -0.0964344 1.1285 -0.808114
v -0.15129 1.11401 -0.820746
v -0.148378 1.15683 -0.7845
v -0.0921859 1.17255 -0.758929
v -0.144143 1.18809 -0.738015
v -0.138908 1.20541 -0.68483
v -0.192933 1.19368 -0.694808
v -0.19862 1.1703 -0.74772
v -0.242243 1.16757 -0.701374
v -0.202869 1.12625 -0.796904
v -0.20428 1.07605 -0.826167
v -0.250325 1.0838 -0.794929
v -0.252217 1.1319 -0.753203
v -0.283086 1.12909 -0.70403
v -0.287286 1.08555 -0.752658
v -0.31235 1.08116 -0.702573
v -0.192933 1.21876 -0.574808
v -0.242243 1.19266 -0.581374
v -0.221381 1.21242 -0.524517
v -0.274977 1.14893 -0.65
v -0.309789 1.10239 -0.650623
v -0.274977 1.17402 -0.53
v -0.309789 1.12747 -0.530623
v -0.293618 1.14128 -0.478626
v -0.283086 1.15418 -0.58403
v -0.24839 1.18541 -0.470499
v -0.265067 1.14663 -0.430539
v -0.259485 1.09784 -0.387332
v -0.29634 1.09766 -0.43228
v -0.282878 1.04742 -0.3955
v -0.322927 1.08627 -0.491781
v -0.330493 1.04234 -0.666244
v -0.330493 1.06743 -0.546244
v -0.33345 1.02576 -0.508678
v -0.317281 1.03693 -0.44808
v -0.294709 0.995678 -0.413907
v -0.320996 0.984419 -0.472735
v -0.294078 0.946552 -0.441152
v -0.233607 1.05621 -0.356087
v -0.254548 0.995476 -0.371886
v -0.258973 0.943438 -0.397404
v -0.214125 0.946916 -0.363749
v -0.197462 1.00337 -0.339394
v -0.16295 0.956722 -0.34275
v -0.11071 0.920986 -0.359254
v -0.165565 0.906493 -0.371886
v -0.113622 0.878164 -0.3955
v -0.222652 0.898595 -0.404378
v -0.263173 0.899893 -0.446032
v -0.222206 0.863141 -0.457304
v -0.169814 0.86245 -0.421071
v -0.117856 0.846903 -0.441985
v -0.174297 0.839095 -0.47411
v -0.123092 0.829583 -0.49517
v -0.0591311 0.908744 -0.383096
v -0.0633796 0.864701 -0.43228
v -0.0690667 0.84132 -0.485192
v -0.0197564 0.867423 -0.478626
v -0.00978305 0.903098 -0.426797
v 0.0210857 0.905905 -0.47597
v 0.0129775 0.886064 -0.53
v 0.0129775 0.860978 -0.65
v 0.0210857 0.880819 -0.59597
v -0.0197564 0.842337 -0.598626
v -0.0690667 0.816234 -0.605192
v -0.040619 0.822581 -0.655483
v -0.123092 0.804497 -0.61517
v -0.0953534 0.804976 -0.66402
v -0.0703288 0.820677 -0.711803
v -0.01361 0.84959 -0.709501
v -0.0499227 0.850407 -0.754882
v -0.248557 0.887398 -0.767557
v -0.234637 0.925634 -0.80629
v -0.198901 0.873394 -0.789786
v -0.212828 0.969909 -0.833125
v -0.180894 0.915267 -0.825857
v -0.144076 0.869405 -0.801374
v -0.18479 1.01685 -0.846021
v -0.151259 0.969496 -0.849477
v -0.115114 0.916659 -0.832785
v -0.088255 0.875735 -0.801439
v -0.283427 0.931217 -0.763083
v -0.306693 0.980649 -0.75
v -0.266387 0.973751 -0.798848
v -0.316586 1.03193 -0.729305
v -0.2861 1.03363 -0.778767
v -0.236752 1.02798 -0.822468
v -0.277844 0.882427 -0.719875
v -0.295953 0.886783 -0.666875
v -0.310088 0.93005 -0.711445
v -0.301505 0.900135 -0.612589
v -0.324155 0.940577 -0.647662
v -0.301505 0.925221 -0.492589
v -0.324155 0.965663 -0.527662
v -0.329802 0.989925 -0.691363
v -0.33345 1.00067 -0.628678
v -0.225604 0.846691 -0.736379
v -0.19545 0.818031 -0.698626
v -0.251604 0.844557 -0.684436
v -0.160389 0.8036 -0.657171
v -0.212833 0.818939 -0.637345
v -0.174297 0.814009 -0.59411
v -0.212833 0.844025 -0.517345
v -0.265671 0.855084 -0.620653
v -0.265671 0.88017 -0.500653
v -0.171757 0.83542 -0.755146
v -0.105977 0.836812 -0.762074
v -0.132987 0.809803 -0.708056
f 1 2 3
f 2 4 5
f 3 5 6
f 2 5 3
f 4 7 8
f 7 9 10
f 8 10 11
f 7 10 8
f 6 12 13
f 14 15 16
f 17 16 18
f 14 16 17
f 4 8 5
f 8 11 12
f 5 12 6
f 8 12 5
f 1 3 19
f 3 6 20
f 19 20 21
f 3 20 19
f 6 13 22
f 17 18 23
f 24 23 25
f 17 23 24
f 21 26 27
f 28 25 29
f 27 30 31
f 26 30 27
f 6 22 20
f 24 25 28
f 20 26 21
f 22 26 20
f 1 19 32
f 19 21 33
f 32 33 34
f 19 33 32
f 21 27 35
f 27 31 36
f 35 36 37
f 27 36 35
f 34 38 39
f 38 37 40
f 39 40 41
f 38 40 39
f 21 35 33
f 35 37 38
f 33 38 34
f 35 38 33
f 1 32 42
f 32 34 43
f 42 43 44
f 32 43 42
f 34 39 45
f 39 41 46
f 45 46 47
f 39 46 45
f 44 48 49
f 48 47 50
f 49 50 51
f 48 50 49
f 34 45 43
f 45 47 48
f 43 48 44
f 45 48 43
f 1 42 2
f 42 44 52
f 2 52 4
f 42 52 2
f 44 49 53
f 49 51 54
f 53 54 55
f 49 54 53
f 4 56 7
f 56 55 57
f 7 57 9
f 56 57 7
f 44 53 52
f 53 55 56
f 52 56 4
f 53 56 52
f 9 58 10
f 59 60 61
f 62 61 15
f 59 61 62
f 60 63 64
f 63 65 66
f 64 66 67
f 63 66 64
f 15 68 16
f 68 67 69
f 16 69 18
f 68 69 16
f 60 64 61
f 64 67 68
f 61 68 15
f 64 68 61
f 18 69 70
f 69 67 71
f 70 71 72
f 69 71 70
f 67 66 73
f 66 65 74
f 73 74 75
f 66 74 73
f 72 76 77
f 76 75 78
f 77 78 79
f 76 78 77
f 67 73 71
f 73 75 76
f 71 76 72
f 73 76 71
f 18 70 23
f 70 72 80
f 23 80 25
f 70 80 23
f 72 77 81
f 77 79 82
f 81 82 83
f 77 82 81
f 25 84 29
f 84 83 85
f 29 85 86
f 84 85 29
f 72 81 80
f 81 83 84
f 80 84 25
f 81 84 80
f 86 85 87
f 85 83 88
f 87 88 89
f 85 88 87
f 83 82 90
f 82 79 91
f 90 91 92
f 82 91 90
f 89 93 94
f 93 92 95
f 94 95 96
f 93 95 94
f 83 90 88
f 90 92 93
f 88 93 89
f 90 93 88
f 31 97 36
f 97 98 99
f 36 99 37
f 97 99 36
f 89 94 100
f 94 96 101
f 102 103 104
f 105 103 102
f 37 106 40
f 106 104 107
f 40 107 41
f 106 107 40
f 98 102 99
f 102 104 106
f 99 106 37
f 102 106 99
f 41 107 108
f 107 104 109
f 108 109 110
f 107 109 108
f 104 103 111
f 101 96 112
f 111 113 114
f 103 113 111
f 110 115 116
f 115 114 117
f 116 117 118
f 115 117 116
f 104 111 109
f 111 114 115
f 109 115 110
f 111 115 109
f 41 108 46
f 108 110 119
f 46 119 47
f 108 119 46
f 110 116 120
f 116 118 121
f 120 121 122
f 116 121 120
f 47 123 50
f 123 122 124
f 50 124 51
f 123 124 50
f 110 120 119
f 120 122 123
f 119 123 47
f 120 123 119
f 51 124 125
f 124 122 126
f 125 126 127
f 124 126 125
f 122 121 128
f 121 118 129
f 128 129 130
f 121 129 128
f 127 131 132
f 131 130 133
f 132 133 134
f 131 133 132
f 122 128 126
f 128 130 131
f 126 131 127
f 128 131 126
f 51 125 54
f 125 127 135
f 54 135 55
f 125 135 54
f 127 132 136
f 132 134 137
f 136 137 138
f 132 137 136
f 55 139 57
f 139 138 140
f 57 140 9
f 139 140 57
f 127 136 135
f 136 138 139
f 135 139 55
f 136 139 135
f 9 140 58
f 140 138 141
f 59 142 60
f 143 142 59
f 144 145 146
f 145 147 148
f 146 148 149
f 145 148 146
f 60 150 63
f 150 149 151
f 63 151 65
f 150 151 63
f 144 146 142
f 146 149 150
f 142 150 60
f 146 150 142
f 152 153 154
f 153 155 156
f 154 156 157
f 153 156 154
f 155 158 159
f 158 79 78
f 159 78 75
f 158 78 159
f 157 160 161
f 160 75 74
f 161 74 65
f 160 74 161
f 155 159 156
f 159 75 160
f 156 160 157
f 159 160 156
f 152 162 153
f 162 163 164
f 153 164 155
f 162 164 153
f 163 165 166
f 165 96 95
f 166 95 92
f 165 95 166
f 155 167 158
f 167 92 91
f 158 91 79
f 167 91 158
f 163 166 164
f 166 92 167
f 164 167 155
f 166 167 164
f 152 168 162
f 168 169 170
f 162 170 163
f 168 170 162
f 169 171 172
f 173 118 117
f 174 117 114
f 173 117 174
f 163 175 165
f 175 176 112
f 165 112 96
f 175 112 165
f 169 172 170
f 172 176 175
f 170 175 163
f 172 175 170
f 152 177 168
f 177 178 179
f 168 179 169
f 177 179 168
f 178 180 181
f 180 147 182
f 183 133 130
f 180 182 181
f 169 184 171
f 185 130 129
f 173 129 118
f 185 129 173
f 178 181 179
f 183 130 185
f 179 184 169
f 181 184 179
f 152 154 177
f 154 157 186
f 177 186 178
f 154 186 177
f 157 161 187
f 161 65 151
f 187 151 149
f 161 151 187
f 178 188 180
f 188 149 148
f 180 148 147
f 188 148 180
f 157 187 186
f 187 149 188
f 186 188 178
f 187 188 186
f 10 62 11
f 11 62 15
f 12 14 13
f 13 14 17
f 11 15 12
f 12 15 14
f 13 17 22
f 22 17 24
f 30 29 31
f 31 29 86
f 26 28 30
f 30 28 29
f 22 24 26
f 26 24 28
f 58 59 10
f 10 59 62
f 31 86 97
f 97 86 87
f 97 87 98
f 98 87 89
f 105 94 103
f 103 94 101
f 102 100 105
f 105 100 94
f 98 89 102
f 102 89 100
f 113 112 114
f 114 112 176
f 103 101 113
f 113 101 112
f 133 182 134
f 134 182 147
f 134 147 137
f 137 147 145
f 137 145 138
f 138 145 144
f 140 143 58
f 58 143 59
f 138 144 141
f 141 144 142
f 141 142 140
f 140 142 143
f 114 176 174
f 174 176 172
f 174 172 173
f 173 172 171
f 183 181 133
f 133 181 182
f 173 171 185
f 185 171 184
f 185 184 183
f 183 184 181
