v -0.0134429 1.12251 -0.532443
v 0.0214269 1.07869 -0.536917
v 0.0158444 1.12748 -0.580125
v 0.0446935 1.02926 -0.55
v 0.0480886 1.07986 -0.588555
v 0.0339534 1.12313 -0.633125
v 0.0545857 0.97798 -0.570695
v 0.0678019 1.01999 -0.608636
v 0.0503505 0.928751 -0.597427
v 0.0684934 0.967571 -0.633756
v 0.0714501 1.00924 -0.671322
v 0.0621554 1.06933 -0.652338
v 0.0395055 1.10978 -0.687411
v 0.0621554 1.00434 -0.772338
v 0.0714501 0.94424 -0.791322
v 0.0589958 0.98558 -0.827265
v 0.0395055 1.04478 -0.807411
v 0.0320783 1.02345 -0.858848
v 0.0589958 1.05058 -0.707265
v -0.0363957 1.16322 -0.563621
v -0.0103955 1.16535 -0.615564
v -0.06655 1.19188 -0.601374
v 0.00367127 1.15483 -0.679347
v 0.00117317 1.07011 -0.853968
v 0.00117317 1.1351 -0.733968
v -0.0397934 1.17186 -0.722696
v -0.0491665 1.19097 -0.662655
v -0.101611 1.20631 -0.642829
v -0.0877029 1.1959 -0.70589
v -0.138908 1.20541 -0.68483
v -0.0630992 1.13652 -0.510214
v -0.0902423 1.17449 -0.544854
v -0.117924 1.14051 -0.498626
v -0.129013 1.20011 -0.591944
v -0.166646 1.20493 -0.63598
v -0.191671 1.18923 -0.588197
v -0.156022 1.1731 -0.537926
v -0.173745 1.13418 -0.498561
v -0.212077 1.1595 -0.545118
v -0.226311 1.11801 -0.510024
v -0.0273629 1.08428 -0.49371
v -0.0811062 1.09464 -0.474143
v -0.049172 1.04 -0.466875
v -0.146886 1.09325 -0.467215
v -0.203044 1.08056 -0.475207
v -0.174293 1.03736 -0.453697
v -0.110741 1.04041 -0.450523
v -0.0772102 0.99306 -0.453979
v -0.142246 0.991684 -0.44713
v -0.109343 0.947023 -0.456005
v 0.00438704 1.03616 -0.501152
v -0.0252478 0.98193 -0.477532
v -0.05772 0.933862 -0.473833
v -0.0116753 0.926112 -0.505071
v 0.0241003 0.976284 -0.521233
v 0.0252861 0.924364 -0.547342
v 0.0503505 0.863753 -0.717427
v 0.0477892 0.842525 -0.769377
v 0.0684934 0.902574 -0.753756
v 0.0316179 0.828714 -0.821374
v 0.0609276 0.883725 -0.808219
v 0.00306755 0.823371 -0.869461
v 0.0343401 0.872337 -0.86772
v -0.0356884 0.826903 -0.909976
v -0.002515 0.872161 -0.912668
v 0.0208777 0.92258 -0.9045
v 0.0552812 0.933073 -0.85192
v 0.032709 0.974321 -0.886093
v -0.00302731 1.02656 -0.902596
v -0.00745151 0.974523 -0.928114
v -0.0478745 1.02308 -0.936251
v -0.0283926 0.913787 -0.943913
v -0.0589554 0.864352 -0.944793
v -0.0877068 0.907557 -0.966303
v -0.0645378 0.966625 -0.960606
v -0.0990496 1.01328 -0.95725
v -0.119754 0.953228 -0.97287
v -0.152657 0.997889 -0.963995
v -0.0393482 1.0714 -0.895622
v -0.0397934 1.10686 -0.842696
v -0.0964344 1.06351 -0.928114
v -0.15129 1.04901 -0.940746
v -0.148378 1.09184 -0.9045
v -0.0921859 1.17255 -0.758929
v -0.0921859 1.10755 -0.878929
v -0.144143 1.1231 -0.858015
v -0.144143 1.18809 -0.738015
v -0.192933 1.19368 -0.694808
v -0.19862 1.1053 -0.86772
v -0.19862 1.1703 -0.74772
v -0.242243 1.16757 -0.701374
v -0.202869 1.06125 -0.916904
v -0.20428 1.01105 -0.946167
v -0.250325 1.0188 -0.914929
v -0.252217 1.1319 -0.753203
v -0.283086 1.12909 -0.70403
v -0.252217 1.0669 -0.873203
v -0.287286 1.02055 -0.872658
v -0.283086 1.06409 -0.82403
v -0.31235 1.01616 -0.822573
v -0.242243 1.10258 -0.821374
v -0.221381 1.18733 -0.644517
v -0.274977 1.14893 -0.65
v -0.31235 1.08116 -0.702573
v -0.309789 1.10239 -0.650623
v -0.293618 1.1162 -0.598626
v -0.24839 1.16032 -0.590499
v -0.265067 1.12154 -0.550539
v -0.259485 1.07275 -0.507332
v -0.29634 1.07258 -0.55228
v -0.282878 1.02233 -0.5155
v -0.322927 1.06119 -0.611781
v -0.330493 1.04234 -0.666244
v -0.33345 1.00067 -0.628678
v -0.317281 1.01184 -0.56808
v -0.294709 0.970592 -0.533907
v -0.320996 0.959333 -0.592735
v -0.294078 0.921466 -0.561152
v -0.233607 1.03113 -0.476087
v -0.254548 0.97039 -0.491886
v -0.258973 0.918352 -0.517404
v -0.214125 0.92183 -0.483749
v -0.197462 0.978288 -0.459394
v -0.16295 0.931636 -0.46275
v -0.11071 0.8959 -0.479254
v -0.165565 0.881407 -0.491886
v -0.113622 0.853078 -0.5155
v -0.222652 0.873509 -0.524378
v -0.263173 0.874807 -0.566032
v -0.222206 0.838055 -0.577304
v -0.169814 0.837364 -0.541071
v -0.117856 0.821817 -0.561985
v -0.169814 0.772366 -0.661071
v -0.222206 0.773057 -0.697304
v -0.174297 0.749011 -0.71411
v -0.117856 0.756819 -0.681985
v -0.123092 0.7395 -0.73517
v -0.0591311 0.883658 -0.503096
v -0.0633796 0.839615 -0.55228
v -0.0690667 0.751237 -0.725192
v -0.0633796 0.774617 -0.67228
v -0.0197564 0.77734 -0.718626
v -0.00978305 0.878012 -0.546797
v -0.00978305 0.813014 -0.666797
v 0.0210857 0.815822 -0.71597
v 0.0210857 0.880819 -0.59597
v -0.0197564 0.842337 -0.598626
v 0.0129775 0.79598 -0.77
v -0.040619 0.757584 -0.775483
v -0.0953534 0.739978 -0.78402
v -0.0703288 0.75568 -0.831803
v -0.01361 0.784593 -0.829501
v -0.0499227 0.785409 -0.874882
v -0.248557 0.8224 -0.887557
v -0.234637 0.860636 -0.92629
v -0.198901 0.808396 -0.909786
v -0.212828 0.904911 -0.953125
v -0.180894 0.850269 -0.945857
v -0.144076 0.804407 -0.921374
v -0.18479 0.951853 -0.966021
v -0.151259 0.904498 -0.969477
v -0.115114 0.851661 -0.952785
v -0.088255 0.810737 -0.921439
v -0.283427 0.866219 -0.883083
v -0.306693 0.915651 -0.87
v -0.266387 0.908754 -0.918848
v -0.316586 0.966933 -0.849305
v -0.2861 0.968629 -0.898767
v -0.236752 0.962983 -0.942468
v -0.277844 0.817429 -0.839875
v -0.295953 0.821785 -0.786875
v -0.310088 0.865052 -0.831445
v -0.301505 0.835137 -0.732589
v -0.324155 0.875579 -0.767662
v -0.301505 0.900135 -0.612589
v -0.324155 0.940577 -0.647662
v -0.320996 0.894335 -0.712735
v -0.329802 0.924927 -0.811363
v -0.33345 0.935675 -0.748678
v -0.330493 0.977341 -0.786244
v -0.225604 0.781693 -0.856379
v -0.19545 0.753033 -0.818626
v -0.251604 0.779559 -0.804436
v -0.160389 0.738602 -0.777171
v -0.212833 0.753941 -0.757345
v -0.265671 0.790086 -0.740653
v -0.263173 0.809809 -0.686032
v -0.171757 0.770423 -0.875146
v -0.105977 0.771814 -0.882074
v -0.132987 0.744805 -0.828056
f 1 2 3
f 2 4 5
f 3 5 6
f 2 5 3
f 4 7 8
f 7 9 10
f 8 10 11
f 7 10 8
f 6 12 13
f 14 15 16
f 17 16 18
f 12 19 13
f 4 8 5
f 8 11 12
f 5 12 6
f 8 12 5
f 1 3 20
f 3 6 21
f 20 21 22
f 3 21 20
f 6 13 23
f 17 18 24
f 23 25 26
f 13 25 23
f 22 27 28
f 27 26 29
f 28 29 30
f 27 29 28
f 6 23 21
f 23 26 27
f 21 27 22
f 23 27 21
f 1 20 31
f 20 22 32
f 31 32 33
f 20 32 31
f 22 28 34
f 28 30 35
f 34 35 36
f 28 35 34
f 33 37 38
f 37 36 39
f 38 39 40
f 37 39 38
f 22 34 32
f 34 36 37
f 32 37 33
f 34 37 32
f 1 31 41
f 31 33 42
f 41 42 43
f 31 42 41
f 33 38 44
f 38 40 45
f 44 45 46
f 38 45 44
f 43 47 48
f 47 46 49
f 48 49 50
f 47 49 48
f 33 44 42
f 44 46 47
f 42 47 43
f 44 47 42
f 1 41 2
f 41 43 51
f 2 51 4
f 41 51 2
f 43 48 52
f 48 50 53
f 52 53 54
f 48 53 52
f 4 55 7
f 55 54 56
f 7 56 9
f 55 56 7
f 43 52 51
f 52 54 55
f 51 55 4
f 52 55 51
f 57 58 59
f 58 60 61
f 59 61 15
f 58 61 59
f 60 62 63
f 62 64 65
f 63 65 66
f 62 65 63
f 15 67 16
f 67 66 68
f 16 68 18
f 67 68 16
f 60 63 61
f 63 66 67
f 61 67 15
f 63 67 61
f 18 68 69
f 68 66 70
f 69 70 71
f 68 70 69
f 66 65 72
f 65 64 73
f 72 73 74
f 65 73 72
f 71 75 76
f 75 74 77
f 76 77 78
f 75 77 76
f 66 72 70
f 72 74 75
f 70 75 71
f 72 75 70
f 18 69 24
f 69 71 79
f 24 79 80
f 69 79 24
f 71 76 81
f 76 78 82
f 81 82 83
f 76 82 81
f 26 84 29
f 85 83 86
f 29 87 30
f 84 87 29
f 71 81 79
f 81 83 85
f 79 85 80
f 81 85 79
f 30 87 88
f 86 83 89
f 88 90 91
f 87 90 88
f 83 82 92
f 82 78 93
f 92 93 94
f 82 93 92
f 91 95 96
f 97 94 98
f 99 98 100
f 97 98 99
f 83 92 89
f 92 94 97
f 89 97 101
f 92 97 89
f 30 88 35
f 88 91 102
f 35 102 36
f 88 102 35
f 91 96 103
f 96 104 105
f 103 105 106
f 96 105 103
f 36 107 39
f 107 106 108
f 39 108 40
f 107 108 39
f 91 103 102
f 103 106 107
f 102 107 36
f 103 107 102
f 40 108 109
f 108 106 110
f 109 110 111
f 108 110 109
f 106 105 112
f 105 104 113
f 112 113 114
f 105 113 112
f 111 115 116
f 115 114 117
f 116 117 118
f 115 117 116
f 106 112 110
f 112 114 115
f 110 115 111
f 112 115 110
f 40 109 45
f 109 111 119
f 45 119 46
f 109 119 45
f 111 116 120
f 116 118 121
f 120 121 122
f 116 121 120
f 46 123 49
f 123 122 124
f 49 124 50
f 123 124 49
f 111 120 119
f 120 122 123
f 119 123 46
f 120 123 119
f 50 124 125
f 124 122 126
f 125 126 127
f 124 126 125
f 122 121 128
f 121 118 129
f 128 129 130
f 121 129 128
f 127 131 132
f 133 134 135
f 136 135 137
f 133 135 136
f 122 128 126
f 128 130 131
f 126 131 127
f 128 131 126
f 50 125 53
f 125 127 138
f 53 138 54
f 125 138 53
f 127 132 139
f 136 137 140
f 141 140 142
f 136 140 141
f 54 143 56
f 144 142 145
f 56 146 9
f 143 146 56
f 127 139 138
f 139 147 143
f 138 143 54
f 139 143 138
f 57 145 58
f 145 142 148
f 58 148 60
f 145 148 58
f 142 140 149
f 140 137 150
f 149 150 151
f 140 150 149
f 60 152 62
f 152 151 153
f 62 153 64
f 152 153 62
f 142 149 148
f 149 151 152
f 148 152 60
f 149 152 148
f 154 155 156
f 155 157 158
f 156 158 159
f 155 158 156
f 157 160 161
f 160 78 77
f 161 77 74
f 160 77 161
f 159 162 163
f 162 74 73
f 163 73 64
f 162 73 163
f 157 161 158
f 161 74 162
f 158 162 159
f 161 162 158
f 154 164 155
f 164 165 166
f 155 166 157
f 164 166 155
f 165 167 168
f 167 100 98
f 168 98 94
f 167 98 168
f 157 169 160
f 169 94 93
f 160 93 78
f 169 93 160
f 165 168 166
f 168 94 169
f 166 169 157
f 168 169 166
f 154 170 164
f 170 171 172
f 164 172 165
f 170 172 164
f 171 173 174
f 175 118 117
f 176 117 114
f 173 177 174
f 165 178 167
f 178 179 180
f 167 180 100
f 178 180 167
f 171 174 172
f 174 179 178
f 172 178 165
f 174 178 172
f 154 181 170
f 181 182 183
f 170 183 171
f 181 183 170
f 182 184 185
f 184 137 135
f 185 135 134
f 184 135 185
f 171 186 173
f 186 134 187
f 175 129 118
f 186 187 173
f 182 185 183
f 185 134 186
f 183 186 171
f 185 186 183
f 154 156 181
f 156 159 188
f 181 188 182
f 156 188 181
f 159 163 189
f 163 64 153
f 189 153 151
f 163 153 189
f 182 190 184
f 190 151 150
f 184 150 137
f 190 150 184
f 159 189 188
f 189 151 190
f 188 190 182
f 189 190 188
f 9 57 10
f 10 57 59
f 10 59 11
f 11 59 15
f 12 14 19
f 19 14 16
f 19 16 13
f 13 16 17
f 11 15 12
f 12 15 14
f 25 24 26
f 26 24 80
f 13 17 25
f 25 17 24
f 26 80 84
f 84 80 85
f 84 85 87
f 87 85 86
f 90 89 91
f 91 89 101
f 87 86 90
f 90 86 89
f 91 101 95
f 95 101 97
f 95 97 96
f 96 97 99
f 96 99 104
f 104 99 100
f 104 100 113
f 113 100 180
f 113 180 114
f 114 180 179
f 129 187 130
f 130 187 134
f 131 133 132
f 132 133 136
f 130 134 131
f 131 134 133
f 132 136 139
f 139 136 141
f 146 145 9
f 9 145 57
f 143 144 146
f 146 144 145
f 139 141 147
f 147 141 142
f 147 142 143
f 143 142 144
f 117 177 175
f 175 177 173
f 176 174 117
f 117 174 177
f 114 179 176
f 176 179 174
f 175 173 129
f 129 173 187
