v -0.0134429 1.29552 -0.652443
v 0.0214269 1.2517 -0.656917
v 0.0158444 1.30049 -0.700125
v 0.0446935 1.20227 -0.67
v 0.0480886 1.25287 -0.708555
v 0.0339534 1.29614 -0.753125
v 0.0545857 1.15099 -0.690695
v 0.0678019 1.193 -0.728637
v 0.0545857 0.912982 -0.690695
v 0.0503505 0.863753 -0.717427
v 0.0684934 0.902574 -0.753756
v 0.0678019 0.954987 -0.728637
v 0.0714501 0.94424 -0.791322
v 0.0621554 1.24234 -0.772338
v 0.0395055 1.28279 -0.807411
v 0.0714501 1.18225 -0.791322
v 0.0589958 1.22359 -0.827265
v 0.0320783 1.26145 -0.858848
v -0.0363957 1.33623 -0.683621
v -0.0103955 1.33836 -0.735564
v -0.06655 1.36489 -0.721374
v 0.00367127 1.32784 -0.799347
v 0.00117317 1.30811 -0.853968
v -0.0397934 1.34487 -0.842696
v -0.0491665 1.36398 -0.782655
v -0.101611 1.37932 -0.762829
v -0.0877029 1.36891 -0.82589
v -0.138908 1.37842 -0.80483
v -0.0630992 1.30953 -0.630214
v -0.0902423 1.3475 -0.664854
v -0.117924 1.31352 -0.618626
v -0.129013 1.37312 -0.711944
v -0.166646 1.37794 -0.75598
v -0.191671 1.36224 -0.708197
v -0.156022 1.34611 -0.657926
v -0.173745 1.30719 -0.618561
v -0.212077 1.33251 -0.665118
v -0.226311 1.29102 -0.630024
v -0.0273629 1.25729 -0.61371
v -0.0811062 1.26765 -0.594143
v -0.049172 1.21301 -0.586875
v -0.146886 1.26626 -0.587215
v -0.203044 1.25357 -0.595207
v -0.174293 1.21037 -0.573697
v -0.110741 1.21342 -0.570523
v -0.0772102 1.16607 -0.573979
v -0.142246 1.16469 -0.56713
v -0.0772102 0.928062 -0.573979
v -0.142246 0.926686 -0.56713
v -0.109343 0.882025 -0.576005
v 0.00438704 1.20917 -0.621152
v -0.0252478 1.15494 -0.597532
v -0.05772 0.868864 -0.593833
v -0.0252478 0.916932 -0.597532
v -0.0116753 0.861114 -0.625071
v 0.0446935 0.964264 -0.67
v 0.0241003 0.911286 -0.641233
v 0.0252861 0.859366 -0.667342
v 0.0241003 1.14929 -0.641233
v 0.00438704 0.971161 -0.621152
v 0.0477892 0.842525 -0.769377
v 0.0316179 0.828714 -0.821374
v 0.0609276 0.883725 -0.808219
v 0.00306755 0.823371 -0.869461
v 0.0343401 0.872337 -0.86772
v -0.0356884 0.826903 -0.909976
v -0.002515 0.872161 -0.912668
v 0.0208777 0.92258 -0.9045
v 0.0552812 1.17108 -0.85192
v 0.0208777 1.16059 -0.9045
v 0.032709 1.21233 -0.886093
v 0.0552812 0.933073 -0.85192
v -0.00302731 1.26457 -0.902596
v -0.00745151 1.21253 -0.928114
v -0.0478745 1.26109 -0.936251
v -0.0283926 0.913787 -0.943913
v -0.0589554 0.864352 -0.944793
v -0.0877068 0.907557 -0.966303
v -0.0645378 1.20463 -0.960606
v -0.0990496 1.25128 -0.95725
v -0.0877068 1.14557 -0.966303
v -0.119754 1.19124 -0.97287
v -0.152657 1.2359 -0.963995
v -0.00745151 0.974523 -0.928114
v -0.0645378 0.966625 -0.960606
v -0.0283926 1.1518 -0.943913
v -0.0393482 1.30941 -0.895622
v -0.0964344 1.30151 -0.928114
v -0.15129 1.28702 -0.940746
v -0.148378 1.32984 -0.9045
v -0.0921859 1.34556 -0.878929
v -0.144143 1.3611 -0.858015
v -0.192933 1.36669 -0.814808
v -0.19862 1.34331 -0.86772
v -0.242243 1.34058 -0.821374
v -0.202869 1.29926 -0.916904
v -0.20428 1.24906 -0.946167
v -0.250325 1.25681 -0.914929
v -0.252217 1.30491 -0.873203
v -0.283086 1.3021 -0.82403
v -0.287286 1.25856 -0.872658
v -0.31235 1.25417 -0.822573
v -0.221381 1.36034 -0.764517
v -0.274977 1.32194 -0.77
v -0.309789 1.2754 -0.770623
v -0.293618 1.28921 -0.718626
v -0.24839 1.33333 -0.710499
v -0.265067 1.29455 -0.670539
v -0.259485 1.24576 -0.627332
v -0.29634 1.24559 -0.67228
v -0.282878 1.19534 -0.6355
v -0.322927 1.2342 -0.731781
v -0.330493 1.21535 -0.786244
v -0.33345 1.17368 -0.748678
v -0.282878 0.957335 -0.6355
v -0.317281 0.946842 -0.68808
v -0.294709 0.905594 -0.653907
v -0.33345 0.935675 -0.748678
v -0.320996 0.894335 -0.712735
v -0.294078 0.856468 -0.681152
v -0.317281 1.18485 -0.68808
v -0.233607 1.20414 -0.596087
v -0.254548 0.905392 -0.611886
v -0.258973 0.853354 -0.637404
v -0.214125 0.856832 -0.603749
v -0.174293 0.972358 -0.573697
v -0.197462 0.91329 -0.579394
v -0.16295 0.866638 -0.58275
v -0.254548 1.1434 -0.611886
v -0.197462 1.1513 -0.579394
v -0.233607 0.966127 -0.596087
v -0.11071 0.830902 -0.599254
v -0.165565 0.816409 -0.611886
v -0.113622 0.78808 -0.6355
v -0.222652 0.808511 -0.644378
v -0.263173 0.809809 -0.686032
v -0.222206 0.773057 -0.697304
v -0.169814 0.772366 -0.661071
v -0.117856 0.756819 -0.681985
v -0.174297 0.749011 -0.71411
v -0.123092 0.7395 -0.73517
v -0.0591311 0.81866 -0.623096
v -0.0633796 0.774617 -0.67228
v -0.0690667 0.751237 -0.725192
v -0.0197564 0.77734 -0.718626
v -0.00978305 0.813014 -0.666797
v 0.0210857 0.815822 -0.71597
v 0.0129775 0.79598 -0.77
v -0.040619 0.757584 -0.775483
v -0.0953534 0.739978 -0.78402
v -0.0703288 0.75568 -0.831803
v -0.01361 0.784593 -0.829501
v -0.0499227 0.785409 -0.874882
v -0.248557 0.8224 -0.887557
v -0.234637 0.860636 -0.92629
v -0.198901 0.808396 -0.909786
v -0.212828 0.904911 -0.953125
v -0.180894 0.850269 -0.945857
v -0.144076 0.804407 -0.921374
v -0.18479 0.951853 -0.966021
v -0.151259 0.904498 -0.969477
v -0.18479 1.18986 -0.966021
v -0.119754 0.953228 -0.97287
v -0.115114 0.851661 -0.952785
v -0.088255 0.810737 -0.921439
v -0.283427 0.866219 -0.883083
v -0.306693 0.915651 -0.87
v -0.266387 0.908754 -0.918848
v -0.306693 1.15366 -0.87
v -0.316586 1.20494 -0.849305
v -0.2861 1.20664 -0.898767
v -0.236752 0.962983 -0.942468
v -0.236752 1.20099 -0.942468
v -0.2861 0.968629 -0.898767
v -0.266387 1.14676 -0.918848
v -0.277844 0.817429 -0.839875
v -0.295953 0.821785 -0.786875
v -0.310088 0.865052 -0.831445
v -0.301505 0.835137 -0.732589
v -0.324155 0.875579 -0.767662
v -0.329802 0.924927 -0.811363
v -0.316586 0.966933 -0.849305
v -0.329802 1.16294 -0.811363
v -0.225604 0.781693 -0.856379
v -0.19545 0.753033 -0.818626
v -0.251604 0.779559 -0.804436
v -0.160389 0.738602 -0.777171
v -0.212833 0.753941 -0.757345
v -0.265671 0.790086 -0.740653
v -0.171757 0.770423 -0.875146
v -0.105977 0.771814 -0.882074
v -0.132987 0.744805 -0.828056
f 1 2 3
f 2 4 5
f 3 5 6
f 2 5 3
f 4 7 8
f 9 10 11
f 12 11 13
f 9 11 12
f 6 14 15
f 14 16 17
f 15 17 18
f 14 17 15
f 4 8 5
f 8 16 14
f 5 14 6
f 8 14 5
f 1 3 19
f 3 6 20
f 19 20 21
f 3 20 19
f 6 15 22
f 15 18 23
f 22 23 24
f 15 23 22
f 21 25 26
f 25 24 27
f 26 27 28
f 25 27 26
f 6 22 20
f 22 24 25
f 20 25 21
f 22 25 20
f 1 19 29
f 19 21 30
f 29 30 31
f 19 30 29
f 21 26 32
f 26 28 33
f 32 33 34
f 26 33 32
f 31 35 36
f 35 34 37
f 36 37 38
f 35 37 36
f 21 32 30
f 32 34 35
f 30 35 31
f 32 35 30
f 1 29 39
f 29 31 40
f 39 40 41
f 29 40 39
f 31 36 42
f 36 38 43
f 42 43 44
f 36 43 42
f 41 45 46
f 45 44 47
f 48 49 50
f 45 47 46
f 31 42 40
f 42 44 45
f 40 45 41
f 42 45 40
f 1 39 2
f 39 41 51
f 2 51 4
f 39 51 2
f 41 46 52
f 48 50 53
f 54 53 55
f 48 53 54
f 56 57 9
f 57 55 58
f 9 58 10
f 57 58 9
f 41 52 51
f 54 55 57
f 51 59 4
f 54 57 60
f 10 61 11
f 61 62 63
f 11 63 13
f 61 63 11
f 62 64 65
f 64 66 67
f 65 67 68
f 64 67 65
f 16 69 17
f 69 70 71
f 17 71 18
f 69 71 17
f 62 65 63
f 65 68 72
f 63 72 13
f 65 72 63
f 18 71 73
f 71 70 74
f 73 74 75
f 71 74 73
f 68 67 76
f 67 66 77
f 76 77 78
f 67 77 76
f 75 79 80
f 79 81 82
f 80 82 83
f 79 82 80
f 68 76 84
f 76 78 85
f 74 79 75
f 86 79 74
f 18 73 23
f 73 75 87
f 23 87 24
f 73 87 23
f 75 80 88
f 80 83 89
f 88 89 90
f 80 89 88
f 24 91 27
f 91 90 92
f 27 92 28
f 91 92 27
f 75 88 87
f 88 90 91
f 87 91 24
f 88 91 87
f 28 92 93
f 92 90 94
f 93 94 95
f 92 94 93
f 90 89 96
f 89 83 97
f 96 97 98
f 89 97 96
f 95 99 100
f 99 98 101
f 100 101 102
f 99 101 100
f 90 96 94
f 96 98 99
f 94 99 95
f 96 99 94
f 28 93 33
f 93 95 103
f 33 103 34
f 93 103 33
f 95 100 104
f 100 102 105
f 104 105 106
f 100 105 104
f 34 107 37
f 107 106 108
f 37 108 38
f 107 108 37
f 95 104 103
f 104 106 107
f 103 107 34
f 104 107 103
f 38 108 109
f 108 106 110
f 109 110 111
f 108 110 109
f 106 105 112
f 105 102 113
f 112 113 114
f 105 113 112
f 115 116 117
f 116 118 119
f 117 119 120
f 116 119 117
f 106 112 110
f 112 114 121
f 110 121 111
f 112 121 110
f 38 109 43
f 109 111 122
f 43 122 44
f 109 122 43
f 115 117 123
f 117 120 124
f 123 124 125
f 117 124 123
f 126 127 49
f 127 125 128
f 49 128 50
f 127 128 49
f 111 129 122
f 123 125 127
f 122 130 44
f 123 127 131
f 50 128 132
f 128 125 133
f 132 133 134
f 128 133 132
f 125 124 135
f 124 120 136
f 135 136 137
f 124 136 135
f 134 138 139
f 138 137 140
f 139 140 141
f 138 140 139
f 125 135 133
f 135 137 138
f 133 138 134
f 135 138 133
f 50 132 53
f 132 134 142
f 53 142 55
f 132 142 53
f 134 139 143
f 139 141 144
f 143 144 145
f 139 144 143
f 55 146 58
f 146 145 147
f 58 147 10
f 146 147 58
f 134 143 142
f 143 145 146
f 142 146 55
f 143 146 142
f 10 147 61
f 147 145 148
f 61 148 62
f 147 148 61
f 145 144 149
f 144 141 150
f 149 150 151
f 144 150 149
f 62 152 64
f 152 151 153
f 64 153 66
f 152 153 64
f 145 149 148
f 149 151 152
f 148 152 62
f 149 152 148
f 154 155 156
f 155 157 158
f 156 158 159
f 155 158 156
f 157 160 161
f 162 83 82
f 161 163 78
f 160 163 161
f 159 164 165
f 164 78 77
f 165 77 66
f 164 77 165
f 157 161 158
f 161 78 164
f 158 164 159
f 161 164 158
f 154 166 155
f 166 167 168
f 155 168 157
f 166 168 155
f 169 170 171
f 170 102 101
f 171 101 98
f 170 101 171
f 157 172 160
f 173 98 97
f 162 97 83
f 173 97 162
f 167 174 168
f 171 98 173
f 168 172 157
f 171 173 175
f 154 176 166
f 176 177 178
f 166 178 167
f 176 178 166
f 177 179 180
f 179 120 119
f 180 119 118
f 179 119 180
f 167 181 182
f 183 114 113
f 170 113 102
f 183 113 170
f 177 180 178
f 180 118 181
f 178 181 167
f 180 181 178
f 154 184 176
f 184 185 186
f 176 186 177
f 184 186 176
f 185 187 188
f 187 141 140
f 188 140 137
f 187 140 188
f 177 189 179
f 189 137 136
f 179 136 120
f 189 136 179
f 185 188 186
f 188 137 189
f 186 189 177
f 188 189 186
f 154 156 184
f 156 159 190
f 184 190 185
f 156 190 184
f 159 165 191
f 165 66 153
f 191 153 151
f 165 153 191
f 185 192 187
f 192 151 150
f 187 150 141
f 192 150 187
f 159 191 190
f 191 151 192
f 190 192 185
f 191 192 190
f 13 16 12
f 12 16 8
f 12 8 9
f 9 8 7
f 48 46 49
f 49 46 47
f 54 52 48
f 48 52 46
f 56 4 57
f 57 4 59
f 9 7 56
f 56 7 4
f 57 59 60
f 60 59 51
f 60 51 54
f 54 51 52
f 68 70 72
f 72 70 69
f 72 69 13
f 13 69 16
f 76 86 84
f 84 86 74
f 84 74 68
f 68 74 70
f 78 81 85
f 85 81 79
f 85 79 76
f 76 79 86
f 115 111 116
f 116 111 121
f 116 121 118
f 118 121 114
f 123 129 115
f 115 129 111
f 126 44 127
f 127 44 130
f 49 47 126
f 126 47 44
f 127 130 131
f 131 130 122
f 131 122 123
f 123 122 129
f 163 82 78
f 78 82 81
f 160 162 163
f 163 162 82
f 172 173 160
f 160 173 162
f 167 169 174
f 174 169 171
f 174 171 168
f 168 171 175
f 168 175 172
f 172 175 173
f 181 183 182
f 182 183 170
f 182 170 167
f 167 170 169
f 118 114 181
f 181 114 183
