v -0.0134429 1.29552 0.867557
v 0.0214269 1.2517 0.863083
v 0.0158444 1.30049 0.819876
v 0.0446935 1.20227 0.85
v 0.0480886 1.25287 0.811445
v 0.0339534 1.29614 0.766875
v 0.0545857 1.15099 0.829305
v 0.0678019 1.193 0.791364
v 0.0503505 1.10176 0.802573
v 0.0684934 1.14058 0.766244
v 0.0714501 1.18225 0.728678
v 0.0339534 1.29614 -0.753125
v 0.0621554 1.24234 -0.772338
v 0.0395055 1.28279 -0.807411
v 0.0714501 1.18225 -0.791322
v 0.0589958 1.22359 -0.827265
v 0.0320783 1.26145 -0.858848
v 0.0621554 1.24234 0.747662
v -0.0363957 1.33623 0.836379
v -0.0103955 1.33836 0.784436
v -0.06655 1.36489 0.798626
v 0.00367127 1.32784 -0.799347
v 0.00117317 1.30811 -0.853968
v -0.0397934 1.34487 -0.842696
v -0.0491665 1.36398 0.737345
v -0.101611 1.37932 0.757171
v -0.0491665 1.36398 -0.782655
v -0.0877029 1.36891 -0.82589
v -0.101611 1.37932 -0.762829
v -0.138908 1.37842 -0.80483
v 0.00367127 1.32784 0.720653
v -0.0103955 1.33836 -0.735564
v -0.0630992 1.30953 0.889786
v -0.0902423 1.3475 0.855146
v -0.117924 1.31352 0.901374
v -0.129013 1.37312 0.808056
v -0.166646 1.37794 -0.75598
v -0.166646 1.37794 0.76402
v -0.191671 1.36224 0.811804
v -0.156022 1.34611 0.862074
v -0.173745 1.30719 0.901439
v -0.212077 1.33251 0.854882
v -0.226311 1.29102 0.889977
v -0.0273629 1.25729 0.90629
v -0.0811062 1.26765 0.925857
v -0.049172 1.21301 0.933125
v -0.146886 1.26626 0.932785
v -0.203044 1.25357 0.924793
v -0.174293 1.21037 0.946303
v -0.110741 1.21342 0.949478
v -0.0772102 1.16607 0.946021
v -0.142246 1.16469 0.95287
v -0.109343 1.12003 0.943995
v 0.00438704 1.20917 0.898848
v -0.0252478 1.15494 0.922468
v -0.05772 1.10687 0.926167
v -0.0116753 1.09912 0.894929
v 0.0241003 1.14929 0.878767
v 0.0252861 1.09737 0.852658
v 0.0477892 1.08053 0.750623
v 0.0477892 1.08053 -0.769377
v 0.0316179 1.06672 -0.821374
v 0.0609276 1.12173 -0.808219
v 0.0684934 1.14058 -0.753756
v 0.00306755 1.06138 -0.869461
v 0.0343401 1.11035 -0.86772
v -0.0356884 1.06491 -0.909976
v -0.002515 1.11017 -0.912668
v 0.0208777 1.16059 -0.9045
v 0.0552812 1.17108 -0.85192
v 0.032709 1.21233 -0.886093
v -0.00302731 1.26457 -0.902596
v -0.00745151 1.21253 -0.928114
v -0.0478745 1.26109 -0.936251
v -0.0283926 1.1518 -0.943913
v -0.0589554 1.10236 -0.944793
v -0.0877068 1.14557 -0.966303
v -0.0645378 1.20463 -0.960606
v -0.0990496 1.25128 -0.95725
v -0.119754 1.19124 -0.97287
v -0.152657 1.2359 -0.963995
v -0.0393482 1.30941 -0.895622
v -0.0964344 1.30151 -0.928114
v -0.15129 1.28702 -0.940746
v -0.148378 1.32984 -0.9045
v -0.0921859 1.34556 -0.878929
v -0.144143 1.3611 -0.858015
v -0.192933 1.36669 -0.814808
v -0.19862 1.34331 -0.86772
v -0.242243 1.34058 -0.821374
v -0.202869 1.29926 -0.916904
v -0.20428 1.24906 -0.946167
v -0.250325 1.25681 -0.914929
v -0.252217 1.30491 -0.873203
v -0.283086 1.3021 -0.82403
v -0.287286 1.25856 -0.872658
v -0.31235 1.25417 -0.822573
v -0.221381 1.36034 -0.764517
v -0.221381 1.36034 0.755483
v -0.274977 1.32194 -0.77
v -0.309789 1.2754 -0.770623
v -0.274977 1.32194 0.75
v -0.309789 1.2754 0.749377
v -0.293618 1.28921 0.801374
v -0.24839 1.33333 0.809501
v -0.265067 1.29455 0.849461
v -0.259485 1.24576 0.892668
v -0.29634 1.24559 0.84772
v -0.282878 1.19534 0.8845
v -0.322927 1.2342 0.788219
v -0.330493 1.21535 -0.786244
v -0.330493 1.21535 0.733756
v -0.33345 1.17368 0.771322
v -0.317281 1.18485 0.83192
v -0.294709 1.1436 0.866093
v -0.320996 1.13234 0.807265
v -0.294078 1.09448 0.838848
v -0.233607 1.20414 0.923913
v -0.254548 1.1434 0.908114
v -0.258973 1.09136 0.882596
v -0.214125 1.09484 0.916251
v -0.197462 1.1513 0.940606
v -0.16295 1.10465 0.93725
v -0.11071 1.06891 0.920746
v -0.165565 1.05442 0.908114
v -0.113622 1.02609 0.8845
v -0.222652 1.04652 0.875622
v -0.263173 1.04782 0.833968
v -0.222206 1.01107 0.822696
v -0.169814 1.01037 0.85893
v -0.117856 0.994827 0.838015
v -0.174297 0.987019 0.805891
v -0.123092 0.977508 0.78483
v -0.0591311 1.05667 0.896904
v -0.0633796 1.01263 0.84772
v -0.0690667 0.989245 0.794808
v -0.0197564 1.01535 0.801374
v -0.00978305 1.05102 0.853203
v 0.0210857 1.05383 0.80403
v 0.0129775 1.03399 0.75
v 0.0129775 1.03399 -0.77
v -0.040619 0.995592 0.744517
v -0.0953534 0.977986 0.73598
v -0.040619 0.995592 -0.775483
v -0.0953534 0.977986 -0.78402
v -0.0703288 0.993688 -0.831803
v -0.01361 1.0226 -0.829501
v -0.0499227 1.02342 -0.874882
v -0.248557 1.06041 -0.887557
v -0.234637 1.09864 -0.92629
v -0.198901 1.0464 -0.909786
v -0.212828 1.14292 -0.953125
v -0.180894 1.08828 -0.945857
v -0.144076 1.04242 -0.921374
v -0.18479 1.18986 -0.966021
v -0.151259 1.14251 -0.969477
v -0.115114 1.08967 -0.952785
v -0.088255 1.04874 -0.921439
v -0.283427 1.10423 -0.883083
v -0.306693 1.15366 -0.87
v -0.266387 1.14676 -0.918848
v -0.316586 1.20494 -0.849305
v -0.2861 1.20664 -0.898767
v -0.236752 1.20099 -0.942468
v -0.277844 1.05544 -0.839875
v -0.295953 1.05979 -0.786875
v -0.310088 1.10306 -0.831445
v -0.295953 1.05979 0.733126
v -0.301505 1.07315 0.787411
v -0.324155 1.11359 0.752338
v -0.329802 1.16294 -0.811363
v -0.33345 1.17368 -0.748678
v -0.324155 1.11359 -0.767662
v -0.225604 1.0197 -0.856379
v -0.19545 0.991041 -0.818626
v -0.251604 1.01757 -0.804436
v -0.160389 0.976611 -0.777171
v -0.212833 0.991949 -0.757345
v -0.160389 0.976611 0.742829
v -0.212833 0.991949 0.762655
v -0.265671 1.02809 0.779347
v -0.265671 1.02809 -0.740653
v -0.251604 1.01757 0.715565
v -0.171757 1.00843 -0.875146
v -0.105977 1.00982 -0.882074
v -0.132987 0.982813 -0.828056
f 1 2 3
f 2 4 5
f 3 5 6
f 2 5 3
f 4 7 8
f 7 9 10
f 8 10 11
f 7 10 8
f 12 13 14
f 13 15 16
f 14 16 17
f 13 16 14
f 4 8 5
f 8 11 18
f 5 18 6
f 8 18 5
f 1 3 19
f 3 6 20
f 19 20 21
f 3 20 19
f 12 14 22
f 14 17 23
f 22 23 24
f 14 23 22
f 21 25 26
f 27 24 28
f 29 28 30
f 27 28 29
f 6 31 20
f 22 24 27
f 20 25 21
f 22 27 32
f 1 19 33
f 19 21 34
f 33 34 35
f 19 34 33
f 21 26 36
f 29 30 37
f 36 38 39
f 26 38 36
f 35 40 41
f 40 39 42
f 41 42 43
f 40 42 41
f 21 36 34
f 36 39 40
f 34 40 35
f 36 40 34
f 1 33 44
f 33 35 45
f 44 45 46
f 33 45 44
f 35 41 47
f 41 43 48
f 47 48 49
f 41 48 47
f 46 50 51
f 50 49 52
f 51 52 53
f 50 52 51
f 35 47 45
f 47 49 50
f 45 50 46
f 47 50 45
f 1 44 2
f 44 46 54
f 2 54 4
f 44 54 2
f 46 51 55
f 51 53 56
f 55 56 57
f 51 56 55
f 4 58 7
f 58 57 59
f 7 59 9
f 58 59 7
f 46 55 54
f 55 57 58
f 54 58 4
f 55 58 54
f 9 60 10
f 61 62 63
f 64 63 15
f 61 63 64
f 62 65 66
f 65 67 68
f 66 68 69
f 65 68 66
f 15 70 16
f 70 69 71
f 16 71 17
f 70 71 16
f 62 66 63
f 66 69 70
f 63 70 15
f 66 70 63
f 17 71 72
f 71 69 73
f 72 73 74
f 71 73 72
f 69 68 75
f 68 67 76
f 75 76 77
f 68 76 75
f 74 78 79
f 78 77 80
f 79 80 81
f 78 80 79
f 69 75 73
f 75 77 78
f 73 78 74
f 75 78 73
f 17 72 23
f 72 74 82
f 23 82 24
f 72 82 23
f 74 79 83
f 79 81 84
f 83 84 85
f 79 84 83
f 24 86 28
f 86 85 87
f 28 87 30
f 86 87 28
f 74 83 82
f 83 85 86
f 82 86 24
f 83 86 82
f 30 87 88
f 87 85 89
f 88 89 90
f 87 89 88
f 85 84 91
f 84 81 92
f 91 92 93
f 84 92 91
f 90 94 95
f 94 93 96
f 95 96 97
f 94 96 95
f 85 91 89
f 91 93 94
f 89 94 90
f 91 94 89
f 30 88 37
f 88 90 98
f 38 99 39
f 88 98 37
f 90 95 100
f 95 97 101
f 102 103 104
f 95 101 100
f 39 105 42
f 105 104 106
f 42 106 43
f 105 106 42
f 90 100 98
f 102 104 105
f 99 105 39
f 102 105 99
f 43 106 107
f 106 104 108
f 107 108 109
f 106 108 107
f 104 103 110
f 101 97 111
f 110 112 113
f 103 112 110
f 109 114 115
f 114 113 116
f 115 116 117
f 114 116 115
f 104 110 108
f 110 113 114
f 108 114 109
f 110 114 108
f 43 107 48
f 107 109 118
f 48 118 49
f 107 118 48
f 109 115 119
f 115 117 120
f 119 120 121
f 115 120 119
f 49 122 52
f 122 121 123
f 52 123 53
f 122 123 52
f 109 119 118
f 119 121 122
f 118 122 49
f 119 122 118
f 53 123 124
f 123 121 125
f 124 125 126
f 123 125 124
f 121 120 127
f 120 117 128
f 127 128 129
f 120 128 127
f 126 130 131
f 130 129 132
f 131 132 133
f 130 132 131
f 121 127 125
f 127 129 130
f 125 130 126
f 127 130 125
f 53 124 56
f 124 126 134
f 56 134 57
f 124 134 56
f 126 131 135
f 131 133 136
f 135 136 137
f 131 136 135
f 57 138 59
f 138 137 139
f 59 139 9
f 138 139 59
f 126 135 134
f 135 137 138
f 134 138 57
f 135 138 134
f 9 139 60
f 139 137 140
f 61 141 62
f 139 140 60
f 137 136 142
f 136 133 143
f 144 145 146
f 136 143 142
f 62 147 65
f 147 146 148
f 65 148 67
f 147 148 65
f 137 142 140
f 144 146 147
f 141 147 62
f 144 147 141
f 149 150 151
f 150 152 153
f 151 153 154
f 150 153 151
f 152 155 156
f 155 81 80
f 156 80 77
f 155 80 156
f 154 157 158
f 157 77 76
f 158 76 67
f 157 76 158
f 152 156 153
f 156 77 157
f 153 157 154
f 156 157 153
f 149 159 150
f 159 160 161
f 150 161 152
f 159 161 150
f 160 162 163
f 162 97 96
f 163 96 93
f 162 96 163
f 152 164 155
f 164 93 92
f 155 92 81
f 164 92 155
f 160 163 161
f 163 93 164
f 161 164 152
f 163 164 161
f 149 165 159
f 165 166 167
f 159 167 160
f 165 167 159
f 168 169 170
f 169 117 116
f 170 116 113
f 169 116 170
f 160 171 162
f 171 172 111
f 162 111 97
f 171 111 162
f 166 173 167
f 173 172 171
f 167 171 160
f 173 171 167
f 149 174 165
f 174 175 176
f 165 176 166
f 174 176 165
f 175 177 178
f 179 133 132
f 180 132 129
f 179 132 180
f 168 181 169
f 181 129 128
f 169 128 117
f 181 128 169
f 175 178 176
f 180 129 181
f 176 182 166
f 180 181 183
f 149 151 174
f 151 154 184
f 174 184 175
f 151 184 174
f 154 158 185
f 158 67 148
f 185 148 146
f 158 148 185
f 175 186 177
f 186 146 145
f 179 143 133
f 186 145 177
f 154 185 184
f 185 146 186
f 184 186 175
f 185 186 184
f 12 6 13
f 13 6 18
f 13 18 15
f 15 18 11
f 22 31 12
f 12 31 6
f 29 26 27
f 27 26 25
f 27 25 32
f 32 25 20
f 32 20 22
f 22 20 31
f 37 38 29
f 29 38 26
f 15 11 64
f 64 11 10
f 64 10 61
f 61 10 60
f 98 99 37
f 37 99 38
f 101 103 100
f 100 103 102
f 100 102 98
f 98 102 99
f 111 112 101
f 101 112 103
f 61 60 141
f 141 60 140
f 144 142 145
f 145 142 143
f 141 140 144
f 144 140 142
f 172 113 111
f 111 113 112
f 166 168 173
f 173 168 170
f 173 170 172
f 172 170 113
f 177 179 178
f 178 179 180
f 178 180 176
f 176 180 183
f 176 183 182
f 182 183 181
f 182 181 166
f 166 181 168
f 145 143 177
f 177 143 179
