v -0.0134429 1.1154 0.867557
v 0.0214269 1.07158 0.863083
v 0.0158444 1.12037 0.819876
v 0.0446935 1.02215 0.85
v 0.0480886 1.07275 0.811445
v 0.0339534 1.11601 0.766875
v 0.0545857 0.970865 0.829305
v 0.0678019 1.01287 0.791364
v 0.0503505 0.921637 0.802573
v 0.0684934 0.960457 0.766244
v 0.0714501 1.00212 0.728678
v 0.0339534 1.1337 0.606875
v 0.0621554 1.07991 0.587662
v 0.0395055 1.12035 0.552589
v 0.0714501 1.01981 0.568678
v 0.0589958 1.06115 0.532735
v 0.0320783 1.09902 0.501152
v 0.0621554 1.06222 0.747662
v -0.0363957 1.15611 0.836379
v -0.0103955 1.15824 0.784436
v -0.06655 1.18477 0.798626
v 0.00367127 1.1654 0.560653
v 0.00117317 1.14568 0.506032
v -0.0397934 1.18243 0.517304
v -0.06655 1.20245 0.638626
v -0.0491665 1.20154 0.577345
v -0.101611 1.21688 0.597171
v -0.0877029 1.20647 0.53411
v -0.138908 1.21599 0.55517
v -0.0103955 1.17593 0.624436
v -0.0491665 1.18386 0.737345
v -0.0630992 1.1294 0.889786
v -0.0902423 1.16738 0.855146
v -0.117924 1.13339 0.901374
v -0.101611 1.1992 0.757171
v -0.129013 1.19299 0.808056
v -0.166646 1.21551 0.60402
v -0.166646 1.19782 0.76402
v -0.191671 1.18212 0.811804
v -0.156022 1.16598 0.862074
v -0.173745 1.12706 0.901439
v -0.212077 1.15239 0.854882
v -0.226311 1.1109 0.889977
v -0.0273629 1.07716 0.90629
v -0.0811062 1.08753 0.925857
v -0.049172 1.03289 0.933125
v -0.146886 1.08614 0.932785
v -0.203044 1.07345 0.924793
v -0.174293 1.03024 0.946303
v -0.110741 1.0333 0.949478
v -0.0772102 0.985946 0.946021
v -0.142246 0.98457 0.95287
v -0.109343 0.939909 0.943995
v 0.00438704 1.02904 0.898848
v -0.0252478 0.974816 0.922468
v -0.05772 0.926747 0.926167
v -0.0116753 0.918998 0.894929
v 0.0241003 0.969169 0.878767
v 0.0252861 0.91725 0.852658
v 0.0477892 0.900409 0.750623
v 0.0477892 0.918096 0.590623
v 0.0316179 0.904284 0.538626
v 0.0609276 0.959295 0.551781
v 0.0684934 0.978144 0.606244
v 0.0609276 0.941608 0.711781
v 0.00306755 0.898941 0.490539
v 0.0343401 0.947908 0.49228
v -0.0356884 0.902473 0.450024
v -0.002515 0.947731 0.447332
v 0.0208777 0.99815 0.4555
v 0.0552812 1.00864 0.50808
v 0.032709 1.04989 0.473907
v -0.00302731 1.10213 0.457404
v -0.00745151 1.05009 0.431886
v -0.0478745 1.09865 0.423749
v -0.0283926 0.989358 0.416087
v -0.0589554 0.939923 0.415208
v -0.0877068 0.983128 0.393697
v -0.0645378 1.0422 0.399394
v -0.0990496 1.08885 0.40275
v -0.119754 1.0288 0.38713
v -0.152657 1.07346 0.396006
v -0.0393482 1.14697 0.464378
v -0.0964344 1.13908 0.431886
v -0.15129 1.12458 0.419254
v -0.148378 1.16741 0.4555
v -0.0921859 1.18312 0.481071
v -0.144143 1.19867 0.501985
v -0.192933 1.20425 0.545192
v -0.19862 1.18087 0.49228
v -0.242243 1.17815 0.538626
v -0.202869 1.13682 0.443096
v -0.20428 1.08662 0.413833
v -0.250325 1.09437 0.445071
v -0.252217 1.14247 0.486798
v -0.283086 1.13966 0.53597
v -0.287286 1.09612 0.487342
v -0.31235 1.09173 0.537427
v -0.221381 1.1979 0.595483
v -0.221381 1.18021 0.755483
v -0.274977 1.15951 0.59
v -0.309789 1.11296 0.589377
v -0.274977 1.14182 0.75
v -0.309789 1.09527 0.749377
v -0.293618 1.10908 0.801374
v -0.24839 1.15321 0.809501
v -0.265067 1.11443 0.849461
v -0.259485 1.06564 0.892668
v -0.29634 1.06546 0.84772
v -0.282878 1.01522 0.8845
v -0.322927 1.05407 0.788219
v -0.330493 1.05291 0.573756
v -0.330493 1.03522 0.733756
v -0.33345 0.993559 0.771322
v -0.322927 1.07176 0.628219
v -0.317281 1.00473 0.83192
v -0.294709 0.963477 0.866093
v -0.320996 0.952219 0.807265
v -0.294078 0.914352 0.838848
v -0.233607 1.02401 0.923913
v -0.254548 0.963275 0.908114
v -0.258973 0.911237 0.882596
v -0.214125 0.914716 0.916251
v -0.197462 0.971173 0.940606
v -0.16295 0.924522 0.93725
v -0.11071 0.888785 0.920746
v -0.165565 0.874292 0.908114
v -0.113622 0.845963 0.8845
v -0.222652 0.866395 0.875622
v -0.263173 0.867693 0.833968
v -0.222206 0.830941 0.822696
v -0.169814 0.83025 0.85893
v -0.117856 0.814703 0.838015
v -0.174297 0.806894 0.805891
v -0.123092 0.797383 0.78483
v -0.0591311 0.876544 0.896904
v -0.0633796 0.832501 0.84772
v -0.0690667 0.80912 0.794808
v -0.0197564 0.835223 0.801374
v -0.00978305 0.870897 0.853203
v 0.0210857 0.873705 0.80403
v 0.0129775 0.853864 0.75
v 0.0129775 0.87155 0.59
v -0.040619 0.815467 0.744517
v -0.0953534 0.797862 0.73598
v -0.040619 0.833154 0.584517
v -0.0953534 0.815548 0.57598
v -0.0703288 0.83125 0.528197
v -0.01361 0.860163 0.530499
v -0.0499227 0.860979 0.485118
v -0.248557 0.897971 0.472443
v -0.234637 0.936207 0.43371
v -0.198901 0.883967 0.450214
v -0.212828 0.980481 0.406875
v -0.180894 0.92584 0.414143
v -0.144076 0.879978 0.438626
v -0.18479 1.02742 0.393979
v -0.151259 0.980069 0.390523
v -0.115114 0.927231 0.407215
v -0.088255 0.886307 0.438561
v -0.283427 0.941789 0.476918
v -0.306693 0.991221 0.49
v -0.266387 0.984324 0.441152
v -0.316586 1.0425 0.510695
v -0.2861 1.0442 0.461233
v -0.236752 1.03855 0.417532
v -0.277844 0.893 0.520125
v -0.295953 0.897356 0.573126
v -0.310088 0.940622 0.528556
v -0.295953 0.879669 0.733126
v -0.301505 0.893021 0.787411
v -0.324155 0.933463 0.752338
v -0.329802 1.0005 0.548637
v -0.33345 1.01125 0.611322
v -0.324155 0.95115 0.592338
v -0.225604 0.857263 0.503621
v -0.19545 0.828603 0.541374
v -0.251604 0.855129 0.555565
v -0.19545 0.810916 0.701374
v -0.160389 0.796486 0.742829
v -0.212833 0.811824 0.762655
v -0.265671 0.84797 0.779347
v -0.212833 0.829511 0.602655
v -0.251604 0.837442 0.715565
v -0.171757 0.845993 0.484854
v -0.105977 0.847384 0.477926
v -0.132987 0.820375 0.531944
v -0.160389 0.814173 0.582829
f 1 2 3
f 2 4 5
f 3 5 6
f 2 5 3
f 4 7 8
f 7 9 10
f 8 10 11
f 7 10 8
f 12 13 14
f 13 15 16
f 14 16 17
f 13 16 14
f 4 8 5
f 8 11 18
f 5 18 6
f 8 18 5
f 1 3 19
f 3 6 20
f 19 20 21
f 3 20 19
f 12 14 22
f 14 17 23
f 22 23 24
f 14 23 22
f 25 26 27
f 26 24 28
f 27 28 29
f 26 28 27
f 12 22 30
f 22 24 26
f 20 31 21
f 22 26 30
f 1 19 32
f 19 21 33
f 32 33 34
f 19 33 32
f 21 35 36
f 27 29 37
f 36 38 39
f 35 38 36
f 34 40 41
f 40 39 42
f 41 42 43
f 40 42 41
f 21 36 33
f 36 39 40
f 33 40 34
f 36 40 33
f 1 32 44
f 32 34 45
f 44 45 46
f 32 45 44
f 34 41 47
f 41 43 48
f 47 48 49
f 41 48 47
f 46 50 51
f 50 49 52
f 51 52 53
f 50 52 51
f 34 47 45
f 47 49 50
f 45 50 46
f 47 50 45
f 1 44 2
f 44 46 54
f 2 54 4
f 44 54 2
f 46 51 55
f 51 53 56
f 55 56 57
f 51 56 55
f 4 58 7
f 58 57 59
f 7 59 9
f 58 59 7
f 46 55 54
f 55 57 58
f 54 58 4
f 55 58 54
f 9 60 10
f 61 62 63
f 64 63 15
f 60 65 10
f 62 66 67
f 66 68 69
f 67 69 70
f 66 69 67
f 15 71 16
f 71 70 72
f 16 72 17
f 71 72 16
f 62 67 63
f 67 70 71
f 63 71 15
f 67 71 63
f 17 72 73
f 72 70 74
f 73 74 75
f 72 74 73
f 70 69 76
f 69 68 77
f 76 77 78
f 69 77 76
f 75 79 80
f 79 78 81
f 80 81 82
f 79 81 80
f 70 76 74
f 76 78 79
f 74 79 75
f 76 79 74
f 17 73 23
f 73 75 83
f 23 83 24
f 73 83 23
f 75 80 84
f 80 82 85
f 84 85 86
f 80 85 84
f 24 87 28
f 87 86 88
f 28 88 29
f 87 88 28
f 75 84 83
f 84 86 87
f 83 87 24
f 84 87 83
f 29 88 89
f 88 86 90
f 89 90 91
f 88 90 89
f 86 85 92
f 85 82 93
f 92 93 94
f 85 93 92
f 91 95 96
f 95 94 97
f 96 97 98
f 95 97 96
f 86 92 90
f 92 94 95
f 90 95 91
f 92 95 90
f 29 89 37
f 89 91 99
f 38 100 39
f 89 99 37
f 91 96 101
f 96 98 102
f 103 104 105
f 96 102 101
f 39 106 42
f 106 105 107
f 42 107 43
f 106 107 42
f 91 101 99
f 103 105 106
f 100 106 39
f 103 106 100
f 43 107 108
f 107 105 109
f 108 109 110
f 107 109 108
f 105 104 111
f 102 98 112
f 111 113 114
f 102 112 115
f 110 116 117
f 116 114 118
f 117 118 119
f 116 118 117
f 105 111 109
f 111 114 116
f 109 116 110
f 111 116 109
f 43 108 48
f 108 110 120
f 48 120 49
f 108 120 48
f 110 117 121
f 117 119 122
f 121 122 123
f 117 122 121
f 49 124 52
f 124 123 125
f 52 125 53
f 124 125 52
f 110 121 120
f 121 123 124
f 120 124 49
f 121 124 120
f 53 125 126
f 125 123 127
f 126 127 128
f 125 127 126
f 123 122 129
f 122 119 130
f 129 130 131
f 122 130 129
f 128 132 133
f 132 131 134
f 133 134 135
f 132 134 133
f 123 129 127
f 129 131 132
f 127 132 128
f 129 132 127
f 53 126 56
f 126 128 136
f 56 136 57
f 126 136 56
f 128 133 137
f 133 135 138
f 137 138 139
f 133 138 137
f 57 140 59
f 140 139 141
f 59 141 9
f 140 141 59
f 128 137 136
f 137 139 140
f 136 140 57
f 137 140 136
f 9 141 60
f 141 139 142
f 61 143 62
f 141 142 60
f 139 138 144
f 138 135 145
f 146 147 148
f 138 145 144
f 62 149 66
f 149 148 150
f 66 150 68
f 149 150 66
f 139 144 142
f 146 148 149
f 143 149 62
f 146 149 143
f 151 152 153
f 152 154 155
f 153 155 156
f 152 155 153
f 154 157 158
f 157 82 81
f 158 81 78
f 157 81 158
f 156 159 160
f 159 78 77
f 160 77 68
f 159 77 160
f 154 158 155
f 158 78 159
f 155 159 156
f 158 159 155
f 151 161 152
f 161 162 163
f 152 163 154
f 161 163 152
f 162 164 165
f 164 98 97
f 165 97 94
f 164 97 165
f 154 166 157
f 166 94 93
f 157 93 82
f 166 93 157
f 162 165 163
f 165 94 166
f 163 166 154
f 165 166 163
f 151 167 161
f 167 168 169
f 161 169 162
f 167 169 161
f 170 171 172
f 171 119 118
f 172 118 114
f 171 118 172
f 162 173 164
f 173 174 112
f 164 112 98
f 173 112 164
f 168 175 169
f 175 174 173
f 169 173 162
f 175 173 169
f 151 176 167
f 176 177 178
f 167 178 168
f 176 178 167
f 179 180 181
f 180 135 134
f 181 134 131
f 180 134 181
f 170 182 171
f 182 131 130
f 171 130 119
f 182 130 171
f 177 183 178
f 181 131 182
f 184 182 170
f 181 182 184
f 151 153 176
f 153 156 185
f 176 185 177
f 153 185 176
f 156 160 186
f 160 68 150
f 186 150 148
f 160 150 186
f 177 187 188
f 187 148 147
f 180 145 135
f 187 147 188
f 156 186 185
f 186 148 187
f 185 187 177
f 186 187 185
f 10 64 11
f 11 64 15
f 11 15 18
f 18 15 13
f 18 13 6
f 6 13 12
f 6 12 20
f 20 12 30
f 20 30 31
f 31 30 26
f 31 26 21
f 21 26 25
f 21 25 35
f 35 25 27
f 35 27 38
f 38 27 37
f 60 61 65
f 65 61 63
f 65 63 10
f 10 63 64
f 38 37 100
f 100 37 99
f 103 101 104
f 104 101 102
f 100 99 103
f 103 99 101
f 104 102 111
f 111 102 115
f 111 115 113
f 113 115 112
f 113 112 114
f 114 112 174
f 142 143 60
f 60 143 61
f 145 147 144
f 144 147 146
f 144 146 142
f 142 146 143
f 172 175 170
f 170 175 168
f 114 174 172
f 172 174 175
f 179 177 180
f 180 177 188
f 181 183 179
f 179 183 177
f 170 168 184
f 184 168 178
f 184 178 181
f 181 178 183
f 180 188 145
f 145 188 147
