v -0.0134429 1.13308 0.707557
v 0.0214269 1.08927 0.703083
v 0.0158444 1.13806 0.659876
v 0.0446935 1.03983 0.69
v 0.0480886 1.09043 0.651445
v 0.0339534 1.1337 0.606875
v 0.0545857 0.988552 0.669305
v 0.0678019 1.03056 0.631364
v 0.0503505 0.939324 0.642573
v 0.0684934 0.978144 0.606244
v 0.0714501 1.01981 0.568678
v 0.0339534 1.15332 0.526875
v 0.0621554 1.09953 0.507662
v 0.0395055 1.13997 0.472589
v 0.0714501 1.03943 0.488678
v 0.0589958 1.08077 0.452735
v 0.0320783 1.11864 0.421152
v 0.0678019 1.05018 0.551364
v 0.0621554 1.07991 0.587662
v -0.0363957 1.17379 0.676379
v -0.0103955 1.17593 0.624436
v -0.06655 1.20245 0.638626
v 0.00367127 1.18502 0.480653
v 0.00117317 1.1653 0.426032
v -0.0397934 1.20205 0.437304
v -0.06655 1.22208 0.558626
v -0.0491665 1.22117 0.497345
v -0.101611 1.23651 0.517171
v -0.0877029 1.2261 0.45411
v -0.138908 1.23561 0.47517
v -0.0103955 1.19555 0.544436
v -0.0630992 1.14709 0.729786
v -0.0902423 1.18506 0.695146
v -0.117924 1.15108 0.741374
v -0.129013 1.2303 0.568056
v -0.166646 1.23513 0.52402
v -0.129013 1.21068 0.648056
v -0.166646 1.21551 0.60402
v -0.191671 1.19981 0.651804
v -0.156022 1.18367 0.702074
v -0.173745 1.14475 0.74144
v -0.212077 1.17008 0.694882
v -0.226311 1.12858 0.729977
v -0.0273629 1.09485 0.74629
v -0.0811062 1.10522 0.765857
v -0.049172 1.05057 0.773126
v -0.146886 1.10382 0.772785
v -0.203044 1.09113 0.764793
v -0.174293 1.04793 0.786303
v -0.110741 1.05099 0.789478
v -0.0772102 1.00363 0.786021
v -0.142246 1.00226 0.792871
v -0.109343 0.957596 0.783995
v 0.00438704 1.04673 0.738848
v -0.0252478 0.992503 0.762468
v -0.05772 0.944434 0.766167
v -0.0116753 0.936685 0.734929
v 0.0241003 0.986856 0.718767
v 0.0252861 0.934937 0.692658
v 0.0477892 0.918096 0.590623
v 0.0477892 0.937719 0.510623
v 0.0316179 0.923908 0.458626
v 0.0609276 0.978919 0.471781
v 0.0684934 0.997768 0.526244
v 0.0609276 0.959295 0.551781
v 0.00306755 0.918565 0.410539
v 0.0343401 0.967531 0.41228
v -0.0356884 0.922097 0.370024
v -0.002515 0.967355 0.367332
v 0.0208777 1.01777 0.3755
v 0.0552812 1.02827 0.42808
v 0.032709 1.06952 0.393907
v -0.00302731 1.12176 0.377404
v -0.00745151 1.06972 0.351886
v -0.0478745 1.11828 0.343749
v -0.0283926 1.00898 0.336087
v -0.0589554 0.959547 0.335208
v -0.0877068 1.00275 0.313697
v -0.0645378 1.06182 0.319394
v -0.0990496 1.10847 0.32275
v -0.119754 1.04842 0.30713
v -0.152657 1.09308 0.316006
v -0.0393482 1.1666 0.384378
v -0.0964344 1.1587 0.351886
v -0.15129 1.14421 0.339254
v -0.148378 1.18703 0.3755
v -0.0921859 1.20274 0.401071
v -0.144143 1.21829 0.421985
v -0.192933 1.22387 0.465192
v -0.19862 1.20049 0.41228
v -0.242243 1.19777 0.458626
v -0.202869 1.15645 0.363096
v -0.20428 1.10625 0.333833
v -0.250325 1.11399 0.365071
v -0.252217 1.1621 0.406797
v -0.283086 1.15929 0.45597
v -0.287286 1.11574 0.407342
v -0.31235 1.11136 0.457427
v -0.221381 1.21753 0.515483
v -0.191671 1.21943 0.571804
v -0.274977 1.17913 0.51
v -0.309789 1.13258 0.509377
v -0.293618 1.1464 0.561374
v -0.24839 1.17089 0.649501
v -0.293618 1.12677 0.641374
v -0.265067 1.13211 0.689461
v -0.274977 1.15951 0.59
v -0.24839 1.19052 0.569501
v -0.259485 1.08332 0.732668
v -0.29634 1.08315 0.68772
v -0.282878 1.03291 0.7245
v -0.309789 1.11296 0.589377
v -0.322927 1.07176 0.628219
v -0.330493 1.07254 0.493756
v -0.330493 1.05291 0.573756
v -0.33345 1.01125 0.611322
v -0.322927 1.09138 0.548219
v -0.317281 1.02241 0.67192
v -0.294709 0.981164 0.706093
v -0.320996 0.969906 0.647265
v -0.294078 0.932038 0.678848
v -0.233607 1.0417 0.763914
v -0.254548 0.980962 0.748114
v -0.258973 0.928924 0.722597
v -0.214125 0.932402 0.756251
v -0.197462 0.98886 0.780606
v -0.16295 0.942209 0.77725
v -0.11071 0.906472 0.760746
v -0.165565 0.891979 0.748114
v -0.113622 0.86365 0.7245
v -0.222652 0.884082 0.715622
v -0.263173 0.885379 0.673968
v -0.222206 0.848628 0.662696
v -0.169814 0.847937 0.69893
v -0.117856 0.83239 0.678015
v -0.174297 0.824581 0.645891
v -0.123092 0.81507 0.62483
v -0.0591311 0.894231 0.736904
v -0.0633796 0.850188 0.68772
v -0.0690667 0.826807 0.634808
v -0.0197564 0.85291 0.641374
v -0.00978305 0.888584 0.693203
v 0.0210857 0.891392 0.64403
v 0.0129775 0.87155 0.59
v 0.0316179 0.904284 0.538626
v -0.040619 0.833154 0.584517
v -0.0953534 0.815548 0.57598
v -0.0703288 0.83125 0.528197
v -0.01361 0.879787 0.450499
v -0.0703288 0.850874 0.448197
v -0.0499227 0.880603 0.405118
v -0.01361 0.860163 0.530499
v 0.0129775 0.891174 0.51
v -0.248557 0.917595 0.392443
v -0.234637 0.955831 0.35371
v -0.198901 0.903591 0.370214
v -0.212828 1.0001 0.326875
v -0.180894 0.945464 0.334143
v -0.144076 0.899602 0.358626
v -0.18479 1.04705 0.313979
v -0.151259 0.999693 0.310523
v -0.115114 0.946855 0.327215
v -0.088255 0.905931 0.358561
v -0.283427 0.961413 0.396917
v -0.306693 1.01085 0.41
v -0.266387 1.00395 0.361152
v -0.316586 1.06213 0.430695
v -0.2861 1.06382 0.381233
v -0.236752 1.05818 0.337532
v -0.277844 0.912624 0.440125
v -0.295953 0.91698 0.493125
v -0.310088 0.960246 0.448555
v -0.295953 0.897356 0.573126
v -0.301505 0.910707 0.627411
v -0.324155 0.95115 0.592338
v -0.329802 1.02012 0.468637
v -0.33345 1.03087 0.531322
v -0.324155 0.970774 0.512338
v -0.329802 1.0005 0.548637
v -0.225604 0.876887 0.423621
v -0.19545 0.848227 0.461374
v -0.251604 0.874753 0.475565
v -0.19545 0.828603 0.541374
v -0.160389 0.814173 0.582829
v -0.212833 0.829511 0.602655
v -0.265671 0.865657 0.619347
v -0.251604 0.855129 0.555565
v -0.171757 0.865617 0.404854
v -0.105977 0.867008 0.397926
v -0.132987 0.820375 0.531944
v -0.132987 0.839999 0.451944
v -0.0953534 0.835172 0.49598
f 1 2 3
f 2 4 5
f 3 5 6
f 2 5 3
f 4 7 8
f 7 9 10
f 8 10 11
f 7 10 8
f 12 13 14
f 13 15 16
f 14 16 17
f 13 16 14
f 4 8 5
f 18 15 13
f 5 19 6
f 8 19 5
f 1 3 20
f 3 6 21
f 20 21 22
f 3 21 20
f 12 14 23
f 14 17 24
f 23 24 25
f 14 24 23
f 26 27 28
f 27 25 29
f 28 29 30
f 27 29 28
f 12 23 31
f 23 25 27
f 31 27 26
f 23 27 31
f 1 20 32
f 20 22 33
f 32 33 34
f 20 33 32
f 26 28 35
f 28 30 36
f 37 38 39
f 28 36 35
f 34 40 41
f 40 39 42
f 41 42 43
f 40 42 41
f 22 37 33
f 37 39 40
f 33 40 34
f 37 40 33
f 1 32 44
f 32 34 45
f 44 45 46
f 32 45 44
f 34 41 47
f 41 43 48
f 47 48 49
f 41 48 47
f 46 50 51
f 50 49 52
f 51 52 53
f 50 52 51
f 34 47 45
f 47 49 50
f 45 50 46
f 47 50 45
f 1 44 2
f 44 46 54
f 2 54 4
f 44 54 2
f 46 51 55
f 51 53 56
f 55 56 57
f 51 56 55
f 4 58 7
f 58 57 59
f 7 59 9
f 58 59 7
f 46 55 54
f 55 57 58
f 54 58 4
f 55 58 54
f 9 60 10
f 61 62 63
f 64 63 15
f 60 65 10
f 62 66 67
f 66 68 69
f 67 69 70
f 66 69 67
f 15 71 16
f 71 70 72
f 16 72 17
f 71 72 16
f 62 67 63
f 67 70 71
f 63 71 15
f 67 71 63
f 17 72 73
f 72 70 74
f 73 74 75
f 72 74 73
f 70 69 76
f 69 68 77
f 76 77 78
f 69 77 76
f 75 79 80
f 79 78 81
f 80 81 82
f 79 81 80
f 70 76 74
f 76 78 79
f 74 79 75
f 76 79 74
f 17 73 24
f 73 75 83
f 24 83 25
f 73 83 24
f 75 80 84
f 80 82 85
f 84 85 86
f 80 85 84
f 25 87 29
f 87 86 88
f 29 88 30
f 87 88 29
f 75 84 83
f 84 86 87
f 83 87 25
f 84 87 83
f 30 88 89
f 88 86 90
f 89 90 91
f 88 90 89
f 86 85 92
f 85 82 93
f 92 93 94
f 85 93 92
f 91 95 96
f 95 94 97
f 96 97 98
f 95 97 96
f 86 92 90
f 92 94 95
f 90 95 91
f 92 95 90
f 30 89 36
f 89 91 99
f 36 99 100
f 89 99 36
f 91 96 101
f 96 98 102
f 101 102 103
f 96 102 101
f 39 104 42
f 104 105 106
f 42 106 43
f 104 106 42
f 91 101 99
f 107 105 104
f 99 108 100
f 101 108 99
f 43 106 109
f 106 105 110
f 109 110 111
f 106 110 109
f 105 112 113
f 102 98 114
f 113 115 116
f 102 114 117
f 111 118 119
f 118 116 120
f 119 120 121
f 118 120 119
f 105 113 110
f 113 116 118
f 110 118 111
f 113 118 110
f 43 109 48
f 109 111 122
f 48 122 49
f 109 122 48
f 111 119 123
f 119 121 124
f 123 124 125
f 119 124 123
f 49 126 52
f 126 125 127
f 52 127 53
f 126 127 52
f 111 123 122
f 123 125 126
f 122 126 49
f 123 126 122
f 53 127 128
f 127 125 129
f 128 129 130
f 127 129 128
f 125 124 131
f 124 121 132
f 131 132 133
f 124 132 131
f 130 134 135
f 134 133 136
f 135 136 137
f 134 136 135
f 125 131 129
f 131 133 134
f 129 134 130
f 131 134 129
f 53 128 56
f 128 130 138
f 56 138 57
f 128 138 56
f 130 135 139
f 135 137 140
f 139 140 141
f 135 140 139
f 57 142 59
f 142 141 143
f 59 143 9
f 142 143 59
f 130 139 138
f 139 141 142
f 138 142 57
f 139 142 138
f 9 143 60
f 143 141 144
f 60 144 145
f 143 144 60
f 141 140 146
f 140 137 147
f 146 147 148
f 140 147 146
f 62 149 66
f 149 150 151
f 66 151 68
f 149 151 66
f 141 146 144
f 146 148 152
f 153 149 62
f 146 152 144
f 154 155 156
f 155 157 158
f 156 158 159
f 155 158 156
f 157 160 161
f 160 82 81
f 161 81 78
f 160 81 161
f 159 162 163
f 162 78 77
f 163 77 68
f 162 77 163
f 157 161 158
f 161 78 162
f 158 162 159
f 161 162 158
f 154 164 155
f 164 165 166
f 155 166 157
f 164 166 155
f 165 167 168
f 167 98 97
f 168 97 94
f 167 97 168
f 157 169 160
f 169 94 93
f 160 93 82
f 169 93 160
f 165 168 166
f 168 94 169
f 166 169 157
f 168 169 166
f 154 170 164
f 170 171 172
f 164 172 165
f 170 172 164
f 173 174 175
f 174 121 120
f 175 120 116
f 174 120 175
f 165 176 167
f 176 177 114
f 167 114 98
f 176 114 167
f 171 178 172
f 175 116 179
f 172 176 165
f 178 176 172
f 154 180 170
f 180 181 182
f 170 182 171
f 180 182 170
f 183 184 185
f 184 137 136
f 185 136 133
f 184 136 185
f 173 186 174
f 186 133 132
f 174 132 121
f 186 132 174
f 183 185 187
f 185 133 186
f 187 186 173
f 185 186 187
f 154 156 180
f 156 159 188
f 180 188 181
f 156 188 180
f 159 163 189
f 163 68 151
f 189 151 150
f 163 151 189
f 183 190 184
f 191 150 192
f 184 147 137
f 190 147 184
f 159 189 188
f 189 150 191
f 188 191 181
f 189 191 188
f 10 64 11
f 11 64 15
f 11 15 8
f 8 15 18
f 19 13 6
f 6 13 12
f 8 18 19
f 19 18 13
f 6 12 21
f 21 12 31
f 21 31 22
f 22 31 26
f 37 35 38
f 38 35 36
f 38 36 39
f 39 36 100
f 22 26 37
f 37 26 35
f 60 61 65
f 65 61 63
f 65 63 10
f 10 63 64
f 39 100 104
f 104 100 108
f 107 101 105
f 105 101 103
f 104 108 107
f 107 108 101
f 105 103 112
f 112 103 102
f 112 102 113
f 113 102 117
f 113 117 115
f 115 117 114
f 115 114 116
f 116 114 177
f 144 153 145
f 145 153 62
f 145 62 60
f 60 62 61
f 147 192 148
f 148 192 150
f 148 150 152
f 152 150 149
f 152 149 144
f 144 149 153
f 175 178 173
f 173 178 171
f 116 177 179
f 179 177 176
f 179 176 175
f 175 176 178
f 187 182 183
f 183 182 181
f 173 171 187
f 187 171 182
f 183 181 190
f 190 181 191
f 190 191 147
f 147 191 192
