v -0.0134429 1.15271 0.627557
v 0.0214269 1.10889 0.623083
v 0.0158444 1.15768 0.579876
v 0.0446935 1.05946 0.61
v 0.0480886 1.11006 0.571445
v 0.0339534 1.15332 0.526875
v 0.0545857 1.00818 0.589305
v 0.0678019 1.05018 0.551364
v 0.0503505 0.958948 0.562573
v 0.0684934 0.997768 0.526244
v 0.0714501 1.03943 0.488678
v 0.0339534 1.1679 0.366875
v 0.0621554 1.11411 0.347662
v 0.0395055 1.15455 0.312589
v 0.0714501 1.05401 0.328678
v 0.0589958 1.09535 0.292735
v 0.0320783 1.13322 0.261152
v 0.0621554 1.09953 0.507662
v -0.0363957 1.19342 0.596379
v -0.0103955 1.19555 0.544436
v -0.06655 1.22208 0.558626
v 0.00367127 1.1996 0.320653
v 0.00117317 1.17988 0.266032
v -0.0397934 1.21663 0.277304
v -0.06655 1.23665 0.398626
v -0.0491665 1.23575 0.337345
v -0.101611 1.25108 0.357171
v -0.0877029 1.24068 0.29411
v -0.138908 1.25019 0.31517
v -0.0103955 1.21013 0.384436
v -0.0491665 1.22117 0.497345
v -0.0630992 1.16671 0.649786
v -0.0902423 1.20469 0.615146
v -0.117924 1.1707 0.661374
v -0.101611 1.23651 0.517171
v -0.129013 1.2303 0.568056
v -0.166646 1.24971 0.36402
v -0.166646 1.23513 0.52402
v -0.191671 1.21943 0.571804
v -0.156022 1.2033 0.622074
v -0.173745 1.16437 0.661439
v -0.212077 1.1897 0.614882
v -0.226311 1.14821 0.649976
v -0.0273629 1.11447 0.66629
v -0.0811062 1.12484 0.685857
v -0.049172 1.0702 0.693125
v -0.146886 1.12345 0.692785
v -0.203044 1.11076 0.684793
v -0.174293 1.06755 0.706303
v -0.110741 1.07061 0.709478
v -0.0772102 1.02326 0.706021
v -0.142246 1.02188 0.71287
v -0.109343 0.97722 0.703995
v 0.00438704 1.06636 0.658848
v -0.0252478 1.01213 0.682468
v -0.05772 0.964058 0.686167
v -0.0116753 0.956308 0.654929
v 0.0241003 1.00648 0.638767
v 0.0252861 0.954561 0.612658
v 0.0477892 0.937719 0.510623
v 0.0477892 0.952296 0.350623
v 0.0316179 0.938485 0.298626
v 0.0609276 0.993496 0.311781
v 0.0684934 1.01234 0.366244
v 0.0609276 0.978919 0.471781
v 0.00306755 0.933142 0.250539
v 0.0343401 0.982108 0.25228
v -0.0356884 0.936674 0.210024
v -0.002515 0.981932 0.207332
v 0.0208777 1.03235 0.2155
v 0.0552812 1.04284 0.26808
v 0.032709 1.08409 0.233907
v -0.00302731 1.13633 0.217404
v -0.00745151 1.08429 0.191886
v -0.0478745 1.13285 0.183749
v -0.0283926 1.02356 0.176087
v -0.0589554 0.974124 0.175208
v -0.0877068 1.01733 0.153697
v -0.0645378 1.0764 0.159394
v -0.0990496 1.12305 0.16275
v -0.119754 1.063 0.14713
v -0.152657 1.10766 0.156006
v -0.0393482 1.18117 0.224378
v -0.0964344 1.17328 0.191886
v -0.15129 1.15878 0.179254
v -0.148378 1.20161 0.2155
v -0.0921859 1.21732 0.241071
v -0.144143 1.23287 0.261985
v -0.192933 1.23845 0.305193
v -0.19862 1.21507 0.25228
v -0.242243 1.21235 0.298626
v -0.202869 1.17103 0.203096
v -0.20428 1.12082 0.173833
v -0.250325 1.12857 0.205071
v -0.252217 1.17667 0.246798
v -0.283086 1.17386 0.29597
v -0.287286 1.13032 0.247342
v -0.31235 1.12593 0.297427
v -0.221381 1.2321 0.355483
v -0.221381 1.21753 0.515483
v -0.274977 1.19371 0.35
v -0.309789 1.14716 0.349377
v -0.274977 1.17913 0.51
v -0.309789 1.13258 0.509377
v -0.293618 1.1464 0.561374
v -0.24839 1.19052 0.569501
v -0.265067 1.15174 0.609461
v -0.259485 1.10295 0.652668
v -0.29634 1.10277 0.60772
v -0.282878 1.05253 0.6445
v -0.322927 1.09138 0.548219
v -0.330493 1.08711 0.333756
v -0.330493 1.07254 0.493756
v -0.33345 1.03087 0.531322
v -0.322927 1.10596 0.388219
v -0.317281 1.04204 0.59192
v -0.294709 1.00079 0.626093
v -0.320996 0.989529 0.567265
v -0.294078 0.951662 0.598848
v -0.233607 1.06132 0.683913
v -0.254548 1.00059 0.668114
v -0.258973 0.948548 0.642596
v -0.214125 0.952026 0.676251
v -0.197462 1.00848 0.700606
v -0.16295 0.961832 0.69725
v -0.11071 0.926096 0.680746
v -0.165565 0.911603 0.668114
v -0.113622 0.883274 0.6445
v -0.222652 0.903706 0.635622
v -0.263173 0.905003 0.593968
v -0.222206 0.868252 0.582696
v -0.169814 0.86756 0.61893
v -0.117856 0.852013 0.598015
v -0.174297 0.844205 0.565891
v -0.123092 0.834694 0.54483
v -0.0591311 0.913855 0.656904
v -0.0633796 0.869812 0.60772
v -0.0690667 0.846431 0.554808
v -0.0197564 0.872534 0.561374
v -0.00978305 0.908208 0.613203
v 0.0210857 0.911016 0.56403
v 0.0129775 0.891174 0.51
v 0.0129775 0.905751 0.35
v -0.040619 0.852778 0.504517
v -0.0953534 0.835172 0.49598
v -0.040619 0.867355 0.344517
v -0.0953534 0.849749 0.33598
v -0.0703288 0.865451 0.288197
v -0.01361 0.894364 0.290499
v -0.0499227 0.89518 0.245118
v -0.248557 0.932172 0.232443
v -0.234637 0.970408 0.19371
v -0.198901 0.918168 0.210214
v -0.212828 1.01468 0.166875
v -0.180894 0.960041 0.174143
v -0.144076 0.914178 0.198626
v -0.18479 1.06162 0.153979
v -0.151259 1.01427 0.150523
v -0.115114 0.961432 0.167215
v -0.088255 0.920508 0.198561
v -0.283427 0.97599 0.236918
v -0.306693 1.02542 0.25
v -0.266387 1.01852 0.201152
v -0.316586 1.0767 0.270695
v -0.2861 1.0784 0.221233
v -0.236752 1.07275 0.177532
v -0.277844 0.9272 0.280125
v -0.295953 0.931556 0.333126
v -0.310088 0.974823 0.288556
v -0.295953 0.91698 0.493125
v -0.301505 0.930331 0.547411
v -0.324155 0.970774 0.512338
v -0.329802 1.0347 0.308637
v -0.33345 1.04545 0.371322
v -0.324155 0.985351 0.352338
v -0.225604 0.891464 0.263621
v -0.19545 0.862804 0.301374
v -0.251604 0.88933 0.315565
v -0.19545 0.848227 0.461374
v -0.160389 0.833797 0.502829
v -0.212833 0.849135 0.522655
v -0.265671 0.88528 0.539347
v -0.212833 0.863712 0.362655
v -0.251604 0.874753 0.475565
v -0.171757 0.880194 0.244854
v -0.105977 0.881585 0.237926
v -0.132987 0.854576 0.291944
v -0.160389 0.848374 0.342829
f 1 2 3
f 2 4 5
f 3 5 6
f 2 5 3
f 4 7 8
f 7 9 10
f 8 10 11
f 7 10 8
f 12 13 14
f 13 15 16
f 14 16 17
f 13 16 14
f 4 8 5
f 8 11 18
f 5 18 6
f 8 18 5
f 1 3 19
f 3 6 20
f 19 20 21
f 3 20 19
f 12 14 22
f 14 17 23
f 22 23 24
f 14 23 22
f 25 26 27
f 26 24 28
f 27 28 29
f 26 28 27
f 12 22 30
f 22 24 26
f 20 31 21
f 22 26 30
f 1 19 32
f 19 21 33
f 32 33 34
f 19 33 32
f 21 35 36
f 27 29 37
f 36 38 39
f 35 38 36
f 34 40 41
f 40 39 42
f 41 42 43
f 40 42 41
f 21 36 33
f 36 39 40
f 33 40 34
f 36 40 33
f 1 32 44
f 32 34 45
f 44 45 46
f 32 45 44
f 34 41 47
f 41 43 48
f 47 48 49
f 41 48 47
f 46 50 51
f 50 49 52
f 51 52 53
f 50 52 51
f 34 47 45
f 47 49 50
f 45 50 46
f 47 50 45
f 1 44 2
f 44 46 54
f 2 54 4
f 44 54 2
f 46 51 55
f 51 53 56
f 55 56 57
f 51 56 55
f 4 58 7
f 58 57 59
f 7 59 9
f 58 59 7
f 46 55 54
f 55 57 58
f 54 58 4
f 55 58 54
f 9 60 10
f 61 62 63
f 64 63 15
f 60 65 10
f 62 66 67
f 66 68 69
f 67 69 70
f 66 69 67
f 15 71 16
f 71 70 72
f 16 72 17
f 71 72 16
f 62 67 63
f 67 70 71
f 63 71 15
f 67 71 63
f 17 72 73
f 72 70 74
f 73 74 75
f 72 74 73
f 70 69 76
f 69 68 77
f 76 77 78
f 69 77 76
f 75 79 80
f 79 78 81
f 80 81 82
f 79 81 80
f 70 76 74
f 76 78 79
f 74 79 75
f 76 79 74
f 17 73 23
f 73 75 83
f 23 83 24
f 73 83 23
f 75 80 84
f 80 82 85
f 84 85 86
f 80 85 84
f 24 87 28
f 87 86 88
f 28 88 29
f 87 88 28
f 75 84 83
f 84 86 87
f 83 87 24
f 84 87 83
f 29 88 89
f 88 86 90
f 89 90 91
f 88 90 89
f 86 85 92
f 85 82 93
f 92 93 94
f 85 93 92
f 91 95 96
f 95 94 97
f 96 97 98
f 95 97 96
f 86 92 90
f 92 94 95
f 90 95 91
f 92 95 90
f 29 89 37
f 89 91 99
f 38 100 39
f 89 99 37
f 91 96 101
f 96 98 102
f 103 104 105
f 96 102 101
f 39 106 42
f 106 105 107
f 42 107 43
f 106 107 42
f 91 101 99
f 103 105 106
f 100 106 39
f 103 106 100
f 43 107 108
f 107 105 109
f 108 109 110
f 107 109 108
f 105 104 111
f 102 98 112
f 111 113 114
f 102 112 115
f 110 116 117
f 116 114 118
f 117 118 119
f 116 118 117
f 105 111 109
f 111 114 116
f 109 116 110
f 111 116 109
f 43 108 48
f 108 110 120
f 48 120 49
f 108 120 48
f 110 117 121
f 117 119 122
f 121 122 123
f 117 122 121
f 49 124 52
f 124 123 125
f 52 125 53
f 124 125 52
f 110 121 120
f 121 123 124
f 120 124 49
f 121 124 120
f 53 125 126
f 125 123 127
f 126 127 128
f 125 127 126
f 123 122 129
f 122 119 130
f 129 130 131
f 122 130 129
f 128 132 133
f 132 131 134
f 133 134 135
f 132 134 133
f 123 129 127
f 129 131 132
f 127 132 128
f 129 132 127
f 53 126 56
f 126 128 136
f 56 136 57
f 126 136 56
f 128 133 137
f 133 135 138
f 137 138 139
f 133 138 137
f 57 140 59
f 140 139 141
f 59 141 9
f 140 141 59
f 128 137 136
f 137 139 140
f 136 140 57
f 137 140 136
f 9 141 60
f 141 139 142
f 61 143 62
f 141 142 60
f 139 138 144
f 138 135 145
f 146 147 148
f 138 145 144
f 62 149 66
f 149 148 150
f 66 150 68
f 149 150 66
f 139 144 142
f 146 148 149
f 143 149 62
f 146 149 143
f 151 152 153
f 152 154 155
f 153 155 156
f 152 155 153
f 154 157 158
f 157 82 81
f 158 81 78
f 157 81 158
f 156 159 160
f 159 78 77
f 160 77 68
f 159 77 160
f 154 158 155
f 158 78 159
f 155 159 156
f 158 159 155
f 151 161 152
f 161 162 163
f 152 163 154
f 161 163 152
f 162 164 165
f 164 98 97
f 165 97 94
f 164 97 165
f 154 166 157
f 166 94 93
f 157 93 82
f 166 93 157
f 162 165 163
f 165 94 166
f 163 166 154
f 165 166 163
f 151 167 161
f 167 168 169
f 161 169 162
f 167 169 161
f 170 171 172
f 171 119 118
f 172 118 114
f 171 118 172
f 162 173 164
f 173 174 112
f 164 112 98
f 173 112 164
f 168 175 169
f 175 174 173
f 169 173 162
f 175 173 169
f 151 176 167
f 176 177 178
f 167 178 168
f 176 178 167
f 179 180 181
f 180 135 134
f 181 134 131
f 180 134 181
f 170 182 171
f 182 131 130
f 171 130 119
f 182 130 171
f 177 183 178
f 181 131 182
f 184 182 170
f 181 182 184
f 151 153 176
f 153 156 185
f 176 185 177
f 153 185 176
f 156 160 186
f 160 68 150
f 186 150 148
f 160 150 186
f 177 187 188
f 187 148 147
f 180 145 135
f 187 147 188
f 156 186 185
f 186 148 187
f 185 187 177
f 186 187 185
f 10 64 11
f 11 64 15
f 11 15 18
f 18 15 13
f 18 13 6
f 6 13 12
f 6 12 20
f 20 12 30
f 20 30 31
f 31 30 26
f 31 26 21
f 21 26 25
f 21 25 35
f 35 25 27
f 35 27 38
f 38 27 37
f 60 61 65
f 65 61 63
f 65 63 10
f 10 63 64
f 38 37 100
f 100 37 99
f 103 101 104
f 104 101 102
f 100 99 103
f 103 99 101
f 104 102 111
f 111 102 115
f 111 115 113
f 113 115 112
f 113 112 114
f 114 112 174
f 142 143 60
f 60 143 61
f 145 147 144
f 144 147 146
f 144 146 142
f 142 146 143
f 172 175 170
f 170 175 168
f 114 174 172
f 172 174 175
f 179 177 180
f 180 177 188
f 181 183 179
f 179 183 177
f 170 168 184
f 184 168 178
f 184 178 181
f 181 178 183
f 180 188 145
f 145 188 147
