v 0.826557 1.07034 0.587557
v 0.861427 1.02652 0.583083
v 0.855844 1.07531 0.539876
v 0.884694 0.977085 0.57
v 0.888089 1.02768 0.531445
v 0.873953 1.07095 0.486875
v 0.894586 0.925803 0.549305
v 0.907802 0.967808 0.511364
v 0.890351 0.876574 0.522573
v 0.908493 0.915394 0.486244
v 0.91145 0.95706 0.448678
v 0.873953 1.0969 0.406875
v 0.902156 1.04311 0.387662
v 0.879506 1.08355 0.352589
v 0.91145 0.983011 0.368678
v 0.898996 1.02435 0.332735
v 0.872078 1.06222 0.301152
v 0.907802 0.993758 0.431364
v 0.888089 1.05363 0.451445
v 0.902156 1.01716 0.467662
v 0.803604 1.11104 0.556379
v 0.855844 1.10126 0.459876
v 0.829605 1.13913 0.424436
v 0.803604 1.13699 0.476379
v 0.77345 1.16565 0.438626
v 0.829605 1.11318 0.504436
v 0.843671 1.1286 0.360653
v 0.841173 1.10888 0.306032
v 0.800207 1.14563 0.317304
v 0.790834 1.16474 0.377345
v 0.73839 1.18008 0.397171
v 0.752297 1.16968 0.33411
v 0.701092 1.17919 0.35517
v 0.776901 1.08434 0.609786
v 0.77345 1.1397 0.518626
v 0.749758 1.12231 0.575146
v 0.722076 1.08833 0.621374
v 0.710987 1.17388 0.448056
v 0.673354 1.17871 0.40402
v 0.648329 1.16301 0.451804
v 0.683978 1.12092 0.582074
v 0.666255 1.082 0.62144
v 0.648329 1.13706 0.531804
v 0.627923 1.10733 0.574882
v 0.613689 1.06583 0.609977
v 0.710987 1.14793 0.528056
v 0.812637 1.0321 0.62629
v 0.758894 1.04247 0.645857
v 0.790828 0.987825 0.653126
v 0.693114 1.04107 0.652785
v 0.636956 1.02838 0.644793
v 0.665707 0.985179 0.666303
v 0.729259 0.988237 0.669478
v 0.76279 0.940883 0.666021
v 0.697754 0.939507 0.672871
v 0.730657 0.894846 0.663995
v 0.844387 0.983982 0.618848
v 0.814752 0.929753 0.642468
v 0.78228 0.881685 0.646167
v 0.828325 0.873935 0.614929
v 0.8641 0.924107 0.598767
v 0.865286 0.872187 0.572658
v 0.887789 0.855346 0.470623
v 0.887789 0.881296 0.390623
v 0.871618 0.867485 0.338626
v 0.900928 0.922496 0.351781
v 0.908493 0.941345 0.406244
v 0.900928 0.896545 0.431781
v 0.843068 0.862142 0.290539
v 0.87434 0.911108 0.29228
v 0.804312 0.865674 0.250024
v 0.837485 0.910932 0.247332
v 0.860878 0.961351 0.2555
v 0.895281 0.971844 0.30808
v 0.872709 1.01309 0.273907
v 0.836973 1.06533 0.257404
v 0.832549 1.01329 0.231886
v 0.792126 1.06185 0.223749
v 0.811608 0.952559 0.216087
v 0.781045 0.903123 0.215208
v 0.752293 0.946328 0.193697
v 0.775462 1.0054 0.199394
v 0.740951 1.05205 0.20275
v 0.720246 0.991999 0.18713
v 0.687343 1.03666 0.196006
v 0.800652 1.11017 0.264378
v 0.743566 1.10228 0.231886
v 0.688711 1.08778 0.219254
v 0.691622 1.13061 0.2555
v 0.747814 1.14632 0.281071
v 0.695857 1.16187 0.301985
v 0.647067 1.16745 0.345192
v 0.64138 1.14407 0.29228
v 0.597757 1.14135 0.338626
v 0.637131 1.10003 0.243096
v 0.63572 1.04982 0.213833
v 0.589675 1.05757 0.245071
v 0.587783 1.10567 0.286797
v 0.556915 1.10286 0.33597
v 0.552714 1.05932 0.287342
v 0.52765 1.05493 0.337427
v 0.618619 1.1611 0.395483
v 0.565023 1.12271 0.39
v 0.530211 1.07616 0.389377
v 0.546382 1.08997 0.441374
v 0.59161 1.10814 0.529501
v 0.546382 1.06402 0.521374
v 0.574933 1.06936 0.569461
v 0.59161 1.13409 0.449501
v 0.580515 1.02057 0.612668
v 0.54366 1.0204 0.56772
v 0.557123 0.970156 0.6045
v 0.530211 1.05021 0.469377
v 0.517073 1.00901 0.508219
v 0.509507 1.01611 0.373756
v 0.509507 0.990162 0.453756
v 0.50655 0.948496 0.491322
v 0.517073 1.03496 0.428219
v 0.522719 0.959663 0.55192
v 0.545291 0.918415 0.586093
v 0.519005 0.907156 0.527265
v 0.545922 0.869289 0.558848
v 0.606393 0.978948 0.643914
v 0.585452 0.918213 0.628114
v 0.581028 0.866175 0.602597
v 0.625875 0.869653 0.636251
v 0.642538 0.926111 0.660606
v 0.67705 0.879459 0.65725
v 0.72929 0.843723 0.640746
v 0.674435 0.82923 0.628114
v 0.726378 0.800901 0.6045
v 0.617348 0.821332 0.595622
v 0.576827 0.82263 0.553968
v 0.617794 0.785878 0.542696
v 0.670186 0.785187 0.57893
v 0.722144 0.76964 0.558015
v 0.665703 0.761832 0.525891
v 0.716909 0.752321 0.50483
v 0.780869 0.831481 0.616904
v 0.776621 0.787438 0.56772
v 0.770933 0.764058 0.514808
v 0.820244 0.79016 0.521374
v 0.830217 0.825835 0.573203
v 0.861086 0.828642 0.52403
v 0.852978 0.808801 0.47
v 0.871618 0.841535 0.418626
v 0.799381 0.770404 0.464517
v 0.744647 0.752799 0.45598
v 0.769671 0.7685 0.408197
v 0.82639 0.823364 0.330499
v 0.769671 0.794451 0.328197
v 0.790077 0.82418 0.285118
v 0.82639 0.797413 0.410499
v 0.591443 0.861171 0.272443
v 0.605363 0.899408 0.23371
v 0.641099 0.847167 0.250214
v 0.627172 0.943682 0.206875
v 0.659106 0.88904 0.214143
v 0.695925 0.843178 0.238626
v 0.65521 0.990624 0.193979
v 0.688741 0.943269 0.190523
v 0.724886 0.890432 0.207215
v 0.751745 0.849508 0.238561
v 0.556573 0.90499 0.276917
v 0.533307 0.954422 0.29
v 0.573613 0.947525 0.241152
v 0.523415 1.0057 0.310695
v 0.5539 1.0074 0.261233
v 0.603248 1.00175 0.217532
v 0.562156 0.8562 0.320125
v 0.544047 0.860556 0.373125
v 0.529912 0.903823 0.328555
v 0.544047 0.834606 0.453126
v 0.538495 0.847958 0.507411
v 0.515845 0.8884 0.472338
v 0.510198 0.963698 0.348637
v 0.50655 0.974446 0.411322
v 0.529912 0.877873 0.408556
v 0.510198 0.937748 0.428637
v 0.515845 0.91435 0.392338
v 0.614396 0.820464 0.303621
v 0.614396 0.794514 0.383621
v 0.64455 0.765854 0.421374
v 0.588396 0.792379 0.435565
v 0.562156 0.83025 0.400125
v 0.588396 0.81833 0.355565
v 0.679611 0.751423 0.462829
v 0.627167 0.766762 0.482655
v 0.574329 0.802907 0.499347
v 0.668243 0.809194 0.284854
v 0.64455 0.791804 0.341374
v 0.734023 0.810585 0.277926
v 0.707014 0.757626 0.411944
v 0.707014 0.783576 0.331944
f 1 2 3
f 2 4 5
f 3 5 6
f 2 5 3
f 4 7 8
f 7 9 10
f 8 10 11
f 7 10 8
f 12 13 14
f 13 15 16
f 14 16 17
f 13 16 14
f 4 8 5
f 18 15 13
f 19 13 12
f 8 20 5
f 1 3 21
f 22 12 23
f 24 23 25
f 3 26 21
f 12 14 27
f 14 17 28
f 27 28 29
f 14 28 27
f 25 30 31
f 30 29 32
f 31 32 33
f 30 32 31
f 12 27 23
f 27 29 30
f 23 30 25
f 27 30 23
f 1 21 34
f 21 35 36
f 34 36 37
f 21 36 34
f 25 31 38
f 31 33 39
f 38 39 40
f 31 39 38
f 37 41 42
f 41 43 44
f 42 44 45
f 41 44 42
f 35 46 36
f 46 43 41
f 36 41 37
f 46 41 36
f 1 34 47
f 34 37 48
f 47 48 49
f 34 48 47
f 37 42 50
f 42 45 51
f 50 51 52
f 42 51 50
f 49 53 54
f 53 52 55
f 54 55 56
f 53 55 54
f 37 50 48
f 50 52 53
f 48 53 49
f 50 53 48
f 1 47 2
f 47 49 57
f 2 57 4
f 47 57 2
f 49 54 58
f 54 56 59
f 58 59 60
f 54 59 58
f 4 61 7
f 61 60 62
f 7 62 9
f 61 62 7
f 49 58 57
f 58 60 61
f 57 61 4
f 58 61 57
f 9 63 10
f 64 65 66
f 67 66 15
f 63 68 10
f 65 69 70
f 69 71 72
f 70 72 73
f 69 72 70
f 15 74 16
f 74 73 75
f 16 75 17
f 74 75 16
f 65 70 66
f 70 73 74
f 66 74 15
f 70 74 66
f 17 75 76
f 75 73 77
f 76 77 78
f 75 77 76
f 73 72 79
f 72 71 80
f 79 80 81
f 72 80 79
f 78 82 83
f 82 81 84
f 83 84 85
f 82 84 83
f 73 79 77
f 79 81 82
f 77 82 78
f 79 82 77
f 17 76 28
f 76 78 86
f 28 86 29
f 76 86 28
f 78 83 87
f 83 85 88
f 87 88 89
f 83 88 87
f 29 90 32
f 90 89 91
f 32 91 33
f 90 91 32
f 78 87 86
f 87 89 90
f 86 90 29
f 87 90 86
f 33 91 92
f 91 89 93
f 92 93 94
f 91 93 92
f 89 88 95
f 88 85 96
f 95 96 97
f 88 96 95
f 94 98 99
f 98 97 100
f 99 100 101
f 98 100 99
f 89 95 93
f 95 97 98
f 93 98 94
f 95 98 93
f 33 92 39
f 92 94 102
f 39 102 40
f 92 102 39
f 94 99 103
f 99 101 104
f 103 104 105
f 99 104 103
f 43 106 44
f 106 107 108
f 44 108 45
f 106 108 44
f 94 103 102
f 103 105 109
f 102 109 40
f 103 109 102
f 45 108 110
f 108 107 111
f 110 111 112
f 108 111 110
f 107 113 114
f 104 101 115
f 114 116 117
f 104 115 118
f 112 119 120
f 119 117 121
f 120 121 122
f 119 121 120
f 107 114 111
f 114 117 119
f 111 119 112
f 114 119 111
f 45 110 51
f 110 112 123
f 51 123 52
f 110 123 51
f 112 120 124
f 120 122 125
f 124 125 126
f 120 125 124
f 52 127 55
f 127 126 128
f 55 128 56
f 127 128 55
f 112 124 123
f 124 126 127
f 123 127 52
f 124 127 123
f 56 128 129
f 128 126 130
f 129 130 131
f 128 130 129
f 126 125 132
f 125 122 133
f 132 133 134
f 125 133 132
f 131 135 136
f 135 134 137
f 136 137 138
f 135 137 136
f 126 132 130
f 132 134 135
f 130 135 131
f 132 135 130
f 56 129 59
f 129 131 139
f 59 139 60
f 129 139 59
f 131 136 140
f 136 138 141
f 140 141 142
f 136 141 140
f 60 143 62
f 143 142 144
f 62 144 9
f 143 144 62
f 131 140 139
f 140 142 143
f 139 143 60
f 140 143 139
f 9 144 63
f 144 142 145
f 63 145 146
f 144 145 63
f 142 141 147
f 141 138 148
f 147 148 149
f 141 148 147
f 65 150 69
f 150 151 152
f 69 152 71
f 150 152 69
f 142 147 145
f 147 149 153
f 145 153 146
f 147 153 145
f 154 155 156
f 155 157 158
f 156 158 159
f 155 158 156
f 157 160 161
f 160 85 84
f 161 84 81
f 160 84 161
f 159 162 163
f 162 81 80
f 163 80 71
f 162 80 163
f 157 161 158
f 161 81 162
f 158 162 159
f 161 162 158
f 154 164 155
f 164 165 166
f 155 166 157
f 164 166 155
f 165 167 168
f 167 101 100
f 168 100 97
f 167 100 168
f 157 169 160
f 169 97 96
f 160 96 85
f 169 96 160
f 165 168 166
f 168 97 169
f 166 169 157
f 168 169 166
f 154 170 164
f 170 171 172
f 164 172 165
f 170 172 164
f 173 174 175
f 174 122 121
f 175 121 117
f 174 121 175
f 165 176 167
f 176 177 115
f 167 115 101
f 176 115 167
f 173 175 178
f 175 117 179
f 172 176 165
f 180 176 172
f 154 181 170
f 182 183 184
f 185 184 173
f 181 186 170
f 183 187 188
f 187 138 137
f 188 137 134
f 187 137 188
f 173 189 174
f 189 134 133
f 174 133 122
f 189 133 174
f 183 188 184
f 188 134 189
f 184 189 173
f 188 189 184
f 154 156 181
f 156 159 190
f 181 190 191
f 156 190 181
f 159 163 192
f 163 71 152
f 192 152 151
f 163 152 192
f 183 193 187
f 193 149 148
f 187 148 138
f 193 148 187
f 159 192 190
f 192 151 194
f 190 194 191
f 192 194 190
f 18 8 15
f 15 8 11
f 13 20 18
f 18 20 8
f 19 5 13
f 13 5 20
f 12 6 19
f 19 6 5
f 22 3 12
f 12 3 6
f 23 26 22
f 22 26 3
f 24 21 23
f 23 21 26
f 25 35 24
f 24 35 21
f 38 46 25
f 25 46 35
f 40 43 38
f 38 43 46
f 64 63 65
f 65 63 146
f 66 68 64
f 64 68 63
f 67 10 66
f 66 10 68
f 15 11 67
f 67 11 10
f 104 113 105
f 105 113 107
f 105 107 109
f 109 107 106
f 109 106 40
f 40 106 43
f 115 116 118
f 118 116 114
f 118 114 104
f 104 114 113
f 65 146 150
f 150 146 153
f 150 153 151
f 151 153 149
f 170 185 171
f 171 185 173
f 171 173 172
f 172 173 178
f 176 179 177
f 177 179 117
f 177 117 115
f 115 117 116
f 180 175 176
f 176 175 179
f 172 178 180
f 180 178 175
f 181 182 186
f 186 182 184
f 186 184 170
f 170 184 185
f 191 183 181
f 181 183 182
f 151 149 194
f 194 149 193
f 194 193 191
f 191 193 183
