v -0.0134429 1.16729 0.467557
v 0.0214269 1.12347 0.463083
v 0.0158444 1.17226 0.419876
v 0.0446935 1.07404 0.45
v 0.0480886 1.12463 0.411445
v 0.0339534 1.1679 0.366875
v 0.0545857 1.02275 0.429305
v 0.0678019 1.06476 0.391364
v 0.0503505 0.973524 0.402573
v 0.0684934 1.01234 0.366244
v 0.0714501 1.05401 0.328678
v 0.0339534 1.19519 0.246875
v 0.0621554 1.1414 0.227662
v 0.0395055 1.18184 0.192589
v 0.0714501 1.0813 0.208678
v 0.0589958 1.12264 0.172735
v 0.0320783 1.16051 0.141152
v 0.0621554 1.11411 0.347662
v -0.0363957 1.20799 0.436379
v -0.0103955 1.21013 0.384436
v -0.06655 1.23665 0.398626
v 0.00367127 1.22689 0.200653
v 0.00117317 1.20717 0.146032
v -0.0397934 1.24392 0.157304
v -0.06655 1.26394 0.278626
v -0.0491665 1.26303 0.217345
v -0.101611 1.27837 0.237171
v -0.0877029 1.26796 0.17411
v -0.138908 1.27748 0.19517
v -0.0103955 1.23742 0.264436
v -0.0630992 1.18129 0.489786
v -0.0902423 1.21926 0.455146
v -0.117924 1.18528 0.501374
v -0.129013 1.27217 0.288056
v -0.166646 1.277 0.24402
v -0.129013 1.24488 0.408056
v -0.166646 1.24971 0.36402
v -0.191671 1.23401 0.411804
v -0.156022 1.21787 0.462074
v -0.173745 1.17895 0.50144
v -0.212077 1.20428 0.454882
v -0.226311 1.16278 0.489976
v -0.0273629 1.12905 0.50629
v -0.0811062 1.13942 0.525857
v -0.049172 1.08478 0.533126
v -0.146886 1.13803 0.532785
v -0.203044 1.12533 0.524793
v -0.174293 1.08213 0.546303
v -0.110741 1.08519 0.549478
v -0.0772102 1.03783 0.546021
v -0.142246 1.03646 0.552871
v -0.109343 0.991797 0.543995
v 0.00438704 1.08093 0.498848
v -0.0252478 1.0267 0.522468
v -0.05772 0.978635 0.526167
v -0.0116753 0.970885 0.494929
v 0.0241003 1.02106 0.478767
v 0.0252861 0.969137 0.452658
v 0.0477892 0.952296 0.350623
v 0.0477892 0.979586 0.230623
v 0.0316179 0.965774 0.178626
v 0.0609276 1.02078 0.191781
v 0.0684934 1.03963 0.246244
v 0.0609276 0.993496 0.311781
v 0.00306755 0.960431 0.130539
v 0.0343401 1.0094 0.13228
v -0.0356884 0.963963 0.0900237
v -0.002515 1.00922 0.0873318
v 0.0208777 1.05964 0.0955003
v 0.0552812 1.07013 0.14808
v 0.032709 1.11138 0.113907
v -0.00302731 1.16362 0.0974037
v -0.00745151 1.11158 0.0718861
v -0.0478745 1.16014 0.0637492
v -0.0283926 1.05085 0.0560867
v -0.0589554 1.00141 0.0552074
v -0.0877068 1.04462 0.0336969
v -0.0645378 1.10369 0.0393941
v -0.0990496 1.15034 0.0427504
v -0.119754 1.09029 0.0271297
v -0.152657 1.13495 0.0360055
v -0.0393482 1.20846 0.104378
v -0.0964344 1.20057 0.0718861
v -0.15129 1.18607 0.0592541
v -0.148378 1.2289 0.0955003
v -0.0921859 1.24461 0.121071
v -0.144143 1.26016 0.141985
v -0.192933 1.26574 0.185192
v -0.19862 1.24236 0.13228
v -0.242243 1.23964 0.178626
v -0.202869 1.19832 0.0830957
v -0.20428 1.14811 0.0538332
v -0.250325 1.15586 0.0850712
v -0.252217 1.20396 0.126797
v -0.283086 1.20115 0.17597
v -0.287286 1.15761 0.127342
v -0.31235 1.15322 0.177427
v -0.221381 1.25939 0.235483
v -0.191671 1.2613 0.291803
v -0.274977 1.221 0.23
v -0.309789 1.17445 0.229377
v -0.293618 1.18826 0.281374
v -0.24839 1.20509 0.409501
v -0.293618 1.16097 0.401374
v -0.265067 1.16632 0.449461
v -0.274977 1.19371 0.35
v -0.221381 1.2321 0.355483
v -0.24839 1.23238 0.289501
v -0.259485 1.11753 0.492668
v -0.29634 1.11735 0.44772
v -0.282878 1.06711 0.4845
v -0.309789 1.14716 0.349377
v -0.322927 1.10596 0.388219
v -0.330493 1.1144 0.213756
v -0.330493 1.08711 0.333756
v -0.33345 1.04545 0.371322
v -0.322927 1.13325 0.268219
v -0.317281 1.05661 0.43192
v -0.294709 1.01537 0.466093
v -0.320996 1.00411 0.407265
v -0.294078 0.966239 0.438848
v -0.233607 1.0759 0.523914
v -0.254548 1.01516 0.508114
v -0.258973 0.963125 0.482596
v -0.214125 0.966603 0.516251
v -0.197462 1.02306 0.540606
v -0.16295 0.976409 0.53725
v -0.11071 0.940673 0.520746
v -0.165565 0.92618 0.508114
v -0.113622 0.897851 0.4845
v -0.222652 0.918283 0.475622
v -0.263173 0.91958 0.433968
v -0.222206 0.882829 0.422696
v -0.169814 0.882137 0.45893
v -0.117856 0.86659 0.438015
v -0.174297 0.858782 0.405891
v -0.123092 0.849271 0.38483
v -0.0591311 0.928431 0.496904
v -0.0633796 0.884389 0.44772
v -0.0690667 0.861008 0.394808
v -0.0197564 0.887111 0.401374
v -0.00978305 0.922785 0.453203
v 0.0210857 0.925593 0.40403
v 0.0129775 0.905751 0.35
v 0.0316179 0.938485 0.298626
v -0.040619 0.867355 0.344517
v -0.0953534 0.849749 0.33598
v -0.0703288 0.865451 0.288197
v -0.01361 0.921653 0.170499
v -0.0703288 0.89274 0.168197
v -0.0499227 0.922469 0.125118
v -0.040619 0.894644 0.224517
v 0.0129775 0.93304 0.23
v -0.01361 0.894364 0.290499
v -0.248557 0.959461 0.112443
v -0.234637 0.997697 0.0737102
v -0.198901 0.945457 0.0902139
v -0.212828 1.04197 0.0468746
v -0.180894 0.98733 0.0541431
v -0.144076 0.941468 0.0786257
v -0.18479 1.08891 0.0339792
v -0.151259 1.04156 0.0305226
v -0.115114 0.988721 0.0472151
v -0.088255 0.947797 0.0785607
v -0.283427 1.00328 0.116917
v -0.306693 1.05271 0.13
v -0.266387 1.04581 0.0811522
v -0.316586 1.10399 0.150695
v -0.2861 1.10569 0.101233
v -0.236752 1.10004 0.0575317
v -0.277844 0.95449 0.160125
v -0.295953 0.958846 0.213125
v -0.310088 1.00211 0.168555
v -0.295953 0.931556 0.333126
v -0.301505 0.944908 0.387411
v -0.324155 0.985351 0.352338
v -0.329802 1.06199 0.188637
v -0.33345 1.07274 0.251322
v -0.324155 1.01264 0.232338
v -0.225604 0.918753 0.143621
v -0.19545 0.890093 0.181374
v -0.251604 0.916619 0.195564
v -0.19545 0.862804 0.301374
v -0.160389 0.848374 0.342829
v -0.212833 0.863712 0.362655
v -0.265671 0.899857 0.379347
v -0.251604 0.88933 0.315565
v -0.171757 0.907483 0.124854
v -0.105977 0.908874 0.117926
v -0.132987 0.854576 0.291944
v -0.132987 0.881865 0.171944
v -0.0953534 0.877039 0.21598
f 1 2 3
f 2 4 5
f 3 5 6
f 2 5 3
f 4 7 8
f 7 9 10
f 8 10 11
f 7 10 8
f 12 13 14
f 13 15 16
f 14 16 17
f 13 16 14
f 4 8 5
f 8 11 18
f 5 18 6
f 8 18 5
f 1 3 19
f 3 6 20
f 19 20 21
f 3 20 19
f 12 14 22
f 14 17 23
f 22 23 24
f 14 23 22
f 25 26 27
f 26 24 28
f 27 28 29
f 26 28 27
f 12 22 30
f 22 24 26
f 30 26 25
f 22 26 30
f 1 19 31
f 19 21 32
f 31 32 33
f 19 32 31
f 25 27 34
f 27 29 35
f 36 37 38
f 27 35 34
f 33 39 40
f 39 38 41
f 40 41 42
f 39 41 40
f 21 36 32
f 36 38 39
f 32 39 33
f 36 39 32
f 1 31 43
f 31 33 44
f 43 44 45
f 31 44 43
f 33 40 46
f 40 42 47
f 46 47 48
f 40 47 46
f 45 49 50
f 49 48 51
f 50 51 52
f 49 51 50
f 33 46 44
f 46 48 49
f 44 49 45
f 46 49 44
f 1 43 2
f 43 45 53
f 2 53 4
f 43 53 2
f 45 50 54
f 50 52 55
f 54 55 56
f 50 55 54
f 4 57 7
f 57 56 58
f 7 58 9
f 57 58 7
f 45 54 53
f 54 56 57
f 53 57 4
f 54 57 53
f 9 59 10
f 60 61 62
f 63 62 15
f 59 64 10
f 61 65 66
f 65 67 68
f 66 68 69
f 65 68 66
f 15 70 16
f 70 69 71
f 16 71 17
f 70 71 16
f 61 66 62
f 66 69 70
f 62 70 15
f 66 70 62
f 17 71 72
f 71 69 73
f 72 73 74
f 71 73 72
f 69 68 75
f 68 67 76
f 75 76 77
f 68 76 75
f 74 78 79
f 78 77 80
f 79 80 81
f 78 80 79
f 69 75 73
f 75 77 78
f 73 78 74
f 75 78 73
f 17 72 23
f 72 74 82
f 23 82 24
f 72 82 23
f 74 79 83
f 79 81 84
f 83 84 85
f 79 84 83
f 24 86 28
f 86 85 87
f 28 87 29
f 86 87 28
f 74 83 82
f 83 85 86
f 82 86 24
f 83 86 82
f 29 87 88
f 87 85 89
f 88 89 90
f 87 89 88
f 85 84 91
f 84 81 92
f 91 92 93
f 84 92 91
f 90 94 95
f 94 93 96
f 95 96 97
f 94 96 95
f 85 91 89
f 91 93 94
f 89 94 90
f 91 94 89
f 29 88 35
f 88 90 98
f 35 98 99
f 88 98 35
f 90 95 100
f 95 97 101
f 100 101 102
f 95 101 100
f 38 103 41
f 103 104 105
f 41 105 42
f 103 105 41
f 90 100 98
f 106 104 103
f 107 103 38
f 100 108 98
f 42 105 109
f 105 104 110
f 109 110 111
f 105 110 109
f 104 112 113
f 101 97 114
f 113 115 116
f 101 114 117
f 111 118 119
f 118 116 120
f 119 120 121
f 118 120 119
f 104 113 110
f 113 116 118
f 110 118 111
f 113 118 110
f 42 109 47
f 109 111 122
f 47 122 48
f 109 122 47
f 111 119 123
f 119 121 124
f 123 124 125
f 119 124 123
f 48 126 51
f 126 125 127
f 51 127 52
f 126 127 51
f 111 123 122
f 123 125 126
f 122 126 48
f 123 126 122
f 52 127 128
f 127 125 129
f 128 129 130
f 127 129 128
f 125 124 131
f 124 121 132
f 131 132 133
f 124 132 131
f 130 134 135
f 134 133 136
f 135 136 137
f 134 136 135
f 125 131 129
f 131 133 134
f 129 134 130
f 131 134 129
f 52 128 55
f 128 130 138
f 55 138 56
f 128 138 55
f 130 135 139
f 135 137 140
f 139 140 141
f 135 140 139
f 56 142 58
f 142 141 143
f 58 143 9
f 142 143 58
f 130 139 138
f 139 141 142
f 138 142 56
f 139 142 138
f 9 143 59
f 143 141 144
f 59 144 145
f 143 144 59
f 141 140 146
f 140 137 147
f 146 147 148
f 140 147 146
f 61 149 65
f 149 150 151
f 65 151 67
f 149 151 65
f 141 146 144
f 152 150 149
f 153 149 61
f 146 154 144
f 155 156 157
f 156 158 159
f 157 159 160
f 156 159 157
f 158 161 162
f 161 81 80
f 162 80 77
f 161 80 162
f 160 163 164
f 163 77 76
f 164 76 67
f 163 76 164
f 158 162 159
f 162 77 163
f 159 163 160
f 162 163 159
f 155 165 156
f 165 166 167
f 156 167 158
f 165 167 156
f 166 168 169
f 168 97 96
f 169 96 93
f 168 96 169
f 158 170 161
f 170 93 92
f 161 92 81
f 170 92 161
f 166 169 167
f 169 93 170
f 167 170 158
f 169 170 167
f 155 171 165
f 171 172 173
f 165 173 166
f 171 173 165
f 174 175 176
f 175 121 120
f 176 120 116
f 175 120 176
f 166 177 168
f 177 178 114
f 168 114 97
f 177 114 168
f 172 179 173
f 179 178 177
f 173 177 166
f 179 177 173
f 155 180 171
f 180 181 182
f 171 182 172
f 180 182 171
f 183 184 185
f 184 137 136
f 185 136 133
f 184 136 185
f 174 186 175
f 186 133 132
f 175 132 121
f 186 132 175
f 183 185 187
f 185 133 186
f 187 186 174
f 185 186 187
f 155 157 180
f 157 160 188
f 180 188 181
f 157 188 180
f 160 164 189
f 164 67 151
f 189 151 150
f 164 151 189
f 183 190 184
f 191 150 192
f 184 147 137
f 190 147 184
f 160 189 188
f 189 150 191
f 188 191 181
f 189 191 188
f 10 63 11
f 11 63 15
f 11 15 18
f 18 15 13
f 18 13 6
f 6 13 12
f 6 12 20
f 20 12 30
f 20 30 21
f 21 30 25
f 36 34 37
f 37 34 35
f 37 35 38
f 38 35 99
f 21 25 36
f 36 25 34
f 59 60 64
f 64 60 62
f 64 62 10
f 10 62 63
f 106 100 104
f 104 100 102
f 103 108 106
f 106 108 100
f 107 98 103
f 103 98 108
f 38 99 107
f 107 99 98
f 104 102 112
f 112 102 101
f 112 101 113
f 113 101 117
f 113 117 115
f 115 117 114
f 115 114 116
f 116 114 178
f 144 153 145
f 145 153 61
f 145 61 59
f 59 61 60
f 147 192 148
f 148 192 150
f 148 150 146
f 146 150 152
f 146 152 154
f 154 152 149
f 154 149 144
f 144 149 153
f 176 179 174
f 174 179 172
f 116 178 176
f 176 178 179
f 187 182 183
f 183 182 181
f 174 172 187
f 187 172 182
f 183 181 190
f 190 181 191
f 190 191 147
f 147 191 192
