v -0.0134429 1.19457 0.347557
v 0.0214269 1.15076 0.343083
v 0.0158444 1.19955 0.299875
v 0.0446935 1.10132 0.33
v 0.0480886 1.15192 0.291445
v 0.0339534 1.19519 0.246875
v 0.0545857 1.05004 0.309305
v 0.0678019 1.09205 0.271363
v 0.0503505 1.00081 0.282573
v 0.0684934 1.03963 0.246244
v 0.0714501 1.0813 0.208678
v 0.0339534 1.26761 0.0868747
v 0.0621554 1.21382 0.0676619
v 0.0395055 1.25426 0.0325893
v 0.0714501 1.15372 0.0486781
v 0.0589958 1.19506 0.0127353
v 0.0320783 1.23293 -0.0188482
v 0.0678019 1.16447 0.111364
v 0.0480886 1.22434 0.131445
v 0.0621554 1.1414 0.227662
v -0.0363957 1.23528 0.316379
v 0.0158444 1.27197 0.139875
v -0.0103955 1.30984 0.104436
v -0.0363957 1.3077 0.156379
v -0.06655 1.33636 0.118626
v -0.0103955 1.23742 0.264436
v 0.00367127 1.29931 0.0406528
v 0.00117317 1.27959 -0.0139682
v -0.0397934 1.31634 -0.00269625
v -0.0491665 1.33545 0.0573454
v -0.101611 1.35079 0.0771708
v -0.0877029 1.34038 0.0141096
v -0.138908 1.3499 0.03517
v -0.0630992 1.20858 0.369786
v -0.06655 1.26394 0.278626
v -0.0902423 1.24655 0.335146
v -0.117924 1.21257 0.381374
v -0.129013 1.34459 0.128056
v -0.166646 1.34942 0.0840204
v -0.191671 1.33372 0.131803
v -0.156022 1.24516 0.342074
v -0.173745 1.20624 0.381439
v -0.191671 1.2613 0.291803
v -0.212077 1.23157 0.334882
v -0.226311 1.19007 0.369976
v -0.0902423 1.31897 0.175146
v -0.156022 1.31758 0.182074
v -0.129013 1.27217 0.288056
v -0.0273629 1.15634 0.38629
v -0.0811062 1.16671 0.405857
v -0.049172 1.11206 0.413125
v -0.146886 1.16531 0.412785
v -0.203044 1.15262 0.404793
v -0.174293 1.10942 0.426303
v -0.110741 1.11248 0.429477
v -0.0772102 1.06512 0.426021
v -0.142246 1.06375 0.43287
v -0.109343 1.01909 0.423995
v 0.00438704 1.10822 0.378848
v -0.0252478 1.05399 0.402468
v -0.05772 1.00592 0.406167
v -0.0116753 0.998175 0.374929
v 0.0241003 1.04835 0.358767
v 0.0252861 0.996427 0.332658
v 0.0477892 0.979586 0.230623
v 0.0316179 0.965774 0.178626
v 0.0609276 1.02078 0.191781
v 0.0684934 1.11205 0.0862439
v 0.0609276 1.09321 0.0317813
v 0.0316179 1.03819 0.0186257
v 0.00306755 1.03285 -0.0294609
v 0.0343401 1.08182 -0.0277197
v -0.0356884 1.03638 -0.0699763
v -0.002515 1.08164 -0.0726682
v 0.0208777 1.13206 -0.0644997
v 0.0552812 1.14255 -0.0119203
v 0.032709 1.1838 -0.0460926
v -0.00302731 1.23604 -0.0625963
v -0.00745151 1.184 -0.0881139
v -0.0478745 1.23256 -0.0962507
v -0.0283926 1.12327 -0.103913
v -0.0589554 1.07383 -0.104793
v -0.0877068 1.11704 -0.126303
v -0.0645378 1.17611 -0.120606
v -0.0990496 1.22276 -0.11725
v -0.119754 1.16271 -0.13287
v -0.152657 1.20737 -0.123994
v -0.0393482 1.28088 -0.0556219
v -0.0964344 1.27299 -0.0881139
v -0.15129 1.25849 -0.100746
v -0.148378 1.30132 -0.0644997
v -0.0921859 1.31703 -0.0389293
v -0.144143 1.33258 -0.0180148
v -0.192933 1.33816 0.0251924
v -0.19862 1.31478 -0.0277197
v -0.242243 1.31206 0.0186257
v -0.202869 1.27074 -0.0769042
v -0.20428 1.22053 -0.106167
v -0.250325 1.22828 -0.0749287
v -0.252217 1.27638 -0.0332026
v -0.283086 1.27357 0.0159699
v -0.287286 1.23003 -0.0326582
v -0.31235 1.22564 0.0174269
v -0.221381 1.33181 0.075483
v -0.274977 1.29342 0.0700001
v -0.309789 1.24687 0.069377
v -0.293618 1.26068 0.121374
v -0.24839 1.3048 0.129501
v -0.212077 1.30399 0.174882
v -0.24839 1.23238 0.289501
v -0.293618 1.18826 0.281374
v -0.265067 1.1936 0.329461
v -0.259485 1.14481 0.372668
v -0.29634 1.14464 0.32772
v -0.282878 1.0944 0.3645
v -0.322927 1.20567 0.108219
v -0.330493 1.18682 0.0537562
v -0.322927 1.13325 0.268219
v -0.330493 1.1144 0.213756
v -0.33345 1.07274 0.251322
v -0.317281 1.0839 0.31192
v -0.294709 1.04265 0.346093
v -0.320996 1.0314 0.287265
v -0.294078 0.993528 0.318848
v -0.233607 1.10319 0.403913
v -0.254548 1.04245 0.388114
v -0.258973 0.990414 0.362596
v -0.214125 0.993892 0.396251
v -0.197462 1.05035 0.420606
v -0.16295 1.0037 0.41725
v -0.11071 0.967962 0.400746
v -0.165565 0.953469 0.388114
v -0.113622 0.92514 0.3645
v -0.222652 0.945572 0.355622
v -0.263173 0.94687 0.313968
v -0.222206 0.910118 0.302696
v -0.169814 0.909427 0.338929
v -0.117856 0.89388 0.318015
v -0.174297 0.886071 0.28589
v -0.123092 0.87656 0.26483
v -0.0591311 0.955721 0.376904
v -0.0633796 0.911678 0.32772
v -0.0690667 0.888297 0.274808
v -0.0197564 0.9144 0.281374
v -0.00978305 0.950074 0.333203
v 0.0210857 0.952882 0.28403
v 0.0129775 0.93304 0.23
v -0.040619 0.894644 0.224517
v -0.0953534 0.877039 0.21598
v -0.0703288 0.89274 0.168197
v -0.01361 0.994073 0.010499
v -0.01361 0.921653 0.170499
v -0.0499227 0.922469 0.125118
v -0.0499227 0.99489 -0.0348818
v -0.248557 1.03188 -0.047557
v -0.234637 1.07012 -0.0862898
v -0.198901 1.01788 -0.0697861
v -0.212828 1.11439 -0.113125
v -0.180894 1.05975 -0.105857
v -0.144076 1.01389 -0.0813743
v -0.18479 1.16133 -0.126021
v -0.151259 1.11398 -0.129477
v -0.115114 1.06114 -0.112785
v -0.088255 1.02022 -0.0814393
v -0.283427 1.0757 -0.0430826
v -0.306693 1.12513 -0.03
v -0.266387 1.11823 -0.0788478
v -0.316586 1.17641 -0.00930498
v -0.2861 1.17811 -0.0587666
v -0.236752 1.17246 -0.102468
v -0.277844 1.02691 0.000124648
v -0.295953 1.03127 0.0531254
v -0.310088 1.07453 0.00855542
v -0.295953 0.958846 0.213125
v -0.301505 0.972197 0.267411
v -0.324155 1.01264 0.232338
v -0.329802 1.13441 0.0286366
v -0.33345 1.14516 0.091322
v -0.310088 1.00211 0.168555
v -0.329802 1.06199 0.188637
v -0.324155 1.08506 0.0723382
v -0.225604 0.991174 -0.0163791
v -0.225604 0.918753 0.143621
v -0.19545 0.890093 0.181374
v -0.251604 0.916619 0.195564
v -0.277844 0.95449 0.160125
v -0.251604 0.989039 0.0355645
v -0.160389 0.875663 0.222829
v -0.212833 0.891001 0.242655
v -0.265671 0.927147 0.259347
v -0.171757 0.979903 -0.0351462
v -0.19545 0.962514 0.0213743
v -0.105977 0.981295 -0.0420741
v -0.0703288 0.96516 0.00819663
v -0.132987 0.881865 0.171944
v -0.105977 0.908874 0.117926
v -0.171757 0.907483 0.124854
v -0.132987 0.954286 0.011944
f 1 2 3
f 2 4 5
f 3 5 6
f 2 5 3
f 4 7 8
f 7 9 10
f 8 10 11
f 7 10 8
f 12 13 14
f 13 15 16
f 14 16 17
f 13 16 14
f 4 8 5
f 18 15 13
f 19 13 12
f 8 20 5
f 1 3 21
f 22 12 23
f 24 23 25
f 3 26 21
f 12 14 27
f 14 17 28
f 27 28 29
f 14 28 27
f 25 30 31
f 30 29 32
f 31 32 33
f 30 32 31
f 12 27 23
f 27 29 30
f 23 30 25
f 27 30 23
f 1 21 34
f 21 35 36
f 34 36 37
f 21 36 34
f 25 31 38
f 31 33 39
f 38 39 40
f 31 39 38
f 37 41 42
f 41 43 44
f 42 44 45
f 41 44 42
f 25 38 46
f 38 40 47
f 36 41 37
f 48 41 36
f 1 34 49
f 34 37 50
f 49 50 51
f 34 50 49
f 37 42 52
f 42 45 53
f 52 53 54
f 42 53 52
f 51 55 56
f 55 54 57
f 56 57 58
f 55 57 56
f 37 52 50
f 52 54 55
f 50 55 51
f 52 55 50
f 1 49 2
f 49 51 59
f 2 59 4
f 49 59 2
f 51 56 60
f 56 58 61
f 60 61 62
f 56 61 60
f 4 63 7
f 63 62 64
f 7 64 9
f 63 64 7
f 51 60 59
f 60 62 63
f 59 63 4
f 60 63 59
f 9 65 10
f 65 66 67
f 68 69 15
f 65 67 10
f 70 71 72
f 71 73 74
f 72 74 75
f 71 74 72
f 15 76 16
f 76 75 77
f 16 77 17
f 76 77 16
f 70 72 69
f 72 75 76
f 69 76 15
f 72 76 69
f 17 77 78
f 77 75 79
f 78 79 80
f 77 79 78
f 75 74 81
f 74 73 82
f 81 82 83
f 74 82 81
f 80 84 85
f 84 83 86
f 85 86 87
f 84 86 85
f 75 81 79
f 81 83 84
f 79 84 80
f 81 84 79
f 17 78 28
f 78 80 88
f 28 88 29
f 78 88 28
f 80 85 89
f 85 87 90
f 89 90 91
f 85 90 89
f 29 92 32
f 92 91 93
f 32 93 33
f 92 93 32
f 80 89 88
f 89 91 92
f 88 92 29
f 89 92 88
f 33 93 94
f 93 91 95
f 94 95 96
f 93 95 94
f 91 90 97
f 90 87 98
f 97 98 99
f 90 98 97
f 96 100 101
f 100 99 102
f 101 102 103
f 100 102 101
f 91 97 95
f 97 99 100
f 95 100 96
f 97 100 95
f 33 94 39
f 94 96 104
f 39 104 40
f 94 104 39
f 96 101 105
f 101 103 106
f 105 106 107
f 101 106 105
f 40 108 109
f 110 111 112
f 44 112 45
f 110 112 44
f 96 105 104
f 105 107 108
f 104 108 40
f 105 108 104
f 45 112 113
f 112 111 114
f 113 114 115
f 112 114 113
f 107 106 116
f 106 103 117
f 118 119 120
f 106 117 116
f 115 121 122
f 121 120 123
f 122 123 124
f 121 123 122
f 111 118 114
f 118 120 121
f 114 121 115
f 118 121 114
f 45 113 53
f 113 115 125
f 53 125 54
f 113 125 53
f 115 122 126
f 122 124 127
f 126 127 128
f 122 127 126
f 54 129 57
f 129 128 130
f 57 130 58
f 129 130 57
f 115 126 125
f 126 128 129
f 125 129 54
f 126 129 125
f 58 130 131
f 130 128 132
f 131 132 133
f 130 132 131
f 128 127 134
f 127 124 135
f 134 135 136
f 127 135 134
f 133 137 138
f 137 136 139
f 138 139 140
f 137 139 138
f 128 134 132
f 134 136 137
f 132 137 133
f 134 137 132
f 58 131 61
f 131 133 141
f 61 141 62
f 131 141 61
f 133 138 142
f 138 140 143
f 142 143 144
f 138 143 142
f 62 145 64
f 145 144 146
f 64 146 9
f 145 146 64
f 133 142 141
f 142 144 145
f 141 145 62
f 142 145 141
f 9 146 65
f 146 144 147
f 65 147 66
f 146 147 65
f 144 143 148
f 143 140 149
f 148 149 150
f 143 149 148
f 70 151 71
f 152 150 153
f 71 154 73
f 151 154 71
f 144 148 147
f 148 150 152
f 147 152 66
f 148 152 147
f 155 156 157
f 156 158 159
f 157 159 160
f 156 159 157
f 158 161 162
f 161 87 86
f 162 86 83
f 161 86 162
f 160 163 164
f 163 83 82
f 164 82 73
f 163 82 164
f 158 162 159
f 162 83 163
f 159 163 160
f 162 163 159
f 155 165 156
f 165 166 167
f 156 167 158
f 165 167 156
f 166 168 169
f 168 103 102
f 169 102 99
f 168 102 169
f 158 170 161
f 170 99 98
f 161 98 87
f 170 98 161
f 166 169 167
f 169 99 170
f 167 170 158
f 169 170 167
f 155 171 165
f 171 172 173
f 165 173 166
f 171 173 165
f 174 175 176
f 175 124 123
f 176 123 120
f 175 123 176
f 166 177 168
f 177 178 117
f 168 117 103
f 177 117 168
f 174 176 179
f 176 120 180
f 173 177 166
f 181 177 173
f 155 182 171
f 183 184 185
f 186 185 174
f 182 187 171
f 184 188 189
f 188 140 139
f 189 139 136
f 188 139 189
f 174 190 175
f 190 136 135
f 175 135 124
f 190 135 175
f 184 189 185
f 189 136 190
f 185 190 174
f 189 190 185
f 155 157 182
f 157 160 191
f 182 191 192
f 157 191 182
f 160 164 193
f 164 73 154
f 193 154 194
f 164 154 193
f 184 195 188
f 195 150 149
f 188 149 140
f 195 149 188
f 160 193 191
f 196 150 195
f 197 195 184
f 193 198 191
f 5 19 6
f 6 19 12
f 6 12 3
f 3 12 22
f 10 68 11
f 11 68 15
f 11 15 8
f 8 15 18
f 8 18 20
f 20 18 13
f 20 13 5
f 5 13 19
f 3 22 26
f 26 22 23
f 26 23 21
f 21 23 24
f 21 24 35
f 35 24 25
f 35 25 36
f 36 25 46
f 41 47 43
f 43 47 40
f 43 40 44
f 44 40 109
f 48 38 41
f 41 38 47
f 36 46 48
f 48 46 38
f 66 70 67
f 67 70 69
f 67 69 10
f 10 69 68
f 110 108 111
f 111 108 107
f 44 109 110
f 110 109 108
f 118 116 119
f 119 116 117
f 119 117 120
f 120 117 178
f 111 107 118
f 118 107 116
f 150 194 153
f 153 194 154
f 153 154 152
f 152 154 151
f 152 151 66
f 66 151 70
f 176 181 179
f 179 181 173
f 179 173 174
f 174 173 172
f 120 178 180
f 180 178 177
f 180 177 176
f 176 177 181
f 183 182 184
f 184 182 192
f 185 187 183
f 183 187 182
f 186 171 185
f 185 171 187
f 174 172 186
f 186 172 171
f 196 193 150
f 150 193 194
f 195 198 196
f 196 198 193
f 197 191 195
f 195 191 198
f 184 192 197
f 197 192 191
