v -0.0134429 1.29552 0.187557
v 0.0214269 1.2517 0.183083
v 0.0158444 1.30049 0.139875
v 0.0446935 1.20227 0.17
v 0.0480886 1.25287 0.131445
v 0.0339534 1.29614 0.0868747
v 0.0545857 1.15099 0.149305
v 0.0678019 1.193 0.111364
v 0.0545857 1.12246 0.149305
v 0.0503505 1.07323 0.122573
v 0.0684934 1.11205 0.0862439
v 0.0678019 1.16447 0.111364
v 0.0714501 1.15372 0.0486781
v 0.0621554 1.24234 0.0676619
v 0.0395055 1.28279 0.0325893
v 0.0714501 1.18225 0.0486781
v 0.0589958 1.22359 0.0127353
v 0.0320783 1.26145 -0.0188482
v -0.0363957 1.33623 0.156379
v -0.0103955 1.33836 0.104436
v -0.06655 1.36489 0.118626
v 0.00367127 1.32784 0.0406528
v 0.00117317 1.30811 -0.0139682
v -0.0397934 1.34487 -0.00269625
v -0.0491665 1.36398 0.0573454
v -0.101611 1.37932 0.0771708
v -0.0877029 1.36891 0.0141096
v -0.138908 1.37842 0.03517
v -0.0630992 1.30953 0.209786
v -0.0902423 1.3475 0.175146
v -0.117924 1.31352 0.221374
v -0.129013 1.37312 0.128056
v -0.166646 1.37794 0.0840204
v -0.191671 1.36224 0.131803
v -0.156022 1.34611 0.182074
v -0.173745 1.30719 0.221439
v -0.212077 1.33251 0.174882
v -0.226311 1.29102 0.209976
v -0.0273629 1.25729 0.22629
v -0.0811062 1.26765 0.245857
v -0.049172 1.21301 0.253125
v -0.146886 1.26626 0.252785
v -0.203044 1.25357 0.244793
v -0.174293 1.21037 0.266303
v -0.110741 1.21342 0.269477
v -0.0772102 1.16607 0.266021
v -0.142246 1.16469 0.27287
v -0.0772102 1.13754 0.266021
v -0.142246 1.13617 0.27287
v -0.109343 1.09151 0.263995
v 0.00438704 1.20917 0.218848
v -0.0252478 1.15494 0.242468
v -0.05772 1.07834 0.246167
v -0.0252478 1.12641 0.242468
v -0.0116753 1.07059 0.214929
v 0.0446935 1.17374 0.17
v 0.0241003 1.12077 0.198767
v 0.0252861 1.06885 0.172658
v 0.0241003 1.14929 0.198767
v 0.00438704 1.18064 0.218848
v 0.0477892 1.05201 0.0706232
v 0.0316179 1.03819 0.0186257
v 0.0609276 1.09321 0.0317813
v 0.00306755 1.03285 -0.0294609
v 0.0343401 1.08182 -0.0277197
v -0.0356884 1.03638 -0.0699763
v -0.002515 1.08164 -0.0726682
v 0.0208777 1.13206 -0.0644997
v 0.0552812 1.17108 -0.0119203
v 0.0208777 1.16059 -0.0644997
v 0.032709 1.21233 -0.0460926
v 0.0552812 1.14255 -0.0119203
v -0.00302731 1.26457 -0.0625963
v -0.00745151 1.21253 -0.0881139
v -0.0478745 1.26109 -0.0962507
v -0.0283926 1.12327 -0.103913
v -0.0589554 1.07383 -0.104793
v -0.0877068 1.11704 -0.126303
v -0.0645378 1.20463 -0.120606
v -0.0990496 1.25128 -0.11725
v -0.0877068 1.14557 -0.126303
v -0.119754 1.19124 -0.13287
v -0.152657 1.2359 -0.123994
v -0.00745151 1.184 -0.0881139
v -0.0645378 1.17611 -0.120606
v -0.0283926 1.1518 -0.103913
v -0.0393482 1.30941 -0.0556219
v -0.0964344 1.30151 -0.0881139
v -0.15129 1.28702 -0.100746
v -0.148378 1.32984 -0.0644997
v -0.0921859 1.34556 -0.0389293
v -0.144143 1.3611 -0.0180148
v -0.192933 1.36669 0.0251924
v -0.19862 1.34331 -0.0277197
v -0.242243 1.34058 0.0186257
v -0.202869 1.29926 -0.0769042
v -0.20428 1.24906 -0.106167
v -0.250325 1.25681 -0.0749287
v -0.252217 1.30491 -0.0332026
v -0.283086 1.3021 0.0159699
v -0.287286 1.25856 -0.0326582
v -0.31235 1.25417 0.0174269
v -0.221381 1.36034 0.075483
v -0.274977 1.32194 0.0700001
v -0.309789 1.2754 0.069377
v -0.293618 1.28921 0.121374
v -0.24839 1.33333 0.129501
v -0.265067 1.29455 0.169461
v -0.259485 1.24576 0.212668
v -0.29634 1.24559 0.16772
v -0.282878 1.19534 0.2045
v -0.322927 1.2342 0.108219
v -0.330493 1.21535 0.0537562
v -0.33345 1.17368 0.091322
v -0.282878 1.16682 0.2045
v -0.317281 1.15632 0.15192
v -0.294709 1.11507 0.186093
v -0.33345 1.14516 0.091322
v -0.320996 1.10382 0.127265
v -0.294078 1.06595 0.158848
v -0.317281 1.18485 0.15192
v -0.233607 1.20414 0.243913
v -0.254548 1.11487 0.228114
v -0.258973 1.06283 0.202596
v -0.214125 1.06631 0.236251
v -0.174293 1.18184 0.266303
v -0.197462 1.12277 0.260606
v -0.16295 1.07612 0.25725
v -0.254548 1.1434 0.228114
v -0.197462 1.1513 0.260606
v -0.233607 1.17561 0.243913
v -0.11071 1.04038 0.240746
v -0.165565 1.02589 0.228114
v -0.113622 0.99756 0.2045
v -0.222652 1.01799 0.195622
v -0.263173 1.01929 0.153968
v -0.222206 0.982538 0.142696
v -0.169814 0.981847 0.178929
v -0.117856 0.9663 0.158015
v -0.174297 0.958492 0.125891
v -0.123092 0.94898 0.10483
v -0.0591311 1.02814 0.216904
v -0.0633796 0.984098 0.16772
v -0.0690667 0.960717 0.114808
v -0.0197564 0.98682 0.121374
v -0.00978305 1.02249 0.173203
v 0.0210857 1.0253 0.12403
v 0.0129775 1.00546 0.07
v -0.040619 0.967064 0.0645171
v -0.0953534 0.949459 0.0559797
v -0.0703288 0.96516 0.00819663
v -0.01361 0.994073 0.010499
v -0.0499227 0.99489 -0.0348818
v -0.248557 1.03188 -0.047557
v -0.234637 1.07012 -0.0862898
v -0.198901 1.01788 -0.0697861
v -0.212828 1.11439 -0.113125
v -0.180894 1.05975 -0.105857
v -0.144076 1.01389 -0.0813743
v -0.18479 1.16133 -0.126021
v -0.151259 1.11398 -0.129477
v -0.18479 1.18986 -0.126021
v -0.119754 1.16271 -0.13287
v -0.115114 1.06114 -0.112785
v -0.088255 1.02022 -0.0814393
v -0.283427 1.0757 -0.0430826
v -0.306693 1.12513 -0.03
v -0.266387 1.11823 -0.0788478
v -0.306693 1.15366 -0.03
v -0.316586 1.20494 -0.00930498
v -0.2861 1.20664 -0.0587666
v -0.236752 1.17246 -0.102468
v -0.236752 1.20099 -0.102468
v -0.2861 1.17811 -0.0587666
v -0.266387 1.14676 -0.0788478
v -0.277844 1.02691 0.000124648
v -0.295953 1.03127 0.0531254
v -0.310088 1.07453 0.00855542
v -0.301505 1.04462 0.107411
v -0.324155 1.08506 0.0723382
v -0.329802 1.13441 0.0286366
v -0.316586 1.17641 -0.00930498
v -0.329802 1.16294 0.0286366
v -0.225604 0.991174 -0.0163791
v -0.19545 0.962514 0.0213743
v -0.251604 0.989039 0.0355645
v -0.160389 0.948083 0.0628293
v -0.212833 0.963422 0.0826547
v -0.265671 0.999567 0.0993472
v -0.171757 0.979903 -0.0351462
v -0.105977 0.981295 -0.0420741
v -0.132987 0.954286 0.011944
f 1 2 3
f 2 4 5
f 3 5 6
f 2 5 3
f 4 7 8
f 9 10 11
f 12 11 13
f 9 11 12
f 6 14 15
f 14 16 17
f 15 17 18
f 14 17 15
f 4 8 5
f 8 16 14
f 5 14 6
f 8 14 5
f 1 3 19
f 3 6 20
f 19 20 21
f 3 20 19
f 6 15 22
f 15 18 23
f 22 23 24
f 15 23 22
f 21 25 26
f 25 24 27
f 26 27 28
f 25 27 26
f 6 22 20
f 22 24 25
f 20 25 21
f 22 25 20
f 1 19 29
f 19 21 30
f 29 30 31
f 19 30 29
f 21 26 32
f 26 28 33
f 32 33 34
f 26 33 32
f 31 35 36
f 35 34 37
f 36 37 38
f 35 37 36
f 21 32 30
f 32 34 35
f 30 35 31
f 32 35 30
f 1 29 39
f 29 31 40
f 39 40 41
f 29 40 39
f 31 36 42
f 36 38 43
f 42 43 44
f 36 43 42
f 41 45 46
f 45 44 47
f 48 49 50
f 45 47 46
f 31 42 40
f 42 44 45
f 40 45 41
f 42 45 40
f 1 39 2
f 39 41 51
f 2 51 4
f 39 51 2
f 41 46 52
f 48 50 53
f 54 53 55
f 48 53 54
f 56 57 9
f 57 55 58
f 9 58 10
f 57 58 9
f 41 52 51
f 54 55 57
f 51 59 4
f 54 57 60
f 10 61 11
f 61 62 63
f 11 63 13
f 61 63 11
f 62 64 65
f 64 66 67
f 65 67 68
f 64 67 65
f 16 69 17
f 69 70 71
f 17 71 18
f 69 71 17
f 62 65 63
f 65 68 72
f 63 72 13
f 65 72 63
f 18 71 73
f 71 70 74
f 73 74 75
f 71 74 73
f 68 67 76
f 67 66 77
f 76 77 78
f 67 77 76
f 75 79 80
f 79 81 82
f 80 82 83
f 79 82 80
f 68 76 84
f 76 78 85
f 74 79 75
f 86 79 74
f 18 73 23
f 73 75 87
f 23 87 24
f 73 87 23
f 75 80 88
f 80 83 89
f 88 89 90
f 80 89 88
f 24 91 27
f 91 90 92
f 27 92 28
f 91 92 27
f 75 88 87
f 88 90 91
f 87 91 24
f 88 91 87
f 28 92 93
f 92 90 94
f 93 94 95
f 92 94 93
f 90 89 96
f 89 83 97
f 96 97 98
f 89 97 96
f 95 99 100
f 99 98 101
f 100 101 102
f 99 101 100
f 90 96 94
f 96 98 99
f 94 99 95
f 96 99 94
f 28 93 33
f 93 95 103
f 33 103 34
f 93 103 33
f 95 100 104
f 100 102 105
f 104 105 106
f 100 105 104
f 34 107 37
f 107 106 108
f 37 108 38
f 107 108 37
f 95 104 103
f 104 106 107
f 103 107 34
f 104 107 103
f 38 108 109
f 108 106 110
f 109 110 111
f 108 110 109
f 106 105 112
f 105 102 113
f 112 113 114
f 105 113 112
f 115 116 117
f 116 118 119
f 117 119 120
f 116 119 117
f 106 112 110
f 112 114 121
f 110 121 111
f 112 121 110
f 38 109 43
f 109 111 122
f 43 122 44
f 109 122 43
f 115 117 123
f 117 120 124
f 123 124 125
f 117 124 123
f 126 127 49
f 127 125 128
f 49 128 50
f 127 128 49
f 111 129 122
f 123 125 127
f 122 130 44
f 123 127 131
f 50 128 132
f 128 125 133
f 132 133 134
f 128 133 132
f 125 124 135
f 124 120 136
f 135 136 137
f 124 136 135
f 134 138 139
f 138 137 140
f 139 140 141
f 138 140 139
f 125 135 133
f 135 137 138
f 133 138 134
f 135 138 133
f 50 132 53
f 132 134 142
f 53 142 55
f 132 142 53
f 134 139 143
f 139 141 144
f 143 144 145
f 139 144 143
f 55 146 58
f 146 145 147
f 58 147 10
f 146 147 58
f 134 143 142
f 143 145 146
f 142 146 55
f 143 146 142
f 10 147 61
f 147 145 148
f 61 148 62
f 147 148 61
f 145 144 149
f 144 141 150
f 149 150 151
f 144 150 149
f 62 152 64
f 152 151 153
f 64 153 66
f 152 153 64
f 145 149 148
f 149 151 152
f 148 152 62
f 149 152 148
f 154 155 156
f 155 157 158
f 156 158 159
f 155 158 156
f 157 160 161
f 162 83 82
f 161 163 78
f 160 163 161
f 159 164 165
f 164 78 77
f 165 77 66
f 164 77 165
f 157 161 158
f 161 78 164
f 158 164 159
f 161 164 158
f 154 166 155
f 166 167 168
f 155 168 157
f 166 168 155
f 169 170 171
f 170 102 101
f 171 101 98
f 170 101 171
f 157 172 160
f 173 98 97
f 162 97 83
f 173 97 162
f 167 174 168
f 171 98 173
f 168 172 157
f 171 173 175
f 154 176 166
f 176 177 178
f 166 178 167
f 176 178 166
f 177 179 180
f 179 120 119
f 180 119 118
f 179 119 180
f 167 181 182
f 183 114 113
f 170 113 102
f 183 113 170
f 177 180 178
f 180 118 181
f 178 181 167
f 180 181 178
f 154 184 176
f 184 185 186
f 176 186 177
f 184 186 176
f 185 187 188
f 187 141 140
f 188 140 137
f 187 140 188
f 177 189 179
f 189 137 136
f 179 136 120
f 189 136 179
f 185 188 186
f 188 137 189
f 186 189 177
f 188 189 186
f 154 156 184
f 156 159 190
f 184 190 185
f 156 190 184
f 159 165 191
f 165 66 153
f 191 153 151
f 165 153 191
f 185 192 187
f 192 151 150
f 187 150 141
f 192 150 187
f 159 191 190
f 191 151 192
f 190 192 185
f 191 192 190
f 13 16 12
f 12 16 8
f 12 8 9
f 9 8 7
f 48 46 49
f 49 46 47
f 54 52 48
f 48 52 46
f 56 4 57
f 57 4 59
f 9 7 56
f 56 7 4
f 57 59 60
f 60 59 51
f 60 51 54
f 54 51 52
f 68 70 72
f 72 70 69
f 72 69 13
f 13 69 16
f 76 86 84
f 84 86 74
f 84 74 68
f 68 74 70
f 78 81 85
f 85 81 79
f 85 79 76
f 76 79 86
f 115 111 116
f 116 111 121
f 116 121 118
f 118 121 114
f 123 129 115
f 115 129 111
f 126 44 127
f 127 44 130
f 49 47 126
f 126 47 44
f 127 130 131
f 131 130 122
f 131 122 123
f 123 122 129
f 163 82 78
f 78 82 81
f 160 162 163
f 163 162 82
f 172 173 160
f 160 173 162
f 167 169 174
f 174 169 171
f 174 171 168
f 168 171 175
f 168 175 172
f 172 175 173
f 181 183 182
f 182 183 170
f 182 170 167
f 167 170 169
f 118 114 181
f 181 114 183
