v -0.0134429 1.29552 0.187557
v 0.0214269 1.2517 0.183083
v 0.0158444 1.30049 0.139875
v 0.0446935 1.20227 0.17
v 0.0480886 1.25287 0.131445
v 0.0339534 1.29614 0.0868747
v 0.0545857 1.15099 0.149305
v 0.0678019 1.193 0.111364
v 0.0503505 1.10176 0.122573
v 0.0684934 1.14058 0.0862439
v 0.0714501 1.18225 0.0486781
v 0.0621554 1.24234 0.0676619
v 0.0395055 1.28279 0.0325893
v 0.0589958 1.22359 0.0127353
v -0.0804945 1.28279 -0.807411
v -0.0610043 1.22359 -0.827265
v -0.0879217 1.26145 -0.858848
v -0.0578446 1.24234 -0.772338
v -0.0363957 1.33623 0.156379
v -0.0103955 1.33836 0.104436
v -0.06655 1.36489 0.118626
v 0.00367127 1.32784 0.0406528
v -0.118827 1.30811 -0.853968
v -0.116329 1.32784 -0.799347
v -0.159793 1.34487 -0.842696
v -0.0491665 1.36398 0.0573454
v -0.101611 1.37932 0.0771708
v -0.169166 1.36398 -0.782655
v -0.207703 1.36891 -0.82589
v -0.221611 1.37932 -0.762829
v -0.258908 1.37842 -0.80483
v -0.0630992 1.30953 0.209786
v -0.0902423 1.3475 0.175146
v -0.117924 1.31352 0.221374
v -0.129013 1.37312 0.128056
v -0.286646 1.37794 -0.75598
v -0.166646 1.37794 0.0840204
v -0.191671 1.36224 0.131803
v -0.156022 1.34611 0.182074
v -0.173745 1.30719 0.221439
v -0.212077 1.33251 0.174882
v -0.226311 1.29102 0.209976
v -0.0273629 1.25729 0.22629
v -0.0811062 1.26765 0.245857
v -0.049172 1.21301 0.253125
v -0.146886 1.26626 0.252785
v -0.203044 1.25357 0.244793
v -0.174293 1.21037 0.266303
v -0.110741 1.21342 0.269477
v -0.0772102 1.16607 0.266021
v -0.142246 1.16469 0.27287
v -0.109343 1.12003 0.263995
v 0.00438704 1.20917 0.218848
v -0.0252478 1.15494 0.242468
v -0.05772 1.10687 0.246167
v -0.0116753 1.09912 0.214929
v 0.0241003 1.14929 0.198767
v 0.0252861 1.09737 0.172658
v 0.0477892 1.08053 0.0706232
v -0.0722108 1.08053 -0.769377
v -0.0883821 1.06672 -0.821374
v -0.0590724 1.12173 -0.808219
v 0.0609276 1.12173 0.0317813
v -0.116932 1.06138 -0.869461
v -0.0856599 1.11035 -0.86772
v -0.155688 1.06491 -0.909976
v -0.122515 1.11017 -0.912668
v -0.0991223 1.16059 -0.9045
v -0.0485499 1.18225 -0.791322
v -0.0647188 1.17108 -0.85192
v -0.087291 1.21233 -0.886093
v -0.123027 1.26457 -0.902596
v -0.127452 1.21253 -0.928114
v -0.167875 1.26109 -0.936251
v -0.148393 1.1518 -0.943913
v -0.178955 1.10236 -0.944793
v -0.207707 1.14557 -0.966303
v -0.184538 1.20463 -0.960606
v -0.21905 1.25128 -0.95725
v -0.239754 1.19124 -0.97287
v -0.272657 1.2359 -0.963995
v -0.159348 1.30941 -0.895622
v -0.216434 1.30151 -0.928114
v -0.27129 1.28702 -0.940746
v -0.268378 1.32984 -0.9045
v -0.212186 1.34556 -0.878929
v -0.264143 1.3611 -0.858015
v -0.312933 1.36669 -0.814808
v -0.31862 1.34331 -0.86772
v -0.362243 1.34058 -0.821374
v -0.322869 1.29926 -0.916904
v -0.32428 1.24906 -0.946167
v -0.370325 1.25681 -0.914929
v -0.372217 1.30491 -0.873203
v -0.403086 1.3021 -0.82403
v -0.407286 1.25856 -0.872658
v -0.43235 1.25417 -0.822573
v -0.341381 1.36034 -0.764517
v -0.221381 1.36034 0.075483
v -0.394977 1.32194 -0.77
v -0.429789 1.2754 -0.770623
v -0.413618 1.28921 -0.718626
v -0.24839 1.33333 0.129501
v -0.293618 1.28921 0.121374
v -0.265067 1.29455 0.169461
v -0.274977 1.32194 0.0700001
v -0.259485 1.24576 0.212668
v -0.29634 1.24559 0.16772
v -0.282878 1.19534 0.2045
v -0.309789 1.2754 0.069377
v -0.322927 1.2342 0.108219
v -0.450493 1.21535 -0.786244
v -0.442927 1.2342 -0.731781
v -0.45345 1.17368 -0.748678
v -0.317281 1.18485 0.15192
v -0.294709 1.1436 0.186093
v -0.33345 1.17368 0.091322
v -0.320996 1.13234 0.127265
v -0.294078 1.09448 0.158848
v -0.233607 1.20414 0.243913
v -0.254548 1.1434 0.228114
v -0.258973 1.09136 0.202596
v -0.214125 1.09484 0.236251
v -0.197462 1.1513 0.260606
v -0.16295 1.10465 0.25725
v -0.11071 1.06891 0.240746
v -0.165565 1.05442 0.228114
v -0.113622 1.02609 0.2045
v -0.222652 1.04652 0.195622
v -0.263173 1.04782 0.153968
v -0.222206 1.01107 0.142696
v -0.169814 1.01037 0.178929
v -0.117856 0.994827 0.158015
v -0.174297 0.987019 0.125891
v -0.123092 0.977508 0.10483
v -0.0591311 1.05667 0.216904
v -0.0633796 1.01263 0.16772
v -0.0690667 0.989245 0.114808
v -0.0197564 1.01535 0.121374
v -0.00978305 1.05102 0.173203
v 0.0210857 1.05383 0.12403
v 0.0129775 1.03399 0.07
v 0.0316179 1.06672 0.0186257
v -0.040619 0.995592 0.0645171
v -0.0953534 0.977986 0.0559797
v -0.160619 0.995592 -0.775483
v -0.215353 0.977986 -0.78402
v -0.190329 0.993688 -0.831803
v -0.13361 1.0226 -0.829501
v -0.169923 1.02342 -0.874882
v -0.107022 1.03399 -0.77
v -0.368557 1.06041 -0.887557
v -0.354637 1.09864 -0.92629
v -0.318901 1.0464 -0.909786
v -0.332828 1.14292 -0.953125
v -0.300894 1.08828 -0.945857
v -0.264076 1.04242 -0.921374
v -0.30479 1.18986 -0.966021
v -0.271259 1.14251 -0.969477
v -0.235114 1.08967 -0.952785
v -0.208255 1.04874 -0.921439
v -0.403427 1.10423 -0.883083
v -0.426693 1.15366 -0.87
v -0.386387 1.14676 -0.918848
v -0.436586 1.20494 -0.849305
v -0.4061 1.20664 -0.898767
v -0.356752 1.20099 -0.942468
v -0.397844 1.05544 -0.839875
v -0.415953 1.05979 -0.786875
v -0.430088 1.10306 -0.831445
v -0.421505 1.07315 -0.732589
v -0.444155 1.11359 -0.767662
v -0.301505 1.07315 0.107411
v -0.440996 1.13234 -0.712735
v -0.324155 1.11359 0.0723382
v -0.449802 1.16294 -0.811363
v -0.345604 1.0197 -0.856379
v -0.31545 0.991041 -0.818626
v -0.371604 1.01757 -0.804436
v -0.280389 0.976611 -0.777171
v -0.332833 0.991949 -0.757345
v -0.160389 0.976611 0.0628293
v -0.212833 0.991949 0.0826547
v -0.385671 1.02809 -0.740653
v -0.265671 1.02809 0.0993472
v -0.291757 1.00843 -0.875146
v -0.225977 1.00982 -0.882074
v -0.252987 0.982813 -0.828056
f 1 2 3
f 2 4 5
f 3 5 6
f 2 5 3
f 4 7 8
f 7 9 10
f 8 10 11
f 7 10 8
f 6 12 13
f 12 11 14
f 15 16 17
f 18 16 15
f 4 8 5
f 8 11 12
f 5 12 6
f 8 12 5
f 1 3 19
f 3 6 20
f 19 20 21
f 3 20 19
f 6 13 22
f 15 17 23
f 24 23 25
f 15 23 24
f 21 26 27
f 28 25 29
f 30 29 31
f 28 29 30
f 6 22 20
f 24 25 28
f 20 26 21
f 22 26 20
f 1 19 32
f 19 21 33
f 32 33 34
f 19 33 32
f 21 27 35
f 30 31 36
f 35 37 38
f 27 37 35
f 34 39 40
f 39 38 41
f 40 41 42
f 39 41 40
f 21 35 33
f 35 38 39
f 33 39 34
f 35 39 33
f 1 32 43
f 32 34 44
f 43 44 45
f 32 44 43
f 34 40 46
f 40 42 47
f 46 47 48
f 40 47 46
f 45 49 50
f 49 48 51
f 50 51 52
f 49 51 50
f 34 46 44
f 46 48 49
f 44 49 45
f 46 49 44
f 1 43 2
f 43 45 53
f 2 53 4
f 43 53 2
f 45 50 54
f 50 52 55
f 54 55 56
f 50 55 54
f 4 57 7
f 57 56 58
f 7 58 9
f 57 58 7
f 45 54 53
f 54 56 57
f 53 57 4
f 54 57 53
f 9 59 10
f 60 61 62
f 10 63 11
f 59 63 10
f 61 64 65
f 64 66 67
f 65 67 68
f 64 67 65
f 69 70 16
f 70 68 71
f 16 71 17
f 70 71 16
f 61 65 62
f 65 68 70
f 62 70 69
f 65 70 62
f 17 71 72
f 71 68 73
f 72 73 74
f 71 73 72
f 68 67 75
f 67 66 76
f 75 76 77
f 67 76 75
f 74 78 79
f 78 77 80
f 79 80 81
f 78 80 79
f 68 75 73
f 75 77 78
f 73 78 74
f 75 78 73
f 17 72 23
f 72 74 82
f 23 82 25
f 72 82 23
f 74 79 83
f 79 81 84
f 83 84 85
f 79 84 83
f 25 86 29
f 86 85 87
f 29 87 31
f 86 87 29
f 74 83 82
f 83 85 86
f 82 86 25
f 83 86 82
f 31 87 88
f 87 85 89
f 88 89 90
f 87 89 88
f 85 84 91
f 84 81 92
f 91 92 93
f 84 92 91
f 90 94 95
f 94 93 96
f 95 96 97
f 94 96 95
f 85 91 89
f 91 93 94
f 89 94 90
f 91 94 89
f 31 88 36
f 88 90 98
f 37 99 38
f 88 98 36
f 90 95 100
f 95 97 101
f 100 101 102
f 95 101 100
f 38 103 41
f 103 104 105
f 41 105 42
f 103 105 41
f 90 100 98
f 106 104 103
f 99 103 38
f 106 103 99
f 42 105 107
f 105 104 108
f 107 108 109
f 105 108 107
f 104 110 111
f 101 97 112
f 113 112 114
f 101 112 113
f 109 115 116
f 115 117 118
f 116 118 119
f 115 118 116
f 104 111 108
f 111 117 115
f 108 115 109
f 111 115 108
f 42 107 47
f 107 109 120
f 47 120 48
f 107 120 47
f 109 116 121
f 116 119 122
f 121 122 123
f 116 122 121
f 48 124 51
f 124 123 125
f 51 125 52
f 124 125 51
f 109 121 120
f 121 123 124
f 120 124 48
f 121 124 120
f 52 125 126
f 125 123 127
f 126 127 128
f 125 127 126
f 123 122 129
f 122 119 130
f 129 130 131
f 122 130 129
f 128 132 133
f 132 131 134
f 133 134 135
f 132 134 133
f 123 129 127
f 129 131 132
f 127 132 128
f 129 132 127
f 52 126 55
f 126 128 136
f 55 136 56
f 126 136 55
f 128 133 137
f 133 135 138
f 137 138 139
f 133 138 137
f 56 140 58
f 140 139 141
f 58 141 9
f 140 141 58
f 128 137 136
f 137 139 140
f 136 140 56
f 137 140 136
f 9 141 59
f 141 139 142
f 59 142 143
f 141 142 59
f 139 138 144
f 138 135 145
f 146 147 148
f 138 145 144
f 61 149 64
f 149 148 150
f 64 150 66
f 149 150 64
f 139 144 142
f 146 148 149
f 151 149 61
f 146 149 151
f 152 153 154
f 153 155 156
f 154 156 157
f 153 156 154
f 155 158 159
f 158 81 80
f 159 80 77
f 158 80 159
f 157 160 161
f 160 77 76
f 161 76 66
f 160 76 161
f 155 159 156
f 159 77 160
f 156 160 157
f 159 160 156
f 152 162 153
f 162 163 164
f 153 164 155
f 162 164 153
f 163 165 166
f 165 97 96
f 166 96 93
f 165 96 166
f 155 167 158
f 167 93 92
f 158 92 81
f 167 92 158
f 163 166 164
f 166 93 167
f 164 167 155
f 166 167 164
f 152 168 162
f 168 169 170
f 162 170 163
f 168 170 162
f 169 171 172
f 173 119 118
f 172 174 114
f 173 118 175
f 163 176 165
f 176 114 112
f 165 112 97
f 176 112 165
f 169 172 170
f 172 114 176
f 170 176 163
f 172 176 170
f 152 177 168
f 177 178 179
f 168 179 169
f 177 179 168
f 178 180 181
f 182 135 134
f 183 134 131
f 182 134 183
f 169 184 171
f 185 131 130
f 173 130 119
f 185 130 173
f 178 181 179
f 183 131 185
f 179 184 169
f 181 184 179
f 152 154 177
f 154 157 186
f 177 186 178
f 154 186 177
f 157 161 187
f 161 66 150
f 187 150 148
f 161 150 187
f 178 188 180
f 188 148 147
f 182 145 135
f 188 147 180
f 157 187 186
f 187 148 188
f 186 188 178
f 187 188 186
f 12 18 13
f 13 18 15
f 11 69 14
f 14 69 16
f 14 16 12
f 12 16 18
f 13 15 22
f 22 15 24
f 26 28 27
f 27 28 30
f 22 24 26
f 26 24 28
f 27 30 37
f 37 30 36
f 63 62 11
f 11 62 69
f 59 60 63
f 63 60 62
f 37 36 99
f 99 36 98
f 106 100 104
f 104 100 102
f 99 98 106
f 106 98 100
f 104 102 110
f 110 102 101
f 110 101 111
f 111 101 113
f 117 114 118
f 118 114 174
f 111 113 117
f 117 113 114
f 142 151 143
f 143 151 61
f 143 61 59
f 59 61 60
f 145 147 144
f 144 147 146
f 144 146 142
f 142 146 151
f 118 174 175
f 175 174 172
f 175 172 173
f 173 172 171
f 183 181 182
f 182 181 180
f 173 171 185
f 185 171 184
f 185 184 183
f 183 184 181
f 182 180 145
f 145 180 147
