v -0.133443 1.29552 -0.652443
v -0.0985731 1.2517 -0.656917
v -0.104156 1.30049 -0.700125
v -0.0753065 1.20227 -0.67
v -0.0719114 1.25287 -0.708555
v -0.0860467 1.29614 -0.753125
v -0.0654143 1.15099 -0.690695
v -0.0521981 1.193 -0.728637
v -0.0654143 0.913627 -0.690695
v -0.0696495 0.864398 -0.717427
v -0.0515067 0.903218 -0.753756
v -0.0521981 0.955632 -0.728637
v -0.0485499 0.944884 -0.791322
v -0.0578446 1.24234 -0.772338
v -0.0804945 1.28279 -0.807411
v -0.0485499 1.18225 -0.791322
v -0.0610043 1.22359 -0.827265
v -0.0879217 1.26145 -0.858848
v -0.156396 1.33623 -0.683621
v -0.130396 1.33836 -0.735564
v -0.18655 1.36489 -0.721374
v -0.116329 1.32784 -0.799347
v -0.118827 1.30811 -0.853968
v -0.159793 1.34487 -0.842696
v -0.169166 1.36398 -0.782655
v -0.221611 1.37932 -0.762829
v -0.207703 1.36891 -0.82589
v -0.258908 1.37842 -0.80483
v -0.183099 1.30953 -0.630214
v -0.210242 1.3475 -0.664854
v -0.237924 1.31352 -0.618626
v -0.249013 1.37312 -0.711944
v -0.286646 1.37794 -0.75598
v -0.311671 1.36224 -0.708197
v -0.276022 1.34611 -0.657926
v -0.293745 1.30719 -0.618561
v -0.332077 1.33251 -0.665118
v -0.346311 1.29102 -0.630024
v -0.147363 1.25729 -0.61371
v -0.201106 1.26765 -0.594143
v -0.169172 1.21301 -0.586875
v -0.266886 1.26626 -0.587215
v -0.323044 1.25357 -0.595207
v -0.294293 1.21037 -0.573697
v -0.230741 1.21342 -0.570523
v -0.19721 1.16607 -0.573979
v -0.262246 1.16469 -0.56713
v -0.19721 0.928707 -0.573979
v -0.262246 0.927331 -0.56713
v -0.229343 0.88267 -0.576005
v -0.115613 1.20917 -0.621152
v -0.145248 1.15494 -0.597532
v -0.17772 0.869509 -0.593833
v -0.145248 0.917577 -0.597532
v -0.131675 0.861759 -0.625071
v -0.0753065 0.964909 -0.67
v -0.0958997 0.911931 -0.641233
v -0.0947139 0.860011 -0.667342
v -0.0958997 1.14929 -0.641233
v -0.115613 0.971806 -0.621152
v -0.0722108 0.84317 -0.769377
v -0.0883821 0.829359 -0.821374
v -0.0590724 0.884369 -0.808219
v -0.116932 0.824016 -0.869461
v -0.0856599 0.872982 -0.86772
v -0.155688 0.827548 -0.909976
v -0.122515 0.872805 -0.912668
v -0.0991223 0.923224 -0.9045
v -0.0647188 1.17108 -0.85192
v -0.0991223 1.16059 -0.9045
v -0.087291 1.21233 -0.886093
v -0.0647188 0.933717 -0.85192
v -0.123027 1.26457 -0.902596
v -0.127452 1.21253 -0.928114
v -0.167875 1.26109 -0.936251
v -0.148393 0.914432 -0.943913
v -0.178955 0.864997 -0.944793
v -0.207707 0.908202 -0.966303
v -0.184538 1.20463 -0.960606
v -0.21905 1.25128 -0.95725
v -0.207707 1.14557 -0.966303
v -0.239754 1.19124 -0.97287
v -0.272657 1.2359 -0.963995
v -0.127452 0.975168 -0.928114
v -0.184538 0.96727 -0.960606
v -0.148393 1.1518 -0.943913
v -0.159348 1.30941 -0.895622
v -0.216434 1.30151 -0.928114
v -0.27129 1.28702 -0.940746
v -0.268378 1.32984 -0.9045
v -0.212186 1.34556 -0.878929
v -0.264143 1.3611 -0.858015
v -0.312933 1.36669 -0.814808
v -0.31862 1.34331 -0.86772
v -0.362243 1.34058 -0.821374
v -0.322869 1.29926 -0.916904
v -0.32428 1.24906 -0.946167
v -0.370325 1.25681 -0.914929
v -0.372217 1.30491 -0.873203
v -0.403086 1.3021 -0.82403
v -0.407286 1.25856 -0.872658
v -0.43235 1.25417 -0.822573
v -0.341381 1.36034 -0.764517
v -0.394977 1.32194 -0.77
v -0.429789 1.2754 -0.770623
v -0.413618 1.28921 -0.718626
v -0.36839 1.33333 -0.710499
v -0.385067 1.29455 -0.670539
v -0.379485 1.24576 -0.627332
v -0.41634 1.24559 -0.67228
v -0.402878 1.19534 -0.6355
v -0.442927 1.2342 -0.731781
v -0.450493 1.21535 -0.786244
v -0.45345 1.17368 -0.748678
v -0.402878 0.95798 -0.6355
v -0.437281 0.947487 -0.68808
v -0.414709 0.906238 -0.653907
v -0.45345 0.93632 -0.748678
v -0.440996 0.89498 -0.712735
v -0.414078 0.857113 -0.681152
v -0.437281 1.18485 -0.68808
v -0.353607 1.20414 -0.596087
v -0.374548 0.906037 -0.611886
v -0.378973 0.853998 -0.637404
v -0.334125 0.857477 -0.603749
v -0.294293 0.973002 -0.573697
v -0.317462 0.913934 -0.579394
v -0.28295 0.867283 -0.58275
v -0.374548 1.1434 -0.611886
v -0.317462 1.1513 -0.579394
v -0.353607 0.966772 -0.596087
v -0.23071 0.831546 -0.599254
v -0.285565 0.817054 -0.611886
v -0.233622 0.788724 -0.6355
v -0.342652 0.809156 -0.644378
v -0.383173 0.810454 -0.686032
v -0.342206 0.773702 -0.697304
v -0.289814 0.773011 -0.661071
v -0.237856 0.757464 -0.681985
v -0.294297 0.749655 -0.71411
v -0.243092 0.740144 -0.73517
v -0.179131 0.819305 -0.623096
v -0.18338 0.775262 -0.67228
v -0.189067 0.751881 -0.725192
v -0.139756 0.777984 -0.718626
v -0.129783 0.813659 -0.666797
v -0.0989143 0.816466 -0.71597
v -0.107022 0.796625 -0.77
v -0.160619 0.758228 -0.775483
v -0.215353 0.740623 -0.78402
v -0.190329 0.756324 -0.831803
v -0.13361 0.785237 -0.829501
v -0.169923 0.786054 -0.874882
v -0.368557 0.823045 -0.887557
v -0.354637 0.861281 -0.92629
v -0.318901 0.809041 -0.909786
v -0.332828 0.905555 -0.953125
v -0.300894 0.850914 -0.945857
v -0.264076 0.805052 -0.921374
v -0.30479 0.952497 -0.966021
v -0.271259 0.905143 -0.969477
v -0.30479 1.18986 -0.966021
v -0.239754 0.953873 -0.97287
v -0.235114 0.852305 -0.952785
v -0.208255 0.811381 -0.921439
v -0.403427 0.866864 -0.883083
v -0.426693 0.916296 -0.87
v -0.386387 0.909398 -0.918848
v -0.426693 1.15366 -0.87
v -0.436586 1.20494 -0.849305
v -0.4061 1.20664 -0.898767
v -0.356752 0.963627 -0.942468
v -0.356752 1.20099 -0.942468
v -0.4061 0.969274 -0.898767
v -0.386387 1.14676 -0.918848
v -0.397844 0.818074 -0.839875
v -0.415953 0.82243 -0.786875
v -0.430088 0.865697 -0.831445
v -0.421505 0.835782 -0.732589
v -0.444155 0.876224 -0.767662
v -0.449802 0.925572 -0.811363
v -0.436586 0.967578 -0.849305
v -0.449802 1.16294 -0.811363
v -0.345604 0.782338 -0.856379
v -0.31545 0.753678 -0.818626
v -0.371604 0.780203 -0.804436
v -0.280389 0.739247 -0.777171
v -0.332833 0.754586 -0.757345
v -0.385671 0.790731 -0.740653
v -0.291757 0.771067 -0.875146
v -0.225977 0.772459 -0.882074
v -0.252987 0.74545 -0.828056
f 1 2 3
f 2 4 5
f 3 5 6
f 2 5 3
f 4 7 8
f 9 10 11
f 12 11 13
f 9 11 12
f 6 14 15
f 14 16 17
f 15 17 18
f 14 17 15
f 4 8 5
f 8 16 14
f 5 14 6
f 8 14 5
f 1 3 19
f 3 6 20
f 19 20 21
f 3 20 19
f 6 15 22
f 15 18 23
f 22 23 24
f 15 23 22
f 21 25 26
f 25 24 27
f 26 27 28
f 25 27 26
f 6 22 20
f 22 24 25
f 20 25 21
f 22 25 20
f 1 19 29
f 19 21 30
f 29 30 31
f 19 30 29
f 21 26 32
f 26 28 33
f 32 33 34
f 26 33 32
f 31 35 36
f 35 34 37
f 36 37 38
f 35 37 36
f 21 32 30
f 32 34 35
f 30 35 31
f 32 35 30
f 1 29 39
f 29 31 40
f 39 40 41
f 29 40 39
f 31 36 42
f 36 38 43
f 42 43 44
f 36 43 42
f 41 45 46
f 45 44 47
f 48 49 50
f 45 47 46
f 31 42 40
f 42 44 45
f 40 45 41
f 42 45 40
f 1 39 2
f 39 41 51
f 2 51 4
f 39 51 2
f 41 46 52
f 48 50 53
f 54 53 55
f 48 53 54
f 56 57 9
f 57 55 58
f 9 58 10
f 57 58 9
f 41 52 51
f 54 55 57
f 51 59 4
f 54 57 60
f 10 61 11
f 61 62 63
f 11 63 13
f 61 63 11
f 62 64 65
f 64 66 67
f 65 67 68
f 64 67 65
f 16 69 17
f 69 70 71
f 17 71 18
f 69 71 17
f 62 65 63
f 65 68 72
f 63 72 13
f 65 72 63
f 18 71 73
f 71 70 74
f 73 74 75
f 71 74 73
f 68 67 76
f 67 66 77
f 76 77 78
f 67 77 76
f 75 79 80
f 79 81 82
f 80 82 83
f 79 82 80
f 68 76 84
f 76 78 85
f 74 79 75
f 86 79 74
f 18 73 23
f 73 75 87
f 23 87 24
f 73 87 23
f 75 80 88
f 80 83 89
f 88 89 90
f 80 89 88
f 24 91 27
f 91 90 92
f 27 92 28
f 91 92 27
f 75 88 87
f 88 90 91
f 87 91 24
f 88 91 87
f 28 92 93
f 92 90 94
f 93 94 95
f 92 94 93
f 90 89 96
f 89 83 97
f 96 97 98
f 89 97 96
f 95 99 100
f 99 98 101
f 100 101 102
f 99 101 100
f 90 96 94
f 96 98 99
f 94 99 95
f 96 99 94
f 28 93 33
f 93 95 103
f 33 103 34
f 93 103 33
f 95 100 104
f 100 102 105
f 104 105 106
f 100 105 104
f 34 107 37
f 107 106 108
f 37 108 38
f 107 108 37
f 95 104 103
f 104 106 107
f 103 107 34
f 104 107 103
f 38 108 109
f 108 106 110
f 109 110 111
f 108 110 109
f 106 105 112
f 105 102 113
f 112 113 114
f 105 113 112
f 115 116 117
f 116 118 119
f 117 119 120
f 116 119 117
f 106 112 110
f 112 114 121
f 110 121 111
f 112 121 110
f 38 109 43
f 109 111 122
f 43 122 44
f 109 122 43
f 115 117 123
f 117 120 124
f 123 124 125
f 117 124 123
f 126 127 49
f 127 125 128
f 49 128 50
f 127 128 49
f 111 129 122
f 123 125 127
f 122 130 44
f 123 127 131
f 50 128 132
f 128 125 133
f 132 133 134
f 128 133 132
f 125 124 135
f 124 120 136
f 135 136 137
f 124 136 135
f 134 138 139
f 138 137 140
f 139 140 141
f 138 140 139
f 125 135 133
f 135 137 138
f 133 138 134
f 135 138 133
f 50 132 53
f 132 134 142
f 53 142 55
f 132 142 53
f 134 139 143
f 139 141 144
f 143 144 145
f 139 144 143
f 55 146 58
f 146 145 147
f 58 147 10
f 146 147 58
f 134 143 142
f 143 145 146
f 142 146 55
f 143 146 142
f 10 147 61
f 147 145 148
f 61 148 62
f 147 148 61
f 145 144 149
f 144 141 150
f 149 150 151
f 144 150 149
f 62 152 64
f 152 151 153
f 64 153 66
f 152 153 64
f 145 149 148
f 149 151 152
f 148 152 62
f 149 152 148
f 154 155 156
f 155 157 158
f 156 158 159
f 155 158 156
f 157 160 161
f 162 83 82
f 161 163 78
f 160 163 161
f 159 164 165
f 164 78 77
f 165 77 66
f 164 77 165
f 157 161 158
f 161 78 164
f 158 164 159
f 161 164 158
f 154 166 155
f 166 167 168
f 155 168 157
f 166 168 155
f 169 170 171
f 170 102 101
f 171 101 98
f 170 101 171
f 157 172 160
f 173 98 97
f 162 97 83
f 173 97 162
f 167 174 168
f 171 98 173
f 168 172 157
f 171 173 175
f 154 176 166
f 176 177 178
f 166 178 167
f 176 178 166
f 177 179 180
f 179 120 119
f 180 119 118
f 179 119 180
f 167 181 182
f 183 114 113
f 170 113 102
f 183 113 170
f 177 180 178
f 180 118 181
f 178 181 167
f 180 181 178
f 154 184 176
f 184 185 186
f 176 186 177
f 184 186 176
f 185 187 188
f 187 141 140
f 188 140 137
f 187 140 188
f 177 189 179
f 189 137 136
f 179 136 120
f 189 136 179
f 185 188 186
f 188 137 189
f 186 189 177
f 188 189 186
f 154 156 184
f 156 159 190
f 184 190 185
f 156 190 184
f 159 165 191
f 165 66 153
f 191 153 151
f 165 153 191
f 185 192 187
f 192 151 150
f 187 150 141
f 192 150 187
f 159 191 190
f 191 151 192
f 190 192 185
f 191 192 190
f 4 56 7
f 7 56 9
f 7 9 8
f 8 9 12
f 8 12 16
f 16 12 13
f 44 126 47
f 47 126 49
f 47 49 46
f 46 49 48
f 46 48 52
f 52 48 54
f 52 54 51
f 51 54 60
f 51 60 59
f 59 60 57
f 59 57 4
f 4 57 56
f 16 13 69
f 69 13 72
f 69 72 70
f 70 72 68
f 70 68 74
f 74 68 84
f 79 85 81
f 81 85 78
f 81 78 82
f 82 78 163
f 86 76 79
f 79 76 85
f 74 84 86
f 86 84 76
f 114 118 121
f 121 118 116
f 121 116 111
f 111 116 115
f 111 115 129
f 129 115 123
f 129 123 122
f 122 123 131
f 122 131 130
f 130 131 127
f 130 127 44
f 44 127 126
f 82 163 162
f 162 163 160
f 169 167 170
f 170 167 182
f 171 174 169
f 169 174 167
f 162 160 173
f 173 160 172
f 173 172 175
f 175 172 168
f 175 168 171
f 171 168 174
f 183 181 114
f 114 181 118
f 170 182 183
f 183 182 181
