v -0.133443 1.08523 -0.612443
v -0.0985731 1.04142 -0.616917
v -0.104156 1.09021 -0.660125
v -0.0753065 0.991984 -0.63
v -0.0719114 1.04258 -0.668555
v -0.0860467 1.08585 -0.713125
v -0.0654143 0.940702 -0.650695
v -0.0521981 0.982707 -0.688637
v -0.0696495 0.891473 -0.677427
v -0.0515067 0.930293 -0.713756
v -0.0485499 0.971959 -0.751322
v -0.0578446 1.03206 -0.732338
v -0.0804945 1.0725 -0.767411
v -0.0610043 1.0133 -0.787265
v -0.0804945 1.04542 -0.807411
v -0.0610043 0.986224 -0.827265
v -0.0879217 1.02409 -0.858848
v -0.156396 1.12594 -0.643621
v -0.130396 1.12808 -0.695564
v -0.18655 1.1546 -0.681374
v -0.116329 1.11755 -0.759347
v -0.0879217 1.05117 -0.818848
v -0.118827 1.09783 -0.813968
v -0.159793 1.13458 -0.802696
v -0.169166 1.15369 -0.742655
v -0.221611 1.16903 -0.722829
v -0.207703 1.15862 -0.785891
v -0.258908 1.16813 -0.76483
v -0.183099 1.09924 -0.590214
v -0.210242 1.13721 -0.624854
v -0.237924 1.10323 -0.578626
v -0.249013 1.16283 -0.671944
v -0.286646 1.16766 -0.71598
v -0.311671 1.15196 -0.668197
v -0.276022 1.13582 -0.617926
v -0.293745 1.0969 -0.578561
v -0.332077 1.12223 -0.625118
v -0.346311 1.08073 -0.590024
v -0.147363 1.047 -0.57371
v -0.201106 1.05737 -0.554143
v -0.169172 1.00272 -0.546875
v -0.266886 1.05597 -0.547215
v -0.323044 1.04328 -0.555207
v -0.294293 1.00008 -0.533697
v -0.230741 1.00314 -0.530523
v -0.19721 0.955782 -0.533979
v -0.262246 0.954406 -0.52713
v -0.229343 0.909745 -0.536005
v -0.115613 0.998881 -0.581152
v -0.145248 0.944652 -0.557532
v -0.17772 0.896583 -0.553833
v -0.131675 0.888834 -0.585071
v -0.0958997 0.939005 -0.601233
v -0.0947139 0.887086 -0.627342
v -0.0696495 0.864398 -0.717427
v -0.0722108 0.84317 -0.769377
v -0.0515067 0.903218 -0.753756
v -0.0883821 0.829359 -0.821374
v -0.0590724 0.884369 -0.808219
v -0.0485499 0.944884 -0.791322
v -0.116932 0.824016 -0.869461
v -0.0856599 0.872982 -0.86772
v -0.155688 0.827548 -0.909976
v -0.122515 0.872805 -0.912668
v -0.0991223 0.923224 -0.9045
v -0.0647188 0.933717 -0.85192
v -0.087291 0.974966 -0.886093
v -0.123027 1.02721 -0.902596
v -0.127452 0.975168 -0.928114
v -0.167875 1.02373 -0.936251
v -0.148393 0.914432 -0.943913
v -0.178955 0.864997 -0.944793
v -0.207707 0.908202 -0.966303
v -0.184538 0.96727 -0.960606
v -0.21905 1.01392 -0.95725
v -0.239754 0.953873 -0.97287
v -0.272657 0.998534 -0.963995
v -0.118827 1.07075 -0.853968
v -0.159348 1.07205 -0.895622
v -0.159348 1.09912 -0.855622
v -0.216434 1.06415 -0.928114
v -0.27129 1.04966 -0.940746
v -0.268378 1.09248 -0.9045
v -0.212186 1.13527 -0.838929
v -0.268378 1.11955 -0.8645
v -0.264143 1.15082 -0.818015
v -0.212186 1.10819 -0.878929
v -0.312933 1.1564 -0.774808
v -0.31862 1.13302 -0.82772
v -0.362243 1.13029 -0.781374
v -0.322869 1.0619 -0.916904
v -0.32428 1.0117 -0.946167
v -0.370325 1.01945 -0.914929
v -0.372217 1.09462 -0.833203
v -0.403086 1.09181 -0.78403
v -0.372217 1.06755 -0.873203
v -0.407286 1.02119 -0.872658
v -0.403086 1.06474 -0.82403
v -0.43235 1.01681 -0.822573
v -0.31862 1.10594 -0.86772
v -0.341381 1.15005 -0.724517
v -0.394977 1.11165 -0.73
v -0.43235 1.04388 -0.782573
v -0.429789 1.06511 -0.730623
v -0.413618 1.07892 -0.678626
v -0.36839 1.12304 -0.670499
v -0.385067 1.08426 -0.630539
v -0.379485 1.03547 -0.587332
v -0.41634 1.0353 -0.63228
v -0.402878 0.985055 -0.5955
v -0.442927 1.02391 -0.691781
v -0.450493 1.00506 -0.746244
v -0.45345 0.963395 -0.708678
v -0.437281 0.974562 -0.64808
v -0.414709 0.933313 -0.613907
v -0.440996 0.922055 -0.672735
v -0.414078 0.884188 -0.641152
v -0.353607 0.993847 -0.556087
v -0.374548 0.933112 -0.571886
v -0.378973 0.881073 -0.597404
v -0.334125 0.884552 -0.563749
v -0.317462 0.941009 -0.539394
v -0.28295 0.894358 -0.54275
v -0.23071 0.858621 -0.559254
v -0.285565 0.844129 -0.571886
v -0.233622 0.815799 -0.5955
v -0.342652 0.836231 -0.604378
v -0.383173 0.837529 -0.646032
v -0.342652 0.809156 -0.644378
v -0.383173 0.810454 -0.686032
v -0.342206 0.773702 -0.697304
v -0.233622 0.788724 -0.6355
v -0.289814 0.773011 -0.661071
v -0.237856 0.757464 -0.681985
v -0.294297 0.749655 -0.71411
v -0.243092 0.740144 -0.73517
v -0.289814 0.800086 -0.621071
v -0.179131 0.84638 -0.583096
v -0.18338 0.775262 -0.67228
v -0.189067 0.751881 -0.725192
v -0.139756 0.777984 -0.718626
v -0.129783 0.840733 -0.626797
v -0.129783 0.813659 -0.666797
v -0.0989143 0.816466 -0.71597
v -0.0989143 0.843541 -0.67597
v -0.18338 0.802337 -0.63228
v -0.107022 0.796625 -0.77
v -0.160619 0.758228 -0.775483
v -0.215353 0.740623 -0.78402
v -0.190329 0.756324 -0.831803
v -0.13361 0.785237 -0.829501
v -0.169923 0.786054 -0.874882
v -0.368557 0.823045 -0.887557
v -0.354637 0.861281 -0.92629
v -0.318901 0.809041 -0.909786
v -0.332828 0.905555 -0.953125
v -0.300894 0.850914 -0.945857
v -0.264076 0.805052 -0.921374
v -0.30479 0.952497 -0.966021
v -0.271259 0.905143 -0.969477
v -0.235114 0.852305 -0.952785
v -0.208255 0.811381 -0.921439
v -0.403427 0.866864 -0.883083
v -0.426693 0.916296 -0.87
v -0.386387 0.909398 -0.918848
v -0.436586 0.967578 -0.849305
v -0.4061 0.969274 -0.898767
v -0.356752 0.963627 -0.942468
v -0.397844 0.818074 -0.839875
v -0.415953 0.82243 -0.786875
v -0.430088 0.865697 -0.831445
v -0.421505 0.835782 -0.732589
v -0.444155 0.876224 -0.767662
v -0.421505 0.862857 -0.692589
v -0.440996 0.89498 -0.712735
v -0.45345 0.93632 -0.748678
v -0.449802 0.925572 -0.811363
v -0.450493 0.977986 -0.786244
v -0.345604 0.782338 -0.856379
v -0.31545 0.753678 -0.818626
v -0.371604 0.780203 -0.804436
v -0.280389 0.739247 -0.777171
v -0.332833 0.754586 -0.757345
v -0.385671 0.790731 -0.740653
v -0.414078 0.857113 -0.681152
v -0.291757 0.771067 -0.875146
v -0.225977 0.772459 -0.882074
v -0.252987 0.74545 -0.828056
f 1 2 3
f 2 4 5
f 3 5 6
f 2 5 3
f 4 7 8
f 7 9 10
f 8 10 11
f 7 10 8
f 6 12 13
f 12 11 14
f 15 16 17
f 12 14 13
f 4 8 5
f 8 11 12
f 5 12 6
f 8 12 5
f 1 3 18
f 3 6 19
f 18 19 20
f 3 19 18
f 6 13 21
f 13 22 23
f 21 23 24
f 13 23 21
f 20 25 26
f 25 24 27
f 26 27 28
f 25 27 26
f 6 21 19
f 21 24 25
f 19 25 20
f 21 25 19
f 1 18 29
f 18 20 30
f 29 30 31
f 18 30 29
f 20 26 32
f 26 28 33
f 32 33 34
f 26 33 32
f 31 35 36
f 35 34 37
f 36 37 38
f 35 37 36
f 20 32 30
f 32 34 35
f 30 35 31
f 32 35 30
f 1 29 39
f 29 31 40
f 39 40 41
f 29 40 39
f 31 36 42
f 36 38 43
f 42 43 44
f 36 43 42
f 41 45 46
f 45 44 47
f 46 47 48
f 45 47 46
f 31 42 40
f 42 44 45
f 40 45 41
f 42 45 40
f 1 39 2
f 39 41 49
f 2 49 4
f 39 49 2
f 41 46 50
f 46 48 51
f 50 51 52
f 46 51 50
f 4 53 7
f 53 52 54
f 7 54 9
f 53 54 7
f 41 50 49
f 50 52 53
f 49 53 4
f 50 53 49
f 55 56 57
f 56 58 59
f 57 59 60
f 56 59 57
f 58 61 62
f 61 63 64
f 62 64 65
f 61 64 62
f 60 66 16
f 66 65 67
f 16 67 17
f 66 67 16
f 58 62 59
f 62 65 66
f 59 66 60
f 62 66 59
f 17 67 68
f 67 65 69
f 68 69 70
f 67 69 68
f 65 64 71
f 64 63 72
f 71 72 73
f 64 72 71
f 70 74 75
f 74 73 76
f 75 76 77
f 74 76 75
f 65 71 69
f 71 73 74
f 69 74 70
f 71 74 69
f 17 68 78
f 68 70 79
f 23 80 24
f 68 79 78
f 70 75 81
f 75 77 82
f 81 82 83
f 75 82 81
f 24 84 27
f 84 85 86
f 27 86 28
f 84 86 27
f 70 81 79
f 81 83 87
f 80 84 24
f 81 87 79
f 28 86 88
f 86 85 89
f 88 89 90
f 86 89 88
f 83 82 91
f 82 77 92
f 91 92 93
f 82 92 91
f 90 94 95
f 96 93 97
f 98 97 99
f 96 97 98
f 83 91 100
f 91 93 96
f 89 94 90
f 91 96 100
f 28 88 33
f 88 90 101
f 33 101 34
f 88 101 33
f 90 95 102
f 95 103 104
f 102 104 105
f 95 104 102
f 34 106 37
f 106 105 107
f 37 107 38
f 106 107 37
f 90 102 101
f 102 105 106
f 101 106 34
f 102 106 101
f 38 107 108
f 107 105 109
f 108 109 110
f 107 109 108
f 105 104 111
f 104 103 112
f 111 112 113
f 104 112 111
f 110 114 115
f 114 113 116
f 115 116 117
f 114 116 115
f 105 111 109
f 111 113 114
f 109 114 110
f 111 114 109
f 38 108 43
f 108 110 118
f 43 118 44
f 108 118 43
f 110 115 119
f 115 117 120
f 119 120 121
f 115 120 119
f 44 122 47
f 122 121 123
f 47 123 48
f 122 123 47
f 110 119 118
f 119 121 122
f 118 122 44
f 119 122 118
f 48 123 124
f 123 121 125
f 124 125 126
f 123 125 124
f 121 120 127
f 120 117 128
f 129 130 131
f 120 128 127
f 132 133 134
f 133 131 135
f 134 135 136
f 133 135 134
f 121 127 125
f 129 131 133
f 125 137 126
f 127 137 125
f 48 124 51
f 124 126 138
f 51 138 52
f 124 138 51
f 132 134 139
f 134 136 140
f 139 140 141
f 134 140 139
f 52 142 54
f 143 141 144
f 54 145 9
f 142 145 54
f 126 146 138
f 139 141 143
f 138 142 52
f 146 142 138
f 55 144 56
f 144 141 147
f 56 147 58
f 144 147 56
f 141 140 148
f 140 136 149
f 148 149 150
f 140 149 148
f 58 151 61
f 151 150 152
f 61 152 63
f 151 152 61
f 141 148 147
f 148 150 151
f 147 151 58
f 148 151 147
f 153 154 155
f 154 156 157
f 155 157 158
f 154 157 155
f 156 159 160
f 159 77 76
f 160 76 73
f 159 76 160
f 158 161 162
f 161 73 72
f 162 72 63
f 161 72 162
f 156 160 157
f 160 73 161
f 157 161 158
f 160 161 157
f 153 163 154
f 163 164 165
f 154 165 156
f 163 165 154
f 164 166 167
f 166 99 97
f 167 97 93
f 166 97 167
f 156 168 159
f 168 93 92
f 159 92 77
f 168 92 159
f 164 167 165
f 167 93 168
f 165 168 156
f 167 168 165
f 153 169 163
f 169 170 171
f 163 171 164
f 169 171 163
f 170 172 173
f 174 117 116
f 173 175 176
f 172 175 173
f 164 177 166
f 177 176 178
f 166 178 99
f 177 178 166
f 170 173 171
f 173 176 177
f 171 177 164
f 173 177 171
f 153 179 169
f 179 180 181
f 169 181 170
f 179 181 169
f 180 182 183
f 182 136 135
f 183 135 131
f 182 135 183
f 170 184 172
f 184 131 130
f 172 130 185
f 184 130 172
f 180 183 181
f 183 131 184
f 181 184 170
f 183 184 181
f 153 155 179
f 155 158 186
f 179 186 180
f 155 186 179
f 158 162 187
f 162 63 152
f 187 152 150
f 162 152 187
f 180 188 182
f 188 150 149
f 182 149 136
f 188 149 182
f 158 187 186
f 187 150 188
f 186 188 180
f 187 188 186
f 15 13 16
f 16 13 14
f 17 22 15
f 15 22 13
f 57 10 55
f 55 10 9
f 60 11 57
f 57 11 10
f 16 14 60
f 60 14 11
f 78 23 17
f 17 23 22
f 79 80 78
f 78 80 23
f 83 85 87
f 87 85 84
f 87 84 79
f 79 84 80
f 99 103 98
f 98 103 95
f 98 95 96
f 96 95 94
f 100 89 83
f 83 89 85
f 96 94 100
f 100 94 89
f 129 127 130
f 130 127 128
f 132 126 133
f 133 126 137
f 133 137 129
f 129 137 127
f 139 146 132
f 132 146 126
f 144 145 143
f 143 145 142
f 143 142 139
f 139 142 146
f 55 9 144
f 144 9 145
f 175 116 176
f 176 116 113
f 172 174 175
f 175 174 116
f 176 113 178
f 178 113 112
f 178 112 99
f 99 112 103
f 130 128 185
f 185 128 117
f 185 117 172
f 172 117 174
