v -0.133443 1.12712 -0.492443
v -0.0985731 1.0833 -0.496917
v -0.104156 1.13209 -0.540125
v -0.0753065 1.03387 -0.51
v -0.0719114 1.08447 -0.548555
v -0.0860467 1.12773 -0.593125
v -0.0654143 0.982585 -0.530695
v -0.0521981 1.02459 -0.568637
v -0.0696495 0.933356 -0.557427
v -0.0515067 0.972177 -0.593756
v -0.0485499 1.01384 -0.631322
v -0.0578446 1.07394 -0.612338
v -0.0804945 1.11438 -0.647411
v -0.0578446 1.03206 -0.732338
v -0.0485499 0.971959 -0.751322
v -0.0610043 1.0133 -0.787265
v -0.0804945 1.0725 -0.767411
v -0.0879217 1.05117 -0.818848
v -0.156396 1.16783 -0.523621
v -0.130396 1.16996 -0.575564
v -0.18655 1.19649 -0.561374
v -0.116329 1.15943 -0.639347
v -0.118827 1.09783 -0.813968
v -0.116329 1.11755 -0.759347
v -0.159793 1.13458 -0.802696
v -0.169166 1.19558 -0.622655
v -0.221611 1.21092 -0.602829
v -0.159793 1.17646 -0.682696
v -0.207703 1.20051 -0.665891
v -0.258908 1.21002 -0.64483
v -0.183099 1.14112 -0.470214
v -0.210242 1.1791 -0.504854
v -0.237924 1.14511 -0.458626
v -0.249013 1.20471 -0.551944
v -0.286646 1.20954 -0.59598
v -0.311671 1.19384 -0.548197
v -0.276022 1.1777 -0.497926
v -0.293745 1.13878 -0.458561
v -0.332077 1.16411 -0.505118
v -0.346311 1.12262 -0.470024
v -0.147363 1.08888 -0.45371
v -0.201106 1.09925 -0.434143
v -0.169172 1.04461 -0.426875
v -0.266886 1.09786 -0.427215
v -0.323044 1.08517 -0.435207
v -0.294293 1.04196 -0.413697
v -0.230741 1.04502 -0.410523
v -0.19721 0.997665 -0.413979
v -0.262246 0.99629 -0.40713
v -0.229343 0.951629 -0.416006
v -0.115613 1.04076 -0.461152
v -0.145248 0.986535 -0.437532
v -0.17772 0.938467 -0.433833
v -0.131675 0.930717 -0.465071
v -0.0958997 0.980889 -0.481233
v -0.0947139 0.928969 -0.507342
v -0.0696495 0.891473 -0.677427
v -0.0722108 0.870245 -0.729377
v -0.0515067 0.930293 -0.713756
v -0.0883821 0.856434 -0.781374
v -0.0590724 0.911444 -0.768219
v -0.116932 0.851091 -0.829461
v -0.0856599 0.900057 -0.82772
v -0.155688 0.854622 -0.869976
v -0.122515 0.89988 -0.872668
v -0.0991223 0.950299 -0.8645
v -0.0647188 0.960792 -0.81192
v -0.087291 1.00204 -0.846093
v -0.123027 1.05428 -0.862596
v -0.127452 1.00224 -0.888114
v -0.167875 1.0508 -0.896251
v -0.148393 0.941507 -0.903913
v -0.178955 0.892072 -0.904793
v -0.207707 0.935277 -0.926303
v -0.184538 0.994345 -0.920606
v -0.21905 1.041 -0.91725
v -0.239754 0.980948 -0.93287
v -0.272657 1.02561 -0.923995
v -0.159348 1.09912 -0.855622
v -0.216434 1.09123 -0.888114
v -0.27129 1.07673 -0.900746
v -0.268378 1.11955 -0.8645
v -0.212186 1.13527 -0.838929
v -0.207703 1.15862 -0.785891
v -0.264143 1.15082 -0.818015
v -0.264143 1.1927 -0.698015
v -0.312933 1.19828 -0.654808
v -0.31862 1.13302 -0.82772
v -0.312933 1.1564 -0.774808
v -0.362243 1.13029 -0.781374
v -0.322869 1.08897 -0.876904
v -0.32428 1.03877 -0.906167
v -0.370325 1.04652 -0.874929
v -0.372217 1.09462 -0.833203
v -0.403086 1.09181 -0.78403
v -0.407286 1.04827 -0.832658
v -0.43235 1.04388 -0.782573
v -0.362243 1.17218 -0.661374
v -0.341381 1.19193 -0.604517
v -0.403086 1.1337 -0.66403
v -0.394977 1.15354 -0.61
v -0.43235 1.08576 -0.662573
v -0.429789 1.10699 -0.610623
v -0.413618 1.1208 -0.558626
v -0.36839 1.16493 -0.550499
v -0.385067 1.12615 -0.510539
v -0.379485 1.07736 -0.467332
v -0.41634 1.07718 -0.51228
v -0.402878 1.02694 -0.4755
v -0.442927 1.06579 -0.571781
v -0.450493 1.04694 -0.626244
v -0.45345 1.00528 -0.588678
v -0.437281 1.01645 -0.52808
v -0.414709 0.975197 -0.493907
v -0.440996 0.963938 -0.552735
v -0.414078 0.926071 -0.521152
v -0.353607 1.03573 -0.436087
v -0.374548 0.974995 -0.451886
v -0.378973 0.922957 -0.477404
v -0.334125 0.926435 -0.443749
v -0.317462 0.982893 -0.419394
v -0.28295 0.936241 -0.42275
v -0.23071 0.900505 -0.439254
v -0.285565 0.886012 -0.451886
v -0.233622 0.857683 -0.4755
v -0.342652 0.878114 -0.484378
v -0.383173 0.879412 -0.526032
v -0.342206 0.842661 -0.537304
v -0.289814 0.841969 -0.501071
v -0.237856 0.826422 -0.521985
v -0.294297 0.818614 -0.55411
v -0.237856 0.784539 -0.641985
v -0.294297 0.77673 -0.67411
v -0.243092 0.767219 -0.69517
v -0.179131 0.888263 -0.463096
v -0.18338 0.844221 -0.51228
v -0.189067 0.778956 -0.685192
v -0.189067 0.82084 -0.565192
v -0.139756 0.846943 -0.558626
v -0.129783 0.882617 -0.506797
v -0.0989143 0.885425 -0.55597
v -0.0989143 0.843541 -0.67597
v -0.139756 0.805059 -0.678626
v -0.107022 0.8237 -0.73
v -0.160619 0.785303 -0.735483
v -0.215353 0.767698 -0.74402
v -0.190329 0.783399 -0.791803
v -0.13361 0.812312 -0.789501
v -0.169923 0.813128 -0.834882
v -0.368557 0.85012 -0.847557
v -0.354637 0.888356 -0.88629
v -0.318901 0.836116 -0.869786
v -0.332828 0.93263 -0.913125
v -0.300894 0.877989 -0.905857
v -0.264076 0.832127 -0.881374
v -0.30479 0.979572 -0.926021
v -0.271259 0.932218 -0.929477
v -0.235114 0.87938 -0.912785
v -0.208255 0.838456 -0.881439
v -0.403427 0.893939 -0.843083
v -0.426693 0.94337 -0.83
v -0.386387 0.936473 -0.878848
v -0.436586 0.994653 -0.809305
v -0.4061 0.996349 -0.858767
v -0.356752 0.990702 -0.902468
v -0.397844 0.845149 -0.799875
v -0.415953 0.849505 -0.746875
v -0.430088 0.892772 -0.791445
v -0.421505 0.862857 -0.692589
v -0.444155 0.903299 -0.727662
v -0.421505 0.90474 -0.572589
v -0.444155 0.945183 -0.607662
v -0.449802 0.952647 -0.771363
v -0.45345 0.963395 -0.708678
v -0.450493 1.00506 -0.746244
v -0.345604 0.809412 -0.816379
v -0.31545 0.780753 -0.778626
v -0.371604 0.807278 -0.764436
v -0.280389 0.766322 -0.737171
v -0.332833 0.781661 -0.717345
v -0.342206 0.800777 -0.657304
v -0.385671 0.817806 -0.700653
v -0.385671 0.859689 -0.580653
v -0.291757 0.798142 -0.835146
v -0.225977 0.799533 -0.842074
v -0.252987 0.772524 -0.788056
f 1 2 3
f 2 4 5
f 3 5 6
f 2 5 3
f 4 7 8
f 7 9 10
f 8 10 11
f 7 10 8
f 6 12 13
f 14 15 16
f 17 16 18
f 14 16 17
f 4 8 5
f 8 11 12
f 5 12 6
f 8 12 5
f 1 3 19
f 3 6 20
f 19 20 21
f 3 20 19
f 6 13 22
f 17 18 23
f 24 23 25
f 17 23 24
f 21 26 27
f 26 28 29
f 27 29 30
f 26 29 27
f 6 22 20
f 22 28 26
f 20 26 21
f 22 26 20
f 1 19 31
f 19 21 32
f 31 32 33
f 19 32 31
f 21 27 34
f 27 30 35
f 34 35 36
f 27 35 34
f 33 37 38
f 37 36 39
f 38 39 40
f 37 39 38
f 21 34 32
f 34 36 37
f 32 37 33
f 34 37 32
f 1 31 41
f 31 33 42
f 41 42 43
f 31 42 41
f 33 38 44
f 38 40 45
f 44 45 46
f 38 45 44
f 43 47 48
f 47 46 49
f 48 49 50
f 47 49 48
f 33 44 42
f 44 46 47
f 42 47 43
f 44 47 42
f 1 41 2
f 41 43 51
f 2 51 4
f 41 51 2
f 43 48 52
f 48 50 53
f 52 53 54
f 48 53 52
f 4 55 7
f 55 54 56
f 7 56 9
f 55 56 7
f 43 52 51
f 52 54 55
f 51 55 4
f 52 55 51
f 57 58 59
f 58 60 61
f 59 61 15
f 58 61 59
f 60 62 63
f 62 64 65
f 63 65 66
f 62 65 63
f 15 67 16
f 67 66 68
f 16 68 18
f 67 68 16
f 60 63 61
f 63 66 67
f 61 67 15
f 63 67 61
f 18 68 69
f 68 66 70
f 69 70 71
f 68 70 69
f 66 65 72
f 65 64 73
f 72 73 74
f 65 73 72
f 71 75 76
f 75 74 77
f 76 77 78
f 75 77 76
f 66 72 70
f 72 74 75
f 70 75 71
f 72 75 70
f 18 69 23
f 69 71 79
f 23 79 25
f 69 79 23
f 71 76 80
f 76 78 81
f 80 81 82
f 76 81 80
f 25 83 84
f 83 82 85
f 29 86 30
f 83 85 84
f 71 80 79
f 80 82 83
f 79 83 25
f 80 83 79
f 30 86 87
f 85 82 88
f 89 88 90
f 85 88 89
f 82 81 91
f 81 78 92
f 91 92 93
f 81 92 91
f 90 94 95
f 94 93 96
f 95 96 97
f 94 96 95
f 82 91 88
f 91 93 94
f 88 94 90
f 91 94 88
f 30 87 35
f 87 98 99
f 35 99 36
f 87 99 35
f 98 100 101
f 100 102 103
f 101 103 104
f 100 103 101
f 36 105 39
f 105 104 106
f 39 106 40
f 105 106 39
f 98 101 99
f 101 104 105
f 99 105 36
f 101 105 99
f 40 106 107
f 106 104 108
f 107 108 109
f 106 108 107
f 104 103 110
f 103 102 111
f 110 111 112
f 103 111 110
f 109 113 114
f 113 112 115
f 114 115 116
f 113 115 114
f 104 110 108
f 110 112 113
f 108 113 109
f 110 113 108
f 40 107 45
f 107 109 117
f 45 117 46
f 107 117 45
f 109 114 118
f 114 116 119
f 118 119 120
f 114 119 118
f 46 121 49
f 121 120 122
f 49 122 50
f 121 122 49
f 109 118 117
f 118 120 121
f 117 121 46
f 118 121 117
f 50 122 123
f 122 120 124
f 123 124 125
f 122 124 123
f 120 119 126
f 119 116 127
f 126 127 128
f 119 127 126
f 125 129 130
f 129 128 131
f 132 133 134
f 129 131 130
f 120 126 124
f 126 128 129
f 124 129 125
f 126 129 124
f 50 123 53
f 123 125 135
f 53 135 54
f 123 135 53
f 125 130 136
f 132 134 137
f 136 138 139
f 130 138 136
f 54 140 56
f 140 139 141
f 56 141 9
f 140 141 56
f 125 136 135
f 136 139 140
f 135 140 54
f 136 140 135
f 57 142 58
f 142 143 144
f 58 144 60
f 142 144 58
f 143 137 145
f 137 134 146
f 145 146 147
f 137 146 145
f 60 148 62
f 148 147 149
f 62 149 64
f 148 149 62
f 143 145 144
f 145 147 148
f 144 148 60
f 145 148 144
f 150 151 152
f 151 153 154
f 152 154 155
f 151 154 152
f 153 156 157
f 156 78 77
f 157 77 74
f 156 77 157
f 155 158 159
f 158 74 73
f 159 73 64
f 158 73 159
f 153 157 154
f 157 74 158
f 154 158 155
f 157 158 154
f 150 160 151
f 160 161 162
f 151 162 153
f 160 162 151
f 161 163 164
f 163 97 96
f 164 96 93
f 163 96 164
f 153 165 156
f 165 93 92
f 156 92 78
f 165 92 156
f 161 164 162
f 164 93 165
f 162 165 153
f 164 165 162
f 150 166 160
f 166 167 168
f 160 168 161
f 166 168 160
f 167 169 170
f 171 116 115
f 172 115 112
f 171 115 172
f 161 173 163
f 173 174 175
f 163 175 97
f 173 175 163
f 167 170 168
f 170 174 173
f 168 173 161
f 170 173 168
f 150 176 166
f 176 177 178
f 166 178 167
f 176 178 166
f 177 179 180
f 179 134 133
f 180 133 181
f 179 133 180
f 167 182 169
f 183 128 127
f 171 127 116
f 183 127 171
f 177 180 178
f 180 181 182
f 178 182 167
f 180 182 178
f 150 152 176
f 152 155 184
f 176 184 177
f 152 184 176
f 155 159 185
f 159 64 149
f 185 149 147
f 159 149 185
f 177 186 179
f 186 147 146
f 179 146 134
f 186 146 179
f 155 185 184
f 185 147 186
f 184 186 177
f 185 186 184
f 14 12 15
f 15 12 11
f 17 13 14
f 14 13 12
f 25 28 24
f 24 28 22
f 24 22 17
f 17 22 13
f 59 10 57
f 57 10 9
f 15 11 59
f 59 11 10
f 84 29 25
f 25 29 28
f 85 86 84
f 84 86 29
f 90 98 89
f 89 98 87
f 89 87 85
f 85 87 86
f 95 100 90
f 90 100 98
f 97 102 95
f 95 102 100
f 132 130 133
f 133 130 131
f 137 138 132
f 132 138 130
f 57 9 142
f 142 9 141
f 142 141 143
f 143 141 139
f 143 139 137
f 137 139 138
f 169 171 170
f 170 171 172
f 174 112 175
f 175 112 111
f 175 111 97
f 97 111 102
f 170 172 174
f 174 172 112
f 133 131 181
f 181 131 128
f 182 183 169
f 169 183 171
f 181 128 182
f 182 128 183
