v -0.133443 1.16607 -0.412443
v -0.0985731 1.12225 -0.416917
v -0.104156 1.17104 -0.460125
v -0.0753065 1.07282 -0.43
v -0.0719114 1.12342 -0.468555
v -0.0860467 1.16668 -0.513125
v -0.0654143 1.02154 -0.450695
v -0.0521981 1.06354 -0.488636
v -0.0696495 0.972306 -0.477427
v -0.0515067 1.01113 -0.513756
v -0.0485499 1.05279 -0.551322
v -0.0578446 1.11289 -0.532338
v -0.0804945 1.15333 -0.567411
v -0.0578446 1.07394 -0.612338
v -0.0485499 1.01384 -0.631322
v -0.0610043 1.05518 -0.667265
v -0.0804945 1.11438 -0.647411
v -0.0879217 1.09305 -0.698848
v -0.156396 1.20678 -0.443621
v -0.130396 1.20891 -0.495564
v -0.18655 1.23544 -0.481374
v -0.116329 1.19838 -0.559347
v -0.118827 1.13971 -0.693968
v -0.118827 1.17866 -0.613968
v -0.159793 1.21541 -0.602696
v -0.169166 1.23453 -0.542655
v -0.221611 1.24987 -0.522829
v -0.207703 1.23946 -0.58589
v -0.258908 1.24897 -0.56483
v -0.183099 1.18007 -0.390214
v -0.210242 1.21805 -0.424854
v -0.237924 1.18406 -0.378626
v -0.249013 1.24366 -0.471944
v -0.286646 1.24849 -0.51598
v -0.311671 1.23279 -0.468197
v -0.276022 1.21665 -0.417926
v -0.293745 1.17773 -0.378561
v -0.332077 1.20306 -0.425118
v -0.346311 1.16157 -0.390024
v -0.147363 1.12783 -0.37371
v -0.201106 1.1382 -0.354143
v -0.169172 1.08356 -0.346875
v -0.266886 1.13681 -0.347215
v -0.323044 1.12412 -0.355207
v -0.294293 1.08091 -0.333697
v -0.230741 1.08397 -0.330523
v -0.19721 1.03662 -0.333979
v -0.262246 1.03524 -0.32713
v -0.229343 0.990579 -0.336005
v -0.115613 1.07971 -0.381152
v -0.145248 1.02549 -0.357532
v -0.17772 0.977417 -0.353833
v -0.131675 0.969667 -0.385071
v -0.0958997 1.01984 -0.401233
v -0.0947139 0.967919 -0.427342
v -0.0696495 0.933356 -0.557427
v -0.0722108 0.912128 -0.609377
v -0.0515067 0.972177 -0.593756
v -0.0883821 0.898317 -0.661374
v -0.0590724 0.953328 -0.648219
v -0.116932 0.892974 -0.709461
v -0.0856599 0.94194 -0.70772
v -0.155688 0.896506 -0.749976
v -0.122515 0.941764 -0.752668
v -0.0991223 0.992183 -0.7445
v -0.0647188 1.00268 -0.69192
v -0.087291 1.04392 -0.726093
v -0.123027 1.09616 -0.742596
v -0.127452 1.04413 -0.768114
v -0.167875 1.09269 -0.776251
v -0.148393 0.983391 -0.783913
v -0.178955 0.933956 -0.784793
v -0.207707 0.97716 -0.806303
v -0.184538 1.03623 -0.800606
v -0.21905 1.08288 -0.79725
v -0.239754 1.02283 -0.81287
v -0.272657 1.06749 -0.803995
v -0.159348 1.14101 -0.735622
v -0.159793 1.17646 -0.682696
v -0.216434 1.13311 -0.768114
v -0.27129 1.11862 -0.780746
v -0.268378 1.16144 -0.7445
v -0.212186 1.2161 -0.638929
v -0.212186 1.17715 -0.718929
v -0.264143 1.1927 -0.698015
v -0.264143 1.23165 -0.618015
v -0.312933 1.23723 -0.574808
v -0.31862 1.1749 -0.70772
v -0.31862 1.21385 -0.62772
v -0.362243 1.21113 -0.581374
v -0.322869 1.13086 -0.756904
v -0.32428 1.08065 -0.786167
v -0.370325 1.0884 -0.754929
v -0.362243 1.17218 -0.661374
v -0.372217 1.1365 -0.713203
v -0.403086 1.1337 -0.66403
v -0.407286 1.09015 -0.712658
v -0.43235 1.08576 -0.662573
v -0.341381 1.23088 -0.524517
v -0.403086 1.17265 -0.58403
v -0.394977 1.19249 -0.53
v -0.43235 1.12471 -0.582573
v -0.429789 1.14594 -0.530623
v -0.413618 1.15975 -0.478626
v -0.36839 1.20388 -0.470499
v -0.385067 1.1651 -0.430539
v -0.379485 1.11631 -0.387332
v -0.41634 1.11613 -0.43228
v -0.402878 1.06589 -0.3955
v -0.442927 1.10474 -0.491781
v -0.450493 1.08589 -0.546244
v -0.45345 1.04423 -0.508678
v -0.437281 1.0554 -0.44808
v -0.414709 1.01415 -0.413907
v -0.440996 1.00289 -0.472735
v -0.414078 0.965021 -0.441152
v -0.353607 1.07468 -0.356087
v -0.374548 1.01395 -0.371886
v -0.378973 0.961907 -0.397404
v -0.334125 0.965385 -0.363749
v -0.317462 1.02184 -0.339394
v -0.28295 0.975191 -0.34275
v -0.23071 0.939455 -0.359254
v -0.285565 0.924962 -0.371886
v -0.233622 0.896633 -0.3955
v -0.342652 0.917064 -0.404378
v -0.383173 0.918362 -0.446032
v -0.342206 0.881611 -0.457304
v -0.289814 0.880919 -0.421071
v -0.237856 0.865372 -0.441985
v -0.289814 0.841969 -0.501071
v -0.342206 0.842661 -0.537304
v -0.294297 0.818614 -0.55411
v -0.237856 0.826422 -0.521985
v -0.243092 0.809103 -0.57517
v -0.179131 0.927213 -0.383096
v -0.18338 0.88317 -0.43228
v -0.189067 0.82084 -0.565192
v -0.18338 0.844221 -0.51228
v -0.139756 0.846943 -0.558626
v -0.129783 0.921567 -0.426797
v -0.139756 0.885893 -0.478626
v -0.0989143 0.924375 -0.47597
v -0.0989143 0.885425 -0.55597
v -0.107022 0.865583 -0.61
v -0.160619 0.827187 -0.615483
v -0.215353 0.809581 -0.62402
v -0.190329 0.825283 -0.671803
v -0.13361 0.854196 -0.669501
v -0.169923 0.855012 -0.714882
v -0.368557 0.892004 -0.727557
v -0.354637 0.93024 -0.76629
v -0.318901 0.878 -0.749786
v -0.332828 0.974514 -0.793125
v -0.300894 0.919873 -0.785857
v -0.264076 0.87401 -0.761374
v -0.30479 1.02146 -0.806021
v -0.271259 0.974102 -0.809477
v -0.235114 0.921264 -0.792785
v -0.208255 0.88034 -0.761439
v -0.403427 0.935822 -0.723083
v -0.426693 0.985254 -0.71
v -0.386387 0.978357 -0.758848
v -0.436586 1.03654 -0.689305
v -0.4061 1.03823 -0.738767
v -0.356752 1.03259 -0.782468
v -0.397844 0.887032 -0.679875
v -0.415953 0.891388 -0.626875
v -0.430088 0.934655 -0.671445
v -0.421505 0.90474 -0.572589
v -0.444155 0.945183 -0.607662
v -0.421505 0.94369 -0.492589
v -0.444155 0.984133 -0.527662
v -0.449802 0.994531 -0.651363
v -0.45345 1.00528 -0.588678
v -0.450493 1.04694 -0.626244
v -0.345604 0.851296 -0.696379
v -0.31545 0.822636 -0.658626
v -0.371604 0.849162 -0.644436
v -0.280389 0.808206 -0.617171
v -0.332833 0.823544 -0.597345
v -0.385671 0.859689 -0.580653
v -0.383173 0.879412 -0.526032
v -0.291757 0.840026 -0.715146
v -0.225977 0.841417 -0.722074
v -0.252987 0.814408 -0.668056
f 1 2 3
f 2 4 5
f 3 5 6
f 2 5 3
f 4 7 8
f 7 9 10
f 8 10 11
f 7 10 8
f 6 12 13
f 14 15 16
f 17 16 18
f 14 16 17
f 4 8 5
f 8 11 12
f 5 12 6
f 8 12 5
f 1 3 19
f 3 6 20
f 19 20 21
f 3 20 19
f 6 13 22
f 17 18 23
f 22 24 25
f 13 24 22
f 21 26 27
f 26 25 28
f 27 28 29
f 26 28 27
f 6 22 20
f 22 25 26
f 20 26 21
f 22 26 20
f 1 19 30
f 19 21 31
f 30 31 32
f 19 31 30
f 21 27 33
f 27 29 34
f 33 34 35
f 27 34 33
f 32 36 37
f 36 35 38
f 37 38 39
f 36 38 37
f 21 33 31
f 33 35 36
f 31 36 32
f 33 36 31
f 1 30 40
f 30 32 41
f 40 41 42
f 30 41 40
f 32 37 43
f 37 39 44
f 43 44 45
f 37 44 43
f 42 46 47
f 46 45 48
f 47 48 49
f 46 48 47
f 32 43 41
f 43 45 46
f 41 46 42
f 43 46 41
f 1 40 2
f 40 42 50
f 2 50 4
f 40 50 2
f 42 47 51
f 47 49 52
f 51 52 53
f 47 52 51
f 4 54 7
f 54 53 55
f 7 55 9
f 54 55 7
f 42 51 50
f 51 53 54
f 50 54 4
f 51 54 50
f 56 57 58
f 57 59 60
f 58 60 15
f 57 60 58
f 59 61 62
f 61 63 64
f 62 64 65
f 61 64 62
f 15 66 16
f 66 65 67
f 16 67 18
f 66 67 16
f 59 62 60
f 62 65 66
f 60 66 15
f 62 66 60
f 18 67 68
f 67 65 69
f 68 69 70
f 67 69 68
f 65 64 71
f 64 63 72
f 71 72 73
f 64 72 71
f 70 74 75
f 74 73 76
f 75 76 77
f 74 76 75
f 65 71 69
f 71 73 74
f 69 74 70
f 71 74 69
f 18 68 23
f 68 70 78
f 23 78 79
f 68 78 23
f 70 75 80
f 75 77 81
f 80 81 82
f 75 81 80
f 25 83 28
f 84 82 85
f 28 86 29
f 83 86 28
f 70 80 78
f 80 82 84
f 78 84 79
f 80 84 78
f 29 86 87
f 85 82 88
f 87 89 90
f 86 89 87
f 82 81 91
f 81 77 92
f 91 92 93
f 81 92 91
f 94 95 96
f 95 93 97
f 96 97 98
f 95 97 96
f 82 91 88
f 91 93 95
f 88 95 94
f 91 95 88
f 29 87 34
f 87 90 99
f 34 99 35
f 87 99 34
f 90 100 101
f 100 102 103
f 101 103 104
f 100 103 101
f 35 105 38
f 105 104 106
f 38 106 39
f 105 106 38
f 90 101 99
f 101 104 105
f 99 105 35
f 101 105 99
f 39 106 107
f 106 104 108
f 107 108 109
f 106 108 107
f 104 103 110
f 103 102 111
f 110 111 112
f 103 111 110
f 109 113 114
f 113 112 115
f 114 115 116
f 113 115 114
f 104 110 108
f 110 112 113
f 108 113 109
f 110 113 108
f 39 107 44
f 107 109 117
f 44 117 45
f 107 117 44
f 109 114 118
f 114 116 119
f 118 119 120
f 114 119 118
f 45 121 48
f 121 120 122
f 48 122 49
f 121 122 48
f 109 118 117
f 118 120 121
f 117 121 45
f 118 121 117
f 49 122 123
f 122 120 124
f 123 124 125
f 122 124 123
f 120 119 126
f 119 116 127
f 126 127 128
f 119 127 126
f 125 129 130
f 131 132 133
f 134 133 135
f 131 133 134
f 120 126 124
f 126 128 129
f 124 129 125
f 126 129 124
f 49 123 52
f 123 125 136
f 52 136 53
f 123 136 52
f 125 130 137
f 134 135 138
f 139 138 140
f 134 138 139
f 53 141 55
f 141 142 143
f 55 143 9
f 141 143 55
f 125 137 136
f 137 142 141
f 136 141 53
f 137 141 136
f 56 144 57
f 144 140 145
f 57 145 59
f 144 145 57
f 140 138 146
f 138 135 147
f 146 147 148
f 138 147 146
f 59 149 61
f 149 148 150
f 61 150 63
f 149 150 61
f 140 146 145
f 146 148 149
f 145 149 59
f 146 149 145
f 151 152 153
f 152 154 155
f 153 155 156
f 152 155 153
f 154 157 158
f 157 77 76
f 158 76 73
f 157 76 158
f 156 159 160
f 159 73 72
f 160 72 63
f 159 72 160
f 154 158 155
f 158 73 159
f 155 159 156
f 158 159 155
f 151 161 152
f 161 162 163
f 152 163 154
f 161 163 152
f 162 164 165
f 164 98 97
f 165 97 93
f 164 97 165
f 154 166 157
f 166 93 92
f 157 92 77
f 166 92 157
f 162 165 163
f 165 93 166
f 163 166 154
f 165 166 163
f 151 167 161
f 167 168 169
f 161 169 162
f 167 169 161
f 168 170 171
f 172 116 115
f 173 115 112
f 172 115 173
f 162 174 164
f 174 175 176
f 164 176 98
f 174 176 164
f 168 171 169
f 171 175 174
f 169 174 162
f 171 174 169
f 151 177 167
f 177 178 179
f 167 179 168
f 177 179 167
f 178 180 181
f 180 135 133
f 181 133 132
f 180 133 181
f 168 182 170
f 182 132 183
f 172 127 116
f 182 183 170
f 178 181 179
f 181 132 182
f 179 182 168
f 181 182 179
f 151 153 177
f 153 156 184
f 177 184 178
f 153 184 177
f 156 160 185
f 160 63 150
f 185 150 148
f 160 150 185
f 178 186 180
f 186 148 147
f 180 147 135
f 186 147 180
f 156 185 184
f 185 148 186
f 184 186 178
f 185 186 184
f 14 12 15
f 15 12 11
f 17 13 14
f 14 13 12
f 23 24 17
f 17 24 13
f 58 10 56
f 56 10 9
f 15 11 58
f 58 11 10
f 79 25 23
f 23 25 24
f 85 86 84
f 84 86 83
f 84 83 79
f 79 83 25
f 88 89 85
f 85 89 86
f 96 100 94
f 94 100 90
f 98 102 96
f 96 102 100
f 94 90 88
f 88 90 89
f 131 129 132
f 132 129 128
f 134 130 131
f 131 130 129
f 140 142 139
f 139 142 137
f 139 137 134
f 134 137 130
f 56 9 144
f 144 9 143
f 144 143 140
f 140 143 142
f 170 172 171
f 171 172 173
f 175 112 176
f 176 112 111
f 176 111 98
f 98 111 102
f 171 173 175
f 175 173 112
f 132 128 183
f 183 128 127
f 183 127 170
f 170 127 172
