v -0.133443 1.17607 -0.372443
v -0.0985731 1.13225 -0.376917
v -0.104156 1.18104 -0.420125
v -0.0753065 1.08282 -0.39
v -0.0719114 1.13342 -0.428555
v -0.0860467 1.17668 -0.473125
v -0.0654143 1.03153 -0.410695
v -0.0521981 1.07354 -0.448636
v -0.0696495 0.982306 -0.437427
v -0.0515067 1.02113 -0.473756
v -0.0485499 1.06279 -0.511322
v -0.0578446 1.12289 -0.492338
v -0.0804945 1.16333 -0.527411
v -0.0578446 1.11289 -0.532338
v -0.0485499 1.05279 -0.551322
v -0.0610043 1.09413 -0.587265
v -0.0804945 1.15333 -0.567411
v -0.0879217 1.132 -0.618848
v -0.156396 1.21677 -0.403621
v -0.130396 1.21891 -0.455564
v -0.18655 1.24543 -0.441374
v -0.116329 1.20838 -0.519347
v -0.118827 1.17866 -0.613968
v -0.116329 1.19838 -0.559347
v -0.159793 1.21541 -0.602696
v -0.169166 1.24453 -0.502655
v -0.221611 1.25987 -0.482829
v -0.169166 1.23453 -0.542655
v -0.207703 1.23946 -0.58589
v -0.207703 1.24946 -0.54589
v -0.258908 1.25897 -0.52483
v -0.159793 1.22541 -0.562696
v -0.183099 1.19007 -0.350214
v -0.210242 1.22805 -0.384854
v -0.237924 1.19406 -0.338626
v -0.249013 1.25366 -0.431944
v -0.286646 1.25849 -0.47598
v -0.311671 1.24279 -0.428197
v -0.276022 1.22665 -0.377926
v -0.293745 1.18773 -0.338561
v -0.332077 1.21306 -0.385118
v -0.346311 1.17156 -0.350024
v -0.147363 1.13783 -0.33371
v -0.201106 1.1482 -0.314143
v -0.169172 1.09356 -0.306875
v -0.266886 1.14681 -0.307215
v -0.323044 1.13412 -0.315207
v -0.294293 1.09091 -0.293697
v -0.230741 1.09397 -0.290523
v -0.19721 1.04662 -0.293979
v -0.262246 1.04524 -0.28713
v -0.229343 1.00058 -0.296005
v -0.115613 1.08971 -0.341152
v -0.145248 1.03549 -0.317532
v -0.17772 0.987417 -0.313833
v -0.131675 0.979667 -0.345071
v -0.0958997 1.02984 -0.361233
v -0.0947139 0.977919 -0.387342
v -0.0722108 0.961078 -0.489377
v -0.0722108 0.951078 -0.529377
v -0.0883821 0.937267 -0.581374
v -0.0590724 0.992278 -0.568219
v -0.0515067 1.01113 -0.513756
v -0.116932 0.931924 -0.629461
v -0.0856599 0.98089 -0.62772
v -0.155688 0.935456 -0.669976
v -0.122515 0.980714 -0.672668
v -0.0991223 1.03113 -0.6645
v -0.0647188 1.04163 -0.61192
v -0.087291 1.08287 -0.646093
v -0.123027 1.13511 -0.662596
v -0.127452 1.08308 -0.688114
v -0.167875 1.13164 -0.696251
v -0.148393 1.02234 -0.703913
v -0.178955 0.972906 -0.704793
v -0.207707 1.01611 -0.726303
v -0.184538 1.07518 -0.720606
v -0.21905 1.12183 -0.71725
v -0.239754 1.06178 -0.73287
v -0.272657 1.10644 -0.723994
v -0.159348 1.17996 -0.655622
v -0.216434 1.17206 -0.688114
v -0.27129 1.15757 -0.700746
v -0.268378 1.20039 -0.6645
v -0.212186 1.2161 -0.638929
v -0.264143 1.23165 -0.618015
v -0.258908 1.24897 -0.56483
v -0.312933 1.23723 -0.574808
v -0.31862 1.21385 -0.62772
v -0.362243 1.21113 -0.581374
v -0.322869 1.16981 -0.676904
v -0.32428 1.1196 -0.706167
v -0.370325 1.12735 -0.674929
v -0.372217 1.17545 -0.633203
v -0.403086 1.17265 -0.58403
v -0.407286 1.1291 -0.632658
v -0.43235 1.12471 -0.582573
v -0.312933 1.24723 -0.534808
v -0.362243 1.22113 -0.541374
v -0.341381 1.24088 -0.484517
v -0.403086 1.18265 -0.54403
v -0.394977 1.20249 -0.49
v -0.429789 1.14594 -0.530623
v -0.429789 1.15594 -0.490623
v -0.413618 1.16975 -0.438626
v -0.36839 1.21388 -0.430499
v -0.385067 1.1751 -0.390539
v -0.379485 1.12631 -0.347332
v -0.41634 1.12613 -0.39228
v -0.402878 1.07589 -0.3555
v -0.442927 1.11474 -0.451781
v -0.450493 1.08589 -0.546244
v -0.450493 1.09589 -0.506244
v -0.45345 1.05423 -0.468678
v -0.437281 1.0654 -0.40808
v -0.414709 1.02415 -0.373907
v -0.440996 1.01289 -0.432735
v -0.414078 0.975021 -0.401152
v -0.353607 1.08468 -0.316087
v -0.374548 1.02394 -0.331886
v -0.378973 0.971907 -0.357404
v -0.334125 0.975385 -0.323749
v -0.317462 1.03184 -0.299394
v -0.28295 0.985191 -0.30275
v -0.23071 0.949455 -0.319254
v -0.285565 0.934962 -0.331886
v -0.233622 0.906633 -0.3555
v -0.342652 0.927064 -0.364378
v -0.383173 0.928362 -0.406032
v -0.342206 0.89161 -0.417304
v -0.289814 0.890919 -0.381071
v -0.237856 0.875372 -0.401985
v -0.294297 0.867564 -0.434109
v -0.243092 0.858052 -0.45517
v -0.179131 0.937213 -0.343096
v -0.18338 0.89317 -0.39228
v -0.189067 0.869789 -0.445192
v -0.139756 0.895893 -0.438626
v -0.129783 0.931567 -0.386797
v -0.0989143 0.934375 -0.43597
v -0.0989143 0.924375 -0.47597
v -0.139756 0.885893 -0.478626
v -0.107022 0.904533 -0.53
v -0.189067 0.85979 -0.485192
v -0.160619 0.866137 -0.535483
v -0.243092 0.848053 -0.49517
v -0.215353 0.848531 -0.54402
v -0.190329 0.864233 -0.591803
v -0.13361 0.893146 -0.589501
v -0.169923 0.893962 -0.634882
v -0.368557 0.930954 -0.647557
v -0.354637 0.96919 -0.68629
v -0.318901 0.91695 -0.669786
v -0.332828 1.01346 -0.713125
v -0.300894 0.958822 -0.705857
v -0.264076 0.91296 -0.681374
v -0.30479 1.06041 -0.726021
v -0.271259 1.01305 -0.729477
v -0.235114 0.960214 -0.712785
v -0.208255 0.91929 -0.681439
v -0.403427 0.974772 -0.643083
v -0.426693 1.0242 -0.63
v -0.386387 1.01731 -0.678848
v -0.436586 1.07549 -0.609305
v -0.4061 1.07718 -0.658767
v -0.356752 1.07154 -0.702468
v -0.397844 0.925982 -0.599875
v -0.415953 0.930338 -0.546875
v -0.430088 0.973605 -0.591445
v -0.421505 0.94369 -0.492589
v -0.444155 0.984133 -0.527662
v -0.421505 0.95369 -0.452589
v -0.444155 0.994132 -0.487662
v -0.449802 1.03348 -0.571363
v -0.45345 1.04423 -0.508678
v -0.345604 0.890246 -0.616379
v -0.31545 0.861586 -0.578626
v -0.371604 0.888112 -0.564436
v -0.280389 0.847156 -0.537171
v -0.332833 0.862494 -0.517345
v -0.294297 0.857564 -0.47411
v -0.332833 0.872494 -0.477345
v -0.385671 0.898639 -0.500653
v -0.385671 0.908639 -0.460653
v -0.342206 0.881611 -0.457304
v -0.291757 0.878976 -0.635146
v -0.225977 0.880367 -0.642074
v -0.252987 0.853358 -0.588056
f 1 2 3
f 2 4 5
f 3 5 6
f 2 5 3
f 4 7 8
f 7 9 10
f 8 10 11
f 7 10 8
f 6 12 13
f 14 15 16
f 17 16 18
f 14 16 17
f 4 8 5
f 8 11 12
f 5 12 6
f 8 12 5
f 1 3 19
f 3 6 20
f 19 20 21
f 3 20 19
f 6 13 22
f 17 18 23
f 24 23 25
f 17 23 24
f 21 26 27
f 28 25 29
f 27 30 31
f 26 30 27
f 6 22 20
f 22 32 26
f 20 26 21
f 22 26 20
f 1 19 33
f 19 21 34
f 33 34 35
f 19 34 33
f 21 27 36
f 27 31 37
f 36 37 38
f 27 37 36
f 35 39 40
f 39 38 41
f 40 41 42
f 39 41 40
f 21 36 34
f 36 38 39
f 34 39 35
f 36 39 34
f 1 33 43
f 33 35 44
f 43 44 45
f 33 44 43
f 35 40 46
f 40 42 47
f 46 47 48
f 40 47 46
f 45 49 50
f 49 48 51
f 50 51 52
f 49 51 50
f 35 46 44
f 46 48 49
f 44 49 45
f 46 49 44
f 1 43 2
f 43 45 53
f 2 53 4
f 43 53 2
f 45 50 54
f 50 52 55
f 54 55 56
f 50 55 54
f 4 57 7
f 57 56 58
f 7 58 9
f 57 58 7
f 45 54 53
f 54 56 57
f 53 57 4
f 54 57 53
f 9 59 10
f 60 61 62
f 63 62 15
f 60 62 63
f 61 64 65
f 64 66 67
f 65 67 68
f 64 67 65
f 15 69 16
f 69 68 70
f 16 70 18
f 69 70 16
f 61 65 62
f 65 68 69
f 62 69 15
f 65 69 62
f 18 70 71
f 70 68 72
f 71 72 73
f 70 72 71
f 68 67 74
f 67 66 75
f 74 75 76
f 67 75 74
f 73 77 78
f 77 76 79
f 78 79 80
f 77 79 78
f 68 74 72
f 74 76 77
f 72 77 73
f 74 77 72
f 18 71 23
f 71 73 81
f 23 81 25
f 71 81 23
f 73 78 82
f 78 80 83
f 82 83 84
f 78 83 82
f 25 85 29
f 85 84 86
f 29 86 87
f 85 86 29
f 73 82 81
f 82 84 85
f 81 85 25
f 82 85 81
f 87 86 88
f 86 84 89
f 88 89 90
f 86 89 88
f 84 83 91
f 83 80 92
f 91 92 93
f 83 92 91
f 90 94 95
f 94 93 96
f 95 96 97
f 94 96 95
f 84 91 89
f 91 93 94
f 89 94 90
f 91 94 89
f 31 98 37
f 98 99 100
f 37 100 38
f 98 100 37
f 99 101 102
f 95 97 103
f 102 104 105
f 101 104 102
f 38 106 41
f 106 105 107
f 41 107 42
f 106 107 41
f 99 102 100
f 102 105 106
f 100 106 38
f 102 106 100
f 42 107 108
f 107 105 109
f 108 109 110
f 107 109 108
f 105 104 111
f 103 97 112
f 111 113 114
f 104 113 111
f 110 115 116
f 115 114 117
f 116 117 118
f 115 117 116
f 105 111 109
f 111 114 115
f 109 115 110
f 111 115 109
f 42 108 47
f 108 110 119
f 47 119 48
f 108 119 47
f 110 116 120
f 116 118 121
f 120 121 122
f 116 121 120
f 48 123 51
f 123 122 124
f 51 124 52
f 123 124 51
f 110 120 119
f 120 122 123
f 119 123 48
f 120 123 119
f 52 124 125
f 124 122 126
f 125 126 127
f 124 126 125
f 122 121 128
f 121 118 129
f 128 129 130
f 121 129 128
f 127 131 132
f 131 130 133
f 132 133 134
f 131 133 132
f 122 128 126
f 128 130 131
f 126 131 127
f 128 131 126
f 52 125 55
f 125 127 135
f 55 135 56
f 125 135 55
f 127 132 136
f 132 134 137
f 136 137 138
f 132 137 136
f 56 139 58
f 139 138 140
f 58 140 9
f 139 140 58
f 127 136 135
f 136 138 139
f 135 139 56
f 136 139 135
f 9 140 59
f 141 142 143
f 60 143 61
f 141 143 60
f 142 144 145
f 144 146 147
f 145 147 148
f 144 147 145
f 61 149 64
f 149 148 150
f 64 150 66
f 149 150 64
f 142 145 143
f 145 148 149
f 143 149 61
f 145 149 143
f 151 152 153
f 152 154 155
f 153 155 156
f 152 155 153
f 154 157 158
f 157 80 79
f 158 79 76
f 157 79 158
f 156 159 160
f 159 76 75
f 160 75 66
f 159 75 160
f 154 158 155
f 158 76 159
f 155 159 156
f 158 159 155
f 151 161 152
f 161 162 163
f 152 163 154
f 161 163 152
f 162 164 165
f 164 97 96
f 165 96 93
f 164 96 165
f 154 166 157
f 166 93 92
f 157 92 80
f 166 92 157
f 162 165 163
f 165 93 166
f 163 166 154
f 165 166 163
f 151 167 161
f 167 168 169
f 161 169 162
f 167 169 161
f 168 170 171
f 172 118 117
f 173 117 114
f 172 117 173
f 162 174 164
f 174 175 112
f 164 112 97
f 174 112 164
f 168 171 169
f 171 175 174
f 169 174 162
f 171 174 169
f 151 176 167
f 176 177 178
f 167 178 168
f 176 178 167
f 177 179 180
f 179 146 181
f 182 133 130
f 179 181 180
f 168 183 170
f 184 130 129
f 172 129 118
f 184 129 172
f 177 180 178
f 180 185 183
f 178 183 168
f 180 183 178
f 151 153 176
f 153 156 186
f 176 186 177
f 153 186 176
f 156 160 187
f 160 66 150
f 187 150 148
f 160 150 187
f 177 188 179
f 188 148 147
f 179 147 146
f 188 147 179
f 156 187 186
f 187 148 188
f 186 188 177
f 187 188 186
f 14 12 15
f 15 12 11
f 17 13 14
f 14 13 12
f 25 32 24
f 24 32 22
f 24 22 17
f 17 22 13
f 28 26 25
f 25 26 32
f 29 30 28
f 28 30 26
f 15 11 63
f 63 11 10
f 63 10 60
f 60 10 59
f 87 31 29
f 29 31 30
f 88 98 87
f 87 98 31
f 90 99 88
f 88 99 98
f 95 101 90
f 90 101 99
f 103 104 95
f 95 104 101
f 112 113 103
f 103 113 104
f 141 140 142
f 142 140 138
f 60 59 141
f 141 59 140
f 142 138 144
f 144 138 137
f 144 137 146
f 146 137 134
f 170 172 171
f 171 172 173
f 175 114 112
f 112 114 113
f 171 173 175
f 175 173 114
f 146 134 181
f 181 134 133
f 181 133 180
f 180 133 182
f 183 184 170
f 170 184 172
f 180 182 185
f 185 182 130
f 185 130 183
f 183 130 184
