v -0.133443 1.2189 -0.292443
v -0.0985731 1.17508 -0.296917
v -0.104156 1.22387 -0.340125
v -0.0753065 1.12565 -0.31
v -0.0719114 1.17624 -0.348555
v -0.0860467 1.21951 -0.393125
v -0.0654143 1.07436 -0.330695
v -0.0521981 1.11637 -0.368636
v -0.0696495 1.02513 -0.357427
v -0.0515067 1.06395 -0.393756
v -0.0485499 1.10562 -0.431322
v -0.0578446 1.16572 -0.412338
v -0.0804945 1.20616 -0.447411
v -0.0578446 1.12289 -0.492338
v -0.0485499 1.06279 -0.511322
v -0.0610043 1.10413 -0.547265
v -0.0804945 1.16333 -0.527411
v -0.0879217 1.142 -0.578848
v -0.0610043 1.14696 -0.467265
v -0.156396 1.2596 -0.323621
v -0.130396 1.26174 -0.375564
v -0.18655 1.28826 -0.361374
v -0.116329 1.25121 -0.439347
v -0.118827 1.18866 -0.573968
v -0.118827 1.23149 -0.493968
v -0.159793 1.26824 -0.482696
v -0.169166 1.28735 -0.422655
v -0.221611 1.30269 -0.402829
v -0.207703 1.29228 -0.46589
v -0.258908 1.3018 -0.44483
v -0.183099 1.2329 -0.270214
v -0.210242 1.27087 -0.304854
v -0.237924 1.23689 -0.258626
v -0.249013 1.29649 -0.351944
v -0.286646 1.30132 -0.39598
v -0.311671 1.28562 -0.348197
v -0.276022 1.26948 -0.297926
v -0.293745 1.23056 -0.258561
v -0.332077 1.25589 -0.305118
v -0.346311 1.21439 -0.270024
v -0.147363 1.18066 -0.25371
v -0.201106 1.19103 -0.234143
v -0.169172 1.13639 -0.226875
v -0.266886 1.18964 -0.227215
v -0.323044 1.17694 -0.235207
v -0.294293 1.13374 -0.213697
v -0.230741 1.1368 -0.210523
v -0.19721 1.08944 -0.213979
v -0.262246 1.08807 -0.20713
v -0.229343 1.04341 -0.216005
v -0.115613 1.13254 -0.261152
v -0.145248 1.07831 -0.237532
v -0.17772 1.03024 -0.233833
v -0.131675 1.0225 -0.265071
v -0.0958997 1.07267 -0.281233
v -0.0947139 1.02075 -0.307342
v -0.0696495 0.982306 -0.437427
v -0.0722108 0.961078 -0.489377
v -0.0515067 1.02113 -0.473756
v -0.0883821 0.947267 -0.541374
v -0.0590724 1.00228 -0.528219
v -0.116932 0.941924 -0.589461
v -0.0856599 0.99089 -0.58772
v -0.155688 0.945456 -0.629976
v -0.122515 0.990714 -0.632668
v -0.0991223 1.04113 -0.6245
v -0.0647188 1.05163 -0.57192
v -0.087291 1.09287 -0.606093
v -0.123027 1.14511 -0.622596
v -0.127452 1.09308 -0.648114
v -0.167875 1.14164 -0.656251
v -0.148393 1.03234 -0.663913
v -0.178955 0.982905 -0.664793
v -0.207707 1.02611 -0.686303
v -0.184538 1.08518 -0.680606
v -0.21905 1.13183 -0.67725
v -0.239754 1.07178 -0.69287
v -0.272657 1.11644 -0.683994
v -0.159348 1.18996 -0.615622
v -0.159793 1.22541 -0.562696
v -0.216434 1.18206 -0.648114
v -0.27129 1.16757 -0.660746
v -0.268378 1.21039 -0.6245
v -0.212186 1.26893 -0.518929
v -0.212186 1.2261 -0.598929
v -0.264143 1.24165 -0.578015
v -0.264143 1.28448 -0.498015
v -0.312933 1.29006 -0.454808
v -0.31862 1.22385 -0.58772
v -0.31862 1.26668 -0.50772
v -0.362243 1.26396 -0.461374
v -0.322869 1.17981 -0.636904
v -0.32428 1.1296 -0.666167
v -0.370325 1.13735 -0.634929
v -0.372217 1.22828 -0.513203
v -0.403086 1.22547 -0.46403
v -0.372217 1.18545 -0.593203
v -0.407286 1.1391 -0.592658
v -0.403086 1.18265 -0.54403
v -0.43235 1.13471 -0.542573
v -0.362243 1.22113 -0.541374
v -0.341381 1.28371 -0.404517
v -0.394977 1.24532 -0.41
v -0.43235 1.17754 -0.462573
v -0.429789 1.19877 -0.410623
v -0.413618 1.21258 -0.358626
v -0.36839 1.2567 -0.350499
v -0.385067 1.21792 -0.310539
v -0.379485 1.16914 -0.267332
v -0.41634 1.16896 -0.31228
v -0.402878 1.11872 -0.2755
v -0.442927 1.15757 -0.371781
v -0.450493 1.13872 -0.426244
v -0.45345 1.09706 -0.388678
v -0.437281 1.10822 -0.32808
v -0.414709 1.06697 -0.293907
v -0.440996 1.05572 -0.352735
v -0.414078 1.01785 -0.321152
v -0.353607 1.12751 -0.236087
v -0.374548 1.06677 -0.251886
v -0.378973 1.01473 -0.277404
v -0.334125 1.01821 -0.243749
v -0.317462 1.07467 -0.219394
v -0.28295 1.02802 -0.22275
v -0.23071 0.992283 -0.239254
v -0.285565 0.97779 -0.251886
v -0.233622 0.949461 -0.2755
v -0.342652 0.969892 -0.284378
v -0.383173 0.97119 -0.326032
v -0.342206 0.934438 -0.337304
v -0.289814 0.933747 -0.301071
v -0.237856 0.9182 -0.321985
v -0.289814 0.890919 -0.381071
v -0.342206 0.89161 -0.417304
v -0.294297 0.867564 -0.434109
v -0.237856 0.875372 -0.401985
v -0.243092 0.858052 -0.45517
v -0.179131 0.980041 -0.263096
v -0.18338 0.935998 -0.31228
v -0.189067 0.869789 -0.445192
v -0.18338 0.89317 -0.39228
v -0.139756 0.895893 -0.438626
v -0.129783 0.974395 -0.306797
v -0.129783 0.931567 -0.386797
v -0.0989143 0.934375 -0.43597
v -0.0989143 0.977203 -0.35597
v -0.139756 0.938721 -0.358626
v -0.107022 0.914533 -0.49
v -0.160619 0.876136 -0.495483
v -0.215353 0.858531 -0.50402
v -0.190329 0.874232 -0.551803
v -0.13361 0.903145 -0.549501
v -0.169923 0.903962 -0.594882
v -0.368557 0.940953 -0.607557
v -0.354637 0.979189 -0.64629
v -0.318901 0.926949 -0.629786
v -0.332828 1.02346 -0.673125
v -0.300894 0.968822 -0.665857
v -0.264076 0.92296 -0.641374
v -0.30479 1.07041 -0.686021
v -0.271259 1.02305 -0.689477
v -0.235114 0.970214 -0.672785
v -0.208255 0.92929 -0.641439
v -0.403427 0.984772 -0.603083
v -0.426693 1.0342 -0.59
v -0.386387 1.02731 -0.638848
v -0.436586 1.08549 -0.569305
v -0.4061 1.08718 -0.618767
v -0.356752 1.08154 -0.662468
v -0.397844 0.935982 -0.559875
v -0.415953 0.940338 -0.506875
v -0.430088 0.983605 -0.551445
v -0.421505 0.95369 -0.452589
v -0.444155 0.994132 -0.487662
v -0.421505 0.996518 -0.372589
v -0.444155 1.03696 -0.407662
v -0.440996 1.01289 -0.432735
v -0.449802 1.04348 -0.531363
v -0.45345 1.05423 -0.468678
v -0.450493 1.09589 -0.506244
v -0.345604 0.900246 -0.576379
v -0.31545 0.871586 -0.538626
v -0.371604 0.898112 -0.524436
v -0.280389 0.857155 -0.497171
v -0.332833 0.872494 -0.477345
v -0.385671 0.908639 -0.460653
v -0.383173 0.928362 -0.406032
v -0.291757 0.888975 -0.595146
v -0.225977 0.890367 -0.602074
v -0.252987 0.863358 -0.548056
f 1 2 3
f 2 4 5
f 3 5 6
f 2 5 3
f 4 7 8
f 7 9 10
f 8 10 11
f 7 10 8
f 6 12 13
f 14 15 16
f 17 16 18
f 12 19 13
f 4 8 5
f 8 11 12
f 5 12 6
f 8 12 5
f 1 3 20
f 3 6 21
f 20 21 22
f 3 21 20
f 6 13 23
f 17 18 24
f 23 25 26
f 13 25 23
f 22 27 28
f 27 26 29
f 28 29 30
f 27 29 28
f 6 23 21
f 23 26 27
f 21 27 22
f 23 27 21
f 1 20 31
f 20 22 32
f 31 32 33
f 20 32 31
f 22 28 34
f 28 30 35
f 34 35 36
f 28 35 34
f 33 37 38
f 37 36 39
f 38 39 40
f 37 39 38
f 22 34 32
f 34 36 37
f 32 37 33
f 34 37 32
f 1 31 41
f 31 33 42
f 41 42 43
f 31 42 41
f 33 38 44
f 38 40 45
f 44 45 46
f 38 45 44
f 43 47 48
f 47 46 49
f 48 49 50
f 47 49 48
f 33 44 42
f 44 46 47
f 42 47 43
f 44 47 42
f 1 41 2
f 41 43 51
f 2 51 4
f 41 51 2
f 43 48 52
f 48 50 53
f 52 53 54
f 48 53 52
f 4 55 7
f 55 54 56
f 7 56 9
f 55 56 7
f 43 52 51
f 52 54 55
f 51 55 4
f 52 55 51
f 57 58 59
f 58 60 61
f 59 61 15
f 58 61 59
f 60 62 63
f 62 64 65
f 63 65 66
f 62 65 63
f 15 67 16
f 67 66 68
f 16 68 18
f 67 68 16
f 60 63 61
f 63 66 67
f 61 67 15
f 63 67 61
f 18 68 69
f 68 66 70
f 69 70 71
f 68 70 69
f 66 65 72
f 65 64 73
f 72 73 74
f 65 73 72
f 71 75 76
f 75 74 77
f 76 77 78
f 75 77 76
f 66 72 70
f 72 74 75
f 70 75 71
f 72 75 70
f 18 69 24
f 69 71 79
f 24 79 80
f 69 79 24
f 71 76 81
f 76 78 82
f 81 82 83
f 76 82 81
f 26 84 29
f 85 83 86
f 29 87 30
f 84 87 29
f 71 81 79
f 81 83 85
f 79 85 80
f 81 85 79
f 30 87 88
f 86 83 89
f 88 90 91
f 87 90 88
f 83 82 92
f 82 78 93
f 92 93 94
f 82 93 92
f 91 95 96
f 97 94 98
f 99 98 100
f 97 98 99
f 83 92 89
f 92 94 97
f 89 97 101
f 92 97 89
f 30 88 35
f 88 91 102
f 35 102 36
f 88 102 35
f 91 96 103
f 96 104 105
f 103 105 106
f 96 105 103
f 36 107 39
f 107 106 108
f 39 108 40
f 107 108 39
f 91 103 102
f 103 106 107
f 102 107 36
f 103 107 102
f 40 108 109
f 108 106 110
f 109 110 111
f 108 110 109
f 106 105 112
f 105 104 113
f 112 113 114
f 105 113 112
f 111 115 116
f 115 114 117
f 116 117 118
f 115 117 116
f 106 112 110
f 112 114 115
f 110 115 111
f 112 115 110
f 40 109 45
f 109 111 119
f 45 119 46
f 109 119 45
f 111 116 120
f 116 118 121
f 120 121 122
f 116 121 120
f 46 123 49
f 123 122 124
f 49 124 50
f 123 124 49
f 111 120 119
f 120 122 123
f 119 123 46
f 120 123 119
f 50 124 125
f 124 122 126
f 125 126 127
f 124 126 125
f 122 121 128
f 121 118 129
f 128 129 130
f 121 129 128
f 127 131 132
f 133 134 135
f 136 135 137
f 133 135 136
f 122 128 126
f 128 130 131
f 126 131 127
f 128 131 126
f 50 125 53
f 125 127 138
f 53 138 54
f 125 138 53
f 127 132 139
f 136 137 140
f 141 140 142
f 136 140 141
f 54 143 56
f 144 142 145
f 56 146 9
f 143 146 56
f 127 139 138
f 139 147 143
f 138 143 54
f 139 143 138
f 57 145 58
f 145 142 148
f 58 148 60
f 145 148 58
f 142 140 149
f 140 137 150
f 149 150 151
f 140 150 149
f 60 152 62
f 152 151 153
f 62 153 64
f 152 153 62
f 142 149 148
f 149 151 152
f 148 152 60
f 149 152 148
f 154 155 156
f 155 157 158
f 156 158 159
f 155 158 156
f 157 160 161
f 160 78 77
f 161 77 74
f 160 77 161
f 159 162 163
f 162 74 73
f 163 73 64
f 162 73 163
f 157 161 158
f 161 74 162
f 158 162 159
f 161 162 158
f 154 164 155
f 164 165 166
f 155 166 157
f 164 166 155
f 165 167 168
f 167 100 98
f 168 98 94
f 167 98 168
f 157 169 160
f 169 94 93
f 160 93 78
f 169 93 160
f 165 168 166
f 168 94 169
f 166 169 157
f 168 169 166
f 154 170 164
f 170 171 172
f 164 172 165
f 170 172 164
f 171 173 174
f 175 118 117
f 176 117 114
f 173 177 174
f 165 178 167
f 178 179 180
f 167 180 100
f 178 180 167
f 171 174 172
f 174 179 178
f 172 178 165
f 174 178 172
f 154 181 170
f 181 182 183
f 170 183 171
f 181 183 170
f 182 184 185
f 184 137 135
f 185 135 134
f 184 135 185
f 171 186 173
f 186 134 187
f 175 129 118
f 186 187 173
f 182 185 183
f 185 134 186
f 183 186 171
f 185 186 183
f 154 156 181
f 156 159 188
f 181 188 182
f 156 188 181
f 159 163 189
f 163 64 153
f 189 153 151
f 163 153 189
f 182 190 184
f 190 151 150
f 184 150 137
f 190 150 184
f 159 189 188
f 189 151 190
f 188 190 182
f 189 190 188
f 14 12 15
f 15 12 11
f 16 19 14
f 14 19 12
f 17 13 16
f 16 13 19
f 24 25 17
f 17 25 13
f 59 10 57
f 57 10 9
f 15 11 59
f 59 11 10
f 80 26 24
f 24 26 25
f 86 87 85
f 85 87 84
f 85 84 80
f 80 84 26
f 89 90 86
f 86 90 87
f 100 104 99
f 99 104 96
f 99 96 97
f 97 96 95
f 97 95 101
f 101 95 91
f 101 91 89
f 89 91 90
f 133 131 134
f 134 131 130
f 136 132 133
f 133 132 131
f 142 147 141
f 141 147 139
f 141 139 136
f 136 139 132
f 144 143 142
f 142 143 147
f 145 146 144
f 144 146 143
f 57 9 145
f 145 9 146
f 173 175 177
f 177 175 117
f 177 117 174
f 174 117 176
f 179 114 180
f 180 114 113
f 180 113 100
f 100 113 104
f 174 176 179
f 179 176 114
f 134 130 187
f 187 130 129
f 187 129 173
f 173 129 175
