v 0.826557 1.07419 0.627557
v 0.861427 1.03037 0.623083
v 0.855844 1.07916 0.579876
v 0.884694 0.980937 0.61
v 0.888089 1.03154 0.571445
v 0.873953 1.0748 0.526875
v 0.894586 0.929654 0.589305
v 0.907802 0.97166 0.551364
v 0.890351 0.880426 0.562573
v 0.908493 0.919246 0.526244
v 0.91145 0.960912 0.488678
v 0.902156 1.02101 0.507662
v 0.879506 1.06145 0.472589
v 0.902156 1.01716 0.467662
v 0.91145 0.95706 0.448678
v 0.898996 0.998401 0.412735
v 0.879506 1.0576 0.432589
v 0.872078 1.03627 0.381152
v 0.803604 1.11489 0.596379
v 0.829605 1.11703 0.544436
v 0.77345 1.14355 0.558626
v 0.873953 1.07095 0.486875
v 0.843671 1.10265 0.440653
v 0.841173 1.08293 0.386032
v 0.800207 1.11968 0.397304
v 0.790834 1.14265 0.497345
v 0.73839 1.15798 0.517171
v 0.790834 1.13879 0.457345
v 0.752297 1.14372 0.41411
v 0.73839 1.15413 0.477171
v 0.701092 1.15324 0.43517
v 0.843671 1.1065 0.480653
v 0.776901 1.08819 0.649786
v 0.749758 1.12616 0.615146
v 0.722076 1.09218 0.661374
v 0.710987 1.15178 0.568056
v 0.701092 1.15709 0.47517
v 0.673354 1.15661 0.52402
v 0.648329 1.14091 0.571804
v 0.683978 1.12477 0.622074
v 0.666255 1.08585 0.661439
v 0.627923 1.11118 0.614882
v 0.613689 1.06968 0.649976
v 0.812637 1.03595 0.66629
v 0.758894 1.04632 0.685857
v 0.790828 0.991677 0.693125
v 0.693114 1.04493 0.692785
v 0.636956 1.03223 0.684793
v 0.665707 0.98903 0.706303
v 0.729259 0.992089 0.709478
v 0.76279 0.944735 0.706021
v 0.697754 0.943359 0.71287
v 0.730657 0.898698 0.703995
v 0.844387 0.987834 0.658848
v 0.814752 0.933605 0.682468
v 0.78228 0.885536 0.686167
v 0.828325 0.877787 0.654929
v 0.8641 0.927958 0.638767
v 0.865286 0.876039 0.612658
v 0.887789 0.859198 0.510623
v 0.887789 0.855346 0.470623
v 0.871618 0.841535 0.418626
v 0.900928 0.896545 0.431781
v 0.908493 0.915394 0.486244
v 0.843068 0.836192 0.370539
v 0.87434 0.885158 0.37228
v 0.804312 0.839724 0.330024
v 0.837485 0.884982 0.327332
v 0.860878 0.9354 0.3355
v 0.895281 0.945893 0.38808
v 0.872709 0.987142 0.353907
v 0.836973 1.03938 0.337404
v 0.832549 0.987344 0.311886
v 0.792126 1.0359 0.303749
v 0.811608 0.926608 0.296087
v 0.781045 0.877173 0.295208
v 0.752293 0.920378 0.273697
v 0.775462 0.979446 0.279394
v 0.740951 1.0261 0.28275
v 0.720246 0.966049 0.26713
v 0.687343 1.01071 0.276006
v 0.800652 1.08422 0.344378
v 0.743566 1.07633 0.311886
v 0.688711 1.06183 0.299254
v 0.691622 1.10466 0.3355
v 0.747814 1.12037 0.361071
v 0.695857 1.13592 0.381985
v 0.647067 1.1415 0.425193
v 0.64138 1.11812 0.37228
v 0.597757 1.1154 0.418626
v 0.637131 1.07408 0.323096
v 0.63572 1.02387 0.293833
v 0.589675 1.03162 0.325071
v 0.587783 1.07972 0.366798
v 0.556915 1.07691 0.41597
v 0.552714 1.03337 0.367342
v 0.52765 1.02898 0.417427
v 0.673354 1.15276 0.48402
v 0.618619 1.13515 0.475483
v 0.618619 1.139 0.515483
v 0.647067 1.14535 0.465192
v 0.565023 1.09676 0.47
v 0.530211 1.05021 0.469377
v 0.565023 1.10061 0.51
v 0.530211 1.05406 0.509377
v 0.546382 1.06787 0.561374
v 0.59161 1.11199 0.569501
v 0.574933 1.07322 0.609461
v 0.597757 1.11925 0.458626
v 0.580515 1.02443 0.652668
v 0.54366 1.02425 0.60772
v 0.557123 0.974008 0.6445
v 0.517073 1.01286 0.548219
v 0.509507 0.990162 0.453756
v 0.509507 0.994014 0.493756
v 0.50655 0.952348 0.531322
v 0.522719 0.963515 0.59192
v 0.545291 0.922266 0.626093
v 0.519005 0.911008 0.567265
v 0.545922 0.873141 0.598848
v 0.606393 0.9828 0.683913
v 0.585452 0.922064 0.668114
v 0.581028 0.870026 0.642596
v 0.625875 0.873505 0.676251
v 0.642538 0.929962 0.700606
v 0.67705 0.883311 0.69725
v 0.72929 0.847574 0.680746
v 0.674435 0.833081 0.668114
v 0.726378 0.804752 0.6445
v 0.617348 0.825184 0.635622
v 0.576827 0.826482 0.593968
v 0.617794 0.78973 0.582696
v 0.670186 0.789039 0.61893
v 0.722144 0.773492 0.598015
v 0.665703 0.765683 0.565891
v 0.716909 0.756172 0.54483
v 0.780869 0.835333 0.656904
v 0.776621 0.79129 0.60772
v 0.770933 0.767909 0.554808
v 0.820244 0.794012 0.561374
v 0.830217 0.829686 0.613203
v 0.861086 0.832494 0.56403
v 0.852978 0.812653 0.51
v 0.852978 0.808801 0.47
v 0.799381 0.774256 0.504517
v 0.744647 0.756651 0.49598
v 0.799381 0.770404 0.464517
v 0.744647 0.752799 0.45598
v 0.769671 0.7685 0.408197
v 0.770933 0.764058 0.514808
v 0.82639 0.797413 0.410499
v 0.790077 0.79823 0.365118
v 0.820244 0.79016 0.521374
v 0.591443 0.835221 0.352443
v 0.605363 0.873457 0.31371
v 0.641099 0.821217 0.330214
v 0.627172 0.917732 0.286875
v 0.659106 0.86309 0.294143
v 0.695925 0.817228 0.318626
v 0.65521 0.964674 0.273979
v 0.688741 0.917319 0.270523
v 0.724886 0.864482 0.287215
v 0.751745 0.823558 0.318561
v 0.556573 0.87904 0.356918
v 0.533307 0.928472 0.37
v 0.573613 0.921574 0.321152
v 0.523415 0.979754 0.390695
v 0.5539 0.98145 0.341233
v 0.603248 0.975803 0.297532
v 0.562156 0.83025 0.400125
v 0.544047 0.834606 0.453126
v 0.529912 0.877873 0.408556
v 0.538495 0.847958 0.507411
v 0.515845 0.8884 0.472338
v 0.538495 0.85181 0.547411
v 0.515845 0.892252 0.512338
v 0.510198 0.937748 0.428637
v 0.50655 0.948496 0.491322
v 0.614396 0.794514 0.383621
v 0.64455 0.765854 0.421374
v 0.588396 0.792379 0.435565
v 0.679611 0.751423 0.462829
v 0.627167 0.766762 0.482655
v 0.679611 0.755275 0.502829
v 0.627167 0.770613 0.522655
v 0.544047 0.838458 0.493125
v 0.574329 0.806759 0.539347
v 0.574329 0.802907 0.499347
v 0.668243 0.783243 0.364854
v 0.734023 0.784635 0.357926
v 0.707014 0.757626 0.411944
v 0.716909 0.752321 0.50483
f 1 2 3
f 2 4 5
f 3 5 6
f 2 5 3
f 4 7 8
f 7 9 10
f 8 10 11
f 7 10 8
f 6 12 13
f 14 15 16
f 17 16 18
f 14 16 17
f 4 8 5
f 8 11 12
f 5 12 6
f 8 12 5
f 1 3 19
f 3 6 20
f 19 20 21
f 3 20 19
f 22 17 23
f 17 18 24
f 23 24 25
f 17 24 23
f 21 26 27
f 28 25 29
f 30 29 31
f 28 29 30
f 6 32 20
f 23 25 28
f 20 26 21
f 32 26 20
f 1 19 33
f 19 21 34
f 33 34 35
f 19 34 33
f 21 27 36
f 27 37 38
f 36 38 39
f 27 38 36
f 35 40 41
f 40 39 42
f 41 42 43
f 40 42 41
f 21 36 34
f 36 39 40
f 34 40 35
f 36 40 34
f 1 33 44
f 33 35 45
f 44 45 46
f 33 45 44
f 35 41 47
f 41 43 48
f 47 48 49
f 41 48 47
f 46 50 51
f 50 49 52
f 51 52 53
f 50 52 51
f 35 47 45
f 47 49 50
f 45 50 46
f 47 50 45
f 1 44 2
f 44 46 54
f 2 54 4
f 44 54 2
f 46 51 55
f 51 53 56
f 55 56 57
f 51 56 55
f 4 58 7
f 58 57 59
f 7 59 9
f 58 59 7
f 46 55 54
f 55 57 58
f 54 58 4
f 55 58 54
f 9 60 10
f 61 62 63
f 64 63 15
f 61 63 64
f 62 65 66
f 65 67 68
f 66 68 69
f 65 68 66
f 15 70 16
f 70 69 71
f 16 71 18
f 70 71 16
f 62 66 63
f 66 69 70
f 63 70 15
f 66 70 63
f 18 71 72
f 71 69 73
f 72 73 74
f 71 73 72
f 69 68 75
f 68 67 76
f 75 76 77
f 68 76 75
f 74 78 79
f 78 77 80
f 79 80 81
f 78 80 79
f 69 75 73
f 75 77 78
f 73 78 74
f 75 78 73
f 18 72 24
f 72 74 82
f 24 82 25
f 72 82 24
f 74 79 83
f 79 81 84
f 83 84 85
f 79 84 83
f 25 86 29
f 86 85 87
f 29 87 31
f 86 87 29
f 74 83 82
f 83 85 86
f 82 86 25
f 83 86 82
f 31 87 88
f 87 85 89
f 88 89 90
f 87 89 88
f 85 84 91
f 84 81 92
f 91 92 93
f 84 92 91
f 90 94 95
f 94 93 96
f 95 96 97
f 94 96 95
f 85 91 89
f 91 93 94
f 89 94 90
f 91 94 89
f 31 88 98
f 88 90 99
f 38 100 39
f 101 100 38
f 90 95 102
f 95 97 103
f 104 105 106
f 95 103 102
f 39 107 42
f 107 106 108
f 42 108 43
f 107 108 42
f 109 104 100
f 104 106 107
f 100 107 39
f 104 107 100
f 43 108 110
f 108 106 111
f 110 111 112
f 108 111 110
f 106 105 113
f 103 97 114
f 113 115 116
f 105 115 113
f 112 117 118
f 117 116 119
f 118 119 120
f 117 119 118
f 106 113 111
f 113 116 117
f 111 117 112
f 113 117 111
f 43 110 48
f 110 112 121
f 48 121 49
f 110 121 48
f 112 118 122
f 118 120 123
f 122 123 124
f 118 123 122
f 49 125 52
f 125 124 126
f 52 126 53
f 125 126 52
f 112 122 121
f 122 124 125
f 121 125 49
f 122 125 121
f 53 126 127
f 126 124 128
f 127 128 129
f 126 128 127
f 124 123 130
f 123 120 131
f 130 131 132
f 123 131 130
f 129 133 134
f 133 132 135
f 134 135 136
f 133 135 134
f 124 130 128
f 130 132 133
f 128 133 129
f 130 133 128
f 53 127 56
f 127 129 137
f 56 137 57
f 127 137 56
f 129 134 138
f 134 136 139
f 138 139 140
f 134 139 138
f 57 141 59
f 141 140 142
f 59 142 9
f 141 142 59
f 129 138 137
f 138 140 141
f 137 141 57
f 138 141 137
f 9 142 60
f 142 140 143
f 61 144 62
f 142 143 60
f 140 139 145
f 139 136 146
f 147 148 149
f 150 148 147
f 62 151 65
f 151 149 152
f 65 152 67
f 151 152 65
f 153 147 144
f 147 149 151
f 144 151 62
f 147 151 144
f 154 155 156
f 155 157 158
f 156 158 159
f 155 158 156
f 157 160 161
f 160 81 80
f 161 80 77
f 160 80 161
f 159 162 163
f 162 77 76
f 163 76 67
f 162 76 163
f 157 161 158
f 161 77 162
f 158 162 159
f 161 162 158
f 154 164 155
f 164 165 166
f 155 166 157
f 164 166 155
f 165 167 168
f 167 97 96
f 168 96 93
f 167 96 168
f 157 169 160
f 169 93 92
f 160 92 81
f 169 92 160
f 165 168 166
f 168 93 169
f 166 169 157
f 168 169 166
f 154 170 164
f 170 171 172
f 164 172 165
f 170 172 164
f 171 173 174
f 175 120 119
f 176 119 116
f 175 119 176
f 165 177 167
f 177 178 114
f 167 114 97
f 177 114 167
f 171 174 172
f 174 178 177
f 172 177 165
f 174 177 172
f 154 179 170
f 179 180 181
f 170 181 171
f 179 181 170
f 180 182 183
f 184 136 135
f 185 135 132
f 184 135 185
f 186 187 175
f 187 132 131
f 175 131 120
f 187 131 175
f 180 183 181
f 185 132 187
f 181 188 171
f 183 188 181
f 154 156 179
f 156 159 189
f 179 189 180
f 156 189 179
f 159 163 190
f 163 67 152
f 190 152 149
f 163 152 190
f 180 191 182
f 191 149 148
f 182 148 192
f 191 148 182
f 159 190 189
f 190 149 191
f 189 191 180
f 190 191 189
f 14 12 15
f 15 12 11
f 17 13 14
f 14 13 12
f 22 6 17
f 17 6 13
f 23 32 22
f 22 32 6
f 31 37 30
f 30 37 27
f 30 27 28
f 28 27 26
f 28 26 23
f 23 26 32
f 15 11 64
f 64 11 10
f 64 10 61
f 61 10 60
f 88 101 98
f 98 101 38
f 98 38 31
f 31 38 37
f 90 109 99
f 99 109 100
f 99 100 88
f 88 100 101
f 102 104 90
f 90 104 109
f 103 105 102
f 102 105 104
f 114 115 103
f 103 115 105
f 61 60 144
f 144 60 143
f 150 139 148
f 148 139 146
f 147 145 150
f 150 145 139
f 153 140 147
f 147 140 145
f 144 143 153
f 153 143 140
f 171 186 173
f 173 186 175
f 173 175 174
f 174 175 176
f 178 116 114
f 114 116 115
f 174 176 178
f 178 176 116
f 182 184 183
f 183 184 185
f 188 187 171
f 171 187 186
f 183 185 188
f 188 185 187
f 148 146 192
f 192 146 136
f 192 136 182
f 182 136 184
