v -0.133443 1.25118 -0.212443
v -0.0985731 1.20737 -0.216917
v -0.104156 1.25616 -0.260125
v -0.0753065 1.15793 -0.23
v -0.0719114 1.20853 -0.268555
v -0.0860467 1.2518 -0.313125
v -0.0654143 1.10665 -0.250695
v -0.0521981 1.14866 -0.288637
v -0.0696495 1.05742 -0.277427
v -0.0515067 1.09624 -0.313756
v -0.0485499 1.13791 -0.351322
v -0.0578446 1.19801 -0.332338
v -0.0804945 1.23845 -0.367411
v -0.0578446 1.16572 -0.412338
v -0.0485499 1.10562 -0.431322
v -0.0610043 1.14696 -0.467265
v -0.0804945 1.20616 -0.447411
v -0.0879217 1.18483 -0.498848
v -0.156396 1.29189 -0.243621
v -0.130396 1.29403 -0.295564
v -0.18655 1.32055 -0.281374
v -0.116329 1.2835 -0.359347
v -0.118827 1.23149 -0.493968
v -0.118827 1.26378 -0.413968
v -0.159793 1.30053 -0.402696
v -0.116329 1.25121 -0.439347
v -0.169166 1.31964 -0.342655
v -0.221611 1.33498 -0.322829
v -0.207703 1.32457 -0.38589
v -0.258908 1.33409 -0.36483
v -0.183099 1.26519 -0.190214
v -0.210242 1.30316 -0.224854
v -0.237924 1.26918 -0.178626
v -0.249013 1.32878 -0.271944
v -0.286646 1.33361 -0.31598
v -0.311671 1.31791 -0.268197
v -0.276022 1.30177 -0.217926
v -0.293745 1.26285 -0.178561
v -0.332077 1.28818 -0.225118
v -0.346311 1.24668 -0.190024
v -0.147363 1.21295 -0.17371
v -0.201106 1.22332 -0.154143
v -0.169172 1.16867 -0.146875
v -0.266886 1.22192 -0.147215
v -0.323044 1.20923 -0.155207
v -0.294293 1.16603 -0.133697
v -0.230741 1.16909 -0.130523
v -0.19721 1.12173 -0.133979
v -0.262246 1.12036 -0.12713
v -0.229343 1.0757 -0.136005
v -0.115613 1.16483 -0.181152
v -0.145248 1.1106 -0.157532
v -0.17772 1.06253 -0.153833
v -0.131675 1.05478 -0.185071
v -0.0958997 1.10496 -0.201233
v -0.0947139 1.05304 -0.227342
v -0.0696495 1.02513 -0.357427
v -0.0722108 1.00391 -0.409377
v -0.0515067 1.06395 -0.393756
v -0.0883821 0.990095 -0.461374
v -0.0590724 1.04511 -0.448219
v -0.116932 0.984752 -0.509461
v -0.0856599 1.03372 -0.50772
v -0.155688 0.988284 -0.549976
v -0.122515 1.03354 -0.552668
v -0.0991223 1.08396 -0.5445
v -0.0647188 1.09445 -0.49192
v -0.087291 1.1357 -0.526093
v -0.123027 1.18794 -0.542596
v -0.127452 1.1359 -0.568114
v -0.167875 1.18446 -0.576251
v -0.148393 1.07517 -0.583913
v -0.178955 1.02573 -0.584793
v -0.207707 1.06894 -0.606303
v -0.184538 1.12801 -0.600606
v -0.21905 1.17466 -0.59725
v -0.239754 1.11461 -0.61287
v -0.272657 1.15927 -0.603994
v -0.159348 1.23278 -0.535622
v -0.159793 1.26824 -0.482696
v -0.216434 1.22489 -0.568114
v -0.27129 1.21039 -0.580746
v -0.268378 1.25322 -0.5445
v -0.212186 1.26893 -0.518929
v -0.207703 1.29228 -0.46589
v -0.264143 1.28448 -0.498015
v -0.264143 1.31677 -0.418015
v -0.312933 1.32235 -0.374808
v -0.31862 1.26668 -0.50772
v -0.31862 1.29897 -0.42772
v -0.362243 1.29625 -0.381374
v -0.312933 1.29006 -0.454808
v -0.322869 1.22264 -0.556904
v -0.32428 1.17243 -0.586167
v -0.370325 1.18018 -0.554929
v -0.362243 1.26396 -0.461374
v -0.372217 1.22828 -0.513203
v -0.403086 1.22547 -0.46403
v -0.407286 1.18193 -0.512658
v -0.43235 1.17754 -0.462573
v -0.341381 1.316 -0.324517
v -0.403086 1.25776 -0.38403
v -0.394977 1.2776 -0.33
v -0.43235 1.20983 -0.382573
v -0.429789 1.23106 -0.330623
v -0.413618 1.24487 -0.278626
v -0.36839 1.28899 -0.270499
v -0.385067 1.25021 -0.230539
v -0.379485 1.20142 -0.187332
v -0.41634 1.20125 -0.23228
v -0.402878 1.15101 -0.1955
v -0.442927 1.18986 -0.291781
v -0.450493 1.17101 -0.346244
v -0.45345 1.12935 -0.308678
v -0.437281 1.14051 -0.24808
v -0.414709 1.09926 -0.213907
v -0.440996 1.08801 -0.272735
v -0.414078 1.05014 -0.241152
v -0.353607 1.1598 -0.156087
v -0.374548 1.09906 -0.171886
v -0.378973 1.04702 -0.197404
v -0.334125 1.0505 -0.163749
v -0.317462 1.10696 -0.139394
v -0.28295 1.06031 -0.14275
v -0.23071 1.02457 -0.159254
v -0.285565 1.01008 -0.171886
v -0.233622 0.98175 -0.1955
v -0.342652 1.00218 -0.204378
v -0.383173 1.00348 -0.246032
v -0.342206 0.966728 -0.257304
v -0.289814 0.966036 -0.221071
v -0.237856 0.950489 -0.241985
v -0.294297 0.942681 -0.27411
v -0.237856 0.9182 -0.321985
v -0.294297 0.910392 -0.354109
v -0.243092 0.900881 -0.37517
v -0.179131 1.01233 -0.183096
v -0.18338 0.968287 -0.23228
v -0.189067 0.912618 -0.365192
v -0.18338 0.935998 -0.31228
v -0.139756 0.938721 -0.358626
v -0.189067 0.944907 -0.285192
v -0.129783 1.00668 -0.226797
v -0.139756 0.97101 -0.278626
v -0.0989143 1.00949 -0.27597
v -0.0989143 0.977203 -0.35597
v -0.107022 0.957361 -0.41
v -0.160619 0.918965 -0.415483
v -0.215353 0.901359 -0.42402
v -0.190329 0.91706 -0.471803
v -0.13361 0.945974 -0.469501
v -0.169923 0.94679 -0.514882
v -0.368557 0.983781 -0.527557
v -0.354637 1.02202 -0.56629
v -0.318901 0.969777 -0.549786
v -0.332828 1.06629 -0.593125
v -0.300894 1.01165 -0.585857
v -0.264076 0.965788 -0.561374
v -0.30479 1.11323 -0.606021
v -0.271259 1.06588 -0.609477
v -0.235114 1.01304 -0.592785
v -0.208255 0.972118 -0.561439
v -0.403427 1.0276 -0.523083
v -0.426693 1.07703 -0.51
v -0.386387 1.07013 -0.558848
v -0.436586 1.12831 -0.489305
v -0.4061 1.13001 -0.538767
v -0.356752 1.12436 -0.582468
v -0.397844 0.97881 -0.479875
v -0.415953 0.983166 -0.426875
v -0.430088 1.02643 -0.471445
v -0.421505 0.996518 -0.372589
v -0.444155 1.03696 -0.407662
v -0.421505 1.02881 -0.292589
v -0.444155 1.06925 -0.327662
v -0.449802 1.08631 -0.451363
v -0.45345 1.09706 -0.388678
v -0.450493 1.13872 -0.426244
v -0.345604 0.943074 -0.496379
v -0.31545 0.914414 -0.458626
v -0.371604 0.94094 -0.444436
v -0.280389 0.899983 -0.417171
v -0.332833 0.915322 -0.397345
v -0.342206 0.934438 -0.337304
v -0.385671 0.951467 -0.380653
v -0.383173 0.97119 -0.326032
v -0.385671 0.983756 -0.300653
v -0.291757 0.931803 -0.515146
v -0.225977 0.933195 -0.522074
v -0.252987 0.906186 -0.468056
f 1 2 3
f 2 4 5
f 3 5 6
f 2 5 3
f 4 7 8
f 7 9 10
f 8 10 11
f 7 10 8
f 6 12 13
f 14 15 16
f 17 16 18
f 14 16 17
f 4 8 5
f 8 11 12
f 5 12 6
f 8 12 5
f 1 3 19
f 3 6 20
f 19 20 21
f 3 20 19
f 6 13 22
f 17 18 23
f 22 24 25
f 17 23 26
f 21 27 28
f 27 25 29
f 28 29 30
f 27 29 28
f 6 22 20
f 22 25 27
f 20 27 21
f 22 27 20
f 1 19 31
f 19 21 32
f 31 32 33
f 19 32 31
f 21 28 34
f 28 30 35
f 34 35 36
f 28 35 34
f 33 37 38
f 37 36 39
f 38 39 40
f 37 39 38
f 21 34 32
f 34 36 37
f 32 37 33
f 34 37 32
f 1 31 41
f 31 33 42
f 41 42 43
f 31 42 41
f 33 38 44
f 38 40 45
f 44 45 46
f 38 45 44
f 43 47 48
f 47 46 49
f 48 49 50
f 47 49 48
f 33 44 42
f 44 46 47
f 42 47 43
f 44 47 42
f 1 41 2
f 41 43 51
f 2 51 4
f 41 51 2
f 43 48 52
f 48 50 53
f 52 53 54
f 48 53 52
f 4 55 7
f 55 54 56
f 7 56 9
f 55 56 7
f 43 52 51
f 52 54 55
f 51 55 4
f 52 55 51
f 57 58 59
f 58 60 61
f 59 61 15
f 58 61 59
f 60 62 63
f 62 64 65
f 63 65 66
f 62 65 63
f 15 67 16
f 67 66 68
f 16 68 18
f 67 68 16
f 60 63 61
f 63 66 67
f 61 67 15
f 63 67 61
f 18 68 69
f 68 66 70
f 69 70 71
f 68 70 69
f 66 65 72
f 65 64 73
f 72 73 74
f 65 73 72
f 71 75 76
f 75 74 77
f 76 77 78
f 75 77 76
f 66 72 70
f 72 74 75
f 70 75 71
f 72 75 70
f 18 69 23
f 69 71 79
f 23 79 80
f 69 79 23
f 71 76 81
f 76 78 82
f 81 82 83
f 76 82 81
f 80 84 85
f 84 83 86
f 29 87 30
f 84 86 85
f 71 81 79
f 81 83 84
f 79 84 80
f 81 84 79
f 30 87 88
f 86 83 89
f 88 90 91
f 86 89 92
f 83 82 93
f 82 78 94
f 93 94 95
f 82 94 93
f 96 97 98
f 97 95 99
f 98 99 100
f 97 99 98
f 83 93 89
f 93 95 97
f 89 97 96
f 93 97 89
f 30 88 35
f 88 91 101
f 35 101 36
f 88 101 35
f 91 102 103
f 102 104 105
f 103 105 106
f 102 105 103
f 36 107 39
f 107 106 108
f 39 108 40
f 107 108 39
f 91 103 101
f 103 106 107
f 101 107 36
f 103 107 101
f 40 108 109
f 108 106 110
f 109 110 111
f 108 110 109
f 106 105 112
f 105 104 113
f 112 113 114
f 105 113 112
f 111 115 116
f 115 114 117
f 116 117 118
f 115 117 116
f 106 112 110
f 112 114 115
f 110 115 111
f 112 115 110
f 40 109 45
f 109 111 119
f 45 119 46
f 109 119 45
f 111 116 120
f 116 118 121
f 120 121 122
f 116 121 120
f 46 123 49
f 123 122 124
f 49 124 50
f 123 124 49
f 111 120 119
f 120 122 123
f 119 123 46
f 120 123 119
f 50 124 125
f 124 122 126
f 125 126 127
f 124 126 125
f 122 121 128
f 121 118 129
f 128 129 130
f 121 129 128
f 127 131 132
f 131 130 133
f 134 135 136
f 131 133 132
f 122 128 126
f 128 130 131
f 126 131 127
f 128 131 126
f 50 125 53
f 125 127 137
f 53 137 54
f 125 137 53
f 127 132 138
f 134 136 139
f 140 139 141
f 132 142 138
f 54 143 56
f 143 144 145
f 56 145 9
f 143 145 56
f 127 138 137
f 138 144 143
f 137 143 54
f 138 143 137
f 57 146 58
f 146 141 147
f 58 147 60
f 146 147 58
f 141 139 148
f 139 136 149
f 148 149 150
f 139 149 148
f 60 151 62
f 151 150 152
f 62 152 64
f 151 152 62
f 141 148 147
f 148 150 151
f 147 151 60
f 148 151 147
f 153 154 155
f 154 156 157
f 155 157 158
f 154 157 155
f 156 159 160
f 159 78 77
f 160 77 74
f 159 77 160
f 158 161 162
f 161 74 73
f 162 73 64
f 161 73 162
f 156 160 157
f 160 74 161
f 157 161 158
f 160 161 157
f 153 163 154
f 163 164 165
f 154 165 156
f 163 165 154
f 164 166 167
f 166 100 99
f 167 99 95
f 166 99 167
f 156 168 159
f 168 95 94
f 159 94 78
f 168 94 159
f 164 167 165
f 167 95 168
f 165 168 156
f 167 168 165
f 153 169 163
f 169 170 171
f 163 171 164
f 169 171 163
f 170 172 173
f 174 118 117
f 175 117 114
f 174 117 175
f 164 176 166
f 176 177 178
f 166 178 100
f 176 178 166
f 170 173 171
f 173 177 176
f 171 176 164
f 173 176 171
f 153 179 169
f 179 180 181
f 169 181 170
f 179 181 169
f 180 182 183
f 182 136 135
f 183 135 184
f 182 135 183
f 170 185 172
f 185 184 186
f 174 129 118
f 187 129 174
f 180 183 181
f 183 184 185
f 181 185 170
f 183 185 181
f 153 155 179
f 155 158 188
f 179 188 180
f 155 188 179
f 158 162 189
f 162 64 152
f 189 152 150
f 162 152 189
f 180 190 182
f 190 150 149
f 182 149 136
f 190 149 182
f 158 189 188
f 189 150 190
f 188 190 180
f 189 190 188
f 14 12 15
f 15 12 11
f 17 13 14
f 14 13 12
f 23 24 26
f 26 24 22
f 26 22 17
f 17 22 13
f 59 10 57
f 57 10 9
f 15 11 59
f 59 11 10
f 80 25 23
f 23 25 24
f 85 29 80
f 80 29 25
f 86 87 85
f 85 87 29
f 89 90 92
f 92 90 88
f 92 88 86
f 86 88 87
f 98 102 96
f 96 102 91
f 100 104 98
f 98 104 102
f 96 91 89
f 89 91 90
f 134 132 135
f 135 132 133
f 139 142 134
f 134 142 132
f 140 138 139
f 139 138 142
f 141 144 140
f 140 144 138
f 57 9 146
f 146 9 145
f 146 145 141
f 141 145 144
f 172 174 173
f 173 174 175
f 177 114 178
f 178 114 113
f 178 113 100
f 100 113 104
f 173 175 177
f 177 175 114
f 135 133 184
f 184 133 130
f 185 187 172
f 172 187 174
f 184 130 186
f 186 130 129
f 186 129 185
f 185 129 187
