v -0.133443 1.26094 -0.172443
v -0.0985731 1.21712 -0.176917
v -0.104156 1.26591 -0.220125
v -0.0753065 1.16769 -0.19
v -0.0719114 1.21829 -0.228555
v -0.0860467 1.26155 -0.273125
v -0.0654143 1.11641 -0.210695
v -0.0521981 1.15841 -0.248636
v -0.0696495 1.06718 -0.237427
v -0.0515067 1.106 -0.273756
v -0.0485499 1.14766 -0.311322
v -0.0578446 1.20776 -0.292338
v -0.0804945 1.2482 -0.327411
v -0.0578446 1.19801 -0.332338
v -0.0485499 1.13791 -0.351322
v -0.0610043 1.17925 -0.387265
v -0.0804945 1.23845 -0.367411
v -0.0879217 1.21712 -0.418848
v -0.156396 1.30165 -0.203621
v -0.130396 1.30378 -0.255564
v -0.18655 1.33031 -0.241374
v -0.116329 1.29325 -0.319347
v -0.118827 1.26378 -0.413968
v -0.116329 1.2835 -0.359347
v -0.159793 1.30053 -0.402696
v -0.169166 1.3294 -0.302655
v -0.221611 1.34474 -0.282829
v -0.169166 1.31964 -0.342655
v -0.207703 1.32457 -0.38589
v -0.207703 1.33433 -0.34589
v -0.258908 1.34384 -0.32483
v -0.159793 1.31028 -0.362696
v -0.183099 1.27494 -0.150214
v -0.210242 1.31292 -0.184854
v -0.237924 1.27893 -0.138626
v -0.249013 1.33853 -0.231944
v -0.286646 1.34336 -0.27598
v -0.311671 1.32766 -0.228197
v -0.276022 1.31153 -0.177926
v -0.293745 1.2726 -0.138561
v -0.332077 1.29793 -0.185118
v -0.346311 1.25644 -0.150024
v -0.147363 1.2227 -0.13371
v -0.201106 1.23307 -0.114143
v -0.169172 1.17843 -0.106875
v -0.266886 1.23168 -0.107215
v -0.323044 1.21899 -0.115207
v -0.294293 1.17578 -0.0936968
v -0.230741 1.17884 -0.0905226
v -0.19721 1.13149 -0.0939792
v -0.262246 1.13011 -0.0871296
v -0.229343 1.08545 -0.0960055
v -0.115613 1.17459 -0.141152
v -0.145248 1.12036 -0.117532
v -0.17772 1.07229 -0.113833
v -0.131675 1.06454 -0.145071
v -0.0958997 1.11471 -0.161233
v -0.0947139 1.06279 -0.187342
v -0.0722108 1.04595 -0.289377
v -0.0722108 1.0362 -0.329377
v -0.0883821 1.02238 -0.381374
v -0.0590724 1.07739 -0.368219
v -0.0515067 1.09624 -0.313756
v -0.116932 1.01704 -0.429461
v -0.0856599 1.06601 -0.42772
v -0.155688 1.02057 -0.469976
v -0.122515 1.06583 -0.472668
v -0.0991223 1.11625 -0.4645
v -0.0647188 1.12674 -0.41192
v -0.087291 1.16799 -0.446093
v -0.123027 1.22023 -0.462596
v -0.127452 1.16819 -0.488114
v -0.167875 1.21675 -0.496251
v -0.148393 1.10746 -0.503913
v -0.178955 1.05802 -0.504793
v -0.207707 1.10123 -0.526303
v -0.184538 1.1603 -0.520606
v -0.21905 1.20695 -0.51725
v -0.239754 1.1469 -0.53287
v -0.272657 1.19156 -0.523994
v -0.159348 1.26507 -0.455622
v -0.216434 1.25718 -0.488114
v -0.27129 1.24268 -0.500746
v -0.268378 1.28551 -0.4645
v -0.212186 1.30122 -0.438929
v -0.264143 1.31677 -0.418015
v -0.258908 1.33409 -0.36483
v -0.312933 1.32235 -0.374808
v -0.31862 1.29897 -0.42772
v -0.362243 1.29625 -0.381374
v -0.322869 1.25492 -0.476904
v -0.32428 1.20472 -0.506167
v -0.370325 1.21247 -0.474929
v -0.372217 1.26057 -0.433203
v -0.403086 1.25776 -0.38403
v -0.407286 1.21422 -0.432658
v -0.43235 1.20983 -0.382573
v -0.312933 1.3321 -0.334808
v -0.362243 1.306 -0.341374
v -0.341381 1.32576 -0.284517
v -0.403086 1.26752 -0.34403
v -0.394977 1.28736 -0.29
v -0.429789 1.23106 -0.330623
v -0.429789 1.24081 -0.290623
v -0.413618 1.25463 -0.238626
v -0.36839 1.29875 -0.230499
v -0.385067 1.25997 -0.190539
v -0.379485 1.21118 -0.147332
v -0.41634 1.211 -0.19228
v -0.402878 1.16076 -0.1555
v -0.442927 1.19961 -0.251781
v -0.450493 1.17101 -0.346244
v -0.450493 1.18077 -0.306244
v -0.45345 1.1391 -0.268678
v -0.437281 1.15027 -0.20808
v -0.414709 1.10902 -0.173907
v -0.440996 1.09776 -0.232735
v -0.414078 1.05989 -0.201152
v -0.353607 1.16955 -0.116087
v -0.374548 1.10882 -0.131886
v -0.378973 1.05678 -0.157404
v -0.334125 1.06026 -0.123749
v -0.317462 1.11671 -0.0993941
v -0.28295 1.07006 -0.10275
v -0.23071 1.03433 -0.119254
v -0.285565 1.01983 -0.131886
v -0.233622 0.991504 -0.1555
v -0.342652 1.01194 -0.164378
v -0.383173 1.01323 -0.206032
v -0.342206 0.976482 -0.217304
v -0.289814 0.975791 -0.181071
v -0.237856 0.960244 -0.201985
v -0.294297 0.952435 -0.23411
v -0.243092 0.942924 -0.25517
v -0.179131 1.02208 -0.143096
v -0.18338 0.978042 -0.19228
v -0.189067 0.954661 -0.245192
v -0.139756 0.980764 -0.238626
v -0.129783 1.01644 -0.186797
v -0.0989143 1.01925 -0.23597
v -0.0989143 1.00949 -0.27597
v -0.139756 0.97101 -0.278626
v -0.107022 0.98965 -0.33
v -0.189067 0.944907 -0.285192
v -0.160619 0.951254 -0.335483
v -0.243092 0.93317 -0.29517
v -0.215353 0.933648 -0.34402
v -0.190329 0.94935 -0.391803
v -0.13361 0.978263 -0.389501
v -0.169923 0.979079 -0.434882
v -0.368557 1.01607 -0.447557
v -0.354637 1.05431 -0.48629
v -0.318901 1.00207 -0.469786
v -0.332828 1.09858 -0.513125
v -0.300894 1.04394 -0.505857
v -0.264076 0.998077 -0.481374
v -0.30479 1.14552 -0.526021
v -0.271259 1.09817 -0.529477
v -0.235114 1.04533 -0.512785
v -0.208255 1.00441 -0.481439
v -0.403427 1.05989 -0.443083
v -0.426693 1.10932 -0.43
v -0.386387 1.10242 -0.478848
v -0.436586 1.1606 -0.409305
v -0.4061 1.1623 -0.458767
v -0.356752 1.15665 -0.502468
v -0.397844 1.0111 -0.399875
v -0.415953 1.01546 -0.346875
v -0.430088 1.05872 -0.391445
v -0.421505 1.02881 -0.292589
v -0.444155 1.06925 -0.327662
v -0.421505 1.03856 -0.252589
v -0.444155 1.079 -0.287662
v -0.449802 1.1186 -0.371363
v -0.45345 1.12935 -0.308678
v -0.345604 0.975363 -0.416379
v -0.31545 0.946703 -0.378626
v -0.371604 0.973229 -0.364436
v -0.280389 0.932273 -0.337171
v -0.332833 0.947611 -0.317345
v -0.294297 0.942681 -0.27411
v -0.332833 0.957365 -0.277345
v -0.385671 0.983756 -0.300653
v -0.385671 0.993511 -0.260653
v -0.342206 0.966728 -0.257304
v -0.291757 0.964093 -0.435146
v -0.225977 0.965484 -0.442074
v -0.252987 0.938475 -0.388056
f 1 2 3
f 2 4 5
f 3 5 6
f 2 5 3
f 4 7 8
f 7 9 10
f 8 10 11
f 7 10 8
f 6 12 13
f 14 15 16
f 17 16 18
f 14 16 17
f 4 8 5
f 8 11 12
f 5 12 6
f 8 12 5
f 1 3 19
f 3 6 20
f 19 20 21
f 3 20 19
f 6 13 22
f 17 18 23
f 24 23 25
f 17 23 24
f 21 26 27
f 28 25 29
f 27 30 31
f 26 30 27
f 6 22 20
f 22 32 26
f 20 26 21
f 22 26 20
f 1 19 33
f 19 21 34
f 33 34 35
f 19 34 33
f 21 27 36
f 27 31 37
f 36 37 38
f 27 37 36
f 35 39 40
f 39 38 41
f 40 41 42
f 39 41 40
f 21 36 34
f 36 38 39
f 34 39 35
f 36 39 34
f 1 33 43
f 33 35 44
f 43 44 45
f 33 44 43
f 35 40 46
f 40 42 47
f 46 47 48
f 40 47 46
f 45 49 50
f 49 48 51
f 50 51 52
f 49 51 50
f 35 46 44
f 46 48 49
f 44 49 45
f 46 49 44
f 1 43 2
f 43 45 53
f 2 53 4
f 43 53 2
f 45 50 54
f 50 52 55
f 54 55 56
f 50 55 54
f 4 57 7
f 57 56 58
f 7 58 9
f 57 58 7
f 45 54 53
f 54 56 57
f 53 57 4
f 54 57 53
f 9 59 10
f 60 61 62
f 63 62 15
f 60 62 63
f 61 64 65
f 64 66 67
f 65 67 68
f 64 67 65
f 15 69 16
f 69 68 70
f 16 70 18
f 69 70 16
f 61 65 62
f 65 68 69
f 62 69 15
f 65 69 62
f 18 70 71
f 70 68 72
f 71 72 73
f 70 72 71
f 68 67 74
f 67 66 75
f 74 75 76
f 67 75 74
f 73 77 78
f 77 76 79
f 78 79 80
f 77 79 78
f 68 74 72
f 74 76 77
f 72 77 73
f 74 77 72
f 18 71 23
f 71 73 81
f 23 81 25
f 71 81 23
f 73 78 82
f 78 80 83
f 82 83 84
f 78 83 82
f 25 85 29
f 85 84 86
f 29 86 87
f 85 86 29
f 73 82 81
f 82 84 85
f 81 85 25
f 82 85 81
f 87 86 88
f 86 84 89
f 88 89 90
f 86 89 88
f 84 83 91
f 83 80 92
f 91 92 93
f 83 92 91
f 90 94 95
f 94 93 96
f 95 96 97
f 94 96 95
f 84 91 89
f 91 93 94
f 89 94 90
f 91 94 89
f 31 98 37
f 98 99 100
f 37 100 38
f 98 100 37
f 99 101 102
f 95 97 103
f 102 104 105
f 101 104 102
f 38 106 41
f 106 105 107
f 41 107 42
f 106 107 41
f 99 102 100
f 102 105 106
f 100 106 38
f 102 106 100
f 42 107 108
f 107 105 109
f 108 109 110
f 107 109 108
f 105 104 111
f 103 97 112
f 111 113 114
f 104 113 111
f 110 115 116
f 115 114 117
f 116 117 118
f 115 117 116
f 105 111 109
f 111 114 115
f 109 115 110
f 111 115 109
f 42 108 47
f 108 110 119
f 47 119 48
f 108 119 47
f 110 116 120
f 116 118 121
f 120 121 122
f 116 121 120
f 48 123 51
f 123 122 124
f 51 124 52
f 123 124 51
f 110 120 119
f 120 122 123
f 119 123 48
f 120 123 119
f 52 124 125
f 124 122 126
f 125 126 127
f 124 126 125
f 122 121 128
f 121 118 129
f 128 129 130
f 121 129 128
f 127 131 132
f 131 130 133
f 132 133 134
f 131 133 132
f 122 128 126
f 128 130 131
f 126 131 127
f 128 131 126
f 52 125 55
f 125 127 135
f 55 135 56
f 125 135 55
f 127 132 136
f 132 134 137
f 136 137 138
f 132 137 136
f 56 139 58
f 139 138 140
f 58 140 9
f 139 140 58
f 127 136 135
f 136 138 139
f 135 139 56
f 136 139 135
f 9 140 59
f 141 142 143
f 60 143 61
f 141 143 60
f 142 144 145
f 144 146 147
f 145 147 148
f 144 147 145
f 61 149 64
f 149 148 150
f 64 150 66
f 149 150 64
f 142 145 143
f 145 148 149
f 143 149 61
f 145 149 143
f 151 152 153
f 152 154 155
f 153 155 156
f 152 155 153
f 154 157 158
f 157 80 79
f 158 79 76
f 157 79 158
f 156 159 160
f 159 76 75
f 160 75 66
f 159 75 160
f 154 158 155
f 158 76 159
f 155 159 156
f 158 159 155
f 151 161 152
f 161 162 163
f 152 163 154
f 161 163 152
f 162 164 165
f 164 97 96
f 165 96 93
f 164 96 165
f 154 166 157
f 166 93 92
f 157 92 80
f 166 92 157
f 162 165 163
f 165 93 166
f 163 166 154
f 165 166 163
f 151 167 161
f 167 168 169
f 161 169 162
f 167 169 161
f 168 170 171
f 172 118 117
f 173 117 114
f 172 117 173
f 162 174 164
f 174 175 112
f 164 112 97
f 174 112 164
f 168 171 169
f 171 175 174
f 169 174 162
f 171 174 169
f 151 176 167
f 176 177 178
f 167 178 168
f 176 178 167
f 177 179 180
f 179 146 181
f 182 133 130
f 179 181 180
f 168 183 170
f 184 130 129
f 172 129 118
f 184 129 172
f 177 180 178
f 180 185 183
f 178 183 168
f 180 183 178
f 151 153 176
f 153 156 186
f 176 186 177
f 153 186 176
f 156 160 187
f 160 66 150
f 187 150 148
f 160 150 187
f 177 188 179
f 188 148 147
f 179 147 146
f 188 147 179
f 156 187 186
f 187 148 188
f 186 188 177
f 187 188 186
f 14 12 15
f 15 12 11
f 17 13 14
f 14 13 12
f 25 32 24
f 24 32 22
f 24 22 17
f 17 22 13
f 28 26 25
f 25 26 32
f 29 30 28
f 28 30 26
f 15 11 63
f 63 11 10
f 63 10 60
f 60 10 59
f 87 31 29
f 29 31 30
f 88 98 87
f 87 98 31
f 90 99 88
f 88 99 98
f 95 101 90
f 90 101 99
f 103 104 95
f 95 104 101
f 112 113 103
f 103 113 104
f 141 140 142
f 142 140 138
f 60 59 141
f 141 59 140
f 142 138 144
f 144 138 137
f 144 137 146
f 146 137 134
f 170 172 171
f 171 172 173
f 175 114 112
f 112 114 113
f 171 173 175
f 175 173 114
f 146 134 181
f 181 134 133
f 181 133 180
f 180 133 182
f 183 184 170
f 170 184 172
f 180 182 185
f 185 182 130
f 185 130 183
f 183 130 184
