v -0.133443 1.26287 -0.0924429
v -0.0985731 1.21905 -0.0969173
v -0.104156 1.26784 -0.140125
v -0.0753065 1.16962 -0.11
v -0.0719114 1.22022 -0.148555
v -0.0860467 1.26349 -0.193125
v -0.0654143 1.11834 -0.130695
v -0.0521981 1.16034 -0.168637
v -0.0696495 1.06911 -0.157427
v -0.0515067 1.10793 -0.193756
v -0.0485499 1.1496 -0.231322
v -0.0860467 1.26155 -0.273125
v -0.0578446 1.20776 -0.292338
v -0.0804945 1.2482 -0.327411
v -0.0485499 1.14766 -0.311322
v -0.0610043 1.189 -0.347265
v -0.0879217 1.22687 -0.378848
v -0.0578446 1.20969 -0.212338
v -0.156396 1.30358 -0.123621
v -0.130396 1.30571 -0.175564
v -0.18655 1.33224 -0.161374
v -0.116329 1.29325 -0.319347
v -0.118827 1.27353 -0.373968
v -0.159793 1.31028 -0.362696
v -0.169166 1.33133 -0.222655
v -0.221611 1.34667 -0.202829
v -0.169166 1.3294 -0.302655
v -0.207703 1.33433 -0.34589
v -0.221611 1.34474 -0.282829
v -0.258908 1.34384 -0.32483
v -0.116329 1.29519 -0.239347
v -0.183099 1.27688 -0.0702138
v -0.210242 1.31485 -0.104854
v -0.237924 1.28086 -0.0586256
v -0.249013 1.34047 -0.151944
v -0.258908 1.34577 -0.24483
v -0.286646 1.34529 -0.19598
v -0.311671 1.32959 -0.148197
v -0.276022 1.31346 -0.0979258
v -0.293745 1.27454 -0.0585606
v -0.332077 1.29986 -0.105118
v -0.346311 1.25837 -0.0700236
v -0.147363 1.22464 -0.0537101
v -0.201106 1.235 -0.034143
v -0.169172 1.18036 -0.0268746
v -0.266886 1.23361 -0.0272151
v -0.323044 1.22092 -0.0352073
v -0.294293 1.17771 -0.0136968
v -0.230741 1.18077 -0.0105226
v -0.19721 1.13342 -0.0139792
v -0.262246 1.13204 -0.00712961
v -0.229343 1.08738 -0.0160055
v -0.115613 1.17652 -0.0611521
v -0.145248 1.12229 -0.0375317
v -0.17772 1.07422 -0.0338331
v -0.131675 1.06647 -0.0650712
v -0.0958997 1.11664 -0.0812333
v -0.0947139 1.06472 -0.107342
v -0.0722108 1.04788 -0.209377
v -0.0722108 1.04595 -0.289377
v -0.0883821 1.03214 -0.341374
v -0.0590724 1.08715 -0.328219
v -0.0515067 1.106 -0.273756
v -0.116932 1.0268 -0.389461
v -0.0856599 1.07576 -0.38772
v -0.155688 1.03033 -0.429976
v -0.122515 1.07559 -0.432668
v -0.0991223 1.126 -0.4245
v -0.0647188 1.1365 -0.37192
v -0.087291 1.17775 -0.406093
v -0.123027 1.22999 -0.422596
v -0.127452 1.17795 -0.448114
v -0.167875 1.22651 -0.456251
v -0.148393 1.11721 -0.463913
v -0.178955 1.06778 -0.464793
v -0.207707 1.11098 -0.486303
v -0.184538 1.17005 -0.480606
v -0.21905 1.2167 -0.47725
v -0.239754 1.15665 -0.49287
v -0.272657 1.20131 -0.483994
v -0.159348 1.27483 -0.415622
v -0.216434 1.26693 -0.448114
v -0.27129 1.25244 -0.460746
v -0.268378 1.29526 -0.4245
v -0.212186 1.31097 -0.398929
v -0.264143 1.32652 -0.378015
v -0.312933 1.3321 -0.334808
v -0.31862 1.30872 -0.38772
v -0.362243 1.306 -0.341374
v -0.322869 1.26468 -0.436904
v -0.32428 1.21448 -0.466167
v -0.370325 1.22223 -0.434929
v -0.372217 1.27033 -0.393203
v -0.403086 1.26752 -0.34403
v -0.407286 1.22397 -0.392658
v -0.43235 1.21959 -0.342573
v -0.286646 1.34336 -0.27598
v -0.341381 1.32576 -0.284517
v -0.341381 1.32769 -0.204517
v -0.394977 1.28736 -0.29
v -0.429789 1.24081 -0.290623
v -0.394977 1.28929 -0.21
v -0.429789 1.24275 -0.210623
v -0.413618 1.25656 -0.158626
v -0.36839 1.30068 -0.150499
v -0.385067 1.2619 -0.110539
v -0.379485 1.21311 -0.0673317
v -0.41634 1.21293 -0.11228
v -0.402878 1.16269 -0.0755003
v -0.442927 1.20155 -0.171781
v -0.450493 1.18077 -0.306244
v -0.450493 1.1827 -0.226244
v -0.45345 1.14103 -0.188678
v -0.437281 1.1522 -0.12808
v -0.414709 1.11095 -0.0939073
v -0.440996 1.09969 -0.152735
v -0.414078 1.06183 -0.121152
v -0.353607 1.17148 -0.0360866
v -0.374548 1.11075 -0.0518861
v -0.378973 1.05871 -0.0774036
v -0.334125 1.06219 -0.0437492
v -0.317462 1.11865 -0.0193941
v -0.28295 1.072 -0.0227503
v -0.23071 1.03626 -0.039254
v -0.285565 1.02177 -0.0518861
v -0.233622 0.993437 -0.0755003
v -0.342652 1.01387 -0.0843781
v -0.383173 1.01517 -0.126032
v -0.342206 0.978415 -0.137304
v -0.289814 0.977723 -0.101071
v -0.237856 0.962176 -0.121985
v -0.294297 0.954368 -0.15411
v -0.243092 0.944857 -0.17517
v -0.179131 1.02402 -0.0630957
v -0.18338 0.979975 -0.11228
v -0.189067 0.956594 -0.165192
v -0.139756 0.982697 -0.158626
v -0.129783 1.01837 -0.106797
v -0.0989143 1.02118 -0.15597
v -0.107022 1.00134 -0.21
v -0.107022 0.999404 -0.29
v -0.160619 0.962941 -0.215483
v -0.215353 0.945335 -0.22402
v -0.160619 0.961008 -0.295483
v -0.215353 0.943402 -0.30402
v -0.190329 0.959104 -0.351803
v -0.13361 0.988017 -0.349501
v -0.169923 0.988833 -0.394882
v -0.368557 1.02582 -0.407557
v -0.354637 1.06406 -0.44629
v -0.318901 1.01182 -0.429786
v -0.332828 1.10834 -0.473125
v -0.300894 1.05369 -0.465857
v -0.264076 1.00783 -0.441374
v -0.30479 1.15528 -0.486021
v -0.271259 1.10792 -0.489477
v -0.235114 1.05509 -0.472785
v -0.208255 1.01416 -0.441439
v -0.403427 1.06964 -0.403083
v -0.426693 1.11908 -0.39
v -0.386387 1.11218 -0.438848
v -0.436586 1.17036 -0.369305
v -0.4061 1.17205 -0.418767
v -0.356752 1.16641 -0.462468
v -0.397844 1.02085 -0.359875
v -0.415953 1.02521 -0.306875
v -0.430088 1.06848 -0.351445
v -0.415953 1.02714 -0.226875
v -0.421505 1.04049 -0.172589
v -0.444155 1.08094 -0.207662
v -0.449802 1.12835 -0.331363
v -0.45345 1.1391 -0.268678
v -0.444155 1.079 -0.287662
v -0.345604 0.985117 -0.376379
v -0.31545 0.956457 -0.338626
v -0.371604 0.982983 -0.324436
v -0.280389 0.942027 -0.297171
v -0.332833 0.957365 -0.277345
v -0.280389 0.94396 -0.217171
v -0.332833 0.959298 -0.197345
v -0.385671 0.995443 -0.180653
v -0.385671 0.993511 -0.260653
v -0.291757 0.973847 -0.395146
v -0.225977 0.975238 -0.402074
v -0.252987 0.948229 -0.348056
v -0.243092 0.942924 -0.25517
f 1 2 3
f 2 4 5
f 3 5 6
f 2 5 3
f 4 7 8
f 7 9 10
f 8 10 11
f 7 10 8
f 12 13 14
f 13 15 16
f 14 16 17
f 13 16 14
f 4 8 5
f 8 11 18
f 5 18 6
f 8 18 5
f 1 3 19
f 3 6 20
f 19 20 21
f 3 20 19
f 12 14 22
f 14 17 23
f 22 23 24
f 14 23 22
f 21 25 26
f 27 24 28
f 29 28 30
f 27 28 29
f 6 31 20
f 22 24 27
f 20 25 21
f 31 25 20
f 1 19 32
f 19 21 33
f 32 33 34
f 19 33 32
f 21 26 35
f 26 36 37
f 35 37 38
f 26 37 35
f 34 39 40
f 39 38 41
f 40 41 42
f 39 41 40
f 21 35 33
f 35 38 39
f 33 39 34
f 35 39 33
f 1 32 43
f 32 34 44
f 43 44 45
f 32 44 43
f 34 40 46
f 40 42 47
f 46 47 48
f 40 47 46
f 45 49 50
f 49 48 51
f 50 51 52
f 49 51 50
f 34 46 44
f 46 48 49
f 44 49 45
f 46 49 44
f 1 43 2
f 43 45 53
f 2 53 4
f 43 53 2
f 45 50 54
f 50 52 55
f 54 55 56
f 50 55 54
f 4 57 7
f 57 56 58
f 7 58 9
f 57 58 7
f 45 54 53
f 54 56 57
f 53 57 4
f 54 57 53
f 9 59 10
f 60 61 62
f 63 62 15
f 60 62 63
f 61 64 65
f 64 66 67
f 65 67 68
f 64 67 65
f 15 69 16
f 69 68 70
f 16 70 17
f 69 70 16
f 61 65 62
f 65 68 69
f 62 69 15
f 65 69 62
f 17 70 71
f 70 68 72
f 71 72 73
f 70 72 71
f 68 67 74
f 67 66 75
f 74 75 76
f 67 75 74
f 73 77 78
f 77 76 79
f 78 79 80
f 77 79 78
f 68 74 72
f 74 76 77
f 72 77 73
f 74 77 72
f 17 71 23
f 71 73 81
f 23 81 24
f 71 81 23
f 73 78 82
f 78 80 83
f 82 83 84
f 78 83 82
f 24 85 28
f 85 84 86
f 28 86 30
f 85 86 28
f 73 82 81
f 82 84 85
f 81 85 24
f 82 85 81
f 30 86 87
f 86 84 88
f 87 88 89
f 86 88 87
f 84 83 90
f 83 80 91
f 90 91 92
f 83 91 90
f 89 93 94
f 93 92 95
f 94 95 96
f 93 95 94
f 84 90 88
f 90 92 93
f 88 93 89
f 90 93 88
f 30 87 97
f 87 89 98
f 37 99 38
f 87 98 97
f 89 94 100
f 94 96 101
f 102 103 104
f 94 101 100
f 38 105 41
f 105 104 106
f 41 106 42
f 105 106 41
f 89 100 98
f 102 104 105
f 99 105 38
f 102 105 99
f 42 106 107
f 106 104 108
f 107 108 109
f 106 108 107
f 104 103 110
f 101 96 111
f 110 112 113
f 103 112 110
f 109 114 115
f 114 113 116
f 115 116 117
f 114 116 115
f 104 110 108
f 110 113 114
f 108 114 109
f 110 114 108
f 42 107 47
f 107 109 118
f 47 118 48
f 107 118 47
f 109 115 119
f 115 117 120
f 119 120 121
f 115 120 119
f 48 122 51
f 122 121 123
f 51 123 52
f 122 123 51
f 109 119 118
f 119 121 122
f 118 122 48
f 119 122 118
f 52 123 124
f 123 121 125
f 124 125 126
f 123 125 124
f 121 120 127
f 120 117 128
f 127 128 129
f 120 128 127
f 126 130 131
f 130 129 132
f 131 132 133
f 130 132 131
f 121 127 125
f 127 129 130
f 125 130 126
f 127 130 125
f 52 124 55
f 124 126 134
f 55 134 56
f 124 134 55
f 126 131 135
f 131 133 136
f 135 136 137
f 131 136 135
f 56 138 58
f 138 137 139
f 58 139 9
f 138 139 58
f 126 135 134
f 135 137 138
f 134 138 56
f 135 138 134
f 9 139 59
f 139 137 140
f 60 141 61
f 139 140 59
f 137 136 142
f 136 133 143
f 144 145 146
f 136 143 142
f 61 147 64
f 147 146 148
f 64 148 66
f 147 148 64
f 137 142 140
f 144 146 147
f 141 147 61
f 144 147 141
f 149 150 151
f 150 152 153
f 151 153 154
f 150 153 151
f 152 155 156
f 155 80 79
f 156 79 76
f 155 79 156
f 154 157 158
f 157 76 75
f 158 75 66
f 157 75 158
f 152 156 153
f 156 76 157
f 153 157 154
f 156 157 153
f 149 159 150
f 159 160 161
f 150 161 152
f 159 161 150
f 160 162 163
f 162 96 95
f 163 95 92
f 162 95 163
f 152 164 155
f 164 92 91
f 155 91 80
f 164 91 155
f 160 163 161
f 163 92 164
f 161 164 152
f 163 164 161
f 149 165 159
f 165 166 167
f 159 167 160
f 165 167 159
f 168 169 170
f 169 117 116
f 170 116 113
f 169 116 170
f 160 171 162
f 171 172 111
f 162 111 96
f 171 111 162
f 166 173 167
f 173 172 171
f 167 171 160
f 173 171 167
f 149 174 165
f 174 175 176
f 165 176 166
f 174 176 165
f 175 177 178
f 179 133 132
f 180 132 129
f 179 132 180
f 168 181 169
f 181 129 128
f 169 128 117
f 181 128 169
f 175 178 176
f 180 129 181
f 176 182 166
f 178 182 176
f 149 151 174
f 151 154 183
f 174 183 175
f 151 183 174
f 154 158 184
f 158 66 148
f 184 148 146
f 158 148 184
f 175 185 177
f 185 146 145
f 177 145 186
f 185 145 177
f 154 184 183
f 184 146 185
f 183 185 175
f 184 185 183
f 12 6 13
f 13 6 18
f 13 18 15
f 15 18 11
f 22 31 12
f 12 31 6
f 30 36 29
f 29 36 26
f 29 26 27
f 27 26 25
f 27 25 22
f 22 25 31
f 15 11 63
f 63 11 10
f 63 10 60
f 60 10 59
f 97 37 30
f 30 37 36
f 98 99 97
f 97 99 37
f 101 103 100
f 100 103 102
f 100 102 98
f 98 102 99
f 111 112 101
f 101 112 103
f 60 59 141
f 141 59 140
f 144 142 145
f 145 142 143
f 141 140 144
f 144 140 142
f 172 113 111
f 111 113 112
f 166 168 173
f 173 168 170
f 173 170 172
f 172 170 113
f 177 179 178
f 178 179 180
f 182 181 166
f 166 181 168
f 178 180 182
f 182 180 181
f 145 143 186
f 186 143 133
f 186 133 177
f 177 133 179
