v -0.133443 1.2795 -0.0124429
v -0.0985731 1.23569 -0.0169173
v -0.104156 1.28447 -0.0601245
v -0.0753065 1.18625 -0.0299999
v -0.0719114 1.23685 -0.0685553
v -0.0860467 1.28012 -0.113125
v -0.0654143 1.13497 -0.0506949
v -0.0521981 1.17698 -0.0886365
v -0.0696495 1.08574 -0.0774268
v -0.0515067 1.12456 -0.113756
v -0.0485499 1.16623 -0.151322
v -0.0578446 1.22632 -0.132338
v -0.0804945 1.26677 -0.167411
v -0.0578446 1.20969 -0.212338
v -0.0485499 1.1496 -0.231322
v -0.0610043 1.19094 -0.267265
v -0.0804945 1.25014 -0.247411
v -0.0879217 1.2288 -0.298848
v -0.156396 1.32021 -0.0436208
v -0.130396 1.32235 -0.0955644
v -0.18655 1.34887 -0.0813742
v -0.116329 1.31182 -0.159347
v -0.118827 1.27546 -0.293968
v -0.116329 1.29519 -0.239347
v -0.159793 1.31221 -0.282696
v -0.169166 1.34796 -0.142655
v -0.221611 1.3633 -0.122829
v -0.169166 1.33133 -0.222655
v -0.207703 1.33626 -0.26589
v -0.207703 1.35289 -0.18589
v -0.258908 1.3624 -0.16483
v -0.183099 1.29351 0.00978623
v -0.210242 1.33148 -0.0248537
v -0.237924 1.2975 0.0213744
v -0.249013 1.3571 -0.0719439
v -0.286646 1.36193 -0.11598
v -0.311671 1.34622 -0.0681965
v -0.276022 1.33009 -0.0179257
v -0.293745 1.29117 0.0214394
v -0.332077 1.3165 -0.0251181
v -0.346311 1.275 0.00997642
v -0.147363 1.24127 0.0262899
v -0.201106 1.25163 0.045857
v -0.169172 1.19699 0.0531255
v -0.266886 1.25024 0.0527849
v -0.323044 1.23755 0.0447927
v -0.294293 1.19435 0.0663032
v -0.230741 1.19741 0.0694775
v -0.19721 1.15005 0.0660209
v -0.262246 1.14868 0.0728704
v -0.229343 1.10401 0.0639946
v -0.115613 1.19315 0.0188479
v -0.145248 1.13892 0.0424684
v -0.17772 1.09085 0.0461669
v -0.131675 1.0831 0.0149289
v -0.0958997 1.13328 -0.00123324
v -0.0947139 1.08136 -0.0273416
v -0.0722108 1.06451 -0.129377
v -0.0722108 1.04788 -0.209377
v -0.0883821 1.03407 -0.261374
v -0.0590724 1.08908 -0.248219
v -0.0515067 1.10793 -0.193756
v -0.116932 1.02873 -0.309461
v -0.0856599 1.07769 -0.30772
v -0.155688 1.03226 -0.349976
v -0.122515 1.07752 -0.352668
v -0.0991223 1.12794 -0.3445
v -0.0647188 1.13843 -0.29192
v -0.087291 1.17968 -0.326093
v -0.123027 1.23192 -0.342596
v -0.127452 1.17988 -0.368114
v -0.167875 1.22844 -0.376251
v -0.148393 1.11914 -0.383913
v -0.178955 1.06971 -0.384793
v -0.207707 1.11291 -0.406303
v -0.184538 1.17198 -0.400606
v -0.21905 1.21863 -0.39725
v -0.239754 1.15859 -0.41287
v -0.272657 1.20325 -0.403994
v -0.159348 1.27676 -0.335622
v -0.216434 1.26886 -0.368114
v -0.27129 1.25437 -0.380746
v -0.268378 1.29719 -0.3445
v -0.212186 1.31291 -0.318929
v -0.264143 1.32845 -0.298015
v -0.258908 1.34577 -0.24483
v -0.312933 1.33404 -0.254808
v -0.31862 1.31065 -0.30772
v -0.362243 1.30793 -0.261374
v -0.322869 1.26661 -0.356904
v -0.32428 1.21641 -0.386167
v -0.370325 1.22416 -0.354929
v -0.372217 1.27226 -0.313203
v -0.403086 1.26945 -0.26403
v -0.407286 1.22591 -0.312658
v -0.43235 1.22152 -0.262573
v -0.312933 1.35067 -0.174808
v -0.362243 1.32456 -0.181374
v -0.341381 1.34432 -0.124517
v -0.394977 1.28929 -0.21
v -0.429789 1.24275 -0.210623
v -0.394977 1.30592 -0.13
v -0.429789 1.25938 -0.130623
v -0.413618 1.27319 -0.0786256
v -0.403086 1.28608 -0.18403
v -0.36839 1.31731 -0.0704989
v -0.385067 1.27853 -0.0305389
v -0.379485 1.22974 0.0126683
v -0.41634 1.22957 -0.0322802
v -0.402878 1.17932 0.00449978
v -0.442927 1.21818 -0.0917812
v -0.450493 1.1827 -0.226244
v -0.450493 1.19933 -0.146244
v -0.45345 1.15766 -0.108678
v -0.437281 1.16883 -0.0480796
v -0.414709 1.12758 -0.0139073
v -0.440996 1.11632 -0.0727352
v -0.414078 1.07846 -0.0411517
v -0.353607 1.18812 0.0439134
v -0.374548 1.12738 0.028114
v -0.378973 1.07534 0.00259641
v -0.334125 1.07882 0.0362508
v -0.317462 1.13528 0.0606059
v -0.28295 1.08863 0.0572497
v -0.23071 1.05289 0.040746
v -0.285565 1.0384 0.0281139
v -0.233622 1.01007 0.00449976
v -0.342652 1.0305 -0.00437802
v -0.383173 1.0318 -0.0460317
v -0.342206 0.995047 -0.0573037
v -0.289814 0.994355 -0.0210706
v -0.237856 0.978809 -0.0419851
v -0.294297 0.971 -0.0741095
v -0.243092 0.961489 -0.0951699
v -0.179131 1.04065 0.0169043
v -0.18338 0.996607 -0.0322802
v -0.189067 0.973226 -0.0851923
v -0.139756 0.999329 -0.0786256
v -0.129783 1.035 -0.0267973
v -0.0989143 1.03781 -0.0759698
v -0.107022 1.01797 -0.13
v -0.107022 1.00134 -0.21
v -0.0989143 1.02118 -0.15597
v -0.139756 0.982697 -0.158626
v -0.189067 0.956594 -0.165192
v -0.160619 0.962941 -0.215483
v -0.243092 0.944857 -0.17517
v -0.215353 0.945335 -0.22402
v -0.190329 0.961037 -0.271803
v -0.13361 0.98995 -0.269501
v -0.169923 0.990766 -0.314882
v -0.368557 1.02776 -0.327557
v -0.354637 1.06599 -0.36629
v -0.318901 1.01375 -0.349786
v -0.332828 1.11027 -0.393125
v -0.300894 1.05563 -0.385857
v -0.264076 1.00976 -0.361374
v -0.30479 1.15721 -0.406021
v -0.271259 1.10986 -0.409477
v -0.235114 1.05702 -0.392785
v -0.208255 1.01609 -0.361439
v -0.403427 1.07158 -0.323083
v -0.426693 1.12101 -0.31
v -0.386387 1.11411 -0.358848
v -0.436586 1.17229 -0.289305
v -0.4061 1.17399 -0.338767
v -0.356752 1.16834 -0.382468
v -0.397844 1.02279 -0.279875
v -0.415953 1.02714 -0.226875
v -0.430088 1.07041 -0.271445
v -0.421505 1.04049 -0.172589
v -0.444155 1.08094 -0.207662
v -0.421505 1.05713 -0.0925892
v -0.444155 1.09757 -0.127662
v -0.449802 1.13028 -0.251363
v -0.45345 1.14103 -0.188678
v -0.345604 0.98705 -0.296379
v -0.31545 0.95839 -0.258626
v -0.371604 0.984916 -0.244436
v -0.280389 0.94396 -0.217171
v -0.332833 0.959298 -0.197345
v -0.294297 0.954368 -0.15411
v -0.332833 0.97593 -0.117345
v -0.385671 0.995443 -0.180653
v -0.385671 1.01208 -0.100653
v -0.291757 0.97578 -0.315146
v -0.225977 0.977171 -0.322074
v -0.252987 0.950162 -0.268056
f 1 2 3
f 2 4 5
f 3 5 6
f 2 5 3
f 4 7 8
f 7 9 10
f 8 10 11
f 7 10 8
f 6 12 13
f 14 15 16
f 17 16 18
f 14 16 17
f 4 8 5
f 8 11 12
f 5 12 6
f 8 12 5
f 1 3 19
f 3 6 20
f 19 20 21
f 3 20 19
f 6 13 22
f 17 18 23
f 24 23 25
f 17 23 24
f 21 26 27
f 28 25 29
f 27 30 31
f 26 30 27
f 6 22 20
f 24 25 28
f 20 26 21
f 22 26 20
f 1 19 32
f 19 21 33
f 32 33 34
f 19 33 32
f 21 27 35
f 27 31 36
f 35 36 37
f 27 36 35
f 34 38 39
f 38 37 40
f 39 40 41
f 38 40 39
f 21 35 33
f 35 37 38
f 33 38 34
f 35 38 33
f 1 32 42
f 32 34 43
f 42 43 44
f 32 43 42
f 34 39 45
f 39 41 46
f 45 46 47
f 39 46 45
f 44 48 49
f 48 47 50
f 49 50 51
f 48 50 49
f 34 45 43
f 45 47 48
f 43 48 44
f 45 48 43
f 1 42 2
f 42 44 52
f 2 52 4
f 42 52 2
f 44 49 53
f 49 51 54
f 53 54 55
f 49 54 53
f 4 56 7
f 56 55 57
f 7 57 9
f 56 57 7
f 44 53 52
f 53 55 56
f 52 56 4
f 53 56 52
f 9 58 10
f 59 60 61
f 62 61 15
f 59 61 62
f 60 63 64
f 63 65 66
f 64 66 67
f 63 66 64
f 15 68 16
f 68 67 69
f 16 69 18
f 68 69 16
f 60 64 61
f 64 67 68
f 61 68 15
f 64 68 61
f 18 69 70
f 69 67 71
f 70 71 72
f 69 71 70
f 67 66 73
f 66 65 74
f 73 74 75
f 66 74 73
f 72 76 77
f 76 75 78
f 77 78 79
f 76 78 77
f 67 73 71
f 73 75 76
f 71 76 72
f 73 76 71
f 18 70 23
f 70 72 80
f 23 80 25
f 70 80 23
f 72 77 81
f 77 79 82
f 81 82 83
f 77 82 81
f 25 84 29
f 84 83 85
f 29 85 86
f 84 85 29
f 72 81 80
f 81 83 84
f 80 84 25
f 81 84 80
f 86 85 87
f 85 83 88
f 87 88 89
f 85 88 87
f 83 82 90
f 82 79 91
f 90 91 92
f 82 91 90
f 89 93 94
f 93 92 95
f 94 95 96
f 93 95 94
f 83 90 88
f 90 92 93
f 88 93 89
f 90 93 88
f 31 97 36
f 97 98 99
f 36 99 37
f 97 99 36
f 89 94 100
f 94 96 101
f 102 103 104
f 105 103 102
f 37 106 40
f 106 104 107
f 40 107 41
f 106 107 40
f 98 102 99
f 102 104 106
f 99 106 37
f 102 106 99
f 41 107 108
f 107 104 109
f 108 109 110
f 107 109 108
f 104 103 111
f 101 96 112
f 111 113 114
f 103 113 111
f 110 115 116
f 115 114 117
f 116 117 118
f 115 117 116
f 104 111 109
f 111 114 115
f 109 115 110
f 111 115 109
f 41 108 46
f 108 110 119
f 46 119 47
f 108 119 46
f 110 116 120
f 116 118 121
f 120 121 122
f 116 121 120
f 47 123 50
f 123 122 124
f 50 124 51
f 123 124 50
f 110 120 119
f 120 122 123
f 119 123 47
f 120 123 119
f 51 124 125
f 124 122 126
f 125 126 127
f 124 126 125
f 122 121 128
f 121 118 129
f 128 129 130
f 121 129 128
f 127 131 132
f 131 130 133
f 132 133 134
f 131 133 132
f 122 128 126
f 128 130 131
f 126 131 127
f 128 131 126
f 51 125 54
f 125 127 135
f 54 135 55
f 125 135 54
f 127 132 136
f 132 134 137
f 136 137 138
f 132 137 136
f 55 139 57
f 139 138 140
f 57 140 9
f 139 140 57
f 127 136 135
f 136 138 139
f 135 139 55
f 136 139 135
f 9 140 58
f 140 138 141
f 59 142 60
f 143 142 59
f 144 145 146
f 145 147 148
f 146 148 149
f 145 148 146
f 60 150 63
f 150 149 151
f 63 151 65
f 150 151 63
f 144 146 142
f 146 149 150
f 142 150 60
f 146 150 142
f 152 153 154
f 153 155 156
f 154 156 157
f 153 156 154
f 155 158 159
f 158 79 78
f 159 78 75
f 158 78 159
f 157 160 161
f 160 75 74
f 161 74 65
f 160 74 161
f 155 159 156
f 159 75 160
f 156 160 157
f 159 160 156
f 152 162 153
f 162 163 164
f 153 164 155
f 162 164 153
f 163 165 166
f 165 96 95
f 166 95 92
f 165 95 166
f 155 167 158
f 167 92 91
f 158 91 79
f 167 91 158
f 163 166 164
f 166 92 167
f 164 167 155
f 166 167 164
f 152 168 162
f 168 169 170
f 162 170 163
f 168 170 162
f 169 171 172
f 173 118 117
f 174 117 114
f 173 117 174
f 163 175 165
f 175 176 112
f 165 112 96
f 175 112 165
f 169 172 170
f 172 176 175
f 170 175 163
f 172 175 170
f 152 177 168
f 177 178 179
f 168 179 169
f 177 179 168
f 178 180 181
f 180 147 182
f 183 133 130
f 180 182 181
f 169 184 171
f 185 130 129
f 173 129 118
f 185 129 173
f 178 181 179
f 183 130 185
f 179 184 169
f 181 184 179
f 152 154 177
f 154 157 186
f 177 186 178
f 154 186 177
f 157 161 187
f 161 65 151
f 187 151 149
f 161 151 187
f 178 188 180
f 188 149 148
f 180 148 147
f 188 148 180
f 157 187 186
f 187 149 188
f 186 188 178
f 187 188 186
f 14 12 15
f 15 12 11
f 17 13 14
f 14 13 12
f 24 22 17
f 17 22 13
f 29 30 28
f 28 30 26
f 28 26 24
f 24 26 22
f 15 11 62
f 62 11 10
f 62 10 59
f 59 10 58
f 86 31 29
f 29 31 30
f 87 97 86
f 86 97 31
f 89 98 87
f 87 98 97
f 94 105 100
f 100 105 102
f 100 102 89
f 89 102 98
f 101 103 94
f 94 103 105
f 112 113 101
f 101 113 103
f 143 140 142
f 142 140 141
f 59 58 143
f 143 58 140
f 144 138 145
f 145 138 137
f 145 137 147
f 147 137 134
f 142 141 144
f 144 141 138
f 171 173 172
f 172 173 174
f 176 114 112
f 112 114 113
f 172 174 176
f 176 174 114
f 147 134 182
f 182 134 133
f 182 133 181
f 181 133 183
f 184 185 171
f 171 185 173
f 181 183 184
f 184 183 185
