v -0.133443 1.29024 -0.0124429
v -0.0985731 1.24642 -0.0169173
v -0.104156 1.29521 -0.0601245
v -0.0753065 1.19699 -0.0299999
v -0.0719114 1.24759 -0.0685553
v -0.0860467 1.29086 -0.113125
v -0.0654143 1.14571 -0.0506949
v -0.0521981 1.18771 -0.0886365
v -0.0654143 1.13497 -0.0506949
v -0.0696495 1.08574 -0.0774268
v -0.0515067 1.12456 -0.113756
v -0.0521981 1.17698 -0.0886365
v -0.0485499 1.16623 -0.151322
v -0.0578446 1.23706 -0.132338
v -0.0804945 1.2775 -0.167411
v -0.0485499 1.17697 -0.151322
v -0.0610043 1.21831 -0.187265
v -0.0879217 1.25617 -0.218848
v -0.156396 1.33095 -0.0436208
v -0.130396 1.33308 -0.0955644
v -0.18655 1.35961 -0.0813742
v -0.116329 1.32256 -0.159347
v -0.118827 1.30283 -0.213968
v -0.159793 1.33958 -0.202696
v -0.169166 1.3587 -0.142655
v -0.221611 1.37404 -0.122829
v -0.207703 1.36363 -0.18589
v -0.258908 1.37314 -0.16483
v -0.183099 1.30424 0.00978623
v -0.210242 1.34222 -0.0248537
v -0.237924 1.30823 0.0213744
v -0.249013 1.36784 -0.0719439
v -0.286646 1.37266 -0.11598
v -0.311671 1.35696 -0.0681965
v -0.276022 1.34083 -0.0179257
v -0.293745 1.3019 0.0214394
v -0.332077 1.32723 -0.0251181
v -0.346311 1.28574 0.00997642
v -0.147363 1.252 0.0262899
v -0.201106 1.26237 0.045857
v -0.169172 1.20773 0.0531255
v -0.266886 1.26098 0.0527849
v -0.323044 1.24829 0.0447927
v -0.294293 1.20508 0.0663032
v -0.230741 1.20814 0.0694775
v -0.19721 1.16079 0.0660209
v -0.262246 1.15941 0.0728704
v -0.19721 1.15005 0.0660209
v -0.262246 1.14868 0.0728704
v -0.229343 1.10401 0.0639946
v -0.115613 1.20389 0.0188479
v -0.145248 1.14966 0.0424684
v -0.17772 1.09085 0.0461669
v -0.145248 1.13892 0.0424684
v -0.131675 1.0831 0.0149289
v -0.0753065 1.18625 -0.0299999
v -0.0958997 1.13328 -0.00123324
v -0.0947139 1.08136 -0.0273416
v -0.0958997 1.14401 -0.00123324
v -0.115613 1.19315 0.0188479
v -0.0722108 1.06451 -0.129377
v -0.0883821 1.0507 -0.181374
v -0.0590724 1.10571 -0.168219
v -0.116932 1.04536 -0.229461
v -0.0856599 1.09433 -0.22772
v -0.155688 1.04889 -0.269976
v -0.122515 1.09415 -0.272668
v -0.0991223 1.14457 -0.2645
v -0.0647188 1.1658 -0.21192
v -0.0991223 1.15531 -0.2645
v -0.087291 1.20705 -0.246093
v -0.0647188 1.15506 -0.21192
v -0.123027 1.25929 -0.262596
v -0.127452 1.20725 -0.288114
v -0.167875 1.25581 -0.296251
v -0.148393 1.13578 -0.303913
v -0.178955 1.08634 -0.304793
v -0.207707 1.12955 -0.326303
v -0.184538 1.19935 -0.320606
v -0.21905 1.246 -0.31725
v -0.207707 1.14028 -0.326303
v -0.239754 1.18595 -0.33287
v -0.272657 1.23062 -0.323994
v -0.127452 1.19651 -0.288114
v -0.184538 1.18861 -0.320606
v -0.148393 1.14651 -0.303913
v -0.159348 1.30413 -0.255622
v -0.216434 1.29623 -0.288114
v -0.27129 1.28174 -0.300746
v -0.268378 1.32456 -0.2645
v -0.212186 1.34028 -0.238929
v -0.264143 1.35582 -0.218015
v -0.312933 1.3614 -0.174808
v -0.31862 1.33802 -0.22772
v -0.362243 1.3353 -0.181374
v -0.322869 1.29398 -0.276904
v -0.32428 1.24378 -0.306167
v -0.370325 1.25153 -0.274929
v -0.372217 1.29963 -0.233203
v -0.403086 1.29682 -0.18403
v -0.407286 1.25327 -0.232658
v -0.43235 1.24889 -0.182573
v -0.341381 1.35506 -0.124517
v -0.394977 1.31666 -0.13
v -0.429789 1.27012 -0.130623
v -0.413618 1.28393 -0.0786256
v -0.36839 1.32805 -0.0704989
v -0.385067 1.28927 -0.0305389
v -0.379485 1.24048 0.0126683
v -0.41634 1.2403 -0.0322802
v -0.402878 1.19006 0.00449978
v -0.442927 1.22892 -0.0917812
v -0.450493 1.21007 -0.146244
v -0.45345 1.1684 -0.108678
v -0.402878 1.17932 0.00449978
v -0.437281 1.16883 -0.0480796
v -0.414709 1.12758 -0.0139073
v -0.45345 1.15766 -0.108678
v -0.440996 1.11632 -0.0727352
v -0.414078 1.07846 -0.0411517
v -0.437281 1.17957 -0.0480796
v -0.353607 1.19885 0.0439134
v -0.374548 1.12738 0.028114
v -0.378973 1.07534 0.00259641
v -0.334125 1.07882 0.0362508
v -0.294293 1.19435 0.0663032
v -0.317462 1.13528 0.0606059
v -0.28295 1.08863 0.0572497
v -0.374548 1.13812 0.028114
v -0.317462 1.14602 0.0606059
v -0.353607 1.18812 0.0439134
v -0.23071 1.05289 0.040746
v -0.285565 1.0384 0.0281139
v -0.233622 1.01007 0.00449976
v -0.342652 1.0305 -0.00437802
v -0.383173 1.0318 -0.0460317
v -0.342206 0.995047 -0.0573037
v -0.289814 0.994355 -0.0210706
v -0.237856 0.978809 -0.0419851
v -0.294297 0.971 -0.0741095
v -0.243092 0.961489 -0.0951699
v -0.179131 1.04065 0.0169043
v -0.18338 0.996607 -0.0322802
v -0.189067 0.973226 -0.0851923
v -0.139756 0.999329 -0.0786256
v -0.129783 1.035 -0.0267973
v -0.0989143 1.03781 -0.0759698
v -0.107022 1.01797 -0.13
v -0.160619 0.979573 -0.135483
v -0.215353 0.961967 -0.14402
v -0.190329 0.977669 -0.191803
v -0.13361 1.00658 -0.189501
v -0.169923 1.0074 -0.234882
v -0.368557 1.04439 -0.247557
v -0.354637 1.08263 -0.28629
v -0.318901 1.03039 -0.269786
v -0.332828 1.1269 -0.313125
v -0.300894 1.07226 -0.305857
v -0.264076 1.0264 -0.281374
v -0.30479 1.17384 -0.326021
v -0.271259 1.12649 -0.329477
v -0.30479 1.18458 -0.326021
v -0.239754 1.17522 -0.33287
v -0.235114 1.07365 -0.312785
v -0.208255 1.03273 -0.281439
v -0.403427 1.08821 -0.243083
v -0.426693 1.13764 -0.23
v -0.386387 1.13074 -0.278848
v -0.426693 1.14838 -0.23
v -0.436586 1.19966 -0.209305
v -0.4061 1.20136 -0.258767
v -0.356752 1.18497 -0.302468
v -0.356752 1.19571 -0.302468
v -0.4061 1.19062 -0.258767
v -0.386387 1.14148 -0.278848
v -0.397844 1.03942 -0.199875
v -0.415953 1.04377 -0.146875
v -0.430088 1.08704 -0.191445
v -0.421505 1.05713 -0.0925892
v -0.444155 1.09757 -0.127662
v -0.449802 1.14692 -0.171363
v -0.436586 1.18892 -0.209305
v -0.449802 1.15765 -0.171363
v -0.345604 1.00368 -0.216379
v -0.31545 0.975022 -0.178626
v -0.371604 1.00155 -0.164436
v -0.280389 0.960592 -0.137171
v -0.332833 0.97593 -0.117345
v -0.385671 1.01208 -0.100653
v -0.291757 0.992412 -0.235146
v -0.225977 0.993803 -0.242074
v -0.252987 0.966794 -0.188056
f 1 2 3
f 2 4 5
f 3 5 6
f 2 5 3
f 4 7 8
f 9 10 11
f 12 11 13
f 9 11 12
f 6 14 15
f 14 16 17
f 15 17 18
f 14 17 15
f 4 8 5
f 8 16 14
f 5 14 6
f 8 14 5
f 1 3 19
f 3 6 20
f 19 20 21
f 3 20 19
f 6 15 22
f 15 18 23
f 22 23 24
f 15 23 22
f 21 25 26
f 25 24 27
f 26 27 28
f 25 27 26
f 6 22 20
f 22 24 25
f 20 25 21
f 22 25 20
f 1 19 29
f 19 21 30
f 29 30 31
f 19 30 29
f 21 26 32
f 26 28 33
f 32 33 34
f 26 33 32
f 31 35 36
f 35 34 37
f 36 37 38
f 35 37 36
f 21 32 30
f 32 34 35
f 30 35 31
f 32 35 30
f 1 29 39
f 29 31 40
f 39 40 41
f 29 40 39
f 31 36 42
f 36 38 43
f 42 43 44
f 36 43 42
f 41 45 46
f 45 44 47
f 48 49 50
f 45 47 46
f 31 42 40
f 42 44 45
f 40 45 41
f 42 45 40
f 1 39 2
f 39 41 51
f 2 51 4
f 39 51 2
f 41 46 52
f 48 50 53
f 54 53 55
f 48 53 54
f 56 57 9
f 57 55 58
f 9 58 10
f 57 58 9
f 41 52 51
f 54 55 57
f 51 59 4
f 54 57 60
f 10 61 11
f 61 62 63
f 11 63 13
f 61 63 11
f 62 64 65
f 64 66 67
f 65 67 68
f 64 67 65
f 16 69 17
f 69 70 71
f 17 71 18
f 69 71 17
f 62 65 63
f 65 68 72
f 63 72 13
f 65 72 63
f 18 71 73
f 71 70 74
f 73 74 75
f 71 74 73
f 68 67 76
f 67 66 77
f 76 77 78
f 67 77 76
f 75 79 80
f 79 81 82
f 80 82 83
f 79 82 80
f 68 76 84
f 76 78 85
f 74 79 75
f 86 79 74
f 18 73 23
f 73 75 87
f 23 87 24
f 73 87 23
f 75 80 88
f 80 83 89
f 88 89 90
f 80 89 88
f 24 91 27
f 91 90 92
f 27 92 28
f 91 92 27
f 75 88 87
f 88 90 91
f 87 91 24
f 88 91 87
f 28 92 93
f 92 90 94
f 93 94 95
f 92 94 93
f 90 89 96
f 89 83 97
f 96 97 98
f 89 97 96
f 95 99 100
f 99 98 101
f 100 101 102
f 99 101 100
f 90 96 94
f 96 98 99
f 94 99 95
f 96 99 94
f 28 93 33
f 93 95 103
f 33 103 34
f 93 103 33
f 95 100 104
f 100 102 105
f 104 105 106
f 100 105 104
f 34 107 37
f 107 106 108
f 37 108 38
f 107 108 37
f 95 104 103
f 104 106 107
f 103 107 34
f 104 107 103
f 38 108 109
f 108 106 110
f 109 110 111
f 108 110 109
f 106 105 112
f 105 102 113
f 112 113 114
f 105 113 112
f 115 116 117
f 116 118 119
f 117 119 120
f 116 119 117
f 106 112 110
f 112 114 121
f 110 121 111
f 112 121 110
f 38 109 43
f 109 111 122
f 43 122 44
f 109 122 43
f 115 117 123
f 117 120 124
f 123 124 125
f 117 124 123
f 126 127 49
f 127 125 128
f 49 128 50
f 127 128 49
f 111 129 122
f 123 125 127
f 122 130 44
f 123 127 131
f 50 128 132
f 128 125 133
f 132 133 134
f 128 133 132
f 125 124 135
f 124 120 136
f 135 136 137
f 124 136 135
f 134 138 139
f 138 137 140
f 139 140 141
f 138 140 139
f 125 135 133
f 135 137 138
f 133 138 134
f 135 138 133
f 50 132 53
f 132 134 142
f 53 142 55
f 132 142 53
f 134 139 143
f 139 141 144
f 143 144 145
f 139 144 143
f 55 146 58
f 146 145 147
f 58 147 10
f 146 147 58
f 134 143 142
f 143 145 146
f 142 146 55
f 143 146 142
f 10 147 61
f 147 145 148
f 61 148 62
f 147 148 61
f 145 144 149
f 144 141 150
f 149 150 151
f 144 150 149
f 62 152 64
f 152 151 153
f 64 153 66
f 152 153 64
f 145 149 148
f 149 151 152
f 148 152 62
f 149 152 148
f 154 155 156
f 155 157 158
f 156 158 159
f 155 158 156
f 157 160 161
f 162 83 82
f 161 163 78
f 160 163 161
f 159 164 165
f 164 78 77
f 165 77 66
f 164 77 165
f 157 161 158
f 161 78 164
f 158 164 159
f 161 164 158
f 154 166 155
f 166 167 168
f 155 168 157
f 166 168 155
f 169 170 171
f 170 102 101
f 171 101 98
f 170 101 171
f 157 172 160
f 173 98 97
f 162 97 83
f 173 97 162
f 167 174 168
f 171 98 173
f 168 172 157
f 171 173 175
f 154 176 166
f 176 177 178
f 166 178 167
f 176 178 166
f 177 179 180
f 179 120 119
f 180 119 118
f 179 119 180
f 167 181 182
f 183 114 113
f 170 113 102
f 183 113 170
f 177 180 178
f 180 118 181
f 178 181 167
f 180 181 178
f 154 184 176
f 184 185 186
f 176 186 177
f 184 186 176
f 185 187 188
f 187 141 140
f 188 140 137
f 187 140 188
f 177 189 179
f 189 137 136
f 179 136 120
f 189 136 179
f 185 188 186
f 188 137 189
f 186 189 177
f 188 189 186
f 154 156 184
f 156 159 190
f 184 190 185
f 156 190 184
f 159 165 191
f 165 66 153
f 191 153 151
f 165 153 191
f 185 192 187
f 192 151 150
f 187 150 141
f 192 150 187
f 159 191 190
f 191 151 192
f 190 192 185
f 191 192 190
f 13 16 12
f 12 16 8
f 12 8 9
f 9 8 7
f 48 46 49
f 49 46 47
f 54 52 48
f 48 52 46
f 56 4 57
f 57 4 59
f 9 7 56
f 56 7 4
f 57 59 60
f 60 59 51
f 60 51 54
f 54 51 52
f 68 70 72
f 72 70 69
f 72 69 13
f 13 69 16
f 76 86 84
f 84 86 74
f 84 74 68
f 68 74 70
f 78 81 85
f 85 81 79
f 85 79 76
f 76 79 86
f 115 111 116
f 116 111 121
f 116 121 118
f 118 121 114
f 123 129 115
f 115 129 111
f 126 44 127
f 127 44 130
f 49 47 126
f 126 47 44
f 127 130 131
f 131 130 122
f 131 122 123
f 123 122 129
f 163 82 78
f 78 82 81
f 160 162 163
f 163 162 82
f 172 173 160
f 160 173 162
f 167 169 174
f 174 169 171
f 174 171 168
f 168 171 175
f 168 175 172
f 172 175 173
f 181 183 182
f 182 183 170
f 182 170 167
f 167 170 169
f 118 114 181
f 181 114 183
