v -0.133443 1.29024 0.147557
v -0.0985731 1.24642 0.143083
v -0.104156 1.29521 0.0998755
v -0.0753065 1.19699 0.13
v -0.0719114 1.24759 0.0914447
v -0.0860467 1.29086 0.0468747
v -0.0654143 1.14571 0.109305
v -0.0521981 1.18771 0.0713636
v -0.0696495 1.09648 0.0825732
v -0.0515067 1.1353 0.0462439
v -0.0485499 1.17697 0.0086781
v -0.0860467 1.29086 -0.113125
v -0.0578446 1.23706 -0.132338
v -0.0804945 1.2775 -0.167411
v -0.0485499 1.17697 -0.151322
v -0.0610043 1.21831 -0.187265
v -0.0879217 1.25617 -0.218848
v -0.0578446 1.23706 0.027662
v -0.156396 1.33095 0.116379
v -0.130396 1.33308 0.0644356
v -0.18655 1.35961 0.0786258
v -0.116329 1.32256 -0.159347
v -0.118827 1.30283 -0.213968
v -0.159793 1.33958 -0.202696
v -0.169166 1.3587 0.0173454
v -0.221611 1.37404 0.0371708
v -0.169166 1.3587 -0.142655
v -0.207703 1.36363 -0.18589
v -0.221611 1.37404 -0.122829
v -0.258908 1.37314 -0.16483
v -0.116329 1.32256 0.000652889
v -0.130396 1.33308 -0.0955644
v -0.183099 1.30424 0.169786
v -0.210242 1.34222 0.135146
v -0.237924 1.30823 0.181374
v -0.249013 1.36784 0.0880561
v -0.286646 1.37266 -0.11598
v -0.286646 1.37266 0.0440204
v -0.311671 1.35696 0.0918035
v -0.276022 1.34083 0.142074
v -0.293745 1.3019 0.181439
v -0.332077 1.32723 0.134882
v -0.346311 1.28574 0.169976
v -0.147363 1.252 0.18629
v -0.201106 1.26237 0.205857
v -0.169172 1.20773 0.213125
v -0.266886 1.26098 0.212785
v -0.323044 1.24829 0.204793
v -0.294293 1.20508 0.226303
v -0.230741 1.20814 0.229477
v -0.19721 1.16079 0.226021
v -0.262246 1.15941 0.23287
v -0.229343 1.11475 0.223995
v -0.115613 1.20389 0.178848
v -0.145248 1.14966 0.202468
v -0.17772 1.10159 0.206167
v -0.131675 1.09384 0.174929
v -0.0958997 1.14401 0.158767
v -0.0947139 1.09209 0.132658
v -0.0722108 1.07525 0.0306232
v -0.0722108 1.07525 -0.129377
v -0.0883821 1.06144 -0.181374
v -0.0590724 1.11645 -0.168219
v -0.0515067 1.1353 -0.113756
v -0.116932 1.0561 -0.229461
v -0.0856599 1.10506 -0.22772
v -0.155688 1.05963 -0.269976
v -0.122515 1.10489 -0.272668
v -0.0991223 1.15531 -0.2645
v -0.0647188 1.1658 -0.21192
v -0.087291 1.20705 -0.246093
v -0.123027 1.25929 -0.262596
v -0.127452 1.20725 -0.288114
v -0.167875 1.25581 -0.296251
v -0.148393 1.14651 -0.303913
v -0.178955 1.09708 -0.304793
v -0.207707 1.14028 -0.326303
v -0.184538 1.19935 -0.320606
v -0.21905 1.246 -0.31725
v -0.239754 1.18595 -0.33287
v -0.272657 1.23062 -0.323994
v -0.159348 1.30413 -0.255622
v -0.216434 1.29623 -0.288114
v -0.27129 1.28174 -0.300746
v -0.268378 1.32456 -0.2645
v -0.212186 1.34028 -0.238929
v -0.264143 1.35582 -0.218015
v -0.312933 1.3614 -0.174808
v -0.31862 1.33802 -0.22772
v -0.362243 1.3353 -0.181374
v -0.322869 1.29398 -0.276904
v -0.32428 1.24378 -0.306167
v -0.370325 1.25153 -0.274929
v -0.372217 1.29963 -0.233203
v -0.403086 1.29682 -0.18403
v -0.407286 1.25327 -0.232658
v -0.43235 1.24889 -0.182573
v -0.341381 1.35506 -0.124517
v -0.341381 1.35506 0.035483
v -0.394977 1.31666 -0.13
v -0.429789 1.27012 -0.130623
v -0.394977 1.31666 0.0300001
v -0.429789 1.27012 0.029377
v -0.413618 1.28393 0.0813744
v -0.36839 1.32805 0.0895012
v -0.385067 1.28927 0.129461
v -0.379485 1.24048 0.172668
v -0.41634 1.2403 0.12772
v -0.402878 1.19006 0.1645
v -0.442927 1.22892 0.0682188
v -0.450493 1.21007 -0.146244
v -0.450493 1.21007 0.0137563
v -0.45345 1.1684 0.0513221
v -0.437281 1.17957 0.11192
v -0.414709 1.13832 0.146093
v -0.440996 1.12706 0.0872648
v -0.414078 1.08919 0.118848
v -0.353607 1.19885 0.203913
v -0.374548 1.13812 0.188114
v -0.378973 1.08608 0.162596
v -0.334125 1.08956 0.196251
v -0.317462 1.14602 0.220606
v -0.28295 1.09936 0.21725
v -0.23071 1.06363 0.200746
v -0.285565 1.04914 0.188114
v -0.233622 1.02081 0.1645
v -0.342652 1.04124 0.155622
v -0.383173 1.04254 0.113968
v -0.342206 1.00578 0.102696
v -0.289814 1.00509 0.138929
v -0.237856 0.989545 0.118015
v -0.294297 0.981737 0.0858905
v -0.243092 0.972226 0.0648301
v -0.179131 1.05139 0.176904
v -0.18338 1.00734 0.12772
v -0.189067 0.983963 0.0748077
v -0.139756 1.01007 0.0813744
v -0.129783 1.04574 0.133203
v -0.0989143 1.04855 0.0840303
v -0.107022 1.02871 0.0300001
v -0.107022 1.02871 -0.13
v -0.160619 0.99031 0.0245172
v -0.215353 0.972704 0.0159798
v -0.160619 0.99031 -0.135483
v -0.215353 0.972704 -0.14402
v -0.190329 0.988406 -0.191803
v -0.13361 1.01732 -0.189501
v -0.169923 1.01814 -0.234882
v -0.368557 1.05513 -0.247557
v -0.354637 1.09336 -0.28629
v -0.318901 1.04112 -0.269786
v -0.332828 1.13764 -0.313125
v -0.300894 1.083 -0.305857
v -0.264076 1.03713 -0.281374
v -0.30479 1.18458 -0.326021
v -0.271259 1.13722 -0.329477
v -0.235114 1.08439 -0.312785
v -0.208255 1.04346 -0.281439
v -0.403427 1.09895 -0.243083
v -0.426693 1.14838 -0.23
v -0.386387 1.14148 -0.278848
v -0.436586 1.19966 -0.209305
v -0.4061 1.20136 -0.258767
v -0.356752 1.19571 -0.302468
v -0.397844 1.05016 -0.199875
v -0.415953 1.05451 -0.146875
v -0.430088 1.09778 -0.191445
v -0.415953 1.05451 0.0131255
v -0.421505 1.06786 0.0674108
v -0.444155 1.10831 0.0323382
v -0.449802 1.15765 -0.171363
v -0.45345 1.1684 -0.108678
v -0.444155 1.10831 -0.127662
v -0.345604 1.01442 -0.216379
v -0.31545 0.985759 -0.178626
v -0.371604 1.01228 -0.164436
v -0.280389 0.971329 -0.137171
v -0.332833 0.986667 -0.117345
v -0.280389 0.971329 0.0228293
v -0.332833 0.986667 0.0426547
v -0.385671 1.02281 0.0593473
v -0.385671 1.02281 -0.100653
v -0.371604 1.01228 -0.00443548
v -0.291757 1.00315 -0.235146
v -0.225977 1.00454 -0.242074
v -0.252987 0.977531 -0.188056
f 1 2 3
f 2 4 5
f 3 5 6
f 2 5 3
f 4 7 8
f 7 9 10
f 8 10 11
f 7 10 8
f 12 13 14
f 13 15 16
f 14 16 17
f 13 16 14
f 4 8 5
f 8 11 18
f 5 18 6
f 8 18 5
f 1 3 19
f 3 6 20
f 19 20 21
f 3 20 19
f 12 14 22
f 14 17 23
f 22 23 24
f 14 23 22
f 21 25 26
f 27 24 28
f 29 28 30
f 27 28 29
f 6 31 20
f 22 24 27
f 20 25 21
f 22 27 32
f 1 19 33
f 19 21 34
f 33 34 35
f 19 34 33
f 21 26 36
f 29 30 37
f 36 38 39
f 26 38 36
f 35 40 41
f 40 39 42
f 41 42 43
f 40 42 41
f 21 36 34
f 36 39 40
f 34 40 35
f 36 40 34
f 1 33 44
f 33 35 45
f 44 45 46
f 33 45 44
f 35 41 47
f 41 43 48
f 47 48 49
f 41 48 47
f 46 50 51
f 50 49 52
f 51 52 53
f 50 52 51
f 35 47 45
f 47 49 50
f 45 50 46
f 47 50 45
f 1 44 2
f 44 46 54
f 2 54 4
f 44 54 2
f 46 51 55
f 51 53 56
f 55 56 57
f 51 56 55
f 4 58 7
f 58 57 59
f 7 59 9
f 58 59 7
f 46 55 54
f 55 57 58
f 54 58 4
f 55 58 54
f 9 60 10
f 61 62 63
f 64 63 15
f 61 63 64
f 62 65 66
f 65 67 68
f 66 68 69
f 65 68 66
f 15 70 16
f 70 69 71
f 16 71 17
f 70 71 16
f 62 66 63
f 66 69 70
f 63 70 15
f 66 70 63
f 17 71 72
f 71 69 73
f 72 73 74
f 71 73 72
f 69 68 75
f 68 67 76
f 75 76 77
f 68 76 75
f 74 78 79
f 78 77 80
f 79 80 81
f 78 80 79
f 69 75 73
f 75 77 78
f 73 78 74
f 75 78 73
f 17 72 23
f 72 74 82
f 23 82 24
f 72 82 23
f 74 79 83
f 79 81 84
f 83 84 85
f 79 84 83
f 24 86 28
f 86 85 87
f 28 87 30
f 86 87 28
f 74 83 82
f 83 85 86
f 82 86 24
f 83 86 82
f 30 87 88
f 87 85 89
f 88 89 90
f 87 89 88
f 85 84 91
f 84 81 92
f 91 92 93
f 84 92 91
f 90 94 95
f 94 93 96
f 95 96 97
f 94 96 95
f 85 91 89
f 91 93 94
f 89 94 90
f 91 94 89
f 30 88 37
f 88 90 98
f 38 99 39
f 88 98 37
f 90 95 100
f 95 97 101
f 102 103 104
f 95 101 100
f 39 105 42
f 105 104 106
f 42 106 43
f 105 106 42
f 90 100 98
f 102 104 105
f 99 105 39
f 102 105 99
f 43 106 107
f 106 104 108
f 107 108 109
f 106 108 107
f 104 103 110
f 101 97 111
f 110 112 113
f 103 112 110
f 109 114 115
f 114 113 116
f 115 116 117
f 114 116 115
f 104 110 108
f 110 113 114
f 108 114 109
f 110 114 108
f 43 107 48
f 107 109 118
f 48 118 49
f 107 118 48
f 109 115 119
f 115 117 120
f 119 120 121
f 115 120 119
f 49 122 52
f 122 121 123
f 52 123 53
f 122 123 52
f 109 119 118
f 119 121 122
f 118 122 49
f 119 122 118
f 53 123 124
f 123 121 125
f 124 125 126
f 123 125 124
f 121 120 127
f 120 117 128
f 127 128 129
f 120 128 127
f 126 130 131
f 130 129 132
f 131 132 133
f 130 132 131
f 121 127 125
f 127 129 130
f 125 130 126
f 127 130 125
f 53 124 56
f 124 126 134
f 56 134 57
f 124 134 56
f 126 131 135
f 131 133 136
f 135 136 137
f 131 136 135
f 57 138 59
f 138 137 139
f 59 139 9
f 138 139 59
f 126 135 134
f 135 137 138
f 134 138 57
f 135 138 134
f 9 139 60
f 139 137 140
f 61 141 62
f 139 140 60
f 137 136 142
f 136 133 143
f 144 145 146
f 136 143 142
f 62 147 65
f 147 146 148
f 65 148 67
f 147 148 65
f 137 142 140
f 144 146 147
f 141 147 62
f 144 147 141
f 149 150 151
f 150 152 153
f 151 153 154
f 150 153 151
f 152 155 156
f 155 81 80
f 156 80 77
f 155 80 156
f 154 157 158
f 157 77 76
f 158 76 67
f 157 76 158
f 152 156 153
f 156 77 157
f 153 157 154
f 156 157 153
f 149 159 150
f 159 160 161
f 150 161 152
f 159 161 150
f 160 162 163
f 162 97 96
f 163 96 93
f 162 96 163
f 152 164 155
f 164 93 92
f 155 92 81
f 164 92 155
f 160 163 161
f 163 93 164
f 161 164 152
f 163 164 161
f 149 165 159
f 165 166 167
f 159 167 160
f 165 167 159
f 168 169 170
f 169 117 116
f 170 116 113
f 169 116 170
f 160 171 162
f 171 172 111
f 162 111 97
f 171 111 162
f 166 173 167
f 173 172 171
f 167 171 160
f 173 171 167
f 149 174 165
f 174 175 176
f 165 176 166
f 174 176 165
f 175 177 178
f 179 133 132
f 180 132 129
f 179 132 180
f 168 181 169
f 181 129 128
f 169 128 117
f 181 128 169
f 175 178 176
f 180 129 181
f 176 182 166
f 180 181 183
f 149 151 174
f 151 154 184
f 174 184 175
f 151 184 174
f 154 158 185
f 158 67 148
f 185 148 146
f 158 148 185
f 175 186 177
f 186 146 145
f 179 143 133
f 186 145 177
f 154 185 184
f 185 146 186
f 184 186 175
f 185 186 184
f 12 6 13
f 13 6 18
f 13 18 15
f 15 18 11
f 22 31 12
f 12 31 6
f 29 26 27
f 27 26 25
f 27 25 32
f 32 25 20
f 32 20 22
f 22 20 31
f 37 38 29
f 29 38 26
f 15 11 64
f 64 11 10
f 64 10 61
f 61 10 60
f 98 99 37
f 37 99 38
f 101 103 100
f 100 103 102
f 100 102 98
f 98 102 99
f 111 112 101
f 101 112 103
f 61 60 141
f 141 60 140
f 144 142 145
f 145 142 143
f 141 140 144
f 144 140 142
f 172 113 111
f 111 113 112
f 166 168 173
f 173 168 170
f 173 170 172
f 172 170 113
f 177 179 178
f 178 179 180
f 178 180 176
f 176 180 183
f 176 183 182
f 182 183 181
f 182 181 166
f 166 181 168
f 145 143 177
f 177 143 179
