v -0.133443 1.29024 0.147557
v -0.0985731 1.24642 0.143083
v -0.104156 1.29521 0.0998755
v -0.0753065 1.19699 0.13
v -0.0719114 1.24759 0.0914447
v -0.0860467 1.29086 0.0468747
v -0.0654143 1.14571 0.109305
v -0.0521981 1.18771 0.0713636
v -0.0654143 1.13261 0.109305
v -0.0696495 1.08339 0.0825732
v -0.0515067 1.12221 0.0462439
v -0.0521981 1.17462 0.0713636
v -0.0485499 1.16387 0.0086781
v -0.0578446 1.23706 0.027662
v -0.0804945 1.2775 -0.00741064
v -0.0485499 1.17697 0.0086781
v -0.0610043 1.21831 -0.0272646
v -0.0879217 1.25617 -0.0588482
v -0.156396 1.33095 0.116379
v -0.130396 1.33308 0.0644356
v -0.18655 1.35961 0.0786258
v -0.116329 1.32256 0.000652889
v -0.118827 1.30283 -0.0539682
v -0.159793 1.33958 -0.0426962
v -0.169166 1.3587 0.0173454
v -0.221611 1.37404 0.0371708
v -0.207703 1.36363 -0.0258904
v -0.258908 1.37314 -0.00482999
v -0.183099 1.30424 0.169786
v -0.210242 1.34222 0.135146
v -0.237924 1.30823 0.181374
v -0.249013 1.36784 0.0880561
v -0.286646 1.37266 0.0440204
v -0.311671 1.35696 0.0918035
v -0.276022 1.34083 0.142074
v -0.293745 1.3019 0.181439
v -0.332077 1.32723 0.134882
v -0.346311 1.28574 0.169976
v -0.147363 1.252 0.18629
v -0.201106 1.26237 0.205857
v -0.169172 1.20773 0.213125
v -0.266886 1.26098 0.212785
v -0.323044 1.24829 0.204793
v -0.294293 1.20508 0.226303
v -0.230741 1.20814 0.229477
v -0.19721 1.16079 0.226021
v -0.262246 1.15941 0.23287
v -0.19721 1.14769 0.226021
v -0.262246 1.14632 0.23287
v -0.229343 1.10166 0.223995
v -0.115613 1.20389 0.178848
v -0.145248 1.14966 0.202468
v -0.17772 1.0885 0.206167
v -0.145248 1.13656 0.202468
v -0.131675 1.08075 0.174929
v -0.0753065 1.1839 0.13
v -0.0958997 1.13092 0.158767
v -0.0947139 1.079 0.132658
v -0.0958997 1.14401 0.158767
v -0.115613 1.19079 0.178848
v -0.0722108 1.06216 0.0306232
v -0.0883821 1.04835 -0.0213742
v -0.0590724 1.10336 -0.00821862
v -0.116932 1.043 -0.0694609
v -0.0856599 1.09197 -0.0677197
v -0.155688 1.04653 -0.109976
v -0.122515 1.09179 -0.112668
v -0.0991223 1.14221 -0.1045
v -0.0647188 1.1658 -0.0519202
v -0.0991223 1.15531 -0.1045
v -0.087291 1.20705 -0.0860926
v -0.0647188 1.1527 -0.0519202
v -0.123027 1.25929 -0.102596
v -0.127452 1.20725 -0.128114
v -0.167875 1.25581 -0.136251
v -0.148393 1.13342 -0.143913
v -0.178955 1.08398 -0.144793
v -0.207707 1.12719 -0.166303
v -0.184538 1.19935 -0.160606
v -0.21905 1.246 -0.15725
v -0.207707 1.14028 -0.166303
v -0.239754 1.18595 -0.17287
v -0.272657 1.23062 -0.163994
v -0.127452 1.19415 -0.128114
v -0.184538 1.18626 -0.160606
v -0.148393 1.14651 -0.143913
v -0.159348 1.30413 -0.0956218
v -0.216434 1.29623 -0.128114
v -0.27129 1.28174 -0.140746
v -0.268378 1.32456 -0.1045
v -0.212186 1.34028 -0.0789293
v -0.264143 1.35582 -0.0580148
v -0.312933 1.3614 -0.0148076
v -0.31862 1.33802 -0.0677197
v -0.362243 1.3353 -0.0213742
v -0.322869 1.29398 -0.116904
v -0.32428 1.24378 -0.146167
v -0.370325 1.25153 -0.114929
v -0.372217 1.29963 -0.0732026
v -0.403086 1.29682 -0.0240301
v -0.407286 1.25327 -0.0726582
v -0.43235 1.24889 -0.022573
v -0.341381 1.35506 0.035483
v -0.394977 1.31666 0.0300001
v -0.429789 1.27012 0.029377
v -0.413618 1.28393 0.0813744
v -0.36839 1.32805 0.0895012
v -0.385067 1.28927 0.129461
v -0.379485 1.24048 0.172668
v -0.41634 1.2403 0.12772
v -0.402878 1.19006 0.1645
v -0.442927 1.22892 0.0682188
v -0.450493 1.21007 0.0137563
v -0.45345 1.1684 0.0513221
v -0.402878 1.17697 0.1645
v -0.437281 1.16647 0.11192
v -0.414709 1.12523 0.146093
v -0.45345 1.15531 0.0513221
v -0.440996 1.11397 0.0872648
v -0.414078 1.0761 0.118848
v -0.437281 1.17957 0.11192
v -0.353607 1.19885 0.203913
v -0.374548 1.12502 0.188114
v -0.378973 1.07299 0.162596
v -0.334125 1.07646 0.196251
v -0.294293 1.19199 0.226303
v -0.317462 1.13292 0.220606
v -0.28295 1.08627 0.21725
v -0.374548 1.13812 0.188114
v -0.317462 1.14602 0.220606
v -0.353607 1.18576 0.203913
v -0.23071 1.05053 0.200746
v -0.285565 1.03604 0.188114
v -0.233622 1.00771 0.1645
v -0.342652 1.02814 0.155622
v -0.383173 1.02944 0.113968
v -0.342206 0.992689 0.102696
v -0.289814 0.991998 0.138929
v -0.237856 0.976451 0.118015
v -0.294297 0.968643 0.0858905
v -0.243092 0.959131 0.0648301
v -0.179131 1.03829 0.176904
v -0.18338 0.994249 0.12772
v -0.189067 0.970868 0.0748077
v -0.139756 0.996971 0.0813744
v -0.129783 1.03265 0.133203
v -0.0989143 1.03545 0.0840303
v -0.107022 1.01561 0.0300001
v -0.160619 0.977215 0.0245172
v -0.215353 0.95961 0.0159798
v -0.190329 0.975311 -0.0318033
v -0.13361 1.00422 -0.029501
v -0.169923 1.00504 -0.0748818
v -0.368557 1.04203 -0.087557
v -0.354637 1.08027 -0.12629
v -0.318901 1.02803 -0.109786
v -0.332828 1.12454 -0.153125
v -0.300894 1.0699 -0.145857
v -0.264076 1.02404 -0.121374
v -0.30479 1.17148 -0.166021
v -0.271259 1.12413 -0.169477
v -0.30479 1.18458 -0.166021
v -0.239754 1.17286 -0.17287
v -0.235114 1.07129 -0.152785
v -0.208255 1.03037 -0.121439
v -0.403427 1.08585 -0.0830825
v -0.426693 1.13528 -0.0699999
v -0.386387 1.12839 -0.118848
v -0.426693 1.14838 -0.0699999
v -0.436586 1.19966 -0.0493049
v -0.4061 1.20136 -0.0987666
v -0.356752 1.18261 -0.142468
v -0.356752 1.19571 -0.142468
v -0.4061 1.18826 -0.0987666
v -0.386387 1.14148 -0.118848
v -0.397844 1.03706 -0.0398753
v -0.415953 1.04142 0.0131255
v -0.430088 1.08468 -0.0314445
v -0.421505 1.05477 0.0674108
v -0.444155 1.09521 0.0323382
v -0.449802 1.14456 -0.0113634
v -0.436586 1.18656 -0.0493049
v -0.449802 1.15765 -0.0113634
v -0.345604 1.00132 -0.056379
v -0.31545 0.972665 -0.0186256
v -0.371604 0.999191 -0.00443548
v -0.280389 0.958234 0.0228293
v -0.332833 0.973573 0.0426547
v -0.385671 1.00972 0.0593473
v -0.291757 0.990054 -0.0751462
v -0.225977 0.991446 -0.0820741
v -0.252987 0.964437 -0.028056
f 1 2 3
f 2 4 5
f 3 5 6
f 2 5 3
f 4 7 8
f 9 10 11
f 12 11 13
f 9 11 12
f 6 14 15
f 14 16 17
f 15 17 18
f 14 17 15
f 4 8 5
f 8 16 14
f 5 14 6
f 8 14 5
f 1 3 19
f 3 6 20
f 19 20 21
f 3 20 19
f 6 15 22
f 15 18 23
f 22 23 24
f 15 23 22
f 21 25 26
f 25 24 27
f 26 27 28
f 25 27 26
f 6 22 20
f 22 24 25
f 20 25 21
f 22 25 20
f 1 19 29
f 19 21 30
f 29 30 31
f 19 30 29
f 21 26 32
f 26 28 33
f 32 33 34
f 26 33 32
f 31 35 36
f 35 34 37
f 36 37 38
f 35 37 36
f 21 32 30
f 32 34 35
f 30 35 31
f 32 35 30
f 1 29 39
f 29 31 40
f 39 40 41
f 29 40 39
f 31 36 42
f 36 38 43
f 42 43 44
f 36 43 42
f 41 45 46
f 45 44 47
f 48 49 50
f 45 47 46
f 31 42 40
f 42 44 45
f 40 45 41
f 42 45 40
f 1 39 2
f 39 41 51
f 2 51 4
f 39 51 2
f 41 46 52
f 48 50 53
f 54 53 55
f 48 53 54
f 56 57 9
f 57 55 58
f 9 58 10
f 57 58 9
f 41 52 51
f 54 55 57
f 51 59 4
f 54 57 60
f 10 61 11
f 61 62 63
f 11 63 13
f 61 63 11
f 62 64 65
f 64 66 67
f 65 67 68
f 64 67 65
f 16 69 17
f 69 70 71
f 17 71 18
f 69 71 17
f 62 65 63
f 65 68 72
f 63 72 13
f 65 72 63
f 18 71 73
f 71 70 74
f 73 74 75
f 71 74 73
f 68 67 76
f 67 66 77
f 76 77 78
f 67 77 76
f 75 79 80
f 79 81 82
f 80 82 83
f 79 82 80
f 68 76 84
f 76 78 85
f 74 79 75
f 86 79 74
f 18 73 23
f 73 75 87
f 23 87 24
f 73 87 23
f 75 80 88
f 80 83 89
f 88 89 90
f 80 89 88
f 24 91 27
f 91 90 92
f 27 92 28
f 91 92 27
f 75 88 87
f 88 90 91
f 87 91 24
f 88 91 87
f 28 92 93
f 92 90 94
f 93 94 95
f 92 94 93
f 90 89 96
f 89 83 97
f 96 97 98
f 89 97 96
f 95 99 100
f 99 98 101
f 100 101 102
f 99 101 100
f 90 96 94
f 96 98 99
f 94 99 95
f 96 99 94
f 28 93 33
f 93 95 103
f 33 103 34
f 93 103 33
f 95 100 104
f 100 102 105
f 104 105 106
f 100 105 104
f 34 107 37
f 107 106 108
f 37 108 38
f 107 108 37
f 95 104 103
f 104 106 107
f 103 107 34
f 104 107 103
f 38 108 109
f 108 106 110
f 109 110 111
f 108 110 109
f 106 105 112
f 105 102 113
f 112 113 114
f 105 113 112
f 115 116 117
f 116 118 119
f 117 119 120
f 116 119 117
f 106 112 110
f 112 114 121
f 110 121 111
f 112 121 110
f 38 109 43
f 109 111 122
f 43 122 44
f 109 122 43
f 115 117 123
f 117 120 124
f 123 124 125
f 117 124 123
f 126 127 49
f 127 125 128
f 49 128 50
f 127 128 49
f 111 129 122
f 123 125 127
f 122 130 44
f 123 127 131
f 50 128 132
f 128 125 133
f 132 133 134
f 128 133 132
f 125 124 135
f 124 120 136
f 135 136 137
f 124 136 135
f 134 138 139
f 138 137 140
f 139 140 141
f 138 140 139
f 125 135 133
f 135 137 138
f 133 138 134
f 135 138 133
f 50 132 53
f 132 134 142
f 53 142 55
f 132 142 53
f 134 139 143
f 139 141 144
f 143 144 145
f 139 144 143
f 55 146 58
f 146 145 147
f 58 147 10
f 146 147 58
f 134 143 142
f 143 145 146
f 142 146 55
f 143 146 142
f 10 147 61
f 147 145 148
f 61 148 62
f 147 148 61
f 145 144 149
f 144 141 150
f 149 150 151
f 144 150 149
f 62 152 64
f 152 151 153
f 64 153 66
f 152 153 64
f 145 149 148
f 149 151 152
f 148 152 62
f 149 152 148
f 154 155 156
f 155 157 158
f 156 158 159
f 155 158 156
f 157 160 161
f 162 83 82
f 161 163 78
f 160 163 161
f 159 164 165
f 164 78 77
f 165 77 66
f 164 77 165
f 157 161 158
f 161 78 164
f 158 164 159
f 161 164 158
f 154 166 155
f 166 167 168
f 155 168 157
f 166 168 155
f 169 170 171
f 170 102 101
f 171 101 98
f 170 101 171
f 157 172 160
f 173 98 97
f 162 97 83
f 173 97 162
f 167 174 168
f 171 98 173
f 168 172 157
f 171 173 175
f 154 176 166
f 176 177 178
f 166 178 167
f 176 178 166
f 177 179 180
f 179 120 119
f 180 119 118
f 179 119 180
f 167 181 182
f 183 114 113
f 170 113 102
f 183 113 170
f 177 180 178
f 180 118 181
f 178 181 167
f 180 181 178
f 154 184 176
f 184 185 186
f 176 186 177
f 184 186 176
f 185 187 188
f 187 141 140
f 188 140 137
f 187 140 188
f 177 189 179
f 189 137 136
f 179 136 120
f 189 136 179
f 185 188 186
f 188 137 189
f 186 189 177
f 188 189 186
f 154 156 184
f 156 159 190
f 184 190 185
f 156 190 184
f 159 165 191
f 165 66 153
f 191 153 151
f 165 153 191
f 185 192 187
f 192 151 150
f 187 150 141
f 192 150 187
f 159 191 190
f 191 151 192
f 190 192 185
f 191 192 190
f 4 56 7
f 7 56 9
f 7 9 8
f 8 9 12
f 8 12 16
f 16 12 13
f 44 126 47
f 47 126 49
f 47 49 46
f 46 49 48
f 46 48 52
f 52 48 54
f 52 54 51
f 51 54 60
f 51 60 59
f 59 60 57
f 59 57 4
f 4 57 56
f 16 13 69
f 69 13 72
f 69 72 70
f 70 72 68
f 70 68 74
f 74 68 84
f 79 85 81
f 81 85 78
f 81 78 82
f 82 78 163
f 86 76 79
f 79 76 85
f 74 84 86
f 86 84 76
f 114 118 121
f 121 118 116
f 121 116 111
f 111 116 115
f 111 115 129
f 129 115 123
f 129 123 122
f 122 123 131
f 122 131 130
f 130 131 127
f 130 127 44
f 44 127 126
f 82 163 162
f 162 163 160
f 169 167 170
f 170 167 182
f 171 174 169
f 169 174 167
f 162 160 173
f 173 160 172
f 173 172 175
f 175 172 168
f 175 168 171
f 171 168 174
f 183 181 114
f 114 181 118
f 170 182 183
f 183 182 181
