v -0.133443 1.26685 0.187557
v -0.0985731 1.22303 0.183083
v -0.104156 1.27182 0.139875
v -0.0753065 1.1736 0.17
v -0.0719114 1.2242 0.131445
v -0.0860467 1.26747 0.0868747
v -0.0654143 1.12232 0.149305
v -0.0521981 1.16432 0.111364
v -0.0696495 1.07309 0.122573
v -0.0515067 1.11191 0.0862439
v -0.0485499 1.15358 0.0486781
v -0.0860467 1.27776 0.0468747
v -0.0578446 1.22397 0.027662
v -0.0804945 1.26441 -0.00741064
v -0.0485499 1.16387 0.0086781
v -0.0610043 1.20521 -0.0272646
v -0.0879217 1.24308 -0.0588482
v -0.0521981 1.17462 0.0713636
v -0.0578446 1.21367 0.0676619
v -0.156396 1.30756 0.156379
v -0.130396 1.30969 0.104436
v -0.18655 1.33622 0.118626
v -0.116329 1.30946 0.000652889
v -0.118827 1.28974 -0.0539682
v -0.159793 1.32649 -0.0426962
v -0.18655 1.34651 0.0786258
v -0.169166 1.34561 0.0173454
v -0.221611 1.36094 0.0371708
v -0.207703 1.35054 -0.0258904
v -0.258908 1.36005 -0.00482999
v -0.130396 1.31999 0.0644356
v -0.183099 1.28086 0.209786
v -0.210242 1.31883 0.175146
v -0.237924 1.28484 0.221374
v -0.249013 1.35474 0.0880561
v -0.286646 1.35957 0.0440204
v -0.311671 1.34387 0.0918035
v -0.276022 1.31744 0.182074
v -0.293745 1.27852 0.221439
v -0.311671 1.33357 0.131803
v -0.332077 1.30384 0.174882
v -0.346311 1.26235 0.209976
v -0.249013 1.34445 0.128056
v -0.147363 1.22862 0.22629
v -0.201106 1.23898 0.245857
v -0.169172 1.18434 0.253125
v -0.266886 1.23759 0.252785
v -0.323044 1.2249 0.244793
v -0.294293 1.1817 0.266303
v -0.230741 1.18475 0.269477
v -0.19721 1.1374 0.266021
v -0.262246 1.13602 0.27287
v -0.229343 1.09136 0.263995
v -0.115613 1.1805 0.218848
v -0.145248 1.12627 0.242468
v -0.17772 1.0782 0.246167
v -0.131675 1.07045 0.214929
v -0.0958997 1.12062 0.198767
v -0.0947139 1.0687 0.172658
v -0.0722108 1.05186 0.0706232
v -0.0722108 1.06216 0.0306232
v -0.0883821 1.04835 -0.0213742
v -0.0590724 1.10336 -0.00821862
v -0.0515067 1.12221 0.0462439
v -0.0590724 1.09306 0.0317813
v -0.116932 1.043 -0.0694609
v -0.0856599 1.09197 -0.0677197
v -0.155688 1.04653 -0.109976
v -0.122515 1.09179 -0.112668
v -0.0991223 1.14221 -0.1045
v -0.0647188 1.1527 -0.0519202
v -0.087291 1.19395 -0.0860926
v -0.123027 1.24619 -0.102596
v -0.127452 1.19415 -0.128114
v -0.167875 1.24271 -0.136251
v -0.148393 1.13342 -0.143913
v -0.178955 1.08398 -0.144793
v -0.207707 1.12719 -0.166303
v -0.184538 1.18626 -0.160606
v -0.21905 1.23291 -0.15725
v -0.239754 1.17286 -0.17287
v -0.272657 1.21752 -0.163994
v -0.159348 1.29104 -0.0956218
v -0.216434 1.28314 -0.128114
v -0.27129 1.26864 -0.140746
v -0.268378 1.31147 -0.1045
v -0.212186 1.32718 -0.0789293
v -0.264143 1.34273 -0.0580148
v -0.312933 1.34831 -0.0148076
v -0.31862 1.32493 -0.0677197
v -0.362243 1.32221 -0.0213742
v -0.322869 1.28089 -0.116904
v -0.32428 1.23068 -0.146167
v -0.370325 1.23843 -0.114929
v -0.372217 1.28653 -0.0732026
v -0.403086 1.28373 -0.0240301
v -0.407286 1.24018 -0.0726582
v -0.43235 1.23579 -0.022573
v -0.341381 1.34196 0.035483
v -0.394977 1.30357 0.0300001
v -0.429789 1.25702 0.029377
v -0.413618 1.27083 0.0813744
v -0.36839 1.30466 0.129501
v -0.413618 1.26054 0.121374
v -0.385067 1.26588 0.169461
v -0.394977 1.29327 0.0700001
v -0.36839 1.31495 0.0895012
v -0.379485 1.21709 0.212668
v -0.41634 1.21692 0.16772
v -0.402878 1.16667 0.2045
v -0.429789 1.24673 0.069377
v -0.442927 1.20553 0.108219
v -0.450493 1.19697 0.0137563
v -0.450493 1.18668 0.0537562
v -0.45345 1.14501 0.091322
v -0.442927 1.21582 0.0682188
v -0.437281 1.15618 0.15192
v -0.414709 1.11493 0.186093
v -0.440996 1.10367 0.127265
v -0.414078 1.06581 0.158848
v -0.353607 1.17546 0.243913
v -0.374548 1.11473 0.228114
v -0.378973 1.06269 0.202596
v -0.334125 1.06617 0.236251
v -0.317462 1.12263 0.260606
v -0.28295 1.07598 0.25725
v -0.23071 1.04024 0.240746
v -0.285565 1.02575 0.228114
v -0.233622 0.997417 0.2045
v -0.342652 1.01785 0.195622
v -0.383173 1.01915 0.153968
v -0.342206 0.982395 0.142696
v -0.289814 0.981704 0.178929
v -0.237856 0.966157 0.158015
v -0.294297 0.958348 0.125891
v -0.243092 0.948837 0.10483
v -0.179131 1.028 0.216904
v -0.18338 0.983955 0.16772
v -0.189067 0.960574 0.114808
v -0.139756 0.986677 0.121374
v -0.129783 1.02235 0.173203
v -0.0989143 1.02516 0.12403
v -0.107022 1.00532 0.07
v -0.0883821 1.03805 0.0186257
v -0.160619 0.966921 0.0645171
v -0.215353 0.949315 0.0559797
v -0.190329 0.965017 0.00819663
v -0.13361 1.00422 -0.029501
v -0.190329 0.975311 -0.0318033
v -0.169923 1.00504 -0.0748818
v -0.13361 0.99393 0.010499
v -0.107022 1.01561 0.0300001
v -0.368557 1.04203 -0.087557
v -0.354637 1.08027 -0.12629
v -0.318901 1.02803 -0.109786
v -0.332828 1.12454 -0.153125
v -0.300894 1.0699 -0.145857
v -0.264076 1.02404 -0.121374
v -0.30479 1.17148 -0.166021
v -0.271259 1.12413 -0.169477
v -0.235114 1.07129 -0.152785
v -0.208255 1.03037 -0.121439
v -0.403427 1.08585 -0.0830825
v -0.426693 1.13528 -0.0699999
v -0.386387 1.12839 -0.118848
v -0.436586 1.18656 -0.0493049
v -0.4061 1.18826 -0.0987666
v -0.356752 1.18261 -0.142468
v -0.397844 1.03706 -0.0398753
v -0.415953 1.04142 0.0131255
v -0.430088 1.08468 -0.0314445
v -0.415953 1.03112 0.0531254
v -0.421505 1.04447 0.107411
v -0.444155 1.08492 0.0723382
v -0.449802 1.14456 -0.0113634
v -0.45345 1.15531 0.0513221
v -0.444155 1.09521 0.0323382
v -0.449802 1.13426 0.0286366
v -0.345604 1.00132 -0.056379
v -0.31545 0.972665 -0.0186256
v -0.371604 0.999191 -0.00443548
v -0.31545 0.96237 0.0213743
v -0.280389 0.94794 0.0628293
v -0.332833 0.963278 0.0826547
v -0.385671 0.999424 0.0993472
v -0.371604 0.988896 0.0355645
v -0.291757 0.990054 -0.0751462
v -0.225977 0.991446 -0.0820741
v -0.252987 0.954142 0.011944
v -0.252987 0.964437 -0.028056
f 1 2 3
f 2 4 5
f 3 5 6
f 2 5 3
f 4 7 8
f 7 9 10
f 8 10 11
f 7 10 8
f 12 13 14
f 13 15 16
f 14 16 17
f 13 16 14
f 4 8 5
f 18 15 13
f 5 19 6
f 8 19 5
f 1 3 20
f 3 6 21
f 20 21 22
f 3 21 20
f 12 14 23
f 14 17 24
f 23 24 25
f 14 24 23
f 26 27 28
f 27 25 29
f 28 29 30
f 27 29 28
f 12 23 31
f 23 25 27
f 31 27 26
f 23 27 31
f 1 20 32
f 20 22 33
f 32 33 34
f 20 33 32
f 26 28 35
f 28 30 36
f 35 36 37
f 28 36 35
f 34 38 39
f 38 40 41
f 39 41 42
f 38 41 39
f 22 43 33
f 43 40 38
f 33 38 34
f 43 38 33
f 1 32 44
f 32 34 45
f 44 45 46
f 32 45 44
f 34 39 47
f 39 42 48
f 47 48 49
f 39 48 47
f 46 50 51
f 50 49 52
f 51 52 53
f 50 52 51
f 34 47 45
f 47 49 50
f 45 50 46
f 47 50 45
f 1 44 2
f 44 46 54
f 2 54 4
f 44 54 2
f 46 51 55
f 51 53 56
f 55 56 57
f 51 56 55
f 4 58 7
f 58 57 59
f 7 59 9
f 58 59 7
f 46 55 54
f 55 57 58
f 54 58 4
f 55 58 54
f 9 60 10
f 61 62 63
f 64 63 15
f 60 65 10
f 62 66 67
f 66 68 69
f 67 69 70
f 66 69 67
f 15 71 16
f 71 70 72
f 16 72 17
f 71 72 16
f 62 67 63
f 67 70 71
f 63 71 15
f 67 71 63
f 17 72 73
f 72 70 74
f 73 74 75
f 72 74 73
f 70 69 76
f 69 68 77
f 76 77 78
f 69 77 76
f 75 79 80
f 79 78 81
f 80 81 82
f 79 81 80
f 70 76 74
f 76 78 79
f 74 79 75
f 76 79 74
f 17 73 24
f 73 75 83
f 24 83 25
f 73 83 24
f 75 80 84
f 80 82 85
f 84 85 86
f 80 85 84
f 25 87 29
f 87 86 88
f 29 88 30
f 87 88 29
f 75 84 83
f 84 86 87
f 83 87 25
f 84 87 83
f 30 88 89
f 88 86 90
f 89 90 91
f 88 90 89
f 86 85 92
f 85 82 93
f 92 93 94
f 85 93 92
f 91 95 96
f 95 94 97
f 96 97 98
f 95 97 96
f 86 92 90
f 92 94 95
f 90 95 91
f 92 95 90
f 30 89 36
f 89 91 99
f 36 99 37
f 89 99 36
f 91 96 100
f 96 98 101
f 100 101 102
f 96 101 100
f 40 103 41
f 103 104 105
f 41 105 42
f 103 105 41
f 91 100 99
f 106 104 103
f 99 107 37
f 100 107 99
f 42 105 108
f 105 104 109
f 108 109 110
f 105 109 108
f 104 111 112
f 101 98 113
f 112 114 115
f 101 113 116
f 110 117 118
f 117 115 119
f 118 119 120
f 117 119 118
f 104 112 109
f 112 115 117
f 109 117 110
f 112 117 109
f 42 108 48
f 108 110 121
f 48 121 49
f 108 121 48
f 110 118 122
f 118 120 123
f 122 123 124
f 118 123 122
f 49 125 52
f 125 124 126
f 52 126 53
f 125 126 52
f 110 122 121
f 122 124 125
f 121 125 49
f 122 125 121
f 53 126 127
f 126 124 128
f 127 128 129
f 126 128 127
f 124 123 130
f 123 120 131
f 130 131 132
f 123 131 130
f 129 133 134
f 133 132 135
f 134 135 136
f 133 135 134
f 124 130 128
f 130 132 133
f 128 133 129
f 130 133 128
f 53 127 56
f 127 129 137
f 56 137 57
f 127 137 56
f 129 134 138
f 134 136 139
f 138 139 140
f 134 139 138
f 57 141 59
f 141 140 142
f 59 142 9
f 141 142 59
f 129 138 137
f 138 140 141
f 137 141 57
f 138 141 137
f 9 142 60
f 142 140 143
f 60 143 144
f 142 143 60
f 140 139 145
f 139 136 146
f 145 146 147
f 139 146 145
f 62 148 66
f 148 149 150
f 66 150 68
f 148 150 66
f 140 145 143
f 145 147 151
f 152 148 62
f 145 151 143
f 153 154 155
f 154 156 157
f 155 157 158
f 154 157 155
f 156 159 160
f 159 82 81
f 160 81 78
f 159 81 160
f 158 161 162
f 161 78 77
f 162 77 68
f 161 77 162
f 156 160 157
f 160 78 161
f 157 161 158
f 160 161 157
f 153 163 154
f 163 164 165
f 154 165 156
f 163 165 154
f 164 166 167
f 166 98 97
f 167 97 94
f 166 97 167
f 156 168 159
f 168 94 93
f 159 93 82
f 168 93 159
f 164 167 165
f 167 94 168
f 165 168 156
f 167 168 165
f 153 169 163
f 169 170 171
f 163 171 164
f 169 171 163
f 172 173 174
f 173 120 119
f 174 119 115
f 173 119 174
f 164 175 166
f 175 176 113
f 166 113 98
f 175 113 166
f 170 177 171
f 174 115 178
f 171 175 164
f 177 175 171
f 153 179 169
f 179 180 181
f 169 181 170
f 179 181 169
f 182 183 184
f 183 136 135
f 184 135 132
f 183 135 184
f 172 185 173
f 185 132 131
f 173 131 120
f 185 131 173
f 182 184 186
f 184 132 185
f 186 185 172
f 184 185 186
f 153 155 179
f 155 158 187
f 179 187 180
f 155 187 179
f 158 162 188
f 162 68 150
f 188 150 149
f 162 150 188
f 182 189 183
f 189 147 146
f 183 146 136
f 189 146 183
f 158 188 187
f 188 149 190
f 187 190 180
f 188 190 187
f 12 6 13
f 13 6 19
f 18 8 15
f 15 8 11
f 13 19 18
f 18 19 8
f 31 21 12
f 12 21 6
f 26 22 31
f 31 22 21
f 35 43 26
f 26 43 22
f 37 40 35
f 35 40 43
f 61 60 62
f 62 60 144
f 63 65 61
f 61 65 60
f 64 10 63
f 63 10 65
f 15 11 64
f 64 11 10
f 101 111 102
f 102 111 104
f 102 104 100
f 100 104 106
f 107 103 37
f 37 103 40
f 100 106 107
f 107 106 103
f 113 114 116
f 116 114 112
f 116 112 101
f 101 112 111
f 148 151 149
f 149 151 147
f 152 143 148
f 148 143 151
f 62 144 152
f 152 144 143
f 175 178 176
f 176 178 115
f 176 115 113
f 113 115 114
f 170 172 177
f 177 172 174
f 177 174 175
f 175 174 178
f 180 182 181
f 181 182 186
f 181 186 170
f 170 186 172
f 149 147 190
f 190 147 189
f 190 189 180
f 180 189 182
