v -0.133443 1.23315 0.267557
v -0.0985731 1.18933 0.263083
v -0.104156 1.23812 0.219875
v -0.0753065 1.1399 0.25
v -0.0719114 1.1905 0.211445
v -0.0860467 1.23376 0.166875
v -0.0654143 1.08861 0.229305
v -0.0521981 1.13062 0.191364
v -0.0696495 1.03939 0.202573
v -0.0515067 1.07821 0.166244
v -0.0485499 1.11987 0.128678
v -0.0860467 1.26747 0.0868747
v -0.0578446 1.21367 0.0676619
v -0.0804945 1.25412 0.0325893
v -0.0485499 1.15358 0.0486781
v -0.0610043 1.19492 0.0127353
v -0.0879217 1.23278 -0.0188482
v -0.0521981 1.16432 0.111364
v -0.0719114 1.2242 0.131445
v -0.0578446 1.17997 0.147662
v -0.156396 1.27385 0.236379
v -0.104156 1.27182 0.139875
v -0.130396 1.30969 0.104436
v -0.156396 1.30756 0.156379
v -0.18655 1.33622 0.118626
v -0.130396 1.27599 0.184436
v -0.116329 1.29917 0.0406528
v -0.118827 1.27944 -0.0139682
v -0.159793 1.31619 -0.00269625
v -0.169166 1.33531 0.0573454
v -0.221611 1.35065 0.0771708
v -0.207703 1.34024 0.0141096
v -0.258908 1.34975 0.03517
v -0.183099 1.24715 0.289786
v -0.18655 1.30251 0.198626
v -0.210242 1.28513 0.255146
v -0.237924 1.25114 0.301374
v -0.249013 1.34445 0.128056
v -0.286646 1.34927 0.0840204
v -0.311671 1.33357 0.131803
v -0.276022 1.28373 0.262074
v -0.293745 1.24481 0.301439
v -0.311671 1.29987 0.211804
v -0.332077 1.27014 0.254882
v -0.346311 1.22864 0.289976
v -0.210242 1.31883 0.175146
v -0.249013 1.31074 0.208056
v -0.147363 1.19491 0.30629
v -0.201106 1.20528 0.325857
v -0.169172 1.15064 0.333126
v -0.266886 1.20389 0.332785
v -0.323044 1.1912 0.324793
v -0.294293 1.14799 0.346303
v -0.230741 1.15105 0.349477
v -0.19721 1.1037 0.346021
v -0.262246 1.10232 0.35287
v -0.229343 1.05766 0.343995
v -0.115613 1.14679 0.298848
v -0.145248 1.09257 0.322468
v -0.17772 1.0445 0.326167
v -0.131675 1.03675 0.294929
v -0.0958997 1.08692 0.278767
v -0.0947139 1.035 0.252658
v -0.0722108 1.01816 0.150623
v -0.0883821 1.00435 0.0986258
v -0.0590724 1.05936 0.111781
v -0.0515067 1.11191 0.0862439
v -0.0590724 1.09306 0.0317813
v -0.0883821 1.03805 0.0186257
v -0.116932 1.03271 -0.0294609
v -0.0856599 1.08167 -0.0277197
v -0.155688 1.03624 -0.0699763
v -0.122515 1.0815 -0.0726682
v -0.0991223 1.13192 -0.0644997
v -0.0647188 1.14241 -0.0119203
v -0.087291 1.18366 -0.0460926
v -0.123027 1.2359 -0.0625963
v -0.127452 1.18386 -0.0881139
v -0.167875 1.23242 -0.0962507
v -0.148393 1.12312 -0.103913
v -0.178955 1.07369 -0.104793
v -0.207707 1.11689 -0.126303
v -0.184538 1.17596 -0.120606
v -0.21905 1.22261 -0.11725
v -0.239754 1.16257 -0.13287
v -0.272657 1.20723 -0.123994
v -0.159348 1.28074 -0.0556219
v -0.216434 1.27284 -0.0881139
v -0.27129 1.25835 -0.100746
v -0.268378 1.30117 -0.0644997
v -0.212186 1.31689 -0.0389293
v -0.264143 1.33243 -0.0180148
v -0.312933 1.33802 0.0251924
v -0.31862 1.31463 -0.0277197
v -0.362243 1.31191 0.0186257
v -0.322869 1.27059 -0.0769042
v -0.32428 1.22039 -0.106167
v -0.370325 1.22814 -0.0749287
v -0.372217 1.27624 -0.0332026
v -0.403086 1.27343 0.0159699
v -0.407286 1.22989 -0.0326582
v -0.43235 1.2255 0.0174269
v -0.341381 1.33167 0.075483
v -0.394977 1.29327 0.0700001
v -0.429789 1.24673 0.069377
v -0.413618 1.26054 0.121374
v -0.36839 1.27096 0.209501
v -0.413618 1.22683 0.201374
v -0.385067 1.23218 0.249461
v -0.36839 1.30466 0.129501
v -0.379485 1.18339 0.292668
v -0.41634 1.18321 0.24772
v -0.402878 1.13297 0.2845
v -0.442927 1.20553 0.108219
v -0.450493 1.18668 0.0537562
v -0.442927 1.17182 0.188219
v -0.450493 1.15297 0.133756
v -0.45345 1.11131 0.171322
v -0.437281 1.12248 0.23192
v -0.414709 1.08123 0.266093
v -0.440996 1.06997 0.207265
v -0.414078 1.0321 0.238848
v -0.353607 1.14176 0.323913
v -0.374548 1.08102 0.308114
v -0.378973 1.02899 0.282596
v -0.334125 1.03246 0.316251
v -0.317462 1.08892 0.340606
v -0.28295 1.04227 0.33725
v -0.23071 1.00653 0.320746
v -0.285565 0.992042 0.308114
v -0.233622 0.963713 0.2845
v -0.342652 0.984144 0.275622
v -0.383173 0.985442 0.233968
v -0.342206 0.94869 0.222696
v -0.289814 0.947999 0.258929
v -0.237856 0.932452 0.238015
v -0.294297 0.924644 0.205891
v -0.243092 0.915133 0.18483
v -0.179131 0.994293 0.296904
v -0.18338 0.95025 0.24772
v -0.189067 0.92687 0.194808
v -0.139756 0.952973 0.201374
v -0.129783 0.988647 0.253203
v -0.0989143 0.991455 0.20403
v -0.107022 0.971613 0.15
v -0.160619 0.933216 0.144517
v -0.215353 0.915611 0.13598
v -0.190329 0.931312 0.0881967
v -0.13361 0.99393 0.010499
v -0.190329 0.965017 0.00819663
v -0.169923 0.994746 -0.0348818
v -0.13361 0.960226 0.090499
v -0.368557 1.03174 -0.047557
v -0.354637 1.06997 -0.0862898
v -0.318901 1.01773 -0.0697861
v -0.332828 1.11425 -0.113125
v -0.300894 1.05961 -0.105857
v -0.264076 1.01374 -0.0813743
v -0.30479 1.16119 -0.126021
v -0.271259 1.11384 -0.129477
v -0.235114 1.061 -0.112785
v -0.208255 1.02007 -0.0814393
v -0.403427 1.07556 -0.0430826
v -0.426693 1.12499 -0.03
v -0.386387 1.11809 -0.0788478
v -0.436586 1.17627 -0.00930498
v -0.4061 1.17797 -0.0587666
v -0.356752 1.17232 -0.102468
v -0.397844 1.02677 0.000124648
v -0.415953 1.03112 0.0531254
v -0.430088 1.07439 0.00855542
v -0.415953 0.997418 0.133125
v -0.421505 1.01077 0.187411
v -0.444155 1.05121 0.152338
v -0.449802 1.13426 0.0286366
v -0.45345 1.14501 0.091322
v -0.430088 1.04068 0.0885555
v -0.449802 1.10056 0.108637
v -0.444155 1.08492 0.0723382
v -0.345604 0.99103 -0.0163791
v -0.345604 0.957326 0.063621
v -0.31545 0.928666 0.101374
v -0.371604 0.955192 0.115565
v -0.397844 0.993062 0.0801247
v -0.371604 0.988896 0.0355645
v -0.280389 0.914235 0.142829
v -0.332833 0.929574 0.162655
v -0.385671 0.965719 0.179347
v -0.291757 0.97976 -0.0351462
v -0.31545 0.96237 0.0213743
v -0.225977 0.981151 -0.0420741
v -0.252987 0.920438 0.0919441
v -0.252987 0.954142 0.011944
v -0.291757 0.946055 0.0448538
f 1 2 3
f 2 4 5
f 3 5 6
f 2 5 3
f 4 7 8
f 7 9 10
f 8 10 11
f 7 10 8
f 12 13 14
f 13 15 16
f 14 16 17
f 13 16 14
f 4 8 5
f 18 15 13
f 19 13 12
f 8 20 5
f 1 3 21
f 22 12 23
f 24 23 25
f 3 26 21
f 12 14 27
f 14 17 28
f 27 28 29
f 14 28 27
f 25 30 31
f 30 29 32
f 31 32 33
f 30 32 31
f 12 27 23
f 27 29 30
f 23 30 25
f 27 30 23
f 1 21 34
f 21 35 36
f 34 36 37
f 21 36 34
f 25 31 38
f 31 33 39
f 38 39 40
f 31 39 38
f 37 41 42
f 41 43 44
f 42 44 45
f 41 44 42
f 25 38 46
f 47 43 41
f 36 41 37
f 47 41 36
f 1 34 48
f 34 37 49
f 48 49 50
f 34 49 48
f 37 42 51
f 42 45 52
f 51 52 53
f 42 52 51
f 50 54 55
f 54 53 56
f 55 56 57
f 54 56 55
f 37 51 49
f 51 53 54
f 49 54 50
f 51 54 49
f 1 48 2
f 48 50 58
f 2 58 4
f 48 58 2
f 50 55 59
f 55 57 60
f 59 60 61
f 55 60 59
f 4 62 7
f 62 61 63
f 7 63 9
f 62 63 7
f 50 59 58
f 59 61 62
f 58 62 4
f 59 62 58
f 9 64 10
f 64 65 66
f 67 68 15
f 64 66 10
f 69 70 71
f 70 72 73
f 71 73 74
f 70 73 71
f 15 75 16
f 75 74 76
f 16 76 17
f 75 76 16
f 69 71 68
f 71 74 75
f 68 75 15
f 71 75 68
f 17 76 77
f 76 74 78
f 77 78 79
f 76 78 77
f 74 73 80
f 73 72 81
f 80 81 82
f 73 81 80
f 79 83 84
f 83 82 85
f 84 85 86
f 83 85 84
f 74 80 78
f 80 82 83
f 78 83 79
f 80 83 78
f 17 77 28
f 77 79 87
f 28 87 29
f 77 87 28
f 79 84 88
f 84 86 89
f 88 89 90
f 84 89 88
f 29 91 32
f 91 90 92
f 32 92 33
f 91 92 32
f 79 88 87
f 88 90 91
f 87 91 29
f 88 91 87
f 33 92 93
f 92 90 94
f 93 94 95
f 92 94 93
f 90 89 96
f 89 86 97
f 96 97 98
f 89 97 96
f 95 99 100
f 99 98 101
f 100 101 102
f 99 101 100
f 90 96 94
f 96 98 99
f 94 99 95
f 96 99 94
f 33 93 39
f 93 95 103
f 39 103 40
f 93 103 39
f 95 100 104
f 100 102 105
f 104 105 106
f 100 105 104
f 43 107 44
f 107 108 109
f 44 109 45
f 107 109 44
f 95 104 103
f 104 106 110
f 103 110 40
f 104 110 103
f 45 109 111
f 109 108 112
f 111 112 113
f 109 112 111
f 106 105 114
f 105 102 115
f 116 117 118
f 105 115 114
f 113 119 120
f 119 118 121
f 120 121 122
f 119 121 120
f 108 116 112
f 116 118 119
f 112 119 113
f 116 119 112
f 45 111 52
f 111 113 123
f 52 123 53
f 111 123 52
f 113 120 124
f 120 122 125
f 124 125 126
f 120 125 124
f 53 127 56
f 127 126 128
f 56 128 57
f 127 128 56
f 113 124 123
f 124 126 127
f 123 127 53
f 124 127 123
f 57 128 129
f 128 126 130
f 129 130 131
f 128 130 129
f 126 125 132
f 125 122 133
f 132 133 134
f 125 133 132
f 131 135 136
f 135 134 137
f 136 137 138
f 135 137 136
f 126 132 130
f 132 134 135
f 130 135 131
f 132 135 130
f 57 129 60
f 129 131 139
f 60 139 61
f 129 139 60
f 131 136 140
f 136 138 141
f 140 141 142
f 136 141 140
f 61 143 63
f 143 142 144
f 63 144 9
f 143 144 63
f 131 140 139
f 140 142 143
f 139 143 61
f 140 143 139
f 9 144 64
f 144 142 145
f 64 145 65
f 144 145 64
f 142 141 146
f 141 138 147
f 146 147 148
f 141 147 146
f 69 149 70
f 149 150 151
f 70 151 72
f 149 151 70
f 142 146 145
f 146 148 152
f 145 152 65
f 146 152 145
f 153 154 155
f 154 156 157
f 155 157 158
f 154 157 155
f 156 159 160
f 159 86 85
f 160 85 82
f 159 85 160
f 158 161 162
f 161 82 81
f 162 81 72
f 161 81 162
f 156 160 157
f 160 82 161
f 157 161 158
f 160 161 157
f 153 163 154
f 163 164 165
f 154 165 156
f 163 165 154
f 164 166 167
f 166 102 101
f 167 101 98
f 166 101 167
f 156 168 159
f 168 98 97
f 159 97 86
f 168 97 159
f 164 167 165
f 167 98 168
f 165 168 156
f 167 168 165
f 153 169 163
f 169 170 171
f 163 171 164
f 169 171 163
f 172 173 174
f 173 122 121
f 174 121 118
f 173 121 174
f 164 175 166
f 175 176 115
f 166 115 102
f 175 115 166
f 172 174 177
f 174 118 178
f 171 175 164
f 179 175 171
f 153 180 169
f 181 182 183
f 184 183 172
f 180 185 169
f 182 186 187
f 186 138 137
f 187 137 134
f 186 137 187
f 172 188 173
f 188 134 133
f 173 133 122
f 188 133 173
f 182 187 183
f 187 134 188
f 183 188 172
f 187 188 183
f 153 155 180
f 155 158 189
f 180 189 190
f 155 189 180
f 158 162 191
f 162 72 151
f 191 151 150
f 162 151 191
f 182 192 186
f 192 148 147
f 186 147 138
f 192 147 186
f 158 191 189
f 191 150 193
f 194 192 182
f 191 193 189
f 18 8 15
f 15 8 11
f 13 20 18
f 18 20 8
f 19 5 13
f 13 5 20
f 12 6 19
f 19 6 5
f 22 3 12
f 12 3 6
f 23 26 22
f 22 26 3
f 24 21 23
f 23 21 26
f 25 35 24
f 24 35 21
f 40 43 38
f 38 43 47
f 38 47 46
f 46 47 36
f 46 36 25
f 25 36 35
f 67 10 68
f 68 10 66
f 15 11 67
f 67 11 10
f 68 66 69
f 69 66 65
f 106 108 110
f 110 108 107
f 110 107 40
f 40 107 43
f 114 116 106
f 106 116 108
f 115 117 114
f 114 117 116
f 69 65 149
f 149 65 152
f 149 152 150
f 150 152 148
f 169 184 170
f 170 184 172
f 170 172 171
f 171 172 177
f 175 178 176
f 176 178 118
f 176 118 115
f 115 118 117
f 179 174 175
f 175 174 178
f 171 177 179
f 179 177 174
f 180 181 185
f 185 181 183
f 185 183 169
f 169 183 184
f 189 194 190
f 190 194 182
f 190 182 180
f 180 182 181
f 150 148 193
f 193 148 192
f 193 192 189
f 189 192 194
