v -0.133443 1.20193 0.427557
v -0.0985731 1.15811 0.423083
v -0.104156 1.2069 0.379875
v -0.0753065 1.10868 0.41
v -0.0719114 1.15927 0.371445
v -0.0860467 1.20254 0.326875
v -0.0654143 1.05739 0.389305
v -0.0521981 1.0994 0.351364
v -0.0696495 1.00817 0.362573
v -0.0515067 1.04699 0.326244
v -0.0485499 1.08865 0.288678
v -0.0860467 1.23376 0.166875
v -0.0578446 1.17997 0.147662
v -0.0804945 1.22041 0.112589
v -0.0485499 1.11987 0.128678
v -0.0610043 1.16121 0.0927354
v -0.0879217 1.19908 0.0611518
v -0.0578446 1.14875 0.307662
v -0.156396 1.24263 0.396379
v -0.130396 1.24477 0.344436
v -0.18655 1.27129 0.358626
v -0.116329 1.26546 0.120653
v -0.118827 1.24574 0.0660318
v -0.159793 1.28249 0.0773038
v -0.18655 1.30251 0.198626
v -0.169166 1.30161 0.137345
v -0.221611 1.31695 0.157171
v -0.207703 1.30654 0.0941096
v -0.258908 1.31605 0.11517
v -0.130396 1.27599 0.184436
v -0.183099 1.21593 0.449786
v -0.210242 1.2539 0.415146
v -0.237924 1.21992 0.461374
v -0.221611 1.28572 0.317171
v -0.249013 1.27952 0.368056
v -0.286646 1.31557 0.16402
v -0.286646 1.28435 0.32402
v -0.311671 1.26865 0.371803
v -0.249013 1.31074 0.208056
v -0.276022 1.25251 0.422074
v -0.293745 1.21359 0.461439
v -0.332077 1.23892 0.414882
v -0.346311 1.19742 0.449976
v -0.147363 1.16369 0.46629
v -0.201106 1.17406 0.485857
v -0.169172 1.11942 0.493125
v -0.266886 1.17267 0.492785
v -0.323044 1.15997 0.484793
v -0.294293 1.11677 0.506303
v -0.230741 1.11983 0.509477
v -0.19721 1.07247 0.506021
v -0.262246 1.0711 0.51287
v -0.229343 1.02644 0.503995
v -0.115613 1.11557 0.458848
v -0.145248 1.06134 0.482468
v -0.17772 1.01328 0.486167
v -0.131675 1.00553 0.454929
v -0.0958997 1.0557 0.438767
v -0.0947139 1.00378 0.412658
v -0.0722108 0.986937 0.310623
v -0.0722108 1.01816 0.150623
v -0.0883821 1.00435 0.0986258
v -0.0590724 1.05936 0.111781
v -0.0515067 1.07821 0.166244
v -0.0590724 1.02814 0.271781
v -0.116932 0.999004 0.0505391
v -0.0856599 1.04797 0.0522803
v -0.155688 1.00254 0.0100238
v -0.122515 1.04779 0.00733189
v -0.0991223 1.09821 0.0155004
v -0.0647188 1.10871 0.0680798
v -0.087291 1.14995 0.0339074
v -0.123027 1.20219 0.0174038
v -0.127452 1.15016 -0.00811382
v -0.167875 1.19872 -0.0162507
v -0.148393 1.08942 -0.0239132
v -0.178955 1.03999 -0.0247925
v -0.207707 1.08319 -0.046303
v -0.184538 1.14226 -0.0406058
v -0.21905 1.18891 -0.0372496
v -0.239754 1.12886 -0.0528703
v -0.272657 1.17352 -0.0439944
v -0.159348 1.24704 0.0243782
v -0.216434 1.23914 -0.00811382
v -0.27129 1.22465 -0.0207459
v -0.268378 1.26747 0.0155004
v -0.212186 1.28318 0.0410707
v -0.264143 1.29873 0.0619852
v -0.312933 1.30431 0.105192
v -0.31862 1.28093 0.0522803
v -0.362243 1.27821 0.0986258
v -0.322869 1.23689 0.00309582
v -0.32428 1.18668 -0.0261667
v -0.370325 1.19443 0.0050713
v -0.372217 1.24253 0.0467975
v -0.403086 1.23973 0.0959699
v -0.407286 1.19618 0.0473418
v -0.43235 1.19179 0.097427
v -0.341381 1.29796 0.155483
v -0.311671 1.29987 0.211804
v -0.394977 1.25957 0.15
v -0.429789 1.21302 0.149377
v -0.413618 1.22683 0.201374
v -0.36839 1.23973 0.369501
v -0.413618 1.19561 0.361374
v -0.385067 1.20096 0.409461
v -0.394977 1.22835 0.31
v -0.341381 1.26674 0.315483
v -0.36839 1.27096 0.209501
v -0.379485 1.15217 0.452668
v -0.41634 1.15199 0.40772
v -0.402878 1.10175 0.4445
v -0.429789 1.1818 0.309377
v -0.442927 1.1406 0.348219
v -0.450493 1.15297 0.133756
v -0.450493 1.12175 0.293756
v -0.45345 1.08009 0.331322
v -0.442927 1.17182 0.188219
v -0.437281 1.09125 0.39192
v -0.414709 1.05001 0.426093
v -0.440996 1.03875 0.367265
v -0.414078 1.00088 0.398848
v -0.353607 1.11054 0.483913
v -0.374548 1.0498 0.468114
v -0.378973 0.997766 0.442596
v -0.334125 1.00124 0.476251
v -0.317462 1.0577 0.500606
v -0.28295 1.01105 0.49725
v -0.23071 0.975314 0.480746
v -0.285565 0.960821 0.468114
v -0.233622 0.932492 0.4445
v -0.342652 0.952923 0.435622
v -0.383173 0.954221 0.393968
v -0.342206 0.917469 0.382696
v -0.289814 0.916778 0.418929
v -0.237856 0.901231 0.398015
v -0.294297 0.893423 0.365891
v -0.243092 0.883912 0.34483
v -0.179131 0.963072 0.456904
v -0.18338 0.919029 0.40772
v -0.189067 0.895649 0.354808
v -0.139756 0.921752 0.361374
v -0.129783 0.957426 0.413203
v -0.0989143 0.960234 0.36403
v -0.107022 0.940392 0.31
v -0.0883821 0.973126 0.258626
v -0.160619 0.901996 0.304517
v -0.215353 0.88439 0.29598
v -0.190329 0.900092 0.248197
v -0.13361 0.960226 0.090499
v -0.190329 0.931312 0.0881967
v -0.169923 0.961042 0.0451182
v -0.160619 0.933216 0.144517
v -0.107022 0.971613 0.15
v -0.13361 0.929005 0.250499
v -0.368557 0.998033 0.032443
v -0.354637 1.03627 -0.00628977
v -0.318901 0.984029 0.0102139
v -0.332828 1.08054 -0.0331253
v -0.300894 1.0259 -0.0258568
v -0.264076 0.98004 -0.00137424
v -0.30479 1.12749 -0.0460207
v -0.271259 1.08013 -0.0494773
v -0.235114 1.02729 -0.0327848
v -0.208255 0.98637 -0.00143926
v -0.403427 1.04185 0.0369175
v -0.426693 1.09128 0.0500001
v -0.386387 1.08439 0.00115226
v -0.436586 1.14257 0.0706951
v -0.4061 1.14426 0.0212334
v -0.356752 1.13862 -0.0224682
v -0.397844 0.993062 0.0801247
v -0.415953 0.997418 0.133125
v -0.430088 1.04068 0.0885555
v -0.415953 0.966197 0.293125
v -0.421505 0.979549 0.347411
v -0.444155 1.01999 0.312338
v -0.449802 1.10056 0.108637
v -0.45345 1.11131 0.171322
v -0.444155 1.05121 0.152338
v -0.345604 0.957326 0.063621
v -0.31545 0.928666 0.101374
v -0.371604 0.955192 0.115565
v -0.31545 0.897445 0.261374
v -0.280389 0.883014 0.302829
v -0.332833 0.898353 0.322655
v -0.385671 0.934498 0.339347
v -0.371604 0.923971 0.275564
v -0.291757 0.946055 0.0448538
v -0.225977 0.947447 0.0379259
v -0.252987 0.920438 0.0919441
v -0.280389 0.914235 0.142829
v -0.215353 0.915611 0.13598
v -0.252987 0.889217 0.251944
f 1 2 3
f 2 4 5
f 3 5 6
f 2 5 3
f 4 7 8
f 7 9 10
f 8 10 11
f 7 10 8
f 12 13 14
f 13 15 16
f 14 16 17
f 13 16 14
f 4 8 5
f 8 11 18
f 5 18 6
f 8 18 5
f 1 3 19
f 3 6 20
f 19 20 21
f 3 20 19
f 12 14 22
f 14 17 23
f 22 23 24
f 14 23 22
f 25 26 27
f 26 24 28
f 27 28 29
f 26 28 27
f 12 22 30
f 22 24 26
f 30 26 25
f 22 26 30
f 1 19 31
f 19 21 32
f 31 32 33
f 19 32 31
f 21 34 35
f 27 29 36
f 35 37 38
f 27 36 39
f 33 40 41
f 40 38 42
f 41 42 43
f 40 42 41
f 21 35 32
f 35 38 40
f 32 40 33
f 35 40 32
f 1 31 44
f 31 33 45
f 44 45 46
f 31 45 44
f 33 41 47
f 41 43 48
f 47 48 49
f 41 48 47
f 46 50 51
f 50 49 52
f 51 52 53
f 50 52 51
f 33 47 45
f 47 49 50
f 45 50 46
f 47 50 45
f 1 44 2
f 44 46 54
f 2 54 4
f 44 54 2
f 46 51 55
f 51 53 56
f 55 56 57
f 51 56 55
f 4 58 7
f 58 57 59
f 7 59 9
f 58 59 7
f 46 55 54
f 55 57 58
f 54 58 4
f 55 58 54
f 9 60 10
f 61 62 63
f 64 63 15
f 60 65 10
f 62 66 67
f 66 68 69
f 67 69 70
f 66 69 67
f 15 71 16
f 71 70 72
f 16 72 17
f 71 72 16
f 62 67 63
f 67 70 71
f 63 71 15
f 67 71 63
f 17 72 73
f 72 70 74
f 73 74 75
f 72 74 73
f 70 69 76
f 69 68 77
f 76 77 78
f 69 77 76
f 75 79 80
f 79 78 81
f 80 81 82
f 79 81 80
f 70 76 74
f 76 78 79
f 74 79 75
f 76 79 74
f 17 73 23
f 73 75 83
f 23 83 24
f 73 83 23
f 75 80 84
f 80 82 85
f 84 85 86
f 80 85 84
f 24 87 28
f 87 86 88
f 28 88 29
f 87 88 28
f 75 84 83
f 84 86 87
f 83 87 24
f 84 87 83
f 29 88 89
f 88 86 90
f 89 90 91
f 88 90 89
f 86 85 92
f 85 82 93
f 92 93 94
f 85 93 92
f 91 95 96
f 95 94 97
f 96 97 98
f 95 97 96
f 86 92 90
f 92 94 95
f 90 95 91
f 92 95 90
f 29 89 36
f 89 91 99
f 36 99 100
f 89 99 36
f 91 96 101
f 96 98 102
f 101 102 103
f 96 102 101
f 38 104 42
f 104 105 106
f 42 106 43
f 104 106 42
f 91 101 99
f 107 105 104
f 108 104 38
f 101 109 99
f 43 106 110
f 106 105 111
f 110 111 112
f 106 111 110
f 105 113 114
f 102 98 115
f 114 116 117
f 102 115 118
f 112 119 120
f 119 117 121
f 120 121 122
f 119 121 120
f 105 114 111
f 114 117 119
f 111 119 112
f 114 119 111
f 43 110 48
f 110 112 123
f 48 123 49
f 110 123 48
f 112 120 124
f 120 122 125
f 124 125 126
f 120 125 124
f 49 127 52
f 127 126 128
f 52 128 53
f 127 128 52
f 112 124 123
f 124 126 127
f 123 127 49
f 124 127 123
f 53 128 129
f 128 126 130
f 129 130 131
f 128 130 129
f 126 125 132
f 125 122 133
f 132 133 134
f 125 133 132
f 131 135 136
f 135 134 137
f 136 137 138
f 135 137 136
f 126 132 130
f 132 134 135
f 130 135 131
f 132 135 130
f 53 129 56
f 129 131 139
f 56 139 57
f 129 139 56
f 131 136 140
f 136 138 141
f 140 141 142
f 136 141 140
f 57 143 59
f 143 142 144
f 59 144 9
f 143 144 59
f 131 140 139
f 140 142 143
f 139 143 57
f 140 143 139
f 9 144 60
f 144 142 145
f 60 145 146
f 144 145 60
f 142 141 147
f 141 138 148
f 147 148 149
f 141 148 147
f 62 150 66
f 150 151 152
f 66 152 68
f 150 152 66
f 142 147 145
f 153 151 150
f 154 150 62
f 147 155 145
f 156 157 158
f 157 159 160
f 158 160 161
f 157 160 158
f 159 162 163
f 162 82 81
f 163 81 78
f 162 81 163
f 161 164 165
f 164 78 77
f 165 77 68
f 164 77 165
f 159 163 160
f 163 78 164
f 160 164 161
f 163 164 160
f 156 166 157
f 166 167 168
f 157 168 159
f 166 168 157
f 167 169 170
f 169 98 97
f 170 97 94
f 169 97 170
f 159 171 162
f 171 94 93
f 162 93 82
f 171 93 162
f 167 170 168
f 170 94 171
f 168 171 159
f 170 171 168
f 156 172 166
f 172 173 174
f 166 174 167
f 172 174 166
f 175 176 177
f 176 122 121
f 177 121 117
f 176 121 177
f 167 178 169
f 178 179 115
f 169 115 98
f 178 115 169
f 173 180 174
f 180 179 178
f 174 178 167
f 180 178 174
f 156 181 172
f 181 182 183
f 172 183 173
f 181 183 172
f 184 185 186
f 185 138 137
f 186 137 134
f 185 137 186
f 175 187 176
f 187 134 133
f 176 133 122
f 187 133 176
f 184 186 188
f 186 134 187
f 188 187 175
f 186 187 188
f 156 158 181
f 158 161 189
f 181 189 182
f 158 189 181
f 161 165 190
f 165 68 152
f 190 152 151
f 165 152 190
f 182 191 192
f 191 151 193
f 185 148 138
f 194 148 185
f 161 190 189
f 190 151 191
f 189 191 182
f 190 191 189
f 12 6 13
f 13 6 18
f 13 18 15
f 15 18 11
f 27 34 25
f 25 34 21
f 30 20 12
f 12 20 6
f 25 21 30
f 30 21 20
f 36 37 39
f 39 37 35
f 39 35 27
f 27 35 34
f 61 60 62
f 62 60 146
f 63 65 61
f 61 65 60
f 64 10 63
f 63 10 65
f 15 11 64
f 64 11 10
f 99 108 100
f 100 108 38
f 100 38 36
f 36 38 37
f 102 113 103
f 103 113 105
f 103 105 101
f 101 105 107
f 101 107 109
f 109 107 104
f 109 104 99
f 99 104 108
f 115 116 118
f 118 116 114
f 118 114 102
f 102 114 113
f 153 147 151
f 151 147 149
f 150 155 153
f 153 155 147
f 154 145 150
f 150 145 155
f 62 146 154
f 154 146 145
f 179 117 115
f 115 117 116
f 173 175 180
f 180 175 177
f 180 177 179
f 179 177 117
f 182 184 183
f 183 184 188
f 183 188 173
f 173 188 175
f 191 194 192
f 192 194 185
f 192 185 182
f 182 185 184
f 151 149 193
f 193 149 148
f 193 148 191
f 191 148 194
