v 0.826557 1.13183 0.827557
v 0.861427 1.08801 0.823083
v 0.855844 1.1368 0.779876
v 0.884694 1.03858 0.81
v 0.888089 1.08918 0.771445
v 0.873953 1.13244 0.726875
v 0.894586 0.987296 0.789305
v 0.907802 1.0293 0.751364
v 0.890351 0.938067 0.762573
v 0.908493 0.976888 0.726244
v 0.91145 1.01855 0.688678
v 0.902156 1.07865 0.707662
v 0.879506 1.11909 0.672589
v 0.902156 1.02101 0.507662
v 0.91145 0.960912 0.488678
v 0.898996 1.00225 0.452735
v 0.879506 1.06145 0.472589
v 0.872078 1.04012 0.421152
v 0.803604 1.17254 0.796379
v 0.829605 1.17467 0.744436
v 0.77345 1.2012 0.758626
v 0.843671 1.16414 0.680653
v 0.841173 1.08678 0.426032
v 0.843671 1.1065 0.480653
v 0.800207 1.12353 0.437304
v 0.790834 1.20029 0.697345
v 0.73839 1.21563 0.717171
v 0.800207 1.18117 0.637304
v 0.752297 1.20522 0.65411
v 0.701092 1.21473 0.67517
v 0.776901 1.14583 0.849786
v 0.749758 1.18381 0.815146
v 0.722076 1.14982 0.861374
v 0.710987 1.20942 0.768056
v 0.673354 1.21425 0.72402
v 0.648329 1.19855 0.771804
v 0.683978 1.18242 0.822074
v 0.666255 1.14349 0.86144
v 0.627923 1.16882 0.814882
v 0.613689 1.12733 0.849977
v 0.812637 1.09359 0.86629
v 0.758894 1.10396 0.885857
v 0.790828 1.04932 0.893126
v 0.693114 1.10257 0.892785
v 0.636956 1.08988 0.884793
v 0.665707 1.04667 0.906303
v 0.729259 1.04973 0.909478
v 0.76279 1.00238 0.906021
v 0.697754 1.001 0.912871
v 0.730657 0.95634 0.903995
v 0.844387 1.04548 0.858848
v 0.814752 0.991246 0.882468
v 0.78228 0.943178 0.886167
v 0.828325 0.935428 0.854929
v 0.8641 0.9856 0.838767
v 0.865286 0.93368 0.812658
v 0.890351 0.880426 0.562573
v 0.887789 0.859198 0.510623
v 0.908493 0.919246 0.526244
v 0.871618 0.845386 0.458626
v 0.900928 0.900397 0.471781
v 0.843068 0.840043 0.410539
v 0.87434 0.88901 0.41228
v 0.804312 0.843575 0.370024
v 0.837485 0.888833 0.367332
v 0.860878 0.939252 0.3755
v 0.895281 0.949745 0.42808
v 0.872709 0.990994 0.393907
v 0.836973 1.04323 0.377404
v 0.832549 0.991195 0.351886
v 0.792126 1.03976 0.343749
v 0.811608 0.93046 0.336087
v 0.781045 0.881025 0.335208
v 0.752293 0.92423 0.313697
v 0.775462 0.983298 0.319394
v 0.740951 1.02995 0.32275
v 0.720246 0.969901 0.30713
v 0.687343 1.01456 0.316006
v 0.800652 1.08808 0.384378
v 0.743566 1.08018 0.351886
v 0.688711 1.06569 0.339254
v 0.691622 1.10851 0.3755
v 0.747814 1.12422 0.401071
v 0.752297 1.14758 0.45411
v 0.695857 1.13977 0.421985
v 0.701092 1.15709 0.47517
v 0.647067 1.14535 0.465192
v 0.64138 1.12197 0.41228
v 0.597757 1.11925 0.458626
v 0.637131 1.07793 0.363096
v 0.63572 1.02772 0.333833
v 0.589675 1.03547 0.365071
v 0.587783 1.08357 0.406797
v 0.556915 1.08077 0.45597
v 0.552714 1.03722 0.407342
v 0.52765 1.03283 0.457427
v 0.647067 1.20299 0.665192
v 0.597757 1.17689 0.658626
v 0.618619 1.19665 0.715483
v 0.556915 1.13841 0.65597
v 0.565023 1.15825 0.71
v 0.530211 1.05406 0.509377
v 0.530211 1.1117 0.709377
v 0.546382 1.12551 0.761374
v 0.59161 1.16964 0.769501
v 0.574933 1.13086 0.809461
v 0.580515 1.08207 0.852668
v 0.54366 1.08189 0.80772
v 0.557123 1.03165 0.8445
v 0.517073 1.0705 0.748219
v 0.52765 1.09048 0.657427
v 0.509507 1.05166 0.693756
v 0.50655 1.00999 0.731322
v 0.522719 1.02116 0.79192
v 0.545291 0.979908 0.826093
v 0.519005 0.968649 0.767265
v 0.545922 0.930782 0.798848
v 0.606393 1.04044 0.883914
v 0.585452 0.979706 0.868114
v 0.581028 0.927668 0.842597
v 0.625875 0.931146 0.876251
v 0.642538 0.987604 0.900606
v 0.67705 0.940952 0.89725
v 0.72929 0.905216 0.880746
v 0.674435 0.890723 0.868114
v 0.726378 0.862394 0.8445
v 0.617348 0.882825 0.835622
v 0.576827 0.884123 0.793968
v 0.617794 0.847372 0.782696
v 0.670186 0.84668 0.81893
v 0.722144 0.831133 0.798015
v 0.665703 0.823325 0.765891
v 0.716909 0.813814 0.74483
v 0.780869 0.892974 0.856904
v 0.776621 0.848931 0.80772
v 0.770933 0.825551 0.754808
v 0.820244 0.851654 0.761374
v 0.830217 0.887328 0.813203
v 0.861086 0.890136 0.76403
v 0.887789 0.916839 0.710623
v 0.861086 0.832494 0.56403
v 0.820244 0.794012 0.561374
v 0.852978 0.812653 0.51
v 0.770933 0.767909 0.554808
v 0.799381 0.774256 0.504517
v 0.716909 0.756172 0.54483
v 0.744647 0.756651 0.49598
v 0.769671 0.772352 0.448197
v 0.82639 0.801265 0.450499
v 0.790077 0.802081 0.405118
v 0.591443 0.839073 0.392443
v 0.605363 0.877309 0.35371
v 0.641099 0.825069 0.370214
v 0.627172 0.921583 0.326875
v 0.659106 0.866942 0.334143
v 0.695925 0.82108 0.358626
v 0.65521 0.968525 0.313979
v 0.688741 0.921171 0.310523
v 0.724886 0.868333 0.327215
v 0.751745 0.827409 0.358561
v 0.556573 0.882891 0.396917
v 0.533307 0.932323 0.41
v 0.573613 0.925426 0.361152
v 0.523415 0.983605 0.430695
v 0.5539 0.985302 0.381233
v 0.603248 0.979655 0.337532
v 0.562156 0.834102 0.440125
v 0.544047 0.838458 0.493125
v 0.529912 0.881724 0.448555
v 0.538495 0.85181 0.547411
v 0.515845 0.892252 0.512338
v 0.538495 0.909451 0.747411
v 0.515845 0.949893 0.712338
v 0.510198 0.9416 0.468637
v 0.50655 0.952348 0.531322
v 0.509507 0.994014 0.493756
v 0.614396 0.798365 0.423621
v 0.64455 0.769705 0.461374
v 0.588396 0.796231 0.475565
v 0.679611 0.755275 0.502829
v 0.627167 0.770613 0.522655
v 0.665703 0.765683 0.565891
v 0.617794 0.78973 0.582696
v 0.574329 0.806759 0.539347
v 0.574329 0.8644 0.739347
v 0.668243 0.787095 0.404854
v 0.734023 0.788486 0.397926
v 0.707014 0.761477 0.451944
f 1 2 3
f 2 4 5
f 3 5 6
f 2 5 3
f 4 7 8
f 7 9 10
f 8 10 11
f 7 10 8
f 6 12 13
f 14 15 16
f 17 16 18
f 14 16 17
f 4 8 5
f 8 11 12
f 5 12 6
f 8 12 5
f 1 3 19
f 3 6 20
f 19 20 21
f 3 20 19
f 6 13 22
f 17 18 23
f 24 23 25
f 17 23 24
f 21 26 27
f 26 28 29
f 27 29 30
f 26 29 27
f 6 22 20
f 22 28 26
f 20 26 21
f 22 26 20
f 1 19 31
f 19 21 32
f 31 32 33
f 19 32 31
f 21 27 34
f 27 30 35
f 34 35 36
f 27 35 34
f 33 37 38
f 37 36 39
f 38 39 40
f 37 39 38
f 21 34 32
f 34 36 37
f 32 37 33
f 34 37 32
f 1 31 41
f 31 33 42
f 41 42 43
f 31 42 41
f 33 38 44
f 38 40 45
f 44 45 46
f 38 45 44
f 43 47 48
f 47 46 49
f 48 49 50
f 47 49 48
f 33 44 42
f 44 46 47
f 42 47 43
f 44 47 42
f 1 41 2
f 41 43 51
f 2 51 4
f 41 51 2
f 43 48 52
f 48 50 53
f 52 53 54
f 48 53 52
f 4 55 7
f 55 54 56
f 7 56 9
f 55 56 7
f 43 52 51
f 52 54 55
f 51 55 4
f 52 55 51
f 57 58 59
f 58 60 61
f 59 61 15
f 58 61 59
f 60 62 63
f 62 64 65
f 63 65 66
f 62 65 63
f 15 67 16
f 67 66 68
f 16 68 18
f 67 68 16
f 60 63 61
f 63 66 67
f 61 67 15
f 63 67 61
f 18 68 69
f 68 66 70
f 69 70 71
f 68 70 69
f 66 65 72
f 65 64 73
f 72 73 74
f 65 73 72
f 71 75 76
f 75 74 77
f 76 77 78
f 75 77 76
f 66 72 70
f 72 74 75
f 70 75 71
f 72 75 70
f 18 69 23
f 69 71 79
f 23 79 25
f 69 79 23
f 71 76 80
f 76 78 81
f 80 81 82
f 76 81 80
f 25 83 84
f 83 82 85
f 84 85 86
f 83 85 84
f 71 80 79
f 80 82 83
f 79 83 25
f 80 83 79
f 86 85 87
f 85 82 88
f 87 88 89
f 85 88 87
f 82 81 90
f 81 78 91
f 90 91 92
f 81 91 90
f 89 93 94
f 93 92 95
f 94 95 96
f 93 95 94
f 82 90 88
f 90 92 93
f 88 93 89
f 90 93 88
f 30 97 35
f 97 98 99
f 35 99 36
f 97 99 35
f 98 100 101
f 94 96 102
f 101 103 104
f 100 103 101
f 36 105 39
f 105 104 106
f 39 106 40
f 105 106 39
f 98 101 99
f 101 104 105
f 99 105 36
f 101 105 99
f 40 106 107
f 106 104 108
f 107 108 109
f 106 108 107
f 104 103 110
f 103 111 112
f 110 112 113
f 103 112 110
f 109 114 115
f 114 113 116
f 115 116 117
f 114 116 115
f 104 110 108
f 110 113 114
f 108 114 109
f 110 114 108
f 40 107 45
f 107 109 118
f 45 118 46
f 107 118 45
f 109 115 119
f 115 117 120
f 119 120 121
f 115 120 119
f 46 122 49
f 122 121 123
f 49 123 50
f 122 123 49
f 109 119 118
f 119 121 122
f 118 122 46
f 119 122 118
f 50 123 124
f 123 121 125
f 124 125 126
f 123 125 124
f 121 120 127
f 120 117 128
f 127 128 129
f 120 128 127
f 126 130 131
f 130 129 132
f 131 132 133
f 130 132 131
f 121 127 125
f 127 129 130
f 125 130 126
f 127 130 125
f 50 124 53
f 124 126 134
f 53 134 54
f 124 134 53
f 126 131 135
f 131 133 136
f 135 136 137
f 131 136 135
f 54 138 56
f 138 137 139
f 56 139 9
f 138 139 56
f 126 135 134
f 135 137 138
f 134 138 54
f 135 138 134
f 9 139 140
f 141 142 143
f 58 143 60
f 141 143 58
f 142 144 145
f 144 146 147
f 145 147 148
f 144 147 145
f 60 149 62
f 149 148 150
f 62 150 64
f 149 150 62
f 142 145 143
f 145 148 149
f 143 149 60
f 145 149 143
f 151 152 153
f 152 154 155
f 153 155 156
f 152 155 153
f 154 157 158
f 157 78 77
f 158 77 74
f 157 77 158
f 156 159 160
f 159 74 73
f 160 73 64
f 159 73 160
f 154 158 155
f 158 74 159
f 155 159 156
f 158 159 155
f 151 161 152
f 161 162 163
f 152 163 154
f 161 163 152
f 162 164 165
f 164 96 95
f 165 95 92
f 164 95 165
f 154 166 157
f 166 92 91
f 157 91 78
f 166 91 157
f 162 165 163
f 165 92 166
f 163 166 154
f 165 166 163
f 151 167 161
f 167 168 169
f 161 169 162
f 167 169 161
f 168 170 171
f 172 117 116
f 173 116 113
f 172 116 173
f 162 174 164
f 174 175 176
f 164 176 96
f 174 176 164
f 168 171 169
f 171 175 174
f 169 174 162
f 171 174 169
f 151 177 167
f 177 178 179
f 167 179 168
f 177 179 167
f 178 180 181
f 180 146 182
f 181 182 183
f 180 182 181
f 168 184 170
f 185 129 128
f 172 128 117
f 185 128 172
f 178 181 179
f 181 183 184
f 179 184 168
f 181 184 179
f 151 153 177
f 153 156 186
f 177 186 178
f 153 186 177
f 156 160 187
f 160 64 150
f 187 150 148
f 160 150 187
f 178 188 180
f 188 148 147
f 180 147 146
f 188 147 180
f 156 187 186
f 187 148 188
f 186 188 178
f 187 188 186
f 14 12 15
f 15 12 11
f 17 13 14
f 14 13 12
f 25 28 24
f 24 28 22
f 24 22 17
f 17 22 13
f 57 9 58
f 58 9 140
f 59 10 57
f 57 10 9
f 15 11 59
f 59 11 10
f 84 29 25
f 25 29 28
f 86 30 84
f 84 30 29
f 87 97 86
f 86 97 30
f 89 98 87
f 87 98 97
f 94 100 89
f 89 100 98
f 96 111 102
f 102 111 103
f 102 103 94
f 94 103 100
f 141 139 142
f 142 139 137
f 58 140 141
f 141 140 139
f 142 137 144
f 144 137 136
f 144 136 146
f 146 136 133
f 170 172 171
f 171 172 173
f 175 113 176
f 176 113 112
f 176 112 96
f 96 112 111
f 171 173 175
f 175 173 113
f 146 133 182
f 182 133 132
f 182 132 183
f 183 132 129
f 184 185 170
f 170 185 172
f 183 129 184
f 184 129 185
