v -0.133443 1.14929 0.627557
v -0.0985731 1.10547 0.623083
v -0.104156 1.15426 0.579876
v -0.0753065 1.05604 0.61
v -0.0719114 1.10664 0.571445
v -0.0860467 1.1499 0.526875
v -0.0654143 1.00476 0.589305
v -0.0521981 1.04676 0.551364
v -0.0696495 0.955528 0.562573
v -0.0515067 0.994349 0.526244
v -0.0485499 1.03601 0.488678
v -0.0860467 1.20254 0.326875
v -0.0578446 1.14875 0.307662
v -0.0804945 1.18919 0.272589
v -0.0485499 1.08865 0.288678
v -0.0610043 1.12999 0.252735
v -0.0879217 1.16786 0.221152
v -0.0521981 1.0994 0.351364
v -0.0578446 1.09611 0.507662
v -0.156396 1.19 0.596379
v -0.130396 1.19213 0.544436
v -0.18655 1.21866 0.558626
v -0.116329 1.23424 0.280653
v -0.118827 1.21452 0.226032
v -0.159793 1.25127 0.237304
v -0.18655 1.27129 0.358626
v -0.169166 1.27039 0.297345
v -0.221611 1.28572 0.317171
v -0.207703 1.27532 0.25411
v -0.258908 1.28483 0.27517
v -0.130396 1.24477 0.344436
v -0.183099 1.16329 0.649786
v -0.210242 1.20127 0.615146
v -0.237924 1.16728 0.661374
v -0.249013 1.27952 0.368056
v -0.286646 1.28435 0.32402
v -0.311671 1.26865 0.371803
v -0.276022 1.19988 0.622074
v -0.293745 1.16095 0.661439
v -0.311671 1.21601 0.571804
v -0.332077 1.18628 0.614882
v -0.346311 1.14479 0.649976
v -0.249013 1.22689 0.568056
v -0.147363 1.11105 0.66629
v -0.201106 1.12142 0.685857
v -0.169172 1.06678 0.693125
v -0.266886 1.12003 0.692785
v -0.323044 1.10734 0.684793
v -0.294293 1.06413 0.706303
v -0.230741 1.06719 0.709478
v -0.19721 1.01984 0.706021
v -0.262246 1.01846 0.71287
v -0.229343 0.973801 0.703995
v -0.115613 1.06294 0.658848
v -0.145248 1.00871 0.682468
v -0.17772 0.960639 0.686167
v -0.131675 0.952889 0.654929
v -0.0958997 1.00306 0.638767
v -0.0947139 0.951141 0.612658
v -0.0722108 0.9343 0.510623
v -0.0722108 0.986937 0.310623
v -0.0883821 0.973126 0.258626
v -0.0590724 1.02814 0.271781
v -0.0515067 1.04699 0.326244
v -0.0590724 0.9755 0.471781
v -0.116932 0.967783 0.210539
v -0.0856599 1.01675 0.21228
v -0.155688 0.971315 0.170024
v -0.122515 1.01657 0.167332
v -0.0991223 1.06699 0.1755
v -0.0647188 1.07748 0.22808
v -0.087291 1.11873 0.193907
v -0.123027 1.17097 0.177404
v -0.127452 1.11893 0.151886
v -0.167875 1.16749 0.143749
v -0.148393 1.0582 0.136087
v -0.178955 1.00876 0.135207
v -0.207707 1.05197 0.113697
v -0.184538 1.11104 0.119394
v -0.21905 1.15769 0.12275
v -0.239754 1.09764 0.10713
v -0.272657 1.1423 0.116006
v -0.159348 1.21582 0.184378
v -0.216434 1.20792 0.151886
v -0.27129 1.19343 0.139254
v -0.268378 1.23625 0.1755
v -0.212186 1.25196 0.201071
v -0.264143 1.26751 0.221985
v -0.312933 1.27309 0.265192
v -0.31862 1.24971 0.21228
v -0.362243 1.24699 0.258626
v -0.322869 1.20567 0.163096
v -0.32428 1.15546 0.133833
v -0.370325 1.16321 0.165071
v -0.372217 1.21131 0.206797
v -0.403086 1.20851 0.25597
v -0.407286 1.16496 0.207342
v -0.43235 1.16057 0.257427
v -0.341381 1.26674 0.315483
v -0.394977 1.22835 0.31
v -0.429789 1.1818 0.309377
v -0.413618 1.19561 0.361374
v -0.36839 1.1871 0.569501
v -0.413618 1.14298 0.561374
v -0.385067 1.14832 0.609461
v -0.394977 1.17571 0.51
v -0.36839 1.23973 0.369501
v -0.379485 1.09953 0.652668
v -0.41634 1.09935 0.60772
v -0.402878 1.04911 0.6445
v -0.429789 1.12916 0.509377
v -0.442927 1.08797 0.548219
v -0.450493 1.12175 0.293756
v -0.450493 1.06912 0.493756
v -0.45345 1.02745 0.531322
v -0.442927 1.1406 0.348219
v -0.437281 1.03862 0.59192
v -0.414709 0.997369 0.626093
v -0.440996 0.98611 0.567265
v -0.414078 0.948243 0.598848
v -0.353607 1.0579 0.683913
v -0.374548 0.997167 0.668114
v -0.378973 0.945129 0.642596
v -0.334125 0.948607 0.676251
v -0.317462 1.00506 0.700606
v -0.28295 0.958413 0.69725
v -0.23071 0.922677 0.680746
v -0.285565 0.908184 0.668114
v -0.233622 0.879855 0.6445
v -0.342652 0.900286 0.635622
v -0.383173 0.901584 0.593968
v -0.342206 0.864833 0.582696
v -0.289814 0.864141 0.61893
v -0.237856 0.848594 0.598015
v -0.294297 0.840786 0.565891
v -0.243092 0.831275 0.54483
v -0.179131 0.910435 0.656904
v -0.18338 0.866392 0.60772
v -0.189067 0.843012 0.554808
v -0.139756 0.869115 0.561374
v -0.129783 0.904789 0.613203
v -0.0989143 0.907597 0.56403
v -0.107022 0.887755 0.51
v -0.0883821 0.920489 0.458626
v -0.160619 0.849359 0.504517
v -0.215353 0.831753 0.49598
v -0.190329 0.847455 0.448197
v -0.13361 0.929005 0.250499
v -0.190329 0.900092 0.248197
v -0.169923 0.929821 0.205118
v -0.13361 0.876368 0.450499
v -0.107022 0.940392 0.31
v -0.368557 0.966812 0.192443
v -0.354637 1.00505 0.15371
v -0.318901 0.952808 0.170214
v -0.332828 1.04932 0.126875
v -0.300894 0.994681 0.134143
v -0.264076 0.948819 0.158626
v -0.30479 1.09626 0.113979
v -0.271259 1.04891 0.110523
v -0.235114 0.996073 0.127215
v -0.208255 0.955149 0.158561
v -0.403427 1.01063 0.196917
v -0.426693 1.06006 0.21
v -0.386387 1.05317 0.161152
v -0.436586 1.11134 0.230695
v -0.4061 1.11304 0.181233
v -0.356752 1.10739 0.137532
v -0.397844 0.961841 0.240125
v -0.415953 0.966197 0.293125
v -0.430088 1.00946 0.248555
v -0.415953 0.91356 0.493125
v -0.421505 0.926912 0.547411
v -0.444155 0.967355 0.512338
v -0.449802 1.06934 0.268637
v -0.45345 1.08009 0.331322
v -0.444155 1.01999 0.312338
v -0.449802 1.0167 0.468637
v -0.345604 0.926105 0.223621
v -0.31545 0.897445 0.261374
v -0.371604 0.923971 0.275564
v -0.31545 0.844808 0.461374
v -0.280389 0.830378 0.502829
v -0.332833 0.845716 0.522655
v -0.385671 0.881861 0.539347
v -0.371604 0.871334 0.475565
v -0.291757 0.914834 0.204854
v -0.225977 0.916226 0.197926
v -0.252987 0.83658 0.451944
v -0.252987 0.889217 0.251944
f 1 2 3
f 2 4 5
f 3 5 6
f 2 5 3
f 4 7 8
f 7 9 10
f 8 10 11
f 7 10 8
f 12 13 14
f 13 15 16
f 14 16 17
f 13 16 14
f 4 8 5
f 18 15 13
f 5 19 6
f 8 19 5
f 1 3 20
f 3 6 21
f 20 21 22
f 3 21 20
f 12 14 23
f 14 17 24
f 23 24 25
f 14 24 23
f 26 27 28
f 27 25 29
f 28 29 30
f 27 29 28
f 12 23 31
f 23 25 27
f 31 27 26
f 23 27 31
f 1 20 32
f 20 22 33
f 32 33 34
f 20 33 32
f 26 28 35
f 28 30 36
f 35 36 37
f 28 36 35
f 34 38 39
f 38 40 41
f 39 41 42
f 38 41 39
f 22 43 33
f 43 40 38
f 33 38 34
f 43 38 33
f 1 32 44
f 32 34 45
f 44 45 46
f 32 45 44
f 34 39 47
f 39 42 48
f 47 48 49
f 39 48 47
f 46 50 51
f 50 49 52
f 51 52 53
f 50 52 51
f 34 47 45
f 47 49 50
f 45 50 46
f 47 50 45
f 1 44 2
f 44 46 54
f 2 54 4
f 44 54 2
f 46 51 55
f 51 53 56
f 55 56 57
f 51 56 55
f 4 58 7
f 58 57 59
f 7 59 9
f 58 59 7
f 46 55 54
f 55 57 58
f 54 58 4
f 55 58 54
f 9 60 10
f 61 62 63
f 64 63 15
f 60 65 10
f 62 66 67
f 66 68 69
f 67 69 70
f 66 69 67
f 15 71 16
f 71 70 72
f 16 72 17
f 71 72 16
f 62 67 63
f 67 70 71
f 63 71 15
f 67 71 63
f 17 72 73
f 72 70 74
f 73 74 75
f 72 74 73
f 70 69 76
f 69 68 77
f 76 77 78
f 69 77 76
f 75 79 80
f 79 78 81
f 80 81 82
f 79 81 80
f 70 76 74
f 76 78 79
f 74 79 75
f 76 79 74
f 17 73 24
f 73 75 83
f 24 83 25
f 73 83 24
f 75 80 84
f 80 82 85
f 84 85 86
f 80 85 84
f 25 87 29
f 87 86 88
f 29 88 30
f 87 88 29
f 75 84 83
f 84 86 87
f 83 87 25
f 84 87 83
f 30 88 89
f 88 86 90
f 89 90 91
f 88 90 89
f 86 85 92
f 85 82 93
f 92 93 94
f 85 93 92
f 91 95 96
f 95 94 97
f 96 97 98
f 95 97 96
f 86 92 90
f 92 94 95
f 90 95 91
f 92 95 90
f 30 89 36
f 89 91 99
f 36 99 37
f 89 99 36
f 91 96 100
f 96 98 101
f 100 101 102
f 96 101 100
f 40 103 41
f 103 104 105
f 41 105 42
f 103 105 41
f 91 100 99
f 106 104 103
f 99 107 37
f 100 107 99
f 42 105 108
f 105 104 109
f 108 109 110
f 105 109 108
f 104 111 112
f 101 98 113
f 112 114 115
f 101 113 116
f 110 117 118
f 117 115 119
f 118 119 120
f 117 119 118
f 104 112 109
f 112 115 117
f 109 117 110
f 112 117 109
f 42 108 48
f 108 110 121
f 48 121 49
f 108 121 48
f 110 118 122
f 118 120 123
f 122 123 124
f 118 123 122
f 49 125 52
f 125 124 126
f 52 126 53
f 125 126 52
f 110 122 121
f 122 124 125
f 121 125 49
f 122 125 121
f 53 126 127
f 126 124 128
f 127 128 129
f 126 128 127
f 124 123 130
f 123 120 131
f 130 131 132
f 123 131 130
f 129 133 134
f 133 132 135
f 134 135 136
f 133 135 134
f 124 130 128
f 130 132 133
f 128 133 129
f 130 133 128
f 53 127 56
f 127 129 137
f 56 137 57
f 127 137 56
f 129 134 138
f 134 136 139
f 138 139 140
f 134 139 138
f 57 141 59
f 141 140 142
f 59 142 9
f 141 142 59
f 129 138 137
f 138 140 141
f 137 141 57
f 138 141 137
f 9 142 60
f 142 140 143
f 60 143 144
f 142 143 60
f 140 139 145
f 139 136 146
f 145 146 147
f 139 146 145
f 62 148 66
f 148 149 150
f 66 150 68
f 148 150 66
f 140 145 143
f 145 147 151
f 152 148 62
f 145 151 143
f 153 154 155
f 154 156 157
f 155 157 158
f 154 157 155
f 156 159 160
f 159 82 81
f 160 81 78
f 159 81 160
f 158 161 162
f 161 78 77
f 162 77 68
f 161 77 162
f 156 160 157
f 160 78 161
f 157 161 158
f 160 161 157
f 153 163 154
f 163 164 165
f 154 165 156
f 163 165 154
f 164 166 167
f 166 98 97
f 167 97 94
f 166 97 167
f 156 168 159
f 168 94 93
f 159 93 82
f 168 93 159
f 164 167 165
f 167 94 168
f 165 168 156
f 167 168 165
f 153 169 163
f 169 170 171
f 163 171 164
f 169 171 163
f 172 173 174
f 173 120 119
f 174 119 115
f 173 119 174
f 164 175 166
f 175 176 113
f 166 113 98
f 175 113 166
f 170 177 171
f 174 115 178
f 171 175 164
f 177 175 171
f 153 179 169
f 179 180 181
f 169 181 170
f 179 181 169
f 182 183 184
f 183 136 135
f 184 135 132
f 183 135 184
f 172 185 173
f 185 132 131
f 173 131 120
f 185 131 173
f 182 184 186
f 184 132 185
f 186 185 172
f 184 185 186
f 153 155 179
f 155 158 187
f 179 187 180
f 155 187 179
f 158 162 188
f 162 68 150
f 188 150 149
f 162 150 188
f 182 189 183
f 189 147 146
f 183 146 136
f 189 146 183
f 158 188 187
f 188 149 190
f 187 190 180
f 188 190 187
f 12 6 13
f 13 6 19
f 18 8 15
f 15 8 11
f 13 19 18
f 18 19 8
f 31 21 12
f 12 21 6
f 26 22 31
f 31 22 21
f 35 43 26
f 26 43 22
f 37 40 35
f 35 40 43
f 61 60 62
f 62 60 144
f 63 65 61
f 61 65 60
f 64 10 63
f 63 10 65
f 15 11 64
f 64 11 10
f 101 111 102
f 102 111 104
f 102 104 100
f 100 104 106
f 107 103 37
f 37 103 40
f 100 106 107
f 107 106 103
f 113 114 116
f 116 114 112
f 116 112 101
f 101 112 111
f 148 151 149
f 149 151 147
f 152 143 148
f 148 143 151
f 62 144 152
f 152 144 143
f 175 178 176
f 176 178 115
f 176 115 113
f 113 115 114
f 170 172 177
f 177 172 174
f 177 174 175
f 175 174 178
f 180 182 181
f 181 182 186
f 181 186 170
f 170 186 172
f 149 147 190
f 190 147 189
f 190 189 180
f 180 189 182
