v -0.133443 1.13209 0.667557
v -0.0985731 1.08827 0.663083
v -0.104156 1.13706 0.619875
v -0.0753065 1.03884 0.65
v -0.0719114 1.08944 0.611445
v -0.0860467 1.13271 0.566875
v -0.0654143 0.987558 0.629305
v -0.0521981 1.02956 0.591364
v -0.0696495 0.938329 0.602573
v -0.0515067 0.97715 0.566244
v -0.0485499 1.01882 0.528678
v -0.0860467 1.1499 0.526875
v -0.0578446 1.09611 0.507662
v -0.0804945 1.13655 0.472589
v -0.0485499 1.03601 0.488678
v -0.0610043 1.07735 0.452735
v -0.0879217 1.11522 0.421152
v -0.0521981 1.04676 0.551364
v -0.0719114 1.10664 0.571445
v -0.0578446 1.07891 0.547662
v -0.156396 1.1728 0.636379
v -0.104156 1.15426 0.579876
v -0.130396 1.19213 0.544436
v -0.156396 1.19 0.596379
v -0.18655 1.21866 0.558626
v -0.130396 1.17493 0.584436
v -0.116329 1.1816 0.480653
v -0.118827 1.16188 0.426032
v -0.159793 1.19863 0.437304
v -0.169166 1.21775 0.497345
v -0.221611 1.23309 0.517171
v -0.207703 1.22268 0.45411
v -0.258908 1.23219 0.47517
v -0.183099 1.14609 0.689786
v -0.18655 1.20146 0.598626
v -0.210242 1.18407 0.655146
v -0.237924 1.15008 0.701374
v -0.249013 1.22689 0.568056
v -0.286646 1.23171 0.52402
v -0.311671 1.21601 0.571804
v -0.276022 1.18268 0.662074
v -0.293745 1.14375 0.701439
v -0.311671 1.19881 0.611803
v -0.332077 1.16908 0.654882
v -0.346311 1.12759 0.689976
v -0.210242 1.20127 0.615146
v -0.276022 1.19988 0.622074
v -0.249013 1.20969 0.608056
v -0.147363 1.09385 0.70629
v -0.201106 1.10422 0.725857
v -0.169172 1.04958 0.733125
v -0.266886 1.10283 0.732785
v -0.323044 1.09014 0.724793
v -0.294293 1.04693 0.746303
v -0.230741 1.04999 0.749478
v -0.19721 1.00264 0.746021
v -0.262246 1.00126 0.75287
v -0.229343 0.956602 0.743995
v -0.115613 1.04574 0.698848
v -0.145248 0.991508 0.722468
v -0.17772 0.94344 0.726167
v -0.131675 0.93569 0.694929
v -0.0958997 0.985862 0.678767
v -0.0947139 0.933942 0.652658
v -0.0722108 0.917101 0.550623
v -0.0883821 0.90329 0.498626
v -0.0590724 0.958301 0.511781
v -0.0515067 0.994349 0.526244
v -0.0590724 0.9755 0.471781
v -0.0883821 0.920489 0.458626
v -0.116932 0.915146 0.410539
v -0.0856599 0.964112 0.41228
v -0.155688 0.918678 0.370024
v -0.122515 0.963936 0.367332
v -0.0991223 1.01435 0.3755
v -0.0647188 1.02485 0.42808
v -0.087291 1.0661 0.393907
v -0.123027 1.11834 0.377404
v -0.127452 1.0663 0.351886
v -0.167875 1.11486 0.343749
v -0.148393 1.00556 0.336087
v -0.178955 0.956128 0.335208
v -0.207707 0.999332 0.313697
v -0.184538 1.0584 0.319394
v -0.21905 1.10505 0.32275
v -0.239754 1.045 0.30713
v -0.272657 1.08966 0.316006
v -0.159348 1.16318 0.384378
v -0.216434 1.15528 0.351886
v -0.27129 1.14079 0.339254
v -0.268378 1.18361 0.3755
v -0.212186 1.19932 0.401071
v -0.264143 1.21487 0.421985
v -0.312933 1.22045 0.465192
v -0.31862 1.19707 0.41228
v -0.362243 1.19435 0.458626
v -0.322869 1.15303 0.363096
v -0.32428 1.10283 0.333833
v -0.370325 1.11058 0.365071
v -0.372217 1.15868 0.406797
v -0.403086 1.15587 0.45597
v -0.407286 1.11232 0.407342
v -0.43235 1.10794 0.457427
v -0.341381 1.21411 0.515483
v -0.394977 1.17571 0.51
v -0.429789 1.12916 0.509377
v -0.413618 1.14298 0.561374
v -0.36839 1.1699 0.609501
v -0.413618 1.12578 0.601374
v -0.385067 1.13112 0.649461
v -0.36839 1.1871 0.569501
v -0.379485 1.08233 0.692668
v -0.41634 1.08215 0.64772
v -0.402878 1.03191 0.6845
v -0.442927 1.08797 0.548219
v -0.450493 1.06912 0.493756
v -0.442927 1.07077 0.588219
v -0.450493 1.05192 0.533756
v -0.45345 1.01025 0.571322
v -0.437281 1.02142 0.63192
v -0.414709 0.98017 0.666093
v -0.440996 0.968911 0.607265
v -0.414078 0.931044 0.638848
v -0.353607 1.0407 0.723913
v -0.374548 0.979968 0.708114
v -0.378973 0.92793 0.682596
v -0.334125 0.931408 0.716251
v -0.317462 0.987866 0.740606
v -0.28295 0.941214 0.73725
v -0.23071 0.905478 0.720746
v -0.285565 0.890985 0.708114
v -0.233622 0.862656 0.6845
v -0.342652 0.883087 0.675622
v -0.383173 0.884385 0.633968
v -0.342206 0.847634 0.622696
v -0.289814 0.846942 0.658929
v -0.237856 0.831395 0.638015
v -0.294297 0.823587 0.605891
v -0.243092 0.814076 0.58483
v -0.179131 0.893236 0.696904
v -0.18338 0.849193 0.64772
v -0.189067 0.825813 0.594808
v -0.139756 0.851916 0.601374
v -0.129783 0.88759 0.653203
v -0.0989143 0.890398 0.60403
v -0.107022 0.870556 0.55
v -0.160619 0.83216 0.544517
v -0.215353 0.814554 0.53598
v -0.190329 0.830256 0.488197
v -0.13361 0.876368 0.450499
v -0.190329 0.847455 0.448197
v -0.169923 0.877184 0.405118
v -0.13361 0.859169 0.490499
v -0.368557 0.914176 0.392443
v -0.354637 0.952412 0.35371
v -0.318901 0.900172 0.370214
v -0.332828 0.996686 0.326875
v -0.300894 0.942044 0.334143
v -0.264076 0.896182 0.358626
v -0.30479 1.04363 0.313979
v -0.271259 0.996274 0.310523
v -0.235114 0.943436 0.327215
v -0.208255 0.902512 0.358561
v -0.403427 0.957994 0.396917
v -0.426693 1.00743 0.41
v -0.386387 1.00053 0.361152
v -0.436586 1.05871 0.430695
v -0.4061 1.0604 0.381233
v -0.356752 1.05476 0.337532
v -0.397844 0.909204 0.440125
v -0.415953 0.91356 0.493125
v -0.430088 0.956827 0.448555
v -0.415953 0.896361 0.533125
v -0.421505 0.909713 0.587411
v -0.444155 0.950155 0.552338
v -0.449802 1.0167 0.468637
v -0.45345 1.02745 0.531322
v -0.430088 0.939628 0.488555
v -0.449802 0.999503 0.508637
v -0.444155 0.967355 0.512338
v -0.345604 0.873468 0.423621
v -0.345604 0.856269 0.463621
v -0.31545 0.827609 0.501374
v -0.371604 0.854135 0.515565
v -0.397844 0.892005 0.480125
v -0.371604 0.871334 0.475565
v -0.280389 0.813179 0.542829
v -0.332833 0.828517 0.562655
v -0.385671 0.864662 0.579347
v -0.291757 0.862198 0.404854
v -0.31545 0.844808 0.461374
v -0.225977 0.863589 0.397926
v -0.252987 0.819381 0.491944
v -0.225977 0.84639 0.437926
v -0.291757 0.844999 0.444854
v -0.252987 0.83658 0.451944
f 1 2 3
f 2 4 5
f 3 5 6
f 2 5 3
f 4 7 8
f 7 9 10
f 8 10 11
f 7 10 8
f 12 13 14
f 13 15 16
f 14 16 17
f 13 16 14
f 4 8 5
f 18 15 13
f 19 13 12
f 8 20 5
f 1 3 21
f 22 12 23
f 24 23 25
f 3 26 21
f 12 14 27
f 14 17 28
f 27 28 29
f 14 28 27
f 25 30 31
f 30 29 32
f 31 32 33
f 30 32 31
f 12 27 23
f 27 29 30
f 23 30 25
f 27 30 23
f 1 21 34
f 21 35 36
f 34 36 37
f 21 36 34
f 25 31 38
f 31 33 39
f 38 39 40
f 31 39 38
f 37 41 42
f 41 43 44
f 42 44 45
f 41 44 42
f 25 38 46
f 38 40 47
f 36 41 37
f 48 41 36
f 1 34 49
f 34 37 50
f 49 50 51
f 34 50 49
f 37 42 52
f 42 45 53
f 52 53 54
f 42 53 52
f 51 55 56
f 55 54 57
f 56 57 58
f 55 57 56
f 37 52 50
f 52 54 55
f 50 55 51
f 52 55 50
f 1 49 2
f 49 51 59
f 2 59 4
f 49 59 2
f 51 56 60
f 56 58 61
f 60 61 62
f 56 61 60
f 4 63 7
f 63 62 64
f 7 64 9
f 63 64 7
f 51 60 59
f 60 62 63
f 59 63 4
f 60 63 59
f 9 65 10
f 65 66 67
f 68 69 15
f 65 67 10
f 70 71 72
f 71 73 74
f 72 74 75
f 71 74 72
f 15 76 16
f 76 75 77
f 16 77 17
f 76 77 16
f 70 72 69
f 72 75 76
f 69 76 15
f 72 76 69
f 17 77 78
f 77 75 79
f 78 79 80
f 77 79 78
f 75 74 81
f 74 73 82
f 81 82 83
f 74 82 81
f 80 84 85
f 84 83 86
f 85 86 87
f 84 86 85
f 75 81 79
f 81 83 84
f 79 84 80
f 81 84 79
f 17 78 28
f 78 80 88
f 28 88 29
f 78 88 28
f 80 85 89
f 85 87 90
f 89 90 91
f 85 90 89
f 29 92 32
f 92 91 93
f 32 93 33
f 92 93 32
f 80 89 88
f 89 91 92
f 88 92 29
f 89 92 88
f 33 93 94
f 93 91 95
f 94 95 96
f 93 95 94
f 91 90 97
f 90 87 98
f 97 98 99
f 90 98 97
f 96 100 101
f 100 99 102
f 101 102 103
f 100 102 101
f 91 97 95
f 97 99 100
f 95 100 96
f 97 100 95
f 33 94 39
f 94 96 104
f 39 104 40
f 94 104 39
f 96 101 105
f 101 103 106
f 105 106 107
f 101 106 105
f 43 108 44
f 108 109 110
f 44 110 45
f 108 110 44
f 96 105 104
f 105 107 111
f 104 111 40
f 105 111 104
f 45 110 112
f 110 109 113
f 112 113 114
f 110 113 112
f 107 106 115
f 106 103 116
f 117 118 119
f 106 116 115
f 114 120 121
f 120 119 122
f 121 122 123
f 120 122 121
f 109 117 113
f 117 119 120
f 113 120 114
f 117 120 113
f 45 112 53
f 112 114 124
f 53 124 54
f 112 124 53
f 114 121 125
f 121 123 126
f 125 126 127
f 121 126 125
f 54 128 57
f 128 127 129
f 57 129 58
f 128 129 57
f 114 125 124
f 125 127 128
f 124 128 54
f 125 128 124
f 58 129 130
f 129 127 131
f 130 131 132
f 129 131 130
f 127 126 133
f 126 123 134
f 133 134 135
f 126 134 133
f 132 136 137
f 136 135 138
f 137 138 139
f 136 138 137
f 127 133 131
f 133 135 136
f 131 136 132
f 133 136 131
f 58 130 61
f 130 132 140
f 61 140 62
f 130 140 61
f 132 137 141
f 137 139 142
f 141 142 143
f 137 142 141
f 62 144 64
f 144 143 145
f 64 145 9
f 144 145 64
f 132 141 140
f 141 143 144
f 140 144 62
f 141 144 140
f 9 145 65
f 145 143 146
f 65 146 66
f 145 146 65
f 143 142 147
f 142 139 148
f 147 148 149
f 142 148 147
f 70 150 71
f 150 151 152
f 71 152 73
f 150 152 71
f 143 147 146
f 147 149 153
f 146 153 66
f 147 153 146
f 154 155 156
f 155 157 158
f 156 158 159
f 155 158 156
f 157 160 161
f 160 87 86
f 161 86 83
f 160 86 161
f 159 162 163
f 162 83 82
f 163 82 73
f 162 82 163
f 157 161 158
f 161 83 162
f 158 162 159
f 161 162 158
f 154 164 155
f 164 165 166
f 155 166 157
f 164 166 155
f 165 167 168
f 167 103 102
f 168 102 99
f 167 102 168
f 157 169 160
f 169 99 98
f 160 98 87
f 169 98 160
f 165 168 166
f 168 99 169
f 166 169 157
f 168 169 166
f 154 170 164
f 170 171 172
f 164 172 165
f 170 172 164
f 173 174 175
f 174 123 122
f 175 122 119
f 174 122 175
f 165 176 167
f 176 177 116
f 167 116 103
f 176 116 167
f 173 175 178
f 175 119 179
f 172 176 165
f 180 176 172
f 154 181 170
f 182 183 184
f 185 184 173
f 181 186 170
f 183 187 188
f 187 139 138
f 188 138 135
f 187 138 188
f 173 189 174
f 189 135 134
f 174 134 123
f 189 134 174
f 183 188 184
f 188 135 189
f 184 189 173
f 188 189 184
f 154 156 181
f 156 159 190
f 181 190 191
f 156 190 181
f 159 163 192
f 163 73 152
f 192 152 151
f 163 152 192
f 183 193 187
f 193 149 148
f 187 148 139
f 193 148 187
f 159 192 190
f 194 149 193
f 195 193 183
f 192 196 190
f 18 8 15
f 15 8 11
f 13 20 18
f 18 20 8
f 19 5 13
f 13 5 20
f 12 6 19
f 19 6 5
f 22 3 12
f 12 3 6
f 23 26 22
f 22 26 3
f 24 21 23
f 23 21 26
f 25 35 24
f 24 35 21
f 38 48 46
f 46 48 36
f 46 36 25
f 25 36 35
f 40 43 47
f 47 43 41
f 47 41 38
f 38 41 48
f 68 10 69
f 69 10 67
f 15 11 68
f 68 11 10
f 69 67 70
f 70 67 66
f 107 109 111
f 111 109 108
f 111 108 40
f 40 108 43
f 115 117 107
f 107 117 109
f 116 118 115
f 115 118 117
f 70 66 150
f 150 66 153
f 150 153 151
f 151 153 149
f 170 185 171
f 171 185 173
f 171 173 172
f 172 173 178
f 176 179 177
f 177 179 119
f 177 119 116
f 116 119 118
f 180 175 176
f 176 175 179
f 172 178 180
f 180 178 175
f 181 182 186
f 186 182 184
f 186 184 170
f 170 184 185
f 190 195 191
f 191 195 183
f 191 183 181
f 181 183 182
f 151 149 192
f 192 149 194
f 192 194 196
f 196 194 193
f 196 193 190
f 190 193 195
