v -0.133443 1.109 0.867557
v -0.0985731 1.06518 0.863083
v -0.104156 1.11397 0.819876
v -0.0753065 1.01575 0.85
v -0.0719114 1.06635 0.811445
v -0.0860467 1.10961 0.766875
v -0.0654143 0.964466 0.829305
v -0.0521981 1.00647 0.791364
v -0.0696495 0.915237 0.802573
v -0.0515067 0.954058 0.766244
v -0.0485499 0.995724 0.728678
v -0.0860467 1.13271 0.566875
v -0.0578446 1.07891 0.547662
v -0.0804945 1.11935 0.512589
v -0.0485499 1.01882 0.528678
v -0.0610043 1.06016 0.492735
v -0.0879217 1.09802 0.461152
v -0.0578446 1.05582 0.747662
v -0.156396 1.14971 0.836379
v -0.130396 1.15184 0.784436
v -0.18655 1.17837 0.798626
v -0.116329 1.1644 0.520653
v -0.118827 1.14468 0.466032
v -0.159793 1.18143 0.477304
v -0.18655 1.20146 0.598626
v -0.169166 1.20055 0.537345
v -0.221611 1.21589 0.557171
v -0.207703 1.20548 0.49411
v -0.258908 1.21499 0.51517
v -0.130396 1.17493 0.584436
v -0.169166 1.17746 0.737345
v -0.183099 1.123 0.889786
v -0.210242 1.16098 0.855146
v -0.237924 1.12699 0.901374
v -0.221611 1.1928 0.757171
v -0.249013 1.18659 0.808056
v -0.286646 1.21451 0.56402
v -0.286646 1.19142 0.76402
v -0.311671 1.17572 0.811804
v -0.276022 1.15959 0.862074
v -0.293745 1.12066 0.901439
v -0.332077 1.14599 0.854882
v -0.346311 1.1045 0.889977
v -0.147363 1.07076 0.90629
v -0.201106 1.08113 0.925857
v -0.169172 1.02649 0.933125
v -0.266886 1.07974 0.932785
v -0.323044 1.06705 0.924793
v -0.294293 1.02384 0.946303
v -0.230741 1.0269 0.949478
v -0.19721 0.979546 0.946021
v -0.262246 0.978171 0.95287
v -0.229343 0.93351 0.943995
v -0.115613 1.02265 0.898848
v -0.145248 0.968416 0.922468
v -0.17772 0.920348 0.926167
v -0.131675 0.912598 0.894929
v -0.0958997 0.96277 0.878767
v -0.0947139 0.91085 0.852658
v -0.0722108 0.894009 0.750623
v -0.0722108 0.917101 0.550623
v -0.0883821 0.90329 0.498626
v -0.0590724 0.958301 0.511781
v -0.0515067 0.97715 0.566244
v -0.0590724 0.935209 0.711781
v -0.116932 0.897947 0.450539
v -0.0856599 0.946913 0.45228
v -0.155688 0.901479 0.410024
v -0.122515 0.946737 0.407332
v -0.0991223 0.997156 0.4155
v -0.0647188 1.00765 0.46808
v -0.087291 1.0489 0.433907
v -0.123027 1.10114 0.417404
v -0.127452 1.0491 0.391886
v -0.167875 1.09766 0.383749
v -0.148393 0.988364 0.376087
v -0.178955 0.938928 0.375207
v -0.207707 0.982133 0.353697
v -0.184538 1.0412 0.359394
v -0.21905 1.08785 0.36275
v -0.239754 1.0278 0.34713
v -0.272657 1.07247 0.356006
v -0.159348 1.14598 0.424378
v -0.216434 1.13808 0.391886
v -0.27129 1.12359 0.379254
v -0.268378 1.16641 0.4155
v -0.212186 1.18212 0.441071
v -0.264143 1.19767 0.461985
v -0.312933 1.20325 0.505192
v -0.31862 1.17987 0.45228
v -0.362243 1.17715 0.498626
v -0.322869 1.13583 0.403096
v -0.32428 1.08563 0.373833
v -0.370325 1.09338 0.405071
v -0.372217 1.14148 0.446797
v -0.403086 1.13867 0.49597
v -0.407286 1.09512 0.447342
v -0.43235 1.09074 0.497427
v -0.341381 1.19691 0.555483
v -0.341381 1.17382 0.755483
v -0.394977 1.15851 0.55
v -0.429789 1.11197 0.549377
v -0.394977 1.13542 0.75
v -0.429789 1.08887 0.749377
v -0.413618 1.10269 0.801374
v -0.36839 1.14681 0.809501
v -0.385067 1.10803 0.849461
v -0.379485 1.05924 0.892668
v -0.41634 1.05906 0.84772
v -0.402878 1.00882 0.8845
v -0.442927 1.04767 0.788219
v -0.450493 1.05192 0.533756
v -0.450493 1.02883 0.733756
v -0.45345 0.987159 0.771322
v -0.442927 1.07077 0.588219
v -0.437281 0.998326 0.83192
v -0.414709 0.957078 0.866093
v -0.440996 0.945819 0.807265
v -0.414078 0.907952 0.838848
v -0.353607 1.01761 0.923913
v -0.374548 0.956876 0.908114
v -0.378973 0.904838 0.882596
v -0.334125 0.908316 0.916251
v -0.317462 0.964774 0.940606
v -0.28295 0.918122 0.93725
v -0.23071 0.882386 0.920746
v -0.285565 0.867893 0.908114
v -0.233622 0.839564 0.8845
v -0.342652 0.859995 0.875622
v -0.383173 0.861293 0.833968
v -0.342206 0.824542 0.822696
v -0.289814 0.82385 0.85893
v -0.237856 0.808303 0.838015
v -0.294297 0.800495 0.805891
v -0.243092 0.790984 0.78483
v -0.179131 0.870144 0.896904
v -0.18338 0.826102 0.84772
v -0.189067 0.802721 0.794808
v -0.139756 0.828824 0.801374
v -0.129783 0.864498 0.853203
v -0.0989143 0.867306 0.80403
v -0.107022 0.847464 0.75
v -0.107022 0.870556 0.55
v -0.160619 0.809068 0.744517
v -0.215353 0.791462 0.73598
v -0.160619 0.83216 0.544517
v -0.215353 0.814554 0.53598
v -0.190329 0.830256 0.488197
v -0.13361 0.859169 0.490499
v -0.169923 0.859985 0.445118
v -0.368557 0.896976 0.432443
v -0.354637 0.935213 0.39371
v -0.318901 0.882973 0.410214
v -0.332828 0.979487 0.366875
v -0.300894 0.924845 0.374143
v -0.264076 0.878983 0.398626
v -0.30479 1.02643 0.353979
v -0.271259 0.979075 0.350523
v -0.235114 0.926237 0.367215
v -0.208255 0.885313 0.398561
v -0.403427 0.940795 0.436917
v -0.426693 0.990227 0.45
v -0.386387 0.98333 0.401152
v -0.436586 1.04151 0.470695
v -0.4061 1.04321 0.421233
v -0.356752 1.03756 0.377532
v -0.397844 0.892005 0.480125
v -0.415953 0.896361 0.533125
v -0.430088 0.939628 0.488555
v -0.415953 0.873269 0.733126
v -0.421505 0.886621 0.787411
v -0.444155 0.927064 0.752338
v -0.449802 0.999503 0.508637
v -0.45345 1.01025 0.571322
v -0.444155 0.950155 0.552338
v -0.345604 0.856269 0.463621
v -0.31545 0.827609 0.501374
v -0.371604 0.854135 0.515565
v -0.31545 0.804517 0.701374
v -0.280389 0.790087 0.742829
v -0.332833 0.805425 0.762655
v -0.385671 0.84157 0.779347
v -0.332833 0.828517 0.562655
v -0.371604 0.831043 0.715565
v -0.291757 0.844999 0.444854
v -0.225977 0.84639 0.437926
v -0.252987 0.819381 0.491944
v -0.280389 0.813179 0.542829
f 1 2 3
f 2 4 5
f 3 5 6
f 2 5 3
f 4 7 8
f 7 9 10
f 8 10 11
f 7 10 8
f 12 13 14
f 13 15 16
f 14 16 17
f 13 16 14
f 4 8 5
f 8 11 18
f 5 18 6
f 8 18 5
f 1 3 19
f 3 6 20
f 19 20 21
f 3 20 19
f 12 14 22
f 14 17 23
f 22 23 24
f 14 23 22
f 25 26 27
f 26 24 28
f 27 28 29
f 26 28 27
f 12 22 30
f 22 24 26
f 20 31 21
f 22 26 30
f 1 19 32
f 19 21 33
f 32 33 34
f 19 33 32
f 21 35 36
f 27 29 37
f 36 38 39
f 35 38 36
f 34 40 41
f 40 39 42
f 41 42 43
f 40 42 41
f 21 36 33
f 36 39 40
f 33 40 34
f 36 40 33
f 1 32 44
f 32 34 45
f 44 45 46
f 32 45 44
f 34 41 47
f 41 43 48
f 47 48 49
f 41 48 47
f 46 50 51
f 50 49 52
f 51 52 53
f 50 52 51
f 34 47 45
f 47 49 50
f 45 50 46
f 47 50 45
f 1 44 2
f 44 46 54
f 2 54 4
f 44 54 2
f 46 51 55
f 51 53 56
f 55 56 57
f 51 56 55
f 4 58 7
f 58 57 59
f 7 59 9
f 58 59 7
f 46 55 54
f 55 57 58
f 54 58 4
f 55 58 54
f 9 60 10
f 61 62 63
f 64 63 15
f 60 65 10
f 62 66 67
f 66 68 69
f 67 69 70
f 66 69 67
f 15 71 16
f 71 70 72
f 16 72 17
f 71 72 16
f 62 67 63
f 67 70 71
f 63 71 15
f 67 71 63
f 17 72 73
f 72 70 74
f 73 74 75
f 72 74 73
f 70 69 76
f 69 68 77
f 76 77 78
f 69 77 76
f 75 79 80
f 79 78 81
f 80 81 82
f 79 81 80
f 70 76 74
f 76 78 79
f 74 79 75
f 76 79 74
f 17 73 23
f 73 75 83
f 23 83 24
f 73 83 23
f 75 80 84
f 80 82 85
f 84 85 86
f 80 85 84
f 24 87 28
f 87 86 88
f 28 88 29
f 87 88 28
f 75 84 83
f 84 86 87
f 83 87 24
f 84 87 83
f 29 88 89
f 88 86 90
f 89 90 91
f 88 90 89
f 86 85 92
f 85 82 93
f 92 93 94
f 85 93 92
f 91 95 96
f 95 94 97
f 96 97 98
f 95 97 96
f 86 92 90
f 92 94 95
f 90 95 91
f 92 95 90
f 29 89 37
f 89 91 99
f 38 100 39
f 89 99 37
f 91 96 101
f 96 98 102
f 103 104 105
f 96 102 101
f 39 106 42
f 106 105 107
f 42 107 43
f 106 107 42
f 91 101 99
f 103 105 106
f 100 106 39
f 103 106 100
f 43 107 108
f 107 105 109
f 108 109 110
f 107 109 108
f 105 104 111
f 102 98 112
f 111 113 114
f 102 112 115
f 110 116 117
f 116 114 118
f 117 118 119
f 116 118 117
f 105 111 109
f 111 114 116
f 109 116 110
f 111 116 109
f 43 108 48
f 108 110 120
f 48 120 49
f 108 120 48
f 110 117 121
f 117 119 122
f 121 122 123
f 117 122 121
f 49 124 52
f 124 123 125
f 52 125 53
f 124 125 52
f 110 121 120
f 121 123 124
f 120 124 49
f 121 124 120
f 53 125 126
f 125 123 127
f 126 127 128
f 125 127 126
f 123 122 129
f 122 119 130
f 129 130 131
f 122 130 129
f 128 132 133
f 132 131 134
f 133 134 135
f 132 134 133
f 123 129 127
f 129 131 132
f 127 132 128
f 129 132 127
f 53 126 56
f 126 128 136
f 56 136 57
f 126 136 56
f 128 133 137
f 133 135 138
f 137 138 139
f 133 138 137
f 57 140 59
f 140 139 141
f 59 141 9
f 140 141 59
f 128 137 136
f 137 139 140
f 136 140 57
f 137 140 136
f 9 141 60
f 141 139 142
f 61 143 62
f 141 142 60
f 139 138 144
f 138 135 145
f 146 147 148
f 138 145 144
f 62 149 66
f 149 148 150
f 66 150 68
f 149 150 66
f 139 144 142
f 146 148 149
f 143 149 62
f 146 149 143
f 151 152 153
f 152 154 155
f 153 155 156
f 152 155 153
f 154 157 158
f 157 82 81
f 158 81 78
f 157 81 158
f 156 159 160
f 159 78 77
f 160 77 68
f 159 77 160
f 154 158 155
f 158 78 159
f 155 159 156
f 158 159 155
f 151 161 152
f 161 162 163
f 152 163 154
f 161 163 152
f 162 164 165
f 164 98 97
f 165 97 94
f 164 97 165
f 154 166 157
f 166 94 93
f 157 93 82
f 166 93 157
f 162 165 163
f 165 94 166
f 163 166 154
f 165 166 163
f 151 167 161
f 167 168 169
f 161 169 162
f 167 169 161
f 170 171 172
f 171 119 118
f 172 118 114
f 171 118 172
f 162 173 164
f 173 174 112
f 164 112 98
f 173 112 164
f 168 175 169
f 175 174 173
f 169 173 162
f 175 173 169
f 151 176 167
f 176 177 178
f 167 178 168
f 176 178 167
f 179 180 181
f 180 135 134
f 181 134 131
f 180 134 181
f 170 182 171
f 182 131 130
f 171 130 119
f 182 130 171
f 177 183 178
f 181 131 182
f 184 182 170
f 181 182 184
f 151 153 176
f 153 156 185
f 176 185 177
f 153 185 176
f 156 160 186
f 160 68 150
f 186 150 148
f 160 150 186
f 177 187 188
f 187 148 147
f 180 145 135
f 187 147 188
f 156 186 185
f 186 148 187
f 185 187 177
f 186 187 185
f 12 6 13
f 13 6 18
f 13 18 15
f 15 18 11
f 25 21 26
f 26 21 31
f 27 35 25
f 25 35 21
f 30 20 12
f 12 20 6
f 26 31 30
f 30 31 20
f 37 38 27
f 27 38 35
f 63 65 61
f 61 65 60
f 64 10 63
f 63 10 65
f 15 11 64
f 64 11 10
f 99 100 37
f 37 100 38
f 102 104 101
f 101 104 103
f 101 103 99
f 99 103 100
f 112 113 115
f 115 113 111
f 115 111 102
f 102 111 104
f 61 60 143
f 143 60 142
f 146 144 147
f 147 144 145
f 143 142 146
f 146 142 144
f 174 114 112
f 112 114 113
f 168 170 175
f 175 170 172
f 175 172 174
f 174 172 114
f 178 184 168
f 168 184 170
f 177 179 183
f 183 179 181
f 183 181 178
f 178 181 184
f 188 180 177
f 177 180 179
f 147 145 188
f 188 145 180
