v -0.133443 1.11756 0.867557
v -0.0985731 1.07374 0.863083
v -0.104156 1.12253 0.819876
v -0.0753065 1.02431 0.85
v -0.0719114 1.0749 0.811445
v -0.0860467 1.11817 0.766875
v -0.0654143 0.973023 0.829305
v -0.0521981 1.01503 0.791364
v -0.0654143 0.964466 0.829305
v -0.0696495 0.915237 0.802573
v -0.0515067 0.954058 0.766244
v -0.0521981 1.00647 0.791364
v -0.0485499 0.995724 0.728678
v -0.0578446 1.06438 0.747662
v -0.0804945 1.10482 0.712589
v -0.0485499 1.00428 0.728678
v -0.0610043 1.04562 0.692735
v -0.0879217 1.08349 0.661152
v -0.156396 1.15826 0.836379
v -0.130396 1.1604 0.784436
v -0.18655 1.18692 0.798626
v -0.116329 1.14987 0.720653
v -0.118827 1.13015 0.666032
v -0.159793 1.1669 0.677304
v -0.169166 1.18602 0.737345
v -0.221611 1.20135 0.757171
v -0.207703 1.19095 0.69411
v -0.258908 1.20046 0.71517
v -0.183099 1.13156 0.889786
v -0.210242 1.16953 0.855146
v -0.237924 1.13555 0.901374
v -0.249013 1.19515 0.808056
v -0.286646 1.19998 0.76402
v -0.311671 1.18428 0.811804
v -0.276022 1.16814 0.862074
v -0.293745 1.12922 0.901439
v -0.332077 1.15455 0.854882
v -0.346311 1.11305 0.889977
v -0.147363 1.07932 0.90629
v -0.201106 1.08969 0.925857
v -0.169172 1.03505 0.933125
v -0.266886 1.0883 0.932785
v -0.323044 1.0756 0.924793
v -0.294293 1.0324 0.946303
v -0.230741 1.03546 0.949478
v -0.19721 0.988103 0.946021
v -0.262246 0.986728 0.95287
v -0.19721 0.979546 0.946021
v -0.262246 0.978171 0.95287
v -0.229343 0.93351 0.943995
v -0.115613 1.0312 0.898848
v -0.145248 0.976974 0.922468
v -0.17772 0.920348 0.926167
v -0.145248 0.968416 0.922468
v -0.131675 0.912598 0.894929
v -0.0753065 1.01575 0.85
v -0.0958997 0.96277 0.878767
v -0.0947139 0.91085 0.852658
v -0.0958997 0.971327 0.878767
v -0.115613 1.02265 0.898848
v -0.0722108 0.894009 0.750623
v -0.0883821 0.880198 0.698626
v -0.0590724 0.935209 0.711781
v -0.116932 0.874855 0.650539
v -0.0856599 0.923821 0.65228
v -0.155688 0.878387 0.610024
v -0.122515 0.923645 0.607332
v -0.0991223 0.974064 0.6155
v -0.0647188 0.993114 0.66808
v -0.0991223 0.982621 0.6155
v -0.087291 1.03436 0.633907
v -0.0647188 0.984557 0.66808
v -0.123027 1.0866 0.617404
v -0.127452 1.03456 0.591886
v -0.167875 1.08312 0.583749
v -0.148393 0.965272 0.576087
v -0.178955 0.915837 0.575208
v -0.207707 0.959041 0.553697
v -0.184538 1.02667 0.559394
v -0.21905 1.07332 0.56275
v -0.207707 0.967598 0.553697
v -0.239754 1.01327 0.54713
v -0.272657 1.05793 0.556006
v -0.127452 1.02601 0.591886
v -0.184538 1.01811 0.559394
v -0.148393 0.973829 0.576087
v -0.159348 1.13144 0.624378
v -0.216434 1.12355 0.591886
v -0.27129 1.10905 0.579254
v -0.268378 1.15188 0.6155
v -0.212186 1.16759 0.641071
v -0.264143 1.18314 0.661985
v -0.312933 1.18872 0.705192
v -0.31862 1.16534 0.65228
v -0.362243 1.16262 0.698626
v -0.322869 1.1213 0.603096
v -0.32428 1.07109 0.573833
v -0.370325 1.07884 0.605071
v -0.372217 1.12694 0.646797
v -0.403086 1.12413 0.69597
v -0.407286 1.08059 0.647342
v -0.43235 1.0762 0.697427
v -0.341381 1.18237 0.755483
v -0.394977 1.14398 0.75
v -0.429789 1.09743 0.749377
v -0.413618 1.11124 0.801374
v -0.36839 1.15536 0.809501
v -0.385067 1.11659 0.849461
v -0.379485 1.0678 0.892668
v -0.41634 1.06762 0.84772
v -0.402878 1.01738 0.8845
v -0.442927 1.05623 0.788219
v -0.450493 1.03738 0.733756
v -0.45345 0.995717 0.771322
v -0.402878 1.00882 0.8845
v -0.437281 0.998326 0.83192
v -0.414709 0.957078 0.866093
v -0.45345 0.987159 0.771322
v -0.440996 0.945819 0.807265
v -0.414078 0.907952 0.838848
v -0.437281 1.00688 0.83192
v -0.353607 1.02617 0.923913
v -0.374548 0.956876 0.908114
v -0.378973 0.904838 0.882596
v -0.334125 0.908316 0.916251
v -0.294293 1.02384 0.946303
v -0.317462 0.964774 0.940606
v -0.28295 0.918122 0.93725
v -0.374548 0.965433 0.908114
v -0.317462 0.973331 0.940606
v -0.353607 1.01761 0.923913
v -0.23071 0.882386 0.920746
v -0.285565 0.867893 0.908114
v -0.233622 0.839564 0.8845
v -0.342652 0.859995 0.875622
v -0.383173 0.861293 0.833968
v -0.342206 0.824542 0.822696
v -0.289814 0.82385 0.85893
v -0.237856 0.808303 0.838015
v -0.294297 0.800495 0.805891
v -0.243092 0.790984 0.78483
v -0.179131 0.870144 0.896904
v -0.18338 0.826102 0.84772
v -0.189067 0.802721 0.794808
v -0.139756 0.828824 0.801374
v -0.129783 0.864498 0.853203
v -0.0989143 0.867306 0.80403
v -0.107022 0.847464 0.75
v -0.160619 0.809068 0.744517
v -0.215353 0.791462 0.73598
v -0.190329 0.807164 0.688197
v -0.13361 0.836077 0.690499
v -0.169923 0.836893 0.645118
v -0.368557 0.873885 0.632443
v -0.354637 0.912121 0.59371
v -0.318901 0.859881 0.610214
v -0.332828 0.956395 0.566875
v -0.300894 0.901754 0.574143
v -0.264076 0.855891 0.598626
v -0.30479 1.00334 0.553979
v -0.271259 0.955983 0.550523
v -0.30479 1.01189 0.553979
v -0.239754 1.00471 0.54713
v -0.235114 0.903145 0.567215
v -0.208255 0.862221 0.598561
v -0.403427 0.917703 0.636917
v -0.426693 0.967135 0.65
v -0.386387 0.960238 0.601152
v -0.426693 0.975692 0.65
v -0.436586 1.02697 0.670695
v -0.4061 1.02867 0.621233
v -0.356752 1.01447 0.577532
v -0.356752 1.02302 0.577532
v -0.4061 1.02011 0.621233
v -0.386387 0.968795 0.601152
v -0.397844 0.868913 0.680125
v -0.415953 0.873269 0.733126
v -0.430088 0.916536 0.688555
v -0.421505 0.886621 0.787411
v -0.444155 0.927064 0.752338
v -0.449802 0.976412 0.708637
v -0.436586 1.01842 0.670695
v -0.449802 0.984969 0.708637
v -0.345604 0.833177 0.663621
v -0.31545 0.804517 0.701374
v -0.371604 0.831043 0.715565
v -0.280389 0.790087 0.742829
v -0.332833 0.805425 0.762655
v -0.385671 0.84157 0.779347
v -0.291757 0.821907 0.644854
v -0.225977 0.823298 0.637926
v -0.252987 0.796289 0.691944
f 1 2 3
f 2 4 5
f 3 5 6
f 2 5 3
f 4 7 8
f 9 10 11
f 12 11 13
f 9 11 12
f 6 14 15
f 14 16 17
f 15 17 18
f 14 17 15
f 4 8 5
f 8 16 14
f 5 14 6
f 8 14 5
f 1 3 19
f 3 6 20
f 19 20 21
f 3 20 19
f 6 15 22
f 15 18 23
f 22 23 24
f 15 23 22
f 21 25 26
f 25 24 27
f 26 27 28
f 25 27 26
f 6 22 20
f 22 24 25
f 20 25 21
f 22 25 20
f 1 19 29
f 19 21 30
f 29 30 31
f 19 30 29
f 21 26 32
f 26 28 33
f 32 33 34
f 26 33 32
f 31 35 36
f 35 34 37
f 36 37 38
f 35 37 36
f 21 32 30
f 32 34 35
f 30 35 31
f 32 35 30
f 1 29 39
f 29 31 40
f 39 40 41
f 29 40 39
f 31 36 42
f 36 38 43
f 42 43 44
f 36 43 42
f 41 45 46
f 45 44 47
f 48 49 50
f 45 47 46
f 31 42 40
f 42 44 45
f 40 45 41
f 42 45 40
f 1 39 2
f 39 41 51
f 2 51 4
f 39 51 2
f 41 46 52
f 48 50 53
f 54 53 55
f 48 53 54
f 56 57 9
f 57 55 58
f 9 58 10
f 57 58 9
f 41 52 51
f 54 55 57
f 51 59 4
f 54 57 60
f 10 61 11
f 61 62 63
f 11 63 13
f 61 63 11
f 62 64 65
f 64 66 67
f 65 67 68
f 64 67 65
f 16 69 17
f 69 70 71
f 17 71 18
f 69 71 17
f 62 65 63
f 65 68 72
f 63 72 13
f 65 72 63
f 18 71 73
f 71 70 74
f 73 74 75
f 71 74 73
f 68 67 76
f 67 66 77
f 76 77 78
f 67 77 76
f 75 79 80
f 79 81 82
f 80 82 83
f 79 82 80
f 68 76 84
f 76 78 85
f 74 79 75
f 86 79 74
f 18 73 23
f 73 75 87
f 23 87 24
f 73 87 23
f 75 80 88
f 80 83 89
f 88 89 90
f 80 89 88
f 24 91 27
f 91 90 92
f 27 92 28
f 91 92 27
f 75 88 87
f 88 90 91
f 87 91 24
f 88 91 87
f 28 92 93
f 92 90 94
f 93 94 95
f 92 94 93
f 90 89 96
f 89 83 97
f 96 97 98
f 89 97 96
f 95 99 100
f 99 98 101
f 100 101 102
f 99 101 100
f 90 96 94
f 96 98 99
f 94 99 95
f 96 99 94
f 28 93 33
f 93 95 103
f 33 103 34
f 93 103 33
f 95 100 104
f 100 102 105
f 104 105 106
f 100 105 104
f 34 107 37
f 107 106 108
f 37 108 38
f 107 108 37
f 95 104 103
f 104 106 107
f 103 107 34
f 104 107 103
f 38 108 109
f 108 106 110
f 109 110 111
f 108 110 109
f 106 105 112
f 105 102 113
f 112 113 114
f 105 113 112
f 115 116 117
f 116 118 119
f 117 119 120
f 116 119 117
f 106 112 110
f 112 114 121
f 110 121 111
f 112 121 110
f 38 109 43
f 109 111 122
f 43 122 44
f 109 122 43
f 115 117 123
f 117 120 124
f 123 124 125
f 117 124 123
f 126 127 49
f 127 125 128
f 49 128 50
f 127 128 49
f 111 129 122
f 123 125 127
f 122 130 44
f 123 127 131
f 50 128 132
f 128 125 133
f 132 133 134
f 128 133 132
f 125 124 135
f 124 120 136
f 135 136 137
f 124 136 135
f 134 138 139
f 138 137 140
f 139 140 141
f 138 140 139
f 125 135 133
f 135 137 138
f 133 138 134
f 135 138 133
f 50 132 53
f 132 134 142
f 53 142 55
f 132 142 53
f 134 139 143
f 139 141 144
f 143 144 145
f 139 144 143
f 55 146 58
f 146 145 147
f 58 147 10
f 146 147 58
f 134 143 142
f 143 145 146
f 142 146 55
f 143 146 142
f 10 147 61
f 147 145 148
f 61 148 62
f 147 148 61
f 145 144 149
f 144 141 150
f 149 150 151
f 144 150 149
f 62 152 64
f 152 151 153
f 64 153 66
f 152 153 64
f 145 149 148
f 149 151 152
f 148 152 62
f 149 152 148
f 154 155 156
f 155 157 158
f 156 158 159
f 155 158 156
f 157 160 161
f 162 83 82
f 161 163 78
f 160 163 161
f 159 164 165
f 164 78 77
f 165 77 66
f 164 77 165
f 157 161 158
f 161 78 164
f 158 164 159
f 161 164 158
f 154 166 155
f 166 167 168
f 155 168 157
f 166 168 155
f 169 170 171
f 170 102 101
f 171 101 98
f 170 101 171
f 157 172 160
f 173 98 97
f 162 97 83
f 173 97 162
f 167 174 168
f 171 98 173
f 168 172 157
f 171 173 175
f 154 176 166
f 176 177 178
f 166 178 167
f 176 178 166
f 177 179 180
f 179 120 119
f 180 119 118
f 179 119 180
f 167 181 182
f 183 114 113
f 170 113 102
f 183 113 170
f 177 180 178
f 180 118 181
f 178 181 167
f 180 181 178
f 154 184 176
f 184 185 186
f 176 186 177
f 184 186 176
f 185 187 188
f 187 141 140
f 188 140 137
f 187 140 188
f 177 189 179
f 189 137 136
f 179 136 120
f 189 136 179
f 185 188 186
f 188 137 189
f 186 189 177
f 188 189 186
f 154 156 184
f 156 159 190
f 184 190 185
f 156 190 184
f 159 165 191
f 165 66 153
f 191 153 151
f 165 153 191
f 185 192 187
f 192 151 150
f 187 150 141
f 192 150 187
f 159 191 190
f 191 151 192
f 190 192 185
f 191 192 190
f 13 16 12
f 12 16 8
f 12 8 9
f 9 8 7
f 48 46 49
f 49 46 47
f 54 52 48
f 48 52 46
f 56 4 57
f 57 4 59
f 9 7 56
f 56 7 4
f 57 59 60
f 60 59 51
f 60 51 54
f 54 51 52
f 68 70 72
f 72 70 69
f 72 69 13
f 13 69 16
f 76 86 84
f 84 86 74
f 84 74 68
f 68 74 70
f 78 81 85
f 85 81 79
f 85 79 76
f 76 79 86
f 115 111 116
f 116 111 121
f 116 121 118
f 118 121 114
f 123 129 115
f 115 129 111
f 126 44 127
f 127 44 130
f 49 47 126
f 126 47 44
f 127 130 131
f 131 130 122
f 131 122 123
f 123 122 129
f 163 82 78
f 78 82 81
f 160 162 163
f 163 162 82
f 172 173 160
f 160 173 162
f 167 169 174
f 174 169 171
f 174 171 168
f 168 171 175
f 168 175 172
f 172 175 173
f 181 183 182
f 182 183 170
f 182 170 167
f 167 170 169
f 118 114 181
f 181 114 183
