v -0.133443 1.11756 0.867557
v -0.0985731 1.07374 0.863083
v -0.104156 1.12253 0.819876
v -0.0753065 1.02431 0.85
v -0.0719114 1.0749 0.811445
v -0.0860467 1.11817 0.766875
v -0.0654143 0.973023 0.829305
v -0.0521981 1.01503 0.791364
v -0.0696495 0.923795 0.802573
v -0.0515067 0.962615 0.766244
v -0.0485499 1.00428 0.728678
v -0.0578446 1.06438 0.747662
v -0.0804945 1.10482 0.712589
v -0.0610043 1.04562 0.692735
v -0.0879217 1.08349 0.661152
v -0.156396 1.15826 0.836379
v -0.130396 1.1604 0.784436
v -0.18655 1.18692 0.798626
v -0.116329 1.14987 0.720653
v -0.118827 1.13015 0.666032
v -0.159793 1.1669 0.677304
v -0.169166 1.18602 0.737345
v -0.221611 1.20135 0.757171
v -0.207703 1.19095 0.69411
v -0.258908 1.20046 0.71517
v -0.183099 1.13156 0.889786
v -0.210242 1.16953 0.855146
v -0.237924 1.13555 0.901374
v -0.249013 1.19515 0.808056
v -0.341611 1.20135 0.757171
v -0.378908 1.20046 0.71517
v -0.406646 1.19998 0.76402
v -0.369013 1.19515 0.808056
v -0.431671 1.18428 0.811804
v -0.357924 1.13555 0.901374
v -0.396022 1.16814 0.862074
v -0.413745 1.12922 0.901439
v -0.452077 1.15455 0.854882
v -0.466311 1.11305 0.889977
v -0.276022 1.16814 0.862074
v -0.147363 1.07932 0.90629
v -0.201106 1.08969 0.925857
v -0.169172 1.03505 0.933125
v -0.386886 1.0883 0.932785
v -0.443044 1.0756 0.924793
v -0.414293 1.0324 0.946303
v -0.230741 1.03546 0.949478
v -0.19721 0.988103 0.946021
v -0.350741 1.03546 0.949478
v -0.382246 0.986728 0.95287
v -0.262246 0.986728 0.95287
v -0.229343 0.942067 0.943995
v -0.266886 1.0883 0.932785
v -0.115613 1.0312 0.898848
v -0.145248 0.976974 0.922468
v -0.17772 0.928905 0.926167
v -0.131675 0.921155 0.894929
v -0.0958997 0.971327 0.878767
v -0.0947139 0.919408 0.852658
v -0.0722108 0.902566 0.750623
v -0.0883821 0.888755 0.698626
v -0.0590724 0.943766 0.711781
v -0.116932 0.883412 0.650539
v -0.0856599 0.932378 0.65228
v -0.155688 0.886944 0.610024
v -0.122515 0.932202 0.607332
v -0.0991223 0.982621 0.6155
v -0.0647188 0.993114 0.66808
v -0.087291 1.03436 0.633907
v -0.123027 1.0866 0.617404
v -0.127452 1.03456 0.591886
v -0.167875 1.08312 0.583749
v -0.148393 0.973829 0.576087
v -0.178955 0.924394 0.575208
v -0.207707 0.967598 0.553697
v -0.184538 1.02667 0.559394
v -0.21905 1.07332 0.56275
v -0.239754 1.01327 0.54713
v -0.272657 1.05793 0.556006
v -0.159348 1.13144 0.624378
v -0.216434 1.12355 0.591886
v -0.33905 1.07332 0.56275
v -0.392657 1.05793 0.556006
v -0.39129 1.10905 0.579254
v -0.27129 1.10905 0.579254
v -0.268378 1.15188 0.6155
v -0.212186 1.16759 0.641071
v -0.264143 1.18314 0.661985
v -0.384143 1.18314 0.661985
v -0.432933 1.18872 0.705192
v -0.388378 1.15188 0.6155
v -0.43862 1.16534 0.65228
v -0.482243 1.16262 0.698626
v -0.442869 1.1213 0.603096
v -0.44428 1.07109 0.573833
v -0.490325 1.07884 0.605071
v -0.492217 1.12694 0.646797
v -0.523086 1.12413 0.69597
v -0.527286 1.08059 0.647342
v -0.55235 1.0762 0.697427
v -0.461381 1.18237 0.755483
v -0.514977 1.14398 0.75
v -0.549789 1.09743 0.749377
v -0.533618 1.11124 0.801374
v -0.48839 1.15536 0.809501
v -0.505067 1.11659 0.849461
v -0.499485 1.0678 0.892668
v -0.53634 1.06762 0.84772
v -0.522878 1.01738 0.8845
v -0.562927 1.05623 0.788219
v -0.570493 1.03738 0.733756
v -0.57345 0.995717 0.771322
v -0.557281 1.00688 0.83192
v -0.534709 0.965635 0.866093
v -0.560996 0.954376 0.807265
v -0.534078 0.916509 0.838848
v -0.473607 1.02617 0.923913
v -0.494548 0.965433 0.908114
v -0.498973 0.913395 0.882596
v -0.454125 0.916873 0.916251
v -0.437462 0.973331 0.940606
v -0.40295 0.926679 0.93725
v -0.349343 0.942067 0.943995
v -0.28295 0.926679 0.93725
v -0.23071 0.890943 0.920746
v -0.405565 0.87645 0.908114
v -0.35071 0.890943 0.920746
v -0.353622 0.848121 0.8845
v -0.462652 0.868553 0.875622
v -0.503173 0.86985 0.833968
v -0.462206 0.833099 0.822696
v -0.409814 0.832407 0.85893
v -0.357856 0.81686 0.838015
v -0.414297 0.809052 0.805891
v -0.363092 0.799541 0.78483
v -0.233622 0.848121 0.8845
v -0.179131 0.878702 0.896904
v -0.237856 0.81686 0.838015
v -0.18338 0.834659 0.84772
v -0.243092 0.799541 0.78483
v -0.189067 0.811278 0.794808
v -0.139756 0.837381 0.801374
v -0.129783 0.873055 0.853203
v -0.0989143 0.875863 0.80403
v -0.107022 0.856021 0.75
v -0.160619 0.817625 0.744517
v -0.215353 0.800019 0.73598
v -0.190329 0.815721 0.688197
v -0.13361 0.844634 0.690499
v -0.169923 0.84545 0.645118
v -0.488557 0.882442 0.632443
v -0.474637 0.920678 0.59371
v -0.438901 0.868438 0.610214
v -0.452828 0.964952 0.566875
v -0.420894 0.910311 0.574143
v -0.384076 0.864449 0.598626
v -0.42479 1.01189 0.553979
v -0.391259 0.96454 0.550523
v -0.359754 1.01327 0.54713
v -0.271259 0.96454 0.550523
v -0.264076 0.864449 0.598626
v -0.235114 0.911702 0.567215
v -0.208255 0.870778 0.598561
v -0.355114 0.911702 0.567215
v -0.523427 0.92626 0.636917
v -0.546693 0.975692 0.65
v -0.506387 0.968795 0.601152
v -0.556586 1.02697 0.670695
v -0.5261 1.02867 0.621233
v -0.476752 1.02302 0.577532
v -0.517844 0.87747 0.680125
v -0.535953 0.881827 0.733126
v -0.550089 0.925093 0.688555
v -0.541505 0.895178 0.787411
v -0.564155 0.935621 0.752338
v -0.569802 0.984969 0.708637
v -0.465604 0.841734 0.663621
v -0.43545 0.813074 0.701374
v -0.491604 0.8396 0.715565
v -0.400389 0.798644 0.742829
v -0.452833 0.813982 0.762655
v -0.505671 0.850127 0.779347
v -0.411757 0.830464 0.644854
v -0.225977 0.831855 0.637926
v -0.372987 0.804846 0.691944
v -0.252987 0.804846 0.691944
v -0.280389 0.798644 0.742829
v -0.345977 0.831855 0.637926
f 1 2 3
f 2 4 5
f 3 5 6
f 2 5 3
f 4 7 8
f 7 9 10
f 8 10 11
f 7 10 8
f 6 12 13
f 12 11 14
f 13 14 15
f 12 14 13
f 4 8 5
f 8 11 12
f 5 12 6
f 8 12 5
f 1 3 16
f 3 6 17
f 16 17 18
f 3 17 16
f 6 13 19
f 13 15 20
f 19 20 21
f 13 20 19
f 18 22 23
f 22 21 24
f 23 24 25
f 22 24 23
f 6 19 17
f 19 21 22
f 17 22 18
f 19 22 17
f 1 16 26
f 16 18 27
f 26 27 28
f 16 27 26
f 18 23 29
f 30 31 32
f 33 32 34
f 30 32 33
f 35 36 37
f 36 34 38
f 37 38 39
f 36 38 37
f 18 29 27
f 33 34 36
f 27 40 28
f 29 40 27
f 1 26 41
f 26 28 42
f 41 42 43
f 26 42 41
f 35 37 44
f 37 39 45
f 44 45 46
f 37 45 44
f 43 47 48
f 49 46 50
f 48 51 52
f 47 51 48
f 28 53 42
f 44 46 49
f 42 47 43
f 53 47 42
f 1 41 2
f 41 43 54
f 2 54 4
f 41 54 2
f 43 48 55
f 48 52 56
f 55 56 57
f 48 56 55
f 4 58 7
f 58 57 59
f 7 59 9
f 58 59 7
f 43 55 54
f 55 57 58
f 54 58 4
f 55 58 54
f 9 60 10
f 60 61 62
f 10 62 11
f 60 62 10
f 61 63 64
f 63 65 66
f 64 66 67
f 63 66 64
f 11 68 14
f 68 67 69
f 14 69 15
f 68 69 14
f 61 64 62
f 64 67 68
f 62 68 11
f 64 68 62
f 15 69 70
f 69 67 71
f 70 71 72
f 69 71 70
f 67 66 73
f 66 65 74
f 73 74 75
f 66 74 73
f 72 76 77
f 76 75 78
f 77 78 79
f 76 78 77
f 67 73 71
f 73 75 76
f 71 76 72
f 73 76 71
f 15 70 20
f 70 72 80
f 20 80 21
f 70 80 20
f 72 77 81
f 82 83 84
f 81 85 86
f 77 85 81
f 21 87 24
f 87 86 88
f 24 88 25
f 87 88 24
f 72 81 80
f 81 86 87
f 80 87 21
f 81 87 80
f 31 89 90
f 89 91 92
f 90 92 93
f 89 92 90
f 91 84 94
f 84 83 95
f 94 95 96
f 84 95 94
f 93 97 98
f 97 96 99
f 98 99 100
f 97 99 98
f 91 94 92
f 94 96 97
f 92 97 93
f 94 97 92
f 31 90 32
f 90 93 101
f 32 101 34
f 90 101 32
f 93 98 102
f 98 100 103
f 102 103 104
f 98 103 102
f 34 105 38
f 105 104 106
f 38 106 39
f 105 106 38
f 93 102 101
f 102 104 105
f 101 105 34
f 102 105 101
f 39 106 107
f 106 104 108
f 107 108 109
f 106 108 107
f 104 103 110
f 103 100 111
f 110 111 112
f 103 111 110
f 109 113 114
f 113 112 115
f 114 115 116
f 113 115 114
f 104 110 108
f 110 112 113
f 108 113 109
f 110 113 108
f 39 107 45
f 107 109 117
f 45 117 46
f 107 117 45
f 109 114 118
f 114 116 119
f 118 119 120
f 114 119 118
f 46 121 50
f 121 120 122
f 50 122 123
f 121 122 50
f 109 118 117
f 118 120 121
f 117 121 46
f 118 121 117
f 52 124 125
f 122 120 126
f 127 126 128
f 122 126 127
f 120 119 129
f 119 116 130
f 129 130 131
f 119 130 129
f 128 132 133
f 132 131 134
f 133 134 135
f 132 134 133
f 120 129 126
f 129 131 132
f 126 132 128
f 129 132 126
f 52 125 56
f 125 136 137
f 56 137 57
f 125 137 56
f 136 138 139
f 138 140 141
f 139 141 142
f 138 141 139
f 57 143 59
f 143 142 144
f 59 144 9
f 143 144 59
f 136 139 137
f 139 142 143
f 137 143 57
f 139 143 137
f 9 144 60
f 144 142 145
f 60 145 61
f 144 145 60
f 142 141 146
f 141 140 147
f 146 147 148
f 141 147 146
f 61 149 63
f 149 148 150
f 63 150 65
f 149 150 63
f 142 146 145
f 146 148 149
f 145 149 61
f 146 149 145
f 151 152 153
f 152 154 155
f 153 155 156
f 152 155 153
f 154 157 158
f 157 83 159
f 160 78 75
f 157 159 158
f 161 162 163
f 162 75 74
f 163 74 65
f 162 74 163
f 154 158 155
f 160 75 162
f 155 164 156
f 158 164 155
f 151 165 152
f 165 166 167
f 152 167 154
f 165 167 152
f 166 168 169
f 168 100 99
f 169 99 96
f 168 99 169
f 154 170 157
f 170 96 95
f 157 95 83
f 170 95 157
f 166 169 167
f 169 96 170
f 167 170 154
f 169 170 167
f 151 171 165
f 171 172 173
f 165 173 166
f 171 173 165
f 172 174 175
f 174 116 115
f 175 115 112
f 174 115 175
f 166 176 168
f 176 112 111
f 168 111 100
f 176 111 168
f 172 175 173
f 175 112 176
f 173 176 166
f 175 176 173
f 151 177 171
f 177 178 179
f 171 179 172
f 177 179 171
f 178 180 181
f 180 135 134
f 181 134 131
f 180 134 181
f 172 182 174
f 182 131 130
f 174 130 116
f 182 130 174
f 178 181 179
f 181 131 182
f 179 182 172
f 181 182 179
f 151 153 177
f 153 156 183
f 177 183 178
f 153 183 177
f 161 163 184
f 163 65 150
f 184 150 148
f 163 150 184
f 178 185 180
f 186 148 147
f 187 147 140
f 186 147 187
f 156 188 183
f 184 148 186
f 183 185 178
f 188 185 183
f 25 31 23
f 23 31 30
f 23 30 29
f 29 30 33
f 40 36 28
f 28 36 35
f 29 33 40
f 40 33 36
f 51 50 52
f 52 50 123
f 47 49 51
f 51 49 50
f 28 35 53
f 53 35 44
f 53 44 47
f 47 44 49
f 78 159 79
f 79 159 83
f 79 83 77
f 77 83 82
f 85 84 86
f 86 84 91
f 77 82 85
f 85 82 84
f 86 91 88
f 88 91 89
f 88 89 25
f 25 89 31
f 52 123 124
f 124 123 122
f 124 122 125
f 125 122 127
f 125 127 136
f 136 127 128
f 136 128 138
f 138 128 133
f 138 133 140
f 140 133 135
f 160 158 78
f 78 158 159
f 161 156 162
f 162 156 164
f 162 164 160
f 160 164 158
f 184 188 161
f 161 188 156
f 140 135 187
f 187 135 180
f 187 180 186
f 186 180 185
f 186 185 184
f 184 185 188
