v -0.253443 1.11756 0.867557
v -0.218573 1.07374 0.863083
v -0.224156 1.12253 0.819876
v -0.195307 1.02431 0.85
v -0.191911 1.0749 0.811445
v -0.206047 1.11817 0.766875
v -0.185414 0.973023 0.829305
v -0.172198 1.01503 0.791364
v -0.189649 0.923795 0.802573
v -0.171507 0.962615 0.766244
v -0.16855 1.00428 0.728678
v -0.177845 1.06438 0.747662
v -0.200494 1.10482 0.712589
v -0.181004 1.04562 0.692735
v -0.207922 1.08349 0.661152
v -0.276396 1.15826 0.836379
v -0.250396 1.1604 0.784436
v -0.30655 1.18692 0.798626
v -0.236329 1.14987 0.720653
v -0.238827 1.13015 0.666032
v -0.279793 1.1669 0.677304
v -0.289166 1.18602 0.737345
v -0.341611 1.20135 0.757171
v -0.327703 1.19095 0.69411
v -0.378908 1.20046 0.71517
v -0.303099 1.13156 0.889786
v -0.330242 1.16953 0.855146
v -0.357924 1.13555 0.901374
v -0.369013 1.19515 0.808056
v -0.406646 1.19998 0.76402
v -0.431671 1.18428 0.811804
v -0.396022 1.16814 0.862074
v -0.413745 1.12922 0.901439
v -0.452077 1.15455 0.854882
v -0.466311 1.11305 0.889977
v -0.267363 1.07932 0.90629
v -0.321106 1.08969 0.925857
v -0.289172 1.03505 0.933125
v -0.386886 1.0883 0.932785
v -0.443044 1.0756 0.924793
v -0.414293 1.0324 0.946303
v -0.350741 1.03546 0.949478
v -0.31721 0.988103 0.946021
v -0.382246 0.986728 0.95287
v -0.349343 0.942067 0.943995
v -0.235613 1.0312 0.898848
v -0.265248 0.976974 0.922468
v -0.29772 0.928905 0.926167
v -0.251675 0.921155 0.894929
v -0.2159 0.971327 0.878767
v -0.214714 0.919408 0.852658
v -0.192211 0.902566 0.750623
v -0.208382 0.888755 0.698626
v -0.179072 0.943766 0.711781
v -0.236932 0.883412 0.650539
v -0.20566 0.932378 0.65228
v -0.275688 0.886944 0.610024
v -0.242515 0.932202 0.607332
v -0.219122 0.982621 0.6155
v -0.184719 0.993114 0.66808
v -0.207291 1.03436 0.633907
v -0.243027 1.0866 0.617404
v -0.247452 1.03456 0.591886
v -0.287875 1.08312 0.583749
v -0.268393 0.973829 0.576087
v -0.298955 0.924394 0.575208
v -0.327707 0.967598 0.553697
v -0.304538 1.02667 0.559394
v -0.33905 1.07332 0.56275
v -0.359754 1.01327 0.54713
v -0.392657 1.05793 0.556006
v -0.279348 1.13144 0.624378
v -0.336434 1.12355 0.591886
v -0.39129 1.10905 0.579254
v -0.388378 1.15188 0.6155
v -0.332186 1.16759 0.641071
v -0.384143 1.18314 0.661985
v -0.432933 1.18872 0.705192
v -0.43862 1.16534 0.65228
v -0.482243 1.16262 0.698626
v -0.442869 1.1213 0.603096
v -0.44428 1.07109 0.573833
v -0.490325 1.07884 0.605071
v -0.492217 1.12694 0.646797
v -0.523086 1.12413 0.69597
v -0.527286 1.08059 0.647342
v -0.55235 1.0762 0.697427
v -0.461381 1.18237 0.755483
v -0.514977 1.14398 0.75
v -0.549789 1.09743 0.749377
v -0.533618 1.11124 0.801374
v -0.48839 1.15536 0.809501
v -0.505067 1.11659 0.849461
v -0.499485 1.0678 0.892668
v -0.53634 1.06762 0.84772
v -0.522878 1.01738 0.8845
v -0.562927 1.05623 0.788219
v -0.570493 1.03738 0.733756
v -0.57345 0.995717 0.771322
v -0.557281 1.00688 0.83192
v -0.534709 0.965635 0.866093
v -0.560996 0.954376 0.807265
v -0.534078 0.916509 0.838848
v -0.473607 1.02617 0.923913
v -0.494548 0.965433 0.908114
v -0.498973 0.913395 0.882596
v -0.454125 0.916873 0.916251
v -0.437462 0.973331 0.940606
v -0.40295 0.926679 0.93725
v -0.35071 0.890943 0.920746
v -0.405565 0.87645 0.908114
v -0.353622 0.848121 0.8845
v -0.462652 0.868553 0.875622
v -0.503173 0.86985 0.833968
v -0.462206 0.833099 0.822696
v -0.409814 0.832407 0.85893
v -0.357856 0.81686 0.838015
v -0.414297 0.809052 0.805891
v -0.363092 0.799541 0.78483
v -0.299131 0.878702 0.896904
v -0.30338 0.834659 0.84772
v -0.309067 0.811278 0.794808
v -0.259756 0.837381 0.801374
v -0.249783 0.873055 0.853203
v -0.218914 0.875863 0.80403
v -0.227022 0.856021 0.75
v -0.280619 0.817625 0.744517
v -0.335353 0.800019 0.73598
v -0.310329 0.815721 0.688197
v -0.25361 0.844634 0.690499
v -0.289923 0.84545 0.645118
v -0.488557 0.882442 0.632443
v -0.474637 0.920678 0.59371
v -0.438901 0.868438 0.610214
v -0.452828 0.964952 0.566875
v -0.420894 0.910311 0.574143
v -0.384076 0.864449 0.598626
v -0.42479 1.01189 0.553979
v -0.391259 0.96454 0.550523
v -0.355114 0.911702 0.567215
v -0.328255 0.870778 0.598561
v -0.523427 0.92626 0.636917
v -0.546693 0.975692 0.65
v -0.506387 0.968795 0.601152
v -0.556586 1.02697 0.670695
v -0.5261 1.02867 0.621233
v -0.476752 1.02302 0.577532
v -0.517844 0.87747 0.680125
v -0.535953 0.881827 0.733126
v -0.550089 0.925093 0.688555
v -0.541505 0.895178 0.787411
v -0.564155 0.935621 0.752338
v -0.569802 0.984969 0.708637
v -0.465604 0.841734 0.663621
v -0.43545 0.813074 0.701374
v -0.491604 0.8396 0.715565
v -0.400389 0.798644 0.742829
v -0.452833 0.813982 0.762655
v -0.505671 0.850127 0.779347
v -0.411757 0.830464 0.644854
v -0.345977 0.831855 0.637926
v -0.372987 0.804846 0.691944
f 1 2 3
f 2 4 5
f 3 5 6
f 2 5 3
f 4 7 8
f 7 9 10
f 8 10 11
f 7 10 8
f 6 12 13
f 12 11 14
f 13 14 15
f 12 14 13
f 4 8 5
f 8 11 12
f 5 12 6
f 8 12 5
f 1 3 16
f 3 6 17
f 16 17 18
f 3 17 16
f 6 13 19
f 13 15 20
f 19 20 21
f 13 20 19
f 18 22 23
f 22 21 24
f 23 24 25
f 22 24 23
f 6 19 17
f 19 21 22
f 17 22 18
f 19 22 17
f 1 16 26
f 16 18 27
f 26 27 28
f 16 27 26
f 18 23 29
f 23 25 30
f 29 30 31
f 23 30 29
f 28 32 33
f 32 31 34
f 33 34 35
f 32 34 33
f 18 29 27
f 29 31 32
f 27 32 28
f 29 32 27
f 1 26 36
f 26 28 37
f 36 37 38
f 26 37 36
f 28 33 39
f 33 35 40
f 39 40 41
f 33 40 39
f 38 42 43
f 42 41 44
f 43 44 45
f 42 44 43
f 28 39 37
f 39 41 42
f 37 42 38
f 39 42 37
f 1 36 2
f 36 38 46
f 2 46 4
f 36 46 2
f 38 43 47
f 43 45 48
f 47 48 49
f 43 48 47
f 4 50 7
f 50 49 51
f 7 51 9
f 50 51 7
f 38 47 46
f 47 49 50
f 46 50 4
f 47 50 46
f 9 52 10
f 52 53 54
f 10 54 11
f 52 54 10
f 53 55 56
f 55 57 58
f 56 58 59
f 55 58 56
f 11 60 14
f 60 59 61
f 14 61 15
f 60 61 14
f 53 56 54
f 56 59 60
f 54 60 11
f 56 60 54
f 15 61 62
f 61 59 63
f 62 63 64
f 61 63 62
f 59 58 65
f 58 57 66
f 65 66 67
f 58 66 65
f 64 68 69
f 68 67 70
f 69 70 71
f 68 70 69
f 59 65 63
f 65 67 68
f 63 68 64
f 65 68 63
f 15 62 20
f 62 64 72
f 20 72 21
f 62 72 20
f 64 69 73
f 69 71 74
f 73 74 75
f 69 74 73
f 21 76 24
f 76 75 77
f 24 77 25
f 76 77 24
f 64 73 72
f 73 75 76
f 72 76 21
f 73 76 72
f 25 77 78
f 77 75 79
f 78 79 80
f 77 79 78
f 75 74 81
f 74 71 82
f 81 82 83
f 74 82 81
f 80 84 85
f 84 83 86
f 85 86 87
f 84 86 85
f 75 81 79
f 81 83 84
f 79 84 80
f 81 84 79
f 25 78 30
f 78 80 88
f 30 88 31
f 78 88 30
f 80 85 89
f 85 87 90
f 89 90 91
f 85 90 89
f 31 92 34
f 92 91 93
f 34 93 35
f 92 93 34
f 80 89 88
f 89 91 92
f 88 92 31
f 89 92 88
f 35 93 94
f 93 91 95
f 94 95 96
f 93 95 94
f 91 90 97
f 90 87 98
f 97 98 99
f 90 98 97
f 96 100 101
f 100 99 102
f 101 102 103
f 100 102 101
f 91 97 95
f 97 99 100
f 95 100 96
f 97 100 95
f 35 94 40
f 94 96 104
f 40 104 41
f 94 104 40
f 96 101 105
f 101 103 106
f 105 106 107
f 101 106 105
f 41 108 44
f 108 107 109
f 44 109 45
f 108 109 44
f 96 105 104
f 105 107 108
f 104 108 41
f 105 108 104
f 45 109 110
f 109 107 111
f 110 111 112
f 109 111 110
f 107 106 113
f 106 103 114
f 113 114 115
f 106 114 113
f 112 116 117
f 116 115 118
f 117 118 119
f 116 118 117
f 107 113 111
f 113 115 116
f 111 116 112
f 113 116 111
f 45 110 48
f 110 112 120
f 48 120 49
f 110 120 48
f 112 117 121
f 117 119 122
f 121 122 123
f 117 122 121
f 49 124 51
f 124 123 125
f 51 125 9
f 124 125 51
f 112 121 120
f 121 123 124
f 120 124 49
f 121 124 120
f 9 125 52
f 125 123 126
f 52 126 53
f 125 126 52
f 123 122 127
f 122 119 128
f 127 128 129
f 122 128 127
f 53 130 55
f 130 129 131
f 55 131 57
f 130 131 55
f 123 127 126
f 127 129 130
f 126 130 53
f 127 130 126
f 132 133 134
f 133 135 136
f 134 136 137
f 133 136 134
f 135 138 139
f 138 71 70
f 139 70 67
f 138 70 139
f 137 140 141
f 140 67 66
f 141 66 57
f 140 66 141
f 135 139 136
f 139 67 140
f 136 140 137
f 139 140 136
f 132 142 133
f 142 143 144
f 133 144 135
f 142 144 133
f 143 145 146
f 145 87 86
f 146 86 83
f 145 86 146
f 135 147 138
f 147 83 82
f 138 82 71
f 147 82 138
f 143 146 144
f 146 83 147
f 144 147 135
f 146 147 144
f 132 148 142
f 148 149 150
f 142 150 143
f 148 150 142
f 149 151 152
f 151 103 102
f 152 102 99
f 151 102 152
f 143 153 145
f 153 99 98
f 145 98 87
f 153 98 145
f 149 152 150
f 152 99 153
f 150 153 143
f 152 153 150
f 132 154 148
f 154 155 156
f 148 156 149
f 154 156 148
f 155 157 158
f 157 119 118
f 158 118 115
f 157 118 158
f 149 159 151
f 159 115 114
f 151 114 103
f 159 114 151
f 155 158 156
f 158 115 159
f 156 159 149
f 158 159 156
f 132 134 154
f 134 137 160
f 154 160 155
f 134 160 154
f 137 141 161
f 141 57 131
f 161 131 129
f 141 131 161
f 155 162 157
f 162 129 128
f 157 128 119
f 162 128 157
f 137 161 160
f 161 129 162
f 160 162 155
f 161 162 160
