v -0.253443 1.11756 0.867557
v -0.218573 1.07374 0.863083
v -0.224156 1.12253 0.819876
v -0.195307 1.02431 0.85
v -0.191911 1.0749 0.811445
v -0.206047 1.11817 0.766875
v -0.185414 0.973023 0.829305
v -0.172198 1.01503 0.791364
v -0.189649 0.923795 0.802573
v -0.171507 0.962615 0.766244
v -0.16855 1.00428 0.728678
v -0.206047 1.15517 0.646875
v -0.177845 1.10137 0.627662
v -0.200494 1.14182 0.592589
v -0.16855 1.04128 0.608678
v -0.181004 1.08262 0.572735
v -0.207922 1.12049 0.541152
v -0.172198 1.05203 0.671364
v -0.191911 1.1119 0.691445
v -0.177845 1.06438 0.747662
v -0.276396 1.15826 0.836379
v -0.224156 1.15952 0.699876
v -0.250396 1.19739 0.664436
v -0.250396 1.1604 0.784436
v -0.30655 1.18692 0.798626
v -0.236329 1.18687 0.600653
v -0.238827 1.16714 0.546032
v -0.279793 1.2039 0.557304
v -0.30655 1.22392 0.678626
v -0.289166 1.22301 0.617345
v -0.341611 1.23835 0.637171
v -0.327703 1.22794 0.57411
v -0.378908 1.23745 0.59517
v -0.303099 1.13156 0.889786
v -0.330242 1.16953 0.855146
v -0.357924 1.13555 0.901374
v -0.369013 1.23215 0.688056
v -0.406646 1.23698 0.64402
v -0.431671 1.22127 0.691804
v -0.396022 1.16814 0.862074
v -0.413745 1.12922 0.901439
v -0.431671 1.18428 0.811804
v -0.452077 1.15455 0.854882
v -0.466311 1.11305 0.889977
v -0.369013 1.19515 0.808056
v -0.267363 1.07932 0.90629
v -0.321106 1.08969 0.925857
v -0.289172 1.03505 0.933125
v -0.386886 1.0883 0.932785
v -0.443044 1.0756 0.924793
v -0.414293 1.0324 0.946303
v -0.350741 1.03546 0.949478
v -0.31721 0.988103 0.946021
v -0.382246 0.986728 0.95287
v -0.349343 0.942067 0.943995
v -0.235613 1.0312 0.898848
v -0.265248 0.976974 0.922468
v -0.29772 0.928905 0.926167
v -0.251675 0.921155 0.894929
v -0.2159 0.971327 0.878767
v -0.214714 0.919408 0.852658
v -0.192211 0.902566 0.750623
v -0.192211 0.939563 0.630623
v -0.208382 0.925752 0.578626
v -0.179072 0.980763 0.591781
v -0.171507 0.999612 0.646244
v -0.179072 0.943766 0.711781
v -0.236932 0.920409 0.530539
v -0.20566 0.969375 0.53228
v -0.275688 0.923941 0.490024
v -0.242515 0.969199 0.487332
v -0.219122 1.01962 0.4955
v -0.184719 1.03011 0.54808
v -0.207291 1.07136 0.513907
v -0.243027 1.1236 0.497404
v -0.247452 1.07156 0.471886
v -0.287875 1.12012 0.463749
v -0.268393 1.01083 0.456087
v -0.298955 0.961391 0.455208
v -0.327707 1.0046 0.433697
v -0.304538 1.06366 0.439394
v -0.33905 1.11031 0.44275
v -0.359754 1.05027 0.42713
v -0.392657 1.09493 0.436006
v -0.279348 1.16844 0.504378
v -0.336434 1.16054 0.471886
v -0.39129 1.14605 0.459254
v -0.388378 1.18887 0.4955
v -0.332186 1.20459 0.521071
v -0.384143 1.22013 0.541985
v -0.432933 1.22572 0.585192
v -0.43862 1.20234 0.53228
v -0.482243 1.19961 0.578626
v -0.442869 1.15829 0.483096
v -0.44428 1.10809 0.453833
v -0.490325 1.11584 0.485071
v -0.492217 1.16394 0.526797
v -0.523086 1.16113 0.57597
v -0.527286 1.11759 0.527342
v -0.55235 1.1132 0.577427
v -0.461381 1.21937 0.635483
v -0.514977 1.18097 0.63
v -0.549789 1.13443 0.629377
v -0.533618 1.14824 0.681374
v -0.48839 1.15536 0.809501
v -0.533618 1.11124 0.801374
v -0.505067 1.11659 0.849461
v -0.48839 1.19236 0.689501
v -0.499485 1.0678 0.892668
v -0.53634 1.06762 0.84772
v -0.522878 1.01738 0.8845
v -0.549789 1.09743 0.749377
v -0.562927 1.05623 0.788219
v -0.570493 1.07438 0.613756
v -0.570493 1.03738 0.733756
v -0.57345 0.995717 0.771322
v -0.562927 1.09323 0.668219
v -0.557281 1.00688 0.83192
v -0.534709 0.965635 0.866093
v -0.560996 0.954376 0.807265
v -0.534078 0.916509 0.838848
v -0.473607 1.02617 0.923913
v -0.494548 0.965433 0.908114
v -0.498973 0.913395 0.882596
v -0.454125 0.916873 0.916251
v -0.437462 0.973331 0.940606
v -0.40295 0.926679 0.93725
v -0.35071 0.890943 0.920746
v -0.405565 0.87645 0.908114
v -0.353622 0.848121 0.8845
v -0.462652 0.868553 0.875622
v -0.503173 0.86985 0.833968
v -0.462206 0.833099 0.822696
v -0.409814 0.832407 0.85893
v -0.357856 0.81686 0.838015
v -0.414297 0.809052 0.805891
v -0.363092 0.799541 0.78483
v -0.299131 0.878702 0.896904
v -0.30338 0.834659 0.84772
v -0.309067 0.811278 0.794808
v -0.259756 0.837381 0.801374
v -0.249783 0.873055 0.853203
v -0.218914 0.875863 0.80403
v -0.227022 0.856021 0.75
v -0.208382 0.888755 0.698626
v -0.280619 0.817625 0.744517
v -0.335353 0.800019 0.73598
v -0.310329 0.815721 0.688197
v -0.25361 0.881631 0.570499
v -0.310329 0.852718 0.568197
v -0.289923 0.882447 0.525118
v -0.25361 0.844634 0.690499
v -0.488557 0.919439 0.512443
v -0.474637 0.957675 0.47371
v -0.438901 0.905435 0.490214
v -0.452828 1.00195 0.446875
v -0.420894 0.947308 0.454143
v -0.384076 0.901446 0.478626
v -0.42479 1.04889 0.433979
v -0.391259 1.00154 0.430523
v -0.355114 0.948699 0.447215
v -0.328255 0.907775 0.478561
v -0.523427 0.963257 0.516917
v -0.546693 1.01269 0.53
v -0.506387 1.00579 0.481152
v -0.556586 1.06397 0.550695
v -0.5261 1.06567 0.501233
v -0.476752 1.06002 0.457532
v -0.517844 0.914467 0.560125
v -0.535953 0.918823 0.613126
v -0.550089 0.96209 0.568555
v -0.535953 0.881827 0.733126
v -0.541505 0.895178 0.787411
v -0.564155 0.935621 0.752338
v -0.569802 1.02197 0.588637
v -0.57345 1.03271 0.651322
v -0.550089 0.925093 0.688555
v -0.569802 0.984969 0.708637
v -0.564155 0.972618 0.632338
v -0.465604 0.878731 0.543621
v -0.43545 0.850071 0.581374
v -0.491604 0.876597 0.595565
v -0.517844 0.87747 0.680125
v -0.491604 0.8396 0.715565
v -0.43545 0.813074 0.701374
v -0.400389 0.798644 0.742829
v -0.452833 0.813982 0.762655
v -0.505671 0.850127 0.779347
v -0.411757 0.867461 0.524854
v -0.345977 0.868852 0.517926
v -0.372987 0.804846 0.691944
v -0.372987 0.841843 0.571944
f 1 2 3
f 2 4 5
f 3 5 6
f 2 5 3
f 4 7 8
f 7 9 10
f 8 10 11
f 7 10 8
f 12 13 14
f 13 15 16
f 14 16 17
f 13 16 14
f 4 8 5
f 18 15 13
f 19 13 12
f 8 20 5
f 1 3 21
f 22 12 23
f 21 24 25
f 3 24 21
f 12 14 26
f 14 17 27
f 26 27 28
f 14 27 26
f 29 30 31
f 30 28 32
f 31 32 33
f 30 32 31
f 12 26 23
f 26 28 30
f 23 30 29
f 26 30 23
f 1 21 34
f 21 25 35
f 34 35 36
f 21 35 34
f 29 31 37
f 31 33 38
f 37 38 39
f 31 38 37
f 36 40 41
f 40 42 43
f 41 43 44
f 40 43 41
f 25 45 35
f 45 42 40
f 35 40 36
f 45 40 35
f 1 34 46
f 34 36 47
f 46 47 48
f 34 47 46
f 36 41 49
f 41 44 50
f 49 50 51
f 41 50 49
f 48 52 53
f 52 51 54
f 53 54 55
f 52 54 53
f 36 49 47
f 49 51 52
f 47 52 48
f 49 52 47
f 1 46 2
f 46 48 56
f 2 56 4
f 46 56 2
f 48 53 57
f 53 55 58
f 57 58 59
f 53 58 57
f 4 60 7
f 60 59 61
f 7 61 9
f 60 61 7
f 48 57 56
f 57 59 60
f 56 60 4
f 57 60 56
f 9 62 10
f 63 64 65
f 66 65 15
f 62 67 10
f 64 68 69
f 68 70 71
f 69 71 72
f 68 71 69
f 15 73 16
f 73 72 74
f 16 74 17
f 73 74 16
f 64 69 65
f 69 72 73
f 65 73 15
f 69 73 65
f 17 74 75
f 74 72 76
f 75 76 77
f 74 76 75
f 72 71 78
f 71 70 79
f 78 79 80
f 71 79 78
f 77 81 82
f 81 80 83
f 82 83 84
f 81 83 82
f 72 78 76
f 78 80 81
f 76 81 77
f 78 81 76
f 17 75 27
f 75 77 85
f 27 85 28
f 75 85 27
f 77 82 86
f 82 84 87
f 86 87 88
f 82 87 86
f 28 89 32
f 89 88 90
f 32 90 33
f 89 90 32
f 77 86 85
f 86 88 89
f 85 89 28
f 86 89 85
f 33 90 91
f 90 88 92
f 91 92 93
f 90 92 91
f 88 87 94
f 87 84 95
f 94 95 96
f 87 95 94
f 93 97 98
f 97 96 99
f 98 99 100
f 97 99 98
f 88 94 92
f 94 96 97
f 92 97 93
f 94 97 92
f 33 91 38
f 91 93 101
f 38 101 39
f 91 101 38
f 93 98 102
f 98 100 103
f 102 103 104
f 98 103 102
f 42 105 43
f 105 106 107
f 43 107 44
f 105 107 43
f 93 102 101
f 102 104 108
f 101 108 39
f 102 108 101
f 44 107 109
f 107 106 110
f 109 110 111
f 107 110 109
f 106 112 113
f 103 100 114
f 113 115 116
f 103 114 117
f 111 118 119
f 118 116 120
f 119 120 121
f 118 120 119
f 106 113 110
f 113 116 118
f 110 118 111
f 113 118 110
f 44 109 50
f 109 111 122
f 50 122 51
f 109 122 50
f 111 119 123
f 119 121 124
f 123 124 125
f 119 124 123
f 51 126 54
f 126 125 127
f 54 127 55
f 126 127 54
f 111 123 122
f 123 125 126
f 122 126 51
f 123 126 122
f 55 127 128
f 127 125 129
f 128 129 130
f 127 129 128
f 125 124 131
f 124 121 132
f 131 132 133
f 124 132 131
f 130 134 135
f 134 133 136
f 135 136 137
f 134 136 135
f 125 131 129
f 131 133 134
f 129 134 130
f 131 134 129
f 55 128 58
f 128 130 138
f 58 138 59
f 128 138 58
f 130 135 139
f 135 137 140
f 139 140 141
f 135 140 139
f 59 142 61
f 142 141 143
f 61 143 9
f 142 143 61
f 130 139 138
f 139 141 142
f 138 142 59
f 139 142 138
f 9 143 62
f 143 141 144
f 62 144 145
f 143 144 62
f 141 140 146
f 140 137 147
f 146 147 148
f 140 147 146
f 64 149 68
f 149 150 151
f 68 151 70
f 149 151 68
f 141 146 144
f 146 148 152
f 144 152 145
f 146 152 144
f 153 154 155
f 154 156 157
f 155 157 158
f 154 157 155
f 156 159 160
f 159 84 83
f 160 83 80
f 159 83 160
f 158 161 162
f 161 80 79
f 162 79 70
f 161 79 162
f 156 160 157
f 160 80 161
f 157 161 158
f 160 161 157
f 153 163 154
f 163 164 165
f 154 165 156
f 163 165 154
f 164 166 167
f 166 100 99
f 167 99 96
f 166 99 167
f 156 168 159
f 168 96 95
f 159 95 84
f 168 95 159
f 164 167 165
f 167 96 168
f 165 168 156
f 167 168 165
f 153 169 163
f 169 170 171
f 163 171 164
f 169 171 163
f 172 173 174
f 173 121 120
f 174 120 116
f 173 120 174
f 164 175 166
f 175 176 114
f 166 114 100
f 175 114 166
f 172 174 177
f 174 116 178
f 171 175 164
f 179 175 171
f 153 180 169
f 180 181 182
f 183 184 172
f 180 182 169
f 185 186 187
f 186 137 136
f 187 136 133
f 186 136 187
f 172 188 173
f 188 133 132
f 173 132 121
f 188 132 173
f 185 187 184
f 187 133 188
f 184 188 172
f 187 188 184
f 153 155 180
f 155 158 189
f 180 189 181
f 155 189 180
f 158 162 190
f 162 70 151
f 190 151 150
f 162 151 190
f 185 191 186
f 191 148 147
f 186 147 137
f 191 147 186
f 158 190 189
f 190 150 192
f 189 192 181
f 190 192 189
f 5 19 6
f 6 19 12
f 6 12 3
f 3 12 22
f 10 66 11
f 11 66 15
f 11 15 8
f 8 15 18
f 8 18 20
f 20 18 13
f 20 13 5
f 5 13 19
f 24 23 25
f 25 23 29
f 3 22 24
f 24 22 23
f 25 29 45
f 45 29 37
f 45 37 42
f 42 37 39
f 62 63 67
f 67 63 65
f 67 65 10
f 10 65 66
f 42 39 105
f 105 39 108
f 105 108 106
f 106 108 104
f 106 104 112
f 112 104 103
f 112 103 113
f 113 103 117
f 113 117 115
f 115 117 114
f 115 114 116
f 116 114 176
f 145 64 62
f 62 64 63
f 148 150 152
f 152 150 149
f 152 149 145
f 145 149 64
f 174 179 177
f 177 179 171
f 177 171 172
f 172 171 170
f 116 176 178
f 178 176 175
f 178 175 174
f 174 175 179
f 183 169 184
f 184 169 182
f 172 170 183
f 183 170 169
f 184 182 185
f 185 182 181
f 185 181 191
f 191 181 192
f 191 192 148
f 148 192 150
