v -0.253443 1.15455 0.747557
v -0.218573 1.11073 0.743083
v -0.224156 1.15952 0.699876
v -0.195307 1.0613 0.73
v -0.191911 1.1119 0.691445
v -0.206047 1.15517 0.646875
v -0.185414 1.01002 0.709305
v -0.172198 1.05203 0.671364
v -0.189649 0.960791 0.682573
v -0.171507 0.999612 0.646244
v -0.16855 1.04128 0.608678
v -0.206047 1.15517 0.566875
v -0.177845 1.10137 0.547662
v -0.200494 1.14182 0.512589
v -0.16855 1.04128 0.528678
v -0.181004 1.08262 0.492735
v -0.207922 1.12049 0.461152
v -0.177845 1.10137 0.627662
v -0.276396 1.19526 0.716379
v -0.250396 1.19739 0.664436
v -0.30655 1.22392 0.678626
v -0.236329 1.18687 0.520653
v -0.238827 1.16714 0.466032
v -0.279793 1.2039 0.477304
v -0.289166 1.22301 0.617345
v -0.341611 1.23835 0.637171
v -0.289166 1.22301 0.537345
v -0.327703 1.22794 0.49411
v -0.341611 1.23835 0.557171
v -0.378908 1.23745 0.51517
v -0.236329 1.18687 0.600653
v -0.250396 1.19739 0.584436
v -0.303099 1.16856 0.769786
v -0.330242 1.20653 0.735146
v -0.357924 1.17255 0.781374
v -0.369013 1.23215 0.688056
v -0.406646 1.23698 0.56402
v -0.406646 1.23698 0.64402
v -0.431671 1.22127 0.691804
v -0.396022 1.20514 0.742074
v -0.413745 1.16622 0.781439
v -0.452077 1.19154 0.734882
v -0.466311 1.15005 0.769976
v -0.267363 1.11632 0.78629
v -0.321106 1.12668 0.805857
v -0.289172 1.07204 0.813125
v -0.386886 1.12529 0.812785
v -0.443044 1.1126 0.804793
v -0.414293 1.0694 0.826303
v -0.350741 1.07245 0.829478
v -0.31721 1.0251 0.826021
v -0.382246 1.02372 0.83287
v -0.349343 0.979064 0.823995
v -0.235613 1.0682 0.778848
v -0.265248 1.01397 0.802468
v -0.29772 0.965902 0.806167
v -0.251675 0.958152 0.774929
v -0.2159 1.00832 0.758767
v -0.214714 0.956405 0.732658
v -0.192211 0.939563 0.630623
v -0.192211 0.939563 0.550623
v -0.208382 0.925752 0.498626
v -0.179072 0.980763 0.511781
v -0.171507 0.999612 0.566244
v -0.236932 0.920409 0.450539
v -0.20566 0.969375 0.45228
v -0.275688 0.923941 0.410024
v -0.242515 0.969199 0.407332
v -0.219122 1.01962 0.4155
v -0.184719 1.03011 0.46808
v -0.207291 1.07136 0.433907
v -0.243027 1.1236 0.417404
v -0.247452 1.07156 0.391886
v -0.287875 1.12012 0.383749
v -0.268393 1.01083 0.376087
v -0.298955 0.961391 0.375207
v -0.327707 1.0046 0.353697
v -0.304538 1.06366 0.359394
v -0.33905 1.11031 0.36275
v -0.359754 1.05027 0.34713
v -0.392657 1.09493 0.356006
v -0.279348 1.16844 0.424378
v -0.336434 1.16054 0.391886
v -0.39129 1.14605 0.379254
v -0.388378 1.18887 0.4155
v -0.332186 1.20459 0.441071
v -0.384143 1.22013 0.461985
v -0.432933 1.22572 0.505192
v -0.43862 1.20234 0.45228
v -0.482243 1.19961 0.498626
v -0.442869 1.15829 0.403096
v -0.44428 1.10809 0.373833
v -0.490325 1.11584 0.405071
v -0.492217 1.16394 0.446797
v -0.523086 1.16113 0.49597
v -0.527286 1.11759 0.447342
v -0.55235 1.1132 0.497427
v -0.461381 1.21937 0.555483
v -0.461381 1.21937 0.635483
v -0.514977 1.18097 0.55
v -0.549789 1.13443 0.549377
v -0.514977 1.18097 0.63
v -0.549789 1.13443 0.629377
v -0.533618 1.14824 0.681374
v -0.48839 1.19236 0.689501
v -0.505067 1.15358 0.729461
v -0.499485 1.10479 0.772668
v -0.53634 1.10462 0.72772
v -0.522878 1.05437 0.7645
v -0.562927 1.09323 0.668219
v -0.570493 1.07438 0.533756
v -0.570493 1.07438 0.613756
v -0.57345 1.03271 0.651322
v -0.557281 1.04388 0.71192
v -0.534709 1.00263 0.746093
v -0.560996 0.991373 0.687265
v -0.534078 0.953506 0.718848
v -0.473607 1.06317 0.803913
v -0.494548 1.00243 0.788114
v -0.498973 0.950392 0.762596
v -0.454125 0.95387 0.796251
v -0.437462 1.01033 0.820606
v -0.40295 0.963676 0.81725
v -0.35071 0.92794 0.800746
v -0.405565 0.913447 0.788114
v -0.353622 0.885118 0.7645
v -0.462652 0.90555 0.755622
v -0.503173 0.906847 0.713968
v -0.462206 0.870096 0.702696
v -0.409814 0.869404 0.73893
v -0.357856 0.853857 0.718015
v -0.414297 0.846049 0.685891
v -0.363092 0.836538 0.66483
v -0.299131 0.915698 0.776904
v -0.30338 0.871656 0.72772
v -0.309067 0.848275 0.674808
v -0.259756 0.874378 0.681374
v -0.249783 0.910052 0.733203
v -0.218914 0.91286 0.68403
v -0.227022 0.893018 0.63
v -0.227022 0.893018 0.55
v -0.280619 0.854622 0.624517
v -0.335353 0.837016 0.61598
v -0.280619 0.854622 0.544517
v -0.335353 0.837016 0.53598
v -0.310329 0.852718 0.488197
v -0.25361 0.881631 0.490499
v -0.289923 0.882447 0.445118
v -0.488557 0.919439 0.432443
v -0.474637 0.957675 0.39371
v -0.438901 0.905435 0.410214
v -0.452828 1.00195 0.366875
v -0.420894 0.947308 0.374143
v -0.384076 0.901446 0.398626
v -0.42479 1.04889 0.353979
v -0.391259 1.00154 0.350523
v -0.355114 0.948699 0.367215
v -0.328255 0.907775 0.398561
v -0.523427 0.963257 0.436917
v -0.546693 1.01269 0.45
v -0.506387 1.00579 0.401152
v -0.556586 1.06397 0.470695
v -0.5261 1.06567 0.421233
v -0.476752 1.06002 0.377532
v -0.517844 0.914467 0.480125
v -0.535953 0.918823 0.533125
v -0.550089 0.96209 0.488555
v -0.535953 0.918823 0.613126
v -0.541505 0.932175 0.667411
v -0.564155 0.972618 0.632338
v -0.569802 1.02197 0.508637
v -0.57345 1.03271 0.571322
v -0.564155 0.972618 0.552338
v -0.465604 0.878731 0.463621
v -0.43545 0.850071 0.501374
v -0.491604 0.876597 0.515565
v -0.400389 0.835641 0.542829
v -0.452833 0.850979 0.562655
v -0.400389 0.835641 0.622829
v -0.452833 0.850979 0.642655
v -0.505671 0.887124 0.659347
v -0.505671 0.887124 0.579347
v -0.491604 0.876597 0.595565
v -0.411757 0.867461 0.444854
v -0.345977 0.868852 0.437926
v -0.372987 0.841843 0.491944
f 1 2 3
f 2 4 5
f 3 5 6
f 2 5 3
f 4 7 8
f 7 9 10
f 8 10 11
f 7 10 8
f 12 13 14
f 13 15 16
f 14 16 17
f 13 16 14
f 4 8 5
f 8 11 18
f 5 18 6
f 8 18 5
f 1 3 19
f 3 6 20
f 19 20 21
f 3 20 19
f 12 14 22
f 14 17 23
f 22 23 24
f 14 23 22
f 21 25 26
f 27 24 28
f 29 28 30
f 27 28 29
f 6 31 20
f 22 24 27
f 20 25 21
f 22 27 32
f 1 19 33
f 19 21 34
f 33 34 35
f 19 34 33
f 21 26 36
f 29 30 37
f 36 38 39
f 26 38 36
f 35 40 41
f 40 39 42
f 41 42 43
f 40 42 41
f 21 36 34
f 36 39 40
f 34 40 35
f 36 40 34
f 1 33 44
f 33 35 45
f 44 45 46
f 33 45 44
f 35 41 47
f 41 43 48
f 47 48 49
f 41 48 47
f 46 50 51
f 50 49 52
f 51 52 53
f 50 52 51
f 35 47 45
f 47 49 50
f 45 50 46
f 47 50 45
f 1 44 2
f 44 46 54
f 2 54 4
f 44 54 2
f 46 51 55
f 51 53 56
f 55 56 57
f 51 56 55
f 4 58 7
f 58 57 59
f 7 59 9
f 58 59 7
f 46 55 54
f 55 57 58
f 54 58 4
f 55 58 54
f 9 60 10
f 61 62 63
f 64 63 15
f 61 63 64
f 62 65 66
f 65 67 68
f 66 68 69
f 65 68 66
f 15 70 16
f 70 69 71
f 16 71 17
f 70 71 16
f 62 66 63
f 66 69 70
f 63 70 15
f 66 70 63
f 17 71 72
f 71 69 73
f 72 73 74
f 71 73 72
f 69 68 75
f 68 67 76
f 75 76 77
f 68 76 75
f 74 78 79
f 78 77 80
f 79 80 81
f 78 80 79
f 69 75 73
f 75 77 78
f 73 78 74
f 75 78 73
f 17 72 23
f 72 74 82
f 23 82 24
f 72 82 23
f 74 79 83
f 79 81 84
f 83 84 85
f 79 84 83
f 24 86 28
f 86 85 87
f 28 87 30
f 86 87 28
f 74 83 82
f 83 85 86
f 82 86 24
f 83 86 82
f 30 87 88
f 87 85 89
f 88 89 90
f 87 89 88
f 85 84 91
f 84 81 92
f 91 92 93
f 84 92 91
f 90 94 95
f 94 93 96
f 95 96 97
f 94 96 95
f 85 91 89
f 91 93 94
f 89 94 90
f 91 94 89
f 30 88 37
f 88 90 98
f 38 99 39
f 88 98 37
f 90 95 100
f 95 97 101
f 102 103 104
f 95 101 100
f 39 105 42
f 105 104 106
f 42 106 43
f 105 106 42
f 90 100 98
f 102 104 105
f 99 105 39
f 102 105 99
f 43 106 107
f 106 104 108
f 107 108 109
f 106 108 107
f 104 103 110
f 101 97 111
f 110 112 113
f 103 112 110
f 109 114 115
f 114 113 116
f 115 116 117
f 114 116 115
f 104 110 108
f 110 113 114
f 108 114 109
f 110 114 108
f 43 107 48
f 107 109 118
f 48 118 49
f 107 118 48
f 109 115 119
f 115 117 120
f 119 120 121
f 115 120 119
f 49 122 52
f 122 121 123
f 52 123 53
f 122 123 52
f 109 119 118
f 119 121 122
f 118 122 49
f 119 122 118
f 53 123 124
f 123 121 125
f 124 125 126
f 123 125 124
f 121 120 127
f 120 117 128
f 127 128 129
f 120 128 127
f 126 130 131
f 130 129 132
f 131 132 133
f 130 132 131
f 121 127 125
f 127 129 130
f 125 130 126
f 127 130 125
f 53 124 56
f 124 126 134
f 56 134 57
f 124 134 56
f 126 131 135
f 131 133 136
f 135 136 137
f 131 136 135
f 57 138 59
f 138 137 139
f 59 139 9
f 138 139 59
f 126 135 134
f 135 137 138
f 134 138 57
f 135 138 134
f 9 139 60
f 139 137 140
f 61 141 62
f 139 140 60
f 137 136 142
f 136 133 143
f 144 145 146
f 136 143 142
f 62 147 65
f 147 146 148
f 65 148 67
f 147 148 65
f 137 142 140
f 144 146 147
f 141 147 62
f 144 147 141
f 149 150 151
f 150 152 153
f 151 153 154
f 150 153 151
f 152 155 156
f 155 81 80
f 156 80 77
f 155 80 156
f 154 157 158
f 157 77 76
f 158 76 67
f 157 76 158
f 152 156 153
f 156 77 157
f 153 157 154
f 156 157 153
f 149 159 150
f 159 160 161
f 150 161 152
f 159 161 150
f 160 162 163
f 162 97 96
f 163 96 93
f 162 96 163
f 152 164 155
f 164 93 92
f 155 92 81
f 164 92 155
f 160 163 161
f 163 93 164
f 161 164 152
f 163 164 161
f 149 165 159
f 165 166 167
f 159 167 160
f 165 167 159
f 168 169 170
f 169 117 116
f 170 116 113
f 169 116 170
f 160 171 162
f 171 172 111
f 162 111 97
f 171 111 162
f 166 173 167
f 173 172 171
f 167 171 160
f 173 171 167
f 149 174 165
f 174 175 176
f 165 176 166
f 174 176 165
f 175 177 178
f 179 133 132
f 180 132 129
f 179 132 180
f 168 181 169
f 181 129 128
f 169 128 117
f 181 128 169
f 175 178 176
f 180 129 181
f 176 182 166
f 180 181 183
f 149 151 174
f 151 154 184
f 174 184 175
f 151 184 174
f 154 158 185
f 158 67 148
f 185 148 146
f 158 148 185
f 175 186 177
f 186 146 145
f 179 143 133
f 186 145 177
f 154 185 184
f 185 146 186
f 184 186 175
f 185 186 184
f 10 64 11
f 11 64 15
f 11 15 18
f 18 15 13
f 18 13 6
f 6 13 12
f 25 27 26
f 26 27 29
f 6 12 31
f 31 12 22
f 31 22 20
f 20 22 32
f 20 32 25
f 25 32 27
f 26 29 38
f 38 29 37
f 60 61 10
f 10 61 64
f 38 37 99
f 99 37 98
f 102 100 103
f 103 100 101
f 99 98 102
f 102 98 100
f 112 111 113
f 113 111 172
f 103 101 112
f 112 101 111
f 140 141 60
f 60 141 61
f 143 145 142
f 142 145 144
f 142 144 140
f 140 144 141
f 170 173 168
f 168 173 166
f 113 172 170
f 170 172 173
f 180 178 179
f 179 178 177
f 168 166 181
f 181 166 182
f 181 182 183
f 183 182 176
f 183 176 180
f 180 176 178
f 179 177 143
f 143 177 145
