v -0.253443 1.15455 0.667557
v -0.218573 1.11073 0.663083
v -0.224156 1.15952 0.619875
v -0.195307 1.0613 0.65
v -0.191911 1.1119 0.611445
v -0.206047 1.15517 0.566875
v -0.185414 1.01002 0.629305
v -0.172198 1.05203 0.591364
v -0.189649 0.960791 0.602573
v -0.171507 0.999612 0.566244
v -0.16855 1.04128 0.528678
v -0.206047 1.17241 0.446875
v -0.177845 1.11861 0.427662
v -0.200494 1.15905 0.392589
v -0.16855 1.05852 0.408678
v -0.181004 1.09986 0.372735
v -0.207922 1.13772 0.341152
v -0.177845 1.10137 0.547662
v -0.276396 1.19526 0.636379
v -0.250396 1.19739 0.584436
v -0.30655 1.22392 0.598626
v -0.236329 1.2041 0.400653
v -0.238827 1.18438 0.346032
v -0.279793 1.22113 0.357304
v -0.30655 1.24116 0.478626
v -0.289166 1.24025 0.417345
v -0.341611 1.25559 0.437171
v -0.327703 1.24518 0.37411
v -0.378908 1.25469 0.39517
v -0.250396 1.21463 0.464436
v -0.303099 1.16856 0.689786
v -0.330242 1.20653 0.655146
v -0.357924 1.17255 0.701374
v -0.341611 1.23835 0.557171
v -0.369013 1.23215 0.608056
v -0.406646 1.25421 0.44402
v -0.406646 1.23698 0.56402
v -0.431671 1.22127 0.611803
v -0.369013 1.24939 0.488056
v -0.396022 1.20514 0.662074
v -0.413745 1.16622 0.701439
v -0.452077 1.19154 0.654882
v -0.466311 1.15005 0.689976
v -0.267363 1.11632 0.70629
v -0.321106 1.12668 0.725857
v -0.289172 1.07204 0.733125
v -0.386886 1.12529 0.732785
v -0.443044 1.1126 0.724793
v -0.414293 1.0694 0.746303
v -0.350741 1.07245 0.749478
v -0.31721 1.0251 0.746021
v -0.382246 1.02372 0.75287
v -0.349343 0.979064 0.743995
v -0.235613 1.0682 0.698848
v -0.265248 1.01397 0.722468
v -0.29772 0.965902 0.726167
v -0.251675 0.958152 0.694929
v -0.2159 1.00832 0.678767
v -0.214714 0.956405 0.652658
v -0.192211 0.939563 0.550623
v -0.192211 0.956801 0.430623
v -0.208382 0.94299 0.378626
v -0.179072 0.998 0.391781
v -0.171507 1.01685 0.446244
v -0.179072 0.980763 0.511781
v -0.236932 0.937647 0.330539
v -0.20566 0.986613 0.33228
v -0.275688 0.941179 0.290024
v -0.242515 0.986436 0.287332
v -0.219122 1.03686 0.2955
v -0.184719 1.04735 0.34808
v -0.207291 1.0886 0.313907
v -0.243027 1.14084 0.297404
v -0.247452 1.0888 0.271886
v -0.287875 1.13736 0.263749
v -0.268393 1.02806 0.256087
v -0.298955 0.978628 0.255207
v -0.327707 1.02183 0.233697
v -0.304538 1.0809 0.239394
v -0.33905 1.12755 0.24275
v -0.359754 1.0675 0.22713
v -0.392657 1.11216 0.236006
v -0.279348 1.18568 0.304378
v -0.336434 1.17778 0.271886
v -0.39129 1.16329 0.259254
v -0.388378 1.20611 0.2955
v -0.332186 1.22182 0.321071
v -0.384143 1.23737 0.341985
v -0.432933 1.24295 0.385192
v -0.43862 1.21957 0.33228
v -0.482243 1.21685 0.378626
v -0.442869 1.17553 0.283096
v -0.44428 1.12533 0.253833
v -0.490325 1.13308 0.285071
v -0.492217 1.18118 0.326797
v -0.523086 1.17837 0.37597
v -0.527286 1.13482 0.327342
v -0.55235 1.13044 0.377427
v -0.461381 1.23661 0.435483
v -0.461381 1.21937 0.555483
v -0.514977 1.19821 0.43
v -0.549789 1.15167 0.429377
v -0.514977 1.18097 0.55
v -0.549789 1.13443 0.549377
v -0.533618 1.14824 0.601374
v -0.48839 1.19236 0.609501
v -0.505067 1.15358 0.649461
v -0.48839 1.2096 0.489501
v -0.499485 1.10479 0.692668
v -0.53634 1.10462 0.64772
v -0.522878 1.05437 0.6845
v -0.562927 1.09323 0.588219
v -0.570493 1.09162 0.413756
v -0.570493 1.07438 0.533756
v -0.57345 1.03271 0.571322
v -0.562927 1.11047 0.468219
v -0.557281 1.04388 0.63192
v -0.534709 1.00263 0.666093
v -0.560996 0.991373 0.607265
v -0.534078 0.953506 0.638848
v -0.473607 1.06317 0.723913
v -0.494548 1.00243 0.708114
v -0.498973 0.950392 0.682596
v -0.454125 0.95387 0.716251
v -0.437462 1.01033 0.740606
v -0.40295 0.963676 0.73725
v -0.35071 0.92794 0.720746
v -0.405565 0.913447 0.708114
v -0.353622 0.885118 0.6845
v -0.462652 0.90555 0.675622
v -0.503173 0.906847 0.633968
v -0.462206 0.870096 0.622696
v -0.409814 0.869404 0.658929
v -0.357856 0.853857 0.638015
v -0.414297 0.846049 0.605891
v -0.363092 0.836538 0.58483
v -0.299131 0.915698 0.696904
v -0.30338 0.871656 0.64772
v -0.309067 0.848275 0.594808
v -0.259756 0.874378 0.601374
v -0.249783 0.910052 0.653203
v -0.218914 0.91286 0.60403
v -0.227022 0.893018 0.55
v -0.227022 0.910256 0.43
v -0.280619 0.854622 0.544517
v -0.335353 0.837016 0.53598
v -0.280619 0.871859 0.424517
v -0.335353 0.854254 0.41598
v -0.310329 0.869955 0.368197
v -0.25361 0.898868 0.370499
v -0.289923 0.899684 0.325118
v -0.25361 0.881631 0.490499
v -0.488557 0.936676 0.312443
v -0.474637 0.974912 0.27371
v -0.438901 0.922672 0.290214
v -0.452828 1.01919 0.246875
v -0.420894 0.964545 0.254143
v -0.384076 0.918683 0.278626
v -0.42479 1.06613 0.233979
v -0.391259 1.01877 0.230523
v -0.355114 0.965936 0.247215
v -0.328255 0.925012 0.278561
v -0.523427 0.980495 0.316917
v -0.546693 1.02993 0.33
v -0.506387 1.02303 0.281152
v -0.556586 1.08121 0.350695
v -0.5261 1.0829 0.301233
v -0.476752 1.07726 0.257532
v -0.517844 0.931705 0.360125
v -0.535953 0.936061 0.413125
v -0.550089 0.979328 0.368555
v -0.535953 0.918823 0.533125
v -0.541505 0.932175 0.587411
v -0.564155 0.972618 0.552338
v -0.569802 1.0392 0.388637
v -0.57345 1.04995 0.451322
v -0.564155 0.989855 0.432338
v -0.465604 0.895969 0.343621
v -0.43545 0.867309 0.381374
v -0.491604 0.893834 0.395564
v -0.43545 0.850071 0.501374
v -0.400389 0.835641 0.542829
v -0.452833 0.850979 0.562655
v -0.505671 0.887124 0.579347
v -0.491604 0.876597 0.515565
v -0.411757 0.884698 0.324854
v -0.345977 0.88609 0.317926
v -0.372987 0.85908 0.371944
v -0.400389 0.852878 0.422829
v -0.372987 0.841843 0.491944
f 1 2 3
f 2 4 5
f 3 5 6
f 2 5 3
f 4 7 8
f 7 9 10
f 8 10 11
f 7 10 8
f 12 13 14
f 13 15 16
f 14 16 17
f 13 16 14
f 4 8 5
f 8 11 18
f 5 18 6
f 8 18 5
f 1 3 19
f 3 6 20
f 19 20 21
f 3 20 19
f 12 14 22
f 14 17 23
f 22 23 24
f 14 23 22
f 25 26 27
f 26 24 28
f 27 28 29
f 26 28 27
f 12 22 30
f 22 24 26
f 30 26 25
f 22 26 30
f 1 19 31
f 19 21 32
f 31 32 33
f 19 32 31
f 21 34 35
f 27 29 36
f 35 37 38
f 27 36 39
f 33 40 41
f 40 38 42
f 41 42 43
f 40 42 41
f 21 35 32
f 35 38 40
f 32 40 33
f 35 40 32
f 1 31 44
f 31 33 45
f 44 45 46
f 31 45 44
f 33 41 47
f 41 43 48
f 47 48 49
f 41 48 47
f 46 50 51
f 50 49 52
f 51 52 53
f 50 52 51
f 33 47 45
f 47 49 50
f 45 50 46
f 47 50 45
f 1 44 2
f 44 46 54
f 2 54 4
f 44 54 2
f 46 51 55
f 51 53 56
f 55 56 57
f 51 56 55
f 4 58 7
f 58 57 59
f 7 59 9
f 58 59 7
f 46 55 54
f 55 57 58
f 54 58 4
f 55 58 54
f 9 60 10
f 61 62 63
f 64 63 15
f 60 65 10
f 62 66 67
f 66 68 69
f 67 69 70
f 66 69 67
f 15 71 16
f 71 70 72
f 16 72 17
f 71 72 16
f 62 67 63
f 67 70 71
f 63 71 15
f 67 71 63
f 17 72 73
f 72 70 74
f 73 74 75
f 72 74 73
f 70 69 76
f 69 68 77
f 76 77 78
f 69 77 76
f 75 79 80
f 79 78 81
f 80 81 82
f 79 81 80
f 70 76 74
f 76 78 79
f 74 79 75
f 76 79 74
f 17 73 23
f 73 75 83
f 23 83 24
f 73 83 23
f 75 80 84
f 80 82 85
f 84 85 86
f 80 85 84
f 24 87 28
f 87 86 88
f 28 88 29
f 87 88 28
f 75 84 83
f 84 86 87
f 83 87 24
f 84 87 83
f 29 88 89
f 88 86 90
f 89 90 91
f 88 90 89
f 86 85 92
f 85 82 93
f 92 93 94
f 85 93 92
f 91 95 96
f 95 94 97
f 96 97 98
f 95 97 96
f 86 92 90
f 92 94 95
f 90 95 91
f 92 95 90
f 29 89 36
f 89 91 99
f 37 100 38
f 89 99 36
f 91 96 101
f 96 98 102
f 103 104 105
f 96 102 101
f 38 106 42
f 106 105 107
f 42 107 43
f 106 107 42
f 91 101 99
f 103 105 106
f 100 106 38
f 101 108 99
f 43 107 109
f 107 105 110
f 109 110 111
f 107 110 109
f 105 104 112
f 102 98 113
f 112 114 115
f 102 113 116
f 111 117 118
f 117 115 119
f 118 119 120
f 117 119 118
f 105 112 110
f 112 115 117
f 110 117 111
f 112 117 110
f 43 109 48
f 109 111 121
f 48 121 49
f 109 121 48
f 111 118 122
f 118 120 123
f 122 123 124
f 118 123 122
f 49 125 52
f 125 124 126
f 52 126 53
f 125 126 52
f 111 122 121
f 122 124 125
f 121 125 49
f 122 125 121
f 53 126 127
f 126 124 128
f 127 128 129
f 126 128 127
f 124 123 130
f 123 120 131
f 130 131 132
f 123 131 130
f 129 133 134
f 133 132 135
f 134 135 136
f 133 135 134
f 124 130 128
f 130 132 133
f 128 133 129
f 130 133 128
f 53 127 56
f 127 129 137
f 56 137 57
f 127 137 56
f 129 134 138
f 134 136 139
f 138 139 140
f 134 139 138
f 57 141 59
f 141 140 142
f 59 142 9
f 141 142 59
f 129 138 137
f 138 140 141
f 137 141 57
f 138 141 137
f 9 142 60
f 142 140 143
f 61 144 62
f 142 143 60
f 140 139 145
f 139 136 146
f 147 148 149
f 139 146 145
f 62 150 66
f 150 149 151
f 66 151 68
f 150 151 66
f 140 145 143
f 147 149 150
f 144 150 62
f 145 152 143
f 153 154 155
f 154 156 157
f 155 157 158
f 154 157 155
f 156 159 160
f 159 82 81
f 160 81 78
f 159 81 160
f 158 161 162
f 161 78 77
f 162 77 68
f 161 77 162
f 156 160 157
f 160 78 161
f 157 161 158
f 160 161 157
f 153 163 154
f 163 164 165
f 154 165 156
f 163 165 154
f 164 166 167
f 166 98 97
f 167 97 94
f 166 97 167
f 156 168 159
f 168 94 93
f 159 93 82
f 168 93 159
f 164 167 165
f 167 94 168
f 165 168 156
f 167 168 165
f 153 169 163
f 169 170 171
f 163 171 164
f 169 171 163
f 172 173 174
f 173 120 119
f 174 119 115
f 173 119 174
f 164 175 166
f 175 176 113
f 166 113 98
f 175 113 166
f 170 177 171
f 177 176 175
f 171 175 164
f 177 175 171
f 153 178 169
f 178 179 180
f 169 180 170
f 178 180 169
f 181 182 183
f 182 136 135
f 183 135 132
f 182 135 183
f 172 184 173
f 184 132 131
f 173 131 120
f 184 131 173
f 181 183 185
f 183 132 184
f 185 184 172
f 183 184 185
f 153 155 178
f 155 158 186
f 178 186 179
f 155 186 178
f 158 162 187
f 162 68 151
f 187 151 149
f 162 151 187
f 179 188 189
f 188 149 148
f 182 146 136
f 190 146 182
f 158 187 186
f 187 149 188
f 186 188 179
f 187 188 186
f 10 64 11
f 11 64 15
f 11 15 18
f 18 15 13
f 18 13 6
f 6 13 12
f 6 12 20
f 20 12 30
f 20 30 21
f 21 30 25
f 21 25 34
f 34 25 27
f 34 27 35
f 35 27 39
f 35 39 37
f 37 39 36
f 60 61 65
f 65 61 63
f 65 63 10
f 10 63 64
f 37 36 100
f 100 36 99
f 103 101 104
f 104 101 102
f 106 108 103
f 103 108 101
f 100 99 106
f 106 99 108
f 104 102 112
f 112 102 116
f 112 116 114
f 114 116 113
f 114 113 115
f 115 113 176
f 143 144 60
f 60 144 61
f 146 148 145
f 145 148 147
f 145 147 152
f 152 147 150
f 152 150 143
f 143 150 144
f 174 177 172
f 172 177 170
f 115 176 174
f 174 176 177
f 181 179 182
f 182 179 189
f 185 180 181
f 181 180 179
f 172 170 185
f 185 170 180
f 190 188 146
f 146 188 148
f 182 189 190
f 190 189 188
