v -0.253443 1.17179 0.547557
v -0.218573 1.12797 0.543083
v -0.224156 1.17676 0.499875
v -0.195307 1.07854 0.53
v -0.191911 1.12914 0.491445
v -0.224156 1.21637 0.419876
v -0.191911 1.16875 0.411445
v -0.206047 1.21201 0.366875
v -0.185414 1.02726 0.509305
v -0.172198 1.06926 0.471364
v -0.189649 0.978029 0.482573
v -0.171507 1.01685 0.446244
v -0.16855 1.05852 0.408678
v -0.177845 1.15822 0.347662
v -0.200494 1.19866 0.312589
v -0.16855 1.09812 0.328678
v -0.181004 1.13946 0.292735
v -0.207922 1.17733 0.261152
v -0.172198 1.10887 0.391364
v -0.177845 1.11861 0.427662
v -0.276396 1.2125 0.516379
v -0.250396 1.25424 0.384436
v -0.276396 1.25211 0.436379
v -0.30655 1.28077 0.398626
v -0.236329 1.24371 0.320653
v -0.238827 1.22399 0.266032
v -0.279793 1.26074 0.277304
v -0.289166 1.27986 0.337345
v -0.341611 1.2952 0.357171
v -0.327703 1.28479 0.29411
v -0.378908 1.2943 0.31517
v -0.303099 1.18579 0.569786
v -0.330242 1.26338 0.455146
v -0.330242 1.22377 0.535146
v -0.357924 1.18978 0.581374
v -0.369013 1.28899 0.408056
v -0.406646 1.29382 0.36402
v -0.431671 1.27812 0.411804
v -0.396022 1.22238 0.542074
v -0.413745 1.18345 0.581439
v -0.431671 1.23851 0.491803
v -0.452077 1.20878 0.534882
v -0.466311 1.16729 0.569976
v -0.396022 1.26198 0.462074
v -0.369013 1.24939 0.488056
v -0.267363 1.13355 0.58629
v -0.321106 1.14392 0.605857
v -0.289172 1.08928 0.613125
v -0.386886 1.14253 0.612785
v -0.443044 1.12984 0.604793
v -0.414293 1.08663 0.626303
v -0.350741 1.08969 0.629478
v -0.31721 1.04234 0.626021
v -0.382246 1.04096 0.63287
v -0.349343 0.996301 0.623995
v -0.235613 1.08544 0.578848
v -0.265248 1.03121 0.602468
v -0.29772 0.98314 0.606167
v -0.251675 0.97539 0.574929
v -0.2159 1.02556 0.558767
v -0.214714 0.973642 0.532658
v -0.192211 0.956801 0.430623
v -0.208382 0.94299 0.378626
v -0.179072 0.998 0.391781
v -0.171507 1.05646 0.366244
v -0.179072 1.03761 0.311781
v -0.208382 0.982598 0.298626
v -0.236932 0.977255 0.250539
v -0.20566 1.02622 0.25228
v -0.275688 0.980787 0.210024
v -0.242515 1.02604 0.207332
v -0.219122 1.07646 0.2155
v -0.184719 1.08696 0.26808
v -0.207291 1.1282 0.233907
v -0.243027 1.18044 0.217404
v -0.247452 1.12841 0.191886
v -0.287875 1.17697 0.183749
v -0.268393 1.06767 0.176087
v -0.298955 1.01824 0.175208
v -0.327707 1.06144 0.153697
v -0.304538 1.12051 0.159394
v -0.33905 1.16716 0.16275
v -0.359754 1.10711 0.14713
v -0.392657 1.15177 0.156006
v -0.279348 1.22529 0.224378
v -0.336434 1.21739 0.191886
v -0.39129 1.2029 0.179254
v -0.388378 1.24572 0.2155
v -0.332186 1.26143 0.241071
v -0.384143 1.27698 0.261985
v -0.432933 1.28256 0.305193
v -0.43862 1.25918 0.25228
v -0.482243 1.25646 0.298626
v -0.442869 1.21514 0.203096
v -0.44428 1.16493 0.173833
v -0.490325 1.17268 0.205071
v -0.492217 1.22078 0.246798
v -0.523086 1.21798 0.29597
v -0.527286 1.17443 0.247342
v -0.55235 1.17005 0.297427
v -0.461381 1.27621 0.355483
v -0.514977 1.23782 0.35
v -0.549789 1.19127 0.349377
v -0.533618 1.20508 0.401374
v -0.48839 1.24921 0.409501
v -0.452077 1.24839 0.454882
v -0.48839 1.2096 0.489501
v -0.533618 1.16548 0.481374
v -0.505067 1.17082 0.529461
v -0.499485 1.12203 0.572668
v -0.53634 1.12185 0.52772
v -0.522878 1.07161 0.5645
v -0.562927 1.15007 0.388219
v -0.570493 1.13122 0.333756
v -0.562927 1.11047 0.468219
v -0.570493 1.09162 0.413756
v -0.57345 1.04995 0.451322
v -0.557281 1.06112 0.51192
v -0.534709 1.01987 0.546093
v -0.560996 1.00861 0.487265
v -0.534078 0.970744 0.518848
v -0.473607 1.0804 0.603913
v -0.494548 1.01967 0.588114
v -0.498973 0.967629 0.562596
v -0.454125 0.971108 0.596251
v -0.437462 1.02757 0.620606
v -0.40295 0.980914 0.61725
v -0.35071 0.945177 0.600746
v -0.405565 0.930685 0.588114
v -0.353622 0.902355 0.5645
v -0.462652 0.922787 0.555622
v -0.503173 0.924085 0.513968
v -0.462206 0.887333 0.502696
v -0.409814 0.886642 0.538929
v -0.357856 0.871095 0.518015
v -0.414297 0.863286 0.485891
v -0.363092 0.853775 0.46483
v -0.299131 0.932936 0.576904
v -0.30338 0.888893 0.52772
v -0.309067 0.865512 0.474808
v -0.259756 0.891615 0.481374
v -0.249783 0.927289 0.533203
v -0.218914 0.930097 0.48403
v -0.227022 0.910256 0.43
v -0.280619 0.871859 0.424517
v -0.335353 0.854254 0.41598
v -0.310329 0.869955 0.368197
v -0.25361 0.938476 0.290499
v -0.25361 0.898868 0.370499
v -0.289923 0.899684 0.325118
v -0.289923 0.939292 0.245118
v -0.488557 0.976284 0.232443
v -0.474637 1.01452 0.19371
v -0.438901 0.96228 0.210214
v -0.452828 1.05879 0.166875
v -0.420894 1.00415 0.174143
v -0.384076 0.958291 0.198626
v -0.42479 1.10574 0.153979
v -0.391259 1.05838 0.150523
v -0.355114 1.00554 0.167215
v -0.328255 0.96462 0.198561
v -0.523427 1.0201 0.236918
v -0.546693 1.06953 0.25
v -0.506387 1.06264 0.201152
v -0.556586 1.12082 0.270695
v -0.5261 1.12251 0.221233
v -0.476752 1.11687 0.177532
v -0.517844 0.971313 0.280125
v -0.517844 0.931705 0.360125
v -0.535953 0.936061 0.413125
v -0.550089 0.979328 0.368555
v -0.550089 1.01894 0.288556
v -0.541505 0.949413 0.467411
v -0.564155 0.989855 0.432338
v -0.569802 1.07881 0.308637
v -0.57345 1.08956 0.371322
v -0.569802 1.0392 0.388637
v -0.564155 1.02946 0.352338
v -0.465604 0.935577 0.263621
v -0.465604 0.895969 0.343621
v -0.43545 0.867309 0.381374
v -0.491604 0.893834 0.395564
v -0.400389 0.852878 0.422829
v -0.452833 0.868217 0.442655
v -0.505671 0.904362 0.459347
v -0.411757 0.924306 0.244854
v -0.411757 0.884698 0.324854
v -0.345977 0.925698 0.237926
v -0.310329 0.909563 0.288197
v -0.372987 0.85908 0.371944
v -0.345977 0.88609 0.317926
v -0.372987 0.898688 0.291944
f 1 2 3
f 2 4 5
f 6 7 8
f 2 5 3
f 4 9 10
f 9 11 12
f 10 12 13
f 9 12 10
f 8 14 15
f 14 16 17
f 15 17 18
f 14 17 15
f 4 10 5
f 19 16 14
f 7 14 8
f 10 20 5
f 1 3 21
f 6 8 22
f 23 22 24
f 6 22 23
f 8 15 25
f 15 18 26
f 25 26 27
f 15 26 25
f 24 28 29
f 28 27 30
f 29 30 31
f 28 30 29
f 8 25 22
f 25 27 28
f 22 28 24
f 25 28 22
f 1 21 32
f 23 24 33
f 32 34 35
f 21 34 32
f 24 29 36
f 29 31 37
f 36 37 38
f 29 37 36
f 35 39 40
f 39 41 42
f 40 42 43
f 39 42 40
f 24 36 33
f 36 38 44
f 34 39 35
f 45 39 34
f 1 32 46
f 32 35 47
f 46 47 48
f 32 47 46
f 35 40 49
f 40 43 50
f 49 50 51
f 40 50 49
f 48 52 53
f 52 51 54
f 53 54 55
f 52 54 53
f 35 49 47
f 49 51 52
f 47 52 48
f 49 52 47
f 1 46 2
f 46 48 56
f 2 56 4
f 46 56 2
f 48 53 57
f 53 55 58
f 57 58 59
f 53 58 57
f 4 60 9
f 60 59 61
f 9 61 11
f 60 61 9
f 48 57 56
f 57 59 60
f 56 60 4
f 57 60 56
f 11 62 12
f 62 63 64
f 65 66 16
f 62 64 12
f 67 68 69
f 68 70 71
f 69 71 72
f 68 71 69
f 16 73 17
f 73 72 74
f 17 74 18
f 73 74 17
f 67 69 66
f 69 72 73
f 66 73 16
f 69 73 66
f 18 74 75
f 74 72 76
f 75 76 77
f 74 76 75
f 72 71 78
f 71 70 79
f 78 79 80
f 71 79 78
f 77 81 82
f 81 80 83
f 82 83 84
f 81 83 82
f 72 78 76
f 78 80 81
f 76 81 77
f 78 81 76
f 18 75 26
f 75 77 85
f 26 85 27
f 75 85 26
f 77 82 86
f 82 84 87
f 86 87 88
f 82 87 86
f 27 89 30
f 89 88 90
f 30 90 31
f 89 90 30
f 77 86 85
f 86 88 89
f 85 89 27
f 86 89 85
f 31 90 91
f 90 88 92
f 91 92 93
f 90 92 91
f 88 87 94
f 87 84 95
f 94 95 96
f 87 95 94
f 93 97 98
f 97 96 99
f 98 99 100
f 97 99 98
f 88 94 92
f 94 96 97
f 92 97 93
f 94 97 92
f 31 91 37
f 91 93 101
f 37 101 38
f 91 101 37
f 93 98 102
f 98 100 103
f 102 103 104
f 98 103 102
f 38 105 106
f 107 108 109
f 42 109 43
f 107 109 42
f 93 102 101
f 102 104 105
f 101 105 38
f 102 105 101
f 43 109 110
f 109 108 111
f 110 111 112
f 109 111 110
f 104 103 113
f 103 100 114
f 115 116 117
f 103 114 113
f 112 118 119
f 118 117 120
f 119 120 121
f 118 120 119
f 108 115 111
f 115 117 118
f 111 118 112
f 115 118 111
f 43 110 50
f 110 112 122
f 50 122 51
f 110 122 50
f 112 119 123
f 119 121 124
f 123 124 125
f 119 124 123
f 51 126 54
f 126 125 127
f 54 127 55
f 126 127 54
f 112 123 122
f 123 125 126
f 122 126 51
f 123 126 122
f 55 127 128
f 127 125 129
f 128 129 130
f 127 129 128
f 125 124 131
f 124 121 132
f 131 132 133
f 124 132 131
f 130 134 135
f 134 133 136
f 135 136 137
f 134 136 135
f 125 131 129
f 131 133 134
f 129 134 130
f 131 134 129
f 55 128 58
f 128 130 138
f 58 138 59
f 128 138 58
f 130 135 139
f 135 137 140
f 139 140 141
f 135 140 139
f 59 142 61
f 142 141 143
f 61 143 11
f 142 143 61
f 130 139 138
f 139 141 142
f 138 142 59
f 139 142 138
f 11 143 62
f 143 141 144
f 62 144 63
f 143 144 62
f 141 140 145
f 140 137 146
f 145 146 147
f 140 146 145
f 67 148 68
f 149 147 150
f 68 151 70
f 148 151 68
f 141 145 144
f 145 147 149
f 144 149 63
f 145 149 144
f 152 153 154
f 153 155 156
f 154 156 157
f 153 156 154
f 155 158 159
f 158 84 83
f 159 83 80
f 158 83 159
f 157 160 161
f 160 80 79
f 161 79 70
f 160 79 161
f 155 159 156
f 159 80 160
f 156 160 157
f 159 160 156
f 152 162 153
f 162 163 164
f 153 164 155
f 162 164 153
f 163 165 166
f 165 100 99
f 166 99 96
f 165 99 166
f 155 167 158
f 167 96 95
f 158 95 84
f 167 95 158
f 163 166 164
f 166 96 167
f 164 167 155
f 166 167 164
f 152 168 162
f 169 170 171
f 162 172 163
f 168 172 162
f 170 173 174
f 173 121 120
f 174 120 117
f 173 120 174
f 163 175 165
f 175 176 114
f 165 114 100
f 175 114 165
f 170 174 171
f 174 117 177
f 172 175 163
f 178 175 172
f 152 179 168
f 180 181 182
f 169 182 170
f 180 182 169
f 181 183 184
f 183 137 136
f 184 136 133
f 183 136 184
f 170 185 173
f 185 133 132
f 173 132 121
f 185 132 173
f 181 184 182
f 184 133 185
f 182 185 170
f 184 185 182
f 152 154 179
f 154 157 186
f 180 187 181
f 154 186 179
f 157 161 188
f 161 70 151
f 188 151 189
f 161 151 188
f 181 190 183
f 190 147 146
f 183 146 137
f 190 146 183
f 157 188 186
f 191 147 190
f 187 190 181
f 188 192 186
f 5 7 3
f 3 7 6
f 12 65 13
f 13 65 16
f 13 16 10
f 10 16 19
f 10 19 20
f 20 19 14
f 20 14 5
f 5 14 7
f 3 6 21
f 21 6 23
f 21 23 34
f 34 23 33
f 39 44 41
f 41 44 38
f 41 38 42
f 42 38 106
f 45 36 39
f 39 36 44
f 34 33 45
f 45 33 36
f 63 67 64
f 64 67 66
f 64 66 12
f 12 66 65
f 107 105 108
f 108 105 104
f 42 106 107
f 107 106 105
f 115 113 116
f 116 113 114
f 116 114 117
f 117 114 176
f 108 104 115
f 115 104 113
f 147 189 150
f 150 189 151
f 150 151 149
f 149 151 148
f 149 148 63
f 63 148 67
f 171 172 169
f 169 172 168
f 174 178 171
f 171 178 172
f 117 176 177
f 177 176 175
f 177 175 174
f 174 175 178
f 169 168 180
f 180 168 179
f 180 179 187
f 187 179 186
f 191 188 147
f 147 188 189
f 190 192 191
f 191 192 188
f 187 186 190
f 190 186 192
