v 0.826557 1.13504 0.867557
v 0.861427 1.09122 0.863083
v 0.855844 1.14001 0.819876
v 0.884694 1.04179 0.85
v 0.888089 1.09239 0.811445
v 0.873953 1.13565 0.766875
v 0.894586 0.990505 0.829305
v 0.907802 1.03251 0.791364
v 0.890351 0.941276 0.802573
v 0.908493 0.980096 0.766244
v 0.91145 1.02176 0.728678
v 0.902156 1.08186 0.747662
v 0.879506 1.1223 0.712589
v 0.902156 1.07865 0.707662
v 0.91145 1.01855 0.688678
v 0.898996 1.05989 0.652735
v 0.879506 1.11909 0.672589
v 0.872078 1.09776 0.621152
v 0.803604 1.17574 0.836379
v 0.829605 1.17788 0.784436
v 0.77345 1.2044 0.798626
v 0.873953 1.13244 0.726875
v 0.843671 1.16414 0.680653
v 0.841173 1.14442 0.626032
v 0.800207 1.18117 0.637304
v 0.790834 1.2035 0.737345
v 0.73839 1.21884 0.757171
v 0.790834 1.20029 0.697345
v 0.752297 1.20522 0.65411
v 0.73839 1.21563 0.717171
v 0.701092 1.21473 0.67517
v 0.843671 1.16735 0.720653
v 0.776901 1.14904 0.889786
v 0.749758 1.18702 0.855146
v 0.722076 1.15303 0.901374
v 0.710987 1.21263 0.808056
v 0.701092 1.21794 0.71517
v 0.673354 1.21746 0.76402
v 0.648329 1.20176 0.811804
v 0.683978 1.18562 0.862074
v 0.666255 1.1467 0.901439
v 0.627923 1.17203 0.854882
v 0.613689 1.13053 0.889977
v 0.812637 1.0968 0.90629
v 0.758894 1.10717 0.925857
v 0.790828 1.05253 0.933125
v 0.693114 1.10578 0.932785
v 0.636956 1.09309 0.924793
v 0.665707 1.04988 0.946303
v 0.729259 1.05294 0.949478
v 0.76279 1.00558 0.946021
v 0.697754 1.00421 0.95287
v 0.730657 0.959548 0.943995
v 0.844387 1.04868 0.898848
v 0.814752 0.994455 0.922468
v 0.78228 0.946387 0.926167
v 0.828325 0.938637 0.894929
v 0.8641 0.988809 0.878767
v 0.865286 0.936889 0.852658
v 0.887789 0.920048 0.750623
v 0.887789 0.916839 0.710623
v 0.871618 0.903028 0.658626
v 0.900928 0.958039 0.671781
v 0.908493 0.976888 0.726244
v 0.843068 0.897685 0.610539
v 0.87434 0.946651 0.61228
v 0.804312 0.901217 0.570024
v 0.837485 0.946475 0.567332
v 0.860878 0.996894 0.5755
v 0.895281 1.00739 0.62808
v 0.872709 1.04864 0.593907
v 0.836973 1.10088 0.577404
v 0.832549 1.04884 0.551886
v 0.792126 1.0974 0.543749
v 0.811608 0.988102 0.536087
v 0.781045 0.938666 0.535208
v 0.752293 0.981871 0.513697
v 0.775462 1.04094 0.519394
v 0.740951 1.08759 0.52275
v 0.720246 1.02754 0.50713
v 0.687343 1.0722 0.516006
v 0.800652 1.14572 0.584378
v 0.743566 1.13782 0.551886
v 0.688711 1.12333 0.539254
v 0.691622 1.16615 0.5755
v 0.747814 1.18186 0.601071
v 0.695857 1.19741 0.621985
v 0.647067 1.20299 0.665192
v 0.64138 1.17961 0.61228
v 0.597757 1.17689 0.658626
v 0.637131 1.13557 0.563096
v 0.63572 1.08537 0.533833
v 0.589675 1.09311 0.565071
v 0.587783 1.14122 0.606798
v 0.556915 1.13841 0.65597
v 0.552714 1.09486 0.607342
v 0.52765 1.09048 0.657427
v 0.673354 1.21425 0.72402
v 0.618619 1.19665 0.715483
v 0.618619 1.19985 0.755483
v 0.647067 1.2062 0.705192
v 0.565023 1.15825 0.71
v 0.530211 1.1117 0.709377
v 0.565023 1.16146 0.75
v 0.530211 1.11491 0.749377
v 0.546382 1.12872 0.801374
v 0.59161 1.17285 0.809501
v 0.574933 1.13407 0.849461
v 0.580515 1.08528 0.892668
v 0.54366 1.0851 0.84772
v 0.557123 1.03486 0.8845
v 0.517073 1.07371 0.788219
v 0.509507 1.05166 0.693756
v 0.509507 1.05486 0.733756
v 0.50655 1.0132 0.771322
v 0.522719 1.02437 0.83192
v 0.545291 0.983117 0.866093
v 0.519005 0.971858 0.807265
v 0.545922 0.933991 0.838848
v 0.606393 1.04365 0.923913
v 0.585452 0.982915 0.908114
v 0.581028 0.930877 0.882596
v 0.625875 0.934355 0.916251
v 0.642538 0.990812 0.940606
v 0.67705 0.944161 0.93725
v 0.72929 0.908425 0.920746
v 0.674435 0.893932 0.908114
v 0.726378 0.865603 0.8845
v 0.617348 0.886034 0.875622
v 0.576827 0.887332 0.833968
v 0.617794 0.85058 0.822696
v 0.670186 0.849889 0.85893
v 0.722144 0.834342 0.838015
v 0.665703 0.826534 0.805891
v 0.716909 0.817022 0.78483
v 0.780869 0.896183 0.896904
v 0.776621 0.85214 0.84772
v 0.770933 0.828759 0.794808
v 0.820244 0.854862 0.801374
v 0.830217 0.890537 0.853203
v 0.861086 0.893344 0.80403
v 0.852978 0.873503 0.75
v 0.852978 0.870294 0.71
v 0.799381 0.835106 0.744517
v 0.744647 0.817501 0.73598
v 0.799381 0.831898 0.704517
v 0.744647 0.814292 0.69598
v 0.769671 0.829994 0.648197
v 0.770933 0.825551 0.754808
v 0.82639 0.858907 0.650499
v 0.790077 0.859723 0.605118
v 0.591443 0.896714 0.592443
v 0.605363 0.934951 0.55371
v 0.641099 0.882711 0.570214
v 0.627172 0.979225 0.526875
v 0.659106 0.924583 0.534143
v 0.695925 0.878721 0.558626
v 0.65521 1.02617 0.513979
v 0.688741 0.978813 0.510523
v 0.724886 0.925975 0.527215
v 0.751745 0.885051 0.558561
v 0.556573 0.940533 0.596918
v 0.533307 0.989965 0.61
v 0.573613 0.983068 0.561152
v 0.523415 1.04125 0.630695
v 0.5539 1.04294 0.581233
v 0.603248 1.0373 0.537532
v 0.562156 0.891743 0.640125
v 0.544047 0.896099 0.693126
v 0.529912 0.939366 0.648556
v 0.538495 0.909451 0.747411
v 0.515845 0.949893 0.712338
v 0.538495 0.91266 0.787411
v 0.515845 0.953102 0.752338
v 0.510198 0.999241 0.668637
v 0.50655 1.00999 0.731322
v 0.614396 0.856007 0.623621
v 0.64455 0.827347 0.661374
v 0.588396 0.853873 0.675565
v 0.679611 0.812917 0.702829
v 0.627167 0.828255 0.722655
v 0.679611 0.816125 0.742829
v 0.627167 0.831464 0.762655
v 0.544047 0.899308 0.733126
v 0.574329 0.867609 0.779347
v 0.574329 0.8644 0.739347
v 0.668243 0.844737 0.604854
v 0.734023 0.846128 0.597926
v 0.707014 0.819119 0.651944
v 0.716909 0.813814 0.74483
f 1 2 3
f 2 4 5
f 3 5 6
f 2 5 3
f 4 7 8
f 7 9 10
f 8 10 11
f 7 10 8
f 6 12 13
f 14 15 16
f 17 16 18
f 14 16 17
f 4 8 5
f 8 11 12
f 5 12 6
f 8 12 5
f 1 3 19
f 3 6 20
f 19 20 21
f 3 20 19
f 22 17 23
f 17 18 24
f 23 24 25
f 17 24 23
f 21 26 27
f 28 25 29
f 30 29 31
f 28 29 30
f 6 32 20
f 23 25 28
f 20 26 21
f 32 26 20
f 1 19 33
f 19 21 34
f 33 34 35
f 19 34 33
f 21 27 36
f 27 37 38
f 36 38 39
f 27 38 36
f 35 40 41
f 40 39 42
f 41 42 43
f 40 42 41
f 21 36 34
f 36 39 40
f 34 40 35
f 36 40 34
f 1 33 44
f 33 35 45
f 44 45 46
f 33 45 44
f 35 41 47
f 41 43 48
f 47 48 49
f 41 48 47
f 46 50 51
f 50 49 52
f 51 52 53
f 50 52 51
f 35 47 45
f 47 49 50
f 45 50 46
f 47 50 45
f 1 44 2
f 44 46 54
f 2 54 4
f 44 54 2
f 46 51 55
f 51 53 56
f 55 56 57
f 51 56 55
f 4 58 7
f 58 57 59
f 7 59 9
f 58 59 7
f 46 55 54
f 55 57 58
f 54 58 4
f 55 58 54
f 9 60 10
f 61 62 63
f 64 63 15
f 61 63 64
f 62 65 66
f 65 67 68
f 66 68 69
f 65 68 66
f 15 70 16
f 70 69 71
f 16 71 18
f 70 71 16
f 62 66 63
f 66 69 70
f 63 70 15
f 66 70 63
f 18 71 72
f 71 69 73
f 72 73 74
f 71 73 72
f 69 68 75
f 68 67 76
f 75 76 77
f 68 76 75
f 74 78 79
f 78 77 80
f 79 80 81
f 78 80 79
f 69 75 73
f 75 77 78
f 73 78 74
f 75 78 73
f 18 72 24
f 72 74 82
f 24 82 25
f 72 82 24
f 74 79 83
f 79 81 84
f 83 84 85
f 79 84 83
f 25 86 29
f 86 85 87
f 29 87 31
f 86 87 29
f 74 83 82
f 83 85 86
f 82 86 25
f 83 86 82
f 31 87 88
f 87 85 89
f 88 89 90
f 87 89 88
f 85 84 91
f 84 81 92
f 91 92 93
f 84 92 91
f 90 94 95
f 94 93 96
f 95 96 97
f 94 96 95
f 85 91 89
f 91 93 94
f 89 94 90
f 91 94 89
f 31 88 98
f 88 90 99
f 38 100 39
f 101 100 38
f 90 95 102
f 95 97 103
f 104 105 106
f 95 103 102
f 39 107 42
f 107 106 108
f 42 108 43
f 107 108 42
f 90 102 99
f 104 106 107
f 100 107 39
f 104 107 100
f 43 108 109
f 108 106 110
f 109 110 111
f 108 110 109
f 106 105 112
f 103 97 113
f 112 114 115
f 105 114 112
f 111 116 117
f 116 115 118
f 117 118 119
f 116 118 117
f 106 112 110
f 112 115 116
f 110 116 111
f 112 116 110
f 43 109 48
f 109 111 120
f 48 120 49
f 109 120 48
f 111 117 121
f 117 119 122
f 121 122 123
f 117 122 121
f 49 124 52
f 124 123 125
f 52 125 53
f 124 125 52
f 111 121 120
f 121 123 124
f 120 124 49
f 121 124 120
f 53 125 126
f 125 123 127
f 126 127 128
f 125 127 126
f 123 122 129
f 122 119 130
f 129 130 131
f 122 130 129
f 128 132 133
f 132 131 134
f 133 134 135
f 132 134 133
f 123 129 127
f 129 131 132
f 127 132 128
f 129 132 127
f 53 126 56
f 126 128 136
f 56 136 57
f 126 136 56
f 128 133 137
f 133 135 138
f 137 138 139
f 133 138 137
f 57 140 59
f 140 139 141
f 59 141 9
f 140 141 59
f 128 137 136
f 137 139 140
f 136 140 57
f 137 140 136
f 9 141 60
f 141 139 142
f 61 143 62
f 141 142 60
f 139 138 144
f 138 135 145
f 146 147 148
f 149 147 146
f 62 150 65
f 150 148 151
f 65 151 67
f 150 151 65
f 139 144 142
f 146 148 150
f 143 150 62
f 146 150 143
f 152 153 154
f 153 155 156
f 154 156 157
f 153 156 154
f 155 158 159
f 158 81 80
f 159 80 77
f 158 80 159
f 157 160 161
f 160 77 76
f 161 76 67
f 160 76 161
f 155 159 156
f 159 77 160
f 156 160 157
f 159 160 156
f 152 162 153
f 162 163 164
f 153 164 155
f 162 164 153
f 163 165 166
f 165 97 96
f 166 96 93
f 165 96 166
f 155 167 158
f 167 93 92
f 158 92 81
f 167 92 158
f 163 166 164
f 166 93 167
f 164 167 155
f 166 167 164
f 152 168 162
f 168 169 170
f 162 170 163
f 168 170 162
f 169 171 172
f 173 119 118
f 174 118 115
f 173 118 174
f 163 175 165
f 175 176 113
f 165 113 97
f 175 113 165
f 169 172 170
f 172 176 175
f 170 175 163
f 172 175 170
f 152 177 168
f 177 178 179
f 168 179 169
f 177 179 168
f 178 180 181
f 182 135 134
f 183 134 131
f 182 134 183
f 184 185 173
f 185 131 130
f 173 130 119
f 185 130 173
f 178 181 179
f 183 131 185
f 179 186 169
f 181 186 179
f 152 154 177
f 154 157 187
f 177 187 178
f 154 187 177
f 157 161 188
f 161 67 151
f 188 151 148
f 161 151 188
f 178 189 180
f 189 148 147
f 180 147 190
f 189 147 180
f 157 188 187
f 188 148 189
f 187 189 178
f 188 189 187
f 14 12 15
f 15 12 11
f 17 13 14
f 14 13 12
f 22 6 17
f 17 6 13
f 23 32 22
f 22 32 6
f 31 37 30
f 30 37 27
f 30 27 28
f 28 27 26
f 28 26 23
f 23 26 32
f 15 11 64
f 64 11 10
f 64 10 61
f 61 10 60
f 88 101 98
f 98 101 38
f 98 38 31
f 31 38 37
f 99 100 88
f 88 100 101
f 103 105 102
f 102 105 104
f 102 104 99
f 99 104 100
f 113 114 103
f 103 114 105
f 61 60 143
f 143 60 142
f 149 138 147
f 147 138 145
f 146 144 149
f 149 144 138
f 143 142 146
f 146 142 144
f 169 184 171
f 171 184 173
f 171 173 172
f 172 173 174
f 176 115 113
f 113 115 114
f 172 174 176
f 176 174 115
f 180 182 181
f 181 182 183
f 186 185 169
f 169 185 184
f 181 183 186
f 186 183 185
f 147 145 190
f 190 145 135
f 190 135 180
f 180 135 182
