v -0.253443 1.2114 0.467557
v -0.218573 1.16758 0.463083
v -0.224156 1.21637 0.419876
v -0.195307 1.11815 0.45
v -0.191911 1.16875 0.411445
v -0.206047 1.21201 0.366875
v -0.185414 1.06687 0.429305
v -0.172198 1.10887 0.391364
v -0.189649 1.01764 0.402573
v -0.171507 1.05646 0.366244
v -0.16855 1.09812 0.328678
v -0.206047 1.22233 0.326875
v -0.177845 1.16853 0.307662
v -0.200494 1.20898 0.272589
v -0.16855 1.10844 0.288678
v -0.181004 1.14978 0.252735
v -0.207922 1.18765 0.221152
v -0.172198 1.11919 0.351364
v -0.177845 1.15822 0.347662
v -0.276396 1.25211 0.436379
v -0.250396 1.25424 0.384436
v -0.30655 1.28077 0.398626
v -0.236329 1.25403 0.280653
v -0.238827 1.2343 0.226032
v -0.279793 1.27106 0.237304
v -0.30655 1.29108 0.358626
v -0.289166 1.29017 0.297345
v -0.341611 1.30551 0.317171
v -0.327703 1.2951 0.25411
v -0.378908 1.30461 0.27517
v -0.250396 1.26455 0.344436
v -0.303099 1.2254 0.489786
v -0.330242 1.26338 0.455146
v -0.357924 1.22939 0.501374
v -0.369013 1.29931 0.368056
v -0.406646 1.30414 0.32402
v -0.431671 1.28843 0.371803
v -0.396022 1.26198 0.462074
v -0.413745 1.22306 0.50144
v -0.431671 1.27812 0.411804
v -0.452077 1.24839 0.454882
v -0.466311 1.2069 0.489976
v -0.369013 1.28899 0.408056
v -0.267363 1.17316 0.50629
v -0.321106 1.18353 0.525857
v -0.289172 1.12889 0.533126
v -0.386886 1.18214 0.532785
v -0.443044 1.16945 0.524793
v -0.414293 1.12624 0.546303
v -0.350741 1.1293 0.549478
v -0.31721 1.08195 0.546021
v -0.382246 1.08057 0.552871
v -0.349343 1.03591 0.543995
v -0.235613 1.12504 0.498848
v -0.265248 1.07082 0.522468
v -0.29772 1.02275 0.526167
v -0.251675 1.015 0.494929
v -0.2159 1.06517 0.478767
v -0.214714 1.01325 0.452658
v -0.192211 0.996409 0.350623
v -0.192211 1.00672 0.310623
v -0.208382 0.992912 0.258626
v -0.179072 1.04792 0.271781
v -0.171507 1.06677 0.326244
v -0.179072 1.03761 0.311781
v -0.236932 0.987569 0.210539
v -0.20566 1.03654 0.21228
v -0.275688 0.991101 0.170024
v -0.242515 1.03636 0.167332
v -0.219122 1.08678 0.1755
v -0.184719 1.09727 0.22808
v -0.207291 1.13852 0.193907
v -0.243027 1.19076 0.177404
v -0.247452 1.13872 0.151886
v -0.287875 1.18728 0.143749
v -0.268393 1.07799 0.136087
v -0.298955 1.02855 0.135207
v -0.327707 1.07176 0.113697
v -0.304538 1.13082 0.119394
v -0.33905 1.17748 0.12275
v -0.359754 1.11743 0.10713
v -0.392657 1.16209 0.116006
v -0.279348 1.2356 0.184378
v -0.336434 1.2277 0.151886
v -0.39129 1.21321 0.139254
v -0.388378 1.25603 0.1755
v -0.332186 1.27175 0.201071
v -0.384143 1.28729 0.221985
v -0.432933 1.29288 0.265192
v -0.43862 1.2695 0.21228
v -0.482243 1.26677 0.258626
v -0.442869 1.22545 0.163096
v -0.44428 1.17525 0.133833
v -0.490325 1.183 0.165071
v -0.492217 1.2311 0.206797
v -0.523086 1.22829 0.25597
v -0.527286 1.18475 0.207342
v -0.55235 1.18036 0.257427
v -0.461381 1.28653 0.315483
v -0.514977 1.24813 0.31
v -0.549789 1.20159 0.309377
v -0.533618 1.2154 0.361374
v -0.48839 1.24921 0.409501
v -0.533618 1.20508 0.401374
v -0.505067 1.21043 0.449461
v -0.514977 1.23782 0.35
v -0.48839 1.25952 0.369501
v -0.499485 1.16164 0.492668
v -0.53634 1.16146 0.44772
v -0.522878 1.11122 0.4845
v -0.549789 1.19127 0.349377
v -0.562927 1.15007 0.388219
v -0.570493 1.14154 0.293756
v -0.570493 1.13122 0.333756
v -0.57345 1.08956 0.371322
v -0.562927 1.16039 0.348219
v -0.557281 1.10073 0.43192
v -0.534709 1.05948 0.466093
v -0.560996 1.04822 0.407265
v -0.534078 1.01035 0.438848
v -0.473607 1.12001 0.523914
v -0.494548 1.05928 0.508114
v -0.498973 1.00724 0.482596
v -0.454125 1.01072 0.516251
v -0.437462 1.06717 0.540606
v -0.40295 1.02052 0.53725
v -0.35071 0.984785 0.520746
v -0.405565 0.970293 0.508114
v -0.353622 0.941963 0.4845
v -0.462652 0.962395 0.475622
v -0.503173 0.963693 0.433968
v -0.462206 0.926941 0.422696
v -0.409814 0.92625 0.45893
v -0.357856 0.910703 0.438015
v -0.414297 0.902894 0.405891
v -0.363092 0.893383 0.38483
v -0.299131 0.972544 0.496904
v -0.30338 0.928501 0.44772
v -0.309067 0.90512 0.394808
v -0.259756 0.931223 0.401374
v -0.249783 0.966897 0.453203
v -0.218914 0.969705 0.40403
v -0.227022 0.949864 0.35
v -0.208382 0.982598 0.298626
v -0.280619 0.911467 0.344517
v -0.335353 0.893862 0.33598
v -0.310329 0.909563 0.288197
v -0.25361 0.948791 0.250499
v -0.310329 0.919878 0.248197
v -0.289923 0.949607 0.205118
v -0.25361 0.938476 0.290499
v -0.227022 0.960178 0.31
v -0.488557 0.986599 0.192443
v -0.474637 1.02483 0.15371
v -0.438901 0.972595 0.170214
v -0.452828 1.06911 0.126875
v -0.420894 1.01447 0.134143
v -0.384076 0.968606 0.158626
v -0.42479 1.11605 0.113979
v -0.391259 1.0687 0.110523
v -0.355114 1.01586 0.127215
v -0.328255 0.974935 0.158561
v -0.523427 1.03042 0.196917
v -0.546693 1.07985 0.21
v -0.506387 1.07295 0.161152
v -0.556586 1.13113 0.230695
v -0.5261 1.13283 0.181233
v -0.476752 1.12718 0.137532
v -0.517844 0.981628 0.240125
v -0.535953 0.985984 0.293125
v -0.550089 1.02925 0.248555
v -0.535953 0.975669 0.333126
v -0.541505 0.989021 0.387411
v -0.564155 1.02946 0.352338
v -0.569802 1.08913 0.268637
v -0.57345 1.09987 0.331322
v -0.564155 1.03978 0.312338
v -0.569802 1.07881 0.308637
v -0.465604 0.945891 0.223621
v -0.43545 0.917231 0.261374
v -0.491604 0.943757 0.275564
v -0.43545 0.906917 0.301374
v -0.400389 0.892486 0.342829
v -0.452833 0.907825 0.362655
v -0.505671 0.94397 0.379347
v -0.491604 0.933442 0.315565
v -0.411757 0.934621 0.204854
v -0.345977 0.936012 0.197926
v -0.372987 0.898688 0.291944
v -0.372987 0.909003 0.251944
f 1 2 3
f 2 4 5
f 3 5 6
f 2 5 3
f 4 7 8
f 7 9 10
f 8 10 11
f 7 10 8
f 12 13 14
f 13 15 16
f 14 16 17
f 13 16 14
f 4 8 5
f 18 15 13
f 5 19 6
f 8 19 5
f 1 3 20
f 3 6 21
f 20 21 22
f 3 21 20
f 12 14 23
f 14 17 24
f 23 24 25
f 14 24 23
f 26 27 28
f 27 25 29
f 28 29 30
f 27 29 28
f 12 23 31
f 23 25 27
f 31 27 26
f 23 27 31
f 1 20 32
f 20 22 33
f 32 33 34
f 20 33 32
f 26 28 35
f 28 30 36
f 35 36 37
f 28 36 35
f 34 38 39
f 38 40 41
f 39 41 42
f 38 41 39
f 22 43 33
f 43 40 38
f 33 38 34
f 43 38 33
f 1 32 44
f 32 34 45
f 44 45 46
f 32 45 44
f 34 39 47
f 39 42 48
f 47 48 49
f 39 48 47
f 46 50 51
f 50 49 52
f 51 52 53
f 50 52 51
f 34 47 45
f 47 49 50
f 45 50 46
f 47 50 45
f 1 44 2
f 44 46 54
f 2 54 4
f 44 54 2
f 46 51 55
f 51 53 56
f 55 56 57
f 51 56 55
f 4 58 7
f 58 57 59
f 7 59 9
f 58 59 7
f 46 55 54
f 55 57 58
f 54 58 4
f 55 58 54
f 9 60 10
f 61 62 63
f 64 63 15
f 60 65 10
f 62 66 67
f 66 68 69
f 67 69 70
f 66 69 67
f 15 71 16
f 71 70 72
f 16 72 17
f 71 72 16
f 62 67 63
f 67 70 71
f 63 71 15
f 67 71 63
f 17 72 73
f 72 70 74
f 73 74 75
f 72 74 73
f 70 69 76
f 69 68 77
f 76 77 78
f 69 77 76
f 75 79 80
f 79 78 81
f 80 81 82
f 79 81 80
f 70 76 74
f 76 78 79
f 74 79 75
f 76 79 74
f 17 73 24
f 73 75 83
f 24 83 25
f 73 83 24
f 75 80 84
f 80 82 85
f 84 85 86
f 80 85 84
f 25 87 29
f 87 86 88
f 29 88 30
f 87 88 29
f 75 84 83
f 84 86 87
f 83 87 25
f 84 87 83
f 30 88 89
f 88 86 90
f 89 90 91
f 88 90 89
f 86 85 92
f 85 82 93
f 92 93 94
f 85 93 92
f 91 95 96
f 95 94 97
f 96 97 98
f 95 97 96
f 86 92 90
f 92 94 95
f 90 95 91
f 92 95 90
f 30 89 36
f 89 91 99
f 36 99 37
f 89 99 36
f 91 96 100
f 96 98 101
f 100 101 102
f 96 101 100
f 40 103 41
f 103 104 105
f 41 105 42
f 103 105 41
f 91 100 99
f 106 104 103
f 99 107 37
f 100 107 99
f 42 105 108
f 105 104 109
f 108 109 110
f 105 109 108
f 104 111 112
f 101 98 113
f 112 114 115
f 101 113 116
f 110 117 118
f 117 115 119
f 118 119 120
f 117 119 118
f 104 112 109
f 112 115 117
f 109 117 110
f 112 117 109
f 42 108 48
f 108 110 121
f 48 121 49
f 108 121 48
f 110 118 122
f 118 120 123
f 122 123 124
f 118 123 122
f 49 125 52
f 125 124 126
f 52 126 53
f 125 126 52
f 110 122 121
f 122 124 125
f 121 125 49
f 122 125 121
f 53 126 127
f 126 124 128
f 127 128 129
f 126 128 127
f 124 123 130
f 123 120 131
f 130 131 132
f 123 131 130
f 129 133 134
f 133 132 135
f 134 135 136
f 133 135 134
f 124 130 128
f 130 132 133
f 128 133 129
f 130 133 128
f 53 127 56
f 127 129 137
f 56 137 57
f 127 137 56
f 129 134 138
f 134 136 139
f 138 139 140
f 134 139 138
f 57 141 59
f 141 140 142
f 59 142 9
f 141 142 59
f 129 138 137
f 138 140 141
f 137 141 57
f 138 141 137
f 9 142 60
f 142 140 143
f 60 143 144
f 142 143 60
f 140 139 145
f 139 136 146
f 145 146 147
f 139 146 145
f 62 148 66
f 148 149 150
f 66 150 68
f 148 150 66
f 140 145 143
f 145 147 151
f 152 148 62
f 145 151 143
f 153 154 155
f 154 156 157
f 155 157 158
f 154 157 155
f 156 159 160
f 159 82 81
f 160 81 78
f 159 81 160
f 158 161 162
f 161 78 77
f 162 77 68
f 161 77 162
f 156 160 157
f 160 78 161
f 157 161 158
f 160 161 157
f 153 163 154
f 163 164 165
f 154 165 156
f 163 165 154
f 164 166 167
f 166 98 97
f 167 97 94
f 166 97 167
f 156 168 159
f 168 94 93
f 159 93 82
f 168 93 159
f 164 167 165
f 167 94 168
f 165 168 156
f 167 168 165
f 153 169 163
f 169 170 171
f 163 171 164
f 169 171 163
f 172 173 174
f 173 120 119
f 174 119 115
f 173 119 174
f 164 175 166
f 175 176 113
f 166 113 98
f 175 113 166
f 170 177 171
f 174 115 178
f 171 175 164
f 177 175 171
f 153 179 169
f 179 180 181
f 169 181 170
f 179 181 169
f 182 183 184
f 183 136 135
f 184 135 132
f 183 135 184
f 172 185 173
f 185 132 131
f 173 131 120
f 185 131 173
f 182 184 186
f 184 132 185
f 186 185 172
f 184 185 186
f 153 155 179
f 155 158 187
f 179 187 180
f 155 187 179
f 158 162 188
f 162 68 150
f 188 150 149
f 162 150 188
f 182 189 183
f 189 147 146
f 183 146 136
f 189 146 183
f 158 188 187
f 188 149 190
f 187 190 180
f 188 190 187
f 10 64 11
f 11 64 15
f 11 15 8
f 8 15 18
f 19 13 6
f 6 13 12
f 8 18 19
f 19 18 13
f 6 12 21
f 21 12 31
f 21 31 22
f 22 31 26
f 22 26 43
f 43 26 35
f 43 35 40
f 40 35 37
f 60 61 65
f 65 61 63
f 65 63 10
f 10 63 64
f 40 37 103
f 103 37 107
f 106 100 104
f 104 100 102
f 103 107 106
f 106 107 100
f 104 102 111
f 111 102 101
f 111 101 112
f 112 101 116
f 112 116 114
f 114 116 113
f 114 113 115
f 115 113 176
f 143 152 144
f 144 152 62
f 144 62 60
f 60 62 61
f 147 149 151
f 151 149 148
f 151 148 143
f 143 148 152
f 174 177 172
f 172 177 170
f 115 176 178
f 178 176 175
f 178 175 174
f 174 175 177
f 186 181 182
f 182 181 180
f 172 170 186
f 186 170 181
f 182 180 189
f 189 180 190
f 189 190 147
f 147 190 149
