v -0.253443 1.22171 0.427557
v -0.218573 1.17789 0.423083
v -0.224156 1.22668 0.379875
v -0.195307 1.12846 0.41
v -0.191911 1.17906 0.371445
v -0.206047 1.22233 0.326875
v -0.185414 1.07718 0.389305
v -0.172198 1.11919 0.351364
v -0.189649 1.02795 0.362573
v -0.171507 1.06677 0.326244
v -0.16855 1.10844 0.288678
v -0.206047 1.23615 0.246875
v -0.177845 1.18235 0.227662
v -0.200494 1.22279 0.192589
v -0.16855 1.12226 0.208678
v -0.181004 1.1636 0.172735
v -0.207922 1.20146 0.141152
v -0.177845 1.16853 0.307662
v -0.276396 1.26242 0.396379
v -0.250396 1.26455 0.344436
v -0.30655 1.29108 0.358626
v -0.236329 1.26785 0.200653
v -0.238827 1.24812 0.146032
v -0.279793 1.28487 0.157304
v -0.30655 1.3049 0.278626
v -0.289166 1.30399 0.217345
v -0.341611 1.31933 0.237171
v -0.327703 1.30892 0.17411
v -0.378908 1.31843 0.19517
v -0.250396 1.27837 0.264436
v -0.303099 1.23572 0.449786
v -0.330242 1.27369 0.415146
v -0.357924 1.23971 0.461374
v -0.341611 1.30551 0.317171
v -0.369013 1.29931 0.368056
v -0.406646 1.31795 0.24402
v -0.406646 1.30414 0.32402
v -0.431671 1.28843 0.371803
v -0.369013 1.31313 0.288056
v -0.396022 1.2723 0.422074
v -0.413745 1.23338 0.461439
v -0.452077 1.2587 0.414882
v -0.466311 1.21721 0.449976
v -0.267363 1.18348 0.46629
v -0.321106 1.19384 0.485857
v -0.289172 1.1392 0.493125
v -0.386886 1.19245 0.492785
v -0.443044 1.17976 0.484793
v -0.414293 1.13656 0.506303
v -0.350741 1.13961 0.509477
v -0.31721 1.09226 0.506021
v -0.382246 1.09088 0.51287
v -0.349343 1.04622 0.503995
v -0.235613 1.13536 0.458848
v -0.265248 1.08113 0.482468
v -0.29772 1.03306 0.486167
v -0.251675 1.02531 0.454929
v -0.2159 1.07548 0.438767
v -0.214714 1.02356 0.412658
v -0.192211 1.00672 0.310623
v -0.192211 1.02054 0.230623
v -0.208382 1.00673 0.178626
v -0.179072 1.06174 0.191781
v -0.171507 1.08059 0.246244
v -0.179072 1.04792 0.271781
v -0.236932 1.00139 0.130539
v -0.20566 1.05035 0.13228
v -0.275688 1.00492 0.0900237
v -0.242515 1.05018 0.0873318
v -0.219122 1.1006 0.0955003
v -0.184719 1.11109 0.14808
v -0.207291 1.15234 0.113907
v -0.243027 1.20458 0.0974037
v -0.247452 1.15254 0.0718861
v -0.287875 1.2011 0.0637492
v -0.268393 1.0918 0.0560867
v -0.298955 1.04237 0.0552074
v -0.327707 1.08557 0.0336969
v -0.304538 1.14464 0.0393941
v -0.33905 1.19129 0.0427504
v -0.359754 1.13125 0.0271297
v -0.392657 1.17591 0.0360055
v -0.279348 1.24942 0.104378
v -0.336434 1.24152 0.0718861
v -0.39129 1.22703 0.0592541
v -0.388378 1.26985 0.0955003
v -0.332186 1.28557 0.121071
v -0.384143 1.30111 0.141985
v -0.432933 1.30669 0.185192
v -0.43862 1.28331 0.13228
v -0.482243 1.28059 0.178626
v -0.442869 1.23927 0.0830957
v -0.44428 1.18907 0.0538332
v -0.490325 1.19682 0.0850712
v -0.492217 1.24492 0.126797
v -0.523086 1.24211 0.17597
v -0.527286 1.19857 0.127342
v -0.55235 1.19418 0.177427
v -0.461381 1.30035 0.235483
v -0.431671 1.30225 0.291803
v -0.514977 1.26195 0.23
v -0.549789 1.21541 0.229377
v -0.533618 1.22922 0.281374
v -0.48839 1.25952 0.369501
v -0.533618 1.2154 0.361374
v -0.505067 1.22074 0.409461
v -0.514977 1.24813 0.31
v -0.461381 1.28653 0.315483
v -0.48839 1.27334 0.289501
v -0.499485 1.17195 0.452668
v -0.53634 1.17178 0.40772
v -0.522878 1.12153 0.4445
v -0.549789 1.20159 0.309377
v -0.562927 1.16039 0.348219
v -0.570493 1.15536 0.213756
v -0.570493 1.14154 0.293756
v -0.57345 1.09987 0.331322
v -0.562927 1.17421 0.268219
v -0.557281 1.11104 0.39192
v -0.534709 1.06979 0.426093
v -0.560996 1.05853 0.367265
v -0.534078 1.02067 0.398848
v -0.473607 1.13033 0.483913
v -0.494548 1.06959 0.468114
v -0.498973 1.01755 0.442596
v -0.454125 1.02103 0.476251
v -0.437462 1.07749 0.500606
v -0.40295 1.03084 0.49725
v -0.35071 0.9951 0.480746
v -0.405565 0.980607 0.468114
v -0.353622 0.952278 0.4445
v -0.462652 0.97271 0.435622
v -0.503173 0.974008 0.393968
v -0.462206 0.937256 0.382696
v -0.409814 0.936565 0.418929
v -0.357856 0.921018 0.398015
v -0.414297 0.913209 0.365891
v -0.363092 0.903698 0.34483
v -0.299131 0.982859 0.456904
v -0.30338 0.938816 0.40772
v -0.309067 0.915435 0.354808
v -0.259756 0.941538 0.361374
v -0.249783 0.977212 0.413203
v -0.218914 0.98002 0.36403
v -0.227022 0.960178 0.31
v -0.208382 0.992912 0.258626
v -0.280619 0.921782 0.304517
v -0.335353 0.904177 0.29598
v -0.310329 0.919878 0.248197
v -0.25361 0.962609 0.170499
v -0.310329 0.933696 0.168197
v -0.289923 0.963425 0.125118
v -0.280619 0.9356 0.224517
v -0.227022 0.973997 0.23
v -0.25361 0.948791 0.250499
v -0.488557 1.00042 0.112443
v -0.474637 1.03865 0.0737102
v -0.438901 0.986413 0.0902139
v -0.452828 1.08293 0.0468746
v -0.420894 1.02829 0.0541431
v -0.384076 0.982424 0.0786257
v -0.42479 1.12987 0.0339792
v -0.391259 1.08252 0.0305226
v -0.355114 1.02968 0.0472151
v -0.328255 0.988753 0.0785607
v -0.523427 1.04424 0.116917
v -0.546693 1.09367 0.13
v -0.506387 1.08677 0.0811522
v -0.556586 1.14495 0.150695
v -0.5261 1.14665 0.101233
v -0.476752 1.141 0.0575317
v -0.517844 0.995446 0.160125
v -0.535953 0.999802 0.213125
v -0.550089 1.04307 0.168555
v -0.535953 0.985984 0.293125
v -0.541505 0.999335 0.347411
v -0.564155 1.03978 0.312338
v -0.569802 1.10294 0.188637
v -0.57345 1.11369 0.251322
v -0.564155 1.0536 0.232338
v -0.465604 0.95971 0.143621
v -0.43545 0.93105 0.181374
v -0.491604 0.957575 0.195564
v -0.43545 0.917231 0.261374
v -0.400389 0.902801 0.302829
v -0.452833 0.918139 0.322655
v -0.505671 0.954285 0.339347
v -0.491604 0.943757 0.275564
v -0.411757 0.948439 0.124854
v -0.345977 0.949831 0.117926
v -0.372987 0.922821 0.171944
v -0.400389 0.916619 0.222829
v -0.335353 0.917995 0.21598
v -0.372987 0.909003 0.251944
f 1 2 3
f 2 4 5
f 3 5 6
f 2 5 3
f 4 7 8
f 7 9 10
f 8 10 11
f 7 10 8
f 12 13 14
f 13 15 16
f 14 16 17
f 13 16 14
f 4 8 5
f 8 11 18
f 5 18 6
f 8 18 5
f 1 3 19
f 3 6 20
f 19 20 21
f 3 20 19
f 12 14 22
f 14 17 23
f 22 23 24
f 14 23 22
f 25 26 27
f 26 24 28
f 27 28 29
f 26 28 27
f 12 22 30
f 22 24 26
f 30 26 25
f 22 26 30
f 1 19 31
f 19 21 32
f 31 32 33
f 19 32 31
f 21 34 35
f 27 29 36
f 35 37 38
f 27 36 39
f 33 40 41
f 40 38 42
f 41 42 43
f 40 42 41
f 21 35 32
f 35 38 40
f 32 40 33
f 35 40 32
f 1 31 44
f 31 33 45
f 44 45 46
f 31 45 44
f 33 41 47
f 41 43 48
f 47 48 49
f 41 48 47
f 46 50 51
f 50 49 52
f 51 52 53
f 50 52 51
f 33 47 45
f 47 49 50
f 45 50 46
f 47 50 45
f 1 44 2
f 44 46 54
f 2 54 4
f 44 54 2
f 46 51 55
f 51 53 56
f 55 56 57
f 51 56 55
f 4 58 7
f 58 57 59
f 7 59 9
f 58 59 7
f 46 55 54
f 55 57 58
f 54 58 4
f 55 58 54
f 9 60 10
f 61 62 63
f 64 63 15
f 60 65 10
f 62 66 67
f 66 68 69
f 67 69 70
f 66 69 67
f 15 71 16
f 71 70 72
f 16 72 17
f 71 72 16
f 62 67 63
f 67 70 71
f 63 71 15
f 67 71 63
f 17 72 73
f 72 70 74
f 73 74 75
f 72 74 73
f 70 69 76
f 69 68 77
f 76 77 78
f 69 77 76
f 75 79 80
f 79 78 81
f 80 81 82
f 79 81 80
f 70 76 74
f 76 78 79
f 74 79 75
f 76 79 74
f 17 73 23
f 73 75 83
f 23 83 24
f 73 83 23
f 75 80 84
f 80 82 85
f 84 85 86
f 80 85 84
f 24 87 28
f 87 86 88
f 28 88 29
f 87 88 28
f 75 84 83
f 84 86 87
f 83 87 24
f 84 87 83
f 29 88 89
f 88 86 90
f 89 90 91
f 88 90 89
f 86 85 92
f 85 82 93
f 92 93 94
f 85 93 92
f 91 95 96
f 95 94 97
f 96 97 98
f 95 97 96
f 86 92 90
f 92 94 95
f 90 95 91
f 92 95 90
f 29 89 36
f 89 91 99
f 36 99 100
f 89 99 36
f 91 96 101
f 96 98 102
f 101 102 103
f 96 102 101
f 38 104 42
f 104 105 106
f 42 106 43
f 104 106 42
f 91 101 99
f 107 105 104
f 108 104 38
f 101 109 99
f 43 106 110
f 106 105 111
f 110 111 112
f 106 111 110
f 105 113 114
f 102 98 115
f 114 116 117
f 102 115 118
f 112 119 120
f 119 117 121
f 120 121 122
f 119 121 120
f 105 114 111
f 114 117 119
f 111 119 112
f 114 119 111
f 43 110 48
f 110 112 123
f 48 123 49
f 110 123 48
f 112 120 124
f 120 122 125
f 124 125 126
f 120 125 124
f 49 127 52
f 127 126 128
f 52 128 53
f 127 128 52
f 112 124 123
f 124 126 127
f 123 127 49
f 124 127 123
f 53 128 129
f 128 126 130
f 129 130 131
f 128 130 129
f 126 125 132
f 125 122 133
f 132 133 134
f 125 133 132
f 131 135 136
f 135 134 137
f 136 137 138
f 135 137 136
f 126 132 130
f 132 134 135
f 130 135 131
f 132 135 130
f 53 129 56
f 129 131 139
f 56 139 57
f 129 139 56
f 131 136 140
f 136 138 141
f 140 141 142
f 136 141 140
f 57 143 59
f 143 142 144
f 59 144 9
f 143 144 59
f 131 140 139
f 140 142 143
f 139 143 57
f 140 143 139
f 9 144 60
f 144 142 145
f 60 145 146
f 144 145 60
f 142 141 147
f 141 138 148
f 147 148 149
f 141 148 147
f 62 150 66
f 150 151 152
f 66 152 68
f 150 152 66
f 142 147 145
f 153 151 150
f 154 150 62
f 147 155 145
f 156 157 158
f 157 159 160
f 158 160 161
f 157 160 158
f 159 162 163
f 162 82 81
f 163 81 78
f 162 81 163
f 161 164 165
f 164 78 77
f 165 77 68
f 164 77 165
f 159 163 160
f 163 78 164
f 160 164 161
f 163 164 160
f 156 166 157
f 166 167 168
f 157 168 159
f 166 168 157
f 167 169 170
f 169 98 97
f 170 97 94
f 169 97 170
f 159 171 162
f 171 94 93
f 162 93 82
f 171 93 162
f 167 170 168
f 170 94 171
f 168 171 159
f 170 171 168
f 156 172 166
f 172 173 174
f 166 174 167
f 172 174 166
f 175 176 177
f 176 122 121
f 177 121 117
f 176 121 177
f 167 178 169
f 178 179 115
f 169 115 98
f 178 115 169
f 173 180 174
f 180 179 178
f 174 178 167
f 180 178 174
f 156 181 172
f 181 182 183
f 172 183 173
f 181 183 172
f 184 185 186
f 185 138 137
f 186 137 134
f 185 137 186
f 175 187 176
f 187 134 133
f 176 133 122
f 187 133 176
f 184 186 188
f 186 134 187
f 188 187 175
f 186 187 188
f 156 158 181
f 158 161 189
f 181 189 182
f 158 189 181
f 161 165 190
f 165 68 152
f 190 152 151
f 165 152 190
f 182 191 192
f 191 151 193
f 185 148 138
f 194 148 185
f 161 190 189
f 190 151 191
f 189 191 182
f 190 191 189
f 10 64 11
f 11 64 15
f 11 15 18
f 18 15 13
f 18 13 6
f 6 13 12
f 6 12 20
f 20 12 30
f 20 30 21
f 21 30 25
f 21 25 34
f 34 25 27
f 34 27 35
f 35 27 39
f 35 39 37
f 37 39 36
f 37 36 38
f 38 36 100
f 60 61 65
f 65 61 63
f 65 63 10
f 10 63 64
f 107 101 105
f 105 101 103
f 104 109 107
f 107 109 101
f 108 99 104
f 104 99 109
f 38 100 108
f 108 100 99
f 105 103 113
f 113 103 102
f 113 102 114
f 114 102 118
f 114 118 116
f 116 118 115
f 116 115 117
f 117 115 179
f 145 154 146
f 146 154 62
f 146 62 60
f 60 62 61
f 148 193 149
f 149 193 151
f 149 151 147
f 147 151 153
f 147 153 155
f 155 153 150
f 155 150 145
f 145 150 154
f 177 180 175
f 175 180 173
f 117 179 177
f 177 179 180
f 184 182 185
f 185 182 192
f 188 183 184
f 184 183 182
f 175 173 188
f 188 173 183
f 194 191 148
f 148 191 193
f 185 192 194
f 194 192 191
