v -0.253443 1.23553 0.347557
v -0.218573 1.19171 0.343083
v -0.224156 1.2405 0.299875
v -0.195307 1.14228 0.33
v -0.191911 1.19288 0.291445
v -0.206047 1.23615 0.246875
v -0.185414 1.091 0.309305
v -0.172198 1.133 0.271363
v -0.189649 1.04177 0.282573
v -0.171507 1.08059 0.246244
v -0.16855 1.12226 0.208678
v -0.206047 1.25524 0.00687469
v -0.177845 1.20144 -0.0123381
v -0.200494 1.24188 -0.0474107
v -0.16855 1.14135 -0.0313219
v -0.181004 1.18269 -0.0672646
v -0.207922 1.22055 -0.0988482
v -0.177845 1.18235 0.227662
v -0.276396 1.27624 0.316379
v -0.250396 1.27837 0.264436
v -0.30655 1.3049 0.278626
v -0.236329 1.28693 -0.0393471
v -0.238827 1.26721 -0.0939682
v -0.279793 1.30396 -0.0826962
v -0.30655 1.32399 0.0386258
v -0.289166 1.32308 -0.0226546
v -0.341611 1.33842 -0.00282919
v -0.327703 1.32801 -0.0658904
v -0.378908 1.33752 -0.04483
v -0.250396 1.29746 0.0244356
v -0.289166 1.30399 0.217345
v -0.303099 1.24954 0.369786
v -0.330242 1.28751 0.335146
v -0.357924 1.25352 0.381374
v -0.341611 1.31933 0.237171
v -0.369013 1.31313 0.288056
v -0.406646 1.33704 0.00402037
v -0.406646 1.31795 0.24402
v -0.431671 1.30225 0.291803
v -0.396022 1.28612 0.342074
v -0.413745 1.24719 0.381439
v -0.452077 1.27252 0.334882
v -0.466311 1.23103 0.369976
v -0.267363 1.1973 0.38629
v -0.321106 1.20766 0.405857
v -0.289172 1.15302 0.413125
v -0.386886 1.20627 0.412785
v -0.443044 1.19358 0.404793
v -0.414293 1.15037 0.426303
v -0.350741 1.15343 0.429477
v -0.31721 1.10608 0.426021
v -0.382246 1.1047 0.43287
v -0.349343 1.06004 0.423995
v -0.235613 1.14918 0.378848
v -0.265248 1.09495 0.402468
v -0.29772 1.04688 0.406167
v -0.251675 1.03913 0.374929
v -0.2159 1.0893 0.358767
v -0.214714 1.03738 0.332658
v -0.192211 1.02054 0.230623
v -0.192211 1.03963 -0.00937682
v -0.208382 1.02582 -0.0613742
v -0.179072 1.08083 -0.0482186
v -0.171507 1.09968 0.00624389
v -0.179072 1.06174 0.191781
v -0.236932 1.02048 -0.109461
v -0.20566 1.06944 -0.10772
v -0.275688 1.02401 -0.149976
v -0.242515 1.06927 -0.152668
v -0.219122 1.11969 -0.1445
v -0.184719 1.13018 -0.0919202
v -0.207291 1.17143 -0.126093
v -0.243027 1.22367 -0.142596
v -0.247452 1.17163 -0.168114
v -0.287875 1.22019 -0.176251
v -0.268393 1.11089 -0.183913
v -0.298955 1.06146 -0.184793
v -0.327707 1.10466 -0.206303
v -0.304538 1.16373 -0.200606
v -0.33905 1.21038 -0.19725
v -0.359754 1.15033 -0.21287
v -0.392657 1.19499 -0.203994
v -0.279348 1.26851 -0.135622
v -0.336434 1.26061 -0.168114
v -0.39129 1.24612 -0.180746
v -0.388378 1.28894 -0.1445
v -0.332186 1.30465 -0.118929
v -0.384143 1.3202 -0.0980148
v -0.432933 1.32578 -0.0548076
v -0.43862 1.3024 -0.10772
v -0.482243 1.29968 -0.0613742
v -0.442869 1.25836 -0.156904
v -0.44428 1.20816 -0.186167
v -0.490325 1.21591 -0.154929
v -0.492217 1.26401 -0.113203
v -0.523086 1.2612 -0.0640301
v -0.527286 1.21765 -0.112658
v -0.55235 1.21327 -0.062573
v -0.461381 1.31944 -0.00451702
v -0.461381 1.30035 0.235483
v -0.514977 1.28104 -0.00999992
v -0.549789 1.2345 -0.010623
v -0.514977 1.26195 0.23
v -0.549789 1.21541 0.229377
v -0.533618 1.22922 0.281374
v -0.48839 1.27334 0.289501
v -0.505067 1.23456 0.329461
v -0.499485 1.18577 0.372668
v -0.53634 1.18559 0.32772
v -0.522878 1.13535 0.3645
v -0.562927 1.17421 0.268219
v -0.570493 1.17445 -0.0262438
v -0.570493 1.15536 0.213756
v -0.57345 1.11369 0.251322
v -0.562927 1.1933 0.0282188
v -0.557281 1.12486 0.31192
v -0.534709 1.08361 0.346093
v -0.560996 1.07235 0.287265
v -0.534078 1.03448 0.318848
v -0.473607 1.14414 0.403913
v -0.494548 1.08341 0.388114
v -0.498973 1.03137 0.362596
v -0.454125 1.03485 0.396251
v -0.437462 1.09131 0.420606
v -0.40295 1.04465 0.41725
v -0.35071 1.00892 0.400746
v -0.405565 0.994426 0.388114
v -0.353622 0.966096 0.3645
v -0.462652 0.986528 0.355622
v -0.503173 0.987826 0.313968
v -0.462206 0.951074 0.302696
v -0.409814 0.950383 0.338929
v -0.357856 0.934836 0.318015
v -0.414297 0.927027 0.28589
v -0.363092 0.917516 0.26483
v -0.299131 0.996677 0.376904
v -0.30338 0.952634 0.32772
v -0.309067 0.929253 0.274808
v -0.259756 0.955356 0.281374
v -0.249783 0.99103 0.333203
v -0.218914 0.993838 0.28403
v -0.227022 0.973997 0.23
v -0.227022 0.993086 -0.00999994
v -0.280619 0.9356 0.224517
v -0.335353 0.917995 0.21598
v -0.280619 0.954689 -0.0154828
v -0.335353 0.937084 -0.0240202
v -0.310329 0.952785 -0.0718033
v -0.25361 0.981698 -0.069501
v -0.289923 0.982514 -0.114882
v -0.488557 1.01951 -0.127557
v -0.474637 1.05774 -0.16629
v -0.438901 1.0055 -0.149786
v -0.452828 1.10202 -0.193125
v -0.420894 1.04737 -0.185857
v -0.384076 1.00151 -0.161374
v -0.42479 1.14896 -0.206021
v -0.391259 1.1016 -0.209477
v -0.355114 1.04877 -0.192785
v -0.328255 1.00784 -0.161439
v -0.523427 1.06332 -0.123083
v -0.546693 1.11276 -0.11
v -0.506387 1.10586 -0.158848
v -0.556586 1.16404 -0.089305
v -0.5261 1.16573 -0.138767
v -0.476752 1.16009 -0.182468
v -0.517844 1.01453 -0.0798753
v -0.535953 1.01889 -0.0268746
v -0.550089 1.06216 -0.0714446
v -0.535953 0.999802 0.213125
v -0.541505 1.01315 0.267411
v -0.564155 1.0536 0.232338
v -0.569802 1.12203 -0.0513634
v -0.57345 1.13278 0.0113221
v -0.564155 1.07269 -0.00766181
v -0.465604 0.978799 -0.096379
v -0.43545 0.950139 -0.0586257
v -0.491604 0.976664 -0.0444355
v -0.43545 0.93105 0.181374
v -0.400389 0.916619 0.222829
v -0.452833 0.931958 0.242655
v -0.505671 0.968103 0.259347
v -0.452833 0.951047 0.00265471
v -0.491604 0.957575 0.195564
v -0.411757 0.967528 -0.115146
v -0.345977 0.96892 -0.122074
v -0.372987 0.94191 -0.068056
v -0.400389 0.935708 -0.0171707
f 1 2 3
f 2 4 5
f 3 5 6
f 2 5 3
f 4 7 8
f 7 9 10
f 8 10 11
f 7 10 8
f 12 13 14
f 13 15 16
f 14 16 17
f 13 16 14
f 4 8 5
f 8 11 18
f 5 18 6
f 8 18 5
f 1 3 19
f 3 6 20
f 19 20 21
f 3 20 19
f 12 14 22
f 14 17 23
f 22 23 24
f 14 23 22
f 25 26 27
f 26 24 28
f 27 28 29
f 26 28 27
f 12 22 30
f 22 24 26
f 20 31 21
f 22 26 30
f 1 19 32
f 19 21 33
f 32 33 34
f 19 33 32
f 21 35 36
f 27 29 37
f 36 38 39
f 35 38 36
f 34 40 41
f 40 39 42
f 41 42 43
f 40 42 41
f 21 36 33
f 36 39 40
f 33 40 34
f 36 40 33
f 1 32 44
f 32 34 45
f 44 45 46
f 32 45 44
f 34 41 47
f 41 43 48
f 47 48 49
f 41 48 47
f 46 50 51
f 50 49 52
f 51 52 53
f 50 52 51
f 34 47 45
f 47 49 50
f 45 50 46
f 47 50 45
f 1 44 2
f 44 46 54
f 2 54 4
f 44 54 2
f 46 51 55
f 51 53 56
f 55 56 57
f 51 56 55
f 4 58 7
f 58 57 59
f 7 59 9
f 58 59 7
f 46 55 54
f 55 57 58
f 54 58 4
f 55 58 54
f 9 60 10
f 61 62 63
f 64 63 15
f 60 65 10
f 62 66 67
f 66 68 69
f 67 69 70
f 66 69 67
f 15 71 16
f 71 70 72
f 16 72 17
f 71 72 16
f 62 67 63
f 67 70 71
f 63 71 15
f 67 71 63
f 17 72 73
f 72 70 74
f 73 74 75
f 72 74 73
f 70 69 76
f 69 68 77
f 76 77 78
f 69 77 76
f 75 79 80
f 79 78 81
f 80 81 82
f 79 81 80
f 70 76 74
f 76 78 79
f 74 79 75
f 76 79 74
f 17 73 23
f 73 75 83
f 23 83 24
f 73 83 23
f 75 80 84
f 80 82 85
f 84 85 86
f 80 85 84
f 24 87 28
f 87 86 88
f 28 88 29
f 87 88 28
f 75 84 83
f 84 86 87
f 83 87 24
f 84 87 83
f 29 88 89
f 88 86 90
f 89 90 91
f 88 90 89
f 86 85 92
f 85 82 93
f 92 93 94
f 85 93 92
f 91 95 96
f 95 94 97
f 96 97 98
f 95 97 96
f 86 92 90
f 92 94 95
f 90 95 91
f 92 95 90
f 29 89 37
f 89 91 99
f 38 100 39
f 89 99 37
f 91 96 101
f 96 98 102
f 103 104 105
f 96 102 101
f 39 106 42
f 106 105 107
f 42 107 43
f 106 107 42
f 91 101 99
f 103 105 106
f 100 106 39
f 103 106 100
f 43 107 108
f 107 105 109
f 108 109 110
f 107 109 108
f 105 104 111
f 102 98 112
f 111 113 114
f 102 112 115
f 110 116 117
f 116 114 118
f 117 118 119
f 116 118 117
f 105 111 109
f 111 114 116
f 109 116 110
f 111 116 109
f 43 108 48
f 108 110 120
f 48 120 49
f 108 120 48
f 110 117 121
f 117 119 122
f 121 122 123
f 117 122 121
f 49 124 52
f 124 123 125
f 52 125 53
f 124 125 52
f 110 121 120
f 121 123 124
f 120 124 49
f 121 124 120
f 53 125 126
f 125 123 127
f 126 127 128
f 125 127 126
f 123 122 129
f 122 119 130
f 129 130 131
f 122 130 129
f 128 132 133
f 132 131 134
f 133 134 135
f 132 134 133
f 123 129 127
f 129 131 132
f 127 132 128
f 129 132 127
f 53 126 56
f 126 128 136
f 56 136 57
f 126 136 56
f 128 133 137
f 133 135 138
f 137 138 139
f 133 138 137
f 57 140 59
f 140 139 141
f 59 141 9
f 140 141 59
f 128 137 136
f 137 139 140
f 136 140 57
f 137 140 136
f 9 141 60
f 141 139 142
f 61 143 62
f 141 142 60
f 139 138 144
f 138 135 145
f 146 147 148
f 138 145 144
f 62 149 66
f 149 148 150
f 66 150 68
f 149 150 66
f 139 144 142
f 146 148 149
f 143 149 62
f 146 149 143
f 151 152 153
f 152 154 155
f 153 155 156
f 152 155 153
f 154 157 158
f 157 82 81
f 158 81 78
f 157 81 158
f 156 159 160
f 159 78 77
f 160 77 68
f 159 77 160
f 154 158 155
f 158 78 159
f 155 159 156
f 158 159 155
f 151 161 152
f 161 162 163
f 152 163 154
f 161 163 152
f 162 164 165
f 164 98 97
f 165 97 94
f 164 97 165
f 154 166 157
f 166 94 93
f 157 93 82
f 166 93 157
f 162 165 163
f 165 94 166
f 163 166 154
f 165 166 163
f 151 167 161
f 167 168 169
f 161 169 162
f 167 169 161
f 170 171 172
f 171 119 118
f 172 118 114
f 171 118 172
f 162 173 164
f 173 174 112
f 164 112 98
f 173 112 164
f 168 175 169
f 175 174 173
f 169 173 162
f 175 173 169
f 151 176 167
f 176 177 178
f 167 178 168
f 176 178 167
f 179 180 181
f 180 135 134
f 181 134 131
f 180 134 181
f 170 182 171
f 182 131 130
f 171 130 119
f 182 130 171
f 177 183 178
f 181 131 182
f 184 182 170
f 181 182 184
f 151 153 176
f 153 156 185
f 176 185 177
f 153 185 176
f 156 160 186
f 160 68 150
f 186 150 148
f 160 150 186
f 177 187 188
f 187 148 147
f 180 145 135
f 187 147 188
f 156 186 185
f 186 148 187
f 185 187 177
f 186 187 185
f 10 64 11
f 11 64 15
f 11 15 18
f 18 15 13
f 18 13 6
f 6 13 12
f 6 12 20
f 20 12 30
f 20 30 31
f 31 30 26
f 31 26 21
f 21 26 25
f 21 25 35
f 35 25 27
f 35 27 38
f 38 27 37
f 60 61 65
f 65 61 63
f 65 63 10
f 10 63 64
f 38 37 100
f 100 37 99
f 103 101 104
f 104 101 102
f 100 99 103
f 103 99 101
f 104 102 111
f 111 102 115
f 111 115 113
f 113 115 112
f 113 112 114
f 114 112 174
f 142 143 60
f 60 143 61
f 145 147 144
f 144 147 146
f 144 146 142
f 142 146 143
f 172 175 170
f 170 175 168
f 114 174 172
f 172 174 175
f 179 177 180
f 180 177 188
f 181 183 179
f 179 183 177
f 170 168 184
f 184 168 178
f 184 178 181
f 181 178 183
f 180 188 145
f 145 188 147
