v -0.253443 1.25462 0.107557
v -0.218573 1.2108 0.103083
v -0.224156 1.25959 0.0598755
v -0.195307 1.16137 0.0900001
v -0.191911 1.21197 0.0514447
v -0.206047 1.25524 0.00687469
v -0.185414 1.11009 0.0693051
v -0.172198 1.15209 0.0313636
v -0.189649 1.06086 0.0425732
v -0.171507 1.09968 0.00624389
v -0.16855 1.14135 -0.0313219
v -0.177845 1.20144 -0.0123381
v -0.200494 1.24188 -0.0474107
v -0.177845 1.1981 -0.0523381
v -0.16855 1.138 -0.0713219
v -0.181004 1.17935 -0.107265
v -0.200494 1.23854 -0.0874107
v -0.207922 1.21721 -0.138848
v -0.276396 1.29533 0.0763792
v -0.250396 1.29746 0.0244356
v -0.30655 1.32399 0.0386258
v -0.206047 1.25189 -0.0331253
v -0.236329 1.28359 -0.0793472
v -0.238827 1.26387 -0.133968
v -0.279793 1.30062 -0.122696
v -0.289166 1.32308 -0.0226546
v -0.341611 1.33842 -0.00282919
v -0.289166 1.31974 -0.0626546
v -0.327703 1.32467 -0.10589
v -0.341611 1.33508 -0.0428292
v -0.378908 1.33418 -0.08483
v -0.236329 1.28693 -0.0393471
v -0.303099 1.26862 0.129786
v -0.330242 1.3066 0.0951463
v -0.357924 1.27261 0.141374
v -0.369013 1.33222 0.0480561
v -0.378908 1.33752 -0.04483
v -0.406646 1.33704 0.00402037
v -0.431671 1.32134 0.0518035
v -0.396022 1.30521 0.102074
v -0.413745 1.26628 0.141439
v -0.452077 1.29161 0.0948819
v -0.466311 1.25012 0.129976
v -0.267363 1.21638 0.14629
v -0.321106 1.22675 0.165857
v -0.289172 1.17211 0.173125
v -0.386886 1.22536 0.172785
v -0.443044 1.21267 0.164793
v -0.414293 1.16946 0.186303
v -0.350741 1.17252 0.189477
v -0.31721 1.12517 0.186021
v -0.382246 1.12379 0.19287
v -0.349343 1.07913 0.183995
v -0.235613 1.16827 0.138848
v -0.265248 1.11404 0.162468
v -0.29772 1.06597 0.166167
v -0.251675 1.05822 0.134929
v -0.2159 1.10839 0.118767
v -0.214714 1.05647 0.0926584
v -0.192211 1.03963 -0.00937682
v -0.192211 1.03629 -0.0493768
v -0.208382 1.02248 -0.101374
v -0.179072 1.07749 -0.0882187
v -0.171507 1.09634 -0.0337561
v -0.236932 1.01714 -0.149461
v -0.20566 1.0661 -0.14772
v -0.275688 1.02067 -0.189976
v -0.242515 1.06593 -0.192668
v -0.219122 1.11634 -0.1845
v -0.184719 1.12684 -0.13192
v -0.207291 1.16809 -0.166093
v -0.243027 1.22033 -0.182596
v -0.247452 1.16829 -0.208114
v -0.287875 1.21685 -0.216251
v -0.268393 1.10755 -0.223913
v -0.298955 1.05812 -0.224793
v -0.327707 1.10132 -0.246303
v -0.304538 1.16039 -0.240606
v -0.33905 1.20704 -0.23725
v -0.359754 1.14699 -0.25287
v -0.392657 1.19165 -0.243994
v -0.279348 1.26517 -0.175622
v -0.336434 1.25727 -0.208114
v -0.39129 1.24278 -0.220746
v -0.388378 1.2856 -0.1845
v -0.332186 1.30131 -0.158929
v -0.384143 1.31686 -0.138015
v -0.432933 1.32244 -0.0948076
v -0.43862 1.29906 -0.14772
v -0.482243 1.29634 -0.101374
v -0.442869 1.25502 -0.196904
v -0.44428 1.20482 -0.226167
v -0.490325 1.21257 -0.194929
v -0.492217 1.26067 -0.153203
v -0.523086 1.25786 -0.10403
v -0.527286 1.21431 -0.152658
v -0.55235 1.20993 -0.102573
v -0.406646 1.3337 -0.0359797
v -0.461381 1.3161 -0.044517
v -0.461381 1.31944 -0.00451702
v -0.432933 1.32578 -0.0548076
v -0.514977 1.2777 -0.0499999
v -0.549789 1.23116 -0.0506231
v -0.514977 1.28104 -0.00999992
v -0.549789 1.2345 -0.010623
v -0.533618 1.24831 0.0413744
v -0.48839 1.29243 0.0495011
v -0.505067 1.25365 0.0894611
v -0.499485 1.20486 0.132668
v -0.53634 1.20468 0.0877198
v -0.522878 1.15444 0.1245
v -0.562927 1.1933 0.0282188
v -0.570493 1.17111 -0.0662438
v -0.570493 1.17445 -0.0262438
v -0.57345 1.13278 0.0113221
v -0.557281 1.14395 0.0719204
v -0.534709 1.1027 0.106093
v -0.560996 1.09144 0.0472648
v -0.534078 1.05357 0.0788483
v -0.473607 1.16323 0.163913
v -0.494548 1.1025 0.148114
v -0.498973 1.05046 0.122596
v -0.454125 1.05394 0.156251
v -0.437462 1.1104 0.180606
v -0.40295 1.06374 0.17725
v -0.35071 1.02801 0.160746
v -0.405565 1.01351 0.148114
v -0.353622 0.985185 0.1245
v -0.462652 1.00562 0.115622
v -0.503173 1.00691 0.0739683
v -0.462206 0.970163 0.0626964
v -0.409814 0.969472 0.0989294
v -0.357856 0.953925 0.0780149
v -0.414297 0.946116 0.0458905
v -0.363092 0.936605 0.0248301
v -0.299131 1.01577 0.136904
v -0.30338 0.971723 0.0877198
v -0.309067 0.948342 0.0348077
v -0.259756 0.974445 0.0413744
v -0.249783 1.01012 0.0932027
v -0.218914 1.01293 0.0440303
v -0.227022 0.993086 -0.00999994
v -0.227022 0.989745 -0.05
v -0.280619 0.954689 -0.0154828
v -0.335353 0.937084 -0.0240202
v -0.280619 0.951349 -0.0554829
v -0.335353 0.933743 -0.0640203
v -0.310329 0.949445 -0.111803
v -0.309067 0.945002 -0.00519233
v -0.25361 0.978358 -0.109501
v -0.289923 0.979174 -0.154882
v -0.488557 1.01617 -0.167557
v -0.474637 1.0544 -0.20629
v -0.438901 1.00216 -0.189786
v -0.452828 1.09868 -0.233125
v -0.420894 1.04403 -0.225857
v -0.384076 0.998173 -0.201374
v -0.42479 1.14562 -0.246021
v -0.391259 1.09826 -0.249477
v -0.355114 1.04543 -0.232785
v -0.328255 1.0045 -0.201439
v -0.523427 1.05998 -0.163083
v -0.546693 1.10942 -0.15
v -0.506387 1.10252 -0.198848
v -0.556586 1.1607 -0.129305
v -0.5261 1.16239 -0.178767
v -0.476752 1.15675 -0.222468
v -0.517844 1.01119 -0.119875
v -0.535953 1.01555 -0.0668746
v -0.550089 1.05882 -0.111445
v -0.541505 1.0289 -0.0125892
v -0.564155 1.06934 -0.0476618
v -0.541505 1.03224 0.0274108
v -0.564155 1.07269 -0.00766181
v -0.569802 1.11869 -0.0913634
v -0.57345 1.12944 -0.028678
v -0.465604 0.975458 -0.136379
v -0.43545 0.946798 -0.0986257
v -0.491604 0.973324 -0.0844355
v -0.400389 0.932368 -0.0571707
v -0.452833 0.947706 -0.0373453
v -0.400389 0.935708 -0.0171707
v -0.452833 0.951047 0.00265471
v -0.535953 1.01889 -0.0268746
v -0.505671 0.987192 0.0193473
v -0.505671 0.983851 -0.0206528
v -0.411757 0.964188 -0.155146
v -0.345977 0.965579 -0.162074
v -0.372987 0.93857 -0.108056
v -0.363092 0.933265 -0.0151699
f 1 2 3
f 2 4 5
f 3 5 6
f 2 5 3
f 4 7 8
f 7 9 10
f 8 10 11
f 7 10 8
f 6 12 13
f 14 15 16
f 17 16 18
f 14 16 17
f 4 8 5
f 8 11 12
f 5 12 6
f 8 12 5
f 1 3 19
f 3 6 20
f 19 20 21
f 3 20 19
f 22 17 23
f 17 18 24
f 23 24 25
f 17 24 23
f 21 26 27
f 28 25 29
f 30 29 31
f 28 29 30
f 6 32 20
f 23 25 28
f 20 26 21
f 32 26 20
f 1 19 33
f 19 21 34
f 33 34 35
f 19 34 33
f 21 27 36
f 27 37 38
f 36 38 39
f 27 38 36
f 35 40 41
f 40 39 42
f 41 42 43
f 40 42 41
f 21 36 34
f 36 39 40
f 34 40 35
f 36 40 34
f 1 33 44
f 33 35 45
f 44 45 46
f 33 45 44
f 35 41 47
f 41 43 48
f 47 48 49
f 41 48 47
f 46 50 51
f 50 49 52
f 51 52 53
f 50 52 51
f 35 47 45
f 47 49 50
f 45 50 46
f 47 50 45
f 1 44 2
f 44 46 54
f 2 54 4
f 44 54 2
f 46 51 55
f 51 53 56
f 55 56 57
f 51 56 55
f 4 58 7
f 58 57 59
f 7 59 9
f 58 59 7
f 46 55 54
f 55 57 58
f 54 58 4
f 55 58 54
f 9 60 10
f 61 62 63
f 64 63 15
f 61 63 64
f 62 65 66
f 65 67 68
f 66 68 69
f 65 68 66
f 15 70 16
f 70 69 71
f 16 71 18
f 70 71 16
f 62 66 63
f 66 69 70
f 63 70 15
f 66 70 63
f 18 71 72
f 71 69 73
f 72 73 74
f 71 73 72
f 69 68 75
f 68 67 76
f 75 76 77
f 68 76 75
f 74 78 79
f 78 77 80
f 79 80 81
f 78 80 79
f 69 75 73
f 75 77 78
f 73 78 74
f 75 78 73
f 18 72 24
f 72 74 82
f 24 82 25
f 72 82 24
f 74 79 83
f 79 81 84
f 83 84 85
f 79 84 83
f 25 86 29
f 86 85 87
f 29 87 31
f 86 87 29
f 74 83 82
f 83 85 86
f 82 86 25
f 83 86 82
f 31 87 88
f 87 85 89
f 88 89 90
f 87 89 88
f 85 84 91
f 84 81 92
f 91 92 93
f 84 92 91
f 90 94 95
f 94 93 96
f 95 96 97
f 94 96 95
f 85 91 89
f 91 93 94
f 89 94 90
f 91 94 89
f 31 88 98
f 88 90 99
f 38 100 39
f 101 100 38
f 90 95 102
f 95 97 103
f 104 105 106
f 95 103 102
f 39 107 42
f 107 106 108
f 42 108 43
f 107 108 42
f 90 102 99
f 104 106 107
f 100 107 39
f 104 107 100
f 43 108 109
f 108 106 110
f 109 110 111
f 108 110 109
f 106 105 112
f 103 97 113
f 112 114 115
f 105 114 112
f 111 116 117
f 116 115 118
f 117 118 119
f 116 118 117
f 106 112 110
f 112 115 116
f 110 116 111
f 112 116 110
f 43 109 48
f 109 111 120
f 48 120 49
f 109 120 48
f 111 117 121
f 117 119 122
f 121 122 123
f 117 122 121
f 49 124 52
f 124 123 125
f 52 125 53
f 124 125 52
f 111 121 120
f 121 123 124
f 120 124 49
f 121 124 120
f 53 125 126
f 125 123 127
f 126 127 128
f 125 127 126
f 123 122 129
f 122 119 130
f 129 130 131
f 122 130 129
f 128 132 133
f 132 131 134
f 133 134 135
f 132 134 133
f 123 129 127
f 129 131 132
f 127 132 128
f 129 132 127
f 53 126 56
f 126 128 136
f 56 136 57
f 126 136 56
f 128 133 137
f 133 135 138
f 137 138 139
f 133 138 137
f 57 140 59
f 140 139 141
f 59 141 9
f 140 141 59
f 128 137 136
f 137 139 140
f 136 140 57
f 137 140 136
f 9 141 60
f 141 139 142
f 61 143 62
f 141 142 60
f 139 138 144
f 138 135 145
f 146 147 148
f 149 147 146
f 62 150 65
f 150 148 151
f 65 151 67
f 150 151 65
f 139 144 142
f 146 148 150
f 143 150 62
f 146 150 143
f 152 153 154
f 153 155 156
f 154 156 157
f 153 156 154
f 155 158 159
f 158 81 80
f 159 80 77
f 158 80 159
f 157 160 161
f 160 77 76
f 161 76 67
f 160 76 161
f 155 159 156
f 159 77 160
f 156 160 157
f 159 160 156
f 152 162 153
f 162 163 164
f 153 164 155
f 162 164 153
f 163 165 166
f 165 97 96
f 166 96 93
f 165 96 166
f 155 167 158
f 167 93 92
f 158 92 81
f 167 92 158
f 163 166 164
f 166 93 167
f 164 167 155
f 166 167 164
f 152 168 162
f 168 169 170
f 162 170 163
f 168 170 162
f 169 171 172
f 173 119 118
f 174 118 115
f 173 118 174
f 163 175 165
f 175 176 113
f 165 113 97
f 175 113 165
f 169 172 170
f 172 176 175
f 170 175 163
f 172 175 170
f 152 177 168
f 177 178 179
f 168 179 169
f 177 179 168
f 178 180 181
f 182 135 134
f 183 134 131
f 182 134 183
f 184 185 173
f 185 131 130
f 173 130 119
f 185 130 173
f 178 181 179
f 183 131 185
f 179 186 169
f 181 186 179
f 152 154 177
f 154 157 187
f 177 187 178
f 154 187 177
f 157 161 188
f 161 67 151
f 188 151 148
f 161 151 188
f 178 189 180
f 189 148 147
f 180 147 190
f 189 147 180
f 157 188 187
f 188 148 189
f 187 189 178
f 188 189 187
f 10 64 11
f 11 64 15
f 12 14 13
f 13 14 17
f 13 17 6
f 6 17 22
f 11 15 12
f 12 15 14
f 26 28 27
f 27 28 30
f 6 22 32
f 32 22 23
f 32 23 26
f 26 23 28
f 27 30 37
f 37 30 31
f 37 31 38
f 38 31 98
f 60 61 10
f 10 61 64
f 101 88 100
f 100 88 99
f 38 98 101
f 101 98 88
f 104 102 105
f 105 102 103
f 100 99 104
f 104 99 102
f 114 113 115
f 115 113 176
f 105 103 114
f 114 103 113
f 142 143 60
f 60 143 61
f 138 149 144
f 144 149 146
f 135 190 145
f 145 190 147
f 145 147 138
f 138 147 149
f 144 146 142
f 142 146 143
f 115 176 174
f 174 176 172
f 174 172 173
f 173 172 171
f 182 180 135
f 135 180 190
f 183 181 182
f 182 181 180
f 184 169 185
f 185 169 186
f 173 171 184
f 184 171 169
f 185 186 183
f 183 186 181
