v -0.253443 1.25128 0.0675571
v -0.218573 1.20746 0.0630827
v -0.224156 1.25625 0.0198755
v -0.195307 1.15803 0.0500001
v -0.191911 1.20863 0.0114447
v -0.206047 1.25189 -0.0331253
v -0.185414 1.10675 0.0293051
v -0.172198 1.14875 -0.00863647
v -0.189649 1.05752 0.00257317
v -0.171507 1.09634 -0.0337561
v -0.16855 1.138 -0.0713219
v -0.177845 1.1981 -0.0523381
v -0.200494 1.23854 -0.0874107
v -0.177845 1.16603 -0.172338
v -0.16855 1.10594 -0.191322
v -0.181004 1.14728 -0.227265
v -0.200494 1.20647 -0.207411
v -0.207922 1.18514 -0.258848
v -0.276396 1.29199 0.0363791
v -0.250396 1.29412 -0.0155644
v -0.30655 1.32065 -0.00137424
v -0.236329 1.28359 -0.0793472
v -0.238827 1.2318 -0.253968
v -0.236329 1.25152 -0.199347
v -0.279793 1.26855 -0.242696
v -0.289166 1.31974 -0.0626546
v -0.341611 1.33508 -0.0428292
v -0.279793 1.30062 -0.122696
v -0.327703 1.32467 -0.10589
v -0.378908 1.33418 -0.08483
v -0.303099 1.26528 0.0897862
v -0.330242 1.30326 0.0551463
v -0.357924 1.26927 0.101374
v -0.369013 1.32888 0.00805608
v -0.406646 1.3337 -0.0359797
v -0.431671 1.318 0.0118035
v -0.396022 1.30187 0.0620742
v -0.413745 1.26294 0.101439
v -0.452077 1.28827 0.0548819
v -0.466311 1.24678 0.0899764
v -0.267363 1.21304 0.10629
v -0.321106 1.22341 0.125857
v -0.289172 1.16877 0.133125
v -0.386886 1.22202 0.132785
v -0.443044 1.20933 0.124793
v -0.414293 1.16612 0.146303
v -0.350741 1.16918 0.149477
v -0.31721 1.12183 0.146021
v -0.382246 1.12045 0.15287
v -0.349343 1.07579 0.143995
v -0.235613 1.16493 0.0988479
v -0.265248 1.1107 0.122468
v -0.29772 1.06263 0.126167
v -0.251675 1.05488 0.0949288
v -0.2159 1.10505 0.0787667
v -0.214714 1.05313 0.0526583
v -0.192211 1.03629 -0.0493768
v -0.192211 1.00422 -0.169377
v -0.208382 0.99041 -0.221374
v -0.179072 1.04542 -0.208219
v -0.171507 1.06427 -0.153756
v -0.236932 0.985067 -0.269461
v -0.20566 1.03403 -0.26772
v -0.275688 0.988599 -0.309976
v -0.242515 1.03386 -0.312668
v -0.219122 1.08428 -0.3045
v -0.184719 1.09477 -0.25192
v -0.207291 1.13602 -0.286093
v -0.243027 1.18826 -0.302596
v -0.247452 1.13622 -0.328114
v -0.287875 1.18478 -0.336251
v -0.268393 1.07548 -0.343913
v -0.298955 1.02605 -0.344793
v -0.327707 1.06925 -0.366303
v -0.304538 1.12832 -0.360606
v -0.33905 1.17497 -0.35725
v -0.359754 1.11492 -0.37287
v -0.392657 1.15959 -0.363994
v -0.279348 1.2331 -0.295622
v -0.336434 1.2252 -0.328114
v -0.39129 1.21071 -0.340746
v -0.388378 1.25353 -0.3045
v -0.332186 1.26925 -0.278929
v -0.327703 1.2926 -0.22589
v -0.384143 1.28479 -0.258015
v -0.378908 1.30211 -0.20483
v -0.432933 1.29037 -0.214808
v -0.43862 1.26699 -0.26772
v -0.482243 1.26427 -0.221374
v -0.442869 1.22295 -0.316904
v -0.44428 1.17275 -0.346167
v -0.490325 1.1805 -0.314929
v -0.492217 1.2286 -0.273203
v -0.523086 1.22579 -0.22403
v -0.527286 1.18224 -0.272658
v -0.55235 1.17786 -0.222573
v -0.432933 1.32244 -0.0948076
v -0.482243 1.29634 -0.101374
v -0.461381 1.3161 -0.044517
v -0.523086 1.25786 -0.10403
v -0.514977 1.2777 -0.0499999
v -0.549789 1.19909 -0.170623
v -0.549789 1.23116 -0.0506231
v -0.533618 1.24497 0.00137438
v -0.48839 1.28909 0.00950112
v -0.505067 1.25031 0.049461
v -0.499485 1.20152 0.0926683
v -0.53634 1.20134 0.0477198
v -0.522878 1.1511 0.0844998
v -0.562927 1.18996 -0.0117812
v -0.570493 1.13904 -0.186244
v -0.570493 1.17111 -0.0662438
v -0.57345 1.12944 -0.028678
v -0.557281 1.14061 0.0319204
v -0.534709 1.09936 0.0660927
v -0.560996 1.0881 0.00726476
v -0.534078 1.05023 0.0388483
v -0.473607 1.15989 0.123913
v -0.494548 1.09916 0.108114
v -0.498973 1.04712 0.0825964
v -0.454125 1.0506 0.116251
v -0.437462 1.10705 0.140606
v -0.40295 1.0604 0.13725
v -0.35071 1.02467 0.120746
v -0.405565 1.01017 0.108114
v -0.353622 0.981845 0.0844997
v -0.462652 1.00228 0.075622
v -0.503173 1.00357 0.0339683
v -0.462206 0.966823 0.0226963
v -0.409814 0.966131 0.0589294
v -0.357856 0.950585 0.0380149
v -0.414297 0.942776 0.00589051
v -0.363092 0.933265 -0.0151699
v -0.299131 1.01243 0.0969043
v -0.30338 0.968383 0.0477198
v -0.309067 0.945002 -0.00519233
v -0.259756 0.971105 0.00137434
v -0.249783 1.00678 0.0532027
v -0.218914 1.00959 0.00403023
v -0.218914 0.977518 -0.11597
v -0.259756 0.939036 -0.118626
v -0.227022 0.957676 -0.17
v -0.309067 0.912933 -0.125192
v -0.280619 0.91928 -0.175483
v -0.363092 0.901196 -0.13517
v -0.335353 0.901674 -0.18402
v -0.310329 0.917376 -0.231803
v -0.25361 0.946289 -0.229501
v -0.289923 0.947105 -0.274882
v -0.488557 0.984097 -0.287557
v -0.474637 1.02233 -0.32629
v -0.438901 0.970093 -0.309786
v -0.452828 1.06661 -0.353125
v -0.420894 1.01197 -0.345857
v -0.384076 0.966104 -0.321374
v -0.42479 1.11355 -0.366021
v -0.391259 1.06619 -0.369477
v -0.355114 1.01336 -0.352785
v -0.328255 0.972433 -0.321439
v -0.523427 1.02792 -0.283083
v -0.546693 1.07735 -0.27
v -0.506387 1.07045 -0.318848
v -0.556586 1.12863 -0.249305
v -0.5261 1.13033 -0.298767
v -0.476752 1.12468 -0.342468
v -0.517844 0.979125 -0.239875
v -0.535953 0.983482 -0.186875
v -0.550089 1.02675 -0.231445
v -0.541505 0.996833 -0.132589
v -0.564155 1.03728 -0.167662
v -0.541505 1.0289 -0.0125892
v -0.564155 1.06934 -0.0476618
v -0.569802 1.08662 -0.211363
v -0.57345 1.09737 -0.148678
v -0.465604 0.943389 -0.256379
v -0.43545 0.914729 -0.218626
v -0.491604 0.941255 -0.204436
v -0.400389 0.900299 -0.177171
v -0.452833 0.915637 -0.157345
v -0.414297 0.910707 -0.11411
v -0.462206 0.934754 -0.0973037
v -0.505671 0.951782 -0.140653
v -0.505671 0.983851 -0.0206528
v -0.411757 0.932119 -0.275146
v -0.345977 0.93351 -0.282074
v -0.372987 0.906501 -0.228056
f 1 2 3
f 2 4 5
f 3 5 6
f 2 5 3
f 4 7 8
f 7 9 10
f 8 10 11
f 7 10 8
f 6 12 13
f 14 15 16
f 17 16 18
f 14 16 17
f 4 8 5
f 8 11 12
f 5 12 6
f 8 12 5
f 1 3 19
f 3 6 20
f 19 20 21
f 3 20 19
f 6 13 22
f 17 18 23
f 24 23 25
f 17 23 24
f 21 26 27
f 26 28 29
f 27 29 30
f 26 29 27
f 6 22 20
f 22 28 26
f 20 26 21
f 22 26 20
f 1 19 31
f 19 21 32
f 31 32 33
f 19 32 31
f 21 27 34
f 27 30 35
f 34 35 36
f 27 35 34
f 33 37 38
f 37 36 39
f 38 39 40
f 37 39 38
f 21 34 32
f 34 36 37
f 32 37 33
f 34 37 32
f 1 31 41
f 31 33 42
f 41 42 43
f 31 42 41
f 33 38 44
f 38 40 45
f 44 45 46
f 38 45 44
f 43 47 48
f 47 46 49
f 48 49 50
f 47 49 48
f 33 44 42
f 44 46 47
f 42 47 43
f 44 47 42
f 1 41 2
f 41 43 51
f 2 51 4
f 41 51 2
f 43 48 52
f 48 50 53
f 52 53 54
f 48 53 52
f 4 55 7
f 55 54 56
f 7 56 9
f 55 56 7
f 43 52 51
f 52 54 55
f 51 55 4
f 52 55 51
f 9 57 10
f 58 59 60
f 61 60 15
f 58 60 61
f 59 62 63
f 62 64 65
f 63 65 66
f 62 65 63
f 15 67 16
f 67 66 68
f 16 68 18
f 67 68 16
f 59 63 60
f 63 66 67
f 60 67 15
f 63 67 60
f 18 68 69
f 68 66 70
f 69 70 71
f 68 70 69
f 66 65 72
f 65 64 73
f 72 73 74
f 65 73 72
f 71 75 76
f 75 74 77
f 76 77 78
f 75 77 76
f 66 72 70
f 72 74 75
f 70 75 71
f 72 75 70
f 18 69 23
f 69 71 79
f 23 79 25
f 69 79 23
f 71 76 80
f 76 78 81
f 80 81 82
f 76 81 80
f 25 83 84
f 83 82 85
f 84 85 86
f 83 85 84
f 71 80 79
f 80 82 83
f 79 83 25
f 80 83 79
f 86 85 87
f 85 82 88
f 87 88 89
f 85 88 87
f 82 81 90
f 81 78 91
f 90 91 92
f 81 91 90
f 89 93 94
f 93 92 95
f 94 95 96
f 93 95 94
f 82 90 88
f 90 92 93
f 88 93 89
f 90 93 88
f 30 97 35
f 97 98 99
f 35 99 36
f 97 99 35
f 98 100 101
f 94 96 102
f 101 103 104
f 100 103 101
f 36 105 39
f 105 104 106
f 39 106 40
f 105 106 39
f 98 101 99
f 101 104 105
f 99 105 36
f 101 105 99
f 40 106 107
f 106 104 108
f 107 108 109
f 106 108 107
f 104 103 110
f 102 96 111
f 110 112 113
f 103 112 110
f 109 114 115
f 114 113 116
f 115 116 117
f 114 116 115
f 104 110 108
f 110 113 114
f 108 114 109
f 110 114 108
f 40 107 45
f 107 109 118
f 45 118 46
f 107 118 45
f 109 115 119
f 115 117 120
f 119 120 121
f 115 120 119
f 46 122 49
f 122 121 123
f 49 123 50
f 122 123 49
f 109 119 118
f 119 121 122
f 118 122 46
f 119 122 118
f 50 123 124
f 123 121 125
f 124 125 126
f 123 125 124
f 121 120 127
f 120 117 128
f 127 128 129
f 120 128 127
f 126 130 131
f 130 129 132
f 131 132 133
f 130 132 131
f 121 127 125
f 127 129 130
f 125 130 126
f 127 130 125
f 50 124 53
f 124 126 134
f 53 134 54
f 124 134 53
f 126 131 135
f 131 133 136
f 135 136 137
f 131 136 135
f 54 138 56
f 138 137 139
f 56 139 9
f 138 139 56
f 126 135 134
f 135 137 138
f 134 138 54
f 135 138 134
f 9 139 57
f 140 141 142
f 58 142 59
f 140 142 58
f 141 143 144
f 143 145 146
f 144 146 147
f 143 146 144
f 59 148 62
f 148 147 149
f 62 149 64
f 148 149 62
f 141 144 142
f 144 147 148
f 142 148 59
f 144 148 142
f 150 151 152
f 151 153 154
f 152 154 155
f 151 154 152
f 153 156 157
f 156 78 77
f 157 77 74
f 156 77 157
f 155 158 159
f 158 74 73
f 159 73 64
f 158 73 159
f 153 157 154
f 157 74 158
f 154 158 155
f 157 158 154
f 150 160 151
f 160 161 162
f 151 162 153
f 160 162 151
f 161 163 164
f 163 96 95
f 164 95 92
f 163 95 164
f 153 165 156
f 165 92 91
f 156 91 78
f 165 91 156
f 161 164 162
f 164 92 165
f 162 165 153
f 164 165 162
f 150 166 160
f 166 167 168
f 160 168 161
f 166 168 160
f 167 169 170
f 171 117 116
f 172 116 113
f 171 116 172
f 161 173 163
f 173 174 111
f 163 111 96
f 173 111 163
f 167 170 168
f 170 174 173
f 168 173 161
f 170 173 168
f 150 175 166
f 175 176 177
f 166 177 167
f 175 177 166
f 176 178 179
f 178 145 180
f 179 180 181
f 178 180 179
f 167 182 169
f 183 129 128
f 171 128 117
f 183 128 171
f 176 179 177
f 179 181 182
f 177 182 167
f 179 182 177
f 150 152 175
f 152 155 184
f 175 184 176
f 152 184 175
f 155 159 185
f 159 64 149
f 185 149 147
f 159 149 185
f 176 186 178
f 186 147 146
f 178 146 145
f 186 146 178
f 155 185 184
f 185 147 186
f 184 186 176
f 185 186 184
f 10 61 11
f 11 61 15
f 12 14 13
f 13 14 17
f 11 15 12
f 12 15 14
f 13 17 22
f 22 17 24
f 28 25 29
f 29 25 84
f 29 84 30
f 30 84 86
f 22 24 28
f 28 24 25
f 57 58 10
f 10 58 61
f 30 86 97
f 97 86 87
f 97 87 98
f 98 87 89
f 98 89 100
f 100 89 94
f 100 94 103
f 103 94 102
f 112 111 113
f 113 111 174
f 103 102 112
f 112 102 111
f 129 181 132
f 132 181 180
f 132 180 133
f 133 180 145
f 133 145 136
f 136 145 143
f 136 143 137
f 137 143 141
f 137 141 139
f 139 141 140
f 139 140 57
f 57 140 58
f 113 174 172
f 172 174 170
f 172 170 171
f 171 170 169
f 183 182 129
f 129 182 181
f 171 169 183
f 183 169 182
