v -0.253443 1.21921 -0.0524429
v -0.218573 1.17539 -0.0569173
v -0.224156 1.22418 -0.100125
v -0.195307 1.12596 -0.0699999
v -0.191911 1.17656 -0.108555
v -0.206047 1.21983 -0.153125
v -0.185414 1.07468 -0.0906949
v -0.172198 1.11668 -0.128636
v -0.189649 1.02545 -0.117427
v -0.171507 1.06427 -0.153756
v -0.16855 1.10594 -0.191322
v -0.206047 1.231 -0.193125
v -0.177845 1.17721 -0.212338
v -0.200494 1.21765 -0.247411
v -0.16855 1.11711 -0.231322
v -0.181004 1.15845 -0.267265
v -0.207922 1.19632 -0.298848
v -0.172198 1.12786 -0.168637
v -0.177845 1.16603 -0.172338
v -0.276396 1.25992 -0.0836209
v -0.250396 1.26205 -0.135564
v -0.30655 1.28858 -0.121374
v -0.236329 1.2627 -0.239347
v -0.238827 1.24298 -0.293968
v -0.279793 1.27973 -0.282696
v -0.30655 1.29975 -0.161374
v -0.289166 1.29884 -0.222655
v -0.341611 1.31418 -0.202829
v -0.327703 1.30377 -0.26589
v -0.378908 1.31329 -0.24483
v -0.250396 1.27323 -0.175564
v -0.303099 1.23321 -0.0302138
v -0.330242 1.27119 -0.0648537
v -0.357924 1.2372 -0.0186256
v -0.369013 1.30798 -0.151944
v -0.406646 1.31281 -0.19598
v -0.431671 1.29711 -0.148197
v -0.396022 1.2698 -0.0579258
v -0.413745 1.23087 -0.0185606
v -0.431671 1.28593 -0.108197
v -0.452077 1.2562 -0.0651181
v -0.466311 1.21471 -0.0300236
v -0.369013 1.29681 -0.111944
v -0.267363 1.18097 -0.0137101
v -0.321106 1.19134 0.00585698
v -0.289172 1.1367 0.0131254
v -0.386886 1.18995 0.0127849
v -0.443044 1.17726 0.00479268
v -0.414293 1.13405 0.0263032
v -0.350741 1.13711 0.0294774
v -0.31721 1.08976 0.0260209
v -0.382246 1.08838 0.0328704
v -0.349343 1.04372 0.0239945
v -0.235613 1.13286 -0.0211521
v -0.265248 1.07863 0.00246835
v -0.29772 1.03056 0.00616688
v -0.251675 1.02281 -0.0250712
v -0.2159 1.07298 -0.0412333
v -0.214714 1.02106 -0.0673417
v -0.192211 1.00422 -0.169377
v -0.192211 1.0154 -0.209377
v -0.208382 1.00158 -0.261374
v -0.179072 1.05659 -0.248219
v -0.171507 1.07544 -0.193756
v -0.179072 1.04542 -0.208219
v -0.236932 0.996241 -0.309461
v -0.20566 1.04521 -0.30772
v -0.275688 0.999773 -0.349976
v -0.242515 1.04503 -0.352668
v -0.219122 1.09545 -0.3445
v -0.184719 1.10594 -0.29192
v -0.207291 1.14719 -0.326093
v -0.243027 1.19943 -0.342596
v -0.247452 1.14739 -0.368114
v -0.287875 1.19595 -0.376251
v -0.268393 1.08666 -0.383913
v -0.298955 1.03722 -0.384793
v -0.327707 1.08043 -0.406303
v -0.304538 1.1395 -0.400606
v -0.33905 1.18615 -0.39725
v -0.359754 1.1261 -0.41287
v -0.392657 1.17076 -0.403994
v -0.279348 1.24427 -0.335622
v -0.336434 1.23638 -0.368114
v -0.39129 1.22188 -0.380746
v -0.388378 1.26471 -0.3445
v -0.332186 1.28042 -0.318929
v -0.384143 1.29597 -0.298015
v -0.432933 1.30155 -0.254808
v -0.43862 1.27817 -0.30772
v -0.482243 1.27545 -0.261374
v -0.442869 1.23412 -0.356904
v -0.44428 1.18392 -0.386167
v -0.490325 1.19167 -0.354929
v -0.492217 1.23977 -0.313203
v -0.523086 1.23696 -0.26403
v -0.527286 1.19342 -0.312658
v -0.55235 1.18903 -0.262573
v -0.461381 1.2952 -0.204517
v -0.514977 1.25681 -0.21
v -0.549789 1.21026 -0.210623
v -0.533618 1.22407 -0.158626
v -0.48839 1.25702 -0.110499
v -0.533618 1.2129 -0.118626
v -0.505067 1.21824 -0.070539
v -0.48839 1.26819 -0.150499
v -0.499485 1.16945 -0.0273317
v -0.53634 1.16927 -0.0722802
v -0.522878 1.11903 -0.0355002
v -0.549789 1.19909 -0.170623
v -0.562927 1.15789 -0.131781
v -0.570493 1.15021 -0.226244
v -0.570493 1.13904 -0.186244
v -0.57345 1.09737 -0.148678
v -0.562927 1.16906 -0.171781
v -0.557281 1.10854 -0.0880796
v -0.534709 1.06729 -0.0539073
v -0.560996 1.05603 -0.112735
v -0.534078 1.01816 -0.0811517
v -0.473607 1.12782 0.0039134
v -0.494548 1.06709 -0.011886
v -0.498973 1.01505 -0.0374036
v -0.454125 1.01853 -0.00374918
v -0.437462 1.07499 0.0206059
v -0.40295 1.02833 0.0172497
v -0.35071 0.992598 0.000745997
v -0.405565 0.978105 -0.0118861
v -0.353622 0.949776 -0.0355003
v -0.462652 0.970208 -0.044378
v -0.503173 0.971505 -0.0860317
v -0.462206 0.934754 -0.0973037
v -0.409814 0.934062 -0.0610706
v -0.357856 0.918515 -0.0819851
v -0.414297 0.910707 -0.11411
v -0.363092 0.901196 -0.13517
v -0.299131 0.980357 -0.0230957
v -0.30338 0.936314 -0.0722802
v -0.309067 0.912933 -0.125192
v -0.259756 0.939036 -0.118626
v -0.249783 0.97471 -0.0667973
v -0.218914 0.977518 -0.11597
v -0.227022 0.957676 -0.17
v -0.208382 0.99041 -0.221374
v -0.280619 0.91928 -0.175483
v -0.335353 0.901674 -0.18402
v -0.310329 0.917376 -0.231803
v -0.25361 0.957463 -0.269501
v -0.310329 0.92855 -0.271803
v -0.289923 0.958279 -0.314882
v -0.25361 0.946289 -0.229501
v -0.488557 0.995271 -0.327557
v -0.474637 1.03351 -0.36629
v -0.438901 0.981267 -0.349786
v -0.452828 1.07778 -0.393125
v -0.420894 1.02314 -0.385857
v -0.384076 0.977278 -0.361374
v -0.42479 1.12472 -0.406021
v -0.391259 1.07737 -0.409477
v -0.355114 1.02453 -0.392785
v -0.328255 0.983607 -0.361439
v -0.523427 1.03909 -0.323083
v -0.546693 1.08852 -0.31
v -0.506387 1.08162 -0.358848
v -0.556586 1.1398 -0.289305
v -0.5261 1.1415 -0.338767
v -0.476752 1.13585 -0.382468
v -0.517844 0.9903 -0.279875
v -0.535953 0.994656 -0.226875
v -0.550089 1.03792 -0.271445
v -0.535953 0.983482 -0.186875
v -0.541505 0.996833 -0.132589
v -0.564155 1.03728 -0.167662
v -0.569802 1.0978 -0.251363
v -0.57345 1.10855 -0.188678
v -0.564155 1.04845 -0.207662
v -0.569802 1.08662 -0.211363
v -0.465604 0.954563 -0.296379
v -0.43545 0.925903 -0.258626
v -0.491604 0.952429 -0.244436
v -0.43545 0.914729 -0.218626
v -0.400389 0.900299 -0.177171
v -0.452833 0.915637 -0.157345
v -0.505671 0.951782 -0.140653
v -0.491604 0.941255 -0.204436
v -0.411757 0.943293 -0.315146
v -0.345977 0.944684 -0.322074
v -0.372987 0.906501 -0.228056
v -0.372987 0.917675 -0.268056
f 1 2 3
f 2 4 5
f 3 5 6
f 2 5 3
f 4 7 8
f 7 9 10
f 8 10 11
f 7 10 8
f 12 13 14
f 13 15 16
f 14 16 17
f 13 16 14
f 4 8 5
f 18 15 13
f 5 19 6
f 8 19 5
f 1 3 20
f 3 6 21
f 20 21 22
f 3 21 20
f 12 14 23
f 14 17 24
f 23 24 25
f 14 24 23
f 26 27 28
f 27 25 29
f 28 29 30
f 27 29 28
f 12 23 31
f 23 25 27
f 31 27 26
f 23 27 31
f 1 20 32
f 20 22 33
f 32 33 34
f 20 33 32
f 26 28 35
f 28 30 36
f 35 36 37
f 28 36 35
f 34 38 39
f 38 40 41
f 39 41 42
f 38 41 39
f 22 43 33
f 43 40 38
f 33 38 34
f 43 38 33
f 1 32 44
f 32 34 45
f 44 45 46
f 32 45 44
f 34 39 47
f 39 42 48
f 47 48 49
f 39 48 47
f 46 50 51
f 50 49 52
f 51 52 53
f 50 52 51
f 34 47 45
f 47 49 50
f 45 50 46
f 47 50 45
f 1 44 2
f 44 46 54
f 2 54 4
f 44 54 2
f 46 51 55
f 51 53 56
f 55 56 57
f 51 56 55
f 4 58 7
f 58 57 59
f 7 59 9
f 58 59 7
f 46 55 54
f 55 57 58
f 54 58 4
f 55 58 54
f 9 60 10
f 61 62 63
f 64 63 15
f 60 65 10
f 62 66 67
f 66 68 69
f 67 69 70
f 66 69 67
f 15 71 16
f 71 70 72
f 16 72 17
f 71 72 16
f 62 67 63
f 67 70 71
f 63 71 15
f 67 71 63
f 17 72 73
f 72 70 74
f 73 74 75
f 72 74 73
f 70 69 76
f 69 68 77
f 76 77 78
f 69 77 76
f 75 79 80
f 79 78 81
f 80 81 82
f 79 81 80
f 70 76 74
f 76 78 79
f 74 79 75
f 76 79 74
f 17 73 24
f 73 75 83
f 24 83 25
f 73 83 24
f 75 80 84
f 80 82 85
f 84 85 86
f 80 85 84
f 25 87 29
f 87 86 88
f 29 88 30
f 87 88 29
f 75 84 83
f 84 86 87
f 83 87 25
f 84 87 83
f 30 88 89
f 88 86 90
f 89 90 91
f 88 90 89
f 86 85 92
f 85 82 93
f 92 93 94
f 85 93 92
f 91 95 96
f 95 94 97
f 96 97 98
f 95 97 96
f 86 92 90
f 92 94 95
f 90 95 91
f 92 95 90
f 30 89 36
f 89 91 99
f 36 99 37
f 89 99 36
f 91 96 100
f 96 98 101
f 100 101 102
f 96 101 100
f 40 103 41
f 103 104 105
f 41 105 42
f 103 105 41
f 91 100 99
f 100 102 106
f 99 106 37
f 100 106 99
f 42 105 107
f 105 104 108
f 107 108 109
f 105 108 107
f 104 110 111
f 101 98 112
f 111 113 114
f 101 112 115
f 109 116 117
f 116 114 118
f 117 118 119
f 116 118 117
f 104 111 108
f 111 114 116
f 108 116 109
f 111 116 108
f 42 107 48
f 107 109 120
f 48 120 49
f 107 120 48
f 109 117 121
f 117 119 122
f 121 122 123
f 117 122 121
f 49 124 52
f 124 123 125
f 52 125 53
f 124 125 52
f 109 121 120
f 121 123 124
f 120 124 49
f 121 124 120
f 53 125 126
f 125 123 127
f 126 127 128
f 125 127 126
f 123 122 129
f 122 119 130
f 129 130 131
f 122 130 129
f 128 132 133
f 132 131 134
f 133 134 135
f 132 134 133
f 123 129 127
f 129 131 132
f 127 132 128
f 129 132 127
f 53 126 56
f 126 128 136
f 56 136 57
f 126 136 56
f 128 133 137
f 133 135 138
f 137 138 139
f 133 138 137
f 57 140 59
f 140 139 141
f 59 141 9
f 140 141 59
f 128 137 136
f 137 139 140
f 136 140 57
f 137 140 136
f 9 141 60
f 141 139 142
f 60 142 143
f 141 142 60
f 139 138 144
f 138 135 145
f 144 145 146
f 138 145 144
f 62 147 66
f 147 148 149
f 66 149 68
f 147 149 66
f 139 144 142
f 144 146 150
f 142 150 143
f 144 150 142
f 151 152 153
f 152 154 155
f 153 155 156
f 152 155 153
f 154 157 158
f 157 82 81
f 158 81 78
f 157 81 158
f 156 159 160
f 159 78 77
f 160 77 68
f 159 77 160
f 154 158 155
f 158 78 159
f 155 159 156
f 158 159 155
f 151 161 152
f 161 162 163
f 152 163 154
f 161 163 152
f 162 164 165
f 164 98 97
f 165 97 94
f 164 97 165
f 154 166 157
f 166 94 93
f 157 93 82
f 166 93 157
f 162 165 163
f 165 94 166
f 163 166 154
f 165 166 163
f 151 167 161
f 167 168 169
f 161 169 162
f 167 169 161
f 170 171 172
f 171 119 118
f 172 118 114
f 171 118 172
f 162 173 164
f 173 174 112
f 164 112 98
f 173 112 164
f 168 175 169
f 172 114 176
f 169 173 162
f 175 173 169
f 151 177 167
f 177 178 179
f 167 179 168
f 177 179 167
f 180 181 182
f 181 135 134
f 182 134 131
f 181 134 182
f 170 183 171
f 183 131 130
f 171 130 119
f 183 130 171
f 180 182 184
f 182 131 183
f 184 183 170
f 182 183 184
f 151 153 177
f 153 156 185
f 177 185 178
f 153 185 177
f 156 160 186
f 160 68 149
f 186 149 148
f 160 149 186
f 180 187 181
f 187 146 145
f 181 145 135
f 187 145 181
f 156 186 185
f 186 148 188
f 185 188 178
f 186 188 185
f 10 64 11
f 11 64 15
f 11 15 8
f 8 15 18
f 19 13 6
f 6 13 12
f 8 18 19
f 19 18 13
f 6 12 21
f 21 12 31
f 21 31 22
f 22 31 26
f 22 26 43
f 43 26 35
f 43 35 40
f 40 35 37
f 60 61 65
f 65 61 63
f 65 63 10
f 10 63 64
f 40 37 103
f 103 37 106
f 103 106 104
f 104 106 102
f 104 102 110
f 110 102 101
f 110 101 111
f 111 101 115
f 111 115 113
f 113 115 112
f 113 112 114
f 114 112 174
f 143 62 60
f 60 62 61
f 146 148 150
f 150 148 147
f 150 147 143
f 143 147 62
f 172 175 170
f 170 175 168
f 114 174 176
f 176 174 173
f 176 173 172
f 172 173 175
f 184 179 180
f 180 179 178
f 170 168 184
f 184 168 179
f 180 178 187
f 187 178 188
f 187 188 146
f 146 188 148
