v -0.253443 1.23038 -0.0924429
v -0.218573 1.18657 -0.0969173
v -0.224156 1.23536 -0.140125
v -0.195307 1.13713 -0.11
v -0.191911 1.18773 -0.148555
v -0.206047 1.231 -0.193125
v -0.185414 1.08585 -0.130695
v -0.172198 1.12786 -0.168637
v -0.189649 1.03662 -0.157427
v -0.171507 1.07544 -0.193756
v -0.16855 1.11711 -0.231322
v -0.206047 1.231 -0.273125
v -0.177845 1.17721 -0.292338
v -0.200494 1.21765 -0.327411
v -0.16855 1.11711 -0.311322
v -0.181004 1.15845 -0.347265
v -0.207922 1.19632 -0.378848
v -0.177845 1.17721 -0.212338
v -0.276396 1.27109 -0.123621
v -0.250396 1.27323 -0.175564
v -0.30655 1.29975 -0.161374
v -0.236329 1.2627 -0.319347
v -0.238827 1.24298 -0.373968
v -0.279793 1.27973 -0.362696
v -0.289166 1.29884 -0.222655
v -0.341611 1.31418 -0.202829
v -0.289166 1.29884 -0.302655
v -0.327703 1.30377 -0.34589
v -0.341611 1.31418 -0.282829
v -0.378908 1.31329 -0.32483
v -0.236329 1.2627 -0.239347
v -0.250396 1.27323 -0.255564
v -0.303099 1.24439 -0.0702138
v -0.330242 1.28236 -0.104854
v -0.357924 1.24838 -0.0586256
v -0.369013 1.30798 -0.151944
v -0.406646 1.31281 -0.27598
v -0.406646 1.31281 -0.19598
v -0.431671 1.29711 -0.148197
v -0.396022 1.28097 -0.0979258
v -0.413745 1.24205 -0.0585606
v -0.452077 1.26738 -0.105118
v -0.466311 1.22588 -0.0700236
v -0.267363 1.19215 -0.0537101
v -0.321106 1.20252 -0.034143
v -0.289172 1.14787 -0.0268746
v -0.386886 1.20112 -0.0272151
v -0.443044 1.18843 -0.0352073
v -0.414293 1.14523 -0.0136968
v -0.350741 1.14829 -0.0105226
v -0.31721 1.10093 -0.0139792
v -0.382246 1.09956 -0.00712961
v -0.349343 1.0549 -0.0160055
v -0.235613 1.14403 -0.0611521
v -0.265248 1.0898 -0.0375317
v -0.29772 1.04173 -0.0338331
v -0.251675 1.03398 -0.0650712
v -0.2159 1.08416 -0.0812333
v -0.214714 1.03224 -0.107342
v -0.192211 1.0154 -0.209377
v -0.192211 1.0154 -0.289377
v -0.208382 1.00158 -0.341374
v -0.179072 1.05659 -0.328219
v -0.171507 1.07544 -0.273756
v -0.236932 0.996241 -0.389461
v -0.20566 1.04521 -0.38772
v -0.275688 0.999773 -0.429976
v -0.242515 1.04503 -0.432668
v -0.219122 1.09545 -0.4245
v -0.184719 1.10594 -0.37192
v -0.207291 1.14719 -0.406093
v -0.243027 1.19943 -0.422596
v -0.247452 1.14739 -0.448114
v -0.287875 1.19595 -0.456251
v -0.268393 1.08666 -0.463913
v -0.298955 1.03722 -0.464793
v -0.327707 1.08043 -0.486303
v -0.304538 1.1395 -0.480606
v -0.33905 1.18615 -0.47725
v -0.359754 1.1261 -0.49287
v -0.392657 1.17076 -0.483994
v -0.279348 1.24427 -0.415622
v -0.336434 1.23638 -0.448114
v -0.39129 1.22188 -0.460746
v -0.388378 1.26471 -0.4245
v -0.332186 1.28042 -0.398929
v -0.384143 1.29597 -0.378015
v -0.432933 1.30155 -0.334808
v -0.43862 1.27817 -0.38772
v -0.482243 1.27545 -0.341374
v -0.442869 1.23412 -0.436904
v -0.44428 1.18392 -0.466167
v -0.490325 1.19167 -0.434929
v -0.492217 1.23977 -0.393203
v -0.523086 1.23696 -0.34403
v -0.527286 1.19342 -0.392658
v -0.55235 1.18903 -0.342573
v -0.461381 1.2952 -0.284517
v -0.461381 1.2952 -0.204517
v -0.514977 1.25681 -0.29
v -0.549789 1.21026 -0.290623
v -0.514977 1.25681 -0.21
v -0.549789 1.21026 -0.210623
v -0.533618 1.22407 -0.158626
v -0.48839 1.26819 -0.150499
v -0.505067 1.22941 -0.110539
v -0.499485 1.18062 -0.0673317
v -0.53634 1.18045 -0.11228
v -0.522878 1.13021 -0.0755003
v -0.562927 1.16906 -0.171781
v -0.570493 1.15021 -0.306244
v -0.570493 1.15021 -0.226244
v -0.57345 1.10855 -0.188678
v -0.557281 1.11971 -0.12808
v -0.534709 1.07846 -0.0939073
v -0.560996 1.06721 -0.152735
v -0.534078 1.02934 -0.121152
v -0.473607 1.139 -0.0360866
v -0.494548 1.07826 -0.0518861
v -0.498973 1.02622 -0.0774036
v -0.454125 1.0297 -0.0437492
v -0.437462 1.08616 -0.0193941
v -0.40295 1.03951 -0.0227503
v -0.35071 1.00377 -0.039254
v -0.405565 0.989279 -0.0518861
v -0.353622 0.96095 -0.0755003
v -0.462652 0.981382 -0.0843781
v -0.503173 0.982679 -0.126032
v -0.462206 0.945928 -0.137304
v -0.409814 0.945236 -0.101071
v -0.357856 0.92969 -0.121985
v -0.414297 0.921881 -0.15411
v -0.363092 0.91237 -0.17517
v -0.299131 0.991531 -0.0630957
v -0.30338 0.947488 -0.11228
v -0.309067 0.924107 -0.165192
v -0.259756 0.95021 -0.158626
v -0.249783 0.985884 -0.106797
v -0.218914 0.988692 -0.15597
v -0.227022 0.96885 -0.21
v -0.227022 0.96885 -0.29
v -0.280619 0.930454 -0.215483
v -0.335353 0.912848 -0.22402
v -0.280619 0.930454 -0.295483
v -0.335353 0.912848 -0.30402
v -0.310329 0.92855 -0.351803
v -0.25361 0.957463 -0.349501
v -0.289923 0.958279 -0.394882
v -0.488557 0.995271 -0.407557
v -0.474637 1.03351 -0.44629
v -0.438901 0.981267 -0.429786
v -0.452828 1.07778 -0.473125
v -0.420894 1.02314 -0.465857
v -0.384076 0.977278 -0.441374
v -0.42479 1.12472 -0.486021
v -0.391259 1.07737 -0.489477
v -0.355114 1.02453 -0.472785
v -0.328255 0.983607 -0.441439
v -0.523427 1.03909 -0.403083
v -0.546693 1.08852 -0.39
v -0.506387 1.08162 -0.438848
v -0.556586 1.1398 -0.369305
v -0.5261 1.1415 -0.418767
v -0.476752 1.13585 -0.462468
v -0.517844 0.9903 -0.359875
v -0.535953 0.994656 -0.306875
v -0.550089 1.03792 -0.351445
v -0.535953 0.994656 -0.226875
v -0.541505 1.00801 -0.172589
v -0.564155 1.04845 -0.207662
v -0.569802 1.0978 -0.331363
v -0.57345 1.10855 -0.268678
v -0.564155 1.04845 -0.287662
v -0.465604 0.954563 -0.376379
v -0.43545 0.925903 -0.338626
v -0.491604 0.952429 -0.324436
v -0.400389 0.911473 -0.297171
v -0.452833 0.926811 -0.277345
v -0.400389 0.911473 -0.217171
v -0.452833 0.926811 -0.197345
v -0.505671 0.962956 -0.180653
v -0.505671 0.962956 -0.260653
v -0.491604 0.952429 -0.244436
v -0.411757 0.943293 -0.395146
v -0.345977 0.944684 -0.402074
v -0.372987 0.917675 -0.348056
f 1 2 3
f 2 4 5
f 3 5 6
f 2 5 3
f 4 7 8
f 7 9 10
f 8 10 11
f 7 10 8
f 12 13 14
f 13 15 16
f 14 16 17
f 13 16 14
f 4 8 5
f 8 11 18
f 5 18 6
f 8 18 5
f 1 3 19
f 3 6 20
f 19 20 21
f 3 20 19
f 12 14 22
f 14 17 23
f 22 23 24
f 14 23 22
f 21 25 26
f 27 24 28
f 29 28 30
f 27 28 29
f 6 31 20
f 22 24 27
f 20 25 21
f 22 27 32
f 1 19 33
f 19 21 34
f 33 34 35
f 19 34 33
f 21 26 36
f 29 30 37
f 36 38 39
f 26 38 36
f 35 40 41
f 40 39 42
f 41 42 43
f 40 42 41
f 21 36 34
f 36 39 40
f 34 40 35
f 36 40 34
f 1 33 44
f 33 35 45
f 44 45 46
f 33 45 44
f 35 41 47
f 41 43 48
f 47 48 49
f 41 48 47
f 46 50 51
f 50 49 52
f 51 52 53
f 50 52 51
f 35 47 45
f 47 49 50
f 45 50 46
f 47 50 45
f 1 44 2
f 44 46 54
f 2 54 4
f 44 54 2
f 46 51 55
f 51 53 56
f 55 56 57
f 51 56 55
f 4 58 7
f 58 57 59
f 7 59 9
f 58 59 7
f 46 55 54
f 55 57 58
f 54 58 4
f 55 58 54
f 9 60 10
f 61 62 63
f 64 63 15
f 61 63 64
f 62 65 66
f 65 67 68
f 66 68 69
f 65 68 66
f 15 70 16
f 70 69 71
f 16 71 17
f 70 71 16
f 62 66 63
f 66 69 70
f 63 70 15
f 66 70 63
f 17 71 72
f 71 69 73
f 72 73 74
f 71 73 72
f 69 68 75
f 68 67 76
f 75 76 77
f 68 76 75
f 74 78 79
f 78 77 80
f 79 80 81
f 78 80 79
f 69 75 73
f 75 77 78
f 73 78 74
f 75 78 73
f 17 72 23
f 72 74 82
f 23 82 24
f 72 82 23
f 74 79 83
f 79 81 84
f 83 84 85
f 79 84 83
f 24 86 28
f 86 85 87
f 28 87 30
f 86 87 28
f 74 83 82
f 83 85 86
f 82 86 24
f 83 86 82
f 30 87 88
f 87 85 89
f 88 89 90
f 87 89 88
f 85 84 91
f 84 81 92
f 91 92 93
f 84 92 91
f 90 94 95
f 94 93 96
f 95 96 97
f 94 96 95
f 85 91 89
f 91 93 94
f 89 94 90
f 91 94 89
f 30 88 37
f 88 90 98
f 38 99 39
f 88 98 37
f 90 95 100
f 95 97 101
f 102 103 104
f 95 101 100
f 39 105 42
f 105 104 106
f 42 106 43
f 105 106 42
f 90 100 98
f 102 104 105
f 99 105 39
f 102 105 99
f 43 106 107
f 106 104 108
f 107 108 109
f 106 108 107
f 104 103 110
f 101 97 111
f 110 112 113
f 103 112 110
f 109 114 115
f 114 113 116
f 115 116 117
f 114 116 115
f 104 110 108
f 110 113 114
f 108 114 109
f 110 114 108
f 43 107 48
f 107 109 118
f 48 118 49
f 107 118 48
f 109 115 119
f 115 117 120
f 119 120 121
f 115 120 119
f 49 122 52
f 122 121 123
f 52 123 53
f 122 123 52
f 109 119 118
f 119 121 122
f 118 122 49
f 119 122 118
f 53 123 124
f 123 121 125
f 124 125 126
f 123 125 124
f 121 120 127
f 120 117 128
f 127 128 129
f 120 128 127
f 126 130 131
f 130 129 132
f 131 132 133
f 130 132 131
f 121 127 125
f 127 129 130
f 125 130 126
f 127 130 125
f 53 124 56
f 124 126 134
f 56 134 57
f 124 134 56
f 126 131 135
f 131 133 136
f 135 136 137
f 131 136 135
f 57 138 59
f 138 137 139
f 59 139 9
f 138 139 59
f 126 135 134
f 135 137 138
f 134 138 57
f 135 138 134
f 9 139 60
f 139 137 140
f 61 141 62
f 139 140 60
f 137 136 142
f 136 133 143
f 144 145 146
f 136 143 142
f 62 147 65
f 147 146 148
f 65 148 67
f 147 148 65
f 137 142 140
f 144 146 147
f 141 147 62
f 144 147 141
f 149 150 151
f 150 152 153
f 151 153 154
f 150 153 151
f 152 155 156
f 155 81 80
f 156 80 77
f 155 80 156
f 154 157 158
f 157 77 76
f 158 76 67
f 157 76 158
f 152 156 153
f 156 77 157
f 153 157 154
f 156 157 153
f 149 159 150
f 159 160 161
f 150 161 152
f 159 161 150
f 160 162 163
f 162 97 96
f 163 96 93
f 162 96 163
f 152 164 155
f 164 93 92
f 155 92 81
f 164 92 155
f 160 163 161
f 163 93 164
f 161 164 152
f 163 164 161
f 149 165 159
f 165 166 167
f 159 167 160
f 165 167 159
f 168 169 170
f 169 117 116
f 170 116 113
f 169 116 170
f 160 171 162
f 171 172 111
f 162 111 97
f 171 111 162
f 166 173 167
f 173 172 171
f 167 171 160
f 173 171 167
f 149 174 165
f 174 175 176
f 165 176 166
f 174 176 165
f 175 177 178
f 179 133 132
f 180 132 129
f 179 132 180
f 168 181 169
f 181 129 128
f 169 128 117
f 181 128 169
f 175 178 176
f 180 129 181
f 176 182 166
f 180 181 183
f 149 151 174
f 151 154 184
f 174 184 175
f 151 184 174
f 154 158 185
f 158 67 148
f 185 148 146
f 158 148 185
f 175 186 177
f 186 146 145
f 179 143 133
f 186 145 177
f 154 185 184
f 185 146 186
f 184 186 175
f 185 186 184
f 10 64 11
f 11 64 15
f 11 15 18
f 18 15 13
f 18 13 6
f 6 13 12
f 25 27 26
f 26 27 29
f 6 12 31
f 31 12 22
f 31 22 20
f 20 22 32
f 20 32 25
f 25 32 27
f 26 29 38
f 38 29 37
f 60 61 10
f 10 61 64
f 38 37 99
f 99 37 98
f 102 100 103
f 103 100 101
f 99 98 102
f 102 98 100
f 112 111 113
f 113 111 172
f 103 101 112
f 112 101 111
f 140 141 60
f 60 141 61
f 143 145 142
f 142 145 144
f 142 144 140
f 140 144 141
f 170 173 168
f 168 173 166
f 113 172 170
f 170 172 173
f 180 178 179
f 179 178 177
f 168 166 181
f 181 166 182
f 181 182 183
f 183 182 176
f 183 176 180
f 180 176 178
f 179 177 143
f 143 177 145
