v -0.253443 1.23038 -0.172443
v -0.218573 1.18657 -0.176917
v -0.224156 1.23536 -0.220125
v -0.195307 1.13713 -0.19
v -0.191911 1.18773 -0.228555
v -0.206047 1.231 -0.273125
v -0.185414 1.08585 -0.210695
v -0.172198 1.12786 -0.248636
v -0.189649 1.03662 -0.237427
v -0.171507 1.07544 -0.273756
v -0.16855 1.11711 -0.311322
v -0.177845 1.17721 -0.292338
v -0.200494 1.21765 -0.327411
v -0.177845 1.13716 -0.412338
v -0.16855 1.07706 -0.431322
v -0.181004 1.1184 -0.467265
v -0.200494 1.1776 -0.447411
v -0.207922 1.15627 -0.498848
v -0.276396 1.27109 -0.203621
v -0.250396 1.27323 -0.255564
v -0.30655 1.29975 -0.241374
v -0.236329 1.2627 -0.319347
v -0.238827 1.20293 -0.493968
v -0.236329 1.22265 -0.439347
v -0.279793 1.23968 -0.482696
v -0.289166 1.29884 -0.302655
v -0.341611 1.31418 -0.282829
v -0.279793 1.27973 -0.362696
v -0.327703 1.30377 -0.34589
v -0.378908 1.31329 -0.32483
v -0.303099 1.24439 -0.150214
v -0.330242 1.28236 -0.184854
v -0.357924 1.24838 -0.138626
v -0.369013 1.30798 -0.231944
v -0.406646 1.31281 -0.27598
v -0.431671 1.29711 -0.228197
v -0.396022 1.28097 -0.177926
v -0.413745 1.24205 -0.138561
v -0.452077 1.26738 -0.185118
v -0.466311 1.22588 -0.150024
v -0.267363 1.19215 -0.13371
v -0.321106 1.20252 -0.114143
v -0.289172 1.14787 -0.106875
v -0.386886 1.20112 -0.107215
v -0.443044 1.18843 -0.115207
v -0.414293 1.14523 -0.0936968
v -0.350741 1.14829 -0.0905226
v -0.31721 1.10093 -0.0939792
v -0.382246 1.09956 -0.0871296
v -0.349343 1.0549 -0.0960055
v -0.235613 1.14403 -0.141152
v -0.265248 1.0898 -0.117532
v -0.29772 1.04173 -0.113833
v -0.251675 1.03398 -0.145071
v -0.2159 1.08416 -0.161233
v -0.214714 1.03224 -0.187342
v -0.189649 0.996578 -0.357427
v -0.192211 0.97535 -0.409377
v -0.171507 1.0354 -0.393756
v -0.208382 0.961539 -0.461374
v -0.179072 1.01655 -0.448219
v -0.236932 0.956196 -0.509461
v -0.20566 1.00516 -0.50772
v -0.275688 0.959727 -0.549976
v -0.242515 1.00499 -0.552668
v -0.219122 1.0554 -0.5445
v -0.184719 1.0659 -0.49192
v -0.207291 1.10715 -0.526093
v -0.243027 1.15939 -0.542596
v -0.247452 1.10735 -0.568114
v -0.287875 1.15591 -0.576251
v -0.268393 1.04661 -0.583913
v -0.298955 0.997177 -0.584793
v -0.327707 1.04038 -0.606303
v -0.304538 1.09945 -0.600606
v -0.33905 1.1461 -0.59725
v -0.359754 1.08605 -0.61287
v -0.392657 1.13071 -0.603994
v -0.279348 1.20423 -0.535622
v -0.336434 1.19633 -0.568114
v -0.39129 1.18184 -0.580746
v -0.388378 1.22466 -0.5445
v -0.332186 1.24037 -0.518929
v -0.327703 1.26373 -0.46589
v -0.384143 1.25592 -0.498015
v -0.384143 1.29597 -0.378015
v -0.432933 1.30155 -0.334808
v -0.43862 1.23812 -0.50772
v -0.432933 1.2615 -0.454808
v -0.482243 1.2354 -0.461374
v -0.442869 1.19408 -0.556904
v -0.44428 1.14388 -0.586167
v -0.490325 1.15163 -0.554929
v -0.492217 1.19973 -0.513203
v -0.523086 1.19692 -0.46403
v -0.527286 1.15337 -0.512658
v -0.55235 1.14899 -0.462573
v -0.482243 1.27545 -0.341374
v -0.461381 1.2952 -0.284517
v -0.523086 1.23696 -0.34403
v -0.514977 1.25681 -0.29
v -0.55235 1.18903 -0.342573
v -0.549789 1.21026 -0.290623
v -0.533618 1.22407 -0.238626
v -0.48839 1.26819 -0.230499
v -0.505067 1.22941 -0.190539
v -0.499485 1.18062 -0.147332
v -0.53634 1.18045 -0.19228
v -0.522878 1.13021 -0.1555
v -0.562927 1.16906 -0.251781
v -0.570493 1.15021 -0.306244
v -0.57345 1.10855 -0.268678
v -0.557281 1.11971 -0.20808
v -0.534709 1.07846 -0.173907
v -0.560996 1.06721 -0.232735
v -0.534078 1.02934 -0.201152
v -0.473607 1.139 -0.116087
v -0.494548 1.07826 -0.131886
v -0.498973 1.02622 -0.157404
v -0.454125 1.0297 -0.123749
v -0.437462 1.08616 -0.0993941
v -0.40295 1.03951 -0.10275
v -0.35071 1.00377 -0.119254
v -0.405565 0.989279 -0.131886
v -0.353622 0.96095 -0.1555
v -0.462652 0.981382 -0.164378
v -0.503173 0.982679 -0.206032
v -0.462206 0.945928 -0.217304
v -0.409814 0.945236 -0.181071
v -0.357856 0.92969 -0.201985
v -0.414297 0.921881 -0.23411
v -0.357856 0.889644 -0.321985
v -0.414297 0.881835 -0.354109
v -0.363092 0.872324 -0.37517
v -0.299131 0.991531 -0.143096
v -0.30338 0.947488 -0.19228
v -0.309067 0.884061 -0.365192
v -0.309067 0.924107 -0.245192
v -0.259756 0.95021 -0.238626
v -0.249783 0.985884 -0.186797
v -0.218914 0.988692 -0.23597
v -0.218914 0.948646 -0.35597
v -0.259756 0.910164 -0.358626
v -0.227022 0.928805 -0.41
v -0.280619 0.890408 -0.415483
v -0.335353 0.872803 -0.42402
v -0.310329 0.888504 -0.471803
v -0.25361 0.917417 -0.469501
v -0.289923 0.918233 -0.514882
v -0.488557 0.955225 -0.527557
v -0.474637 0.993461 -0.56629
v -0.438901 0.941221 -0.549786
v -0.452828 1.03774 -0.593125
v -0.420894 0.983094 -0.585857
v -0.384076 0.937232 -0.561374
v -0.42479 1.08468 -0.606021
v -0.391259 1.03732 -0.609477
v -0.355114 0.984485 -0.592785
v -0.328255 0.943561 -0.561439
v -0.523427 0.999044 -0.523083
v -0.546693 1.04848 -0.51
v -0.506387 1.04158 -0.558848
v -0.556586 1.09976 -0.489305
v -0.5261 1.10145 -0.538767
v -0.476752 1.09581 -0.582468
v -0.517844 0.950254 -0.479875
v -0.535953 0.95461 -0.426875
v -0.550089 0.997877 -0.471445
v -0.541505 0.967962 -0.372589
v -0.564155 1.0084 -0.407662
v -0.541505 1.00801 -0.252589
v -0.564155 1.04845 -0.287662
v -0.569802 1.05775 -0.451363
v -0.57345 1.0685 -0.388678
v -0.570493 1.11017 -0.426244
v -0.465604 0.914518 -0.496379
v -0.43545 0.885858 -0.458626
v -0.491604 0.912383 -0.444436
v -0.400389 0.871427 -0.417171
v -0.452833 0.886766 -0.397345
v -0.462206 0.905882 -0.337304
v -0.505671 0.922911 -0.380653
v -0.505671 0.962956 -0.260653
v -0.411757 0.903247 -0.515146
v -0.345977 0.904639 -0.522074
v -0.372987 0.877629 -0.468056
f 1 2 3
f 2 4 5
f 3 5 6
f 2 5 3
f 4 7 8
f 7 9 10
f 8 10 11
f 7 10 8
f 6 12 13
f 14 15 16
f 17 16 18
f 14 16 17
f 4 8 5
f 8 11 12
f 5 12 6
f 8 12 5
f 1 3 19
f 3 6 20
f 19 20 21
f 3 20 19
f 6 13 22
f 17 18 23
f 24 23 25
f 17 23 24
f 21 26 27
f 26 28 29
f 27 29 30
f 26 29 27
f 6 22 20
f 22 28 26
f 20 26 21
f 22 26 20
f 1 19 31
f 19 21 32
f 31 32 33
f 19 32 31
f 21 27 34
f 27 30 35
f 34 35 36
f 27 35 34
f 33 37 38
f 37 36 39
f 38 39 40
f 37 39 38
f 21 34 32
f 34 36 37
f 32 37 33
f 34 37 32
f 1 31 41
f 31 33 42
f 41 42 43
f 31 42 41
f 33 38 44
f 38 40 45
f 44 45 46
f 38 45 44
f 43 47 48
f 47 46 49
f 48 49 50
f 47 49 48
f 33 44 42
f 44 46 47
f 42 47 43
f 44 47 42
f 1 41 2
f 41 43 51
f 2 51 4
f 41 51 2
f 43 48 52
f 48 50 53
f 52 53 54
f 48 53 52
f 4 55 7
f 55 54 56
f 7 56 9
f 55 56 7
f 43 52 51
f 52 54 55
f 51 55 4
f 52 55 51
f 57 58 59
f 58 60 61
f 59 61 15
f 58 61 59
f 60 62 63
f 62 64 65
f 63 65 66
f 62 65 63
f 15 67 16
f 67 66 68
f 16 68 18
f 67 68 16
f 60 63 61
f 63 66 67
f 61 67 15
f 63 67 61
f 18 68 69
f 68 66 70
f 69 70 71
f 68 70 69
f 66 65 72
f 65 64 73
f 72 73 74
f 65 73 72
f 71 75 76
f 75 74 77
f 76 77 78
f 75 77 76
f 66 72 70
f 72 74 75
f 70 75 71
f 72 75 70
f 18 69 23
f 69 71 79
f 23 79 25
f 69 79 23
f 71 76 80
f 76 78 81
f 80 81 82
f 76 81 80
f 25 83 84
f 83 82 85
f 29 86 30
f 83 85 84
f 71 80 79
f 80 82 83
f 79 83 25
f 80 83 79
f 30 86 87
f 85 82 88
f 89 88 90
f 85 88 89
f 82 81 91
f 81 78 92
f 91 92 93
f 81 92 91
f 90 94 95
f 94 93 96
f 95 96 97
f 94 96 95
f 82 91 88
f 91 93 94
f 88 94 90
f 91 94 88
f 30 87 35
f 87 98 99
f 35 99 36
f 87 99 35
f 98 100 101
f 100 102 103
f 101 103 104
f 100 103 101
f 36 105 39
f 105 104 106
f 39 106 40
f 105 106 39
f 98 101 99
f 101 104 105
f 99 105 36
f 101 105 99
f 40 106 107
f 106 104 108
f 107 108 109
f 106 108 107
f 104 103 110
f 103 102 111
f 110 111 112
f 103 111 110
f 109 113 114
f 113 112 115
f 114 115 116
f 113 115 114
f 104 110 108
f 110 112 113
f 108 113 109
f 110 113 108
f 40 107 45
f 107 109 117
f 45 117 46
f 107 117 45
f 109 114 118
f 114 116 119
f 118 119 120
f 114 119 118
f 46 121 49
f 121 120 122
f 49 122 50
f 121 122 49
f 109 118 117
f 118 120 121
f 117 121 46
f 118 121 117
f 50 122 123
f 122 120 124
f 123 124 125
f 122 124 123
f 120 119 126
f 119 116 127
f 126 127 128
f 119 127 126
f 125 129 130
f 129 128 131
f 132 133 134
f 129 131 130
f 120 126 124
f 126 128 129
f 124 129 125
f 126 129 124
f 50 123 53
f 123 125 135
f 53 135 54
f 123 135 53
f 125 130 136
f 132 134 137
f 136 138 139
f 130 138 136
f 54 140 56
f 140 139 141
f 56 141 9
f 140 141 56
f 125 136 135
f 136 139 140
f 135 140 54
f 136 140 135
f 57 142 58
f 142 143 144
f 58 144 60
f 142 144 58
f 143 137 145
f 137 134 146
f 145 146 147
f 137 146 145
f 60 148 62
f 148 147 149
f 62 149 64
f 148 149 62
f 143 145 144
f 145 147 148
f 144 148 60
f 145 148 144
f 150 151 152
f 151 153 154
f 152 154 155
f 151 154 152
f 153 156 157
f 156 78 77
f 157 77 74
f 156 77 157
f 155 158 159
f 158 74 73
f 159 73 64
f 158 73 159
f 153 157 154
f 157 74 158
f 154 158 155
f 157 158 154
f 150 160 151
f 160 161 162
f 151 162 153
f 160 162 151
f 161 163 164
f 163 97 96
f 164 96 93
f 163 96 164
f 153 165 156
f 165 93 92
f 156 92 78
f 165 92 156
f 161 164 162
f 164 93 165
f 162 165 153
f 164 165 162
f 150 166 160
f 166 167 168
f 160 168 161
f 166 168 160
f 167 169 170
f 171 116 115
f 172 115 112
f 171 115 172
f 161 173 163
f 173 174 175
f 163 175 97
f 173 175 163
f 167 170 168
f 170 174 173
f 168 173 161
f 170 173 168
f 150 176 166
f 176 177 178
f 166 178 167
f 176 178 166
f 177 179 180
f 179 134 133
f 180 133 181
f 179 133 180
f 167 182 169
f 183 128 127
f 171 127 116
f 183 127 171
f 177 180 178
f 180 181 182
f 178 182 167
f 180 182 178
f 150 152 176
f 152 155 184
f 176 184 177
f 152 184 176
f 155 159 185
f 159 64 149
f 185 149 147
f 159 149 185
f 177 186 179
f 186 147 146
f 179 146 134
f 186 146 179
f 155 185 184
f 185 147 186
f 184 186 177
f 185 186 184
f 9 57 10
f 10 57 59
f 10 59 11
f 11 59 15
f 12 14 13
f 13 14 17
f 11 15 12
f 12 15 14
f 13 17 22
f 22 17 24
f 28 25 29
f 29 25 84
f 22 24 28
f 28 24 25
f 29 84 86
f 86 84 85
f 86 85 87
f 87 85 89
f 87 89 98
f 98 89 90
f 98 90 100
f 100 90 95
f 100 95 102
f 102 95 97
f 102 97 111
f 111 97 175
f 111 175 112
f 112 175 174
f 128 181 131
f 131 181 133
f 131 133 130
f 130 133 132
f 138 137 139
f 139 137 143
f 130 132 138
f 138 132 137
f 139 143 141
f 141 143 142
f 141 142 9
f 9 142 57
f 112 174 172
f 172 174 170
f 172 170 171
f 171 170 169
f 183 182 128
f 128 182 181
f 171 169 183
f 183 169 182
