v -0.253443 1.19034 -0.292443
v -0.218573 1.14652 -0.296917
v -0.224156 1.19531 -0.340125
v -0.195307 1.09709 -0.31
v -0.191911 1.14769 -0.348555
v -0.206047 1.19095 -0.393125
v -0.185414 1.04581 -0.330695
v -0.172198 1.08781 -0.368636
v -0.189649 0.996578 -0.357427
v -0.171507 1.0354 -0.393756
v -0.16855 1.07706 -0.431322
v -0.177845 1.13716 -0.412338
v -0.200494 1.1776 -0.447411
v -0.177845 1.00457 -0.732338
v -0.16855 0.944474 -0.751322
v -0.181004 0.985814 -0.787265
v -0.200494 1.04501 -0.767411
v -0.207922 1.02368 -0.818848
v -0.276396 1.23105 -0.323621
v -0.250396 1.23318 -0.375564
v -0.30655 1.25971 -0.361374
v -0.236329 1.22265 -0.439347
v -0.238827 1.07034 -0.813968
v -0.238827 1.20293 -0.493968
v -0.279793 1.23968 -0.482696
v -0.289166 1.2588 -0.422655
v -0.341611 1.27414 -0.402829
v -0.327703 1.26373 -0.46589
v -0.378908 1.27324 -0.44483
v -0.303099 1.20434 -0.270214
v -0.330242 1.24232 -0.304854
v -0.357924 1.20833 -0.258626
v -0.369013 1.26793 -0.351944
v -0.406646 1.27276 -0.39598
v -0.431671 1.25706 -0.348197
v -0.396022 1.24093 -0.297926
v -0.413745 1.202 -0.258561
v -0.452077 1.22733 -0.305118
v -0.466311 1.18584 -0.270024
v -0.267363 1.1521 -0.25371
v -0.321106 1.16247 -0.234143
v -0.289172 1.10783 -0.226875
v -0.386886 1.16108 -0.227215
v -0.443044 1.14839 -0.235207
v -0.414293 1.10518 -0.213697
v -0.350741 1.10824 -0.210523
v -0.31721 1.06089 -0.213979
v -0.382246 1.05951 -0.20713
v -0.349343 1.01485 -0.216005
v -0.235613 1.10399 -0.261152
v -0.265248 1.04976 -0.237532
v -0.29772 1.00169 -0.233833
v -0.251675 0.993939 -0.265071
v -0.2159 1.04411 -0.281233
v -0.214714 0.992191 -0.307342
v -0.189649 0.863988 -0.677427
v -0.192211 0.84276 -0.729377
v -0.171507 0.902808 -0.713756
v -0.208382 0.828948 -0.781374
v -0.179072 0.883959 -0.768219
v -0.236932 0.823605 -0.829461
v -0.20566 0.872572 -0.82772
v -0.275688 0.827137 -0.869976
v -0.242515 0.872395 -0.872668
v -0.219122 0.922814 -0.8645
v -0.184719 0.933307 -0.81192
v -0.207291 0.974555 -0.846093
v -0.243027 1.0268 -0.862596
v -0.247452 0.974757 -0.888114
v -0.287875 1.02332 -0.896251
v -0.268393 0.914022 -0.903913
v -0.298955 0.864587 -0.904793
v -0.327707 0.907792 -0.926303
v -0.304538 0.96686 -0.920606
v -0.33905 1.01351 -0.91725
v -0.359754 0.953463 -0.93287
v -0.392657 0.998124 -0.923995
v -0.279348 1.07164 -0.855622
v -0.279793 1.10709 -0.802696
v -0.336434 1.06374 -0.888114
v -0.39129 1.04925 -0.900746
v -0.388378 1.09207 -0.8645
v -0.332186 1.10778 -0.838929
v -0.327703 1.13114 -0.785891
v -0.384143 1.12333 -0.818015
v -0.384143 1.25592 -0.498015
v -0.432933 1.2615 -0.454808
v -0.43862 1.10553 -0.82772
v -0.43862 1.23812 -0.50772
v -0.482243 1.2354 -0.461374
v -0.432933 1.12891 -0.774808
v -0.442869 1.06149 -0.876904
v -0.44428 1.01129 -0.906167
v -0.490325 1.01904 -0.874929
v -0.482243 1.10281 -0.781374
v -0.492217 1.06714 -0.833203
v -0.523086 1.06433 -0.78403
v -0.527286 1.02078 -0.832658
v -0.55235 1.0164 -0.782573
v -0.461381 1.25516 -0.404517
v -0.523086 1.19692 -0.46403
v -0.514977 1.21676 -0.41
v -0.55235 1.14899 -0.462573
v -0.549789 1.17021 -0.410623
v -0.533618 1.18403 -0.358626
v -0.48839 1.22815 -0.350499
v -0.505067 1.18937 -0.310539
v -0.499485 1.14058 -0.267332
v -0.53634 1.1404 -0.31228
v -0.522878 1.09016 -0.2755
v -0.562927 1.12901 -0.371781
v -0.570493 1.11017 -0.426244
v -0.57345 1.0685 -0.388678
v -0.557281 1.07967 -0.32808
v -0.534709 1.03842 -0.293907
v -0.560996 1.02716 -0.352735
v -0.534078 0.989293 -0.321152
v -0.473607 1.09895 -0.236087
v -0.494548 1.03822 -0.251886
v -0.498973 0.986178 -0.277404
v -0.454125 0.989657 -0.243749
v -0.437462 1.04611 -0.219394
v -0.40295 0.999463 -0.22275
v -0.35071 0.963726 -0.239254
v -0.405565 0.949234 -0.251886
v -0.353622 0.920904 -0.2755
v -0.462652 0.941336 -0.284378
v -0.503173 0.942634 -0.326032
v -0.462206 0.905882 -0.337304
v -0.409814 0.905191 -0.301071
v -0.357856 0.889644 -0.321985
v -0.414297 0.881835 -0.354109
v -0.357856 0.757054 -0.641985
v -0.414297 0.749245 -0.67411
v -0.363092 0.739734 -0.69517
v -0.299131 0.951485 -0.263096
v -0.30338 0.907442 -0.31228
v -0.309067 0.751471 -0.685192
v -0.30338 0.774852 -0.63228
v -0.259756 0.777574 -0.678626
v -0.309067 0.884061 -0.365192
v -0.249783 0.945838 -0.306797
v -0.259756 0.910164 -0.358626
v -0.218914 0.948646 -0.35597
v -0.218914 0.816056 -0.67597
v -0.227022 0.796214 -0.73
v -0.280619 0.757818 -0.735483
v -0.335353 0.740212 -0.74402
v -0.310329 0.755914 -0.791803
v -0.25361 0.784827 -0.789501
v -0.289923 0.785643 -0.834882
v -0.488557 0.822635 -0.847557
v -0.474637 0.860871 -0.88629
v -0.438901 0.808631 -0.869786
v -0.452828 0.905145 -0.913125
v -0.420894 0.850504 -0.905857
v -0.384076 0.804642 -0.881374
v -0.42479 0.952087 -0.926021
v -0.391259 0.904733 -0.929477
v -0.355114 0.851895 -0.912785
v -0.328255 0.810971 -0.881439
v -0.523427 0.866453 -0.843083
v -0.546693 0.915885 -0.83
v -0.506387 0.908988 -0.878848
v -0.556586 0.967167 -0.809305
v -0.5261 0.968863 -0.858767
v -0.476752 0.963217 -0.902468
v -0.517844 0.817664 -0.799875
v -0.535953 0.82202 -0.746875
v -0.550089 0.865286 -0.791445
v -0.541505 0.835371 -0.692589
v -0.564155 0.875814 -0.727662
v -0.541505 0.967962 -0.372589
v -0.564155 1.0084 -0.407662
v -0.569802 0.925162 -0.771363
v -0.57345 0.93591 -0.708678
v -0.570493 0.977576 -0.746244
v -0.465604 0.781927 -0.816379
v -0.43545 0.753267 -0.778626
v -0.491604 0.779793 -0.764436
v -0.400389 0.738837 -0.737171
v -0.452833 0.754175 -0.717345
v -0.462206 0.773292 -0.657304
v -0.505671 0.790321 -0.700653
v -0.503173 0.810043 -0.646032
v -0.411757 0.770657 -0.835146
v -0.345977 0.772048 -0.842074
v -0.372987 0.745039 -0.788056
f 1 2 3
f 2 4 5
f 3 5 6
f 2 5 3
f 4 7 8
f 7 9 10
f 8 10 11
f 7 10 8
f 6 12 13
f 14 15 16
f 17 16 18
f 14 16 17
f 4 8 5
f 8 11 12
f 5 12 6
f 8 12 5
f 1 3 19
f 3 6 20
f 19 20 21
f 3 20 19
f 6 13 22
f 17 18 23
f 22 24 25
f 13 24 22
f 21 26 27
f 26 25 28
f 27 28 29
f 26 28 27
f 6 22 20
f 22 25 26
f 20 26 21
f 22 26 20
f 1 19 30
f 19 21 31
f 30 31 32
f 19 31 30
f 21 27 33
f 27 29 34
f 33 34 35
f 27 34 33
f 32 36 37
f 36 35 38
f 37 38 39
f 36 38 37
f 21 33 31
f 33 35 36
f 31 36 32
f 33 36 31
f 1 30 40
f 30 32 41
f 40 41 42
f 30 41 40
f 32 37 43
f 37 39 44
f 43 44 45
f 37 44 43
f 42 46 47
f 46 45 48
f 47 48 49
f 46 48 47
f 32 43 41
f 43 45 46
f 41 46 42
f 43 46 41
f 1 40 2
f 40 42 50
f 2 50 4
f 40 50 2
f 42 47 51
f 47 49 52
f 51 52 53
f 47 52 51
f 4 54 7
f 54 53 55
f 7 55 9
f 54 55 7
f 42 51 50
f 51 53 54
f 50 54 4
f 51 54 50
f 56 57 58
f 57 59 60
f 58 60 15
f 57 60 58
f 59 61 62
f 61 63 64
f 62 64 65
f 61 64 62
f 15 66 16
f 66 65 67
f 16 67 18
f 66 67 16
f 59 62 60
f 62 65 66
f 60 66 15
f 62 66 60
f 18 67 68
f 67 65 69
f 68 69 70
f 67 69 68
f 65 64 71
f 64 63 72
f 71 72 73
f 64 72 71
f 70 74 75
f 74 73 76
f 75 76 77
f 74 76 75
f 65 71 69
f 71 73 74
f 69 74 70
f 71 74 69
f 18 68 23
f 68 70 78
f 23 78 79
f 68 78 23
f 70 75 80
f 75 77 81
f 80 81 82
f 75 81 80
f 79 83 84
f 83 82 85
f 28 86 29
f 83 85 84
f 70 80 78
f 80 82 83
f 78 83 79
f 80 83 78
f 29 86 87
f 85 82 88
f 87 89 90
f 85 88 91
f 82 81 92
f 81 77 93
f 92 93 94
f 81 93 92
f 95 96 97
f 96 94 98
f 97 98 99
f 96 98 97
f 82 92 88
f 92 94 96
f 88 96 95
f 92 96 88
f 29 87 34
f 87 90 100
f 34 100 35
f 87 100 34
f 90 101 102
f 101 103 104
f 102 104 105
f 101 104 102
f 35 106 38
f 106 105 107
f 38 107 39
f 106 107 38
f 90 102 100
f 102 105 106
f 100 106 35
f 102 106 100
f 39 107 108
f 107 105 109
f 108 109 110
f 107 109 108
f 105 104 111
f 104 103 112
f 111 112 113
f 104 112 111
f 110 114 115
f 114 113 116
f 115 116 117
f 114 116 115
f 105 111 109
f 111 113 114
f 109 114 110
f 111 114 109
f 39 108 44
f 108 110 118
f 44 118 45
f 108 118 44
f 110 115 119
f 115 117 120
f 119 120 121
f 115 120 119
f 45 122 48
f 122 121 123
f 48 123 49
f 122 123 48
f 110 119 118
f 119 121 122
f 118 122 45
f 119 122 118
f 49 123 124
f 123 121 125
f 124 125 126
f 123 125 124
f 121 120 127
f 120 117 128
f 127 128 129
f 120 128 127
f 126 130 131
f 130 129 132
f 133 134 135
f 130 132 131
f 121 127 125
f 127 129 130
f 125 130 126
f 127 130 125
f 49 124 52
f 124 126 136
f 52 136 53
f 124 136 52
f 126 131 137
f 133 135 138
f 139 138 140
f 131 141 137
f 53 142 55
f 142 143 144
f 55 144 9
f 142 144 55
f 126 137 136
f 137 143 142
f 136 142 53
f 137 142 136
f 56 145 57
f 145 140 146
f 57 146 59
f 145 146 57
f 140 138 147
f 138 135 148
f 147 148 149
f 138 148 147
f 59 150 61
f 150 149 151
f 61 151 63
f 150 151 61
f 140 147 146
f 147 149 150
f 146 150 59
f 147 150 146
f 152 153 154
f 153 155 156
f 154 156 157
f 153 156 154
f 155 158 159
f 158 77 76
f 159 76 73
f 158 76 159
f 157 160 161
f 160 73 72
f 161 72 63
f 160 72 161
f 155 159 156
f 159 73 160
f 156 160 157
f 159 160 156
f 152 162 153
f 162 163 164
f 153 164 155
f 162 164 153
f 163 165 166
f 165 99 98
f 166 98 94
f 165 98 166
f 155 167 158
f 167 94 93
f 158 93 77
f 167 93 158
f 163 166 164
f 166 94 167
f 164 167 155
f 166 167 164
f 152 168 162
f 168 169 170
f 162 170 163
f 168 170 162
f 169 171 172
f 173 117 116
f 174 116 113
f 173 116 174
f 163 175 165
f 175 176 177
f 165 177 99
f 175 177 165
f 169 172 170
f 172 176 175
f 170 175 163
f 172 175 170
f 152 178 168
f 178 179 180
f 168 180 169
f 178 180 168
f 179 181 182
f 181 135 134
f 182 134 183
f 181 134 182
f 169 184 171
f 184 183 185
f 173 128 117
f 184 185 171
f 179 182 180
f 182 183 184
f 180 184 169
f 182 184 180
f 152 154 178
f 154 157 186
f 178 186 179
f 154 186 178
f 157 161 187
f 161 63 151
f 187 151 149
f 161 151 187
f 179 188 181
f 188 149 148
f 181 148 135
f 188 148 181
f 157 187 186
f 187 149 188
f 186 188 179
f 187 188 186
f 9 56 10
f 10 56 58
f 10 58 11
f 11 58 15
f 12 14 13
f 13 14 17
f 11 15 12
f 12 15 14
f 24 23 25
f 25 23 79
f 13 17 24
f 24 17 23
f 25 79 28
f 28 79 84
f 28 84 86
f 86 84 85
f 86 85 87
f 87 85 91
f 87 91 89
f 89 91 88
f 89 88 90
f 90 88 95
f 90 95 101
f 101 95 97
f 101 97 103
f 103 97 99
f 103 99 112
f 112 99 177
f 112 177 113
f 113 177 176
f 128 185 129
f 129 185 183
f 129 183 132
f 132 183 134
f 132 134 131
f 131 134 133
f 131 133 141
f 141 133 138
f 141 138 137
f 137 138 139
f 143 140 144
f 144 140 145
f 144 145 9
f 9 145 56
f 137 139 143
f 143 139 140
f 113 176 174
f 174 176 172
f 174 172 173
f 173 172 171
f 173 171 128
f 128 171 185
