v -0.253443 1.05775 -0.612443
v -0.218573 1.01393 -0.616917
v -0.224156 1.06272 -0.660125
v -0.195307 0.964498 -0.63
v -0.191911 1.0151 -0.668555
v -0.206047 1.05836 -0.713125
v -0.185414 0.913216 -0.650695
v -0.172198 0.955222 -0.688637
v -0.189649 0.863988 -0.677427
v -0.171507 0.902808 -0.713756
v -0.16855 0.944474 -0.751322
v -0.206047 1.05626 -0.753125
v -0.177845 1.00247 -0.772338
v -0.200494 1.04291 -0.807411
v -0.16855 0.942369 -0.791322
v -0.181004 0.983709 -0.827265
v -0.207922 1.02158 -0.858848
v -0.177845 1.00457 -0.732338
v -0.276396 1.09846 -0.643621
v -0.250396 1.10059 -0.695564
v -0.30655 1.12712 -0.681374
v -0.236329 1.08796 -0.799347
v -0.238827 1.06824 -0.853968
v -0.279793 1.10499 -0.842696
v -0.289166 1.12621 -0.742655
v -0.341611 1.14155 -0.722829
v -0.289166 1.1241 -0.782655
v -0.327703 1.12903 -0.82589
v -0.341611 1.13944 -0.762829
v -0.378908 1.13854 -0.80483
v -0.236329 1.09006 -0.759347
v -0.303099 1.07175 -0.590214
v -0.330242 1.10973 -0.624854
v -0.357924 1.07574 -0.578626
v -0.369013 1.13534 -0.671944
v -0.378908 1.14065 -0.76483
v -0.406646 1.14017 -0.71598
v -0.431671 1.12447 -0.668197
v -0.396022 1.10834 -0.617926
v -0.413745 1.06941 -0.578561
v -0.452077 1.09474 -0.625118
v -0.466311 1.05325 -0.590024
v -0.267363 1.01951 -0.57371
v -0.321106 1.02988 -0.554143
v -0.289172 0.975239 -0.546875
v -0.386886 1.02849 -0.547215
v -0.443044 1.0158 -0.555207
v -0.414293 0.972592 -0.533697
v -0.350741 0.975651 -0.530523
v -0.31721 0.928296 -0.533979
v -0.382246 0.926921 -0.52713
v -0.349343 0.88226 -0.536005
v -0.235613 0.971396 -0.581152
v -0.265248 0.917167 -0.557532
v -0.29772 0.869098 -0.553833
v -0.251675 0.861349 -0.585071
v -0.2159 0.91152 -0.601233
v -0.214714 0.859601 -0.627342
v -0.192211 0.84276 -0.729377
v -0.192211 0.840655 -0.769377
v -0.208382 0.826844 -0.821374
v -0.179072 0.881854 -0.808219
v -0.171507 0.900703 -0.753756
v -0.236932 0.821501 -0.869461
v -0.20566 0.870467 -0.86772
v -0.275688 0.825033 -0.909976
v -0.242515 0.87029 -0.912668
v -0.219122 0.920709 -0.9045
v -0.184719 0.931202 -0.85192
v -0.207291 0.972451 -0.886093
v -0.243027 1.02469 -0.902596
v -0.247452 0.972653 -0.928114
v -0.287875 1.02121 -0.936251
v -0.268393 0.911917 -0.943913
v -0.298955 0.862482 -0.944793
v -0.327707 0.905687 -0.966303
v -0.304538 0.964755 -0.960606
v -0.33905 1.01141 -0.95725
v -0.359754 0.951358 -0.97287
v -0.392657 0.996019 -0.963995
v -0.279348 1.06953 -0.895622
v -0.336434 1.06164 -0.928114
v -0.39129 1.04714 -0.940746
v -0.388378 1.08996 -0.9045
v -0.332186 1.10568 -0.878929
v -0.384143 1.12123 -0.858015
v -0.432933 1.12681 -0.814808
v -0.43862 1.10343 -0.86772
v -0.482243 1.10071 -0.821374
v -0.442869 1.05938 -0.916904
v -0.44428 1.00918 -0.946167
v -0.490325 1.01693 -0.914929
v -0.492217 1.06503 -0.873203
v -0.523086 1.06222 -0.82403
v -0.527286 1.01868 -0.872658
v -0.55235 1.01429 -0.822573
v -0.406646 1.13807 -0.75598
v -0.461381 1.12046 -0.764517
v -0.461381 1.12257 -0.724517
v -0.432933 1.12891 -0.774808
v -0.514977 1.08206 -0.77
v -0.549789 1.03552 -0.770623
v -0.514977 1.08417 -0.73
v -0.549789 1.03762 -0.730623
v -0.533618 1.05144 -0.678626
v -0.48839 1.09556 -0.670499
v -0.505067 1.05678 -0.630539
v -0.499485 1.00799 -0.587332
v -0.53634 1.00781 -0.63228
v -0.522878 0.95757 -0.5955
v -0.562927 0.996425 -0.691781
v -0.570493 0.975471 -0.786244
v -0.570493 0.977576 -0.746244
v -0.57345 0.93591 -0.708678
v -0.557281 0.947077 -0.64808
v -0.534709 0.905828 -0.613907
v -0.560996 0.89457 -0.672735
v -0.534078 0.856702 -0.641152
v -0.473607 0.966362 -0.556087
v -0.494548 0.905626 -0.571886
v -0.498973 0.853588 -0.597404
v -0.454125 0.857066 -0.563749
v -0.437462 0.913524 -0.539394
v -0.40295 0.866872 -0.54275
v -0.35071 0.831136 -0.559254
v -0.405565 0.816643 -0.571886
v -0.353622 0.788314 -0.5955
v -0.462652 0.808746 -0.604378
v -0.503173 0.810043 -0.646032
v -0.462206 0.773292 -0.657304
v -0.409814 0.7726 -0.621071
v -0.357856 0.757054 -0.641985
v -0.414297 0.749245 -0.67411
v -0.363092 0.739734 -0.69517
v -0.299131 0.818895 -0.583096
v -0.30338 0.774852 -0.63228
v -0.309067 0.751471 -0.685192
v -0.259756 0.777574 -0.678626
v -0.249783 0.813248 -0.626797
v -0.218914 0.816056 -0.67597
v -0.227022 0.796214 -0.73
v -0.227022 0.79411 -0.77
v -0.280619 0.757818 -0.735483
v -0.335353 0.740212 -0.74402
v -0.280619 0.755713 -0.775483
v -0.335353 0.738108 -0.78402
v -0.310329 0.753809 -0.831803
v -0.309067 0.749366 -0.725192
v -0.25361 0.782722 -0.829501
v -0.289923 0.783539 -0.874882
v -0.488557 0.82053 -0.887557
v -0.474637 0.858766 -0.92629
v -0.438901 0.806526 -0.909786
v -0.452828 0.90304 -0.953125
v -0.420894 0.848399 -0.945857
v -0.384076 0.802537 -0.921374
v -0.42479 0.949983 -0.966021
v -0.391259 0.902628 -0.969477
v -0.355114 0.84979 -0.952785
v -0.328255 0.808867 -0.921439
v -0.523427 0.864349 -0.883083
v -0.546693 0.913781 -0.87
v -0.506387 0.906883 -0.918848
v -0.556586 0.965063 -0.849305
v -0.5261 0.966759 -0.898767
v -0.476752 0.961112 -0.942468
v -0.517844 0.815559 -0.839875
v -0.535953 0.819915 -0.786875
v -0.550089 0.863182 -0.831445
v -0.535953 0.82202 -0.746875
v -0.541505 0.835371 -0.692589
v -0.564155 0.875814 -0.727662
v -0.569802 0.923057 -0.811363
v -0.57345 0.933805 -0.748678
v -0.564155 0.873709 -0.767662
v -0.465604 0.779823 -0.856379
v -0.43545 0.751163 -0.818626
v -0.491604 0.777688 -0.804436
v -0.400389 0.736732 -0.777171
v -0.452833 0.752071 -0.757345
v -0.400389 0.738837 -0.737171
v -0.452833 0.754175 -0.717345
v -0.505671 0.790321 -0.700653
v -0.505671 0.788216 -0.740653
v -0.411757 0.768552 -0.875146
v -0.345977 0.769944 -0.882074
v -0.372987 0.742935 -0.828056
v -0.363092 0.737629 -0.73517
f 1 2 3
f 2 4 5
f 3 5 6
f 2 5 3
f 4 7 8
f 7 9 10
f 8 10 11
f 7 10 8
f 12 13 14
f 13 15 16
f 14 16 17
f 13 16 14
f 4 8 5
f 8 11 18
f 5 18 6
f 8 18 5
f 1 3 19
f 3 6 20
f 19 20 21
f 3 20 19
f 12 14 22
f 14 17 23
f 22 23 24
f 14 23 22
f 21 25 26
f 27 24 28
f 29 28 30
f 27 28 29
f 6 31 20
f 22 24 27
f 20 25 21
f 31 25 20
f 1 19 32
f 19 21 33
f 32 33 34
f 19 33 32
f 21 26 35
f 26 36 37
f 35 37 38
f 26 37 35
f 34 39 40
f 39 38 41
f 40 41 42
f 39 41 40
f 21 35 33
f 35 38 39
f 33 39 34
f 35 39 33
f 1 32 43
f 32 34 44
f 43 44 45
f 32 44 43
f 34 40 46
f 40 42 47
f 46 47 48
f 40 47 46
f 45 49 50
f 49 48 51
f 50 51 52
f 49 51 50
f 34 46 44
f 46 48 49
f 44 49 45
f 46 49 44
f 1 43 2
f 43 45 53
f 2 53 4
f 43 53 2
f 45 50 54
f 50 52 55
f 54 55 56
f 50 55 54
f 4 57 7
f 57 56 58
f 7 58 9
f 57 58 7
f 45 54 53
f 54 56 57
f 53 57 4
f 54 57 53
f 9 59 10
f 60 61 62
f 63 62 15
f 60 62 63
f 61 64 65
f 64 66 67
f 65 67 68
f 64 67 65
f 15 69 16
f 69 68 70
f 16 70 17
f 69 70 16
f 61 65 62
f 65 68 69
f 62 69 15
f 65 69 62
f 17 70 71
f 70 68 72
f 71 72 73
f 70 72 71
f 68 67 74
f 67 66 75
f 74 75 76
f 67 75 74
f 73 77 78
f 77 76 79
f 78 79 80
f 77 79 78
f 68 74 72
f 74 76 77
f 72 77 73
f 74 77 72
f 17 71 23
f 71 73 81
f 23 81 24
f 71 81 23
f 73 78 82
f 78 80 83
f 82 83 84
f 78 83 82
f 24 85 28
f 85 84 86
f 28 86 30
f 85 86 28
f 73 82 81
f 82 84 85
f 81 85 24
f 82 85 81
f 30 86 87
f 86 84 88
f 87 88 89
f 86 88 87
f 84 83 90
f 83 80 91
f 90 91 92
f 83 91 90
f 89 93 94
f 93 92 95
f 94 95 96
f 93 95 94
f 84 90 88
f 90 92 93
f 88 93 89
f 90 93 88
f 30 87 97
f 87 89 98
f 37 99 38
f 100 99 37
f 89 94 101
f 94 96 102
f 103 104 105
f 94 102 101
f 38 106 41
f 106 105 107
f 41 107 42
f 106 107 41
f 89 101 98
f 103 105 106
f 99 106 38
f 103 106 99
f 42 107 108
f 107 105 109
f 108 109 110
f 107 109 108
f 105 104 111
f 102 96 112
f 111 113 114
f 104 113 111
f 110 115 116
f 115 114 117
f 116 117 118
f 115 117 116
f 105 111 109
f 111 114 115
f 109 115 110
f 111 115 109
f 42 108 47
f 108 110 119
f 47 119 48
f 108 119 47
f 110 116 120
f 116 118 121
f 120 121 122
f 116 121 120
f 48 123 51
f 123 122 124
f 51 124 52
f 123 124 51
f 110 120 119
f 120 122 123
f 119 123 48
f 120 123 119
f 52 124 125
f 124 122 126
f 125 126 127
f 124 126 125
f 122 121 128
f 121 118 129
f 128 129 130
f 121 129 128
f 127 131 132
f 131 130 133
f 132 133 134
f 131 133 132
f 122 128 126
f 128 130 131
f 126 131 127
f 128 131 126
f 52 125 55
f 125 127 135
f 55 135 56
f 125 135 55
f 127 132 136
f 132 134 137
f 136 137 138
f 132 137 136
f 56 139 58
f 139 138 140
f 58 140 9
f 139 140 58
f 127 136 135
f 136 138 139
f 135 139 56
f 136 139 135
f 9 140 59
f 140 138 141
f 60 142 61
f 140 141 59
f 138 137 143
f 137 134 144
f 145 146 147
f 148 146 145
f 61 149 64
f 149 147 150
f 64 150 66
f 149 150 64
f 138 143 141
f 145 147 149
f 142 149 61
f 145 149 142
f 151 152 153
f 152 154 155
f 153 155 156
f 152 155 153
f 154 157 158
f 157 80 79
f 158 79 76
f 157 79 158
f 156 159 160
f 159 76 75
f 160 75 66
f 159 75 160
f 154 158 155
f 158 76 159
f 155 159 156
f 158 159 155
f 151 161 152
f 161 162 163
f 152 163 154
f 161 163 152
f 162 164 165
f 164 96 95
f 165 95 92
f 164 95 165
f 154 166 157
f 166 92 91
f 157 91 80
f 166 91 157
f 162 165 163
f 165 92 166
f 163 166 154
f 165 166 163
f 151 167 161
f 167 168 169
f 161 169 162
f 167 169 161
f 170 171 172
f 171 118 117
f 172 117 114
f 171 117 172
f 162 173 164
f 173 174 112
f 164 112 96
f 173 112 164
f 168 175 169
f 175 174 173
f 169 173 162
f 175 173 169
f 151 176 167
f 176 177 178
f 167 178 168
f 176 178 167
f 177 179 180
f 181 134 133
f 182 133 130
f 181 133 182
f 170 183 171
f 183 130 129
f 171 129 118
f 183 129 171
f 177 180 178
f 182 130 183
f 178 184 168
f 180 184 178
f 151 153 176
f 153 156 185
f 176 185 177
f 153 185 176
f 156 160 186
f 160 66 150
f 186 150 147
f 160 150 186
f 177 187 179
f 187 147 146
f 179 146 188
f 187 146 179
f 156 186 185
f 186 147 187
f 185 187 177
f 186 187 185
f 10 63 11
f 11 63 15
f 11 15 18
f 18 15 13
f 18 13 6
f 6 13 12
f 25 27 26
f 26 27 29
f 6 12 31
f 31 12 22
f 31 22 25
f 25 22 27
f 26 29 36
f 36 29 30
f 36 30 37
f 37 30 97
f 59 60 10
f 10 60 63
f 100 87 99
f 99 87 98
f 37 97 100
f 100 97 87
f 103 101 104
f 104 101 102
f 99 98 103
f 103 98 101
f 113 112 114
f 114 112 174
f 104 102 113
f 113 102 112
f 141 142 59
f 59 142 60
f 137 148 143
f 143 148 145
f 134 188 144
f 144 188 146
f 144 146 137
f 137 146 148
f 143 145 141
f 141 145 142
f 172 175 170
f 170 175 168
f 114 174 172
f 172 174 175
f 181 179 134
f 134 179 188
f 182 180 181
f 181 180 179
f 170 168 183
f 183 168 184
f 183 184 182
f 182 184 180
