v 0.826557 1.13504 0.867557
v 0.861427 1.09122 0.863083
v 0.855844 1.14001 0.819876
v 0.884694 1.04179 0.85
v 0.888089 1.09239 0.811445
v 0.873953 1.13565 0.766875
v 0.894586 0.990505 0.829305
v 0.907802 1.03251 0.791364
v 0.890351 0.941276 0.802573
v 0.908493 0.980096 0.766244
v 0.91145 1.02176 0.728678
v 0.902156 1.08186 0.747662
v 0.879506 1.1223 0.712589
v 0.898996 1.0631 0.692735
v 0.872078 1.10097 0.661152
v 0.803604 1.17574 0.836379
v 0.829605 1.17788 0.784436
v 0.77345 1.2044 0.798626
v 0.843671 1.16735 0.720653
v 0.841173 1.14763 0.666032
v 0.800207 1.18438 0.677304
v 0.790834 1.2035 0.737345
v 0.73839 1.21884 0.757171
v 0.752297 1.20843 0.69411
v 0.701092 1.21794 0.71517
v 0.776901 1.14904 0.889786
v 0.749758 1.18702 0.855146
v 0.722076 1.15303 0.901374
v 0.710987 1.21263 0.808056
v 0.673354 1.21746 0.76402
v 0.648329 1.20176 0.811804
v 0.683978 1.18562 0.862074
v 0.666255 1.1467 0.901439
v 0.627923 1.17203 0.854882
v 0.613689 1.13053 0.889977
v 0.812637 1.0968 0.90629
v 0.758894 1.10717 0.925857
v 0.790828 1.05253 0.933125
v 0.693114 1.10578 0.932785
v 0.636956 1.09309 0.924793
v 0.665707 1.04988 0.946303
v 0.729259 1.05294 0.949478
v 0.76279 1.00558 0.946021
v 0.697754 1.00421 0.95287
v 0.730657 0.959548 0.943995
v 0.844387 1.04868 0.898848
v 0.814752 0.994455 0.922468
v 0.78228 0.946387 0.926167
v 0.828325 0.938637 0.894929
v 0.8641 0.988809 0.878767
v 0.865286 0.936889 0.852658
v 0.887789 0.920048 0.750623
v 0.871618 0.906237 0.698626
v 0.900928 0.961247 0.711781
v 0.843068 0.900894 0.650539
v 0.87434 0.94986 0.65228
v 0.804312 0.904426 0.610024
v 0.837485 0.949684 0.607332
v 0.860878 1.0001 0.6155
v 0.895281 1.0106 0.66808
v 0.872709 1.05184 0.633907
v 0.836973 1.10408 0.617404
v 0.832549 1.05205 0.591886
v 0.792126 1.10061 0.583749
v 0.811608 0.99131 0.576087
v 0.781045 0.941875 0.575208
v 0.752293 0.98508 0.553697
v 0.775462 1.04415 0.559394
v 0.740951 1.0908 0.56275
v 0.720246 1.03075 0.54713
v 0.687343 1.07541 0.556006
v 0.800652 1.14893 0.624378
v 0.743566 1.14103 0.591886
v 0.688711 1.12654 0.579254
v 0.691622 1.16936 0.6155
v 0.747814 1.18507 0.641071
v 0.695857 1.20062 0.661985
v 0.647067 1.2062 0.705192
v 0.64138 1.18282 0.65228
v 0.597757 1.1801 0.698626
v 0.637131 1.13878 0.603096
v 0.63572 1.08857 0.573833
v 0.589675 1.09632 0.605071
v 0.587783 1.14442 0.646797
v 0.556915 1.14162 0.69597
v 0.552714 1.09807 0.647342
v 0.52765 1.09368 0.697427
v 0.618619 1.19985 0.755483
v 0.565023 1.16146 0.75
v 0.530211 1.11491 0.749377
v 0.546382 1.12872 0.801374
v 0.59161 1.17285 0.809501
v 0.574933 1.13407 0.849461
v 0.580515 1.08528 0.892668
v 0.54366 1.0851 0.84772
v 0.557123 1.03486 0.8845
v 0.517073 1.07371 0.788219
v 0.509507 1.05486 0.733756
v 0.50655 1.0132 0.771322
v 0.522719 1.02437 0.83192
v 0.545291 0.983117 0.866093
v 0.519005 0.971858 0.807265
v 0.545922 0.933991 0.838848
v 0.606393 1.04365 0.923913
v 0.585452 0.982915 0.908114
v 0.581028 0.930877 0.882596
v 0.625875 0.934355 0.916251
v 0.642538 0.990812 0.940606
v 0.67705 0.944161 0.93725
v 0.72929 0.908425 0.920746
v 0.674435 0.893932 0.908114
v 0.726378 0.865603 0.8845
v 0.617348 0.886034 0.875622
v 0.576827 0.887332 0.833968
v 0.617794 0.85058 0.822696
v 0.670186 0.849889 0.85893
v 0.722144 0.834342 0.838015
v 0.665703 0.826534 0.805891
v 0.716909 0.817022 0.78483
v 0.780869 0.896183 0.896904
v 0.776621 0.85214 0.84772
v 0.770933 0.828759 0.794808
v 0.820244 0.854862 0.801374
v 0.830217 0.890537 0.853203
v 0.861086 0.893344 0.80403
v 0.852978 0.873503 0.75
v 0.799381 0.835106 0.744517
v 0.744647 0.817501 0.73598
v 0.769671 0.833202 0.688197
v 0.82639 0.862115 0.690499
v 0.790077 0.862932 0.645118
v 0.591443 0.899923 0.632443
v 0.605363 0.938159 0.59371
v 0.641099 0.885919 0.610214
v 0.627172 0.982433 0.566875
v 0.659106 0.927792 0.574143
v 0.695925 0.88193 0.598626
v 0.65521 1.02938 0.553979
v 0.688741 0.982021 0.550523
v 0.724886 0.929184 0.567215
v 0.751745 0.88826 0.598561
v 0.556573 0.943742 0.636917
v 0.533307 0.993174 0.65
v 0.573613 0.986276 0.601152
v 0.523415 1.04446 0.670695
v 0.5539 1.04615 0.621233
v 0.603248 1.04051 0.577532
v 0.562156 0.894952 0.680125
v 0.544047 0.899308 0.733126
v 0.529912 0.942575 0.688555
v 0.538495 0.91266 0.787411
v 0.515845 0.953102 0.752338
v 0.510198 1.00245 0.708637
v 0.614396 0.859216 0.663621
v 0.64455 0.830556 0.701374
v 0.588396 0.857081 0.715565
v 0.679611 0.816125 0.742829
v 0.627167 0.831464 0.762655
v 0.574329 0.867609 0.779347
v 0.668243 0.847945 0.644854
v 0.734023 0.849337 0.637926
v 0.707014 0.822328 0.691944
f 1 2 3
f 2 4 5
f 3 5 6
f 2 5 3
f 4 7 8
f 7 9 10
f 8 10 11
f 7 10 8
f 6 12 13
f 12 11 14
f 13 14 15
f 12 14 13
f 4 8 5
f 8 11 12
f 5 12 6
f 8 12 5
f 1 3 16
f 3 6 17
f 16 17 18
f 3 17 16
f 6 13 19
f 13 15 20
f 19 20 21
f 13 20 19
f 18 22 23
f 22 21 24
f 23 24 25
f 22 24 23
f 6 19 17
f 19 21 22
f 17 22 18
f 19 22 17
f 1 16 26
f 16 18 27
f 26 27 28
f 16 27 26
f 18 23 29
f 23 25 30
f 29 30 31
f 23 30 29
f 28 32 33
f 32 31 34
f 33 34 35
f 32 34 33
f 18 29 27
f 29 31 32
f 27 32 28
f 29 32 27
f 1 26 36
f 26 28 37
f 36 37 38
f 26 37 36
f 28 33 39
f 33 35 40
f 39 40 41
f 33 40 39
f 38 42 43
f 42 41 44
f 43 44 45
f 42 44 43
f 28 39 37
f 39 41 42
f 37 42 38
f 39 42 37
f 1 36 2
f 36 38 46
f 2 46 4
f 36 46 2
f 38 43 47
f 43 45 48
f 47 48 49
f 43 48 47
f 4 50 7
f 50 49 51
f 7 51 9
f 50 51 7
f 38 47 46
f 47 49 50
f 46 50 4
f 47 50 46
f 9 52 10
f 52 53 54
f 10 54 11
f 52 54 10
f 53 55 56
f 55 57 58
f 56 58 59
f 55 58 56
f 11 60 14
f 60 59 61
f 14 61 15
f 60 61 14
f 53 56 54
f 56 59 60
f 54 60 11
f 56 60 54
f 15 61 62
f 61 59 63
f 62 63 64
f 61 63 62
f 59 58 65
f 58 57 66
f 65 66 67
f 58 66 65
f 64 68 69
f 68 67 70
f 69 70 71
f 68 70 69
f 59 65 63
f 65 67 68
f 63 68 64
f 65 68 63
f 15 62 20
f 62 64 72
f 20 72 21
f 62 72 20
f 64 69 73
f 69 71 74
f 73 74 75
f 69 74 73
f 21 76 24
f 76 75 77
f 24 77 25
f 76 77 24
f 64 73 72
f 73 75 76
f 72 76 21
f 73 76 72
f 25 77 78
f 77 75 79
f 78 79 80
f 77 79 78
f 75 74 81
f 74 71 82
f 81 82 83
f 74 82 81
f 80 84 85
f 84 83 86
f 85 86 87
f 84 86 85
f 75 81 79
f 81 83 84
f 79 84 80
f 81 84 79
f 25 78 30
f 78 80 88
f 30 88 31
f 78 88 30
f 80 85 89
f 85 87 90
f 89 90 91
f 85 90 89
f 31 92 34
f 92 91 93
f 34 93 35
f 92 93 34
f 80 89 88
f 89 91 92
f 88 92 31
f 89 92 88
f 35 93 94
f 93 91 95
f 94 95 96
f 93 95 94
f 91 90 97
f 90 87 98
f 97 98 99
f 90 98 97
f 96 100 101
f 100 99 102
f 101 102 103
f 100 102 101
f 91 97 95
f 97 99 100
f 95 100 96
f 97 100 95
f 35 94 40
f 94 96 104
f 40 104 41
f 94 104 40
f 96 101 105
f 101 103 106
f 105 106 107
f 101 106 105
f 41 108 44
f 108 107 109
f 44 109 45
f 108 109 44
f 96 105 104
f 105 107 108
f 104 108 41
f 105 108 104
f 45 109 110
f 109 107 111
f 110 111 112
f 109 111 110
f 107 106 113
f 106 103 114
f 113 114 115
f 106 114 113
f 112 116 117
f 116 115 118
f 117 118 119
f 116 118 117
f 107 113 111
f 113 115 116
f 111 116 112
f 113 116 111
f 45 110 48
f 110 112 120
f 48 120 49
f 110 120 48
f 112 117 121
f 117 119 122
f 121 122 123
f 117 122 121
f 49 124 51
f 124 123 125
f 51 125 9
f 124 125 51
f 112 121 120
f 121 123 124
f 120 124 49
f 121 124 120
f 9 125 52
f 125 123 126
f 52 126 53
f 125 126 52
f 123 122 127
f 122 119 128
f 127 128 129
f 122 128 127
f 53 130 55
f 130 129 131
f 55 131 57
f 130 131 55
f 123 127 126
f 127 129 130
f 126 130 53
f 127 130 126
f 132 133 134
f 133 135 136
f 134 136 137
f 133 136 134
f 135 138 139
f 138 71 70
f 139 70 67
f 138 70 139
f 137 140 141
f 140 67 66
f 141 66 57
f 140 66 141
f 135 139 136
f 139 67 140
f 136 140 137
f 139 140 136
f 132 142 133
f 142 143 144
f 133 144 135
f 142 144 133
f 143 145 146
f 145 87 86
f 146 86 83
f 145 86 146
f 135 147 138
f 147 83 82
f 138 82 71
f 147 82 138
f 143 146 144
f 146 83 147
f 144 147 135
f 146 147 144
f 132 148 142
f 148 149 150
f 142 150 143
f 148 150 142
f 149 151 152
f 151 103 102
f 152 102 99
f 151 102 152
f 143 153 145
f 153 99 98
f 145 98 87
f 153 98 145
f 149 152 150
f 152 99 153
f 150 153 143
f 152 153 150
f 132 154 148
f 154 155 156
f 148 156 149
f 154 156 148
f 155 157 158
f 157 119 118
f 158 118 115
f 157 118 158
f 149 159 151
f 159 115 114
f 151 114 103
f 159 114 151
f 155 158 156
f 158 115 159
f 156 159 149
f 158 159 156
f 132 134 154
f 134 137 160
f 154 160 155
f 134 160 154
f 137 141 161
f 141 57 131
f 161 131 129
f 141 131 161
f 155 162 157
f 162 129 128
f 157 128 119
f 162 128 157
f 137 161 160
f 161 129 162
f 160 162 155
f 161 162 160
