v -0.253443 1.08386 -0.652443
v -0.218573 1.04004 -0.656917
v -0.224156 1.08883 -0.700125
v -0.195307 0.990612 -0.67
v -0.191911 1.04121 -0.708555
v -0.206047 1.08448 -0.753125
v -0.185414 0.93933 -0.690695
v -0.172198 0.981336 -0.728637
v -0.185414 0.911112 -0.690695
v -0.189649 0.861883 -0.717427
v -0.171507 0.900703 -0.753756
v -0.172198 0.953117 -0.728637
v -0.16855 0.942369 -0.791322
v -0.177845 1.03068 -0.772338
v -0.200494 1.07113 -0.807411
v -0.16855 0.970588 -0.791322
v -0.181004 1.01193 -0.827265
v -0.207922 1.0498 -0.858848
v -0.276396 1.12457 -0.683621
v -0.250396 1.1267 -0.735564
v -0.30655 1.15323 -0.721374
v -0.236329 1.11618 -0.799347
v -0.238827 1.09645 -0.853968
v -0.279793 1.13321 -0.842696
v -0.289166 1.15232 -0.782655
v -0.341611 1.16766 -0.762829
v -0.327703 1.15725 -0.82589
v -0.378908 1.16676 -0.80483
v -0.303099 1.09787 -0.630214
v -0.330242 1.13584 -0.664854
v -0.357924 1.10186 -0.618626
v -0.369013 1.16146 -0.711944
v -0.406646 1.16629 -0.75598
v -0.431671 1.15058 -0.708197
v -0.396022 1.13445 -0.657926
v -0.413745 1.09553 -0.618561
v -0.452077 1.12085 -0.665118
v -0.466311 1.07936 -0.630024
v -0.267363 1.04563 -0.61371
v -0.321106 1.05599 -0.594143
v -0.289172 1.00135 -0.586875
v -0.386886 1.0546 -0.587215
v -0.443044 1.04191 -0.595207
v -0.414293 0.998706 -0.573697
v -0.350741 1.00176 -0.570523
v -0.31721 0.95441 -0.573979
v -0.382246 0.953035 -0.56713
v -0.31721 0.926192 -0.573979
v -0.382246 0.924816 -0.56713
v -0.349343 0.880155 -0.576005
v -0.235613 0.99751 -0.621152
v -0.265248 0.943281 -0.597532
v -0.29772 0.866994 -0.593833
v -0.265248 0.915062 -0.597532
v -0.251675 0.859244 -0.625071
v -0.195307 0.962394 -0.67
v -0.2159 0.909416 -0.641233
v -0.214714 0.857496 -0.667342
v -0.2159 0.937634 -0.641233
v -0.235613 0.969291 -0.621152
v -0.192211 0.840655 -0.769377
v -0.208382 0.826844 -0.821374
v -0.179072 0.881854 -0.808219
v -0.236932 0.821501 -0.869461
v -0.20566 0.870467 -0.86772
v -0.275688 0.825033 -0.909976
v -0.242515 0.87029 -0.912668
v -0.219122 0.920709 -0.9045
v -0.184719 0.959421 -0.85192
v -0.219122 0.948928 -0.9045
v -0.207291 1.00067 -0.886093
v -0.184719 0.931202 -0.85192
v -0.243027 1.05291 -0.902596
v -0.247452 1.00087 -0.928114
v -0.287875 1.04943 -0.936251
v -0.268393 0.911917 -0.943913
v -0.298955 0.862482 -0.944793
v -0.327707 0.905687 -0.966303
v -0.304538 0.992973 -0.960606
v -0.33905 1.03963 -0.95725
v -0.327707 0.933905 -0.966303
v -0.359754 0.979577 -0.97287
v -0.392657 1.02424 -0.963995
v -0.247452 0.972653 -0.928114
v -0.304538 0.964755 -0.960606
v -0.268393 0.940136 -0.943913
v -0.279348 1.09775 -0.895622
v -0.336434 1.08985 -0.928114
v -0.39129 1.07536 -0.940746
v -0.388378 1.11818 -0.9045
v -0.332186 1.1339 -0.878929
v -0.384143 1.14944 -0.858015
v -0.432933 1.15503 -0.814808
v -0.43862 1.13165 -0.86772
v -0.482243 1.12892 -0.821374
v -0.442869 1.0876 -0.916904
v -0.44428 1.0374 -0.946167
v -0.490325 1.04515 -0.914929
v -0.492217 1.09325 -0.873203
v -0.523086 1.09044 -0.82403
v -0.527286 1.0469 -0.872658
v -0.55235 1.04251 -0.822573
v -0.461381 1.14868 -0.764517
v -0.514977 1.11028 -0.77
v -0.549789 1.06374 -0.770623
v -0.533618 1.07755 -0.718626
v -0.48839 1.12167 -0.710499
v -0.505067 1.08289 -0.670539
v -0.499485 1.0341 -0.627332
v -0.53634 1.03393 -0.67228
v -0.522878 0.983684 -0.6355
v -0.562927 1.02254 -0.731781
v -0.570493 1.00369 -0.786244
v -0.57345 0.962024 -0.748678
v -0.522878 0.955465 -0.6355
v -0.557281 0.944972 -0.68808
v -0.534709 0.903723 -0.653907
v -0.57345 0.933805 -0.748678
v -0.560996 0.892465 -0.712735
v -0.534078 0.854598 -0.681152
v -0.557281 0.973191 -0.68808
v -0.473607 0.992476 -0.596087
v -0.494548 0.903522 -0.611886
v -0.498973 0.851483 -0.637404
v -0.454125 0.854962 -0.603749
v -0.414293 0.970487 -0.573697
v -0.437462 0.911419 -0.579394
v -0.40295 0.864768 -0.58275
v -0.494548 0.93174 -0.611886
v -0.437462 0.939638 -0.579394
v -0.473607 0.964257 -0.596087
v -0.35071 0.829032 -0.599254
v -0.405565 0.814539 -0.611886
v -0.353622 0.786209 -0.6355
v -0.462652 0.806641 -0.644378
v -0.503173 0.807939 -0.686032
v -0.462206 0.771187 -0.697304
v -0.409814 0.770496 -0.661071
v -0.357856 0.754949 -0.681985
v -0.414297 0.747141 -0.71411
v -0.363092 0.737629 -0.73517
v -0.299131 0.81679 -0.623096
v -0.30338 0.772747 -0.67228
v -0.309067 0.749366 -0.725192
v -0.259756 0.775469 -0.718626
v -0.249783 0.811144 -0.666797
v -0.218914 0.813951 -0.71597
v -0.227022 0.79411 -0.77
v -0.280619 0.755713 -0.775483
v -0.335353 0.738108 -0.78402
v -0.310329 0.753809 -0.831803
v -0.25361 0.782722 -0.829501
v -0.289923 0.783539 -0.874882
v -0.488557 0.82053 -0.887557
v -0.474637 0.858766 -0.92629
v -0.438901 0.806526 -0.909786
v -0.452828 0.90304 -0.953125
v -0.420894 0.848399 -0.945857
v -0.384076 0.802537 -0.921374
v -0.42479 0.949983 -0.966021
v -0.391259 0.902628 -0.969477
v -0.42479 0.978201 -0.966021
v -0.359754 0.951358 -0.97287
v -0.355114 0.84979 -0.952785
v -0.328255 0.808867 -0.921439
v -0.523427 0.864349 -0.883083
v -0.546693 0.913781 -0.87
v -0.506387 0.906883 -0.918848
v -0.546693 0.941999 -0.87
v -0.556586 0.993281 -0.849305
v -0.5261 0.994977 -0.898767
v -0.476752 0.961112 -0.942468
v -0.476752 0.989331 -0.942468
v -0.5261 0.966759 -0.898767
v -0.506387 0.935102 -0.918848
v -0.517844 0.815559 -0.839875
v -0.535953 0.819915 -0.786875
v -0.550089 0.863182 -0.831445
v -0.541505 0.833267 -0.732589
v -0.564155 0.873709 -0.767662
v -0.569802 0.923057 -0.811363
v -0.556586 0.965063 -0.849305
v -0.569802 0.951276 -0.811363
v -0.465604 0.779823 -0.856379
v -0.43545 0.751163 -0.818626
v -0.491604 0.777688 -0.804436
v -0.400389 0.736732 -0.777171
v -0.452833 0.752071 -0.757345
v -0.505671 0.788216 -0.740653
v -0.411757 0.768552 -0.875146
v -0.345977 0.769944 -0.882074
v -0.372987 0.742935 -0.828056
f 1 2 3
f 2 4 5
f 3 5 6
f 2 5 3
f 4 7 8
f 9 10 11
f 12 11 13
f 9 11 12
f 6 14 15
f 14 16 17
f 15 17 18
f 14 17 15
f 4 8 5
f 8 16 14
f 5 14 6
f 8 14 5
f 1 3 19
f 3 6 20
f 19 20 21
f 3 20 19
f 6 15 22
f 15 18 23
f 22 23 24
f 15 23 22
f 21 25 26
f 25 24 27
f 26 27 28
f 25 27 26
f 6 22 20
f 22 24 25
f 20 25 21
f 22 25 20
f 1 19 29
f 19 21 30
f 29 30 31
f 19 30 29
f 21 26 32
f 26 28 33
f 32 33 34
f 26 33 32
f 31 35 36
f 35 34 37
f 36 37 38
f 35 37 36
f 21 32 30
f 32 34 35
f 30 35 31
f 32 35 30
f 1 29 39
f 29 31 40
f 39 40 41
f 29 40 39
f 31 36 42
f 36 38 43
f 42 43 44
f 36 43 42
f 41 45 46
f 45 44 47
f 48 49 50
f 45 47 46
f 31 42 40
f 42 44 45
f 40 45 41
f 42 45 40
f 1 39 2
f 39 41 51
f 2 51 4
f 39 51 2
f 41 46 52
f 48 50 53
f 54 53 55
f 48 53 54
f 56 57 9
f 57 55 58
f 9 58 10
f 57 58 9
f 41 52 51
f 54 55 57
f 51 59 4
f 54 57 60
f 10 61 11
f 61 62 63
f 11 63 13
f 61 63 11
f 62 64 65
f 64 66 67
f 65 67 68
f 64 67 65
f 16 69 17
f 69 70 71
f 17 71 18
f 69 71 17
f 62 65 63
f 65 68 72
f 63 72 13
f 65 72 63
f 18 71 73
f 71 70 74
f 73 74 75
f 71 74 73
f 68 67 76
f 67 66 77
f 76 77 78
f 67 77 76
f 75 79 80
f 79 81 82
f 80 82 83
f 79 82 80
f 68 76 84
f 76 78 85
f 74 79 75
f 86 79 74
f 18 73 23
f 73 75 87
f 23 87 24
f 73 87 23
f 75 80 88
f 80 83 89
f 88 89 90
f 80 89 88
f 24 91 27
f 91 90 92
f 27 92 28
f 91 92 27
f 75 88 87
f 88 90 91
f 87 91 24
f 88 91 87
f 28 92 93
f 92 90 94
f 93 94 95
f 92 94 93
f 90 89 96
f 89 83 97
f 96 97 98
f 89 97 96
f 95 99 100
f 99 98 101
f 100 101 102
f 99 101 100
f 90 96 94
f 96 98 99
f 94 99 95
f 96 99 94
f 28 93 33
f 93 95 103
f 33 103 34
f 93 103 33
f 95 100 104
f 100 102 105
f 104 105 106
f 100 105 104
f 34 107 37
f 107 106 108
f 37 108 38
f 107 108 37
f 95 104 103
f 104 106 107
f 103 107 34
f 104 107 103
f 38 108 109
f 108 106 110
f 109 110 111
f 108 110 109
f 106 105 112
f 105 102 113
f 112 113 114
f 105 113 112
f 115 116 117
f 116 118 119
f 117 119 120
f 116 119 117
f 106 112 110
f 112 114 121
f 110 121 111
f 112 121 110
f 38 109 43
f 109 111 122
f 43 122 44
f 109 122 43
f 115 117 123
f 117 120 124
f 123 124 125
f 117 124 123
f 126 127 49
f 127 125 128
f 49 128 50
f 127 128 49
f 111 129 122
f 123 125 127
f 122 130 44
f 123 127 131
f 50 128 132
f 128 125 133
f 132 133 134
f 128 133 132
f 125 124 135
f 124 120 136
f 135 136 137
f 124 136 135
f 134 138 139
f 138 137 140
f 139 140 141
f 138 140 139
f 125 135 133
f 135 137 138
f 133 138 134
f 135 138 133
f 50 132 53
f 132 134 142
f 53 142 55
f 132 142 53
f 134 139 143
f 139 141 144
f 143 144 145
f 139 144 143
f 55 146 58
f 146 145 147
f 58 147 10
f 146 147 58
f 134 143 142
f 143 145 146
f 142 146 55
f 143 146 142
f 10 147 61
f 147 145 148
f 61 148 62
f 147 148 61
f 145 144 149
f 144 141 150
f 149 150 151
f 144 150 149
f 62 152 64
f 152 151 153
f 64 153 66
f 152 153 64
f 145 149 148
f 149 151 152
f 148 152 62
f 149 152 148
f 154 155 156
f 155 157 158
f 156 158 159
f 155 158 156
f 157 160 161
f 162 83 82
f 161 163 78
f 160 163 161
f 159 164 165
f 164 78 77
f 165 77 66
f 164 77 165
f 157 161 158
f 161 78 164
f 158 164 159
f 161 164 158
f 154 166 155
f 166 167 168
f 155 168 157
f 166 168 155
f 169 170 171
f 170 102 101
f 171 101 98
f 170 101 171
f 157 172 160
f 173 98 97
f 162 97 83
f 173 97 162
f 167 174 168
f 171 98 173
f 168 172 157
f 171 173 175
f 154 176 166
f 176 177 178
f 166 178 167
f 176 178 166
f 177 179 180
f 179 120 119
f 180 119 118
f 179 119 180
f 167 181 182
f 183 114 113
f 170 113 102
f 183 113 170
f 177 180 178
f 180 118 181
f 178 181 167
f 180 181 178
f 154 184 176
f 184 185 186
f 176 186 177
f 184 186 176
f 185 187 188
f 187 141 140
f 188 140 137
f 187 140 188
f 177 189 179
f 189 137 136
f 179 136 120
f 189 136 179
f 185 188 186
f 188 137 189
f 186 189 177
f 188 189 186
f 154 156 184
f 156 159 190
f 184 190 185
f 156 190 184
f 159 165 191
f 165 66 153
f 191 153 151
f 165 153 191
f 185 192 187
f 192 151 150
f 187 150 141
f 192 150 187
f 159 191 190
f 191 151 192
f 190 192 185
f 191 192 190
f 13 16 12
f 12 16 8
f 12 8 9
f 9 8 7
f 48 46 49
f 49 46 47
f 54 52 48
f 48 52 46
f 56 4 57
f 57 4 59
f 9 7 56
f 56 7 4
f 57 59 60
f 60 59 51
f 60 51 54
f 54 51 52
f 68 70 72
f 72 70 69
f 72 69 13
f 13 69 16
f 76 86 84
f 84 86 74
f 84 74 68
f 68 74 70
f 78 81 85
f 85 81 79
f 85 79 76
f 76 79 86
f 115 111 116
f 116 111 121
f 116 121 118
f 118 121 114
f 123 129 115
f 115 129 111
f 126 44 127
f 127 44 130
f 49 47 126
f 126 47 44
f 127 130 131
f 131 130 122
f 131 122 123
f 123 122 129
f 163 82 78
f 78 82 81
f 160 162 163
f 163 162 82
f 172 173 160
f 160 173 162
f 167 169 174
f 174 169 171
f 174 171 168
f 168 171 175
f 168 175 172
f 172 175 173
f 181 183 182
f 182 183 170
f 182 170 167
f 167 170 169
f 118 114 181
f 181 114 183
