v -0.253443 1.08386 -0.652443
v -0.218573 1.04004 -0.656917
v -0.224156 1.08883 -0.700125
v -0.195307 0.990612 -0.67
v -0.191911 1.04121 -0.708555
v -0.206047 1.08448 -0.753125
v -0.185414 0.93933 -0.690695
v -0.172198 0.981336 -0.728637
v -0.189649 0.890101 -0.717427
v -0.171507 0.928922 -0.753756
v -0.16855 0.970588 -0.791322
v -0.177845 1.03068 -0.772338
v -0.200494 1.07113 -0.807411
v -0.181004 1.01193 -0.827265
v -0.207922 1.0498 -0.858848
v -0.276396 1.12457 -0.683621
v -0.250396 1.1267 -0.735564
v -0.30655 1.15323 -0.721374
v -0.236329 1.11618 -0.799347
v -0.238827 1.09645 -0.853968
v -0.279793 1.13321 -0.842696
v -0.289166 1.15232 -0.782655
v -0.341611 1.16766 -0.762829
v -0.327703 1.15725 -0.82589
v -0.378908 1.16676 -0.80483
v -0.303099 1.09787 -0.630214
v -0.330242 1.13584 -0.664854
v -0.357924 1.10186 -0.618626
v -0.369013 1.16146 -0.711944
v -0.461611 1.16766 -0.762829
v -0.498908 1.16676 -0.80483
v -0.526646 1.16629 -0.75598
v -0.489013 1.16146 -0.711944
v -0.551671 1.15058 -0.708197
v -0.477924 1.10186 -0.618626
v -0.516022 1.13445 -0.657926
v -0.533745 1.09553 -0.618561
v -0.572077 1.12085 -0.665118
v -0.586311 1.07936 -0.630024
v -0.396022 1.13445 -0.657926
v -0.267363 1.04563 -0.61371
v -0.321106 1.05599 -0.594143
v -0.289172 1.00135 -0.586875
v -0.506886 1.0546 -0.587215
v -0.563044 1.04191 -0.595207
v -0.534293 0.998706 -0.573697
v -0.350741 1.00176 -0.570523
v -0.31721 0.95441 -0.573979
v -0.470741 1.00176 -0.570523
v -0.502246 0.953035 -0.56713
v -0.382246 0.953035 -0.56713
v -0.349343 0.908374 -0.576005
v -0.386886 1.0546 -0.587215
v -0.235613 0.99751 -0.621152
v -0.265248 0.943281 -0.597532
v -0.29772 0.895212 -0.593833
v -0.251675 0.887462 -0.625071
v -0.2159 0.937634 -0.641233
v -0.214714 0.885715 -0.667342
v -0.192211 0.868873 -0.769377
v -0.208382 0.855062 -0.821374
v -0.179072 0.910073 -0.808219
v -0.236932 0.849719 -0.869461
v -0.20566 0.898685 -0.86772
v -0.275688 0.853251 -0.909976
v -0.242515 0.898509 -0.912668
v -0.219122 0.948928 -0.9045
v -0.184719 0.959421 -0.85192
v -0.207291 1.00067 -0.886093
v -0.243027 1.05291 -0.902596
v -0.247452 1.00087 -0.928114
v -0.287875 1.04943 -0.936251
v -0.268393 0.940136 -0.943913
v -0.298955 0.890701 -0.944793
v -0.327707 0.933905 -0.966303
v -0.304538 0.992973 -0.960606
v -0.33905 1.03963 -0.95725
v -0.359754 0.979577 -0.97287
v -0.392657 1.02424 -0.963995
v -0.279348 1.09775 -0.895622
v -0.336434 1.08985 -0.928114
v -0.45905 1.03963 -0.95725
v -0.512657 1.02424 -0.963995
v -0.51129 1.07536 -0.940746
v -0.39129 1.07536 -0.940746
v -0.388378 1.11818 -0.9045
v -0.332186 1.1339 -0.878929
v -0.384143 1.14944 -0.858015
v -0.504143 1.14944 -0.858015
v -0.552933 1.15503 -0.814808
v -0.508378 1.11818 -0.9045
v -0.55862 1.13165 -0.86772
v -0.602243 1.12892 -0.821374
v -0.562869 1.0876 -0.916904
v -0.56428 1.0374 -0.946167
v -0.610325 1.04515 -0.914929
v -0.612217 1.09325 -0.873203
v -0.643086 1.09044 -0.82403
v -0.647286 1.0469 -0.872658
v -0.67235 1.04251 -0.822573
v -0.581381 1.14868 -0.764517
v -0.634977 1.11028 -0.77
v -0.669789 1.06374 -0.770623
v -0.653618 1.07755 -0.718626
v -0.60839 1.12167 -0.710499
v -0.625067 1.08289 -0.670539
v -0.619485 1.0341 -0.627332
v -0.65634 1.03393 -0.67228
v -0.642878 0.983684 -0.6355
v -0.682927 1.02254 -0.731781
v -0.690493 1.00369 -0.786244
v -0.69345 0.962024 -0.748678
v -0.677281 0.973191 -0.68808
v -0.654709 0.931942 -0.653907
v -0.680996 0.920683 -0.712735
v -0.654078 0.882816 -0.681152
v -0.593607 0.992476 -0.596087
v -0.614548 0.93174 -0.611886
v -0.618973 0.879702 -0.637404
v -0.574125 0.88318 -0.603749
v -0.557462 0.939638 -0.579394
v -0.52295 0.892986 -0.58275
v -0.469343 0.908374 -0.576005
v -0.40295 0.892986 -0.58275
v -0.35071 0.85725 -0.599254
v -0.525565 0.842757 -0.611886
v -0.47071 0.85725 -0.599254
v -0.473622 0.814428 -0.6355
v -0.582652 0.83486 -0.644378
v -0.623173 0.836157 -0.686032
v -0.582206 0.799406 -0.697304
v -0.529814 0.798714 -0.661071
v -0.477856 0.783167 -0.681985
v -0.534297 0.775359 -0.71411
v -0.483092 0.765848 -0.73517
v -0.353622 0.814428 -0.6355
v -0.299131 0.845008 -0.623096
v -0.357856 0.783167 -0.681985
v -0.30338 0.800966 -0.67228
v -0.363092 0.765848 -0.73517
v -0.309067 0.777585 -0.725192
v -0.259756 0.803688 -0.718626
v -0.249783 0.839362 -0.666797
v -0.218914 0.84217 -0.71597
v -0.227022 0.822328 -0.77
v -0.280619 0.783932 -0.775483
v -0.335353 0.766326 -0.78402
v -0.310329 0.782028 -0.831803
v -0.25361 0.810941 -0.829501
v -0.289923 0.811757 -0.874882
v -0.608557 0.848749 -0.887557
v -0.594637 0.886985 -0.92629
v -0.558901 0.834745 -0.909786
v -0.572828 0.931259 -0.953125
v -0.540894 0.876618 -0.945857
v -0.504076 0.830756 -0.921374
v -0.54479 0.978201 -0.966021
v -0.511259 0.930847 -0.969477
v -0.479754 0.979577 -0.97287
v -0.391259 0.930847 -0.969477
v -0.384076 0.830756 -0.921374
v -0.355114 0.878009 -0.952785
v -0.328255 0.837085 -0.921439
v -0.475114 0.878009 -0.952785
v -0.643427 0.892567 -0.883083
v -0.666693 0.941999 -0.87
v -0.626387 0.935102 -0.918848
v -0.676586 0.993281 -0.849305
v -0.6461 0.994977 -0.898767
v -0.596752 0.989331 -0.942468
v -0.637844 0.843777 -0.839875
v -0.655953 0.848134 -0.786875
v -0.670089 0.8914 -0.831445
v -0.661505 0.861485 -0.732589
v -0.684155 0.901928 -0.767662
v -0.689802 0.951276 -0.811363
v -0.585604 0.808041 -0.856379
v -0.55545 0.779381 -0.818626
v -0.611604 0.805907 -0.804436
v -0.520389 0.764951 -0.777171
v -0.572833 0.780289 -0.757345
v -0.625671 0.816434 -0.740653
v -0.531758 0.796771 -0.875146
v -0.345977 0.798162 -0.882074
v -0.492987 0.771153 -0.828056
v -0.372987 0.771153 -0.828056
v -0.400389 0.764951 -0.777171
v -0.465977 0.798162 -0.882074
f 1 2 3
f 2 4 5
f 3 5 6
f 2 5 3
f 4 7 8
f 7 9 10
f 8 10 11
f 7 10 8
f 6 12 13
f 12 11 14
f 13 14 15
f 12 14 13
f 4 8 5
f 8 11 12
f 5 12 6
f 8 12 5
f 1 3 16
f 3 6 17
f 16 17 18
f 3 17 16
f 6 13 19
f 13 15 20
f 19 20 21
f 13 20 19
f 18 22 23
f 22 21 24
f 23 24 25
f 22 24 23
f 6 19 17
f 19 21 22
f 17 22 18
f 19 22 17
f 1 16 26
f 16 18 27
f 26 27 28
f 16 27 26
f 18 23 29
f 30 31 32
f 33 32 34
f 30 32 33
f 35 36 37
f 36 34 38
f 37 38 39
f 36 38 37
f 18 29 27
f 33 34 36
f 27 40 28
f 29 40 27
f 1 26 41
f 26 28 42
f 41 42 43
f 26 42 41
f 35 37 44
f 37 39 45
f 44 45 46
f 37 45 44
f 43 47 48
f 49 46 50
f 48 51 52
f 47 51 48
f 28 53 42
f 44 46 49
f 42 47 43
f 53 47 42
f 1 41 2
f 41 43 54
f 2 54 4
f 41 54 2
f 43 48 55
f 48 52 56
f 55 56 57
f 48 56 55
f 4 58 7
f 58 57 59
f 7 59 9
f 58 59 7
f 43 55 54
f 55 57 58
f 54 58 4
f 55 58 54
f 9 60 10
f 60 61 62
f 10 62 11
f 60 62 10
f 61 63 64
f 63 65 66
f 64 66 67
f 63 66 64
f 11 68 14
f 68 67 69
f 14 69 15
f 68 69 14
f 61 64 62
f 64 67 68
f 62 68 11
f 64 68 62
f 15 69 70
f 69 67 71
f 70 71 72
f 69 71 70
f 67 66 73
f 66 65 74
f 73 74 75
f 66 74 73
f 72 76 77
f 76 75 78
f 77 78 79
f 76 78 77
f 67 73 71
f 73 75 76
f 71 76 72
f 73 76 71
f 15 70 20
f 70 72 80
f 20 80 21
f 70 80 20
f 72 77 81
f 82 83 84
f 81 85 86
f 77 85 81
f 21 87 24
f 87 86 88
f 24 88 25
f 87 88 24
f 72 81 80
f 81 86 87
f 80 87 21
f 81 87 80
f 31 89 90
f 89 91 92
f 90 92 93
f 89 92 90
f 91 84 94
f 84 83 95
f 94 95 96
f 84 95 94
f 93 97 98
f 97 96 99
f 98 99 100
f 97 99 98
f 91 94 92
f 94 96 97
f 92 97 93
f 94 97 92
f 31 90 32
f 90 93 101
f 32 101 34
f 90 101 32
f 93 98 102
f 98 100 103
f 102 103 104
f 98 103 102
f 34 105 38
f 105 104 106
f 38 106 39
f 105 106 38
f 93 102 101
f 102 104 105
f 101 105 34
f 102 105 101
f 39 106 107
f 106 104 108
f 107 108 109
f 106 108 107
f 104 103 110
f 103 100 111
f 110 111 112
f 103 111 110
f 109 113 114
f 113 112 115
f 114 115 116
f 113 115 114
f 104 110 108
f 110 112 113
f 108 113 109
f 110 113 108
f 39 107 45
f 107 109 117
f 45 117 46
f 107 117 45
f 109 114 118
f 114 116 119
f 118 119 120
f 114 119 118
f 46 121 50
f 121 120 122
f 50 122 123
f 121 122 50
f 109 118 117
f 118 120 121
f 117 121 46
f 118 121 117
f 52 124 125
f 122 120 126
f 127 126 128
f 122 126 127
f 120 119 129
f 119 116 130
f 129 130 131
f 119 130 129
f 128 132 133
f 132 131 134
f 133 134 135
f 132 134 133
f 120 129 126
f 129 131 132
f 126 132 128
f 129 132 126
f 52 125 56
f 125 136 137
f 56 137 57
f 125 137 56
f 136 138 139
f 138 140 141
f 139 141 142
f 138 141 139
f 57 143 59
f 143 142 144
f 59 144 9
f 143 144 59
f 136 139 137
f 139 142 143
f 137 143 57
f 139 143 137
f 9 144 60
f 144 142 145
f 60 145 61
f 144 145 60
f 142 141 146
f 141 140 147
f 146 147 148
f 141 147 146
f 61 149 63
f 149 148 150
f 63 150 65
f 149 150 63
f 142 146 145
f 146 148 149
f 145 149 61
f 146 149 145
f 151 152 153
f 152 154 155
f 153 155 156
f 152 155 153
f 154 157 158
f 157 83 159
f 160 78 75
f 157 159 158
f 161 162 163
f 162 75 74
f 163 74 65
f 162 74 163
f 154 158 155
f 160 75 162
f 155 164 156
f 158 164 155
f 151 165 152
f 165 166 167
f 152 167 154
f 165 167 152
f 166 168 169
f 168 100 99
f 169 99 96
f 168 99 169
f 154 170 157
f 170 96 95
f 157 95 83
f 170 95 157
f 166 169 167
f 169 96 170
f 167 170 154
f 169 170 167
f 151 171 165
f 171 172 173
f 165 173 166
f 171 173 165
f 172 174 175
f 174 116 115
f 175 115 112
f 174 115 175
f 166 176 168
f 176 112 111
f 168 111 100
f 176 111 168
f 172 175 173
f 175 112 176
f 173 176 166
f 175 176 173
f 151 177 171
f 177 178 179
f 171 179 172
f 177 179 171
f 178 180 181
f 180 135 134
f 181 134 131
f 180 134 181
f 172 182 174
f 182 131 130
f 174 130 116
f 182 130 174
f 178 181 179
f 181 131 182
f 179 182 172
f 181 182 179
f 151 153 177
f 153 156 183
f 177 183 178
f 153 183 177
f 161 163 184
f 163 65 150
f 184 150 148
f 163 150 184
f 178 185 180
f 186 148 147
f 187 147 140
f 186 147 187
f 156 188 183
f 184 148 186
f 183 185 178
f 188 185 183
f 25 31 23
f 23 31 30
f 23 30 29
f 29 30 33
f 40 36 28
f 28 36 35
f 29 33 40
f 40 33 36
f 51 50 52
f 52 50 123
f 47 49 51
f 51 49 50
f 28 35 53
f 53 35 44
f 53 44 47
f 47 44 49
f 78 159 79
f 79 159 83
f 79 83 77
f 77 83 82
f 85 84 86
f 86 84 91
f 77 82 85
f 85 82 84
f 86 91 88
f 88 91 89
f 88 89 25
f 25 89 31
f 52 123 124
f 124 123 122
f 124 122 125
f 125 122 127
f 125 127 136
f 136 127 128
f 136 128 138
f 138 128 133
f 138 133 140
f 140 133 135
f 160 158 78
f 78 158 159
f 161 156 162
f 162 156 164
f 162 164 160
f 160 164 158
f 184 188 161
f 161 188 156
f 140 135 187
f 187 135 180
f 187 180 186
f 186 180 185
f 186 185 184
f 184 185 188
