v -0.373443 1.08386 -0.652443
v -0.338573 1.04004 -0.656917
v -0.344156 1.08883 -0.700125
v -0.315307 0.990612 -0.67
v -0.311911 1.04121 -0.708555
v -0.326047 1.08448 -0.753125
v -0.305414 0.93933 -0.690695
v -0.292198 0.981336 -0.728637
v -0.309649 0.890101 -0.717427
v -0.291507 0.928922 -0.753756
v -0.28855 0.970588 -0.791322
v -0.297845 1.03068 -0.772338
v -0.320495 1.07113 -0.807411
v -0.301004 1.01193 -0.827265
v -0.327922 1.0498 -0.858848
v -0.396396 1.12457 -0.683621
v -0.370396 1.1267 -0.735564
v -0.42655 1.15323 -0.721374
v -0.356329 1.11618 -0.799347
v -0.358827 1.09645 -0.853968
v -0.399793 1.13321 -0.842696
v -0.409166 1.15232 -0.782655
v -0.461611 1.16766 -0.762829
v -0.447703 1.15725 -0.82589
v -0.498908 1.16676 -0.80483
v -0.423099 1.09787 -0.630214
v -0.450242 1.13584 -0.664854
v -0.477924 1.10186 -0.618626
v -0.489013 1.16146 -0.711944
v -0.526646 1.16629 -0.75598
v -0.551671 1.15058 -0.708197
v -0.516022 1.13445 -0.657926
v -0.533745 1.09553 -0.618561
v -0.572077 1.12085 -0.665118
v -0.586311 1.07936 -0.630024
v -0.387363 1.04563 -0.61371
v -0.441106 1.05599 -0.594143
v -0.409172 1.00135 -0.586875
v -0.506886 1.0546 -0.587215
v -0.563044 1.04191 -0.595207
v -0.534293 0.998706 -0.573697
v -0.470741 1.00176 -0.570523
v -0.43721 0.95441 -0.573979
v -0.502246 0.953035 -0.56713
v -0.469343 0.908374 -0.576005
v -0.355613 0.99751 -0.621152
v -0.385248 0.943281 -0.597532
v -0.41772 0.895212 -0.593833
v -0.371675 0.887462 -0.625071
v -0.3359 0.937634 -0.641233
v -0.334714 0.885715 -0.667342
v -0.312211 0.868873 -0.769377
v -0.328382 0.855062 -0.821374
v -0.299072 0.910073 -0.808219
v -0.356932 0.849719 -0.869461
v -0.32566 0.898685 -0.86772
v -0.395688 0.853251 -0.909976
v -0.362515 0.898509 -0.912668
v -0.339122 0.948928 -0.9045
v -0.304719 0.959421 -0.85192
v -0.327291 1.00067 -0.886093
v -0.363027 1.05291 -0.902596
v -0.367452 1.00087 -0.928114
v -0.407875 1.04943 -0.936251
v -0.388393 0.940136 -0.943913
v -0.418955 0.890701 -0.944793
v -0.447707 0.933905 -0.966303
v -0.424538 0.992973 -0.960606
v -0.45905 1.03963 -0.95725
v -0.479754 0.979577 -0.97287
v -0.512657 1.02424 -0.963995
v -0.399348 1.09775 -0.895622
v -0.456434 1.08985 -0.928114
v -0.51129 1.07536 -0.940746
v -0.508378 1.11818 -0.9045
v -0.452186 1.1339 -0.878929
v -0.504143 1.14944 -0.858015
v -0.552933 1.15503 -0.814808
v -0.55862 1.13165 -0.86772
v -0.602243 1.12892 -0.821374
v -0.562869 1.0876 -0.916904
v -0.56428 1.0374 -0.946167
v -0.610325 1.04515 -0.914929
v -0.612217 1.09325 -0.873203
v -0.643086 1.09044 -0.82403
v -0.647286 1.0469 -0.872658
v -0.67235 1.04251 -0.822573
v -0.581381 1.14868 -0.764517
v -0.634977 1.11028 -0.77
v -0.669789 1.06374 -0.770623
v -0.653618 1.07755 -0.718626
v -0.60839 1.12167 -0.710499
v -0.625067 1.08289 -0.670539
v -0.619485 1.0341 -0.627332
v -0.65634 1.03393 -0.67228
v -0.642878 0.983684 -0.6355
v -0.682927 1.02254 -0.731781
v -0.690493 1.00369 -0.786244
v -0.69345 0.962024 -0.748678
v -0.677281 0.973191 -0.68808
v -0.654709 0.931942 -0.653907
v -0.680996 0.920683 -0.712735
v -0.654078 0.882816 -0.681152
v -0.593607 0.992476 -0.596087
v -0.614548 0.93174 -0.611886
v -0.618973 0.879702 -0.637404
v -0.574125 0.88318 -0.603749
v -0.557462 0.939638 -0.579394
v -0.52295 0.892986 -0.58275
v -0.47071 0.85725 -0.599254
v -0.525565 0.842757 -0.611886
v -0.473622 0.814428 -0.6355
v -0.582652 0.83486 -0.644378
v -0.623173 0.836157 -0.686032
v -0.582206 0.799406 -0.697304
v -0.529814 0.798714 -0.661071
v -0.477856 0.783167 -0.681985
v -0.534297 0.775359 -0.71411
v -0.483092 0.765848 -0.73517
v -0.419131 0.845008 -0.623096
v -0.42338 0.800966 -0.67228
v -0.429067 0.777585 -0.725192
v -0.379756 0.803688 -0.718626
v -0.369783 0.839362 -0.666797
v -0.338914 0.84217 -0.71597
v -0.347023 0.822328 -0.77
v -0.400619 0.783932 -0.775483
v -0.455353 0.766326 -0.78402
v -0.430329 0.782028 -0.831803
v -0.37361 0.810941 -0.829501
v -0.409923 0.811757 -0.874882
v -0.608557 0.848749 -0.887557
v -0.594637 0.886985 -0.92629
v -0.558901 0.834745 -0.909786
v -0.572828 0.931259 -0.953125
v -0.540894 0.876618 -0.945857
v -0.504076 0.830756 -0.921374
v -0.54479 0.978201 -0.966021
v -0.511259 0.930847 -0.969477
v -0.475114 0.878009 -0.952785
v -0.448255 0.837085 -0.921439
v -0.643427 0.892567 -0.883083
v -0.666693 0.941999 -0.87
v -0.626387 0.935102 -0.918848
v -0.676586 0.993281 -0.849305
v -0.6461 0.994977 -0.898767
v -0.596752 0.989331 -0.942468
v -0.637844 0.843777 -0.839875
v -0.655953 0.848134 -0.786875
v -0.670089 0.8914 -0.831445
v -0.661505 0.861485 -0.732589
v -0.684155 0.901928 -0.767662
v -0.689802 0.951276 -0.811363
v -0.585604 0.808041 -0.856379
v -0.55545 0.779381 -0.818626
v -0.611604 0.805907 -0.804436
v -0.520389 0.764951 -0.777171
v -0.572833 0.780289 -0.757345
v -0.625671 0.816434 -0.740653
v -0.531758 0.796771 -0.875146
v -0.465977 0.798162 -0.882074
v -0.492987 0.771153 -0.828056
f 1 2 3
f 2 4 5
f 3 5 6
f 2 5 3
f 4 7 8
f 7 9 10
f 8 10 11
f 7 10 8
f 6 12 13
f 12 11 14
f 13 14 15
f 12 14 13
f 4 8 5
f 8 11 12
f 5 12 6
f 8 12 5
f 1 3 16
f 3 6 17
f 16 17 18
f 3 17 16
f 6 13 19
f 13 15 20
f 19 20 21
f 13 20 19
f 18 22 23
f 22 21 24
f 23 24 25
f 22 24 23
f 6 19 17
f 19 21 22
f 17 22 18
f 19 22 17
f 1 16 26
f 16 18 27
f 26 27 28
f 16 27 26
f 18 23 29
f 23 25 30
f 29 30 31
f 23 30 29
f 28 32 33
f 32 31 34
f 33 34 35
f 32 34 33
f 18 29 27
f 29 31 32
f 27 32 28
f 29 32 27
f 1 26 36
f 26 28 37
f 36 37 38
f 26 37 36
f 28 33 39
f 33 35 40
f 39 40 41
f 33 40 39
f 38 42 43
f 42 41 44
f 43 44 45
f 42 44 43
f 28 39 37
f 39 41 42
f 37 42 38
f 39 42 37
f 1 36 2
f 36 38 46
f 2 46 4
f 36 46 2
f 38 43 47
f 43 45 48
f 47 48 49
f 43 48 47
f 4 50 7
f 50 49 51
f 7 51 9
f 50 51 7
f 38 47 46
f 47 49 50
f 46 50 4
f 47 50 46
f 9 52 10
f 52 53 54
f 10 54 11
f 52 54 10
f 53 55 56
f 55 57 58
f 56 58 59
f 55 58 56
f 11 60 14
f 60 59 61
f 14 61 15
f 60 61 14
f 53 56 54
f 56 59 60
f 54 60 11
f 56 60 54
f 15 61 62
f 61 59 63
f 62 63 64
f 61 63 62
f 59 58 65
f 58 57 66
f 65 66 67
f 58 66 65
f 64 68 69
f 68 67 70
f 69 70 71
f 68 70 69
f 59 65 63
f 65 67 68
f 63 68 64
f 65 68 63
f 15 62 20
f 62 64 72
f 20 72 21
f 62 72 20
f 64 69 73
f 69 71 74
f 73 74 75
f 69 74 73
f 21 76 24
f 76 75 77
f 24 77 25
f 76 77 24
f 64 73 72
f 73 75 76
f 72 76 21
f 73 76 72
f 25 77 78
f 77 75 79
f 78 79 80
f 77 79 78
f 75 74 81
f 74 71 82
f 81 82 83
f 74 82 81
f 80 84 85
f 84 83 86
f 85 86 87
f 84 86 85
f 75 81 79
f 81 83 84
f 79 84 80
f 81 84 79
f 25 78 30
f 78 80 88
f 30 88 31
f 78 88 30
f 80 85 89
f 85 87 90
f 89 90 91
f 85 90 89
f 31 92 34
f 92 91 93
f 34 93 35
f 92 93 34
f 80 89 88
f 89 91 92
f 88 92 31
f 89 92 88
f 35 93 94
f 93 91 95
f 94 95 96
f 93 95 94
f 91 90 97
f 90 87 98
f 97 98 99
f 90 98 97
f 96 100 101
f 100 99 102
f 101 102 103
f 100 102 101
f 91 97 95
f 97 99 100
f 95 100 96
f 97 100 95
f 35 94 40
f 94 96 104
f 40 104 41
f 94 104 40
f 96 101 105
f 101 103 106
f 105 106 107
f 101 106 105
f 41 108 44
f 108 107 109
f 44 109 45
f 108 109 44
f 96 105 104
f 105 107 108
f 104 108 41
f 105 108 104
f 45 109 110
f 109 107 111
f 110 111 112
f 109 111 110
f 107 106 113
f 106 103 114
f 113 114 115
f 106 114 113
f 112 116 117
f 116 115 118
f 117 118 119
f 116 118 117
f 107 113 111
f 113 115 116
f 111 116 112
f 113 116 111
f 45 110 48
f 110 112 120
f 48 120 49
f 110 120 48
f 112 117 121
f 117 119 122
f 121 122 123
f 117 122 121
f 49 124 51
f 124 123 125
f 51 125 9
f 124 125 51
f 112 121 120
f 121 123 124
f 120 124 49
f 121 124 120
f 9 125 52
f 125 123 126
f 52 126 53
f 125 126 52
f 123 122 127
f 122 119 128
f 127 128 129
f 122 128 127
f 53 130 55
f 130 129 131
f 55 131 57
f 130 131 55
f 123 127 126
f 127 129 130
f 126 130 53
f 127 130 126
f 132 133 134
f 133 135 136
f 134 136 137
f 133 136 134
f 135 138 139
f 138 71 70
f 139 70 67
f 138 70 139
f 137 140 141
f 140 67 66
f 141 66 57
f 140 66 141
f 135 139 136
f 139 67 140
f 136 140 137
f 139 140 136
f 132 142 133
f 142 143 144
f 133 144 135
f 142 144 133
f 143 145 146
f 145 87 86
f 146 86 83
f 145 86 146
f 135 147 138
f 147 83 82
f 138 82 71
f 147 82 138
f 143 146 144
f 146 83 147
f 144 147 135
f 146 147 144
f 132 148 142
f 148 149 150
f 142 150 143
f 148 150 142
f 149 151 152
f 151 103 102
f 152 102 99
f 151 102 152
f 143 153 145
f 153 99 98
f 145 98 87
f 153 98 145
f 149 152 150
f 152 99 153
f 150 153 143
f 152 153 150
f 132 154 148
f 154 155 156
f 148 156 149
f 154 156 148
f 155 157 158
f 157 119 118
f 158 118 115
f 157 118 158
f 149 159 151
f 159 115 114
f 151 114 103
f 159 114 151
f 155 158 156
f 158 115 159
f 156 159 149
f 158 159 156
f 132 134 154
f 134 137 160
f 154 160 155
f 134 160 154
f 137 141 161
f 141 57 131
f 161 131 129
f 141 131 161
f 155 162 157
f 162 129 128
f 157 128 119
f 162 128 157
f 137 161 160
f 161 129 162
f 160 162 155
f 161 162 160
