v -0.373443 1.06368 -0.532443
v -0.338573 1.01986 -0.536917
v -0.344156 1.06865 -0.580125
v -0.315307 0.970426 -0.55
v -0.311911 1.02103 -0.588555
v -0.326047 1.06429 -0.633125
v -0.305414 0.919144 -0.570695
v -0.292198 0.96115 -0.608636
v -0.309649 0.869916 -0.597427
v -0.291507 0.908736 -0.633756
v -0.28855 0.950402 -0.671322
v -0.326047 1.08448 -0.753125
v -0.297845 1.03068 -0.772338
v -0.320495 1.07113 -0.807411
v -0.28855 0.970588 -0.791322
v -0.301004 1.01193 -0.827265
v -0.327922 1.0498 -0.858848
v -0.297845 1.0105 -0.652338
v -0.396396 1.10438 -0.563621
v -0.370396 1.10652 -0.615564
v -0.42655 1.13304 -0.601374
v -0.356329 1.11618 -0.799347
v -0.358827 1.09645 -0.853968
v -0.399793 1.13321 -0.842696
v -0.42655 1.15323 -0.721374
v -0.409166 1.15232 -0.782655
v -0.461611 1.16766 -0.762829
v -0.447703 1.15725 -0.82589
v -0.498908 1.16676 -0.80483
v -0.370396 1.1267 -0.735564
v -0.423099 1.07768 -0.510214
v -0.450242 1.11565 -0.544854
v -0.477924 1.08167 -0.498626
v -0.461611 1.14747 -0.642829
v -0.489013 1.14127 -0.591944
v -0.526646 1.16629 -0.75598
v -0.526646 1.1461 -0.63598
v -0.551671 1.1304 -0.588197
v -0.489013 1.16146 -0.711944
v -0.516022 1.11426 -0.537926
v -0.533745 1.07534 -0.498561
v -0.572077 1.10067 -0.545118
v -0.586311 1.05917 -0.510024
v -0.387363 1.02544 -0.49371
v -0.441106 1.03581 -0.474143
v -0.409172 0.981167 -0.466875
v -0.506886 1.03442 -0.467215
v -0.563044 1.02172 -0.475207
v -0.534293 0.97852 -0.453697
v -0.470741 0.981579 -0.450523
v -0.43721 0.934224 -0.453979
v -0.502246 0.932849 -0.44713
v -0.469343 0.888188 -0.456005
v -0.355613 0.977324 -0.501152
v -0.385248 0.923095 -0.477532
v -0.41772 0.875026 -0.473833
v -0.371675 0.867277 -0.505071
v -0.3359 0.917448 -0.521233
v -0.334714 0.865529 -0.547342
v -0.312211 0.848688 -0.649377
v -0.312211 0.868873 -0.769377
v -0.328382 0.855062 -0.821374
v -0.299072 0.910073 -0.808219
v -0.291507 0.928922 -0.753756
v -0.299072 0.889887 -0.688219
v -0.356932 0.849719 -0.869461
v -0.32566 0.898685 -0.86772
v -0.395688 0.853251 -0.909976
v -0.362515 0.898509 -0.912668
v -0.339122 0.948928 -0.9045
v -0.304719 0.959421 -0.85192
v -0.327291 1.00067 -0.886093
v -0.363027 1.05291 -0.902596
v -0.367452 1.00087 -0.928114
v -0.407875 1.04943 -0.936251
v -0.388393 0.940136 -0.943913
v -0.418955 0.890701 -0.944793
v -0.447707 0.933905 -0.966303
v -0.424538 0.992973 -0.960606
v -0.45905 1.03963 -0.95725
v -0.479754 0.979577 -0.97287
v -0.512657 1.02424 -0.963995
v -0.399348 1.09775 -0.895622
v -0.456434 1.08985 -0.928114
v -0.51129 1.07536 -0.940746
v -0.508378 1.11818 -0.9045
v -0.452186 1.1339 -0.878929
v -0.504143 1.14944 -0.858015
v -0.552933 1.15503 -0.814808
v -0.55862 1.13165 -0.86772
v -0.602243 1.12892 -0.821374
v -0.562869 1.0876 -0.916904
v -0.56428 1.0374 -0.946167
v -0.610325 1.04515 -0.914929
v -0.612217 1.09325 -0.873203
v -0.643086 1.09044 -0.82403
v -0.647286 1.0469 -0.872658
v -0.67235 1.04251 -0.822573
v -0.581381 1.14868 -0.764517
v -0.551671 1.15058 -0.708197
v -0.634977 1.11028 -0.77
v -0.669789 1.06374 -0.770623
v -0.653618 1.07755 -0.718626
v -0.60839 1.10148 -0.590499
v -0.653618 1.05736 -0.598626
v -0.625067 1.06271 -0.550539
v -0.634977 1.0901 -0.65
v -0.581381 1.12849 -0.644517
v -0.60839 1.12167 -0.710499
v -0.619485 1.01392 -0.507332
v -0.65634 1.01374 -0.55228
v -0.642878 0.963498 -0.5155
v -0.669789 1.04355 -0.650623
v -0.682927 1.00235 -0.611781
v -0.690493 1.00369 -0.786244
v -0.690493 0.983504 -0.666244
v -0.69345 0.941838 -0.628678
v -0.682927 1.02254 -0.731781
v -0.677281 0.953005 -0.56808
v -0.654709 0.911756 -0.533907
v -0.680996 0.900498 -0.592735
v -0.654078 0.86263 -0.561152
v -0.593607 0.97229 -0.476087
v -0.614548 0.911554 -0.491886
v -0.618973 0.859516 -0.517404
v -0.574125 0.862994 -0.483749
v -0.557462 0.919452 -0.459394
v -0.52295 0.872801 -0.46275
v -0.47071 0.837064 -0.479254
v -0.525565 0.822571 -0.491886
v -0.473622 0.794242 -0.5155
v -0.582652 0.814674 -0.524378
v -0.623173 0.815971 -0.566032
v -0.582206 0.77922 -0.577304
v -0.529814 0.778529 -0.541071
v -0.477856 0.762982 -0.561985
v -0.534297 0.755173 -0.59411
v -0.483092 0.745662 -0.61517
v -0.419131 0.824823 -0.503096
v -0.42338 0.78078 -0.55228
v -0.429067 0.757399 -0.605192
v -0.379756 0.783502 -0.598626
v -0.369783 0.819176 -0.546797
v -0.338914 0.821984 -0.59597
v -0.347023 0.802142 -0.65
v -0.328382 0.834876 -0.701374
v -0.400619 0.763746 -0.655483
v -0.455353 0.74614 -0.66402
v -0.430329 0.761842 -0.711803
v -0.37361 0.810941 -0.829501
v -0.430329 0.782028 -0.831803
v -0.409923 0.811757 -0.874882
v -0.400619 0.783932 -0.775483
v -0.347023 0.822328 -0.77
v -0.37361 0.790755 -0.709501
v -0.608557 0.848749 -0.887557
v -0.594637 0.886985 -0.92629
v -0.558901 0.834745 -0.909786
v -0.572828 0.931259 -0.953125
v -0.540894 0.876618 -0.945857
v -0.504076 0.830756 -0.921374
v -0.54479 0.978201 -0.966021
v -0.511259 0.930847 -0.969477
v -0.475114 0.878009 -0.952785
v -0.448255 0.837085 -0.921439
v -0.643427 0.892567 -0.883083
v -0.666693 0.941999 -0.87
v -0.626387 0.935102 -0.918848
v -0.676586 0.993281 -0.849305
v -0.6461 0.994977 -0.898767
v -0.596752 0.989331 -0.942468
v -0.637844 0.843777 -0.839875
v -0.655953 0.848134 -0.786875
v -0.670089 0.8914 -0.831445
v -0.655953 0.827948 -0.666875
v -0.661505 0.841299 -0.612589
v -0.684155 0.881742 -0.647662
v -0.689802 0.951276 -0.811363
v -0.69345 0.962024 -0.748678
v -0.684155 0.901928 -0.767662
v -0.585604 0.808041 -0.856379
v -0.55545 0.779381 -0.818626
v -0.611604 0.805907 -0.804436
v -0.55545 0.759195 -0.698626
v -0.520389 0.744765 -0.657171
v -0.572833 0.760103 -0.637345
v -0.625671 0.796249 -0.620653
v -0.611604 0.785721 -0.684436
v -0.531758 0.796771 -0.875146
v -0.465977 0.798162 -0.882074
v -0.492987 0.771153 -0.828056
v -0.520389 0.764951 -0.777171
v -0.455353 0.766326 -0.78402
v -0.492987 0.750967 -0.708056
f 1 2 3
f 2 4 5
f 3 5 6
f 2 5 3
f 4 7 8
f 7 9 10
f 8 10 11
f 7 10 8
f 12 13 14
f 13 15 16
f 14 16 17
f 13 16 14
f 4 8 5
f 8 11 18
f 5 18 6
f 8 18 5
f 1 3 19
f 3 6 20
f 19 20 21
f 3 20 19
f 12 14 22
f 14 17 23
f 22 23 24
f 14 23 22
f 25 26 27
f 26 24 28
f 27 28 29
f 26 28 27
f 12 22 30
f 22 24 26
f 30 26 25
f 22 26 30
f 1 19 31
f 19 21 32
f 31 32 33
f 19 32 31
f 21 34 35
f 27 29 36
f 35 37 38
f 27 36 39
f 33 40 41
f 40 38 42
f 41 42 43
f 40 42 41
f 21 35 32
f 35 38 40
f 32 40 33
f 35 40 32
f 1 31 44
f 31 33 45
f 44 45 46
f 31 45 44
f 33 41 47
f 41 43 48
f 47 48 49
f 41 48 47
f 46 50 51
f 50 49 52
f 51 52 53
f 50 52 51
f 33 47 45
f 47 49 50
f 45 50 46
f 47 50 45
f 1 44 2
f 44 46 54
f 2 54 4
f 44 54 2
f 46 51 55
f 51 53 56
f 55 56 57
f 51 56 55
f 4 58 7
f 58 57 59
f 7 59 9
f 58 59 7
f 46 55 54
f 55 57 58
f 54 58 4
f 55 58 54
f 9 60 10
f 61 62 63
f 64 63 15
f 60 65 10
f 62 66 67
f 66 68 69
f 67 69 70
f 66 69 67
f 15 71 16
f 71 70 72
f 16 72 17
f 71 72 16
f 62 67 63
f 67 70 71
f 63 71 15
f 67 71 63
f 17 72 73
f 72 70 74
f 73 74 75
f 72 74 73
f 70 69 76
f 69 68 77
f 76 77 78
f 69 77 76
f 75 79 80
f 79 78 81
f 80 81 82
f 79 81 80
f 70 76 74
f 76 78 79
f 74 79 75
f 76 79 74
f 17 73 23
f 73 75 83
f 23 83 24
f 73 83 23
f 75 80 84
f 80 82 85
f 84 85 86
f 80 85 84
f 24 87 28
f 87 86 88
f 28 88 29
f 87 88 28
f 75 84 83
f 84 86 87
f 83 87 24
f 84 87 83
f 29 88 89
f 88 86 90
f 89 90 91
f 88 90 89
f 86 85 92
f 85 82 93
f 92 93 94
f 85 93 92
f 91 95 96
f 95 94 97
f 96 97 98
f 95 97 96
f 86 92 90
f 92 94 95
f 90 95 91
f 92 95 90
f 29 89 36
f 89 91 99
f 36 99 100
f 89 99 36
f 91 96 101
f 96 98 102
f 101 102 103
f 96 102 101
f 38 104 42
f 104 105 106
f 42 106 43
f 104 106 42
f 91 101 99
f 107 105 104
f 108 104 38
f 101 109 99
f 43 106 110
f 106 105 111
f 110 111 112
f 106 111 110
f 105 113 114
f 102 98 115
f 114 116 117
f 102 115 118
f 112 119 120
f 119 117 121
f 120 121 122
f 119 121 120
f 105 114 111
f 114 117 119
f 111 119 112
f 114 119 111
f 43 110 48
f 110 112 123
f 48 123 49
f 110 123 48
f 112 120 124
f 120 122 125
f 124 125 126
f 120 125 124
f 49 127 52
f 127 126 128
f 52 128 53
f 127 128 52
f 112 124 123
f 124 126 127
f 123 127 49
f 124 127 123
f 53 128 129
f 128 126 130
f 129 130 131
f 128 130 129
f 126 125 132
f 125 122 133
f 132 133 134
f 125 133 132
f 131 135 136
f 135 134 137
f 136 137 138
f 135 137 136
f 126 132 130
f 132 134 135
f 130 135 131
f 132 135 130
f 53 129 56
f 129 131 139
f 56 139 57
f 129 139 56
f 131 136 140
f 136 138 141
f 140 141 142
f 136 141 140
f 57 143 59
f 143 142 144
f 59 144 9
f 143 144 59
f 131 140 139
f 140 142 143
f 139 143 57
f 140 143 139
f 9 144 60
f 144 142 145
f 60 145 146
f 144 145 60
f 142 141 147
f 141 138 148
f 147 148 149
f 141 148 147
f 62 150 66
f 150 151 152
f 66 152 68
f 150 152 66
f 142 147 145
f 153 151 150
f 154 150 62
f 147 155 145
f 156 157 158
f 157 159 160
f 158 160 161
f 157 160 158
f 159 162 163
f 162 82 81
f 163 81 78
f 162 81 163
f 161 164 165
f 164 78 77
f 165 77 68
f 164 77 165
f 159 163 160
f 163 78 164
f 160 164 161
f 163 164 160
f 156 166 157
f 166 167 168
f 157 168 159
f 166 168 157
f 167 169 170
f 169 98 97
f 170 97 94
f 169 97 170
f 159 171 162
f 171 94 93
f 162 93 82
f 171 93 162
f 167 170 168
f 170 94 171
f 168 171 159
f 170 171 168
f 156 172 166
f 172 173 174
f 166 174 167
f 172 174 166
f 175 176 177
f 176 122 121
f 177 121 117
f 176 121 177
f 167 178 169
f 178 179 115
f 169 115 98
f 178 115 169
f 173 180 174
f 180 179 178
f 174 178 167
f 180 178 174
f 156 181 172
f 181 182 183
f 172 183 173
f 181 183 172
f 184 185 186
f 185 138 137
f 186 137 134
f 185 137 186
f 175 187 176
f 187 134 133
f 176 133 122
f 187 133 176
f 184 186 188
f 186 134 187
f 188 187 175
f 186 187 188
f 156 158 181
f 158 161 189
f 181 189 182
f 158 189 181
f 161 165 190
f 165 68 152
f 190 152 151
f 165 152 190
f 182 191 192
f 191 151 193
f 185 148 138
f 194 148 185
f 161 190 189
f 190 151 191
f 189 191 182
f 190 191 189
f 12 6 13
f 13 6 18
f 13 18 15
f 15 18 11
f 27 34 25
f 25 34 21
f 30 20 12
f 12 20 6
f 25 21 30
f 30 21 20
f 36 37 39
f 39 37 35
f 39 35 27
f 27 35 34
f 61 60 62
f 62 60 146
f 63 65 61
f 61 65 60
f 64 10 63
f 63 10 65
f 15 11 64
f 64 11 10
f 99 108 100
f 100 108 38
f 100 38 36
f 36 38 37
f 102 113 103
f 103 113 105
f 103 105 101
f 101 105 107
f 101 107 109
f 109 107 104
f 109 104 99
f 99 104 108
f 115 116 118
f 118 116 114
f 118 114 102
f 102 114 113
f 153 147 151
f 151 147 149
f 150 155 153
f 153 155 147
f 154 145 150
f 150 145 155
f 62 146 154
f 154 146 145
f 179 117 115
f 115 117 116
f 173 175 180
f 180 175 177
f 180 177 179
f 179 177 117
f 182 184 183
f 183 184 188
f 183 188 173
f 173 188 175
f 191 194 192
f 192 194 185
f 192 185 182
f 182 185 184
f 151 149 193
f 193 149 148
f 193 148 191
f 191 148 194
