v -0.373443 1.14122 -0.292443
v -0.338573 1.09741 -0.296917
v -0.344156 1.1462 -0.340125
v -0.315307 1.04797 -0.31
v -0.311911 1.09857 -0.348555
v -0.326047 1.14184 -0.393125
v -0.305414 0.996692 -0.330695
v -0.292198 1.0387 -0.368636
v -0.309649 0.947463 -0.357427
v -0.291507 0.986283 -0.393756
v -0.28855 1.02795 -0.431322
v -0.297845 1.08805 -0.412338
v -0.320495 1.12849 -0.447411
v -0.297845 1.0105 -0.652338
v -0.28855 0.950402 -0.671322
v -0.301004 0.991742 -0.707265
v -0.320495 1.05094 -0.687411
v -0.327922 1.02961 -0.738848
v -0.396396 1.18193 -0.323621
v -0.370396 1.18407 -0.375564
v -0.42655 1.21059 -0.361374
v -0.356329 1.17354 -0.439347
v -0.358827 1.07627 -0.733968
v -0.356329 1.09599 -0.679347
v -0.399793 1.11302 -0.722696
v -0.409166 1.20968 -0.422655
v -0.461611 1.22502 -0.402829
v -0.399793 1.19057 -0.482696
v -0.447703 1.21461 -0.46589
v -0.498908 1.22412 -0.44483
v -0.423099 1.15523 -0.270214
v -0.450242 1.1932 -0.304854
v -0.477924 1.15922 -0.258626
v -0.489013 1.21882 -0.351944
v -0.526646 1.22365 -0.39598
v -0.551671 1.20794 -0.348197
v -0.516022 1.19181 -0.297926
v -0.533745 1.15289 -0.258561
v -0.572077 1.17822 -0.305118
v -0.586311 1.13672 -0.270024
v -0.387363 1.10299 -0.25371
v -0.441106 1.11336 -0.234143
v -0.409172 1.05871 -0.226875
v -0.506886 1.11196 -0.227215
v -0.563044 1.09927 -0.235207
v -0.534293 1.05607 -0.213697
v -0.470741 1.05913 -0.210523
v -0.43721 1.01177 -0.213979
v -0.502246 1.0104 -0.20713
v -0.469343 0.965735 -0.216005
v -0.355613 1.05487 -0.261152
v -0.385248 1.00064 -0.237532
v -0.41772 0.952574 -0.233833
v -0.371675 0.944824 -0.265071
v -0.3359 0.994995 -0.281233
v -0.334714 0.943076 -0.307342
v -0.309649 0.869916 -0.597427
v -0.312211 0.848688 -0.649377
v -0.291507 0.908736 -0.633756
v -0.328382 0.834876 -0.701374
v -0.299072 0.889887 -0.688219
v -0.356932 0.829533 -0.749461
v -0.32566 0.8785 -0.74772
v -0.395688 0.833065 -0.789976
v -0.362515 0.878323 -0.792668
v -0.339122 0.928742 -0.7845
v -0.304719 0.939235 -0.73192
v -0.327291 0.980484 -0.766093
v -0.363027 1.03272 -0.782596
v -0.367452 0.980685 -0.808114
v -0.407875 1.02925 -0.816251
v -0.388393 0.91995 -0.823913
v -0.418955 0.870515 -0.824793
v -0.447707 0.91372 -0.846303
v -0.424538 0.972788 -0.840606
v -0.45905 1.01944 -0.83725
v -0.479754 0.959391 -0.85287
v -0.512657 1.00405 -0.843994
v -0.399348 1.07757 -0.775622
v -0.456434 1.06967 -0.808114
v -0.51129 1.05518 -0.820746
v -0.508378 1.098 -0.7845
v -0.452186 1.11371 -0.758929
v -0.447703 1.13707 -0.70589
v -0.504143 1.12926 -0.738015
v -0.498908 1.14658 -0.68483
v -0.504143 1.20681 -0.498015
v -0.552933 1.21239 -0.454808
v -0.55862 1.11146 -0.74772
v -0.552933 1.13484 -0.694808
v -0.602243 1.10874 -0.701374
v -0.562869 1.06742 -0.796904
v -0.56428 1.01721 -0.826167
v -0.610325 1.02496 -0.794929
v -0.612217 1.07306 -0.753203
v -0.643086 1.07026 -0.70403
v -0.647286 1.02671 -0.752658
v -0.67235 1.02232 -0.702573
v -0.602243 1.18628 -0.461374
v -0.581381 1.20604 -0.404517
v -0.643086 1.1478 -0.46403
v -0.634977 1.16764 -0.41
v -0.669789 1.04355 -0.650623
v -0.669789 1.1211 -0.410623
v -0.653618 1.13491 -0.358626
v -0.60839 1.17903 -0.350499
v -0.625067 1.14025 -0.310539
v -0.619485 1.09146 -0.267332
v -0.65634 1.09129 -0.31228
v -0.642878 1.04105 -0.2755
v -0.682927 1.0799 -0.371781
v -0.67235 1.09987 -0.462573
v -0.690493 1.06105 -0.426244
v -0.69345 1.01938 -0.388678
v -0.677281 1.03055 -0.32808
v -0.654709 0.989303 -0.293907
v -0.680996 0.978045 -0.352735
v -0.654078 0.940178 -0.321152
v -0.593607 1.04984 -0.236087
v -0.614548 0.989102 -0.251886
v -0.618973 0.937063 -0.277404
v -0.574125 0.940542 -0.243749
v -0.557462 0.996999 -0.219394
v -0.52295 0.950348 -0.22275
v -0.47071 0.914611 -0.239254
v -0.525565 0.900119 -0.251886
v -0.473622 0.871789 -0.2755
v -0.582652 0.892221 -0.284378
v -0.623173 0.893519 -0.326032
v -0.582206 0.856767 -0.337304
v -0.529814 0.856076 -0.301071
v -0.477856 0.840529 -0.321985
v -0.534297 0.83272 -0.354109
v -0.483092 0.823209 -0.37517
v -0.419131 0.90237 -0.263096
v -0.42338 0.858327 -0.31228
v -0.477856 0.762982 -0.561985
v -0.483092 0.745662 -0.61517
v -0.429067 0.757399 -0.605192
v -0.429067 0.834946 -0.365192
v -0.379756 0.861049 -0.358626
v -0.369783 0.896724 -0.306797
v -0.338914 0.899531 -0.35597
v -0.312211 0.926235 -0.409377
v -0.338914 0.821984 -0.59597
v -0.379756 0.783502 -0.598626
v -0.347023 0.802142 -0.65
v -0.400619 0.763746 -0.655483
v -0.455353 0.74614 -0.66402
v -0.430329 0.761842 -0.711803
v -0.37361 0.790755 -0.709501
v -0.409923 0.791571 -0.754882
v -0.608557 0.828563 -0.767557
v -0.594637 0.866799 -0.80629
v -0.558901 0.814559 -0.789786
v -0.572828 0.911073 -0.833125
v -0.540894 0.856432 -0.825857
v -0.504076 0.81057 -0.801374
v -0.54479 0.958015 -0.846021
v -0.511259 0.910661 -0.849477
v -0.475114 0.857823 -0.832785
v -0.448255 0.816899 -0.801439
v -0.643427 0.872381 -0.763083
v -0.666693 0.921813 -0.75
v -0.626387 0.914916 -0.798848
v -0.676586 0.973095 -0.729305
v -0.6461 0.974791 -0.778767
v -0.596752 0.969145 -0.822468
v -0.637844 0.823592 -0.719875
v -0.655953 0.827948 -0.666875
v -0.670089 0.871214 -0.711445
v -0.661505 0.841299 -0.612589
v -0.684155 0.881742 -0.647662
v -0.661505 0.918847 -0.372589
v -0.684155 0.959289 -0.407662
v -0.689802 0.93109 -0.691363
v -0.69345 0.941838 -0.628678
v -0.690493 0.983504 -0.666244
v -0.585604 0.787855 -0.736379
v -0.55545 0.759195 -0.698626
v -0.611604 0.785721 -0.684436
v -0.520389 0.744765 -0.657171
v -0.572833 0.760103 -0.637345
v -0.534297 0.755173 -0.59411
v -0.582206 0.77922 -0.577304
v -0.625671 0.796249 -0.620653
v -0.625671 0.873796 -0.380653
v -0.531758 0.776585 -0.755146
v -0.465977 0.777976 -0.762074
v -0.492987 0.750967 -0.708056
f 1 2 3
f 2 4 5
f 3 5 6
f 2 5 3
f 4 7 8
f 7 9 10
f 8 10 11
f 7 10 8
f 6 12 13
f 14 15 16
f 17 16 18
f 14 16 17
f 4 8 5
f 8 11 12
f 5 12 6
f 8 12 5
f 1 3 19
f 3 6 20
f 19 20 21
f 3 20 19
f 6 13 22
f 17 18 23
f 24 23 25
f 17 23 24
f 21 26 27
f 26 28 29
f 27 29 30
f 26 29 27
f 6 22 20
f 22 28 26
f 20 26 21
f 22 26 20
f 1 19 31
f 19 21 32
f 31 32 33
f 19 32 31
f 21 27 34
f 27 30 35
f 34 35 36
f 27 35 34
f 33 37 38
f 37 36 39
f 38 39 40
f 37 39 38
f 21 34 32
f 34 36 37
f 32 37 33
f 34 37 32
f 1 31 41
f 31 33 42
f 41 42 43
f 31 42 41
f 33 38 44
f 38 40 45
f 44 45 46
f 38 45 44
f 43 47 48
f 47 46 49
f 48 49 50
f 47 49 48
f 33 44 42
f 44 46 47
f 42 47 43
f 44 47 42
f 1 41 2
f 41 43 51
f 2 51 4
f 41 51 2
f 43 48 52
f 48 50 53
f 52 53 54
f 48 53 52
f 4 55 7
f 55 54 56
f 7 56 9
f 55 56 7
f 43 52 51
f 52 54 55
f 51 55 4
f 52 55 51
f 57 58 59
f 58 60 61
f 59 61 15
f 58 61 59
f 60 62 63
f 62 64 65
f 63 65 66
f 62 65 63
f 15 67 16
f 67 66 68
f 16 68 18
f 67 68 16
f 60 63 61
f 63 66 67
f 61 67 15
f 63 67 61
f 18 68 69
f 68 66 70
f 69 70 71
f 68 70 69
f 66 65 72
f 65 64 73
f 72 73 74
f 65 73 72
f 71 75 76
f 75 74 77
f 76 77 78
f 75 77 76
f 66 72 70
f 72 74 75
f 70 75 71
f 72 75 70
f 18 69 23
f 69 71 79
f 23 79 25
f 69 79 23
f 71 76 80
f 76 78 81
f 80 81 82
f 76 81 80
f 25 83 84
f 83 82 85
f 84 85 86
f 83 85 84
f 71 80 79
f 80 82 83
f 79 83 25
f 80 83 79
f 30 87 88
f 85 82 89
f 90 89 91
f 85 89 90
f 82 81 92
f 81 78 93
f 92 93 94
f 81 93 92
f 91 95 96
f 95 94 97
f 96 97 98
f 95 97 96
f 82 92 89
f 92 94 95
f 89 95 91
f 92 95 89
f 30 88 35
f 88 99 100
f 35 100 36
f 88 100 35
f 99 101 102
f 96 98 103
f 102 104 105
f 101 104 102
f 36 106 39
f 106 105 107
f 39 107 40
f 106 107 39
f 99 102 100
f 102 105 106
f 100 106 36
f 102 106 100
f 40 107 108
f 107 105 109
f 108 109 110
f 107 109 108
f 105 104 111
f 104 112 113
f 111 113 114
f 104 113 111
f 110 115 116
f 115 114 117
f 116 117 118
f 115 117 116
f 105 111 109
f 111 114 115
f 109 115 110
f 111 115 109
f 40 108 45
f 108 110 119
f 45 119 46
f 108 119 45
f 110 116 120
f 116 118 121
f 120 121 122
f 116 121 120
f 46 123 49
f 123 122 124
f 49 124 50
f 123 124 49
f 110 120 119
f 120 122 123
f 119 123 46
f 120 123 119
f 50 124 125
f 124 122 126
f 125 126 127
f 124 126 125
f 122 121 128
f 121 118 129
f 128 129 130
f 121 129 128
f 127 131 132
f 131 130 133
f 132 133 134
f 131 133 132
f 122 128 126
f 128 130 131
f 126 131 127
f 128 131 126
f 50 125 53
f 125 127 135
f 53 135 54
f 125 135 53
f 127 132 136
f 137 138 139
f 136 140 141
f 132 140 136
f 54 142 56
f 142 141 143
f 56 143 9
f 142 143 56
f 127 136 135
f 136 141 142
f 135 142 54
f 136 142 135
f 9 143 144
f 145 146 147
f 58 147 60
f 145 147 58
f 146 139 148
f 139 138 149
f 148 149 150
f 139 149 148
f 60 151 62
f 151 150 152
f 62 152 64
f 151 152 62
f 146 148 147
f 148 150 151
f 147 151 60
f 148 151 147
f 153 154 155
f 154 156 157
f 155 157 158
f 154 157 155
f 156 159 160
f 159 78 77
f 160 77 74
f 159 77 160
f 158 161 162
f 161 74 73
f 162 73 64
f 161 73 162
f 156 160 157
f 160 74 161
f 157 161 158
f 160 161 157
f 153 163 154
f 163 164 165
f 154 165 156
f 163 165 154
f 164 166 167
f 166 98 97
f 167 97 94
f 166 97 167
f 156 168 159
f 168 94 93
f 159 93 78
f 168 93 159
f 164 167 165
f 167 94 168
f 165 168 156
f 167 168 165
f 153 169 163
f 169 170 171
f 163 171 164
f 169 171 163
f 170 172 173
f 174 118 117
f 175 117 114
f 174 117 175
f 164 176 166
f 176 177 178
f 166 178 98
f 176 178 166
f 170 173 171
f 173 177 176
f 171 176 164
f 173 176 171
f 153 179 169
f 179 180 181
f 169 181 170
f 179 181 169
f 180 182 183
f 182 138 184
f 183 184 185
f 182 184 183
f 170 186 172
f 187 130 129
f 174 129 118
f 187 129 174
f 180 183 181
f 183 185 186
f 181 186 170
f 183 186 181
f 153 155 179
f 155 158 188
f 179 188 180
f 155 188 179
f 158 162 189
f 162 64 152
f 189 152 150
f 162 152 189
f 180 190 182
f 190 150 149
f 182 149 138
f 190 149 182
f 158 189 188
f 189 150 190
f 188 190 180
f 189 190 188
f 14 12 15
f 15 12 11
f 17 13 14
f 14 13 12
f 25 28 24
f 24 28 22
f 24 22 17
f 17 22 13
f 57 9 58
f 58 9 144
f 59 10 57
f 57 10 9
f 15 11 59
f 59 11 10
f 84 29 25
f 25 29 28
f 85 87 86
f 86 87 30
f 86 30 84
f 84 30 29
f 91 99 90
f 90 99 88
f 90 88 85
f 85 88 87
f 96 101 91
f 91 101 99
f 98 112 103
f 103 112 104
f 103 104 96
f 96 104 101
f 137 132 138
f 138 132 134
f 139 140 137
f 137 140 132
f 145 143 146
f 146 143 141
f 58 144 145
f 145 144 143
f 146 141 139
f 139 141 140
f 172 174 173
f 173 174 175
f 177 114 178
f 178 114 113
f 178 113 98
f 98 113 112
f 173 175 177
f 177 175 114
f 138 134 184
f 184 134 133
f 184 133 185
f 185 133 130
f 186 187 172
f 172 187 174
f 185 130 186
f 186 130 187
