v -0.373443 1.14456 -0.252443
v -0.338573 1.10075 -0.256917
v -0.344156 1.14954 -0.300125
v -0.315307 1.05131 -0.27
v -0.311911 1.10191 -0.308555
v -0.326047 1.14518 -0.353125
v -0.305414 1.00003 -0.290695
v -0.292198 1.04204 -0.328636
v -0.309649 0.950803 -0.317427
v -0.291507 0.989623 -0.353756
v -0.28855 1.03129 -0.391322
v -0.297845 1.09139 -0.372338
v -0.320495 1.13183 -0.407411
v -0.297845 1.08805 -0.412338
v -0.28855 1.02795 -0.431322
v -0.301004 1.06929 -0.467265
v -0.320495 1.12849 -0.447411
v -0.327922 1.10716 -0.498848
v -0.396396 1.18527 -0.283621
v -0.370396 1.18741 -0.335564
v -0.42655 1.21393 -0.321374
v -0.326047 1.14184 -0.393125
v -0.356329 1.17354 -0.439347
v -0.358827 1.15382 -0.493968
v -0.399793 1.19057 -0.482696
v -0.409166 1.21302 -0.382655
v -0.461611 1.22836 -0.362829
v -0.409166 1.20968 -0.422655
v -0.447703 1.21461 -0.46589
v -0.461611 1.22502 -0.402829
v -0.498908 1.22412 -0.44483
v -0.356329 1.17688 -0.399347
v -0.423099 1.15857 -0.230214
v -0.450242 1.19654 -0.264854
v -0.477924 1.16256 -0.218626
v -0.489013 1.22216 -0.311944
v -0.498908 1.22747 -0.40483
v -0.526646 1.22699 -0.35598
v -0.551671 1.21129 -0.308197
v -0.516022 1.19515 -0.257926
v -0.533745 1.15623 -0.218561
v -0.572077 1.18156 -0.265118
v -0.586311 1.14006 -0.230024
v -0.387363 1.10633 -0.21371
v -0.441106 1.1167 -0.194143
v -0.409172 1.06205 -0.186875
v -0.506886 1.1153 -0.187215
v -0.563044 1.10261 -0.195207
v -0.534293 1.05941 -0.173697
v -0.470741 1.06247 -0.170523
v -0.43721 1.01511 -0.173979
v -0.502246 1.01374 -0.16713
v -0.469343 0.969075 -0.176005
v -0.355613 1.05821 -0.221152
v -0.385248 1.00398 -0.197532
v -0.41772 0.955914 -0.193833
v -0.371675 0.948164 -0.225071
v -0.3359 0.998336 -0.241233
v -0.334714 0.946416 -0.267342
v -0.312211 0.929575 -0.369377
v -0.312211 0.926235 -0.409377
v -0.328382 0.912424 -0.461374
v -0.299072 0.967434 -0.448219
v -0.291507 0.986283 -0.393756
v -0.356932 0.907081 -0.509461
v -0.32566 0.956047 -0.50772
v -0.395688 0.910613 -0.549976
v -0.362515 0.95587 -0.552668
v -0.339122 1.00629 -0.5445
v -0.304719 1.01678 -0.49192
v -0.327291 1.05803 -0.526093
v -0.363027 1.11027 -0.542596
v -0.367452 1.05823 -0.568114
v -0.407875 1.10679 -0.576251
v -0.388393 0.997497 -0.583913
v -0.418955 0.948062 -0.584793
v -0.447707 0.991267 -0.606303
v -0.424538 1.05033 -0.600606
v -0.45905 1.09699 -0.59725
v -0.479754 1.03694 -0.61287
v -0.512657 1.0816 -0.603994
v -0.399348 1.15511 -0.535622
v -0.456434 1.14722 -0.568114
v -0.51129 1.13272 -0.580746
v -0.508378 1.17554 -0.5445
v -0.452186 1.19126 -0.518929
v -0.504143 1.20681 -0.498015
v -0.552933 1.21239 -0.454808
v -0.55862 1.18901 -0.50772
v -0.602243 1.18628 -0.461374
v -0.562869 1.14496 -0.556904
v -0.56428 1.09476 -0.586167
v -0.610325 1.10251 -0.554929
v -0.612217 1.15061 -0.513203
v -0.643086 1.1478 -0.46403
v -0.647286 1.10426 -0.512658
v -0.67235 1.09987 -0.462573
v -0.526646 1.22365 -0.39598
v -0.581381 1.20604 -0.404517
v -0.581381 1.20938 -0.364517
v -0.552933 1.21573 -0.414808
v -0.634977 1.16764 -0.41
v -0.669789 1.1211 -0.410623
v -0.634977 1.17098 -0.37
v -0.669789 1.12444 -0.370623
v -0.653618 1.13825 -0.318626
v -0.60839 1.18237 -0.310499
v -0.625067 1.14359 -0.270539
v -0.619485 1.0948 -0.227332
v -0.65634 1.09463 -0.27228
v -0.642878 1.04439 -0.2355
v -0.682927 1.08324 -0.331781
v -0.690493 1.06105 -0.426244
v -0.690493 1.06439 -0.386244
v -0.69345 1.02273 -0.348678
v -0.677281 1.03389 -0.28808
v -0.654709 0.992644 -0.253907
v -0.680996 0.981385 -0.312735
v -0.654078 0.943518 -0.281152
v -0.593607 1.05318 -0.196087
v -0.614548 0.992442 -0.211886
v -0.618973 0.940404 -0.237404
v -0.574125 0.943882 -0.203749
v -0.557462 1.00034 -0.179394
v -0.52295 0.953688 -0.18275
v -0.47071 0.917952 -0.199254
v -0.525565 0.903459 -0.211886
v -0.473622 0.87513 -0.2355
v -0.582652 0.895561 -0.244378
v -0.623173 0.896859 -0.286032
v -0.582206 0.860107 -0.297304
v -0.529814 0.859416 -0.261071
v -0.477856 0.843869 -0.281985
v -0.534297 0.836061 -0.314109
v -0.483092 0.82655 -0.33517
v -0.419131 0.90571 -0.223096
v -0.42338 0.861667 -0.27228
v -0.429067 0.838287 -0.325192
v -0.379756 0.86439 -0.318626
v -0.369783 0.900064 -0.266797
v -0.338914 0.902872 -0.31597
v -0.347023 0.88303 -0.37
v -0.347023 0.87969 -0.41
v -0.400619 0.844633 -0.375483
v -0.455353 0.827028 -0.38402
v -0.400619 0.841293 -0.415483
v -0.455353 0.823688 -0.42402
v -0.430329 0.839389 -0.471803
v -0.429067 0.834946 -0.365192
v -0.37361 0.868302 -0.469501
v -0.409923 0.869119 -0.514882
v -0.608557 0.90611 -0.527557
v -0.594637 0.944346 -0.56629
v -0.558901 0.892106 -0.549786
v -0.572828 0.98862 -0.593125
v -0.540894 0.933979 -0.585857
v -0.504076 0.888117 -0.561374
v -0.54479 1.03556 -0.606021
v -0.511259 0.988208 -0.609477
v -0.475114 0.93537 -0.592785
v -0.448255 0.894446 -0.561439
v -0.643427 0.949929 -0.523083
v -0.666693 0.99936 -0.51
v -0.626387 0.992463 -0.558848
v -0.676586 1.05064 -0.489305
v -0.6461 1.05234 -0.538767
v -0.596752 1.04669 -0.582468
v -0.637844 0.901139 -0.479875
v -0.655953 0.905495 -0.426875
v -0.670089 0.948762 -0.471445
v -0.661505 0.918847 -0.372589
v -0.684155 0.959289 -0.407662
v -0.661505 0.922187 -0.332589
v -0.684155 0.962629 -0.367662
v -0.689802 1.00864 -0.451363
v -0.69345 1.01938 -0.388678
v -0.585604 0.865403 -0.496379
v -0.55545 0.836743 -0.458626
v -0.611604 0.863268 -0.444436
v -0.520389 0.822312 -0.417171
v -0.572833 0.837651 -0.397345
v -0.520389 0.825652 -0.377171
v -0.572833 0.840991 -0.357345
v -0.655953 0.908835 -0.386875
v -0.625671 0.877136 -0.340653
v -0.625671 0.873796 -0.380653
v -0.531758 0.854132 -0.515146
v -0.465977 0.855524 -0.522074
v -0.492987 0.828514 -0.468056
v -0.483092 0.823209 -0.37517
f 1 2 3
f 2 4 5
f 3 5 6
f 2 5 3
f 4 7 8
f 7 9 10
f 8 10 11
f 7 10 8
f 6 12 13
f 14 15 16
f 17 16 18
f 14 16 17
f 4 8 5
f 8 11 12
f 5 12 6
f 8 12 5
f 1 3 19
f 3 6 20
f 19 20 21
f 3 20 19
f 22 17 23
f 17 18 24
f 23 24 25
f 17 24 23
f 21 26 27
f 28 25 29
f 30 29 31
f 28 29 30
f 6 32 20
f 23 25 28
f 20 26 21
f 32 26 20
f 1 19 33
f 19 21 34
f 33 34 35
f 19 34 33
f 21 27 36
f 27 37 38
f 36 38 39
f 27 38 36
f 35 40 41
f 40 39 42
f 41 42 43
f 40 42 41
f 21 36 34
f 36 39 40
f 34 40 35
f 36 40 34
f 1 33 44
f 33 35 45
f 44 45 46
f 33 45 44
f 35 41 47
f 41 43 48
f 47 48 49
f 41 48 47
f 46 50 51
f 50 49 52
f 51 52 53
f 50 52 51
f 35 47 45
f 47 49 50
f 45 50 46
f 47 50 45
f 1 44 2
f 44 46 54
f 2 54 4
f 44 54 2
f 46 51 55
f 51 53 56
f 55 56 57
f 51 56 55
f 4 58 7
f 58 57 59
f 7 59 9
f 58 59 7
f 46 55 54
f 55 57 58
f 54 58 4
f 55 58 54
f 9 60 10
f 61 62 63
f 64 63 15
f 61 63 64
f 62 65 66
f 65 67 68
f 66 68 69
f 65 68 66
f 15 70 16
f 70 69 71
f 16 71 18
f 70 71 16
f 62 66 63
f 66 69 70
f 63 70 15
f 66 70 63
f 18 71 72
f 71 69 73
f 72 73 74
f 71 73 72
f 69 68 75
f 68 67 76
f 75 76 77
f 68 76 75
f 74 78 79
f 78 77 80
f 79 80 81
f 78 80 79
f 69 75 73
f 75 77 78
f 73 78 74
f 75 78 73
f 18 72 24
f 72 74 82
f 24 82 25
f 72 82 24
f 74 79 83
f 79 81 84
f 83 84 85
f 79 84 83
f 25 86 29
f 86 85 87
f 29 87 31
f 86 87 29
f 74 83 82
f 83 85 86
f 82 86 25
f 83 86 82
f 31 87 88
f 87 85 89
f 88 89 90
f 87 89 88
f 85 84 91
f 84 81 92
f 91 92 93
f 84 92 91
f 90 94 95
f 94 93 96
f 95 96 97
f 94 96 95
f 85 91 89
f 91 93 94
f 89 94 90
f 91 94 89
f 31 88 98
f 88 90 99
f 38 100 39
f 101 100 38
f 90 95 102
f 95 97 103
f 104 105 106
f 95 103 102
f 39 107 42
f 107 106 108
f 42 108 43
f 107 108 42
f 90 102 99
f 104 106 107
f 100 107 39
f 104 107 100
f 43 108 109
f 108 106 110
f 109 110 111
f 108 110 109
f 106 105 112
f 103 97 113
f 112 114 115
f 105 114 112
f 111 116 117
f 116 115 118
f 117 118 119
f 116 118 117
f 106 112 110
f 112 115 116
f 110 116 111
f 112 116 110
f 43 109 48
f 109 111 120
f 48 120 49
f 109 120 48
f 111 117 121
f 117 119 122
f 121 122 123
f 117 122 121
f 49 124 52
f 124 123 125
f 52 125 53
f 124 125 52
f 111 121 120
f 121 123 124
f 120 124 49
f 121 124 120
f 53 125 126
f 125 123 127
f 126 127 128
f 125 127 126
f 123 122 129
f 122 119 130
f 129 130 131
f 122 130 129
f 128 132 133
f 132 131 134
f 133 134 135
f 132 134 133
f 123 129 127
f 129 131 132
f 127 132 128
f 129 132 127
f 53 126 56
f 126 128 136
f 56 136 57
f 126 136 56
f 128 133 137
f 133 135 138
f 137 138 139
f 133 138 137
f 57 140 59
f 140 139 141
f 59 141 9
f 140 141 59
f 128 137 136
f 137 139 140
f 136 140 57
f 137 140 136
f 9 141 60
f 141 139 142
f 61 143 62
f 141 142 60
f 139 138 144
f 138 135 145
f 146 147 148
f 149 147 146
f 62 150 65
f 150 148 151
f 65 151 67
f 150 151 65
f 139 144 142
f 146 148 150
f 143 150 62
f 146 150 143
f 152 153 154
f 153 155 156
f 154 156 157
f 153 156 154
f 155 158 159
f 158 81 80
f 159 80 77
f 158 80 159
f 157 160 161
f 160 77 76
f 161 76 67
f 160 76 161
f 155 159 156
f 159 77 160
f 156 160 157
f 159 160 156
f 152 162 153
f 162 163 164
f 153 164 155
f 162 164 153
f 163 165 166
f 165 97 96
f 166 96 93
f 165 96 166
f 155 167 158
f 167 93 92
f 158 92 81
f 167 92 158
f 163 166 164
f 166 93 167
f 164 167 155
f 166 167 164
f 152 168 162
f 168 169 170
f 162 170 163
f 168 170 162
f 169 171 172
f 173 119 118
f 174 118 115
f 173 118 174
f 163 175 165
f 175 176 113
f 165 113 97
f 175 113 165
f 169 172 170
f 172 176 175
f 170 175 163
f 172 175 170
f 152 177 168
f 177 178 179
f 168 179 169
f 177 179 168
f 178 180 181
f 182 135 134
f 183 134 131
f 182 134 183
f 184 185 173
f 185 131 130
f 173 130 119
f 185 130 173
f 178 181 179
f 183 131 185
f 179 186 169
f 181 186 179
f 152 154 177
f 154 157 187
f 177 187 178
f 154 187 177
f 157 161 188
f 161 67 151
f 188 151 148
f 161 151 188
f 178 189 180
f 189 148 147
f 180 147 190
f 189 147 180
f 157 188 187
f 188 148 189
f 187 189 178
f 188 189 187
f 14 12 15
f 15 12 11
f 17 13 14
f 14 13 12
f 22 6 17
f 17 6 13
f 23 32 22
f 22 32 6
f 31 37 30
f 30 37 27
f 30 27 28
f 28 27 26
f 28 26 23
f 23 26 32
f 15 11 64
f 64 11 10
f 64 10 61
f 61 10 60
f 88 101 98
f 98 101 38
f 98 38 31
f 31 38 37
f 99 100 88
f 88 100 101
f 103 105 102
f 102 105 104
f 102 104 99
f 99 104 100
f 113 114 103
f 103 114 105
f 61 60 143
f 143 60 142
f 149 138 147
f 147 138 145
f 146 144 149
f 149 144 138
f 143 142 146
f 146 142 144
f 169 184 171
f 171 184 173
f 171 173 172
f 172 173 174
f 176 115 113
f 113 115 114
f 172 174 176
f 176 174 115
f 180 182 181
f 181 182 183
f 186 185 169
f 169 185 184
f 181 183 186
f 186 183 185
f 147 145 190
f 190 145 135
f 190 135 180
f 180 135 182
