v -0.373443 1.13797 -0.172443
v -0.338573 1.09416 -0.176917
v -0.344156 1.14295 -0.220125
v -0.315307 1.04472 -0.19
v -0.311911 1.09532 -0.228555
v -0.326047 1.13859 -0.273125
v -0.305414 0.993441 -0.210695
v -0.292198 1.03545 -0.248636
v -0.309649 0.944213 -0.237427
v -0.291507 0.983033 -0.273756
v -0.28855 1.0247 -0.311322
v -0.326047 1.14518 -0.353125
v -0.297845 1.09139 -0.372338
v -0.320495 1.13183 -0.407411
v -0.28855 1.03129 -0.391322
v -0.301004 1.07263 -0.427265
v -0.327922 1.1105 -0.458848
v -0.297845 1.08479 -0.292338
v -0.396396 1.17868 -0.203621
v -0.370396 1.18082 -0.255564
v -0.42655 1.20734 -0.241374
v -0.356329 1.17688 -0.399347
v -0.358827 1.15716 -0.453968
v -0.399793 1.19391 -0.442696
v -0.42655 1.21393 -0.321374
v -0.409166 1.21302 -0.382655
v -0.461611 1.22836 -0.362829
v -0.447703 1.21795 -0.42589
v -0.498908 1.22747 -0.40483
v -0.370396 1.18741 -0.335564
v -0.409166 1.20643 -0.302655
v -0.423099 1.15198 -0.150214
v -0.450242 1.18995 -0.184854
v -0.477924 1.15597 -0.138626
v -0.461611 1.22177 -0.282829
v -0.489013 1.21557 -0.231944
v -0.526646 1.22699 -0.35598
v -0.526646 1.2204 -0.27598
v -0.551671 1.20469 -0.228197
v -0.516022 1.18856 -0.177926
v -0.533745 1.14964 -0.138561
v -0.572077 1.17497 -0.185118
v -0.586311 1.13347 -0.150024
v -0.387363 1.09974 -0.13371
v -0.441106 1.11011 -0.114143
v -0.409172 1.05546 -0.106875
v -0.506886 1.10871 -0.107215
v -0.563044 1.09602 -0.115207
v -0.534293 1.05282 -0.0936968
v -0.470741 1.05588 -0.0905226
v -0.43721 1.00852 -0.0939792
v -0.502246 1.00715 -0.0871296
v -0.469343 0.962485 -0.0960055
v -0.355613 1.05162 -0.141152
v -0.385248 0.997392 -0.117532
v -0.41772 0.949323 -0.113833
v -0.371675 0.941574 -0.145071
v -0.3359 0.991745 -0.161233
v -0.334714 0.939826 -0.187342
v -0.312211 0.922985 -0.289377
v -0.312211 0.929575 -0.369377
v -0.328382 0.915764 -0.421374
v -0.299072 0.970774 -0.408219
v -0.291507 0.989623 -0.353756
v -0.299072 0.964184 -0.328219
v -0.356932 0.910421 -0.469461
v -0.32566 0.959387 -0.46772
v -0.395688 0.913953 -0.509976
v -0.362515 0.959211 -0.512668
v -0.339122 1.00963 -0.5045
v -0.304719 1.02012 -0.45192
v -0.327291 1.06137 -0.486093
v -0.363027 1.11361 -0.502596
v -0.367452 1.06157 -0.528114
v -0.407875 1.11013 -0.536251
v -0.388393 1.00084 -0.543913
v -0.418955 0.951402 -0.544793
v -0.447707 0.994607 -0.566303
v -0.424538 1.05368 -0.560606
v -0.45905 1.10033 -0.55725
v -0.479754 1.04028 -0.57287
v -0.512657 1.08494 -0.563994
v -0.399348 1.15845 -0.495622
v -0.456434 1.15056 -0.528114
v -0.51129 1.13606 -0.540746
v -0.508378 1.17888 -0.5045
v -0.452186 1.1946 -0.478929
v -0.504143 1.21015 -0.458015
v -0.552933 1.21573 -0.414808
v -0.55862 1.19235 -0.46772
v -0.602243 1.18963 -0.421374
v -0.562869 1.1483 -0.516904
v -0.56428 1.0981 -0.546167
v -0.610325 1.10585 -0.514929
v -0.612217 1.15395 -0.473203
v -0.643086 1.15114 -0.42403
v -0.647286 1.1076 -0.472658
v -0.67235 1.10321 -0.422573
v -0.581381 1.20938 -0.364517
v -0.581381 1.20279 -0.284517
v -0.634977 1.17098 -0.37
v -0.669789 1.12444 -0.370623
v -0.634977 1.16439 -0.29
v -0.669789 1.11785 -0.290623
v -0.653618 1.13166 -0.238626
v -0.60839 1.17578 -0.230499
v -0.625067 1.137 -0.190539
v -0.619485 1.08821 -0.147332
v -0.65634 1.08804 -0.19228
v -0.642878 1.03779 -0.1555
v -0.682927 1.07665 -0.251781
v -0.690493 1.06439 -0.386244
v -0.690493 1.0578 -0.306244
v -0.69345 1.01613 -0.268678
v -0.682927 1.08324 -0.331781
v -0.677281 1.0273 -0.20808
v -0.654709 0.986053 -0.173907
v -0.680996 0.974795 -0.232735
v -0.654078 0.936928 -0.201152
v -0.593607 1.04659 -0.116087
v -0.614548 0.985851 -0.131886
v -0.618973 0.933813 -0.157404
v -0.574125 0.937292 -0.123749
v -0.557462 0.993749 -0.0993941
v -0.52295 0.947098 -0.10275
v -0.47071 0.911361 -0.119254
v -0.525565 0.896869 -0.131886
v -0.473622 0.868539 -0.1555
v -0.582652 0.888971 -0.164378
v -0.623173 0.890269 -0.206032
v -0.582206 0.853517 -0.217304
v -0.529814 0.852826 -0.181071
v -0.477856 0.837279 -0.201985
v -0.534297 0.82947 -0.23411
v -0.483092 0.819959 -0.25517
v -0.419131 0.89912 -0.143096
v -0.42338 0.855077 -0.19228
v -0.429067 0.831696 -0.245192
v -0.379756 0.857799 -0.238626
v -0.369783 0.893473 -0.186797
v -0.338914 0.896281 -0.23597
v -0.347023 0.87644 -0.29
v -0.347023 0.88303 -0.37
v -0.400619 0.838043 -0.295483
v -0.455353 0.820438 -0.30402
v -0.400619 0.844633 -0.375483
v -0.455353 0.827028 -0.38402
v -0.430329 0.842729 -0.431803
v -0.37361 0.871643 -0.429501
v -0.409923 0.872459 -0.474882
v -0.608557 0.90945 -0.487557
v -0.594637 0.947686 -0.52629
v -0.558901 0.895446 -0.509786
v -0.572828 0.991961 -0.553125
v -0.540894 0.937319 -0.545857
v -0.504076 0.891457 -0.521374
v -0.54479 1.0389 -0.566021
v -0.511259 0.991548 -0.569477
v -0.475114 0.938711 -0.552785
v -0.448255 0.897787 -0.521439
v -0.643427 0.953269 -0.483083
v -0.666693 1.0027 -0.47
v -0.626387 0.995803 -0.518848
v -0.676586 1.05398 -0.449305
v -0.6461 1.05568 -0.498767
v -0.596752 1.05003 -0.542468
v -0.637844 0.904479 -0.439875
v -0.655953 0.908835 -0.386875
v -0.670089 0.952102 -0.431445
v -0.655953 0.902245 -0.306875
v -0.661505 0.915597 -0.252589
v -0.684155 0.956039 -0.287662
v -0.689802 1.01198 -0.411363
v -0.69345 1.02273 -0.348678
v -0.684155 0.962629 -0.367662
v -0.585604 0.868743 -0.456379
v -0.55545 0.840083 -0.418626
v -0.611604 0.866609 -0.404436
v -0.55545 0.833493 -0.338626
v -0.520389 0.819062 -0.297171
v -0.572833 0.8344 -0.277345
v -0.625671 0.870546 -0.260653
v -0.572833 0.840991 -0.357345
v -0.611604 0.860018 -0.324436
v -0.531758 0.857472 -0.475146
v -0.465977 0.858864 -0.482074
v -0.492987 0.831855 -0.428056
v -0.520389 0.825652 -0.377171
f 1 2 3
f 2 4 5
f 3 5 6
f 2 5 3
f 4 7 8
f 7 9 10
f 8 10 11
f 7 10 8
f 12 13 14
f 13 15 16
f 14 16 17
f 13 16 14
f 4 8 5
f 8 11 18
f 5 18 6
f 8 18 5
f 1 3 19
f 3 6 20
f 19 20 21
f 3 20 19
f 12 14 22
f 14 17 23
f 22 23 24
f 14 23 22
f 25 26 27
f 26 24 28
f 27 28 29
f 26 28 27
f 12 22 30
f 22 24 26
f 20 31 21
f 22 26 30
f 1 19 32
f 19 21 33
f 32 33 34
f 19 33 32
f 21 35 36
f 27 29 37
f 36 38 39
f 35 38 36
f 34 40 41
f 40 39 42
f 41 42 43
f 40 42 41
f 21 36 33
f 36 39 40
f 33 40 34
f 36 40 33
f 1 32 44
f 32 34 45
f 44 45 46
f 32 45 44
f 34 41 47
f 41 43 48
f 47 48 49
f 41 48 47
f 46 50 51
f 50 49 52
f 51 52 53
f 50 52 51
f 34 47 45
f 47 49 50
f 45 50 46
f 47 50 45
f 1 44 2
f 44 46 54
f 2 54 4
f 44 54 2
f 46 51 55
f 51 53 56
f 55 56 57
f 51 56 55
f 4 58 7
f 58 57 59
f 7 59 9
f 58 59 7
f 46 55 54
f 55 57 58
f 54 58 4
f 55 58 54
f 9 60 10
f 61 62 63
f 64 63 15
f 60 65 10
f 62 66 67
f 66 68 69
f 67 69 70
f 66 69 67
f 15 71 16
f 71 70 72
f 16 72 17
f 71 72 16
f 62 67 63
f 67 70 71
f 63 71 15
f 67 71 63
f 17 72 73
f 72 70 74
f 73 74 75
f 72 74 73
f 70 69 76
f 69 68 77
f 76 77 78
f 69 77 76
f 75 79 80
f 79 78 81
f 80 81 82
f 79 81 80
f 70 76 74
f 76 78 79
f 74 79 75
f 76 79 74
f 17 73 23
f 73 75 83
f 23 83 24
f 73 83 23
f 75 80 84
f 80 82 85
f 84 85 86
f 80 85 84
f 24 87 28
f 87 86 88
f 28 88 29
f 87 88 28
f 75 84 83
f 84 86 87
f 83 87 24
f 84 87 83
f 29 88 89
f 88 86 90
f 89 90 91
f 88 90 89
f 86 85 92
f 85 82 93
f 92 93 94
f 85 93 92
f 91 95 96
f 95 94 97
f 96 97 98
f 95 97 96
f 86 92 90
f 92 94 95
f 90 95 91
f 92 95 90
f 29 89 37
f 89 91 99
f 38 100 39
f 89 99 37
f 91 96 101
f 96 98 102
f 103 104 105
f 96 102 101
f 39 106 42
f 106 105 107
f 42 107 43
f 106 107 42
f 91 101 99
f 103 105 106
f 100 106 39
f 103 106 100
f 43 107 108
f 107 105 109
f 108 109 110
f 107 109 108
f 105 104 111
f 102 98 112
f 111 113 114
f 102 112 115
f 110 116 117
f 116 114 118
f 117 118 119
f 116 118 117
f 105 111 109
f 111 114 116
f 109 116 110
f 111 116 109
f 43 108 48
f 108 110 120
f 48 120 49
f 108 120 48
f 110 117 121
f 117 119 122
f 121 122 123
f 117 122 121
f 49 124 52
f 124 123 125
f 52 125 53
f 124 125 52
f 110 121 120
f 121 123 124
f 120 124 49
f 121 124 120
f 53 125 126
f 125 123 127
f 126 127 128
f 125 127 126
f 123 122 129
f 122 119 130
f 129 130 131
f 122 130 129
f 128 132 133
f 132 131 134
f 133 134 135
f 132 134 133
f 123 129 127
f 129 131 132
f 127 132 128
f 129 132 127
f 53 126 56
f 126 128 136
f 56 136 57
f 126 136 56
f 128 133 137
f 133 135 138
f 137 138 139
f 133 138 137
f 57 140 59
f 140 139 141
f 59 141 9
f 140 141 59
f 128 137 136
f 137 139 140
f 136 140 57
f 137 140 136
f 9 141 60
f 141 139 142
f 61 143 62
f 141 142 60
f 139 138 144
f 138 135 145
f 146 147 148
f 138 145 144
f 62 149 66
f 149 148 150
f 66 150 68
f 149 150 66
f 139 144 142
f 146 148 149
f 143 149 62
f 146 149 143
f 151 152 153
f 152 154 155
f 153 155 156
f 152 155 153
f 154 157 158
f 157 82 81
f 158 81 78
f 157 81 158
f 156 159 160
f 159 78 77
f 160 77 68
f 159 77 160
f 154 158 155
f 158 78 159
f 155 159 156
f 158 159 155
f 151 161 152
f 161 162 163
f 152 163 154
f 161 163 152
f 162 164 165
f 164 98 97
f 165 97 94
f 164 97 165
f 154 166 157
f 166 94 93
f 157 93 82
f 166 93 157
f 162 165 163
f 165 94 166
f 163 166 154
f 165 166 163
f 151 167 161
f 167 168 169
f 161 169 162
f 167 169 161
f 170 171 172
f 171 119 118
f 172 118 114
f 171 118 172
f 162 173 164
f 173 174 112
f 164 112 98
f 173 112 164
f 168 175 169
f 175 174 173
f 169 173 162
f 175 173 169
f 151 176 167
f 176 177 178
f 167 178 168
f 176 178 167
f 179 180 181
f 180 135 134
f 181 134 131
f 180 134 181
f 170 182 171
f 182 131 130
f 171 130 119
f 182 130 171
f 177 183 178
f 181 131 182
f 184 182 170
f 181 182 184
f 151 153 176
f 153 156 185
f 176 185 177
f 153 185 176
f 156 160 186
f 160 68 150
f 186 150 148
f 160 150 186
f 177 187 188
f 187 148 147
f 180 145 135
f 187 147 188
f 156 186 185
f 186 148 187
f 185 187 177
f 186 187 185
f 12 6 13
f 13 6 18
f 13 18 15
f 15 18 11
f 25 21 26
f 26 21 31
f 27 35 25
f 25 35 21
f 30 20 12
f 12 20 6
f 26 31 30
f 30 31 20
f 37 38 27
f 27 38 35
f 63 65 61
f 61 65 60
f 64 10 63
f 63 10 65
f 15 11 64
f 64 11 10
f 99 100 37
f 37 100 38
f 102 104 101
f 101 104 103
f 101 103 99
f 99 103 100
f 112 113 115
f 115 113 111
f 115 111 102
f 102 111 104
f 61 60 143
f 143 60 142
f 146 144 147
f 147 144 145
f 143 142 146
f 146 142 144
f 174 114 112
f 112 114 113
f 168 170 175
f 175 170 172
f 175 172 174
f 174 172 114
f 178 184 168
f 168 184 170
f 177 179 183
f 183 179 181
f 183 181 178
f 178 181 184
f 188 180 177
f 177 180 179
f 147 145 188
f 188 145 180
