v -0.373443 1.18899 -0.0124429
v -0.338573 1.14518 -0.0169173
v -0.344156 1.19397 -0.0601245
v -0.315307 1.09574 -0.0299999
v -0.311911 1.14634 -0.0685553
v -0.326047 1.18961 -0.113125
v -0.305414 1.04446 -0.0506949
v -0.292198 1.08647 -0.0886365
v -0.309649 0.995233 -0.0774268
v -0.291507 1.03405 -0.113756
v -0.28855 1.07572 -0.151322
v -0.297845 1.13582 -0.132338
v -0.320495 1.17626 -0.167411
v -0.297845 1.08479 -0.292338
v -0.28855 1.0247 -0.311322
v -0.301004 1.06604 -0.347265
v -0.320495 1.12524 -0.327411
v -0.327922 1.10391 -0.378848
v -0.396396 1.2297 -0.0436208
v -0.370396 1.23184 -0.0955644
v -0.42655 1.25836 -0.0813742
v -0.356329 1.22131 -0.159347
v -0.358827 1.15057 -0.373968
v -0.356329 1.17029 -0.319347
v -0.399793 1.18732 -0.362696
v -0.409166 1.25745 -0.142655
v -0.461611 1.27279 -0.122829
v -0.399793 1.23834 -0.202696
v -0.447703 1.26238 -0.18589
v -0.498908 1.2719 -0.16483
v -0.423099 1.203 0.00978623
v -0.450242 1.24097 -0.0248537
v -0.477924 1.20699 0.0213744
v -0.489013 1.26659 -0.0719439
v -0.526646 1.27142 -0.11598
v -0.551671 1.25572 -0.0681965
v -0.516022 1.23958 -0.0179257
v -0.533745 1.20066 0.0214394
v -0.572077 1.22599 -0.0251181
v -0.586311 1.18449 0.00997642
v -0.387363 1.15076 0.0262899
v -0.441106 1.16113 0.045857
v -0.409172 1.10648 0.0531255
v -0.506886 1.15973 0.0527849
v -0.563044 1.14704 0.0447927
v -0.534293 1.10384 0.0663032
v -0.470741 1.1069 0.0694775
v -0.43721 1.05954 0.0660209
v -0.502246 1.05817 0.0728704
v -0.469343 1.01351 0.0639946
v -0.355613 1.10264 0.0188479
v -0.385248 1.04841 0.0424684
v -0.41772 1.00034 0.0461669
v -0.371675 0.992594 0.0149289
v -0.3359 1.04277 -0.00123324
v -0.334714 0.990846 -0.0273416
v -0.309649 0.944213 -0.237427
v -0.312211 0.922985 -0.289377
v -0.291507 0.983033 -0.273756
v -0.328382 0.909173 -0.341374
v -0.299072 0.964184 -0.328219
v -0.356932 0.90383 -0.389461
v -0.32566 0.952797 -0.38772
v -0.395688 0.907362 -0.429976
v -0.362515 0.95262 -0.432668
v -0.339122 1.00304 -0.4245
v -0.304719 1.01353 -0.37192
v -0.327291 1.05478 -0.406093
v -0.363027 1.10702 -0.422596
v -0.367452 1.05498 -0.448114
v -0.407875 1.10354 -0.456251
v -0.388393 0.994247 -0.463913
v -0.418955 0.944812 -0.464793
v -0.447707 0.988017 -0.486303
v -0.424538 1.04708 -0.480606
v -0.45905 1.09374 -0.47725
v -0.479754 1.03369 -0.49287
v -0.512657 1.07835 -0.483994
v -0.399348 1.15186 -0.415622
v -0.456434 1.14397 -0.448114
v -0.51129 1.12947 -0.460746
v -0.508378 1.17229 -0.4245
v -0.452186 1.18801 -0.398929
v -0.447703 1.21136 -0.34589
v -0.504143 1.20356 -0.378015
v -0.498908 1.22087 -0.32483
v -0.504143 1.25458 -0.218015
v -0.552933 1.26016 -0.174808
v -0.55862 1.18576 -0.38772
v -0.552933 1.20914 -0.334808
v -0.602243 1.18303 -0.341374
v -0.562869 1.14171 -0.436904
v -0.56428 1.09151 -0.466167
v -0.610325 1.09926 -0.434929
v -0.612217 1.14736 -0.393203
v -0.643086 1.14455 -0.34403
v -0.647286 1.10101 -0.392658
v -0.67235 1.09662 -0.342573
v -0.602243 1.23406 -0.181374
v -0.581381 1.25381 -0.124517
v -0.643086 1.19557 -0.18403
v -0.634977 1.21541 -0.13
v -0.669789 1.11785 -0.290623
v -0.669789 1.16887 -0.130623
v -0.653618 1.18268 -0.0786256
v -0.60839 1.2268 -0.0704989
v -0.625067 1.18802 -0.0305389
v -0.619485 1.13923 0.0126683
v -0.65634 1.13906 -0.0322802
v -0.642878 1.08882 0.00449978
v -0.682927 1.12767 -0.0917812
v -0.67235 1.14764 -0.182573
v -0.690493 1.10882 -0.146244
v -0.69345 1.06716 -0.108678
v -0.677281 1.07832 -0.0480796
v -0.654709 1.03707 -0.0139073
v -0.680996 1.02582 -0.0727352
v -0.654078 0.987948 -0.0411517
v -0.593607 1.09761 0.0439134
v -0.614548 1.03687 0.028114
v -0.618973 0.984834 0.00259641
v -0.574125 0.988312 0.0362508
v -0.557462 1.04477 0.0606059
v -0.52295 0.998118 0.0572497
v -0.47071 0.962382 0.040746
v -0.525565 0.947889 0.0281139
v -0.473622 0.91956 0.00449976
v -0.582652 0.939991 -0.00437802
v -0.623173 0.941289 -0.0460317
v -0.582206 0.904537 -0.0573037
v -0.529814 0.903846 -0.0210706
v -0.477856 0.888299 -0.0419851
v -0.534297 0.880491 -0.0741095
v -0.483092 0.87098 -0.0951699
v -0.419131 0.95014 0.0169043
v -0.42338 0.906097 -0.0322802
v -0.477856 0.837279 -0.201985
v -0.483092 0.819959 -0.25517
v -0.429067 0.831696 -0.245192
v -0.429067 0.882717 -0.0851923
v -0.379756 0.90882 -0.0786256
v -0.369783 0.944494 -0.0267973
v -0.338914 0.947302 -0.0759698
v -0.312211 0.974005 -0.129377
v -0.338914 0.896281 -0.23597
v -0.379756 0.857799 -0.238626
v -0.347023 0.87644 -0.29
v -0.400619 0.838043 -0.295483
v -0.455353 0.820438 -0.30402
v -0.430329 0.836139 -0.351803
v -0.37361 0.865052 -0.349501
v -0.409923 0.865868 -0.394882
v -0.608557 0.90286 -0.407557
v -0.594637 0.941096 -0.44629
v -0.558901 0.888856 -0.429786
v -0.572828 0.98537 -0.473125
v -0.540894 0.930729 -0.465857
v -0.504076 0.884867 -0.441374
v -0.54479 1.03231 -0.486021
v -0.511259 0.984958 -0.489477
v -0.475114 0.93212 -0.472785
v -0.448255 0.891196 -0.441439
v -0.643427 0.946679 -0.403083
v -0.666693 0.99611 -0.39
v -0.626387 0.989213 -0.438848
v -0.676586 1.04739 -0.369305
v -0.6461 1.04909 -0.418767
v -0.596752 1.04344 -0.462468
v -0.637844 0.897889 -0.359875
v -0.655953 0.902245 -0.306875
v -0.670089 0.945511 -0.351445
v -0.661505 0.915597 -0.252589
v -0.684155 0.956039 -0.287662
v -0.661505 0.966617 -0.0925892
v -0.684155 1.00706 -0.127662
v -0.689802 1.00539 -0.331363
v -0.69345 1.01613 -0.268678
v -0.690493 1.0578 -0.306244
v -0.585604 0.862152 -0.376379
v -0.55545 0.833493 -0.338626
v -0.611604 0.860018 -0.324436
v -0.520389 0.819062 -0.297171
v -0.572833 0.8344 -0.277345
v -0.534297 0.82947 -0.23411
v -0.582206 0.853517 -0.217304
v -0.625671 0.870546 -0.260653
v -0.625671 0.921566 -0.100653
v -0.531758 0.850882 -0.395146
v -0.465977 0.852273 -0.402074
v -0.492987 0.825264 -0.348056
f 1 2 3
f 2 4 5
f 3 5 6
f 2 5 3
f 4 7 8
f 7 9 10
f 8 10 11
f 7 10 8
f 6 12 13
f 14 15 16
f 17 16 18
f 14 16 17
f 4 8 5
f 8 11 12
f 5 12 6
f 8 12 5
f 1 3 19
f 3 6 20
f 19 20 21
f 3 20 19
f 6 13 22
f 17 18 23
f 24 23 25
f 17 23 24
f 21 26 27
f 26 28 29
f 27 29 30
f 26 29 27
f 6 22 20
f 22 28 26
f 20 26 21
f 22 26 20
f 1 19 31
f 19 21 32
f 31 32 33
f 19 32 31
f 21 27 34
f 27 30 35
f 34 35 36
f 27 35 34
f 33 37 38
f 37 36 39
f 38 39 40
f 37 39 38
f 21 34 32
f 34 36 37
f 32 37 33
f 34 37 32
f 1 31 41
f 31 33 42
f 41 42 43
f 31 42 41
f 33 38 44
f 38 40 45
f 44 45 46
f 38 45 44
f 43 47 48
f 47 46 49
f 48 49 50
f 47 49 48
f 33 44 42
f 44 46 47
f 42 47 43
f 44 47 42
f 1 41 2
f 41 43 51
f 2 51 4
f 41 51 2
f 43 48 52
f 48 50 53
f 52 53 54
f 48 53 52
f 4 55 7
f 55 54 56
f 7 56 9
f 55 56 7
f 43 52 51
f 52 54 55
f 51 55 4
f 52 55 51
f 57 58 59
f 58 60 61
f 59 61 15
f 58 61 59
f 60 62 63
f 62 64 65
f 63 65 66
f 62 65 63
f 15 67 16
f 67 66 68
f 16 68 18
f 67 68 16
f 60 63 61
f 63 66 67
f 61 67 15
f 63 67 61
f 18 68 69
f 68 66 70
f 69 70 71
f 68 70 69
f 66 65 72
f 65 64 73
f 72 73 74
f 65 73 72
f 71 75 76
f 75 74 77
f 76 77 78
f 75 77 76
f 66 72 70
f 72 74 75
f 70 75 71
f 72 75 70
f 18 69 23
f 69 71 79
f 23 79 25
f 69 79 23
f 71 76 80
f 76 78 81
f 80 81 82
f 76 81 80
f 25 83 84
f 83 82 85
f 84 85 86
f 83 85 84
f 71 80 79
f 80 82 83
f 79 83 25
f 80 83 79
f 30 87 88
f 85 82 89
f 90 89 91
f 85 89 90
f 82 81 92
f 81 78 93
f 92 93 94
f 81 93 92
f 91 95 96
f 95 94 97
f 96 97 98
f 95 97 96
f 82 92 89
f 92 94 95
f 89 95 91
f 92 95 89
f 30 88 35
f 88 99 100
f 35 100 36
f 88 100 35
f 99 101 102
f 96 98 103
f 102 104 105
f 101 104 102
f 36 106 39
f 106 105 107
f 39 107 40
f 106 107 39
f 99 102 100
f 102 105 106
f 100 106 36
f 102 106 100
f 40 107 108
f 107 105 109
f 108 109 110
f 107 109 108
f 105 104 111
f 104 112 113
f 111 113 114
f 104 113 111
f 110 115 116
f 115 114 117
f 116 117 118
f 115 117 116
f 105 111 109
f 111 114 115
f 109 115 110
f 111 115 109
f 40 108 45
f 108 110 119
f 45 119 46
f 108 119 45
f 110 116 120
f 116 118 121
f 120 121 122
f 116 121 120
f 46 123 49
f 123 122 124
f 49 124 50
f 123 124 49
f 110 120 119
f 120 122 123
f 119 123 46
f 120 123 119
f 50 124 125
f 124 122 126
f 125 126 127
f 124 126 125
f 122 121 128
f 121 118 129
f 128 129 130
f 121 129 128
f 127 131 132
f 131 130 133
f 132 133 134
f 131 133 132
f 122 128 126
f 128 130 131
f 126 131 127
f 128 131 126
f 50 125 53
f 125 127 135
f 53 135 54
f 125 135 53
f 127 132 136
f 137 138 139
f 136 140 141
f 132 140 136
f 54 142 56
f 142 141 143
f 56 143 9
f 142 143 56
f 127 136 135
f 136 141 142
f 135 142 54
f 136 142 135
f 9 143 144
f 145 146 147
f 58 147 60
f 145 147 58
f 146 139 148
f 139 138 149
f 148 149 150
f 139 149 148
f 60 151 62
f 151 150 152
f 62 152 64
f 151 152 62
f 146 148 147
f 148 150 151
f 147 151 60
f 148 151 147
f 153 154 155
f 154 156 157
f 155 157 158
f 154 157 155
f 156 159 160
f 159 78 77
f 160 77 74
f 159 77 160
f 158 161 162
f 161 74 73
f 162 73 64
f 161 73 162
f 156 160 157
f 160 74 161
f 157 161 158
f 160 161 157
f 153 163 154
f 163 164 165
f 154 165 156
f 163 165 154
f 164 166 167
f 166 98 97
f 167 97 94
f 166 97 167
f 156 168 159
f 168 94 93
f 159 93 78
f 168 93 159
f 164 167 165
f 167 94 168
f 165 168 156
f 167 168 165
f 153 169 163
f 169 170 171
f 163 171 164
f 169 171 163
f 170 172 173
f 174 118 117
f 175 117 114
f 174 117 175
f 164 176 166
f 176 177 178
f 166 178 98
f 176 178 166
f 170 173 171
f 173 177 176
f 171 176 164
f 173 176 171
f 153 179 169
f 179 180 181
f 169 181 170
f 179 181 169
f 180 182 183
f 182 138 184
f 183 184 185
f 182 184 183
f 170 186 172
f 187 130 129
f 174 129 118
f 187 129 174
f 180 183 181
f 183 185 186
f 181 186 170
f 183 186 181
f 153 155 179
f 155 158 188
f 179 188 180
f 155 188 179
f 158 162 189
f 162 64 152
f 189 152 150
f 162 152 189
f 180 190 182
f 190 150 149
f 182 149 138
f 190 149 182
f 158 189 188
f 189 150 190
f 188 190 180
f 189 190 188
f 14 12 15
f 15 12 11
f 17 13 14
f 14 13 12
f 25 28 24
f 24 28 22
f 24 22 17
f 17 22 13
f 57 9 58
f 58 9 144
f 59 10 57
f 57 10 9
f 15 11 59
f 59 11 10
f 84 29 25
f 25 29 28
f 85 87 86
f 86 87 30
f 86 30 84
f 84 30 29
f 91 99 90
f 90 99 88
f 90 88 85
f 85 88 87
f 96 101 91
f 91 101 99
f 98 112 103
f 103 112 104
f 103 104 96
f 96 104 101
f 137 132 138
f 138 132 134
f 139 140 137
f 137 140 132
f 145 143 146
f 146 143 141
f 58 144 145
f 145 144 143
f 146 141 139
f 139 141 140
f 172 174 173
f 173 174 175
f 177 114 178
f 178 114 113
f 178 113 98
f 98 113 112
f 173 175 177
f 177 175 114
f 138 134 184
f 184 134 133
f 184 133 185
f 185 133 130
f 186 187 172
f 172 187 174
f 185 130 186
f 186 130 187
