v -0.373443 1.21987 0.147557
v -0.338573 1.17605 0.143083
v -0.344156 1.22484 0.0998755
v -0.315307 1.12662 0.13
v -0.311911 1.17722 0.0914447
v -0.326047 1.22049 0.0468747
v -0.305414 1.07534 0.109305
v -0.292198 1.11734 0.0713636
v -0.309649 1.02611 0.0825732
v -0.291507 1.06493 0.0462439
v -0.28855 1.1066 0.0086781
v -0.297845 1.16669 0.027662
v -0.320495 1.20713 -0.00741064
v -0.297845 1.13582 -0.132338
v -0.28855 1.07572 -0.151322
v -0.301004 1.11706 -0.187265
v -0.320495 1.17626 -0.167411
v -0.327922 1.15493 -0.218848
v -0.396396 1.26058 0.116379
v -0.370396 1.26271 0.0644356
v -0.42655 1.28924 0.0786258
v -0.356329 1.25218 0.000652889
v -0.358827 1.20159 -0.213968
v -0.356329 1.22131 -0.159347
v -0.399793 1.23834 -0.202696
v -0.409166 1.28833 0.0173454
v -0.461611 1.30367 0.0371708
v -0.409166 1.25745 -0.142655
v -0.447703 1.26238 -0.18589
v -0.447703 1.29326 -0.0258904
v -0.498908 1.30277 -0.00482999
v -0.423099 1.23387 0.169786
v -0.450242 1.27185 0.135146
v -0.477924 1.23786 0.181374
v -0.489013 1.29747 0.0880561
v -0.526646 1.30229 0.0440204
v -0.551671 1.28659 0.0918035
v -0.516022 1.27046 0.142074
v -0.533745 1.23153 0.181439
v -0.572077 1.25686 0.134882
v -0.586311 1.21537 0.169976
v -0.387363 1.18163 0.18629
v -0.441106 1.192 0.205857
v -0.409172 1.13736 0.213125
v -0.506886 1.19061 0.212785
v -0.563044 1.17792 0.204793
v -0.534293 1.13471 0.226303
v -0.470741 1.13777 0.229477
v -0.43721 1.09042 0.226021
v -0.502246 1.08904 0.23287
v -0.469343 1.04438 0.223995
v -0.355613 1.13352 0.178848
v -0.385248 1.07929 0.202468
v -0.41772 1.03122 0.206167
v -0.371675 1.02347 0.174929
v -0.3359 1.07364 0.158767
v -0.334714 1.02172 0.132658
v -0.312211 1.00488 0.0306232
v -0.312211 0.974005 -0.129377
v -0.328382 0.960194 -0.181374
v -0.299072 1.0152 -0.168219
v -0.291507 1.03405 -0.113756
v -0.356932 0.954851 -0.229461
v -0.32566 1.00382 -0.22772
v -0.395688 0.958383 -0.269976
v -0.362515 1.00364 -0.272668
v -0.339122 1.05406 -0.2645
v -0.304719 1.06455 -0.21192
v -0.327291 1.1058 -0.246093
v -0.363027 1.15804 -0.262596
v -0.367452 1.106 -0.288114
v -0.407875 1.15456 -0.296251
v -0.388393 1.04527 -0.303913
v -0.418955 0.995832 -0.304793
v -0.447707 1.03904 -0.326303
v -0.424538 1.09811 -0.320606
v -0.45905 1.14476 -0.31725
v -0.479754 1.08471 -0.33287
v -0.512657 1.12937 -0.323994
v -0.399348 1.20288 -0.255622
v -0.456434 1.19499 -0.288114
v -0.51129 1.18049 -0.300746
v -0.508378 1.22332 -0.2645
v -0.452186 1.23903 -0.238929
v -0.504143 1.25458 -0.218015
v -0.498908 1.2719 -0.16483
v -0.552933 1.26016 -0.174808
v -0.55862 1.23678 -0.22772
v -0.602243 1.23406 -0.181374
v -0.562869 1.19273 -0.276904
v -0.56428 1.14253 -0.306167
v -0.610325 1.15028 -0.274929
v -0.612217 1.19838 -0.233203
v -0.643086 1.19557 -0.18403
v -0.647286 1.15203 -0.232658
v -0.67235 1.14764 -0.182573
v -0.552933 1.29103 -0.0148076
v -0.602243 1.26493 -0.0213742
v -0.581381 1.28469 0.035483
v -0.634977 1.21541 -0.13
v -0.669789 1.16887 -0.130623
v -0.634977 1.24629 0.0300001
v -0.669789 1.19975 0.029377
v -0.653618 1.21356 0.0813744
v -0.643086 1.22645 -0.0240301
v -0.60839 1.25768 0.0895012
v -0.625067 1.2189 0.129461
v -0.619485 1.17011 0.172668
v -0.65634 1.16993 0.12772
v -0.642878 1.11969 0.1645
v -0.682927 1.15855 0.0682188
v -0.690493 1.10882 -0.146244
v -0.690493 1.1397 0.0137563
v -0.69345 1.09803 0.0513221
v -0.677281 1.1092 0.11192
v -0.654709 1.06795 0.146093
v -0.680996 1.05669 0.0872648
v -0.654078 1.01882 0.118848
v -0.593607 1.12848 0.203913
v -0.614548 1.06775 0.188114
v -0.618973 1.01571 0.162596
v -0.574125 1.01919 0.196251
v -0.557462 1.07565 0.220606
v -0.52295 1.02899 0.21725
v -0.47071 0.993258 0.200746
v -0.525565 0.978765 0.188114
v -0.473622 0.950436 0.1645
v -0.582652 0.970867 0.155622
v -0.623173 0.972165 0.113968
v -0.582206 0.935414 0.102696
v -0.529814 0.934722 0.138929
v -0.477856 0.919175 0.118015
v -0.534297 0.911367 0.0858905
v -0.483092 0.901856 0.0648301
v -0.419131 0.981016 0.176904
v -0.42338 0.936973 0.12772
v -0.429067 0.913593 0.0748077
v -0.379756 0.939696 0.0813744
v -0.369783 0.97537 0.133203
v -0.338914 0.978178 0.0840303
v -0.347023 0.958336 0.0300001
v -0.347023 0.92746 -0.13
v -0.338914 0.947302 -0.0759698
v -0.379756 0.90882 -0.0786256
v -0.429067 0.882717 -0.0851923
v -0.400619 0.889063 -0.135483
v -0.483092 0.87098 -0.0951699
v -0.455353 0.871458 -0.14402
v -0.430329 0.887159 -0.191803
v -0.37361 0.916073 -0.189501
v -0.409923 0.916889 -0.234882
v -0.608557 0.95388 -0.247557
v -0.594637 0.992116 -0.28629
v -0.558901 0.939876 -0.269786
v -0.572828 1.03639 -0.313125
v -0.540894 0.981749 -0.305857
v -0.504076 0.935887 -0.281374
v -0.54479 1.08333 -0.326021
v -0.511259 1.03598 -0.329477
v -0.475114 0.983141 -0.312785
v -0.448255 0.942217 -0.281439
v -0.643427 0.997699 -0.243083
v -0.666693 1.04713 -0.23
v -0.626387 1.04023 -0.278848
v -0.676586 1.09841 -0.209305
v -0.6461 1.10011 -0.258767
v -0.596752 1.09446 -0.302468
v -0.637844 0.948909 -0.199875
v -0.655953 0.953265 -0.146875
v -0.670089 0.996532 -0.191445
v -0.661505 0.966617 -0.0925892
v -0.684155 1.00706 -0.127662
v -0.661505 0.997493 0.0674108
v -0.684155 1.03794 0.0323382
v -0.689802 1.05641 -0.171363
v -0.69345 1.06716 -0.108678
v -0.585604 0.913173 -0.216379
v -0.55545 0.884513 -0.178626
v -0.611604 0.911039 -0.164436
v -0.520389 0.870082 -0.137171
v -0.572833 0.885421 -0.117345
v -0.534297 0.880491 -0.0741095
v -0.572833 0.916297 0.0426547
v -0.625671 0.921566 -0.100653
v -0.625671 0.952442 0.0593473
v -0.531758 0.901902 -0.235146
v -0.465977 0.903294 -0.242074
v -0.492987 0.876285 -0.188056
f 1 2 3
f 2 4 5
f 3 5 6
f 2 5 3
f 4 7 8
f 7 9 10
f 8 10 11
f 7 10 8
f 6 12 13
f 14 15 16
f 17 16 18
f 14 16 17
f 4 8 5
f 8 11 12
f 5 12 6
f 8 12 5
f 1 3 19
f 3 6 20
f 19 20 21
f 3 20 19
f 6 13 22
f 17 18 23
f 24 23 25
f 17 23 24
f 21 26 27
f 28 25 29
f 27 30 31
f 26 30 27
f 6 22 20
f 24 25 28
f 20 26 21
f 22 26 20
f 1 19 32
f 19 21 33
f 32 33 34
f 19 33 32
f 21 27 35
f 27 31 36
f 35 36 37
f 27 36 35
f 34 38 39
f 38 37 40
f 39 40 41
f 38 40 39
f 21 35 33
f 35 37 38
f 33 38 34
f 35 38 33
f 1 32 42
f 32 34 43
f 42 43 44
f 32 43 42
f 34 39 45
f 39 41 46
f 45 46 47
f 39 46 45
f 44 48 49
f 48 47 50
f 49 50 51
f 48 50 49
f 34 45 43
f 45 47 48
f 43 48 44
f 45 48 43
f 1 42 2
f 42 44 52
f 2 52 4
f 42 52 2
f 44 49 53
f 49 51 54
f 53 54 55
f 49 54 53
f 4 56 7
f 56 55 57
f 7 57 9
f 56 57 7
f 44 53 52
f 53 55 56
f 52 56 4
f 53 56 52
f 9 58 10
f 59 60 61
f 62 61 15
f 59 61 62
f 60 63 64
f 63 65 66
f 64 66 67
f 63 66 64
f 15 68 16
f 68 67 69
f 16 69 18
f 68 69 16
f 60 64 61
f 64 67 68
f 61 68 15
f 64 68 61
f 18 69 70
f 69 67 71
f 70 71 72
f 69 71 70
f 67 66 73
f 66 65 74
f 73 74 75
f 66 74 73
f 72 76 77
f 76 75 78
f 77 78 79
f 76 78 77
f 67 73 71
f 73 75 76
f 71 76 72
f 73 76 71
f 18 70 23
f 70 72 80
f 23 80 25
f 70 80 23
f 72 77 81
f 77 79 82
f 81 82 83
f 77 82 81
f 25 84 29
f 84 83 85
f 29 85 86
f 84 85 29
f 72 81 80
f 81 83 84
f 80 84 25
f 81 84 80
f 86 85 87
f 85 83 88
f 87 88 89
f 85 88 87
f 83 82 90
f 82 79 91
f 90 91 92
f 82 91 90
f 89 93 94
f 93 92 95
f 94 95 96
f 93 95 94
f 83 90 88
f 90 92 93
f 88 93 89
f 90 93 88
f 31 97 36
f 97 98 99
f 36 99 37
f 97 99 36
f 89 94 100
f 94 96 101
f 102 103 104
f 105 103 102
f 37 106 40
f 106 104 107
f 40 107 41
f 106 107 40
f 98 102 99
f 102 104 106
f 99 106 37
f 102 106 99
f 41 107 108
f 107 104 109
f 108 109 110
f 107 109 108
f 104 103 111
f 101 96 112
f 111 113 114
f 103 113 111
f 110 115 116
f 115 114 117
f 116 117 118
f 115 117 116
f 104 111 109
f 111 114 115
f 109 115 110
f 111 115 109
f 41 108 46
f 108 110 119
f 46 119 47
f 108 119 46
f 110 116 120
f 116 118 121
f 120 121 122
f 116 121 120
f 47 123 50
f 123 122 124
f 50 124 51
f 123 124 50
f 110 120 119
f 120 122 123
f 119 123 47
f 120 123 119
f 51 124 125
f 124 122 126
f 125 126 127
f 124 126 125
f 122 121 128
f 121 118 129
f 128 129 130
f 121 129 128
f 127 131 132
f 131 130 133
f 132 133 134
f 131 133 132
f 122 128 126
f 128 130 131
f 126 131 127
f 128 131 126
f 51 125 54
f 125 127 135
f 54 135 55
f 125 135 54
f 127 132 136
f 132 134 137
f 136 137 138
f 132 137 136
f 55 139 57
f 139 138 140
f 57 140 9
f 139 140 57
f 127 136 135
f 136 138 139
f 135 139 55
f 136 139 135
f 9 140 58
f 140 138 141
f 59 142 60
f 143 142 59
f 144 145 146
f 145 147 148
f 146 148 149
f 145 148 146
f 60 150 63
f 150 149 151
f 63 151 65
f 150 151 63
f 144 146 142
f 146 149 150
f 142 150 60
f 146 150 142
f 152 153 154
f 153 155 156
f 154 156 157
f 153 156 154
f 155 158 159
f 158 79 78
f 159 78 75
f 158 78 159
f 157 160 161
f 160 75 74
f 161 74 65
f 160 74 161
f 155 159 156
f 159 75 160
f 156 160 157
f 159 160 156
f 152 162 153
f 162 163 164
f 153 164 155
f 162 164 153
f 163 165 166
f 165 96 95
f 166 95 92
f 165 95 166
f 155 167 158
f 167 92 91
f 158 91 79
f 167 91 158
f 163 166 164
f 166 92 167
f 164 167 155
f 166 167 164
f 152 168 162
f 168 169 170
f 162 170 163
f 168 170 162
f 169 171 172
f 173 118 117
f 174 117 114
f 173 117 174
f 163 175 165
f 175 176 112
f 165 112 96
f 175 112 165
f 169 172 170
f 172 176 175
f 170 175 163
f 172 175 170
f 152 177 168
f 177 178 179
f 168 179 169
f 177 179 168
f 178 180 181
f 180 147 182
f 183 133 130
f 180 182 181
f 169 184 171
f 185 130 129
f 173 129 118
f 185 129 173
f 178 181 179
f 183 130 185
f 179 184 169
f 181 184 179
f 152 154 177
f 154 157 186
f 177 186 178
f 154 186 177
f 157 161 187
f 161 65 151
f 187 151 149
f 161 151 187
f 178 188 180
f 188 149 148
f 180 148 147
f 188 148 180
f 157 187 186
f 187 149 188
f 186 188 178
f 187 188 186
f 14 12 15
f 15 12 11
f 17 13 14
f 14 13 12
f 24 22 17
f 17 22 13
f 29 30 28
f 28 30 26
f 28 26 24
f 24 26 22
f 15 11 62
f 62 11 10
f 62 10 59
f 59 10 58
f 86 31 29
f 29 31 30
f 87 97 86
f 86 97 31
f 89 98 87
f 87 98 97
f 94 105 100
f 100 105 102
f 100 102 89
f 89 102 98
f 101 103 94
f 94 103 105
f 112 113 101
f 101 113 103
f 143 140 142
f 142 140 141
f 59 58 143
f 143 58 140
f 144 138 145
f 145 138 137
f 145 137 147
f 147 137 134
f 142 141 144
f 144 141 138
f 171 173 172
f 172 173 174
f 176 114 112
f 112 114 113
f 172 174 176
f 176 174 114
f 147 134 182
f 182 134 133
f 182 133 181
f 181 133 183
f 184 185 171
f 171 185 173
f 181 183 184
f 184 183 185
