v -0.373443 1.23481 0.387557
v -0.338573 1.19099 0.383083
v -0.344156 1.23978 0.339876
v -0.315307 1.14156 0.37
v -0.311911 1.19216 0.331445
v -0.326047 1.23542 0.286875
v -0.305414 1.09027 0.349305
v -0.292198 1.13228 0.311364
v -0.309649 1.04105 0.322573
v -0.291507 1.07987 0.286244
v -0.28855 1.12153 0.248678
v -0.297845 1.18163 0.267662
v -0.320495 1.22207 0.232589
v -0.297845 1.16669 0.027662
v -0.28855 1.1066 0.0086781
v -0.301004 1.14794 -0.0272646
v -0.320495 1.20713 -0.00741064
v -0.327922 1.1858 -0.0588482
v -0.396396 1.27551 0.356379
v -0.370396 1.27765 0.304436
v -0.42655 1.30417 0.318626
v -0.326047 1.22049 0.0468747
v -0.356329 1.25218 0.000652889
v -0.358827 1.23246 -0.0539682
v -0.399793 1.26921 -0.0426962
v -0.409166 1.30327 0.257345
v -0.461611 1.31861 0.277171
v -0.409166 1.28833 0.0173454
v -0.447703 1.29326 -0.0258904
v -0.461611 1.30367 0.0371708
v -0.498908 1.30277 -0.00482999
v -0.356329 1.26712 0.240653
v -0.423099 1.24881 0.409786
v -0.450242 1.28679 0.375146
v -0.477924 1.2528 0.421374
v -0.489013 1.3124 0.328056
v -0.498908 1.31771 0.23517
v -0.526646 1.31723 0.28402
v -0.551671 1.30153 0.331804
v -0.516022 1.28539 0.382074
v -0.533745 1.24647 0.421439
v -0.572077 1.2718 0.374882
v -0.586311 1.2303 0.409976
v -0.387363 1.19657 0.42629
v -0.441106 1.20694 0.445857
v -0.409172 1.1523 0.453126
v -0.506886 1.20555 0.452785
v -0.563044 1.19286 0.444793
v -0.534293 1.14965 0.466303
v -0.470741 1.15271 0.469478
v -0.43721 1.10536 0.466021
v -0.502246 1.10398 0.47287
v -0.469343 1.05932 0.463995
v -0.355613 1.14845 0.418848
v -0.385248 1.09423 0.442468
v -0.41772 1.04616 0.446167
v -0.371675 1.03841 0.414929
v -0.3359 1.08858 0.398767
v -0.334714 1.03666 0.372658
v -0.312211 1.01982 0.270623
v -0.312211 1.00488 0.0306232
v -0.328382 0.99107 -0.0213742
v -0.299072 1.04608 -0.00821862
v -0.291507 1.06493 0.0462439
v -0.356932 0.985727 -0.0694609
v -0.32566 1.03469 -0.0677197
v -0.395688 0.989259 -0.109976
v -0.362515 1.03452 -0.112668
v -0.339122 1.08494 -0.1045
v -0.304719 1.09543 -0.0519202
v -0.327291 1.13668 -0.0860926
v -0.363027 1.18892 -0.102596
v -0.367452 1.13688 -0.128114
v -0.407875 1.18544 -0.136251
v -0.388393 1.07614 -0.143913
v -0.418955 1.02671 -0.144793
v -0.447707 1.06991 -0.166303
v -0.424538 1.12898 -0.160606
v -0.45905 1.17563 -0.15725
v -0.479754 1.11558 -0.17287
v -0.512657 1.16025 -0.163994
v -0.399348 1.23376 -0.0956218
v -0.456434 1.22586 -0.128114
v -0.51129 1.21137 -0.140746
v -0.508378 1.25419 -0.1045
v -0.452186 1.2699 -0.0789293
v -0.504143 1.28545 -0.0580148
v -0.552933 1.29103 -0.0148076
v -0.55862 1.26765 -0.0677197
v -0.602243 1.26493 -0.0213742
v -0.562869 1.22361 -0.116904
v -0.56428 1.17341 -0.146167
v -0.610325 1.18116 -0.114929
v -0.612217 1.22926 -0.0732026
v -0.643086 1.22645 -0.0240301
v -0.647286 1.1829 -0.0726582
v -0.67235 1.17852 -0.022573
v -0.526646 1.30229 0.0440204
v -0.581381 1.28469 0.035483
v -0.581381 1.29962 0.275483
v -0.552933 1.30597 0.225192
v -0.634977 1.24629 0.0300001
v -0.669789 1.19975 0.029377
v -0.634977 1.26123 0.27
v -0.669789 1.21468 0.269377
v -0.653618 1.22849 0.321374
v -0.60839 1.27262 0.329501
v -0.625067 1.23384 0.369461
v -0.619485 1.18505 0.412668
v -0.65634 1.18487 0.36772
v -0.642878 1.13463 0.4045
v -0.682927 1.17348 0.308219
v -0.690493 1.1397 0.0137563
v -0.690493 1.15463 0.253756
v -0.69345 1.11297 0.291322
v -0.677281 1.12414 0.35192
v -0.654709 1.08289 0.386093
v -0.680996 1.07163 0.327265
v -0.654078 1.03376 0.358848
v -0.593607 1.14342 0.443913
v -0.614548 1.08268 0.428114
v -0.618973 1.03065 0.402596
v -0.574125 1.03413 0.436251
v -0.557462 1.09058 0.460606
v -0.52295 1.04393 0.45725
v -0.47071 1.00819 0.440746
v -0.525565 0.993702 0.428114
v -0.473622 0.965373 0.4045
v -0.582652 0.985804 0.395622
v -0.623173 0.987102 0.353968
v -0.582206 0.95035 0.342696
v -0.529814 0.949659 0.378929
v -0.477856 0.934112 0.358015
v -0.534297 0.926304 0.325891
v -0.483092 0.916793 0.30483
v -0.419131 0.995953 0.416904
v -0.42338 0.95191 0.36772
v -0.429067 0.92853 0.314808
v -0.379756 0.954633 0.321374
v -0.369783 0.990307 0.373203
v -0.338914 0.993115 0.32403
v -0.347023 0.973273 0.27
v -0.347023 0.958336 0.0300001
v -0.400619 0.934877 0.264517
v -0.455353 0.917271 0.25598
v -0.400619 0.91994 0.0245172
v -0.455353 0.902334 0.0159798
v -0.430329 0.918036 -0.0318033
v -0.429067 0.913593 0.0748077
v -0.37361 0.946949 -0.029501
v -0.409923 0.947765 -0.0748818
v -0.608557 0.984756 -0.087557
v -0.594637 1.02299 -0.12629
v -0.558901 0.970753 -0.109786
v -0.572828 1.06727 -0.153125
v -0.540894 1.01263 -0.145857
v -0.504076 0.966763 -0.121374
v -0.54479 1.11421 -0.166021
v -0.511259 1.06685 -0.169477
v -0.475114 1.01402 -0.152785
v -0.448255 0.973093 -0.121439
v -0.643427 1.02858 -0.0830825
v -0.666693 1.07801 -0.0699999
v -0.626387 1.07111 -0.118848
v -0.676586 1.12929 -0.0493049
v -0.6461 1.13099 -0.0987666
v -0.596752 1.12534 -0.142468
v -0.637844 0.979785 -0.0398753
v -0.655953 0.984141 0.0131255
v -0.670089 1.02741 -0.0314445
v -0.661505 0.997493 0.0674108
v -0.684155 1.03794 0.0323382
v -0.661505 1.01243 0.307411
v -0.684155 1.05287 0.272338
v -0.689802 1.08728 -0.0113634
v -0.69345 1.09803 0.0513221
v -0.585604 0.944049 -0.056379
v -0.55545 0.915389 -0.0186256
v -0.611604 0.941915 -0.00443548
v -0.520389 0.900959 0.0228293
v -0.572833 0.916297 0.0426547
v -0.520389 0.915895 0.262829
v -0.572833 0.931234 0.282655
v -0.655953 0.999078 0.253125
v -0.625671 0.967379 0.299347
v -0.625671 0.952442 0.0593473
v -0.531758 0.932779 -0.0751462
v -0.465977 0.93417 -0.0820741
v -0.492987 0.907161 -0.028056
v -0.483092 0.901856 0.0648301
f 1 2 3
f 2 4 5
f 3 5 6
f 2 5 3
f 4 7 8
f 7 9 10
f 8 10 11
f 7 10 8
f 6 12 13
f 14 15 16
f 17 16 18
f 14 16 17
f 4 8 5
f 8 11 12
f 5 12 6
f 8 12 5
f 1 3 19
f 3 6 20
f 19 20 21
f 3 20 19
f 22 17 23
f 17 18 24
f 23 24 25
f 17 24 23
f 21 26 27
f 28 25 29
f 30 29 31
f 28 29 30
f 6 32 20
f 23 25 28
f 20 26 21
f 32 26 20
f 1 19 33
f 19 21 34
f 33 34 35
f 19 34 33
f 21 27 36
f 27 37 38
f 36 38 39
f 27 38 36
f 35 40 41
f 40 39 42
f 41 42 43
f 40 42 41
f 21 36 34
f 36 39 40
f 34 40 35
f 36 40 34
f 1 33 44
f 33 35 45
f 44 45 46
f 33 45 44
f 35 41 47
f 41 43 48
f 47 48 49
f 41 48 47
f 46 50 51
f 50 49 52
f 51 52 53
f 50 52 51
f 35 47 45
f 47 49 50
f 45 50 46
f 47 50 45
f 1 44 2
f 44 46 54
f 2 54 4
f 44 54 2
f 46 51 55
f 51 53 56
f 55 56 57
f 51 56 55
f 4 58 7
f 58 57 59
f 7 59 9
f 58 59 7
f 46 55 54
f 55 57 58
f 54 58 4
f 55 58 54
f 9 60 10
f 61 62 63
f 64 63 15
f 61 63 64
f 62 65 66
f 65 67 68
f 66 68 69
f 65 68 66
f 15 70 16
f 70 69 71
f 16 71 18
f 70 71 16
f 62 66 63
f 66 69 70
f 63 70 15
f 66 70 63
f 18 71 72
f 71 69 73
f 72 73 74
f 71 73 72
f 69 68 75
f 68 67 76
f 75 76 77
f 68 76 75
f 74 78 79
f 78 77 80
f 79 80 81
f 78 80 79
f 69 75 73
f 75 77 78
f 73 78 74
f 75 78 73
f 18 72 24
f 72 74 82
f 24 82 25
f 72 82 24
f 74 79 83
f 79 81 84
f 83 84 85
f 79 84 83
f 25 86 29
f 86 85 87
f 29 87 31
f 86 87 29
f 74 83 82
f 83 85 86
f 82 86 25
f 83 86 82
f 31 87 88
f 87 85 89
f 88 89 90
f 87 89 88
f 85 84 91
f 84 81 92
f 91 92 93
f 84 92 91
f 90 94 95
f 94 93 96
f 95 96 97
f 94 96 95
f 85 91 89
f 91 93 94
f 89 94 90
f 91 94 89
f 31 88 98
f 88 90 99
f 38 100 39
f 101 100 38
f 90 95 102
f 95 97 103
f 104 105 106
f 95 103 102
f 39 107 42
f 107 106 108
f 42 108 43
f 107 108 42
f 90 102 99
f 104 106 107
f 100 107 39
f 104 107 100
f 43 108 109
f 108 106 110
f 109 110 111
f 108 110 109
f 106 105 112
f 103 97 113
f 112 114 115
f 105 114 112
f 111 116 117
f 116 115 118
f 117 118 119
f 116 118 117
f 106 112 110
f 112 115 116
f 110 116 111
f 112 116 110
f 43 109 48
f 109 111 120
f 48 120 49
f 109 120 48
f 111 117 121
f 117 119 122
f 121 122 123
f 117 122 121
f 49 124 52
f 124 123 125
f 52 125 53
f 124 125 52
f 111 121 120
f 121 123 124
f 120 124 49
f 121 124 120
f 53 125 126
f 125 123 127
f 126 127 128
f 125 127 126
f 123 122 129
f 122 119 130
f 129 130 131
f 122 130 129
f 128 132 133
f 132 131 134
f 133 134 135
f 132 134 133
f 123 129 127
f 129 131 132
f 127 132 128
f 129 132 127
f 53 126 56
f 126 128 136
f 56 136 57
f 126 136 56
f 128 133 137
f 133 135 138
f 137 138 139
f 133 138 137
f 57 140 59
f 140 139 141
f 59 141 9
f 140 141 59
f 128 137 136
f 137 139 140
f 136 140 57
f 137 140 136
f 9 141 60
f 141 139 142
f 61 143 62
f 141 142 60
f 139 138 144
f 138 135 145
f 146 147 148
f 149 147 146
f 62 150 65
f 150 148 151
f 65 151 67
f 150 151 65
f 139 144 142
f 146 148 150
f 143 150 62
f 146 150 143
f 152 153 154
f 153 155 156
f 154 156 157
f 153 156 154
f 155 158 159
f 158 81 80
f 159 80 77
f 158 80 159
f 157 160 161
f 160 77 76
f 161 76 67
f 160 76 161
f 155 159 156
f 159 77 160
f 156 160 157
f 159 160 156
f 152 162 153
f 162 163 164
f 153 164 155
f 162 164 153
f 163 165 166
f 165 97 96
f 166 96 93
f 165 96 166
f 155 167 158
f 167 93 92
f 158 92 81
f 167 92 158
f 163 166 164
f 166 93 167
f 164 167 155
f 166 167 164
f 152 168 162
f 168 169 170
f 162 170 163
f 168 170 162
f 169 171 172
f 173 119 118
f 174 118 115
f 173 118 174
f 163 175 165
f 175 176 113
f 165 113 97
f 175 113 165
f 169 172 170
f 172 176 175
f 170 175 163
f 172 175 170
f 152 177 168
f 177 178 179
f 168 179 169
f 177 179 168
f 178 180 181
f 182 135 134
f 183 134 131
f 182 134 183
f 184 185 173
f 185 131 130
f 173 130 119
f 185 130 173
f 178 181 179
f 183 131 185
f 179 186 169
f 181 186 179
f 152 154 177
f 154 157 187
f 177 187 178
f 154 187 177
f 157 161 188
f 161 67 151
f 188 151 148
f 161 151 188
f 178 189 180
f 189 148 147
f 180 147 190
f 189 147 180
f 157 188 187
f 188 148 189
f 187 189 178
f 188 189 187
f 14 12 15
f 15 12 11
f 17 13 14
f 14 13 12
f 22 6 17
f 17 6 13
f 23 32 22
f 22 32 6
f 31 37 30
f 30 37 27
f 30 27 28
f 28 27 26
f 28 26 23
f 23 26 32
f 15 11 64
f 64 11 10
f 64 10 61
f 61 10 60
f 88 101 98
f 98 101 38
f 98 38 31
f 31 38 37
f 99 100 88
f 88 100 101
f 103 105 102
f 102 105 104
f 102 104 99
f 99 104 100
f 113 114 103
f 103 114 105
f 61 60 143
f 143 60 142
f 149 138 147
f 147 138 145
f 146 144 149
f 149 144 138
f 143 142 146
f 146 142 144
f 169 184 171
f 171 184 173
f 171 173 172
f 172 173 174
f 176 115 113
f 113 115 114
f 172 174 176
f 176 174 115
f 180 182 181
f 181 182 183
f 186 185 169
f 169 185 184
f 181 183 186
f 186 183 185
f 147 145 190
f 190 145 135
f 190 135 180
f 180 135 182
