v 0.826557 1.13504 0.867557
v 0.861427 1.09122 0.863083
v 0.855844 1.14001 0.819876
v 0.884694 1.04179 0.85
v 0.888089 1.09239 0.811445
v 0.873953 1.13565 0.766875
v 0.894586 0.990505 0.829305
v 0.907802 1.03251 0.791364
v 0.890351 0.941276 0.802573
v 0.908493 0.980096 0.766244
v 0.91145 1.02176 0.728678
v 0.902156 1.08186 0.747662
v 0.879506 1.1223 0.712589
v 0.898996 1.0631 0.692735
v 0.872078 1.10097 0.661152
v 0.803604 1.17574 0.836379
v 0.829605 1.17788 0.784436
v 0.77345 1.2044 0.798626
v 0.843671 1.16735 0.720653
v 0.841173 1.14763 0.666032
v 0.800207 1.18438 0.677304
v 0.790834 1.2035 0.737345
v 0.73839 1.21884 0.757171
v 0.752297 1.20843 0.69411
v 0.701092 1.21794 0.71517
v 0.776901 1.14904 0.889786
v 0.749758 1.18702 0.855146
v 0.722076 1.15303 0.901374
v 0.710987 1.21263 0.808056
v 0.61839 1.21884 0.757171
v 0.581092 1.21794 0.71517
v 0.553354 1.21746 0.76402
v 0.590987 1.21263 0.808056
v 0.528329 1.20176 0.811804
v 0.602076 1.15303 0.901374
v 0.563978 1.18562 0.862074
v 0.546255 1.1467 0.901439
v 0.507923 1.17203 0.854882
v 0.493689 1.13053 0.889977
v 0.683978 1.18562 0.862074
v 0.812637 1.0968 0.90629
v 0.758894 1.10717 0.925857
v 0.790828 1.05253 0.933125
v 0.573114 1.10578 0.932785
v 0.516956 1.09309 0.924793
v 0.545707 1.04988 0.946303
v 0.729259 1.05294 0.949478
v 0.76279 1.00558 0.946021
v 0.609259 1.05294 0.949478
v 0.577754 1.00421 0.95287
v 0.697754 1.00421 0.95287
v 0.730657 0.959548 0.943995
v 0.693114 1.10578 0.932785
v 0.844387 1.04868 0.898848
v 0.814752 0.994455 0.922468
v 0.78228 0.946387 0.926167
v 0.828325 0.938637 0.894929
v 0.8641 0.988809 0.878767
v 0.865286 0.936889 0.852658
v 0.887789 0.920048 0.750623
v 0.871618 0.906237 0.698626
v 0.900928 0.961247 0.711781
v 0.843068 0.900894 0.650539
v 0.87434 0.94986 0.65228
v 0.804312 0.904426 0.610024
v 0.837485 0.949684 0.607332
v 0.860878 1.0001 0.6155
v 0.895281 1.0106 0.66808
v 0.872709 1.05184 0.633907
v 0.836973 1.10408 0.617404
v 0.832549 1.05205 0.591886
v 0.792126 1.10061 0.583749
v 0.811608 0.99131 0.576087
v 0.781045 0.941875 0.575208
v 0.752293 0.98508 0.553697
v 0.775462 1.04415 0.559394
v 0.740951 1.0908 0.56275
v 0.720246 1.03075 0.54713
v 0.687343 1.07541 0.556006
v 0.800652 1.14893 0.624378
v 0.743566 1.14103 0.591886
v 0.620951 1.0908 0.56275
v 0.567343 1.07541 0.556006
v 0.568711 1.12654 0.579254
v 0.688711 1.12654 0.579254
v 0.691622 1.16936 0.6155
v 0.747814 1.18507 0.641071
v 0.695857 1.20062 0.661985
v 0.575857 1.20062 0.661985
v 0.527067 1.2062 0.705192
v 0.571622 1.16936 0.6155
v 0.52138 1.18282 0.65228
v 0.477757 1.1801 0.698626
v 0.517131 1.13878 0.603096
v 0.51572 1.08857 0.573833
v 0.469675 1.09632 0.605071
v 0.467783 1.14442 0.646797
v 0.436915 1.14162 0.69597
v 0.432714 1.09807 0.647342
v 0.40765 1.09368 0.697427
v 0.498619 1.19985 0.755483
v 0.445023 1.16146 0.75
v 0.410211 1.11491 0.749377
v 0.426382 1.12872 0.801374
v 0.47161 1.17285 0.809501
v 0.454933 1.13407 0.849461
v 0.460515 1.08528 0.892668
v 0.42366 1.0851 0.84772
v 0.437123 1.03486 0.8845
v 0.397073 1.07371 0.788219
v 0.389507 1.05486 0.733756
v 0.38655 1.0132 0.771322
v 0.402719 1.02437 0.83192
v 0.425291 0.983117 0.866093
v 0.399005 0.971858 0.807265
v 0.425922 0.933991 0.838848
v 0.486393 1.04365 0.923913
v 0.465452 0.982915 0.908114
v 0.461028 0.930877 0.882596
v 0.505875 0.934355 0.916251
v 0.522538 0.990812 0.940606
v 0.55705 0.944161 0.93725
v 0.610657 0.959548 0.943995
v 0.67705 0.944161 0.93725
v 0.72929 0.908425 0.920746
v 0.554435 0.893932 0.908114
v 0.60929 0.908425 0.920746
v 0.606378 0.865603 0.8845
v 0.497348 0.886034 0.875622
v 0.456827 0.887332 0.833968
v 0.497794 0.85058 0.822696
v 0.550186 0.849889 0.85893
v 0.602144 0.834342 0.838015
v 0.545703 0.826534 0.805891
v 0.596909 0.817022 0.78483
v 0.726378 0.865603 0.8845
v 0.780869 0.896183 0.896904
v 0.722144 0.834342 0.838015
v 0.776621 0.85214 0.84772
v 0.716909 0.817022 0.78483
v 0.770933 0.828759 0.794808
v 0.820244 0.854862 0.801374
v 0.830217 0.890537 0.853203
v 0.861086 0.893344 0.80403
v 0.852978 0.873503 0.75
v 0.799381 0.835106 0.744517
v 0.744647 0.817501 0.73598
v 0.769671 0.833202 0.688197
v 0.82639 0.862115 0.690499
v 0.790077 0.862932 0.645118
v 0.471443 0.899923 0.632443
v 0.485363 0.938159 0.59371
v 0.521099 0.885919 0.610214
v 0.507172 0.982433 0.566875
v 0.539106 0.927792 0.574143
v 0.575925 0.88193 0.598626
v 0.53521 1.02938 0.553979
v 0.568741 0.982021 0.550523
v 0.600246 1.03075 0.54713
v 0.688741 0.982021 0.550523
v 0.695925 0.88193 0.598626
v 0.724886 0.929184 0.567215
v 0.751745 0.88826 0.598561
v 0.604886 0.929184 0.567215
v 0.436573 0.943742 0.636917
v 0.413307 0.993174 0.65
v 0.453613 0.986276 0.601152
v 0.403415 1.04446 0.670695
v 0.4339 1.04615 0.621233
v 0.483248 1.04051 0.577532
v 0.442156 0.894952 0.680125
v 0.424047 0.899308 0.733126
v 0.409912 0.942575 0.688555
v 0.418495 0.91266 0.787411
v 0.395845 0.953102 0.752338
v 0.390198 1.00245 0.708637
v 0.494396 0.859216 0.663621
v 0.52455 0.830556 0.701374
v 0.468396 0.857081 0.715565
v 0.559611 0.816125 0.742829
v 0.507167 0.831464 0.762655
v 0.454329 0.867609 0.779347
v 0.548243 0.847945 0.644854
v 0.734023 0.849337 0.637926
v 0.587014 0.822328 0.691944
v 0.707014 0.822328 0.691944
v 0.679611 0.816125 0.742829
v 0.614023 0.849337 0.637926
f 1 2 3
f 2 4 5
f 3 5 6
f 2 5 3
f 4 7 8
f 7 9 10
f 8 10 11
f 7 10 8
f 6 12 13
f 12 11 14
f 13 14 15
f 12 14 13
f 4 8 5
f 8 11 12
f 5 12 6
f 8 12 5
f 1 3 16
f 3 6 17
f 16 17 18
f 3 17 16
f 6 13 19
f 13 15 20
f 19 20 21
f 13 20 19
f 18 22 23
f 22 21 24
f 23 24 25
f 22 24 23
f 6 19 17
f 19 21 22
f 17 22 18
f 19 22 17
f 1 16 26
f 16 18 27
f 26 27 28
f 16 27 26
f 18 23 29
f 30 31 32
f 33 32 34
f 30 32 33
f 35 36 37
f 36 34 38
f 37 38 39
f 36 38 37
f 18 29 27
f 33 34 36
f 27 40 28
f 29 40 27
f 1 26 41
f 26 28 42
f 41 42 43
f 26 42 41
f 35 37 44
f 37 39 45
f 44 45 46
f 37 45 44
f 43 47 48
f 49 46 50
f 48 51 52
f 47 51 48
f 28 53 42
f 44 46 49
f 42 47 43
f 53 47 42
f 1 41 2
f 41 43 54
f 2 54 4
f 41 54 2
f 43 48 55
f 48 52 56
f 55 56 57
f 48 56 55
f 4 58 7
f 58 57 59
f 7 59 9
f 58 59 7
f 43 55 54
f 55 57 58
f 54 58 4
f 55 58 54
f 9 60 10
f 60 61 62
f 10 62 11
f 60 62 10
f 61 63 64
f 63 65 66
f 64 66 67
f 63 66 64
f 11 68 14
f 68 67 69
f 14 69 15
f 68 69 14
f 61 64 62
f 64 67 68
f 62 68 11
f 64 68 62
f 15 69 70
f 69 67 71
f 70 71 72
f 69 71 70
f 67 66 73
f 66 65 74
f 73 74 75
f 66 74 73
f 72 76 77
f 76 75 78
f 77 78 79
f 76 78 77
f 67 73 71
f 73 75 76
f 71 76 72
f 73 76 71
f 15 70 20
f 70 72 80
f 20 80 21
f 70 80 20
f 72 77 81
f 82 83 84
f 81 85 86
f 77 85 81
f 21 87 24
f 87 86 88
f 24 88 25
f 87 88 24
f 72 81 80
f 81 86 87
f 80 87 21
f 81 87 80
f 31 89 90
f 89 91 92
f 90 92 93
f 89 92 90
f 91 84 94
f 84 83 95
f 94 95 96
f 84 95 94
f 93 97 98
f 97 96 99
f 98 99 100
f 97 99 98
f 91 94 92
f 94 96 97
f 92 97 93
f 94 97 92
f 31 90 32
f 90 93 101
f 32 101 34
f 90 101 32
f 93 98 102
f 98 100 103
f 102 103 104
f 98 103 102
f 34 105 38
f 105 104 106
f 38 106 39
f 105 106 38
f 93 102 101
f 102 104 105
f 101 105 34
f 102 105 101
f 39 106 107
f 106 104 108
f 107 108 109
f 106 108 107
f 104 103 110
f 103 100 111
f 110 111 112
f 103 111 110
f 109 113 114
f 113 112 115
f 114 115 116
f 113 115 114
f 104 110 108
f 110 112 113
f 108 113 109
f 110 113 108
f 39 107 45
f 107 109 117
f 45 117 46
f 107 117 45
f 109 114 118
f 114 116 119
f 118 119 120
f 114 119 118
f 46 121 50
f 121 120 122
f 50 122 123
f 121 122 50
f 109 118 117
f 118 120 121
f 117 121 46
f 118 121 117
f 52 124 125
f 122 120 126
f 127 126 128
f 122 126 127
f 120 119 129
f 119 116 130
f 129 130 131
f 119 130 129
f 128 132 133
f 132 131 134
f 133 134 135
f 132 134 133
f 120 129 126
f 129 131 132
f 126 132 128
f 129 132 126
f 52 125 56
f 125 136 137
f 56 137 57
f 125 137 56
f 136 138 139
f 138 140 141
f 139 141 142
f 138 141 139
f 57 143 59
f 143 142 144
f 59 144 9
f 143 144 59
f 136 139 137
f 139 142 143
f 137 143 57
f 139 143 137
f 9 144 60
f 144 142 145
f 60 145 61
f 144 145 60
f 142 141 146
f 141 140 147
f 146 147 148
f 141 147 146
f 61 149 63
f 149 148 150
f 63 150 65
f 149 150 63
f 142 146 145
f 146 148 149
f 145 149 61
f 146 149 145
f 151 152 153
f 152 154 155
f 153 155 156
f 152 155 153
f 154 157 158
f 157 83 159
f 160 78 75
f 157 159 158
f 161 162 163
f 162 75 74
f 163 74 65
f 162 74 163
f 154 158 155
f 160 75 162
f 155 164 156
f 158 164 155
f 151 165 152
f 165 166 167
f 152 167 154
f 165 167 152
f 166 168 169
f 168 100 99
f 169 99 96
f 168 99 169
f 154 170 157
f 170 96 95
f 157 95 83
f 170 95 157
f 166 169 167
f 169 96 170
f 167 170 154
f 169 170 167
f 151 171 165
f 171 172 173
f 165 173 166
f 171 173 165
f 172 174 175
f 174 116 115
f 175 115 112
f 174 115 175
f 166 176 168
f 176 112 111
f 168 111 100
f 176 111 168
f 172 175 173
f 175 112 176
f 173 176 166
f 175 176 173
f 151 177 171
f 177 178 179
f 171 179 172
f 177 179 171
f 178 180 181
f 180 135 134
f 181 134 131
f 180 134 181
f 172 182 174
f 182 131 130
f 174 130 116
f 182 130 174
f 178 181 179
f 181 131 182
f 179 182 172
f 181 182 179
f 151 153 177
f 153 156 183
f 177 183 178
f 153 183 177
f 161 163 184
f 163 65 150
f 184 150 148
f 163 150 184
f 178 185 180
f 186 148 147
f 187 147 140
f 186 147 187
f 156 188 183
f 184 148 186
f 183 185 178
f 188 185 183
f 25 31 23
f 23 31 30
f 23 30 29
f 29 30 33
f 40 36 28
f 28 36 35
f 29 33 40
f 40 33 36
f 51 50 52
f 52 50 123
f 47 49 51
f 51 49 50
f 28 35 53
f 53 35 44
f 53 44 47
f 47 44 49
f 78 159 79
f 79 159 83
f 79 83 77
f 77 83 82
f 85 84 86
f 86 84 91
f 77 82 85
f 85 82 84
f 86 91 88
f 88 91 89
f 88 89 25
f 25 89 31
f 52 123 124
f 124 123 122
f 124 122 125
f 125 122 127
f 125 127 136
f 136 127 128
f 136 128 138
f 138 128 133
f 138 133 140
f 140 133 135
f 160 158 78
f 78 158 159
f 161 156 162
f 162 156 164
f 162 164 160
f 160 164 158
f 184 188 161
f 161 188 156
f 140 135 187
f 187 135 180
f 187 180 186
f 186 180 185
f 186 185 184
f 184 185 188
