v -0.373443 1.22171 0.467557
v -0.338573 1.17789 0.463083
v -0.344156 1.22668 0.419876
v -0.315307 1.12846 0.45
v -0.311911 1.17906 0.411445
v -0.326047 1.22233 0.366875
v -0.305414 1.07718 0.429305
v -0.292198 1.11919 0.391364
v -0.309649 1.02795 0.402573
v -0.291507 1.06677 0.366244
v -0.28855 1.10844 0.328678
v -0.326047 1.23542 0.286875
v -0.297845 1.18163 0.267662
v -0.320495 1.22207 0.232589
v -0.28855 1.12153 0.248678
v -0.301004 1.16287 0.212735
v -0.327922 1.20074 0.181152
v -0.297845 1.16853 0.347662
v -0.396396 1.26242 0.436379
v -0.370396 1.26455 0.384436
v -0.42655 1.29108 0.398626
v -0.356329 1.26712 0.240653
v -0.358827 1.2474 0.186032
v -0.399793 1.28415 0.197304
v -0.42655 1.30417 0.318626
v -0.409166 1.30327 0.257345
v -0.461611 1.31861 0.277171
v -0.447703 1.3082 0.21411
v -0.498908 1.31771 0.23517
v -0.370396 1.27765 0.304436
v -0.423099 1.23572 0.489786
v -0.450242 1.27369 0.455146
v -0.477924 1.23971 0.501374
v -0.461611 1.30551 0.357171
v -0.489013 1.29931 0.408056
v -0.526646 1.31723 0.28402
v -0.526646 1.30414 0.36402
v -0.551671 1.28843 0.411804
v -0.489013 1.3124 0.328056
v -0.516022 1.2723 0.462074
v -0.533745 1.23338 0.50144
v -0.572077 1.2587 0.454882
v -0.586311 1.21721 0.489976
v -0.387363 1.18348 0.50629
v -0.441106 1.19384 0.525857
v -0.409172 1.1392 0.533126
v -0.506886 1.19245 0.532785
v -0.563044 1.17976 0.524793
v -0.534293 1.13656 0.546303
v -0.470741 1.13961 0.549478
v -0.43721 1.09226 0.546021
v -0.502246 1.09088 0.552871
v -0.469343 1.04622 0.543995
v -0.355613 1.13536 0.498848
v -0.385248 1.08113 0.522468
v -0.41772 1.03306 0.526167
v -0.371675 1.02531 0.494929
v -0.3359 1.07548 0.478767
v -0.334714 1.02356 0.452658
v -0.312211 1.00672 0.350623
v -0.312211 1.01982 0.270623
v -0.328382 1.00601 0.218626
v -0.299072 1.06102 0.231781
v -0.291507 1.07987 0.286244
v -0.299072 1.04792 0.311781
v -0.356932 1.00066 0.170539
v -0.32566 1.04963 0.17228
v -0.395688 1.0042 0.130024
v -0.362515 1.04945 0.127332
v -0.339122 1.09987 0.1355
v -0.304719 1.11037 0.18808
v -0.327291 1.15161 0.153907
v -0.363027 1.20385 0.137404
v -0.367452 1.15182 0.111886
v -0.407875 1.20038 0.103749
v -0.388393 1.09108 0.0960868
v -0.418955 1.04165 0.0952075
v -0.447707 1.08485 0.073697
v -0.424538 1.14392 0.0793942
v -0.45905 1.19057 0.0827504
v -0.479754 1.13052 0.0671297
v -0.512657 1.17518 0.0760056
v -0.399348 1.2487 0.144378
v -0.456434 1.2408 0.111886
v -0.51129 1.22631 0.0992541
v -0.508378 1.26913 0.1355
v -0.452186 1.28484 0.161071
v -0.504143 1.30039 0.181985
v -0.552933 1.30597 0.225192
v -0.55862 1.28259 0.17228
v -0.602243 1.27987 0.218626
v -0.562869 1.23855 0.123096
v -0.56428 1.18834 0.0938333
v -0.610325 1.19609 0.125071
v -0.612217 1.24419 0.166797
v -0.643086 1.24139 0.21597
v -0.647286 1.19784 0.167342
v -0.67235 1.19345 0.217427
v -0.581381 1.29962 0.275483
v -0.551671 1.30153 0.331804
v -0.634977 1.26123 0.27
v -0.669789 1.21468 0.269377
v -0.653618 1.22849 0.321374
v -0.60839 1.25952 0.409501
v -0.653618 1.2154 0.401374
v -0.625067 1.22074 0.449461
v -0.634977 1.24813 0.35
v -0.581381 1.28653 0.355483
v -0.60839 1.27262 0.329501
v -0.619485 1.17195 0.492668
v -0.65634 1.17178 0.44772
v -0.642878 1.12153 0.4845
v -0.669789 1.20159 0.349377
v -0.682927 1.16039 0.388219
v -0.690493 1.15463 0.253756
v -0.690493 1.14154 0.333756
v -0.69345 1.09987 0.371322
v -0.682927 1.17348 0.308219
v -0.677281 1.11104 0.43192
v -0.654709 1.06979 0.466093
v -0.680996 1.05853 0.407265
v -0.654078 1.02067 0.438848
v -0.593607 1.13033 0.523914
v -0.614548 1.06959 0.508114
v -0.618973 1.01755 0.482596
v -0.574125 1.02103 0.516251
v -0.557462 1.07749 0.540606
v -0.52295 1.03084 0.53725
v -0.47071 0.9951 0.520746
v -0.525565 0.980607 0.508114
v -0.473622 0.952278 0.4845
v -0.582652 0.97271 0.475622
v -0.623173 0.974008 0.433968
v -0.582206 0.937256 0.422696
v -0.529814 0.936565 0.45893
v -0.477856 0.921018 0.438015
v -0.534297 0.913209 0.405891
v -0.483092 0.903698 0.38483
v -0.419131 0.982859 0.496904
v -0.42338 0.938816 0.44772
v -0.429067 0.915435 0.394808
v -0.379756 0.941538 0.401374
v -0.369783 0.977212 0.453203
v -0.338914 0.98002 0.40403
v -0.347023 0.960178 0.35
v -0.328382 0.992912 0.298626
v -0.400619 0.921782 0.344517
v -0.455353 0.904177 0.33598
v -0.430329 0.919878 0.288197
v -0.37361 0.961886 0.210499
v -0.430329 0.932973 0.208197
v -0.409923 0.962702 0.165118
v -0.400619 0.934877 0.264517
v -0.347023 0.973273 0.27
v -0.37361 0.948791 0.290499
v -0.608557 0.999693 0.152443
v -0.594637 1.03793 0.11371
v -0.558901 0.985689 0.130214
v -0.572828 1.0822 0.0868747
v -0.540894 1.02756 0.0941432
v -0.504076 0.9817 0.118626
v -0.54479 1.12915 0.0739793
v -0.511259 1.08179 0.0705227
v -0.475114 1.02895 0.0872152
v -0.448255 0.98803 0.118561
v -0.643427 1.04351 0.156917
v -0.666693 1.09294 0.17
v -0.626387 1.08605 0.121152
v -0.676586 1.14423 0.190695
v -0.6461 1.14592 0.141233
v -0.596752 1.14028 0.0975318
v -0.637844 0.994722 0.200125
v -0.655953 0.999078 0.253125
v -0.670089 1.04234 0.208555
v -0.655953 0.985984 0.333126
v -0.661505 0.999335 0.387411
v -0.684155 1.03978 0.352338
v -0.689802 1.10222 0.228637
v -0.69345 1.11297 0.291322
v -0.684155 1.05287 0.272338
v -0.585604 0.958986 0.183621
v -0.55545 0.930326 0.221374
v -0.611604 0.956852 0.235565
v -0.55545 0.917231 0.301374
v -0.520389 0.902801 0.342829
v -0.572833 0.918139 0.362655
v -0.625671 0.954285 0.379347
v -0.611604 0.943757 0.315565
v -0.531758 0.947716 0.164854
v -0.465977 0.949107 0.157926
v -0.492987 0.922098 0.211944
v -0.520389 0.915895 0.262829
v -0.455353 0.917271 0.25598
v -0.492987 0.909003 0.291944
f 1 2 3
f 2 4 5
f 3 5 6
f 2 5 3
f 4 7 8
f 7 9 10
f 8 10 11
f 7 10 8
f 12 13 14
f 13 15 16
f 14 16 17
f 13 16 14
f 4 8 5
f 8 11 18
f 5 18 6
f 8 18 5
f 1 3 19
f 3 6 20
f 19 20 21
f 3 20 19
f 12 14 22
f 14 17 23
f 22 23 24
f 14 23 22
f 25 26 27
f 26 24 28
f 27 28 29
f 26 28 27
f 12 22 30
f 22 24 26
f 30 26 25
f 22 26 30
f 1 19 31
f 19 21 32
f 31 32 33
f 19 32 31
f 21 34 35
f 27 29 36
f 35 37 38
f 27 36 39
f 33 40 41
f 40 38 42
f 41 42 43
f 40 42 41
f 21 35 32
f 35 38 40
f 32 40 33
f 35 40 32
f 1 31 44
f 31 33 45
f 44 45 46
f 31 45 44
f 33 41 47
f 41 43 48
f 47 48 49
f 41 48 47
f 46 50 51
f 50 49 52
f 51 52 53
f 50 52 51
f 33 47 45
f 47 49 50
f 45 50 46
f 47 50 45
f 1 44 2
f 44 46 54
f 2 54 4
f 44 54 2
f 46 51 55
f 51 53 56
f 55 56 57
f 51 56 55
f 4 58 7
f 58 57 59
f 7 59 9
f 58 59 7
f 46 55 54
f 55 57 58
f 54 58 4
f 55 58 54
f 9 60 10
f 61 62 63
f 64 63 15
f 60 65 10
f 62 66 67
f 66 68 69
f 67 69 70
f 66 69 67
f 15 71 16
f 71 70 72
f 16 72 17
f 71 72 16
f 62 67 63
f 67 70 71
f 63 71 15
f 67 71 63
f 17 72 73
f 72 70 74
f 73 74 75
f 72 74 73
f 70 69 76
f 69 68 77
f 76 77 78
f 69 77 76
f 75 79 80
f 79 78 81
f 80 81 82
f 79 81 80
f 70 76 74
f 76 78 79
f 74 79 75
f 76 79 74
f 17 73 23
f 73 75 83
f 23 83 24
f 73 83 23
f 75 80 84
f 80 82 85
f 84 85 86
f 80 85 84
f 24 87 28
f 87 86 88
f 28 88 29
f 87 88 28
f 75 84 83
f 84 86 87
f 83 87 24
f 84 87 83
f 29 88 89
f 88 86 90
f 89 90 91
f 88 90 89
f 86 85 92
f 85 82 93
f 92 93 94
f 85 93 92
f 91 95 96
f 95 94 97
f 96 97 98
f 95 97 96
f 86 92 90
f 92 94 95
f 90 95 91
f 92 95 90
f 29 89 36
f 89 91 99
f 36 99 100
f 89 99 36
f 91 96 101
f 96 98 102
f 101 102 103
f 96 102 101
f 38 104 42
f 104 105 106
f 42 106 43
f 104 106 42
f 91 101 99
f 107 105 104
f 108 104 38
f 101 109 99
f 43 106 110
f 106 105 111
f 110 111 112
f 106 111 110
f 105 113 114
f 102 98 115
f 114 116 117
f 102 115 118
f 112 119 120
f 119 117 121
f 120 121 122
f 119 121 120
f 105 114 111
f 114 117 119
f 111 119 112
f 114 119 111
f 43 110 48
f 110 112 123
f 48 123 49
f 110 123 48
f 112 120 124
f 120 122 125
f 124 125 126
f 120 125 124
f 49 127 52
f 127 126 128
f 52 128 53
f 127 128 52
f 112 124 123
f 124 126 127
f 123 127 49
f 124 127 123
f 53 128 129
f 128 126 130
f 129 130 131
f 128 130 129
f 126 125 132
f 125 122 133
f 132 133 134
f 125 133 132
f 131 135 136
f 135 134 137
f 136 137 138
f 135 137 136
f 126 132 130
f 132 134 135
f 130 135 131
f 132 135 130
f 53 129 56
f 129 131 139
f 56 139 57
f 129 139 56
f 131 136 140
f 136 138 141
f 140 141 142
f 136 141 140
f 57 143 59
f 143 142 144
f 59 144 9
f 143 144 59
f 131 140 139
f 140 142 143
f 139 143 57
f 140 143 139
f 9 144 60
f 144 142 145
f 60 145 146
f 144 145 60
f 142 141 147
f 141 138 148
f 147 148 149
f 141 148 147
f 62 150 66
f 150 151 152
f 66 152 68
f 150 152 66
f 142 147 145
f 153 151 150
f 154 150 62
f 147 155 145
f 156 157 158
f 157 159 160
f 158 160 161
f 157 160 158
f 159 162 163
f 162 82 81
f 163 81 78
f 162 81 163
f 161 164 165
f 164 78 77
f 165 77 68
f 164 77 165
f 159 163 160
f 163 78 164
f 160 164 161
f 163 164 160
f 156 166 157
f 166 167 168
f 157 168 159
f 166 168 157
f 167 169 170
f 169 98 97
f 170 97 94
f 169 97 170
f 159 171 162
f 171 94 93
f 162 93 82
f 171 93 162
f 167 170 168
f 170 94 171
f 168 171 159
f 170 171 168
f 156 172 166
f 172 173 174
f 166 174 167
f 172 174 166
f 175 176 177
f 176 122 121
f 177 121 117
f 176 121 177
f 167 178 169
f 178 179 115
f 169 115 98
f 178 115 169
f 173 180 174
f 180 179 178
f 174 178 167
f 180 178 174
f 156 181 172
f 181 182 183
f 172 183 173
f 181 183 172
f 184 185 186
f 185 138 137
f 186 137 134
f 185 137 186
f 175 187 176
f 187 134 133
f 176 133 122
f 187 133 176
f 184 186 188
f 186 134 187
f 188 187 175
f 186 187 188
f 156 158 181
f 158 161 189
f 181 189 182
f 158 189 181
f 161 165 190
f 165 68 152
f 190 152 151
f 165 152 190
f 182 191 192
f 191 151 193
f 185 148 138
f 194 148 185
f 161 190 189
f 190 151 191
f 189 191 182
f 190 191 189
f 12 6 13
f 13 6 18
f 13 18 15
f 15 18 11
f 27 34 25
f 25 34 21
f 30 20 12
f 12 20 6
f 25 21 30
f 30 21 20
f 36 37 39
f 39 37 35
f 39 35 27
f 27 35 34
f 61 60 62
f 62 60 146
f 63 65 61
f 61 65 60
f 64 10 63
f 63 10 65
f 15 11 64
f 64 11 10
f 99 108 100
f 100 108 38
f 100 38 36
f 36 38 37
f 102 113 103
f 103 113 105
f 103 105 101
f 101 105 107
f 101 107 109
f 109 107 104
f 109 104 99
f 99 104 108
f 115 116 118
f 118 116 114
f 118 114 102
f 102 114 113
f 153 147 151
f 151 147 149
f 150 155 153
f 153 155 147
f 154 145 150
f 150 145 155
f 62 146 154
f 154 146 145
f 179 117 115
f 115 117 116
f 173 175 180
f 180 175 177
f 180 177 179
f 179 177 117
f 182 184 183
f 183 184 188
f 183 188 173
f 173 188 175
f 191 194 192
f 192 194 185
f 192 185 182
f 182 185 184
f 151 149 193
f 193 149 148
f 193 148 191
f 191 148 194
