v -0.373443 1.18296 0.547557
v -0.338573 1.13915 0.543083
v -0.344156 1.18794 0.499875
v -0.315307 1.08971 0.53
v -0.311911 1.14031 0.491445
v -0.344156 1.22668 0.419876
v -0.311911 1.17906 0.411445
v -0.326047 1.22233 0.366875
v -0.305414 1.03843 0.509305
v -0.292198 1.08044 0.471364
v -0.309649 0.989203 0.482573
v -0.291507 1.02802 0.446244
v -0.28855 1.06969 0.408678
v -0.297845 1.16853 0.347662
v -0.320495 1.20898 0.312589
v -0.28855 1.10844 0.328678
v -0.301004 1.14978 0.292735
v -0.327922 1.18765 0.261152
v -0.292198 1.11919 0.391364
v -0.297845 1.12979 0.427662
v -0.396396 1.22367 0.516379
v -0.370396 1.26455 0.384436
v -0.396396 1.26242 0.436379
v -0.42655 1.29108 0.398626
v -0.356329 1.25403 0.320653
v -0.358827 1.2343 0.266032
v -0.399793 1.27106 0.277304
v -0.409166 1.29017 0.337345
v -0.461611 1.30551 0.357171
v -0.447703 1.2951 0.29411
v -0.498908 1.30461 0.31517
v -0.423099 1.19697 0.569786
v -0.450242 1.27369 0.455146
v -0.450242 1.23494 0.535146
v -0.477924 1.20096 0.581374
v -0.489013 1.29931 0.408056
v -0.526646 1.30414 0.36402
v -0.551671 1.28843 0.411804
v -0.516022 1.23355 0.542074
v -0.533745 1.19463 0.581439
v -0.551671 1.24969 0.491803
v -0.572077 1.21996 0.534882
v -0.586311 1.17846 0.569976
v -0.516022 1.2723 0.462074
v -0.489013 1.26056 0.488056
v -0.387363 1.14473 0.58629
v -0.441106 1.1551 0.605857
v -0.409172 1.10045 0.613125
v -0.506886 1.1537 0.612785
v -0.563044 1.14101 0.604793
v -0.534293 1.09781 0.626303
v -0.470741 1.10087 0.629478
v -0.43721 1.05351 0.626021
v -0.502246 1.05214 0.63287
v -0.469343 1.00748 0.623995
v -0.355613 1.09661 0.578848
v -0.385248 1.04238 0.602468
v -0.41772 0.994314 0.606167
v -0.371675 0.986564 0.574929
v -0.3359 1.03674 0.558767
v -0.334714 0.984816 0.532658
v -0.312211 0.967975 0.430623
v -0.328382 0.954164 0.378626
v -0.299072 1.00917 0.391781
v -0.291507 1.06677 0.366244
v -0.299072 1.04792 0.311781
v -0.328382 0.992912 0.298626
v -0.356932 0.987569 0.250539
v -0.32566 1.03654 0.25228
v -0.395688 0.991101 0.210024
v -0.362515 1.03636 0.207332
v -0.339122 1.08678 0.2155
v -0.304719 1.09727 0.26808
v -0.327291 1.13852 0.233907
v -0.363027 1.19076 0.217404
v -0.367452 1.13872 0.191886
v -0.407875 1.18728 0.183749
v -0.388393 1.07799 0.176087
v -0.418955 1.02855 0.175208
v -0.447707 1.07176 0.153697
v -0.424538 1.13082 0.159394
v -0.45905 1.17748 0.16275
v -0.479754 1.11743 0.14713
v -0.512657 1.16209 0.156006
v -0.399348 1.2356 0.224378
v -0.456434 1.2277 0.191886
v -0.51129 1.21321 0.179254
v -0.508378 1.25603 0.2155
v -0.452186 1.27175 0.241071
v -0.504143 1.28729 0.261985
v -0.552933 1.29288 0.305193
v -0.55862 1.2695 0.25228
v -0.602243 1.26677 0.298626
v -0.562869 1.22545 0.203096
v -0.56428 1.17525 0.173833
v -0.610325 1.183 0.205071
v -0.612217 1.2311 0.246798
v -0.643086 1.22829 0.29597
v -0.647286 1.18475 0.247342
v -0.67235 1.18036 0.297427
v -0.581381 1.28653 0.355483
v -0.634977 1.24813 0.35
v -0.669789 1.20159 0.349377
v -0.653618 1.2154 0.401374
v -0.60839 1.25952 0.409501
v -0.572077 1.2587 0.454882
v -0.60839 1.22077 0.489501
v -0.653618 1.17665 0.481374
v -0.625067 1.18199 0.529461
v -0.619485 1.1332 0.572668
v -0.65634 1.13303 0.52772
v -0.642878 1.08279 0.5645
v -0.682927 1.16039 0.388219
v -0.690493 1.14154 0.333756
v -0.682927 1.12164 0.468219
v -0.690493 1.10279 0.413756
v -0.69345 1.06113 0.451322
v -0.677281 1.07229 0.51192
v -0.654709 1.03104 0.546093
v -0.680996 1.01978 0.487265
v -0.654078 0.981918 0.518848
v -0.593607 1.09158 0.603913
v -0.614548 1.03084 0.588114
v -0.618973 0.978803 0.562596
v -0.574125 0.982282 0.596251
v -0.557462 1.03874 0.620606
v -0.52295 0.992088 0.61725
v -0.47071 0.956352 0.600746
v -0.525565 0.941859 0.588114
v -0.473622 0.913529 0.5645
v -0.582652 0.933961 0.555622
v -0.623173 0.935259 0.513968
v -0.582206 0.898507 0.502696
v -0.529814 0.897816 0.538929
v -0.477856 0.882269 0.518015
v -0.534297 0.874461 0.485891
v -0.483092 0.864949 0.46483
v -0.419131 0.94411 0.576904
v -0.42338 0.900067 0.52772
v -0.429067 0.876686 0.474808
v -0.379756 0.902789 0.481374
v -0.369783 0.938464 0.533203
v -0.338914 0.941271 0.48403
v -0.347023 0.92143 0.43
v -0.400619 0.883033 0.424517
v -0.455353 0.865428 0.41598
v -0.430329 0.881129 0.368197
v -0.37361 0.948791 0.290499
v -0.37361 0.910042 0.370499
v -0.409923 0.910859 0.325118
v -0.409923 0.949607 0.245118
v -0.608557 0.986599 0.232443
v -0.594637 1.02483 0.19371
v -0.558901 0.972595 0.210214
v -0.572828 1.06911 0.166875
v -0.540894 1.01447 0.174143
v -0.504076 0.968606 0.198626
v -0.54479 1.11605 0.153979
v -0.511259 1.0687 0.150523
v -0.475114 1.01586 0.167215
v -0.448255 0.974935 0.198561
v -0.643427 1.03042 0.236918
v -0.666693 1.07985 0.25
v -0.626387 1.07295 0.201152
v -0.676586 1.13113 0.270695
v -0.6461 1.13283 0.221233
v -0.596752 1.12718 0.177532
v -0.637844 0.981628 0.280125
v -0.637844 0.942879 0.360125
v -0.655953 0.947235 0.413125
v -0.670089 0.990502 0.368555
v -0.670089 1.02925 0.288556
v -0.661505 0.960587 0.467411
v -0.684155 1.00103 0.432338
v -0.689802 1.08913 0.308637
v -0.69345 1.09987 0.371322
v -0.689802 1.05038 0.388637
v -0.684155 1.03978 0.352338
v -0.585604 0.945891 0.263621
v -0.585604 0.907143 0.343621
v -0.55545 0.878483 0.381374
v -0.611604 0.905008 0.395564
v -0.520389 0.864052 0.422829
v -0.572833 0.879391 0.442655
v -0.625671 0.915536 0.459347
v -0.531758 0.934621 0.244854
v -0.531758 0.895872 0.324854
v -0.465977 0.936012 0.237926
v -0.430329 0.919878 0.288197
v -0.492987 0.870255 0.371944
v -0.465977 0.897264 0.317926
v -0.492987 0.909003 0.291944
f 1 2 3
f 2 4 5
f 6 7 8
f 2 5 3
f 4 9 10
f 9 11 12
f 10 12 13
f 9 12 10
f 8 14 15
f 14 16 17
f 15 17 18
f 14 17 15
f 4 10 5
f 19 16 14
f 7 14 8
f 10 20 5
f 1 3 21
f 6 8 22
f 23 22 24
f 6 22 23
f 8 15 25
f 15 18 26
f 25 26 27
f 15 26 25
f 24 28 29
f 28 27 30
f 29 30 31
f 28 30 29
f 8 25 22
f 25 27 28
f 22 28 24
f 25 28 22
f 1 21 32
f 23 24 33
f 32 34 35
f 21 34 32
f 24 29 36
f 29 31 37
f 36 37 38
f 29 37 36
f 35 39 40
f 39 41 42
f 40 42 43
f 39 42 40
f 24 36 33
f 36 38 44
f 34 39 35
f 45 39 34
f 1 32 46
f 32 35 47
f 46 47 48
f 32 47 46
f 35 40 49
f 40 43 50
f 49 50 51
f 40 50 49
f 48 52 53
f 52 51 54
f 53 54 55
f 52 54 53
f 35 49 47
f 49 51 52
f 47 52 48
f 49 52 47
f 1 46 2
f 46 48 56
f 2 56 4
f 46 56 2
f 48 53 57
f 53 55 58
f 57 58 59
f 53 58 57
f 4 60 9
f 60 59 61
f 9 61 11
f 60 61 9
f 48 57 56
f 57 59 60
f 56 60 4
f 57 60 56
f 11 62 12
f 62 63 64
f 65 66 16
f 62 64 12
f 67 68 69
f 68 70 71
f 69 71 72
f 68 71 69
f 16 73 17
f 73 72 74
f 17 74 18
f 73 74 17
f 67 69 66
f 69 72 73
f 66 73 16
f 69 73 66
f 18 74 75
f 74 72 76
f 75 76 77
f 74 76 75
f 72 71 78
f 71 70 79
f 78 79 80
f 71 79 78
f 77 81 82
f 81 80 83
f 82 83 84
f 81 83 82
f 72 78 76
f 78 80 81
f 76 81 77
f 78 81 76
f 18 75 26
f 75 77 85
f 26 85 27
f 75 85 26
f 77 82 86
f 82 84 87
f 86 87 88
f 82 87 86
f 27 89 30
f 89 88 90
f 30 90 31
f 89 90 30
f 77 86 85
f 86 88 89
f 85 89 27
f 86 89 85
f 31 90 91
f 90 88 92
f 91 92 93
f 90 92 91
f 88 87 94
f 87 84 95
f 94 95 96
f 87 95 94
f 93 97 98
f 97 96 99
f 98 99 100
f 97 99 98
f 88 94 92
f 94 96 97
f 92 97 93
f 94 97 92
f 31 91 37
f 91 93 101
f 37 101 38
f 91 101 37
f 93 98 102
f 98 100 103
f 102 103 104
f 98 103 102
f 38 105 106
f 107 108 109
f 42 109 43
f 107 109 42
f 93 102 101
f 102 104 105
f 101 105 38
f 102 105 101
f 43 109 110
f 109 108 111
f 110 111 112
f 109 111 110
f 104 103 113
f 103 100 114
f 115 116 117
f 103 114 113
f 112 118 119
f 118 117 120
f 119 120 121
f 118 120 119
f 108 115 111
f 115 117 118
f 111 118 112
f 115 118 111
f 43 110 50
f 110 112 122
f 50 122 51
f 110 122 50
f 112 119 123
f 119 121 124
f 123 124 125
f 119 124 123
f 51 126 54
f 126 125 127
f 54 127 55
f 126 127 54
f 112 123 122
f 123 125 126
f 122 126 51
f 123 126 122
f 55 127 128
f 127 125 129
f 128 129 130
f 127 129 128
f 125 124 131
f 124 121 132
f 131 132 133
f 124 132 131
f 130 134 135
f 134 133 136
f 135 136 137
f 134 136 135
f 125 131 129
f 131 133 134
f 129 134 130
f 131 134 129
f 55 128 58
f 128 130 138
f 58 138 59
f 128 138 58
f 130 135 139
f 135 137 140
f 139 140 141
f 135 140 139
f 59 142 61
f 142 141 143
f 61 143 11
f 142 143 61
f 130 139 138
f 139 141 142
f 138 142 59
f 139 142 138
f 11 143 62
f 143 141 144
f 62 144 63
f 143 144 62
f 141 140 145
f 140 137 146
f 145 146 147
f 140 146 145
f 67 148 68
f 149 147 150
f 68 151 70
f 148 151 68
f 141 145 144
f 145 147 149
f 144 149 63
f 145 149 144
f 152 153 154
f 153 155 156
f 154 156 157
f 153 156 154
f 155 158 159
f 158 84 83
f 159 83 80
f 158 83 159
f 157 160 161
f 160 80 79
f 161 79 70
f 160 79 161
f 155 159 156
f 159 80 160
f 156 160 157
f 159 160 156
f 152 162 153
f 162 163 164
f 153 164 155
f 162 164 153
f 163 165 166
f 165 100 99
f 166 99 96
f 165 99 166
f 155 167 158
f 167 96 95
f 158 95 84
f 167 95 158
f 163 166 164
f 166 96 167
f 164 167 155
f 166 167 164
f 152 168 162
f 169 170 171
f 162 172 163
f 168 172 162
f 170 173 174
f 173 121 120
f 174 120 117
f 173 120 174
f 163 175 165
f 175 176 114
f 165 114 100
f 175 114 165
f 170 174 171
f 174 117 177
f 172 175 163
f 178 175 172
f 152 179 168
f 180 181 182
f 169 182 170
f 180 182 169
f 181 183 184
f 183 137 136
f 184 136 133
f 183 136 184
f 170 185 173
f 185 133 132
f 173 132 121
f 185 132 173
f 181 184 182
f 184 133 185
f 182 185 170
f 184 185 182
f 152 154 179
f 154 157 186
f 180 187 181
f 154 186 179
f 157 161 188
f 161 70 151
f 188 151 189
f 161 151 188
f 181 190 183
f 190 147 146
f 183 146 137
f 190 146 183
f 157 188 186
f 191 147 190
f 187 190 181
f 188 192 186
f 6 3 7
f 7 3 5
f 19 10 16
f 16 10 13
f 14 20 19
f 19 20 10
f 7 5 14
f 14 5 20
f 23 21 6
f 6 21 3
f 33 34 23
f 23 34 21
f 36 45 33
f 33 45 34
f 38 41 44
f 44 41 39
f 44 39 36
f 36 39 45
f 65 12 66
f 66 12 64
f 16 13 65
f 65 13 12
f 66 64 67
f 67 64 63
f 105 107 106
f 106 107 42
f 106 42 38
f 38 42 41
f 104 108 105
f 105 108 107
f 113 115 104
f 104 115 108
f 114 116 113
f 113 116 115
f 67 63 148
f 148 63 149
f 148 149 151
f 151 149 150
f 168 169 172
f 172 169 171
f 175 177 176
f 176 177 117
f 176 117 114
f 114 117 116
f 178 174 175
f 175 174 177
f 172 171 178
f 178 171 174
f 179 180 168
f 168 180 169
f 186 187 179
f 179 187 180
f 151 150 189
f 189 150 147
f 189 147 188
f 188 147 191
f 188 191 192
f 192 191 190
f 192 190 186
f 186 190 187
