v -0.373443 1.17823 0.587557
v -0.338573 1.13441 0.583083
v -0.344156 1.1832 0.539876
v -0.315307 1.08498 0.57
v -0.311911 1.13557 0.531445
v -0.326047 1.17884 0.486875
v -0.305414 1.03369 0.549305
v -0.292198 1.0757 0.511364
v -0.309649 0.984465 0.522573
v -0.291507 1.02328 0.486244
v -0.28855 1.06495 0.448678
v -0.326047 1.18358 0.446875
v -0.297845 1.12979 0.427662
v -0.320495 1.17023 0.392589
v -0.28855 1.06969 0.408678
v -0.301004 1.11103 0.372735
v -0.327922 1.1489 0.341152
v -0.297845 1.12505 0.467662
v -0.396396 1.21893 0.556379
v -0.370396 1.22107 0.504436
v -0.42655 1.24759 0.518626
v -0.356329 1.21528 0.400653
v -0.358827 1.19556 0.346032
v -0.399793 1.23231 0.357304
v -0.42655 1.25233 0.478626
v -0.409166 1.25142 0.417345
v -0.461611 1.26676 0.437171
v -0.447703 1.25635 0.37411
v -0.498908 1.26586 0.39517
v -0.370396 1.22581 0.464436
v -0.409166 1.24669 0.457345
v -0.423099 1.19223 0.609786
v -0.450242 1.2302 0.575146
v -0.477924 1.19622 0.621374
v -0.461611 1.26202 0.477171
v -0.489013 1.25582 0.528056
v -0.526646 1.26539 0.44402
v -0.526646 1.26065 0.48402
v -0.551671 1.24495 0.531804
v -0.489013 1.26056 0.488056
v -0.516022 1.22881 0.582074
v -0.533745 1.18989 0.62144
v -0.572077 1.21522 0.574882
v -0.586311 1.17372 0.609977
v -0.387363 1.13999 0.62629
v -0.441106 1.15036 0.645857
v -0.409172 1.09572 0.653126
v -0.506886 1.14897 0.652785
v -0.563044 1.13627 0.644793
v -0.534293 1.09307 0.666303
v -0.470741 1.09613 0.669478
v -0.43721 1.04877 0.666021
v -0.502246 1.0474 0.672871
v -0.469343 1.00274 0.663995
v -0.355613 1.09187 0.618848
v -0.385248 1.03764 0.642468
v -0.41772 0.989575 0.646167
v -0.371675 0.981825 0.614929
v -0.3359 1.032 0.598767
v -0.334714 0.980078 0.572658
v -0.312211 0.963236 0.470623
v -0.312211 0.967975 0.430623
v -0.328382 0.954164 0.378626
v -0.299072 1.00917 0.391781
v -0.291507 1.02802 0.446244
v -0.299072 1.00444 0.431781
v -0.356932 0.948821 0.330539
v -0.32566 0.997787 0.33228
v -0.395688 0.952353 0.290024
v -0.362515 0.99761 0.287332
v -0.339122 1.04803 0.2955
v -0.304719 1.05852 0.34808
v -0.327291 1.09977 0.313907
v -0.363027 1.15201 0.297404
v -0.367452 1.09997 0.271886
v -0.407875 1.14853 0.263749
v -0.388393 1.03924 0.256087
v -0.418955 0.989802 0.255207
v -0.447707 1.03301 0.233697
v -0.424538 1.09207 0.239394
v -0.45905 1.13873 0.24275
v -0.479754 1.07868 0.22713
v -0.512657 1.12334 0.236006
v -0.399348 1.19685 0.304378
v -0.456434 1.18896 0.271886
v -0.51129 1.17446 0.259254
v -0.508378 1.21728 0.2955
v -0.452186 1.233 0.321071
v -0.504143 1.24855 0.341985
v -0.552933 1.25413 0.385192
v -0.55862 1.23075 0.33228
v -0.602243 1.22802 0.378626
v -0.562869 1.1867 0.283096
v -0.56428 1.1365 0.253833
v -0.610325 1.14425 0.285071
v -0.612217 1.19235 0.326797
v -0.643086 1.18954 0.37597
v -0.647286 1.146 0.327342
v -0.67235 1.14161 0.377427
v -0.581381 1.24778 0.435483
v -0.581381 1.24304 0.475483
v -0.634977 1.20938 0.43
v -0.669789 1.16284 0.429377
v -0.634977 1.20465 0.47
v -0.669789 1.1581 0.469377
v -0.653618 1.17191 0.521374
v -0.60839 1.21603 0.529501
v -0.625067 1.17726 0.569461
v -0.619485 1.12847 0.612668
v -0.65634 1.12829 0.56772
v -0.642878 1.07805 0.6045
v -0.682927 1.1169 0.508219
v -0.690493 1.10279 0.413756
v -0.690493 1.09805 0.453756
v -0.69345 1.05639 0.491322
v -0.682927 1.12164 0.468219
v -0.677281 1.06755 0.55192
v -0.654709 1.02631 0.586093
v -0.680996 1.01505 0.527265
v -0.654078 0.977179 0.558848
v -0.593607 1.08684 0.643914
v -0.614548 1.0261 0.628114
v -0.618973 0.974065 0.602597
v -0.574125 0.977543 0.636251
v -0.557462 1.034 0.660606
v -0.52295 0.987349 0.65725
v -0.47071 0.951613 0.640746
v -0.525565 0.93712 0.628114
v -0.473622 0.908791 0.6045
v -0.582652 0.929223 0.595622
v -0.623173 0.93052 0.553968
v -0.582206 0.893769 0.542696
v -0.529814 0.893077 0.57893
v -0.477856 0.87753 0.558015
v -0.534297 0.869722 0.525891
v -0.483092 0.860211 0.50483
v -0.419131 0.939372 0.616904
v -0.42338 0.895329 0.56772
v -0.429067 0.871948 0.514808
v -0.379756 0.898051 0.521374
v -0.369783 0.933725 0.573203
v -0.338914 0.936533 0.52403
v -0.347023 0.916691 0.47
v -0.347023 0.92143 0.43
v -0.400619 0.878295 0.464517
v -0.455353 0.860689 0.45598
v -0.400619 0.883033 0.424517
v -0.455353 0.865428 0.41598
v -0.430329 0.881129 0.368197
v -0.37361 0.910042 0.370499
v -0.409923 0.910859 0.325118
v -0.608557 0.94785 0.312443
v -0.594637 0.986086 0.27371
v -0.558901 0.933846 0.290214
v -0.572828 1.03036 0.246875
v -0.540894 0.975719 0.254143
v -0.504076 0.929857 0.278626
v -0.54479 1.0773 0.233979
v -0.511259 1.02995 0.230523
v -0.475114 0.97711 0.247215
v -0.448255 0.936186 0.278561
v -0.643427 0.991669 0.316917
v -0.666693 1.0411 0.33
v -0.626387 1.0342 0.281152
v -0.676586 1.09238 0.350695
v -0.6461 1.09408 0.301233
v -0.596752 1.08843 0.257532
v -0.637844 0.942879 0.360125
v -0.655953 0.947235 0.413125
v -0.670089 0.990502 0.368555
v -0.655953 0.942497 0.453126
v -0.661505 0.955848 0.507411
v -0.684155 0.996291 0.472338
v -0.689802 1.05038 0.388637
v -0.69345 1.06113 0.451322
v -0.684155 1.00103 0.432338
v -0.585604 0.907143 0.343621
v -0.55545 0.878483 0.381374
v -0.611604 0.905008 0.395564
v -0.55545 0.873744 0.421374
v -0.520389 0.859314 0.462829
v -0.572833 0.874652 0.482655
v -0.625671 0.910797 0.499347
v -0.572833 0.879391 0.442655
v -0.611604 0.90027 0.435565
v -0.531758 0.895872 0.324854
v -0.465977 0.897264 0.317926
v -0.492987 0.870255 0.371944
v -0.520389 0.864052 0.422829
v -0.492987 0.865516 0.411944
f 1 2 3
f 2 4 5
f 3 5 6
f 2 5 3
f 4 7 8
f 7 9 10
f 8 10 11
f 7 10 8
f 12 13 14
f 13 15 16
f 14 16 17
f 13 16 14
f 4 8 5
f 8 11 18
f 5 18 6
f 8 18 5
f 1 3 19
f 3 6 20
f 19 20 21
f 3 20 19
f 12 14 22
f 14 17 23
f 22 23 24
f 14 23 22
f 25 26 27
f 26 24 28
f 27 28 29
f 26 28 27
f 12 22 30
f 22 24 26
f 20 31 21
f 22 26 30
f 1 19 32
f 19 21 33
f 32 33 34
f 19 33 32
f 21 35 36
f 27 29 37
f 36 38 39
f 27 37 40
f 34 41 42
f 41 39 43
f 42 43 44
f 41 43 42
f 21 36 33
f 36 39 41
f 33 41 34
f 36 41 33
f 1 32 45
f 32 34 46
f 45 46 47
f 32 46 45
f 34 42 48
f 42 44 49
f 48 49 50
f 42 49 48
f 47 51 52
f 51 50 53
f 52 53 54
f 51 53 52
f 34 48 46
f 48 50 51
f 46 51 47
f 48 51 46
f 1 45 2
f 45 47 55
f 2 55 4
f 45 55 2
f 47 52 56
f 52 54 57
f 56 57 58
f 52 57 56
f 4 59 7
f 59 58 60
f 7 60 9
f 59 60 7
f 47 56 55
f 56 58 59
f 55 59 4
f 56 59 55
f 9 61 10
f 62 63 64
f 65 64 15
f 61 66 10
f 63 67 68
f 67 69 70
f 68 70 71
f 67 70 68
f 15 72 16
f 72 71 73
f 16 73 17
f 72 73 16
f 63 68 64
f 68 71 72
f 64 72 15
f 68 72 64
f 17 73 74
f 73 71 75
f 74 75 76
f 73 75 74
f 71 70 77
f 70 69 78
f 77 78 79
f 70 78 77
f 76 80 81
f 80 79 82
f 81 82 83
f 80 82 81
f 71 77 75
f 77 79 80
f 75 80 76
f 77 80 75
f 17 74 23
f 74 76 84
f 23 84 24
f 74 84 23
f 76 81 85
f 81 83 86
f 85 86 87
f 81 86 85
f 24 88 28
f 88 87 89
f 28 89 29
f 88 89 28
f 76 85 84
f 85 87 88
f 84 88 24
f 85 88 84
f 29 89 90
f 89 87 91
f 90 91 92
f 89 91 90
f 87 86 93
f 86 83 94
f 93 94 95
f 86 94 93
f 92 96 97
f 96 95 98
f 97 98 99
f 96 98 97
f 87 93 91
f 93 95 96
f 91 96 92
f 93 96 91
f 29 90 37
f 90 92 100
f 38 101 39
f 90 100 37
f 92 97 102
f 97 99 103
f 104 105 106
f 97 103 102
f 39 107 43
f 107 106 108
f 43 108 44
f 107 108 43
f 92 102 100
f 104 106 107
f 101 107 39
f 104 107 101
f 44 108 109
f 108 106 110
f 109 110 111
f 108 110 109
f 106 105 112
f 103 99 113
f 112 114 115
f 103 113 116
f 111 117 118
f 117 115 119
f 118 119 120
f 117 119 118
f 106 112 110
f 112 115 117
f 110 117 111
f 112 117 110
f 44 109 49
f 109 111 121
f 49 121 50
f 109 121 49
f 111 118 122
f 118 120 123
f 122 123 124
f 118 123 122
f 50 125 53
f 125 124 126
f 53 126 54
f 125 126 53
f 111 122 121
f 122 124 125
f 121 125 50
f 122 125 121
f 54 126 127
f 126 124 128
f 127 128 129
f 126 128 127
f 124 123 130
f 123 120 131
f 130 131 132
f 123 131 130
f 129 133 134
f 133 132 135
f 134 135 136
f 133 135 134
f 124 130 128
f 130 132 133
f 128 133 129
f 130 133 128
f 54 127 57
f 127 129 137
f 57 137 58
f 127 137 57
f 129 134 138
f 134 136 139
f 138 139 140
f 134 139 138
f 58 141 60
f 141 140 142
f 60 142 9
f 141 142 60
f 129 138 137
f 138 140 141
f 137 141 58
f 138 141 137
f 9 142 61
f 142 140 143
f 62 144 63
f 142 143 61
f 140 139 145
f 139 136 146
f 147 148 149
f 139 146 145
f 63 150 67
f 150 149 151
f 67 151 69
f 150 151 67
f 140 145 143
f 147 149 150
f 144 150 63
f 147 150 144
f 152 153 154
f 153 155 156
f 154 156 157
f 153 156 154
f 155 158 159
f 158 83 82
f 159 82 79
f 158 82 159
f 157 160 161
f 160 79 78
f 161 78 69
f 160 78 161
f 155 159 156
f 159 79 160
f 156 160 157
f 159 160 156
f 152 162 153
f 162 163 164
f 153 164 155
f 162 164 153
f 163 165 166
f 165 99 98
f 166 98 95
f 165 98 166
f 155 167 158
f 167 95 94
f 158 94 83
f 167 94 158
f 163 166 164
f 166 95 167
f 164 167 155
f 166 167 164
f 152 168 162
f 168 169 170
f 162 170 163
f 168 170 162
f 171 172 173
f 172 120 119
f 173 119 115
f 172 119 173
f 163 174 165
f 174 175 113
f 165 113 99
f 174 113 165
f 169 176 170
f 176 175 174
f 170 174 163
f 176 174 170
f 152 177 168
f 177 178 179
f 168 179 169
f 177 179 168
f 180 181 182
f 181 136 135
f 182 135 132
f 181 135 182
f 171 183 172
f 183 132 131
f 172 131 120
f 183 131 172
f 178 184 179
f 182 132 183
f 185 183 171
f 182 183 185
f 152 154 177
f 154 157 186
f 177 186 178
f 154 186 177
f 157 161 187
f 161 69 151
f 187 151 149
f 161 151 187
f 178 188 189
f 188 149 148
f 181 146 136
f 190 146 181
f 157 187 186
f 187 149 188
f 186 188 178
f 187 188 186
f 12 6 13
f 13 6 18
f 13 18 15
f 15 18 11
f 25 21 26
f 26 21 31
f 27 35 25
f 25 35 21
f 30 20 12
f 12 20 6
f 26 31 30
f 30 31 20
f 37 38 40
f 40 38 36
f 40 36 27
f 27 36 35
f 64 66 62
f 62 66 61
f 65 10 64
f 64 10 66
f 15 11 65
f 65 11 10
f 100 101 37
f 37 101 38
f 103 105 102
f 102 105 104
f 102 104 100
f 100 104 101
f 113 114 116
f 116 114 112
f 116 112 103
f 103 112 105
f 62 61 144
f 144 61 143
f 147 145 148
f 148 145 146
f 144 143 147
f 147 143 145
f 175 115 113
f 113 115 114
f 169 171 176
f 176 171 173
f 176 173 175
f 175 173 115
f 179 185 169
f 169 185 171
f 178 180 184
f 184 180 182
f 184 182 179
f 179 182 185
f 188 190 189
f 189 190 181
f 189 181 178
f 178 181 180
f 148 146 188
f 188 146 190
