v -0.373443 1.18759 0.707557
v -0.338573 1.14377 0.703083
v -0.344156 1.19256 0.659876
v -0.315307 1.09433 0.69
v -0.311911 1.14493 0.651445
v -0.326047 1.1882 0.606875
v -0.305414 1.04305 0.669305
v -0.292198 1.08506 0.631364
v -0.309649 0.993824 0.642573
v -0.291507 1.03264 0.606244
v -0.28855 1.07431 0.568678
v -0.297845 1.13441 0.587662
v -0.320495 1.17485 0.552589
v -0.297845 1.12505 0.467662
v -0.28855 1.06495 0.448678
v -0.301004 1.10629 0.412735
v -0.320495 1.16549 0.432589
v -0.327922 1.14416 0.381152
v -0.396396 1.22829 0.676379
v -0.370396 1.23043 0.624436
v -0.42655 1.25695 0.638626
v -0.326047 1.17884 0.486875
v -0.356329 1.21054 0.440653
v -0.358827 1.19082 0.386032
v -0.399793 1.22757 0.397304
v -0.409166 1.25604 0.577345
v -0.461611 1.27138 0.597171
v -0.409166 1.24669 0.457345
v -0.447703 1.25162 0.41411
v -0.461611 1.26202 0.477171
v -0.498908 1.26113 0.43517
v -0.356329 1.2199 0.560653
v -0.423099 1.20159 0.729786
v -0.450242 1.23956 0.695146
v -0.477924 1.20558 0.741374
v -0.489013 1.26518 0.648056
v -0.498908 1.27049 0.55517
v -0.526646 1.27001 0.60402
v -0.551671 1.25431 0.651804
v -0.516022 1.23817 0.702074
v -0.533745 1.19925 0.74144
v -0.572077 1.22458 0.694882
v -0.586311 1.18308 0.729977
v -0.387363 1.14935 0.74629
v -0.441106 1.15972 0.765857
v -0.409172 1.10507 0.773126
v -0.506886 1.15832 0.772785
v -0.563044 1.14563 0.764793
v -0.534293 1.10243 0.786303
v -0.470741 1.10549 0.789478
v -0.43721 1.05813 0.786021
v -0.502246 1.05676 0.792871
v -0.469343 1.0121 0.783995
v -0.355613 1.10123 0.738848
v -0.385248 1.047 0.762468
v -0.41772 0.998935 0.766167
v -0.371675 0.991185 0.734929
v -0.3359 1.04136 0.718767
v -0.334714 0.989437 0.692658
v -0.312211 0.972596 0.590623
v -0.312211 0.963236 0.470623
v -0.328382 0.949425 0.418626
v -0.299072 1.00444 0.431781
v -0.291507 1.02328 0.486244
v -0.356932 0.944082 0.370539
v -0.32566 0.993048 0.37228
v -0.395688 0.947614 0.330024
v -0.362515 0.992872 0.327332
v -0.339122 1.04329 0.3355
v -0.304719 1.05378 0.38808
v -0.327291 1.09503 0.353907
v -0.363027 1.14727 0.337404
v -0.367452 1.09523 0.311886
v -0.407875 1.14379 0.303749
v -0.388393 1.0345 0.296087
v -0.418955 0.985064 0.295208
v -0.447707 1.02827 0.273697
v -0.424538 1.08734 0.279394
v -0.45905 1.13399 0.28275
v -0.479754 1.07394 0.26713
v -0.512657 1.1186 0.276006
v -0.399348 1.19211 0.344378
v -0.456434 1.18422 0.311886
v -0.51129 1.16972 0.299254
v -0.508378 1.21255 0.3355
v -0.452186 1.22826 0.361071
v -0.504143 1.24381 0.381985
v -0.552933 1.24939 0.425193
v -0.55862 1.22601 0.37228
v -0.602243 1.22329 0.418626
v -0.562869 1.18197 0.323096
v -0.56428 1.13176 0.293833
v -0.610325 1.13951 0.325071
v -0.612217 1.18761 0.366798
v -0.643086 1.1848 0.41597
v -0.647286 1.14126 0.367342
v -0.67235 1.13687 0.417427
v -0.526646 1.26065 0.48402
v -0.581381 1.24304 0.475483
v -0.581381 1.2524 0.595483
v -0.552933 1.25875 0.545192
v -0.634977 1.20465 0.47
v -0.669789 1.1581 0.469377
v -0.634977 1.21401 0.59
v -0.669789 1.16746 0.589377
v -0.653618 1.18127 0.641374
v -0.60839 1.22539 0.649501
v -0.625067 1.18661 0.689461
v -0.619485 1.13782 0.732668
v -0.65634 1.13765 0.68772
v -0.642878 1.08741 0.7245
v -0.682927 1.12626 0.628219
v -0.690493 1.09805 0.453756
v -0.690493 1.10741 0.573756
v -0.69345 1.06575 0.611322
v -0.677281 1.07691 0.67192
v -0.654709 1.03566 0.706093
v -0.680996 1.02441 0.647265
v -0.654078 0.986539 0.678848
v -0.593607 1.0962 0.763914
v -0.614548 1.03546 0.748114
v -0.618973 0.983424 0.722597
v -0.574125 0.986903 0.756251
v -0.557462 1.04336 0.780606
v -0.52295 0.996709 0.77725
v -0.47071 0.960972 0.760746
v -0.525565 0.94648 0.748114
v -0.473622 0.91815 0.7245
v -0.582652 0.938582 0.715622
v -0.623173 0.93988 0.673968
v -0.582206 0.903128 0.662696
v -0.529814 0.902437 0.69893
v -0.477856 0.88689 0.678015
v -0.534297 0.879081 0.645891
v -0.483092 0.86957 0.62483
v -0.419131 0.948731 0.736904
v -0.42338 0.904688 0.68772
v -0.429067 0.881307 0.634808
v -0.379756 0.90741 0.641374
v -0.369783 0.943084 0.693203
v -0.338914 0.945892 0.64403
v -0.347023 0.926051 0.59
v -0.347023 0.916691 0.47
v -0.400619 0.887654 0.584517
v -0.455353 0.870049 0.57598
v -0.400619 0.878295 0.464517
v -0.455353 0.860689 0.45598
v -0.430329 0.876391 0.408197
v -0.429067 0.871948 0.514808
v -0.37361 0.905304 0.410499
v -0.409923 0.90612 0.365118
v -0.608557 0.943112 0.352443
v -0.594637 0.981348 0.31371
v -0.558901 0.929108 0.330214
v -0.572828 1.02562 0.286875
v -0.540894 0.970981 0.294143
v -0.504076 0.925119 0.318626
v -0.54479 1.07256 0.273979
v -0.511259 1.02521 0.270523
v -0.475114 0.972372 0.287215
v -0.448255 0.931448 0.318561
v -0.643427 0.98693 0.356918
v -0.666693 1.03636 0.37
v -0.626387 1.02946 0.321152
v -0.676586 1.08764 0.390695
v -0.6461 1.08934 0.341233
v -0.596752 1.08369 0.297532
v -0.637844 0.938141 0.400125
v -0.655953 0.942497 0.453126
v -0.670089 0.985763 0.408556
v -0.661505 0.955848 0.507411
v -0.684155 0.996291 0.472338
v -0.661505 0.965208 0.627411
v -0.684155 1.00565 0.592338
v -0.689802 1.04564 0.428637
v -0.69345 1.05639 0.491322
v -0.585604 0.902404 0.383621
v -0.55545 0.873744 0.421374
v -0.611604 0.90027 0.435565
v -0.520389 0.859314 0.462829
v -0.572833 0.874652 0.482655
v -0.520389 0.868673 0.582829
v -0.572833 0.884012 0.602655
v -0.655953 0.951856 0.573126
v -0.625671 0.920157 0.619347
v -0.625671 0.910797 0.499347
v -0.531758 0.891134 0.364854
v -0.465977 0.892525 0.357926
v -0.492987 0.865516 0.411944
v -0.483092 0.860211 0.50483
f 1 2 3
f 2 4 5
f 3 5 6
f 2 5 3
f 4 7 8
f 7 9 10
f 8 10 11
f 7 10 8
f 6 12 13
f 14 15 16
f 17 16 18
f 14 16 17
f 4 8 5
f 8 11 12
f 5 12 6
f 8 12 5
f 1 3 19
f 3 6 20
f 19 20 21
f 3 20 19
f 22 17 23
f 17 18 24
f 23 24 25
f 17 24 23
f 21 26 27
f 28 25 29
f 30 29 31
f 28 29 30
f 6 32 20
f 23 25 28
f 20 26 21
f 32 26 20
f 1 19 33
f 19 21 34
f 33 34 35
f 19 34 33
f 21 27 36
f 27 37 38
f 36 38 39
f 27 38 36
f 35 40 41
f 40 39 42
f 41 42 43
f 40 42 41
f 21 36 34
f 36 39 40
f 34 40 35
f 36 40 34
f 1 33 44
f 33 35 45
f 44 45 46
f 33 45 44
f 35 41 47
f 41 43 48
f 47 48 49
f 41 48 47
f 46 50 51
f 50 49 52
f 51 52 53
f 50 52 51
f 35 47 45
f 47 49 50
f 45 50 46
f 47 50 45
f 1 44 2
f 44 46 54
f 2 54 4
f 44 54 2
f 46 51 55
f 51 53 56
f 55 56 57
f 51 56 55
f 4 58 7
f 58 57 59
f 7 59 9
f 58 59 7
f 46 55 54
f 55 57 58
f 54 58 4
f 55 58 54
f 9 60 10
f 61 62 63
f 64 63 15
f 61 63 64
f 62 65 66
f 65 67 68
f 66 68 69
f 65 68 66
f 15 70 16
f 70 69 71
f 16 71 18
f 70 71 16
f 62 66 63
f 66 69 70
f 63 70 15
f 66 70 63
f 18 71 72
f 71 69 73
f 72 73 74
f 71 73 72
f 69 68 75
f 68 67 76
f 75 76 77
f 68 76 75
f 74 78 79
f 78 77 80
f 79 80 81
f 78 80 79
f 69 75 73
f 75 77 78
f 73 78 74
f 75 78 73
f 18 72 24
f 72 74 82
f 24 82 25
f 72 82 24
f 74 79 83
f 79 81 84
f 83 84 85
f 79 84 83
f 25 86 29
f 86 85 87
f 29 87 31
f 86 87 29
f 74 83 82
f 83 85 86
f 82 86 25
f 83 86 82
f 31 87 88
f 87 85 89
f 88 89 90
f 87 89 88
f 85 84 91
f 84 81 92
f 91 92 93
f 84 92 91
f 90 94 95
f 94 93 96
f 95 96 97
f 94 96 95
f 85 91 89
f 91 93 94
f 89 94 90
f 91 94 89
f 31 88 98
f 88 90 99
f 38 100 39
f 101 100 38
f 90 95 102
f 95 97 103
f 104 105 106
f 95 103 102
f 39 107 42
f 107 106 108
f 42 108 43
f 107 108 42
f 90 102 99
f 104 106 107
f 100 107 39
f 104 107 100
f 43 108 109
f 108 106 110
f 109 110 111
f 108 110 109
f 106 105 112
f 103 97 113
f 112 114 115
f 105 114 112
f 111 116 117
f 116 115 118
f 117 118 119
f 116 118 117
f 106 112 110
f 112 115 116
f 110 116 111
f 112 116 110
f 43 109 48
f 109 111 120
f 48 120 49
f 109 120 48
f 111 117 121
f 117 119 122
f 121 122 123
f 117 122 121
f 49 124 52
f 124 123 125
f 52 125 53
f 124 125 52
f 111 121 120
f 121 123 124
f 120 124 49
f 121 124 120
f 53 125 126
f 125 123 127
f 126 127 128
f 125 127 126
f 123 122 129
f 122 119 130
f 129 130 131
f 122 130 129
f 128 132 133
f 132 131 134
f 133 134 135
f 132 134 133
f 123 129 127
f 129 131 132
f 127 132 128
f 129 132 127
f 53 126 56
f 126 128 136
f 56 136 57
f 126 136 56
f 128 133 137
f 133 135 138
f 137 138 139
f 133 138 137
f 57 140 59
f 140 139 141
f 59 141 9
f 140 141 59
f 128 137 136
f 137 139 140
f 136 140 57
f 137 140 136
f 9 141 60
f 141 139 142
f 61 143 62
f 141 142 60
f 139 138 144
f 138 135 145
f 146 147 148
f 149 147 146
f 62 150 65
f 150 148 151
f 65 151 67
f 150 151 65
f 139 144 142
f 146 148 150
f 143 150 62
f 146 150 143
f 152 153 154
f 153 155 156
f 154 156 157
f 153 156 154
f 155 158 159
f 158 81 80
f 159 80 77
f 158 80 159
f 157 160 161
f 160 77 76
f 161 76 67
f 160 76 161
f 155 159 156
f 159 77 160
f 156 160 157
f 159 160 156
f 152 162 153
f 162 163 164
f 153 164 155
f 162 164 153
f 163 165 166
f 165 97 96
f 166 96 93
f 165 96 166
f 155 167 158
f 167 93 92
f 158 92 81
f 167 92 158
f 163 166 164
f 166 93 167
f 164 167 155
f 166 167 164
f 152 168 162
f 168 169 170
f 162 170 163
f 168 170 162
f 169 171 172
f 173 119 118
f 174 118 115
f 173 118 174
f 163 175 165
f 175 176 113
f 165 113 97
f 175 113 165
f 169 172 170
f 172 176 175
f 170 175 163
f 172 175 170
f 152 177 168
f 177 178 179
f 168 179 169
f 177 179 168
f 178 180 181
f 182 135 134
f 183 134 131
f 182 134 183
f 184 185 173
f 185 131 130
f 173 130 119
f 185 130 173
f 178 181 179
f 183 131 185
f 179 186 169
f 181 186 179
f 152 154 177
f 154 157 187
f 177 187 178
f 154 187 177
f 157 161 188
f 161 67 151
f 188 151 148
f 161 151 188
f 178 189 180
f 189 148 147
f 180 147 190
f 189 147 180
f 157 188 187
f 188 148 189
f 187 189 178
f 188 189 187
f 14 12 15
f 15 12 11
f 17 13 14
f 14 13 12
f 22 6 17
f 17 6 13
f 23 32 22
f 22 32 6
f 31 37 30
f 30 37 27
f 30 27 28
f 28 27 26
f 28 26 23
f 23 26 32
f 15 11 64
f 64 11 10
f 64 10 61
f 61 10 60
f 88 101 98
f 98 101 38
f 98 38 31
f 31 38 37
f 99 100 88
f 88 100 101
f 103 105 102
f 102 105 104
f 102 104 99
f 99 104 100
f 113 114 103
f 103 114 105
f 61 60 143
f 143 60 142
f 149 138 147
f 147 138 145
f 146 144 149
f 149 144 138
f 143 142 146
f 146 142 144
f 169 184 171
f 171 184 173
f 171 173 172
f 172 173 174
f 176 115 113
f 113 115 114
f 172 174 176
f 176 174 115
f 180 182 181
f 181 182 183
f 186 185 169
f 169 185 184
f 181 183 186
f 186 183 185
f 147 145 190
f 190 145 135
f 190 135 180
f 180 135 182
