v -0.373443 1.18424 0.747557
v -0.338573 1.14043 0.743083
v -0.344156 1.18922 0.699876
v -0.315307 1.09099 0.73
v -0.311911 1.14159 0.691445
v -0.326047 1.18486 0.646875
v -0.305414 1.03971 0.709305
v -0.292198 1.08172 0.671364
v -0.309649 0.990484 0.682573
v -0.291507 1.0293 0.646244
v -0.28855 1.07097 0.608678
v -0.326047 1.1882 0.606875
v -0.297845 1.13441 0.587662
v -0.320495 1.17485 0.552589
v -0.28855 1.07431 0.568678
v -0.301004 1.11565 0.532735
v -0.327922 1.15352 0.501152
v -0.297845 1.13107 0.627662
v -0.396396 1.22495 0.716379
v -0.370396 1.22709 0.664436
v -0.42655 1.25361 0.678626
v -0.356329 1.2199 0.560653
v -0.358827 1.20018 0.506032
v -0.399793 1.23693 0.517304
v -0.42655 1.25695 0.638626
v -0.409166 1.25604 0.577345
v -0.461611 1.27138 0.597171
v -0.447703 1.26097 0.53411
v -0.498908 1.27049 0.55517
v -0.370396 1.23043 0.624436
v -0.409166 1.2527 0.617345
v -0.423099 1.19825 0.769786
v -0.450242 1.23622 0.735146
v -0.477924 1.20224 0.781374
v -0.461611 1.26804 0.637171
v -0.489013 1.26184 0.688056
v -0.526646 1.27001 0.60402
v -0.526646 1.26667 0.64402
v -0.551671 1.25097 0.691804
v -0.516022 1.23483 0.742074
v -0.533745 1.19591 0.781439
v -0.572077 1.22124 0.734882
v -0.586311 1.17974 0.769976
v -0.387363 1.14601 0.78629
v -0.441106 1.15638 0.805857
v -0.409172 1.10173 0.813125
v -0.506886 1.15498 0.812785
v -0.563044 1.14229 0.804793
v -0.534293 1.09909 0.826303
v -0.470741 1.10215 0.829478
v -0.43721 1.05479 0.826021
v -0.502246 1.05342 0.83287
v -0.469343 1.00876 0.823995
v -0.355613 1.09789 0.778848
v -0.385248 1.04366 0.802468
v -0.41772 0.995594 0.806167
v -0.371675 0.987845 0.774929
v -0.3359 1.03802 0.758767
v -0.334714 0.986097 0.732658
v -0.312211 0.969256 0.630623
v -0.312211 0.972596 0.590623
v -0.328382 0.958785 0.538626
v -0.299072 1.0138 0.551781
v -0.291507 1.03264 0.606244
v -0.299072 1.01045 0.591781
v -0.356932 0.953442 0.490539
v -0.32566 1.00241 0.49228
v -0.395688 0.956973 0.450024
v -0.362515 1.00223 0.447332
v -0.339122 1.05265 0.4555
v -0.304719 1.06314 0.50808
v -0.327291 1.10439 0.473907
v -0.363027 1.15663 0.457404
v -0.367452 1.10459 0.431886
v -0.407875 1.15315 0.423749
v -0.388393 1.04386 0.416087
v -0.418955 0.994423 0.415208
v -0.447707 1.03763 0.393697
v -0.424538 1.0967 0.399394
v -0.45905 1.14335 0.40275
v -0.479754 1.0833 0.38713
v -0.512657 1.12796 0.396006
v -0.399348 1.20147 0.464378
v -0.456434 1.19358 0.431886
v -0.51129 1.17908 0.419254
v -0.508378 1.22191 0.4555
v -0.452186 1.23762 0.481071
v -0.504143 1.25317 0.501985
v -0.552933 1.25875 0.545192
v -0.55862 1.23537 0.49228
v -0.602243 1.23265 0.538626
v -0.562869 1.19133 0.443096
v -0.56428 1.14112 0.413833
v -0.610325 1.14887 0.445071
v -0.612217 1.19697 0.486798
v -0.643086 1.19416 0.53597
v -0.647286 1.15062 0.487342
v -0.67235 1.14623 0.537427
v -0.581381 1.2524 0.595483
v -0.581381 1.24906 0.635483
v -0.634977 1.21401 0.59
v -0.669789 1.16746 0.589377
v -0.634977 1.21067 0.63
v -0.669789 1.16412 0.629377
v -0.653618 1.17793 0.681374
v -0.60839 1.22205 0.689501
v -0.625067 1.18327 0.729461
v -0.619485 1.13448 0.772668
v -0.65634 1.13431 0.72772
v -0.642878 1.08407 0.7645
v -0.682927 1.12292 0.668219
v -0.690493 1.10741 0.573756
v -0.690493 1.10407 0.613756
v -0.69345 1.06241 0.651322
v -0.682927 1.12626 0.628219
v -0.677281 1.07357 0.71192
v -0.654709 1.03232 0.746093
v -0.680996 1.02107 0.687265
v -0.654078 0.983198 0.718848
v -0.593607 1.09286 0.803913
v -0.614548 1.03212 0.788114
v -0.618973 0.980084 0.762596
v -0.574125 0.983562 0.796251
v -0.557462 1.04002 0.820606
v -0.52295 0.993369 0.81725
v -0.47071 0.957632 0.800746
v -0.525565 0.943139 0.788114
v -0.473622 0.91481 0.7645
v -0.582652 0.935242 0.755622
v -0.623173 0.936539 0.713968
v -0.582206 0.899788 0.702696
v -0.529814 0.899096 0.73893
v -0.477856 0.88355 0.718015
v -0.534297 0.875741 0.685891
v -0.483092 0.86623 0.66483
v -0.419131 0.945391 0.776904
v -0.42338 0.901348 0.72772
v -0.429067 0.877967 0.674808
v -0.379756 0.90407 0.681374
v -0.369783 0.939744 0.733203
v -0.338914 0.942552 0.68403
v -0.347023 0.92271 0.63
v -0.347023 0.926051 0.59
v -0.400619 0.884314 0.624517
v -0.455353 0.866708 0.61598
v -0.400619 0.887654 0.584517
v -0.455353 0.870049 0.57598
v -0.430329 0.88575 0.528197
v -0.37361 0.914663 0.530499
v -0.409923 0.915479 0.485118
v -0.608557 0.952471 0.472443
v -0.594637 0.990707 0.43371
v -0.558901 0.938467 0.450214
v -0.572828 1.03498 0.406875
v -0.540894 0.98034 0.414143
v -0.504076 0.934478 0.438626
v -0.54479 1.08192 0.393979
v -0.511259 1.03457 0.390523
v -0.475114 0.981731 0.407215
v -0.448255 0.940807 0.438561
v -0.643427 0.99629 0.476918
v -0.666693 1.04572 0.49
v -0.626387 1.03882 0.441152
v -0.676586 1.097 0.510695
v -0.6461 1.0987 0.461233
v -0.596752 1.09305 0.417532
v -0.637844 0.9475 0.520125
v -0.655953 0.951856 0.573126
v -0.670089 0.995123 0.528556
v -0.655953 0.948516 0.613126
v -0.661505 0.961867 0.667411
v -0.684155 1.00231 0.632338
v -0.689802 1.055 0.548637
v -0.69345 1.06575 0.611322
v -0.684155 1.00565 0.592338
v -0.585604 0.911764 0.503621
v -0.55545 0.883104 0.541374
v -0.611604 0.909629 0.555565
v -0.55545 0.879763 0.581374
v -0.520389 0.865333 0.622829
v -0.572833 0.880671 0.642655
v -0.625671 0.916817 0.659347
v -0.572833 0.884012 0.602655
v -0.611604 0.906289 0.595565
v -0.531758 0.900493 0.484854
v -0.465977 0.901885 0.477926
v -0.492987 0.874875 0.531944
v -0.520389 0.868673 0.582829
f 1 2 3
f 2 4 5
f 3 5 6
f 2 5 3
f 4 7 8
f 7 9 10
f 8 10 11
f 7 10 8
f 12 13 14
f 13 15 16
f 14 16 17
f 13 16 14
f 4 8 5
f 8 11 18
f 5 18 6
f 8 18 5
f 1 3 19
f 3 6 20
f 19 20 21
f 3 20 19
f 12 14 22
f 14 17 23
f 22 23 24
f 14 23 22
f 25 26 27
f 26 24 28
f 27 28 29
f 26 28 27
f 12 22 30
f 22 24 26
f 20 31 21
f 22 26 30
f 1 19 32
f 19 21 33
f 32 33 34
f 19 33 32
f 21 35 36
f 27 29 37
f 36 38 39
f 35 38 36
f 34 40 41
f 40 39 42
f 41 42 43
f 40 42 41
f 21 36 33
f 36 39 40
f 33 40 34
f 36 40 33
f 1 32 44
f 32 34 45
f 44 45 46
f 32 45 44
f 34 41 47
f 41 43 48
f 47 48 49
f 41 48 47
f 46 50 51
f 50 49 52
f 51 52 53
f 50 52 51
f 34 47 45
f 47 49 50
f 45 50 46
f 47 50 45
f 1 44 2
f 44 46 54
f 2 54 4
f 44 54 2
f 46 51 55
f 51 53 56
f 55 56 57
f 51 56 55
f 4 58 7
f 58 57 59
f 7 59 9
f 58 59 7
f 46 55 54
f 55 57 58
f 54 58 4
f 55 58 54
f 9 60 10
f 61 62 63
f 64 63 15
f 60 65 10
f 62 66 67
f 66 68 69
f 67 69 70
f 66 69 67
f 15 71 16
f 71 70 72
f 16 72 17
f 71 72 16
f 62 67 63
f 67 70 71
f 63 71 15
f 67 71 63
f 17 72 73
f 72 70 74
f 73 74 75
f 72 74 73
f 70 69 76
f 69 68 77
f 76 77 78
f 69 77 76
f 75 79 80
f 79 78 81
f 80 81 82
f 79 81 80
f 70 76 74
f 76 78 79
f 74 79 75
f 76 79 74
f 17 73 23
f 73 75 83
f 23 83 24
f 73 83 23
f 75 80 84
f 80 82 85
f 84 85 86
f 80 85 84
f 24 87 28
f 87 86 88
f 28 88 29
f 87 88 28
f 75 84 83
f 84 86 87
f 83 87 24
f 84 87 83
f 29 88 89
f 88 86 90
f 89 90 91
f 88 90 89
f 86 85 92
f 85 82 93
f 92 93 94
f 85 93 92
f 91 95 96
f 95 94 97
f 96 97 98
f 95 97 96
f 86 92 90
f 92 94 95
f 90 95 91
f 92 95 90
f 29 89 37
f 89 91 99
f 38 100 39
f 89 99 37
f 91 96 101
f 96 98 102
f 103 104 105
f 96 102 101
f 39 106 42
f 106 105 107
f 42 107 43
f 106 107 42
f 91 101 99
f 103 105 106
f 100 106 39
f 103 106 100
f 43 107 108
f 107 105 109
f 108 109 110
f 107 109 108
f 105 104 111
f 102 98 112
f 111 113 114
f 102 112 115
f 110 116 117
f 116 114 118
f 117 118 119
f 116 118 117
f 105 111 109
f 111 114 116
f 109 116 110
f 111 116 109
f 43 108 48
f 108 110 120
f 48 120 49
f 108 120 48
f 110 117 121
f 117 119 122
f 121 122 123
f 117 122 121
f 49 124 52
f 124 123 125
f 52 125 53
f 124 125 52
f 110 121 120
f 121 123 124
f 120 124 49
f 121 124 120
f 53 125 126
f 125 123 127
f 126 127 128
f 125 127 126
f 123 122 129
f 122 119 130
f 129 130 131
f 122 130 129
f 128 132 133
f 132 131 134
f 133 134 135
f 132 134 133
f 123 129 127
f 129 131 132
f 127 132 128
f 129 132 127
f 53 126 56
f 126 128 136
f 56 136 57
f 126 136 56
f 128 133 137
f 133 135 138
f 137 138 139
f 133 138 137
f 57 140 59
f 140 139 141
f 59 141 9
f 140 141 59
f 128 137 136
f 137 139 140
f 136 140 57
f 137 140 136
f 9 141 60
f 141 139 142
f 61 143 62
f 141 142 60
f 139 138 144
f 138 135 145
f 146 147 148
f 138 145 144
f 62 149 66
f 149 148 150
f 66 150 68
f 149 150 66
f 139 144 142
f 146 148 149
f 143 149 62
f 146 149 143
f 151 152 153
f 152 154 155
f 153 155 156
f 152 155 153
f 154 157 158
f 157 82 81
f 158 81 78
f 157 81 158
f 156 159 160
f 159 78 77
f 160 77 68
f 159 77 160
f 154 158 155
f 158 78 159
f 155 159 156
f 158 159 155
f 151 161 152
f 161 162 163
f 152 163 154
f 161 163 152
f 162 164 165
f 164 98 97
f 165 97 94
f 164 97 165
f 154 166 157
f 166 94 93
f 157 93 82
f 166 93 157
f 162 165 163
f 165 94 166
f 163 166 154
f 165 166 163
f 151 167 161
f 167 168 169
f 161 169 162
f 167 169 161
f 170 171 172
f 171 119 118
f 172 118 114
f 171 118 172
f 162 173 164
f 173 174 112
f 164 112 98
f 173 112 164
f 168 175 169
f 175 174 173
f 169 173 162
f 175 173 169
f 151 176 167
f 176 177 178
f 167 178 168
f 176 178 167
f 179 180 181
f 180 135 134
f 181 134 131
f 180 134 181
f 170 182 171
f 182 131 130
f 171 130 119
f 182 130 171
f 177 183 178
f 181 131 182
f 184 182 170
f 181 182 184
f 151 153 176
f 153 156 185
f 176 185 177
f 153 185 176
f 156 160 186
f 160 68 150
f 186 150 148
f 160 150 186
f 177 187 188
f 187 148 147
f 180 145 135
f 187 147 188
f 156 186 185
f 186 148 187
f 185 187 177
f 186 187 185
f 12 6 13
f 13 6 18
f 13 18 15
f 15 18 11
f 25 21 26
f 26 21 31
f 27 35 25
f 25 35 21
f 30 20 12
f 12 20 6
f 26 31 30
f 30 31 20
f 37 38 27
f 27 38 35
f 63 65 61
f 61 65 60
f 64 10 63
f 63 10 65
f 15 11 64
f 64 11 10
f 99 100 37
f 37 100 38
f 102 104 101
f 101 104 103
f 101 103 99
f 99 103 100
f 112 113 115
f 115 113 111
f 115 111 102
f 102 111 104
f 61 60 143
f 143 60 142
f 146 144 147
f 147 144 145
f 143 142 146
f 146 142 144
f 174 114 112
f 112 114 113
f 168 170 175
f 175 170 172
f 175 172 174
f 174 172 114
f 178 184 168
f 168 184 170
f 177 179 183
f 183 179 181
f 183 181 178
f 178 181 184
f 188 180 177
f 177 180 179
f 147 145 188
f 188 145 180
