v -0.373443 1.14984 0.867557
v -0.338573 1.10602 0.863083
v -0.344156 1.15481 0.819876
v -0.315307 1.05658 0.85
v -0.311911 1.10718 0.811445
v -0.326047 1.15045 0.766875
v -0.305414 1.0053 0.829305
v -0.292198 1.04731 0.791364
v -0.309649 0.956074 0.802573
v -0.291507 0.994894 0.766244
v -0.28855 1.03656 0.728678
v -0.326047 1.18486 0.646875
v -0.297845 1.13107 0.627662
v -0.320495 1.17151 0.592589
v -0.28855 1.07097 0.608678
v -0.301004 1.11231 0.572735
v -0.327922 1.15018 0.541152
v -0.292198 1.08172 0.671364
v -0.297845 1.09666 0.747662
v -0.396396 1.19054 0.836379
v -0.344156 1.18922 0.699876
v -0.370396 1.22709 0.664436
v -0.370396 1.19268 0.784436
v -0.42655 1.2192 0.798626
v -0.356329 1.21656 0.600653
v -0.358827 1.19684 0.546032
v -0.399793 1.23359 0.557304
v -0.42655 1.25361 0.678626
v -0.409166 1.2527 0.617345
v -0.461611 1.26804 0.637171
v -0.447703 1.25763 0.57411
v -0.498908 1.26715 0.59517
v -0.423099 1.16384 0.889786
v -0.450242 1.20181 0.855146
v -0.477924 1.16783 0.901374
v -0.489013 1.26184 0.688056
v -0.526646 1.26667 0.64402
v -0.551671 1.25097 0.691804
v -0.516022 1.20042 0.862074
v -0.533745 1.1615 0.901439
v -0.551671 1.21656 0.811804
v -0.572077 1.18683 0.854882
v -0.586311 1.14533 0.889977
v -0.489013 1.22743 0.808056
v -0.387363 1.1116 0.90629
v -0.441106 1.12197 0.925857
v -0.409172 1.06733 0.933125
v -0.506886 1.12058 0.932785
v -0.563044 1.10788 0.924793
v -0.534293 1.06468 0.946303
v -0.470741 1.06774 0.949478
v -0.43721 1.02038 0.946021
v -0.502246 1.01901 0.95287
v -0.469343 0.974346 0.943995
v -0.355613 1.06348 0.898848
v -0.385248 1.00925 0.922468
v -0.41772 0.961185 0.926167
v -0.371675 0.953435 0.894929
v -0.3359 1.00361 0.878767
v -0.334714 0.951687 0.852658
v -0.312211 0.934846 0.750623
v -0.312211 0.969256 0.630623
v -0.328382 0.955444 0.578626
v -0.299072 1.01045 0.591781
v -0.291507 1.0293 0.646244
v -0.299072 0.976045 0.711781
v -0.356932 0.950101 0.530539
v -0.32566 0.999068 0.53228
v -0.395688 0.953633 0.490024
v -0.362515 0.998891 0.487332
v -0.339122 1.04931 0.4955
v -0.304719 1.0598 0.54808
v -0.327291 1.10105 0.513907
v -0.363027 1.15329 0.497404
v -0.367452 1.10125 0.471886
v -0.407875 1.14981 0.463749
v -0.388393 1.04052 0.456087
v -0.418955 0.991083 0.455208
v -0.447707 1.03429 0.433697
v -0.424538 1.09336 0.439394
v -0.45905 1.14001 0.44275
v -0.479754 1.07996 0.42713
v -0.512657 1.12462 0.436006
v -0.399348 1.19813 0.504378
v -0.456434 1.19024 0.471886
v -0.51129 1.17574 0.459254
v -0.508378 1.21857 0.4955
v -0.452186 1.23428 0.521071
v -0.504143 1.24983 0.541985
v -0.552933 1.25541 0.585192
v -0.55862 1.23203 0.53228
v -0.602243 1.22931 0.578626
v -0.562869 1.18798 0.483096
v -0.56428 1.13778 0.453833
v -0.610325 1.14553 0.485071
v -0.612217 1.19363 0.526797
v -0.643086 1.19082 0.57597
v -0.647286 1.14728 0.527342
v -0.67235 1.14289 0.577427
v -0.581381 1.24906 0.635483
v -0.634977 1.21067 0.63
v -0.669789 1.16412 0.629377
v -0.653618 1.17793 0.681374
v -0.60839 1.18764 0.809501
v -0.653618 1.14352 0.801374
v -0.625067 1.14886 0.849461
v -0.60839 1.22205 0.689501
v -0.619485 1.10008 0.892668
v -0.65634 1.0999 0.84772
v -0.642878 1.04966 0.8845
v -0.669789 1.12971 0.749377
v -0.682927 1.08851 0.788219
v -0.690493 1.10407 0.613756
v -0.690493 1.06966 0.733756
v -0.69345 1.028 0.771322
v -0.682927 1.12292 0.668219
v -0.677281 1.03916 0.83192
v -0.654709 0.997915 0.866093
v -0.680996 0.986656 0.807265
v -0.654078 0.948789 0.838848
v -0.593607 1.05845 0.923913
v -0.614548 0.997713 0.908114
v -0.618973 0.945675 0.882596
v -0.574125 0.949153 0.916251
v -0.557462 1.00561 0.940606
v -0.52295 0.958959 0.93725
v -0.47071 0.923223 0.920746
v -0.525565 0.90873 0.908114
v -0.473622 0.880401 0.8845
v -0.582652 0.900832 0.875622
v -0.623173 0.90213 0.833968
v -0.582206 0.865378 0.822696
v -0.529814 0.864687 0.85893
v -0.477856 0.84914 0.838015
v -0.534297 0.841332 0.805891
v -0.483092 0.83182 0.78483
v -0.419131 0.910981 0.896904
v -0.42338 0.866938 0.84772
v -0.429067 0.843557 0.794808
v -0.379756 0.86966 0.801374
v -0.369783 0.905335 0.853203
v -0.338914 0.908143 0.80403
v -0.347023 0.888301 0.75
v -0.328382 0.921035 0.698626
v -0.400619 0.849904 0.744517
v -0.455353 0.832299 0.73598
v -0.430329 0.848 0.688197
v -0.37361 0.911323 0.570499
v -0.430329 0.88241 0.568197
v -0.409923 0.912139 0.525118
v -0.37361 0.876913 0.690499
v -0.608557 0.949131 0.512443
v -0.594637 0.987367 0.47371
v -0.558901 0.935127 0.490214
v -0.572828 1.03164 0.446875
v -0.540894 0.977 0.454143
v -0.504076 0.931138 0.478626
v -0.54479 1.07858 0.433979
v -0.511259 1.03123 0.430523
v -0.475114 0.978391 0.447215
v -0.448255 0.937467 0.478561
v -0.643427 0.992949 0.516917
v -0.666693 1.04238 0.53
v -0.626387 1.03548 0.481152
v -0.676586 1.09366 0.550695
v -0.6461 1.09536 0.501233
v -0.596752 1.08971 0.457532
v -0.637844 0.94416 0.560125
v -0.655953 0.948516 0.613126
v -0.670089 0.991782 0.568555
v -0.655953 0.914106 0.733126
v -0.661505 0.927458 0.787411
v -0.684155 0.9679 0.752338
v -0.689802 1.05166 0.588637
v -0.69345 1.06241 0.651322
v -0.684155 1.00231 0.632338
v -0.689802 1.01725 0.708637
v -0.585604 0.908423 0.543621
v -0.55545 0.879763 0.581374
v -0.611604 0.906289 0.595565
v -0.637844 0.90975 0.680125
v -0.611604 0.87188 0.715565
v -0.55545 0.845354 0.701374
v -0.520389 0.830923 0.742829
v -0.572833 0.846262 0.762655
v -0.625671 0.882407 0.779347
v -0.531758 0.897153 0.524854
v -0.465977 0.898544 0.517926
v -0.492987 0.837126 0.691944
v -0.492987 0.871535 0.571944
f 1 2 3
f 2 4 5
f 3 5 6
f 2 5 3
f 4 7 8
f 7 9 10
f 8 10 11
f 7 10 8
f 12 13 14
f 13 15 16
f 14 16 17
f 13 16 14
f 4 8 5
f 18 15 13
f 5 19 6
f 8 19 5
f 1 3 20
f 21 12 22
f 20 23 24
f 3 23 20
f 12 14 25
f 14 17 26
f 25 26 27
f 14 26 25
f 28 29 30
f 29 27 31
f 30 31 32
f 29 31 30
f 12 25 22
f 25 27 29
f 22 29 28
f 25 29 22
f 1 20 33
f 20 24 34
f 33 34 35
f 20 34 33
f 28 30 36
f 30 32 37
f 36 37 38
f 30 37 36
f 35 39 40
f 39 41 42
f 40 42 43
f 39 42 40
f 24 44 34
f 44 41 39
f 34 39 35
f 44 39 34
f 1 33 45
f 33 35 46
f 45 46 47
f 33 46 45
f 35 40 48
f 40 43 49
f 48 49 50
f 40 49 48
f 47 51 52
f 51 50 53
f 52 53 54
f 51 53 52
f 35 48 46
f 48 50 51
f 46 51 47
f 48 51 46
f 1 45 2
f 45 47 55
f 2 55 4
f 45 55 2
f 47 52 56
f 52 54 57
f 56 57 58
f 52 57 56
f 4 59 7
f 59 58 60
f 7 60 9
f 59 60 7
f 47 56 55
f 56 58 59
f 55 59 4
f 56 59 55
f 9 61 10
f 62 63 64
f 65 64 15
f 61 66 10
f 63 67 68
f 67 69 70
f 68 70 71
f 67 70 68
f 15 72 16
f 72 71 73
f 16 73 17
f 72 73 16
f 63 68 64
f 68 71 72
f 64 72 15
f 68 72 64
f 17 73 74
f 73 71 75
f 74 75 76
f 73 75 74
f 71 70 77
f 70 69 78
f 77 78 79
f 70 78 77
f 76 80 81
f 80 79 82
f 81 82 83
f 80 82 81
f 71 77 75
f 77 79 80
f 75 80 76
f 77 80 75
f 17 74 26
f 74 76 84
f 26 84 27
f 74 84 26
f 76 81 85
f 81 83 86
f 85 86 87
f 81 86 85
f 27 88 31
f 88 87 89
f 31 89 32
f 88 89 31
f 76 85 84
f 85 87 88
f 84 88 27
f 85 88 84
f 32 89 90
f 89 87 91
f 90 91 92
f 89 91 90
f 87 86 93
f 86 83 94
f 93 94 95
f 86 94 93
f 92 96 97
f 96 95 98
f 97 98 99
f 96 98 97
f 87 93 91
f 93 95 96
f 91 96 92
f 93 96 91
f 32 90 37
f 90 92 100
f 37 100 38
f 90 100 37
f 92 97 101
f 97 99 102
f 101 102 103
f 97 102 101
f 41 104 42
f 104 105 106
f 42 106 43
f 104 106 42
f 92 101 100
f 101 103 107
f 100 107 38
f 101 107 100
f 43 106 108
f 106 105 109
f 108 109 110
f 106 109 108
f 105 111 112
f 102 99 113
f 112 114 115
f 102 113 116
f 110 117 118
f 117 115 119
f 118 119 120
f 117 119 118
f 105 112 109
f 112 115 117
f 109 117 110
f 112 117 109
f 43 108 49
f 108 110 121
f 49 121 50
f 108 121 49
f 110 118 122
f 118 120 123
f 122 123 124
f 118 123 122
f 50 125 53
f 125 124 126
f 53 126 54
f 125 126 53
f 110 122 121
f 122 124 125
f 121 125 50
f 122 125 121
f 54 126 127
f 126 124 128
f 127 128 129
f 126 128 127
f 124 123 130
f 123 120 131
f 130 131 132
f 123 131 130
f 129 133 134
f 133 132 135
f 134 135 136
f 133 135 134
f 124 130 128
f 130 132 133
f 128 133 129
f 130 133 128
f 54 127 57
f 127 129 137
f 57 137 58
f 127 137 57
f 129 134 138
f 134 136 139
f 138 139 140
f 134 139 138
f 58 141 60
f 141 140 142
f 60 142 9
f 141 142 60
f 129 138 137
f 138 140 141
f 137 141 58
f 138 141 137
f 9 142 61
f 142 140 143
f 61 143 144
f 142 143 61
f 140 139 145
f 139 136 146
f 145 146 147
f 139 146 145
f 63 148 67
f 148 149 150
f 67 150 69
f 148 150 67
f 140 145 143
f 145 147 151
f 143 151 144
f 145 151 143
f 152 153 154
f 153 155 156
f 154 156 157
f 153 156 154
f 155 158 159
f 158 83 82
f 159 82 79
f 158 82 159
f 157 160 161
f 160 79 78
f 161 78 69
f 160 78 161
f 155 159 156
f 159 79 160
f 156 160 157
f 159 160 156
f 152 162 153
f 162 163 164
f 153 164 155
f 162 164 153
f 163 165 166
f 165 99 98
f 166 98 95
f 165 98 166
f 155 167 158
f 167 95 94
f 158 94 83
f 167 94 158
f 163 166 164
f 166 95 167
f 164 167 155
f 166 167 164
f 152 168 162
f 168 169 170
f 162 170 163
f 168 170 162
f 171 172 173
f 172 120 119
f 173 119 115
f 172 119 173
f 163 174 165
f 174 175 113
f 165 113 99
f 174 113 165
f 169 176 170
f 173 115 177
f 170 174 163
f 176 174 170
f 152 178 168
f 178 179 180
f 181 182 171
f 178 180 168
f 183 184 185
f 184 136 135
f 185 135 132
f 184 135 185
f 171 186 172
f 186 132 131
f 172 131 120
f 186 131 172
f 183 185 182
f 185 132 186
f 182 186 171
f 185 186 182
f 152 154 178
f 154 157 187
f 178 187 179
f 154 187 178
f 157 161 188
f 161 69 150
f 188 150 149
f 161 150 188
f 183 189 184
f 189 147 146
f 184 146 136
f 189 146 184
f 157 188 187
f 188 149 190
f 187 190 179
f 188 190 187
f 12 6 13
f 13 6 19
f 18 8 15
f 15 8 11
f 13 19 18
f 18 19 8
f 21 3 12
f 12 3 6
f 22 23 21
f 21 23 3
f 28 24 22
f 22 24 23
f 36 44 28
f 28 44 24
f 38 41 36
f 36 41 44
f 62 61 63
f 63 61 144
f 64 66 62
f 62 66 61
f 65 10 64
f 64 10 66
f 15 11 65
f 65 11 10
f 102 111 103
f 103 111 105
f 103 105 107
f 107 105 104
f 107 104 38
f 38 104 41
f 113 114 116
f 116 114 112
f 116 112 102
f 102 112 111
f 63 144 148
f 148 144 151
f 148 151 149
f 149 151 147
f 168 181 169
f 169 181 171
f 174 177 175
f 175 177 115
f 175 115 113
f 113 115 114
f 169 171 176
f 176 171 173
f 176 173 174
f 174 173 177
f 179 183 180
f 180 183 182
f 180 182 168
f 168 182 181
f 149 147 190
f 190 147 189
f 190 189 179
f 179 189 183
