v -0.373443 1.18857 0.867557
v -0.338573 1.14475 0.863083
v -0.344156 1.19354 0.819876
v -0.315307 1.09532 0.85
v -0.311911 1.14592 0.811445
v -0.326047 1.18918 0.766875
v -0.305414 1.04403 0.829305
v -0.292198 1.08604 0.791364
v -0.305414 1.0053 0.829305
v -0.309649 0.956074 0.802573
v -0.291507 0.994894 0.766244
v -0.292198 1.04731 0.791364
v -0.28855 1.03656 0.728678
v -0.297845 1.13539 0.747662
v -0.320495 1.17583 0.712589
v -0.28855 1.07529 0.728678
v -0.301004 1.11663 0.692735
v -0.327922 1.1545 0.661152
v -0.396396 1.22927 0.836379
v -0.370396 1.23141 0.784436
v -0.42655 1.25793 0.798626
v -0.356329 1.22088 0.720653
v -0.358827 1.20116 0.666032
v -0.399793 1.23791 0.677304
v -0.409166 1.25703 0.737345
v -0.461611 1.27237 0.757171
v -0.447703 1.26196 0.69411
v -0.498908 1.27147 0.71517
v -0.423099 1.20257 0.889786
v -0.450242 1.24055 0.855146
v -0.477924 1.20656 0.901374
v -0.489013 1.26616 0.808056
v -0.526646 1.27099 0.76402
v -0.551671 1.25529 0.811804
v -0.516022 1.23915 0.862074
v -0.533745 1.20023 0.901439
v -0.572077 1.22556 0.854882
v -0.586311 1.18406 0.889977
v -0.387363 1.15033 0.90629
v -0.441106 1.1607 0.925857
v -0.409172 1.10606 0.933125
v -0.506886 1.15931 0.932785
v -0.563044 1.14662 0.924793
v -0.534293 1.10341 0.946303
v -0.470741 1.10647 0.949478
v -0.43721 1.05911 0.946021
v -0.502246 1.05774 0.95287
v -0.43721 1.02038 0.946021
v -0.502246 1.01901 0.95287
v -0.469343 0.974346 0.943995
v -0.355613 1.10221 0.898848
v -0.385248 1.04798 0.922468
v -0.41772 0.961185 0.926167
v -0.385248 1.00925 0.922468
v -0.371675 0.953435 0.894929
v -0.315307 1.05658 0.85
v -0.3359 1.00361 0.878767
v -0.334714 0.951687 0.852658
v -0.3359 1.04234 0.878767
v -0.355613 1.06348 0.898848
v -0.312211 0.934846 0.750623
v -0.328382 0.921035 0.698626
v -0.299072 0.976045 0.711781
v -0.356932 0.915692 0.650539
v -0.32566 0.964658 0.65228
v -0.395688 0.919224 0.610024
v -0.362515 0.964482 0.607332
v -0.339122 1.0149 0.6155
v -0.304719 1.06413 0.66808
v -0.339122 1.05363 0.6155
v -0.327291 1.10537 0.633907
v -0.304719 1.02539 0.66808
v -0.363027 1.15761 0.617404
v -0.367452 1.10558 0.591886
v -0.407875 1.15414 0.583749
v -0.388393 1.00611 0.576087
v -0.418955 0.956673 0.575208
v -0.447707 0.999878 0.553697
v -0.424538 1.09768 0.559394
v -0.45905 1.14433 0.56275
v -0.447707 1.03861 0.553697
v -0.479754 1.08428 0.54713
v -0.512657 1.12894 0.556006
v -0.367452 1.06684 0.591886
v -0.424538 1.05895 0.559394
v -0.388393 1.04484 0.576087
v -0.399348 1.20246 0.624378
v -0.456434 1.19456 0.591886
v -0.51129 1.18007 0.579254
v -0.508378 1.22289 0.6155
v -0.452186 1.2386 0.641071
v -0.504143 1.25415 0.661985
v -0.552933 1.25973 0.705192
v -0.55862 1.23635 0.65228
v -0.602243 1.23363 0.698626
v -0.562869 1.19231 0.603096
v -0.56428 1.1421 0.573833
v -0.610325 1.14985 0.605071
v -0.612217 1.19795 0.646797
v -0.643086 1.19515 0.69597
v -0.647286 1.1516 0.647342
v -0.67235 1.14721 0.697427
v -0.581381 1.25338 0.755483
v -0.634977 1.21499 0.75
v -0.669789 1.16844 0.749377
v -0.653618 1.18225 0.801374
v -0.60839 1.22637 0.809501
v -0.625067 1.1876 0.849461
v -0.619485 1.13881 0.892668
v -0.65634 1.13863 0.84772
v -0.642878 1.08839 0.8845
v -0.682927 1.12724 0.788219
v -0.690493 1.10839 0.733756
v -0.69345 1.06673 0.771322
v -0.642878 1.04966 0.8845
v -0.677281 1.03916 0.83192
v -0.654709 0.997915 0.866093
v -0.69345 1.028 0.771322
v -0.680996 0.986656 0.807265
v -0.654078 0.948789 0.838848
v -0.677281 1.07789 0.83192
v -0.593607 1.09718 0.923913
v -0.614548 0.997713 0.908114
v -0.618973 0.945675 0.882596
v -0.574125 0.949153 0.916251
v -0.534293 1.06468 0.946303
v -0.557462 1.00561 0.940606
v -0.52295 0.958959 0.93725
v -0.614548 1.03644 0.908114
v -0.557462 1.04434 0.940606
v -0.593607 1.05845 0.923913
v -0.47071 0.923223 0.920746
v -0.525565 0.90873 0.908114
v -0.473622 0.880401 0.8845
v -0.582652 0.900832 0.875622
v -0.623173 0.90213 0.833968
v -0.582206 0.865378 0.822696
v -0.529814 0.864687 0.85893
v -0.477856 0.84914 0.838015
v -0.534297 0.841332 0.805891
v -0.483092 0.83182 0.78483
v -0.419131 0.910981 0.896904
v -0.42338 0.866938 0.84772
v -0.429067 0.843557 0.794808
v -0.379756 0.86966 0.801374
v -0.369783 0.905335 0.853203
v -0.338914 0.908143 0.80403
v -0.347023 0.888301 0.75
v -0.400619 0.849904 0.744517
v -0.455353 0.832299 0.73598
v -0.430329 0.848 0.688197
v -0.37361 0.876913 0.690499
v -0.409923 0.87773 0.645118
v -0.608557 0.914721 0.632443
v -0.594637 0.952957 0.59371
v -0.558901 0.900717 0.610214
v -0.572828 0.997232 0.566875
v -0.540894 0.94259 0.574143
v -0.504076 0.896728 0.598626
v -0.54479 1.04417 0.553979
v -0.511259 0.996819 0.550523
v -0.54479 1.08291 0.553979
v -0.479754 1.04555 0.54713
v -0.475114 0.943982 0.567215
v -0.448255 0.903058 0.598561
v -0.643427 0.95854 0.636917
v -0.666693 1.00797 0.65
v -0.626387 1.00107 0.601152
v -0.666693 1.0467 0.65
v -0.676586 1.09799 0.670695
v -0.6461 1.09968 0.621233
v -0.596752 1.0553 0.577532
v -0.596752 1.09404 0.577532
v -0.6461 1.06095 0.621233
v -0.626387 1.03981 0.601152
v -0.637844 0.90975 0.680125
v -0.655953 0.914106 0.733126
v -0.670089 0.957373 0.688555
v -0.661505 0.927458 0.787411
v -0.684155 0.9679 0.752338
v -0.689802 1.01725 0.708637
v -0.676586 1.05925 0.670695
v -0.689802 1.05598 0.708637
v -0.585604 0.874014 0.663621
v -0.55545 0.845354 0.701374
v -0.611604 0.87188 0.715565
v -0.520389 0.830923 0.742829
v -0.572833 0.846262 0.762655
v -0.625671 0.882407 0.779347
v -0.531758 0.862743 0.644854
v -0.465977 0.864135 0.637926
v -0.492987 0.837126 0.691944
f 1 2 3
f 2 4 5
f 3 5 6
f 2 5 3
f 4 7 8
f 9 10 11
f 12 11 13
f 9 11 12
f 6 14 15
f 14 16 17
f 15 17 18
f 14 17 15
f 4 8 5
f 8 16 14
f 5 14 6
f 8 14 5
f 1 3 19
f 3 6 20
f 19 20 21
f 3 20 19
f 6 15 22
f 15 18 23
f 22 23 24
f 15 23 22
f 21 25 26
f 25 24 27
f 26 27 28
f 25 27 26
f 6 22 20
f 22 24 25
f 20 25 21
f 22 25 20
f 1 19 29
f 19 21 30
f 29 30 31
f 19 30 29
f 21 26 32
f 26 28 33
f 32 33 34
f 26 33 32
f 31 35 36
f 35 34 37
f 36 37 38
f 35 37 36
f 21 32 30
f 32 34 35
f 30 35 31
f 32 35 30
f 1 29 39
f 29 31 40
f 39 40 41
f 29 40 39
f 31 36 42
f 36 38 43
f 42 43 44
f 36 43 42
f 41 45 46
f 45 44 47
f 48 49 50
f 45 47 46
f 31 42 40
f 42 44 45
f 40 45 41
f 42 45 40
f 1 39 2
f 39 41 51
f 2 51 4
f 39 51 2
f 41 46 52
f 48 50 53
f 54 53 55
f 48 53 54
f 56 57 9
f 57 55 58
f 9 58 10
f 57 58 9
f 41 52 51
f 54 55 57
f 51 59 4
f 54 57 60
f 10 61 11
f 61 62 63
f 11 63 13
f 61 63 11
f 62 64 65
f 64 66 67
f 65 67 68
f 64 67 65
f 16 69 17
f 69 70 71
f 17 71 18
f 69 71 17
f 62 65 63
f 65 68 72
f 63 72 13
f 65 72 63
f 18 71 73
f 71 70 74
f 73 74 75
f 71 74 73
f 68 67 76
f 67 66 77
f 76 77 78
f 67 77 76
f 75 79 80
f 79 81 82
f 80 82 83
f 79 82 80
f 68 76 84
f 76 78 85
f 74 79 75
f 86 79 74
f 18 73 23
f 73 75 87
f 23 87 24
f 73 87 23
f 75 80 88
f 80 83 89
f 88 89 90
f 80 89 88
f 24 91 27
f 91 90 92
f 27 92 28
f 91 92 27
f 75 88 87
f 88 90 91
f 87 91 24
f 88 91 87
f 28 92 93
f 92 90 94
f 93 94 95
f 92 94 93
f 90 89 96
f 89 83 97
f 96 97 98
f 89 97 96
f 95 99 100
f 99 98 101
f 100 101 102
f 99 101 100
f 90 96 94
f 96 98 99
f 94 99 95
f 96 99 94
f 28 93 33
f 93 95 103
f 33 103 34
f 93 103 33
f 95 100 104
f 100 102 105
f 104 105 106
f 100 105 104
f 34 107 37
f 107 106 108
f 37 108 38
f 107 108 37
f 95 104 103
f 104 106 107
f 103 107 34
f 104 107 103
f 38 108 109
f 108 106 110
f 109 110 111
f 108 110 109
f 106 105 112
f 105 102 113
f 112 113 114
f 105 113 112
f 115 116 117
f 116 118 119
f 117 119 120
f 116 119 117
f 106 112 110
f 112 114 121
f 110 121 111
f 112 121 110
f 38 109 43
f 109 111 122
f 43 122 44
f 109 122 43
f 115 117 123
f 117 120 124
f 123 124 125
f 117 124 123
f 126 127 49
f 127 125 128
f 49 128 50
f 127 128 49
f 111 129 122
f 123 125 127
f 122 130 44
f 123 127 131
f 50 128 132
f 128 125 133
f 132 133 134
f 128 133 132
f 125 124 135
f 124 120 136
f 135 136 137
f 124 136 135
f 134 138 139
f 138 137 140
f 139 140 141
f 138 140 139
f 125 135 133
f 135 137 138
f 133 138 134
f 135 138 133
f 50 132 53
f 132 134 142
f 53 142 55
f 132 142 53
f 134 139 143
f 139 141 144
f 143 144 145
f 139 144 143
f 55 146 58
f 146 145 147
f 58 147 10
f 146 147 58
f 134 143 142
f 143 145 146
f 142 146 55
f 143 146 142
f 10 147 61
f 147 145 148
f 61 148 62
f 147 148 61
f 145 144 149
f 144 141 150
f 149 150 151
f 144 150 149
f 62 152 64
f 152 151 153
f 64 153 66
f 152 153 64
f 145 149 148
f 149 151 152
f 148 152 62
f 149 152 148
f 154 155 156
f 155 157 158
f 156 158 159
f 155 158 156
f 157 160 161
f 162 83 82
f 161 163 78
f 160 163 161
f 159 164 165
f 164 78 77
f 165 77 66
f 164 77 165
f 157 161 158
f 161 78 164
f 158 164 159
f 161 164 158
f 154 166 155
f 166 167 168
f 155 168 157
f 166 168 155
f 169 170 171
f 170 102 101
f 171 101 98
f 170 101 171
f 157 172 160
f 173 98 97
f 162 97 83
f 173 97 162
f 167 174 168
f 171 98 173
f 168 172 157
f 171 173 175
f 154 176 166
f 176 177 178
f 166 178 167
f 176 178 166
f 177 179 180
f 179 120 119
f 180 119 118
f 179 119 180
f 167 181 182
f 183 114 113
f 170 113 102
f 183 113 170
f 177 180 178
f 180 118 181
f 178 181 167
f 180 181 178
f 154 184 176
f 184 185 186
f 176 186 177
f 184 186 176
f 185 187 188
f 187 141 140
f 188 140 137
f 187 140 188
f 177 189 179
f 189 137 136
f 179 136 120
f 189 136 179
f 185 188 186
f 188 137 189
f 186 189 177
f 188 189 186
f 154 156 184
f 156 159 190
f 184 190 185
f 156 190 184
f 159 165 191
f 165 66 153
f 191 153 151
f 165 153 191
f 185 192 187
f 192 151 150
f 187 150 141
f 192 150 187
f 159 191 190
f 191 151 192
f 190 192 185
f 191 192 190
f 13 16 12
f 12 16 8
f 12 8 9
f 9 8 7
f 48 46 49
f 49 46 47
f 54 52 48
f 48 52 46
f 56 4 57
f 57 4 59
f 9 7 56
f 56 7 4
f 57 59 60
f 60 59 51
f 60 51 54
f 54 51 52
f 68 70 72
f 72 70 69
f 72 69 13
f 13 69 16
f 76 86 84
f 84 86 74
f 84 74 68
f 68 74 70
f 78 81 85
f 85 81 79
f 85 79 76
f 76 79 86
f 115 111 116
f 116 111 121
f 116 121 118
f 118 121 114
f 123 129 115
f 115 129 111
f 126 44 127
f 127 44 130
f 49 47 126
f 126 47 44
f 127 130 131
f 131 130 122
f 131 122 123
f 123 122 129
f 163 82 78
f 78 82 81
f 160 162 163
f 163 162 82
f 172 173 160
f 160 173 162
f 167 169 174
f 174 169 171
f 174 171 168
f 168 171 175
f 168 175 172
f 172 175 173
f 181 183 182
f 182 183 170
f 182 170 167
f 167 170 169
f 118 114 181
f 181 114 183
