v -0.373443 1.18857 0.867557
v -0.338573 1.14475 0.863083
v -0.344156 1.19354 0.819876
v -0.315307 1.09532 0.85
v -0.311911 1.14592 0.811445
v -0.326047 1.18918 0.766875
v -0.305414 1.04403 0.829305
v -0.292198 1.08604 0.791364
v -0.309649 0.994806 0.802573
v -0.291507 1.03363 0.766244
v -0.28855 1.07529 0.728678
v -0.297845 1.13539 0.747662
v -0.320495 1.17583 0.712589
v -0.301004 1.11663 0.692735
v -0.327922 1.1545 0.661152
v -0.396396 1.22927 0.836379
v -0.370396 1.23141 0.784436
v -0.42655 1.25793 0.798626
v -0.356329 1.22088 0.720653
v -0.358827 1.20116 0.666032
v -0.399793 1.23791 0.677304
v -0.409166 1.25703 0.737345
v -0.461611 1.27237 0.757171
v -0.447703 1.26196 0.69411
v -0.498908 1.27147 0.71517
v -0.423099 1.20257 0.889786
v -0.450242 1.24055 0.855146
v -0.477924 1.20656 0.901374
v -0.489013 1.26616 0.808056
v -0.581611 1.27237 0.757171
v -0.618908 1.27147 0.71517
v -0.646646 1.27099 0.76402
v -0.609013 1.26616 0.808056
v -0.671671 1.25529 0.811804
v -0.597924 1.20656 0.901374
v -0.636022 1.23915 0.862074
v -0.653745 1.20023 0.901439
v -0.692077 1.22556 0.854882
v -0.706311 1.18406 0.889977
v -0.516022 1.23915 0.862074
v -0.387363 1.15033 0.90629
v -0.441106 1.1607 0.925857
v -0.409172 1.10606 0.933125
v -0.626886 1.15931 0.932785
v -0.683044 1.14662 0.924793
v -0.654293 1.10341 0.946303
v -0.470741 1.10647 0.949478
v -0.43721 1.05911 0.946021
v -0.590741 1.10647 0.949478
v -0.622246 1.05774 0.95287
v -0.502246 1.05774 0.95287
v -0.469343 1.01308 0.943995
v -0.506886 1.15931 0.932785
v -0.355613 1.10221 0.898848
v -0.385248 1.04798 0.922468
v -0.41772 0.999917 0.926167
v -0.371675 0.992167 0.894929
v -0.3359 1.04234 0.878767
v -0.334714 0.990419 0.852658
v -0.312211 0.973578 0.750623
v -0.328382 0.959767 0.698626
v -0.299072 1.01478 0.711781
v -0.356932 0.954424 0.650539
v -0.32566 1.00339 0.65228
v -0.395688 0.957956 0.610024
v -0.362515 1.00321 0.607332
v -0.339122 1.05363 0.6155
v -0.304719 1.06413 0.66808
v -0.327291 1.10537 0.633907
v -0.363027 1.15761 0.617404
v -0.367452 1.10558 0.591886
v -0.407875 1.15414 0.583749
v -0.388393 1.04484 0.576087
v -0.418955 0.995405 0.575208
v -0.447707 1.03861 0.553697
v -0.424538 1.09768 0.559394
v -0.45905 1.14433 0.56275
v -0.479754 1.08428 0.54713
v -0.512657 1.12894 0.556006
v -0.399348 1.20246 0.624378
v -0.456434 1.19456 0.591886
v -0.57905 1.14433 0.56275
v -0.632657 1.12894 0.556006
v -0.63129 1.18007 0.579254
v -0.51129 1.18007 0.579254
v -0.508378 1.22289 0.6155
v -0.452186 1.2386 0.641071
v -0.504143 1.25415 0.661985
v -0.624143 1.25415 0.661985
v -0.672933 1.25973 0.705192
v -0.628378 1.22289 0.6155
v -0.67862 1.23635 0.65228
v -0.722243 1.23363 0.698626
v -0.682869 1.19231 0.603096
v -0.68428 1.1421 0.573833
v -0.730325 1.14985 0.605071
v -0.732217 1.19795 0.646797
v -0.763086 1.19515 0.69597
v -0.767286 1.1516 0.647342
v -0.79235 1.14721 0.697427
v -0.701381 1.25338 0.755483
v -0.754977 1.21499 0.75
v -0.789789 1.16844 0.749377
v -0.773618 1.18225 0.801374
v -0.72839 1.22637 0.809501
v -0.745067 1.1876 0.849461
v -0.739485 1.13881 0.892668
v -0.77634 1.13863 0.84772
v -0.762878 1.08839 0.8845
v -0.802927 1.12724 0.788219
v -0.810493 1.10839 0.733756
v -0.81345 1.06673 0.771322
v -0.797281 1.07789 0.83192
v -0.774709 1.03665 0.866093
v -0.800996 1.02539 0.807265
v -0.774078 0.987521 0.838848
v -0.713607 1.09718 0.923913
v -0.734548 1.03644 0.908114
v -0.738973 0.984406 0.882596
v -0.694125 0.987885 0.916251
v -0.677462 1.04434 0.940606
v -0.64295 0.997691 0.93725
v -0.589343 1.01308 0.943995
v -0.52295 0.997691 0.93725
v -0.47071 0.961954 0.920746
v -0.645565 0.947462 0.908114
v -0.59071 0.961954 0.920746
v -0.593622 0.919132 0.8845
v -0.702652 0.939564 0.875622
v -0.743173 0.940862 0.833968
v -0.702206 0.90411 0.822696
v -0.649814 0.903419 0.85893
v -0.597857 0.887872 0.838015
v -0.654297 0.880063 0.805891
v -0.603092 0.870552 0.78483
v -0.473622 0.919132 0.8845
v -0.419131 0.949713 0.896904
v -0.477856 0.887872 0.838015
v -0.42338 0.90567 0.84772
v -0.483092 0.870552 0.78483
v -0.429067 0.882289 0.794808
v -0.379756 0.908392 0.801374
v -0.369783 0.944067 0.853203
v -0.338914 0.946874 0.80403
v -0.347023 0.927033 0.75
v -0.400619 0.888636 0.744517
v -0.455353 0.871031 0.73598
v -0.430329 0.886732 0.688197
v -0.37361 0.915645 0.690499
v -0.409923 0.916462 0.645118
v -0.728557 0.953453 0.632443
v -0.714637 0.991689 0.59371
v -0.678901 0.939449 0.610214
v -0.692828 1.03596 0.566875
v -0.660894 0.981322 0.574143
v -0.624076 0.93546 0.598626
v -0.66479 1.08291 0.553979
v -0.631259 1.03555 0.550523
v -0.599754 1.08428 0.54713
v -0.511259 1.03555 0.550523
v -0.504076 0.93546 0.598626
v -0.475114 0.982713 0.567215
v -0.448255 0.941789 0.598561
v -0.595114 0.982713 0.567215
v -0.763427 0.997272 0.636917
v -0.786693 1.0467 0.65
v -0.746387 1.03981 0.601152
v -0.796586 1.09799 0.670695
v -0.7661 1.09968 0.621233
v -0.716752 1.09404 0.577532
v -0.757844 0.948482 0.680125
v -0.775953 0.952838 0.733126
v -0.790089 0.996105 0.688555
v -0.781505 0.96619 0.787411
v -0.804155 1.00663 0.752338
v -0.809802 1.05598 0.708637
v -0.705604 0.912746 0.663621
v -0.67545 0.884086 0.701374
v -0.731604 0.910611 0.715565
v -0.640389 0.869655 0.742829
v -0.692833 0.884994 0.762655
v -0.745671 0.921139 0.779347
v -0.651758 0.901475 0.644854
v -0.465977 0.902867 0.637926
v -0.612987 0.875857 0.691944
v -0.492987 0.875857 0.691944
v -0.520389 0.869655 0.742829
v -0.585977 0.902867 0.637926
f 1 2 3
f 2 4 5
f 3 5 6
f 2 5 3
f 4 7 8
f 7 9 10
f 8 10 11
f 7 10 8
f 6 12 13
f 12 11 14
f 13 14 15
f 12 14 13
f 4 8 5
f 8 11 12
f 5 12 6
f 8 12 5
f 1 3 16
f 3 6 17
f 16 17 18
f 3 17 16
f 6 13 19
f 13 15 20
f 19 20 21
f 13 20 19
f 18 22 23
f 22 21 24
f 23 24 25
f 22 24 23
f 6 19 17
f 19 21 22
f 17 22 18
f 19 22 17
f 1 16 26
f 16 18 27
f 26 27 28
f 16 27 26
f 18 23 29
f 30 31 32
f 33 32 34
f 30 32 33
f 35 36 37
f 36 34 38
f 37 38 39
f 36 38 37
f 18 29 27
f 33 34 36
f 27 40 28
f 29 40 27
f 1 26 41
f 26 28 42
f 41 42 43
f 26 42 41
f 35 37 44
f 37 39 45
f 44 45 46
f 37 45 44
f 43 47 48
f 49 46 50
f 48 51 52
f 47 51 48
f 28 53 42
f 44 46 49
f 42 47 43
f 53 47 42
f 1 41 2
f 41 43 54
f 2 54 4
f 41 54 2
f 43 48 55
f 48 52 56
f 55 56 57
f 48 56 55
f 4 58 7
f 58 57 59
f 7 59 9
f 58 59 7
f 43 55 54
f 55 57 58
f 54 58 4
f 55 58 54
f 9 60 10
f 60 61 62
f 10 62 11
f 60 62 10
f 61 63 64
f 63 65 66
f 64 66 67
f 63 66 64
f 11 68 14
f 68 67 69
f 14 69 15
f 68 69 14
f 61 64 62
f 64 67 68
f 62 68 11
f 64 68 62
f 15 69 70
f 69 67 71
f 70 71 72
f 69 71 70
f 67 66 73
f 66 65 74
f 73 74 75
f 66 74 73
f 72 76 77
f 76 75 78
f 77 78 79
f 76 78 77
f 67 73 71
f 73 75 76
f 71 76 72
f 73 76 71
f 15 70 20
f 70 72 80
f 20 80 21
f 70 80 20
f 72 77 81
f 82 83 84
f 81 85 86
f 77 85 81
f 21 87 24
f 87 86 88
f 24 88 25
f 87 88 24
f 72 81 80
f 81 86 87
f 80 87 21
f 81 87 80
f 31 89 90
f 89 91 92
f 90 92 93
f 89 92 90
f 91 84 94
f 84 83 95
f 94 95 96
f 84 95 94
f 93 97 98
f 97 96 99
f 98 99 100
f 97 99 98
f 91 94 92
f 94 96 97
f 92 97 93
f 94 97 92
f 31 90 32
f 90 93 101
f 32 101 34
f 90 101 32
f 93 98 102
f 98 100 103
f 102 103 104
f 98 103 102
f 34 105 38
f 105 104 106
f 38 106 39
f 105 106 38
f 93 102 101
f 102 104 105
f 101 105 34
f 102 105 101
f 39 106 107
f 106 104 108
f 107 108 109
f 106 108 107
f 104 103 110
f 103 100 111
f 110 111 112
f 103 111 110
f 109 113 114
f 113 112 115
f 114 115 116
f 113 115 114
f 104 110 108
f 110 112 113
f 108 113 109
f 110 113 108
f 39 107 45
f 107 109 117
f 45 117 46
f 107 117 45
f 109 114 118
f 114 116 119
f 118 119 120
f 114 119 118
f 46 121 50
f 121 120 122
f 50 122 123
f 121 122 50
f 109 118 117
f 118 120 121
f 117 121 46
f 118 121 117
f 52 124 125
f 122 120 126
f 127 126 128
f 122 126 127
f 120 119 129
f 119 116 130
f 129 130 131
f 119 130 129
f 128 132 133
f 132 131 134
f 133 134 135
f 132 134 133
f 120 129 126
f 129 131 132
f 126 132 128
f 129 132 126
f 52 125 56
f 125 136 137
f 56 137 57
f 125 137 56
f 136 138 139
f 138 140 141
f 139 141 142
f 138 141 139
f 57 143 59
f 143 142 144
f 59 144 9
f 143 144 59
f 136 139 137
f 139 142 143
f 137 143 57
f 139 143 137
f 9 144 60
f 144 142 145
f 60 145 61
f 144 145 60
f 142 141 146
f 141 140 147
f 146 147 148
f 141 147 146
f 61 149 63
f 149 148 150
f 63 150 65
f 149 150 63
f 142 146 145
f 146 148 149
f 145 149 61
f 146 149 145
f 151 152 153
f 152 154 155
f 153 155 156
f 152 155 153
f 154 157 158
f 157 83 159
f 160 78 75
f 157 159 158
f 161 162 163
f 162 75 74
f 163 74 65
f 162 74 163
f 154 158 155
f 160 75 162
f 155 164 156
f 158 164 155
f 151 165 152
f 165 166 167
f 152 167 154
f 165 167 152
f 166 168 169
f 168 100 99
f 169 99 96
f 168 99 169
f 154 170 157
f 170 96 95
f 157 95 83
f 170 95 157
f 166 169 167
f 169 96 170
f 167 170 154
f 169 170 167
f 151 171 165
f 171 172 173
f 165 173 166
f 171 173 165
f 172 174 175
f 174 116 115
f 175 115 112
f 174 115 175
f 166 176 168
f 176 112 111
f 168 111 100
f 176 111 168
f 172 175 173
f 175 112 176
f 173 176 166
f 175 176 173
f 151 177 171
f 177 178 179
f 171 179 172
f 177 179 171
f 178 180 181
f 180 135 134
f 181 134 131
f 180 134 181
f 172 182 174
f 182 131 130
f 174 130 116
f 182 130 174
f 178 181 179
f 181 131 182
f 179 182 172
f 181 182 179
f 151 153 177
f 153 156 183
f 177 183 178
f 153 183 177
f 161 163 184
f 163 65 150
f 184 150 148
f 163 150 184
f 178 185 180
f 186 148 147
f 187 147 140
f 186 147 187
f 156 188 183
f 184 148 186
f 183 185 178
f 188 185 183
f 25 31 23
f 23 31 30
f 23 30 29
f 29 30 33
f 40 36 28
f 28 36 35
f 29 33 40
f 40 33 36
f 51 50 52
f 52 50 123
f 47 49 51
f 51 49 50
f 28 35 53
f 53 35 44
f 53 44 47
f 47 44 49
f 78 159 79
f 79 159 83
f 79 83 77
f 77 83 82
f 85 84 86
f 86 84 91
f 77 82 85
f 85 82 84
f 86 91 88
f 88 91 89
f 88 89 25
f 25 89 31
f 52 123 124
f 124 123 122
f 124 122 125
f 125 122 127
f 125 127 136
f 136 127 128
f 136 128 138
f 138 128 133
f 138 133 140
f 140 133 135
f 160 158 78
f 78 158 159
f 161 156 162
f 162 156 164
f 162 164 160
f 160 164 158
f 184 188 161
f 161 188 156
f 140 135 187
f 187 135 180
f 187 180 186
f 186 180 185
f 186 185 184
f 184 185 188
