v -0.493443 1.18857 0.867557
v -0.458573 1.14475 0.863083
v -0.464156 1.19354 0.819876
v -0.435307 1.09532 0.85
v -0.431911 1.14592 0.811445
v -0.446047 1.18918 0.766875
v -0.425414 1.04403 0.829305
v -0.412198 1.08604 0.791364
v -0.42965 0.994806 0.802573
v -0.411507 1.03363 0.766244
v -0.40855 1.07529 0.728678
v -0.417845 1.13539 0.747662
v -0.440495 1.17583 0.712589
v -0.421004 1.11663 0.692735
v -0.447922 1.1545 0.661152
v -0.516396 1.22927 0.836379
v -0.490396 1.23141 0.784436
v -0.54655 1.25793 0.798626
v -0.476329 1.22088 0.720653
v -0.478827 1.20116 0.666032
v -0.519793 1.23791 0.677304
v -0.529166 1.25703 0.737345
v -0.581611 1.27237 0.757171
v -0.567703 1.26196 0.69411
v -0.618908 1.27147 0.71517
v -0.543099 1.20257 0.889786
v -0.570242 1.24055 0.855146
v -0.597924 1.20656 0.901374
v -0.609013 1.26616 0.808056
v -0.646646 1.27099 0.76402
v -0.671671 1.25529 0.811804
v -0.636022 1.23915 0.862074
v -0.653745 1.20023 0.901439
v -0.692077 1.22556 0.854882
v -0.706311 1.18406 0.889977
v -0.507363 1.15033 0.90629
v -0.561106 1.1607 0.925857
v -0.529172 1.10606 0.933125
v -0.626886 1.15931 0.932785
v -0.683044 1.14662 0.924793
v -0.654293 1.10341 0.946303
v -0.590741 1.10647 0.949478
v -0.55721 1.05911 0.946021
v -0.622246 1.05774 0.95287
v -0.589343 1.01308 0.943995
v -0.475613 1.10221 0.898848
v -0.505248 1.04798 0.922468
v -0.53772 0.999917 0.926167
v -0.491675 0.992167 0.894929
v -0.4559 1.04234 0.878767
v -0.454714 0.990419 0.852658
v -0.432211 0.973578 0.750623
v -0.448382 0.959767 0.698626
v -0.419072 1.01478 0.711781
v -0.476932 0.954424 0.650539
v -0.44566 1.00339 0.65228
v -0.515688 0.957956 0.610024
v -0.482515 1.00321 0.607332
v -0.459122 1.05363 0.6155
v -0.424719 1.06413 0.66808
v -0.447291 1.10537 0.633907
v -0.483027 1.15761 0.617404
v -0.487452 1.10558 0.591886
v -0.527875 1.15414 0.583749
v -0.508393 1.04484 0.576087
v -0.538955 0.995405 0.575208
v -0.567707 1.03861 0.553697
v -0.544538 1.09768 0.559394
v -0.57905 1.14433 0.56275
v -0.599754 1.08428 0.54713
v -0.632657 1.12894 0.556006
v -0.519348 1.20246 0.624378
v -0.576434 1.19456 0.591886
v -0.63129 1.18007 0.579254
v -0.628378 1.22289 0.6155
v -0.572186 1.2386 0.641071
v -0.624143 1.25415 0.661985
v -0.672933 1.25973 0.705192
v -0.67862 1.23635 0.65228
v -0.722243 1.23363 0.698626
v -0.682869 1.19231 0.603096
v -0.68428 1.1421 0.573833
v -0.730325 1.14985 0.605071
v -0.732217 1.19795 0.646797
v -0.763086 1.19515 0.69597
v -0.767286 1.1516 0.647342
v -0.79235 1.14721 0.697427
v -0.701381 1.25338 0.755483
v -0.754977 1.21499 0.75
v -0.789789 1.16844 0.749377
v -0.773618 1.18225 0.801374
v -0.72839 1.22637 0.809501
v -0.745067 1.1876 0.849461
v -0.739485 1.13881 0.892668
v -0.77634 1.13863 0.84772
v -0.762878 1.08839 0.8845
v -0.802927 1.12724 0.788219
v -0.810493 1.10839 0.733756
v -0.81345 1.06673 0.771322
v -0.797281 1.07789 0.83192
v -0.774709 1.03665 0.866093
v -0.800996 1.02539 0.807265
v -0.774078 0.987521 0.838848
v -0.713607 1.09718 0.923913
v -0.734548 1.03644 0.908114
v -0.738973 0.984406 0.882596
v -0.694125 0.987885 0.916251
v -0.677462 1.04434 0.940606
v -0.64295 0.997691 0.93725
v -0.59071 0.961954 0.920746
v -0.645565 0.947462 0.908114
v -0.593622 0.919132 0.8845
v -0.702652 0.939564 0.875622
v -0.743173 0.940862 0.833968
v -0.702206 0.90411 0.822696
v -0.649814 0.903419 0.85893
v -0.597857 0.887872 0.838015
v -0.654297 0.880063 0.805891
v -0.603092 0.870552 0.78483
v -0.539131 0.949713 0.896904
v -0.54338 0.90567 0.84772
v -0.549067 0.882289 0.794808
v -0.499756 0.908392 0.801374
v -0.489783 0.944067 0.853203
v -0.458914 0.946874 0.80403
v -0.467023 0.927033 0.75
v -0.520619 0.888636 0.744517
v -0.575353 0.871031 0.73598
v -0.550329 0.886732 0.688197
v -0.49361 0.915645 0.690499
v -0.529923 0.916462 0.645118
v -0.728557 0.953453 0.632443
v -0.714637 0.991689 0.59371
v -0.678901 0.939449 0.610214
v -0.692828 1.03596 0.566875
v -0.660894 0.981322 0.574143
v -0.624076 0.93546 0.598626
v -0.66479 1.08291 0.553979
v -0.631259 1.03555 0.550523
v -0.595114 0.982713 0.567215
v -0.568255 0.941789 0.598561
v -0.763427 0.997272 0.636917
v -0.786693 1.0467 0.65
v -0.746387 1.03981 0.601152
v -0.796586 1.09799 0.670695
v -0.7661 1.09968 0.621233
v -0.716752 1.09404 0.577532
v -0.757844 0.948482 0.680125
v -0.775953 0.952838 0.733126
v -0.790089 0.996105 0.688555
v -0.781505 0.96619 0.787411
v -0.804155 1.00663 0.752338
v -0.809802 1.05598 0.708637
v -0.705604 0.912746 0.663621
v -0.67545 0.884086 0.701374
v -0.731604 0.910611 0.715565
v -0.640389 0.869655 0.742829
v -0.692833 0.884994 0.762655
v -0.745671 0.921139 0.779347
v -0.651758 0.901475 0.644854
v -0.585977 0.902867 0.637926
v -0.612987 0.875857 0.691944
f 1 2 3
f 2 4 5
f 3 5 6
f 2 5 3
f 4 7 8
f 7 9 10
f 8 10 11
f 7 10 8
f 6 12 13
f 12 11 14
f 13 14 15
f 12 14 13
f 4 8 5
f 8 11 12
f 5 12 6
f 8 12 5
f 1 3 16
f 3 6 17
f 16 17 18
f 3 17 16
f 6 13 19
f 13 15 20
f 19 20 21
f 13 20 19
f 18 22 23
f 22 21 24
f 23 24 25
f 22 24 23
f 6 19 17
f 19 21 22
f 17 22 18
f 19 22 17
f 1 16 26
f 16 18 27
f 26 27 28
f 16 27 26
f 18 23 29
f 23 25 30
f 29 30 31
f 23 30 29
f 28 32 33
f 32 31 34
f 33 34 35
f 32 34 33
f 18 29 27
f 29 31 32
f 27 32 28
f 29 32 27
f 1 26 36
f 26 28 37
f 36 37 38
f 26 37 36
f 28 33 39
f 33 35 40
f 39 40 41
f 33 40 39
f 38 42 43
f 42 41 44
f 43 44 45
f 42 44 43
f 28 39 37
f 39 41 42
f 37 42 38
f 39 42 37
f 1 36 2
f 36 38 46
f 2 46 4
f 36 46 2
f 38 43 47
f 43 45 48
f 47 48 49
f 43 48 47
f 4 50 7
f 50 49 51
f 7 51 9
f 50 51 7
f 38 47 46
f 47 49 50
f 46 50 4
f 47 50 46
f 9 52 10
f 52 53 54
f 10 54 11
f 52 54 10
f 53 55 56
f 55 57 58
f 56 58 59
f 55 58 56
f 11 60 14
f 60 59 61
f 14 61 15
f 60 61 14
f 53 56 54
f 56 59 60
f 54 60 11
f 56 60 54
f 15 61 62
f 61 59 63
f 62 63 64
f 61 63 62
f 59 58 65
f 58 57 66
f 65 66 67
f 58 66 65
f 64 68 69
f 68 67 70
f 69 70 71
f 68 70 69
f 59 65 63
f 65 67 68
f 63 68 64
f 65 68 63
f 15 62 20
f 62 64 72
f 20 72 21
f 62 72 20
f 64 69 73
f 69 71 74
f 73 74 75
f 69 74 73
f 21 76 24
f 76 75 77
f 24 77 25
f 76 77 24
f 64 73 72
f 73 75 76
f 72 76 21
f 73 76 72
f 25 77 78
f 77 75 79
f 78 79 80
f 77 79 78
f 75 74 81
f 74 71 82
f 81 82 83
f 74 82 81
f 80 84 85
f 84 83 86
f 85 86 87
f 84 86 85
f 75 81 79
f 81 83 84
f 79 84 80
f 81 84 79
f 25 78 30
f 78 80 88
f 30 88 31
f 78 88 30
f 80 85 89
f 85 87 90
f 89 90 91
f 85 90 89
f 31 92 34
f 92 91 93
f 34 93 35
f 92 93 34
f 80 89 88
f 89 91 92
f 88 92 31
f 89 92 88
f 35 93 94
f 93 91 95
f 94 95 96
f 93 95 94
f 91 90 97
f 90 87 98
f 97 98 99
f 90 98 97
f 96 100 101
f 100 99 102
f 101 102 103
f 100 102 101
f 91 97 95
f 97 99 100
f 95 100 96
f 97 100 95
f 35 94 40
f 94 96 104
f 40 104 41
f 94 104 40
f 96 101 105
f 101 103 106
f 105 106 107
f 101 106 105
f 41 108 44
f 108 107 109
f 44 109 45
f 108 109 44
f 96 105 104
f 105 107 108
f 104 108 41
f 105 108 104
f 45 109 110
f 109 107 111
f 110 111 112
f 109 111 110
f 107 106 113
f 106 103 114
f 113 114 115
f 106 114 113
f 112 116 117
f 116 115 118
f 117 118 119
f 116 118 117
f 107 113 111
f 113 115 116
f 111 116 112
f 113 116 111
f 45 110 48
f 110 112 120
f 48 120 49
f 110 120 48
f 112 117 121
f 117 119 122
f 121 122 123
f 117 122 121
f 49 124 51
f 124 123 125
f 51 125 9
f 124 125 51
f 112 121 120
f 121 123 124
f 120 124 49
f 121 124 120
f 9 125 52
f 125 123 126
f 52 126 53
f 125 126 52
f 123 122 127
f 122 119 128
f 127 128 129
f 122 128 127
f 53 130 55
f 130 129 131
f 55 131 57
f 130 131 55
f 123 127 126
f 127 129 130
f 126 130 53
f 127 130 126
f 132 133 134
f 133 135 136
f 134 136 137
f 133 136 134
f 135 138 139
f 138 71 70
f 139 70 67
f 138 70 139
f 137 140 141
f 140 67 66
f 141 66 57
f 140 66 141
f 135 139 136
f 139 67 140
f 136 140 137
f 139 140 136
f 132 142 133
f 142 143 144
f 133 144 135
f 142 144 133
f 143 145 146
f 145 87 86
f 146 86 83
f 145 86 146
f 135 147 138
f 147 83 82
f 138 82 71
f 147 82 138
f 143 146 144
f 146 83 147
f 144 147 135
f 146 147 144
f 132 148 142
f 148 149 150
f 142 150 143
f 148 150 142
f 149 151 152
f 151 103 102
f 152 102 99
f 151 102 152
f 143 153 145
f 153 99 98
f 145 98 87
f 153 98 145
f 149 152 150
f 152 99 153
f 150 153 143
f 152 153 150
f 132 154 148
f 154 155 156
f 148 156 149
f 154 156 148
f 155 157 158
f 157 119 118
f 158 118 115
f 157 118 158
f 149 159 151
f 159 115 114
f 151 114 103
f 159 114 151
f 155 158 156
f 158 115 159
f 156 159 149
f 158 159 156
f 132 134 154
f 134 137 160
f 154 160 155
f 134 160 154
f 137 141 161
f 141 57 131
f 161 131 129
f 141 131 161
f 155 162 157
f 162 129 128
f 157 128 119
f 162 128 157
f 137 161 160
f 161 129 162
f 160 162 155
f 161 162 160
