v -0.493443 1.18857 0.867557
v -0.458573 1.14475 0.863083
v -0.464156 1.19354 0.819876
v -0.435307 1.09532 0.85
v -0.431911 1.14592 0.811445
v -0.446047 1.18918 0.766875
v -0.425414 1.04403 0.829305
v -0.412198 1.08604 0.791364
v -0.42965 0.994806 0.802573
v -0.411507 1.03363 0.766244
v -0.40855 1.07529 0.728678
v -0.446047 1.18989 0.686875
v -0.417845 1.1361 0.667662
v -0.440495 1.17654 0.632589
v -0.40855 1.076 0.648678
v -0.421004 1.11734 0.612735
v -0.447922 1.15521 0.581152
v -0.417845 1.13539 0.747662
v -0.516396 1.22927 0.836379
v -0.490396 1.23141 0.784436
v -0.54655 1.25793 0.798626
v -0.476329 1.22159 0.640653
v -0.478827 1.20187 0.586032
v -0.519793 1.23862 0.597304
v -0.529166 1.25703 0.737345
v -0.581611 1.27237 0.757171
v -0.529166 1.25773 0.657345
v -0.567703 1.26266 0.61411
v -0.581611 1.27307 0.677171
v -0.618908 1.27218 0.63517
v -0.476329 1.22088 0.720653
v -0.490396 1.23212 0.704436
v -0.543099 1.20257 0.889786
v -0.570242 1.24055 0.855146
v -0.597924 1.20656 0.901374
v -0.609013 1.26616 0.808056
v -0.646646 1.2717 0.68402
v -0.646646 1.27099 0.76402
v -0.671671 1.25529 0.811804
v -0.636022 1.23915 0.862074
v -0.653745 1.20023 0.901439
v -0.692077 1.22556 0.854882
v -0.706311 1.18406 0.889977
v -0.507363 1.15033 0.90629
v -0.561106 1.1607 0.925857
v -0.529172 1.10606 0.933125
v -0.626886 1.15931 0.932785
v -0.683044 1.14662 0.924793
v -0.654293 1.10341 0.946303
v -0.590741 1.10647 0.949478
v -0.55721 1.05911 0.946021
v -0.622246 1.05774 0.95287
v -0.589343 1.01308 0.943995
v -0.475613 1.10221 0.898848
v -0.505248 1.04798 0.922468
v -0.53772 0.999917 0.926167
v -0.491675 0.992167 0.894929
v -0.4559 1.04234 0.878767
v -0.454714 0.990419 0.852658
v -0.432211 0.973578 0.750623
v -0.432211 0.974285 0.670623
v -0.448382 0.960474 0.618626
v -0.419072 1.01548 0.631781
v -0.411507 1.03433 0.686244
v -0.476932 0.955131 0.570539
v -0.44566 1.0041 0.57228
v -0.515688 0.958663 0.530024
v -0.482515 1.00392 0.527332
v -0.459122 1.05434 0.5355
v -0.424719 1.06483 0.58808
v -0.447291 1.10608 0.553907
v -0.483027 1.15832 0.537404
v -0.487452 1.10628 0.511886
v -0.527875 1.15484 0.503749
v -0.508393 1.04555 0.496087
v -0.538955 0.996112 0.495207
v -0.567707 1.03932 0.473697
v -0.544538 1.09839 0.479394
v -0.57905 1.14504 0.48275
v -0.599754 1.08499 0.46713
v -0.632657 1.12965 0.476006
v -0.519348 1.20316 0.544378
v -0.576434 1.19527 0.511886
v -0.63129 1.18077 0.499254
v -0.628378 1.22359 0.5355
v -0.572186 1.23931 0.561071
v -0.624143 1.25486 0.581985
v -0.672933 1.26044 0.625192
v -0.67862 1.23706 0.57228
v -0.722243 1.23434 0.618626
v -0.682869 1.19301 0.523096
v -0.68428 1.14281 0.493833
v -0.730325 1.15056 0.525071
v -0.732217 1.19866 0.566797
v -0.763086 1.19585 0.61597
v -0.767286 1.15231 0.567342
v -0.79235 1.14792 0.617427
v -0.701381 1.25409 0.675483
v -0.701381 1.25338 0.755483
v -0.754977 1.21569 0.67
v -0.789789 1.16915 0.669377
v -0.754977 1.21499 0.75
v -0.789789 1.16844 0.749377
v -0.773618 1.18225 0.801374
v -0.72839 1.22637 0.809501
v -0.745067 1.1876 0.849461
v -0.739485 1.13881 0.892668
v -0.77634 1.13863 0.84772
v -0.762878 1.08839 0.8845
v -0.802927 1.12724 0.788219
v -0.810493 1.1091 0.653756
v -0.810493 1.10839 0.733756
v -0.81345 1.06673 0.771322
v -0.797281 1.07789 0.83192
v -0.774709 1.03665 0.866093
v -0.800996 1.02539 0.807265
v -0.774078 0.987521 0.838848
v -0.713607 1.09718 0.923913
v -0.734548 1.03644 0.908114
v -0.738973 0.984406 0.882596
v -0.694125 0.987885 0.916251
v -0.677462 1.04434 0.940606
v -0.64295 0.997691 0.93725
v -0.59071 0.961954 0.920746
v -0.645565 0.947462 0.908114
v -0.593622 0.919132 0.8845
v -0.702652 0.939564 0.875622
v -0.743173 0.940862 0.833968
v -0.702206 0.90411 0.822696
v -0.649814 0.903419 0.85893
v -0.597857 0.887872 0.838015
v -0.654297 0.880063 0.805891
v -0.603092 0.870552 0.78483
v -0.539131 0.949713 0.896904
v -0.54338 0.90567 0.84772
v -0.549067 0.882289 0.794808
v -0.499756 0.908392 0.801374
v -0.489783 0.944067 0.853203
v -0.458914 0.946874 0.80403
v -0.467023 0.927033 0.75
v -0.467023 0.92774 0.67
v -0.520619 0.888636 0.744517
v -0.575353 0.871031 0.73598
v -0.520619 0.889343 0.664517
v -0.575353 0.871738 0.65598
v -0.550329 0.887439 0.608197
v -0.49361 0.916352 0.610499
v -0.529923 0.917169 0.565118
v -0.728557 0.95416 0.552443
v -0.714637 0.992396 0.51371
v -0.678901 0.940156 0.530214
v -0.692828 1.03667 0.486875
v -0.660894 0.982029 0.494143
v -0.624076 0.936167 0.518626
v -0.66479 1.08361 0.473979
v -0.631259 1.03626 0.470523
v -0.595114 0.983421 0.487215
v -0.568255 0.942497 0.518561
v -0.763427 0.997979 0.556917
v -0.786693 1.04741 0.57
v -0.746387 1.04051 0.521152
v -0.796586 1.09869 0.590695
v -0.7661 1.10039 0.541233
v -0.716752 1.09474 0.497532
v -0.757844 0.949189 0.600125
v -0.775953 0.953545 0.653125
v -0.790089 0.996812 0.608555
v -0.775953 0.952838 0.733126
v -0.781505 0.96619 0.787411
v -0.804155 1.00663 0.752338
v -0.809802 1.05669 0.628637
v -0.81345 1.06744 0.691322
v -0.804155 1.00734 0.672338
v -0.705604 0.913453 0.583621
v -0.67545 0.884793 0.621374
v -0.731604 0.911318 0.635565
v -0.640389 0.870362 0.662829
v -0.692833 0.885701 0.682655
v -0.640389 0.869655 0.742829
v -0.692833 0.884994 0.762655
v -0.745671 0.921139 0.779347
v -0.745671 0.921846 0.699347
v -0.731604 0.910611 0.715565
v -0.651758 0.902182 0.564854
v -0.585977 0.903574 0.557926
v -0.612987 0.876565 0.611944
f 1 2 3
f 2 4 5
f 3 5 6
f 2 5 3
f 4 7 8
f 7 9 10
f 8 10 11
f 7 10 8
f 12 13 14
f 13 15 16
f 14 16 17
f 13 16 14
f 4 8 5
f 8 11 18
f 5 18 6
f 8 18 5
f 1 3 19
f 3 6 20
f 19 20 21
f 3 20 19
f 12 14 22
f 14 17 23
f 22 23 24
f 14 23 22
f 21 25 26
f 27 24 28
f 29 28 30
f 27 28 29
f 6 31 20
f 22 24 27
f 20 25 21
f 22 27 32
f 1 19 33
f 19 21 34
f 33 34 35
f 19 34 33
f 21 26 36
f 29 30 37
f 36 38 39
f 26 38 36
f 35 40 41
f 40 39 42
f 41 42 43
f 40 42 41
f 21 36 34
f 36 39 40
f 34 40 35
f 36 40 34
f 1 33 44
f 33 35 45
f 44 45 46
f 33 45 44
f 35 41 47
f 41 43 48
f 47 48 49
f 41 48 47
f 46 50 51
f 50 49 52
f 51 52 53
f 50 52 51
f 35 47 45
f 47 49 50
f 45 50 46
f 47 50 45
f 1 44 2
f 44 46 54
f 2 54 4
f 44 54 2
f 46 51 55
f 51 53 56
f 55 56 57
f 51 56 55
f 4 58 7
f 58 57 59
f 7 59 9
f 58 59 7
f 46 55 54
f 55 57 58
f 54 58 4
f 55 58 54
f 9 60 10
f 61 62 63
f 64 63 15
f 61 63 64
f 62 65 66
f 65 67 68
f 66 68 69
f 65 68 66
f 15 70 16
f 70 69 71
f 16 71 17
f 70 71 16
f 62 66 63
f 66 69 70
f 63 70 15
f 66 70 63
f 17 71 72
f 71 69 73
f 72 73 74
f 71 73 72
f 69 68 75
f 68 67 76
f 75 76 77
f 68 76 75
f 74 78 79
f 78 77 80
f 79 80 81
f 78 80 79
f 69 75 73
f 75 77 78
f 73 78 74
f 75 78 73
f 17 72 23
f 72 74 82
f 23 82 24
f 72 82 23
f 74 79 83
f 79 81 84
f 83 84 85
f 79 84 83
f 24 86 28
f 86 85 87
f 28 87 30
f 86 87 28
f 74 83 82
f 83 85 86
f 82 86 24
f 83 86 82
f 30 87 88
f 87 85 89
f 88 89 90
f 87 89 88
f 85 84 91
f 84 81 92
f 91 92 93
f 84 92 91
f 90 94 95
f 94 93 96
f 95 96 97
f 94 96 95
f 85 91 89
f 91 93 94
f 89 94 90
f 91 94 89
f 30 88 37
f 88 90 98
f 38 99 39
f 88 98 37
f 90 95 100
f 95 97 101
f 102 103 104
f 95 101 100
f 39 105 42
f 105 104 106
f 42 106 43
f 105 106 42
f 90 100 98
f 102 104 105
f 99 105 39
f 102 105 99
f 43 106 107
f 106 104 108
f 107 108 109
f 106 108 107
f 104 103 110
f 101 97 111
f 110 112 113
f 103 112 110
f 109 114 115
f 114 113 116
f 115 116 117
f 114 116 115
f 104 110 108
f 110 113 114
f 108 114 109
f 110 114 108
f 43 107 48
f 107 109 118
f 48 118 49
f 107 118 48
f 109 115 119
f 115 117 120
f 119 120 121
f 115 120 119
f 49 122 52
f 122 121 123
f 52 123 53
f 122 123 52
f 109 119 118
f 119 121 122
f 118 122 49
f 119 122 118
f 53 123 124
f 123 121 125
f 124 125 126
f 123 125 124
f 121 120 127
f 120 117 128
f 127 128 129
f 120 128 127
f 126 130 131
f 130 129 132
f 131 132 133
f 130 132 131
f 121 127 125
f 127 129 130
f 125 130 126
f 127 130 125
f 53 124 56
f 124 126 134
f 56 134 57
f 124 134 56
f 126 131 135
f 131 133 136
f 135 136 137
f 131 136 135
f 57 138 59
f 138 137 139
f 59 139 9
f 138 139 59
f 126 135 134
f 135 137 138
f 134 138 57
f 135 138 134
f 9 139 60
f 139 137 140
f 61 141 62
f 139 140 60
f 137 136 142
f 136 133 143
f 144 145 146
f 136 143 142
f 62 147 65
f 147 146 148
f 65 148 67
f 147 148 65
f 137 142 140
f 144 146 147
f 141 147 62
f 144 147 141
f 149 150 151
f 150 152 153
f 151 153 154
f 150 153 151
f 152 155 156
f 155 81 80
f 156 80 77
f 155 80 156
f 154 157 158
f 157 77 76
f 158 76 67
f 157 76 158
f 152 156 153
f 156 77 157
f 153 157 154
f 156 157 153
f 149 159 150
f 159 160 161
f 150 161 152
f 159 161 150
f 160 162 163
f 162 97 96
f 163 96 93
f 162 96 163
f 152 164 155
f 164 93 92
f 155 92 81
f 164 92 155
f 160 163 161
f 163 93 164
f 161 164 152
f 163 164 161
f 149 165 159
f 165 166 167
f 159 167 160
f 165 167 159
f 168 169 170
f 169 117 116
f 170 116 113
f 169 116 170
f 160 171 162
f 171 172 111
f 162 111 97
f 171 111 162
f 166 173 167
f 173 172 171
f 167 171 160
f 173 171 167
f 149 174 165
f 174 175 176
f 165 176 166
f 174 176 165
f 175 177 178
f 179 133 132
f 180 132 129
f 179 132 180
f 168 181 169
f 181 129 128
f 169 128 117
f 181 128 169
f 175 178 176
f 180 129 181
f 176 182 166
f 180 181 183
f 149 151 174
f 151 154 184
f 174 184 175
f 151 184 174
f 154 158 185
f 158 67 148
f 185 148 146
f 158 148 185
f 175 186 177
f 186 146 145
f 179 143 133
f 186 145 177
f 154 185 184
f 185 146 186
f 184 186 175
f 185 186 184
f 10 64 11
f 11 64 15
f 11 15 18
f 18 15 13
f 18 13 6
f 6 13 12
f 25 27 26
f 26 27 29
f 6 12 31
f 31 12 22
f 31 22 20
f 20 22 32
f 20 32 25
f 25 32 27
f 26 29 38
f 38 29 37
f 60 61 10
f 10 61 64
f 38 37 99
f 99 37 98
f 102 100 103
f 103 100 101
f 99 98 102
f 102 98 100
f 112 111 113
f 113 111 172
f 103 101 112
f 112 101 111
f 140 141 60
f 60 141 61
f 143 145 142
f 142 145 144
f 142 144 140
f 140 144 141
f 170 173 168
f 168 173 166
f 113 172 170
f 170 172 173
f 180 178 179
f 179 178 177
f 168 166 181
f 181 166 182
f 181 182 183
f 183 182 176
f 183 176 180
f 180 176 178
f 179 177 143
f 143 177 145
