v 0.706557 1.13504 0.867557
v 0.741427 1.09122 0.863083
v 0.735844 1.14001 0.819876
v 0.764694 1.04179 0.85
v 0.768089 1.09239 0.811445
v 0.753953 1.13565 0.766875
v 0.774586 0.990505 0.829305
v 0.787802 1.03251 0.791364
v 0.774586 0.961799 0.829305
v 0.770351 0.912571 0.802573
v 0.788493 0.951391 0.766244
v 0.787802 1.0038 0.791364
v 0.79145 0.993057 0.728678
v 0.782156 1.08186 0.747662
v 0.759506 1.1223 0.712589
v 0.79145 1.02176 0.728678
v 0.778996 1.0631 0.692735
v 0.752078 1.10097 0.661152
v 0.683604 1.17574 0.836379
v 0.709605 1.17788 0.784436
v 0.65345 1.2044 0.798626
v 0.723671 1.16735 0.720653
v 0.721173 1.14763 0.666032
v 0.680207 1.18438 0.677304
v 0.670834 1.2035 0.737345
v 0.61839 1.21884 0.757171
v 0.632297 1.20843 0.69411
v 0.581092 1.21794 0.71517
v 0.656901 1.14904 0.889786
v 0.629758 1.18702 0.855146
v 0.602076 1.15303 0.901374
v 0.590987 1.21263 0.808056
v 0.553354 1.21746 0.76402
v 0.528329 1.20176 0.811804
v 0.563978 1.18562 0.862074
v 0.546255 1.1467 0.901439
v 0.507923 1.17203 0.854882
v 0.493689 1.13053 0.889977
v 0.692637 1.0968 0.90629
v 0.638894 1.10717 0.925857
v 0.670828 1.05253 0.933125
v 0.573114 1.10578 0.932785
v 0.516956 1.09309 0.924793
v 0.545707 1.04988 0.946303
v 0.609259 1.05294 0.949478
v 0.64279 1.00558 0.946021
v 0.577754 1.00421 0.95287
v 0.64279 0.976879 0.946021
v 0.577754 0.975504 0.95287
v 0.610657 0.930843 0.943995
v 0.724387 1.04868 0.898848
v 0.694752 0.994455 0.922468
v 0.66228 0.917681 0.926167
v 0.694752 0.96575 0.922468
v 0.708325 0.909932 0.894929
v 0.764694 1.01308 0.85
v 0.7441 0.960103 0.878767
v 0.745286 0.908184 0.852658
v 0.7441 0.988809 0.878767
v 0.724387 1.01998 0.898848
v 0.767789 0.891343 0.750623
v 0.751618 0.877531 0.698626
v 0.780928 0.932542 0.711781
v 0.723068 0.872188 0.650539
v 0.75434 0.921155 0.65228
v 0.684312 0.87572 0.610024
v 0.717485 0.920978 0.607332
v 0.740878 0.971397 0.6155
v 0.775281 1.0106 0.66808
v 0.740878 1.0001 0.6155
v 0.752709 1.05184 0.633907
v 0.775281 0.98189 0.66808
v 0.716973 1.10408 0.617404
v 0.712549 1.05205 0.591886
v 0.672126 1.10061 0.583749
v 0.691608 0.962605 0.576087
v 0.661045 0.91317 0.575208
v 0.632293 0.956375 0.553697
v 0.655462 1.04415 0.559394
v 0.620951 1.0908 0.56275
v 0.632293 0.98508 0.553697
v 0.600246 1.03075 0.54713
v 0.567343 1.07541 0.556006
v 0.712549 1.02334 0.591886
v 0.655462 1.01544 0.559394
v 0.691608 0.99131 0.576087
v 0.680652 1.14893 0.624378
v 0.623566 1.14103 0.591886
v 0.568711 1.12654 0.579254
v 0.571622 1.16936 0.6155
v 0.627814 1.18507 0.641071
v 0.575857 1.20062 0.661985
v 0.527067 1.2062 0.705192
v 0.52138 1.18282 0.65228
v 0.477757 1.1801 0.698626
v 0.517131 1.13878 0.603096
v 0.51572 1.08857 0.573833
v 0.469675 1.09632 0.605071
v 0.467783 1.14442 0.646797
v 0.436915 1.14162 0.69597
v 0.432714 1.09807 0.647342
v 0.40765 1.09368 0.697427
v 0.498619 1.19985 0.755483
v 0.445023 1.16146 0.75
v 0.410211 1.11491 0.749377
v 0.426382 1.12872 0.801374
v 0.47161 1.17285 0.809501
v 0.454933 1.13407 0.849461
v 0.460515 1.08528 0.892668
v 0.42366 1.0851 0.84772
v 0.437123 1.03486 0.8845
v 0.397073 1.07371 0.788219
v 0.389507 1.05486 0.733756
v 0.38655 1.0132 0.771322
v 0.437123 1.00615 0.8845
v 0.402719 0.99566 0.83192
v 0.425291 0.954411 0.866093
v 0.38655 0.984493 0.771322
v 0.399005 0.943153 0.807265
v 0.425922 0.905285 0.838848
v 0.402719 1.02437 0.83192
v 0.486393 1.04365 0.923913
v 0.465452 0.954209 0.908114
v 0.461028 0.902171 0.882596
v 0.505875 0.905649 0.916251
v 0.545707 1.02118 0.946303
v 0.522538 0.962107 0.940606
v 0.55705 0.915456 0.93725
v 0.465452 0.982915 0.908114
v 0.522538 0.990812 0.940606
v 0.486393 1.01494 0.923913
v 0.60929 0.879719 0.920746
v 0.554435 0.865226 0.908114
v 0.606378 0.836897 0.8845
v 0.497348 0.857329 0.875622
v 0.456827 0.858626 0.833968
v 0.497794 0.821875 0.822696
v 0.550186 0.821184 0.85893
v 0.602144 0.805637 0.838015
v 0.545703 0.797828 0.805891
v 0.596909 0.788317 0.78483
v 0.660869 0.867478 0.896904
v 0.656621 0.823435 0.84772
v 0.650933 0.800054 0.794808
v 0.700244 0.826157 0.801374
v 0.710217 0.861831 0.853203
v 0.741086 0.864639 0.80403
v 0.732978 0.844797 0.75
v 0.679381 0.806401 0.744517
v 0.624647 0.788795 0.73598
v 0.649671 0.804497 0.688197
v 0.70639 0.83341 0.690499
v 0.670077 0.834226 0.645118
v 0.471443 0.871218 0.632443
v 0.485363 0.909454 0.59371
v 0.521099 0.857214 0.610214
v 0.507172 0.953728 0.566875
v 0.539106 0.899087 0.574143
v 0.575925 0.853225 0.598626
v 0.53521 1.00067 0.553979
v 0.568741 0.953316 0.550523
v 0.53521 1.02938 0.553979
v 0.600246 1.00205 0.54713
v 0.604886 0.900478 0.567215
v 0.631745 0.859554 0.598561
v 0.436573 0.915036 0.636917
v 0.413307 0.964468 0.65
v 0.453613 0.957571 0.601152
v 0.413307 0.993174 0.65
v 0.403415 1.04446 0.670695
v 0.4339 1.04615 0.621233
v 0.483248 1.0118 0.577532
v 0.483248 1.04051 0.577532
v 0.4339 1.01745 0.621233
v 0.453613 0.986276 0.601152
v 0.442156 0.866247 0.680125
v 0.424047 0.870603 0.733126
v 0.409912 0.913869 0.688555
v 0.418495 0.883954 0.787411
v 0.395845 0.924397 0.752338
v 0.390198 0.973745 0.708637
v 0.403415 1.01575 0.670695
v 0.390198 1.00245 0.708637
v 0.494396 0.83051 0.663621
v 0.52455 0.80185 0.701374
v 0.468396 0.828376 0.715565
v 0.559611 0.78742 0.742829
v 0.507167 0.802758 0.762655
v 0.454329 0.838904 0.779347
v 0.548243 0.81924 0.644854
v 0.614023 0.820631 0.637926
v 0.587014 0.793622 0.691944
f 1 2 3
f 2 4 5
f 3 5 6
f 2 5 3
f 4 7 8
f 9 10 11
f 12 11 13
f 9 11 12
f 6 14 15
f 14 16 17
f 15 17 18
f 14 17 15
f 4 8 5
f 8 16 14
f 5 14 6
f 8 14 5
f 1 3 19
f 3 6 20
f 19 20 21
f 3 20 19
f 6 15 22
f 15 18 23
f 22 23 24
f 15 23 22
f 21 25 26
f 25 24 27
f 26 27 28
f 25 27 26
f 6 22 20
f 22 24 25
f 20 25 21
f 22 25 20
f 1 19 29
f 19 21 30
f 29 30 31
f 19 30 29
f 21 26 32
f 26 28 33
f 32 33 34
f 26 33 32
f 31 35 36
f 35 34 37
f 36 37 38
f 35 37 36
f 21 32 30
f 32 34 35
f 30 35 31
f 32 35 30
f 1 29 39
f 29 31 40
f 39 40 41
f 29 40 39
f 31 36 42
f 36 38 43
f 42 43 44
f 36 43 42
f 41 45 46
f 45 44 47
f 48 49 50
f 45 47 46
f 31 42 40
f 42 44 45
f 40 45 41
f 42 45 40
f 1 39 2
f 39 41 51
f 2 51 4
f 39 51 2
f 41 46 52
f 48 50 53
f 54 53 55
f 48 53 54
f 56 57 9
f 57 55 58
f 9 58 10
f 57 58 9
f 41 52 51
f 54 55 57
f 51 59 4
f 54 57 60
f 10 61 11
f 61 62 63
f 11 63 13
f 61 63 11
f 62 64 65
f 64 66 67
f 65 67 68
f 64 67 65
f 16 69 17
f 69 70 71
f 17 71 18
f 69 71 17
f 62 65 63
f 65 68 72
f 63 72 13
f 65 72 63
f 18 71 73
f 71 70 74
f 73 74 75
f 71 74 73
f 68 67 76
f 67 66 77
f 76 77 78
f 67 77 76
f 75 79 80
f 79 81 82
f 80 82 83
f 79 82 80
f 68 76 84
f 76 78 85
f 74 79 75
f 86 79 74
f 18 73 23
f 73 75 87
f 23 87 24
f 73 87 23
f 75 80 88
f 80 83 89
f 88 89 90
f 80 89 88
f 24 91 27
f 91 90 92
f 27 92 28
f 91 92 27
f 75 88 87
f 88 90 91
f 87 91 24
f 88 91 87
f 28 92 93
f 92 90 94
f 93 94 95
f 92 94 93
f 90 89 96
f 89 83 97
f 96 97 98
f 89 97 96
f 95 99 100
f 99 98 101
f 100 101 102
f 99 101 100
f 90 96 94
f 96 98 99
f 94 99 95
f 96 99 94
f 28 93 33
f 93 95 103
f 33 103 34
f 93 103 33
f 95 100 104
f 100 102 105
f 104 105 106
f 100 105 104
f 34 107 37
f 107 106 108
f 37 108 38
f 107 108 37
f 95 104 103
f 104 106 107
f 103 107 34
f 104 107 103
f 38 108 109
f 108 106 110
f 109 110 111
f 108 110 109
f 106 105 112
f 105 102 113
f 112 113 114
f 105 113 112
f 115 116 117
f 116 118 119
f 117 119 120
f 116 119 117
f 106 112 110
f 112 114 121
f 110 121 111
f 112 121 110
f 38 109 43
f 109 111 122
f 43 122 44
f 109 122 43
f 115 117 123
f 117 120 124
f 123 124 125
f 117 124 123
f 126 127 49
f 127 125 128
f 49 128 50
f 127 128 49
f 111 129 122
f 123 125 127
f 122 130 44
f 123 127 131
f 50 128 132
f 128 125 133
f 132 133 134
f 128 133 132
f 125 124 135
f 124 120 136
f 135 136 137
f 124 136 135
f 134 138 139
f 138 137 140
f 139 140 141
f 138 140 139
f 125 135 133
f 135 137 138
f 133 138 134
f 135 138 133
f 50 132 53
f 132 134 142
f 53 142 55
f 132 142 53
f 134 139 143
f 139 141 144
f 143 144 145
f 139 144 143
f 55 146 58
f 146 145 147
f 58 147 10
f 146 147 58
f 134 143 142
f 143 145 146
f 142 146 55
f 143 146 142
f 10 147 61
f 147 145 148
f 61 148 62
f 147 148 61
f 145 144 149
f 144 141 150
f 149 150 151
f 144 150 149
f 62 152 64
f 152 151 153
f 64 153 66
f 152 153 64
f 145 149 148
f 149 151 152
f 148 152 62
f 149 152 148
f 154 155 156
f 155 157 158
f 156 158 159
f 155 158 156
f 157 160 161
f 162 83 82
f 161 163 78
f 160 163 161
f 159 164 165
f 164 78 77
f 165 77 66
f 164 77 165
f 157 161 158
f 161 78 164
f 158 164 159
f 161 164 158
f 154 166 155
f 166 167 168
f 155 168 157
f 166 168 155
f 169 170 171
f 170 102 101
f 171 101 98
f 170 101 171
f 157 172 160
f 173 98 97
f 162 97 83
f 173 97 162
f 167 174 168
f 171 98 173
f 168 172 157
f 171 173 175
f 154 176 166
f 176 177 178
f 166 178 167
f 176 178 166
f 177 179 180
f 179 120 119
f 180 119 118
f 179 119 180
f 167 181 182
f 183 114 113
f 170 113 102
f 183 113 170
f 177 180 178
f 180 118 181
f 178 181 167
f 180 181 178
f 154 184 176
f 184 185 186
f 176 186 177
f 184 186 176
f 185 187 188
f 187 141 140
f 188 140 137
f 187 140 188
f 177 189 179
f 189 137 136
f 179 136 120
f 189 136 179
f 185 188 186
f 188 137 189
f 186 189 177
f 188 189 186
f 154 156 184
f 156 159 190
f 184 190 185
f 156 190 184
f 159 165 191
f 165 66 153
f 191 153 151
f 165 153 191
f 185 192 187
f 192 151 150
f 187 150 141
f 192 150 187
f 159 191 190
f 191 151 192
f 190 192 185
f 191 192 190
f 4 56 7
f 7 56 9
f 7 9 8
f 8 9 12
f 8 12 16
f 16 12 13
f 44 126 47
f 47 126 49
f 47 49 46
f 46 49 48
f 46 48 52
f 52 48 54
f 52 54 51
f 51 54 60
f 51 60 59
f 59 60 57
f 59 57 4
f 4 57 56
f 16 13 69
f 69 13 72
f 69 72 70
f 70 72 68
f 70 68 74
f 74 68 84
f 79 85 81
f 81 85 78
f 81 78 82
f 82 78 163
f 86 76 79
f 79 76 85
f 74 84 86
f 86 84 76
f 114 118 121
f 121 118 116
f 121 116 111
f 111 116 115
f 111 115 129
f 129 115 123
f 129 123 122
f 122 123 131
f 122 131 130
f 130 131 127
f 130 127 44
f 44 127 126
f 82 163 162
f 162 163 160
f 169 167 170
f 170 167 182
f 171 174 169
f 169 174 167
f 162 160 173
f 173 160 172
f 173 172 175
f 175 172 168
f 175 168 171
f 171 168 174
f 183 181 114
f 114 181 118
f 170 182 183
f 183 182 181
