v -0.493443 1.18927 0.787557
v -0.458573 1.14546 0.783083
v -0.464156 1.19425 0.739875
v -0.435307 1.09602 0.77
v -0.431911 1.14662 0.731445
v -0.446047 1.18989 0.686875
v -0.425414 1.04474 0.749305
v -0.412198 1.08675 0.711364
v -0.42965 0.995513 0.722573
v -0.411507 1.03433 0.686244
v -0.40855 1.076 0.648678
v -0.446047 1.22538 0.566875
v -0.417845 1.17159 0.547662
v -0.440495 1.21203 0.512589
v -0.40855 1.11149 0.528678
v -0.421004 1.15283 0.492735
v -0.447922 1.1907 0.461152
v -0.412198 1.12224 0.591364
v -0.417845 1.1361 0.667662
v -0.516396 1.22998 0.756379
v -0.464156 1.22974 0.619875
v -0.490396 1.26761 0.584436
v -0.490396 1.23212 0.704436
v -0.54655 1.25864 0.718626
v -0.476329 1.25708 0.520653
v -0.478827 1.23736 0.466032
v -0.519793 1.27411 0.477304
v -0.54655 1.29413 0.598626
v -0.529166 1.29322 0.537345
v -0.581611 1.30856 0.557171
v -0.567703 1.29815 0.49411
v -0.618908 1.30767 0.51517
v -0.543099 1.20328 0.809786
v -0.570242 1.24125 0.775146
v -0.597924 1.20727 0.821374
v -0.609013 1.30236 0.608056
v -0.646646 1.30719 0.56402
v -0.671671 1.29149 0.611803
v -0.636022 1.23986 0.782074
v -0.653745 1.20094 0.821439
v -0.671671 1.256 0.731803
v -0.692077 1.22627 0.774882
v -0.706311 1.18477 0.809976
v -0.609013 1.26687 0.728056
v -0.507363 1.15104 0.82629
v -0.561106 1.16141 0.845857
v -0.529172 1.10676 0.853125
v -0.626886 1.16001 0.852785
v -0.683044 1.14732 0.844793
v -0.654293 1.10412 0.866303
v -0.590741 1.10718 0.869478
v -0.55721 1.05982 0.866021
v -0.622246 1.05845 0.87287
v -0.589343 1.01379 0.863995
v -0.475613 1.10292 0.818848
v -0.505248 1.04869 0.842468
v -0.53772 1.00062 0.846167
v -0.491675 0.992874 0.814929
v -0.4559 1.04305 0.798767
v -0.454714 0.991126 0.772658
v -0.432211 0.974285 0.670623
v -0.432211 1.00978 0.550623
v -0.448382 0.995964 0.498626
v -0.419072 1.05097 0.511781
v -0.411507 1.06982 0.566244
v -0.419072 1.01548 0.631781
v -0.476932 0.990621 0.450539
v -0.44566 1.03959 0.45228
v -0.515688 0.994153 0.410024
v -0.482515 1.03941 0.407332
v -0.459122 1.08983 0.4155
v -0.424719 1.10032 0.46808
v -0.447291 1.14157 0.433907
v -0.483027 1.19381 0.417404
v -0.487452 1.14177 0.391886
v -0.527875 1.19033 0.383749
v -0.508393 1.08104 0.376087
v -0.538955 1.0316 0.375207
v -0.567707 1.07481 0.353697
v -0.544538 1.13388 0.359394
v -0.57905 1.18053 0.36275
v -0.599754 1.12048 0.34713
v -0.632657 1.16514 0.356006
v -0.519348 1.23865 0.424378
v -0.576434 1.23076 0.391886
v -0.63129 1.21626 0.379254
v -0.628378 1.25909 0.4155
v -0.572186 1.2748 0.441071
v -0.624143 1.29035 0.461985
v -0.672933 1.29593 0.505192
v -0.67862 1.27255 0.45228
v -0.722243 1.26983 0.498626
v -0.682869 1.2285 0.403096
v -0.68428 1.1783 0.373833
v -0.730325 1.18605 0.405071
v -0.732217 1.23415 0.446797
v -0.763086 1.23134 0.49597
v -0.767286 1.1878 0.447342
v -0.79235 1.18341 0.497427
v -0.701381 1.28958 0.555483
v -0.754977 1.25118 0.55
v -0.789789 1.20464 0.549377
v -0.773618 1.21845 0.601374
v -0.72839 1.22708 0.729501
v -0.773618 1.18296 0.721374
v -0.745067 1.1883 0.769461
v -0.72839 1.26257 0.609501
v -0.739485 1.13951 0.812668
v -0.77634 1.13934 0.76772
v -0.762878 1.0891 0.8045
v -0.789789 1.16915 0.669377
v -0.802927 1.12795 0.708219
v -0.810493 1.14459 0.533756
v -0.810493 1.1091 0.653756
v -0.81345 1.06744 0.691322
v -0.802927 1.16344 0.588219
v -0.797281 1.0786 0.75192
v -0.774709 1.03735 0.786093
v -0.800996 1.0261 0.727265
v -0.774078 0.988228 0.758848
v -0.713607 1.09789 0.843913
v -0.734548 1.03715 0.828114
v -0.738973 0.985114 0.802596
v -0.694125 0.988592 0.836251
v -0.677462 1.04505 0.860606
v -0.64295 0.998398 0.85725
v -0.59071 0.962662 0.840746
v -0.645565 0.948169 0.828114
v -0.593622 0.91984 0.8045
v -0.702652 0.940271 0.795622
v -0.743173 0.941569 0.753968
v -0.702206 0.904817 0.742696
v -0.649814 0.904126 0.778929
v -0.597857 0.888579 0.758015
v -0.654297 0.880771 0.725891
v -0.603092 0.871259 0.70483
v -0.539131 0.95042 0.816904
v -0.54338 0.906377 0.76772
v -0.549067 0.882996 0.714808
v -0.499756 0.909099 0.721374
v -0.489783 0.944774 0.773203
v -0.458914 0.947581 0.72403
v -0.467023 0.92774 0.67
v -0.448382 0.960474 0.618626
v -0.520619 0.889343 0.664517
v -0.575353 0.871738 0.65598
v -0.550329 0.887439 0.608197
v -0.49361 0.951843 0.490499
v -0.550329 0.92293 0.488197
v -0.529923 0.952659 0.445118
v -0.49361 0.916352 0.610499
v -0.728557 0.98965 0.432443
v -0.714637 1.02789 0.39371
v -0.678901 0.975646 0.410214
v -0.692828 1.07216 0.366875
v -0.660894 1.01752 0.374143
v -0.624076 0.971657 0.398626
v -0.66479 1.1191 0.353979
v -0.631259 1.07175 0.350523
v -0.595114 1.01891 0.367215
v -0.568255 0.977987 0.398561
v -0.763427 1.03347 0.436917
v -0.786693 1.0829 0.45
v -0.746387 1.076 0.401152
v -0.796586 1.13418 0.470695
v -0.7661 1.13588 0.421233
v -0.716752 1.13023 0.377532
v -0.757844 0.984679 0.480125
v -0.775953 0.989035 0.533125
v -0.790089 1.0323 0.488555
v -0.775953 0.953545 0.653125
v -0.781505 0.966897 0.707411
v -0.804155 1.00734 0.672338
v -0.809802 1.09218 0.508637
v -0.81345 1.10293 0.571322
v -0.804155 1.04283 0.552338
v -0.809802 1.05669 0.628637
v -0.705604 0.948943 0.463621
v -0.67545 0.920283 0.501374
v -0.731604 0.946809 0.515565
v -0.757844 0.949189 0.600125
v -0.731604 0.911318 0.635565
v -0.67545 0.884793 0.621374
v -0.640389 0.870362 0.662829
v -0.692833 0.885701 0.682655
v -0.745671 0.921846 0.699347
v -0.651758 0.937672 0.444854
v -0.585977 0.939064 0.437926
v -0.612987 0.876565 0.611944
v -0.612987 0.912055 0.491944
f 1 2 3
f 2 4 5
f 3 5 6
f 2 5 3
f 4 7 8
f 7 9 10
f 8 10 11
f 7 10 8
f 12 13 14
f 13 15 16
f 14 16 17
f 13 16 14
f 4 8 5
f 18 15 13
f 5 19 6
f 8 19 5
f 1 3 20
f 21 12 22
f 20 23 24
f 3 23 20
f 12 14 25
f 14 17 26
f 25 26 27
f 14 26 25
f 28 29 30
f 29 27 31
f 30 31 32
f 29 31 30
f 12 25 22
f 25 27 29
f 22 29 28
f 25 29 22
f 1 20 33
f 20 24 34
f 33 34 35
f 20 34 33
f 28 30 36
f 30 32 37
f 36 37 38
f 30 37 36
f 35 39 40
f 39 41 42
f 40 42 43
f 39 42 40
f 24 44 34
f 44 41 39
f 34 39 35
f 44 39 34
f 1 33 45
f 33 35 46
f 45 46 47
f 33 46 45
f 35 40 48
f 40 43 49
f 48 49 50
f 40 49 48
f 47 51 52
f 51 50 53
f 52 53 54
f 51 53 52
f 35 48 46
f 48 50 51
f 46 51 47
f 48 51 46
f 1 45 2
f 45 47 55
f 2 55 4
f 45 55 2
f 47 52 56
f 52 54 57
f 56 57 58
f 52 57 56
f 4 59 7
f 59 58 60
f 7 60 9
f 59 60 7
f 47 56 55
f 56 58 59
f 55 59 4
f 56 59 55
f 9 61 10
f 62 63 64
f 65 64 15
f 61 66 10
f 63 67 68
f 67 69 70
f 68 70 71
f 67 70 68
f 15 72 16
f 72 71 73
f 16 73 17
f 72 73 16
f 63 68 64
f 68 71 72
f 64 72 15
f 68 72 64
f 17 73 74
f 73 71 75
f 74 75 76
f 73 75 74
f 71 70 77
f 70 69 78
f 77 78 79
f 70 78 77
f 76 80 81
f 80 79 82
f 81 82 83
f 80 82 81
f 71 77 75
f 77 79 80
f 75 80 76
f 77 80 75
f 17 74 26
f 74 76 84
f 26 84 27
f 74 84 26
f 76 81 85
f 81 83 86
f 85 86 87
f 81 86 85
f 27 88 31
f 88 87 89
f 31 89 32
f 88 89 31
f 76 85 84
f 85 87 88
f 84 88 27
f 85 88 84
f 32 89 90
f 89 87 91
f 90 91 92
f 89 91 90
f 87 86 93
f 86 83 94
f 93 94 95
f 86 94 93
f 92 96 97
f 96 95 98
f 97 98 99
f 96 98 97
f 87 93 91
f 93 95 96
f 91 96 92
f 93 96 91
f 32 90 37
f 90 92 100
f 37 100 38
f 90 100 37
f 92 97 101
f 97 99 102
f 101 102 103
f 97 102 101
f 41 104 42
f 104 105 106
f 42 106 43
f 104 106 42
f 92 101 100
f 101 103 107
f 100 107 38
f 101 107 100
f 43 106 108
f 106 105 109
f 108 109 110
f 106 109 108
f 105 111 112
f 102 99 113
f 112 114 115
f 102 113 116
f 110 117 118
f 117 115 119
f 118 119 120
f 117 119 118
f 105 112 109
f 112 115 117
f 109 117 110
f 112 117 109
f 43 108 49
f 108 110 121
f 49 121 50
f 108 121 49
f 110 118 122
f 118 120 123
f 122 123 124
f 118 123 122
f 50 125 53
f 125 124 126
f 53 126 54
f 125 126 53
f 110 122 121
f 122 124 125
f 121 125 50
f 122 125 121
f 54 126 127
f 126 124 128
f 127 128 129
f 126 128 127
f 124 123 130
f 123 120 131
f 130 131 132
f 123 131 130
f 129 133 134
f 133 132 135
f 134 135 136
f 133 135 134
f 124 130 128
f 130 132 133
f 128 133 129
f 130 133 128
f 54 127 57
f 127 129 137
f 57 137 58
f 127 137 57
f 129 134 138
f 134 136 139
f 138 139 140
f 134 139 138
f 58 141 60
f 141 140 142
f 60 142 9
f 141 142 60
f 129 138 137
f 138 140 141
f 137 141 58
f 138 141 137
f 9 142 61
f 142 140 143
f 61 143 144
f 142 143 61
f 140 139 145
f 139 136 146
f 145 146 147
f 139 146 145
f 63 148 67
f 148 149 150
f 67 150 69
f 148 150 67
f 140 145 143
f 145 147 151
f 143 151 144
f 145 151 143
f 152 153 154
f 153 155 156
f 154 156 157
f 153 156 154
f 155 158 159
f 158 83 82
f 159 82 79
f 158 82 159
f 157 160 161
f 160 79 78
f 161 78 69
f 160 78 161
f 155 159 156
f 159 79 160
f 156 160 157
f 159 160 156
f 152 162 153
f 162 163 164
f 153 164 155
f 162 164 153
f 163 165 166
f 165 99 98
f 166 98 95
f 165 98 166
f 155 167 158
f 167 95 94
f 158 94 83
f 167 94 158
f 163 166 164
f 166 95 167
f 164 167 155
f 166 167 164
f 152 168 162
f 168 169 170
f 162 170 163
f 168 170 162
f 171 172 173
f 172 120 119
f 173 119 115
f 172 119 173
f 163 174 165
f 174 175 113
f 165 113 99
f 174 113 165
f 169 176 170
f 173 115 177
f 170 174 163
f 176 174 170
f 152 178 168
f 178 179 180
f 181 182 171
f 178 180 168
f 183 184 185
f 184 136 135
f 185 135 132
f 184 135 185
f 171 186 172
f 186 132 131
f 172 131 120
f 186 131 172
f 183 185 182
f 185 132 186
f 182 186 171
f 185 186 182
f 152 154 178
f 154 157 187
f 178 187 179
f 154 187 178
f 157 161 188
f 161 69 150
f 188 150 149
f 161 150 188
f 183 189 184
f 189 147 146
f 184 146 136
f 189 146 184
f 157 188 187
f 188 149 190
f 187 190 179
f 188 190 187
f 6 12 3
f 3 12 21
f 10 65 11
f 11 65 15
f 11 15 8
f 8 15 18
f 19 13 6
f 6 13 12
f 8 18 19
f 19 18 13
f 23 22 24
f 24 22 28
f 3 21 23
f 23 21 22
f 24 28 44
f 44 28 36
f 44 36 41
f 41 36 38
f 61 62 66
f 66 62 64
f 66 64 10
f 10 64 65
f 41 38 104
f 104 38 107
f 104 107 105
f 105 107 103
f 105 103 111
f 111 103 102
f 111 102 112
f 112 102 116
f 112 116 114
f 114 116 113
f 114 113 115
f 115 113 175
f 144 63 61
f 61 63 62
f 147 149 151
f 151 149 148
f 151 148 144
f 144 148 63
f 173 176 171
f 171 176 169
f 115 175 177
f 177 175 174
f 177 174 173
f 173 174 176
f 181 168 182
f 182 168 180
f 171 169 181
f 181 169 168
f 182 180 183
f 183 180 179
f 183 179 189
f 189 179 190
f 189 190 147
f 147 190 149
