v -0.493443 1.22476 0.667557
v -0.458573 1.18095 0.663083
v -0.464156 1.22974 0.619875
v -0.435307 1.13151 0.65
v -0.431911 1.18211 0.611445
v -0.446047 1.22538 0.566875
v -0.425414 1.08023 0.629305
v -0.412198 1.12224 0.591364
v -0.42965 1.031 0.602573
v -0.411507 1.06982 0.566244
v -0.40855 1.11149 0.528678
v -0.446047 1.2276 0.486875
v -0.417845 1.1738 0.467662
v -0.440495 1.21425 0.432589
v -0.40855 1.11371 0.448678
v -0.421004 1.15505 0.412735
v -0.447922 1.19292 0.381152
v -0.417845 1.17159 0.547662
v -0.516396 1.26547 0.636379
v -0.490396 1.26761 0.584436
v -0.54655 1.29413 0.598626
v -0.476329 1.2593 0.440653
v -0.478827 1.23957 0.386032
v -0.519793 1.27633 0.397304
v -0.529166 1.29322 0.537345
v -0.581611 1.30856 0.557171
v -0.529166 1.29544 0.457345
v -0.567703 1.30037 0.41411
v -0.581611 1.31078 0.477171
v -0.618908 1.30988 0.43517
v -0.476329 1.25708 0.520653
v -0.490396 1.26983 0.504436
v -0.543099 1.23877 0.689786
v -0.570242 1.27674 0.655146
v -0.597924 1.24276 0.701374
v -0.609013 1.30236 0.608056
v -0.646646 1.30941 0.48402
v -0.646646 1.30719 0.56402
v -0.671671 1.29149 0.611803
v -0.636022 1.27535 0.662074
v -0.653745 1.23643 0.701439
v -0.692077 1.26176 0.654882
v -0.706311 1.22026 0.689976
v -0.507363 1.18653 0.70629
v -0.561106 1.1969 0.725857
v -0.529172 1.14225 0.733125
v -0.626886 1.1955 0.732785
v -0.683044 1.18281 0.724793
v -0.654293 1.13961 0.746303
v -0.590741 1.14267 0.749478
v -0.55721 1.09531 0.746021
v -0.622246 1.09394 0.75287
v -0.589343 1.04928 0.743995
v -0.475613 1.13841 0.698848
v -0.505248 1.08418 0.722468
v -0.53772 1.03611 0.726167
v -0.491675 1.02836 0.694929
v -0.4559 1.07854 0.678767
v -0.454714 1.02662 0.652658
v -0.432211 1.00978 0.550623
v -0.432211 1.01199 0.470623
v -0.448382 0.998183 0.418626
v -0.419072 1.05319 0.431781
v -0.411507 1.07204 0.486244
v -0.476932 0.99284 0.370539
v -0.44566 1.04181 0.37228
v -0.515688 0.996372 0.330024
v -0.482515 1.04163 0.327332
v -0.459122 1.09205 0.3355
v -0.424719 1.10254 0.38808
v -0.447291 1.14379 0.353907
v -0.483027 1.19603 0.337404
v -0.487452 1.14399 0.311886
v -0.527875 1.19255 0.303749
v -0.508393 1.08326 0.296087
v -0.538955 1.03382 0.295208
v -0.567707 1.07703 0.273697
v -0.544538 1.13609 0.279394
v -0.57905 1.18275 0.28275
v -0.599754 1.1227 0.26713
v -0.632657 1.16736 0.276006
v -0.519348 1.24087 0.344378
v -0.576434 1.23297 0.311886
v -0.63129 1.21848 0.299254
v -0.628378 1.2613 0.3355
v -0.572186 1.27702 0.361071
v -0.624143 1.29256 0.381985
v -0.672933 1.29815 0.425193
v -0.67862 1.27477 0.37228
v -0.722243 1.27204 0.418626
v -0.682869 1.23072 0.323096
v -0.68428 1.18052 0.293833
v -0.730325 1.18827 0.325071
v -0.732217 1.23637 0.366798
v -0.763086 1.23356 0.41597
v -0.767286 1.19002 0.367342
v -0.79235 1.18563 0.417427
v -0.701381 1.2918 0.475483
v -0.701381 1.28958 0.555483
v -0.754977 1.2534 0.47
v -0.789789 1.20686 0.469377
v -0.754977 1.25118 0.55
v -0.789789 1.20464 0.549377
v -0.773618 1.21845 0.601374
v -0.72839 1.26257 0.609501
v -0.745067 1.22379 0.649461
v -0.739485 1.175 0.692668
v -0.77634 1.17483 0.64772
v -0.762878 1.12459 0.6845
v -0.802927 1.16344 0.588219
v -0.810493 1.14681 0.453756
v -0.810493 1.14459 0.533756
v -0.81345 1.10293 0.571322
v -0.797281 1.11409 0.63192
v -0.774709 1.07284 0.666093
v -0.800996 1.06159 0.607265
v -0.774078 1.02372 0.638848
v -0.713607 1.13338 0.723913
v -0.734548 1.07264 0.708114
v -0.738973 1.0206 0.682596
v -0.694125 1.02408 0.716251
v -0.677462 1.08054 0.740606
v -0.64295 1.03389 0.73725
v -0.59071 0.998152 0.720746
v -0.645565 0.983659 0.708114
v -0.593622 0.95533 0.6845
v -0.702652 0.975761 0.675622
v -0.743173 0.977059 0.633968
v -0.702206 0.940307 0.622696
v -0.649814 0.939616 0.658929
v -0.597857 0.924069 0.638015
v -0.654297 0.916261 0.605891
v -0.603092 0.90675 0.58483
v -0.539131 0.98591 0.696904
v -0.54338 0.941867 0.64772
v -0.549067 0.918487 0.594808
v -0.499756 0.94459 0.601374
v -0.489783 0.980264 0.653203
v -0.458914 0.983072 0.60403
v -0.467023 0.96323 0.55
v -0.467023 0.965449 0.47
v -0.520619 0.924834 0.544517
v -0.575353 0.907228 0.53598
v -0.520619 0.927053 0.464517
v -0.575353 0.909447 0.45598
v -0.550329 0.925149 0.408197
v -0.49361 0.954062 0.410499
v -0.529923 0.954878 0.365118
v -0.728557 0.991869 0.352443
v -0.714637 1.03011 0.31371
v -0.678901 0.977866 0.330214
v -0.692828 1.07438 0.286875
v -0.660894 1.01974 0.294143
v -0.624076 0.973876 0.318626
v -0.66479 1.12132 0.273979
v -0.631259 1.07397 0.270523
v -0.595114 1.02113 0.287215
v -0.568255 0.980206 0.318561
v -0.763427 1.03569 0.356918
v -0.786693 1.08512 0.37
v -0.746387 1.07822 0.321152
v -0.796586 1.1364 0.390695
v -0.7661 1.1381 0.341233
v -0.716752 1.13245 0.297532
v -0.757844 0.986898 0.400125
v -0.775953 0.991254 0.453126
v -0.790089 1.03452 0.408556
v -0.775953 0.989035 0.533125
v -0.781505 1.00239 0.587411
v -0.804155 1.04283 0.552338
v -0.809802 1.0944 0.428637
v -0.81345 1.10514 0.491322
v -0.804155 1.04505 0.472338
v -0.705604 0.951162 0.383621
v -0.67545 0.922502 0.421374
v -0.731604 0.949028 0.435565
v -0.640389 0.908072 0.462829
v -0.692833 0.92341 0.482655
v -0.640389 0.905852 0.542829
v -0.692833 0.921191 0.562655
v -0.745671 0.957336 0.579347
v -0.745671 0.959555 0.499347
v -0.731604 0.946809 0.515565
v -0.651758 0.939892 0.364854
v -0.585977 0.941283 0.357926
v -0.612987 0.914274 0.411944
f 1 2 3
f 2 4 5
f 3 5 6
f 2 5 3
f 4 7 8
f 7 9 10
f 8 10 11
f 7 10 8
f 12 13 14
f 13 15 16
f 14 16 17
f 13 16 14
f 4 8 5
f 8 11 18
f 5 18 6
f 8 18 5
f 1 3 19
f 3 6 20
f 19 20 21
f 3 20 19
f 12 14 22
f 14 17 23
f 22 23 24
f 14 23 22
f 21 25 26
f 27 24 28
f 29 28 30
f 27 28 29
f 6 31 20
f 22 24 27
f 20 25 21
f 22 27 32
f 1 19 33
f 19 21 34
f 33 34 35
f 19 34 33
f 21 26 36
f 29 30 37
f 36 38 39
f 26 38 36
f 35 40 41
f 40 39 42
f 41 42 43
f 40 42 41
f 21 36 34
f 36 39 40
f 34 40 35
f 36 40 34
f 1 33 44
f 33 35 45
f 44 45 46
f 33 45 44
f 35 41 47
f 41 43 48
f 47 48 49
f 41 48 47
f 46 50 51
f 50 49 52
f 51 52 53
f 50 52 51
f 35 47 45
f 47 49 50
f 45 50 46
f 47 50 45
f 1 44 2
f 44 46 54
f 2 54 4
f 44 54 2
f 46 51 55
f 51 53 56
f 55 56 57
f 51 56 55
f 4 58 7
f 58 57 59
f 7 59 9
f 58 59 7
f 46 55 54
f 55 57 58
f 54 58 4
f 55 58 54
f 9 60 10
f 61 62 63
f 64 63 15
f 61 63 64
f 62 65 66
f 65 67 68
f 66 68 69
f 65 68 66
f 15 70 16
f 70 69 71
f 16 71 17
f 70 71 16
f 62 66 63
f 66 69 70
f 63 70 15
f 66 70 63
f 17 71 72
f 71 69 73
f 72 73 74
f 71 73 72
f 69 68 75
f 68 67 76
f 75 76 77
f 68 76 75
f 74 78 79
f 78 77 80
f 79 80 81
f 78 80 79
f 69 75 73
f 75 77 78
f 73 78 74
f 75 78 73
f 17 72 23
f 72 74 82
f 23 82 24
f 72 82 23
f 74 79 83
f 79 81 84
f 83 84 85
f 79 84 83
f 24 86 28
f 86 85 87
f 28 87 30
f 86 87 28
f 74 83 82
f 83 85 86
f 82 86 24
f 83 86 82
f 30 87 88
f 87 85 89
f 88 89 90
f 87 89 88
f 85 84 91
f 84 81 92
f 91 92 93
f 84 92 91
f 90 94 95
f 94 93 96
f 95 96 97
f 94 96 95
f 85 91 89
f 91 93 94
f 89 94 90
f 91 94 89
f 30 88 37
f 88 90 98
f 38 99 39
f 88 98 37
f 90 95 100
f 95 97 101
f 102 103 104
f 95 101 100
f 39 105 42
f 105 104 106
f 42 106 43
f 105 106 42
f 90 100 98
f 102 104 105
f 99 105 39
f 102 105 99
f 43 106 107
f 106 104 108
f 107 108 109
f 106 108 107
f 104 103 110
f 101 97 111
f 110 112 113
f 103 112 110
f 109 114 115
f 114 113 116
f 115 116 117
f 114 116 115
f 104 110 108
f 110 113 114
f 108 114 109
f 110 114 108
f 43 107 48
f 107 109 118
f 48 118 49
f 107 118 48
f 109 115 119
f 115 117 120
f 119 120 121
f 115 120 119
f 49 122 52
f 122 121 123
f 52 123 53
f 122 123 52
f 109 119 118
f 119 121 122
f 118 122 49
f 119 122 118
f 53 123 124
f 123 121 125
f 124 125 126
f 123 125 124
f 121 120 127
f 120 117 128
f 127 128 129
f 120 128 127
f 126 130 131
f 130 129 132
f 131 132 133
f 130 132 131
f 121 127 125
f 127 129 130
f 125 130 126
f 127 130 125
f 53 124 56
f 124 126 134
f 56 134 57
f 124 134 56
f 126 131 135
f 131 133 136
f 135 136 137
f 131 136 135
f 57 138 59
f 138 137 139
f 59 139 9
f 138 139 59
f 126 135 134
f 135 137 138
f 134 138 57
f 135 138 134
f 9 139 60
f 139 137 140
f 61 141 62
f 139 140 60
f 137 136 142
f 136 133 143
f 144 145 146
f 136 143 142
f 62 147 65
f 147 146 148
f 65 148 67
f 147 148 65
f 137 142 140
f 144 146 147
f 141 147 62
f 144 147 141
f 149 150 151
f 150 152 153
f 151 153 154
f 150 153 151
f 152 155 156
f 155 81 80
f 156 80 77
f 155 80 156
f 154 157 158
f 157 77 76
f 158 76 67
f 157 76 158
f 152 156 153
f 156 77 157
f 153 157 154
f 156 157 153
f 149 159 150
f 159 160 161
f 150 161 152
f 159 161 150
f 160 162 163
f 162 97 96
f 163 96 93
f 162 96 163
f 152 164 155
f 164 93 92
f 155 92 81
f 164 92 155
f 160 163 161
f 163 93 164
f 161 164 152
f 163 164 161
f 149 165 159
f 165 166 167
f 159 167 160
f 165 167 159
f 168 169 170
f 169 117 116
f 170 116 113
f 169 116 170
f 160 171 162
f 171 172 111
f 162 111 97
f 171 111 162
f 166 173 167
f 173 172 171
f 167 171 160
f 173 171 167
f 149 174 165
f 174 175 176
f 165 176 166
f 174 176 165
f 175 177 178
f 179 133 132
f 180 132 129
f 179 132 180
f 168 181 169
f 181 129 128
f 169 128 117
f 181 128 169
f 175 178 176
f 180 129 181
f 176 182 166
f 180 181 183
f 149 151 174
f 151 154 184
f 174 184 175
f 151 184 174
f 154 158 185
f 158 67 148
f 185 148 146
f 158 148 185
f 175 186 177
f 186 146 145
f 179 143 133
f 186 145 177
f 154 185 184
f 185 146 186
f 184 186 175
f 185 186 184
f 10 64 11
f 11 64 15
f 11 15 18
f 18 15 13
f 18 13 6
f 6 13 12
f 25 27 26
f 26 27 29
f 6 12 31
f 31 12 22
f 31 22 20
f 20 22 32
f 20 32 25
f 25 32 27
f 26 29 38
f 38 29 37
f 60 61 10
f 10 61 64
f 38 37 99
f 99 37 98
f 102 100 103
f 103 100 101
f 99 98 102
f 102 98 100
f 112 111 113
f 113 111 172
f 103 101 112
f 112 101 111
f 140 141 60
f 60 141 61
f 143 145 142
f 142 145 144
f 142 144 140
f 140 144 141
f 170 173 168
f 168 173 166
f 113 172 170
f 170 172 173
f 180 178 179
f 179 178 177
f 168 166 181
f 181 166 182
f 181 182 183
f 183 182 176
f 183 176 180
f 180 176 178
f 179 177 143
f 143 177 145
