v -0.493443 1.22698 0.587557
v -0.458573 1.18316 0.583083
v -0.464156 1.23195 0.539876
v -0.435307 1.13373 0.57
v -0.431911 1.18433 0.531445
v -0.446047 1.2276 0.486875
v -0.425414 1.08245 0.549305
v -0.412198 1.12446 0.511364
v -0.42965 1.03322 0.522573
v -0.411507 1.07204 0.486244
v -0.40855 1.11371 0.448678
v -0.417845 1.1738 0.467662
v -0.440495 1.21425 0.432589
v -0.417845 1.1706 0.427662
v -0.40855 1.1105 0.408678
v -0.421004 1.15184 0.372735
v -0.440495 1.21104 0.392589
v -0.447922 1.18971 0.341152
v -0.516396 1.26769 0.556379
v -0.490396 1.26983 0.504436
v -0.54655 1.29635 0.518626
v -0.446047 1.22439 0.446875
v -0.476329 1.25609 0.400653
v -0.478827 1.23637 0.346032
v -0.519793 1.27312 0.357304
v -0.529166 1.29544 0.457345
v -0.581611 1.31078 0.477171
v -0.529166 1.29223 0.417345
v -0.567703 1.29716 0.37411
v -0.581611 1.30757 0.437171
v -0.618908 1.30668 0.39517
v -0.476329 1.2593 0.440653
v -0.543099 1.24099 0.609786
v -0.570242 1.27896 0.575146
v -0.597924 1.24498 0.621374
v -0.609013 1.30458 0.528056
v -0.618908 1.30988 0.43517
v -0.646646 1.30941 0.48402
v -0.671671 1.2937 0.531804
v -0.636022 1.27757 0.582074
v -0.653745 1.23865 0.62144
v -0.692077 1.26398 0.574882
v -0.706311 1.22248 0.609977
v -0.507363 1.18875 0.62629
v -0.561106 1.19911 0.645857
v -0.529172 1.14447 0.653126
v -0.626886 1.19772 0.652785
v -0.683044 1.18503 0.644793
v -0.654293 1.14183 0.666303
v -0.590741 1.14489 0.669478
v -0.55721 1.09753 0.666021
v -0.622246 1.09616 0.672871
v -0.589343 1.05149 0.663995
v -0.475613 1.14063 0.618848
v -0.505248 1.0864 0.642468
v -0.53772 1.03833 0.646167
v -0.491675 1.03058 0.614929
v -0.4559 1.08075 0.598767
v -0.454714 1.02884 0.572658
v -0.432211 1.01199 0.470623
v -0.432211 1.00879 0.430623
v -0.448382 0.994974 0.378626
v -0.419072 1.04998 0.391781
v -0.411507 1.06883 0.446244
v -0.476932 0.989631 0.330539
v -0.44566 1.0386 0.33228
v -0.515688 0.993163 0.290024
v -0.482515 1.03842 0.287332
v -0.459122 1.08884 0.2955
v -0.424719 1.09933 0.34808
v -0.447291 1.14058 0.313907
v -0.483027 1.19282 0.297404
v -0.487452 1.14078 0.271886
v -0.527875 1.18934 0.263749
v -0.508393 1.08005 0.256087
v -0.538955 1.03061 0.255207
v -0.567707 1.07382 0.233697
v -0.544538 1.13289 0.239394
v -0.57905 1.17954 0.24275
v -0.599754 1.11949 0.22713
v -0.632657 1.16415 0.236006
v -0.519348 1.23766 0.304378
v -0.576434 1.22977 0.271886
v -0.63129 1.21527 0.259254
v -0.628378 1.2581 0.2955
v -0.572186 1.27381 0.321071
v -0.624143 1.28936 0.341985
v -0.672933 1.29494 0.385192
v -0.67862 1.27156 0.33228
v -0.722243 1.26884 0.378626
v -0.682869 1.22751 0.283096
v -0.68428 1.17731 0.253833
v -0.730325 1.18506 0.285071
v -0.732217 1.23316 0.326797
v -0.763086 1.23035 0.37597
v -0.767286 1.18681 0.327342
v -0.79235 1.18242 0.377427
v -0.646646 1.3062 0.44402
v -0.701381 1.28859 0.435483
v -0.701381 1.2918 0.475483
v -0.672933 1.29815 0.425193
v -0.754977 1.2502 0.43
v -0.789789 1.20365 0.429377
v -0.754977 1.2534 0.47
v -0.789789 1.20686 0.469377
v -0.773618 1.22067 0.521374
v -0.72839 1.26479 0.529501
v -0.745067 1.22601 0.569461
v -0.739485 1.17722 0.612668
v -0.77634 1.17705 0.56772
v -0.762878 1.1268 0.6045
v -0.802927 1.16566 0.508219
v -0.810493 1.1436 0.413756
v -0.810493 1.14681 0.453756
v -0.81345 1.10514 0.491322
v -0.797281 1.11631 0.55192
v -0.774709 1.07506 0.586093
v -0.800996 1.0638 0.527265
v -0.774078 1.02594 0.558848
v -0.713607 1.1356 0.643914
v -0.734548 1.07486 0.628114
v -0.738973 1.02282 0.602597
v -0.694125 1.0263 0.636251
v -0.677462 1.08276 0.660606
v -0.64295 1.03611 0.65725
v -0.59071 1.00037 0.640746
v -0.645565 0.985878 0.628114
v -0.593622 0.957549 0.6045
v -0.702652 0.97798 0.595622
v -0.743173 0.979278 0.553968
v -0.702206 0.942527 0.542696
v -0.649814 0.941835 0.57893
v -0.597857 0.926288 0.558015
v -0.654297 0.91848 0.525891
v -0.603092 0.908969 0.50483
v -0.539131 0.988129 0.616904
v -0.54338 0.944086 0.56772
v -0.549067 0.920706 0.514808
v -0.499756 0.946809 0.521374
v -0.489783 0.982483 0.573203
v -0.458914 0.985291 0.52403
v -0.467023 0.965449 0.47
v -0.467023 0.96224 0.43
v -0.520619 0.927053 0.464517
v -0.575353 0.909447 0.45598
v -0.520619 0.923844 0.424517
v -0.575353 0.906238 0.41598
v -0.550329 0.92194 0.368197
v -0.549067 0.917497 0.474808
v -0.49361 0.950853 0.370499
v -0.529923 0.951669 0.325118
v -0.728557 0.988661 0.312443
v -0.714637 1.0269 0.27371
v -0.678901 0.974657 0.290214
v -0.692828 1.07117 0.246875
v -0.660894 1.01653 0.254143
v -0.624076 0.970668 0.278626
v -0.66479 1.11811 0.233979
v -0.631259 1.07076 0.230523
v -0.595114 1.01792 0.247215
v -0.568255 0.976997 0.278561
v -0.763427 1.03248 0.316917
v -0.786693 1.08191 0.33
v -0.746387 1.07501 0.281152
v -0.796586 1.13319 0.350695
v -0.7661 1.13489 0.301233
v -0.716752 1.12924 0.257532
v -0.757844 0.98369 0.360125
v -0.775953 0.988046 0.413125
v -0.790089 1.03131 0.368555
v -0.781505 1.0014 0.467411
v -0.804155 1.04184 0.432338
v -0.781505 1.00461 0.507411
v -0.804155 1.04505 0.472338
v -0.809802 1.09119 0.388637
v -0.81345 1.10194 0.451322
v -0.705604 0.947953 0.343621
v -0.67545 0.919293 0.381374
v -0.731604 0.945819 0.395564
v -0.640389 0.904863 0.422829
v -0.692833 0.920201 0.442655
v -0.640389 0.908072 0.462829
v -0.692833 0.92341 0.482655
v -0.775953 0.991254 0.453126
v -0.745671 0.959555 0.499347
v -0.745671 0.956347 0.459347
v -0.651758 0.936683 0.324854
v -0.585977 0.938074 0.317926
v -0.612987 0.911065 0.371944
v -0.603092 0.90576 0.46483
f 1 2 3
f 2 4 5
f 3 5 6
f 2 5 3
f 4 7 8
f 7 9 10
f 8 10 11
f 7 10 8
f 6 12 13
f 14 15 16
f 17 16 18
f 14 16 17
f 4 8 5
f 8 11 12
f 5 12 6
f 8 12 5
f 1 3 19
f 3 6 20
f 19 20 21
f 3 20 19
f 22 17 23
f 17 18 24
f 23 24 25
f 17 24 23
f 21 26 27
f 28 25 29
f 30 29 31
f 28 29 30
f 6 32 20
f 23 25 28
f 20 26 21
f 32 26 20
f 1 19 33
f 19 21 34
f 33 34 35
f 19 34 33
f 21 27 36
f 27 37 38
f 36 38 39
f 27 38 36
f 35 40 41
f 40 39 42
f 41 42 43
f 40 42 41
f 21 36 34
f 36 39 40
f 34 40 35
f 36 40 34
f 1 33 44
f 33 35 45
f 44 45 46
f 33 45 44
f 35 41 47
f 41 43 48
f 47 48 49
f 41 48 47
f 46 50 51
f 50 49 52
f 51 52 53
f 50 52 51
f 35 47 45
f 47 49 50
f 45 50 46
f 47 50 45
f 1 44 2
f 44 46 54
f 2 54 4
f 44 54 2
f 46 51 55
f 51 53 56
f 55 56 57
f 51 56 55
f 4 58 7
f 58 57 59
f 7 59 9
f 58 59 7
f 46 55 54
f 55 57 58
f 54 58 4
f 55 58 54
f 9 60 10
f 61 62 63
f 64 63 15
f 61 63 64
f 62 65 66
f 65 67 68
f 66 68 69
f 65 68 66
f 15 70 16
f 70 69 71
f 16 71 18
f 70 71 16
f 62 66 63
f 66 69 70
f 63 70 15
f 66 70 63
f 18 71 72
f 71 69 73
f 72 73 74
f 71 73 72
f 69 68 75
f 68 67 76
f 75 76 77
f 68 76 75
f 74 78 79
f 78 77 80
f 79 80 81
f 78 80 79
f 69 75 73
f 75 77 78
f 73 78 74
f 75 78 73
f 18 72 24
f 72 74 82
f 24 82 25
f 72 82 24
f 74 79 83
f 79 81 84
f 83 84 85
f 79 84 83
f 25 86 29
f 86 85 87
f 29 87 31
f 86 87 29
f 74 83 82
f 83 85 86
f 82 86 25
f 83 86 82
f 31 87 88
f 87 85 89
f 88 89 90
f 87 89 88
f 85 84 91
f 84 81 92
f 91 92 93
f 84 92 91
f 90 94 95
f 94 93 96
f 95 96 97
f 94 96 95
f 85 91 89
f 91 93 94
f 89 94 90
f 91 94 89
f 31 88 98
f 88 90 99
f 38 100 39
f 101 100 38
f 90 95 102
f 95 97 103
f 104 105 106
f 95 103 102
f 39 107 42
f 107 106 108
f 42 108 43
f 107 108 42
f 90 102 99
f 104 106 107
f 100 107 39
f 104 107 100
f 43 108 109
f 108 106 110
f 109 110 111
f 108 110 109
f 106 105 112
f 103 97 113
f 112 114 115
f 105 114 112
f 111 116 117
f 116 115 118
f 117 118 119
f 116 118 117
f 106 112 110
f 112 115 116
f 110 116 111
f 112 116 110
f 43 109 48
f 109 111 120
f 48 120 49
f 109 120 48
f 111 117 121
f 117 119 122
f 121 122 123
f 117 122 121
f 49 124 52
f 124 123 125
f 52 125 53
f 124 125 52
f 111 121 120
f 121 123 124
f 120 124 49
f 121 124 120
f 53 125 126
f 125 123 127
f 126 127 128
f 125 127 126
f 123 122 129
f 122 119 130
f 129 130 131
f 122 130 129
f 128 132 133
f 132 131 134
f 133 134 135
f 132 134 133
f 123 129 127
f 129 131 132
f 127 132 128
f 129 132 127
f 53 126 56
f 126 128 136
f 56 136 57
f 126 136 56
f 128 133 137
f 133 135 138
f 137 138 139
f 133 138 137
f 57 140 59
f 140 139 141
f 59 141 9
f 140 141 59
f 128 137 136
f 137 139 140
f 136 140 57
f 137 140 136
f 9 141 60
f 141 139 142
f 61 143 62
f 141 142 60
f 139 138 144
f 138 135 145
f 146 147 148
f 149 147 146
f 62 150 65
f 150 148 151
f 65 151 67
f 150 151 65
f 139 144 142
f 146 148 150
f 143 150 62
f 146 150 143
f 152 153 154
f 153 155 156
f 154 156 157
f 153 156 154
f 155 158 159
f 158 81 80
f 159 80 77
f 158 80 159
f 157 160 161
f 160 77 76
f 161 76 67
f 160 76 161
f 155 159 156
f 159 77 160
f 156 160 157
f 159 160 156
f 152 162 153
f 162 163 164
f 153 164 155
f 162 164 153
f 163 165 166
f 165 97 96
f 166 96 93
f 165 96 166
f 155 167 158
f 167 93 92
f 158 92 81
f 167 92 158
f 163 166 164
f 166 93 167
f 164 167 155
f 166 167 164
f 152 168 162
f 168 169 170
f 162 170 163
f 168 170 162
f 169 171 172
f 173 119 118
f 174 118 115
f 173 118 174
f 163 175 165
f 175 176 113
f 165 113 97
f 175 113 165
f 169 172 170
f 172 176 175
f 170 175 163
f 172 175 170
f 152 177 168
f 177 178 179
f 168 179 169
f 177 179 168
f 178 180 181
f 182 135 134
f 183 134 131
f 182 134 183
f 184 185 173
f 185 131 130
f 173 130 119
f 185 130 173
f 178 181 179
f 183 131 185
f 179 186 169
f 181 186 179
f 152 154 177
f 154 157 187
f 177 187 178
f 154 187 177
f 157 161 188
f 161 67 151
f 188 151 148
f 161 151 188
f 178 189 180
f 189 148 147
f 180 147 190
f 189 147 180
f 157 188 187
f 188 148 189
f 187 189 178
f 188 189 187
f 10 64 11
f 11 64 15
f 12 14 13
f 13 14 17
f 13 17 6
f 6 17 22
f 11 15 12
f 12 15 14
f 26 28 27
f 27 28 30
f 6 22 32
f 32 22 23
f 32 23 26
f 26 23 28
f 27 30 37
f 37 30 31
f 37 31 38
f 38 31 98
f 60 61 10
f 10 61 64
f 101 88 100
f 100 88 99
f 38 98 101
f 101 98 88
f 104 102 105
f 105 102 103
f 100 99 104
f 104 99 102
f 114 113 115
f 115 113 176
f 105 103 114
f 114 103 113
f 142 143 60
f 60 143 61
f 138 149 144
f 144 149 146
f 135 190 145
f 145 190 147
f 145 147 138
f 138 147 149
f 144 146 142
f 142 146 143
f 115 176 174
f 174 176 172
f 174 172 173
f 173 172 171
f 182 180 135
f 135 180 190
f 183 181 182
f 182 181 180
f 184 169 185
f 185 169 186
f 173 171 184
f 184 171 169
f 185 186 183
f 183 186 181
