v -0.493443 1.22377 0.547557
v -0.458573 1.17996 0.543083
v -0.464156 1.22875 0.499875
v -0.435307 1.13052 0.53
v -0.431911 1.18112 0.491445
v -0.446047 1.22439 0.446875
v -0.425414 1.07924 0.509305
v -0.412198 1.12125 0.471364
v -0.42965 1.03001 0.482573
v -0.411507 1.06883 0.446244
v -0.40855 1.1105 0.408678
v -0.417845 1.1706 0.427662
v -0.440495 1.21104 0.392589
v -0.417845 1.15158 0.347662
v -0.40855 1.09149 0.328678
v -0.421004 1.13283 0.292735
v -0.440495 1.19202 0.312589
v -0.447922 1.17069 0.261152
v -0.516396 1.26448 0.516379
v -0.490396 1.26662 0.464436
v -0.54655 1.29314 0.478626
v -0.476329 1.25609 0.400653
v -0.478827 1.21735 0.266032
v -0.476329 1.23708 0.320653
v -0.519793 1.2541 0.277304
v -0.529166 1.29223 0.417345
v -0.581611 1.30757 0.437171
v -0.529166 1.27322 0.337345
v -0.567703 1.27815 0.29411
v -0.567703 1.29716 0.37411
v -0.618908 1.30668 0.39517
v -0.519793 1.27312 0.357304
v -0.543099 1.23778 0.569786
v -0.570242 1.27575 0.535146
v -0.597924 1.24177 0.581374
v -0.609013 1.30137 0.488056
v -0.646646 1.3062 0.44402
v -0.671671 1.2905 0.491803
v -0.636022 1.27436 0.542074
v -0.653745 1.23544 0.581439
v -0.692077 1.26077 0.534882
v -0.706311 1.21927 0.569976
v -0.507363 1.18554 0.58629
v -0.561106 1.19591 0.605857
v -0.529172 1.14126 0.613125
v -0.626886 1.19451 0.612785
v -0.683044 1.18182 0.604793
v -0.654293 1.13862 0.626303
v -0.590741 1.14168 0.629478
v -0.55721 1.09432 0.626021
v -0.622246 1.09295 0.63287
v -0.589343 1.04829 0.623995
v -0.475613 1.13742 0.578848
v -0.505248 1.08319 0.602468
v -0.53772 1.03512 0.606167
v -0.491675 1.02737 0.574929
v -0.4559 1.07755 0.558767
v -0.454714 1.02563 0.532658
v -0.432211 1.00879 0.430623
v -0.432211 0.989772 0.350623
v -0.448382 0.975961 0.298626
v -0.419072 1.03097 0.311781
v -0.411507 1.04982 0.366244
v -0.476932 0.970618 0.250539
v -0.44566 1.01958 0.25228
v -0.515688 0.97415 0.210024
v -0.482515 1.01941 0.207332
v -0.459122 1.06983 0.2155
v -0.424719 1.08032 0.26808
v -0.447291 1.12157 0.233907
v -0.483027 1.17381 0.217404
v -0.487452 1.12177 0.191886
v -0.527875 1.17033 0.183749
v -0.508393 1.06103 0.176087
v -0.538955 1.0116 0.175208
v -0.567707 1.0548 0.153697
v -0.544538 1.11387 0.159394
v -0.57905 1.16052 0.16275
v -0.599754 1.10048 0.14713
v -0.632657 1.14514 0.156006
v -0.519348 1.21865 0.224378
v -0.576434 1.21075 0.191886
v -0.63129 1.19626 0.179254
v -0.628378 1.23908 0.2155
v -0.572186 1.2548 0.241071
v -0.624143 1.27034 0.261985
v -0.618908 1.28766 0.31517
v -0.672933 1.27593 0.305193
v -0.67862 1.25254 0.25228
v -0.722243 1.24982 0.298626
v -0.682869 1.2085 0.203096
v -0.68428 1.1583 0.173833
v -0.730325 1.16605 0.205071
v -0.732217 1.21415 0.246798
v -0.763086 1.21134 0.29597
v -0.767286 1.1678 0.247342
v -0.79235 1.16341 0.297427
v -0.672933 1.29494 0.385192
v -0.722243 1.26884 0.378626
v -0.701381 1.28859 0.435483
v -0.763086 1.23035 0.37597
v -0.754977 1.2502 0.43
v -0.789789 1.18464 0.349377
v -0.789789 1.20365 0.429377
v -0.773618 1.21746 0.481374
v -0.72839 1.26158 0.489501
v -0.745067 1.2228 0.529461
v -0.739485 1.17401 0.572668
v -0.77634 1.17384 0.52772
v -0.762878 1.1236 0.5645
v -0.802927 1.16245 0.468219
v -0.810493 1.12459 0.333756
v -0.810493 1.1436 0.413756
v -0.81345 1.10194 0.451322
v -0.797281 1.1131 0.51192
v -0.774709 1.07185 0.546093
v -0.800996 1.0606 0.487265
v -0.774078 1.02273 0.518848
v -0.713607 1.13239 0.603913
v -0.734548 1.07165 0.588114
v -0.738973 1.01961 0.562596
v -0.694125 1.02309 0.596251
v -0.677462 1.07955 0.620606
v -0.64295 1.0329 0.61725
v -0.59071 0.997162 0.600746
v -0.645565 0.982669 0.588114
v -0.593622 0.95434 0.5645
v -0.702652 0.974772 0.555622
v -0.743173 0.97607 0.513968
v -0.702206 0.939318 0.502696
v -0.649814 0.938627 0.538929
v -0.597857 0.92308 0.518015
v -0.654297 0.915271 0.485891
v -0.603092 0.90576 0.46483
v -0.539131 0.984921 0.576904
v -0.54338 0.940878 0.52772
v -0.549067 0.917497 0.474808
v -0.499756 0.9436 0.481374
v -0.489783 0.979274 0.533203
v -0.458914 0.982082 0.48403
v -0.458914 0.963069 0.40403
v -0.499756 0.924587 0.401374
v -0.467023 0.943227 0.35
v -0.549067 0.898484 0.394808
v -0.520619 0.904831 0.344517
v -0.603092 0.886747 0.38483
v -0.575353 0.887225 0.33598
v -0.550329 0.902927 0.288197
v -0.49361 0.93184 0.290499
v -0.529923 0.932656 0.245118
v -0.728557 0.969647 0.232443
v -0.714637 1.00788 0.19371
v -0.678901 0.955643 0.210214
v -0.692828 1.05216 0.166875
v -0.660894 0.997516 0.174143
v -0.624076 0.951654 0.198626
v -0.66479 1.0991 0.153979
v -0.631259 1.05175 0.150523
v -0.595114 0.998908 0.167215
v -0.568255 0.957984 0.198561
v -0.763427 1.01347 0.236918
v -0.786693 1.0629 0.25
v -0.746387 1.056 0.201152
v -0.796586 1.11418 0.270695
v -0.7661 1.11588 0.221233
v -0.716752 1.11023 0.177532
v -0.757844 0.964676 0.280125
v -0.775953 0.969032 0.333126
v -0.790089 1.0123 0.288556
v -0.781505 0.982384 0.387411
v -0.804155 1.02283 0.352338
v -0.781505 1.0014 0.467411
v -0.804155 1.04184 0.432338
v -0.809802 1.07217 0.308637
v -0.81345 1.08292 0.371322
v -0.705604 0.92894 0.263621
v -0.67545 0.90028 0.301374
v -0.731604 0.926806 0.315565
v -0.640389 0.885849 0.342829
v -0.692833 0.901188 0.362655
v -0.654297 0.896258 0.405891
v -0.692833 0.920201 0.442655
v -0.745671 0.937333 0.379347
v -0.745671 0.956347 0.459347
v -0.702206 0.920304 0.422696
v -0.651758 0.91767 0.244854
v -0.585977 0.919061 0.237926
v -0.612987 0.892052 0.291944
f 1 2 3
f 2 4 5
f 3 5 6
f 2 5 3
f 4 7 8
f 7 9 10
f 8 10 11
f 7 10 8
f 6 12 13
f 14 15 16
f 17 16 18
f 14 16 17
f 4 8 5
f 8 11 12
f 5 12 6
f 8 12 5
f 1 3 19
f 3 6 20
f 19 20 21
f 3 20 19
f 6 13 22
f 17 18 23
f 24 23 25
f 17 23 24
f 21 26 27
f 28 25 29
f 27 30 31
f 26 30 27
f 6 22 20
f 22 32 26
f 20 26 21
f 22 26 20
f 1 19 33
f 19 21 34
f 33 34 35
f 19 34 33
f 21 27 36
f 27 31 37
f 36 37 38
f 27 37 36
f 35 39 40
f 39 38 41
f 40 41 42
f 39 41 40
f 21 36 34
f 36 38 39
f 34 39 35
f 36 39 34
f 1 33 43
f 33 35 44
f 43 44 45
f 33 44 43
f 35 40 46
f 40 42 47
f 46 47 48
f 40 47 46
f 45 49 50
f 49 48 51
f 50 51 52
f 49 51 50
f 35 46 44
f 46 48 49
f 44 49 45
f 46 49 44
f 1 43 2
f 43 45 53
f 2 53 4
f 43 53 2
f 45 50 54
f 50 52 55
f 54 55 56
f 50 55 54
f 4 57 7
f 57 56 58
f 7 58 9
f 57 58 7
f 45 54 53
f 54 56 57
f 53 57 4
f 54 57 53
f 9 59 10
f 60 61 62
f 63 62 15
f 60 62 63
f 61 64 65
f 64 66 67
f 65 67 68
f 64 67 65
f 15 69 16
f 69 68 70
f 16 70 18
f 69 70 16
f 61 65 62
f 65 68 69
f 62 69 15
f 65 69 62
f 18 70 71
f 70 68 72
f 71 72 73
f 70 72 71
f 68 67 74
f 67 66 75
f 74 75 76
f 67 75 74
f 73 77 78
f 77 76 79
f 78 79 80
f 77 79 78
f 68 74 72
f 74 76 77
f 72 77 73
f 74 77 72
f 18 71 23
f 71 73 81
f 23 81 25
f 71 81 23
f 73 78 82
f 78 80 83
f 82 83 84
f 78 83 82
f 25 85 29
f 85 84 86
f 29 86 87
f 85 86 29
f 73 82 81
f 82 84 85
f 81 85 25
f 82 85 81
f 87 86 88
f 86 84 89
f 88 89 90
f 86 89 88
f 84 83 91
f 83 80 92
f 91 92 93
f 83 92 91
f 90 94 95
f 94 93 96
f 95 96 97
f 94 96 95
f 84 91 89
f 91 93 94
f 89 94 90
f 91 94 89
f 31 98 37
f 98 99 100
f 37 100 38
f 98 100 37
f 99 101 102
f 95 97 103
f 102 104 105
f 101 104 102
f 38 106 41
f 106 105 107
f 41 107 42
f 106 107 41
f 99 102 100
f 102 105 106
f 100 106 38
f 102 106 100
f 42 107 108
f 107 105 109
f 108 109 110
f 107 109 108
f 105 104 111
f 103 97 112
f 111 113 114
f 104 113 111
f 110 115 116
f 115 114 117
f 116 117 118
f 115 117 116
f 105 111 109
f 111 114 115
f 109 115 110
f 111 115 109
f 42 108 47
f 108 110 119
f 47 119 48
f 108 119 47
f 110 116 120
f 116 118 121
f 120 121 122
f 116 121 120
f 48 123 51
f 123 122 124
f 51 124 52
f 123 124 51
f 110 120 119
f 120 122 123
f 119 123 48
f 120 123 119
f 52 124 125
f 124 122 126
f 125 126 127
f 124 126 125
f 122 121 128
f 121 118 129
f 128 129 130
f 121 129 128
f 127 131 132
f 131 130 133
f 132 133 134
f 131 133 132
f 122 128 126
f 128 130 131
f 126 131 127
f 128 131 126
f 52 125 55
f 125 127 135
f 55 135 56
f 125 135 55
f 127 132 136
f 132 134 137
f 136 137 138
f 132 137 136
f 56 139 58
f 139 138 140
f 58 140 9
f 139 140 58
f 127 136 135
f 136 138 139
f 135 139 56
f 136 139 135
f 9 140 59
f 141 142 143
f 60 143 61
f 141 143 60
f 142 144 145
f 144 146 147
f 145 147 148
f 144 147 145
f 61 149 64
f 149 148 150
f 64 150 66
f 149 150 64
f 142 145 143
f 145 148 149
f 143 149 61
f 145 149 143
f 151 152 153
f 152 154 155
f 153 155 156
f 152 155 153
f 154 157 158
f 157 80 79
f 158 79 76
f 157 79 158
f 156 159 160
f 159 76 75
f 160 75 66
f 159 75 160
f 154 158 155
f 158 76 159
f 155 159 156
f 158 159 155
f 151 161 152
f 161 162 163
f 152 163 154
f 161 163 152
f 162 164 165
f 164 97 96
f 165 96 93
f 164 96 165
f 154 166 157
f 166 93 92
f 157 92 80
f 166 92 157
f 162 165 163
f 165 93 166
f 163 166 154
f 165 166 163
f 151 167 161
f 167 168 169
f 161 169 162
f 167 169 161
f 168 170 171
f 172 118 117
f 173 117 114
f 172 117 173
f 162 174 164
f 174 175 112
f 164 112 97
f 174 112 164
f 168 171 169
f 171 175 174
f 169 174 162
f 171 174 169
f 151 176 167
f 176 177 178
f 167 178 168
f 176 178 167
f 177 179 180
f 179 146 181
f 182 133 130
f 179 181 180
f 168 183 170
f 184 130 129
f 172 129 118
f 184 129 172
f 177 180 178
f 180 185 183
f 178 183 168
f 180 183 178
f 151 153 176
f 153 156 186
f 176 186 177
f 153 186 176
f 156 160 187
f 160 66 150
f 187 150 148
f 160 150 187
f 177 188 179
f 188 148 147
f 179 147 146
f 188 147 179
f 156 187 186
f 187 148 188
f 186 188 177
f 187 188 186
f 10 63 11
f 11 63 15
f 12 14 13
f 13 14 17
f 11 15 12
f 12 15 14
f 13 17 22
f 22 17 24
f 30 29 31
f 31 29 87
f 26 28 30
f 30 28 29
f 22 24 32
f 32 24 25
f 32 25 26
f 26 25 28
f 59 60 10
f 10 60 63
f 31 87 98
f 98 87 88
f 98 88 99
f 99 88 90
f 99 90 101
f 101 90 95
f 101 95 104
f 104 95 103
f 113 112 114
f 114 112 175
f 104 103 113
f 113 103 112
f 133 181 134
f 134 181 146
f 134 146 137
f 137 146 144
f 137 144 138
f 138 144 142
f 138 142 140
f 140 142 141
f 140 141 59
f 59 141 60
f 114 175 173
f 173 175 171
f 173 171 172
f 172 171 170
f 182 180 133
f 133 180 181
f 130 185 182
f 182 185 180
f 184 183 130
f 130 183 185
f 172 170 184
f 184 170 183
