v -0.493443 1.20476 0.467557
v -0.458573 1.16094 0.463083
v -0.464156 1.20973 0.419876
v -0.435307 1.11151 0.45
v -0.431911 1.16211 0.411445
v -0.446047 1.20538 0.366875
v -0.425414 1.06023 0.429305
v -0.412198 1.10223 0.391364
v -0.42965 1.011 0.402573
v -0.411507 1.04982 0.366244
v -0.40855 1.09149 0.328678
v -0.446047 1.20719 0.246875
v -0.417845 1.15339 0.227662
v -0.440495 1.19383 0.192589
v -0.40855 1.0933 0.208678
v -0.421004 1.13464 0.172735
v -0.447922 1.1725 0.141152
v -0.417845 1.15158 0.347662
v -0.516396 1.24547 0.436379
v -0.490396 1.2476 0.384436
v -0.54655 1.27413 0.398626
v -0.476329 1.23888 0.200653
v -0.478827 1.21916 0.146032
v -0.519793 1.25591 0.157304
v -0.529166 1.27322 0.337345
v -0.581611 1.28856 0.357171
v -0.529166 1.27503 0.217345
v -0.567703 1.27996 0.17411
v -0.581611 1.29037 0.237171
v -0.618908 1.28947 0.19517
v -0.476329 1.23708 0.320653
v -0.490396 1.24941 0.264436
v -0.543099 1.21877 0.489786
v -0.570242 1.25674 0.455146
v -0.597924 1.22275 0.501374
v -0.609013 1.28236 0.408056
v -0.646646 1.28899 0.24402
v -0.646646 1.28718 0.36402
v -0.671671 1.27148 0.411804
v -0.636022 1.25535 0.462074
v -0.653745 1.21643 0.50144
v -0.692077 1.24175 0.454882
v -0.706311 1.20026 0.489976
v -0.507363 1.16653 0.50629
v -0.561106 1.17689 0.525857
v -0.529172 1.12225 0.533126
v -0.626886 1.1755 0.532785
v -0.683044 1.16281 0.524793
v -0.654293 1.1196 0.546303
v -0.590741 1.12266 0.549478
v -0.55721 1.07531 0.546021
v -0.622246 1.07393 0.552871
v -0.589343 1.02927 0.543995
v -0.475613 1.11841 0.498848
v -0.505248 1.06418 0.522468
v -0.53772 1.01611 0.526167
v -0.491675 1.00836 0.494929
v -0.4559 1.05853 0.478767
v -0.454714 1.00661 0.452658
v -0.432211 0.989772 0.350623
v -0.432211 0.991581 0.230623
v -0.448382 0.97777 0.178626
v -0.419072 1.03278 0.191781
v -0.411507 1.05163 0.246244
v -0.476932 0.972427 0.130539
v -0.44566 1.02139 0.13228
v -0.515688 0.975959 0.0900237
v -0.482515 1.02122 0.0873318
v -0.459122 1.07164 0.0955003
v -0.424719 1.08213 0.14808
v -0.447291 1.12338 0.113907
v -0.483027 1.17562 0.0974037
v -0.487452 1.12358 0.0718861
v -0.527875 1.17214 0.0637492
v -0.508393 1.06284 0.0560867
v -0.538955 1.01341 0.0552074
v -0.567707 1.05661 0.0336969
v -0.544538 1.11568 0.0393941
v -0.57905 1.16233 0.0427504
v -0.599754 1.10228 0.0271297
v -0.632657 1.14694 0.0360055
v -0.519348 1.22046 0.104378
v -0.576434 1.21256 0.0718861
v -0.63129 1.19807 0.0592541
v -0.628378 1.24089 0.0955003
v -0.572186 1.2566 0.121071
v -0.624143 1.27215 0.141985
v -0.672933 1.27773 0.185192
v -0.67862 1.25435 0.13228
v -0.722243 1.25163 0.178626
v -0.682869 1.21031 0.0830957
v -0.68428 1.16011 0.0538332
v -0.730325 1.16786 0.0850712
v -0.732217 1.21596 0.126797
v -0.763086 1.21315 0.17597
v -0.767286 1.1696 0.127342
v -0.79235 1.16522 0.177427
v -0.701381 1.27139 0.235483
v -0.701381 1.26958 0.355483
v -0.754977 1.23299 0.23
v -0.789789 1.18645 0.229377
v -0.754977 1.23118 0.35
v -0.789789 1.18464 0.349377
v -0.773618 1.19845 0.401374
v -0.72839 1.24257 0.409501
v -0.745067 1.20379 0.449461
v -0.739485 1.155 0.492668
v -0.77634 1.15482 0.44772
v -0.762878 1.10458 0.4845
v -0.802927 1.14344 0.388219
v -0.810493 1.1264 0.213756
v -0.810493 1.12459 0.333756
v -0.81345 1.08292 0.371322
v -0.797281 1.09409 0.43192
v -0.774709 1.05284 0.466093
v -0.800996 1.04158 0.407265
v -0.774078 1.00372 0.438848
v -0.713607 1.11337 0.523914
v -0.734548 1.05264 0.508114
v -0.738973 1.0006 0.482596
v -0.694125 1.00408 0.516251
v -0.677462 1.06054 0.540606
v -0.64295 1.01389 0.53725
v -0.59071 0.978149 0.520746
v -0.645565 0.963656 0.508114
v -0.593622 0.935327 0.4845
v -0.702652 0.955758 0.475622
v -0.743173 0.957056 0.433968
v -0.702206 0.920304 0.422696
v -0.649814 0.919613 0.45893
v -0.597857 0.904066 0.438015
v -0.654297 0.896258 0.405891
v -0.603092 0.886747 0.38483
v -0.539131 0.965907 0.496904
v -0.54338 0.921864 0.44772
v -0.549067 0.898484 0.394808
v -0.499756 0.924587 0.401374
v -0.489783 0.960261 0.453203
v -0.458914 0.963069 0.40403
v -0.467023 0.943227 0.35
v -0.467023 0.945036 0.23
v -0.520619 0.904831 0.344517
v -0.575353 0.887225 0.33598
v -0.520619 0.906639 0.224517
v -0.575353 0.889034 0.21598
v -0.550329 0.904735 0.168197
v -0.49361 0.933648 0.170499
v -0.529923 0.934465 0.125118
v -0.728557 0.971456 0.112443
v -0.714637 1.00969 0.0737102
v -0.678901 0.957452 0.0902139
v -0.692828 1.05397 0.0468746
v -0.660894 0.999325 0.0541431
v -0.624076 0.953463 0.0786257
v -0.66479 1.10091 0.0339792
v -0.631259 1.05355 0.0305226
v -0.595114 1.00072 0.0472151
v -0.568255 0.959792 0.0785607
v -0.763427 1.01527 0.116917
v -0.786693 1.06471 0.13
v -0.746387 1.05781 0.0811522
v -0.796586 1.11599 0.150695
v -0.7661 1.11768 0.101233
v -0.716752 1.11204 0.0575317
v -0.757844 0.966485 0.160125
v -0.775953 0.970841 0.213125
v -0.790089 1.01411 0.168555
v -0.775953 0.969032 0.333126
v -0.781505 0.982384 0.387411
v -0.804155 1.02283 0.352338
v -0.809802 1.07398 0.188637
v -0.81345 1.08473 0.251322
v -0.804155 1.02464 0.232338
v -0.705604 0.930749 0.143621
v -0.67545 0.902089 0.181374
v -0.731604 0.928614 0.195564
v -0.640389 0.887658 0.222829
v -0.692833 0.902997 0.242655
v -0.640389 0.885849 0.342829
v -0.692833 0.901188 0.362655
v -0.745671 0.937333 0.379347
v -0.745671 0.939142 0.259347
v -0.731604 0.926806 0.315565
v -0.651758 0.919478 0.124854
v -0.585977 0.92087 0.117926
v -0.612987 0.89386 0.171944
f 1 2 3
f 2 4 5
f 3 5 6
f 2 5 3
f 4 7 8
f 7 9 10
f 8 10 11
f 7 10 8
f 12 13 14
f 13 15 16
f 14 16 17
f 13 16 14
f 4 8 5
f 8 11 18
f 5 18 6
f 8 18 5
f 1 3 19
f 3 6 20
f 19 20 21
f 3 20 19
f 12 14 22
f 14 17 23
f 22 23 24
f 14 23 22
f 21 25 26
f 27 24 28
f 29 28 30
f 27 28 29
f 6 31 20
f 22 24 27
f 20 25 21
f 22 27 32
f 1 19 33
f 19 21 34
f 33 34 35
f 19 34 33
f 21 26 36
f 29 30 37
f 36 38 39
f 26 38 36
f 35 40 41
f 40 39 42
f 41 42 43
f 40 42 41
f 21 36 34
f 36 39 40
f 34 40 35
f 36 40 34
f 1 33 44
f 33 35 45
f 44 45 46
f 33 45 44
f 35 41 47
f 41 43 48
f 47 48 49
f 41 48 47
f 46 50 51
f 50 49 52
f 51 52 53
f 50 52 51
f 35 47 45
f 47 49 50
f 45 50 46
f 47 50 45
f 1 44 2
f 44 46 54
f 2 54 4
f 44 54 2
f 46 51 55
f 51 53 56
f 55 56 57
f 51 56 55
f 4 58 7
f 58 57 59
f 7 59 9
f 58 59 7
f 46 55 54
f 55 57 58
f 54 58 4
f 55 58 54
f 9 60 10
f 61 62 63
f 64 63 15
f 61 63 64
f 62 65 66
f 65 67 68
f 66 68 69
f 65 68 66
f 15 70 16
f 70 69 71
f 16 71 17
f 70 71 16
f 62 66 63
f 66 69 70
f 63 70 15
f 66 70 63
f 17 71 72
f 71 69 73
f 72 73 74
f 71 73 72
f 69 68 75
f 68 67 76
f 75 76 77
f 68 76 75
f 74 78 79
f 78 77 80
f 79 80 81
f 78 80 79
f 69 75 73
f 75 77 78
f 73 78 74
f 75 78 73
f 17 72 23
f 72 74 82
f 23 82 24
f 72 82 23
f 74 79 83
f 79 81 84
f 83 84 85
f 79 84 83
f 24 86 28
f 86 85 87
f 28 87 30
f 86 87 28
f 74 83 82
f 83 85 86
f 82 86 24
f 83 86 82
f 30 87 88
f 87 85 89
f 88 89 90
f 87 89 88
f 85 84 91
f 84 81 92
f 91 92 93
f 84 92 91
f 90 94 95
f 94 93 96
f 95 96 97
f 94 96 95
f 85 91 89
f 91 93 94
f 89 94 90
f 91 94 89
f 30 88 37
f 88 90 98
f 38 99 39
f 88 98 37
f 90 95 100
f 95 97 101
f 102 103 104
f 95 101 100
f 39 105 42
f 105 104 106
f 42 106 43
f 105 106 42
f 90 100 98
f 102 104 105
f 99 105 39
f 102 105 99
f 43 106 107
f 106 104 108
f 107 108 109
f 106 108 107
f 104 103 110
f 101 97 111
f 110 112 113
f 103 112 110
f 109 114 115
f 114 113 116
f 115 116 117
f 114 116 115
f 104 110 108
f 110 113 114
f 108 114 109
f 110 114 108
f 43 107 48
f 107 109 118
f 48 118 49
f 107 118 48
f 109 115 119
f 115 117 120
f 119 120 121
f 115 120 119
f 49 122 52
f 122 121 123
f 52 123 53
f 122 123 52
f 109 119 118
f 119 121 122
f 118 122 49
f 119 122 118
f 53 123 124
f 123 121 125
f 124 125 126
f 123 125 124
f 121 120 127
f 120 117 128
f 127 128 129
f 120 128 127
f 126 130 131
f 130 129 132
f 131 132 133
f 130 132 131
f 121 127 125
f 127 129 130
f 125 130 126
f 127 130 125
f 53 124 56
f 124 126 134
f 56 134 57
f 124 134 56
f 126 131 135
f 131 133 136
f 135 136 137
f 131 136 135
f 57 138 59
f 138 137 139
f 59 139 9
f 138 139 59
f 126 135 134
f 135 137 138
f 134 138 57
f 135 138 134
f 9 139 60
f 139 137 140
f 61 141 62
f 139 140 60
f 137 136 142
f 136 133 143
f 144 145 146
f 136 143 142
f 62 147 65
f 147 146 148
f 65 148 67
f 147 148 65
f 137 142 140
f 144 146 147
f 141 147 62
f 144 147 141
f 149 150 151
f 150 152 153
f 151 153 154
f 150 153 151
f 152 155 156
f 155 81 80
f 156 80 77
f 155 80 156
f 154 157 158
f 157 77 76
f 158 76 67
f 157 76 158
f 152 156 153
f 156 77 157
f 153 157 154
f 156 157 153
f 149 159 150
f 159 160 161
f 150 161 152
f 159 161 150
f 160 162 163
f 162 97 96
f 163 96 93
f 162 96 163
f 152 164 155
f 164 93 92
f 155 92 81
f 164 92 155
f 160 163 161
f 163 93 164
f 161 164 152
f 163 164 161
f 149 165 159
f 165 166 167
f 159 167 160
f 165 167 159
f 168 169 170
f 169 117 116
f 170 116 113
f 169 116 170
f 160 171 162
f 171 172 111
f 162 111 97
f 171 111 162
f 166 173 167
f 173 172 171
f 167 171 160
f 173 171 167
f 149 174 165
f 174 175 176
f 165 176 166
f 174 176 165
f 175 177 178
f 179 133 132
f 180 132 129
f 179 132 180
f 168 181 169
f 181 129 128
f 169 128 117
f 181 128 169
f 175 178 176
f 180 129 181
f 176 182 166
f 180 181 183
f 149 151 174
f 151 154 184
f 174 184 175
f 151 184 174
f 154 158 185
f 158 67 148
f 185 148 146
f 158 148 185
f 175 186 177
f 186 146 145
f 179 143 133
f 186 145 177
f 154 185 184
f 185 146 186
f 184 186 175
f 185 186 184
f 10 64 11
f 11 64 15
f 11 15 18
f 18 15 13
f 18 13 6
f 6 13 12
f 25 27 26
f 26 27 29
f 6 12 31
f 31 12 22
f 31 22 20
f 20 22 32
f 20 32 25
f 25 32 27
f 26 29 38
f 38 29 37
f 60 61 10
f 10 61 64
f 38 37 99
f 99 37 98
f 102 100 103
f 103 100 101
f 99 98 102
f 102 98 100
f 112 111 113
f 113 111 172
f 103 101 112
f 112 101 111
f 140 141 60
f 60 141 61
f 143 145 142
f 142 145 144
f 142 144 140
f 140 144 141
f 170 173 168
f 168 173 166
f 113 172 170
f 170 172 173
f 180 178 179
f 179 178 177
f 168 166 181
f 181 166 182
f 181 182 183
f 183 182 176
f 183 176 180
f 180 176 178
f 179 177 143
f 143 177 145
