v -0.493443 1.20657 0.347557
v -0.458573 1.16275 0.343083
v -0.464156 1.21154 0.299875
v -0.435307 1.11332 0.33
v -0.431911 1.16392 0.291445
v -0.446047 1.20719 0.246875
v -0.425414 1.06204 0.309305
v -0.412198 1.10404 0.271363
v -0.42965 1.01281 0.282573
v -0.411507 1.05163 0.246244
v -0.40855 1.0933 0.208678
v -0.417845 1.15339 0.227662
v -0.440495 1.19383 0.192589
v -0.417845 1.13423 0.147662
v -0.40855 1.07414 0.128678
v -0.421004 1.11548 0.0927354
v -0.440495 1.17468 0.112589
v -0.447922 1.15334 0.0611518
v -0.516396 1.24728 0.316379
v -0.490396 1.24941 0.264436
v -0.54655 1.27594 0.278626
v -0.476329 1.23888 0.200653
v -0.478827 1.2 0.0660318
v -0.476329 1.21973 0.120653
v -0.519793 1.23675 0.0773038
v -0.529166 1.27503 0.217345
v -0.581611 1.29037 0.237171
v -0.529166 1.25587 0.137345
v -0.567703 1.2608 0.0941096
v -0.567703 1.27996 0.17411
v -0.618908 1.28947 0.19517
v -0.519793 1.25591 0.157304
v -0.543099 1.22057 0.369786
v -0.570242 1.25855 0.335146
v -0.597924 1.22456 0.381374
v -0.609013 1.28417 0.288056
v -0.646646 1.28899 0.24402
v -0.671671 1.27329 0.291803
v -0.636022 1.25716 0.342074
v -0.653745 1.21823 0.381439
v -0.692077 1.24356 0.334882
v -0.706311 1.20207 0.369976
v -0.507363 1.16833 0.38629
v -0.561106 1.1787 0.405857
v -0.529172 1.12406 0.413125
v -0.626886 1.17731 0.412785
v -0.683044 1.16462 0.404793
v -0.654293 1.12141 0.426303
v -0.590741 1.12447 0.429477
v -0.55721 1.07712 0.426021
v -0.622246 1.07574 0.43287
v -0.589343 1.03108 0.423995
v -0.475613 1.12022 0.378848
v -0.505248 1.06599 0.402468
v -0.53772 1.01792 0.406167
v -0.491675 1.01017 0.374929
v -0.4559 1.06034 0.358767
v -0.454714 1.00842 0.332658
v -0.432211 0.991581 0.230623
v -0.432211 0.972423 0.150623
v -0.448382 0.958611 0.0986258
v -0.419072 1.01362 0.111781
v -0.411507 1.03247 0.166244
v -0.476932 0.953268 0.0505391
v -0.44566 1.00223 0.0522803
v -0.515688 0.9568 0.0100238
v -0.482515 1.00206 0.00733189
v -0.459122 1.05248 0.0155004
v -0.424719 1.06297 0.0680798
v -0.447291 1.10422 0.0339074
v -0.483027 1.15646 0.0174038
v -0.487452 1.10442 -0.00811382
v -0.527875 1.15298 -0.0162507
v -0.508393 1.04369 -0.0239132
v -0.538955 0.99425 -0.0247925
v -0.567707 1.03745 -0.046303
v -0.544538 1.09652 -0.0406058
v -0.57905 1.14317 -0.0372496
v -0.599754 1.08313 -0.0528703
v -0.632657 1.12779 -0.0439944
v -0.519348 1.2013 0.0243782
v -0.576434 1.1934 -0.00811382
v -0.63129 1.17891 -0.0207459
v -0.628378 1.22173 0.0155004
v -0.572186 1.23745 0.0410707
v -0.624143 1.25299 0.0619852
v -0.618908 1.27031 0.11517
v -0.672933 1.25858 0.105192
v -0.67862 1.2352 0.0522803
v -0.722243 1.23247 0.0986258
v -0.682869 1.19115 0.00309582
v -0.68428 1.14095 -0.0261667
v -0.730325 1.1487 0.0050713
v -0.732217 1.1968 0.0467975
v -0.763086 1.19399 0.0959699
v -0.767286 1.15045 0.0473418
v -0.79235 1.14606 0.097427
v -0.672933 1.27773 0.185192
v -0.722243 1.25163 0.178626
v -0.701381 1.27139 0.235483
v -0.763086 1.21315 0.17597
v -0.754977 1.23299 0.23
v -0.789789 1.16729 0.149377
v -0.789789 1.18645 0.229377
v -0.773618 1.20026 0.281374
v -0.72839 1.24438 0.289501
v -0.745067 1.2056 0.329461
v -0.739485 1.15681 0.372668
v -0.77634 1.15663 0.32772
v -0.762878 1.10639 0.3645
v -0.802927 1.14525 0.268219
v -0.810493 1.10724 0.133756
v -0.810493 1.1264 0.213756
v -0.81345 1.08473 0.251322
v -0.797281 1.0959 0.31192
v -0.774709 1.05465 0.346093
v -0.800996 1.04339 0.287265
v -0.774078 1.00552 0.318848
v -0.713607 1.11518 0.403913
v -0.734548 1.05445 0.388114
v -0.738973 1.00241 0.362596
v -0.694125 1.00589 0.396251
v -0.677462 1.06235 0.420606
v -0.64295 1.01569 0.41725
v -0.59071 0.979957 0.400746
v -0.645565 0.965465 0.388114
v -0.593622 0.937135 0.3645
v -0.702652 0.957567 0.355622
v -0.743173 0.958865 0.313968
v -0.702206 0.922113 0.302696
v -0.649814 0.921422 0.338929
v -0.597857 0.905875 0.318015
v -0.654297 0.898066 0.28589
v -0.603092 0.888555 0.26483
v -0.539131 0.967716 0.376904
v -0.54338 0.923673 0.32772
v -0.549067 0.900292 0.274808
v -0.499756 0.926395 0.281374
v -0.489783 0.96207 0.333203
v -0.458914 0.964877 0.28403
v -0.458914 0.945719 0.20403
v -0.499756 0.907237 0.201374
v -0.467023 0.925878 0.15
v -0.549067 0.881134 0.194808
v -0.520619 0.887481 0.144517
v -0.603092 0.869397 0.18483
v -0.575353 0.869876 0.13598
v -0.550329 0.885577 0.0881967
v -0.49361 0.91449 0.090499
v -0.529923 0.915306 0.0451182
v -0.728557 0.952298 0.032443
v -0.714637 0.990534 -0.00628977
v -0.678901 0.938294 0.0102139
v -0.692828 1.03481 -0.0331253
v -0.660894 0.980167 -0.0258568
v -0.624076 0.934305 -0.00137424
v -0.66479 1.08175 -0.0460207
v -0.631259 1.0344 -0.0494773
v -0.595114 0.981558 -0.0327848
v -0.568255 0.940634 -0.00143926
v -0.763427 0.996117 0.0369175
v -0.786693 1.04555 0.0500001
v -0.746387 1.03865 0.00115226
v -0.796586 1.09683 0.0706951
v -0.7661 1.09853 0.0212334
v -0.716752 1.09288 -0.0224682
v -0.757844 0.947327 0.0801247
v -0.775953 0.951683 0.133125
v -0.790089 0.994949 0.0885555
v -0.781505 0.965035 0.187411
v -0.804155 1.00548 0.152338
v -0.781505 0.984193 0.267411
v -0.804155 1.02464 0.232338
v -0.809802 1.05482 0.108637
v -0.81345 1.06557 0.171322
v -0.705604 0.91159 0.063621
v -0.67545 0.882931 0.101374
v -0.731604 0.909456 0.115565
v -0.640389 0.8685 0.142829
v -0.692833 0.883838 0.162655
v -0.654297 0.878908 0.205891
v -0.692833 0.902997 0.242655
v -0.745671 0.919984 0.179347
v -0.745671 0.939142 0.259347
v -0.702206 0.902955 0.222696
v -0.651758 0.90032 0.0448538
v -0.585977 0.901711 0.0379259
v -0.612987 0.874702 0.0919441
f 1 2 3
f 2 4 5
f 3 5 6
f 2 5 3
f 4 7 8
f 7 9 10
f 8 10 11
f 7 10 8
f 6 12 13
f 14 15 16
f 17 16 18
f 14 16 17
f 4 8 5
f 8 11 12
f 5 12 6
f 8 12 5
f 1 3 19
f 3 6 20
f 19 20 21
f 3 20 19
f 6 13 22
f 17 18 23
f 24 23 25
f 17 23 24
f 21 26 27
f 28 25 29
f 27 30 31
f 26 30 27
f 6 22 20
f 22 32 26
f 20 26 21
f 22 26 20
f 1 19 33
f 19 21 34
f 33 34 35
f 19 34 33
f 21 27 36
f 27 31 37
f 36 37 38
f 27 37 36
f 35 39 40
f 39 38 41
f 40 41 42
f 39 41 40
f 21 36 34
f 36 38 39
f 34 39 35
f 36 39 34
f 1 33 43
f 33 35 44
f 43 44 45
f 33 44 43
f 35 40 46
f 40 42 47
f 46 47 48
f 40 47 46
f 45 49 50
f 49 48 51
f 50 51 52
f 49 51 50
f 35 46 44
f 46 48 49
f 44 49 45
f 46 49 44
f 1 43 2
f 43 45 53
f 2 53 4
f 43 53 2
f 45 50 54
f 50 52 55
f 54 55 56
f 50 55 54
f 4 57 7
f 57 56 58
f 7 58 9
f 57 58 7
f 45 54 53
f 54 56 57
f 53 57 4
f 54 57 53
f 9 59 10
f 60 61 62
f 63 62 15
f 60 62 63
f 61 64 65
f 64 66 67
f 65 67 68
f 64 67 65
f 15 69 16
f 69 68 70
f 16 70 18
f 69 70 16
f 61 65 62
f 65 68 69
f 62 69 15
f 65 69 62
f 18 70 71
f 70 68 72
f 71 72 73
f 70 72 71
f 68 67 74
f 67 66 75
f 74 75 76
f 67 75 74
f 73 77 78
f 77 76 79
f 78 79 80
f 77 79 78
f 68 74 72
f 74 76 77
f 72 77 73
f 74 77 72
f 18 71 23
f 71 73 81
f 23 81 25
f 71 81 23
f 73 78 82
f 78 80 83
f 82 83 84
f 78 83 82
f 25 85 29
f 85 84 86
f 29 86 87
f 85 86 29
f 73 82 81
f 82 84 85
f 81 85 25
f 82 85 81
f 87 86 88
f 86 84 89
f 88 89 90
f 86 89 88
f 84 83 91
f 83 80 92
f 91 92 93
f 83 92 91
f 90 94 95
f 94 93 96
f 95 96 97
f 94 96 95
f 84 91 89
f 91 93 94
f 89 94 90
f 91 94 89
f 31 98 37
f 98 99 100
f 37 100 38
f 98 100 37
f 99 101 102
f 95 97 103
f 102 104 105
f 101 104 102
f 38 106 41
f 106 105 107
f 41 107 42
f 106 107 41
f 99 102 100
f 102 105 106
f 100 106 38
f 102 106 100
f 42 107 108
f 107 105 109
f 108 109 110
f 107 109 108
f 105 104 111
f 103 97 112
f 111 113 114
f 104 113 111
f 110 115 116
f 115 114 117
f 116 117 118
f 115 117 116
f 105 111 109
f 111 114 115
f 109 115 110
f 111 115 109
f 42 108 47
f 108 110 119
f 47 119 48
f 108 119 47
f 110 116 120
f 116 118 121
f 120 121 122
f 116 121 120
f 48 123 51
f 123 122 124
f 51 124 52
f 123 124 51
f 110 120 119
f 120 122 123
f 119 123 48
f 120 123 119
f 52 124 125
f 124 122 126
f 125 126 127
f 124 126 125
f 122 121 128
f 121 118 129
f 128 129 130
f 121 129 128
f 127 131 132
f 131 130 133
f 132 133 134
f 131 133 132
f 122 128 126
f 128 130 131
f 126 131 127
f 128 131 126
f 52 125 55
f 125 127 135
f 55 135 56
f 125 135 55
f 127 132 136
f 132 134 137
f 136 137 138
f 132 137 136
f 56 139 58
f 139 138 140
f 58 140 9
f 139 140 58
f 127 136 135
f 136 138 139
f 135 139 56
f 136 139 135
f 9 140 59
f 141 142 143
f 60 143 61
f 141 143 60
f 142 144 145
f 144 146 147
f 145 147 148
f 144 147 145
f 61 149 64
f 149 148 150
f 64 150 66
f 149 150 64
f 142 145 143
f 145 148 149
f 143 149 61
f 145 149 143
f 151 152 153
f 152 154 155
f 153 155 156
f 152 155 153
f 154 157 158
f 157 80 79
f 158 79 76
f 157 79 158
f 156 159 160
f 159 76 75
f 160 75 66
f 159 75 160
f 154 158 155
f 158 76 159
f 155 159 156
f 158 159 155
f 151 161 152
f 161 162 163
f 152 163 154
f 161 163 152
f 162 164 165
f 164 97 96
f 165 96 93
f 164 96 165
f 154 166 157
f 166 93 92
f 157 92 80
f 166 92 157
f 162 165 163
f 165 93 166
f 163 166 154
f 165 166 163
f 151 167 161
f 167 168 169
f 161 169 162
f 167 169 161
f 168 170 171
f 172 118 117
f 173 117 114
f 172 117 173
f 162 174 164
f 174 175 112
f 164 112 97
f 174 112 164
f 168 171 169
f 171 175 174
f 169 174 162
f 171 174 169
f 151 176 167
f 176 177 178
f 167 178 168
f 176 178 167
f 177 179 180
f 179 146 181
f 182 133 130
f 179 181 180
f 168 183 170
f 184 130 129
f 172 129 118
f 184 129 172
f 177 180 178
f 180 185 183
f 178 183 168
f 180 183 178
f 151 153 176
f 153 156 186
f 176 186 177
f 153 186 176
f 156 160 187
f 160 66 150
f 187 150 148
f 160 150 187
f 177 188 179
f 188 148 147
f 179 147 146
f 188 147 179
f 156 187 186
f 187 148 188
f 186 188 177
f 187 188 186
f 10 63 11
f 11 63 15
f 12 14 13
f 13 14 17
f 11 15 12
f 12 15 14
f 13 17 22
f 22 17 24
f 30 29 31
f 31 29 87
f 26 28 30
f 30 28 29
f 22 24 32
f 32 24 25
f 32 25 26
f 26 25 28
f 59 60 10
f 10 60 63
f 31 87 98
f 98 87 88
f 98 88 99
f 99 88 90
f 99 90 101
f 101 90 95
f 101 95 104
f 104 95 103
f 113 112 114
f 114 112 175
f 104 103 113
f 113 103 112
f 133 181 134
f 134 181 146
f 134 146 137
f 137 146 144
f 137 144 138
f 138 144 142
f 138 142 140
f 140 142 141
f 140 141 59
f 59 141 60
f 114 175 173
f 173 175 171
f 173 171 172
f 172 171 170
f 182 180 133
f 133 180 181
f 130 185 182
f 182 185 180
f 184 183 130
f 130 183 185
f 172 170 184
f 184 170 183
