v -0.493443 1.18741 0.267557
v -0.458573 1.14359 0.263083
v -0.464156 1.19238 0.219875
v -0.435307 1.09416 0.25
v -0.431911 1.14476 0.211445
v -0.446047 1.18803 0.166875
v -0.425414 1.04288 0.229305
v -0.412198 1.08489 0.191364
v -0.42965 0.993651 0.202573
v -0.411507 1.03247 0.166244
v -0.40855 1.07414 0.128678
v -0.417845 1.13423 0.147662
v -0.440495 1.17468 0.112589
v -0.417845 1.12329 0.0676619
v -0.40855 1.0632 0.0486781
v -0.421004 1.10454 0.0127353
v -0.440495 1.16374 0.0325893
v -0.447922 1.14241 -0.0188482
v -0.516396 1.22812 0.236379
v -0.490396 1.23025 0.184436
v -0.54655 1.25678 0.198626
v -0.476329 1.21973 0.120653
v -0.478827 1.18906 -0.0139682
v -0.476329 1.20879 0.0406528
v -0.519793 1.22582 -0.00269625
v -0.529166 1.25587 0.137345
v -0.581611 1.27121 0.157171
v -0.529166 1.24493 0.0573454
v -0.567703 1.24986 0.0141096
v -0.567703 1.2608 0.0941096
v -0.618908 1.27031 0.11517
v -0.543099 1.20142 0.289786
v -0.570242 1.23939 0.255146
v -0.597924 1.20541 0.301374
v -0.609013 1.26501 0.208056
v -0.646646 1.26983 0.16402
v -0.671671 1.25413 0.211804
v -0.636022 1.238 0.262074
v -0.653745 1.19908 0.301439
v -0.692077 1.2244 0.254882
v -0.706311 1.18291 0.289976
v -0.507363 1.14918 0.30629
v -0.561106 1.15954 0.325857
v -0.529172 1.1049 0.333126
v -0.626886 1.15815 0.332785
v -0.683044 1.14546 0.324793
v -0.654293 1.10226 0.346303
v -0.590741 1.10531 0.349477
v -0.55721 1.05796 0.346021
v -0.622246 1.05658 0.35287
v -0.589343 1.01192 0.343995
v -0.475613 1.10106 0.298848
v -0.505248 1.04683 0.322468
v -0.53772 0.998761 0.326167
v -0.491675 0.991012 0.294929
v -0.4559 1.04118 0.278767
v -0.454714 0.989264 0.252658
v -0.432211 0.972423 0.150623
v -0.432211 0.961484 0.0706232
v -0.448382 0.947673 0.0186257
v -0.419072 1.00268 0.0317813
v -0.411507 1.02153 0.0862439
v -0.476932 0.94233 -0.0294609
v -0.44566 0.991296 -0.0277197
v -0.515688 0.945862 -0.0699763
v -0.482515 0.991119 -0.0726682
v -0.459122 1.04154 -0.0644997
v -0.424719 1.05203 -0.0119203
v -0.447291 1.09328 -0.0460926
v -0.483027 1.14552 -0.0625963
v -0.487452 1.09348 -0.0881139
v -0.527875 1.14204 -0.0962507
v -0.508393 1.03275 -0.103913
v -0.538955 0.983311 -0.104793
v -0.567707 1.02652 -0.126303
v -0.544538 1.08558 -0.120606
v -0.57905 1.13224 -0.11725
v -0.599754 1.07219 -0.13287
v -0.632657 1.11685 -0.123994
v -0.519348 1.19036 -0.0556219
v -0.576434 1.18246 -0.0881139
v -0.63129 1.16797 -0.100746
v -0.628378 1.21079 -0.0644997
v -0.572186 1.22651 -0.0389293
v -0.624143 1.24205 -0.0180148
v -0.618908 1.25937 0.03517
v -0.672933 1.24764 0.0251924
v -0.67862 1.22426 -0.0277197
v -0.722243 1.22153 0.0186257
v -0.682869 1.18021 -0.0769042
v -0.68428 1.13001 -0.106167
v -0.730325 1.13776 -0.0749287
v -0.732217 1.18586 -0.0332026
v -0.763086 1.18305 0.0159699
v -0.767286 1.13951 -0.0326582
v -0.79235 1.13512 0.0174269
v -0.672933 1.25858 0.105192
v -0.701381 1.24129 0.075483
v -0.701381 1.25223 0.155483
v -0.754977 1.20289 0.0700001
v -0.789789 1.15635 0.069377
v -0.754977 1.21383 0.15
v -0.789789 1.16729 0.149377
v -0.773618 1.1811 0.201374
v -0.72839 1.22522 0.209501
v -0.745067 1.18644 0.249461
v -0.722243 1.23247 0.0986258
v -0.739485 1.13765 0.292668
v -0.77634 1.13748 0.24772
v -0.762878 1.08723 0.2845
v -0.802927 1.12609 0.188219
v -0.810493 1.0963 0.0537562
v -0.810493 1.10724 0.133756
v -0.81345 1.06557 0.171322
v -0.797281 1.07674 0.23192
v -0.774709 1.03549 0.266093
v -0.800996 1.02423 0.207265
v -0.774078 0.986366 0.238848
v -0.713607 1.09602 0.323913
v -0.734548 1.03529 0.308114
v -0.738973 0.983251 0.282596
v -0.694125 0.98673 0.316251
v -0.677462 1.04319 0.340606
v -0.64295 0.996536 0.33725
v -0.59071 0.960799 0.320746
v -0.645565 0.946307 0.308114
v -0.593622 0.917977 0.2845
v -0.702652 0.938409 0.275622
v -0.743173 0.939707 0.233968
v -0.702206 0.902955 0.222696
v -0.649814 0.902264 0.258929
v -0.597857 0.886717 0.238015
v -0.654297 0.878908 0.205891
v -0.603092 0.869397 0.18483
v -0.539131 0.948558 0.296904
v -0.54338 0.904515 0.24772
v -0.549067 0.881134 0.194808
v -0.499756 0.907237 0.201374
v -0.489783 0.942911 0.253203
v -0.458914 0.945719 0.20403
v -0.467023 0.925878 0.15
v -0.467023 0.914939 0.07
v -0.520619 0.887481 0.144517
v -0.549067 0.870195 0.114808
v -0.603092 0.858458 0.10483
v -0.575353 0.858937 0.0559797
v -0.520619 0.876542 0.0645171
v -0.550329 0.874638 0.00819663
v -0.49361 0.903551 0.010499
v -0.529923 0.904368 -0.0348818
v -0.499756 0.896298 0.121374
v -0.728557 0.941359 -0.047557
v -0.714637 0.979595 -0.0862898
v -0.678901 0.927355 -0.0697861
v -0.692828 1.02387 -0.113125
v -0.660894 0.969228 -0.105857
v -0.624076 0.923366 -0.0813743
v -0.66479 1.07081 -0.126021
v -0.631259 1.02346 -0.129477
v -0.595114 0.970619 -0.112785
v -0.568255 0.929695 -0.0814393
v -0.763427 0.985178 -0.0430826
v -0.786693 1.03461 -0.03
v -0.746387 1.02771 -0.0788478
v -0.796586 1.08589 -0.00930498
v -0.7661 1.08759 -0.0587666
v -0.716752 1.08194 -0.102468
v -0.757844 0.936388 0.000124648
v -0.775953 0.940744 0.0531254
v -0.790089 0.984011 0.00855542
v -0.781505 0.954096 0.107411
v -0.804155 0.994538 0.0723382
v -0.781505 0.965035 0.187411
v -0.804155 1.00548 0.152338
v -0.809802 1.04389 0.0286366
v -0.81345 1.05463 0.091322
v -0.705604 0.900652 -0.0163791
v -0.67545 0.871992 0.0213743
v -0.731604 0.898517 0.0355645
v -0.640389 0.857561 0.0628293
v -0.692833 0.8729 0.0826547
v -0.654297 0.867969 0.125891
v -0.692833 0.883838 0.162655
v -0.745671 0.909045 0.0993472
v -0.745671 0.919984 0.179347
v -0.651758 0.889381 -0.0351462
v -0.585977 0.890773 -0.0420741
v -0.612987 0.863763 0.011944
f 1 2 3
f 2 4 5
f 3 5 6
f 2 5 3
f 4 7 8
f 7 9 10
f 8 10 11
f 7 10 8
f 6 12 13
f 14 15 16
f 17 16 18
f 14 16 17
f 4 8 5
f 8 11 12
f 5 12 6
f 8 12 5
f 1 3 19
f 3 6 20
f 19 20 21
f 3 20 19
f 6 13 22
f 17 18 23
f 24 23 25
f 17 23 24
f 21 26 27
f 28 25 29
f 27 30 31
f 26 30 27
f 6 22 20
f 24 25 28
f 20 26 21
f 22 26 20
f 1 19 32
f 19 21 33
f 32 33 34
f 19 33 32
f 21 27 35
f 27 31 36
f 35 36 37
f 27 36 35
f 34 38 39
f 38 37 40
f 39 40 41
f 38 40 39
f 21 35 33
f 35 37 38
f 33 38 34
f 35 38 33
f 1 32 42
f 32 34 43
f 42 43 44
f 32 43 42
f 34 39 45
f 39 41 46
f 45 46 47
f 39 46 45
f 44 48 49
f 48 47 50
f 49 50 51
f 48 50 49
f 34 45 43
f 45 47 48
f 43 48 44
f 45 48 43
f 1 42 2
f 42 44 52
f 2 52 4
f 42 52 2
f 44 49 53
f 49 51 54
f 53 54 55
f 49 54 53
f 4 56 7
f 56 55 57
f 7 57 9
f 56 57 7
f 44 53 52
f 53 55 56
f 52 56 4
f 53 56 52
f 9 58 10
f 59 60 61
f 62 61 15
f 59 61 62
f 60 63 64
f 63 65 66
f 64 66 67
f 63 66 64
f 15 68 16
f 68 67 69
f 16 69 18
f 68 69 16
f 60 64 61
f 64 67 68
f 61 68 15
f 64 68 61
f 18 69 70
f 69 67 71
f 70 71 72
f 69 71 70
f 67 66 73
f 66 65 74
f 73 74 75
f 66 74 73
f 72 76 77
f 76 75 78
f 77 78 79
f 76 78 77
f 67 73 71
f 73 75 76
f 71 76 72
f 73 76 71
f 18 70 23
f 70 72 80
f 23 80 25
f 70 80 23
f 72 77 81
f 77 79 82
f 81 82 83
f 77 82 81
f 25 84 29
f 84 83 85
f 29 85 86
f 84 85 29
f 72 81 80
f 81 83 84
f 80 84 25
f 81 84 80
f 86 85 87
f 85 83 88
f 87 88 89
f 85 88 87
f 83 82 90
f 82 79 91
f 90 91 92
f 82 91 90
f 89 93 94
f 93 92 95
f 94 95 96
f 93 95 94
f 83 90 88
f 90 92 93
f 88 93 89
f 90 93 88
f 31 97 36
f 87 89 98
f 36 99 37
f 97 99 36
f 89 94 100
f 94 96 101
f 102 103 104
f 94 101 100
f 37 105 40
f 105 104 106
f 40 106 41
f 105 106 40
f 107 102 99
f 102 104 105
f 99 105 37
f 102 105 99
f 41 106 108
f 106 104 109
f 108 109 110
f 106 109 108
f 104 103 111
f 101 96 112
f 111 113 114
f 103 113 111
f 110 115 116
f 115 114 117
f 116 117 118
f 115 117 116
f 104 111 109
f 111 114 115
f 109 115 110
f 111 115 109
f 41 108 46
f 108 110 119
f 46 119 47
f 108 119 46
f 110 116 120
f 116 118 121
f 120 121 122
f 116 121 120
f 47 123 50
f 123 122 124
f 50 124 51
f 123 124 50
f 110 120 119
f 120 122 123
f 119 123 47
f 120 123 119
f 51 124 125
f 124 122 126
f 125 126 127
f 124 126 125
f 122 121 128
f 121 118 129
f 128 129 130
f 121 129 128
f 127 131 132
f 131 130 133
f 132 133 134
f 131 133 132
f 122 128 126
f 128 130 131
f 126 131 127
f 128 131 126
f 51 125 54
f 125 127 135
f 54 135 55
f 125 135 54
f 127 132 136
f 132 134 137
f 136 137 138
f 132 137 136
f 55 139 57
f 139 138 140
f 57 140 9
f 139 140 57
f 127 136 135
f 136 138 139
f 135 139 55
f 136 139 135
f 9 140 58
f 140 138 141
f 59 142 60
f 140 141 58
f 138 137 143
f 144 145 146
f 147 146 148
f 144 146 147
f 60 149 63
f 149 148 150
f 63 150 65
f 149 150 63
f 151 147 142
f 147 148 149
f 142 149 60
f 147 149 142
f 152 153 154
f 153 155 156
f 154 156 157
f 153 156 154
f 155 158 159
f 158 79 78
f 159 78 75
f 158 78 159
f 157 160 161
f 160 75 74
f 161 74 65
f 160 74 161
f 155 159 156
f 159 75 160
f 156 160 157
f 159 160 156
f 152 162 153
f 162 163 164
f 153 164 155
f 162 164 153
f 163 165 166
f 165 96 95
f 166 95 92
f 165 95 166
f 155 167 158
f 167 92 91
f 158 91 79
f 167 91 158
f 163 166 164
f 166 92 167
f 164 167 155
f 166 167 164
f 152 168 162
f 168 169 170
f 162 170 163
f 168 170 162
f 169 171 172
f 173 118 117
f 174 117 114
f 173 117 174
f 163 175 165
f 175 176 112
f 165 112 96
f 175 112 165
f 169 172 170
f 172 176 175
f 170 175 163
f 172 175 170
f 152 177 168
f 177 178 179
f 168 179 169
f 177 179 168
f 178 180 181
f 180 145 182
f 183 133 130
f 180 182 181
f 169 184 171
f 185 130 129
f 173 129 118
f 185 129 173
f 178 181 179
f 183 130 185
f 179 184 169
f 181 184 179
f 152 154 177
f 154 157 186
f 177 186 178
f 154 186 177
f 157 161 187
f 161 65 150
f 187 150 148
f 161 150 187
f 178 188 180
f 188 148 146
f 180 146 145
f 188 146 180
f 157 187 186
f 187 148 188
f 186 188 178
f 187 188 186
f 10 62 11
f 11 62 15
f 12 14 13
f 13 14 17
f 11 15 12
f 12 15 14
f 13 17 22
f 22 17 24
f 30 29 31
f 31 29 86
f 26 28 30
f 30 28 29
f 22 24 26
f 26 24 28
f 58 59 10
f 10 59 62
f 31 86 97
f 97 86 87
f 97 87 99
f 99 87 98
f 102 100 103
f 103 100 101
f 107 89 102
f 102 89 100
f 99 98 107
f 107 98 89
f 113 112 114
f 114 112 176
f 103 101 113
f 113 101 112
f 133 182 134
f 134 182 145
f 134 145 137
f 137 145 144
f 138 151 141
f 141 151 142
f 141 142 58
f 58 142 59
f 137 144 143
f 143 144 147
f 143 147 138
f 138 147 151
f 114 176 174
f 174 176 172
f 174 172 173
f 173 172 171
f 183 181 133
f 133 181 182
f 173 171 185
f 185 171 184
f 185 184 183
f 183 184 181
