v -0.493443 1.17647 0.187557
v -0.458573 1.13265 0.183083
v -0.464156 1.18144 0.139875
v -0.435307 1.08322 0.17
v -0.431911 1.13382 0.131445
v -0.446047 1.17709 0.0868747
v -0.425414 1.03194 0.149305
v -0.412198 1.07395 0.111364
v -0.42965 0.982712 0.122573
v -0.411507 1.02153 0.0862439
v -0.40855 1.0632 0.0486781
v -0.417845 1.12329 0.0676619
v -0.440495 1.16374 0.0325893
v -0.417845 1.09072 -0.0523381
v -0.40855 1.03063 -0.0713219
v -0.421004 1.07197 -0.107265
v -0.440495 1.13117 -0.0874107
v -0.447922 1.10984 -0.138848
v -0.516396 1.21718 0.156379
v -0.490396 1.21931 0.104436
v -0.54655 1.24584 0.118626
v -0.476329 1.20879 0.0406528
v -0.478827 1.15649 -0.133968
v -0.476329 1.17622 -0.0793472
v -0.519793 1.19325 -0.122696
v -0.529166 1.24493 0.0573454
v -0.581611 1.26027 0.0771708
v -0.519793 1.22582 -0.00269625
v -0.567703 1.24986 0.0141096
v -0.618908 1.25937 0.03517
v -0.543099 1.19048 0.209786
v -0.570242 1.22845 0.175146
v -0.597924 1.19447 0.221374
v -0.609013 1.25407 0.128056
v -0.646646 1.2589 0.0840204
v -0.671671 1.24319 0.131803
v -0.636022 1.22706 0.182074
v -0.653745 1.18814 0.221439
v -0.692077 1.21346 0.174882
v -0.706311 1.17197 0.209976
v -0.507363 1.13824 0.22629
v -0.561106 1.1486 0.245857
v -0.529172 1.09396 0.253125
v -0.626886 1.14721 0.252785
v -0.683044 1.13452 0.244793
v -0.654293 1.09132 0.266303
v -0.590741 1.09438 0.269477
v -0.55721 1.04702 0.266021
v -0.622246 1.04565 0.27287
v -0.589343 1.00098 0.263995
v -0.475613 1.09012 0.218848
v -0.505248 1.03589 0.242468
v -0.53772 0.987823 0.246167
v -0.491675 0.980073 0.214929
v -0.4559 1.03024 0.198767
v -0.454714 0.978325 0.172658
v -0.432211 0.961484 0.0706232
v -0.432211 0.928914 -0.0493768
v -0.448382 0.915103 -0.101374
v -0.419072 0.970113 -0.0882187
v -0.411507 0.988962 -0.0337561
v -0.476932 0.90976 -0.149461
v -0.44566 0.958726 -0.14772
v -0.515688 0.913292 -0.189976
v -0.482515 0.958549 -0.192668
v -0.459122 1.00897 -0.1845
v -0.424719 1.01946 -0.13192
v -0.447291 1.06071 -0.166093
v -0.483027 1.11295 -0.182596
v -0.487452 1.06091 -0.208114
v -0.527875 1.10947 -0.216251
v -0.508393 1.00018 -0.223913
v -0.538955 0.950741 -0.224793
v -0.567707 0.993946 -0.246303
v -0.544538 1.05301 -0.240606
v -0.57905 1.09967 -0.23725
v -0.599754 1.03962 -0.25287
v -0.632657 1.08428 -0.243994
v -0.519348 1.15779 -0.175622
v -0.576434 1.14989 -0.208114
v -0.63129 1.1354 -0.220746
v -0.628378 1.17822 -0.1845
v -0.572186 1.19394 -0.158929
v -0.567703 1.21729 -0.10589
v -0.624143 1.20948 -0.138015
v -0.618908 1.2268 -0.08483
v -0.672933 1.21507 -0.0948076
v -0.67862 1.19169 -0.14772
v -0.722243 1.18896 -0.101374
v -0.682869 1.14764 -0.196904
v -0.68428 1.09744 -0.226167
v -0.730325 1.10519 -0.194929
v -0.732217 1.15329 -0.153203
v -0.763086 1.15048 -0.10403
v -0.767286 1.10694 -0.152658
v -0.79235 1.10255 -0.102573
v -0.672933 1.24764 0.0251924
v -0.722243 1.22153 0.0186257
v -0.701381 1.24129 0.075483
v -0.763086 1.18305 0.0159699
v -0.754977 1.20289 0.0700001
v -0.789789 1.12378 -0.0506231
v -0.789789 1.15635 0.069377
v -0.773618 1.17016 0.121374
v -0.72839 1.21428 0.129501
v -0.745067 1.1755 0.169461
v -0.739485 1.12671 0.212668
v -0.77634 1.12654 0.16772
v -0.762878 1.07629 0.2045
v -0.802927 1.11515 0.108219
v -0.810493 1.06373 -0.0662438
v -0.810493 1.0963 0.0537562
v -0.81345 1.05463 0.091322
v -0.797281 1.0658 0.15192
v -0.774709 1.02455 0.186093
v -0.800996 1.01329 0.127265
v -0.774078 0.975427 0.158848
v -0.713607 1.08509 0.243913
v -0.734548 1.02435 0.228114
v -0.738973 0.972312 0.202596
v -0.694125 0.975791 0.236251
v -0.677462 1.03225 0.260606
v -0.64295 0.985597 0.25725
v -0.59071 0.94986 0.240746
v -0.645565 0.935368 0.228114
v -0.593622 0.907038 0.2045
v -0.702652 0.92747 0.195622
v -0.743173 0.928768 0.153968
v -0.702206 0.892016 0.142696
v -0.649814 0.891325 0.178929
v -0.597857 0.875778 0.158015
v -0.654297 0.867969 0.125891
v -0.603092 0.858458 0.10483
v -0.539131 0.937619 0.216904
v -0.54338 0.893576 0.16772
v -0.549067 0.870195 0.114808
v -0.499756 0.896298 0.121374
v -0.489783 0.931973 0.173203
v -0.458914 0.93478 0.12403
v -0.458914 0.90221 0.00403023
v -0.499756 0.863728 0.00137434
v -0.467023 0.882369 -0.05
v -0.549067 0.837625 -0.00519233
v -0.520619 0.843972 -0.0554829
v -0.603092 0.825888 -0.0151699
v -0.575353 0.826367 -0.0640203
v -0.550329 0.842068 -0.111803
v -0.49361 0.870981 -0.109501
v -0.529923 0.871798 -0.154882
v -0.728557 0.908789 -0.167557
v -0.714637 0.947025 -0.20629
v -0.678901 0.894785 -0.189786
v -0.692828 0.991299 -0.233125
v -0.660894 0.936658 -0.225857
v -0.624076 0.890796 -0.201374
v -0.66479 1.03824 -0.246021
v -0.631259 0.990887 -0.249477
v -0.595114 0.938049 -0.232785
v -0.568255 0.897126 -0.201439
v -0.763427 0.952608 -0.163083
v -0.786693 1.00204 -0.15
v -0.746387 0.995142 -0.198848
v -0.796586 1.05332 -0.129305
v -0.7661 1.05502 -0.178767
v -0.716752 1.04937 -0.222468
v -0.757844 0.903818 -0.119875
v -0.775953 0.908174 -0.0668746
v -0.790089 0.951441 -0.111445
v -0.781505 0.921526 -0.0125892
v -0.804155 0.961968 -0.0476618
v -0.781505 0.954096 0.107411
v -0.804155 0.994538 0.0723382
v -0.809802 1.01132 -0.0913634
v -0.81345 1.02206 -0.028678
v -0.705604 0.868082 -0.136379
v -0.67545 0.839422 -0.0986257
v -0.731604 0.865947 -0.0844355
v -0.640389 0.824991 -0.0571707
v -0.692833 0.84033 -0.0373453
v -0.654297 0.8354 0.00589051
v -0.702206 0.859446 0.0226963
v -0.745671 0.876475 -0.0206528
v -0.745671 0.909045 0.0993472
v -0.651758 0.856811 -0.155146
v -0.585977 0.858203 -0.162074
v -0.612987 0.831194 -0.108056
f 1 2 3
f 2 4 5
f 3 5 6
f 2 5 3
f 4 7 8
f 7 9 10
f 8 10 11
f 7 10 8
f 6 12 13
f 14 15 16
f 17 16 18
f 14 16 17
f 4 8 5
f 8 11 12
f 5 12 6
f 8 12 5
f 1 3 19
f 3 6 20
f 19 20 21
f 3 20 19
f 6 13 22
f 17 18 23
f 24 23 25
f 17 23 24
f 21 26 27
f 26 28 29
f 27 29 30
f 26 29 27
f 6 22 20
f 22 28 26
f 20 26 21
f 22 26 20
f 1 19 31
f 19 21 32
f 31 32 33
f 19 32 31
f 21 27 34
f 27 30 35
f 34 35 36
f 27 35 34
f 33 37 38
f 37 36 39
f 38 39 40
f 37 39 38
f 21 34 32
f 34 36 37
f 32 37 33
f 34 37 32
f 1 31 41
f 31 33 42
f 41 42 43
f 31 42 41
f 33 38 44
f 38 40 45
f 44 45 46
f 38 45 44
f 43 47 48
f 47 46 49
f 48 49 50
f 47 49 48
f 33 44 42
f 44 46 47
f 42 47 43
f 44 47 42
f 1 41 2
f 41 43 51
f 2 51 4
f 41 51 2
f 43 48 52
f 48 50 53
f 52 53 54
f 48 53 52
f 4 55 7
f 55 54 56
f 7 56 9
f 55 56 7
f 43 52 51
f 52 54 55
f 51 55 4
f 52 55 51
f 9 57 10
f 58 59 60
f 61 60 15
f 58 60 61
f 59 62 63
f 62 64 65
f 63 65 66
f 62 65 63
f 15 67 16
f 67 66 68
f 16 68 18
f 67 68 16
f 59 63 60
f 63 66 67
f 60 67 15
f 63 67 60
f 18 68 69
f 68 66 70
f 69 70 71
f 68 70 69
f 66 65 72
f 65 64 73
f 72 73 74
f 65 73 72
f 71 75 76
f 75 74 77
f 76 77 78
f 75 77 76
f 66 72 70
f 72 74 75
f 70 75 71
f 72 75 70
f 18 69 23
f 69 71 79
f 23 79 25
f 69 79 23
f 71 76 80
f 76 78 81
f 80 81 82
f 76 81 80
f 25 83 84
f 83 82 85
f 84 85 86
f 83 85 84
f 71 80 79
f 80 82 83
f 79 83 25
f 80 83 79
f 86 85 87
f 85 82 88
f 87 88 89
f 85 88 87
f 82 81 90
f 81 78 91
f 90 91 92
f 81 91 90
f 89 93 94
f 93 92 95
f 94 95 96
f 93 95 94
f 82 90 88
f 90 92 93
f 88 93 89
f 90 93 88
f 30 97 35
f 97 98 99
f 35 99 36
f 97 99 35
f 98 100 101
f 94 96 102
f 101 103 104
f 100 103 101
f 36 105 39
f 105 104 106
f 39 106 40
f 105 106 39
f 98 101 99
f 101 104 105
f 99 105 36
f 101 105 99
f 40 106 107
f 106 104 108
f 107 108 109
f 106 108 107
f 104 103 110
f 102 96 111
f 110 112 113
f 103 112 110
f 109 114 115
f 114 113 116
f 115 116 117
f 114 116 115
f 104 110 108
f 110 113 114
f 108 114 109
f 110 114 108
f 40 107 45
f 107 109 118
f 45 118 46
f 107 118 45
f 109 115 119
f 115 117 120
f 119 120 121
f 115 120 119
f 46 122 49
f 122 121 123
f 49 123 50
f 122 123 49
f 109 119 118
f 119 121 122
f 118 122 46
f 119 122 118
f 50 123 124
f 123 121 125
f 124 125 126
f 123 125 124
f 121 120 127
f 120 117 128
f 127 128 129
f 120 128 127
f 126 130 131
f 130 129 132
f 131 132 133
f 130 132 131
f 121 127 125
f 127 129 130
f 125 130 126
f 127 130 125
f 50 124 53
f 124 126 134
f 53 134 54
f 124 134 53
f 126 131 135
f 131 133 136
f 135 136 137
f 131 136 135
f 54 138 56
f 138 137 139
f 56 139 9
f 138 139 56
f 126 135 134
f 135 137 138
f 134 138 54
f 135 138 134
f 9 139 57
f 140 141 142
f 58 142 59
f 140 142 58
f 141 143 144
f 143 145 146
f 144 146 147
f 143 146 144
f 59 148 62
f 148 147 149
f 62 149 64
f 148 149 62
f 141 144 142
f 144 147 148
f 142 148 59
f 144 148 142
f 150 151 152
f 151 153 154
f 152 154 155
f 151 154 152
f 153 156 157
f 156 78 77
f 157 77 74
f 156 77 157
f 155 158 159
f 158 74 73
f 159 73 64
f 158 73 159
f 153 157 154
f 157 74 158
f 154 158 155
f 157 158 154
f 150 160 151
f 160 161 162
f 151 162 153
f 160 162 151
f 161 163 164
f 163 96 95
f 164 95 92
f 163 95 164
f 153 165 156
f 165 92 91
f 156 91 78
f 165 91 156
f 161 164 162
f 164 92 165
f 162 165 153
f 164 165 162
f 150 166 160
f 166 167 168
f 160 168 161
f 166 168 160
f 167 169 170
f 171 117 116
f 172 116 113
f 171 116 172
f 161 173 163
f 173 174 111
f 163 111 96
f 173 111 163
f 167 170 168
f 170 174 173
f 168 173 161
f 170 173 168
f 150 175 166
f 175 176 177
f 166 177 167
f 175 177 166
f 176 178 179
f 178 145 180
f 179 180 181
f 178 180 179
f 167 182 169
f 183 129 128
f 171 128 117
f 183 128 171
f 176 179 177
f 179 181 182
f 177 182 167
f 179 182 177
f 150 152 175
f 152 155 184
f 175 184 176
f 152 184 175
f 155 159 185
f 159 64 149
f 185 149 147
f 159 149 185
f 176 186 178
f 186 147 146
f 178 146 145
f 186 146 178
f 155 185 184
f 185 147 186
f 184 186 176
f 185 186 184
f 10 61 11
f 11 61 15
f 12 14 13
f 13 14 17
f 11 15 12
f 12 15 14
f 13 17 22
f 22 17 24
f 28 25 29
f 29 25 84
f 29 84 30
f 30 84 86
f 22 24 28
f 28 24 25
f 57 58 10
f 10 58 61
f 30 86 97
f 97 86 87
f 97 87 98
f 98 87 89
f 98 89 100
f 100 89 94
f 100 94 103
f 103 94 102
f 112 111 113
f 113 111 174
f 103 102 112
f 112 102 111
f 129 181 132
f 132 181 180
f 132 180 133
f 133 180 145
f 133 145 136
f 136 145 143
f 136 143 137
f 137 143 141
f 137 141 139
f 139 141 140
f 139 140 57
f 57 140 58
f 113 174 172
f 172 174 170
f 172 170 171
f 171 170 169
f 183 182 129
f 129 182 181
f 171 169 183
f 183 169 182
