v -0.493443 1.1439 0.0675571
v -0.458573 1.10008 0.0630827
v -0.464156 1.14887 0.0198755
v -0.435307 1.05065 0.0500001
v -0.431911 1.10125 0.0114447
v -0.446047 1.14452 -0.0331253
v -0.425414 0.999371 0.0293051
v -0.412198 1.04138 -0.00863647
v -0.42965 0.950142 0.00257317
v -0.411507 0.988962 -0.0337561
v -0.40855 1.03063 -0.0713219
v -0.417845 1.09072 -0.0523381
v -0.440495 1.13117 -0.0874107
v -0.417845 1.07472 -0.172338
v -0.40855 1.01462 -0.191322
v -0.421004 1.05596 -0.227265
v -0.440495 1.11516 -0.207411
v -0.447922 1.09383 -0.258848
v -0.516396 1.18461 0.0363791
v -0.490396 1.18674 -0.0155644
v -0.54655 1.21327 -0.00137424
v -0.476329 1.17622 -0.0793472
v -0.478827 1.14049 -0.253968
v -0.476329 1.16021 -0.199347
v -0.519793 1.17724 -0.242696
v -0.529166 1.21236 -0.0626546
v -0.581611 1.2277 -0.0428292
v -0.529166 1.19635 -0.182655
v -0.567703 1.20128 -0.22589
v -0.581611 1.21169 -0.162829
v -0.618908 1.2108 -0.20483
v -0.567703 1.21729 -0.10589
v -0.543099 1.15791 0.0897862
v -0.570242 1.19588 0.0551463
v -0.597924 1.1619 0.101374
v -0.609013 1.2215 0.00805608
v -0.618908 1.2268 -0.08483
v -0.646646 1.22633 -0.0359797
v -0.671671 1.21062 0.0118035
v -0.636022 1.19449 0.0620742
v -0.653745 1.15557 0.101439
v -0.692077 1.18089 0.0548819
v -0.706311 1.1394 0.0899764
v -0.507363 1.10567 0.10629
v -0.561106 1.11603 0.125857
v -0.529172 1.06139 0.133125
v -0.626886 1.11464 0.132785
v -0.683044 1.10195 0.124793
v -0.654293 1.05875 0.146303
v -0.590741 1.06181 0.149477
v -0.55721 1.01445 0.146021
v -0.622246 1.01308 0.15287
v -0.589343 0.968414 0.143995
v -0.475613 1.05755 0.0988479
v -0.505248 1.00332 0.122468
v -0.53772 0.955253 0.126167
v -0.491675 0.947503 0.0949288
v -0.4559 0.997675 0.0787667
v -0.454714 0.945755 0.0526583
v -0.432211 0.928914 -0.0493768
v -0.432211 0.912906 -0.169377
v -0.448382 0.899094 -0.221374
v -0.419072 0.954105 -0.208219
v -0.411507 0.972954 -0.153756
v -0.476932 0.893751 -0.269461
v -0.44566 0.942718 -0.26772
v -0.515688 0.897283 -0.309976
v -0.482515 0.942541 -0.312668
v -0.459122 0.99296 -0.3045
v -0.424719 1.00345 -0.25192
v -0.447291 1.0447 -0.286093
v -0.483027 1.09694 -0.302596
v -0.487452 1.0449 -0.328114
v -0.527875 1.09346 -0.336251
v -0.508393 0.984168 -0.343913
v -0.538955 0.934733 -0.344793
v -0.567707 0.977938 -0.366303
v -0.544538 1.03701 -0.360606
v -0.57905 1.08366 -0.35725
v -0.599754 1.02361 -0.37287
v -0.632657 1.06827 -0.363994
v -0.519348 1.14178 -0.295622
v -0.576434 1.13389 -0.328114
v -0.63129 1.11939 -0.340746
v -0.628378 1.16222 -0.3045
v -0.572186 1.17793 -0.278929
v -0.624143 1.19348 -0.258015
v -0.672933 1.19906 -0.214808
v -0.67862 1.17568 -0.26772
v -0.722243 1.17296 -0.221374
v -0.682869 1.13163 -0.316904
v -0.68428 1.08143 -0.346167
v -0.730325 1.08918 -0.314929
v -0.732217 1.13728 -0.273203
v -0.763086 1.13447 -0.22403
v -0.767286 1.09093 -0.272658
v -0.79235 1.08654 -0.222573
v -0.672933 1.21507 -0.0948076
v -0.701381 1.19271 -0.164517
v -0.701381 1.20872 -0.044517
v -0.754977 1.15432 -0.17
v -0.789789 1.10777 -0.170623
v -0.754977 1.17032 -0.0499999
v -0.789789 1.12378 -0.0506231
v -0.773618 1.13759 0.00137438
v -0.72839 1.18171 0.00950112
v -0.745067 1.14293 0.049461
v -0.722243 1.18896 -0.101374
v -0.739485 1.09414 0.0926683
v -0.77634 1.09397 0.0477198
v -0.762878 1.04372 0.0844998
v -0.802927 1.08258 -0.0117812
v -0.810493 1.04772 -0.186244
v -0.810493 1.06373 -0.0662438
v -0.81345 1.02206 -0.028678
v -0.797281 1.03323 0.0319204
v -0.774709 0.991983 0.0660927
v -0.800996 0.980724 0.00726476
v -0.774078 0.942857 0.0388483
v -0.713607 1.05252 0.123913
v -0.734548 0.991781 0.108114
v -0.738973 0.939743 0.0825964
v -0.694125 0.943221 0.116251
v -0.677462 0.999678 0.140606
v -0.64295 0.953027 0.13725
v -0.59071 0.917291 0.120746
v -0.645565 0.902798 0.108114
v -0.593622 0.874469 0.0844997
v -0.702652 0.8949 0.075622
v -0.743173 0.896198 0.0339683
v -0.702206 0.859446 0.0226963
v -0.649814 0.858755 0.0589294
v -0.597857 0.843208 0.0380149
v -0.654297 0.8354 0.00589051
v -0.603092 0.825888 -0.0151699
v -0.539131 0.905049 0.0969043
v -0.54338 0.861006 0.0477198
v -0.549067 0.837625 -0.00519233
v -0.499756 0.863728 0.00137434
v -0.489783 0.899403 0.0532027
v -0.458914 0.90221 0.00403023
v -0.467023 0.882369 -0.05
v -0.467023 0.86636 -0.17
v -0.520619 0.843972 -0.0554829
v -0.549067 0.821617 -0.125192
v -0.603092 0.80988 -0.13517
v -0.575353 0.810358 -0.18402
v -0.520619 0.827964 -0.175483
v -0.550329 0.82606 -0.231803
v -0.49361 0.854973 -0.229501
v -0.529923 0.855789 -0.274882
v -0.499756 0.84772 -0.118626
v -0.728557 0.892781 -0.287557
v -0.714637 0.931017 -0.32629
v -0.678901 0.878777 -0.309786
v -0.692828 0.975291 -0.353125
v -0.660894 0.92065 -0.345857
v -0.624076 0.874788 -0.321374
v -0.66479 1.02223 -0.366021
v -0.631259 0.974879 -0.369477
v -0.595114 0.922041 -0.352785
v -0.568255 0.881117 -0.321439
v -0.763427 0.936599 -0.283083
v -0.786693 0.986031 -0.27
v -0.746387 0.979134 -0.318848
v -0.796586 1.03731 -0.249305
v -0.7661 1.03901 -0.298767
v -0.716752 1.03336 -0.342468
v -0.757844 0.88781 -0.239875
v -0.775953 0.892166 -0.186875
v -0.790089 0.935432 -0.231445
v -0.781505 0.905517 -0.132589
v -0.804155 0.94596 -0.167662
v -0.781505 0.921526 -0.0125892
v -0.804155 0.961968 -0.0476618
v -0.809802 0.995308 -0.211363
v -0.81345 1.00606 -0.148678
v -0.705604 0.852073 -0.256379
v -0.67545 0.823413 -0.218626
v -0.731604 0.849939 -0.204436
v -0.640389 0.808983 -0.177171
v -0.692833 0.824321 -0.157345
v -0.640389 0.824991 -0.0571707
v -0.692833 0.84033 -0.0373453
v -0.654297 0.819391 -0.11411
v -0.745671 0.860467 -0.140653
v -0.745671 0.876475 -0.0206528
v -0.651758 0.840803 -0.275146
v -0.585977 0.842194 -0.282074
v -0.612987 0.815185 -0.228056
f 1 2 3
f 2 4 5
f 3 5 6
f 2 5 3
f 4 7 8
f 7 9 10
f 8 10 11
f 7 10 8
f 6 12 13
f 14 15 16
f 17 16 18
f 14 16 17
f 4 8 5
f 8 11 12
f 5 12 6
f 8 12 5
f 1 3 19
f 3 6 20
f 19 20 21
f 3 20 19
f 6 13 22
f 17 18 23
f 24 23 25
f 17 23 24
f 21 26 27
f 28 25 29
f 30 29 31
f 26 32 27
f 6 22 20
f 24 25 28
f 20 26 21
f 22 26 20
f 1 19 33
f 19 21 34
f 33 34 35
f 19 34 33
f 21 27 36
f 27 37 38
f 36 38 39
f 27 38 36
f 35 40 41
f 40 39 42
f 41 42 43
f 40 42 41
f 21 36 34
f 36 39 40
f 34 40 35
f 36 40 34
f 1 33 44
f 33 35 45
f 44 45 46
f 33 45 44
f 35 41 47
f 41 43 48
f 47 48 49
f 41 48 47
f 46 50 51
f 50 49 52
f 51 52 53
f 50 52 51
f 35 47 45
f 47 49 50
f 45 50 46
f 47 50 45
f 1 44 2
f 44 46 54
f 2 54 4
f 44 54 2
f 46 51 55
f 51 53 56
f 55 56 57
f 51 56 55
f 4 58 7
f 58 57 59
f 7 59 9
f 58 59 7
f 46 55 54
f 55 57 58
f 54 58 4
f 55 58 54
f 9 60 10
f 61 62 63
f 64 63 15
f 61 63 64
f 62 65 66
f 65 67 68
f 66 68 69
f 65 68 66
f 15 70 16
f 70 69 71
f 16 71 18
f 70 71 16
f 62 66 63
f 66 69 70
f 63 70 15
f 66 70 63
f 18 71 72
f 71 69 73
f 72 73 74
f 71 73 72
f 69 68 75
f 68 67 76
f 75 76 77
f 68 76 75
f 74 78 79
f 78 77 80
f 79 80 81
f 78 80 79
f 69 75 73
f 75 77 78
f 73 78 74
f 75 78 73
f 18 72 23
f 72 74 82
f 23 82 25
f 72 82 23
f 74 79 83
f 79 81 84
f 83 84 85
f 79 84 83
f 25 86 29
f 86 85 87
f 29 87 31
f 86 87 29
f 74 83 82
f 83 85 86
f 82 86 25
f 83 86 82
f 31 87 88
f 87 85 89
f 88 89 90
f 87 89 88
f 85 84 91
f 84 81 92
f 91 92 93
f 84 92 91
f 90 94 95
f 94 93 96
f 95 96 97
f 94 96 95
f 85 91 89
f 91 93 94
f 89 94 90
f 91 94 89
f 37 98 38
f 88 90 99
f 38 100 39
f 98 100 38
f 90 95 101
f 95 97 102
f 103 104 105
f 95 102 101
f 39 106 42
f 106 105 107
f 42 107 43
f 106 107 42
f 108 103 100
f 103 105 106
f 100 106 39
f 103 106 100
f 43 107 109
f 107 105 110
f 109 110 111
f 107 110 109
f 105 104 112
f 102 97 113
f 112 114 115
f 104 114 112
f 111 116 117
f 116 115 118
f 117 118 119
f 116 118 117
f 105 112 110
f 112 115 116
f 110 116 111
f 112 116 110
f 43 109 48
f 109 111 120
f 48 120 49
f 109 120 48
f 111 117 121
f 117 119 122
f 121 122 123
f 117 122 121
f 49 124 52
f 124 123 125
f 52 125 53
f 124 125 52
f 111 121 120
f 121 123 124
f 120 124 49
f 121 124 120
f 53 125 126
f 125 123 127
f 126 127 128
f 125 127 126
f 123 122 129
f 122 119 130
f 129 130 131
f 122 130 129
f 128 132 133
f 132 131 134
f 133 134 135
f 132 134 133
f 123 129 127
f 129 131 132
f 127 132 128
f 129 132 127
f 53 126 56
f 126 128 136
f 56 136 57
f 126 136 56
f 128 133 137
f 133 135 138
f 137 138 139
f 133 138 137
f 57 140 59
f 140 139 141
f 59 141 9
f 140 141 59
f 128 137 136
f 137 139 140
f 136 140 57
f 137 140 136
f 9 141 60
f 141 139 142
f 61 143 62
f 141 142 60
f 139 138 144
f 145 146 147
f 148 147 149
f 145 147 148
f 62 150 65
f 150 149 151
f 65 151 67
f 150 151 65
f 152 148 143
f 148 149 150
f 143 150 62
f 148 150 143
f 153 154 155
f 154 156 157
f 155 157 158
f 154 157 155
f 156 159 160
f 159 81 80
f 160 80 77
f 159 80 160
f 158 161 162
f 161 77 76
f 162 76 67
f 161 76 162
f 156 160 157
f 160 77 161
f 157 161 158
f 160 161 157
f 153 163 154
f 163 164 165
f 154 165 156
f 163 165 154
f 164 166 167
f 166 97 96
f 167 96 93
f 166 96 167
f 156 168 159
f 168 93 92
f 159 92 81
f 168 92 159
f 164 167 165
f 167 93 168
f 165 168 156
f 167 168 165
f 153 169 163
f 169 170 171
f 163 171 164
f 169 171 163
f 170 172 173
f 174 119 118
f 175 118 115
f 174 118 175
f 164 176 166
f 176 177 113
f 166 113 97
f 176 113 166
f 170 173 171
f 173 177 176
f 171 176 164
f 173 176 171
f 153 178 169
f 178 179 180
f 169 180 170
f 178 180 169
f 179 181 182
f 183 135 134
f 184 134 131
f 181 185 182
f 170 186 172
f 187 131 130
f 174 130 119
f 187 130 174
f 179 182 180
f 184 131 187
f 180 186 170
f 182 186 180
f 153 155 178
f 155 158 188
f 178 188 179
f 155 188 178
f 158 162 189
f 162 67 151
f 189 151 149
f 162 151 189
f 179 190 181
f 190 149 147
f 181 147 146
f 190 147 181
f 158 189 188
f 189 149 190
f 188 190 179
f 189 190 188
f 10 64 11
f 11 64 15
f 12 14 13
f 13 14 17
f 11 15 12
f 12 15 14
f 13 17 22
f 22 17 24
f 26 28 32
f 32 28 29
f 32 29 27
f 27 29 30
f 22 24 26
f 26 24 28
f 27 30 37
f 37 30 31
f 60 61 10
f 10 61 64
f 37 31 98
f 98 31 88
f 98 88 100
f 100 88 99
f 103 101 104
f 104 101 102
f 108 90 103
f 103 90 101
f 100 99 108
f 108 99 90
f 114 113 115
f 115 113 177
f 104 102 114
f 114 102 113
f 135 146 138
f 138 146 145
f 139 152 142
f 142 152 143
f 142 143 60
f 60 143 61
f 138 145 144
f 144 145 148
f 144 148 139
f 139 148 152
f 115 177 175
f 175 177 173
f 175 173 174
f 174 173 172
f 183 181 135
f 135 181 146
f 134 185 183
f 183 185 181
f 184 182 134
f 134 182 185
f 174 172 187
f 187 172 186
f 187 186 184
f 184 186 182
