v -0.493443 1.12789 -0.0524429
v -0.458573 1.08408 -0.0569173
v -0.464156 1.13287 -0.100125
v -0.435307 1.03464 -0.0699999
v -0.431911 1.08524 -0.108555
v -0.446047 1.12851 -0.153125
v -0.425414 0.983362 -0.0906949
v -0.412198 1.02537 -0.128636
v -0.42965 0.934134 -0.117427
v -0.411507 0.972954 -0.153756
v -0.40855 1.01462 -0.191322
v -0.417845 1.07472 -0.172338
v -0.440495 1.11516 -0.207411
v -0.417845 1.0275 -0.412338
v -0.40855 0.967407 -0.431322
v -0.421004 1.00875 -0.467265
v -0.440495 1.06795 -0.447411
v -0.447922 1.04661 -0.498848
v -0.516396 1.1686 -0.0836209
v -0.490396 1.17074 -0.135564
v -0.54655 1.19726 -0.121374
v -0.476329 1.16021 -0.199347
v -0.478827 1.09327 -0.493968
v -0.476329 1.113 -0.439347
v -0.519793 1.13002 -0.482696
v -0.529166 1.19635 -0.182655
v -0.581611 1.21169 -0.162829
v -0.529166 1.14914 -0.422655
v -0.567703 1.15407 -0.46589
v -0.567703 1.20128 -0.22589
v -0.618908 1.2108 -0.20483
v -0.543099 1.1419 -0.0302138
v -0.570242 1.17987 -0.0648537
v -0.597924 1.14589 -0.0186256
v -0.609013 1.20549 -0.111944
v -0.646646 1.21032 -0.15598
v -0.671671 1.19462 -0.108197
v -0.636022 1.17848 -0.0579258
v -0.653745 1.13956 -0.0185606
v -0.692077 1.16489 -0.0651181
v -0.706311 1.12339 -0.0300236
v -0.507363 1.08966 -0.0137101
v -0.561106 1.10003 0.00585698
v -0.529172 1.04538 0.0131254
v -0.626886 1.09863 0.0127849
v -0.683044 1.08594 0.00479268
v -0.654293 1.04274 0.0263032
v -0.590741 1.0458 0.0294774
v -0.55721 0.998442 0.0260209
v -0.622246 0.997067 0.0328704
v -0.589343 0.952406 0.0239945
v -0.475613 1.04154 -0.0211521
v -0.505248 0.987313 0.00246835
v -0.53772 0.939244 0.00616688
v -0.491675 0.931495 -0.0250712
v -0.4559 0.981666 -0.0412333
v -0.454714 0.929747 -0.0673417
v -0.432211 0.912906 -0.169377
v -0.432211 0.865693 -0.409377
v -0.448382 0.851882 -0.461374
v -0.419072 0.906892 -0.448219
v -0.411507 0.925741 -0.393756
v -0.476932 0.846538 -0.509461
v -0.44566 0.895505 -0.50772
v -0.515688 0.85007 -0.549976
v -0.482515 0.895328 -0.552668
v -0.459122 0.945747 -0.5445
v -0.424719 0.95624 -0.49192
v -0.447291 0.997489 -0.526093
v -0.483027 1.04973 -0.542596
v -0.487452 0.99769 -0.568114
v -0.527875 1.04625 -0.576251
v -0.508393 0.936955 -0.583913
v -0.538955 0.88752 -0.584793
v -0.567707 0.930725 -0.606303
v -0.544538 0.989793 -0.600606
v -0.57905 1.03644 -0.59725
v -0.599754 0.976396 -0.61287
v -0.632657 1.02106 -0.603994
v -0.519348 1.09457 -0.535622
v -0.576434 1.08667 -0.568114
v -0.63129 1.07218 -0.580746
v -0.628378 1.115 -0.5445
v -0.572186 1.13072 -0.518929
v -0.624143 1.14626 -0.498015
v -0.618908 1.16358 -0.44483
v -0.672933 1.15185 -0.454808
v -0.67862 1.12847 -0.50772
v -0.722243 1.12574 -0.461374
v -0.682869 1.08442 -0.556904
v -0.68428 1.03422 -0.586167
v -0.730325 1.04197 -0.554929
v -0.732217 1.09007 -0.513203
v -0.763086 1.08726 -0.46403
v -0.767286 1.04372 -0.512658
v -0.79235 1.03933 -0.462573
v -0.672933 1.19906 -0.214808
v -0.722243 1.17296 -0.221374
v -0.701381 1.19271 -0.164517
v -0.754977 1.1071 -0.41
v -0.789789 1.06056 -0.410623
v -0.754977 1.15432 -0.17
v -0.789789 1.10777 -0.170623
v -0.773618 1.12158 -0.118626
v -0.763086 1.13447 -0.22403
v -0.72839 1.1657 -0.110499
v -0.745067 1.12692 -0.070539
v -0.739485 1.07813 -0.0273317
v -0.77634 1.07796 -0.0722802
v -0.762878 1.02772 -0.0355002
v -0.802927 1.06657 -0.131781
v -0.810493 1.00051 -0.426244
v -0.810493 1.04772 -0.186244
v -0.81345 1.00606 -0.148678
v -0.797281 1.01722 -0.0880796
v -0.774709 0.975974 -0.0539073
v -0.800996 0.964716 -0.112735
v -0.774078 0.926848 -0.0811517
v -0.713607 1.03651 0.0039134
v -0.734548 0.975772 -0.011886
v -0.738973 0.923734 -0.0374036
v -0.694125 0.927212 -0.00374918
v -0.677462 0.98367 0.0206059
v -0.64295 0.937019 0.0172497
v -0.59071 0.901282 0.000745997
v -0.645565 0.886789 -0.0118861
v -0.593622 0.85846 -0.0355003
v -0.702652 0.878892 -0.044378
v -0.743173 0.880189 -0.0860317
v -0.702206 0.843438 -0.0973037
v -0.649814 0.842746 -0.0610706
v -0.597857 0.8272 -0.0819851
v -0.654297 0.819391 -0.11411
v -0.603092 0.80988 -0.13517
v -0.539131 0.889041 -0.0230957
v -0.54338 0.844998 -0.0722802
v -0.549067 0.821617 -0.125192
v -0.499756 0.84772 -0.118626
v -0.489783 0.883394 -0.0667973
v -0.458914 0.886202 -0.11597
v -0.467023 0.86636 -0.17
v -0.467023 0.819148 -0.41
v -0.458914 0.838989 -0.35597
v -0.499756 0.800507 -0.358626
v -0.549067 0.774404 -0.365192
v -0.520619 0.780751 -0.415483
v -0.603092 0.762667 -0.37517
v -0.575353 0.763146 -0.42402
v -0.550329 0.778847 -0.471803
v -0.49361 0.80776 -0.469501
v -0.529923 0.808576 -0.514882
v -0.728557 0.845568 -0.527557
v -0.714637 0.883804 -0.56629
v -0.678901 0.831564 -0.549786
v -0.692828 0.928078 -0.593125
v -0.660894 0.873437 -0.585857
v -0.624076 0.827575 -0.561374
v -0.66479 0.97502 -0.606021
v -0.631259 0.927666 -0.609477
v -0.595114 0.874828 -0.592785
v -0.568255 0.833904 -0.561439
v -0.763427 0.889387 -0.523083
v -0.786693 0.938818 -0.51
v -0.746387 0.931921 -0.558848
v -0.796586 0.990101 -0.489305
v -0.7661 0.991797 -0.538767
v -0.716752 0.98615 -0.582468
v -0.757844 0.840597 -0.479875
v -0.775953 0.844953 -0.426875
v -0.790089 0.888219 -0.471445
v -0.781505 0.858305 -0.372589
v -0.804155 0.898747 -0.407662
v -0.781505 0.905517 -0.132589
v -0.804155 0.94596 -0.167662
v -0.809802 0.948095 -0.451363
v -0.81345 0.958843 -0.388678
v -0.705604 0.80486 -0.496379
v -0.67545 0.776201 -0.458626
v -0.731604 0.802726 -0.444436
v -0.640389 0.76177 -0.417171
v -0.692833 0.777108 -0.397345
v -0.654297 0.772178 -0.354109
v -0.692833 0.824321 -0.157345
v -0.745671 0.813254 -0.380653
v -0.745671 0.860467 -0.140653
v -0.651758 0.79359 -0.515146
v -0.585977 0.794981 -0.522074
v -0.612987 0.767972 -0.468056
f 1 2 3
f 2 4 5
f 3 5 6
f 2 5 3
f 4 7 8
f 7 9 10
f 8 10 11
f 7 10 8
f 6 12 13
f 14 15 16
f 17 16 18
f 14 16 17
f 4 8 5
f 8 11 12
f 5 12 6
f 8 12 5
f 1 3 19
f 3 6 20
f 19 20 21
f 3 20 19
f 6 13 22
f 17 18 23
f 24 23 25
f 17 23 24
f 21 26 27
f 28 25 29
f 27 30 31
f 26 30 27
f 6 22 20
f 24 25 28
f 20 26 21
f 22 26 20
f 1 19 32
f 19 21 33
f 32 33 34
f 19 33 32
f 21 27 35
f 27 31 36
f 35 36 37
f 27 36 35
f 34 38 39
f 38 37 40
f 39 40 41
f 38 40 39
f 21 35 33
f 35 37 38
f 33 38 34
f 35 38 33
f 1 32 42
f 32 34 43
f 42 43 44
f 32 43 42
f 34 39 45
f 39 41 46
f 45 46 47
f 39 46 45
f 44 48 49
f 48 47 50
f 49 50 51
f 48 50 49
f 34 45 43
f 45 47 48
f 43 48 44
f 45 48 43
f 1 42 2
f 42 44 52
f 2 52 4
f 42 52 2
f 44 49 53
f 49 51 54
f 53 54 55
f 49 54 53
f 4 56 7
f 56 55 57
f 7 57 9
f 56 57 7
f 44 53 52
f 53 55 56
f 52 56 4
f 53 56 52
f 9 58 10
f 59 60 61
f 62 61 15
f 59 61 62
f 60 63 64
f 63 65 66
f 64 66 67
f 63 66 64
f 15 68 16
f 68 67 69
f 16 69 18
f 68 69 16
f 60 64 61
f 64 67 68
f 61 68 15
f 64 68 61
f 18 69 70
f 69 67 71
f 70 71 72
f 69 71 70
f 67 66 73
f 66 65 74
f 73 74 75
f 66 74 73
f 72 76 77
f 76 75 78
f 77 78 79
f 76 78 77
f 67 73 71
f 73 75 76
f 71 76 72
f 73 76 71
f 18 70 23
f 70 72 80
f 23 80 25
f 70 80 23
f 72 77 81
f 77 79 82
f 81 82 83
f 77 82 81
f 25 84 29
f 84 83 85
f 29 85 86
f 84 85 29
f 72 81 80
f 81 83 84
f 80 84 25
f 81 84 80
f 86 85 87
f 85 83 88
f 87 88 89
f 85 88 87
f 83 82 90
f 82 79 91
f 90 91 92
f 82 91 90
f 89 93 94
f 93 92 95
f 94 95 96
f 93 95 94
f 83 90 88
f 90 92 93
f 88 93 89
f 90 93 88
f 31 97 36
f 97 98 99
f 36 99 37
f 97 99 36
f 89 94 100
f 94 96 101
f 102 103 104
f 105 103 102
f 37 106 40
f 106 104 107
f 40 107 41
f 106 107 40
f 98 102 99
f 102 104 106
f 99 106 37
f 102 106 99
f 41 107 108
f 107 104 109
f 108 109 110
f 107 109 108
f 104 103 111
f 101 96 112
f 111 113 114
f 103 113 111
f 110 115 116
f 115 114 117
f 116 117 118
f 115 117 116
f 104 111 109
f 111 114 115
f 109 115 110
f 111 115 109
f 41 108 46
f 108 110 119
f 46 119 47
f 108 119 46
f 110 116 120
f 116 118 121
f 120 121 122
f 116 121 120
f 47 123 50
f 123 122 124
f 50 124 51
f 123 124 50
f 110 120 119
f 120 122 123
f 119 123 47
f 120 123 119
f 51 124 125
f 124 122 126
f 125 126 127
f 124 126 125
f 122 121 128
f 121 118 129
f 128 129 130
f 121 129 128
f 127 131 132
f 131 130 133
f 132 133 134
f 131 133 132
f 122 128 126
f 128 130 131
f 126 131 127
f 128 131 126
f 51 125 54
f 125 127 135
f 54 135 55
f 125 135 54
f 127 132 136
f 132 134 137
f 136 137 138
f 132 137 136
f 55 139 57
f 139 138 140
f 57 140 9
f 139 140 57
f 127 136 135
f 136 138 139
f 135 139 55
f 136 139 135
f 9 140 58
f 140 138 141
f 59 142 60
f 143 142 59
f 144 145 146
f 145 147 148
f 146 148 149
f 145 148 146
f 60 150 63
f 150 149 151
f 63 151 65
f 150 151 63
f 144 146 142
f 146 149 150
f 142 150 60
f 146 150 142
f 152 153 154
f 153 155 156
f 154 156 157
f 153 156 154
f 155 158 159
f 158 79 78
f 159 78 75
f 158 78 159
f 157 160 161
f 160 75 74
f 161 74 65
f 160 74 161
f 155 159 156
f 159 75 160
f 156 160 157
f 159 160 156
f 152 162 153
f 162 163 164
f 153 164 155
f 162 164 153
f 163 165 166
f 165 96 95
f 166 95 92
f 165 95 166
f 155 167 158
f 167 92 91
f 158 91 79
f 167 91 158
f 163 166 164
f 166 92 167
f 164 167 155
f 166 167 164
f 152 168 162
f 168 169 170
f 162 170 163
f 168 170 162
f 169 171 172
f 173 118 117
f 174 117 114
f 173 117 174
f 163 175 165
f 175 176 112
f 165 112 96
f 175 112 165
f 169 172 170
f 172 176 175
f 170 175 163
f 172 175 170
f 152 177 168
f 177 178 179
f 168 179 169
f 177 179 168
f 178 180 181
f 180 147 182
f 183 133 130
f 180 182 181
f 169 184 171
f 185 130 129
f 173 129 118
f 185 129 173
f 178 181 179
f 183 130 185
f 179 184 169
f 181 184 179
f 152 154 177
f 154 157 186
f 177 186 178
f 154 186 177
f 157 161 187
f 161 65 151
f 187 151 149
f 161 151 187
f 178 188 180
f 188 149 148
f 180 148 147
f 188 148 180
f 157 187 186
f 187 149 188
f 186 188 178
f 187 188 186
f 10 62 11
f 11 62 15
f 12 14 13
f 13 14 17
f 11 15 12
f 12 15 14
f 13 17 22
f 22 17 24
f 30 29 31
f 31 29 86
f 26 28 30
f 30 28 29
f 22 24 26
f 26 24 28
f 58 59 10
f 10 59 62
f 31 86 97
f 97 86 87
f 97 87 98
f 98 87 89
f 105 94 103
f 103 94 101
f 102 100 105
f 105 100 94
f 98 89 102
f 102 89 100
f 113 112 114
f 114 112 176
f 103 101 113
f 113 101 112
f 133 182 134
f 134 182 147
f 134 147 137
f 137 147 145
f 137 145 138
f 138 145 144
f 140 143 58
f 58 143 59
f 138 144 141
f 141 144 142
f 141 142 140
f 140 142 143
f 114 176 174
f 174 176 172
f 174 172 173
f 173 172 171
f 183 181 133
f 133 181 182
f 173 171 185
f 185 171 184
f 185 184 183
f 183 184 181
