v 0.826557 1.23136 -0.412443
v 0.861427 1.18754 -0.416917
v 0.855844 1.23633 -0.460125
v 0.884694 1.13811 -0.43
v 0.888089 1.1887 -0.468555
v 0.873953 1.23197 -0.513125
v 0.894586 1.08682 -0.450695
v 0.907802 1.12883 -0.488636
v 0.890351 1.03759 -0.477427
v 0.908493 1.07642 -0.513756
v 0.91145 1.11808 -0.551322
v 0.902156 1.17818 -0.532338
v 0.879506 1.21862 -0.567411
v 0.902156 1.16111 -0.572338
v 0.91145 1.10102 -0.591322
v 0.898996 1.14236 -0.627265
v 0.879506 1.20155 -0.607411
v 0.872078 1.18022 -0.658848
v 0.803604 1.27206 -0.443621
v 0.829605 1.2742 -0.495564
v 0.77345 1.30072 -0.481374
v 0.843671 1.26367 -0.559347
v 0.841173 1.22688 -0.653968
v 0.841173 1.24395 -0.613968
v 0.800207 1.2807 -0.602696
v 0.790834 1.29982 -0.542655
v 0.73839 1.31515 -0.522829
v 0.752297 1.30475 -0.58589
v 0.701092 1.31426 -0.56483
v 0.776901 1.24536 -0.390214
v 0.749758 1.28333 -0.424854
v 0.722076 1.24935 -0.378626
v 0.710987 1.30895 -0.471944
v 0.673354 1.31378 -0.51598
v 0.648329 1.29808 -0.468197
v 0.683978 1.28194 -0.417926
v 0.666255 1.24302 -0.378561
v 0.627923 1.26835 -0.425118
v 0.613689 1.22685 -0.390024
v 0.812637 1.19312 -0.37371
v 0.758894 1.20349 -0.354143
v 0.790828 1.14885 -0.346875
v 0.693114 1.2021 -0.347215
v 0.636956 1.1894 -0.355207
v 0.665707 1.1462 -0.333697
v 0.729259 1.14926 -0.330523
v 0.76279 1.1019 -0.333979
v 0.697754 1.10053 -0.32713
v 0.730657 1.05587 -0.336005
v 0.844387 1.145 -0.381152
v 0.814752 1.09077 -0.357532
v 0.78228 1.04271 -0.353833
v 0.828325 1.03496 -0.385071
v 0.8641 1.08513 -0.401233
v 0.865286 1.03321 -0.427342
v 0.890351 1.02053 -0.517427
v 0.887789 0.999302 -0.569377
v 0.908493 1.05935 -0.553756
v 0.871618 0.985491 -0.621374
v 0.900928 1.0405 -0.608219
v 0.843068 0.980148 -0.669461
v 0.87434 1.02911 -0.66772
v 0.804312 0.983679 -0.709976
v 0.837485 1.02894 -0.712668
v 0.860878 1.07936 -0.7045
v 0.895281 1.08985 -0.65192
v 0.872709 1.1311 -0.686093
v 0.836973 1.18334 -0.702596
v 0.832549 1.1313 -0.728114
v 0.792126 1.17986 -0.736251
v 0.811608 1.07056 -0.743913
v 0.781045 1.02113 -0.744793
v 0.752293 1.06433 -0.766303
v 0.775462 1.1234 -0.760606
v 0.740951 1.17005 -0.75725
v 0.720246 1.11001 -0.77287
v 0.687343 1.15467 -0.763994
v 0.800652 1.22818 -0.695622
v 0.800207 1.26363 -0.642696
v 0.743566 1.22028 -0.728114
v 0.688711 1.20579 -0.740746
v 0.691622 1.24861 -0.7045
v 0.747814 1.26433 -0.678929
v 0.752297 1.28768 -0.62589
v 0.695857 1.27987 -0.658015
v 0.695857 1.29694 -0.618015
v 0.647067 1.30252 -0.574808
v 0.64138 1.26207 -0.66772
v 0.64138 1.27914 -0.62772
v 0.597757 1.27642 -0.581374
v 0.637131 1.21803 -0.716904
v 0.63572 1.16783 -0.746167
v 0.589675 1.17558 -0.714929
v 0.597757 1.25935 -0.621374
v 0.587783 1.22368 -0.673203
v 0.556915 1.22087 -0.62403
v 0.552714 1.17733 -0.672658
v 0.52765 1.17294 -0.622573
v 0.618619 1.29617 -0.524517
v 0.556915 1.23793 -0.58403
v 0.565023 1.25778 -0.53
v 0.52765 1.19 -0.582573
v 0.530211 1.21123 -0.530623
v 0.546382 1.22504 -0.478626
v 0.59161 1.26916 -0.470499
v 0.574933 1.23039 -0.430539
v 0.580515 1.1816 -0.387332
v 0.54366 1.18142 -0.43228
v 0.557123 1.13118 -0.3955
v 0.517073 1.17003 -0.491781
v 0.509507 1.15118 -0.546244
v 0.50655 1.10952 -0.508678
v 0.522719 1.12068 -0.44808
v 0.545291 1.07944 -0.413907
v 0.519005 1.06818 -0.472735
v 0.545922 1.03031 -0.441152
v 0.606393 1.13997 -0.356087
v 0.585452 1.07923 -0.371886
v 0.581028 1.0272 -0.397404
v 0.625875 1.03067 -0.363749
v 0.642538 1.08713 -0.339394
v 0.67705 1.04048 -0.34275
v 0.72929 1.00474 -0.359254
v 0.674435 0.990251 -0.371886
v 0.726378 0.961921 -0.3955
v 0.617348 0.982353 -0.404378
v 0.576827 0.983651 -0.446032
v 0.617794 0.946899 -0.457304
v 0.670186 0.946208 -0.421071
v 0.722144 0.930661 -0.441985
v 0.665703 0.922852 -0.47411
v 0.722144 0.913596 -0.481985
v 0.665703 0.905787 -0.51411
v 0.716909 0.896276 -0.53517
v 0.780869 0.992502 -0.383096
v 0.776621 0.948459 -0.43228
v 0.770933 0.908013 -0.525192
v 0.776621 0.931394 -0.47228
v 0.820244 0.934116 -0.518626
v 0.830217 0.986855 -0.426797
v 0.820244 0.951181 -0.478626
v 0.861086 0.989663 -0.47597
v 0.861086 0.972598 -0.51597
v 0.852978 0.952757 -0.57
v 0.799381 0.91436 -0.575483
v 0.744647 0.896755 -0.58402
v 0.769671 0.912456 -0.631803
v 0.82639 0.941369 -0.629501
v 0.790077 0.942185 -0.674882
v 0.591443 0.979177 -0.687557
v 0.605363 1.01741 -0.72629
v 0.641099 0.965173 -0.709786
v 0.627172 1.06169 -0.753125
v 0.659106 1.00705 -0.745857
v 0.695925 0.961184 -0.721374
v 0.65521 1.10863 -0.766021
v 0.688741 1.06128 -0.769477
v 0.724886 1.00844 -0.752785
v 0.751745 0.967513 -0.721439
v 0.556573 1.023 -0.683083
v 0.533307 1.07243 -0.67
v 0.573613 1.06553 -0.718848
v 0.523415 1.12371 -0.649305
v 0.5539 1.12541 -0.698767
v 0.603248 1.11976 -0.742468
v 0.562156 0.974206 -0.639875
v 0.544047 0.978562 -0.586875
v 0.529912 1.02183 -0.631445
v 0.538495 0.991914 -0.532589
v 0.515845 1.03236 -0.567662
v 0.538495 1.00898 -0.492589
v 0.515845 1.04942 -0.527662
v 0.510198 1.0817 -0.611363
v 0.50655 1.09245 -0.548678
v 0.509507 1.13412 -0.586244
v 0.614396 0.93847 -0.656379
v 0.64455 0.90981 -0.618626
v 0.588396 0.936335 -0.604436
v 0.679611 0.895379 -0.577171
v 0.627167 0.910718 -0.557345
v 0.617794 0.929834 -0.497304
v 0.574329 0.946863 -0.540653
v 0.576827 0.966586 -0.486032
v 0.668243 0.927199 -0.675146
v 0.734023 0.928591 -0.682074
v 0.707014 0.901581 -0.628056
f 1 2 3
f 2 4 5
f 3 5 6
f 2 5 3
f 4 7 8
f 7 9 10
f 8 10 11
f 7 10 8
f 6 12 13
f 14 15 16
f 17 16 18
f 14 16 17
f 4 8 5
f 8 11 12
f 5 12 6
f 8 12 5
f 1 3 19
f 3 6 20
f 19 20 21
f 3 20 19
f 6 13 22
f 17 18 23
f 22 24 25
f 13 24 22
f 21 26 27
f 26 25 28
f 27 28 29
f 26 28 27
f 6 22 20
f 22 25 26
f 20 26 21
f 22 26 20
f 1 19 30
f 19 21 31
f 30 31 32
f 19 31 30
f 21 27 33
f 27 29 34
f 33 34 35
f 27 34 33
f 32 36 37
f 36 35 38
f 37 38 39
f 36 38 37
f 21 33 31
f 33 35 36
f 31 36 32
f 33 36 31
f 1 30 40
f 30 32 41
f 40 41 42
f 30 41 40
f 32 37 43
f 37 39 44
f 43 44 45
f 37 44 43
f 42 46 47
f 46 45 48
f 47 48 49
f 46 48 47
f 32 43 41
f 43 45 46
f 41 46 42
f 43 46 41
f 1 40 2
f 40 42 50
f 2 50 4
f 40 50 2
f 42 47 51
f 47 49 52
f 51 52 53
f 47 52 51
f 4 54 7
f 54 53 55
f 7 55 9
f 54 55 7
f 42 51 50
f 51 53 54
f 50 54 4
f 51 54 50
f 56 57 58
f 57 59 60
f 58 60 15
f 57 60 58
f 59 61 62
f 61 63 64
f 62 64 65
f 61 64 62
f 15 66 16
f 66 65 67
f 16 67 18
f 66 67 16
f 59 62 60
f 62 65 66
f 60 66 15
f 62 66 60
f 18 67 68
f 67 65 69
f 68 69 70
f 67 69 68
f 65 64 71
f 64 63 72
f 71 72 73
f 64 72 71
f 70 74 75
f 74 73 76
f 75 76 77
f 74 76 75
f 65 71 69
f 71 73 74
f 69 74 70
f 71 74 69
f 18 68 23
f 68 70 78
f 23 78 79
f 68 78 23
f 70 75 80
f 75 77 81
f 80 81 82
f 75 81 80
f 79 83 84
f 83 82 85
f 28 86 29
f 83 85 84
f 70 80 78
f 80 82 83
f 78 83 79
f 80 83 78
f 29 86 87
f 85 82 88
f 87 89 90
f 86 89 87
f 82 81 91
f 81 77 92
f 91 92 93
f 81 92 91
f 94 95 96
f 95 93 97
f 96 97 98
f 95 97 96
f 82 91 88
f 91 93 95
f 88 95 94
f 91 95 88
f 29 87 34
f 87 90 99
f 34 99 35
f 87 99 34
f 90 100 101
f 100 102 103
f 101 103 104
f 100 103 101
f 35 105 38
f 105 104 106
f 38 106 39
f 105 106 38
f 90 101 99
f 101 104 105
f 99 105 35
f 101 105 99
f 39 106 107
f 106 104 108
f 107 108 109
f 106 108 107
f 104 103 110
f 103 102 111
f 110 111 112
f 103 111 110
f 109 113 114
f 113 112 115
f 114 115 116
f 113 115 114
f 104 110 108
f 110 112 113
f 108 113 109
f 110 113 108
f 39 107 44
f 107 109 117
f 44 117 45
f 107 117 44
f 109 114 118
f 114 116 119
f 118 119 120
f 114 119 118
f 45 121 48
f 121 120 122
f 48 122 49
f 121 122 48
f 109 118 117
f 118 120 121
f 117 121 45
f 118 121 117
f 49 122 123
f 122 120 124
f 123 124 125
f 122 124 123
f 120 119 126
f 119 116 127
f 126 127 128
f 119 127 126
f 125 129 130
f 129 128 131
f 132 133 134
f 129 131 130
f 120 126 124
f 126 128 129
f 124 129 125
f 126 129 124
f 49 123 52
f 123 125 135
f 52 135 53
f 123 135 52
f 125 130 136
f 132 134 137
f 138 137 139
f 132 137 138
f 53 140 55
f 140 141 142
f 55 142 9
f 140 142 55
f 125 136 135
f 136 141 140
f 135 140 53
f 136 140 135
f 56 143 57
f 143 139 144
f 57 144 59
f 143 144 57
f 139 137 145
f 137 134 146
f 145 146 147
f 137 146 145
f 59 148 61
f 148 147 149
f 61 149 63
f 148 149 61
f 139 145 144
f 145 147 148
f 144 148 59
f 145 148 144
f 150 151 152
f 151 153 154
f 152 154 155
f 151 154 152
f 153 156 157
f 156 77 76
f 157 76 73
f 156 76 157
f 155 158 159
f 158 73 72
f 159 72 63
f 158 72 159
f 153 157 154
f 157 73 158
f 154 158 155
f 157 158 154
f 150 160 151
f 160 161 162
f 151 162 153
f 160 162 151
f 161 163 164
f 163 98 97
f 164 97 93
f 163 97 164
f 153 165 156
f 165 93 92
f 156 92 77
f 165 92 156
f 161 164 162
f 164 93 165
f 162 165 153
f 164 165 162
f 150 166 160
f 166 167 168
f 160 168 161
f 166 168 160
f 167 169 170
f 171 116 115
f 172 115 112
f 171 115 172
f 161 173 163
f 173 174 175
f 163 175 98
f 173 175 163
f 167 170 168
f 170 174 173
f 168 173 161
f 170 173 168
f 150 176 166
f 176 177 178
f 166 178 167
f 176 178 166
f 177 179 180
f 179 134 133
f 180 133 181
f 179 133 180
f 167 182 169
f 182 181 183
f 171 127 116
f 182 183 169
f 177 180 178
f 180 181 182
f 178 182 167
f 180 182 178
f 150 152 176
f 152 155 184
f 176 184 177
f 152 184 176
f 155 159 185
f 159 63 149
f 185 149 147
f 159 149 185
f 177 186 179
f 186 147 146
f 179 146 134
f 186 146 179
f 155 185 184
f 185 147 186
f 184 186 177
f 185 186 184
f 14 12 15
f 15 12 11
f 17 13 14
f 14 13 12
f 23 24 17
f 17 24 13
f 58 10 56
f 56 10 9
f 15 11 58
f 58 11 10
f 79 25 23
f 23 25 24
f 84 28 79
f 79 28 25
f 85 86 84
f 84 86 28
f 88 89 85
f 85 89 86
f 96 100 94
f 94 100 90
f 98 102 96
f 96 102 100
f 94 90 88
f 88 90 89
f 132 130 133
f 133 130 131
f 139 141 138
f 138 141 136
f 138 136 132
f 132 136 130
f 56 9 143
f 143 9 142
f 143 142 139
f 139 142 141
f 169 171 170
f 170 171 172
f 174 112 175
f 175 112 111
f 175 111 98
f 98 111 102
f 170 172 174
f 174 172 112
f 133 131 181
f 181 131 128
f 181 128 183
f 183 128 127
f 183 127 169
f 169 127 171
