v 0.706557 1.10633 0.867557
v 0.741427 1.06251 0.863083
v 0.735844 1.1113 0.819876
v 0.764694 1.01308 0.85
v 0.768089 1.06368 0.811445
v 0.753953 1.10695 0.766875
v 0.774586 0.961799 0.829305
v 0.787802 1.0038 0.791364
v 0.770351 0.912571 0.802573
v 0.788493 0.951391 0.766244
v 0.79145 0.993057 0.728678
v 0.782156 1.05315 0.747662
v 0.759506 1.0936 0.712589
v 0.782156 1.04364 0.667662
v 0.79145 0.983548 0.648678
v 0.778996 1.02489 0.612735
v 0.759506 1.08409 0.632589
v 0.752078 1.06276 0.581152
v 0.683604 1.14704 0.836379
v 0.709605 1.14917 0.784436
v 0.65345 1.1757 0.798626
v 0.753953 1.09744 0.686875
v 0.723671 1.12914 0.640653
v 0.721173 1.10941 0.586032
v 0.680207 1.14617 0.597304
v 0.670834 1.17479 0.737345
v 0.61839 1.19013 0.757171
v 0.670834 1.16528 0.657345
v 0.632297 1.17021 0.61411
v 0.61839 1.18062 0.677171
v 0.581092 1.17972 0.63517
v 0.632297 1.17972 0.69411
v 0.723671 1.13865 0.720653
v 0.656901 1.12034 0.889786
v 0.629758 1.15831 0.855146
v 0.602076 1.12432 0.901374
v 0.590987 1.18393 0.808056
v 0.581092 1.18923 0.71517
v 0.553354 1.18875 0.76402
v 0.528329 1.17305 0.811804
v 0.563978 1.15692 0.862074
v 0.546255 1.118 0.901439
v 0.507923 1.14332 0.854882
v 0.493689 1.10183 0.889977
v 0.692637 1.0681 0.90629
v 0.638894 1.07846 0.925857
v 0.670828 1.02382 0.933125
v 0.573114 1.07707 0.932785
v 0.516956 1.06438 0.924793
v 0.545707 1.02118 0.946303
v 0.609259 1.02423 0.949478
v 0.64279 0.976879 0.946021
v 0.577754 0.975504 0.95287
v 0.610657 0.930843 0.943995
v 0.724387 1.01998 0.898848
v 0.694752 0.96575 0.922468
v 0.66228 0.917681 0.926167
v 0.708325 0.909932 0.894929
v 0.7441 0.960103 0.878767
v 0.745286 0.908184 0.852658
v 0.767789 0.891343 0.750623
v 0.767789 0.881834 0.670623
v 0.751618 0.868023 0.618626
v 0.780928 0.923033 0.631781
v 0.788493 0.941882 0.686244
v 0.723068 0.86268 0.570539
v 0.75434 0.911646 0.57228
v 0.684312 0.866211 0.530024
v 0.717485 0.911469 0.527332
v 0.740878 0.961888 0.5355
v 0.775281 0.972381 0.58808
v 0.752709 1.01363 0.553907
v 0.716973 1.06587 0.537404
v 0.712549 1.01383 0.511886
v 0.672126 1.06239 0.503749
v 0.691608 0.953096 0.496087
v 0.661045 0.903661 0.495207
v 0.632293 0.946866 0.473697
v 0.655462 1.00593 0.479394
v 0.620951 1.05259 0.48275
v 0.600246 0.992537 0.46713
v 0.567343 1.0372 0.476006
v 0.680652 1.11071 0.544378
v 0.623566 1.10281 0.511886
v 0.568711 1.08832 0.499254
v 0.571622 1.13114 0.5355
v 0.627814 1.14686 0.561071
v 0.575857 1.1624 0.581985
v 0.527067 1.16799 0.625192
v 0.52138 1.14461 0.57228
v 0.477757 1.14188 0.618626
v 0.517131 1.10056 0.523096
v 0.51572 1.05036 0.493833
v 0.469675 1.05811 0.525071
v 0.467783 1.10621 0.566797
v 0.436915 1.1034 0.61597
v 0.432714 1.05986 0.567342
v 0.40765 1.05547 0.617427
v 0.527067 1.1775 0.705192
v 0.498619 1.16164 0.675483
v 0.498619 1.17115 0.755483
v 0.445023 1.12324 0.67
v 0.410211 1.0767 0.669377
v 0.445023 1.13275 0.75
v 0.410211 1.08621 0.749377
v 0.426382 1.10002 0.801374
v 0.47161 1.14414 0.809501
v 0.454933 1.10536 0.849461
v 0.477757 1.15139 0.698626
v 0.460515 1.05657 0.892668
v 0.42366 1.0564 0.84772
v 0.437123 1.00615 0.8845
v 0.397073 1.04501 0.788219
v 0.389507 1.01665 0.653756
v 0.389507 1.02616 0.733756
v 0.38655 0.984493 0.771322
v 0.402719 0.99566 0.83192
v 0.425291 0.954411 0.866093
v 0.399005 0.943153 0.807265
v 0.425922 0.905285 0.838848
v 0.486393 1.01494 0.923913
v 0.465452 0.954209 0.908114
v 0.461028 0.902171 0.882596
v 0.505875 0.905649 0.916251
v 0.522538 0.962107 0.940606
v 0.55705 0.915456 0.93725
v 0.60929 0.879719 0.920746
v 0.554435 0.865226 0.908114
v 0.606378 0.836897 0.8845
v 0.497348 0.857329 0.875622
v 0.456827 0.858626 0.833968
v 0.497794 0.821875 0.822696
v 0.550186 0.821184 0.85893
v 0.602144 0.805637 0.838015
v 0.545703 0.797828 0.805891
v 0.596909 0.788317 0.78483
v 0.660869 0.867478 0.896904
v 0.656621 0.823435 0.84772
v 0.650933 0.800054 0.794808
v 0.700244 0.826157 0.801374
v 0.710217 0.861831 0.853203
v 0.741086 0.864639 0.80403
v 0.732978 0.844797 0.75
v 0.732978 0.835289 0.67
v 0.679381 0.806401 0.744517
v 0.650933 0.790545 0.714808
v 0.596909 0.778808 0.70483
v 0.624647 0.779287 0.65598
v 0.679381 0.796892 0.664517
v 0.649671 0.794988 0.608197
v 0.70639 0.823901 0.610499
v 0.670077 0.824717 0.565118
v 0.700244 0.816648 0.721374
v 0.471443 0.861709 0.552443
v 0.485363 0.899945 0.51371
v 0.521099 0.847705 0.530214
v 0.507172 0.944219 0.486875
v 0.539106 0.889578 0.494143
v 0.575925 0.843716 0.518626
v 0.53521 0.991161 0.473979
v 0.568741 0.943807 0.470523
v 0.604886 0.890969 0.487215
v 0.631745 0.850045 0.518561
v 0.436573 0.905528 0.556917
v 0.413307 0.954959 0.57
v 0.453613 0.948062 0.521152
v 0.403415 1.00624 0.590695
v 0.4339 1.00794 0.541233
v 0.483248 1.00229 0.497532
v 0.442156 0.856738 0.600125
v 0.424047 0.861094 0.653125
v 0.409912 0.904361 0.608555
v 0.418495 0.874446 0.707411
v 0.395845 0.914888 0.672338
v 0.418495 0.883954 0.787411
v 0.395845 0.924397 0.752338
v 0.390198 0.964236 0.628637
v 0.38655 0.974984 0.691322
v 0.494396 0.821002 0.583621
v 0.52455 0.792342 0.621374
v 0.468396 0.818867 0.635565
v 0.559611 0.777911 0.662829
v 0.507167 0.79325 0.682655
v 0.559611 0.78742 0.742829
v 0.507167 0.802758 0.762655
v 0.545703 0.788319 0.725891
v 0.424047 0.870603 0.733126
v 0.454329 0.838904 0.779347
v 0.454329 0.829395 0.699347
v 0.548243 0.809731 0.564854
v 0.614023 0.811123 0.557926
v 0.587014 0.784113 0.611944
f 1 2 3
f 2 4 5
f 3 5 6
f 2 5 3
f 4 7 8
f 7 9 10
f 8 10 11
f 7 10 8
f 6 12 13
f 14 15 16
f 17 16 18
f 14 16 17
f 4 8 5
f 8 11 12
f 5 12 6
f 8 12 5
f 1 3 19
f 3 6 20
f 19 20 21
f 3 20 19
f 22 17 23
f 17 18 24
f 23 24 25
f 17 24 23
f 21 26 27
f 28 25 29
f 30 29 31
f 26 32 27
f 6 33 20
f 23 25 28
f 20 26 21
f 33 26 20
f 1 19 34
f 19 21 35
f 34 35 36
f 19 35 34
f 21 27 37
f 27 38 39
f 37 39 40
f 27 39 37
f 36 41 42
f 41 40 43
f 42 43 44
f 41 43 42
f 21 37 35
f 37 40 41
f 35 41 36
f 37 41 35
f 1 34 45
f 34 36 46
f 45 46 47
f 34 46 45
f 36 42 48
f 42 44 49
f 48 49 50
f 42 49 48
f 47 51 52
f 51 50 53
f 52 53 54
f 51 53 52
f 36 48 46
f 48 50 51
f 46 51 47
f 48 51 46
f 1 45 2
f 45 47 55
f 2 55 4
f 45 55 2
f 47 52 56
f 52 54 57
f 56 57 58
f 52 57 56
f 4 59 7
f 59 58 60
f 7 60 9
f 59 60 7
f 47 56 55
f 56 58 59
f 55 59 4
f 56 59 55
f 9 61 10
f 62 63 64
f 65 64 15
f 62 64 65
f 63 66 67
f 66 68 69
f 67 69 70
f 66 69 67
f 15 71 16
f 71 70 72
f 16 72 18
f 71 72 16
f 63 67 64
f 67 70 71
f 64 71 15
f 67 71 64
f 18 72 73
f 72 70 74
f 73 74 75
f 72 74 73
f 70 69 76
f 69 68 77
f 76 77 78
f 69 77 76
f 75 79 80
f 79 78 81
f 80 81 82
f 79 81 80
f 70 76 74
f 76 78 79
f 74 79 75
f 76 79 74
f 18 73 24
f 73 75 83
f 24 83 25
f 73 83 24
f 75 80 84
f 80 82 85
f 84 85 86
f 80 85 84
f 25 87 29
f 87 86 88
f 29 88 31
f 87 88 29
f 75 84 83
f 84 86 87
f 83 87 25
f 84 87 83
f 31 88 89
f 88 86 90
f 89 90 91
f 88 90 89
f 86 85 92
f 85 82 93
f 92 93 94
f 85 93 92
f 91 95 96
f 95 94 97
f 96 97 98
f 95 97 96
f 86 92 90
f 92 94 95
f 90 95 91
f 92 95 90
f 38 99 39
f 89 91 100
f 39 101 40
f 99 101 39
f 91 96 102
f 96 98 103
f 104 105 106
f 96 103 102
f 40 107 43
f 107 106 108
f 43 108 44
f 107 108 43
f 109 104 101
f 104 106 107
f 101 107 40
f 104 107 101
f 44 108 110
f 108 106 111
f 110 111 112
f 108 111 110
f 106 105 113
f 103 98 114
f 113 115 116
f 105 115 113
f 112 117 118
f 117 116 119
f 118 119 120
f 117 119 118
f 106 113 111
f 113 116 117
f 111 117 112
f 113 117 111
f 44 110 49
f 110 112 121
f 49 121 50
f 110 121 49
f 112 118 122
f 118 120 123
f 122 123 124
f 118 123 122
f 50 125 53
f 125 124 126
f 53 126 54
f 125 126 53
f 112 122 121
f 122 124 125
f 121 125 50
f 122 125 121
f 54 126 127
f 126 124 128
f 127 128 129
f 126 128 127
f 124 123 130
f 123 120 131
f 130 131 132
f 123 131 130
f 129 133 134
f 133 132 135
f 134 135 136
f 133 135 134
f 124 130 128
f 130 132 133
f 128 133 129
f 130 133 128
f 54 127 57
f 127 129 137
f 57 137 58
f 127 137 57
f 129 134 138
f 134 136 139
f 138 139 140
f 134 139 138
f 58 141 60
f 141 140 142
f 60 142 9
f 141 142 60
f 129 138 137
f 138 140 141
f 137 141 58
f 138 141 137
f 9 142 61
f 142 140 143
f 62 144 63
f 142 143 61
f 140 139 145
f 146 147 148
f 149 148 150
f 146 148 149
f 63 151 66
f 151 150 152
f 66 152 68
f 151 152 66
f 153 149 144
f 149 150 151
f 144 151 63
f 149 151 144
f 154 155 156
f 155 157 158
f 156 158 159
f 155 158 156
f 157 160 161
f 160 82 81
f 161 81 78
f 160 81 161
f 159 162 163
f 162 78 77
f 163 77 68
f 162 77 163
f 157 161 158
f 161 78 162
f 158 162 159
f 161 162 158
f 154 164 155
f 164 165 166
f 155 166 157
f 164 166 155
f 165 167 168
f 167 98 97
f 168 97 94
f 167 97 168
f 157 169 160
f 169 94 93
f 160 93 82
f 169 93 160
f 165 168 166
f 168 94 169
f 166 169 157
f 168 169 166
f 154 170 164
f 170 171 172
f 164 172 165
f 170 172 164
f 171 173 174
f 175 120 119
f 176 119 116
f 175 119 176
f 165 177 167
f 177 178 114
f 167 114 98
f 177 114 167
f 171 174 172
f 174 178 177
f 172 177 165
f 174 177 172
f 154 179 170
f 179 180 181
f 170 181 171
f 179 181 170
f 180 182 183
f 184 136 135
f 185 135 132
f 182 186 183
f 187 188 175
f 188 132 131
f 175 131 120
f 188 131 175
f 180 183 181
f 185 132 188
f 181 189 171
f 183 189 181
f 154 156 179
f 156 159 190
f 179 190 180
f 156 190 179
f 159 163 191
f 163 68 152
f 191 152 150
f 163 152 191
f 180 192 182
f 192 150 148
f 182 148 147
f 192 148 182
f 159 191 190
f 191 150 192
f 190 192 180
f 191 192 190
f 10 65 11
f 11 65 15
f 12 14 13
f 13 14 17
f 13 17 6
f 6 17 22
f 11 15 12
f 12 15 14
f 26 28 32
f 32 28 29
f 32 29 27
f 27 29 30
f 6 22 33
f 33 22 23
f 33 23 26
f 26 23 28
f 27 30 38
f 38 30 31
f 61 62 10
f 10 62 65
f 38 31 99
f 99 31 89
f 99 89 101
f 101 89 100
f 104 102 105
f 105 102 103
f 109 91 104
f 104 91 102
f 101 100 109
f 109 100 91
f 115 114 116
f 116 114 178
f 105 103 115
f 115 103 114
f 136 147 139
f 139 147 146
f 140 153 143
f 143 153 144
f 143 144 61
f 61 144 62
f 139 146 145
f 145 146 149
f 145 149 140
f 140 149 153
f 116 178 176
f 176 178 174
f 176 174 175
f 175 174 173
f 184 182 136
f 136 182 147
f 135 186 184
f 184 186 182
f 185 183 135
f 135 183 186
f 187 171 188
f 188 171 189
f 175 173 187
f 187 173 171
f 188 189 185
f 185 189 183
