v -0.493443 1.08068 -0.292443
v -0.458573 1.03686 -0.296917
v -0.464156 1.08565 -0.340125
v -0.435307 0.987432 -0.31
v -0.431911 1.03803 -0.348555
v -0.446047 1.0813 -0.393125
v -0.425414 0.936149 -0.330695
v -0.412198 0.978155 -0.368636
v -0.42965 0.886921 -0.357427
v -0.411507 0.925741 -0.393756
v -0.40855 0.967407 -0.431322
v -0.417845 1.0275 -0.412338
v -0.440495 1.06795 -0.447411
v -0.417845 1.01526 -0.532338
v -0.40855 0.955161 -0.551322
v -0.421004 0.996501 -0.587265
v -0.440495 1.0557 -0.567411
v -0.447922 1.03437 -0.618848
v -0.516396 1.12139 -0.323621
v -0.490396 1.12352 -0.375564
v -0.54655 1.15005 -0.361374
v -0.446047 1.06905 -0.513125
v -0.476329 1.10075 -0.559347
v -0.478827 1.08103 -0.613968
v -0.519793 1.11778 -0.602696
v -0.529166 1.14914 -0.422655
v -0.581611 1.16448 -0.402829
v -0.529166 1.1369 -0.542655
v -0.567703 1.14183 -0.58589
v -0.581611 1.15223 -0.522829
v -0.618908 1.15134 -0.56483
v -0.476329 1.113 -0.439347
v -0.543099 1.09469 -0.270214
v -0.570242 1.13266 -0.304854
v -0.597924 1.09868 -0.258626
v -0.609013 1.15828 -0.351944
v -0.618908 1.16358 -0.44483
v -0.646646 1.1631 -0.39598
v -0.671671 1.1474 -0.348197
v -0.636022 1.13127 -0.297926
v -0.653745 1.09235 -0.258561
v -0.692077 1.11767 -0.305118
v -0.706311 1.07618 -0.270024
v -0.507363 1.04245 -0.25371
v -0.561106 1.05281 -0.234143
v -0.529172 0.998172 -0.226875
v -0.626886 1.05142 -0.227215
v -0.683044 1.03873 -0.235207
v -0.654293 0.995525 -0.213697
v -0.590741 0.998584 -0.210523
v -0.55721 0.95123 -0.213979
v -0.622246 0.949854 -0.20713
v -0.589343 0.905193 -0.216005
v -0.475613 0.994329 -0.261152
v -0.505248 0.9401 -0.237532
v -0.53772 0.892031 -0.233833
v -0.491675 0.884282 -0.265071
v -0.4559 0.934453 -0.281233
v -0.454714 0.882534 -0.307342
v -0.432211 0.865693 -0.409377
v -0.432211 0.853447 -0.529377
v -0.448382 0.839636 -0.581374
v -0.419072 0.894646 -0.568219
v -0.411507 0.913495 -0.513756
v -0.476932 0.834293 -0.629461
v -0.44566 0.883259 -0.62772
v -0.515688 0.837824 -0.669976
v -0.482515 0.883082 -0.672668
v -0.459122 0.933501 -0.6645
v -0.424719 0.943994 -0.61192
v -0.447291 0.985243 -0.646093
v -0.483027 1.03748 -0.662596
v -0.487452 0.985445 -0.688114
v -0.527875 1.034 -0.696251
v -0.508393 0.924709 -0.703913
v -0.538955 0.875274 -0.704793
v -0.567707 0.918479 -0.726303
v -0.544538 0.977547 -0.720606
v -0.57905 1.0242 -0.71725
v -0.599754 0.96415 -0.73287
v -0.632657 1.00881 -0.723994
v -0.519348 1.08233 -0.655622
v -0.576434 1.07443 -0.688114
v -0.63129 1.05993 -0.700746
v -0.628378 1.10276 -0.6645
v -0.572186 1.11847 -0.638929
v -0.624143 1.13402 -0.618015
v -0.672933 1.1396 -0.574808
v -0.67862 1.11622 -0.62772
v -0.722243 1.1135 -0.581374
v -0.682869 1.07218 -0.676904
v -0.68428 1.02197 -0.706167
v -0.730325 1.02972 -0.674929
v -0.732217 1.07782 -0.633203
v -0.763086 1.07501 -0.58403
v -0.767286 1.03147 -0.632658
v -0.79235 1.02708 -0.582573
v -0.646646 1.15086 -0.51598
v -0.701381 1.13325 -0.524517
v -0.701381 1.1455 -0.404517
v -0.672933 1.15185 -0.454808
v -0.754977 1.09486 -0.53
v -0.789789 1.04831 -0.530623
v -0.754977 1.1071 -0.41
v -0.789789 1.06056 -0.410623
v -0.773618 1.07437 -0.358626
v -0.72839 1.11849 -0.350499
v -0.745067 1.07971 -0.310539
v -0.722243 1.12574 -0.461374
v -0.739485 1.03092 -0.267332
v -0.77634 1.03075 -0.31228
v -0.762878 0.980503 -0.2755
v -0.802927 1.01936 -0.371781
v -0.810493 0.988263 -0.546244
v -0.810493 1.00051 -0.426244
v -0.81345 0.958843 -0.388678
v -0.797281 0.97001 -0.32808
v -0.774709 0.928761 -0.293907
v -0.800996 0.917503 -0.352735
v -0.774078 0.879636 -0.321152
v -0.713607 0.989295 -0.236087
v -0.734548 0.928559 -0.251886
v -0.738973 0.876521 -0.277404
v -0.694125 0.88 -0.243749
v -0.677462 0.936457 -0.219394
v -0.64295 0.889806 -0.22275
v -0.59071 0.854069 -0.239254
v -0.645565 0.839577 -0.251886
v -0.593622 0.811247 -0.2755
v -0.702652 0.831679 -0.284378
v -0.743173 0.832977 -0.326032
v -0.702206 0.796225 -0.337304
v -0.649814 0.795534 -0.301071
v -0.597857 0.779987 -0.321985
v -0.654297 0.772178 -0.354109
v -0.603092 0.762667 -0.37517
v -0.539131 0.841828 -0.263096
v -0.54338 0.797785 -0.31228
v -0.549067 0.774404 -0.365192
v -0.499756 0.800507 -0.358626
v -0.489783 0.836181 -0.306797
v -0.458914 0.838989 -0.35597
v -0.467023 0.819148 -0.41
v -0.467023 0.806902 -0.53
v -0.520619 0.780751 -0.415483
v -0.575353 0.763146 -0.42402
v -0.520619 0.768505 -0.535483
v -0.575353 0.7509 -0.54402
v -0.550329 0.766601 -0.591803
v -0.549067 0.762158 -0.485192
v -0.49361 0.795514 -0.589501
v -0.529923 0.79633 -0.634882
v -0.499756 0.788261 -0.478626
v -0.728557 0.833322 -0.647557
v -0.714637 0.871558 -0.68629
v -0.678901 0.819318 -0.669786
v -0.692828 0.915832 -0.713125
v -0.660894 0.861191 -0.705857
v -0.624076 0.815329 -0.681374
v -0.66479 0.962774 -0.726021
v -0.631259 0.91542 -0.729477
v -0.595114 0.862582 -0.712785
v -0.568255 0.821658 -0.681439
v -0.763427 0.877141 -0.643083
v -0.786693 0.926572 -0.63
v -0.746387 0.919675 -0.678848
v -0.796586 0.977855 -0.609305
v -0.7661 0.979551 -0.658767
v -0.716752 0.973904 -0.702468
v -0.757844 0.828351 -0.599875
v -0.775953 0.832707 -0.546875
v -0.790089 0.875974 -0.591445
v -0.781505 0.846059 -0.492589
v -0.804155 0.886501 -0.527662
v -0.781505 0.858305 -0.372589
v -0.804155 0.898747 -0.407662
v -0.809802 0.935849 -0.571363
v -0.81345 0.946597 -0.508678
v -0.705604 0.792614 -0.616379
v -0.67545 0.763955 -0.578626
v -0.731604 0.79048 -0.564436
v -0.640389 0.749524 -0.537171
v -0.692833 0.764863 -0.517345
v -0.640389 0.76177 -0.417171
v -0.692833 0.777108 -0.397345
v -0.775953 0.844953 -0.426875
v -0.745671 0.813254 -0.380653
v -0.745671 0.801008 -0.500653
v -0.651758 0.781344 -0.635146
v -0.585977 0.782735 -0.642074
v -0.612987 0.755726 -0.588056
v -0.603092 0.750421 -0.49517
f 1 2 3
f 2 4 5
f 3 5 6
f 2 5 3
f 4 7 8
f 7 9 10
f 8 10 11
f 7 10 8
f 6 12 13
f 14 15 16
f 17 16 18
f 14 16 17
f 4 8 5
f 8 11 12
f 5 12 6
f 8 12 5
f 1 3 19
f 3 6 20
f 19 20 21
f 3 20 19
f 22 17 23
f 17 18 24
f 23 24 25
f 17 24 23
f 21 26 27
f 28 25 29
f 30 29 31
f 28 29 30
f 6 32 20
f 23 25 28
f 20 26 21
f 32 26 20
f 1 19 33
f 19 21 34
f 33 34 35
f 19 34 33
f 21 27 36
f 27 37 38
f 36 38 39
f 27 38 36
f 35 40 41
f 40 39 42
f 41 42 43
f 40 42 41
f 21 36 34
f 36 39 40
f 34 40 35
f 36 40 34
f 1 33 44
f 33 35 45
f 44 45 46
f 33 45 44
f 35 41 47
f 41 43 48
f 47 48 49
f 41 48 47
f 46 50 51
f 50 49 52
f 51 52 53
f 50 52 51
f 35 47 45
f 47 49 50
f 45 50 46
f 47 50 45
f 1 44 2
f 44 46 54
f 2 54 4
f 44 54 2
f 46 51 55
f 51 53 56
f 55 56 57
f 51 56 55
f 4 58 7
f 58 57 59
f 7 59 9
f 58 59 7
f 46 55 54
f 55 57 58
f 54 58 4
f 55 58 54
f 9 60 10
f 61 62 63
f 64 63 15
f 61 63 64
f 62 65 66
f 65 67 68
f 66 68 69
f 65 68 66
f 15 70 16
f 70 69 71
f 16 71 18
f 70 71 16
f 62 66 63
f 66 69 70
f 63 70 15
f 66 70 63
f 18 71 72
f 71 69 73
f 72 73 74
f 71 73 72
f 69 68 75
f 68 67 76
f 75 76 77
f 68 76 75
f 74 78 79
f 78 77 80
f 79 80 81
f 78 80 79
f 69 75 73
f 75 77 78
f 73 78 74
f 75 78 73
f 18 72 24
f 72 74 82
f 24 82 25
f 72 82 24
f 74 79 83
f 79 81 84
f 83 84 85
f 79 84 83
f 25 86 29
f 86 85 87
f 29 87 31
f 86 87 29
f 74 83 82
f 83 85 86
f 82 86 25
f 83 86 82
f 31 87 88
f 87 85 89
f 88 89 90
f 87 89 88
f 85 84 91
f 84 81 92
f 91 92 93
f 84 92 91
f 90 94 95
f 94 93 96
f 95 96 97
f 94 96 95
f 85 91 89
f 91 93 94
f 89 94 90
f 91 94 89
f 31 88 98
f 88 90 99
f 38 100 39
f 101 100 38
f 90 95 102
f 95 97 103
f 104 105 106
f 95 103 102
f 39 107 42
f 107 106 108
f 42 108 43
f 107 108 42
f 109 104 100
f 104 106 107
f 100 107 39
f 104 107 100
f 43 108 110
f 108 106 111
f 110 111 112
f 108 111 110
f 106 105 113
f 103 97 114
f 113 115 116
f 105 115 113
f 112 117 118
f 117 116 119
f 118 119 120
f 117 119 118
f 106 113 111
f 113 116 117
f 111 117 112
f 113 117 111
f 43 110 48
f 110 112 121
f 48 121 49
f 110 121 48
f 112 118 122
f 118 120 123
f 122 123 124
f 118 123 122
f 49 125 52
f 125 124 126
f 52 126 53
f 125 126 52
f 112 122 121
f 122 124 125
f 121 125 49
f 122 125 121
f 53 126 127
f 126 124 128
f 127 128 129
f 126 128 127
f 124 123 130
f 123 120 131
f 130 131 132
f 123 131 130
f 129 133 134
f 133 132 135
f 134 135 136
f 133 135 134
f 124 130 128
f 130 132 133
f 128 133 129
f 130 133 128
f 53 127 56
f 127 129 137
f 56 137 57
f 127 137 56
f 129 134 138
f 134 136 139
f 138 139 140
f 134 139 138
f 57 141 59
f 141 140 142
f 59 142 9
f 141 142 59
f 129 138 137
f 138 140 141
f 137 141 57
f 138 141 137
f 9 142 60
f 142 140 143
f 61 144 62
f 142 143 60
f 140 139 145
f 139 136 146
f 147 148 149
f 150 148 147
f 62 151 65
f 151 149 152
f 65 152 67
f 151 152 65
f 153 147 144
f 147 149 151
f 144 151 62
f 147 151 144
f 154 155 156
f 155 157 158
f 156 158 159
f 155 158 156
f 157 160 161
f 160 81 80
f 161 80 77
f 160 80 161
f 159 162 163
f 162 77 76
f 163 76 67
f 162 76 163
f 157 161 158
f 161 77 162
f 158 162 159
f 161 162 158
f 154 164 155
f 164 165 166
f 155 166 157
f 164 166 155
f 165 167 168
f 167 97 96
f 168 96 93
f 167 96 168
f 157 169 160
f 169 93 92
f 160 92 81
f 169 92 160
f 165 168 166
f 168 93 169
f 166 169 157
f 168 169 166
f 154 170 164
f 170 171 172
f 164 172 165
f 170 172 164
f 171 173 174
f 175 120 119
f 176 119 116
f 175 119 176
f 165 177 167
f 177 178 114
f 167 114 97
f 177 114 167
f 171 174 172
f 174 178 177
f 172 177 165
f 174 177 172
f 154 179 170
f 179 180 181
f 170 181 171
f 179 181 170
f 180 182 183
f 184 136 135
f 185 135 132
f 184 135 185
f 186 187 175
f 187 132 131
f 175 131 120
f 187 131 175
f 180 183 181
f 185 132 187
f 181 188 171
f 183 188 181
f 154 156 179
f 156 159 189
f 179 189 180
f 156 189 179
f 159 163 190
f 163 67 152
f 190 152 149
f 163 152 190
f 180 191 182
f 191 149 148
f 182 148 192
f 191 148 182
f 159 190 189
f 190 149 191
f 189 191 180
f 190 191 189
f 10 64 11
f 11 64 15
f 12 14 13
f 13 14 17
f 13 17 6
f 6 17 22
f 11 15 12
f 12 15 14
f 26 28 27
f 27 28 30
f 6 22 32
f 32 22 23
f 32 23 26
f 26 23 28
f 27 30 37
f 37 30 31
f 37 31 38
f 38 31 98
f 60 61 10
f 10 61 64
f 101 88 100
f 100 88 99
f 38 98 101
f 101 98 88
f 104 102 105
f 105 102 103
f 109 90 104
f 104 90 102
f 100 99 109
f 109 99 90
f 115 114 116
f 116 114 178
f 105 103 115
f 115 103 114
f 140 153 143
f 143 153 144
f 143 144 60
f 60 144 61
f 139 150 145
f 145 150 147
f 145 147 140
f 140 147 153
f 136 192 146
f 146 192 148
f 146 148 139
f 139 148 150
f 116 178 176
f 176 178 174
f 176 174 175
f 175 174 173
f 184 182 136
f 136 182 192
f 185 183 184
f 184 183 182
f 186 171 187
f 187 171 188
f 175 173 186
f 186 173 171
f 187 188 185
f 185 188 183
