v -0.493443 1.06844 -0.412443
v -0.458573 1.02462 -0.416917
v -0.464156 1.07341 -0.460125
v -0.435307 0.975186 -0.43
v -0.431911 1.02578 -0.468555
v -0.446047 1.06905 -0.513125
v -0.425414 0.923904 -0.450695
v -0.412198 0.965909 -0.488636
v -0.42965 0.874675 -0.477427
v -0.411507 0.913495 -0.513756
v -0.40855 0.955161 -0.551322
v -0.417845 1.01526 -0.532338
v -0.440495 1.0557 -0.567411
v -0.417845 0.992858 -0.612338
v -0.40855 0.932762 -0.631322
v -0.421004 0.974102 -0.667265
v -0.440495 1.0333 -0.647411
v -0.447922 1.01197 -0.698848
v -0.516396 1.10914 -0.443621
v -0.490396 1.11128 -0.495564
v -0.54655 1.1378 -0.481374
v -0.476329 1.10075 -0.559347
v -0.478827 1.05863 -0.693968
v -0.476329 1.07835 -0.639347
v -0.519793 1.09538 -0.682696
v -0.529166 1.1369 -0.542655
v -0.581611 1.15223 -0.522829
v -0.519793 1.11778 -0.602696
v -0.567703 1.14183 -0.58589
v -0.618908 1.15134 -0.56483
v -0.543099 1.08244 -0.390214
v -0.570242 1.12041 -0.424854
v -0.597924 1.08643 -0.378626
v -0.609013 1.14603 -0.471944
v -0.646646 1.15086 -0.51598
v -0.671671 1.13516 -0.468197
v -0.636022 1.11902 -0.417926
v -0.653745 1.0801 -0.378561
v -0.692077 1.10543 -0.425118
v -0.706311 1.06393 -0.390024
v -0.507363 1.0302 -0.37371
v -0.561106 1.04057 -0.354143
v -0.529172 0.985926 -0.346875
v -0.626886 1.03918 -0.347215
v -0.683044 1.02648 -0.355207
v -0.654293 0.983279 -0.333697
v -0.590741 0.986338 -0.330523
v -0.55721 0.938984 -0.333979
v -0.622246 0.937608 -0.32713
v -0.589343 0.892947 -0.336005
v -0.475613 0.982083 -0.381152
v -0.505248 0.927854 -0.357532
v -0.53772 0.879785 -0.353833
v -0.491675 0.872036 -0.385071
v -0.4559 0.922207 -0.401233
v -0.454714 0.870288 -0.427342
v -0.42965 0.852275 -0.557427
v -0.432211 0.831047 -0.609377
v -0.411507 0.891096 -0.593756
v -0.448382 0.817236 -0.661374
v -0.419072 0.872247 -0.648219
v -0.476932 0.811893 -0.709461
v -0.44566 0.860859 -0.70772
v -0.515688 0.815425 -0.749976
v -0.482515 0.860683 -0.752668
v -0.459122 0.911102 -0.7445
v -0.424719 0.921595 -0.69192
v -0.447291 0.962843 -0.726093
v -0.483027 1.01508 -0.742596
v -0.487452 0.963045 -0.768114
v -0.527875 1.01161 -0.776251
v -0.508393 0.90231 -0.783913
v -0.538955 0.852875 -0.784793
v -0.567707 0.896079 -0.806303
v -0.544538 0.955147 -0.800606
v -0.57905 1.0018 -0.79725
v -0.599754 0.941751 -0.81287
v -0.632657 0.986412 -0.803995
v -0.519348 1.05993 -0.735622
v -0.576434 1.05203 -0.768114
v -0.63129 1.03754 -0.780746
v -0.628378 1.08036 -0.7445
v -0.572186 1.09607 -0.718929
v -0.567703 1.11943 -0.665891
v -0.624143 1.11162 -0.698015
v -0.618908 1.12894 -0.64483
v -0.672933 1.1172 -0.654808
v -0.67862 1.09382 -0.70772
v -0.722243 1.0911 -0.661374
v -0.682869 1.04978 -0.756904
v -0.68428 0.999573 -0.786167
v -0.730325 1.00732 -0.754929
v -0.732217 1.05542 -0.713203
v -0.763086 1.05262 -0.66403
v -0.767286 1.00907 -0.712658
v -0.79235 1.00468 -0.662573
v -0.672933 1.1396 -0.574808
v -0.722243 1.1135 -0.581374
v -0.701381 1.13325 -0.524517
v -0.763086 1.07501 -0.58403
v -0.754977 1.09486 -0.53
v -0.789789 1.02591 -0.610623
v -0.789789 1.04831 -0.530623
v -0.773618 1.06212 -0.478626
v -0.72839 1.10624 -0.470499
v -0.745067 1.06747 -0.430539
v -0.739485 1.01868 -0.387332
v -0.77634 1.0185 -0.43228
v -0.762878 0.968257 -0.3955
v -0.802927 1.00711 -0.491781
v -0.79235 1.02708 -0.582573
v -0.810493 0.988263 -0.546244
v -0.81345 0.946597 -0.508678
v -0.797281 0.957764 -0.44808
v -0.774709 0.916515 -0.413907
v -0.800996 0.905257 -0.472735
v -0.774078 0.86739 -0.441152
v -0.713607 0.977049 -0.356087
v -0.734548 0.916314 -0.371886
v -0.738973 0.864275 -0.397404
v -0.694125 0.867754 -0.363749
v -0.677462 0.924211 -0.339394
v -0.64295 0.87756 -0.34275
v -0.59071 0.841823 -0.359254
v -0.645565 0.827331 -0.371886
v -0.593622 0.799001 -0.3955
v -0.702652 0.819433 -0.404378
v -0.743173 0.820731 -0.446032
v -0.702206 0.783979 -0.457304
v -0.649814 0.783288 -0.421071
v -0.597857 0.767741 -0.441985
v -0.654297 0.759932 -0.47411
v -0.603092 0.750421 -0.49517
v -0.539131 0.829582 -0.383096
v -0.54338 0.785539 -0.43228
v -0.549067 0.762158 -0.485192
v -0.499756 0.788261 -0.478626
v -0.489783 0.823935 -0.426797
v -0.458914 0.826743 -0.47597
v -0.432211 0.853447 -0.529377
v -0.458914 0.804344 -0.55597
v -0.499756 0.765862 -0.558626
v -0.467023 0.784502 -0.61
v -0.549067 0.739759 -0.565192
v -0.520619 0.746106 -0.615483
v -0.603092 0.728022 -0.57517
v -0.575353 0.7285 -0.62402
v -0.550329 0.744202 -0.671803
v -0.49361 0.773115 -0.669501
v -0.529923 0.773931 -0.714882
v -0.728557 0.810923 -0.727557
v -0.714637 0.849159 -0.76629
v -0.678901 0.796919 -0.749786
v -0.692828 0.893433 -0.793125
v -0.660894 0.838792 -0.785857
v -0.624076 0.79293 -0.761374
v -0.66479 0.940375 -0.806021
v -0.631259 0.893021 -0.809477
v -0.595114 0.840183 -0.792785
v -0.568255 0.799259 -0.761439
v -0.763427 0.854741 -0.723083
v -0.786693 0.904173 -0.71
v -0.746387 0.897276 -0.758848
v -0.796586 0.955455 -0.689305
v -0.7661 0.957151 -0.738767
v -0.716752 0.951505 -0.782468
v -0.757844 0.805951 -0.679875
v -0.775953 0.810307 -0.626875
v -0.790089 0.853574 -0.671445
v -0.781505 0.823659 -0.572589
v -0.804155 0.864102 -0.607662
v -0.781505 0.846059 -0.492589
v -0.804155 0.886501 -0.527662
v -0.809802 0.91345 -0.651363
v -0.81345 0.924197 -0.588678
v -0.810493 0.965864 -0.626244
v -0.705604 0.770215 -0.696379
v -0.67545 0.741555 -0.658626
v -0.731604 0.768081 -0.644436
v -0.640389 0.727125 -0.617171
v -0.692833 0.742463 -0.597345
v -0.654297 0.737533 -0.55411
v -0.702206 0.76158 -0.537304
v -0.745671 0.778608 -0.580653
v -0.745671 0.801008 -0.500653
v -0.651758 0.758945 -0.715146
v -0.585977 0.760336 -0.722074
v -0.612987 0.733327 -0.668056
f 1 2 3
f 2 4 5
f 3 5 6
f 2 5 3
f 4 7 8
f 7 9 10
f 8 10 11
f 7 10 8
f 6 12 13
f 14 15 16
f 17 16 18
f 14 16 17
f 4 8 5
f 8 11 12
f 5 12 6
f 8 12 5
f 1 3 19
f 3 6 20
f 19 20 21
f 3 20 19
f 6 13 22
f 17 18 23
f 24 23 25
f 17 23 24
f 21 26 27
f 26 28 29
f 27 29 30
f 26 29 27
f 6 22 20
f 22 28 26
f 20 26 21
f 22 26 20
f 1 19 31
f 19 21 32
f 31 32 33
f 19 32 31
f 21 27 34
f 27 30 35
f 34 35 36
f 27 35 34
f 33 37 38
f 37 36 39
f 38 39 40
f 37 39 38
f 21 34 32
f 34 36 37
f 32 37 33
f 34 37 32
f 1 31 41
f 31 33 42
f 41 42 43
f 31 42 41
f 33 38 44
f 38 40 45
f 44 45 46
f 38 45 44
f 43 47 48
f 47 46 49
f 48 49 50
f 47 49 48
f 33 44 42
f 44 46 47
f 42 47 43
f 44 47 42
f 1 41 2
f 41 43 51
f 2 51 4
f 41 51 2
f 43 48 52
f 48 50 53
f 52 53 54
f 48 53 52
f 4 55 7
f 55 54 56
f 7 56 9
f 55 56 7
f 43 52 51
f 52 54 55
f 51 55 4
f 52 55 51
f 57 58 59
f 58 60 61
f 59 61 15
f 58 61 59
f 60 62 63
f 62 64 65
f 63 65 66
f 62 65 63
f 15 67 16
f 67 66 68
f 16 68 18
f 67 68 16
f 60 63 61
f 63 66 67
f 61 67 15
f 63 67 61
f 18 68 69
f 68 66 70
f 69 70 71
f 68 70 69
f 66 65 72
f 65 64 73
f 72 73 74
f 65 73 72
f 71 75 76
f 75 74 77
f 76 77 78
f 75 77 76
f 66 72 70
f 72 74 75
f 70 75 71
f 72 75 70
f 18 69 23
f 69 71 79
f 23 79 25
f 69 79 23
f 71 76 80
f 76 78 81
f 80 81 82
f 76 81 80
f 25 83 84
f 83 82 85
f 84 85 86
f 83 85 84
f 71 80 79
f 80 82 83
f 79 83 25
f 80 83 79
f 86 85 87
f 85 82 88
f 87 88 89
f 85 88 87
f 82 81 90
f 81 78 91
f 90 91 92
f 81 91 90
f 89 93 94
f 93 92 95
f 94 95 96
f 93 95 94
f 82 90 88
f 90 92 93
f 88 93 89
f 90 93 88
f 30 97 35
f 97 98 99
f 35 99 36
f 97 99 35
f 98 100 101
f 94 96 102
f 101 103 104
f 100 103 101
f 36 105 39
f 105 104 106
f 39 106 40
f 105 106 39
f 98 101 99
f 101 104 105
f 99 105 36
f 101 105 99
f 40 106 107
f 106 104 108
f 107 108 109
f 106 108 107
f 104 103 110
f 103 111 112
f 110 112 113
f 103 112 110
f 109 114 115
f 114 113 116
f 115 116 117
f 114 116 115
f 104 110 108
f 110 113 114
f 108 114 109
f 110 114 108
f 40 107 45
f 107 109 118
f 45 118 46
f 107 118 45
f 109 115 119
f 115 117 120
f 119 120 121
f 115 120 119
f 46 122 49
f 122 121 123
f 49 123 50
f 122 123 49
f 109 119 118
f 119 121 122
f 118 122 46
f 119 122 118
f 50 123 124
f 123 121 125
f 124 125 126
f 123 125 124
f 121 120 127
f 120 117 128
f 127 128 129
f 120 128 127
f 126 130 131
f 130 129 132
f 131 132 133
f 130 132 131
f 121 127 125
f 127 129 130
f 125 130 126
f 127 130 125
f 50 124 53
f 124 126 134
f 53 134 54
f 124 134 53
f 126 131 135
f 131 133 136
f 135 136 137
f 131 136 135
f 54 138 56
f 138 137 139
f 56 139 9
f 138 139 56
f 126 135 134
f 135 137 138
f 134 138 54
f 135 138 134
f 9 139 140
f 141 142 143
f 58 143 60
f 141 143 58
f 142 144 145
f 144 146 147
f 145 147 148
f 144 147 145
f 60 149 62
f 149 148 150
f 62 150 64
f 149 150 62
f 142 145 143
f 145 148 149
f 143 149 60
f 145 149 143
f 151 152 153
f 152 154 155
f 153 155 156
f 152 155 153
f 154 157 158
f 157 78 77
f 158 77 74
f 157 77 158
f 156 159 160
f 159 74 73
f 160 73 64
f 159 73 160
f 154 158 155
f 158 74 159
f 155 159 156
f 158 159 155
f 151 161 152
f 161 162 163
f 152 163 154
f 161 163 152
f 162 164 165
f 164 96 95
f 165 95 92
f 164 95 165
f 154 166 157
f 166 92 91
f 157 91 78
f 166 91 157
f 162 165 163
f 165 92 166
f 163 166 154
f 165 166 163
f 151 167 161
f 167 168 169
f 161 169 162
f 167 169 161
f 168 170 171
f 172 117 116
f 173 116 113
f 172 116 173
f 162 174 164
f 174 175 176
f 164 176 96
f 174 176 164
f 168 171 169
f 171 175 174
f 169 174 162
f 171 174 169
f 151 177 167
f 177 178 179
f 167 179 168
f 177 179 167
f 178 180 181
f 180 146 182
f 181 182 183
f 180 182 181
f 168 184 170
f 185 129 128
f 172 128 117
f 185 128 172
f 178 181 179
f 181 183 184
f 179 184 168
f 181 184 179
f 151 153 177
f 153 156 186
f 177 186 178
f 153 186 177
f 156 160 187
f 160 64 150
f 187 150 148
f 160 150 187
f 178 188 180
f 188 148 147
f 180 147 146
f 188 147 180
f 156 187 186
f 187 148 188
f 186 188 178
f 187 188 186
f 9 57 10
f 10 57 59
f 10 59 11
f 11 59 15
f 12 14 13
f 13 14 17
f 11 15 12
f 12 15 14
f 13 17 22
f 22 17 24
f 28 25 29
f 29 25 84
f 29 84 30
f 30 84 86
f 22 24 28
f 28 24 25
f 30 86 97
f 97 86 87
f 97 87 98
f 98 87 89
f 98 89 100
f 100 89 94
f 100 94 103
f 103 94 102
f 103 102 111
f 111 102 96
f 111 96 112
f 112 96 176
f 112 176 113
f 113 176 175
f 129 183 132
f 132 183 182
f 132 182 133
f 133 182 146
f 133 146 136
f 136 146 144
f 136 144 137
f 137 144 142
f 137 142 139
f 139 142 141
f 139 141 140
f 140 141 58
f 140 58 9
f 9 58 57
f 113 175 173
f 173 175 171
f 173 171 172
f 172 171 170
f 185 184 129
f 129 184 183
f 172 170 185
f 185 170 184
