v -0.493443 1.04604 -0.492443
v -0.458573 1.00222 -0.496917
v -0.464156 1.05101 -0.540125
v -0.435307 0.952786 -0.51
v -0.431911 1.00339 -0.548555
v -0.446047 1.04665 -0.593125
v -0.425414 0.901504 -0.530695
v -0.412198 0.94351 -0.568637
v -0.42965 0.852275 -0.557427
v -0.411507 0.891096 -0.593756
v -0.40855 0.932762 -0.631322
v -0.446047 1.07564 -0.673125
v -0.417845 1.02185 -0.692338
v -0.440495 1.06229 -0.727411
v -0.40855 0.961754 -0.711322
v -0.421004 1.00309 -0.747265
v -0.447922 1.04096 -0.778848
v -0.412198 0.972502 -0.648637
v -0.431911 1.03238 -0.628555
v -0.417845 0.992858 -0.612338
v -0.516396 1.08674 -0.523621
v -0.464156 1.08 -0.620125
v -0.490396 1.11787 -0.655564
v -0.516396 1.11574 -0.603621
v -0.54655 1.1444 -0.641374
v -0.490396 1.08888 -0.575564
v -0.476329 1.10734 -0.719347
v -0.478827 1.08762 -0.773968
v -0.519793 1.12437 -0.762696
v -0.529166 1.14349 -0.702655
v -0.581611 1.15883 -0.682829
v -0.567703 1.14842 -0.74589
v -0.618908 1.15793 -0.72483
v -0.543099 1.06004 -0.470214
v -0.54655 1.1154 -0.561374
v -0.570242 1.09801 -0.504854
v -0.597924 1.06403 -0.458626
v -0.609013 1.15262 -0.631944
v -0.646646 1.15745 -0.67598
v -0.671671 1.14175 -0.628197
v -0.636022 1.09662 -0.497926
v -0.653745 1.0577 -0.458561
v -0.671671 1.11276 -0.548197
v -0.692077 1.08303 -0.505118
v -0.706311 1.04153 -0.470024
v -0.609013 1.12363 -0.551944
v -0.507363 1.0078 -0.45371
v -0.561106 1.01817 -0.434143
v -0.529172 0.963526 -0.426875
v -0.626886 1.01678 -0.427215
v -0.683044 1.00408 -0.435207
v -0.654293 0.96088 -0.413697
v -0.590741 0.963939 -0.410523
v -0.55721 0.916584 -0.413979
v -0.622246 0.915209 -0.40713
v -0.589343 0.870548 -0.416006
v -0.475613 0.959684 -0.461152
v -0.505248 0.905454 -0.437532
v -0.53772 0.857386 -0.433833
v -0.491675 0.849636 -0.465071
v -0.4559 0.899808 -0.481233
v -0.454714 0.847888 -0.507342
v -0.432211 0.831047 -0.609377
v -0.432211 0.860039 -0.689377
v -0.448382 0.846228 -0.741374
v -0.419072 0.901239 -0.728219
v -0.411507 0.920088 -0.673756
v -0.419072 0.872247 -0.648219
v -0.476932 0.840885 -0.789461
v -0.44566 0.889851 -0.78772
v -0.515688 0.844417 -0.829976
v -0.482515 0.889675 -0.832668
v -0.459122 0.940094 -0.8245
v -0.424719 0.950587 -0.77192
v -0.447291 0.991835 -0.806093
v -0.483027 1.04408 -0.822596
v -0.487452 0.992037 -0.848114
v -0.527875 1.0406 -0.856251
v -0.508393 0.931302 -0.863913
v -0.538955 0.881867 -0.864793
v -0.567707 0.925071 -0.886303
v -0.544538 0.984139 -0.880606
v -0.57905 1.03079 -0.87725
v -0.599754 0.970743 -0.89287
v -0.632657 1.0154 -0.883994
v -0.519348 1.08892 -0.815622
v -0.576434 1.08102 -0.848114
v -0.63129 1.06653 -0.860746
v -0.628378 1.10935 -0.8245
v -0.572186 1.12506 -0.798929
v -0.624143 1.14061 -0.778015
v -0.672933 1.14619 -0.734808
v -0.67862 1.12281 -0.78772
v -0.722243 1.12009 -0.741374
v -0.682869 1.07877 -0.836904
v -0.68428 1.02857 -0.866167
v -0.730325 1.03631 -0.834929
v -0.732217 1.08442 -0.793203
v -0.763086 1.08161 -0.74403
v -0.767286 1.03806 -0.792658
v -0.79235 1.03368 -0.742573
v -0.701381 1.13985 -0.684517
v -0.754977 1.10145 -0.69
v -0.789789 1.0549 -0.690623
v -0.773618 1.06872 -0.638626
v -0.72839 1.08384 -0.550499
v -0.773618 1.03972 -0.558626
v -0.745067 1.04507 -0.510539
v -0.72839 1.11284 -0.630499
v -0.739485 0.996276 -0.467332
v -0.77634 0.9961 -0.51228
v -0.762878 0.945858 -0.4755
v -0.789789 1.02591 -0.610623
v -0.802927 0.984713 -0.571781
v -0.810493 0.994856 -0.706244
v -0.810493 0.965864 -0.626244
v -0.81345 0.924197 -0.588678
v -0.802927 1.0137 -0.651781
v -0.797281 0.935364 -0.52808
v -0.774709 0.894116 -0.493907
v -0.800996 0.882857 -0.552735
v -0.774078 0.84499 -0.521152
v -0.713607 0.95465 -0.436087
v -0.734548 0.893914 -0.451886
v -0.738973 0.841876 -0.477404
v -0.694125 0.845354 -0.443749
v -0.677462 0.901812 -0.419394
v -0.64295 0.85516 -0.42275
v -0.59071 0.819424 -0.439254
v -0.645565 0.804931 -0.451886
v -0.593622 0.776602 -0.4755
v -0.702652 0.797033 -0.484378
v -0.743173 0.798331 -0.526032
v -0.702206 0.76158 -0.537304
v -0.649814 0.760888 -0.501071
v -0.597857 0.745341 -0.521985
v -0.654297 0.737533 -0.55411
v -0.603092 0.728022 -0.57517
v -0.539131 0.807182 -0.463096
v -0.54338 0.76314 -0.51228
v -0.549067 0.739759 -0.565192
v -0.499756 0.765862 -0.558626
v -0.489783 0.801536 -0.506797
v -0.458914 0.804344 -0.55597
v -0.467023 0.784502 -0.61
v -0.448382 0.817236 -0.661374
v -0.520619 0.746106 -0.615483
v -0.575353 0.7285 -0.62402
v -0.550329 0.744202 -0.671803
v -0.49361 0.802107 -0.749501
v -0.550329 0.773194 -0.751803
v -0.529923 0.802923 -0.794882
v -0.49361 0.773115 -0.669501
v -0.728557 0.839915 -0.807557
v -0.714637 0.878151 -0.84629
v -0.678901 0.825911 -0.829786
v -0.692828 0.922425 -0.873125
v -0.660894 0.867784 -0.865857
v -0.624076 0.821922 -0.841374
v -0.66479 0.969367 -0.886021
v -0.631259 0.922013 -0.889477
v -0.595114 0.869175 -0.872785
v -0.568255 0.828251 -0.841439
v -0.763427 0.883733 -0.803083
v -0.786693 0.933165 -0.79
v -0.746387 0.926268 -0.838848
v -0.796586 0.984447 -0.769305
v -0.7661 0.986143 -0.818767
v -0.716752 0.980497 -0.862468
v -0.757844 0.834943 -0.759875
v -0.775953 0.839299 -0.706875
v -0.790089 0.882566 -0.751445
v -0.775953 0.810307 -0.626875
v -0.781505 0.823659 -0.572589
v -0.804155 0.864102 -0.607662
v -0.809802 0.942442 -0.731363
v -0.81345 0.95319 -0.668678
v -0.790089 0.853574 -0.671445
v -0.809802 0.91345 -0.651363
v -0.804155 0.893094 -0.687662
v -0.705604 0.799207 -0.776379
v -0.705604 0.770215 -0.696379
v -0.67545 0.741555 -0.658626
v -0.731604 0.768081 -0.644436
v -0.757844 0.805951 -0.679875
v -0.731604 0.797073 -0.724436
v -0.640389 0.727125 -0.617171
v -0.692833 0.742463 -0.597345
v -0.745671 0.778608 -0.580653
v -0.651758 0.787937 -0.795146
v -0.67545 0.770547 -0.738626
v -0.585977 0.789328 -0.802074
v -0.612987 0.733327 -0.668056
v -0.612987 0.762319 -0.748056
f 1 2 3
f 2 4 5
f 3 5 6
f 2 5 3
f 4 7 8
f 7 9 10
f 8 10 11
f 7 10 8
f 12 13 14
f 13 15 16
f 14 16 17
f 13 16 14
f 4 8 5
f 18 15 13
f 19 13 12
f 8 20 5
f 1 3 21
f 22 12 23
f 24 23 25
f 3 26 21
f 12 14 27
f 14 17 28
f 27 28 29
f 14 28 27
f 25 30 31
f 30 29 32
f 31 32 33
f 30 32 31
f 12 27 23
f 27 29 30
f 23 30 25
f 27 30 23
f 1 21 34
f 21 35 36
f 34 36 37
f 21 36 34
f 25 31 38
f 31 33 39
f 38 39 40
f 31 39 38
f 37 41 42
f 41 43 44
f 42 44 45
f 41 44 42
f 35 46 36
f 46 43 41
f 36 41 37
f 46 41 36
f 1 34 47
f 34 37 48
f 47 48 49
f 34 48 47
f 37 42 50
f 42 45 51
f 50 51 52
f 42 51 50
f 49 53 54
f 53 52 55
f 54 55 56
f 53 55 54
f 37 50 48
f 50 52 53
f 48 53 49
f 50 53 48
f 1 47 2
f 47 49 57
f 2 57 4
f 47 57 2
f 49 54 58
f 54 56 59
f 58 59 60
f 54 59 58
f 4 61 7
f 61 60 62
f 7 62 9
f 61 62 7
f 49 58 57
f 58 60 61
f 57 61 4
f 58 61 57
f 9 63 10
f 64 65 66
f 67 66 15
f 63 68 10
f 65 69 70
f 69 71 72
f 70 72 73
f 69 72 70
f 15 74 16
f 74 73 75
f 16 75 17
f 74 75 16
f 65 70 66
f 70 73 74
f 66 74 15
f 70 74 66
f 17 75 76
f 75 73 77
f 76 77 78
f 75 77 76
f 73 72 79
f 72 71 80
f 79 80 81
f 72 80 79
f 78 82 83
f 82 81 84
f 83 84 85
f 82 84 83
f 73 79 77
f 79 81 82
f 77 82 78
f 79 82 77
f 17 76 28
f 76 78 86
f 28 86 29
f 76 86 28
f 78 83 87
f 83 85 88
f 87 88 89
f 83 88 87
f 29 90 32
f 90 89 91
f 32 91 33
f 90 91 32
f 78 87 86
f 87 89 90
f 86 90 29
f 87 90 86
f 33 91 92
f 91 89 93
f 92 93 94
f 91 93 92
f 89 88 95
f 88 85 96
f 95 96 97
f 88 96 95
f 94 98 99
f 98 97 100
f 99 100 101
f 98 100 99
f 89 95 93
f 95 97 98
f 93 98 94
f 95 98 93
f 33 92 39
f 92 94 102
f 39 102 40
f 92 102 39
f 94 99 103
f 99 101 104
f 103 104 105
f 99 104 103
f 43 106 44
f 106 107 108
f 44 108 45
f 106 108 44
f 94 103 102
f 103 105 109
f 102 109 40
f 103 109 102
f 45 108 110
f 108 107 111
f 110 111 112
f 108 111 110
f 107 113 114
f 104 101 115
f 114 116 117
f 104 115 118
f 112 119 120
f 119 117 121
f 120 121 122
f 119 121 120
f 107 114 111
f 114 117 119
f 111 119 112
f 114 119 111
f 45 110 51
f 110 112 123
f 51 123 52
f 110 123 51
f 112 120 124
f 120 122 125
f 124 125 126
f 120 125 124
f 52 127 55
f 127 126 128
f 55 128 56
f 127 128 55
f 112 124 123
f 124 126 127
f 123 127 52
f 124 127 123
f 56 128 129
f 128 126 130
f 129 130 131
f 128 130 129
f 126 125 132
f 125 122 133
f 132 133 134
f 125 133 132
f 131 135 136
f 135 134 137
f 136 137 138
f 135 137 136
f 126 132 130
f 132 134 135
f 130 135 131
f 132 135 130
f 56 129 59
f 129 131 139
f 59 139 60
f 129 139 59
f 131 136 140
f 136 138 141
f 140 141 142
f 136 141 140
f 60 143 62
f 143 142 144
f 62 144 9
f 143 144 62
f 131 140 139
f 140 142 143
f 139 143 60
f 140 143 139
f 9 144 63
f 144 142 145
f 63 145 146
f 144 145 63
f 142 141 147
f 141 138 148
f 147 148 149
f 141 148 147
f 65 150 69
f 150 151 152
f 69 152 71
f 150 152 69
f 142 147 145
f 147 149 153
f 145 153 146
f 147 153 145
f 154 155 156
f 155 157 158
f 156 158 159
f 155 158 156
f 157 160 161
f 160 85 84
f 161 84 81
f 160 84 161
f 159 162 163
f 162 81 80
f 163 80 71
f 162 80 163
f 157 161 158
f 161 81 162
f 158 162 159
f 161 162 158
f 154 164 155
f 164 165 166
f 155 166 157
f 164 166 155
f 165 167 168
f 167 101 100
f 168 100 97
f 167 100 168
f 157 169 160
f 169 97 96
f 160 96 85
f 169 96 160
f 165 168 166
f 168 97 169
f 166 169 157
f 168 169 166
f 154 170 164
f 170 171 172
f 164 172 165
f 170 172 164
f 173 174 175
f 174 122 121
f 175 121 117
f 174 121 175
f 165 176 167
f 176 177 115
f 167 115 101
f 176 115 167
f 173 175 178
f 175 117 179
f 172 176 165
f 180 176 172
f 154 181 170
f 182 183 184
f 185 184 173
f 181 186 170
f 183 187 188
f 187 138 137
f 188 137 134
f 187 137 188
f 173 189 174
f 189 134 133
f 174 133 122
f 189 133 174
f 183 188 184
f 188 134 189
f 184 189 173
f 188 189 184
f 154 156 181
f 156 159 190
f 181 190 191
f 156 190 181
f 159 163 192
f 163 71 152
f 192 152 151
f 163 152 192
f 183 193 187
f 193 149 148
f 187 148 138
f 193 148 187
f 159 192 190
f 192 151 194
f 190 194 191
f 192 194 190
f 5 19 6
f 6 19 12
f 6 12 3
f 3 12 22
f 10 67 11
f 11 67 15
f 11 15 8
f 8 15 18
f 8 18 20
f 20 18 13
f 20 13 5
f 5 13 19
f 3 22 26
f 26 22 23
f 26 23 21
f 21 23 24
f 21 24 35
f 35 24 25
f 35 25 46
f 46 25 38
f 46 38 43
f 43 38 40
f 63 64 68
f 68 64 66
f 68 66 10
f 10 66 67
f 43 40 106
f 106 40 109
f 106 109 107
f 107 109 105
f 107 105 113
f 113 105 104
f 113 104 114
f 114 104 118
f 114 118 116
f 116 118 115
f 116 115 117
f 117 115 177
f 146 65 63
f 63 65 64
f 149 151 153
f 153 151 150
f 153 150 146
f 146 150 65
f 175 180 178
f 178 180 172
f 178 172 173
f 173 172 171
f 117 177 179
f 179 177 176
f 179 176 175
f 175 176 180
f 182 181 183
f 183 181 191
f 184 186 182
f 182 186 181
f 185 170 184
f 184 170 186
f 173 171 185
f 185 171 170
f 183 191 193
f 193 191 194
f 193 194 149
f 149 194 151
