v -0.493443 1.07503 -0.572443
v -0.458573 1.03121 -0.576917
v -0.464156 1.08 -0.620125
v -0.435307 0.981778 -0.59
v -0.431911 1.03238 -0.628555
v -0.446047 1.07564 -0.673125
v -0.425414 0.930496 -0.610695
v -0.412198 0.972502 -0.648637
v -0.42965 0.881267 -0.637427
v -0.411507 0.920088 -0.673756
v -0.40855 0.961754 -0.711322
v -0.446047 1.08874 -0.753125
v -0.417845 1.03494 -0.772338
v -0.440495 1.07539 -0.807411
v -0.40855 0.974848 -0.791322
v -0.421004 1.01619 -0.827265
v -0.447922 1.05406 -0.858848
v -0.417845 1.02185 -0.692338
v -0.516396 1.11574 -0.603621
v -0.490396 1.11787 -0.655564
v -0.54655 1.1444 -0.641374
v -0.476329 1.12044 -0.799347
v -0.478827 1.10071 -0.853968
v -0.519793 1.13747 -0.842696
v -0.54655 1.15749 -0.721374
v -0.529166 1.15658 -0.782655
v -0.581611 1.17192 -0.762829
v -0.567703 1.16151 -0.82589
v -0.618908 1.17102 -0.80483
v -0.490396 1.13096 -0.735564
v -0.543099 1.08903 -0.550214
v -0.570242 1.12701 -0.584854
v -0.597924 1.09302 -0.538626
v -0.581611 1.15883 -0.682829
v -0.609013 1.15262 -0.631944
v -0.646646 1.17055 -0.75598
v -0.646646 1.15745 -0.67598
v -0.671671 1.14175 -0.628197
v -0.609013 1.16572 -0.711944
v -0.636022 1.12562 -0.577926
v -0.653745 1.08669 -0.538561
v -0.692077 1.11202 -0.585118
v -0.706311 1.07053 -0.550024
v -0.507363 1.03679 -0.53371
v -0.561106 1.04716 -0.514143
v -0.529172 0.992518 -0.506875
v -0.626886 1.04577 -0.507215
v -0.683044 1.03308 -0.515207
v -0.654293 0.989872 -0.493697
v -0.590741 0.992931 -0.490523
v -0.55721 0.945576 -0.493979
v -0.622246 0.944201 -0.48713
v -0.589343 0.89954 -0.496006
v -0.475613 0.988676 -0.541152
v -0.505248 0.934447 -0.517532
v -0.53772 0.886378 -0.513833
v -0.491675 0.878628 -0.545071
v -0.4559 0.9288 -0.561233
v -0.454714 0.876881 -0.587342
v -0.432211 0.860039 -0.689377
v -0.432211 0.873134 -0.769377
v -0.448382 0.859323 -0.821374
v -0.419072 0.914333 -0.808219
v -0.411507 0.933182 -0.753756
v -0.419072 0.901239 -0.728219
v -0.476932 0.85398 -0.869461
v -0.44566 0.902946 -0.86772
v -0.515688 0.857512 -0.909976
v -0.482515 0.902769 -0.912668
v -0.459122 0.953188 -0.9045
v -0.424719 0.963681 -0.85192
v -0.447291 1.00493 -0.886093
v -0.483027 1.05717 -0.902596
v -0.487452 1.00513 -0.928114
v -0.527875 1.05369 -0.936251
v -0.508393 0.944396 -0.943913
v -0.538955 0.894961 -0.944793
v -0.567707 0.938166 -0.966303
v -0.544538 0.997234 -0.960606
v -0.57905 1.04389 -0.95725
v -0.599754 0.983837 -0.97287
v -0.632657 1.0285 -0.963995
v -0.519348 1.10201 -0.895622
v -0.576434 1.09411 -0.928114
v -0.63129 1.07962 -0.940746
v -0.628378 1.12244 -0.9045
v -0.572186 1.13816 -0.878929
v -0.624143 1.1537 -0.858015
v -0.672933 1.15929 -0.814808
v -0.67862 1.13591 -0.86772
v -0.722243 1.13318 -0.821374
v -0.682869 1.09186 -0.916904
v -0.68428 1.04166 -0.946167
v -0.730325 1.04941 -0.914929
v -0.732217 1.09751 -0.873203
v -0.763086 1.0947 -0.82403
v -0.767286 1.05116 -0.872658
v -0.79235 1.04677 -0.822573
v -0.701381 1.15294 -0.764517
v -0.671671 1.15484 -0.708197
v -0.754977 1.11454 -0.77
v -0.789789 1.068 -0.770623
v -0.773618 1.08181 -0.718626
v -0.72839 1.11284 -0.630499
v -0.773618 1.06872 -0.638626
v -0.745067 1.07406 -0.590539
v -0.754977 1.10145 -0.69
v -0.701381 1.13985 -0.684517
v -0.72839 1.12593 -0.710499
v -0.739485 1.02527 -0.547332
v -0.77634 1.02509 -0.59228
v -0.762878 0.97485 -0.5555
v -0.789789 1.0549 -0.690623
v -0.802927 1.0137 -0.651781
v -0.810493 1.00795 -0.786244
v -0.810493 0.994856 -0.706244
v -0.81345 0.95319 -0.668678
v -0.802927 1.0268 -0.731781
v -0.797281 0.964357 -0.60808
v -0.774709 0.923108 -0.573907
v -0.800996 0.911849 -0.632735
v -0.774078 0.873982 -0.601152
v -0.713607 0.983642 -0.516087
v -0.734548 0.922906 -0.531886
v -0.738973 0.870868 -0.557404
v -0.694125 0.874346 -0.523749
v -0.677462 0.930804 -0.499394
v -0.64295 0.884152 -0.50275
v -0.59071 0.848416 -0.519254
v -0.645565 0.833923 -0.531886
v -0.593622 0.805594 -0.5555
v -0.702652 0.826026 -0.564378
v -0.743173 0.827323 -0.606032
v -0.702206 0.790572 -0.617304
v -0.649814 0.78988 -0.581071
v -0.597857 0.774333 -0.601985
v -0.654297 0.766525 -0.63411
v -0.603092 0.757014 -0.65517
v -0.539131 0.836174 -0.543096
v -0.54338 0.792132 -0.59228
v -0.549067 0.768751 -0.645192
v -0.499756 0.794854 -0.638626
v -0.489783 0.830528 -0.586797
v -0.458914 0.833336 -0.63597
v -0.467023 0.813494 -0.69
v -0.448382 0.846228 -0.741374
v -0.520619 0.775098 -0.695483
v -0.575353 0.757492 -0.70402
v -0.550329 0.773194 -0.751803
v -0.49361 0.815201 -0.829501
v -0.550329 0.786288 -0.831803
v -0.529923 0.816018 -0.874882
v -0.520619 0.788192 -0.775483
v -0.467023 0.826589 -0.77
v -0.49361 0.802107 -0.749501
v -0.728557 0.853009 -0.887557
v -0.714637 0.891245 -0.92629
v -0.678901 0.839005 -0.909786
v -0.692828 0.935519 -0.953125
v -0.660894 0.880878 -0.945857
v -0.624076 0.835016 -0.921374
v -0.66479 0.982462 -0.966021
v -0.631259 0.935107 -0.969477
v -0.595114 0.882269 -0.952785
v -0.568255 0.841345 -0.921439
v -0.763427 0.896828 -0.883083
v -0.786693 0.946259 -0.87
v -0.746387 0.939362 -0.918848
v -0.796586 0.997542 -0.849305
v -0.7661 0.999238 -0.898767
v -0.716752 0.993591 -0.942468
v -0.757844 0.848038 -0.839875
v -0.775953 0.852394 -0.786875
v -0.790089 0.895661 -0.831445
v -0.775953 0.839299 -0.706875
v -0.781505 0.852651 -0.652589
v -0.804155 0.893094 -0.687662
v -0.809802 0.955536 -0.811363
v -0.81345 0.966284 -0.748678
v -0.804155 0.906188 -0.767662
v -0.705604 0.812302 -0.856379
v -0.67545 0.783642 -0.818626
v -0.731604 0.810167 -0.804436
v -0.67545 0.770547 -0.738626
v -0.640389 0.756117 -0.697171
v -0.692833 0.771455 -0.677345
v -0.745671 0.8076 -0.660653
v -0.731604 0.797073 -0.724436
v -0.651758 0.801031 -0.875146
v -0.585977 0.802423 -0.882074
v -0.612987 0.775414 -0.828056
v -0.640389 0.769211 -0.777171
v -0.575353 0.770587 -0.78402
v -0.612987 0.762319 -0.748056
f 1 2 3
f 2 4 5
f 3 5 6
f 2 5 3
f 4 7 8
f 7 9 10
f 8 10 11
f 7 10 8
f 12 13 14
f 13 15 16
f 14 16 17
f 13 16 14
f 4 8 5
f 8 11 18
f 5 18 6
f 8 18 5
f 1 3 19
f 3 6 20
f 19 20 21
f 3 20 19
f 12 14 22
f 14 17 23
f 22 23 24
f 14 23 22
f 25 26 27
f 26 24 28
f 27 28 29
f 26 28 27
f 12 22 30
f 22 24 26
f 30 26 25
f 22 26 30
f 1 19 31
f 19 21 32
f 31 32 33
f 19 32 31
f 21 34 35
f 27 29 36
f 35 37 38
f 27 36 39
f 33 40 41
f 40 38 42
f 41 42 43
f 40 42 41
f 21 35 32
f 35 38 40
f 32 40 33
f 35 40 32
f 1 31 44
f 31 33 45
f 44 45 46
f 31 45 44
f 33 41 47
f 41 43 48
f 47 48 49
f 41 48 47
f 46 50 51
f 50 49 52
f 51 52 53
f 50 52 51
f 33 47 45
f 47 49 50
f 45 50 46
f 47 50 45
f 1 44 2
f 44 46 54
f 2 54 4
f 44 54 2
f 46 51 55
f 51 53 56
f 55 56 57
f 51 56 55
f 4 58 7
f 58 57 59
f 7 59 9
f 58 59 7
f 46 55 54
f 55 57 58
f 54 58 4
f 55 58 54
f 9 60 10
f 61 62 63
f 64 63 15
f 60 65 10
f 62 66 67
f 66 68 69
f 67 69 70
f 66 69 67
f 15 71 16
f 71 70 72
f 16 72 17
f 71 72 16
f 62 67 63
f 67 70 71
f 63 71 15
f 67 71 63
f 17 72 73
f 72 70 74
f 73 74 75
f 72 74 73
f 70 69 76
f 69 68 77
f 76 77 78
f 69 77 76
f 75 79 80
f 79 78 81
f 80 81 82
f 79 81 80
f 70 76 74
f 76 78 79
f 74 79 75
f 76 79 74
f 17 73 23
f 73 75 83
f 23 83 24
f 73 83 23
f 75 80 84
f 80 82 85
f 84 85 86
f 80 85 84
f 24 87 28
f 87 86 88
f 28 88 29
f 87 88 28
f 75 84 83
f 84 86 87
f 83 87 24
f 84 87 83
f 29 88 89
f 88 86 90
f 89 90 91
f 88 90 89
f 86 85 92
f 85 82 93
f 92 93 94
f 85 93 92
f 91 95 96
f 95 94 97
f 96 97 98
f 95 97 96
f 86 92 90
f 92 94 95
f 90 95 91
f 92 95 90
f 29 89 36
f 89 91 99
f 36 99 100
f 89 99 36
f 91 96 101
f 96 98 102
f 101 102 103
f 96 102 101
f 38 104 42
f 104 105 106
f 42 106 43
f 104 106 42
f 91 101 99
f 107 105 104
f 108 104 38
f 101 109 99
f 43 106 110
f 106 105 111
f 110 111 112
f 106 111 110
f 105 113 114
f 102 98 115
f 114 116 117
f 102 115 118
f 112 119 120
f 119 117 121
f 120 121 122
f 119 121 120
f 105 114 111
f 114 117 119
f 111 119 112
f 114 119 111
f 43 110 48
f 110 112 123
f 48 123 49
f 110 123 48
f 112 120 124
f 120 122 125
f 124 125 126
f 120 125 124
f 49 127 52
f 127 126 128
f 52 128 53
f 127 128 52
f 112 124 123
f 124 126 127
f 123 127 49
f 124 127 123
f 53 128 129
f 128 126 130
f 129 130 131
f 128 130 129
f 126 125 132
f 125 122 133
f 132 133 134
f 125 133 132
f 131 135 136
f 135 134 137
f 136 137 138
f 135 137 136
f 126 132 130
f 132 134 135
f 130 135 131
f 132 135 130
f 53 129 56
f 129 131 139
f 56 139 57
f 129 139 56
f 131 136 140
f 136 138 141
f 140 141 142
f 136 141 140
f 57 143 59
f 143 142 144
f 59 144 9
f 143 144 59
f 131 140 139
f 140 142 143
f 139 143 57
f 140 143 139
f 9 144 60
f 144 142 145
f 60 145 146
f 144 145 60
f 142 141 147
f 141 138 148
f 147 148 149
f 141 148 147
f 62 150 66
f 150 151 152
f 66 152 68
f 150 152 66
f 142 147 145
f 153 151 150
f 154 150 62
f 147 155 145
f 156 157 158
f 157 159 160
f 158 160 161
f 157 160 158
f 159 162 163
f 162 82 81
f 163 81 78
f 162 81 163
f 161 164 165
f 164 78 77
f 165 77 68
f 164 77 165
f 159 163 160
f 163 78 164
f 160 164 161
f 163 164 160
f 156 166 157
f 166 167 168
f 157 168 159
f 166 168 157
f 167 169 170
f 169 98 97
f 170 97 94
f 169 97 170
f 159 171 162
f 171 94 93
f 162 93 82
f 171 93 162
f 167 170 168
f 170 94 171
f 168 171 159
f 170 171 168
f 156 172 166
f 172 173 174
f 166 174 167
f 172 174 166
f 175 176 177
f 176 122 121
f 177 121 117
f 176 121 177
f 167 178 169
f 178 179 115
f 169 115 98
f 178 115 169
f 173 180 174
f 180 179 178
f 174 178 167
f 180 178 174
f 156 181 172
f 181 182 183
f 172 183 173
f 181 183 172
f 184 185 186
f 185 138 137
f 186 137 134
f 185 137 186
f 175 187 176
f 187 134 133
f 176 133 122
f 187 133 176
f 184 186 188
f 186 134 187
f 188 187 175
f 186 187 188
f 156 158 181
f 158 161 189
f 181 189 182
f 158 189 181
f 161 165 190
f 165 68 152
f 190 152 151
f 165 152 190
f 182 191 192
f 191 151 193
f 185 148 138
f 194 148 185
f 161 190 189
f 190 151 191
f 189 191 182
f 190 191 189
f 10 64 11
f 11 64 15
f 11 15 18
f 18 15 13
f 18 13 6
f 6 13 12
f 6 12 20
f 20 12 30
f 20 30 21
f 21 30 25
f 21 25 34
f 34 25 27
f 34 27 35
f 35 27 39
f 35 39 37
f 37 39 36
f 37 36 38
f 38 36 100
f 60 61 65
f 65 61 63
f 65 63 10
f 10 63 64
f 107 101 105
f 105 101 103
f 104 109 107
f 107 109 101
f 108 99 104
f 104 99 109
f 38 100 108
f 108 100 99
f 105 103 113
f 113 103 102
f 113 102 114
f 114 102 118
f 114 118 116
f 116 118 115
f 116 115 117
f 117 115 179
f 145 154 146
f 146 154 62
f 146 62 60
f 60 62 61
f 148 193 149
f 149 193 151
f 149 151 147
f 147 151 153
f 147 153 155
f 155 153 150
f 155 150 145
f 145 150 154
f 177 180 175
f 175 180 173
f 117 179 177
f 177 179 180
f 184 182 185
f 185 182 192
f 188 183 184
f 184 183 182
f 175 173 188
f 188 173 183
f 194 191 148
f 148 191 193
f 185 192 194
f 194 192 191
