v -0.493443 1.08812 -0.652443
v -0.458573 1.0443 -0.656917
v -0.464156 1.09309 -0.700125
v -0.435307 0.994873 -0.67
v -0.431911 1.04547 -0.708555
v -0.446047 1.08874 -0.753125
v -0.425414 0.943591 -0.690695
v -0.412198 0.985596 -0.728637
v -0.42965 0.894362 -0.717427
v -0.411507 0.933182 -0.753756
v -0.40855 0.974848 -0.791322
v -0.417845 1.03494 -0.772338
v -0.440495 1.07539 -0.807411
v -0.421004 1.01619 -0.827265
v -0.447922 1.05406 -0.858848
v -0.516396 1.12883 -0.683621
v -0.490396 1.13096 -0.735564
v -0.54655 1.15749 -0.721374
v -0.476329 1.12044 -0.799347
v -0.478827 1.10071 -0.853968
v -0.519793 1.13747 -0.842696
v -0.529166 1.15658 -0.782655
v -0.581611 1.17192 -0.762829
v -0.567703 1.16151 -0.82589
v -0.618908 1.17102 -0.80483
v -0.543099 1.10213 -0.630214
v -0.570242 1.1401 -0.664854
v -0.597924 1.10612 -0.618626
v -0.609013 1.16572 -0.711944
v -0.646646 1.17055 -0.75598
v -0.671671 1.15484 -0.708197
v -0.636022 1.13871 -0.657926
v -0.653745 1.09979 -0.618561
v -0.692077 1.12511 -0.665118
v -0.706311 1.08362 -0.630024
v -0.507363 1.04989 -0.61371
v -0.561106 1.06025 -0.594143
v -0.529172 1.00561 -0.586875
v -0.626886 1.05886 -0.587215
v -0.683044 1.04617 -0.595207
v -0.654293 1.00297 -0.573697
v -0.590741 1.00603 -0.570523
v -0.55721 0.958671 -0.573979
v -0.622246 0.957295 -0.56713
v -0.589343 0.912634 -0.576005
v -0.475613 1.00177 -0.621152
v -0.505248 0.947541 -0.597532
v -0.53772 0.899473 -0.593833
v -0.491675 0.891723 -0.625071
v -0.4559 0.941895 -0.641233
v -0.454714 0.889975 -0.667342
v -0.432211 0.873134 -0.769377
v -0.448382 0.859323 -0.821374
v -0.419072 0.914333 -0.808219
v -0.476932 0.85398 -0.869461
v -0.44566 0.902946 -0.86772
v -0.515688 0.857512 -0.909976
v -0.482515 0.902769 -0.912668
v -0.459122 0.953188 -0.9045
v -0.424719 0.963681 -0.85192
v -0.447291 1.00493 -0.886093
v -0.483027 1.05717 -0.902596
v -0.487452 1.00513 -0.928114
v -0.527875 1.05369 -0.936251
v -0.508393 0.944396 -0.943913
v -0.538955 0.894961 -0.944793
v -0.567707 0.938166 -0.966303
v -0.544538 0.997234 -0.960606
v -0.57905 1.04389 -0.95725
v -0.599754 0.983837 -0.97287
v -0.632657 1.0285 -0.963995
v -0.519348 1.10201 -0.895622
v -0.576434 1.09411 -0.928114
v -0.63129 1.07962 -0.940746
v -0.628378 1.12244 -0.9045
v -0.572186 1.13816 -0.878929
v -0.624143 1.1537 -0.858015
v -0.672933 1.15929 -0.814808
v -0.67862 1.13591 -0.86772
v -0.722243 1.13318 -0.821374
v -0.682869 1.09186 -0.916904
v -0.68428 1.04166 -0.946167
v -0.730325 1.04941 -0.914929
v -0.732217 1.09751 -0.873203
v -0.763086 1.0947 -0.82403
v -0.767286 1.05116 -0.872658
v -0.79235 1.04677 -0.822573
v -0.701381 1.15294 -0.764517
v -0.754977 1.11454 -0.77
v -0.789789 1.068 -0.770623
v -0.773618 1.08181 -0.718626
v -0.72839 1.12593 -0.710499
v -0.745067 1.08715 -0.670539
v -0.739485 1.03836 -0.627332
v -0.77634 1.03819 -0.67228
v -0.762878 0.987944 -0.6355
v -0.802927 1.0268 -0.731781
v -0.810493 1.00795 -0.786244
v -0.81345 0.966284 -0.748678
v -0.797281 0.977451 -0.68808
v -0.774709 0.936202 -0.653907
v -0.800996 0.924944 -0.712735
v -0.774078 0.887077 -0.681152
v -0.713607 0.996736 -0.596087
v -0.734548 0.936001 -0.611886
v -0.738973 0.883962 -0.637404
v -0.694125 0.887441 -0.603749
v -0.677462 0.943898 -0.579394
v -0.64295 0.897247 -0.58275
v -0.59071 0.861511 -0.599254
v -0.645565 0.847018 -0.611886
v -0.593622 0.818688 -0.6355
v -0.702652 0.83912 -0.644378
v -0.743173 0.840418 -0.686032
v -0.702206 0.803666 -0.697304
v -0.649814 0.802975 -0.661071
v -0.597857 0.787428 -0.681985
v -0.654297 0.77962 -0.71411
v -0.603092 0.770108 -0.73517
v -0.539131 0.849269 -0.623096
v -0.54338 0.805226 -0.67228
v -0.549067 0.781845 -0.725192
v -0.499756 0.807948 -0.718626
v -0.489783 0.843623 -0.666797
v -0.458914 0.84643 -0.71597
v -0.467023 0.826589 -0.77
v -0.520619 0.788192 -0.775483
v -0.575353 0.770587 -0.78402
v -0.550329 0.786288 -0.831803
v -0.49361 0.815201 -0.829501
v -0.529923 0.816018 -0.874882
v -0.728557 0.853009 -0.887557
v -0.714637 0.891245 -0.92629
v -0.678901 0.839005 -0.909786
v -0.692828 0.935519 -0.953125
v -0.660894 0.880878 -0.945857
v -0.624076 0.835016 -0.921374
v -0.66479 0.982462 -0.966021
v -0.631259 0.935107 -0.969477
v -0.595114 0.882269 -0.952785
v -0.568255 0.841345 -0.921439
v -0.763427 0.896828 -0.883083
v -0.786693 0.946259 -0.87
v -0.746387 0.939362 -0.918848
v -0.796586 0.997542 -0.849305
v -0.7661 0.999238 -0.898767
v -0.716752 0.993591 -0.942468
v -0.757844 0.848038 -0.839875
v -0.775953 0.852394 -0.786875
v -0.790089 0.895661 -0.831445
v -0.781505 0.865746 -0.732589
v -0.804155 0.906188 -0.767662
v -0.809802 0.955536 -0.811363
v -0.705604 0.812302 -0.856379
v -0.67545 0.783642 -0.818626
v -0.731604 0.810167 -0.804436
v -0.640389 0.769211 -0.777171
v -0.692833 0.78455 -0.757345
v -0.745671 0.820695 -0.740653
v -0.651758 0.801031 -0.875146
v -0.585977 0.802423 -0.882074
v -0.612987 0.775414 -0.828056
f 1 2 3
f 2 4 5
f 3 5 6
f 2 5 3
f 4 7 8
f 7 9 10
f 8 10 11
f 7 10 8
f 6 12 13
f 12 11 14
f 13 14 15
f 12 14 13
f 4 8 5
f 8 11 12
f 5 12 6
f 8 12 5
f 1 3 16
f 3 6 17
f 16 17 18
f 3 17 16
f 6 13 19
f 13 15 20
f 19 20 21
f 13 20 19
f 18 22 23
f 22 21 24
f 23 24 25
f 22 24 23
f 6 19 17
f 19 21 22
f 17 22 18
f 19 22 17
f 1 16 26
f 16 18 27
f 26 27 28
f 16 27 26
f 18 23 29
f 23 25 30
f 29 30 31
f 23 30 29
f 28 32 33
f 32 31 34
f 33 34 35
f 32 34 33
f 18 29 27
f 29 31 32
f 27 32 28
f 29 32 27
f 1 26 36
f 26 28 37
f 36 37 38
f 26 37 36
f 28 33 39
f 33 35 40
f 39 40 41
f 33 40 39
f 38 42 43
f 42 41 44
f 43 44 45
f 42 44 43
f 28 39 37
f 39 41 42
f 37 42 38
f 39 42 37
f 1 36 2
f 36 38 46
f 2 46 4
f 36 46 2
f 38 43 47
f 43 45 48
f 47 48 49
f 43 48 47
f 4 50 7
f 50 49 51
f 7 51 9
f 50 51 7
f 38 47 46
f 47 49 50
f 46 50 4
f 47 50 46
f 9 52 10
f 52 53 54
f 10 54 11
f 52 54 10
f 53 55 56
f 55 57 58
f 56 58 59
f 55 58 56
f 11 60 14
f 60 59 61
f 14 61 15
f 60 61 14
f 53 56 54
f 56 59 60
f 54 60 11
f 56 60 54
f 15 61 62
f 61 59 63
f 62 63 64
f 61 63 62
f 59 58 65
f 58 57 66
f 65 66 67
f 58 66 65
f 64 68 69
f 68 67 70
f 69 70 71
f 68 70 69
f 59 65 63
f 65 67 68
f 63 68 64
f 65 68 63
f 15 62 20
f 62 64 72
f 20 72 21
f 62 72 20
f 64 69 73
f 69 71 74
f 73 74 75
f 69 74 73
f 21 76 24
f 76 75 77
f 24 77 25
f 76 77 24
f 64 73 72
f 73 75 76
f 72 76 21
f 73 76 72
f 25 77 78
f 77 75 79
f 78 79 80
f 77 79 78
f 75 74 81
f 74 71 82
f 81 82 83
f 74 82 81
f 80 84 85
f 84 83 86
f 85 86 87
f 84 86 85
f 75 81 79
f 81 83 84
f 79 84 80
f 81 84 79
f 25 78 30
f 78 80 88
f 30 88 31
f 78 88 30
f 80 85 89
f 85 87 90
f 89 90 91
f 85 90 89
f 31 92 34
f 92 91 93
f 34 93 35
f 92 93 34
f 80 89 88
f 89 91 92
f 88 92 31
f 89 92 88
f 35 93 94
f 93 91 95
f 94 95 96
f 93 95 94
f 91 90 97
f 90 87 98
f 97 98 99
f 90 98 97
f 96 100 101
f 100 99 102
f 101 102 103
f 100 102 101
f 91 97 95
f 97 99 100
f 95 100 96
f 97 100 95
f 35 94 40
f 94 96 104
f 40 104 41
f 94 104 40
f 96 101 105
f 101 103 106
f 105 106 107
f 101 106 105
f 41 108 44
f 108 107 109
f 44 109 45
f 108 109 44
f 96 105 104
f 105 107 108
f 104 108 41
f 105 108 104
f 45 109 110
f 109 107 111
f 110 111 112
f 109 111 110
f 107 106 113
f 106 103 114
f 113 114 115
f 106 114 113
f 112 116 117
f 116 115 118
f 117 118 119
f 116 118 117
f 107 113 111
f 113 115 116
f 111 116 112
f 113 116 111
f 45 110 48
f 110 112 120
f 48 120 49
f 110 120 48
f 112 117 121
f 117 119 122
f 121 122 123
f 117 122 121
f 49 124 51
f 124 123 125
f 51 125 9
f 124 125 51
f 112 121 120
f 121 123 124
f 120 124 49
f 121 124 120
f 9 125 52
f 125 123 126
f 52 126 53
f 125 126 52
f 123 122 127
f 122 119 128
f 127 128 129
f 122 128 127
f 53 130 55
f 130 129 131
f 55 131 57
f 130 131 55
f 123 127 126
f 127 129 130
f 126 130 53
f 127 130 126
f 132 133 134
f 133 135 136
f 134 136 137
f 133 136 134
f 135 138 139
f 138 71 70
f 139 70 67
f 138 70 139
f 137 140 141
f 140 67 66
f 141 66 57
f 140 66 141
f 135 139 136
f 139 67 140
f 136 140 137
f 139 140 136
f 132 142 133
f 142 143 144
f 133 144 135
f 142 144 133
f 143 145 146
f 145 87 86
f 146 86 83
f 145 86 146
f 135 147 138
f 147 83 82
f 138 82 71
f 147 82 138
f 143 146 144
f 146 83 147
f 144 147 135
f 146 147 144
f 132 148 142
f 148 149 150
f 142 150 143
f 148 150 142
f 149 151 152
f 151 103 102
f 152 102 99
f 151 102 152
f 143 153 145
f 153 99 98
f 145 98 87
f 153 98 145
f 149 152 150
f 152 99 153
f 150 153 143
f 152 153 150
f 132 154 148
f 154 155 156
f 148 156 149
f 154 156 148
f 155 157 158
f 157 119 118
f 158 118 115
f 157 118 158
f 149 159 151
f 159 115 114
f 151 114 103
f 159 114 151
f 155 158 156
f 158 115 159
f 156 159 149
f 158 159 156
f 132 134 154
f 134 137 160
f 154 160 155
f 134 160 154
f 137 141 161
f 141 57 131
f 161 131 129
f 141 131 161
f 155 162 157
f 162 129 128
f 157 128 119
f 162 128 157
f 137 161 160
f 161 129 162
f 160 162 155
f 161 162 160
