v -0.493443 1.08812 -0.652443
v -0.458573 1.0443 -0.656917
v -0.464156 1.09309 -0.700125
v -0.435307 0.994873 -0.67
v -0.431911 1.04547 -0.708555
v -0.446047 1.08874 -0.753125
v -0.425414 0.943591 -0.690695
v -0.412198 0.985596 -0.728637
v -0.42965 0.894362 -0.717427
v -0.411507 0.933182 -0.753756
v -0.40855 0.974848 -0.791322
v -0.417845 1.03494 -0.772338
v -0.440495 1.07539 -0.807411
v -0.421004 1.01619 -0.827265
v -0.447922 1.05406 -0.858848
v -0.516396 1.12883 -0.683621
v -0.490396 1.13096 -0.735564
v -0.54655 1.15749 -0.721374
v -0.476329 1.12044 -0.799347
v -0.478827 1.10071 -0.853968
v -0.519793 1.13747 -0.842696
v -0.529166 1.15658 -0.782655
v -0.581611 1.17192 -0.762829
v -0.567703 1.16151 -0.82589
v -0.618908 1.17102 -0.80483
v -0.543099 1.10213 -0.630214
v -0.570242 1.1401 -0.664854
v -0.597924 1.10612 -0.618626
v -0.609013 1.16572 -0.711944
v -0.701611 1.17192 -0.762829
v -0.738908 1.17102 -0.80483
v -0.766646 1.17055 -0.75598
v -0.729013 1.16572 -0.711944
v -0.791671 1.15484 -0.708197
v -0.717924 1.10612 -0.618626
v -0.756022 1.13871 -0.657926
v -0.773745 1.09979 -0.618561
v -0.812077 1.12511 -0.665118
v -0.826311 1.08362 -0.630024
v -0.636022 1.13871 -0.657926
v -0.507363 1.04989 -0.61371
v -0.561106 1.06025 -0.594143
v -0.529172 1.00561 -0.586875
v -0.746886 1.05886 -0.587215
v -0.803044 1.04617 -0.595207
v -0.774293 1.00297 -0.573697
v -0.590741 1.00603 -0.570523
v -0.55721 0.958671 -0.573979
v -0.710741 1.00603 -0.570523
v -0.742246 0.957295 -0.56713
v -0.622246 0.957295 -0.56713
v -0.589343 0.912634 -0.576005
v -0.626886 1.05886 -0.587215
v -0.475613 1.00177 -0.621152
v -0.505248 0.947541 -0.597532
v -0.53772 0.899473 -0.593833
v -0.491675 0.891723 -0.625071
v -0.4559 0.941895 -0.641233
v -0.454714 0.889975 -0.667342
v -0.432211 0.873134 -0.769377
v -0.448382 0.859323 -0.821374
v -0.419072 0.914333 -0.808219
v -0.476932 0.85398 -0.869461
v -0.44566 0.902946 -0.86772
v -0.515688 0.857512 -0.909976
v -0.482515 0.902769 -0.912668
v -0.459122 0.953188 -0.9045
v -0.424719 0.963681 -0.85192
v -0.447291 1.00493 -0.886093
v -0.483027 1.05717 -0.902596
v -0.487452 1.00513 -0.928114
v -0.527875 1.05369 -0.936251
v -0.508393 0.944396 -0.943913
v -0.538955 0.894961 -0.944793
v -0.567707 0.938166 -0.966303
v -0.544538 0.997234 -0.960606
v -0.57905 1.04389 -0.95725
v -0.599754 0.983837 -0.97287
v -0.632657 1.0285 -0.963995
v -0.519348 1.10201 -0.895622
v -0.576434 1.09411 -0.928114
v -0.69905 1.04389 -0.95725
v -0.752657 1.0285 -0.963995
v -0.75129 1.07962 -0.940746
v -0.63129 1.07962 -0.940746
v -0.628378 1.12244 -0.9045
v -0.572186 1.13816 -0.878929
v -0.624143 1.1537 -0.858015
v -0.744143 1.1537 -0.858015
v -0.792933 1.15929 -0.814808
v -0.748378 1.12244 -0.9045
v -0.79862 1.13591 -0.86772
v -0.842243 1.13318 -0.821374
v -0.802869 1.09186 -0.916904
v -0.80428 1.04166 -0.946167
v -0.850325 1.04941 -0.914929
v -0.852217 1.09751 -0.873203
v -0.883086 1.0947 -0.82403
v -0.887286 1.05116 -0.872658
v -0.91235 1.04677 -0.822573
v -0.821381 1.15294 -0.764517
v -0.874977 1.11454 -0.77
v -0.909789 1.068 -0.770623
v -0.893618 1.08181 -0.718626
v -0.84839 1.12593 -0.710499
v -0.865067 1.08715 -0.670539
v -0.859485 1.03836 -0.627332
v -0.89634 1.03819 -0.67228
v -0.882878 0.987944 -0.6355
v -0.922927 1.0268 -0.731781
v -0.930493 1.00795 -0.786244
v -0.93345 0.966284 -0.748678
v -0.917281 0.977451 -0.68808
v -0.894709 0.936202 -0.653907
v -0.920996 0.924944 -0.712735
v -0.894078 0.887077 -0.681152
v -0.833607 0.996736 -0.596087
v -0.854548 0.936001 -0.611886
v -0.858973 0.883962 -0.637404
v -0.814125 0.887441 -0.603749
v -0.797462 0.943898 -0.579394
v -0.76295 0.897247 -0.58275
v -0.709343 0.912634 -0.576005
v -0.64295 0.897247 -0.58275
v -0.59071 0.861511 -0.599254
v -0.765565 0.847018 -0.611886
v -0.71071 0.861511 -0.599254
v -0.713622 0.818688 -0.6355
v -0.822652 0.83912 -0.644378
v -0.863173 0.840418 -0.686032
v -0.822206 0.803666 -0.697304
v -0.769814 0.802975 -0.661071
v -0.717857 0.787428 -0.681985
v -0.774297 0.77962 -0.71411
v -0.723092 0.770108 -0.73517
v -0.593622 0.818688 -0.6355
v -0.539131 0.849269 -0.623096
v -0.597857 0.787428 -0.681985
v -0.54338 0.805226 -0.67228
v -0.603092 0.770108 -0.73517
v -0.549067 0.781845 -0.725192
v -0.499756 0.807948 -0.718626
v -0.489783 0.843623 -0.666797
v -0.458914 0.84643 -0.71597
v -0.467023 0.826589 -0.77
v -0.520619 0.788192 -0.775483
v -0.575353 0.770587 -0.78402
v -0.550329 0.786288 -0.831803
v -0.49361 0.815201 -0.829501
v -0.529923 0.816018 -0.874882
v -0.848557 0.853009 -0.887557
v -0.834637 0.891245 -0.92629
v -0.798901 0.839005 -0.909786
v -0.812828 0.935519 -0.953125
v -0.780894 0.880878 -0.945857
v -0.744076 0.835016 -0.921374
v -0.78479 0.982462 -0.966021
v -0.751259 0.935107 -0.969477
v -0.719754 0.983837 -0.97287
v -0.631259 0.935107 -0.969477
v -0.624076 0.835016 -0.921374
v -0.595114 0.882269 -0.952785
v -0.568255 0.841345 -0.921439
v -0.715114 0.882269 -0.952785
v -0.883427 0.896828 -0.883083
v -0.906693 0.946259 -0.87
v -0.866387 0.939362 -0.918848
v -0.916586 0.997542 -0.849305
v -0.8861 0.999238 -0.898767
v -0.836752 0.993591 -0.942468
v -0.877844 0.848038 -0.839875
v -0.895953 0.852394 -0.786875
v -0.910089 0.895661 -0.831445
v -0.901505 0.865746 -0.732589
v -0.924155 0.906188 -0.767662
v -0.929802 0.955536 -0.811363
v -0.825604 0.812302 -0.856379
v -0.79545 0.783642 -0.818626
v -0.851604 0.810167 -0.804436
v -0.760389 0.769211 -0.777171
v -0.812833 0.78455 -0.757345
v -0.865671 0.820695 -0.740653
v -0.771758 0.801031 -0.875146
v -0.585977 0.802423 -0.882074
v -0.732987 0.775414 -0.828056
v -0.612987 0.775414 -0.828056
v -0.640389 0.769211 -0.777171
v -0.705977 0.802423 -0.882074
f 1 2 3
f 2 4 5
f 3 5 6
f 2 5 3
f 4 7 8
f 7 9 10
f 8 10 11
f 7 10 8
f 6 12 13
f 12 11 14
f 13 14 15
f 12 14 13
f 4 8 5
f 8 11 12
f 5 12 6
f 8 12 5
f 1 3 16
f 3 6 17
f 16 17 18
f 3 17 16
f 6 13 19
f 13 15 20
f 19 20 21
f 13 20 19
f 18 22 23
f 22 21 24
f 23 24 25
f 22 24 23
f 6 19 17
f 19 21 22
f 17 22 18
f 19 22 17
f 1 16 26
f 16 18 27
f 26 27 28
f 16 27 26
f 18 23 29
f 30 31 32
f 33 32 34
f 30 32 33
f 35 36 37
f 36 34 38
f 37 38 39
f 36 38 37
f 18 29 27
f 33 34 36
f 27 40 28
f 29 40 27
f 1 26 41
f 26 28 42
f 41 42 43
f 26 42 41
f 35 37 44
f 37 39 45
f 44 45 46
f 37 45 44
f 43 47 48
f 49 46 50
f 48 51 52
f 47 51 48
f 28 53 42
f 44 46 49
f 42 47 43
f 53 47 42
f 1 41 2
f 41 43 54
f 2 54 4
f 41 54 2
f 43 48 55
f 48 52 56
f 55 56 57
f 48 56 55
f 4 58 7
f 58 57 59
f 7 59 9
f 58 59 7
f 43 55 54
f 55 57 58
f 54 58 4
f 55 58 54
f 9 60 10
f 60 61 62
f 10 62 11
f 60 62 10
f 61 63 64
f 63 65 66
f 64 66 67
f 63 66 64
f 11 68 14
f 68 67 69
f 14 69 15
f 68 69 14
f 61 64 62
f 64 67 68
f 62 68 11
f 64 68 62
f 15 69 70
f 69 67 71
f 70 71 72
f 69 71 70
f 67 66 73
f 66 65 74
f 73 74 75
f 66 74 73
f 72 76 77
f 76 75 78
f 77 78 79
f 76 78 77
f 67 73 71
f 73 75 76
f 71 76 72
f 73 76 71
f 15 70 20
f 70 72 80
f 20 80 21
f 70 80 20
f 72 77 81
f 82 83 84
f 81 85 86
f 77 85 81
f 21 87 24
f 87 86 88
f 24 88 25
f 87 88 24
f 72 81 80
f 81 86 87
f 80 87 21
f 81 87 80
f 31 89 90
f 89 91 92
f 90 92 93
f 89 92 90
f 91 84 94
f 84 83 95
f 94 95 96
f 84 95 94
f 93 97 98
f 97 96 99
f 98 99 100
f 97 99 98
f 91 94 92
f 94 96 97
f 92 97 93
f 94 97 92
f 31 90 32
f 90 93 101
f 32 101 34
f 90 101 32
f 93 98 102
f 98 100 103
f 102 103 104
f 98 103 102
f 34 105 38
f 105 104 106
f 38 106 39
f 105 106 38
f 93 102 101
f 102 104 105
f 101 105 34
f 102 105 101
f 39 106 107
f 106 104 108
f 107 108 109
f 106 108 107
f 104 103 110
f 103 100 111
f 110 111 112
f 103 111 110
f 109 113 114
f 113 112 115
f 114 115 116
f 113 115 114
f 104 110 108
f 110 112 113
f 108 113 109
f 110 113 108
f 39 107 45
f 107 109 117
f 45 117 46
f 107 117 45
f 109 114 118
f 114 116 119
f 118 119 120
f 114 119 118
f 46 121 50
f 121 120 122
f 50 122 123
f 121 122 50
f 109 118 117
f 118 120 121
f 117 121 46
f 118 121 117
f 52 124 125
f 122 120 126
f 127 126 128
f 122 126 127
f 120 119 129
f 119 116 130
f 129 130 131
f 119 130 129
f 128 132 133
f 132 131 134
f 133 134 135
f 132 134 133
f 120 129 126
f 129 131 132
f 126 132 128
f 129 132 126
f 52 125 56
f 125 136 137
f 56 137 57
f 125 137 56
f 136 138 139
f 138 140 141
f 139 141 142
f 138 141 139
f 57 143 59
f 143 142 144
f 59 144 9
f 143 144 59
f 136 139 137
f 139 142 143
f 137 143 57
f 139 143 137
f 9 144 60
f 144 142 145
f 60 145 61
f 144 145 60
f 142 141 146
f 141 140 147
f 146 147 148
f 141 147 146
f 61 149 63
f 149 148 150
f 63 150 65
f 149 150 63
f 142 146 145
f 146 148 149
f 145 149 61
f 146 149 145
f 151 152 153
f 152 154 155
f 153 155 156
f 152 155 153
f 154 157 158
f 157 83 159
f 160 78 75
f 157 159 158
f 161 162 163
f 162 75 74
f 163 74 65
f 162 74 163
f 154 158 155
f 160 75 162
f 155 164 156
f 158 164 155
f 151 165 152
f 165 166 167
f 152 167 154
f 165 167 152
f 166 168 169
f 168 100 99
f 169 99 96
f 168 99 169
f 154 170 157
f 170 96 95
f 157 95 83
f 170 95 157
f 166 169 167
f 169 96 170
f 167 170 154
f 169 170 167
f 151 171 165
f 171 172 173
f 165 173 166
f 171 173 165
f 172 174 175
f 174 116 115
f 175 115 112
f 174 115 175
f 166 176 168
f 176 112 111
f 168 111 100
f 176 111 168
f 172 175 173
f 175 112 176
f 173 176 166
f 175 176 173
f 151 177 171
f 177 178 179
f 171 179 172
f 177 179 171
f 178 180 181
f 180 135 134
f 181 134 131
f 180 134 181
f 172 182 174
f 182 131 130
f 174 130 116
f 182 130 174
f 178 181 179
f 181 131 182
f 179 182 172
f 181 182 179
f 151 153 177
f 153 156 183
f 177 183 178
f 153 183 177
f 161 163 184
f 163 65 150
f 184 150 148
f 163 150 184
f 178 185 180
f 186 148 147
f 187 147 140
f 186 147 187
f 156 188 183
f 184 148 186
f 183 185 178
f 188 185 183
f 25 31 23
f 23 31 30
f 23 30 29
f 29 30 33
f 40 36 28
f 28 36 35
f 29 33 40
f 40 33 36
f 51 50 52
f 52 50 123
f 47 49 51
f 51 49 50
f 28 35 53
f 53 35 44
f 53 44 47
f 47 44 49
f 78 159 79
f 79 159 83
f 79 83 77
f 77 83 82
f 85 84 86
f 86 84 91
f 77 82 85
f 85 82 84
f 86 91 88
f 88 91 89
f 88 89 25
f 25 89 31
f 52 123 124
f 124 123 122
f 124 122 125
f 125 122 127
f 125 127 136
f 136 127 128
f 136 128 138
f 138 128 133
f 138 133 140
f 140 133 135
f 160 158 78
f 78 158 159
f 161 156 162
f 162 156 164
f 162 164 160
f 160 164 158
f 184 188 161
f 161 188 156
f 140 135 187
f 187 135 180
f 187 180 186
f 186 180 185
f 186 185 184
f 184 185 188
