v -0.613443 1.08812 -0.652443
v -0.578573 1.0443 -0.656917
v -0.584156 1.09309 -0.700125
v -0.555307 0.994873 -0.67
v -0.551911 1.04547 -0.708555
v -0.566047 1.08874 -0.753125
v -0.545414 0.943591 -0.690695
v -0.532198 0.985596 -0.728637
v -0.545414 0.927601 -0.690695
v -0.549649 0.878373 -0.717427
v -0.531507 0.917193 -0.753756
v -0.532198 0.969607 -0.728637
v -0.52855 0.958859 -0.791322
v -0.537845 1.03494 -0.772338
v -0.560495 1.07539 -0.807411
v -0.52855 0.974848 -0.791322
v -0.541004 1.01619 -0.827265
v -0.567922 1.05406 -0.858848
v -0.636396 1.12883 -0.683621
v -0.610396 1.13096 -0.735564
v -0.66655 1.15749 -0.721374
v -0.596329 1.12044 -0.799347
v -0.598827 1.10071 -0.853968
v -0.639793 1.13747 -0.842696
v -0.649166 1.15658 -0.782655
v -0.701611 1.17192 -0.762829
v -0.687703 1.16151 -0.82589
v -0.738908 1.17102 -0.80483
v -0.663099 1.10213 -0.630214
v -0.690242 1.1401 -0.664854
v -0.717924 1.10612 -0.618626
v -0.729013 1.16572 -0.711944
v -0.766646 1.17055 -0.75598
v -0.791671 1.15484 -0.708197
v -0.756022 1.13871 -0.657926
v -0.773745 1.09979 -0.618561
v -0.812077 1.12511 -0.665118
v -0.826311 1.08362 -0.630024
v -0.627363 1.04989 -0.61371
v -0.681106 1.06025 -0.594143
v -0.649172 1.00561 -0.586875
v -0.746886 1.05886 -0.587215
v -0.803044 1.04617 -0.595207
v -0.774293 1.00297 -0.573697
v -0.710741 1.00603 -0.570523
v -0.67721 0.958671 -0.573979
v -0.742246 0.957295 -0.56713
v -0.67721 0.942682 -0.573979
v -0.742246 0.941306 -0.56713
v -0.709343 0.896645 -0.576005
v -0.595613 1.00177 -0.621152
v -0.625248 0.947541 -0.597532
v -0.65772 0.883483 -0.593833
v -0.625248 0.931552 -0.597532
v -0.611675 0.875734 -0.625071
v -0.555307 0.978884 -0.67
v -0.5759 0.925905 -0.641233
v -0.574714 0.873986 -0.667342
v -0.5759 0.941895 -0.641233
v -0.595613 0.985781 -0.621152
v -0.552211 0.857145 -0.769377
v -0.568382 0.843333 -0.821374
v -0.539072 0.898344 -0.808219
v -0.596932 0.83799 -0.869461
v -0.56566 0.886957 -0.86772
v -0.635688 0.841522 -0.909976
v -0.602515 0.88678 -0.912668
v -0.579122 0.937199 -0.9045
v -0.544719 0.963681 -0.85192
v -0.579122 0.953188 -0.9045
v -0.567291 1.00493 -0.886093
v -0.544719 0.947692 -0.85192
v -0.603027 1.05717 -0.902596
v -0.607452 1.00513 -0.928114
v -0.647875 1.05369 -0.936251
v -0.628393 0.928407 -0.943913
v -0.658955 0.878972 -0.944793
v -0.687707 0.922177 -0.966303
v -0.664538 0.997234 -0.960606
v -0.69905 1.04389 -0.95725
v -0.687707 0.938166 -0.966303
v -0.719754 0.983837 -0.97287
v -0.752657 1.0285 -0.963995
v -0.607452 0.989142 -0.928114
v -0.664538 0.981245 -0.960606
v -0.628393 0.944396 -0.943913
v -0.639348 1.10201 -0.895622
v -0.696434 1.09411 -0.928114
v -0.75129 1.07962 -0.940746
v -0.748378 1.12244 -0.9045
v -0.692186 1.13816 -0.878929
v -0.744143 1.1537 -0.858015
v -0.792933 1.15929 -0.814808
v -0.79862 1.13591 -0.86772
v -0.842243 1.13318 -0.821374
v -0.802869 1.09186 -0.916904
v -0.80428 1.04166 -0.946167
v -0.850325 1.04941 -0.914929
v -0.852217 1.09751 -0.873203
v -0.883086 1.0947 -0.82403
v -0.887286 1.05116 -0.872658
v -0.91235 1.04677 -0.822573
v -0.821381 1.15294 -0.764517
v -0.874977 1.11454 -0.77
v -0.909789 1.068 -0.770623
v -0.893618 1.08181 -0.718626
v -0.84839 1.12593 -0.710499
v -0.865067 1.08715 -0.670539
v -0.859485 1.03836 -0.627332
v -0.89634 1.03819 -0.67228
v -0.882878 0.987944 -0.6355
v -0.922927 1.0268 -0.731781
v -0.930493 1.00795 -0.786244
v -0.93345 0.966284 -0.748678
v -0.882878 0.971955 -0.6355
v -0.917281 0.961462 -0.68808
v -0.894709 0.920213 -0.653907
v -0.93345 0.950295 -0.748678
v -0.920996 0.908955 -0.712735
v -0.894078 0.871088 -0.681152
v -0.917281 0.977451 -0.68808
v -0.833607 0.996736 -0.596087
v -0.854548 0.920011 -0.611886
v -0.858973 0.867973 -0.637404
v -0.814125 0.871452 -0.603749
v -0.774293 0.986977 -0.573697
v -0.797462 0.927909 -0.579394
v -0.76295 0.881258 -0.58275
v -0.854548 0.936001 -0.611886
v -0.797462 0.943898 -0.579394
v -0.833607 0.980747 -0.596087
v -0.71071 0.845521 -0.599254
v -0.765565 0.831029 -0.611886
v -0.713622 0.802699 -0.6355
v -0.822652 0.823131 -0.644378
v -0.863173 0.824429 -0.686032
v -0.822206 0.787677 -0.697304
v -0.769814 0.786986 -0.661071
v -0.717857 0.771439 -0.681985
v -0.774297 0.76363 -0.71411
v -0.723092 0.754119 -0.73517
v -0.659131 0.83328 -0.623096
v -0.66338 0.789237 -0.67228
v -0.669067 0.765856 -0.725192
v -0.619756 0.791959 -0.718626
v -0.609783 0.827633 -0.666797
v -0.578914 0.830441 -0.71597
v -0.587023 0.8106 -0.77
v -0.640619 0.772203 -0.775483
v -0.695353 0.754598 -0.78402
v -0.670329 0.770299 -0.831803
v -0.61361 0.799212 -0.829501
v -0.649923 0.800028 -0.874882
v -0.848557 0.83702 -0.887557
v -0.834637 0.875256 -0.92629
v -0.798901 0.823016 -0.909786
v -0.812828 0.91953 -0.953125
v -0.780894 0.864889 -0.945857
v -0.744076 0.819027 -0.921374
v -0.78479 0.966472 -0.966021
v -0.751259 0.919118 -0.969477
v -0.78479 0.982462 -0.966021
v -0.719754 0.967848 -0.97287
v -0.715114 0.86628 -0.952785
v -0.688255 0.825356 -0.921439
v -0.883427 0.880839 -0.883083
v -0.906693 0.93027 -0.87
v -0.866387 0.923373 -0.918848
v -0.906693 0.946259 -0.87
v -0.916586 0.997542 -0.849305
v -0.8861 0.999238 -0.898767
v -0.836752 0.977602 -0.942468
v -0.836752 0.993591 -0.942468
v -0.8861 0.983249 -0.898767
v -0.866387 0.939362 -0.918848
v -0.877844 0.832049 -0.839875
v -0.895953 0.836405 -0.786875
v -0.910089 0.879671 -0.831445
v -0.901505 0.849757 -0.732589
v -0.924155 0.890199 -0.767662
v -0.929802 0.939547 -0.811363
v -0.916586 0.981552 -0.849305
v -0.929802 0.955536 -0.811363
v -0.825604 0.796312 -0.856379
v -0.79545 0.767653 -0.818626
v -0.851604 0.794178 -0.804436
v -0.760389 0.753222 -0.777171
v -0.812833 0.76856 -0.757345
v -0.865671 0.804706 -0.740653
v -0.771758 0.785042 -0.875146
v -0.705977 0.786433 -0.882074
v -0.732987 0.759424 -0.828056
f 1 2 3
f 2 4 5
f 3 5 6
f 2 5 3
f 4 7 8
f 9 10 11
f 12 11 13
f 9 11 12
f 6 14 15
f 14 16 17
f 15 17 18
f 14 17 15
f 4 8 5
f 8 16 14
f 5 14 6
f 8 14 5
f 1 3 19
f 3 6 20
f 19 20 21
f 3 20 19
f 6 15 22
f 15 18 23
f 22 23 24
f 15 23 22
f 21 25 26
f 25 24 27
f 26 27 28
f 25 27 26
f 6 22 20
f 22 24 25
f 20 25 21
f 22 25 20
f 1 19 29
f 19 21 30
f 29 30 31
f 19 30 29
f 21 26 32
f 26 28 33
f 32 33 34
f 26 33 32
f 31 35 36
f 35 34 37
f 36 37 38
f 35 37 36
f 21 32 30
f 32 34 35
f 30 35 31
f 32 35 30
f 1 29 39
f 29 31 40
f 39 40 41
f 29 40 39
f 31 36 42
f 36 38 43
f 42 43 44
f 36 43 42
f 41 45 46
f 45 44 47
f 48 49 50
f 45 47 46
f 31 42 40
f 42 44 45
f 40 45 41
f 42 45 40
f 1 39 2
f 39 41 51
f 2 51 4
f 39 51 2
f 41 46 52
f 48 50 53
f 54 53 55
f 48 53 54
f 56 57 9
f 57 55 58
f 9 58 10
f 57 58 9
f 41 52 51
f 54 55 57
f 51 59 4
f 54 57 60
f 10 61 11
f 61 62 63
f 11 63 13
f 61 63 11
f 62 64 65
f 64 66 67
f 65 67 68
f 64 67 65
f 16 69 17
f 69 70 71
f 17 71 18
f 69 71 17
f 62 65 63
f 65 68 72
f 63 72 13
f 65 72 63
f 18 71 73
f 71 70 74
f 73 74 75
f 71 74 73
f 68 67 76
f 67 66 77
f 76 77 78
f 67 77 76
f 75 79 80
f 79 81 82
f 80 82 83
f 79 82 80
f 68 76 84
f 76 78 85
f 74 79 75
f 86 79 74
f 18 73 23
f 73 75 87
f 23 87 24
f 73 87 23
f 75 80 88
f 80 83 89
f 88 89 90
f 80 89 88
f 24 91 27
f 91 90 92
f 27 92 28
f 91 92 27
f 75 88 87
f 88 90 91
f 87 91 24
f 88 91 87
f 28 92 93
f 92 90 94
f 93 94 95
f 92 94 93
f 90 89 96
f 89 83 97
f 96 97 98
f 89 97 96
f 95 99 100
f 99 98 101
f 100 101 102
f 99 101 100
f 90 96 94
f 96 98 99
f 94 99 95
f 96 99 94
f 28 93 33
f 93 95 103
f 33 103 34
f 93 103 33
f 95 100 104
f 100 102 105
f 104 105 106
f 100 105 104
f 34 107 37
f 107 106 108
f 37 108 38
f 107 108 37
f 95 104 103
f 104 106 107
f 103 107 34
f 104 107 103
f 38 108 109
f 108 106 110
f 109 110 111
f 108 110 109
f 106 105 112
f 105 102 113
f 112 113 114
f 105 113 112
f 115 116 117
f 116 118 119
f 117 119 120
f 116 119 117
f 106 112 110
f 112 114 121
f 110 121 111
f 112 121 110
f 38 109 43
f 109 111 122
f 43 122 44
f 109 122 43
f 115 117 123
f 117 120 124
f 123 124 125
f 117 124 123
f 126 127 49
f 127 125 128
f 49 128 50
f 127 128 49
f 111 129 122
f 123 125 127
f 122 130 44
f 123 127 131
f 50 128 132
f 128 125 133
f 132 133 134
f 128 133 132
f 125 124 135
f 124 120 136
f 135 136 137
f 124 136 135
f 134 138 139
f 138 137 140
f 139 140 141
f 138 140 139
f 125 135 133
f 135 137 138
f 133 138 134
f 135 138 133
f 50 132 53
f 132 134 142
f 53 142 55
f 132 142 53
f 134 139 143
f 139 141 144
f 143 144 145
f 139 144 143
f 55 146 58
f 146 145 147
f 58 147 10
f 146 147 58
f 134 143 142
f 143 145 146
f 142 146 55
f 143 146 142
f 10 147 61
f 147 145 148
f 61 148 62
f 147 148 61
f 145 144 149
f 144 141 150
f 149 150 151
f 144 150 149
f 62 152 64
f 152 151 153
f 64 153 66
f 152 153 64
f 145 149 148
f 149 151 152
f 148 152 62
f 149 152 148
f 154 155 156
f 155 157 158
f 156 158 159
f 155 158 156
f 157 160 161
f 162 83 82
f 161 163 78
f 160 163 161
f 159 164 165
f 164 78 77
f 165 77 66
f 164 77 165
f 157 161 158
f 161 78 164
f 158 164 159
f 161 164 158
f 154 166 155
f 166 167 168
f 155 168 157
f 166 168 155
f 169 170 171
f 170 102 101
f 171 101 98
f 170 101 171
f 157 172 160
f 173 98 97
f 162 97 83
f 173 97 162
f 167 174 168
f 171 98 173
f 168 172 157
f 171 173 175
f 154 176 166
f 176 177 178
f 166 178 167
f 176 178 166
f 177 179 180
f 179 120 119
f 180 119 118
f 179 119 180
f 167 181 182
f 183 114 113
f 170 113 102
f 183 113 170
f 177 180 178
f 180 118 181
f 178 181 167
f 180 181 178
f 154 184 176
f 184 185 186
f 176 186 177
f 184 186 176
f 185 187 188
f 187 141 140
f 188 140 137
f 187 140 188
f 177 189 179
f 189 137 136
f 179 136 120
f 189 136 179
f 185 188 186
f 188 137 189
f 186 189 177
f 188 189 186
f 154 156 184
f 156 159 190
f 184 190 185
f 156 190 184
f 159 165 191
f 165 66 153
f 191 153 151
f 165 153 191
f 185 192 187
f 192 151 150
f 187 150 141
f 192 150 187
f 159 191 190
f 191 151 192
f 190 192 185
f 191 192 190
f 4 56 7
f 7 56 9
f 7 9 8
f 8 9 12
f 8 12 16
f 16 12 13
f 44 126 47
f 47 126 49
f 47 49 46
f 46 49 48
f 46 48 52
f 52 48 54
f 52 54 51
f 51 54 60
f 51 60 59
f 59 60 57
f 59 57 4
f 4 57 56
f 16 13 69
f 69 13 72
f 69 72 70
f 70 72 68
f 70 68 74
f 74 68 84
f 79 85 81
f 81 85 78
f 81 78 82
f 82 78 163
f 86 76 79
f 79 76 85
f 74 84 86
f 86 84 76
f 114 118 121
f 121 118 116
f 121 116 111
f 111 116 115
f 111 115 129
f 129 115 123
f 129 123 122
f 122 123 131
f 122 131 130
f 130 131 127
f 130 127 44
f 44 127 126
f 82 163 162
f 162 163 160
f 169 167 170
f 170 167 182
f 171 174 169
f 169 174 167
f 162 160 173
f 173 160 172
f 173 172 175
f 175 172 168
f 175 168 171
f 171 168 174
f 183 181 114
f 114 181 118
f 170 182 183
f 183 182 181
