v -0.613443 1.05904 -0.572443
v -0.578573 1.01522 -0.576917
v -0.584156 1.06401 -0.620125
v -0.555307 0.965789 -0.59
v -0.551911 1.01639 -0.628555
v -0.566047 1.05965 -0.673125
v -0.545414 0.914507 -0.610695
v -0.532198 0.956513 -0.648637
v -0.549649 0.865278 -0.637427
v -0.531507 0.904099 -0.673756
v -0.52855 0.945765 -0.711322
v -0.566047 1.07275 -0.753125
v -0.537845 1.01895 -0.772338
v -0.560495 1.0594 -0.807411
v -0.52855 0.958859 -0.791322
v -0.541004 1.0002 -0.827265
v -0.567922 1.03807 -0.858848
v -0.537845 1.00586 -0.692338
v -0.636396 1.09975 -0.603621
v -0.610396 1.10188 -0.655564
v -0.66655 1.12841 -0.641374
v -0.596329 1.10445 -0.799347
v -0.598827 1.08473 -0.853968
v -0.639793 1.12148 -0.842696
v -0.66655 1.1415 -0.721374
v -0.649166 1.14059 -0.782655
v -0.701611 1.15593 -0.762829
v -0.687703 1.14552 -0.82589
v -0.738908 1.15503 -0.80483
v -0.610396 1.11498 -0.735564
v -0.663099 1.07304 -0.550214
v -0.690242 1.11102 -0.584854
v -0.717924 1.07703 -0.538626
v -0.701611 1.14284 -0.682829
v -0.729013 1.13664 -0.631944
v -0.766646 1.15456 -0.75598
v -0.766646 1.14146 -0.67598
v -0.791671 1.12576 -0.628197
v -0.729013 1.14973 -0.711944
v -0.756022 1.10963 -0.577926
v -0.773745 1.0707 -0.538561
v -0.812077 1.09603 -0.585118
v -0.826311 1.05454 -0.550024
v -0.627363 1.0208 -0.53371
v -0.681106 1.03117 -0.514143
v -0.649172 0.976529 -0.506875
v -0.746886 1.02978 -0.507215
v -0.803044 1.01709 -0.515207
v -0.774293 0.973883 -0.493697
v -0.710741 0.976941 -0.490523
v -0.67721 0.929587 -0.493979
v -0.742246 0.928212 -0.48713
v -0.709343 0.883551 -0.496006
v -0.595613 0.972686 -0.541152
v -0.625248 0.918457 -0.517532
v -0.65772 0.870389 -0.513833
v -0.611675 0.862639 -0.545071
v -0.5759 0.912811 -0.561233
v -0.574714 0.860891 -0.587342
v -0.552211 0.84405 -0.689377
v -0.552211 0.857145 -0.769377
v -0.568382 0.843333 -0.821374
v -0.539072 0.898344 -0.808219
v -0.531507 0.917193 -0.753756
v -0.539072 0.88525 -0.728219
v -0.596932 0.83799 -0.869461
v -0.56566 0.886957 -0.86772
v -0.635688 0.841522 -0.909976
v -0.602515 0.88678 -0.912668
v -0.579122 0.937199 -0.9045
v -0.544719 0.947692 -0.85192
v -0.567291 0.988941 -0.886093
v -0.603027 1.04118 -0.902596
v -0.607452 0.989142 -0.928114
v -0.647875 1.0377 -0.936251
v -0.628393 0.928407 -0.943913
v -0.658955 0.878972 -0.944793
v -0.687707 0.922177 -0.966303
v -0.664538 0.981245 -0.960606
v -0.69905 1.0279 -0.95725
v -0.719754 0.967848 -0.97287
v -0.752657 1.01251 -0.963995
v -0.639348 1.08602 -0.895622
v -0.696434 1.07813 -0.928114
v -0.75129 1.06363 -0.940746
v -0.748378 1.10645 -0.9045
v -0.692186 1.12217 -0.878929
v -0.744143 1.13772 -0.858015
v -0.792933 1.1433 -0.814808
v -0.79862 1.11992 -0.86772
v -0.842243 1.11719 -0.821374
v -0.802869 1.07587 -0.916904
v -0.80428 1.02567 -0.946167
v -0.850325 1.03342 -0.914929
v -0.852217 1.08152 -0.873203
v -0.883086 1.07871 -0.82403
v -0.887286 1.03517 -0.872658
v -0.91235 1.03078 -0.822573
v -0.821381 1.13695 -0.764517
v -0.791671 1.13885 -0.708197
v -0.874977 1.09855 -0.77
v -0.909789 1.05201 -0.770623
v -0.893618 1.06582 -0.718626
v -0.84839 1.09685 -0.630499
v -0.893618 1.05273 -0.638626
v -0.865067 1.05807 -0.590539
v -0.874977 1.08546 -0.69
v -0.821381 1.12386 -0.684517
v -0.84839 1.10994 -0.710499
v -0.859485 1.00928 -0.547332
v -0.89634 1.0091 -0.59228
v -0.882878 0.95886 -0.5555
v -0.909789 1.03891 -0.690623
v -0.922927 0.997715 -0.651781
v -0.930493 0.991961 -0.786244
v -0.930493 0.978866 -0.706244
v -0.93345 0.9372 -0.668678
v -0.922927 1.01081 -0.731781
v -0.917281 0.948367 -0.60808
v -0.894709 0.907119 -0.573907
v -0.920996 0.89586 -0.632735
v -0.894078 0.857993 -0.601152
v -0.833607 0.967652 -0.516087
v -0.854548 0.906917 -0.531886
v -0.858973 0.854879 -0.557404
v -0.814125 0.858357 -0.523749
v -0.797462 0.914815 -0.499394
v -0.76295 0.868163 -0.50275
v -0.71071 0.832427 -0.519254
v -0.765565 0.817934 -0.531886
v -0.713622 0.789605 -0.5555
v -0.822652 0.810036 -0.564378
v -0.863173 0.811334 -0.606032
v -0.822206 0.774583 -0.617304
v -0.769814 0.773891 -0.581071
v -0.717857 0.758344 -0.601985
v -0.774297 0.750536 -0.63411
v -0.723092 0.741025 -0.65517
v -0.659131 0.820185 -0.543096
v -0.66338 0.776142 -0.59228
v -0.669067 0.752762 -0.645192
v -0.619756 0.778865 -0.638626
v -0.609783 0.814539 -0.586797
v -0.578914 0.817347 -0.63597
v -0.587023 0.797505 -0.69
v -0.568382 0.830239 -0.741374
v -0.640619 0.759109 -0.695483
v -0.695353 0.741503 -0.70402
v -0.670329 0.757205 -0.751803
v -0.61361 0.799212 -0.829501
v -0.670329 0.770299 -0.831803
v -0.649923 0.800028 -0.874882
v -0.640619 0.772203 -0.775483
v -0.587023 0.8106 -0.77
v -0.61361 0.786118 -0.749501
v -0.848557 0.83702 -0.887557
v -0.834637 0.875256 -0.92629
v -0.798901 0.823016 -0.909786
v -0.812828 0.91953 -0.953125
v -0.780894 0.864889 -0.945857
v -0.744076 0.819027 -0.921374
v -0.78479 0.966472 -0.966021
v -0.751259 0.919118 -0.969477
v -0.715114 0.86628 -0.952785
v -0.688255 0.825356 -0.921439
v -0.883427 0.880839 -0.883083
v -0.906693 0.93027 -0.87
v -0.866387 0.923373 -0.918848
v -0.916586 0.981552 -0.849305
v -0.8861 0.983249 -0.898767
v -0.836752 0.977602 -0.942468
v -0.877844 0.832049 -0.839875
v -0.895953 0.836405 -0.786875
v -0.910089 0.879671 -0.831445
v -0.895953 0.82331 -0.706875
v -0.901505 0.836662 -0.652589
v -0.924155 0.877104 -0.687662
v -0.929802 0.939547 -0.811363
v -0.93345 0.950295 -0.748678
v -0.924155 0.890199 -0.767662
v -0.825604 0.796312 -0.856379
v -0.79545 0.767653 -0.818626
v -0.851604 0.794178 -0.804436
v -0.79545 0.754558 -0.738626
v -0.760389 0.740128 -0.697171
v -0.812833 0.755466 -0.677345
v -0.865671 0.791611 -0.660653
v -0.851604 0.781084 -0.724436
v -0.771758 0.785042 -0.875146
v -0.705977 0.786433 -0.882074
v -0.732987 0.759424 -0.828056
v -0.760389 0.753222 -0.777171
v -0.695353 0.754598 -0.78402
v -0.732987 0.74633 -0.748056
f 1 2 3
f 2 4 5
f 3 5 6
f 2 5 3
f 4 7 8
f 7 9 10
f 8 10 11
f 7 10 8
f 12 13 14
f 13 15 16
f 14 16 17
f 13 16 14
f 4 8 5
f 8 11 18
f 5 18 6
f 8 18 5
f 1 3 19
f 3 6 20
f 19 20 21
f 3 20 19
f 12 14 22
f 14 17 23
f 22 23 24
f 14 23 22
f 25 26 27
f 26 24 28
f 27 28 29
f 26 28 27
f 12 22 30
f 22 24 26
f 30 26 25
f 22 26 30
f 1 19 31
f 19 21 32
f 31 32 33
f 19 32 31
f 21 34 35
f 27 29 36
f 35 37 38
f 27 36 39
f 33 40 41
f 40 38 42
f 41 42 43
f 40 42 41
f 21 35 32
f 35 38 40
f 32 40 33
f 35 40 32
f 1 31 44
f 31 33 45
f 44 45 46
f 31 45 44
f 33 41 47
f 41 43 48
f 47 48 49
f 41 48 47
f 46 50 51
f 50 49 52
f 51 52 53
f 50 52 51
f 33 47 45
f 47 49 50
f 45 50 46
f 47 50 45
f 1 44 2
f 44 46 54
f 2 54 4
f 44 54 2
f 46 51 55
f 51 53 56
f 55 56 57
f 51 56 55
f 4 58 7
f 58 57 59
f 7 59 9
f 58 59 7
f 46 55 54
f 55 57 58
f 54 58 4
f 55 58 54
f 9 60 10
f 61 62 63
f 64 63 15
f 60 65 10
f 62 66 67
f 66 68 69
f 67 69 70
f 66 69 67
f 15 71 16
f 71 70 72
f 16 72 17
f 71 72 16
f 62 67 63
f 67 70 71
f 63 71 15
f 67 71 63
f 17 72 73
f 72 70 74
f 73 74 75
f 72 74 73
f 70 69 76
f 69 68 77
f 76 77 78
f 69 77 76
f 75 79 80
f 79 78 81
f 80 81 82
f 79 81 80
f 70 76 74
f 76 78 79
f 74 79 75
f 76 79 74
f 17 73 23
f 73 75 83
f 23 83 24
f 73 83 23
f 75 80 84
f 80 82 85
f 84 85 86
f 80 85 84
f 24 87 28
f 87 86 88
f 28 88 29
f 87 88 28
f 75 84 83
f 84 86 87
f 83 87 24
f 84 87 83
f 29 88 89
f 88 86 90
f 89 90 91
f 88 90 89
f 86 85 92
f 85 82 93
f 92 93 94
f 85 93 92
f 91 95 96
f 95 94 97
f 96 97 98
f 95 97 96
f 86 92 90
f 92 94 95
f 90 95 91
f 92 95 90
f 29 89 36
f 89 91 99
f 36 99 100
f 89 99 36
f 91 96 101
f 96 98 102
f 101 102 103
f 96 102 101
f 38 104 42
f 104 105 106
f 42 106 43
f 104 106 42
f 91 101 99
f 107 105 104
f 108 104 38
f 101 109 99
f 43 106 110
f 106 105 111
f 110 111 112
f 106 111 110
f 105 113 114
f 102 98 115
f 114 116 117
f 102 115 118
f 112 119 120
f 119 117 121
f 120 121 122
f 119 121 120
f 105 114 111
f 114 117 119
f 111 119 112
f 114 119 111
f 43 110 48
f 110 112 123
f 48 123 49
f 110 123 48
f 112 120 124
f 120 122 125
f 124 125 126
f 120 125 124
f 49 127 52
f 127 126 128
f 52 128 53
f 127 128 52
f 112 124 123
f 124 126 127
f 123 127 49
f 124 127 123
f 53 128 129
f 128 126 130
f 129 130 131
f 128 130 129
f 126 125 132
f 125 122 133
f 132 133 134
f 125 133 132
f 131 135 136
f 135 134 137
f 136 137 138
f 135 137 136
f 126 132 130
f 132 134 135
f 130 135 131
f 132 135 130
f 53 129 56
f 129 131 139
f 56 139 57
f 129 139 56
f 131 136 140
f 136 138 141
f 140 141 142
f 136 141 140
f 57 143 59
f 143 142 144
f 59 144 9
f 143 144 59
f 131 140 139
f 140 142 143
f 139 143 57
f 140 143 139
f 9 144 60
f 144 142 145
f 60 145 146
f 144 145 60
f 142 141 147
f 141 138 148
f 147 148 149
f 141 148 147
f 62 150 66
f 150 151 152
f 66 152 68
f 150 152 66
f 142 147 145
f 153 151 150
f 154 150 62
f 147 155 145
f 156 157 158
f 157 159 160
f 158 160 161
f 157 160 158
f 159 162 163
f 162 82 81
f 163 81 78
f 162 81 163
f 161 164 165
f 164 78 77
f 165 77 68
f 164 77 165
f 159 163 160
f 163 78 164
f 160 164 161
f 163 164 160
f 156 166 157
f 166 167 168
f 157 168 159
f 166 168 157
f 167 169 170
f 169 98 97
f 170 97 94
f 169 97 170
f 159 171 162
f 171 94 93
f 162 93 82
f 171 93 162
f 167 170 168
f 170 94 171
f 168 171 159
f 170 171 168
f 156 172 166
f 172 173 174
f 166 174 167
f 172 174 166
f 175 176 177
f 176 122 121
f 177 121 117
f 176 121 177
f 167 178 169
f 178 179 115
f 169 115 98
f 178 115 169
f 173 180 174
f 180 179 178
f 174 178 167
f 180 178 174
f 156 181 172
f 181 182 183
f 172 183 173
f 181 183 172
f 184 185 186
f 185 138 137
f 186 137 134
f 185 137 186
f 175 187 176
f 187 134 133
f 176 133 122
f 187 133 176
f 184 186 188
f 186 134 187
f 188 187 175
f 186 187 188
f 156 158 181
f 158 161 189
f 181 189 182
f 158 189 181
f 161 165 190
f 165 68 152
f 190 152 151
f 165 152 190
f 182 191 192
f 191 151 193
f 185 148 138
f 194 148 185
f 161 190 189
f 190 151 191
f 189 191 182
f 190 191 189
f 12 6 13
f 13 6 18
f 13 18 15
f 15 18 11
f 27 34 25
f 25 34 21
f 30 20 12
f 12 20 6
f 25 21 30
f 30 21 20
f 36 37 39
f 39 37 35
f 39 35 27
f 27 35 34
f 61 60 62
f 62 60 146
f 63 65 61
f 61 65 60
f 64 10 63
f 63 10 65
f 15 11 64
f 64 11 10
f 99 108 100
f 100 108 38
f 100 38 36
f 36 38 37
f 102 113 103
f 103 113 105
f 103 105 101
f 101 105 107
f 101 107 109
f 109 107 104
f 109 104 99
f 99 104 108
f 115 116 118
f 118 116 114
f 118 114 102
f 102 114 113
f 153 147 151
f 151 147 149
f 150 155 153
f 153 155 147
f 154 145 150
f 150 145 155
f 62 146 154
f 154 146 145
f 179 117 115
f 115 117 116
f 173 175 180
f 180 175 177
f 180 177 179
f 179 177 117
f 182 184 183
f 183 184 188
f 183 188 173
f 173 188 175
f 191 194 192
f 192 194 185
f 192 185 182
f 182 185 184
f 151 149 193
f 193 149 148
f 193 148 191
f 191 148 194
