v -0.613443 1.02963 -0.492443
v -0.578573 0.985807 -0.496917
v -0.584156 1.0346 -0.540125
v -0.555307 0.936375 -0.51
v -0.551911 0.986974 -0.548555
v -0.566047 1.03024 -0.593125
v -0.545414 0.885093 -0.530695
v -0.532198 0.927099 -0.568637
v -0.549649 0.835865 -0.557427
v -0.531507 0.874685 -0.593756
v -0.52855 0.916351 -0.631322
v -0.566047 1.05965 -0.673125
v -0.537845 1.00586 -0.692338
v -0.560495 1.0463 -0.727411
v -0.52855 0.945765 -0.711322
v -0.541004 0.987105 -0.747265
v -0.567922 1.02497 -0.778848
v -0.532198 0.956513 -0.648637
v -0.551911 1.01639 -0.628555
v -0.537845 0.976447 -0.612338
v -0.636396 1.07033 -0.523621
v -0.584156 1.06401 -0.620125
v -0.610396 1.10188 -0.655564
v -0.636396 1.09975 -0.603621
v -0.66655 1.12841 -0.641374
v -0.610396 1.07247 -0.575564
v -0.596329 1.09135 -0.719347
v -0.598827 1.07163 -0.773968
v -0.639793 1.10838 -0.762696
v -0.649166 1.1275 -0.702655
v -0.701611 1.14284 -0.682829
v -0.687703 1.13243 -0.74589
v -0.738908 1.14194 -0.72483
v -0.663099 1.04363 -0.470214
v -0.66655 1.09899 -0.561374
v -0.690242 1.0816 -0.504854
v -0.717924 1.04762 -0.458626
v -0.729013 1.13664 -0.631944
v -0.766646 1.14146 -0.67598
v -0.791671 1.12576 -0.628197
v -0.756022 1.08021 -0.497926
v -0.773745 1.04129 -0.458561
v -0.791671 1.09635 -0.548197
v -0.812077 1.06662 -0.505118
v -0.826311 1.02512 -0.470024
v -0.729013 1.10722 -0.551944
v -0.627363 0.99139 -0.45371
v -0.681106 1.00176 -0.434143
v -0.649172 0.947116 -0.426875
v -0.746886 1.00037 -0.427215
v -0.803044 0.987674 -0.435207
v -0.774293 0.944469 -0.413697
v -0.710741 0.947528 -0.410523
v -0.67721 0.900174 -0.413979
v -0.742246 0.898798 -0.40713
v -0.709343 0.854137 -0.416006
v -0.595613 0.943273 -0.461152
v -0.625248 0.889044 -0.437532
v -0.65772 0.840975 -0.433833
v -0.611675 0.833226 -0.465071
v -0.5759 0.883397 -0.481233
v -0.574714 0.831478 -0.507342
v -0.552211 0.814637 -0.609377
v -0.552211 0.84405 -0.689377
v -0.568382 0.830239 -0.741374
v -0.539072 0.88525 -0.728219
v -0.531507 0.904099 -0.673756
v -0.539072 0.855836 -0.648219
v -0.596932 0.824896 -0.789461
v -0.56566 0.873862 -0.78772
v -0.635688 0.828428 -0.829976
v -0.602515 0.873686 -0.832668
v -0.579122 0.924105 -0.8245
v -0.544719 0.934598 -0.77192
v -0.567291 0.975846 -0.806093
v -0.603027 1.02809 -0.822596
v -0.607452 0.976048 -0.848114
v -0.647875 1.02461 -0.856251
v -0.628393 0.915313 -0.863913
v -0.658955 0.865877 -0.864793
v -0.687707 0.909082 -0.886303
v -0.664538 0.96815 -0.880606
v -0.69905 1.0148 -0.87725
v -0.719754 0.954753 -0.89287
v -0.752657 0.999414 -0.883994
v -0.639348 1.07293 -0.815622
v -0.696434 1.06503 -0.848114
v -0.75129 1.05054 -0.860746
v -0.748378 1.09336 -0.8245
v -0.692186 1.10907 -0.798929
v -0.744143 1.12462 -0.778015
v -0.792933 1.1302 -0.734808
v -0.79862 1.10682 -0.78772
v -0.842243 1.1041 -0.741374
v -0.802869 1.06278 -0.836904
v -0.80428 1.01258 -0.866167
v -0.850325 1.02033 -0.834929
v -0.852217 1.06843 -0.793203
v -0.883086 1.06562 -0.74403
v -0.887286 1.02207 -0.792658
v -0.91235 1.01769 -0.742573
v -0.821381 1.12386 -0.684517
v -0.874977 1.08546 -0.69
v -0.909789 1.03891 -0.690623
v -0.893618 1.05273 -0.638626
v -0.84839 1.06743 -0.550499
v -0.893618 1.02331 -0.558626
v -0.865067 1.02866 -0.510539
v -0.84839 1.09685 -0.630499
v -0.859485 0.979866 -0.467332
v -0.89634 0.979689 -0.51228
v -0.882878 0.929447 -0.4755
v -0.909789 1.0095 -0.610623
v -0.922927 0.968302 -0.571781
v -0.930493 0.978866 -0.706244
v -0.930493 0.949453 -0.626244
v -0.93345 0.907787 -0.588678
v -0.922927 0.997715 -0.651781
v -0.917281 0.918954 -0.52808
v -0.894709 0.877705 -0.493907
v -0.920996 0.866447 -0.552735
v -0.894078 0.828579 -0.521152
v -0.833607 0.938239 -0.436087
v -0.854548 0.877503 -0.451886
v -0.858973 0.825465 -0.477404
v -0.814125 0.828943 -0.443749
v -0.797462 0.885401 -0.419394
v -0.76295 0.83875 -0.42275
v -0.71071 0.803013 -0.439254
v -0.765565 0.78852 -0.451886
v -0.713622 0.760191 -0.4755
v -0.822652 0.780623 -0.484378
v -0.863173 0.781921 -0.526032
v -0.822206 0.745169 -0.537304
v -0.769814 0.744478 -0.501071
v -0.717857 0.728931 -0.521985
v -0.774297 0.721122 -0.55411
v -0.723092 0.711611 -0.57517
v -0.659131 0.790772 -0.463096
v -0.66338 0.746729 -0.51228
v -0.669067 0.723348 -0.565192
v -0.619756 0.749451 -0.558626
v -0.609783 0.785125 -0.506797
v -0.578914 0.787933 -0.55597
v -0.587023 0.768091 -0.61
v -0.568382 0.800825 -0.661374
v -0.640619 0.729695 -0.615483
v -0.695353 0.71209 -0.62402
v -0.670329 0.727791 -0.671803
v -0.61361 0.786118 -0.749501
v -0.670329 0.757205 -0.751803
v -0.649923 0.786934 -0.794882
v -0.61361 0.756704 -0.669501
v -0.848557 0.823925 -0.807557
v -0.834637 0.862162 -0.84629
v -0.798901 0.809922 -0.829786
v -0.812828 0.906436 -0.873125
v -0.780894 0.851794 -0.865857
v -0.744076 0.805932 -0.841374
v -0.78479 0.953378 -0.886021
v -0.751259 0.906024 -0.889477
v -0.715114 0.853186 -0.872785
v -0.688255 0.812262 -0.841439
v -0.883427 0.867744 -0.803083
v -0.906693 0.917176 -0.79
v -0.866387 0.910279 -0.838848
v -0.916586 0.968458 -0.769305
v -0.8861 0.970154 -0.818767
v -0.836752 0.964508 -0.862468
v -0.877844 0.818954 -0.759875
v -0.895953 0.82331 -0.706875
v -0.910089 0.866577 -0.751445
v -0.895953 0.793897 -0.626875
v -0.901505 0.807248 -0.572589
v -0.924155 0.847691 -0.607662
v -0.929802 0.926452 -0.731363
v -0.93345 0.9372 -0.668678
v -0.910089 0.837163 -0.671445
v -0.929802 0.897039 -0.651363
v -0.924155 0.877104 -0.687662
v -0.825604 0.783218 -0.776379
v -0.825604 0.753804 -0.696379
v -0.79545 0.725144 -0.658626
v -0.851604 0.75167 -0.644436
v -0.877844 0.789541 -0.679875
v -0.851604 0.781084 -0.724436
v -0.760389 0.710714 -0.617171
v -0.812833 0.726052 -0.597345
v -0.865671 0.762198 -0.580653
v -0.771758 0.771948 -0.795146
v -0.79545 0.754558 -0.738626
v -0.705977 0.773339 -0.802074
v -0.732987 0.716916 -0.668056
v -0.732987 0.74633 -0.748056
f 1 2 3
f 2 4 5
f 3 5 6
f 2 5 3
f 4 7 8
f 7 9 10
f 8 10 11
f 7 10 8
f 12 13 14
f 13 15 16
f 14 16 17
f 13 16 14
f 4 8 5
f 18 15 13
f 19 13 12
f 8 20 5
f 1 3 21
f 22 12 23
f 24 23 25
f 3 26 21
f 12 14 27
f 14 17 28
f 27 28 29
f 14 28 27
f 25 30 31
f 30 29 32
f 31 32 33
f 30 32 31
f 12 27 23
f 27 29 30
f 23 30 25
f 27 30 23
f 1 21 34
f 21 35 36
f 34 36 37
f 21 36 34
f 25 31 38
f 31 33 39
f 38 39 40
f 31 39 38
f 37 41 42
f 41 43 44
f 42 44 45
f 41 44 42
f 35 46 36
f 46 43 41
f 36 41 37
f 46 41 36
f 1 34 47
f 34 37 48
f 47 48 49
f 34 48 47
f 37 42 50
f 42 45 51
f 50 51 52
f 42 51 50
f 49 53 54
f 53 52 55
f 54 55 56
f 53 55 54
f 37 50 48
f 50 52 53
f 48 53 49
f 50 53 48
f 1 47 2
f 47 49 57
f 2 57 4
f 47 57 2
f 49 54 58
f 54 56 59
f 58 59 60
f 54 59 58
f 4 61 7
f 61 60 62
f 7 62 9
f 61 62 7
f 49 58 57
f 58 60 61
f 57 61 4
f 58 61 57
f 9 63 10
f 64 65 66
f 67 66 15
f 63 68 10
f 65 69 70
f 69 71 72
f 70 72 73
f 69 72 70
f 15 74 16
f 74 73 75
f 16 75 17
f 74 75 16
f 65 70 66
f 70 73 74
f 66 74 15
f 70 74 66
f 17 75 76
f 75 73 77
f 76 77 78
f 75 77 76
f 73 72 79
f 72 71 80
f 79 80 81
f 72 80 79
f 78 82 83
f 82 81 84
f 83 84 85
f 82 84 83
f 73 79 77
f 79 81 82
f 77 82 78
f 79 82 77
f 17 76 28
f 76 78 86
f 28 86 29
f 76 86 28
f 78 83 87
f 83 85 88
f 87 88 89
f 83 88 87
f 29 90 32
f 90 89 91
f 32 91 33
f 90 91 32
f 78 87 86
f 87 89 90
f 86 90 29
f 87 90 86
f 33 91 92
f 91 89 93
f 92 93 94
f 91 93 92
f 89 88 95
f 88 85 96
f 95 96 97
f 88 96 95
f 94 98 99
f 98 97 100
f 99 100 101
f 98 100 99
f 89 95 93
f 95 97 98
f 93 98 94
f 95 98 93
f 33 92 39
f 92 94 102
f 39 102 40
f 92 102 39
f 94 99 103
f 99 101 104
f 103 104 105
f 99 104 103
f 43 106 44
f 106 107 108
f 44 108 45
f 106 108 44
f 94 103 102
f 103 105 109
f 102 109 40
f 103 109 102
f 45 108 110
f 108 107 111
f 110 111 112
f 108 111 110
f 107 113 114
f 104 101 115
f 114 116 117
f 104 115 118
f 112 119 120
f 119 117 121
f 120 121 122
f 119 121 120
f 107 114 111
f 114 117 119
f 111 119 112
f 114 119 111
f 45 110 51
f 110 112 123
f 51 123 52
f 110 123 51
f 112 120 124
f 120 122 125
f 124 125 126
f 120 125 124
f 52 127 55
f 127 126 128
f 55 128 56
f 127 128 55
f 112 124 123
f 124 126 127
f 123 127 52
f 124 127 123
f 56 128 129
f 128 126 130
f 129 130 131
f 128 130 129
f 126 125 132
f 125 122 133
f 132 133 134
f 125 133 132
f 131 135 136
f 135 134 137
f 136 137 138
f 135 137 136
f 126 132 130
f 132 134 135
f 130 135 131
f 132 135 130
f 56 129 59
f 129 131 139
f 59 139 60
f 129 139 59
f 131 136 140
f 136 138 141
f 140 141 142
f 136 141 140
f 60 143 62
f 143 142 144
f 62 144 9
f 143 144 62
f 131 140 139
f 140 142 143
f 139 143 60
f 140 143 139
f 9 144 63
f 144 142 145
f 63 145 146
f 144 145 63
f 142 141 147
f 141 138 148
f 147 148 149
f 141 148 147
f 65 150 69
f 150 151 152
f 69 152 71
f 150 152 69
f 142 147 145
f 147 149 153
f 145 153 146
f 147 153 145
f 154 155 156
f 155 157 158
f 156 158 159
f 155 158 156
f 157 160 161
f 160 85 84
f 161 84 81
f 160 84 161
f 159 162 163
f 162 81 80
f 163 80 71
f 162 80 163
f 157 161 158
f 161 81 162
f 158 162 159
f 161 162 158
f 154 164 155
f 164 165 166
f 155 166 157
f 164 166 155
f 165 167 168
f 167 101 100
f 168 100 97
f 167 100 168
f 157 169 160
f 169 97 96
f 160 96 85
f 169 96 160
f 165 168 166
f 168 97 169
f 166 169 157
f 168 169 166
f 154 170 164
f 170 171 172
f 164 172 165
f 170 172 164
f 173 174 175
f 174 122 121
f 175 121 117
f 174 121 175
f 165 176 167
f 176 177 115
f 167 115 101
f 176 115 167
f 173 175 178
f 175 117 179
f 172 176 165
f 180 176 172
f 154 181 170
f 182 183 184
f 185 184 173
f 181 186 170
f 183 187 188
f 187 138 137
f 188 137 134
f 187 137 188
f 173 189 174
f 189 134 133
f 174 133 122
f 189 133 174
f 183 188 184
f 188 134 189
f 184 189 173
f 188 189 184
f 154 156 181
f 156 159 190
f 181 190 191
f 156 190 181
f 159 163 192
f 163 71 152
f 192 152 151
f 163 152 192
f 183 193 187
f 193 149 148
f 187 148 138
f 193 148 187
f 159 192 190
f 192 151 194
f 190 194 191
f 192 194 190
f 18 8 15
f 15 8 11
f 13 20 18
f 18 20 8
f 19 5 13
f 13 5 20
f 12 6 19
f 19 6 5
f 22 3 12
f 12 3 6
f 23 26 22
f 22 26 3
f 24 21 23
f 23 21 26
f 25 35 24
f 24 35 21
f 38 46 25
f 25 46 35
f 40 43 38
f 38 43 46
f 64 63 65
f 65 63 146
f 66 68 64
f 64 68 63
f 67 10 66
f 66 10 68
f 15 11 67
f 67 11 10
f 104 113 105
f 105 113 107
f 105 107 109
f 109 107 106
f 109 106 40
f 40 106 43
f 115 116 118
f 118 116 114
f 118 114 104
f 104 114 113
f 65 146 150
f 150 146 153
f 150 153 151
f 151 153 149
f 170 185 171
f 171 185 173
f 171 173 172
f 172 173 178
f 176 179 177
f 177 179 117
f 177 117 115
f 115 117 116
f 180 175 176
f 176 175 179
f 172 178 180
f 180 178 175
f 181 182 186
f 186 182 184
f 186 184 170
f 170 184 185
f 191 183 181
f 181 183 182
f 151 149 194
f 194 149 193
f 194 193 191
f 191 193 183
