v -0.613443 1.0595 -0.332443
v -0.578573 1.01568 -0.336917
v -0.584156 1.06447 -0.380125
v -0.555307 0.966249 -0.35
v -0.551911 1.01685 -0.388555
v -0.566047 1.06011 -0.433125
v -0.545414 0.914967 -0.370695
v -0.532198 0.956973 -0.408637
v -0.549649 0.865739 -0.397427
v -0.531507 0.904559 -0.433756
v -0.52855 0.946225 -0.471322
v -0.537845 1.00632 -0.452338
v -0.560495 1.04676 -0.487411
v -0.537845 0.976447 -0.612338
v -0.52855 0.916351 -0.631322
v -0.541004 0.957691 -0.667265
v -0.560495 1.01689 -0.647411
v -0.567922 0.995558 -0.698848
v -0.636396 1.10021 -0.363621
v -0.610396 1.10234 -0.415564
v -0.66655 1.12887 -0.401374
v -0.596329 1.09181 -0.479347
v -0.598827 1.04222 -0.693968
v -0.596329 1.06194 -0.639347
v -0.639793 1.07897 -0.682696
v -0.649166 1.12796 -0.462655
v -0.701611 1.1433 -0.442829
v -0.649166 1.09809 -0.622655
v -0.687703 1.10302 -0.665891
v -0.687703 1.13289 -0.50589
v -0.738908 1.1424 -0.48483
v -0.663099 1.0735 -0.310214
v -0.690242 1.11148 -0.344854
v -0.717924 1.07749 -0.298626
v -0.729013 1.1371 -0.391944
v -0.766646 1.14192 -0.43598
v -0.791671 1.12622 -0.388197
v -0.756022 1.11009 -0.337926
v -0.773745 1.07116 -0.298561
v -0.812077 1.09649 -0.345118
v -0.826311 1.055 -0.310024
v -0.627363 1.02126 -0.29371
v -0.681106 1.03163 -0.274143
v -0.649172 0.97699 -0.266875
v -0.746886 1.03024 -0.267215
v -0.803044 1.01755 -0.275207
v -0.774293 0.974343 -0.253697
v -0.710741 0.977402 -0.250523
v -0.67721 0.930047 -0.253979
v -0.742246 0.928672 -0.24713
v -0.709343 0.884011 -0.256005
v -0.595613 0.973147 -0.301152
v -0.625248 0.918918 -0.277532
v -0.65772 0.870849 -0.273833
v -0.611675 0.8631 -0.305071
v -0.5759 0.913271 -0.321233
v -0.574714 0.861352 -0.347342
v -0.552211 0.844511 -0.449377
v -0.552211 0.814637 -0.609377
v -0.568382 0.800825 -0.661374
v -0.539072 0.855836 -0.648219
v -0.531507 0.874685 -0.593756
v -0.596932 0.795482 -0.709461
v -0.56566 0.844449 -0.70772
v -0.635688 0.799014 -0.749976
v -0.602515 0.844272 -0.752668
v -0.579122 0.894691 -0.7445
v -0.544719 0.905184 -0.69192
v -0.567291 0.946433 -0.726093
v -0.603027 0.998673 -0.742596
v -0.607452 0.946634 -0.768114
v -0.647875 0.995194 -0.776251
v -0.628393 0.885899 -0.783913
v -0.658955 0.836464 -0.784793
v -0.687707 0.879669 -0.806303
v -0.664538 0.938737 -0.800606
v -0.69905 0.985388 -0.79725
v -0.719754 0.92534 -0.81287
v -0.752657 0.970001 -0.803995
v -0.639348 1.04351 -0.735622
v -0.696434 1.03562 -0.768114
v -0.75129 1.02112 -0.780746
v -0.748378 1.06395 -0.7445
v -0.692186 1.07966 -0.718929
v -0.744143 1.09521 -0.698015
v -0.738908 1.11253 -0.64483
v -0.792933 1.10079 -0.654808
v -0.79862 1.07741 -0.70772
v -0.842243 1.07469 -0.661374
v -0.802869 1.03337 -0.756904
v -0.80428 0.983162 -0.786167
v -0.850325 0.990912 -0.754929
v -0.852217 1.03901 -0.713203
v -0.883086 1.0362 -0.66403
v -0.887286 0.99266 -0.712658
v -0.91235 0.988273 -0.662573
v -0.792933 1.13066 -0.494808
v -0.842243 1.10456 -0.501374
v -0.821381 1.12432 -0.444517
v -0.874977 1.05605 -0.61
v -0.909789 1.0095 -0.610623
v -0.874977 1.08592 -0.45
v -0.909789 1.03938 -0.450623
v -0.893618 1.05319 -0.398626
v -0.883086 1.06608 -0.50403
v -0.84839 1.09731 -0.390499
v -0.865067 1.05853 -0.350539
v -0.859485 1.00974 -0.307332
v -0.89634 1.00956 -0.35228
v -0.882878 0.959321 -0.3155
v -0.922927 0.998176 -0.411781
v -0.930493 0.949453 -0.626244
v -0.930493 0.979327 -0.466244
v -0.93345 0.937661 -0.428678
v -0.917281 0.948828 -0.36808
v -0.894709 0.907579 -0.333907
v -0.920996 0.896321 -0.392735
v -0.894078 0.858453 -0.361152
v -0.833607 0.968113 -0.276087
v -0.854548 0.907377 -0.291886
v -0.858973 0.855339 -0.317404
v -0.814125 0.858817 -0.283749
v -0.797462 0.915275 -0.259394
v -0.76295 0.868623 -0.26275
v -0.71071 0.832887 -0.279254
v -0.765565 0.818394 -0.291886
v -0.713622 0.790065 -0.3155
v -0.822652 0.810497 -0.324378
v -0.863173 0.811794 -0.366032
v -0.822206 0.775043 -0.377304
v -0.769814 0.774351 -0.341071
v -0.717857 0.758805 -0.361985
v -0.774297 0.750996 -0.39411
v -0.723092 0.741485 -0.41517
v -0.659131 0.820646 -0.303096
v -0.66338 0.776603 -0.35228
v -0.669067 0.753222 -0.405192
v -0.619756 0.779325 -0.398626
v -0.609783 0.814999 -0.346797
v -0.578914 0.817807 -0.39597
v -0.587023 0.797965 -0.45
v -0.587023 0.768091 -0.61
v -0.578914 0.787933 -0.55597
v -0.619756 0.749451 -0.558626
v -0.669067 0.723348 -0.565192
v -0.640619 0.729695 -0.615483
v -0.723092 0.711611 -0.57517
v -0.695353 0.71209 -0.62402
v -0.670329 0.727791 -0.671803
v -0.61361 0.756704 -0.669501
v -0.649923 0.75752 -0.714882
v -0.848557 0.794512 -0.727557
v -0.834637 0.832748 -0.76629
v -0.798901 0.780508 -0.749786
v -0.812828 0.877022 -0.793125
v -0.780894 0.822381 -0.785857
v -0.744076 0.776519 -0.761374
v -0.78479 0.923964 -0.806021
v -0.751259 0.87661 -0.809477
v -0.715114 0.823772 -0.792785
v -0.688255 0.782848 -0.761439
v -0.883427 0.83833 -0.723083
v -0.906693 0.887762 -0.71
v -0.866387 0.880865 -0.758848
v -0.916586 0.939044 -0.689305
v -0.8861 0.940741 -0.738767
v -0.836752 0.935094 -0.782468
v -0.877844 0.789541 -0.679875
v -0.895953 0.793897 -0.626875
v -0.910089 0.837163 -0.671445
v -0.901505 0.807248 -0.572589
v -0.924155 0.847691 -0.607662
v -0.901505 0.837122 -0.412589
v -0.924155 0.877565 -0.447662
v -0.929802 0.897039 -0.651363
v -0.93345 0.907787 -0.588678
v -0.825604 0.753804 -0.696379
v -0.79545 0.725144 -0.658626
v -0.851604 0.75167 -0.644436
v -0.760389 0.710714 -0.617171
v -0.812833 0.726052 -0.597345
v -0.774297 0.721122 -0.55411
v -0.812833 0.755926 -0.437345
v -0.865671 0.762198 -0.580653
v -0.865671 0.792072 -0.420653
v -0.771758 0.742534 -0.715146
v -0.705977 0.743925 -0.722074
v -0.732987 0.716916 -0.668056
f 1 2 3
f 2 4 5
f 3 5 6
f 2 5 3
f 4 7 8
f 7 9 10
f 8 10 11
f 7 10 8
f 6 12 13
f 14 15 16
f 17 16 18
f 14 16 17
f 4 8 5
f 8 11 12
f 5 12 6
f 8 12 5
f 1 3 19
f 3 6 20
f 19 20 21
f 3 20 19
f 6 13 22
f 17 18 23
f 24 23 25
f 17 23 24
f 21 26 27
f 28 25 29
f 27 30 31
f 26 30 27
f 6 22 20
f 24 25 28
f 20 26 21
f 22 26 20
f 1 19 32
f 19 21 33
f 32 33 34
f 19 33 32
f 21 27 35
f 27 31 36
f 35 36 37
f 27 36 35
f 34 38 39
f 38 37 40
f 39 40 41
f 38 40 39
f 21 35 33
f 35 37 38
f 33 38 34
f 35 38 33
f 1 32 42
f 32 34 43
f 42 43 44
f 32 43 42
f 34 39 45
f 39 41 46
f 45 46 47
f 39 46 45
f 44 48 49
f 48 47 50
f 49 50 51
f 48 50 49
f 34 45 43
f 45 47 48
f 43 48 44
f 45 48 43
f 1 42 2
f 42 44 52
f 2 52 4
f 42 52 2
f 44 49 53
f 49 51 54
f 53 54 55
f 49 54 53
f 4 56 7
f 56 55 57
f 7 57 9
f 56 57 7
f 44 53 52
f 53 55 56
f 52 56 4
f 53 56 52
f 9 58 10
f 59 60 61
f 62 61 15
f 59 61 62
f 60 63 64
f 63 65 66
f 64 66 67
f 63 66 64
f 15 68 16
f 68 67 69
f 16 69 18
f 68 69 16
f 60 64 61
f 64 67 68
f 61 68 15
f 64 68 61
f 18 69 70
f 69 67 71
f 70 71 72
f 69 71 70
f 67 66 73
f 66 65 74
f 73 74 75
f 66 74 73
f 72 76 77
f 76 75 78
f 77 78 79
f 76 78 77
f 67 73 71
f 73 75 76
f 71 76 72
f 73 76 71
f 18 70 23
f 70 72 80
f 23 80 25
f 70 80 23
f 72 77 81
f 77 79 82
f 81 82 83
f 77 82 81
f 25 84 29
f 84 83 85
f 29 85 86
f 84 85 29
f 72 81 80
f 81 83 84
f 80 84 25
f 81 84 80
f 86 85 87
f 85 83 88
f 87 88 89
f 85 88 87
f 83 82 90
f 82 79 91
f 90 91 92
f 82 91 90
f 89 93 94
f 93 92 95
f 94 95 96
f 93 95 94
f 83 90 88
f 90 92 93
f 88 93 89
f 90 93 88
f 31 97 36
f 97 98 99
f 36 99 37
f 97 99 36
f 89 94 100
f 94 96 101
f 102 103 104
f 105 103 102
f 37 106 40
f 106 104 107
f 40 107 41
f 106 107 40
f 98 102 99
f 102 104 106
f 99 106 37
f 102 106 99
f 41 107 108
f 107 104 109
f 108 109 110
f 107 109 108
f 104 103 111
f 101 96 112
f 111 113 114
f 103 113 111
f 110 115 116
f 115 114 117
f 116 117 118
f 115 117 116
f 104 111 109
f 111 114 115
f 109 115 110
f 111 115 109
f 41 108 46
f 108 110 119
f 46 119 47
f 108 119 46
f 110 116 120
f 116 118 121
f 120 121 122
f 116 121 120
f 47 123 50
f 123 122 124
f 50 124 51
f 123 124 50
f 110 120 119
f 120 122 123
f 119 123 47
f 120 123 119
f 51 124 125
f 124 122 126
f 125 126 127
f 124 126 125
f 122 121 128
f 121 118 129
f 128 129 130
f 121 129 128
f 127 131 132
f 131 130 133
f 132 133 134
f 131 133 132
f 122 128 126
f 128 130 131
f 126 131 127
f 128 131 126
f 51 125 54
f 125 127 135
f 54 135 55
f 125 135 54
f 127 132 136
f 132 134 137
f 136 137 138
f 132 137 136
f 55 139 57
f 139 138 140
f 57 140 9
f 139 140 57
f 127 136 135
f 136 138 139
f 135 139 55
f 136 139 135
f 9 140 58
f 140 138 141
f 59 142 60
f 143 142 59
f 144 145 146
f 145 147 148
f 146 148 149
f 145 148 146
f 60 150 63
f 150 149 151
f 63 151 65
f 150 151 63
f 144 146 142
f 146 149 150
f 142 150 60
f 146 150 142
f 152 153 154
f 153 155 156
f 154 156 157
f 153 156 154
f 155 158 159
f 158 79 78
f 159 78 75
f 158 78 159
f 157 160 161
f 160 75 74
f 161 74 65
f 160 74 161
f 155 159 156
f 159 75 160
f 156 160 157
f 159 160 156
f 152 162 153
f 162 163 164
f 153 164 155
f 162 164 153
f 163 165 166
f 165 96 95
f 166 95 92
f 165 95 166
f 155 167 158
f 167 92 91
f 158 91 79
f 167 91 158
f 163 166 164
f 166 92 167
f 164 167 155
f 166 167 164
f 152 168 162
f 168 169 170
f 162 170 163
f 168 170 162
f 169 171 172
f 173 118 117
f 174 117 114
f 173 117 174
f 163 175 165
f 175 176 112
f 165 112 96
f 175 112 165
f 169 172 170
f 172 176 175
f 170 175 163
f 172 175 170
f 152 177 168
f 177 178 179
f 168 179 169
f 177 179 168
f 178 180 181
f 180 147 182
f 183 133 130
f 180 182 181
f 169 184 171
f 185 130 129
f 173 129 118
f 185 129 173
f 178 181 179
f 183 130 185
f 179 184 169
f 181 184 179
f 152 154 177
f 154 157 186
f 177 186 178
f 154 186 177
f 157 161 187
f 161 65 151
f 187 151 149
f 161 151 187
f 178 188 180
f 188 149 148
f 180 148 147
f 188 148 180
f 157 187 186
f 187 149 188
f 186 188 178
f 187 188 186
f 14 12 15
f 15 12 11
f 17 13 14
f 14 13 12
f 24 22 17
f 17 22 13
f 29 30 28
f 28 30 26
f 28 26 24
f 24 26 22
f 15 11 62
f 62 11 10
f 62 10 59
f 59 10 58
f 86 31 29
f 29 31 30
f 87 97 86
f 86 97 31
f 89 98 87
f 87 98 97
f 94 105 100
f 100 105 102
f 100 102 89
f 89 102 98
f 101 103 94
f 94 103 105
f 112 113 101
f 101 113 103
f 143 140 142
f 142 140 141
f 59 58 143
f 143 58 140
f 144 138 145
f 145 138 137
f 145 137 147
f 147 137 134
f 142 141 144
f 144 141 138
f 171 173 172
f 172 173 174
f 176 114 112
f 112 114 113
f 172 174 176
f 176 174 114
f 147 134 182
f 182 134 133
f 182 133 181
f 181 133 183
f 184 185 171
f 171 185 173
f 181 183 184
f 184 183 185
