v 0.706557 1.09682 0.787557
v 0.741427 1.053 0.783083
v 0.735844 1.10179 0.739875
v 0.764694 1.00357 0.77
v 0.768089 1.05417 0.731445
v 0.753953 1.09744 0.686875
v 0.774586 0.952291 0.749305
v 0.787802 0.994296 0.711364
v 0.770351 0.903062 0.722573
v 0.788493 0.941882 0.686244
v 0.79145 0.983548 0.648678
v 0.782156 1.04364 0.667662
v 0.759506 1.08409 0.632589
v 0.782156 1.02433 0.587662
v 0.79145 0.964236 0.568678
v 0.778996 1.00558 0.532735
v 0.759506 1.06477 0.552589
v 0.752078 1.04344 0.501152
v 0.683604 1.13753 0.756379
v 0.709605 1.13966 0.704436
v 0.65345 1.16619 0.718626
v 0.723671 1.12914 0.640653
v 0.721173 1.0901 0.506032
v 0.723671 1.10983 0.560653
v 0.680207 1.12685 0.517304
v 0.670834 1.16528 0.657345
v 0.61839 1.18062 0.677171
v 0.670834 1.14597 0.577345
v 0.632297 1.1509 0.53411
v 0.632297 1.17021 0.61411
v 0.581092 1.17972 0.63517
v 0.680207 1.14617 0.597304
v 0.656901 1.11083 0.809786
v 0.629758 1.1488 0.775146
v 0.602076 1.11482 0.821374
v 0.590987 1.17442 0.728056
v 0.553354 1.17925 0.68402
v 0.528329 1.16354 0.731803
v 0.563978 1.14741 0.782074
v 0.546255 1.10849 0.821439
v 0.507923 1.13381 0.774882
v 0.493689 1.09232 0.809976
v 0.692637 1.05859 0.82629
v 0.638894 1.06895 0.845857
v 0.670828 1.01431 0.853125
v 0.573114 1.06756 0.852785
v 0.516956 1.05487 0.844793
v 0.545707 1.01167 0.866303
v 0.609259 1.01473 0.869478
v 0.64279 0.967371 0.866021
v 0.577754 0.965995 0.87287
v 0.610657 0.921334 0.863995
v 0.724387 1.01047 0.818848
v 0.694752 0.956241 0.842468
v 0.66228 0.908172 0.846167
v 0.708325 0.900423 0.814929
v 0.7441 0.950594 0.798767
v 0.745286 0.898675 0.772658
v 0.767789 0.881834 0.670623
v 0.767789 0.862522 0.590623
v 0.751618 0.848711 0.538626
v 0.780928 0.903721 0.551781
v 0.788493 0.92257 0.606244
v 0.723068 0.843368 0.490539
v 0.75434 0.892334 0.49228
v 0.684312 0.8469 0.450024
v 0.717485 0.892157 0.447332
v 0.740878 0.942576 0.4555
v 0.775281 0.953069 0.50808
v 0.752709 0.994318 0.473907
v 0.716973 1.04656 0.457404
v 0.712549 0.99452 0.431886
v 0.672126 1.04308 0.423749
v 0.691608 0.933784 0.416087
v 0.661045 0.884349 0.415208
v 0.632293 0.927554 0.393697
v 0.655462 0.986622 0.399394
v 0.620951 1.03327 0.40275
v 0.600246 0.973225 0.38713
v 0.567343 1.01789 0.396006
v 0.680652 1.0914 0.464378
v 0.623566 1.0835 0.431886
v 0.568711 1.06901 0.419254
v 0.571622 1.11183 0.4555
v 0.627814 1.12755 0.481071
v 0.575857 1.14309 0.501985
v 0.581092 1.16041 0.55517
v 0.527067 1.14867 0.545192
v 0.52138 1.12529 0.49228
v 0.477757 1.12257 0.538626
v 0.517131 1.08125 0.443096
v 0.51572 1.03105 0.413833
v 0.469675 1.0388 0.445071
v 0.467783 1.0869 0.486798
v 0.436915 1.08409 0.53597
v 0.432714 1.04055 0.487342
v 0.40765 1.03616 0.537427
v 0.527067 1.16799 0.625192
v 0.477757 1.14188 0.618626
v 0.498619 1.16164 0.675483
v 0.436915 1.1034 0.61597
v 0.445023 1.12324 0.67
v 0.410211 1.05739 0.589377
v 0.410211 1.0767 0.669377
v 0.426382 1.09051 0.721374
v 0.47161 1.13463 0.729501
v 0.454933 1.09585 0.769461
v 0.460515 1.04706 0.812668
v 0.42366 1.04689 0.76772
v 0.437123 0.996644 0.8045
v 0.397073 1.0355 0.708219
v 0.389507 0.997338 0.573756
v 0.389507 1.01665 0.653756
v 0.38655 0.974984 0.691322
v 0.402719 0.986151 0.75192
v 0.425291 0.944902 0.786093
v 0.399005 0.933644 0.727265
v 0.425922 0.895777 0.758848
v 0.486393 1.00544 0.843913
v 0.465452 0.944701 0.828114
v 0.461028 0.892662 0.802596
v 0.505875 0.896141 0.836251
v 0.522538 0.952598 0.860606
v 0.55705 0.905947 0.85725
v 0.60929 0.87021 0.840746
v 0.554435 0.855718 0.828114
v 0.606378 0.827388 0.8045
v 0.497348 0.84782 0.795622
v 0.456827 0.849118 0.753968
v 0.497794 0.812366 0.742696
v 0.550186 0.811675 0.778929
v 0.602144 0.796128 0.758015
v 0.545703 0.788319 0.725891
v 0.596909 0.778808 0.70483
v 0.660869 0.857969 0.816904
v 0.656621 0.813926 0.76772
v 0.650933 0.790545 0.714808
v 0.700244 0.816648 0.721374
v 0.710217 0.852322 0.773203
v 0.741086 0.85513 0.72403
v 0.741086 0.835818 0.64403
v 0.700244 0.797336 0.641374
v 0.732978 0.815977 0.59
v 0.650933 0.771233 0.634808
v 0.679381 0.77758 0.584517
v 0.596909 0.759496 0.62483
v 0.624647 0.759975 0.57598
v 0.649671 0.775676 0.528197
v 0.70639 0.804589 0.530499
v 0.670077 0.805405 0.485118
v 0.471443 0.842397 0.472443
v 0.485363 0.880633 0.43371
v 0.521099 0.828393 0.450214
v 0.507172 0.924907 0.406875
v 0.539106 0.870266 0.414143
v 0.575925 0.824404 0.438626
v 0.53521 0.971849 0.393979
v 0.568741 0.924495 0.390523
v 0.604886 0.871657 0.407215
v 0.631745 0.830733 0.438561
v 0.436573 0.886216 0.476918
v 0.413307 0.935647 0.49
v 0.453613 0.92875 0.441152
v 0.403415 0.98693 0.510695
v 0.4339 0.988626 0.461233
v 0.483248 0.982979 0.417532
v 0.442156 0.837426 0.520125
v 0.424047 0.841782 0.573126
v 0.409912 0.885049 0.528556
v 0.418495 0.855134 0.627411
v 0.395845 0.895576 0.592338
v 0.418495 0.874446 0.707411
v 0.395845 0.914888 0.672338
v 0.390198 0.944924 0.548637
v 0.38655 0.955672 0.611322
v 0.494396 0.80169 0.503621
v 0.52455 0.77303 0.541374
v 0.468396 0.799555 0.555565
v 0.559611 0.758599 0.582829
v 0.507167 0.773938 0.602655
v 0.545703 0.769007 0.645891
v 0.507167 0.79325 0.682655
v 0.454329 0.810083 0.619347
v 0.454329 0.829395 0.699347
v 0.497794 0.793054 0.662696
v 0.548243 0.790419 0.484854
v 0.614023 0.791811 0.477926
v 0.587014 0.764802 0.531944
f 1 2 3
f 2 4 5
f 3 5 6
f 2 5 3
f 4 7 8
f 7 9 10
f 8 10 11
f 7 10 8
f 6 12 13
f 14 15 16
f 17 16 18
f 14 16 17
f 4 8 5
f 8 11 12
f 5 12 6
f 8 12 5
f 1 3 19
f 3 6 20
f 19 20 21
f 3 20 19
f 6 13 22
f 17 18 23
f 24 23 25
f 17 23 24
f 21 26 27
f 28 25 29
f 27 30 31
f 26 30 27
f 6 22 20
f 22 32 26
f 20 26 21
f 22 26 20
f 1 19 33
f 19 21 34
f 33 34 35
f 19 34 33
f 21 27 36
f 27 31 37
f 36 37 38
f 27 37 36
f 35 39 40
f 39 38 41
f 40 41 42
f 39 41 40
f 21 36 34
f 36 38 39
f 34 39 35
f 36 39 34
f 1 33 43
f 33 35 44
f 43 44 45
f 33 44 43
f 35 40 46
f 40 42 47
f 46 47 48
f 40 47 46
f 45 49 50
f 49 48 51
f 50 51 52
f 49 51 50
f 35 46 44
f 46 48 49
f 44 49 45
f 46 49 44
f 1 43 2
f 43 45 53
f 2 53 4
f 43 53 2
f 45 50 54
f 50 52 55
f 54 55 56
f 50 55 54
f 4 57 7
f 57 56 58
f 7 58 9
f 57 58 7
f 45 54 53
f 54 56 57
f 53 57 4
f 54 57 53
f 9 59 10
f 60 61 62
f 63 62 15
f 60 62 63
f 61 64 65
f 64 66 67
f 65 67 68
f 64 67 65
f 15 69 16
f 69 68 70
f 16 70 18
f 69 70 16
f 61 65 62
f 65 68 69
f 62 69 15
f 65 69 62
f 18 70 71
f 70 68 72
f 71 72 73
f 70 72 71
f 68 67 74
f 67 66 75
f 74 75 76
f 67 75 74
f 73 77 78
f 77 76 79
f 78 79 80
f 77 79 78
f 68 74 72
f 74 76 77
f 72 77 73
f 74 77 72
f 18 71 23
f 71 73 81
f 23 81 25
f 71 81 23
f 73 78 82
f 78 80 83
f 82 83 84
f 78 83 82
f 25 85 29
f 85 84 86
f 29 86 87
f 85 86 29
f 73 82 81
f 82 84 85
f 81 85 25
f 82 85 81
f 87 86 88
f 86 84 89
f 88 89 90
f 86 89 88
f 84 83 91
f 83 80 92
f 91 92 93
f 83 92 91
f 90 94 95
f 94 93 96
f 95 96 97
f 94 96 95
f 84 91 89
f 91 93 94
f 89 94 90
f 91 94 89
f 31 98 37
f 98 99 100
f 37 100 38
f 98 100 37
f 99 101 102
f 95 97 103
f 102 104 105
f 101 104 102
f 38 106 41
f 106 105 107
f 41 107 42
f 106 107 41
f 99 102 100
f 102 105 106
f 100 106 38
f 102 106 100
f 42 107 108
f 107 105 109
f 108 109 110
f 107 109 108
f 105 104 111
f 103 97 112
f 111 113 114
f 104 113 111
f 110 115 116
f 115 114 117
f 116 117 118
f 115 117 116
f 105 111 109
f 111 114 115
f 109 115 110
f 111 115 109
f 42 108 47
f 108 110 119
f 47 119 48
f 108 119 47
f 110 116 120
f 116 118 121
f 120 121 122
f 116 121 120
f 48 123 51
f 123 122 124
f 51 124 52
f 123 124 51
f 110 120 119
f 120 122 123
f 119 123 48
f 120 123 119
f 52 124 125
f 124 122 126
f 125 126 127
f 124 126 125
f 122 121 128
f 121 118 129
f 128 129 130
f 121 129 128
f 127 131 132
f 131 130 133
f 132 133 134
f 131 133 132
f 122 128 126
f 128 130 131
f 126 131 127
f 128 131 126
f 52 125 55
f 125 127 135
f 55 135 56
f 125 135 55
f 127 132 136
f 132 134 137
f 136 137 138
f 132 137 136
f 56 139 58
f 139 138 140
f 58 140 9
f 139 140 58
f 127 136 135
f 136 138 139
f 135 139 56
f 136 139 135
f 9 140 59
f 141 142 143
f 60 143 61
f 141 143 60
f 142 144 145
f 144 146 147
f 145 147 148
f 144 147 145
f 61 149 64
f 149 148 150
f 64 150 66
f 149 150 64
f 142 145 143
f 145 148 149
f 143 149 61
f 145 149 143
f 151 152 153
f 152 154 155
f 153 155 156
f 152 155 153
f 154 157 158
f 157 80 79
f 158 79 76
f 157 79 158
f 156 159 160
f 159 76 75
f 160 75 66
f 159 75 160
f 154 158 155
f 158 76 159
f 155 159 156
f 158 159 155
f 151 161 152
f 161 162 163
f 152 163 154
f 161 163 152
f 162 164 165
f 164 97 96
f 165 96 93
f 164 96 165
f 154 166 157
f 166 93 92
f 157 92 80
f 166 92 157
f 162 165 163
f 165 93 166
f 163 166 154
f 165 166 163
f 151 167 161
f 167 168 169
f 161 169 162
f 167 169 161
f 168 170 171
f 172 118 117
f 173 117 114
f 172 117 173
f 162 174 164
f 174 175 112
f 164 112 97
f 174 112 164
f 168 171 169
f 171 175 174
f 169 174 162
f 171 174 169
f 151 176 167
f 176 177 178
f 167 178 168
f 176 178 167
f 177 179 180
f 179 146 181
f 182 133 130
f 179 181 180
f 168 183 170
f 184 130 129
f 172 129 118
f 184 129 172
f 177 180 178
f 180 185 183
f 178 183 168
f 180 183 178
f 151 153 176
f 153 156 186
f 176 186 177
f 153 186 176
f 156 160 187
f 160 66 150
f 187 150 148
f 160 150 187
f 177 188 179
f 188 148 147
f 179 147 146
f 188 147 179
f 156 187 186
f 187 148 188
f 186 188 177
f 187 188 186
f 10 63 11
f 11 63 15
f 12 14 13
f 13 14 17
f 11 15 12
f 12 15 14
f 13 17 22
f 22 17 24
f 30 29 31
f 31 29 87
f 26 28 30
f 30 28 29
f 22 24 32
f 32 24 25
f 32 25 26
f 26 25 28
f 59 60 10
f 10 60 63
f 31 87 98
f 98 87 88
f 98 88 99
f 99 88 90
f 99 90 101
f 101 90 95
f 101 95 104
f 104 95 103
f 113 112 114
f 114 112 175
f 104 103 113
f 113 103 112
f 133 181 134
f 134 181 146
f 134 146 137
f 137 146 144
f 137 144 138
f 138 144 142
f 138 142 140
f 140 142 141
f 140 141 59
f 59 141 60
f 114 175 173
f 173 175 171
f 173 171 172
f 172 171 170
f 182 180 133
f 133 180 181
f 130 185 182
f 182 185 180
f 184 183 130
f 130 183 185
f 172 170 184
f 184 170 183
