v -0.613443 1.07664 -0.172443
v -0.578573 1.03283 -0.176917
v -0.584156 1.08162 -0.220125
v -0.555307 0.983394 -0.19
v -0.551911 1.03399 -0.228555
v -0.566047 1.07726 -0.273125
v -0.545414 0.932112 -0.210695
v -0.532198 0.974117 -0.248636
v -0.549649 0.882883 -0.237427
v -0.531507 0.921703 -0.273756
v -0.52855 0.963369 -0.311322
v -0.537845 1.02347 -0.292338
v -0.560495 1.06391 -0.327411
v -0.537845 1.00632 -0.452338
v -0.52855 0.946225 -0.471322
v -0.541004 0.987565 -0.507265
v -0.560495 1.04676 -0.487411
v -0.567922 1.02543 -0.538848
v -0.636396 1.11735 -0.203621
v -0.610396 1.11949 -0.255564
v -0.66655 1.14601 -0.241374
v -0.566047 1.06011 -0.433125
v -0.596329 1.09181 -0.479347
v -0.598827 1.07209 -0.533968
v -0.639793 1.10884 -0.522696
v -0.649166 1.1451 -0.302655
v -0.701611 1.16044 -0.282829
v -0.649166 1.12796 -0.462655
v -0.687703 1.13289 -0.50589
v -0.701611 1.1433 -0.442829
v -0.738908 1.1424 -0.48483
v -0.596329 1.10896 -0.319347
v -0.663099 1.09065 -0.150214
v -0.690242 1.12862 -0.184854
v -0.717924 1.09464 -0.138626
v -0.729013 1.15424 -0.231944
v -0.738908 1.15954 -0.32483
v -0.766646 1.15907 -0.27598
v -0.791671 1.14337 -0.228197
v -0.756022 1.12723 -0.177926
v -0.773745 1.08831 -0.138561
v -0.812077 1.11364 -0.185118
v -0.826311 1.07214 -0.150024
v -0.627363 1.03841 -0.13371
v -0.681106 1.04878 -0.114143
v -0.649172 0.994134 -0.106875
v -0.746886 1.04738 -0.107215
v -0.803044 1.03469 -0.115207
v -0.774293 0.991487 -0.0936968
v -0.710741 0.994546 -0.0905226
v -0.67721 0.947192 -0.0939792
v -0.742246 0.945816 -0.0871296
v -0.709343 0.901155 -0.0960055
v -0.595613 0.990291 -0.141152
v -0.625248 0.936062 -0.117532
v -0.65772 0.887994 -0.113833
v -0.611675 0.880244 -0.145071
v -0.5759 0.930416 -0.161233
v -0.574714 0.878496 -0.187342
v -0.552211 0.861655 -0.289377
v -0.552211 0.844511 -0.449377
v -0.568382 0.830699 -0.501374
v -0.539072 0.88571 -0.488219
v -0.531507 0.904559 -0.433756
v -0.596932 0.825356 -0.549461
v -0.56566 0.874323 -0.54772
v -0.635688 0.828888 -0.589976
v -0.602515 0.874146 -0.592668
v -0.579122 0.924565 -0.5845
v -0.544719 0.935058 -0.53192
v -0.567291 0.976306 -0.566093
v -0.603027 1.02855 -0.582596
v -0.607452 0.976508 -0.608114
v -0.647875 1.02507 -0.616251
v -0.628393 0.915773 -0.623913
v -0.658955 0.866338 -0.624793
v -0.687707 0.909543 -0.646303
v -0.664538 0.968611 -0.640606
v -0.69905 1.01526 -0.63725
v -0.719754 0.955214 -0.65287
v -0.752657 0.999875 -0.643994
v -0.639348 1.07339 -0.575622
v -0.696434 1.06549 -0.608114
v -0.75129 1.051 -0.620746
v -0.748378 1.09382 -0.5845
v -0.692186 1.10953 -0.558929
v -0.744143 1.12508 -0.538015
v -0.792933 1.13066 -0.494808
v -0.79862 1.10728 -0.54772
v -0.842243 1.10456 -0.501374
v -0.802869 1.06324 -0.596904
v -0.80428 1.01304 -0.626167
v -0.850325 1.02079 -0.594929
v -0.852217 1.06889 -0.553203
v -0.883086 1.06608 -0.50403
v -0.887286 1.02253 -0.552658
v -0.91235 1.01815 -0.502573
v -0.792933 1.14781 -0.334808
v -0.821381 1.12432 -0.444517
v -0.821381 1.14146 -0.284517
v -0.874977 1.08592 -0.45
v -0.909789 1.03938 -0.450623
v -0.874977 1.10306 -0.29
v -0.909789 1.05652 -0.290623
v -0.893618 1.07033 -0.238626
v -0.84839 1.11445 -0.230499
v -0.865067 1.07567 -0.190539
v -0.842243 1.12171 -0.341374
v -0.859485 1.02688 -0.147332
v -0.89634 1.02671 -0.19228
v -0.882878 0.976465 -0.1555
v -0.922927 1.01532 -0.251781
v -0.930493 0.979327 -0.466244
v -0.930493 0.996471 -0.306244
v -0.93345 0.954805 -0.268678
v -0.917281 0.965972 -0.20808
v -0.894709 0.924724 -0.173907
v -0.920996 0.913465 -0.232735
v -0.894078 0.875598 -0.201152
v -0.833607 0.985257 -0.116087
v -0.854548 0.924522 -0.131886
v -0.858973 0.872483 -0.157404
v -0.814125 0.875962 -0.123749
v -0.797462 0.932419 -0.0993941
v -0.76295 0.885768 -0.10275
v -0.71071 0.850032 -0.119254
v -0.765565 0.835539 -0.131886
v -0.713622 0.807209 -0.1555
v -0.822652 0.827641 -0.164378
v -0.863173 0.828939 -0.206032
v -0.822206 0.792187 -0.217304
v -0.769814 0.791496 -0.181071
v -0.717857 0.775949 -0.201985
v -0.774297 0.768141 -0.23411
v -0.723092 0.758629 -0.25517
v -0.659131 0.83779 -0.143096
v -0.66338 0.793747 -0.19228
v -0.669067 0.770366 -0.245192
v -0.619756 0.796469 -0.238626
v -0.609783 0.832144 -0.186797
v -0.578914 0.834951 -0.23597
v -0.587023 0.81511 -0.29
v -0.587023 0.797965 -0.45
v -0.640619 0.776713 -0.295483
v -0.669067 0.753222 -0.405192
v -0.723092 0.741485 -0.41517
v -0.695353 0.741963 -0.46402
v -0.640619 0.759569 -0.455483
v -0.670329 0.757665 -0.511803
v -0.61361 0.786578 -0.509501
v -0.649923 0.787394 -0.554882
v -0.619756 0.779325 -0.398626
v -0.848557 0.824386 -0.567557
v -0.834637 0.862622 -0.60629
v -0.798901 0.810382 -0.589786
v -0.812828 0.906896 -0.633125
v -0.780894 0.852255 -0.625857
v -0.744076 0.806393 -0.601374
v -0.78479 0.953838 -0.646021
v -0.751259 0.906484 -0.649477
v -0.715114 0.853646 -0.632785
v -0.688255 0.812722 -0.601439
v -0.883427 0.868204 -0.563083
v -0.906693 0.917636 -0.55
v -0.866387 0.910739 -0.598848
v -0.916586 0.968918 -0.529305
v -0.8861 0.970614 -0.578767
v -0.836752 0.964968 -0.622468
v -0.877844 0.819415 -0.519875
v -0.895953 0.823771 -0.466875
v -0.910089 0.867037 -0.511445
v -0.901505 0.837122 -0.412589
v -0.924155 0.877565 -0.447662
v -0.901505 0.854267 -0.252589
v -0.924155 0.894709 -0.287662
v -0.929802 0.926913 -0.491363
v -0.93345 0.937661 -0.428678
v -0.825604 0.783678 -0.536379
v -0.79545 0.755018 -0.498626
v -0.851604 0.781544 -0.484436
v -0.760389 0.740588 -0.457171
v -0.812833 0.755926 -0.437345
v -0.760389 0.757732 -0.297171
v -0.812833 0.773071 -0.277345
v -0.895953 0.840915 -0.306875
v -0.865671 0.809216 -0.260653
v -0.865671 0.792072 -0.420653
v -0.771758 0.772408 -0.555146
v -0.705977 0.773799 -0.562074
v -0.732987 0.74679 -0.508056
f 1 2 3
f 2 4 5
f 3 5 6
f 2 5 3
f 4 7 8
f 7 9 10
f 8 10 11
f 7 10 8
f 6 12 13
f 14 15 16
f 17 16 18
f 14 16 17
f 4 8 5
f 8 11 12
f 5 12 6
f 8 12 5
f 1 3 19
f 3 6 20
f 19 20 21
f 3 20 19
f 22 17 23
f 17 18 24
f 23 24 25
f 17 24 23
f 21 26 27
f 28 25 29
f 30 29 31
f 28 29 30
f 6 32 20
f 23 25 28
f 20 26 21
f 32 26 20
f 1 19 33
f 19 21 34
f 33 34 35
f 19 34 33
f 21 27 36
f 27 37 38
f 36 38 39
f 27 38 36
f 35 40 41
f 40 39 42
f 41 42 43
f 40 42 41
f 21 36 34
f 36 39 40
f 34 40 35
f 36 40 34
f 1 33 44
f 33 35 45
f 44 45 46
f 33 45 44
f 35 41 47
f 41 43 48
f 47 48 49
f 41 48 47
f 46 50 51
f 50 49 52
f 51 52 53
f 50 52 51
f 35 47 45
f 47 49 50
f 45 50 46
f 47 50 45
f 1 44 2
f 44 46 54
f 2 54 4
f 44 54 2
f 46 51 55
f 51 53 56
f 55 56 57
f 51 56 55
f 4 58 7
f 58 57 59
f 7 59 9
f 58 59 7
f 46 55 54
f 55 57 58
f 54 58 4
f 55 58 54
f 9 60 10
f 61 62 63
f 64 63 15
f 61 63 64
f 62 65 66
f 65 67 68
f 66 68 69
f 65 68 66
f 15 70 16
f 70 69 71
f 16 71 18
f 70 71 16
f 62 66 63
f 66 69 70
f 63 70 15
f 66 70 63
f 18 71 72
f 71 69 73
f 72 73 74
f 71 73 72
f 69 68 75
f 68 67 76
f 75 76 77
f 68 76 75
f 74 78 79
f 78 77 80
f 79 80 81
f 78 80 79
f 69 75 73
f 75 77 78
f 73 78 74
f 75 78 73
f 18 72 24
f 72 74 82
f 24 82 25
f 72 82 24
f 74 79 83
f 79 81 84
f 83 84 85
f 79 84 83
f 25 86 29
f 86 85 87
f 29 87 31
f 86 87 29
f 74 83 82
f 83 85 86
f 82 86 25
f 83 86 82
f 31 87 88
f 87 85 89
f 88 89 90
f 87 89 88
f 85 84 91
f 84 81 92
f 91 92 93
f 84 92 91
f 90 94 95
f 94 93 96
f 95 96 97
f 94 96 95
f 85 91 89
f 91 93 94
f 89 94 90
f 91 94 89
f 37 98 38
f 88 90 99
f 38 100 39
f 98 100 38
f 90 95 101
f 95 97 102
f 103 104 105
f 95 102 101
f 39 106 42
f 106 105 107
f 42 107 43
f 106 107 42
f 108 103 100
f 103 105 106
f 100 106 39
f 103 106 100
f 43 107 109
f 107 105 110
f 109 110 111
f 107 110 109
f 105 104 112
f 102 97 113
f 112 114 115
f 104 114 112
f 111 116 117
f 116 115 118
f 117 118 119
f 116 118 117
f 105 112 110
f 112 115 116
f 110 116 111
f 112 116 110
f 43 109 48
f 109 111 120
f 48 120 49
f 109 120 48
f 111 117 121
f 117 119 122
f 121 122 123
f 117 122 121
f 49 124 52
f 124 123 125
f 52 125 53
f 124 125 52
f 111 121 120
f 121 123 124
f 120 124 49
f 121 124 120
f 53 125 126
f 125 123 127
f 126 127 128
f 125 127 126
f 123 122 129
f 122 119 130
f 129 130 131
f 122 130 129
f 128 132 133
f 132 131 134
f 133 134 135
f 132 134 133
f 123 129 127
f 129 131 132
f 127 132 128
f 129 132 127
f 53 126 56
f 126 128 136
f 56 136 57
f 126 136 56
f 128 133 137
f 133 135 138
f 137 138 139
f 133 138 137
f 57 140 59
f 140 139 141
f 59 141 9
f 140 141 59
f 128 137 136
f 137 139 140
f 136 140 57
f 137 140 136
f 9 141 60
f 141 139 142
f 61 143 62
f 141 142 60
f 139 138 144
f 145 146 147
f 148 147 149
f 145 147 148
f 62 150 65
f 150 149 151
f 65 151 67
f 150 151 65
f 152 148 143
f 148 149 150
f 143 150 62
f 148 150 143
f 153 154 155
f 154 156 157
f 155 157 158
f 154 157 155
f 156 159 160
f 159 81 80
f 160 80 77
f 159 80 160
f 158 161 162
f 161 77 76
f 162 76 67
f 161 76 162
f 156 160 157
f 160 77 161
f 157 161 158
f 160 161 157
f 153 163 154
f 163 164 165
f 154 165 156
f 163 165 154
f 164 166 167
f 166 97 96
f 167 96 93
f 166 96 167
f 156 168 159
f 168 93 92
f 159 92 81
f 168 92 159
f 164 167 165
f 167 93 168
f 165 168 156
f 167 168 165
f 153 169 163
f 169 170 171
f 163 171 164
f 169 171 163
f 170 172 173
f 174 119 118
f 175 118 115
f 174 118 175
f 164 176 166
f 176 177 113
f 166 113 97
f 176 113 166
f 170 173 171
f 173 177 176
f 171 176 164
f 173 176 171
f 153 178 169
f 178 179 180
f 169 180 170
f 178 180 169
f 179 181 182
f 183 135 134
f 184 134 131
f 183 134 184
f 185 186 174
f 186 131 130
f 174 130 119
f 186 130 174
f 179 182 180
f 184 131 186
f 180 187 170
f 182 187 180
f 153 155 178
f 155 158 188
f 178 188 179
f 155 188 178
f 158 162 189
f 162 67 151
f 189 151 149
f 162 151 189
f 179 190 181
f 190 149 147
f 181 147 146
f 190 147 181
f 158 189 188
f 189 149 190
f 188 190 179
f 189 190 188
f 14 12 15
f 15 12 11
f 17 13 14
f 14 13 12
f 22 6 17
f 17 6 13
f 23 32 22
f 22 32 6
f 31 37 30
f 30 37 27
f 30 27 28
f 28 27 26
f 28 26 23
f 23 26 32
f 15 11 64
f 64 11 10
f 64 10 61
f 61 10 60
f 88 98 31
f 31 98 37
f 90 108 99
f 99 108 100
f 99 100 88
f 88 100 98
f 101 103 90
f 90 103 108
f 102 104 101
f 101 104 103
f 113 114 102
f 102 114 104
f 61 60 143
f 143 60 142
f 145 138 146
f 146 138 135
f 148 144 145
f 145 144 138
f 152 139 148
f 148 139 144
f 143 142 152
f 152 142 139
f 170 185 172
f 172 185 174
f 172 174 173
f 173 174 175
f 177 115 113
f 113 115 114
f 173 175 177
f 177 175 115
f 181 183 182
f 182 183 184
f 187 186 170
f 170 186 185
f 182 184 187
f 187 184 186
f 146 135 181
f 181 135 183
