v -0.613443 1.09234 -0.0924429
v -0.578573 1.04852 -0.0969173
v -0.584156 1.09731 -0.140125
v -0.555307 0.999089 -0.11
v -0.551911 1.04969 -0.148555
v -0.566047 1.09296 -0.193125
v -0.545414 0.947807 -0.130695
v -0.532198 0.989813 -0.168637
v -0.549649 0.898579 -0.157427
v -0.531507 0.937399 -0.193756
v -0.52855 0.979065 -0.231322
v -0.537845 1.03916 -0.212338
v -0.560495 1.0796 -0.247411
v -0.537845 1.02347 -0.292338
v -0.52855 0.963369 -0.311322
v -0.541004 1.00471 -0.347265
v -0.560495 1.06391 -0.327411
v -0.567922 1.04258 -0.378848
v -0.636396 1.13305 -0.123621
v -0.610396 1.13518 -0.175564
v -0.66655 1.16171 -0.161374
v -0.596329 1.12465 -0.239347
v -0.598827 1.08924 -0.373968
v -0.596329 1.10896 -0.319347
v -0.639793 1.12599 -0.362696
v -0.649166 1.1608 -0.222655
v -0.701611 1.17614 -0.202829
v -0.649166 1.1451 -0.302655
v -0.687703 1.15003 -0.34589
v -0.687703 1.16573 -0.26589
v -0.738908 1.17524 -0.24483
v -0.663099 1.10634 -0.0702138
v -0.690242 1.14432 -0.104854
v -0.717924 1.11033 -0.0586256
v -0.729013 1.16994 -0.151944
v -0.766646 1.17476 -0.19598
v -0.791671 1.15906 -0.148197
v -0.756022 1.14293 -0.0979258
v -0.773745 1.104 -0.0585606
v -0.812077 1.12933 -0.105118
v -0.826311 1.08784 -0.0700236
v -0.627363 1.0541 -0.0537101
v -0.681106 1.06447 -0.034143
v -0.649172 1.00983 -0.0268746
v -0.746886 1.06308 -0.0272151
v -0.803044 1.05039 -0.0352073
v -0.774293 1.00718 -0.0136968
v -0.710741 1.01024 -0.0105226
v -0.67721 0.962888 -0.0139792
v -0.742246 0.961512 -0.00712961
v -0.709343 0.916851 -0.0160055
v -0.595613 1.00599 -0.0611521
v -0.625248 0.951758 -0.0375317
v -0.65772 0.903689 -0.0338331
v -0.611675 0.89594 -0.0650712
v -0.5759 0.946111 -0.0812333
v -0.574714 0.894192 -0.107342
v -0.552211 0.877351 -0.209377
v -0.552211 0.861655 -0.289377
v -0.568382 0.847844 -0.341374
v -0.539072 0.902854 -0.328219
v -0.531507 0.921703 -0.273756
v -0.596932 0.842501 -0.389461
v -0.56566 0.891467 -0.38772
v -0.635688 0.846033 -0.429976
v -0.602515 0.89129 -0.432668
v -0.579122 0.941709 -0.4245
v -0.544719 0.952202 -0.37192
v -0.567291 0.993451 -0.406093
v -0.603027 1.04569 -0.422596
v -0.607452 0.993653 -0.448114
v -0.647875 1.04221 -0.456251
v -0.628393 0.932917 -0.463913
v -0.658955 0.883482 -0.464793
v -0.687707 0.926687 -0.486303
v -0.664538 0.985755 -0.480606
v -0.69905 1.03241 -0.47725
v -0.719754 0.972358 -0.49287
v -0.752657 1.01702 -0.483994
v -0.639348 1.09053 -0.415622
v -0.696434 1.08264 -0.448114
v -0.75129 1.06814 -0.460746
v -0.748378 1.11096 -0.4245
v -0.692186 1.12668 -0.398929
v -0.744143 1.14223 -0.378015
v -0.738908 1.15954 -0.32483
v -0.792933 1.14781 -0.334808
v -0.79862 1.12443 -0.38772
v -0.842243 1.12171 -0.341374
v -0.802869 1.08038 -0.436904
v -0.80428 1.03018 -0.466167
v -0.850325 1.03793 -0.434929
v -0.852217 1.08603 -0.393203
v -0.883086 1.08322 -0.34403
v -0.887286 1.03968 -0.392658
v -0.91235 1.03529 -0.342573
v -0.792933 1.1635 -0.254808
v -0.842243 1.1374 -0.261374
v -0.821381 1.15716 -0.204517
v -0.874977 1.10306 -0.29
v -0.909789 1.05652 -0.290623
v -0.874977 1.11876 -0.21
v -0.909789 1.07222 -0.210623
v -0.893618 1.08603 -0.158626
v -0.883086 1.09892 -0.26403
v -0.84839 1.13015 -0.150499
v -0.865067 1.09137 -0.110539
v -0.859485 1.04258 -0.0673317
v -0.89634 1.0424 -0.11228
v -0.882878 0.992161 -0.0755003
v -0.922927 1.03102 -0.171781
v -0.930493 0.996471 -0.306244
v -0.930493 1.01217 -0.226244
v -0.93345 0.970501 -0.188678
v -0.917281 0.981668 -0.12808
v -0.894709 0.940419 -0.0939073
v -0.920996 0.929161 -0.152735
v -0.894078 0.891293 -0.121152
v -0.833607 1.00095 -0.0360866
v -0.854548 0.940217 -0.0518861
v -0.858973 0.888179 -0.0774036
v -0.814125 0.891657 -0.0437492
v -0.797462 0.948115 -0.0193941
v -0.76295 0.901464 -0.0227503
v -0.71071 0.865727 -0.039254
v -0.765565 0.851234 -0.0518861
v -0.713622 0.822905 -0.0755003
v -0.822652 0.843337 -0.0843781
v -0.863173 0.844635 -0.126032
v -0.822206 0.807883 -0.137304
v -0.769814 0.807192 -0.101071
v -0.717857 0.791645 -0.121985
v -0.774297 0.783836 -0.15411
v -0.723092 0.774325 -0.17517
v -0.659131 0.853486 -0.0630957
v -0.66338 0.809443 -0.11228
v -0.669067 0.786062 -0.165192
v -0.619756 0.812165 -0.158626
v -0.609783 0.847839 -0.106797
v -0.578914 0.850647 -0.15597
v -0.587023 0.830805 -0.21
v -0.587023 0.81511 -0.29
v -0.578914 0.834951 -0.23597
v -0.619756 0.796469 -0.238626
v -0.669067 0.770366 -0.245192
v -0.640619 0.776713 -0.295483
v -0.723092 0.758629 -0.25517
v -0.695353 0.759108 -0.30402
v -0.670329 0.774809 -0.351803
v -0.61361 0.803722 -0.349501
v -0.649923 0.804539 -0.394882
v -0.848557 0.84153 -0.407557
v -0.834637 0.879766 -0.44629
v -0.798901 0.827526 -0.429786
v -0.812828 0.92404 -0.473125
v -0.780894 0.869399 -0.465857
v -0.744076 0.823537 -0.441374
v -0.78479 0.970983 -0.486021
v -0.751259 0.923628 -0.489477
v -0.715114 0.87079 -0.472785
v -0.688255 0.829867 -0.441439
v -0.883427 0.885349 -0.403083
v -0.906693 0.934781 -0.39
v -0.866387 0.927883 -0.438848
v -0.916586 0.986063 -0.369305
v -0.8861 0.987759 -0.418767
v -0.836752 0.982112 -0.462468
v -0.877844 0.836559 -0.359875
v -0.895953 0.840915 -0.306875
v -0.910089 0.884182 -0.351445
v -0.901505 0.854267 -0.252589
v -0.924155 0.894709 -0.287662
v -0.901505 0.869962 -0.172589
v -0.924155 0.910405 -0.207662
v -0.929802 0.944057 -0.331363
v -0.93345 0.954805 -0.268678
v -0.825604 0.800823 -0.376379
v -0.79545 0.772163 -0.338626
v -0.851604 0.798688 -0.324436
v -0.760389 0.757732 -0.297171
v -0.812833 0.773071 -0.277345
v -0.774297 0.768141 -0.23411
v -0.812833 0.788766 -0.197345
v -0.865671 0.809216 -0.260653
v -0.865671 0.824912 -0.180653
v -0.771758 0.789552 -0.395146
v -0.705977 0.790944 -0.402074
v -0.732987 0.763935 -0.348056
f 1 2 3
f 2 4 5
f 3 5 6
f 2 5 3
f 4 7 8
f 7 9 10
f 8 10 11
f 7 10 8
f 6 12 13
f 14 15 16
f 17 16 18
f 14 16 17
f 4 8 5
f 8 11 12
f 5 12 6
f 8 12 5
f 1 3 19
f 3 6 20
f 19 20 21
f 3 20 19
f 6 13 22
f 17 18 23
f 24 23 25
f 17 23 24
f 21 26 27
f 28 25 29
f 27 30 31
f 26 30 27
f 6 22 20
f 24 25 28
f 20 26 21
f 22 26 20
f 1 19 32
f 19 21 33
f 32 33 34
f 19 33 32
f 21 27 35
f 27 31 36
f 35 36 37
f 27 36 35
f 34 38 39
f 38 37 40
f 39 40 41
f 38 40 39
f 21 35 33
f 35 37 38
f 33 38 34
f 35 38 33
f 1 32 42
f 32 34 43
f 42 43 44
f 32 43 42
f 34 39 45
f 39 41 46
f 45 46 47
f 39 46 45
f 44 48 49
f 48 47 50
f 49 50 51
f 48 50 49
f 34 45 43
f 45 47 48
f 43 48 44
f 45 48 43
f 1 42 2
f 42 44 52
f 2 52 4
f 42 52 2
f 44 49 53
f 49 51 54
f 53 54 55
f 49 54 53
f 4 56 7
f 56 55 57
f 7 57 9
f 56 57 7
f 44 53 52
f 53 55 56
f 52 56 4
f 53 56 52
f 9 58 10
f 59 60 61
f 62 61 15
f 59 61 62
f 60 63 64
f 63 65 66
f 64 66 67
f 63 66 64
f 15 68 16
f 68 67 69
f 16 69 18
f 68 69 16
f 60 64 61
f 64 67 68
f 61 68 15
f 64 68 61
f 18 69 70
f 69 67 71
f 70 71 72
f 69 71 70
f 67 66 73
f 66 65 74
f 73 74 75
f 66 74 73
f 72 76 77
f 76 75 78
f 77 78 79
f 76 78 77
f 67 73 71
f 73 75 76
f 71 76 72
f 73 76 71
f 18 70 23
f 70 72 80
f 23 80 25
f 70 80 23
f 72 77 81
f 77 79 82
f 81 82 83
f 77 82 81
f 25 84 29
f 84 83 85
f 29 85 86
f 84 85 29
f 72 81 80
f 81 83 84
f 80 84 25
f 81 84 80
f 86 85 87
f 85 83 88
f 87 88 89
f 85 88 87
f 83 82 90
f 82 79 91
f 90 91 92
f 82 91 90
f 89 93 94
f 93 92 95
f 94 95 96
f 93 95 94
f 83 90 88
f 90 92 93
f 88 93 89
f 90 93 88
f 31 97 36
f 97 98 99
f 36 99 37
f 97 99 36
f 89 94 100
f 94 96 101
f 102 103 104
f 105 103 102
f 37 106 40
f 106 104 107
f 40 107 41
f 106 107 40
f 98 102 99
f 102 104 106
f 99 106 37
f 102 106 99
f 41 107 108
f 107 104 109
f 108 109 110
f 107 109 108
f 104 103 111
f 101 96 112
f 111 113 114
f 103 113 111
f 110 115 116
f 115 114 117
f 116 117 118
f 115 117 116
f 104 111 109
f 111 114 115
f 109 115 110
f 111 115 109
f 41 108 46
f 108 110 119
f 46 119 47
f 108 119 46
f 110 116 120
f 116 118 121
f 120 121 122
f 116 121 120
f 47 123 50
f 123 122 124
f 50 124 51
f 123 124 50
f 110 120 119
f 120 122 123
f 119 123 47
f 120 123 119
f 51 124 125
f 124 122 126
f 125 126 127
f 124 126 125
f 122 121 128
f 121 118 129
f 128 129 130
f 121 129 128
f 127 131 132
f 131 130 133
f 132 133 134
f 131 133 132
f 122 128 126
f 128 130 131
f 126 131 127
f 128 131 126
f 51 125 54
f 125 127 135
f 54 135 55
f 125 135 54
f 127 132 136
f 132 134 137
f 136 137 138
f 132 137 136
f 55 139 57
f 139 138 140
f 57 140 9
f 139 140 57
f 127 136 135
f 136 138 139
f 135 139 55
f 136 139 135
f 9 140 58
f 140 138 141
f 59 142 60
f 143 142 59
f 144 145 146
f 145 147 148
f 146 148 149
f 145 148 146
f 60 150 63
f 150 149 151
f 63 151 65
f 150 151 63
f 144 146 142
f 146 149 150
f 142 150 60
f 146 150 142
f 152 153 154
f 153 155 156
f 154 156 157
f 153 156 154
f 155 158 159
f 158 79 78
f 159 78 75
f 158 78 159
f 157 160 161
f 160 75 74
f 161 74 65
f 160 74 161
f 155 159 156
f 159 75 160
f 156 160 157
f 159 160 156
f 152 162 153
f 162 163 164
f 153 164 155
f 162 164 153
f 163 165 166
f 165 96 95
f 166 95 92
f 165 95 166
f 155 167 158
f 167 92 91
f 158 91 79
f 167 91 158
f 163 166 164
f 166 92 167
f 164 167 155
f 166 167 164
f 152 168 162
f 168 169 170
f 162 170 163
f 168 170 162
f 169 171 172
f 173 118 117
f 174 117 114
f 173 117 174
f 163 175 165
f 175 176 112
f 165 112 96
f 175 112 165
f 169 172 170
f 172 176 175
f 170 175 163
f 172 175 170
f 152 177 168
f 177 178 179
f 168 179 169
f 177 179 168
f 178 180 181
f 180 147 182
f 183 133 130
f 180 182 181
f 169 184 171
f 185 130 129
f 173 129 118
f 185 129 173
f 178 181 179
f 183 130 185
f 179 184 169
f 181 184 179
f 152 154 177
f 154 157 186
f 177 186 178
f 154 186 177
f 157 161 187
f 161 65 151
f 187 151 149
f 161 151 187
f 178 188 180
f 188 149 148
f 180 148 147
f 188 148 180
f 157 187 186
f 187 149 188
f 186 188 178
f 187 188 186
f 14 12 15
f 15 12 11
f 17 13 14
f 14 13 12
f 24 22 17
f 17 22 13
f 29 30 28
f 28 30 26
f 28 26 24
f 24 26 22
f 15 11 62
f 62 11 10
f 62 10 59
f 59 10 58
f 86 31 29
f 29 31 30
f 87 97 86
f 86 97 31
f 89 98 87
f 87 98 97
f 94 105 100
f 100 105 102
f 100 102 89
f 89 102 98
f 101 103 94
f 94 103 105
f 112 113 101
f 101 113 103
f 143 140 142
f 142 140 141
f 59 58 143
f 143 58 140
f 144 138 145
f 145 138 137
f 145 137 147
f 147 137 134
f 142 141 144
f 144 141 138
f 171 173 172
f 172 173 174
f 176 114 112
f 112 114 113
f 172 174 176
f 176 174 114
f 147 134 182
f 182 134 133
f 182 133 181
f 181 133 183
f 184 185 171
f 171 185 173
f 181 183 184
f 184 183 185
