v -0.613443 1.10052 -0.0124429
v -0.578573 1.0567 -0.0169173
v -0.584156 1.10549 -0.0601245
v -0.555307 1.00727 -0.0299999
v -0.551911 1.05787 -0.0685553
v -0.566047 1.10114 -0.113125
v -0.545414 0.955989 -0.0506949
v -0.532198 0.997995 -0.0886365
v -0.549649 0.906761 -0.0774268
v -0.531507 0.945581 -0.113756
v -0.52855 0.987247 -0.151322
v -0.537845 1.04734 -0.132338
v -0.560495 1.08779 -0.167411
v -0.537845 1.03916 -0.212338
v -0.52855 0.979065 -0.231322
v -0.541004 1.02041 -0.267265
v -0.560495 1.0796 -0.247411
v -0.567922 1.05827 -0.298848
v -0.636396 1.14123 -0.0436208
v -0.610396 1.14336 -0.0955644
v -0.66655 1.16989 -0.0813742
v -0.566047 1.09296 -0.193125
v -0.596329 1.12465 -0.239347
v -0.598827 1.10493 -0.293968
v -0.639793 1.14168 -0.282696
v -0.649166 1.16898 -0.142655
v -0.701611 1.18432 -0.122829
v -0.649166 1.1608 -0.222655
v -0.687703 1.16573 -0.26589
v -0.701611 1.17614 -0.202829
v -0.738908 1.17524 -0.24483
v -0.596329 1.13284 -0.159347
v -0.663099 1.11453 0.00978623
v -0.690242 1.1525 -0.0248537
v -0.717924 1.11852 0.0213744
v -0.729013 1.17812 -0.0719439
v -0.738908 1.18342 -0.16483
v -0.766646 1.18294 -0.11598
v -0.791671 1.16724 -0.0681965
v -0.756022 1.15111 -0.0179257
v -0.773745 1.11219 0.0214394
v -0.812077 1.13751 -0.0251181
v -0.826311 1.09602 0.00997642
v -0.627363 1.06229 0.0262899
v -0.681106 1.07265 0.045857
v -0.649172 1.01801 0.0531255
v -0.746886 1.07126 0.0527849
v -0.803044 1.05857 0.0447927
v -0.774293 1.01537 0.0663032
v -0.710741 1.01842 0.0694775
v -0.67721 0.97107 0.0660209
v -0.742246 0.969694 0.0728704
v -0.709343 0.925033 0.0639946
v -0.595613 1.01417 0.0188479
v -0.625248 0.95994 0.0424684
v -0.65772 0.911871 0.0461669
v -0.611675 0.904122 0.0149289
v -0.5759 0.954293 -0.00123324
v -0.574714 0.902374 -0.0273416
v -0.552211 0.885533 -0.129377
v -0.552211 0.877351 -0.209377
v -0.568382 0.863539 -0.261374
v -0.539072 0.91855 -0.248219
v -0.531507 0.937399 -0.193756
v -0.596932 0.858196 -0.309461
v -0.56566 0.907163 -0.30772
v -0.635688 0.861728 -0.349976
v -0.602515 0.906986 -0.352668
v -0.579122 0.957405 -0.3445
v -0.544719 0.967898 -0.29192
v -0.567291 1.00915 -0.326093
v -0.603027 1.06139 -0.342596
v -0.607452 1.00935 -0.368114
v -0.647875 1.05791 -0.376251
v -0.628393 0.948613 -0.383913
v -0.658955 0.899178 -0.384793
v -0.687707 0.942383 -0.406303
v -0.664538 1.00145 -0.400606
v -0.69905 1.0481 -0.39725
v -0.719754 0.988054 -0.41287
v -0.752657 1.03271 -0.403994
v -0.639348 1.10623 -0.335622
v -0.696434 1.09833 -0.368114
v -0.75129 1.08384 -0.380746
v -0.748378 1.12666 -0.3445
v -0.692186 1.14237 -0.318929
v -0.744143 1.15792 -0.298015
v -0.792933 1.1635 -0.254808
v -0.79862 1.14012 -0.30772
v -0.842243 1.1374 -0.261374
v -0.802869 1.09608 -0.356904
v -0.80428 1.04588 -0.386167
v -0.850325 1.05363 -0.354929
v -0.852217 1.10173 -0.313203
v -0.883086 1.09892 -0.26403
v -0.887286 1.05537 -0.312658
v -0.91235 1.05099 -0.262573
v -0.766646 1.17476 -0.19598
v -0.821381 1.15716 -0.204517
v -0.821381 1.16534 -0.124517
v -0.792933 1.17169 -0.174808
v -0.874977 1.11876 -0.21
v -0.909789 1.07222 -0.210623
v -0.874977 1.12694 -0.13
v -0.909789 1.0804 -0.130623
v -0.893618 1.09421 -0.0786256
v -0.84839 1.13833 -0.0704989
v -0.865067 1.09955 -0.0305389
v -0.842243 1.14558 -0.181374
v -0.859485 1.05076 0.0126683
v -0.89634 1.05059 -0.0322802
v -0.882878 1.00034 0.00449978
v -0.922927 1.0392 -0.0917812
v -0.930493 1.01217 -0.226244
v -0.930493 1.02035 -0.146244
v -0.93345 0.978683 -0.108678
v -0.917281 0.98985 -0.0480796
v -0.894709 0.948601 -0.0139073
v -0.920996 0.937343 -0.0727352
v -0.894078 0.899476 -0.0411517
v -0.833607 1.00913 0.0439134
v -0.854548 0.948399 0.028114
v -0.858973 0.896361 0.00259641
v -0.814125 0.89984 0.0362508
v -0.797462 0.956297 0.0606059
v -0.76295 0.909646 0.0572497
v -0.71071 0.873909 0.040746
v -0.765565 0.859416 0.0281139
v -0.713622 0.831087 0.00449976
v -0.822652 0.851519 -0.00437802
v -0.863173 0.852817 -0.0460317
v -0.822206 0.816065 -0.0573037
v -0.769814 0.815374 -0.0210706
v -0.717857 0.799827 -0.0419851
v -0.774297 0.792018 -0.0741095
v -0.723092 0.782507 -0.0951699
v -0.659131 0.861668 0.0169043
v -0.66338 0.817625 -0.0322802
v -0.669067 0.794244 -0.0851923
v -0.619756 0.820347 -0.0786256
v -0.609783 0.856021 -0.0267973
v -0.578914 0.858829 -0.0759698
v -0.587023 0.838988 -0.13
v -0.587023 0.830805 -0.21
v -0.640619 0.800591 -0.135483
v -0.695353 0.782986 -0.14402
v -0.640619 0.792409 -0.215483
v -0.695353 0.774804 -0.22402
v -0.670329 0.790505 -0.271803
v -0.669067 0.786062 -0.165192
v -0.61361 0.819418 -0.269501
v -0.649923 0.820234 -0.314882
v -0.619756 0.812165 -0.158626
v -0.848557 0.857226 -0.327557
v -0.834637 0.895462 -0.36629
v -0.798901 0.843222 -0.349786
v -0.812828 0.939736 -0.393125
v -0.780894 0.885095 -0.385857
v -0.744076 0.839233 -0.361374
v -0.78479 0.986678 -0.406021
v -0.751259 0.939324 -0.409477
v -0.715114 0.886486 -0.392785
v -0.688255 0.845562 -0.361439
v -0.883427 0.901044 -0.323083
v -0.906693 0.950476 -0.31
v -0.866387 0.943579 -0.358848
v -0.916586 1.00176 -0.289305
v -0.8861 1.00345 -0.338767
v -0.836752 0.997808 -0.382468
v -0.877844 0.852255 -0.279875
v -0.895953 0.856611 -0.226875
v -0.910089 0.899877 -0.271445
v -0.901505 0.869962 -0.172589
v -0.924155 0.910405 -0.207662
v -0.901505 0.878145 -0.0925892
v -0.924155 0.918587 -0.127662
v -0.929802 0.959753 -0.251363
v -0.93345 0.970501 -0.188678
v -0.825604 0.816518 -0.296379
v -0.79545 0.787858 -0.258626
v -0.851604 0.814384 -0.244436
v -0.760389 0.773428 -0.217171
v -0.812833 0.788766 -0.197345
v -0.760389 0.78161 -0.137171
v -0.812833 0.796948 -0.117345
v -0.895953 0.864793 -0.146875
v -0.865671 0.833094 -0.100653
v -0.865671 0.824912 -0.180653
v -0.771758 0.805248 -0.315146
v -0.705977 0.806639 -0.322074
v -0.732987 0.77963 -0.268056
v -0.723092 0.774325 -0.17517
f 1 2 3
f 2 4 5
f 3 5 6
f 2 5 3
f 4 7 8
f 7 9 10
f 8 10 11
f 7 10 8
f 6 12 13
f 14 15 16
f 17 16 18
f 14 16 17
f 4 8 5
f 8 11 12
f 5 12 6
f 8 12 5
f 1 3 19
f 3 6 20
f 19 20 21
f 3 20 19
f 22 17 23
f 17 18 24
f 23 24 25
f 17 24 23
f 21 26 27
f 28 25 29
f 30 29 31
f 28 29 30
f 6 32 20
f 23 25 28
f 20 26 21
f 32 26 20
f 1 19 33
f 19 21 34
f 33 34 35
f 19 34 33
f 21 27 36
f 27 37 38
f 36 38 39
f 27 38 36
f 35 40 41
f 40 39 42
f 41 42 43
f 40 42 41
f 21 36 34
f 36 39 40
f 34 40 35
f 36 40 34
f 1 33 44
f 33 35 45
f 44 45 46
f 33 45 44
f 35 41 47
f 41 43 48
f 47 48 49
f 41 48 47
f 46 50 51
f 50 49 52
f 51 52 53
f 50 52 51
f 35 47 45
f 47 49 50
f 45 50 46
f 47 50 45
f 1 44 2
f 44 46 54
f 2 54 4
f 44 54 2
f 46 51 55
f 51 53 56
f 55 56 57
f 51 56 55
f 4 58 7
f 58 57 59
f 7 59 9
f 58 59 7
f 46 55 54
f 55 57 58
f 54 58 4
f 55 58 54
f 9 60 10
f 61 62 63
f 64 63 15
f 61 63 64
f 62 65 66
f 65 67 68
f 66 68 69
f 65 68 66
f 15 70 16
f 70 69 71
f 16 71 18
f 70 71 16
f 62 66 63
f 66 69 70
f 63 70 15
f 66 70 63
f 18 71 72
f 71 69 73
f 72 73 74
f 71 73 72
f 69 68 75
f 68 67 76
f 75 76 77
f 68 76 75
f 74 78 79
f 78 77 80
f 79 80 81
f 78 80 79
f 69 75 73
f 75 77 78
f 73 78 74
f 75 78 73
f 18 72 24
f 72 74 82
f 24 82 25
f 72 82 24
f 74 79 83
f 79 81 84
f 83 84 85
f 79 84 83
f 25 86 29
f 86 85 87
f 29 87 31
f 86 87 29
f 74 83 82
f 83 85 86
f 82 86 25
f 83 86 82
f 31 87 88
f 87 85 89
f 88 89 90
f 87 89 88
f 85 84 91
f 84 81 92
f 91 92 93
f 84 92 91
f 90 94 95
f 94 93 96
f 95 96 97
f 94 96 95
f 85 91 89
f 91 93 94
f 89 94 90
f 91 94 89
f 31 88 98
f 88 90 99
f 38 100 39
f 101 100 38
f 90 95 102
f 95 97 103
f 104 105 106
f 95 103 102
f 39 107 42
f 107 106 108
f 42 108 43
f 107 108 42
f 109 104 100
f 104 106 107
f 100 107 39
f 104 107 100
f 43 108 110
f 108 106 111
f 110 111 112
f 108 111 110
f 106 105 113
f 103 97 114
f 113 115 116
f 105 115 113
f 112 117 118
f 117 116 119
f 118 119 120
f 117 119 118
f 106 113 111
f 113 116 117
f 111 117 112
f 113 117 111
f 43 110 48
f 110 112 121
f 48 121 49
f 110 121 48
f 112 118 122
f 118 120 123
f 122 123 124
f 118 123 122
f 49 125 52
f 125 124 126
f 52 126 53
f 125 126 52
f 112 122 121
f 122 124 125
f 121 125 49
f 122 125 121
f 53 126 127
f 126 124 128
f 127 128 129
f 126 128 127
f 124 123 130
f 123 120 131
f 130 131 132
f 123 131 130
f 129 133 134
f 133 132 135
f 134 135 136
f 133 135 134
f 124 130 128
f 130 132 133
f 128 133 129
f 130 133 128
f 53 127 56
f 127 129 137
f 56 137 57
f 127 137 56
f 129 134 138
f 134 136 139
f 138 139 140
f 134 139 138
f 57 141 59
f 141 140 142
f 59 142 9
f 141 142 59
f 129 138 137
f 138 140 141
f 137 141 57
f 138 141 137
f 9 142 60
f 142 140 143
f 61 144 62
f 142 143 60
f 140 139 145
f 139 136 146
f 147 148 149
f 150 148 147
f 62 151 65
f 151 149 152
f 65 152 67
f 151 152 65
f 153 147 144
f 147 149 151
f 144 151 62
f 147 151 144
f 154 155 156
f 155 157 158
f 156 158 159
f 155 158 156
f 157 160 161
f 160 81 80
f 161 80 77
f 160 80 161
f 159 162 163
f 162 77 76
f 163 76 67
f 162 76 163
f 157 161 158
f 161 77 162
f 158 162 159
f 161 162 158
f 154 164 155
f 164 165 166
f 155 166 157
f 164 166 155
f 165 167 168
f 167 97 96
f 168 96 93
f 167 96 168
f 157 169 160
f 169 93 92
f 160 92 81
f 169 92 160
f 165 168 166
f 168 93 169
f 166 169 157
f 168 169 166
f 154 170 164
f 170 171 172
f 164 172 165
f 170 172 164
f 171 173 174
f 175 120 119
f 176 119 116
f 175 119 176
f 165 177 167
f 177 178 114
f 167 114 97
f 177 114 167
f 171 174 172
f 174 178 177
f 172 177 165
f 174 177 172
f 154 179 170
f 179 180 181
f 170 181 171
f 179 181 170
f 180 182 183
f 184 136 135
f 185 135 132
f 184 135 185
f 186 187 175
f 187 132 131
f 175 131 120
f 187 131 175
f 180 183 181
f 185 132 187
f 181 188 171
f 183 188 181
f 154 156 179
f 156 159 189
f 179 189 180
f 156 189 179
f 159 163 190
f 163 67 152
f 190 152 149
f 163 152 190
f 180 191 182
f 191 149 148
f 182 148 192
f 191 148 182
f 159 190 189
f 190 149 191
f 189 191 180
f 190 191 189
f 14 12 15
f 15 12 11
f 17 13 14
f 14 13 12
f 22 6 17
f 17 6 13
f 23 32 22
f 22 32 6
f 31 37 30
f 30 37 27
f 30 27 28
f 28 27 26
f 28 26 23
f 23 26 32
f 15 11 64
f 64 11 10
f 64 10 61
f 61 10 60
f 88 101 98
f 98 101 38
f 98 38 31
f 31 38 37
f 90 109 99
f 99 109 100
f 99 100 88
f 88 100 101
f 102 104 90
f 90 104 109
f 103 105 102
f 102 105 104
f 114 115 103
f 103 115 105
f 61 60 144
f 144 60 143
f 150 139 148
f 148 139 146
f 147 145 150
f 150 145 139
f 153 140 147
f 147 140 145
f 144 143 153
f 153 143 140
f 171 186 173
f 173 186 175
f 173 175 174
f 174 175 176
f 178 116 114
f 114 116 115
f 174 176 178
f 178 176 116
f 182 184 183
f 183 184 185
f 188 187 171
f 171 187 186
f 183 185 188
f 188 185 187
f 148 146 192
f 192 146 136
f 192 136 182
f 182 136 184
