v -0.613443 1.09718 0.0275571
v -0.578573 1.05336 0.0230827
v -0.584156 1.10215 -0.0201246
v -0.555307 1.00393 0.0100001
v -0.551911 1.05453 -0.0285553
v -0.566047 1.0978 -0.0731253
v -0.545414 0.952649 -0.0106949
v -0.532198 0.994655 -0.0486365
v -0.549649 0.90342 -0.0374269
v -0.531507 0.942241 -0.0737562
v -0.52855 0.983907 -0.111322
v -0.566047 1.10114 -0.113125
v -0.537845 1.04734 -0.132338
v -0.560495 1.08779 -0.167411
v -0.52855 0.987247 -0.151322
v -0.541004 1.02859 -0.187265
v -0.567922 1.06645 -0.218848
v -0.537845 1.044 -0.0923381
v -0.636396 1.13789 -0.00362088
v -0.610396 1.14002 -0.0555644
v -0.66655 1.16655 -0.0413743
v -0.596329 1.13284 -0.159347
v -0.598827 1.11311 -0.213968
v -0.639793 1.14986 -0.202696
v -0.66655 1.16989 -0.0813742
v -0.649166 1.16898 -0.142655
v -0.701611 1.18432 -0.122829
v -0.687703 1.17391 -0.18589
v -0.738908 1.18342 -0.16483
v -0.610396 1.14336 -0.0955644
v -0.649166 1.16564 -0.102655
v -0.663099 1.11119 0.0497862
v -0.690242 1.14916 0.0151463
v -0.717924 1.11517 0.0613744
v -0.701611 1.18098 -0.0828292
v -0.729013 1.17478 -0.0319439
v -0.766646 1.18294 -0.11598
v -0.766646 1.1796 -0.0759797
v -0.791671 1.1639 -0.0281965
v -0.756022 1.14777 0.0220742
v -0.773745 1.10885 0.0614394
v -0.812077 1.13417 0.0148819
v -0.826311 1.09268 0.0499764
v -0.627363 1.05895 0.0662899
v -0.681106 1.06931 0.085857
v -0.649172 1.01467 0.0931254
v -0.746886 1.06792 0.0927849
v -0.803044 1.05523 0.0847927
v -0.774293 1.01202 0.106303
v -0.710741 1.01508 0.109477
v -0.67721 0.967729 0.106021
v -0.742246 0.966354 0.11287
v -0.709343 0.921693 0.103995
v -0.595613 1.01083 0.0588479
v -0.625248 0.956599 0.0824683
v -0.65772 0.908531 0.0861669
v -0.611675 0.900781 0.0549288
v -0.5759 0.950953 0.0387667
v -0.574714 0.899033 0.0126583
v -0.552211 0.882192 -0.0893769
v -0.552211 0.885533 -0.129377
v -0.568382 0.871721 -0.181374
v -0.539072 0.926732 -0.168219
v -0.531507 0.945581 -0.113756
v -0.539072 0.923392 -0.128219
v -0.596932 0.866378 -0.229461
v -0.56566 0.915345 -0.22772
v -0.635688 0.86991 -0.269976
v -0.602515 0.915168 -0.272668
v -0.579122 0.965587 -0.2645
v -0.544719 0.97608 -0.21192
v -0.567291 1.01733 -0.246093
v -0.603027 1.06957 -0.262596
v -0.607452 1.01753 -0.288114
v -0.647875 1.06609 -0.296251
v -0.628393 0.956795 -0.303913
v -0.658955 0.90736 -0.304793
v -0.687707 0.950565 -0.326303
v -0.664538 1.00963 -0.320606
v -0.69905 1.05628 -0.31725
v -0.719754 0.996236 -0.33287
v -0.752657 1.0409 -0.323994
v -0.639348 1.11441 -0.255622
v -0.696434 1.10651 -0.288114
v -0.75129 1.09202 -0.300746
v -0.748378 1.13484 -0.2645
v -0.692186 1.15056 -0.238929
v -0.744143 1.1661 -0.218015
v -0.792933 1.17169 -0.174808
v -0.79862 1.1483 -0.22772
v -0.842243 1.14558 -0.181374
v -0.802869 1.10426 -0.276904
v -0.80428 1.05406 -0.306167
v -0.850325 1.06181 -0.274929
v -0.852217 1.10991 -0.233203
v -0.883086 1.1071 -0.18403
v -0.887286 1.06356 -0.232658
v -0.91235 1.05917 -0.182573
v -0.821381 1.16534 -0.124517
v -0.821381 1.162 -0.0845171
v -0.874977 1.12694 -0.13
v -0.909789 1.0804 -0.130623
v -0.874977 1.1236 -0.09
v -0.909789 1.07706 -0.0906231
v -0.893618 1.09087 -0.0386256
v -0.84839 1.13499 -0.0304989
v -0.865067 1.09621 0.00946102
v -0.859485 1.04742 0.0526683
v -0.89634 1.04724 0.0077198
v -0.882878 0.997003 0.0444997
v -0.922927 1.03586 -0.0517813
v -0.930493 1.02035 -0.146244
v -0.930493 1.01701 -0.106244
v -0.93345 0.975343 -0.068678
v -0.922927 1.0392 -0.0917812
v -0.917281 0.98651 -0.00807966
v -0.894709 0.945261 0.0260927
v -0.920996 0.934002 -0.0327353
v -0.894078 0.896135 -0.00115173
v -0.833607 1.00579 0.0839134
v -0.854548 0.945059 0.0681139
v -0.858973 0.893021 0.0425964
v -0.814125 0.896499 0.0762508
v -0.797462 0.952957 0.100606
v -0.76295 0.906305 0.0972497
v -0.71071 0.870569 0.080746
v -0.765565 0.856076 0.0681139
v -0.713622 0.827747 0.0444997
v -0.822652 0.848179 0.0356219
v -0.863173 0.849476 -0.00603173
v -0.822206 0.812725 -0.0173037
v -0.769814 0.812033 0.0189294
v -0.717857 0.796486 -0.00198513
v -0.774297 0.788678 -0.0341095
v -0.723092 0.779167 -0.0551699
v -0.659131 0.858327 0.0569043
v -0.66338 0.814285 0.00771976
v -0.669067 0.790904 -0.0451923
v -0.619756 0.817007 -0.0386257
v -0.609783 0.852681 0.0132027
v -0.578914 0.855489 -0.0359698
v -0.587023 0.835647 -0.09
v -0.587023 0.838988 -0.13
v -0.640619 0.797251 -0.0954829
v -0.695353 0.779645 -0.10402
v -0.640619 0.800591 -0.135483
v -0.695353 0.782986 -0.14402
v -0.670329 0.798687 -0.191803
v -0.61361 0.8276 -0.189501
v -0.649923 0.828416 -0.234882
v -0.848557 0.865408 -0.247557
v -0.834637 0.903644 -0.28629
v -0.798901 0.851404 -0.269786
v -0.812828 0.947918 -0.313125
v -0.780894 0.893277 -0.305857
v -0.744076 0.847415 -0.281374
v -0.78479 0.99486 -0.326021
v -0.751259 0.947506 -0.329477
v -0.715114 0.894668 -0.312785
v -0.688255 0.853744 -0.281439
v -0.883427 0.909226 -0.243083
v -0.906693 0.958658 -0.23
v -0.866387 0.951761 -0.278848
v -0.916586 1.00994 -0.209305
v -0.8861 1.01164 -0.258767
v -0.836752 1.00599 -0.302468
v -0.877844 0.860437 -0.199875
v -0.895953 0.864793 -0.146875
v -0.910089 0.908059 -0.191445
v -0.895953 0.861452 -0.106875
v -0.901505 0.874804 -0.0525892
v -0.924155 0.915247 -0.0876618
v -0.929802 0.967935 -0.171363
v -0.93345 0.978683 -0.108678
v -0.924155 0.918587 -0.127662
v -0.825604 0.8247 -0.216379
v -0.79545 0.79604 -0.178626
v -0.851604 0.822566 -0.164436
v -0.79545 0.7927 -0.138626
v -0.760389 0.77827 -0.0971707
v -0.812833 0.793608 -0.0773453
v -0.865671 0.829753 -0.0606528
v -0.812833 0.796948 -0.117345
v -0.851604 0.819226 -0.124436
v -0.771758 0.81343 -0.235146
v -0.705977 0.814821 -0.242074
v -0.732987 0.787812 -0.188056
v -0.760389 0.78161 -0.137171
f 1 2 3
f 2 4 5
f 3 5 6
f 2 5 3
f 4 7 8
f 7 9 10
f 8 10 11
f 7 10 8
f 12 13 14
f 13 15 16
f 14 16 17
f 13 16 14
f 4 8 5
f 8 11 18
f 5 18 6
f 8 18 5
f 1 3 19
f 3 6 20
f 19 20 21
f 3 20 19
f 12 14 22
f 14 17 23
f 22 23 24
f 14 23 22
f 25 26 27
f 26 24 28
f 27 28 29
f 26 28 27
f 12 22 30
f 22 24 26
f 20 31 21
f 22 26 30
f 1 19 32
f 19 21 33
f 32 33 34
f 19 33 32
f 21 35 36
f 27 29 37
f 36 38 39
f 35 38 36
f 34 40 41
f 40 39 42
f 41 42 43
f 40 42 41
f 21 36 33
f 36 39 40
f 33 40 34
f 36 40 33
f 1 32 44
f 32 34 45
f 44 45 46
f 32 45 44
f 34 41 47
f 41 43 48
f 47 48 49
f 41 48 47
f 46 50 51
f 50 49 52
f 51 52 53
f 50 52 51
f 34 47 45
f 47 49 50
f 45 50 46
f 47 50 45
f 1 44 2
f 44 46 54
f 2 54 4
f 44 54 2
f 46 51 55
f 51 53 56
f 55 56 57
f 51 56 55
f 4 58 7
f 58 57 59
f 7 59 9
f 58 59 7
f 46 55 54
f 55 57 58
f 54 58 4
f 55 58 54
f 9 60 10
f 61 62 63
f 64 63 15
f 60 65 10
f 62 66 67
f 66 68 69
f 67 69 70
f 66 69 67
f 15 71 16
f 71 70 72
f 16 72 17
f 71 72 16
f 62 67 63
f 67 70 71
f 63 71 15
f 67 71 63
f 17 72 73
f 72 70 74
f 73 74 75
f 72 74 73
f 70 69 76
f 69 68 77
f 76 77 78
f 69 77 76
f 75 79 80
f 79 78 81
f 80 81 82
f 79 81 80
f 70 76 74
f 76 78 79
f 74 79 75
f 76 79 74
f 17 73 23
f 73 75 83
f 23 83 24
f 73 83 23
f 75 80 84
f 80 82 85
f 84 85 86
f 80 85 84
f 24 87 28
f 87 86 88
f 28 88 29
f 87 88 28
f 75 84 83
f 84 86 87
f 83 87 24
f 84 87 83
f 29 88 89
f 88 86 90
f 89 90 91
f 88 90 89
f 86 85 92
f 85 82 93
f 92 93 94
f 85 93 92
f 91 95 96
f 95 94 97
f 96 97 98
f 95 97 96
f 86 92 90
f 92 94 95
f 90 95 91
f 92 95 90
f 29 89 37
f 89 91 99
f 38 100 39
f 89 99 37
f 91 96 101
f 96 98 102
f 103 104 105
f 96 102 101
f 39 106 42
f 106 105 107
f 42 107 43
f 106 107 42
f 91 101 99
f 103 105 106
f 100 106 39
f 103 106 100
f 43 107 108
f 107 105 109
f 108 109 110
f 107 109 108
f 105 104 111
f 102 98 112
f 111 113 114
f 102 112 115
f 110 116 117
f 116 114 118
f 117 118 119
f 116 118 117
f 105 111 109
f 111 114 116
f 109 116 110
f 111 116 109
f 43 108 48
f 108 110 120
f 48 120 49
f 108 120 48
f 110 117 121
f 117 119 122
f 121 122 123
f 117 122 121
f 49 124 52
f 124 123 125
f 52 125 53
f 124 125 52
f 110 121 120
f 121 123 124
f 120 124 49
f 121 124 120
f 53 125 126
f 125 123 127
f 126 127 128
f 125 127 126
f 123 122 129
f 122 119 130
f 129 130 131
f 122 130 129
f 128 132 133
f 132 131 134
f 133 134 135
f 132 134 133
f 123 129 127
f 129 131 132
f 127 132 128
f 129 132 127
f 53 126 56
f 126 128 136
f 56 136 57
f 126 136 56
f 128 133 137
f 133 135 138
f 137 138 139
f 133 138 137
f 57 140 59
f 140 139 141
f 59 141 9
f 140 141 59
f 128 137 136
f 137 139 140
f 136 140 57
f 137 140 136
f 9 141 60
f 141 139 142
f 61 143 62
f 141 142 60
f 139 138 144
f 138 135 145
f 146 147 148
f 138 145 144
f 62 149 66
f 149 148 150
f 66 150 68
f 149 150 66
f 139 144 142
f 146 148 149
f 143 149 62
f 146 149 143
f 151 152 153
f 152 154 155
f 153 155 156
f 152 155 153
f 154 157 158
f 157 82 81
f 158 81 78
f 157 81 158
f 156 159 160
f 159 78 77
f 160 77 68
f 159 77 160
f 154 158 155
f 158 78 159
f 155 159 156
f 158 159 155
f 151 161 152
f 161 162 163
f 152 163 154
f 161 163 152
f 162 164 165
f 164 98 97
f 165 97 94
f 164 97 165
f 154 166 157
f 166 94 93
f 157 93 82
f 166 93 157
f 162 165 163
f 165 94 166
f 163 166 154
f 165 166 163
f 151 167 161
f 167 168 169
f 161 169 162
f 167 169 161
f 170 171 172
f 171 119 118
f 172 118 114
f 171 118 172
f 162 173 164
f 173 174 112
f 164 112 98
f 173 112 164
f 168 175 169
f 175 174 173
f 169 173 162
f 175 173 169
f 151 176 167
f 176 177 178
f 167 178 168
f 176 178 167
f 179 180 181
f 180 135 134
f 181 134 131
f 180 134 181
f 170 182 171
f 182 131 130
f 171 130 119
f 182 130 171
f 177 183 178
f 181 131 182
f 184 182 170
f 181 182 184
f 151 153 176
f 153 156 185
f 176 185 177
f 153 185 176
f 156 160 186
f 160 68 150
f 186 150 148
f 160 150 186
f 177 187 188
f 187 148 147
f 180 145 135
f 187 147 188
f 156 186 185
f 186 148 187
f 185 187 177
f 186 187 185
f 12 6 13
f 13 6 18
f 13 18 15
f 15 18 11
f 25 21 26
f 26 21 31
f 27 35 25
f 25 35 21
f 30 20 12
f 12 20 6
f 26 31 30
f 30 31 20
f 37 38 27
f 27 38 35
f 63 65 61
f 61 65 60
f 64 10 63
f 63 10 65
f 15 11 64
f 64 11 10
f 99 100 37
f 37 100 38
f 102 104 101
f 101 104 103
f 101 103 99
f 99 103 100
f 112 113 115
f 115 113 111
f 115 111 102
f 102 111 104
f 61 60 143
f 143 60 142
f 146 144 147
f 147 144 145
f 143 142 146
f 146 142 144
f 174 114 112
f 112 114 113
f 168 170 175
f 175 170 172
f 175 172 174
f 174 172 114
f 178 184 168
f 168 184 170
f 177 179 183
f 183 179 181
f 183 181 178
f 178 181 184
f 188 180 177
f 177 180 179
f 147 145 188
f 188 145 180
