v -0.613443 1.10632 0.0675571
v -0.578573 1.0625 0.0630827
v -0.584156 1.11129 0.0198755
v -0.555307 1.01307 0.0500001
v -0.551911 1.06366 0.0114447
v -0.566047 1.10693 -0.0331253
v -0.545414 0.961783 0.0293051
v -0.532198 1.00379 -0.00863647
v -0.549649 0.912555 0.00257317
v -0.531507 0.951375 -0.0337561
v -0.52855 0.993041 -0.0713219
v -0.537845 1.05314 -0.0523381
v -0.560495 1.09358 -0.0874107
v -0.537845 1.044 -0.0923381
v -0.52855 0.983907 -0.111322
v -0.541004 1.02525 -0.147265
v -0.560495 1.08445 -0.127411
v -0.567922 1.06311 -0.178848
v -0.636396 1.14702 0.0363791
v -0.610396 1.14916 -0.0155644
v -0.66655 1.17568 -0.00137424
v -0.596329 1.13863 -0.0793472
v -0.598827 1.10977 -0.173968
v -0.596329 1.1295 -0.119347
v -0.639793 1.14652 -0.162696
v -0.649166 1.17478 -0.0626546
v -0.701611 1.19011 -0.0428292
v -0.649166 1.16564 -0.102655
v -0.687703 1.17057 -0.14589
v -0.687703 1.17971 -0.10589
v -0.738908 1.18922 -0.08483
v -0.639793 1.15566 -0.122696
v -0.663099 1.12032 0.0897862
v -0.690242 1.15829 0.0551463
v -0.717924 1.12431 0.101374
v -0.729013 1.18391 0.00805608
v -0.766646 1.18874 -0.0359797
v -0.791671 1.17304 0.0118035
v -0.756022 1.1569 0.0620742
v -0.773745 1.11798 0.101439
v -0.812077 1.14331 0.0548819
v -0.826311 1.10181 0.0899764
v -0.627363 1.06808 0.10629
v -0.681106 1.07845 0.125857
v -0.649172 1.02381 0.133125
v -0.746886 1.07706 0.132785
v -0.803044 1.06436 0.124793
v -0.774293 1.02116 0.146303
v -0.710741 1.02422 0.149477
v -0.67721 0.976864 0.146021
v -0.742246 0.975488 0.15287
v -0.709343 0.930827 0.143995
v -0.595613 1.01996 0.0988479
v -0.625248 0.965734 0.122468
v -0.65772 0.917665 0.126167
v -0.611675 0.909916 0.0949288
v -0.5759 0.960087 0.0787667
v -0.574714 0.908168 0.0526583
v -0.552211 0.891327 -0.0493768
v -0.552211 0.882192 -0.0893769
v -0.568382 0.868381 -0.141374
v -0.539072 0.923392 -0.128219
v -0.531507 0.942241 -0.0737562
v -0.596932 0.863038 -0.189461
v -0.56566 0.912004 -0.18772
v -0.635688 0.86657 -0.229976
v -0.602515 0.911828 -0.232668
v -0.579122 0.962247 -0.2245
v -0.544719 0.97274 -0.17192
v -0.567291 1.01399 -0.206093
v -0.603027 1.06623 -0.222596
v -0.607452 1.01419 -0.248114
v -0.647875 1.06275 -0.256251
v -0.628393 0.953455 -0.263913
v -0.658955 0.90402 -0.264793
v -0.687707 0.947224 -0.286303
v -0.664538 1.00629 -0.280606
v -0.69905 1.05294 -0.27725
v -0.719754 0.992896 -0.29287
v -0.752657 1.03756 -0.283994
v -0.639348 1.11107 -0.215622
v -0.696434 1.10317 -0.248114
v -0.75129 1.08868 -0.260746
v -0.748378 1.1315 -0.2245
v -0.692186 1.14722 -0.198929
v -0.744143 1.16276 -0.178015
v -0.738908 1.18008 -0.12483
v -0.792933 1.16835 -0.134808
v -0.79862 1.14496 -0.18772
v -0.842243 1.14224 -0.141374
v -0.802869 1.10092 -0.236904
v -0.80428 1.05072 -0.266167
v -0.850325 1.05847 -0.234929
v -0.852217 1.10657 -0.193203
v -0.883086 1.10376 -0.14403
v -0.887286 1.06022 -0.192658
v -0.91235 1.05583 -0.142573
v -0.792933 1.17748 -0.0948076
v -0.842243 1.15138 -0.101374
v -0.821381 1.17113 -0.044517
v -0.883086 1.11289 -0.10403
v -0.874977 1.13274 -0.0499999
v -0.909789 1.07706 -0.0906231
v -0.909789 1.08619 -0.0506231
v -0.893618 1.1 0.00137438
v -0.84839 1.14412 0.00950112
v -0.865067 1.10535 0.049461
v -0.859485 1.05656 0.0926683
v -0.89634 1.05638 0.0477198
v -0.882878 1.00614 0.0844998
v -0.922927 1.04499 -0.0117812
v -0.930493 1.01701 -0.106244
v -0.930493 1.02614 -0.0662438
v -0.93345 0.984477 -0.028678
v -0.917281 0.995644 0.0319204
v -0.894709 0.954395 0.0660927
v -0.920996 0.943137 0.00726476
v -0.894078 0.90527 0.0388483
v -0.833607 1.01493 0.123913
v -0.854548 0.954193 0.108114
v -0.858973 0.902155 0.0825964
v -0.814125 0.905634 0.116251
v -0.797462 0.962091 0.140606
v -0.76295 0.91544 0.13725
v -0.71071 0.879703 0.120746
v -0.765565 0.865211 0.108114
v -0.713622 0.836881 0.0844997
v -0.822652 0.857313 0.075622
v -0.863173 0.858611 0.0339683
v -0.822206 0.821859 0.0226963
v -0.769814 0.821168 0.0589294
v -0.717857 0.805621 0.0380149
v -0.774297 0.797812 0.00589051
v -0.723092 0.788301 -0.0151699
v -0.659131 0.867462 0.0969043
v -0.66338 0.823419 0.0477198
v -0.669067 0.800038 -0.00519233
v -0.619756 0.826141 0.00137434
v -0.609783 0.861815 0.0532027
v -0.578914 0.864623 0.00403023
v -0.578914 0.855489 -0.0359698
v -0.619756 0.817007 -0.0386257
v -0.587023 0.835647 -0.09
v -0.669067 0.790904 -0.0451923
v -0.640619 0.797251 -0.0954829
v -0.723092 0.779167 -0.0551699
v -0.695353 0.779645 -0.10402
v -0.670329 0.795347 -0.151803
v -0.61361 0.82426 -0.149501
v -0.649923 0.825076 -0.194882
v -0.848557 0.862068 -0.207557
v -0.834637 0.900304 -0.24629
v -0.798901 0.848064 -0.229786
v -0.812828 0.944578 -0.273125
v -0.780894 0.889937 -0.265857
v -0.744076 0.844074 -0.241374
v -0.78479 0.99152 -0.286021
v -0.751259 0.944166 -0.289477
v -0.715114 0.891328 -0.272785
v -0.688255 0.850404 -0.241439
v -0.883427 0.905886 -0.203083
v -0.906693 0.955318 -0.19
v -0.866387 0.948421 -0.238848
v -0.916586 1.0066 -0.169305
v -0.8861 1.0083 -0.218767
v -0.836752 1.00265 -0.262468
v -0.877844 0.857096 -0.159875
v -0.895953 0.861452 -0.106875
v -0.910089 0.904719 -0.151445
v -0.901505 0.874804 -0.0525892
v -0.924155 0.915247 -0.0876618
v -0.901505 0.883939 -0.0125892
v -0.924155 0.924381 -0.0476618
v -0.929802 0.964595 -0.131363
v -0.93345 0.975343 -0.068678
v -0.825604 0.82136 -0.176379
v -0.79545 0.7927 -0.138626
v -0.851604 0.819226 -0.124436
v -0.760389 0.77827 -0.0971707
v -0.812833 0.793608 -0.0773453
v -0.774297 0.788678 -0.0341095
v -0.812833 0.802742 -0.0373453
v -0.865671 0.829753 -0.0606528
v -0.865671 0.838888 -0.0206528
v -0.822206 0.812725 -0.0173037
v -0.771758 0.81009 -0.195146
v -0.705977 0.811481 -0.202074
v -0.732987 0.784472 -0.148056
f 1 2 3
f 2 4 5
f 3 5 6
f 2 5 3
f 4 7 8
f 7 9 10
f 8 10 11
f 7 10 8
f 6 12 13
f 14 15 16
f 17 16 18
f 14 16 17
f 4 8 5
f 8 11 12
f 5 12 6
f 8 12 5
f 1 3 19
f 3 6 20
f 19 20 21
f 3 20 19
f 6 13 22
f 17 18 23
f 24 23 25
f 17 23 24
f 21 26 27
f 28 25 29
f 27 30 31
f 26 30 27
f 6 22 20
f 22 32 26
f 20 26 21
f 22 26 20
f 1 19 33
f 19 21 34
f 33 34 35
f 19 34 33
f 21 27 36
f 27 31 37
f 36 37 38
f 27 37 36
f 35 39 40
f 39 38 41
f 40 41 42
f 39 41 40
f 21 36 34
f 36 38 39
f 34 39 35
f 36 39 34
f 1 33 43
f 33 35 44
f 43 44 45
f 33 44 43
f 35 40 46
f 40 42 47
f 46 47 48
f 40 47 46
f 45 49 50
f 49 48 51
f 50 51 52
f 49 51 50
f 35 46 44
f 46 48 49
f 44 49 45
f 46 49 44
f 1 43 2
f 43 45 53
f 2 53 4
f 43 53 2
f 45 50 54
f 50 52 55
f 54 55 56
f 50 55 54
f 4 57 7
f 57 56 58
f 7 58 9
f 57 58 7
f 45 54 53
f 54 56 57
f 53 57 4
f 54 57 53
f 9 59 10
f 60 61 62
f 63 62 15
f 60 62 63
f 61 64 65
f 64 66 67
f 65 67 68
f 64 67 65
f 15 69 16
f 69 68 70
f 16 70 18
f 69 70 16
f 61 65 62
f 65 68 69
f 62 69 15
f 65 69 62
f 18 70 71
f 70 68 72
f 71 72 73
f 70 72 71
f 68 67 74
f 67 66 75
f 74 75 76
f 67 75 74
f 73 77 78
f 77 76 79
f 78 79 80
f 77 79 78
f 68 74 72
f 74 76 77
f 72 77 73
f 74 77 72
f 18 71 23
f 71 73 81
f 23 81 25
f 71 81 23
f 73 78 82
f 78 80 83
f 82 83 84
f 78 83 82
f 25 85 29
f 85 84 86
f 29 86 87
f 85 86 29
f 73 82 81
f 82 84 85
f 81 85 25
f 82 85 81
f 87 86 88
f 86 84 89
f 88 89 90
f 86 89 88
f 84 83 91
f 83 80 92
f 91 92 93
f 83 92 91
f 90 94 95
f 94 93 96
f 95 96 97
f 94 96 95
f 84 91 89
f 91 93 94
f 89 94 90
f 91 94 89
f 31 98 37
f 98 99 100
f 37 100 38
f 98 100 37
f 99 101 102
f 95 97 103
f 102 104 105
f 101 104 102
f 38 106 41
f 106 105 107
f 41 107 42
f 106 107 41
f 99 102 100
f 102 105 106
f 100 106 38
f 102 106 100
f 42 107 108
f 107 105 109
f 108 109 110
f 107 109 108
f 105 104 111
f 103 97 112
f 111 113 114
f 104 113 111
f 110 115 116
f 115 114 117
f 116 117 118
f 115 117 116
f 105 111 109
f 111 114 115
f 109 115 110
f 111 115 109
f 42 108 47
f 108 110 119
f 47 119 48
f 108 119 47
f 110 116 120
f 116 118 121
f 120 121 122
f 116 121 120
f 48 123 51
f 123 122 124
f 51 124 52
f 123 124 51
f 110 120 119
f 120 122 123
f 119 123 48
f 120 123 119
f 52 124 125
f 124 122 126
f 125 126 127
f 124 126 125
f 122 121 128
f 121 118 129
f 128 129 130
f 121 129 128
f 127 131 132
f 131 130 133
f 132 133 134
f 131 133 132
f 122 128 126
f 128 130 131
f 126 131 127
f 128 131 126
f 52 125 55
f 125 127 135
f 55 135 56
f 125 135 55
f 127 132 136
f 132 134 137
f 136 137 138
f 132 137 136
f 56 139 58
f 139 138 140
f 58 140 9
f 139 140 58
f 127 136 135
f 136 138 139
f 135 139 56
f 136 139 135
f 9 140 59
f 141 142 143
f 60 143 61
f 141 143 60
f 142 144 145
f 144 146 147
f 145 147 148
f 144 147 145
f 61 149 64
f 149 148 150
f 64 150 66
f 149 150 64
f 142 145 143
f 145 148 149
f 143 149 61
f 145 149 143
f 151 152 153
f 152 154 155
f 153 155 156
f 152 155 153
f 154 157 158
f 157 80 79
f 158 79 76
f 157 79 158
f 156 159 160
f 159 76 75
f 160 75 66
f 159 75 160
f 154 158 155
f 158 76 159
f 155 159 156
f 158 159 155
f 151 161 152
f 161 162 163
f 152 163 154
f 161 163 152
f 162 164 165
f 164 97 96
f 165 96 93
f 164 96 165
f 154 166 157
f 166 93 92
f 157 92 80
f 166 92 157
f 162 165 163
f 165 93 166
f 163 166 154
f 165 166 163
f 151 167 161
f 167 168 169
f 161 169 162
f 167 169 161
f 168 170 171
f 172 118 117
f 173 117 114
f 172 117 173
f 162 174 164
f 174 175 112
f 164 112 97
f 174 112 164
f 168 171 169
f 171 175 174
f 169 174 162
f 171 174 169
f 151 176 167
f 176 177 178
f 167 178 168
f 176 178 167
f 177 179 180
f 179 146 181
f 182 133 130
f 179 181 180
f 168 183 170
f 184 130 129
f 172 129 118
f 184 129 172
f 177 180 178
f 180 185 183
f 178 183 168
f 180 183 178
f 151 153 176
f 153 156 186
f 176 186 177
f 153 186 176
f 156 160 187
f 160 66 150
f 187 150 148
f 160 150 187
f 177 188 179
f 188 148 147
f 179 147 146
f 188 147 179
f 156 187 186
f 187 148 188
f 186 188 177
f 187 188 186
f 14 12 15
f 15 12 11
f 17 13 14
f 14 13 12
f 25 32 24
f 24 32 22
f 24 22 17
f 17 22 13
f 28 26 25
f 25 26 32
f 29 30 28
f 28 30 26
f 15 11 63
f 63 11 10
f 63 10 60
f 60 10 59
f 87 31 29
f 29 31 30
f 88 98 87
f 87 98 31
f 90 99 88
f 88 99 98
f 95 101 90
f 90 101 99
f 103 104 95
f 95 104 101
f 112 113 103
f 103 113 104
f 141 140 142
f 142 140 138
f 60 59 141
f 141 59 140
f 142 138 144
f 144 138 137
f 144 137 146
f 146 137 134
f 170 172 171
f 171 172 173
f 175 114 112
f 112 114 113
f 171 173 175
f 175 173 114
f 146 134 181
f 181 134 133
f 181 133 180
f 180 133 182
f 183 184 170
f 170 184 172
f 180 182 185
f 185 182 130
f 185 130 183
f 183 130 184
