v -0.613443 1.17222 0.227557
v -0.578573 1.1284 0.223083
v -0.584156 1.17719 0.179875
v -0.555307 1.07897 0.21
v -0.551911 1.12957 0.171445
v -0.566047 1.17284 0.126875
v -0.545414 1.02769 0.189305
v -0.532198 1.0697 0.151363
v -0.549649 0.978461 0.162573
v -0.531507 1.01728 0.126244
v -0.52855 1.05895 0.088678
v -0.537845 1.11904 0.107662
v -0.560495 1.15949 0.0725893
v -0.537845 1.05314 -0.0523381
v -0.52855 0.993041 -0.0713219
v -0.541004 1.03438 -0.107265
v -0.560495 1.09358 -0.0874107
v -0.567922 1.07225 -0.138848
v -0.636396 1.21293 0.196379
v -0.610396 1.21506 0.144436
v -0.66655 1.24159 0.158626
v -0.596329 1.20454 0.0806528
v -0.598827 1.11891 -0.133968
v -0.598827 1.18481 0.0260318
v -0.639793 1.22157 0.0373037
v -0.596329 1.13863 -0.0793472
v -0.649166 1.24068 0.0973453
v -0.701611 1.25602 0.117171
v -0.687703 1.24561 0.0541095
v -0.738908 1.25512 0.0751699
v -0.663099 1.18623 0.249786
v -0.690242 1.2242 0.215146
v -0.717924 1.19022 0.261374
v -0.729013 1.24982 0.168056
v -0.766646 1.25464 0.12402
v -0.791671 1.23894 0.171803
v -0.756022 1.22281 0.222074
v -0.773745 1.18389 0.261439
v -0.812077 1.20921 0.214882
v -0.826311 1.16772 0.249976
v -0.627363 1.13399 0.26629
v -0.681106 1.14435 0.285857
v -0.649172 1.08971 0.293125
v -0.746886 1.14296 0.292785
v -0.803044 1.13027 0.284793
v -0.774293 1.08707 0.306303
v -0.710741 1.09012 0.309477
v -0.67721 1.04277 0.306021
v -0.742246 1.04139 0.31287
v -0.709343 0.996733 0.303995
v -0.595613 1.08587 0.258848
v -0.625248 1.03164 0.282468
v -0.65772 0.983572 0.286167
v -0.611675 0.975822 0.254929
v -0.5759 1.02599 0.238767
v -0.574714 0.974074 0.212658
v -0.549649 0.912555 0.00257317
v -0.552211 0.891327 -0.0493768
v -0.531507 0.951375 -0.0337561
v -0.568382 0.877515 -0.101374
v -0.539072 0.932526 -0.0882187
v -0.596932 0.872172 -0.149461
v -0.56566 0.921139 -0.14772
v -0.635688 0.875704 -0.189976
v -0.602515 0.920962 -0.192668
v -0.579122 0.971381 -0.1845
v -0.544719 0.981874 -0.13192
v -0.567291 1.02312 -0.166093
v -0.603027 1.07536 -0.182596
v -0.607452 1.02332 -0.208114
v -0.647875 1.07188 -0.216251
v -0.628393 0.962589 -0.223913
v -0.658955 0.913154 -0.224793
v -0.687707 0.956359 -0.246303
v -0.664538 1.01543 -0.240606
v -0.69905 1.06208 -0.23725
v -0.719754 1.00203 -0.25287
v -0.752657 1.04669 -0.243994
v -0.639348 1.12021 -0.175622
v -0.639793 1.15566 -0.122696
v -0.696434 1.11231 -0.208114
v -0.75129 1.09781 -0.220746
v -0.748378 1.14064 -0.1845
v -0.692186 1.15635 -0.158929
v -0.687703 1.17971 -0.10589
v -0.744143 1.1719 -0.138015
v -0.744143 1.2378 0.0219851
v -0.792933 1.24339 0.0651924
v -0.79862 1.1541 -0.14772
v -0.79862 1.22001 0.0122802
v -0.842243 1.21728 0.0586257
v -0.792933 1.17748 -0.0948076
v -0.802869 1.11006 -0.196904
v -0.80428 1.05985 -0.226167
v -0.850325 1.0676 -0.194929
v -0.842243 1.15138 -0.101374
v -0.852217 1.1157 -0.153203
v -0.883086 1.11289 -0.10403
v -0.887286 1.06935 -0.152658
v -0.91235 1.06496 -0.102573
v -0.821381 1.23704 0.115483
v -0.883086 1.1788 0.0559698
v -0.874977 1.19864 0.11
v -0.91235 1.13087 0.0574269
v -0.909789 1.1521 0.109377
v -0.893618 1.16591 0.161374
v -0.84839 1.21003 0.169501
v -0.865067 1.17125 0.209461
v -0.859485 1.12246 0.252668
v -0.89634 1.12229 0.20772
v -0.882878 1.07204 0.2445
v -0.922927 1.1109 0.148219
v -0.930493 1.09205 0.0937562
v -0.93345 1.05038 0.131322
v -0.917281 1.06155 0.19192
v -0.894709 1.0203 0.226093
v -0.920996 1.00904 0.167265
v -0.894078 0.971176 0.198848
v -0.833607 1.08084 0.283913
v -0.854548 1.0201 0.268114
v -0.858973 0.968062 0.242596
v -0.814125 0.97154 0.276251
v -0.797462 1.028 0.300606
v -0.76295 0.981346 0.29725
v -0.71071 0.94561 0.280746
v -0.765565 0.931117 0.268114
v -0.713622 0.902788 0.2445
v -0.822652 0.923219 0.235622
v -0.863173 0.924517 0.193968
v -0.822206 0.887765 0.182696
v -0.769814 0.887074 0.218929
v -0.717857 0.871527 0.198015
v -0.774297 0.863719 0.16589
v -0.717857 0.805621 0.0380149
v -0.774297 0.797812 0.00589051
v -0.723092 0.788301 -0.0151699
v -0.659131 0.933368 0.256904
v -0.66338 0.889325 0.20772
v -0.669067 0.800038 -0.00519233
v -0.66338 0.823419 0.0477198
v -0.619756 0.826141 0.00137434
v -0.669067 0.865945 0.154808
v -0.609783 0.927722 0.213203
v -0.619756 0.892048 0.161374
v -0.578914 0.93053 0.16403
v -0.578914 0.864623 0.00403023
v -0.587023 0.844782 -0.05
v -0.640619 0.806385 -0.0554829
v -0.695353 0.78878 -0.0640203
v -0.670329 0.804481 -0.111803
v -0.61361 0.833394 -0.109501
v -0.649923 0.83421 -0.154882
v -0.848557 0.871202 -0.167557
v -0.834637 0.909438 -0.20629
v -0.798901 0.857198 -0.189786
v -0.812828 0.953712 -0.233125
v -0.780894 0.899071 -0.225857
v -0.744076 0.853209 -0.201374
v -0.78479 1.00065 -0.246021
v -0.751259 0.9533 -0.249477
v -0.715114 0.900462 -0.232785
v -0.688255 0.859538 -0.201439
v -0.883427 0.915021 -0.163083
v -0.906693 0.964452 -0.15
v -0.866387 0.957555 -0.198848
v -0.916586 1.01573 -0.129305
v -0.8861 1.01743 -0.178767
v -0.836752 1.01178 -0.222468
v -0.877844 0.866231 -0.119875
v -0.895953 0.870587 -0.0668746
v -0.910089 0.913853 -0.111445
v -0.901505 0.883939 -0.0125892
v -0.924155 0.924381 -0.0476618
v -0.901505 0.949845 0.147411
v -0.924155 0.990287 0.112338
v -0.929802 0.973729 -0.0913634
v -0.93345 0.984477 -0.028678
v -0.930493 1.02614 -0.0662438
v -0.825604 0.830494 -0.136379
v -0.79545 0.801835 -0.0986257
v -0.851604 0.82836 -0.0844355
v -0.760389 0.787404 -0.0571707
v -0.812833 0.802742 -0.0373453
v -0.822206 0.821859 0.0226963
v -0.865671 0.838888 -0.0206528
v -0.863173 0.858611 0.0339683
v -0.865671 0.904794 0.139347
v -0.771758 0.819224 -0.155146
v -0.705977 0.820615 -0.162074
v -0.732987 0.793606 -0.108056
f 1 2 3
f 2 4 5
f 3 5 6
f 2 5 3
f 4 7 8
f 7 9 10
f 8 10 11
f 7 10 8
f 6 12 13
f 14 15 16
f 17 16 18
f 14 16 17
f 4 8 5
f 8 11 12
f 5 12 6
f 8 12 5
f 1 3 19
f 3 6 20
f 19 20 21
f 3 20 19
f 6 13 22
f 17 18 23
f 22 24 25
f 17 23 26
f 21 27 28
f 27 25 29
f 28 29 30
f 27 29 28
f 6 22 20
f 22 25 27
f 20 27 21
f 22 27 20
f 1 19 31
f 19 21 32
f 31 32 33
f 19 32 31
f 21 28 34
f 28 30 35
f 34 35 36
f 28 35 34
f 33 37 38
f 37 36 39
f 38 39 40
f 37 39 38
f 21 34 32
f 34 36 37
f 32 37 33
f 34 37 32
f 1 31 41
f 31 33 42
f 41 42 43
f 31 42 41
f 33 38 44
f 38 40 45
f 44 45 46
f 38 45 44
f 43 47 48
f 47 46 49
f 48 49 50
f 47 49 48
f 33 44 42
f 44 46 47
f 42 47 43
f 44 47 42
f 1 41 2
f 41 43 51
f 2 51 4
f 41 51 2
f 43 48 52
f 48 50 53
f 52 53 54
f 48 53 52
f 4 55 7
f 55 54 56
f 7 56 9
f 55 56 7
f 43 52 51
f 52 54 55
f 51 55 4
f 52 55 51
f 57 58 59
f 58 60 61
f 59 61 15
f 58 61 59
f 60 62 63
f 62 64 65
f 63 65 66
f 62 65 63
f 15 67 16
f 67 66 68
f 16 68 18
f 67 68 16
f 60 63 61
f 63 66 67
f 61 67 15
f 63 67 61
f 18 68 69
f 68 66 70
f 69 70 71
f 68 70 69
f 66 65 72
f 65 64 73
f 72 73 74
f 65 73 72
f 71 75 76
f 75 74 77
f 76 77 78
f 75 77 76
f 66 72 70
f 72 74 75
f 70 75 71
f 72 75 70
f 18 69 23
f 69 71 79
f 23 79 80
f 69 79 23
f 71 76 81
f 76 78 82
f 81 82 83
f 76 82 81
f 80 84 85
f 84 83 86
f 29 87 30
f 84 86 85
f 71 81 79
f 81 83 84
f 79 84 80
f 81 84 79
f 30 87 88
f 86 83 89
f 88 90 91
f 86 89 92
f 83 82 93
f 82 78 94
f 93 94 95
f 82 94 93
f 96 97 98
f 97 95 99
f 98 99 100
f 97 99 98
f 83 93 89
f 93 95 97
f 89 97 96
f 93 97 89
f 30 88 35
f 88 91 101
f 35 101 36
f 88 101 35
f 91 102 103
f 102 104 105
f 103 105 106
f 102 105 103
f 36 107 39
f 107 106 108
f 39 108 40
f 107 108 39
f 91 103 101
f 103 106 107
f 101 107 36
f 103 107 101
f 40 108 109
f 108 106 110
f 109 110 111
f 108 110 109
f 106 105 112
f 105 104 113
f 112 113 114
f 105 113 112
f 111 115 116
f 115 114 117
f 116 117 118
f 115 117 116
f 106 112 110
f 112 114 115
f 110 115 111
f 112 115 110
f 40 109 45
f 109 111 119
f 45 119 46
f 109 119 45
f 111 116 120
f 116 118 121
f 120 121 122
f 116 121 120
f 46 123 49
f 123 122 124
f 49 124 50
f 123 124 49
f 111 120 119
f 120 122 123
f 119 123 46
f 120 123 119
f 50 124 125
f 124 122 126
f 125 126 127
f 124 126 125
f 122 121 128
f 121 118 129
f 128 129 130
f 121 129 128
f 127 131 132
f 131 130 133
f 134 135 136
f 131 133 132
f 122 128 126
f 128 130 131
f 126 131 127
f 128 131 126
f 50 125 53
f 125 127 137
f 53 137 54
f 125 137 53
f 127 132 138
f 134 136 139
f 140 139 141
f 132 142 138
f 54 143 56
f 143 144 145
f 56 145 9
f 143 145 56
f 127 138 137
f 138 144 143
f 137 143 54
f 138 143 137
f 57 146 58
f 146 141 147
f 58 147 60
f 146 147 58
f 141 139 148
f 139 136 149
f 148 149 150
f 139 149 148
f 60 151 62
f 151 150 152
f 62 152 64
f 151 152 62
f 141 148 147
f 148 150 151
f 147 151 60
f 148 151 147
f 153 154 155
f 154 156 157
f 155 157 158
f 154 157 155
f 156 159 160
f 159 78 77
f 160 77 74
f 159 77 160
f 158 161 162
f 161 74 73
f 162 73 64
f 161 73 162
f 156 160 157
f 160 74 161
f 157 161 158
f 160 161 157
f 153 163 154
f 163 164 165
f 154 165 156
f 163 165 154
f 164 166 167
f 166 100 99
f 167 99 95
f 166 99 167
f 156 168 159
f 168 95 94
f 159 94 78
f 168 94 159
f 164 167 165
f 167 95 168
f 165 168 156
f 167 168 165
f 153 169 163
f 169 170 171
f 163 171 164
f 169 171 163
f 170 172 173
f 174 118 117
f 175 117 114
f 174 117 175
f 164 176 166
f 176 177 178
f 166 178 100
f 176 178 166
f 170 173 171
f 173 177 176
f 171 176 164
f 173 176 171
f 153 179 169
f 179 180 181
f 169 181 170
f 179 181 169
f 180 182 183
f 182 136 135
f 183 135 184
f 182 135 183
f 170 185 172
f 185 184 186
f 174 129 118
f 187 129 174
f 180 183 181
f 183 184 185
f 181 185 170
f 183 185 181
f 153 155 179
f 155 158 188
f 179 188 180
f 155 188 179
f 158 162 189
f 162 64 152
f 189 152 150
f 162 152 189
f 180 190 182
f 190 150 149
f 182 149 136
f 190 149 182
f 158 189 188
f 189 150 190
f 188 190 180
f 189 190 188
f 14 12 15
f 15 12 11
f 17 13 14
f 14 13 12
f 23 24 26
f 26 24 22
f 26 22 17
f 17 22 13
f 59 10 57
f 57 10 9
f 15 11 59
f 59 11 10
f 80 25 23
f 23 25 24
f 85 29 80
f 80 29 25
f 86 87 85
f 85 87 29
f 89 90 92
f 92 90 88
f 92 88 86
f 86 88 87
f 98 102 96
f 96 102 91
f 100 104 98
f 98 104 102
f 96 91 89
f 89 91 90
f 134 132 135
f 135 132 133
f 139 142 134
f 134 142 132
f 140 138 139
f 139 138 142
f 141 144 140
f 140 144 138
f 57 9 146
f 146 9 145
f 146 145 141
f 141 145 144
f 172 174 173
f 173 174 175
f 177 114 178
f 178 114 113
f 178 113 100
f 100 113 104
f 173 175 177
f 177 175 114
f 135 133 184
f 184 133 130
f 185 187 172
f 172 187 174
f 184 130 186
f 186 130 129
f 186 129 185
f 185 129 187
