v -0.613443 1.18211 0.267557
v -0.578573 1.13829 0.263083
v -0.584156 1.18708 0.219875
v -0.555307 1.08886 0.25
v -0.551911 1.13946 0.211445
v -0.566047 1.18272 0.166875
v -0.545414 1.03758 0.229305
v -0.532198 1.07958 0.191364
v -0.549649 0.988347 0.202573
v -0.531507 1.02717 0.166244
v -0.52855 1.06883 0.128678
v -0.537845 1.12893 0.147662
v -0.560495 1.16937 0.112589
v -0.537845 1.11904 0.107662
v -0.52855 1.05895 0.088678
v -0.541004 1.10029 0.0527353
v -0.560495 1.15949 0.0725893
v -0.567922 1.13815 0.0211518
v -0.636396 1.22282 0.236379
v -0.610396 1.22495 0.184436
v -0.66655 1.25148 0.198626
v -0.596329 1.21442 0.120653
v -0.598827 1.18481 0.0260318
v -0.596329 1.20454 0.0806528
v -0.639793 1.22157 0.0373037
v -0.649166 1.25057 0.137345
v -0.701611 1.26591 0.157171
v -0.649166 1.24068 0.0973453
v -0.687703 1.24561 0.0541095
v -0.687703 1.2555 0.0941096
v -0.738908 1.26501 0.11517
v -0.639793 1.23145 0.0773038
v -0.663099 1.19611 0.289786
v -0.690242 1.23409 0.255146
v -0.717924 1.2001 0.301374
v -0.729013 1.2597 0.208056
v -0.766646 1.26453 0.16402
v -0.791671 1.24883 0.211804
v -0.756022 1.23269 0.262074
v -0.773745 1.19377 0.301439
v -0.812077 1.2191 0.254882
v -0.826311 1.17761 0.289976
v -0.627363 1.14387 0.30629
v -0.681106 1.15424 0.325857
v -0.649172 1.0996 0.333126
v -0.746886 1.15285 0.332785
v -0.803044 1.14016 0.324793
v -0.774293 1.09695 0.346303
v -0.710741 1.10001 0.349477
v -0.67721 1.05266 0.346021
v -0.742246 1.05128 0.35287
v -0.709343 1.00662 0.343995
v -0.595613 1.09575 0.298848
v -0.625248 1.04153 0.322468
v -0.65772 0.993458 0.326167
v -0.611675 0.985708 0.294929
v -0.5759 1.03588 0.278767
v -0.574714 0.98396 0.252658
v -0.552211 0.967119 0.150623
v -0.552211 0.957233 0.110623
v -0.568382 0.943422 0.0586257
v -0.539072 0.998432 0.0717813
v -0.531507 1.01728 0.126244
v -0.596932 0.938079 0.0105391
v -0.56566 0.987045 0.0122802
v -0.635688 0.941611 -0.0299763
v -0.602515 0.986869 -0.0326682
v -0.579122 1.03729 -0.0244997
v -0.544719 1.04778 0.0280797
v -0.567291 1.08903 -0.00609265
v -0.603027 1.14127 -0.0225963
v -0.607452 1.08923 -0.0481139
v -0.647875 1.13779 -0.0562508
v -0.628393 1.0285 -0.0639133
v -0.658955 0.97906 -0.0647926
v -0.687707 1.02227 -0.0863031
v -0.664538 1.08133 -0.0806059
v -0.69905 1.12798 -0.0772496
v -0.719754 1.06794 -0.0928704
v -0.752657 1.1126 -0.0839945
v -0.639348 1.18611 -0.0156219
v -0.696434 1.17821 -0.0481139
v -0.75129 1.16372 -0.060746
v -0.748378 1.20654 -0.0244997
v -0.692186 1.22226 0.00107062
v -0.744143 1.2378 0.0219851
v -0.738908 1.25512 0.0751699
v -0.792933 1.24339 0.0651924
v -0.79862 1.22001 0.0122802
v -0.842243 1.21728 0.0586257
v -0.802869 1.17596 -0.0369043
v -0.80428 1.12576 -0.0661668
v -0.850325 1.13351 -0.0349288
v -0.852217 1.18161 0.00679737
v -0.883086 1.1788 0.0559698
v -0.887286 1.13526 0.00734174
v -0.91235 1.13087 0.0574269
v -0.792933 1.25327 0.105192
v -0.842243 1.22717 0.0986258
v -0.821381 1.24692 0.155483
v -0.883086 1.18869 0.0959699
v -0.874977 1.20853 0.15
v -0.909789 1.1521 0.109377
v -0.909789 1.16198 0.149377
v -0.893618 1.17579 0.201374
v -0.84839 1.21992 0.209501
v -0.865067 1.18114 0.249461
v -0.859485 1.13235 0.292668
v -0.89634 1.13217 0.24772
v -0.882878 1.08193 0.2845
v -0.922927 1.12078 0.188219
v -0.930493 1.09205 0.0937562
v -0.930493 1.10194 0.133756
v -0.93345 1.06027 0.171322
v -0.917281 1.07144 0.23192
v -0.894709 1.03019 0.266093
v -0.920996 1.01893 0.207265
v -0.894078 0.981062 0.238848
v -0.833607 1.09072 0.323913
v -0.854548 1.02999 0.308114
v -0.858973 0.977947 0.282596
v -0.814125 0.981426 0.316251
v -0.797462 1.03788 0.340606
v -0.76295 0.991232 0.33725
v -0.71071 0.955495 0.320746
v -0.765565 0.941003 0.308114
v -0.713622 0.912673 0.2845
v -0.822652 0.933105 0.275622
v -0.863173 0.934403 0.233968
v -0.822206 0.897651 0.222696
v -0.769814 0.89696 0.258929
v -0.717857 0.881413 0.238015
v -0.774297 0.873604 0.205891
v -0.723092 0.864093 0.18483
v -0.659131 0.943254 0.296904
v -0.66338 0.899211 0.24772
v -0.669067 0.87583 0.194808
v -0.619756 0.901933 0.201374
v -0.609783 0.937608 0.253203
v -0.578914 0.940415 0.20403
v -0.578914 0.93053 0.16403
v -0.619756 0.892048 0.161374
v -0.587023 0.910688 0.11
v -0.669067 0.865945 0.154808
v -0.640619 0.872291 0.104517
v -0.723092 0.854208 0.14483
v -0.695353 0.854686 0.0959797
v -0.670329 0.870387 0.0481966
v -0.61361 0.899301 0.050499
v -0.649923 0.900117 0.00511817
v -0.848557 0.937108 -0.00755705
v -0.834637 0.975344 -0.0462898
v -0.798901 0.923104 -0.0297862
v -0.812828 1.01962 -0.0731254
v -0.780894 0.964977 -0.0658569
v -0.744076 0.919115 -0.0413743
v -0.78479 1.06656 -0.0860208
v -0.751259 1.01921 -0.0894774
v -0.715114 0.966369 -0.0727849
v -0.688255 0.925445 -0.0414393
v -0.883427 0.980927 -0.00308262
v -0.906693 1.03036 0.01
v -0.866387 1.02346 -0.0388478
v -0.916586 1.08164 0.030695
v -0.8861 1.08334 -0.0187667
v -0.836752 1.07769 -0.0624683
v -0.877844 0.932137 0.0401246
v -0.895953 0.936493 0.0931254
v -0.910089 0.97976 0.0485554
v -0.901505 0.949845 0.147411
v -0.924155 0.990287 0.112338
v -0.901505 0.959731 0.187411
v -0.924155 1.00017 0.152338
v -0.929802 1.03964 0.0686365
v -0.93345 1.05038 0.131322
v -0.825604 0.896401 0.0236209
v -0.79545 0.867741 0.0613743
v -0.851604 0.894267 0.0755644
v -0.760389 0.85331 0.102829
v -0.812833 0.868649 0.122655
v -0.774297 0.863719 0.16589
v -0.812833 0.878535 0.162655
v -0.865671 0.904794 0.139347
v -0.865671 0.91468 0.179347
v -0.822206 0.887765 0.182696
v -0.771758 0.88513 0.00485376
v -0.705977 0.886522 -0.00207417
v -0.732987 0.859513 0.051944
f 1 2 3
f 2 4 5
f 3 5 6
f 2 5 3
f 4 7 8
f 7 9 10
f 8 10 11
f 7 10 8
f 6 12 13
f 14 15 16
f 17 16 18
f 14 16 17
f 4 8 5
f 8 11 12
f 5 12 6
f 8 12 5
f 1 3 19
f 3 6 20
f 19 20 21
f 3 20 19
f 6 13 22
f 17 18 23
f 24 23 25
f 17 23 24
f 21 26 27
f 28 25 29
f 27 30 31
f 26 30 27
f 6 22 20
f 22 32 26
f 20 26 21
f 22 26 20
f 1 19 33
f 19 21 34
f 33 34 35
f 19 34 33
f 21 27 36
f 27 31 37
f 36 37 38
f 27 37 36
f 35 39 40
f 39 38 41
f 40 41 42
f 39 41 40
f 21 36 34
f 36 38 39
f 34 39 35
f 36 39 34
f 1 33 43
f 33 35 44
f 43 44 45
f 33 44 43
f 35 40 46
f 40 42 47
f 46 47 48
f 40 47 46
f 45 49 50
f 49 48 51
f 50 51 52
f 49 51 50
f 35 46 44
f 46 48 49
f 44 49 45
f 46 49 44
f 1 43 2
f 43 45 53
f 2 53 4
f 43 53 2
f 45 50 54
f 50 52 55
f 54 55 56
f 50 55 54
f 4 57 7
f 57 56 58
f 7 58 9
f 57 58 7
f 45 54 53
f 54 56 57
f 53 57 4
f 54 57 53
f 9 59 10
f 60 61 62
f 63 62 15
f 60 62 63
f 61 64 65
f 64 66 67
f 65 67 68
f 64 67 65
f 15 69 16
f 69 68 70
f 16 70 18
f 69 70 16
f 61 65 62
f 65 68 69
f 62 69 15
f 65 69 62
f 18 70 71
f 70 68 72
f 71 72 73
f 70 72 71
f 68 67 74
f 67 66 75
f 74 75 76
f 67 75 74
f 73 77 78
f 77 76 79
f 78 79 80
f 77 79 78
f 68 74 72
f 74 76 77
f 72 77 73
f 74 77 72
f 18 71 23
f 71 73 81
f 23 81 25
f 71 81 23
f 73 78 82
f 78 80 83
f 82 83 84
f 78 83 82
f 25 85 29
f 85 84 86
f 29 86 87
f 85 86 29
f 73 82 81
f 82 84 85
f 81 85 25
f 82 85 81
f 87 86 88
f 86 84 89
f 88 89 90
f 86 89 88
f 84 83 91
f 83 80 92
f 91 92 93
f 83 92 91
f 90 94 95
f 94 93 96
f 95 96 97
f 94 96 95
f 84 91 89
f 91 93 94
f 89 94 90
f 91 94 89
f 31 98 37
f 98 99 100
f 37 100 38
f 98 100 37
f 99 101 102
f 95 97 103
f 102 104 105
f 101 104 102
f 38 106 41
f 106 105 107
f 41 107 42
f 106 107 41
f 99 102 100
f 102 105 106
f 100 106 38
f 102 106 100
f 42 107 108
f 107 105 109
f 108 109 110
f 107 109 108
f 105 104 111
f 103 97 112
f 111 113 114
f 104 113 111
f 110 115 116
f 115 114 117
f 116 117 118
f 115 117 116
f 105 111 109
f 111 114 115
f 109 115 110
f 111 115 109
f 42 108 47
f 108 110 119
f 47 119 48
f 108 119 47
f 110 116 120
f 116 118 121
f 120 121 122
f 116 121 120
f 48 123 51
f 123 122 124
f 51 124 52
f 123 124 51
f 110 120 119
f 120 122 123
f 119 123 48
f 120 123 119
f 52 124 125
f 124 122 126
f 125 126 127
f 124 126 125
f 122 121 128
f 121 118 129
f 128 129 130
f 121 129 128
f 127 131 132
f 131 130 133
f 132 133 134
f 131 133 132
f 122 128 126
f 128 130 131
f 126 131 127
f 128 131 126
f 52 125 55
f 125 127 135
f 55 135 56
f 125 135 55
f 127 132 136
f 132 134 137
f 136 137 138
f 132 137 136
f 56 139 58
f 139 138 140
f 58 140 9
f 139 140 58
f 127 136 135
f 136 138 139
f 135 139 56
f 136 139 135
f 9 140 59
f 141 142 143
f 60 143 61
f 141 143 60
f 142 144 145
f 144 146 147
f 145 147 148
f 144 147 145
f 61 149 64
f 149 148 150
f 64 150 66
f 149 150 64
f 142 145 143
f 145 148 149
f 143 149 61
f 145 149 143
f 151 152 153
f 152 154 155
f 153 155 156
f 152 155 153
f 154 157 158
f 157 80 79
f 158 79 76
f 157 79 158
f 156 159 160
f 159 76 75
f 160 75 66
f 159 75 160
f 154 158 155
f 158 76 159
f 155 159 156
f 158 159 155
f 151 161 152
f 161 162 163
f 152 163 154
f 161 163 152
f 162 164 165
f 164 97 96
f 165 96 93
f 164 96 165
f 154 166 157
f 166 93 92
f 157 92 80
f 166 92 157
f 162 165 163
f 165 93 166
f 163 166 154
f 165 166 163
f 151 167 161
f 167 168 169
f 161 169 162
f 167 169 161
f 168 170 171
f 172 118 117
f 173 117 114
f 172 117 173
f 162 174 164
f 174 175 112
f 164 112 97
f 174 112 164
f 168 171 169
f 171 175 174
f 169 174 162
f 171 174 169
f 151 176 167
f 176 177 178
f 167 178 168
f 176 178 167
f 177 179 180
f 179 146 181
f 182 133 130
f 179 181 180
f 168 183 170
f 184 130 129
f 172 129 118
f 184 129 172
f 177 180 178
f 180 185 183
f 178 183 168
f 180 183 178
f 151 153 176
f 153 156 186
f 176 186 177
f 153 186 176
f 156 160 187
f 160 66 150
f 187 150 148
f 160 150 187
f 177 188 179
f 188 148 147
f 179 147 146
f 188 147 179
f 156 187 186
f 187 148 188
f 186 188 177
f 187 188 186
f 14 12 15
f 15 12 11
f 17 13 14
f 14 13 12
f 25 32 24
f 24 32 22
f 24 22 17
f 17 22 13
f 28 26 25
f 25 26 32
f 29 30 28
f 28 30 26
f 15 11 63
f 63 11 10
f 63 10 60
f 60 10 59
f 87 31 29
f 29 31 30
f 88 98 87
f 87 98 31
f 90 99 88
f 88 99 98
f 95 101 90
f 90 101 99
f 103 104 95
f 95 104 101
f 112 113 103
f 103 113 104
f 141 140 142
f 142 140 138
f 60 59 141
f 141 59 140
f 142 138 144
f 144 138 137
f 144 137 146
f 146 137 134
f 170 172 171
f 171 172 173
f 175 114 112
f 112 114 113
f 171 173 175
f 175 173 114
f 146 134 181
f 181 134 133
f 181 133 180
f 180 133 182
f 183 184 170
f 170 184 172
f 180 182 185
f 185 182 130
f 185 130 183
f 183 130 184
