v -0.613443 1.19725 0.387557
v -0.578573 1.15343 0.383083
v -0.584156 1.20222 0.339876
v -0.555307 1.104 0.37
v -0.551911 1.15459 0.331445
v -0.566047 1.19786 0.286875
v -0.545414 1.05271 0.349305
v -0.532198 1.09472 0.311364
v -0.549649 1.00348 0.322573
v -0.531507 1.0423 0.286244
v -0.52855 1.08397 0.248678
v -0.537845 1.14407 0.267662
v -0.560495 1.18451 0.232589
v -0.537845 1.12893 0.147662
v -0.52855 1.06883 0.128678
v -0.541004 1.11017 0.0927354
v -0.560495 1.16937 0.112589
v -0.567922 1.14804 0.0611518
v -0.636396 1.23795 0.356379
v -0.610396 1.24009 0.304436
v -0.66655 1.26661 0.318626
v -0.596329 1.22956 0.240653
v -0.598827 1.1947 0.0660318
v -0.596329 1.21442 0.120653
v -0.639793 1.23145 0.0773038
v -0.649166 1.26571 0.257345
v -0.701611 1.28104 0.277171
v -0.649166 1.25057 0.137345
v -0.687703 1.2555 0.0941096
v -0.701611 1.26591 0.157171
v -0.738908 1.26501 0.11517
v -0.687703 1.27064 0.21411
v -0.663099 1.21125 0.409786
v -0.690242 1.24922 0.375146
v -0.717924 1.21524 0.421374
v -0.729013 1.27484 0.328056
v -0.738908 1.28015 0.23517
v -0.766646 1.27967 0.28402
v -0.791671 1.26397 0.331804
v -0.756022 1.24783 0.382074
v -0.773745 1.20891 0.421439
v -0.812077 1.23424 0.374882
v -0.826311 1.19274 0.409976
v -0.627363 1.15901 0.42629
v -0.681106 1.16938 0.445857
v -0.649172 1.11474 0.453126
v -0.746886 1.16799 0.452785
v -0.803044 1.15529 0.444793
v -0.774293 1.11209 0.466303
v -0.710741 1.11515 0.469478
v -0.67721 1.06779 0.466021
v -0.742246 1.06642 0.47287
v -0.709343 1.02176 0.463995
v -0.595613 1.11089 0.418848
v -0.625248 1.05666 0.442468
v -0.65772 1.00859 0.446167
v -0.611675 1.00085 0.414929
v -0.5759 1.05102 0.398767
v -0.574714 0.999097 0.372658
v -0.552211 0.982256 0.270623
v -0.552211 0.967119 0.150623
v -0.568382 0.953308 0.0986258
v -0.539072 1.00832 0.111781
v -0.531507 1.02717 0.166244
v -0.596932 0.947965 0.0505391
v -0.56566 0.996931 0.0522803
v -0.635688 0.951497 0.0100238
v -0.602515 0.996754 0.00733189
v -0.579122 1.04717 0.0155004
v -0.544719 1.05767 0.0680798
v -0.567291 1.09891 0.0339074
v -0.603027 1.15115 0.0174038
v -0.607452 1.09912 -0.00811382
v -0.647875 1.14768 -0.0162507
v -0.628393 1.03838 -0.0239132
v -0.658955 0.988946 -0.0247925
v -0.687707 1.03215 -0.046303
v -0.664538 1.09122 -0.0406058
v -0.69905 1.13787 -0.0372496
v -0.719754 1.07782 -0.0528703
v -0.752657 1.12248 -0.0439944
v -0.639348 1.196 0.0243782
v -0.696434 1.1881 -0.00811382
v -0.75129 1.17361 -0.0207459
v -0.748378 1.21643 0.0155004
v -0.692186 1.23214 0.0410707
v -0.744143 1.24769 0.0619852
v -0.792933 1.25327 0.105192
v -0.79862 1.22989 0.0522803
v -0.842243 1.22717 0.0986258
v -0.802869 1.18585 0.00309582
v -0.80428 1.13564 -0.0261667
v -0.850325 1.14339 0.0050713
v -0.852217 1.19149 0.0467975
v -0.883086 1.18869 0.0959699
v -0.887286 1.14514 0.0473418
v -0.91235 1.14076 0.097427
v -0.792933 1.26841 0.225192
v -0.821381 1.24692 0.155483
v -0.821381 1.26206 0.275483
v -0.874977 1.20853 0.15
v -0.909789 1.16198 0.149377
v -0.874977 1.22367 0.27
v -0.909789 1.17712 0.269377
v -0.893618 1.19093 0.321374
v -0.84839 1.23505 0.329501
v -0.865067 1.19627 0.369461
v -0.842243 1.24231 0.218626
v -0.859485 1.14749 0.412668
v -0.89634 1.14731 0.36772
v -0.882878 1.09707 0.4045
v -0.922927 1.13592 0.308219
v -0.930493 1.10194 0.133756
v -0.930493 1.11707 0.253756
v -0.93345 1.07541 0.291322
v -0.917281 1.08657 0.35192
v -0.894709 1.04532 0.386093
v -0.920996 1.03407 0.327265
v -0.894078 0.996199 0.358848
v -0.833607 1.10586 0.443913
v -0.854548 1.04512 0.428114
v -0.858973 0.993085 0.402596
v -0.814125 0.996563 0.436251
v -0.797462 1.05302 0.460606
v -0.76295 1.00637 0.45725
v -0.71071 0.970633 0.440746
v -0.765565 0.95614 0.428114
v -0.713622 0.927811 0.4045
v -0.822652 0.948242 0.395622
v -0.863173 0.94954 0.353968
v -0.822206 0.912789 0.342696
v -0.769814 0.912097 0.378929
v -0.717857 0.89655 0.358015
v -0.774297 0.888742 0.325891
v -0.723092 0.879231 0.30483
v -0.659131 0.958391 0.416904
v -0.66338 0.914348 0.36772
v -0.669067 0.890968 0.314808
v -0.619756 0.917071 0.321374
v -0.609783 0.952745 0.373203
v -0.578914 0.955553 0.32403
v -0.587023 0.935711 0.27
v -0.587023 0.920574 0.15
v -0.640619 0.897315 0.264517
v -0.669067 0.87583 0.194808
v -0.723092 0.864093 0.18483
v -0.695353 0.864572 0.13598
v -0.640619 0.882177 0.144517
v -0.670329 0.880273 0.0881967
v -0.61361 0.909186 0.090499
v -0.649923 0.910003 0.0451182
v -0.619756 0.901933 0.201374
v -0.848557 0.946994 0.032443
v -0.834637 0.98523 -0.00628977
v -0.798901 0.93299 0.0102139
v -0.812828 1.0295 -0.0331253
v -0.780894 0.974863 -0.0258568
v -0.744076 0.929001 -0.00137424
v -0.78479 1.07645 -0.0460207
v -0.751259 1.02909 -0.0494773
v -0.715114 0.976254 -0.0327848
v -0.688255 0.93533 -0.00143926
v -0.883427 0.990813 0.0369175
v -0.906693 1.04024 0.0500001
v -0.866387 1.03335 0.00115226
v -0.916586 1.09153 0.0706951
v -0.8861 1.09322 0.0212334
v -0.836752 1.08758 -0.0224682
v -0.877844 0.942023 0.0801247
v -0.895953 0.946379 0.133125
v -0.910089 0.989646 0.0885555
v -0.901505 0.959731 0.187411
v -0.924155 1.00017 0.152338
v -0.901505 0.974868 0.307411
v -0.924155 1.01531 0.272338
v -0.929802 1.04952 0.108637
v -0.93345 1.06027 0.171322
v -0.825604 0.906287 0.063621
v -0.79545 0.877627 0.101374
v -0.851604 0.904152 0.115565
v -0.760389 0.863196 0.142829
v -0.812833 0.878535 0.162655
v -0.760389 0.878334 0.262829
v -0.812833 0.893672 0.282655
v -0.774297 0.873604 0.205891
v -0.865671 0.91468 0.179347
v -0.865671 0.929817 0.299347
v -0.771758 0.895016 0.0448538
v -0.705977 0.896408 0.0379259
v -0.732987 0.869398 0.0919441
f 1 2 3
f 2 4 5
f 3 5 6
f 2 5 3
f 4 7 8
f 7 9 10
f 8 10 11
f 7 10 8
f 6 12 13
f 14 15 16
f 17 16 18
f 14 16 17
f 4 8 5
f 8 11 12
f 5 12 6
f 8 12 5
f 1 3 19
f 3 6 20
f 19 20 21
f 3 20 19
f 6 13 22
f 17 18 23
f 24 23 25
f 17 23 24
f 21 26 27
f 28 25 29
f 30 29 31
f 26 32 27
f 6 22 20
f 24 25 28
f 20 26 21
f 22 26 20
f 1 19 33
f 19 21 34
f 33 34 35
f 19 34 33
f 21 27 36
f 27 37 38
f 36 38 39
f 27 38 36
f 35 40 41
f 40 39 42
f 41 42 43
f 40 42 41
f 21 36 34
f 36 39 40
f 34 40 35
f 36 40 34
f 1 33 44
f 33 35 45
f 44 45 46
f 33 45 44
f 35 41 47
f 41 43 48
f 47 48 49
f 41 48 47
f 46 50 51
f 50 49 52
f 51 52 53
f 50 52 51
f 35 47 45
f 47 49 50
f 45 50 46
f 47 50 45
f 1 44 2
f 44 46 54
f 2 54 4
f 44 54 2
f 46 51 55
f 51 53 56
f 55 56 57
f 51 56 55
f 4 58 7
f 58 57 59
f 7 59 9
f 58 59 7
f 46 55 54
f 55 57 58
f 54 58 4
f 55 58 54
f 9 60 10
f 61 62 63
f 64 63 15
f 61 63 64
f 62 65 66
f 65 67 68
f 66 68 69
f 65 68 66
f 15 70 16
f 70 69 71
f 16 71 18
f 70 71 16
f 62 66 63
f 66 69 70
f 63 70 15
f 66 70 63
f 18 71 72
f 71 69 73
f 72 73 74
f 71 73 72
f 69 68 75
f 68 67 76
f 75 76 77
f 68 76 75
f 74 78 79
f 78 77 80
f 79 80 81
f 78 80 79
f 69 75 73
f 75 77 78
f 73 78 74
f 75 78 73
f 18 72 23
f 72 74 82
f 23 82 25
f 72 82 23
f 74 79 83
f 79 81 84
f 83 84 85
f 79 84 83
f 25 86 29
f 86 85 87
f 29 87 31
f 86 87 29
f 74 83 82
f 83 85 86
f 82 86 25
f 83 86 82
f 31 87 88
f 87 85 89
f 88 89 90
f 87 89 88
f 85 84 91
f 84 81 92
f 91 92 93
f 84 92 91
f 90 94 95
f 94 93 96
f 95 96 97
f 94 96 95
f 85 91 89
f 91 93 94
f 89 94 90
f 91 94 89
f 37 98 38
f 88 90 99
f 38 100 39
f 98 100 38
f 90 95 101
f 95 97 102
f 103 104 105
f 95 102 101
f 39 106 42
f 106 105 107
f 42 107 43
f 106 107 42
f 108 103 100
f 103 105 106
f 100 106 39
f 103 106 100
f 43 107 109
f 107 105 110
f 109 110 111
f 107 110 109
f 105 104 112
f 102 97 113
f 112 114 115
f 104 114 112
f 111 116 117
f 116 115 118
f 117 118 119
f 116 118 117
f 105 112 110
f 112 115 116
f 110 116 111
f 112 116 110
f 43 109 48
f 109 111 120
f 48 120 49
f 109 120 48
f 111 117 121
f 117 119 122
f 121 122 123
f 117 122 121
f 49 124 52
f 124 123 125
f 52 125 53
f 124 125 52
f 111 121 120
f 121 123 124
f 120 124 49
f 121 124 120
f 53 125 126
f 125 123 127
f 126 127 128
f 125 127 126
f 123 122 129
f 122 119 130
f 129 130 131
f 122 130 129
f 128 132 133
f 132 131 134
f 133 134 135
f 132 134 133
f 123 129 127
f 129 131 132
f 127 132 128
f 129 132 127
f 53 126 56
f 126 128 136
f 56 136 57
f 126 136 56
f 128 133 137
f 133 135 138
f 137 138 139
f 133 138 137
f 57 140 59
f 140 139 141
f 59 141 9
f 140 141 59
f 128 137 136
f 137 139 140
f 136 140 57
f 137 140 136
f 9 141 60
f 141 139 142
f 61 143 62
f 141 142 60
f 139 138 144
f 145 146 147
f 148 147 149
f 145 147 148
f 62 150 65
f 150 149 151
f 65 151 67
f 150 151 65
f 152 148 143
f 148 149 150
f 143 150 62
f 148 150 143
f 153 154 155
f 154 156 157
f 155 157 158
f 154 157 155
f 156 159 160
f 159 81 80
f 160 80 77
f 159 80 160
f 158 161 162
f 161 77 76
f 162 76 67
f 161 76 162
f 156 160 157
f 160 77 161
f 157 161 158
f 160 161 157
f 153 163 154
f 163 164 165
f 154 165 156
f 163 165 154
f 164 166 167
f 166 97 96
f 167 96 93
f 166 96 167
f 156 168 159
f 168 93 92
f 159 92 81
f 168 92 159
f 164 167 165
f 167 93 168
f 165 168 156
f 167 168 165
f 153 169 163
f 169 170 171
f 163 171 164
f 169 171 163
f 170 172 173
f 174 119 118
f 175 118 115
f 174 118 175
f 164 176 166
f 176 177 113
f 166 113 97
f 176 113 166
f 170 173 171
f 173 177 176
f 171 176 164
f 173 176 171
f 153 178 169
f 178 179 180
f 169 180 170
f 178 180 169
f 179 181 182
f 183 135 134
f 184 134 131
f 181 185 182
f 170 186 172
f 187 131 130
f 174 130 119
f 187 130 174
f 179 182 180
f 184 131 187
f 180 186 170
f 182 186 180
f 153 155 178
f 155 158 188
f 178 188 179
f 155 188 178
f 158 162 189
f 162 67 151
f 189 151 149
f 162 151 189
f 179 190 181
f 190 149 147
f 181 147 146
f 190 147 181
f 158 189 188
f 189 149 190
f 188 190 179
f 189 190 188
f 14 12 15
f 15 12 11
f 17 13 14
f 14 13 12
f 24 22 17
f 17 22 13
f 29 32 28
f 28 32 26
f 30 27 29
f 29 27 32
f 31 37 30
f 30 37 27
f 28 26 24
f 24 26 22
f 15 11 64
f 64 11 10
f 64 10 61
f 61 10 60
f 88 98 31
f 31 98 37
f 90 108 99
f 99 108 100
f 99 100 88
f 88 100 98
f 101 103 90
f 90 103 108
f 102 104 101
f 101 104 103
f 113 114 102
f 102 114 104
f 61 60 143
f 143 60 142
f 145 138 146
f 146 138 135
f 148 144 145
f 145 144 138
f 152 139 148
f 148 139 144
f 143 142 152
f 152 142 139
f 172 174 173
f 173 174 175
f 177 115 113
f 113 115 114
f 173 175 177
f 177 175 115
f 181 183 185
f 185 183 134
f 185 134 182
f 182 134 184
f 186 187 172
f 172 187 174
f 182 184 186
f 186 184 187
f 146 135 181
f 181 135 183
