v -0.613443 1.23766 0.547557
v -0.578573 1.19384 0.543083
v -0.584156 1.24263 0.499875
v -0.555307 1.14441 0.53
v -0.551911 1.19501 0.491445
v -0.566047 1.23827 0.446875
v -0.545414 1.09313 0.509305
v -0.532198 1.13513 0.471364
v -0.549649 1.0439 0.482573
v -0.531507 1.08272 0.446244
v -0.52855 1.12438 0.408678
v -0.537845 1.18448 0.427662
v -0.560495 1.22492 0.392589
v -0.537845 1.14407 0.267662
v -0.52855 1.08397 0.248678
v -0.541004 1.12531 0.212735
v -0.560495 1.18451 0.232589
v -0.567922 1.16318 0.181152
v -0.636396 1.27837 0.516379
v -0.610396 1.2805 0.464436
v -0.66655 1.30703 0.478626
v -0.596329 1.26997 0.400653
v -0.598827 1.20984 0.186032
v -0.596329 1.22956 0.240653
v -0.639793 1.24659 0.197304
v -0.649166 1.30612 0.417345
v -0.701611 1.32146 0.437171
v -0.649166 1.26571 0.257345
v -0.687703 1.27064 0.21411
v -0.687703 1.31105 0.37411
v -0.738908 1.32056 0.39517
v -0.639793 1.287 0.357304
v -0.663099 1.25166 0.569786
v -0.690242 1.28964 0.535146
v -0.717924 1.25565 0.581374
v -0.729013 1.31525 0.488056
v -0.766646 1.32008 0.44402
v -0.791671 1.30438 0.491803
v -0.756022 1.28824 0.542074
v -0.773745 1.24932 0.581439
v -0.812077 1.27465 0.534882
v -0.826311 1.23316 0.569976
v -0.627363 1.19942 0.58629
v -0.681106 1.20979 0.605857
v -0.649172 1.15515 0.613125
v -0.746886 1.2084 0.612785
v -0.803044 1.19571 0.604793
v -0.774293 1.1525 0.626303
v -0.710741 1.15556 0.629478
v -0.67721 1.10821 0.626021
v -0.742246 1.10683 0.63287
v -0.709343 1.06217 0.623995
v -0.595613 1.15131 0.578848
v -0.625248 1.09708 0.602468
v -0.65772 1.04901 0.606167
v -0.611675 1.04126 0.574929
v -0.5759 1.09143 0.558767
v -0.574714 1.03951 0.532658
v -0.552211 1.02267 0.430623
v -0.552211 0.982256 0.270623
v -0.568382 0.968445 0.218626
v -0.539072 1.02346 0.231781
v -0.531507 1.0423 0.286244
v -0.596932 0.963102 0.170539
v -0.56566 1.01207 0.17228
v -0.635688 0.966634 0.130024
v -0.602515 1.01189 0.127332
v -0.579122 1.06231 0.1355
v -0.544719 1.0728 0.18808
v -0.567291 1.11405 0.153907
v -0.603027 1.16629 0.137404
v -0.607452 1.11425 0.111886
v -0.647875 1.16281 0.103749
v -0.628393 1.05352 0.0960868
v -0.658955 1.00408 0.0952075
v -0.687707 1.04729 0.073697
v -0.664538 1.10636 0.0793942
v -0.69905 1.15301 0.0827504
v -0.719754 1.09296 0.0671297
v -0.752657 1.13762 0.0760056
v -0.639348 1.21113 0.144378
v -0.696434 1.20324 0.111886
v -0.75129 1.18874 0.0992541
v -0.748378 1.23157 0.1355
v -0.692186 1.24728 0.161071
v -0.744143 1.26283 0.181985
v -0.738908 1.28015 0.23517
v -0.792933 1.26841 0.225192
v -0.79862 1.24503 0.17228
v -0.842243 1.24231 0.218626
v -0.802869 1.20099 0.123096
v -0.80428 1.15078 0.0938333
v -0.850325 1.15853 0.125071
v -0.852217 1.20663 0.166797
v -0.883086 1.20382 0.21597
v -0.887286 1.16028 0.167342
v -0.91235 1.15589 0.217427
v -0.792933 1.30882 0.385192
v -0.842243 1.28272 0.378626
v -0.821381 1.30248 0.435483
v -0.883086 1.24424 0.37597
v -0.874977 1.26408 0.43
v -0.909789 1.17712 0.269377
v -0.909789 1.21753 0.429377
v -0.893618 1.23134 0.481374
v -0.84839 1.27547 0.489501
v -0.865067 1.23669 0.529461
v -0.859485 1.1879 0.572668
v -0.89634 1.18772 0.52772
v -0.882878 1.13748 0.5645
v -0.922927 1.17633 0.468219
v -0.930493 1.11707 0.253756
v -0.930493 1.15749 0.413756
v -0.93345 1.11582 0.451322
v -0.917281 1.12699 0.51192
v -0.894709 1.08574 0.546093
v -0.920996 1.07448 0.487265
v -0.894078 1.03661 0.518848
v -0.833607 1.14627 0.603913
v -0.854548 1.08554 0.588114
v -0.858973 1.0335 0.562596
v -0.814125 1.03698 0.596251
v -0.797462 1.09343 0.620606
v -0.76295 1.04678 0.61725
v -0.71071 1.01105 0.600746
v -0.765565 0.996553 0.588114
v -0.713622 0.968224 0.5645
v -0.822652 0.988655 0.555622
v -0.863173 0.989953 0.513968
v -0.822206 0.953201 0.502696
v -0.769814 0.95251 0.538929
v -0.717857 0.936963 0.518015
v -0.774297 0.929155 0.485891
v -0.723092 0.919643 0.46483
v -0.659131 0.998804 0.576904
v -0.66338 0.954761 0.52772
v -0.669067 0.93138 0.474808
v -0.619756 0.957483 0.481374
v -0.609783 0.993158 0.533203
v -0.578914 0.995965 0.48403
v -0.578914 0.955553 0.32403
v -0.619756 0.917071 0.321374
v -0.587023 0.935711 0.27
v -0.669067 0.890968 0.314808
v -0.640619 0.897315 0.264517
v -0.723092 0.879231 0.30483
v -0.695353 0.879709 0.25598
v -0.670329 0.895411 0.208197
v -0.61361 0.924324 0.210499
v -0.649923 0.92514 0.165118
v -0.848557 0.962132 0.152443
v -0.834637 1.00037 0.11371
v -0.798901 0.948128 0.130214
v -0.812828 1.04464 0.0868747
v -0.780894 0.99 0.0941432
v -0.744076 0.944138 0.118626
v -0.78479 1.09158 0.0739793
v -0.751259 1.04423 0.0705227
v -0.715114 0.991392 0.0872152
v -0.688255 0.950468 0.118561
v -0.883427 1.00595 0.156917
v -0.906693 1.05538 0.17
v -0.866387 1.04848 0.121152
v -0.916586 1.10666 0.190695
v -0.8861 1.10836 0.141233
v -0.836752 1.10271 0.0975318
v -0.877844 0.95716 0.200125
v -0.895953 0.961516 0.253125
v -0.910089 1.00478 0.208555
v -0.901505 0.974868 0.307411
v -0.924155 1.01531 0.272338
v -0.901505 1.01528 0.467411
v -0.924155 1.05572 0.432338
v -0.929802 1.06466 0.228637
v -0.93345 1.07541 0.291322
v -0.825604 0.921424 0.183621
v -0.79545 0.892764 0.221374
v -0.851604 0.91929 0.235565
v -0.760389 0.878334 0.262829
v -0.812833 0.893672 0.282655
v -0.774297 0.888742 0.325891
v -0.812833 0.934085 0.442655
v -0.865671 0.929817 0.299347
v -0.865671 0.97023 0.459347
v -0.822206 0.912789 0.342696
v -0.771758 0.910154 0.164854
v -0.705977 0.911545 0.157926
v -0.732987 0.884536 0.211944
f 1 2 3
f 2 4 5
f 3 5 6
f 2 5 3
f 4 7 8
f 7 9 10
f 8 10 11
f 7 10 8
f 6 12 13
f 14 15 16
f 17 16 18
f 14 16 17
f 4 8 5
f 8 11 12
f 5 12 6
f 8 12 5
f 1 3 19
f 3 6 20
f 19 20 21
f 3 20 19
f 6 13 22
f 17 18 23
f 24 23 25
f 17 23 24
f 21 26 27
f 28 25 29
f 27 30 31
f 26 30 27
f 6 22 20
f 22 32 26
f 20 26 21
f 22 26 20
f 1 19 33
f 19 21 34
f 33 34 35
f 19 34 33
f 21 27 36
f 27 31 37
f 36 37 38
f 27 37 36
f 35 39 40
f 39 38 41
f 40 41 42
f 39 41 40
f 21 36 34
f 36 38 39
f 34 39 35
f 36 39 34
f 1 33 43
f 33 35 44
f 43 44 45
f 33 44 43
f 35 40 46
f 40 42 47
f 46 47 48
f 40 47 46
f 45 49 50
f 49 48 51
f 50 51 52
f 49 51 50
f 35 46 44
f 46 48 49
f 44 49 45
f 46 49 44
f 1 43 2
f 43 45 53
f 2 53 4
f 43 53 2
f 45 50 54
f 50 52 55
f 54 55 56
f 50 55 54
f 4 57 7
f 57 56 58
f 7 58 9
f 57 58 7
f 45 54 53
f 54 56 57
f 53 57 4
f 54 57 53
f 9 59 10
f 60 61 62
f 63 62 15
f 60 62 63
f 61 64 65
f 64 66 67
f 65 67 68
f 64 67 65
f 15 69 16
f 69 68 70
f 16 70 18
f 69 70 16
f 61 65 62
f 65 68 69
f 62 69 15
f 65 69 62
f 18 70 71
f 70 68 72
f 71 72 73
f 70 72 71
f 68 67 74
f 67 66 75
f 74 75 76
f 67 75 74
f 73 77 78
f 77 76 79
f 78 79 80
f 77 79 78
f 68 74 72
f 74 76 77
f 72 77 73
f 74 77 72
f 18 71 23
f 71 73 81
f 23 81 25
f 71 81 23
f 73 78 82
f 78 80 83
f 82 83 84
f 78 83 82
f 25 85 29
f 85 84 86
f 29 86 87
f 85 86 29
f 73 82 81
f 82 84 85
f 81 85 25
f 82 85 81
f 87 86 88
f 86 84 89
f 88 89 90
f 86 89 88
f 84 83 91
f 83 80 92
f 91 92 93
f 83 92 91
f 90 94 95
f 94 93 96
f 95 96 97
f 94 96 95
f 84 91 89
f 91 93 94
f 89 94 90
f 91 94 89
f 31 98 37
f 98 99 100
f 37 100 38
f 98 100 37
f 99 101 102
f 95 97 103
f 102 104 105
f 101 104 102
f 38 106 41
f 106 105 107
f 41 107 42
f 106 107 41
f 99 102 100
f 102 105 106
f 100 106 38
f 102 106 100
f 42 107 108
f 107 105 109
f 108 109 110
f 107 109 108
f 105 104 111
f 103 97 112
f 111 113 114
f 104 113 111
f 110 115 116
f 115 114 117
f 116 117 118
f 115 117 116
f 105 111 109
f 111 114 115
f 109 115 110
f 111 115 109
f 42 108 47
f 108 110 119
f 47 119 48
f 108 119 47
f 110 116 120
f 116 118 121
f 120 121 122
f 116 121 120
f 48 123 51
f 123 122 124
f 51 124 52
f 123 124 51
f 110 120 119
f 120 122 123
f 119 123 48
f 120 123 119
f 52 124 125
f 124 122 126
f 125 126 127
f 124 126 125
f 122 121 128
f 121 118 129
f 128 129 130
f 121 129 128
f 127 131 132
f 131 130 133
f 132 133 134
f 131 133 132
f 122 128 126
f 128 130 131
f 126 131 127
f 128 131 126
f 52 125 55
f 125 127 135
f 55 135 56
f 125 135 55
f 127 132 136
f 132 134 137
f 136 137 138
f 132 137 136
f 56 139 58
f 139 138 140
f 58 140 9
f 139 140 58
f 127 136 135
f 136 138 139
f 135 139 56
f 136 139 135
f 9 140 59
f 141 142 143
f 60 143 61
f 141 143 60
f 142 144 145
f 144 146 147
f 145 147 148
f 144 147 145
f 61 149 64
f 149 148 150
f 64 150 66
f 149 150 64
f 142 145 143
f 145 148 149
f 143 149 61
f 145 149 143
f 151 152 153
f 152 154 155
f 153 155 156
f 152 155 153
f 154 157 158
f 157 80 79
f 158 79 76
f 157 79 158
f 156 159 160
f 159 76 75
f 160 75 66
f 159 75 160
f 154 158 155
f 158 76 159
f 155 159 156
f 158 159 155
f 151 161 152
f 161 162 163
f 152 163 154
f 161 163 152
f 162 164 165
f 164 97 96
f 165 96 93
f 164 96 165
f 154 166 157
f 166 93 92
f 157 92 80
f 166 92 157
f 162 165 163
f 165 93 166
f 163 166 154
f 165 166 163
f 151 167 161
f 167 168 169
f 161 169 162
f 167 169 161
f 168 170 171
f 172 118 117
f 173 117 114
f 172 117 173
f 162 174 164
f 174 175 112
f 164 112 97
f 174 112 164
f 168 171 169
f 171 175 174
f 169 174 162
f 171 174 169
f 151 176 167
f 176 177 178
f 167 178 168
f 176 178 167
f 177 179 180
f 179 146 181
f 182 133 130
f 179 181 180
f 168 183 170
f 184 130 129
f 172 129 118
f 184 129 172
f 177 180 178
f 180 185 183
f 178 183 168
f 180 183 178
f 151 153 176
f 153 156 186
f 176 186 177
f 153 186 176
f 156 160 187
f 160 66 150
f 187 150 148
f 160 150 187
f 177 188 179
f 188 148 147
f 179 147 146
f 188 147 179
f 156 187 186
f 187 148 188
f 186 188 177
f 187 188 186
f 14 12 15
f 15 12 11
f 17 13 14
f 14 13 12
f 25 32 24
f 24 32 22
f 24 22 17
f 17 22 13
f 28 26 25
f 25 26 32
f 29 30 28
f 28 30 26
f 15 11 63
f 63 11 10
f 63 10 60
f 60 10 59
f 87 31 29
f 29 31 30
f 88 98 87
f 87 98 31
f 90 99 88
f 88 99 98
f 95 101 90
f 90 101 99
f 103 104 95
f 95 104 101
f 112 113 103
f 103 113 104
f 141 140 142
f 142 140 138
f 60 59 141
f 141 59 140
f 142 138 144
f 144 138 137
f 144 137 146
f 146 137 134
f 170 172 171
f 171 172 173
f 175 114 112
f 112 114 113
f 171 173 175
f 175 173 114
f 146 134 181
f 181 134 133
f 181 133 180
f 180 133 182
f 183 184 170
f 170 184 172
f 180 182 185
f 185 182 130
f 185 130 183
f 183 130 184
