v -0.613443 1.24513 0.627557
v -0.578573 1.20131 0.623083
v -0.584156 1.2501 0.579876
v -0.555307 1.15188 0.61
v -0.551911 1.20248 0.571445
v -0.566047 1.24575 0.526875
v -0.545414 1.1006 0.589305
v -0.532198 1.1426 0.551364
v -0.549649 1.05137 0.562573
v -0.531507 1.09019 0.526244
v -0.52855 1.13186 0.488678
v -0.537845 1.19195 0.507662
v -0.560495 1.2324 0.472589
v -0.537845 1.18448 0.427662
v -0.52855 1.12438 0.408678
v -0.541004 1.16572 0.372735
v -0.560495 1.22492 0.392589
v -0.567922 1.20359 0.341152
v -0.636396 1.28584 0.596379
v -0.610396 1.28797 0.544436
v -0.66655 1.3145 0.558626
v -0.566047 1.23827 0.446875
v -0.596329 1.26997 0.400653
v -0.598827 1.25025 0.346032
v -0.639793 1.287 0.357304
v -0.649166 1.31359 0.497345
v -0.701611 1.32893 0.517171
v -0.649166 1.30612 0.417345
v -0.687703 1.31105 0.37411
v -0.701611 1.32146 0.437171
v -0.738908 1.32056 0.39517
v -0.596329 1.27745 0.480653
v -0.663099 1.25914 0.649786
v -0.690242 1.29711 0.615146
v -0.717924 1.26312 0.661374
v -0.729013 1.32273 0.568056
v -0.738908 1.32803 0.47517
v -0.766646 1.32755 0.52402
v -0.791671 1.31185 0.571804
v -0.756022 1.29572 0.622074
v -0.773745 1.2568 0.661439
v -0.812077 1.28212 0.614882
v -0.826311 1.24063 0.649976
v -0.627363 1.2069 0.66629
v -0.681106 1.21726 0.685857
v -0.649172 1.16262 0.693125
v -0.746886 1.21587 0.692785
v -0.803044 1.20318 0.684793
v -0.774293 1.15997 0.706303
v -0.710741 1.16303 0.709478
v -0.67721 1.11568 0.706021
v -0.742246 1.1143 0.71287
v -0.709343 1.06964 0.703995
v -0.595613 1.15878 0.658848
v -0.625248 1.10455 0.682468
v -0.65772 1.05648 0.686167
v -0.611675 1.04873 0.654929
v -0.5759 1.0989 0.638767
v -0.574714 1.04698 0.612658
v -0.552211 1.03014 0.510623
v -0.552211 1.02267 0.430623
v -0.568382 1.00886 0.378626
v -0.539072 1.06387 0.391781
v -0.531507 1.08272 0.446244
v -0.596932 1.00351 0.330539
v -0.56566 1.05248 0.33228
v -0.635688 1.00705 0.290024
v -0.602515 1.0523 0.287332
v -0.579122 1.10272 0.2955
v -0.544719 1.11322 0.34808
v -0.567291 1.15446 0.313907
v -0.603027 1.2067 0.297404
v -0.607452 1.15467 0.271886
v -0.647875 1.20323 0.263749
v -0.628393 1.09393 0.256087
v -0.658955 1.0445 0.255207
v -0.687707 1.0877 0.233697
v -0.664538 1.14677 0.239394
v -0.69905 1.19342 0.24275
v -0.719754 1.13337 0.22713
v -0.752657 1.17803 0.236006
v -0.639348 1.25155 0.304378
v -0.696434 1.24365 0.271886
v -0.75129 1.22916 0.259254
v -0.748378 1.27198 0.2955
v -0.692186 1.28769 0.321071
v -0.744143 1.30324 0.341985
v -0.792933 1.30882 0.385192
v -0.79862 1.28544 0.33228
v -0.842243 1.28272 0.378626
v -0.802869 1.2414 0.283096
v -0.80428 1.19119 0.253833
v -0.850325 1.19894 0.285071
v -0.852217 1.24704 0.326797
v -0.883086 1.24424 0.37597
v -0.887286 1.20069 0.327342
v -0.91235 1.19631 0.377427
v -0.766646 1.32008 0.44402
v -0.821381 1.30248 0.435483
v -0.821381 1.30995 0.515483
v -0.792933 1.3163 0.465192
v -0.874977 1.26408 0.43
v -0.909789 1.21753 0.429377
v -0.874977 1.27155 0.51
v -0.909789 1.22501 0.509377
v -0.893618 1.23882 0.561374
v -0.84839 1.28294 0.569501
v -0.865067 1.24416 0.609461
v -0.842243 1.29019 0.458626
v -0.859485 1.19537 0.652668
v -0.89634 1.19519 0.60772
v -0.882878 1.14495 0.6445
v -0.922927 1.18381 0.548219
v -0.930493 1.15749 0.413756
v -0.930493 1.16496 0.493756
v -0.93345 1.12329 0.531322
v -0.917281 1.13446 0.59192
v -0.894709 1.09321 0.626093
v -0.920996 1.08195 0.567265
v -0.894078 1.04409 0.598848
v -0.833607 1.15374 0.683913
v -0.854548 1.09301 0.668114
v -0.858973 1.04097 0.642596
v -0.814125 1.04445 0.676251
v -0.797462 1.10091 0.700606
v -0.76295 1.05426 0.69725
v -0.71071 1.01852 0.680746
v -0.765565 1.00403 0.668114
v -0.713622 0.975697 0.6445
v -0.822652 0.996129 0.635622
v -0.863173 0.997426 0.593968
v -0.822206 0.960675 0.582696
v -0.769814 0.959983 0.61893
v -0.717857 0.944436 0.598015
v -0.774297 0.936628 0.565891
v -0.723092 0.927117 0.54483
v -0.659131 1.00628 0.656904
v -0.66338 0.962235 0.60772
v -0.669067 0.938854 0.554808
v -0.619756 0.964957 0.561374
v -0.609783 1.00063 0.613203
v -0.578914 1.00344 0.56403
v -0.587023 0.983597 0.51
v -0.587023 0.976124 0.43
v -0.640619 0.945201 0.504517
v -0.695353 0.927595 0.49598
v -0.640619 0.937727 0.424517
v -0.695353 0.920122 0.41598
v -0.670329 0.935823 0.368197
v -0.669067 0.93138 0.474808
v -0.61361 0.964736 0.370499
v -0.649923 0.965553 0.325118
v -0.619756 0.957483 0.481374
v -0.848557 1.00254 0.312443
v -0.834637 1.04078 0.27371
v -0.798901 0.98854 0.290214
v -0.812828 1.08505 0.246875
v -0.780894 1.03041 0.254143
v -0.744076 0.984551 0.278626
v -0.78479 1.132 0.233979
v -0.751259 1.08464 0.230523
v -0.715114 1.0318 0.247215
v -0.688255 0.990881 0.278561
v -0.883427 1.04636 0.316917
v -0.906693 1.09579 0.33
v -0.866387 1.0889 0.281152
v -0.916586 1.14708 0.350695
v -0.8861 1.14877 0.301233
v -0.836752 1.14313 0.257532
v -0.877844 0.997573 0.360125
v -0.895953 1.00193 0.413125
v -0.910089 1.0452 0.368555
v -0.901505 1.01528 0.467411
v -0.924155 1.05572 0.432338
v -0.901505 1.02275 0.547411
v -0.924155 1.0632 0.512338
v -0.929802 1.10507 0.388637
v -0.93345 1.11582 0.451322
v -0.825604 0.961837 0.343621
v -0.79545 0.933177 0.381374
v -0.851604 0.959702 0.395564
v -0.760389 0.918746 0.422829
v -0.812833 0.934085 0.442655
v -0.760389 0.92622 0.502829
v -0.812833 0.941558 0.522655
v -0.895953 1.0094 0.493125
v -0.865671 0.977703 0.539347
v -0.865671 0.97023 0.459347
v -0.771758 0.950566 0.324854
v -0.705977 0.951958 0.317926
v -0.732987 0.924949 0.371944
v -0.723092 0.919643 0.46483
f 1 2 3
f 2 4 5
f 3 5 6
f 2 5 3
f 4 7 8
f 7 9 10
f 8 10 11
f 7 10 8
f 6 12 13
f 14 15 16
f 17 16 18
f 14 16 17
f 4 8 5
f 8 11 12
f 5 12 6
f 8 12 5
f 1 3 19
f 3 6 20
f 19 20 21
f 3 20 19
f 22 17 23
f 17 18 24
f 23 24 25
f 17 24 23
f 21 26 27
f 28 25 29
f 30 29 31
f 28 29 30
f 6 32 20
f 23 25 28
f 20 26 21
f 32 26 20
f 1 19 33
f 19 21 34
f 33 34 35
f 19 34 33
f 21 27 36
f 27 37 38
f 36 38 39
f 27 38 36
f 35 40 41
f 40 39 42
f 41 42 43
f 40 42 41
f 21 36 34
f 36 39 40
f 34 40 35
f 36 40 34
f 1 33 44
f 33 35 45
f 44 45 46
f 33 45 44
f 35 41 47
f 41 43 48
f 47 48 49
f 41 48 47
f 46 50 51
f 50 49 52
f 51 52 53
f 50 52 51
f 35 47 45
f 47 49 50
f 45 50 46
f 47 50 45
f 1 44 2
f 44 46 54
f 2 54 4
f 44 54 2
f 46 51 55
f 51 53 56
f 55 56 57
f 51 56 55
f 4 58 7
f 58 57 59
f 7 59 9
f 58 59 7
f 46 55 54
f 55 57 58
f 54 58 4
f 55 58 54
f 9 60 10
f 61 62 63
f 64 63 15
f 61 63 64
f 62 65 66
f 65 67 68
f 66 68 69
f 65 68 66
f 15 70 16
f 70 69 71
f 16 71 18
f 70 71 16
f 62 66 63
f 66 69 70
f 63 70 15
f 66 70 63
f 18 71 72
f 71 69 73
f 72 73 74
f 71 73 72
f 69 68 75
f 68 67 76
f 75 76 77
f 68 76 75
f 74 78 79
f 78 77 80
f 79 80 81
f 78 80 79
f 69 75 73
f 75 77 78
f 73 78 74
f 75 78 73
f 18 72 24
f 72 74 82
f 24 82 25
f 72 82 24
f 74 79 83
f 79 81 84
f 83 84 85
f 79 84 83
f 25 86 29
f 86 85 87
f 29 87 31
f 86 87 29
f 74 83 82
f 83 85 86
f 82 86 25
f 83 86 82
f 31 87 88
f 87 85 89
f 88 89 90
f 87 89 88
f 85 84 91
f 84 81 92
f 91 92 93
f 84 92 91
f 90 94 95
f 94 93 96
f 95 96 97
f 94 96 95
f 85 91 89
f 91 93 94
f 89 94 90
f 91 94 89
f 31 88 98
f 88 90 99
f 38 100 39
f 101 100 38
f 90 95 102
f 95 97 103
f 104 105 106
f 95 103 102
f 39 107 42
f 107 106 108
f 42 108 43
f 107 108 42
f 109 104 100
f 104 106 107
f 100 107 39
f 104 107 100
f 43 108 110
f 108 106 111
f 110 111 112
f 108 111 110
f 106 105 113
f 103 97 114
f 113 115 116
f 105 115 113
f 112 117 118
f 117 116 119
f 118 119 120
f 117 119 118
f 106 113 111
f 113 116 117
f 111 117 112
f 113 117 111
f 43 110 48
f 110 112 121
f 48 121 49
f 110 121 48
f 112 118 122
f 118 120 123
f 122 123 124
f 118 123 122
f 49 125 52
f 125 124 126
f 52 126 53
f 125 126 52
f 112 122 121
f 122 124 125
f 121 125 49
f 122 125 121
f 53 126 127
f 126 124 128
f 127 128 129
f 126 128 127
f 124 123 130
f 123 120 131
f 130 131 132
f 123 131 130
f 129 133 134
f 133 132 135
f 134 135 136
f 133 135 134
f 124 130 128
f 130 132 133
f 128 133 129
f 130 133 128
f 53 127 56
f 127 129 137
f 56 137 57
f 127 137 56
f 129 134 138
f 134 136 139
f 138 139 140
f 134 139 138
f 57 141 59
f 141 140 142
f 59 142 9
f 141 142 59
f 129 138 137
f 138 140 141
f 137 141 57
f 138 141 137
f 9 142 60
f 142 140 143
f 61 144 62
f 142 143 60
f 140 139 145
f 139 136 146
f 147 148 149
f 150 148 147
f 62 151 65
f 151 149 152
f 65 152 67
f 151 152 65
f 153 147 144
f 147 149 151
f 144 151 62
f 147 151 144
f 154 155 156
f 155 157 158
f 156 158 159
f 155 158 156
f 157 160 161
f 160 81 80
f 161 80 77
f 160 80 161
f 159 162 163
f 162 77 76
f 163 76 67
f 162 76 163
f 157 161 158
f 161 77 162
f 158 162 159
f 161 162 158
f 154 164 155
f 164 165 166
f 155 166 157
f 164 166 155
f 165 167 168
f 167 97 96
f 168 96 93
f 167 96 168
f 157 169 160
f 169 93 92
f 160 92 81
f 169 92 160
f 165 168 166
f 168 93 169
f 166 169 157
f 168 169 166
f 154 170 164
f 170 171 172
f 164 172 165
f 170 172 164
f 171 173 174
f 175 120 119
f 176 119 116
f 175 119 176
f 165 177 167
f 177 178 114
f 167 114 97
f 177 114 167
f 171 174 172
f 174 178 177
f 172 177 165
f 174 177 172
f 154 179 170
f 179 180 181
f 170 181 171
f 179 181 170
f 180 182 183
f 184 136 135
f 185 135 132
f 184 135 185
f 186 187 175
f 187 132 131
f 175 131 120
f 187 131 175
f 180 183 181
f 185 132 187
f 181 188 171
f 183 188 181
f 154 156 179
f 156 159 189
f 179 189 180
f 156 189 179
f 159 163 190
f 163 67 152
f 190 152 149
f 163 152 190
f 180 191 182
f 191 149 148
f 182 148 192
f 191 148 182
f 159 190 189
f 190 149 191
f 189 191 180
f 190 191 189
f 14 12 15
f 15 12 11
f 17 13 14
f 14 13 12
f 22 6 17
f 17 6 13
f 23 32 22
f 22 32 6
f 31 37 30
f 30 37 27
f 30 27 28
f 28 27 26
f 28 26 23
f 23 26 32
f 15 11 64
f 64 11 10
f 64 10 61
f 61 10 60
f 88 101 98
f 98 101 38
f 98 38 31
f 31 38 37
f 90 109 99
f 99 109 100
f 99 100 88
f 88 100 101
f 102 104 90
f 90 104 109
f 103 105 102
f 102 105 104
f 114 115 103
f 103 115 105
f 61 60 144
f 144 60 143
f 150 139 148
f 148 139 146
f 147 145 150
f 150 145 139
f 153 140 147
f 147 140 145
f 144 143 153
f 153 143 140
f 171 186 173
f 173 186 175
f 173 175 174
f 174 175 176
f 178 116 114
f 114 116 115
f 174 176 178
f 178 176 116
f 182 184 183
f 183 184 185
f 188 187 171
f 171 187 186
f 183 185 188
f 188 185 187
f 148 146 192
f 192 146 136
f 192 136 182
f 182 136 184
