v 0.706557 1.07751 0.707557
v 0.741427 1.03369 0.703083
v 0.735844 1.08248 0.659876
v 0.764694 0.984261 0.69
v 0.768089 1.03486 0.651445
v 0.753953 1.07813 0.606875
v 0.774586 0.932979 0.669305
v 0.787802 0.974984 0.631364
v 0.770351 0.88375 0.642573
v 0.788493 0.92257 0.606244
v 0.79145 0.964236 0.568678
v 0.753953 1.07924 0.566875
v 0.782156 1.02545 0.547662
v 0.759506 1.06589 0.512589
v 0.79145 0.965354 0.528678
v 0.778996 1.00669 0.492735
v 0.752078 1.04456 0.461152
v 0.782156 1.02433 0.587662
v 0.683604 1.11822 0.676379
v 0.709605 1.12035 0.624436
v 0.65345 1.14688 0.638626
v 0.723671 1.11094 0.520653
v 0.721173 1.09122 0.466032
v 0.680207 1.12797 0.477304
v 0.670834 1.14597 0.577345
v 0.61839 1.16131 0.597171
v 0.670834 1.14709 0.537345
v 0.632297 1.15202 0.49411
v 0.61839 1.16243 0.557171
v 0.581092 1.16153 0.51517
v 0.723671 1.10983 0.560653
v 0.709605 1.12147 0.584436
v 0.656901 1.09152 0.729786
v 0.629758 1.12949 0.695146
v 0.602076 1.0955 0.741374
v 0.590987 1.15511 0.648056
v 0.553354 1.16105 0.56402
v 0.553354 1.15993 0.60402
v 0.528329 1.14423 0.651804
v 0.563978 1.1281 0.702074
v 0.546255 1.08917 0.74144
v 0.507923 1.1145 0.694882
v 0.493689 1.07301 0.729977
v 0.692637 1.03928 0.74629
v 0.638894 1.04964 0.765857
v 0.670828 0.995001 0.773126
v 0.573114 1.04825 0.772785
v 0.516956 1.03556 0.764793
v 0.545707 0.992354 0.786303
v 0.609259 0.995413 0.789478
v 0.64279 0.948059 0.786021
v 0.577754 0.946683 0.792871
v 0.610657 0.902022 0.783995
v 0.724387 0.991158 0.738848
v 0.694752 0.936929 0.762468
v 0.66228 0.888861 0.766167
v 0.708325 0.881111 0.734929
v 0.7441 0.931282 0.718767
v 0.745286 0.879363 0.692658
v 0.767789 0.862522 0.590623
v 0.767789 0.86364 0.550623
v 0.751618 0.849828 0.498626
v 0.780928 0.904839 0.511781
v 0.788493 0.923688 0.566244
v 0.723068 0.844485 0.450539
v 0.75434 0.893452 0.45228
v 0.684312 0.848017 0.410024
v 0.717485 0.893275 0.407332
v 0.740878 0.943694 0.4155
v 0.775281 0.954187 0.46808
v 0.752709 0.995436 0.433907
v 0.716973 1.04768 0.417404
v 0.712549 0.995637 0.391886
v 0.672126 1.0442 0.383749
v 0.691608 0.934902 0.376087
v 0.661045 0.885467 0.375207
v 0.632293 0.928672 0.353697
v 0.655462 0.98774 0.359394
v 0.620951 1.03439 0.36275
v 0.600246 0.974343 0.34713
v 0.567343 1.019 0.356006
v 0.680652 1.09252 0.424378
v 0.623566 1.08462 0.391886
v 0.568711 1.07013 0.379254
v 0.571622 1.11295 0.4155
v 0.627814 1.12866 0.441071
v 0.575857 1.14421 0.461985
v 0.527067 1.14979 0.505192
v 0.52138 1.12641 0.45228
v 0.477757 1.12369 0.498626
v 0.517131 1.08237 0.403096
v 0.51572 1.03217 0.373833
v 0.469675 1.03992 0.405071
v 0.467783 1.08802 0.446797
v 0.436915 1.08521 0.49597
v 0.432714 1.04166 0.447342
v 0.40765 1.03728 0.497427
v 0.498619 1.14345 0.555483
v 0.498619 1.14233 0.595483
v 0.445023 1.10505 0.55
v 0.410211 1.0585 0.549377
v 0.445023 1.10393 0.59
v 0.410211 1.05739 0.589377
v 0.426382 1.0712 0.641374
v 0.47161 1.11532 0.649501
v 0.454933 1.07654 0.689461
v 0.460515 1.02775 0.732668
v 0.42366 1.02757 0.68772
v 0.437123 0.977332 0.7245
v 0.397073 1.01619 0.628219
v 0.389507 0.998456 0.533756
v 0.389507 0.997338 0.573756
v 0.38655 0.955672 0.611322
v 0.402719 0.966839 0.67192
v 0.425291 0.92559 0.706093
v 0.399005 0.914332 0.647265
v 0.425922 0.876465 0.678848
v 0.486393 0.986124 0.763914
v 0.465452 0.925389 0.748114
v 0.461028 0.87335 0.722597
v 0.505875 0.876829 0.756251
v 0.522538 0.933286 0.780606
v 0.55705 0.886635 0.77725
v 0.60929 0.850898 0.760746
v 0.554435 0.836406 0.748114
v 0.606378 0.808076 0.7245
v 0.497348 0.828508 0.715622
v 0.456827 0.829806 0.673968
v 0.497794 0.793054 0.662696
v 0.550186 0.792363 0.69893
v 0.602144 0.776816 0.678015
v 0.545703 0.769007 0.645891
v 0.596909 0.759496 0.62483
v 0.660869 0.838657 0.736904
v 0.656621 0.794614 0.68772
v 0.650933 0.771233 0.634808
v 0.700244 0.797336 0.641374
v 0.710217 0.83301 0.693203
v 0.741086 0.835818 0.64403
v 0.732978 0.815977 0.59
v 0.732978 0.817095 0.55
v 0.679381 0.77758 0.584517
v 0.624647 0.759975 0.57598
v 0.679381 0.778698 0.544517
v 0.624647 0.761093 0.53598
v 0.649671 0.776794 0.488197
v 0.70639 0.805707 0.490499
v 0.670077 0.806523 0.445118
v 0.471443 0.843515 0.432443
v 0.485363 0.881751 0.39371
v 0.521099 0.829511 0.410214
v 0.507172 0.926025 0.366875
v 0.539106 0.871384 0.374143
v 0.575925 0.825522 0.398626
v 0.53521 0.972967 0.353979
v 0.568741 0.925613 0.350523
v 0.604886 0.872775 0.367215
v 0.631745 0.831851 0.398561
v 0.436573 0.887334 0.436917
v 0.413307 0.936765 0.45
v 0.453613 0.929868 0.401152
v 0.403415 0.988047 0.470695
v 0.4339 0.989744 0.421233
v 0.483248 0.984097 0.377532
v 0.442156 0.838544 0.480125
v 0.424047 0.8429 0.533125
v 0.409912 0.886166 0.488555
v 0.424047 0.841782 0.573126
v 0.418495 0.855134 0.627411
v 0.395845 0.895576 0.592338
v 0.390198 0.946042 0.508637
v 0.38655 0.95679 0.571322
v 0.395845 0.896694 0.552338
v 0.494396 0.802807 0.463621
v 0.52455 0.774148 0.501374
v 0.468396 0.800673 0.515565
v 0.559611 0.759717 0.542829
v 0.507167 0.775055 0.562655
v 0.559611 0.758599 0.582829
v 0.507167 0.773938 0.602655
v 0.454329 0.810083 0.619347
v 0.454329 0.811201 0.579347
v 0.468396 0.799555 0.555565
v 0.548243 0.791537 0.444854
v 0.614023 0.792928 0.437926
v 0.587014 0.765919 0.491944
f 1 2 3
f 2 4 5
f 3 5 6
f 2 5 3
f 4 7 8
f 7 9 10
f 8 10 11
f 7 10 8
f 12 13 14
f 13 15 16
f 14 16 17
f 13 16 14
f 4 8 5
f 8 11 18
f 5 18 6
f 8 18 5
f 1 3 19
f 3 6 20
f 19 20 21
f 3 20 19
f 12 14 22
f 14 17 23
f 22 23 24
f 14 23 22
f 21 25 26
f 27 24 28
f 29 28 30
f 27 28 29
f 6 31 20
f 22 24 27
f 20 25 21
f 22 27 32
f 1 19 33
f 19 21 34
f 33 34 35
f 19 34 33
f 21 26 36
f 29 30 37
f 36 38 39
f 26 38 36
f 35 40 41
f 40 39 42
f 41 42 43
f 40 42 41
f 21 36 34
f 36 39 40
f 34 40 35
f 36 40 34
f 1 33 44
f 33 35 45
f 44 45 46
f 33 45 44
f 35 41 47
f 41 43 48
f 47 48 49
f 41 48 47
f 46 50 51
f 50 49 52
f 51 52 53
f 50 52 51
f 35 47 45
f 47 49 50
f 45 50 46
f 47 50 45
f 1 44 2
f 44 46 54
f 2 54 4
f 44 54 2
f 46 51 55
f 51 53 56
f 55 56 57
f 51 56 55
f 4 58 7
f 58 57 59
f 7 59 9
f 58 59 7
f 46 55 54
f 55 57 58
f 54 58 4
f 55 58 54
f 9 60 10
f 61 62 63
f 64 63 15
f 61 63 64
f 62 65 66
f 65 67 68
f 66 68 69
f 65 68 66
f 15 70 16
f 70 69 71
f 16 71 17
f 70 71 16
f 62 66 63
f 66 69 70
f 63 70 15
f 66 70 63
f 17 71 72
f 71 69 73
f 72 73 74
f 71 73 72
f 69 68 75
f 68 67 76
f 75 76 77
f 68 76 75
f 74 78 79
f 78 77 80
f 79 80 81
f 78 80 79
f 69 75 73
f 75 77 78
f 73 78 74
f 75 78 73
f 17 72 23
f 72 74 82
f 23 82 24
f 72 82 23
f 74 79 83
f 79 81 84
f 83 84 85
f 79 84 83
f 24 86 28
f 86 85 87
f 28 87 30
f 86 87 28
f 74 83 82
f 83 85 86
f 82 86 24
f 83 86 82
f 30 87 88
f 87 85 89
f 88 89 90
f 87 89 88
f 85 84 91
f 84 81 92
f 91 92 93
f 84 92 91
f 90 94 95
f 94 93 96
f 95 96 97
f 94 96 95
f 85 91 89
f 91 93 94
f 89 94 90
f 91 94 89
f 30 88 37
f 88 90 98
f 38 99 39
f 88 98 37
f 90 95 100
f 95 97 101
f 102 103 104
f 95 101 100
f 39 105 42
f 105 104 106
f 42 106 43
f 105 106 42
f 90 100 98
f 102 104 105
f 99 105 39
f 102 105 99
f 43 106 107
f 106 104 108
f 107 108 109
f 106 108 107
f 104 103 110
f 101 97 111
f 110 112 113
f 103 112 110
f 109 114 115
f 114 113 116
f 115 116 117
f 114 116 115
f 104 110 108
f 110 113 114
f 108 114 109
f 110 114 108
f 43 107 48
f 107 109 118
f 48 118 49
f 107 118 48
f 109 115 119
f 115 117 120
f 119 120 121
f 115 120 119
f 49 122 52
f 122 121 123
f 52 123 53
f 122 123 52
f 109 119 118
f 119 121 122
f 118 122 49
f 119 122 118
f 53 123 124
f 123 121 125
f 124 125 126
f 123 125 124
f 121 120 127
f 120 117 128
f 127 128 129
f 120 128 127
f 126 130 131
f 130 129 132
f 131 132 133
f 130 132 131
f 121 127 125
f 127 129 130
f 125 130 126
f 127 130 125
f 53 124 56
f 124 126 134
f 56 134 57
f 124 134 56
f 126 131 135
f 131 133 136
f 135 136 137
f 131 136 135
f 57 138 59
f 138 137 139
f 59 139 9
f 138 139 59
f 126 135 134
f 135 137 138
f 134 138 57
f 135 138 134
f 9 139 60
f 139 137 140
f 61 141 62
f 139 140 60
f 137 136 142
f 136 133 143
f 144 145 146
f 136 143 142
f 62 147 65
f 147 146 148
f 65 148 67
f 147 148 65
f 137 142 140
f 144 146 147
f 141 147 62
f 144 147 141
f 149 150 151
f 150 152 153
f 151 153 154
f 150 153 151
f 152 155 156
f 155 81 80
f 156 80 77
f 155 80 156
f 154 157 158
f 157 77 76
f 158 76 67
f 157 76 158
f 152 156 153
f 156 77 157
f 153 157 154
f 156 157 153
f 149 159 150
f 159 160 161
f 150 161 152
f 159 161 150
f 160 162 163
f 162 97 96
f 163 96 93
f 162 96 163
f 152 164 155
f 164 93 92
f 155 92 81
f 164 92 155
f 160 163 161
f 163 93 164
f 161 164 152
f 163 164 161
f 149 165 159
f 165 166 167
f 159 167 160
f 165 167 159
f 168 169 170
f 169 117 116
f 170 116 113
f 169 116 170
f 160 171 162
f 171 172 111
f 162 111 97
f 171 111 162
f 166 173 167
f 173 172 171
f 167 171 160
f 173 171 167
f 149 174 165
f 174 175 176
f 165 176 166
f 174 176 165
f 175 177 178
f 179 133 132
f 180 132 129
f 179 132 180
f 168 181 169
f 181 129 128
f 169 128 117
f 181 128 169
f 175 178 176
f 180 129 181
f 176 182 166
f 180 181 183
f 149 151 174
f 151 154 184
f 174 184 175
f 151 184 174
f 154 158 185
f 158 67 148
f 185 148 146
f 158 148 185
f 175 186 177
f 186 146 145
f 179 143 133
f 186 145 177
f 154 185 184
f 185 146 186
f 184 186 175
f 185 186 184
f 10 64 11
f 11 64 15
f 11 15 18
f 18 15 13
f 18 13 6
f 6 13 12
f 25 27 26
f 26 27 29
f 6 12 31
f 31 12 22
f 31 22 20
f 20 22 32
f 20 32 25
f 25 32 27
f 26 29 38
f 38 29 37
f 60 61 10
f 10 61 64
f 38 37 99
f 99 37 98
f 102 100 103
f 103 100 101
f 99 98 102
f 102 98 100
f 112 111 113
f 113 111 172
f 103 101 112
f 112 101 111
f 140 141 60
f 60 141 61
f 143 145 142
f 142 145 144
f 142 144 140
f 140 144 141
f 170 173 168
f 168 173 166
f 113 172 170
f 170 172 173
f 180 178 179
f 179 178 177
f 168 166 181
f 181 166 182
f 181 182 183
f 183 182 176
f 183 176 180
f 180 176 178
f 179 177 143
f 143 177 145
