v -0.613443 1.24192 0.667557
v -0.578573 1.1981 0.663083
v -0.584156 1.24689 0.619875
v -0.555307 1.14867 0.65
v -0.551911 1.19927 0.611445
v -0.566047 1.24254 0.566875
v -0.545414 1.09739 0.629305
v -0.532198 1.1394 0.591364
v -0.549649 1.04816 0.602573
v -0.531507 1.08698 0.566244
v -0.52855 1.12865 0.528678
v -0.566047 1.24575 0.526875
v -0.537845 1.19195 0.507662
v -0.560495 1.2324 0.472589
v -0.52855 1.13186 0.488678
v -0.541004 1.1732 0.452735
v -0.567922 1.21106 0.421152
v -0.537845 1.18874 0.547662
v -0.636396 1.28263 0.636379
v -0.610396 1.28476 0.584436
v -0.66655 1.31129 0.598626
v -0.596329 1.27745 0.480653
v -0.598827 1.25772 0.426032
v -0.639793 1.29447 0.437304
v -0.66655 1.3145 0.558626
v -0.649166 1.31359 0.497345
v -0.701611 1.32893 0.517171
v -0.687703 1.31852 0.45411
v -0.738908 1.32803 0.47517
v -0.610396 1.28797 0.544436
v -0.649166 1.31038 0.537345
v -0.663099 1.25593 0.689786
v -0.690242 1.2939 0.655146
v -0.717924 1.25992 0.701374
v -0.701611 1.32572 0.557171
v -0.729013 1.31952 0.608056
v -0.766646 1.32755 0.52402
v -0.766646 1.32435 0.56402
v -0.791671 1.30864 0.611803
v -0.756022 1.29251 0.662074
v -0.773745 1.25359 0.701439
v -0.812077 1.27891 0.654882
v -0.826311 1.23742 0.689976
v -0.627363 1.20369 0.70629
v -0.681106 1.21405 0.725857
v -0.649172 1.15941 0.733125
v -0.746886 1.21266 0.732785
v -0.803044 1.19997 0.724793
v -0.774293 1.15677 0.746303
v -0.710741 1.15982 0.749478
v -0.67721 1.11247 0.746021
v -0.742246 1.11109 0.75287
v -0.709343 1.06643 0.743995
v -0.595613 1.15557 0.698848
v -0.625248 1.10134 0.722468
v -0.65772 1.05327 0.726167
v -0.611675 1.04552 0.694929
v -0.5759 1.09569 0.678767
v -0.574714 1.04377 0.652658
v -0.552211 1.02693 0.550623
v -0.552211 1.03014 0.510623
v -0.568382 1.01633 0.458626
v -0.539072 1.07134 0.471781
v -0.531507 1.09019 0.526244
v -0.539072 1.06813 0.511781
v -0.596932 1.01099 0.410539
v -0.56566 1.05995 0.41228
v -0.635688 1.01452 0.370024
v -0.602515 1.05978 0.367332
v -0.579122 1.1102 0.3755
v -0.544719 1.12069 0.42808
v -0.567291 1.16194 0.393907
v -0.603027 1.21418 0.377404
v -0.607452 1.16214 0.351886
v -0.647875 1.2107 0.343749
v -0.628393 1.1014 0.336087
v -0.658955 1.05197 0.335208
v -0.687707 1.09517 0.313697
v -0.664538 1.15424 0.319394
v -0.69905 1.20089 0.32275
v -0.719754 1.14085 0.30713
v -0.752657 1.18551 0.316006
v -0.639348 1.25902 0.384378
v -0.696434 1.25112 0.351886
v -0.75129 1.23663 0.339254
v -0.748378 1.27945 0.3755
v -0.692186 1.29517 0.401071
v -0.744143 1.31071 0.421985
v -0.792933 1.3163 0.465192
v -0.79862 1.29291 0.41228
v -0.842243 1.29019 0.458626
v -0.802869 1.24887 0.363096
v -0.80428 1.19867 0.333833
v -0.850325 1.20642 0.365071
v -0.852217 1.25452 0.406797
v -0.883086 1.25171 0.45597
v -0.887286 1.20817 0.407342
v -0.91235 1.20378 0.457427
v -0.821381 1.30995 0.515483
v -0.821381 1.30674 0.555483
v -0.874977 1.27155 0.51
v -0.909789 1.22501 0.509377
v -0.874977 1.26834 0.55
v -0.909789 1.2218 0.549377
v -0.893618 1.23561 0.601374
v -0.84839 1.27973 0.609501
v -0.865067 1.24095 0.649461
v -0.859485 1.19216 0.692668
v -0.89634 1.19199 0.64772
v -0.882878 1.14174 0.6845
v -0.922927 1.1806 0.588219
v -0.930493 1.16496 0.493756
v -0.930493 1.16175 0.533756
v -0.93345 1.12008 0.571322
v -0.922927 1.18381 0.548219
v -0.917281 1.13125 0.63192
v -0.894709 1.09 0.666093
v -0.920996 1.07874 0.607265
v -0.894078 1.04088 0.638848
v -0.833607 1.15054 0.723913
v -0.854548 1.0898 0.708114
v -0.858973 1.03776 0.682596
v -0.814125 1.04124 0.716251
v -0.797462 1.0977 0.740606
v -0.76295 1.05105 0.73725
v -0.71071 1.01531 0.720746
v -0.765565 1.00082 0.708114
v -0.713622 0.972488 0.6845
v -0.822652 0.99292 0.675622
v -0.863173 0.994218 0.633968
v -0.822206 0.957466 0.622696
v -0.769814 0.956775 0.658929
v -0.717857 0.941228 0.638015
v -0.774297 0.933419 0.605891
v -0.723092 0.923908 0.58483
v -0.659131 1.00307 0.696904
v -0.66338 0.959026 0.64772
v -0.669067 0.935645 0.594808
v -0.619756 0.961748 0.601374
v -0.609783 0.997422 0.653203
v -0.578914 1.00023 0.60403
v -0.587023 0.980389 0.55
v -0.587023 0.983597 0.51
v -0.640619 0.941992 0.544517
v -0.695353 0.924387 0.53598
v -0.640619 0.945201 0.504517
v -0.695353 0.927595 0.49598
v -0.670329 0.943297 0.448197
v -0.61361 0.97221 0.450499
v -0.649923 0.973026 0.405118
v -0.848557 1.01002 0.392443
v -0.834637 1.04825 0.35371
v -0.798901 0.996014 0.370214
v -0.812828 1.09253 0.326875
v -0.780894 1.03789 0.334143
v -0.744076 0.992025 0.358626
v -0.78479 1.13947 0.313979
v -0.751259 1.09212 0.310523
v -0.715114 1.03928 0.327215
v -0.688255 0.998354 0.358561
v -0.883427 1.05384 0.396917
v -0.906693 1.10327 0.41
v -0.866387 1.09637 0.361152
v -0.916586 1.15455 0.430695
v -0.8861 1.15625 0.381233
v -0.836752 1.1506 0.337532
v -0.877844 1.00505 0.440125
v -0.895953 1.0094 0.493125
v -0.910089 1.05267 0.448555
v -0.895953 1.00619 0.533125
v -0.901505 1.01955 0.587411
v -0.924155 1.05999 0.552338
v -0.929802 1.11254 0.468637
v -0.93345 1.12329 0.531322
v -0.924155 1.0632 0.512338
v -0.825604 0.96931 0.423621
v -0.79545 0.94065 0.461374
v -0.851604 0.967176 0.475565
v -0.79545 0.937441 0.501374
v -0.760389 0.923011 0.542829
v -0.812833 0.938349 0.562655
v -0.865671 0.974495 0.579347
v -0.812833 0.941558 0.522655
v -0.851604 0.963967 0.515565
v -0.771758 0.95804 0.404854
v -0.705977 0.959431 0.397926
v -0.732987 0.932422 0.451944
v -0.760389 0.92622 0.502829
f 1 2 3
f 2 4 5
f 3 5 6
f 2 5 3
f 4 7 8
f 7 9 10
f 8 10 11
f 7 10 8
f 12 13 14
f 13 15 16
f 14 16 17
f 13 16 14
f 4 8 5
f 8 11 18
f 5 18 6
f 8 18 5
f 1 3 19
f 3 6 20
f 19 20 21
f 3 20 19
f 12 14 22
f 14 17 23
f 22 23 24
f 14 23 22
f 25 26 27
f 26 24 28
f 27 28 29
f 26 28 27
f 12 22 30
f 22 24 26
f 20 31 21
f 22 26 30
f 1 19 32
f 19 21 33
f 32 33 34
f 19 33 32
f 21 35 36
f 27 29 37
f 36 38 39
f 35 38 36
f 34 40 41
f 40 39 42
f 41 42 43
f 40 42 41
f 21 36 33
f 36 39 40
f 33 40 34
f 36 40 33
f 1 32 44
f 32 34 45
f 44 45 46
f 32 45 44
f 34 41 47
f 41 43 48
f 47 48 49
f 41 48 47
f 46 50 51
f 50 49 52
f 51 52 53
f 50 52 51
f 34 47 45
f 47 49 50
f 45 50 46
f 47 50 45
f 1 44 2
f 44 46 54
f 2 54 4
f 44 54 2
f 46 51 55
f 51 53 56
f 55 56 57
f 51 56 55
f 4 58 7
f 58 57 59
f 7 59 9
f 58 59 7
f 46 55 54
f 55 57 58
f 54 58 4
f 55 58 54
f 9 60 10
f 61 62 63
f 64 63 15
f 60 65 10
f 62 66 67
f 66 68 69
f 67 69 70
f 66 69 67
f 15 71 16
f 71 70 72
f 16 72 17
f 71 72 16
f 62 67 63
f 67 70 71
f 63 71 15
f 67 71 63
f 17 72 73
f 72 70 74
f 73 74 75
f 72 74 73
f 70 69 76
f 69 68 77
f 76 77 78
f 69 77 76
f 75 79 80
f 79 78 81
f 80 81 82
f 79 81 80
f 70 76 74
f 76 78 79
f 74 79 75
f 76 79 74
f 17 73 23
f 73 75 83
f 23 83 24
f 73 83 23
f 75 80 84
f 80 82 85
f 84 85 86
f 80 85 84
f 24 87 28
f 87 86 88
f 28 88 29
f 87 88 28
f 75 84 83
f 84 86 87
f 83 87 24
f 84 87 83
f 29 88 89
f 88 86 90
f 89 90 91
f 88 90 89
f 86 85 92
f 85 82 93
f 92 93 94
f 85 93 92
f 91 95 96
f 95 94 97
f 96 97 98
f 95 97 96
f 86 92 90
f 92 94 95
f 90 95 91
f 92 95 90
f 29 89 37
f 89 91 99
f 38 100 39
f 89 99 37
f 91 96 101
f 96 98 102
f 103 104 105
f 96 102 101
f 39 106 42
f 106 105 107
f 42 107 43
f 106 107 42
f 91 101 99
f 103 105 106
f 100 106 39
f 103 106 100
f 43 107 108
f 107 105 109
f 108 109 110
f 107 109 108
f 105 104 111
f 102 98 112
f 111 113 114
f 102 112 115
f 110 116 117
f 116 114 118
f 117 118 119
f 116 118 117
f 105 111 109
f 111 114 116
f 109 116 110
f 111 116 109
f 43 108 48
f 108 110 120
f 48 120 49
f 108 120 48
f 110 117 121
f 117 119 122
f 121 122 123
f 117 122 121
f 49 124 52
f 124 123 125
f 52 125 53
f 124 125 52
f 110 121 120
f 121 123 124
f 120 124 49
f 121 124 120
f 53 125 126
f 125 123 127
f 126 127 128
f 125 127 126
f 123 122 129
f 122 119 130
f 129 130 131
f 122 130 129
f 128 132 133
f 132 131 134
f 133 134 135
f 132 134 133
f 123 129 127
f 129 131 132
f 127 132 128
f 129 132 127
f 53 126 56
f 126 128 136
f 56 136 57
f 126 136 56
f 128 133 137
f 133 135 138
f 137 138 139
f 133 138 137
f 57 140 59
f 140 139 141
f 59 141 9
f 140 141 59
f 128 137 136
f 137 139 140
f 136 140 57
f 137 140 136
f 9 141 60
f 141 139 142
f 61 143 62
f 141 142 60
f 139 138 144
f 138 135 145
f 146 147 148
f 138 145 144
f 62 149 66
f 149 148 150
f 66 150 68
f 149 150 66
f 139 144 142
f 146 148 149
f 143 149 62
f 146 149 143
f 151 152 153
f 152 154 155
f 153 155 156
f 152 155 153
f 154 157 158
f 157 82 81
f 158 81 78
f 157 81 158
f 156 159 160
f 159 78 77
f 160 77 68
f 159 77 160
f 154 158 155
f 158 78 159
f 155 159 156
f 158 159 155
f 151 161 152
f 161 162 163
f 152 163 154
f 161 163 152
f 162 164 165
f 164 98 97
f 165 97 94
f 164 97 165
f 154 166 157
f 166 94 93
f 157 93 82
f 166 93 157
f 162 165 163
f 165 94 166
f 163 166 154
f 165 166 163
f 151 167 161
f 167 168 169
f 161 169 162
f 167 169 161
f 170 171 172
f 171 119 118
f 172 118 114
f 171 118 172
f 162 173 164
f 173 174 112
f 164 112 98
f 173 112 164
f 168 175 169
f 175 174 173
f 169 173 162
f 175 173 169
f 151 176 167
f 176 177 178
f 167 178 168
f 176 178 167
f 179 180 181
f 180 135 134
f 181 134 131
f 180 134 181
f 170 182 171
f 182 131 130
f 171 130 119
f 182 130 171
f 177 183 178
f 181 131 182
f 184 182 170
f 181 182 184
f 151 153 176
f 153 156 185
f 176 185 177
f 153 185 176
f 156 160 186
f 160 68 150
f 186 150 148
f 160 150 186
f 177 187 188
f 187 148 147
f 180 145 135
f 187 147 188
f 156 186 185
f 186 148 187
f 185 187 177
f 186 187 185
f 12 6 13
f 13 6 18
f 13 18 15
f 15 18 11
f 25 21 26
f 26 21 31
f 27 35 25
f 25 35 21
f 30 20 12
f 12 20 6
f 26 31 30
f 30 31 20
f 37 38 27
f 27 38 35
f 63 65 61
f 61 65 60
f 64 10 63
f 63 10 65
f 15 11 64
f 64 11 10
f 99 100 37
f 37 100 38
f 102 104 101
f 101 104 103
f 101 103 99
f 99 103 100
f 112 113 115
f 115 113 111
f 115 111 102
f 102 111 104
f 61 60 143
f 143 60 142
f 146 144 147
f 147 144 145
f 143 142 146
f 146 142 144
f 174 114 112
f 112 114 113
f 168 170 175
f 175 170 172
f 175 172 174
f 174 172 114
f 178 184 168
f 168 184 170
f 177 179 183
f 183 179 181
f 183 181 178
f 178 181 184
f 188 180 177
f 177 180 179
f 147 145 188
f 188 145 180
