v -0.613443 1.20373 0.787557
v -0.578573 1.15991 0.783083
v -0.584156 1.2087 0.739875
v -0.555307 1.11048 0.77
v -0.551911 1.16107 0.731445
v -0.566047 1.20434 0.686875
v -0.545414 1.05919 0.749305
v -0.532198 1.1012 0.711364
v -0.549649 1.00996 0.722573
v -0.531507 1.04878 0.686244
v -0.52855 1.09045 0.648678
v -0.566047 1.24254 0.566875
v -0.537845 1.18874 0.547662
v -0.560495 1.22919 0.512589
v -0.52855 1.12865 0.528678
v -0.541004 1.16999 0.492735
v -0.567922 1.20786 0.461152
v -0.532198 1.1394 0.591364
v -0.551911 1.19927 0.611445
v -0.537845 1.15055 0.667662
v -0.636396 1.24443 0.756379
v -0.584156 1.24689 0.619875
v -0.610396 1.28476 0.584436
v -0.636396 1.28263 0.636379
v -0.66655 1.31129 0.598626
v -0.610396 1.24657 0.704436
v -0.596329 1.27424 0.520653
v -0.598827 1.25451 0.466032
v -0.639793 1.29127 0.477304
v -0.649166 1.31038 0.537345
v -0.701611 1.32572 0.557171
v -0.687703 1.31531 0.49411
v -0.738908 1.32482 0.51517
v -0.663099 1.21773 0.809786
v -0.66655 1.27309 0.718626
v -0.690242 1.2557 0.775146
v -0.717924 1.22172 0.821374
v -0.729013 1.31952 0.608056
v -0.766646 1.32435 0.56402
v -0.791671 1.30864 0.611803
v -0.756022 1.25431 0.782074
v -0.773745 1.21539 0.821439
v -0.791671 1.27045 0.731803
v -0.812077 1.24072 0.774882
v -0.826311 1.19922 0.809976
v -0.729013 1.28132 0.728056
v -0.627363 1.16549 0.82629
v -0.681106 1.17586 0.845857
v -0.649172 1.12122 0.853125
v -0.746886 1.17447 0.852785
v -0.803044 1.16177 0.844793
v -0.774293 1.11857 0.866303
v -0.710741 1.12163 0.869478
v -0.67721 1.07427 0.866021
v -0.742246 1.0729 0.87287
v -0.709343 1.02824 0.863995
v -0.595613 1.11737 0.818848
v -0.625248 1.06314 0.842468
v -0.65772 1.01507 0.846167
v -0.611675 1.00733 0.814929
v -0.5759 1.0575 0.798767
v -0.574714 1.00558 0.772658
v -0.552211 0.988736 0.670623
v -0.552211 1.02693 0.550623
v -0.568382 1.01312 0.498626
v -0.539072 1.06813 0.511781
v -0.531507 1.08698 0.566244
v -0.539072 1.02994 0.631781
v -0.596932 1.00778 0.450539
v -0.56566 1.05675 0.45228
v -0.635688 1.01131 0.410024
v -0.602515 1.05657 0.407332
v -0.579122 1.10699 0.4155
v -0.544719 1.11748 0.46808
v -0.567291 1.15873 0.433907
v -0.603027 1.21097 0.417404
v -0.607452 1.15893 0.391886
v -0.647875 1.20749 0.383749
v -0.628393 1.0982 0.376087
v -0.658955 1.04876 0.375207
v -0.687707 1.09197 0.353697
v -0.664538 1.15103 0.359394
v -0.69905 1.19769 0.36275
v -0.719754 1.13764 0.34713
v -0.752657 1.1823 0.356006
v -0.639348 1.25581 0.424378
v -0.696434 1.24791 0.391886
v -0.75129 1.23342 0.379254
v -0.748378 1.27624 0.4155
v -0.692186 1.29196 0.441071
v -0.744143 1.3075 0.461985
v -0.792933 1.31309 0.505192
v -0.79862 1.28971 0.45228
v -0.842243 1.28698 0.498626
v -0.802869 1.24566 0.403096
v -0.80428 1.19546 0.373833
v -0.850325 1.20321 0.405071
v -0.852217 1.25131 0.446797
v -0.883086 1.2485 0.49597
v -0.887286 1.20496 0.447342
v -0.91235 1.20057 0.497427
v -0.821381 1.30674 0.555483
v -0.874977 1.26834 0.55
v -0.909789 1.2218 0.549377
v -0.893618 1.23561 0.601374
v -0.84839 1.24153 0.729501
v -0.893618 1.19741 0.721374
v -0.865067 1.20275 0.769461
v -0.84839 1.27973 0.609501
v -0.859485 1.15397 0.812668
v -0.89634 1.15379 0.76772
v -0.882878 1.10355 0.8045
v -0.909789 1.1836 0.669377
v -0.922927 1.1424 0.708219
v -0.930493 1.16175 0.533756
v -0.930493 1.12355 0.653756
v -0.93345 1.08189 0.691322
v -0.922927 1.1806 0.588219
v -0.917281 1.09305 0.75192
v -0.894709 1.0518 0.786093
v -0.920996 1.04055 0.727265
v -0.894078 1.00268 0.758848
v -0.833607 1.11234 0.843913
v -0.854548 1.0516 0.828114
v -0.858973 0.999565 0.802596
v -0.814125 1.00304 0.836251
v -0.797462 1.0595 0.860606
v -0.76295 1.01285 0.85725
v -0.71071 0.977113 0.840746
v -0.765565 0.96262 0.828114
v -0.713622 0.934291 0.8045
v -0.822652 0.954722 0.795622
v -0.863173 0.95602 0.753968
v -0.822206 0.919268 0.742696
v -0.769814 0.918577 0.778929
v -0.717857 0.90303 0.758015
v -0.774297 0.895222 0.725891
v -0.723092 0.885711 0.70483
v -0.659131 0.964871 0.816904
v -0.66338 0.920828 0.76772
v -0.669067 0.897448 0.714808
v -0.619756 0.923551 0.721374
v -0.609783 0.959225 0.773203
v -0.578914 0.962033 0.72403
v -0.587023 0.942191 0.67
v -0.568382 0.974925 0.618626
v -0.640619 0.903795 0.664517
v -0.695353 0.886189 0.65598
v -0.670329 0.901891 0.608197
v -0.61361 0.969001 0.490499
v -0.670329 0.940088 0.488197
v -0.649923 0.969817 0.445118
v -0.61361 0.930804 0.610499
v -0.848557 1.00681 0.432443
v -0.834637 1.04504 0.39371
v -0.798901 0.992805 0.410214
v -0.812828 1.08932 0.366875
v -0.780894 1.03468 0.374143
v -0.744076 0.988816 0.398626
v -0.78479 1.13626 0.353979
v -0.751259 1.08891 0.350523
v -0.715114 1.03607 0.367215
v -0.688255 0.995145 0.398561
v -0.883427 1.05063 0.436917
v -0.906693 1.10006 0.45
v -0.866387 1.09316 0.401152
v -0.916586 1.15134 0.470695
v -0.8861 1.15304 0.421233
v -0.836752 1.14739 0.377532
v -0.877844 1.00184 0.480125
v -0.895953 1.00619 0.533125
v -0.910089 1.04946 0.488555
v -0.895953 0.967996 0.653125
v -0.901505 0.981348 0.707411
v -0.924155 1.02179 0.672338
v -0.929802 1.10934 0.508637
v -0.93345 1.12008 0.571322
v -0.910089 1.01126 0.608555
v -0.929802 1.07114 0.628637
v -0.924155 1.05999 0.552338
v -0.825604 0.966101 0.463621
v -0.825604 0.927904 0.583621
v -0.79545 0.899244 0.621374
v -0.851604 0.92577 0.635565
v -0.877844 0.96364 0.600125
v -0.851604 0.963967 0.515565
v -0.760389 0.884813 0.662829
v -0.812833 0.900152 0.682655
v -0.865671 0.936297 0.699347
v -0.771758 0.954831 0.444854
v -0.79545 0.937441 0.501374
v -0.705977 0.956222 0.437926
v -0.732987 0.891016 0.611944
v -0.732987 0.929213 0.491944
f 1 2 3
f 2 4 5
f 3 5 6
f 2 5 3
f 4 7 8
f 7 9 10
f 8 10 11
f 7 10 8
f 12 13 14
f 13 15 16
f 14 16 17
f 13 16 14
f 4 8 5
f 18 15 13
f 19 13 12
f 8 20 5
f 1 3 21
f 22 12 23
f 24 23 25
f 3 26 21
f 12 14 27
f 14 17 28
f 27 28 29
f 14 28 27
f 25 30 31
f 30 29 32
f 31 32 33
f 30 32 31
f 12 27 23
f 27 29 30
f 23 30 25
f 27 30 23
f 1 21 34
f 21 35 36
f 34 36 37
f 21 36 34
f 25 31 38
f 31 33 39
f 38 39 40
f 31 39 38
f 37 41 42
f 41 43 44
f 42 44 45
f 41 44 42
f 35 46 36
f 46 43 41
f 36 41 37
f 46 41 36
f 1 34 47
f 34 37 48
f 47 48 49
f 34 48 47
f 37 42 50
f 42 45 51
f 50 51 52
f 42 51 50
f 49 53 54
f 53 52 55
f 54 55 56
f 53 55 54
f 37 50 48
f 50 52 53
f 48 53 49
f 50 53 48
f 1 47 2
f 47 49 57
f 2 57 4
f 47 57 2
f 49 54 58
f 54 56 59
f 58 59 60
f 54 59 58
f 4 61 7
f 61 60 62
f 7 62 9
f 61 62 7
f 49 58 57
f 58 60 61
f 57 61 4
f 58 61 57
f 9 63 10
f 64 65 66
f 67 66 15
f 63 68 10
f 65 69 70
f 69 71 72
f 70 72 73
f 69 72 70
f 15 74 16
f 74 73 75
f 16 75 17
f 74 75 16
f 65 70 66
f 70 73 74
f 66 74 15
f 70 74 66
f 17 75 76
f 75 73 77
f 76 77 78
f 75 77 76
f 73 72 79
f 72 71 80
f 79 80 81
f 72 80 79
f 78 82 83
f 82 81 84
f 83 84 85
f 82 84 83
f 73 79 77
f 79 81 82
f 77 82 78
f 79 82 77
f 17 76 28
f 76 78 86
f 28 86 29
f 76 86 28
f 78 83 87
f 83 85 88
f 87 88 89
f 83 88 87
f 29 90 32
f 90 89 91
f 32 91 33
f 90 91 32
f 78 87 86
f 87 89 90
f 86 90 29
f 87 90 86
f 33 91 92
f 91 89 93
f 92 93 94
f 91 93 92
f 89 88 95
f 88 85 96
f 95 96 97
f 88 96 95
f 94 98 99
f 98 97 100
f 99 100 101
f 98 100 99
f 89 95 93
f 95 97 98
f 93 98 94
f 95 98 93
f 33 92 39
f 92 94 102
f 39 102 40
f 92 102 39
f 94 99 103
f 99 101 104
f 103 104 105
f 99 104 103
f 43 106 44
f 106 107 108
f 44 108 45
f 106 108 44
f 94 103 102
f 103 105 109
f 102 109 40
f 103 109 102
f 45 108 110
f 108 107 111
f 110 111 112
f 108 111 110
f 107 113 114
f 104 101 115
f 114 116 117
f 104 115 118
f 112 119 120
f 119 117 121
f 120 121 122
f 119 121 120
f 107 114 111
f 114 117 119
f 111 119 112
f 114 119 111
f 45 110 51
f 110 112 123
f 51 123 52
f 110 123 51
f 112 120 124
f 120 122 125
f 124 125 126
f 120 125 124
f 52 127 55
f 127 126 128
f 55 128 56
f 127 128 55
f 112 124 123
f 124 126 127
f 123 127 52
f 124 127 123
f 56 128 129
f 128 126 130
f 129 130 131
f 128 130 129
f 126 125 132
f 125 122 133
f 132 133 134
f 125 133 132
f 131 135 136
f 135 134 137
f 136 137 138
f 135 137 136
f 126 132 130
f 132 134 135
f 130 135 131
f 132 135 130
f 56 129 59
f 129 131 139
f 59 139 60
f 129 139 59
f 131 136 140
f 136 138 141
f 140 141 142
f 136 141 140
f 60 143 62
f 143 142 144
f 62 144 9
f 143 144 62
f 131 140 139
f 140 142 143
f 139 143 60
f 140 143 139
f 9 144 63
f 144 142 145
f 63 145 146
f 144 145 63
f 142 141 147
f 141 138 148
f 147 148 149
f 141 148 147
f 65 150 69
f 150 151 152
f 69 152 71
f 150 152 69
f 142 147 145
f 147 149 153
f 145 153 146
f 147 153 145
f 154 155 156
f 155 157 158
f 156 158 159
f 155 158 156
f 157 160 161
f 160 85 84
f 161 84 81
f 160 84 161
f 159 162 163
f 162 81 80
f 163 80 71
f 162 80 163
f 157 161 158
f 161 81 162
f 158 162 159
f 161 162 158
f 154 164 155
f 164 165 166
f 155 166 157
f 164 166 155
f 165 167 168
f 167 101 100
f 168 100 97
f 167 100 168
f 157 169 160
f 169 97 96
f 160 96 85
f 169 96 160
f 165 168 166
f 168 97 169
f 166 169 157
f 168 169 166
f 154 170 164
f 170 171 172
f 164 172 165
f 170 172 164
f 173 174 175
f 174 122 121
f 175 121 117
f 174 121 175
f 165 176 167
f 176 177 115
f 167 115 101
f 176 115 167
f 173 175 178
f 175 117 179
f 172 176 165
f 180 176 172
f 154 181 170
f 182 183 184
f 185 184 173
f 181 186 170
f 183 187 188
f 187 138 137
f 188 137 134
f 187 137 188
f 173 189 174
f 189 134 133
f 174 133 122
f 189 133 174
f 183 188 184
f 188 134 189
f 184 189 173
f 188 189 184
f 154 156 181
f 156 159 190
f 181 190 191
f 156 190 181
f 159 163 192
f 163 71 152
f 192 152 151
f 163 152 192
f 183 193 187
f 193 149 148
f 187 148 138
f 193 148 187
f 159 192 190
f 192 151 194
f 190 194 191
f 192 194 190
f 18 8 15
f 15 8 11
f 13 20 18
f 18 20 8
f 19 5 13
f 13 5 20
f 12 6 19
f 19 6 5
f 22 3 12
f 12 3 6
f 23 26 22
f 22 26 3
f 24 21 23
f 23 21 26
f 25 35 24
f 24 35 21
f 38 46 25
f 25 46 35
f 40 43 38
f 38 43 46
f 64 63 65
f 65 63 146
f 66 68 64
f 64 68 63
f 67 10 66
f 66 10 68
f 15 11 67
f 67 11 10
f 104 113 105
f 105 113 107
f 105 107 109
f 109 107 106
f 109 106 40
f 40 106 43
f 115 116 118
f 118 116 114
f 118 114 104
f 104 114 113
f 65 146 150
f 150 146 153
f 150 153 151
f 151 153 149
f 170 185 171
f 171 185 173
f 171 173 172
f 172 173 178
f 176 179 177
f 177 179 117
f 177 117 115
f 115 117 116
f 180 175 176
f 176 175 179
f 172 178 180
f 180 178 175
f 181 182 186
f 186 182 184
f 186 184 170
f 170 184 185
f 191 183 181
f 181 183 182
f 151 149 194
f 194 149 193
f 194 193 191
f 191 193 183
