v -0.613443 1.1908 0.867557
v -0.578573 1.14698 0.863083
v -0.584156 1.19577 0.819876
v -0.555307 1.09755 0.85
v -0.551911 1.14815 0.811445
v -0.566047 1.19142 0.766875
v -0.545414 1.04627 0.829305
v -0.532198 1.08828 0.791364
v -0.549649 0.997042 0.802573
v -0.531507 1.03586 0.766244
v -0.52855 1.07753 0.728678
v -0.566047 1.20434 0.686875
v -0.537845 1.15055 0.667662
v -0.560495 1.19099 0.632589
v -0.52855 1.09045 0.648678
v -0.541004 1.13179 0.612735
v -0.567922 1.16966 0.581152
v -0.537845 1.13762 0.747662
v -0.636396 1.23151 0.836379
v -0.610396 1.23364 0.784436
v -0.66655 1.26017 0.798626
v -0.596329 1.23604 0.640653
v -0.598827 1.21632 0.586032
v -0.639793 1.25307 0.597304
v -0.66655 1.27309 0.718626
v -0.649166 1.27218 0.657345
v -0.701611 1.28752 0.677171
v -0.687703 1.27711 0.61411
v -0.738908 1.28663 0.63517
v -0.610396 1.24657 0.704436
v -0.663099 1.20481 0.889786
v -0.690242 1.24278 0.855146
v -0.717924 1.2088 0.901374
v -0.701611 1.2746 0.757171
v -0.729013 1.2684 0.808056
v -0.766646 1.28615 0.68402
v -0.766646 1.27323 0.76402
v -0.791671 1.25752 0.811804
v -0.729013 1.28132 0.728056
v -0.756022 1.24139 0.862074
v -0.773745 1.20247 0.901439
v -0.812077 1.22779 0.854882
v -0.826311 1.1863 0.889977
v -0.627363 1.15257 0.90629
v -0.681106 1.16293 0.925857
v -0.649172 1.10829 0.933125
v -0.746886 1.16154 0.932785
v -0.803044 1.14885 0.924793
v -0.774293 1.10565 0.946303
v -0.710741 1.10871 0.949478
v -0.67721 1.06135 0.946021
v -0.742246 1.05998 0.95287
v -0.709343 1.01531 0.943995
v -0.595613 1.10445 0.898848
v -0.625248 1.05022 0.922468
v -0.65772 1.00215 0.926167
v -0.611675 0.994403 0.894929
v -0.5759 1.04457 0.878767
v -0.574714 0.992655 0.852658
v -0.552211 0.975814 0.750623
v -0.552211 0.988736 0.670623
v -0.568382 0.974925 0.618626
v -0.539072 1.02994 0.631781
v -0.531507 1.04878 0.686244
v -0.539072 1.01701 0.711781
v -0.596932 0.969582 0.570539
v -0.56566 1.01855 0.57228
v -0.635688 0.973114 0.530024
v -0.602515 1.01837 0.527332
v -0.579122 1.06879 0.5355
v -0.544719 1.07928 0.58808
v -0.567291 1.12053 0.553907
v -0.603027 1.17277 0.537404
v -0.607452 1.12073 0.511886
v -0.647875 1.16929 0.503749
v -0.628393 1.06 0.496087
v -0.658955 1.01056 0.495207
v -0.687707 1.05377 0.473697
v -0.664538 1.11284 0.479394
v -0.69905 1.15949 0.48275
v -0.719754 1.09944 0.46713
v -0.752657 1.1441 0.476006
v -0.639348 1.21761 0.544378
v -0.696434 1.20972 0.511886
v -0.75129 1.19522 0.499254
v -0.748378 1.23805 0.5355
v -0.692186 1.25376 0.561071
v -0.744143 1.26931 0.581985
v -0.792933 1.27489 0.625192
v -0.79862 1.25151 0.57228
v -0.842243 1.24879 0.618626
v -0.802869 1.20747 0.523096
v -0.80428 1.15726 0.493833
v -0.850325 1.16501 0.525071
v -0.852217 1.21311 0.566797
v -0.883086 1.2103 0.61597
v -0.887286 1.16676 0.567342
v -0.91235 1.16237 0.617427
v -0.821381 1.26854 0.675483
v -0.791671 1.27045 0.731803
v -0.874977 1.23015 0.67
v -0.909789 1.1836 0.669377
v -0.893618 1.19741 0.721374
v -0.84839 1.22861 0.809501
v -0.893618 1.18449 0.801374
v -0.865067 1.18983 0.849461
v -0.874977 1.21722 0.75
v -0.821381 1.25562 0.755483
v -0.84839 1.24153 0.729501
v -0.859485 1.14104 0.892668
v -0.89634 1.14087 0.84772
v -0.882878 1.09062 0.8845
v -0.909789 1.17068 0.749377
v -0.922927 1.12948 0.788219
v -0.930493 1.12355 0.653756
v -0.930493 1.11063 0.733756
v -0.93345 1.06896 0.771322
v -0.922927 1.1424 0.708219
v -0.917281 1.08013 0.83192
v -0.894709 1.03888 0.866093
v -0.920996 1.02762 0.807265
v -0.894078 0.989757 0.838848
v -0.833607 1.09942 0.923913
v -0.854548 1.03868 0.908114
v -0.858973 0.986642 0.882596
v -0.814125 0.990121 0.916251
v -0.797462 1.04658 0.940606
v -0.76295 0.999927 0.93725
v -0.71071 0.96419 0.920746
v -0.765565 0.949698 0.908114
v -0.713622 0.921368 0.8845
v -0.822652 0.9418 0.875622
v -0.863173 0.943098 0.833968
v -0.822206 0.906346 0.822696
v -0.769814 0.905655 0.85893
v -0.717857 0.890108 0.838015
v -0.774297 0.882299 0.805891
v -0.723092 0.872788 0.78483
v -0.659131 0.951949 0.896904
v -0.66338 0.907906 0.84772
v -0.669067 0.884525 0.794808
v -0.619756 0.910628 0.801374
v -0.609783 0.946302 0.853203
v -0.578914 0.94911 0.80403
v -0.587023 0.929269 0.75
v -0.568382 0.962003 0.698626
v -0.640619 0.890872 0.744517
v -0.695353 0.873267 0.73598
v -0.670329 0.888968 0.688197
v -0.61361 0.930804 0.610499
v -0.670329 0.901891 0.608197
v -0.649923 0.93162 0.565118
v -0.640619 0.903795 0.664517
v -0.587023 0.942191 0.67
v -0.61361 0.917881 0.690499
v -0.848557 0.968611 0.552443
v -0.834637 1.00685 0.51371
v -0.798901 0.954607 0.530214
v -0.812828 1.05112 0.486875
v -0.780894 0.99648 0.494143
v -0.744076 0.950618 0.518626
v -0.78479 1.09806 0.473979
v -0.751259 1.05071 0.470523
v -0.715114 0.997872 0.487215
v -0.688255 0.956948 0.518561
v -0.883427 1.01243 0.556917
v -0.906693 1.06186 0.57
v -0.866387 1.05496 0.521152
v -0.916586 1.11314 0.590695
v -0.8861 1.11484 0.541233
v -0.836752 1.10919 0.497532
v -0.877844 0.96364 0.600125
v -0.895953 0.967996 0.653125
v -0.910089 1.01126 0.608555
v -0.895953 0.955074 0.733126
v -0.901505 0.968426 0.787411
v -0.924155 1.00887 0.752338
v -0.929802 1.07114 0.628637
v -0.93345 1.08189 0.691322
v -0.924155 1.02179 0.672338
v -0.825604 0.927904 0.583621
v -0.79545 0.899244 0.621374
v -0.851604 0.92577 0.635565
v -0.79545 0.886322 0.701374
v -0.760389 0.871891 0.742829
v -0.812833 0.88723 0.762655
v -0.865671 0.923375 0.779347
v -0.851604 0.912847 0.715565
v -0.771758 0.916633 0.564854
v -0.705977 0.918025 0.557926
v -0.732987 0.891016 0.611944
v -0.760389 0.884813 0.662829
v -0.695353 0.886189 0.65598
v -0.732987 0.878093 0.691944
f 1 2 3
f 2 4 5
f 3 5 6
f 2 5 3
f 4 7 8
f 7 9 10
f 8 10 11
f 7 10 8
f 12 13 14
f 13 15 16
f 14 16 17
f 13 16 14
f 4 8 5
f 8 11 18
f 5 18 6
f 8 18 5
f 1 3 19
f 3 6 20
f 19 20 21
f 3 20 19
f 12 14 22
f 14 17 23
f 22 23 24
f 14 23 22
f 25 26 27
f 26 24 28
f 27 28 29
f 26 28 27
f 12 22 30
f 22 24 26
f 30 26 25
f 22 26 30
f 1 19 31
f 19 21 32
f 31 32 33
f 19 32 31
f 21 34 35
f 27 29 36
f 35 37 38
f 27 36 39
f 33 40 41
f 40 38 42
f 41 42 43
f 40 42 41
f 21 35 32
f 35 38 40
f 32 40 33
f 35 40 32
f 1 31 44
f 31 33 45
f 44 45 46
f 31 45 44
f 33 41 47
f 41 43 48
f 47 48 49
f 41 48 47
f 46 50 51
f 50 49 52
f 51 52 53
f 50 52 51
f 33 47 45
f 47 49 50
f 45 50 46
f 47 50 45
f 1 44 2
f 44 46 54
f 2 54 4
f 44 54 2
f 46 51 55
f 51 53 56
f 55 56 57
f 51 56 55
f 4 58 7
f 58 57 59
f 7 59 9
f 58 59 7
f 46 55 54
f 55 57 58
f 54 58 4
f 55 58 54
f 9 60 10
f 61 62 63
f 64 63 15
f 60 65 10
f 62 66 67
f 66 68 69
f 67 69 70
f 66 69 67
f 15 71 16
f 71 70 72
f 16 72 17
f 71 72 16
f 62 67 63
f 67 70 71
f 63 71 15
f 67 71 63
f 17 72 73
f 72 70 74
f 73 74 75
f 72 74 73
f 70 69 76
f 69 68 77
f 76 77 78
f 69 77 76
f 75 79 80
f 79 78 81
f 80 81 82
f 79 81 80
f 70 76 74
f 76 78 79
f 74 79 75
f 76 79 74
f 17 73 23
f 73 75 83
f 23 83 24
f 73 83 23
f 75 80 84
f 80 82 85
f 84 85 86
f 80 85 84
f 24 87 28
f 87 86 88
f 28 88 29
f 87 88 28
f 75 84 83
f 84 86 87
f 83 87 24
f 84 87 83
f 29 88 89
f 88 86 90
f 89 90 91
f 88 90 89
f 86 85 92
f 85 82 93
f 92 93 94
f 85 93 92
f 91 95 96
f 95 94 97
f 96 97 98
f 95 97 96
f 86 92 90
f 92 94 95
f 90 95 91
f 92 95 90
f 29 89 36
f 89 91 99
f 36 99 100
f 89 99 36
f 91 96 101
f 96 98 102
f 101 102 103
f 96 102 101
f 38 104 42
f 104 105 106
f 42 106 43
f 104 106 42
f 91 101 99
f 107 105 104
f 108 104 38
f 101 109 99
f 43 106 110
f 106 105 111
f 110 111 112
f 106 111 110
f 105 113 114
f 102 98 115
f 114 116 117
f 102 115 118
f 112 119 120
f 119 117 121
f 120 121 122
f 119 121 120
f 105 114 111
f 114 117 119
f 111 119 112
f 114 119 111
f 43 110 48
f 110 112 123
f 48 123 49
f 110 123 48
f 112 120 124
f 120 122 125
f 124 125 126
f 120 125 124
f 49 127 52
f 127 126 128
f 52 128 53
f 127 128 52
f 112 124 123
f 124 126 127
f 123 127 49
f 124 127 123
f 53 128 129
f 128 126 130
f 129 130 131
f 128 130 129
f 126 125 132
f 125 122 133
f 132 133 134
f 125 133 132
f 131 135 136
f 135 134 137
f 136 137 138
f 135 137 136
f 126 132 130
f 132 134 135
f 130 135 131
f 132 135 130
f 53 129 56
f 129 131 139
f 56 139 57
f 129 139 56
f 131 136 140
f 136 138 141
f 140 141 142
f 136 141 140
f 57 143 59
f 143 142 144
f 59 144 9
f 143 144 59
f 131 140 139
f 140 142 143
f 139 143 57
f 140 143 139
f 9 144 60
f 144 142 145
f 60 145 146
f 144 145 60
f 142 141 147
f 141 138 148
f 147 148 149
f 141 148 147
f 62 150 66
f 150 151 152
f 66 152 68
f 150 152 66
f 142 147 145
f 153 151 150
f 154 150 62
f 147 155 145
f 156 157 158
f 157 159 160
f 158 160 161
f 157 160 158
f 159 162 163
f 162 82 81
f 163 81 78
f 162 81 163
f 161 164 165
f 164 78 77
f 165 77 68
f 164 77 165
f 159 163 160
f 163 78 164
f 160 164 161
f 163 164 160
f 156 166 157
f 166 167 168
f 157 168 159
f 166 168 157
f 167 169 170
f 169 98 97
f 170 97 94
f 169 97 170
f 159 171 162
f 171 94 93
f 162 93 82
f 171 93 162
f 167 170 168
f 170 94 171
f 168 171 159
f 170 171 168
f 156 172 166
f 172 173 174
f 166 174 167
f 172 174 166
f 175 176 177
f 176 122 121
f 177 121 117
f 176 121 177
f 167 178 169
f 178 179 115
f 169 115 98
f 178 115 169
f 173 180 174
f 180 179 178
f 174 178 167
f 180 178 174
f 156 181 172
f 181 182 183
f 172 183 173
f 181 183 172
f 184 185 186
f 185 138 137
f 186 137 134
f 185 137 186
f 175 187 176
f 187 134 133
f 176 133 122
f 187 133 176
f 184 186 188
f 186 134 187
f 188 187 175
f 186 187 188
f 156 158 181
f 158 161 189
f 181 189 182
f 158 189 181
f 161 165 190
f 165 68 152
f 190 152 151
f 165 152 190
f 182 191 192
f 191 151 193
f 185 148 138
f 194 148 185
f 161 190 189
f 190 151 191
f 189 191 182
f 190 191 189
f 12 6 13
f 13 6 18
f 13 18 15
f 15 18 11
f 27 34 25
f 25 34 21
f 30 20 12
f 12 20 6
f 25 21 30
f 30 21 20
f 36 37 39
f 39 37 35
f 39 35 27
f 27 35 34
f 61 60 62
f 62 60 146
f 63 65 61
f 61 65 60
f 64 10 63
f 63 10 65
f 15 11 64
f 64 11 10
f 99 108 100
f 100 108 38
f 100 38 36
f 36 38 37
f 102 113 103
f 103 113 105
f 103 105 101
f 101 105 107
f 101 107 109
f 109 107 104
f 109 104 99
f 99 104 108
f 115 116 118
f 118 116 114
f 118 114 102
f 102 114 113
f 153 147 151
f 151 147 149
f 150 155 153
f 153 155 147
f 154 145 150
f 150 145 155
f 62 146 154
f 154 146 145
f 179 117 115
f 115 117 116
f 173 175 180
f 180 175 177
f 180 177 179
f 179 177 117
f 182 184 183
f 183 184 188
f 183 188 173
f 173 188 175
f 191 194 192
f 192 194 185
f 192 185 182
f 182 185 184
f 151 149 193
f 193 149 148
f 193 148 191
f 191 148 194
