v -0.613443 1.2482 0.867557
v -0.578573 1.20438 0.863083
v -0.584156 1.25317 0.819876
v -0.555307 1.15495 0.85
v -0.551911 1.20555 0.811445
v -0.566047 1.24881 0.766875
v -0.545414 1.10367 0.829305
v -0.532198 1.14567 0.791364
v -0.545414 1.04627 0.829305
v -0.549649 0.997042 0.802573
v -0.531507 1.03586 0.766244
v -0.532198 1.08828 0.791364
v -0.52855 1.07753 0.728678
v -0.537845 1.19502 0.747662
v -0.560495 1.23546 0.712589
v -0.52855 1.13492 0.728678
v -0.541004 1.17626 0.692735
v -0.567922 1.21413 0.661152
v -0.636396 1.28891 0.836379
v -0.610396 1.29104 0.784436
v -0.66655 1.31757 0.798626
v -0.596329 1.28051 0.720653
v -0.598827 1.26079 0.666032
v -0.639793 1.29754 0.677304
v -0.649166 1.31666 0.737345
v -0.701611 1.332 0.757171
v -0.687703 1.32159 0.69411
v -0.738908 1.3311 0.71517
v -0.663099 1.2622 0.889786
v -0.690242 1.30018 0.855146
v -0.717924 1.26619 0.901374
v -0.729013 1.32579 0.808056
v -0.766646 1.33062 0.76402
v -0.791671 1.31492 0.811804
v -0.756022 1.29878 0.862074
v -0.773745 1.25986 0.901439
v -0.812077 1.28519 0.854882
v -0.826311 1.2437 0.889977
v -0.627363 1.20996 0.90629
v -0.681106 1.22033 0.925857
v -0.649172 1.16569 0.933125
v -0.746886 1.21894 0.932785
v -0.803044 1.20625 0.924793
v -0.774293 1.16304 0.946303
v -0.710741 1.1661 0.949478
v -0.67721 1.11875 0.946021
v -0.742246 1.11737 0.95287
v -0.67721 1.06135 0.946021
v -0.742246 1.05998 0.95287
v -0.709343 1.01531 0.943995
v -0.595613 1.16185 0.898848
v -0.625248 1.10762 0.922468
v -0.65772 1.00215 0.926167
v -0.625248 1.05022 0.922468
v -0.611675 0.994403 0.894929
v -0.555307 1.09755 0.85
v -0.5759 1.04457 0.878767
v -0.574714 0.992655 0.852658
v -0.5759 1.10197 0.878767
v -0.595613 1.10445 0.898848
v -0.552211 0.975814 0.750623
v -0.568382 0.962003 0.698626
v -0.539072 1.01701 0.711781
v -0.596932 0.956659 0.650539
v -0.56566 1.00563 0.65228
v -0.635688 0.960191 0.610024
v -0.602515 1.00545 0.607332
v -0.579122 1.05587 0.6155
v -0.544719 1.12376 0.66808
v -0.579122 1.11326 0.6155
v -0.567291 1.165 0.633907
v -0.544719 1.06636 0.66808
v -0.603027 1.21724 0.617404
v -0.607452 1.16521 0.591886
v -0.647875 1.21377 0.583749
v -0.628393 1.04708 0.576087
v -0.658955 0.997641 0.575208
v -0.687707 1.04085 0.553697
v -0.664538 1.15731 0.559394
v -0.69905 1.20396 0.56275
v -0.687707 1.09824 0.553697
v -0.719754 1.14391 0.54713
v -0.752657 1.18857 0.556006
v -0.607452 1.10781 0.591886
v -0.664538 1.09991 0.559394
v -0.628393 1.10447 0.576087
v -0.639348 1.26209 0.624378
v -0.696434 1.25419 0.591886
v -0.75129 1.2397 0.579254
v -0.748378 1.28252 0.6155
v -0.692186 1.29823 0.641071
v -0.744143 1.31378 0.661985
v -0.792933 1.31936 0.705192
v -0.79862 1.29598 0.65228
v -0.842243 1.29326 0.698626
v -0.802869 1.25194 0.603096
v -0.80428 1.20173 0.573833
v -0.850325 1.20948 0.605071
v -0.852217 1.25758 0.646797
v -0.883086 1.25478 0.69597
v -0.887286 1.21123 0.647342
v -0.91235 1.20685 0.697427
v -0.821381 1.31302 0.755483
v -0.874977 1.27462 0.75
v -0.909789 1.22807 0.749377
v -0.893618 1.24188 0.801374
v -0.84839 1.28601 0.809501
v -0.865067 1.24723 0.849461
v -0.859485 1.19844 0.892668
v -0.89634 1.19826 0.84772
v -0.882878 1.14802 0.8845
v -0.922927 1.18687 0.788219
v -0.930493 1.16803 0.733756
v -0.93345 1.12636 0.771322
v -0.882878 1.09062 0.8845
v -0.917281 1.08013 0.83192
v -0.894709 1.03888 0.866093
v -0.93345 1.06896 0.771322
v -0.920996 1.02762 0.807265
v -0.894078 0.989757 0.838848
v -0.917281 1.13753 0.83192
v -0.833607 1.15681 0.923913
v -0.854548 1.03868 0.908114
v -0.858973 0.986642 0.882596
v -0.814125 0.990121 0.916251
v -0.774293 1.10565 0.946303
v -0.797462 1.04658 0.940606
v -0.76295 0.999927 0.93725
v -0.854548 1.09608 0.908114
v -0.797462 1.10397 0.940606
v -0.833607 1.09942 0.923913
v -0.71071 0.96419 0.920746
v -0.765565 0.949698 0.908114
v -0.713622 0.921368 0.8845
v -0.822652 0.9418 0.875622
v -0.863173 0.943098 0.833968
v -0.822206 0.906346 0.822696
v -0.769814 0.905655 0.85893
v -0.717857 0.890108 0.838015
v -0.774297 0.882299 0.805891
v -0.723092 0.872788 0.78483
v -0.659131 0.951949 0.896904
v -0.66338 0.907906 0.84772
v -0.669067 0.884525 0.794808
v -0.619756 0.910628 0.801374
v -0.609783 0.946302 0.853203
v -0.578914 0.94911 0.80403
v -0.587023 0.929269 0.75
v -0.640619 0.890872 0.744517
v -0.695353 0.873267 0.73598
v -0.670329 0.888968 0.688197
v -0.61361 0.917881 0.690499
v -0.649923 0.918697 0.645118
v -0.848557 0.955689 0.632443
v -0.834637 0.993925 0.59371
v -0.798901 0.941685 0.610214
v -0.812828 1.0382 0.566875
v -0.780894 0.983558 0.574143
v -0.744076 0.937696 0.598626
v -0.78479 1.08514 0.553979
v -0.751259 1.03779 0.550523
v -0.78479 1.14254 0.553979
v -0.719754 1.08652 0.54713
v -0.715114 0.984949 0.567215
v -0.688255 0.944025 0.598561
v -0.883427 0.999508 0.636917
v -0.906693 1.04894 0.65
v -0.866387 1.04204 0.601152
v -0.906693 1.10633 0.65
v -0.916586 1.15762 0.670695
v -0.8861 1.15931 0.621233
v -0.836752 1.09627 0.577532
v -0.836752 1.15367 0.577532
v -0.8861 1.10192 0.621233
v -0.866387 1.09944 0.601152
v -0.877844 0.950718 0.680125
v -0.895953 0.955074 0.733126
v -0.910089 0.99834 0.688555
v -0.901505 0.968426 0.787411
v -0.924155 1.00887 0.752338
v -0.929802 1.05822 0.708637
v -0.916586 1.10022 0.670695
v -0.929802 1.11561 0.708637
v -0.825604 0.914981 0.663621
v -0.79545 0.886322 0.701374
v -0.851604 0.912847 0.715565
v -0.760389 0.871891 0.742829
v -0.812833 0.88723 0.762655
v -0.865671 0.923375 0.779347
v -0.771758 0.903711 0.644854
v -0.705977 0.905102 0.637926
v -0.732987 0.878093 0.691944
f 1 2 3
f 2 4 5
f 3 5 6
f 2 5 3
f 4 7 8
f 9 10 11
f 12 11 13
f 9 11 12
f 6 14 15
f 14 16 17
f 15 17 18
f 14 17 15
f 4 8 5
f 8 16 14
f 5 14 6
f 8 14 5
f 1 3 19
f 3 6 20
f 19 20 21
f 3 20 19
f 6 15 22
f 15 18 23
f 22 23 24
f 15 23 22
f 21 25 26
f 25 24 27
f 26 27 28
f 25 27 26
f 6 22 20
f 22 24 25
f 20 25 21
f 22 25 20
f 1 19 29
f 19 21 30
f 29 30 31
f 19 30 29
f 21 26 32
f 26 28 33
f 32 33 34
f 26 33 32
f 31 35 36
f 35 34 37
f 36 37 38
f 35 37 36
f 21 32 30
f 32 34 35
f 30 35 31
f 32 35 30
f 1 29 39
f 29 31 40
f 39 40 41
f 29 40 39
f 31 36 42
f 36 38 43
f 42 43 44
f 36 43 42
f 41 45 46
f 45 44 47
f 48 49 50
f 45 47 46
f 31 42 40
f 42 44 45
f 40 45 41
f 42 45 40
f 1 39 2
f 39 41 51
f 2 51 4
f 39 51 2
f 41 46 52
f 48 50 53
f 54 53 55
f 48 53 54
f 56 57 9
f 57 55 58
f 9 58 10
f 57 58 9
f 41 52 51
f 54 55 57
f 51 59 4
f 54 57 60
f 10 61 11
f 61 62 63
f 11 63 13
f 61 63 11
f 62 64 65
f 64 66 67
f 65 67 68
f 64 67 65
f 16 69 17
f 69 70 71
f 17 71 18
f 69 71 17
f 62 65 63
f 65 68 72
f 63 72 13
f 65 72 63
f 18 71 73
f 71 70 74
f 73 74 75
f 71 74 73
f 68 67 76
f 67 66 77
f 76 77 78
f 67 77 76
f 75 79 80
f 79 81 82
f 80 82 83
f 79 82 80
f 68 76 84
f 76 78 85
f 74 79 75
f 86 79 74
f 18 73 23
f 73 75 87
f 23 87 24
f 73 87 23
f 75 80 88
f 80 83 89
f 88 89 90
f 80 89 88
f 24 91 27
f 91 90 92
f 27 92 28
f 91 92 27
f 75 88 87
f 88 90 91
f 87 91 24
f 88 91 87
f 28 92 93
f 92 90 94
f 93 94 95
f 92 94 93
f 90 89 96
f 89 83 97
f 96 97 98
f 89 97 96
f 95 99 100
f 99 98 101
f 100 101 102
f 99 101 100
f 90 96 94
f 96 98 99
f 94 99 95
f 96 99 94
f 28 93 33
f 93 95 103
f 33 103 34
f 93 103 33
f 95 100 104
f 100 102 105
f 104 105 106
f 100 105 104
f 34 107 37
f 107 106 108
f 37 108 38
f 107 108 37
f 95 104 103
f 104 106 107
f 103 107 34
f 104 107 103
f 38 108 109
f 108 106 110
f 109 110 111
f 108 110 109
f 106 105 112
f 105 102 113
f 112 113 114
f 105 113 112
f 115 116 117
f 116 118 119
f 117 119 120
f 116 119 117
f 106 112 110
f 112 114 121
f 110 121 111
f 112 121 110
f 38 109 43
f 109 111 122
f 43 122 44
f 109 122 43
f 115 117 123
f 117 120 124
f 123 124 125
f 117 124 123
f 126 127 49
f 127 125 128
f 49 128 50
f 127 128 49
f 111 129 122
f 123 125 127
f 122 130 44
f 123 127 131
f 50 128 132
f 128 125 133
f 132 133 134
f 128 133 132
f 125 124 135
f 124 120 136
f 135 136 137
f 124 136 135
f 134 138 139
f 138 137 140
f 139 140 141
f 138 140 139
f 125 135 133
f 135 137 138
f 133 138 134
f 135 138 133
f 50 132 53
f 132 134 142
f 53 142 55
f 132 142 53
f 134 139 143
f 139 141 144
f 143 144 145
f 139 144 143
f 55 146 58
f 146 145 147
f 58 147 10
f 146 147 58
f 134 143 142
f 143 145 146
f 142 146 55
f 143 146 142
f 10 147 61
f 147 145 148
f 61 148 62
f 147 148 61
f 145 144 149
f 144 141 150
f 149 150 151
f 144 150 149
f 62 152 64
f 152 151 153
f 64 153 66
f 152 153 64
f 145 149 148
f 149 151 152
f 148 152 62
f 149 152 148
f 154 155 156
f 155 157 158
f 156 158 159
f 155 158 156
f 157 160 161
f 162 83 82
f 161 163 78
f 160 163 161
f 159 164 165
f 164 78 77
f 165 77 66
f 164 77 165
f 157 161 158
f 161 78 164
f 158 164 159
f 161 164 158
f 154 166 155
f 166 167 168
f 155 168 157
f 166 168 155
f 169 170 171
f 170 102 101
f 171 101 98
f 170 101 171
f 157 172 160
f 173 98 97
f 162 97 83
f 173 97 162
f 167 174 168
f 171 98 173
f 168 172 157
f 171 173 175
f 154 176 166
f 176 177 178
f 166 178 167
f 176 178 166
f 177 179 180
f 179 120 119
f 180 119 118
f 179 119 180
f 167 181 182
f 183 114 113
f 170 113 102
f 183 113 170
f 177 180 178
f 180 118 181
f 178 181 167
f 180 181 178
f 154 184 176
f 184 185 186
f 176 186 177
f 184 186 176
f 185 187 188
f 187 141 140
f 188 140 137
f 187 140 188
f 177 189 179
f 189 137 136
f 179 136 120
f 189 136 179
f 185 188 186
f 188 137 189
f 186 189 177
f 188 189 186
f 154 156 184
f 156 159 190
f 184 190 185
f 156 190 184
f 159 165 191
f 165 66 153
f 191 153 151
f 165 153 191
f 185 192 187
f 192 151 150
f 187 150 141
f 192 150 187
f 159 191 190
f 191 151 192
f 190 192 185
f 191 192 190
f 13 16 12
f 12 16 8
f 12 8 9
f 9 8 7
f 48 46 49
f 49 46 47
f 54 52 48
f 48 52 46
f 56 4 57
f 57 4 59
f 9 7 56
f 56 7 4
f 57 59 60
f 60 59 51
f 60 51 54
f 54 51 52
f 68 70 72
f 72 70 69
f 72 69 13
f 13 69 16
f 76 86 84
f 84 86 74
f 84 74 68
f 68 74 70
f 78 81 85
f 85 81 79
f 85 79 76
f 76 79 86
f 115 111 116
f 116 111 121
f 116 121 118
f 118 121 114
f 123 129 115
f 115 129 111
f 126 44 127
f 127 44 130
f 49 47 126
f 126 47 44
f 127 130 131
f 131 130 122
f 131 122 123
f 123 122 129
f 163 82 78
f 78 82 81
f 160 162 163
f 163 162 82
f 172 173 160
f 160 173 162
f 167 169 174
f 174 169 171
f 174 171 168
f 168 171 175
f 168 175 172
f 172 175 173
f 181 183 182
f 182 183 170
f 182 170 167
f 167 170 169
f 118 114 181
f 181 114 183
