v 0.706557 1.07863 0.667557
v 0.741427 1.03481 0.663083
v 0.735844 1.0836 0.619875
v 0.764694 0.985379 0.65
v 0.768089 1.03598 0.611445
v 0.753953 1.07924 0.566875
v 0.774586 0.934096 0.629305
v 0.787802 0.976102 0.591364
v 0.770351 0.884868 0.602573
v 0.788493 0.923688 0.566244
v 0.79145 0.965354 0.528678
v 0.753953 1.0891 0.526875
v 0.782156 1.03531 0.507662
v 0.759506 1.07575 0.472589
v 0.79145 0.975211 0.488678
v 0.778996 1.01655 0.452735
v 0.752078 1.05442 0.421152
v 0.787802 0.985959 0.551364
v 0.782156 1.02545 0.547662
v 0.683604 1.11934 0.636379
v 0.709605 1.12147 0.584436
v 0.65345 1.148 0.598626
v 0.723671 1.1208 0.480653
v 0.721173 1.10108 0.426032
v 0.680207 1.13783 0.437304
v 0.65345 1.15785 0.558626
v 0.670834 1.15695 0.497345
v 0.61839 1.17228 0.517171
v 0.632297 1.16188 0.45411
v 0.581092 1.17139 0.47517
v 0.709605 1.13133 0.544436
v 0.656901 1.09263 0.689786
v 0.629758 1.13061 0.655146
v 0.602076 1.09662 0.701374
v 0.590987 1.16608 0.568056
v 0.553354 1.17091 0.52402
v 0.528329 1.15521 0.571804
v 0.563978 1.12922 0.662074
v 0.546255 1.09029 0.701439
v 0.528329 1.14535 0.611803
v 0.507923 1.11562 0.654882
v 0.493689 1.07413 0.689976
v 0.590987 1.15622 0.608056
v 0.692637 1.04039 0.70629
v 0.638894 1.05076 0.725857
v 0.670828 0.996119 0.733125
v 0.573114 1.04937 0.732785
v 0.516956 1.03668 0.724793
v 0.545707 0.993472 0.746303
v 0.609259 0.996531 0.749478
v 0.64279 0.949177 0.746021
v 0.577754 0.947801 0.75287
v 0.610657 0.90314 0.743995
v 0.724387 0.992276 0.698848
v 0.694752 0.938047 0.722468
v 0.66228 0.889978 0.726167
v 0.708325 0.882229 0.694929
v 0.7441 0.9324 0.678767
v 0.745286 0.880481 0.652658
v 0.767789 0.86364 0.550623
v 0.767789 0.873497 0.510623
v 0.751618 0.859686 0.458626
v 0.780928 0.914696 0.471781
v 0.788493 0.933545 0.526244
v 0.780928 0.904839 0.511781
v 0.723068 0.854343 0.410539
v 0.75434 0.903309 0.41228
v 0.684312 0.857875 0.370024
v 0.717485 0.903132 0.367332
v 0.740878 0.953551 0.3755
v 0.775281 0.964044 0.42808
v 0.752709 1.00529 0.393907
v 0.716973 1.05753 0.377404
v 0.712549 1.00549 0.351886
v 0.672126 1.05405 0.343749
v 0.691608 0.944759 0.336087
v 0.661045 0.895324 0.335208
v 0.632293 0.938529 0.313697
v 0.655462 0.997597 0.319394
v 0.620951 1.04425 0.32275
v 0.600246 0.9842 0.30713
v 0.567343 1.02886 0.316006
v 0.680652 1.10238 0.384378
v 0.623566 1.09448 0.351886
v 0.568711 1.07998 0.339254
v 0.571622 1.12281 0.3755
v 0.627814 1.13852 0.401071
v 0.575857 1.15407 0.421985
v 0.527067 1.15965 0.465192
v 0.52138 1.13627 0.41228
v 0.477757 1.13355 0.458626
v 0.517131 1.09223 0.363096
v 0.51572 1.04202 0.333833
v 0.469675 1.04977 0.365071
v 0.467783 1.09787 0.406797
v 0.436915 1.09506 0.45597
v 0.432714 1.05152 0.407342
v 0.40765 1.04713 0.457427
v 0.498619 1.1533 0.515483
v 0.445023 1.11491 0.51
v 0.410211 1.06836 0.509377
v 0.426382 1.08217 0.561374
v 0.47161 1.11644 0.609501
v 0.426382 1.07232 0.601374
v 0.454933 1.07766 0.649461
v 0.445023 1.10505 0.55
v 0.47161 1.12629 0.569501
v 0.460515 1.02887 0.692668
v 0.42366 1.02869 0.64772
v 0.437123 0.97845 0.6845
v 0.410211 1.0585 0.549377
v 0.397073 1.0173 0.588219
v 0.389507 1.00831 0.493756
v 0.389507 0.998456 0.533756
v 0.38655 0.95679 0.571322
v 0.397073 1.02716 0.548219
v 0.402719 0.967957 0.63192
v 0.425291 0.926708 0.666093
v 0.399005 0.91545 0.607265
v 0.425922 0.877583 0.638848
v 0.486393 0.987242 0.723913
v 0.465452 0.926506 0.708114
v 0.461028 0.874468 0.682596
v 0.505875 0.877947 0.716251
v 0.522538 0.934404 0.740606
v 0.55705 0.887753 0.73725
v 0.60929 0.852016 0.720746
v 0.554435 0.837524 0.708114
v 0.606378 0.809194 0.6845
v 0.497348 0.829626 0.675622
v 0.456827 0.830924 0.633968
v 0.497794 0.794172 0.622696
v 0.550186 0.793481 0.658929
v 0.602144 0.777934 0.638015
v 0.545703 0.770125 0.605891
v 0.596909 0.760614 0.58483
v 0.660869 0.839775 0.696904
v 0.656621 0.795732 0.64772
v 0.650933 0.772351 0.594808
v 0.700244 0.798454 0.601374
v 0.710217 0.834128 0.653203
v 0.741086 0.836936 0.60403
v 0.732978 0.817095 0.55
v 0.751618 0.849828 0.498626
v 0.679381 0.778698 0.544517
v 0.624647 0.761093 0.53598
v 0.649671 0.776794 0.488197
v 0.70639 0.815564 0.450499
v 0.649671 0.786651 0.448197
v 0.670077 0.816381 0.405118
v 0.70639 0.805707 0.490499
v 0.732978 0.826952 0.51
v 0.471443 0.853372 0.392443
v 0.485363 0.891608 0.35371
v 0.521099 0.839368 0.370214
v 0.507172 0.935882 0.326875
v 0.539106 0.881241 0.334143
v 0.575925 0.835379 0.358626
v 0.53521 0.982824 0.313979
v 0.568741 0.93547 0.310523
v 0.604886 0.882632 0.327215
v 0.631745 0.841708 0.358561
v 0.436573 0.897191 0.396917
v 0.413307 0.946622 0.41
v 0.453613 0.939725 0.361152
v 0.403415 0.997905 0.430695
v 0.4339 0.999601 0.381233
v 0.483248 0.993954 0.337532
v 0.442156 0.848401 0.440125
v 0.424047 0.852757 0.493125
v 0.409912 0.896024 0.448555
v 0.424047 0.8429 0.533125
v 0.418495 0.856252 0.587411
v 0.395845 0.896694 0.552338
v 0.390198 0.955899 0.468637
v 0.38655 0.966647 0.531322
v 0.395845 0.906551 0.512338
v 0.390198 0.946042 0.508637
v 0.494396 0.812665 0.423621
v 0.52455 0.784005 0.461374
v 0.468396 0.81053 0.475565
v 0.52455 0.774148 0.501374
v 0.559611 0.759717 0.542829
v 0.507167 0.775055 0.562655
v 0.454329 0.811201 0.579347
v 0.468396 0.800673 0.515565
v 0.548243 0.801394 0.404854
v 0.614023 0.802786 0.397926
v 0.587014 0.765919 0.491944
v 0.587014 0.775777 0.451944
f 1 2 3
f 2 4 5
f 3 5 6
f 2 5 3
f 4 7 8
f 7 9 10
f 8 10 11
f 7 10 8
f 12 13 14
f 13 15 16
f 14 16 17
f 13 16 14
f 4 8 5
f 18 15 13
f 5 19 6
f 8 19 5
f 1 3 20
f 3 6 21
f 20 21 22
f 3 21 20
f 12 14 23
f 14 17 24
f 23 24 25
f 14 24 23
f 26 27 28
f 27 25 29
f 28 29 30
f 27 29 28
f 12 23 31
f 23 25 27
f 31 27 26
f 23 27 31
f 1 20 32
f 20 22 33
f 32 33 34
f 20 33 32
f 26 28 35
f 28 30 36
f 35 36 37
f 28 36 35
f 34 38 39
f 38 40 41
f 39 41 42
f 38 41 39
f 22 43 33
f 43 40 38
f 33 38 34
f 43 38 33
f 1 32 44
f 32 34 45
f 44 45 46
f 32 45 44
f 34 39 47
f 39 42 48
f 47 48 49
f 39 48 47
f 46 50 51
f 50 49 52
f 51 52 53
f 50 52 51
f 34 47 45
f 47 49 50
f 45 50 46
f 47 50 45
f 1 44 2
f 44 46 54
f 2 54 4
f 44 54 2
f 46 51 55
f 51 53 56
f 55 56 57
f 51 56 55
f 4 58 7
f 58 57 59
f 7 59 9
f 58 59 7
f 46 55 54
f 55 57 58
f 54 58 4
f 55 58 54
f 9 60 10
f 61 62 63
f 64 63 15
f 60 65 10
f 62 66 67
f 66 68 69
f 67 69 70
f 66 69 67
f 15 71 16
f 71 70 72
f 16 72 17
f 71 72 16
f 62 67 63
f 67 70 71
f 63 71 15
f 67 71 63
f 17 72 73
f 72 70 74
f 73 74 75
f 72 74 73
f 70 69 76
f 69 68 77
f 76 77 78
f 69 77 76
f 75 79 80
f 79 78 81
f 80 81 82
f 79 81 80
f 70 76 74
f 76 78 79
f 74 79 75
f 76 79 74
f 17 73 24
f 73 75 83
f 24 83 25
f 73 83 24
f 75 80 84
f 80 82 85
f 84 85 86
f 80 85 84
f 25 87 29
f 87 86 88
f 29 88 30
f 87 88 29
f 75 84 83
f 84 86 87
f 83 87 25
f 84 87 83
f 30 88 89
f 88 86 90
f 89 90 91
f 88 90 89
f 86 85 92
f 85 82 93
f 92 93 94
f 85 93 92
f 91 95 96
f 95 94 97
f 96 97 98
f 95 97 96
f 86 92 90
f 92 94 95
f 90 95 91
f 92 95 90
f 30 89 36
f 89 91 99
f 36 99 37
f 89 99 36
f 91 96 100
f 96 98 101
f 100 101 102
f 96 101 100
f 40 103 41
f 103 104 105
f 41 105 42
f 103 105 41
f 91 100 99
f 106 104 103
f 99 107 37
f 100 107 99
f 42 105 108
f 105 104 109
f 108 109 110
f 105 109 108
f 104 111 112
f 101 98 113
f 112 114 115
f 101 113 116
f 110 117 118
f 117 115 119
f 118 119 120
f 117 119 118
f 104 112 109
f 112 115 117
f 109 117 110
f 112 117 109
f 42 108 48
f 108 110 121
f 48 121 49
f 108 121 48
f 110 118 122
f 118 120 123
f 122 123 124
f 118 123 122
f 49 125 52
f 125 124 126
f 52 126 53
f 125 126 52
f 110 122 121
f 122 124 125
f 121 125 49
f 122 125 121
f 53 126 127
f 126 124 128
f 127 128 129
f 126 128 127
f 124 123 130
f 123 120 131
f 130 131 132
f 123 131 130
f 129 133 134
f 133 132 135
f 134 135 136
f 133 135 134
f 124 130 128
f 130 132 133
f 128 133 129
f 130 133 128
f 53 127 56
f 127 129 137
f 56 137 57
f 127 137 56
f 129 134 138
f 134 136 139
f 138 139 140
f 134 139 138
f 57 141 59
f 141 140 142
f 59 142 9
f 141 142 59
f 129 138 137
f 138 140 141
f 137 141 57
f 138 141 137
f 9 142 60
f 142 140 143
f 60 143 144
f 142 143 60
f 140 139 145
f 139 136 146
f 145 146 147
f 139 146 145
f 62 148 66
f 148 149 150
f 66 150 68
f 148 150 66
f 140 145 143
f 145 147 151
f 152 148 62
f 145 151 143
f 153 154 155
f 154 156 157
f 155 157 158
f 154 157 155
f 156 159 160
f 159 82 81
f 160 81 78
f 159 81 160
f 158 161 162
f 161 78 77
f 162 77 68
f 161 77 162
f 156 160 157
f 160 78 161
f 157 161 158
f 160 161 157
f 153 163 154
f 163 164 165
f 154 165 156
f 163 165 154
f 164 166 167
f 166 98 97
f 167 97 94
f 166 97 167
f 156 168 159
f 168 94 93
f 159 93 82
f 168 93 159
f 164 167 165
f 167 94 168
f 165 168 156
f 167 168 165
f 153 169 163
f 169 170 171
f 163 171 164
f 169 171 163
f 172 173 174
f 173 120 119
f 174 119 115
f 173 119 174
f 164 175 166
f 175 176 113
f 166 113 98
f 175 113 166
f 170 177 171
f 174 115 178
f 171 175 164
f 177 175 171
f 153 179 169
f 179 180 181
f 169 181 170
f 179 181 169
f 182 183 184
f 183 136 135
f 184 135 132
f 183 135 184
f 172 185 173
f 185 132 131
f 173 131 120
f 185 131 173
f 182 184 186
f 184 132 185
f 186 185 172
f 184 185 186
f 153 155 179
f 155 158 187
f 179 187 180
f 155 187 179
f 158 162 188
f 162 68 150
f 188 150 149
f 162 150 188
f 182 189 183
f 189 147 146
f 183 146 136
f 189 146 183
f 158 188 187
f 188 149 190
f 187 190 180
f 188 190 187
f 10 64 11
f 11 64 15
f 11 15 8
f 8 15 18
f 19 13 6
f 6 13 12
f 8 18 19
f 19 18 13
f 6 12 21
f 21 12 31
f 21 31 22
f 22 31 26
f 22 26 43
f 43 26 35
f 43 35 40
f 40 35 37
f 60 61 65
f 65 61 63
f 65 63 10
f 10 63 64
f 40 37 103
f 103 37 107
f 106 100 104
f 104 100 102
f 103 107 106
f 106 107 100
f 104 102 111
f 111 102 101
f 111 101 112
f 112 101 116
f 112 116 114
f 114 116 113
f 114 113 115
f 115 113 176
f 143 152 144
f 144 152 62
f 144 62 60
f 60 62 61
f 147 149 151
f 151 149 148
f 151 148 143
f 143 148 152
f 174 177 172
f 172 177 170
f 115 176 178
f 178 176 175
f 178 175 174
f 174 175 177
f 186 181 182
f 182 181 180
f 172 170 186
f 186 170 181
f 182 180 189
f 189 180 190
f 189 190 147
f 147 190 149
