v 0.706557 1.08849 0.627557
v 0.741427 1.04467 0.623083
v 0.735844 1.09346 0.579876
v 0.764694 0.995236 0.61
v 0.768089 1.04583 0.571445
v 0.735844 1.13319 0.499875
v 0.768089 1.08557 0.491445
v 0.753953 1.12884 0.446875
v 0.774586 0.943954 0.589305
v 0.787802 0.985959 0.551364
v 0.770351 0.894725 0.562573
v 0.788493 0.933545 0.526244
v 0.79145 0.975211 0.488678
v 0.782156 1.07504 0.427662
v 0.759506 1.11548 0.392589
v 0.79145 1.01495 0.408678
v 0.778996 1.05629 0.372735
v 0.752078 1.09415 0.341152
v 0.787802 1.02569 0.471364
v 0.782156 1.03531 0.507662
v 0.683604 1.12919 0.596379
v 0.709605 1.17106 0.464436
v 0.683604 1.16893 0.516379
v 0.65345 1.19759 0.478626
v 0.723671 1.16054 0.400653
v 0.721173 1.14081 0.346032
v 0.680207 1.17756 0.357304
v 0.670834 1.19668 0.417345
v 0.61839 1.21202 0.437171
v 0.632297 1.20161 0.37411
v 0.581092 1.21112 0.39517
v 0.656901 1.10249 0.649786
v 0.629758 1.1802 0.535146
v 0.629758 1.14046 0.615146
v 0.602076 1.10648 0.661374
v 0.590987 1.20582 0.488056
v 0.553354 1.21064 0.44402
v 0.528329 1.19494 0.491803
v 0.563978 1.13907 0.622074
v 0.546255 1.10015 0.661439
v 0.528329 1.15521 0.571804
v 0.507923 1.12548 0.614882
v 0.493689 1.08398 0.649976
v 0.563978 1.17881 0.542074
v 0.590987 1.16608 0.568056
v 0.692637 1.05025 0.66629
v 0.638894 1.06062 0.685857
v 0.670828 1.00598 0.693125
v 0.573114 1.05923 0.692785
v 0.516956 1.04653 0.684793
v 0.545707 1.00333 0.706303
v 0.609259 1.00639 0.709478
v 0.64279 0.959034 0.706021
v 0.577754 0.957658 0.71287
v 0.610657 0.912997 0.703995
v 0.724387 1.00213 0.658848
v 0.694752 0.947904 0.682468
v 0.66228 0.899836 0.686167
v 0.708325 0.892086 0.654929
v 0.7441 0.942257 0.638767
v 0.745286 0.890338 0.612658
v 0.767789 0.873497 0.510623
v 0.751618 0.859686 0.458626
v 0.780928 0.914696 0.471781
v 0.788493 0.973281 0.446244
v 0.780928 0.954432 0.391781
v 0.751618 0.899421 0.378626
v 0.723068 0.894078 0.330539
v 0.75434 0.943044 0.33228
v 0.684312 0.89761 0.290024
v 0.717485 0.942868 0.287332
v 0.740878 0.993286 0.2955
v 0.775281 1.00378 0.34808
v 0.752709 1.04503 0.313907
v 0.716973 1.09727 0.297404
v 0.712549 1.04523 0.271886
v 0.672126 1.09379 0.263749
v 0.691608 0.984495 0.256087
v 0.661045 0.935059 0.255207
v 0.632293 0.978264 0.233697
v 0.655462 1.03733 0.239394
v 0.620951 1.08398 0.24275
v 0.600246 1.02394 0.22713
v 0.567343 1.0686 0.236006
v 0.680652 1.14211 0.304378
v 0.623566 1.13421 0.271886
v 0.568711 1.11972 0.259254
v 0.571622 1.16254 0.2955
v 0.627814 1.17826 0.321071
v 0.575857 1.1938 0.341985
v 0.527067 1.19939 0.385192
v 0.52138 1.176 0.33228
v 0.477757 1.17328 0.378626
v 0.517131 1.13196 0.283096
v 0.51572 1.08176 0.253833
v 0.469675 1.08951 0.285071
v 0.467783 1.13761 0.326797
v 0.436915 1.1348 0.37597
v 0.432714 1.09126 0.327342
v 0.40765 1.08687 0.377427
v 0.498619 1.19304 0.435483
v 0.445023 1.15464 0.43
v 0.410211 1.1081 0.429377
v 0.426382 1.12191 0.481374
v 0.47161 1.16603 0.489501
v 0.507923 1.16521 0.534882
v 0.47161 1.12629 0.569501
v 0.426382 1.08217 0.561374
v 0.454933 1.08752 0.609461
v 0.460515 1.03873 0.652668
v 0.42366 1.03855 0.60772
v 0.437123 0.988307 0.6445
v 0.397073 1.0669 0.468219
v 0.389507 1.04805 0.413756
v 0.397073 1.02716 0.548219
v 0.389507 1.00831 0.493756
v 0.38655 0.966647 0.531322
v 0.402719 0.977814 0.59192
v 0.425291 0.936565 0.626093
v 0.399005 0.925307 0.567265
v 0.425922 0.88744 0.598848
v 0.486393 0.997099 0.683913
v 0.465452 0.936364 0.668114
v 0.461028 0.884325 0.642596
v 0.505875 0.887804 0.676251
v 0.522538 0.944261 0.700606
v 0.55705 0.89761 0.69725
v 0.60929 0.861873 0.680746
v 0.554435 0.847381 0.668114
v 0.606378 0.819051 0.6445
v 0.497348 0.839483 0.635622
v 0.456827 0.840781 0.593968
v 0.497794 0.804029 0.582696
v 0.550186 0.803338 0.61893
v 0.602144 0.787791 0.598015
v 0.545703 0.779982 0.565891
v 0.596909 0.770471 0.54483
v 0.660869 0.849632 0.656904
v 0.656621 0.805589 0.60772
v 0.650933 0.782208 0.554808
v 0.700244 0.808311 0.561374
v 0.710217 0.843985 0.613203
v 0.741086 0.846793 0.56403
v 0.732978 0.826952 0.51
v 0.679381 0.788555 0.504517
v 0.624647 0.77095 0.49598
v 0.649671 0.786651 0.448197
v 0.70639 0.8553 0.370499
v 0.70639 0.815564 0.450499
v 0.670077 0.816381 0.405118
v 0.670077 0.856116 0.325118
v 0.471443 0.893107 0.312443
v 0.485363 0.931343 0.27371
v 0.521099 0.879103 0.290214
v 0.507172 0.975618 0.246875
v 0.539106 0.920976 0.254143
v 0.575925 0.875114 0.278626
v 0.53521 1.02256 0.233979
v 0.568741 0.975205 0.230523
v 0.604886 0.922368 0.247215
v 0.631745 0.881444 0.278561
v 0.436573 0.936926 0.316917
v 0.413307 0.986358 0.33
v 0.453613 0.979461 0.281152
v 0.403415 1.03764 0.350695
v 0.4339 1.03934 0.301233
v 0.483248 1.03369 0.257532
v 0.442156 0.888136 0.360125
v 0.442156 0.848401 0.440125
v 0.424047 0.852757 0.493125
v 0.409912 0.896024 0.448555
v 0.409912 0.935759 0.368555
v 0.418495 0.866109 0.547411
v 0.395845 0.906551 0.512338
v 0.390198 0.995634 0.388637
v 0.38655 1.00638 0.451322
v 0.390198 0.955899 0.468637
v 0.395845 0.946286 0.432338
v 0.494396 0.8524 0.343621
v 0.494396 0.812665 0.423621
v 0.52455 0.784005 0.461374
v 0.468396 0.81053 0.475565
v 0.559611 0.769574 0.502829
v 0.507167 0.784913 0.522655
v 0.454329 0.821058 0.539347
v 0.548243 0.84113 0.324854
v 0.548243 0.801394 0.404854
v 0.614023 0.842521 0.317926
v 0.649671 0.826387 0.368197
v 0.587014 0.775777 0.451944
v 0.614023 0.802786 0.397926
v 0.587014 0.815512 0.371944
f 1 2 3
f 2 4 5
f 6 7 8
f 2 5 3
f 4 9 10
f 9 11 12
f 10 12 13
f 9 12 10
f 8 14 15
f 14 16 17
f 15 17 18
f 14 17 15
f 4 10 5
f 19 16 14
f 7 14 8
f 10 20 5
f 1 3 21
f 6 8 22
f 23 22 24
f 6 22 23
f 8 15 25
f 15 18 26
f 25 26 27
f 15 26 25
f 24 28 29
f 28 27 30
f 29 30 31
f 28 30 29
f 8 25 22
f 25 27 28
f 22 28 24
f 25 28 22
f 1 21 32
f 23 24 33
f 32 34 35
f 21 34 32
f 24 29 36
f 29 31 37
f 36 37 38
f 29 37 36
f 35 39 40
f 39 41 42
f 40 42 43
f 39 42 40
f 24 36 33
f 36 38 44
f 34 39 35
f 45 39 34
f 1 32 46
f 32 35 47
f 46 47 48
f 32 47 46
f 35 40 49
f 40 43 50
f 49 50 51
f 40 50 49
f 48 52 53
f 52 51 54
f 53 54 55
f 52 54 53
f 35 49 47
f 49 51 52
f 47 52 48
f 49 52 47
f 1 46 2
f 46 48 56
f 2 56 4
f 46 56 2
f 48 53 57
f 53 55 58
f 57 58 59
f 53 58 57
f 4 60 9
f 60 59 61
f 9 61 11
f 60 61 9
f 48 57 56
f 57 59 60
f 56 60 4
f 57 60 56
f 11 62 12
f 62 63 64
f 65 66 16
f 62 64 12
f 67 68 69
f 68 70 71
f 69 71 72
f 68 71 69
f 16 73 17
f 73 72 74
f 17 74 18
f 73 74 17
f 67 69 66
f 69 72 73
f 66 73 16
f 69 73 66
f 18 74 75
f 74 72 76
f 75 76 77
f 74 76 75
f 72 71 78
f 71 70 79
f 78 79 80
f 71 79 78
f 77 81 82
f 81 80 83
f 82 83 84
f 81 83 82
f 72 78 76
f 78 80 81
f 76 81 77
f 78 81 76
f 18 75 26
f 75 77 85
f 26 85 27
f 75 85 26
f 77 82 86
f 82 84 87
f 86 87 88
f 82 87 86
f 27 89 30
f 89 88 90
f 30 90 31
f 89 90 30
f 77 86 85
f 86 88 89
f 85 89 27
f 86 89 85
f 31 90 91
f 90 88 92
f 91 92 93
f 90 92 91
f 88 87 94
f 87 84 95
f 94 95 96
f 87 95 94
f 93 97 98
f 97 96 99
f 98 99 100
f 97 99 98
f 88 94 92
f 94 96 97
f 92 97 93
f 94 97 92
f 31 91 37
f 91 93 101
f 37 101 38
f 91 101 37
f 93 98 102
f 98 100 103
f 102 103 104
f 98 103 102
f 38 105 106
f 107 108 109
f 42 109 43
f 107 109 42
f 93 102 101
f 102 104 105
f 101 105 38
f 102 105 101
f 43 109 110
f 109 108 111
f 110 111 112
f 109 111 110
f 104 103 113
f 103 100 114
f 115 116 117
f 103 114 113
f 112 118 119
f 118 117 120
f 119 120 121
f 118 120 119
f 108 115 111
f 115 117 118
f 111 118 112
f 115 118 111
f 43 110 50
f 110 112 122
f 50 122 51
f 110 122 50
f 112 119 123
f 119 121 124
f 123 124 125
f 119 124 123
f 51 126 54
f 126 125 127
f 54 127 55
f 126 127 54
f 112 123 122
f 123 125 126
f 122 126 51
f 123 126 122
f 55 127 128
f 127 125 129
f 128 129 130
f 127 129 128
f 125 124 131
f 124 121 132
f 131 132 133
f 124 132 131
f 130 134 135
f 134 133 136
f 135 136 137
f 134 136 135
f 125 131 129
f 131 133 134
f 129 134 130
f 131 134 129
f 55 128 58
f 128 130 138
f 58 138 59
f 128 138 58
f 130 135 139
f 135 137 140
f 139 140 141
f 135 140 139
f 59 142 61
f 142 141 143
f 61 143 11
f 142 143 61
f 130 139 138
f 139 141 142
f 138 142 59
f 139 142 138
f 11 143 62
f 143 141 144
f 62 144 63
f 143 144 62
f 141 140 145
f 140 137 146
f 145 146 147
f 140 146 145
f 67 148 68
f 149 147 150
f 68 151 70
f 148 151 68
f 141 145 144
f 145 147 149
f 144 149 63
f 145 149 144
f 152 153 154
f 153 155 156
f 154 156 157
f 153 156 154
f 155 158 159
f 158 84 83
f 159 83 80
f 158 83 159
f 157 160 161
f 160 80 79
f 161 79 70
f 160 79 161
f 155 159 156
f 159 80 160
f 156 160 157
f 159 160 156
f 152 162 153
f 162 163 164
f 153 164 155
f 162 164 153
f 163 165 166
f 165 100 99
f 166 99 96
f 165 99 166
f 155 167 158
f 167 96 95
f 158 95 84
f 167 95 158
f 163 166 164
f 166 96 167
f 164 167 155
f 166 167 164
f 152 168 162
f 169 170 171
f 162 172 163
f 168 172 162
f 170 173 174
f 173 121 120
f 174 120 117
f 173 120 174
f 163 175 165
f 175 176 114
f 165 114 100
f 175 114 165
f 170 174 171
f 174 117 177
f 172 175 163
f 178 175 172
f 152 179 168
f 180 181 182
f 169 182 170
f 180 182 169
f 181 183 184
f 183 137 136
f 184 136 133
f 183 136 184
f 170 185 173
f 185 133 132
f 173 132 121
f 185 132 173
f 181 184 182
f 184 133 185
f 182 185 170
f 184 185 182
f 152 154 179
f 154 157 186
f 180 187 181
f 154 186 179
f 157 161 188
f 161 70 151
f 188 151 189
f 161 151 188
f 181 190 183
f 190 147 146
f 183 146 137
f 190 146 183
f 157 188 186
f 191 147 190
f 187 190 181
f 188 192 186
f 5 7 3
f 3 7 6
f 12 65 13
f 13 65 16
f 13 16 10
f 10 16 19
f 10 19 20
f 20 19 14
f 20 14 5
f 5 14 7
f 3 6 21
f 21 6 23
f 21 23 34
f 34 23 33
f 39 44 41
f 41 44 38
f 41 38 42
f 42 38 106
f 45 36 39
f 39 36 44
f 34 33 45
f 45 33 36
f 63 67 64
f 64 67 66
f 64 66 12
f 12 66 65
f 107 105 108
f 108 105 104
f 42 106 107
f 107 106 105
f 115 113 116
f 116 113 114
f 116 114 117
f 117 114 176
f 108 104 115
f 115 104 113
f 147 189 150
f 150 189 151
f 150 151 149
f 149 151 148
f 149 148 63
f 63 148 67
f 171 172 169
f 169 172 168
f 174 178 171
f 171 178 172
f 117 176 177
f 177 176 175
f 177 175 174
f 174 175 178
f 169 168 180
f 180 168 179
f 180 179 187
f 187 179 186
f 191 188 147
f 147 188 189
f 190 192 191
f 191 192 188
f 187 186 190
f 190 186 192
