v 0.706557 1.12822 0.547557
v 0.741427 1.0844 0.543083
v 0.735844 1.13319 0.499875
v 0.764694 1.03497 0.53
v 0.768089 1.08557 0.491445
v 0.753953 1.12884 0.446875
v 0.774586 0.983689 0.509305
v 0.787802 1.02569 0.471364
v 0.770351 0.93446 0.482573
v 0.788493 0.973281 0.446244
v 0.79145 1.01495 0.408678
v 0.753953 1.16405 0.286875
v 0.782156 1.11025 0.267662
v 0.759506 1.1507 0.232589
v 0.79145 1.05016 0.248678
v 0.778996 1.0915 0.212735
v 0.752078 1.12936 0.181152
v 0.782156 1.07504 0.427662
v 0.683604 1.16893 0.516379
v 0.709605 1.17106 0.464436
v 0.65345 1.19759 0.478626
v 0.723671 1.19575 0.240653
v 0.721173 1.17602 0.186032
v 0.680207 1.21278 0.197304
v 0.65345 1.2328 0.318626
v 0.670834 1.23189 0.257345
v 0.61839 1.24723 0.277171
v 0.632297 1.23682 0.21411
v 0.581092 1.24633 0.23517
v 0.709605 1.20627 0.304436
v 0.656901 1.14223 0.569786
v 0.629758 1.1802 0.535146
v 0.602076 1.14621 0.581374
v 0.590987 1.24103 0.328056
v 0.553354 1.24585 0.28402
v 0.590987 1.20582 0.488056
v 0.553354 1.21064 0.44402
v 0.528329 1.19494 0.491803
v 0.563978 1.17881 0.542074
v 0.546255 1.13989 0.581439
v 0.507923 1.16521 0.534882
v 0.493689 1.12372 0.569976
v 0.692637 1.08999 0.58629
v 0.638894 1.10035 0.605857
v 0.670828 1.04571 0.613125
v 0.573114 1.09896 0.612785
v 0.516956 1.08627 0.604793
v 0.545707 1.04306 0.626303
v 0.609259 1.04612 0.629478
v 0.64279 0.998769 0.626021
v 0.577754 0.997393 0.63287
v 0.610657 0.952733 0.623995
v 0.724387 1.04187 0.578848
v 0.694752 0.987639 0.602468
v 0.66228 0.939571 0.606167
v 0.708325 0.931821 0.574929
v 0.7441 0.981993 0.558767
v 0.745286 0.930073 0.532658
v 0.767789 0.913232 0.430623
v 0.767789 0.948443 0.270623
v 0.751618 0.934632 0.218626
v 0.780928 0.989642 0.231781
v 0.788493 1.00849 0.286244
v 0.780928 0.954432 0.391781
v 0.723068 0.929289 0.170539
v 0.75434 0.978255 0.17228
v 0.684312 0.932821 0.130024
v 0.717485 0.978079 0.127332
v 0.740878 1.0285 0.1355
v 0.775281 1.03899 0.18808
v 0.752709 1.08024 0.153907
v 0.716973 1.13248 0.137404
v 0.712549 1.08044 0.111886
v 0.672126 1.129 0.103749
v 0.691608 1.01971 0.0960868
v 0.661045 0.97027 0.0952075
v 0.632293 1.01348 0.073697
v 0.655462 1.07254 0.0793942
v 0.620951 1.11919 0.0827504
v 0.600246 1.05915 0.0671297
v 0.567343 1.10381 0.0760056
v 0.680652 1.17732 0.144378
v 0.623566 1.16942 0.111886
v 0.568711 1.15493 0.0992541
v 0.571622 1.19775 0.1355
v 0.627814 1.21347 0.161071
v 0.575857 1.22901 0.181985
v 0.527067 1.2346 0.225192
v 0.52138 1.21122 0.17228
v 0.477757 1.20849 0.218626
v 0.517131 1.16717 0.123096
v 0.51572 1.11697 0.0938333
v 0.469675 1.12472 0.125071
v 0.467783 1.17282 0.166797
v 0.436915 1.17001 0.21597
v 0.432714 1.12647 0.167342
v 0.40765 1.12208 0.217427
v 0.498619 1.22825 0.275483
v 0.528329 1.23015 0.331804
v 0.445023 1.18985 0.27
v 0.410211 1.14331 0.269377
v 0.426382 1.15712 0.321374
v 0.47161 1.16603 0.489501
v 0.426382 1.12191 0.481374
v 0.454933 1.12725 0.529461
v 0.445023 1.15464 0.43
v 0.498619 1.19304 0.435483
v 0.47161 1.20124 0.329501
v 0.460515 1.07846 0.572668
v 0.42366 1.07828 0.52772
v 0.437123 1.02804 0.5645
v 0.410211 1.1081 0.429377
v 0.397073 1.0669 0.468219
v 0.389507 1.08326 0.253756
v 0.389507 1.04805 0.413756
v 0.38655 1.00638 0.451322
v 0.397073 1.10211 0.308219
v 0.402719 1.01755 0.51192
v 0.425291 0.976301 0.546093
v 0.399005 0.965042 0.487265
v 0.425922 0.927175 0.518848
v 0.486393 1.03683 0.603913
v 0.465452 0.976099 0.588114
v 0.461028 0.924061 0.562596
v 0.505875 0.927539 0.596251
v 0.522538 0.983997 0.620606
v 0.55705 0.937345 0.61725
v 0.60929 0.901609 0.600746
v 0.554435 0.887116 0.588114
v 0.606378 0.858787 0.5645
v 0.497348 0.879218 0.555622
v 0.456827 0.880516 0.513968
v 0.497794 0.843764 0.502696
v 0.550186 0.843073 0.538929
v 0.602144 0.827526 0.518015
v 0.545703 0.819718 0.485891
v 0.596909 0.810207 0.46483
v 0.660869 0.889367 0.576904
v 0.656621 0.845324 0.52772
v 0.650933 0.821944 0.474808
v 0.700244 0.848047 0.481374
v 0.710217 0.883721 0.533203
v 0.741086 0.886529 0.48403
v 0.732978 0.866687 0.43
v 0.751618 0.899421 0.378626
v 0.679381 0.828291 0.424517
v 0.624647 0.810685 0.41598
v 0.649671 0.826387 0.368197
v 0.70639 0.89051 0.210499
v 0.649671 0.861597 0.208197
v 0.670077 0.891327 0.165118
v 0.679381 0.863501 0.264517
v 0.732978 0.901898 0.27
v 0.70639 0.8553 0.370499
v 0.471443 0.928318 0.152443
v 0.485363 0.966554 0.11371
v 0.521099 0.914314 0.130214
v 0.507172 1.01083 0.0868747
v 0.539106 0.956187 0.0941432
v 0.575925 0.910325 0.118626
v 0.53521 1.05777 0.0739793
v 0.568741 1.01042 0.0705227
v 0.604886 0.957579 0.0872152
v 0.631745 0.916655 0.118561
v 0.436573 0.972137 0.156917
v 0.413307 1.02157 0.17
v 0.453613 1.01467 0.121152
v 0.403415 1.07285 0.190695
v 0.4339 1.07455 0.141233
v 0.483248 1.0689 0.0975318
v 0.442156 0.923347 0.200125
v 0.424047 0.927703 0.253125
v 0.409912 0.97097 0.208555
v 0.424047 0.892492 0.413125
v 0.418495 0.905844 0.467411
v 0.395845 0.946286 0.432338
v 0.390198 1.03085 0.228637
v 0.38655 1.04159 0.291322
v 0.395845 0.981497 0.272338
v 0.494396 0.887611 0.183621
v 0.52455 0.858951 0.221374
v 0.468396 0.885477 0.235565
v 0.52455 0.82374 0.381374
v 0.559611 0.809309 0.422829
v 0.507167 0.824648 0.442655
v 0.454329 0.860793 0.459347
v 0.468396 0.850266 0.395564
v 0.548243 0.87634 0.164854
v 0.614023 0.877732 0.157926
v 0.587014 0.815512 0.371944
v 0.587014 0.850723 0.211944
v 0.624647 0.845896 0.25598
f 1 2 3
f 2 4 5
f 3 5 6
f 2 5 3
f 4 7 8
f 7 9 10
f 8 10 11
f 7 10 8
f 12 13 14
f 13 15 16
f 14 16 17
f 13 16 14
f 4 8 5
f 8 11 18
f 5 18 6
f 8 18 5
f 1 3 19
f 3 6 20
f 19 20 21
f 3 20 19
f 12 14 22
f 14 17 23
f 22 23 24
f 14 23 22
f 25 26 27
f 26 24 28
f 27 28 29
f 26 28 27
f 12 22 30
f 22 24 26
f 30 26 25
f 22 26 30
f 1 19 31
f 19 21 32
f 31 32 33
f 19 32 31
f 25 27 34
f 27 29 35
f 36 37 38
f 27 35 34
f 33 39 40
f 39 38 41
f 40 41 42
f 39 41 40
f 21 36 32
f 36 38 39
f 32 39 33
f 36 39 32
f 1 31 43
f 31 33 44
f 43 44 45
f 31 44 43
f 33 40 46
f 40 42 47
f 46 47 48
f 40 47 46
f 45 49 50
f 49 48 51
f 50 51 52
f 49 51 50
f 33 46 44
f 46 48 49
f 44 49 45
f 46 49 44
f 1 43 2
f 43 45 53
f 2 53 4
f 43 53 2
f 45 50 54
f 50 52 55
f 54 55 56
f 50 55 54
f 4 57 7
f 57 56 58
f 7 58 9
f 57 58 7
f 45 54 53
f 54 56 57
f 53 57 4
f 54 57 53
f 9 59 10
f 60 61 62
f 63 62 15
f 59 64 10
f 61 65 66
f 65 67 68
f 66 68 69
f 65 68 66
f 15 70 16
f 70 69 71
f 16 71 17
f 70 71 16
f 61 66 62
f 66 69 70
f 62 70 15
f 66 70 62
f 17 71 72
f 71 69 73
f 72 73 74
f 71 73 72
f 69 68 75
f 68 67 76
f 75 76 77
f 68 76 75
f 74 78 79
f 78 77 80
f 79 80 81
f 78 80 79
f 69 75 73
f 75 77 78
f 73 78 74
f 75 78 73
f 17 72 23
f 72 74 82
f 23 82 24
f 72 82 23
f 74 79 83
f 79 81 84
f 83 84 85
f 79 84 83
f 24 86 28
f 86 85 87
f 28 87 29
f 86 87 28
f 74 83 82
f 83 85 86
f 82 86 24
f 83 86 82
f 29 87 88
f 87 85 89
f 88 89 90
f 87 89 88
f 85 84 91
f 84 81 92
f 91 92 93
f 84 92 91
f 90 94 95
f 94 93 96
f 95 96 97
f 94 96 95
f 85 91 89
f 91 93 94
f 89 94 90
f 91 94 89
f 29 88 35
f 88 90 98
f 35 98 99
f 88 98 35
f 90 95 100
f 95 97 101
f 100 101 102
f 95 101 100
f 38 103 41
f 103 104 105
f 41 105 42
f 103 105 41
f 90 100 98
f 106 104 103
f 107 103 38
f 100 108 98
f 42 105 109
f 105 104 110
f 109 110 111
f 105 110 109
f 104 112 113
f 101 97 114
f 113 115 116
f 101 114 117
f 111 118 119
f 118 116 120
f 119 120 121
f 118 120 119
f 104 113 110
f 113 116 118
f 110 118 111
f 113 118 110
f 42 109 47
f 109 111 122
f 47 122 48
f 109 122 47
f 111 119 123
f 119 121 124
f 123 124 125
f 119 124 123
f 48 126 51
f 126 125 127
f 51 127 52
f 126 127 51
f 111 123 122
f 123 125 126
f 122 126 48
f 123 126 122
f 52 127 128
f 127 125 129
f 128 129 130
f 127 129 128
f 125 124 131
f 124 121 132
f 131 132 133
f 124 132 131
f 130 134 135
f 134 133 136
f 135 136 137
f 134 136 135
f 125 131 129
f 131 133 134
f 129 134 130
f 131 134 129
f 52 128 55
f 128 130 138
f 55 138 56
f 128 138 55
f 130 135 139
f 135 137 140
f 139 140 141
f 135 140 139
f 56 142 58
f 142 141 143
f 58 143 9
f 142 143 58
f 130 139 138
f 139 141 142
f 138 142 56
f 139 142 138
f 9 143 59
f 143 141 144
f 59 144 145
f 143 144 59
f 141 140 146
f 140 137 147
f 146 147 148
f 140 147 146
f 61 149 65
f 149 150 151
f 65 151 67
f 149 151 65
f 141 146 144
f 152 150 149
f 153 149 61
f 146 154 144
f 155 156 157
f 156 158 159
f 157 159 160
f 156 159 157
f 158 161 162
f 161 81 80
f 162 80 77
f 161 80 162
f 160 163 164
f 163 77 76
f 164 76 67
f 163 76 164
f 158 162 159
f 162 77 163
f 159 163 160
f 162 163 159
f 155 165 156
f 165 166 167
f 156 167 158
f 165 167 156
f 166 168 169
f 168 97 96
f 169 96 93
f 168 96 169
f 158 170 161
f 170 93 92
f 161 92 81
f 170 92 161
f 166 169 167
f 169 93 170
f 167 170 158
f 169 170 167
f 155 171 165
f 171 172 173
f 165 173 166
f 171 173 165
f 174 175 176
f 175 121 120
f 176 120 116
f 175 120 176
f 166 177 168
f 177 178 114
f 168 114 97
f 177 114 168
f 172 179 173
f 179 178 177
f 173 177 166
f 179 177 173
f 155 180 171
f 180 181 182
f 171 182 172
f 180 182 171
f 183 184 185
f 184 137 136
f 185 136 133
f 184 136 185
f 174 186 175
f 186 133 132
f 175 132 121
f 186 132 175
f 183 185 187
f 185 133 186
f 187 186 174
f 185 186 187
f 155 157 180
f 157 160 188
f 180 188 181
f 157 188 180
f 160 164 189
f 164 67 151
f 189 151 150
f 164 151 189
f 183 190 184
f 191 150 192
f 184 147 137
f 190 147 184
f 160 189 188
f 189 150 191
f 188 191 181
f 189 191 188
f 10 63 11
f 11 63 15
f 11 15 18
f 18 15 13
f 18 13 6
f 6 13 12
f 6 12 20
f 20 12 30
f 20 30 21
f 21 30 25
f 36 34 37
f 37 34 35
f 37 35 38
f 38 35 99
f 21 25 36
f 36 25 34
f 59 60 64
f 64 60 62
f 64 62 10
f 10 62 63
f 106 100 104
f 104 100 102
f 103 108 106
f 106 108 100
f 107 98 103
f 103 98 108
f 38 99 107
f 107 99 98
f 104 102 112
f 112 102 101
f 112 101 113
f 113 101 117
f 113 117 115
f 115 117 114
f 115 114 116
f 116 114 178
f 144 153 145
f 145 153 61
f 145 61 59
f 59 61 60
f 147 192 148
f 148 192 150
f 148 150 146
f 146 150 152
f 146 152 154
f 154 152 149
f 154 149 144
f 144 149 153
f 176 179 174
f 174 179 172
f 116 178 176
f 176 178 179
f 187 182 183
f 183 182 181
f 174 172 187
f 187 172 182
f 183 181 190
f 190 181 191
f 190 191 147
f 147 191 192
