v 0.706557 1.16343 0.387557
v 0.741427 1.11961 0.383083
v 0.735844 1.1684 0.339876
v 0.764694 1.07018 0.37
v 0.768089 1.12078 0.331445
v 0.753953 1.16405 0.286875
v 0.774586 1.0189 0.349305
v 0.787802 1.06091 0.311364
v 0.770351 0.969671 0.322573
v 0.788493 1.00849 0.286244
v 0.79145 1.05016 0.248678
v 0.753953 1.19268 0.206875
v 0.782156 1.13889 0.187662
v 0.759506 1.17933 0.152589
v 0.79145 1.07879 0.168678
v 0.778996 1.12013 0.132735
v 0.752078 1.158 0.101152
v 0.787802 1.08954 0.231364
v 0.768089 1.14941 0.251445
v 0.782156 1.11025 0.267662
v 0.683604 1.20414 0.356379
v 0.735844 1.19704 0.259875
v 0.709605 1.23491 0.224436
v 0.683604 1.23277 0.276379
v 0.65345 1.26143 0.238626
v 0.709605 1.20627 0.304436
v 0.723671 1.22438 0.160653
v 0.721173 1.20466 0.106032
v 0.680207 1.24141 0.117304
v 0.670834 1.26053 0.177345
v 0.61839 1.27586 0.197171
v 0.632297 1.26546 0.13411
v 0.581092 1.27497 0.15517
v 0.656901 1.17744 0.409786
v 0.65345 1.2328 0.318626
v 0.629758 1.21541 0.375146
v 0.602076 1.18143 0.421374
v 0.590987 1.26966 0.248056
v 0.553354 1.27449 0.20402
v 0.528329 1.25879 0.251803
v 0.563978 1.21402 0.382074
v 0.546255 1.1751 0.421439
v 0.528329 1.23015 0.331804
v 0.507923 1.20042 0.374882
v 0.493689 1.15893 0.409976
v 0.590987 1.24103 0.328056
v 0.692637 1.1252 0.42629
v 0.638894 1.13556 0.445857
v 0.670828 1.08092 0.453126
v 0.573114 1.13417 0.452785
v 0.516956 1.12148 0.444793
v 0.545707 1.07828 0.466303
v 0.609259 1.08133 0.469478
v 0.64279 1.03398 0.466021
v 0.577754 1.0326 0.47287
v 0.610657 0.987943 0.463995
v 0.724387 1.07708 0.418848
v 0.694752 1.02285 0.442468
v 0.66228 0.974782 0.446167
v 0.708325 0.967032 0.414929
v 0.7441 1.0172 0.398767
v 0.745286 0.965284 0.372658
v 0.767789 0.948443 0.270623
v 0.767789 0.977077 0.190623
v 0.751618 0.963265 0.138626
v 0.780928 1.01828 0.151781
v 0.788493 1.03712 0.206244
v 0.780928 0.989642 0.231781
v 0.723068 0.957922 0.0905391
v 0.75434 1.00689 0.0922803
v 0.684312 0.961454 0.0500237
v 0.717485 1.00671 0.0473319
v 0.740878 1.05713 0.0555003
v 0.775281 1.06762 0.10808
v 0.752709 1.10887 0.0739074
v 0.716973 1.16111 0.0574037
v 0.712549 1.10907 0.0318861
v 0.672126 1.15763 0.0237493
v 0.691608 1.04834 0.0160867
v 0.661045 0.998904 0.0152075
v 0.632293 1.04211 -0.00630306
v 0.655462 1.10118 -0.000605822
v 0.620951 1.14783 0.0027504
v 0.600246 1.08778 -0.0128703
v 0.567343 1.13244 -0.00399444
v 0.680652 1.20595 0.0643781
v 0.623566 1.19806 0.0318861
v 0.568711 1.18356 0.0192541
v 0.571622 1.22639 0.0555003
v 0.627814 1.2421 0.0810707
v 0.575857 1.25765 0.101985
v 0.527067 1.26323 0.145192
v 0.52138 1.23985 0.0922803
v 0.477757 1.23713 0.138626
v 0.517131 1.19581 0.0430958
v 0.51572 1.1456 0.0138332
v 0.469675 1.15335 0.0450713
v 0.467783 1.20145 0.0867974
v 0.436915 1.19864 0.13597
v 0.432714 1.1551 0.0873418
v 0.40765 1.15071 0.137427
v 0.498619 1.25688 0.195483
v 0.445023 1.21849 0.19
v 0.410211 1.17194 0.189377
v 0.426382 1.18575 0.241374
v 0.47161 1.20124 0.329501
v 0.426382 1.15712 0.321374
v 0.454933 1.16246 0.369461
v 0.47161 1.22987 0.249501
v 0.460515 1.11367 0.412668
v 0.42366 1.1135 0.36772
v 0.437123 1.06325 0.4045
v 0.410211 1.14331 0.269377
v 0.397073 1.10211 0.308219
v 0.389507 1.11189 0.173756
v 0.389507 1.08326 0.253756
v 0.38655 1.04159 0.291322
v 0.397073 1.13074 0.228219
v 0.402719 1.05276 0.35192
v 0.425291 1.01151 0.386093
v 0.399005 1.00025 0.327265
v 0.425922 0.962386 0.358848
v 0.486393 1.07205 0.443913
v 0.465452 1.01131 0.428114
v 0.461028 0.959272 0.402596
v 0.505875 0.96275 0.436251
v 0.522538 1.01921 0.460606
v 0.55705 0.972556 0.45725
v 0.60929 0.93682 0.440746
v 0.554435 0.922327 0.428114
v 0.606378 0.893998 0.4045
v 0.497348 0.914429 0.395622
v 0.456827 0.915727 0.353968
v 0.497794 0.878975 0.342696
v 0.550186 0.878284 0.378929
v 0.602144 0.862737 0.358015
v 0.545703 0.854929 0.325891
v 0.596909 0.845417 0.30483
v 0.660869 0.924578 0.416904
v 0.656621 0.880535 0.36772
v 0.650933 0.857154 0.314808
v 0.700244 0.883258 0.321374
v 0.710217 0.918932 0.373203
v 0.741086 0.92174 0.32403
v 0.732978 0.901898 0.27
v 0.751618 0.934632 0.218626
v 0.679381 0.863501 0.264517
v 0.624647 0.845896 0.25598
v 0.649671 0.861597 0.208197
v 0.70639 0.919144 0.130499
v 0.649671 0.890231 0.128197
v 0.670077 0.91996 0.0851182
v 0.70639 0.89051 0.210499
v 0.471443 0.956952 0.072443
v 0.485363 0.995188 0.0337102
v 0.521099 0.942948 0.0502139
v 0.507172 1.03946 0.00687465
v 0.539106 0.984821 0.0141431
v 0.575925 0.938959 0.0386257
v 0.53521 1.0864 -0.00602075
v 0.568741 1.03905 -0.00947735
v 0.604886 0.986212 0.00721519
v 0.631745 0.945288 0.0385607
v 0.436573 1.00077 0.0769174
v 0.413307 1.0502 0.09
v 0.453613 1.0433 0.0411522
v 0.403415 1.10148 0.110695
v 0.4339 1.10318 0.0612334
v 0.483248 1.09753 0.0175318
v 0.442156 0.951981 0.120125
v 0.424047 0.956337 0.173125
v 0.409912 0.999603 0.128555
v 0.424047 0.927703 0.253125
v 0.418495 0.941055 0.307411
v 0.395845 0.981497 0.272338
v 0.390198 1.05948 0.148637
v 0.38655 1.07023 0.211322
v 0.409912 0.97097 0.208555
v 0.390198 1.03085 0.228637
v 0.395845 1.01013 0.192338
v 0.494396 0.916244 0.103621
v 0.494396 0.887611 0.183621
v 0.52455 0.858951 0.221374
v 0.468396 0.885477 0.235565
v 0.442156 0.923347 0.200125
v 0.468396 0.91411 0.155564
v 0.559611 0.84452 0.262829
v 0.507167 0.859859 0.282655
v 0.454329 0.896004 0.299347
v 0.548243 0.904974 0.0848538
v 0.52455 0.887584 0.141374
v 0.614023 0.906365 0.0779259
v 0.587014 0.850723 0.211944
v 0.587014 0.879356 0.131944
f 1 2 3
f 2 4 5
f 3 5 6
f 2 5 3
f 4 7 8
f 7 9 10
f 8 10 11
f 7 10 8
f 12 13 14
f 13 15 16
f 14 16 17
f 13 16 14
f 4 8 5
f 18 15 13
f 19 13 12
f 8 20 5
f 1 3 21
f 22 12 23
f 24 23 25
f 3 26 21
f 12 14 27
f 14 17 28
f 27 28 29
f 14 28 27
f 25 30 31
f 30 29 32
f 31 32 33
f 30 32 31
f 12 27 23
f 27 29 30
f 23 30 25
f 27 30 23
f 1 21 34
f 21 35 36
f 34 36 37
f 21 36 34
f 25 31 38
f 31 33 39
f 38 39 40
f 31 39 38
f 37 41 42
f 41 43 44
f 42 44 45
f 41 44 42
f 35 46 36
f 46 43 41
f 36 41 37
f 46 41 36
f 1 34 47
f 34 37 48
f 47 48 49
f 34 48 47
f 37 42 50
f 42 45 51
f 50 51 52
f 42 51 50
f 49 53 54
f 53 52 55
f 54 55 56
f 53 55 54
f 37 50 48
f 50 52 53
f 48 53 49
f 50 53 48
f 1 47 2
f 47 49 57
f 2 57 4
f 47 57 2
f 49 54 58
f 54 56 59
f 58 59 60
f 54 59 58
f 4 61 7
f 61 60 62
f 7 62 9
f 61 62 7
f 49 58 57
f 58 60 61
f 57 61 4
f 58 61 57
f 9 63 10
f 64 65 66
f 67 66 15
f 63 68 10
f 65 69 70
f 69 71 72
f 70 72 73
f 69 72 70
f 15 74 16
f 74 73 75
f 16 75 17
f 74 75 16
f 65 70 66
f 70 73 74
f 66 74 15
f 70 74 66
f 17 75 76
f 75 73 77
f 76 77 78
f 75 77 76
f 73 72 79
f 72 71 80
f 79 80 81
f 72 80 79
f 78 82 83
f 82 81 84
f 83 84 85
f 82 84 83
f 73 79 77
f 79 81 82
f 77 82 78
f 79 82 77
f 17 76 28
f 76 78 86
f 28 86 29
f 76 86 28
f 78 83 87
f 83 85 88
f 87 88 89
f 83 88 87
f 29 90 32
f 90 89 91
f 32 91 33
f 90 91 32
f 78 87 86
f 87 89 90
f 86 90 29
f 87 90 86
f 33 91 92
f 91 89 93
f 92 93 94
f 91 93 92
f 89 88 95
f 88 85 96
f 95 96 97
f 88 96 95
f 94 98 99
f 98 97 100
f 99 100 101
f 98 100 99
f 89 95 93
f 95 97 98
f 93 98 94
f 95 98 93
f 33 92 39
f 92 94 102
f 39 102 40
f 92 102 39
f 94 99 103
f 99 101 104
f 103 104 105
f 99 104 103
f 43 106 44
f 106 107 108
f 44 108 45
f 106 108 44
f 94 103 102
f 103 105 109
f 102 109 40
f 103 109 102
f 45 108 110
f 108 107 111
f 110 111 112
f 108 111 110
f 107 113 114
f 104 101 115
f 114 116 117
f 104 115 118
f 112 119 120
f 119 117 121
f 120 121 122
f 119 121 120
f 107 114 111
f 114 117 119
f 111 119 112
f 114 119 111
f 45 110 51
f 110 112 123
f 51 123 52
f 110 123 51
f 112 120 124
f 120 122 125
f 124 125 126
f 120 125 124
f 52 127 55
f 127 126 128
f 55 128 56
f 127 128 55
f 112 124 123
f 124 126 127
f 123 127 52
f 124 127 123
f 56 128 129
f 128 126 130
f 129 130 131
f 128 130 129
f 126 125 132
f 125 122 133
f 132 133 134
f 125 133 132
f 131 135 136
f 135 134 137
f 136 137 138
f 135 137 136
f 126 132 130
f 132 134 135
f 130 135 131
f 132 135 130
f 56 129 59
f 129 131 139
f 59 139 60
f 129 139 59
f 131 136 140
f 136 138 141
f 140 141 142
f 136 141 140
f 60 143 62
f 143 142 144
f 62 144 9
f 143 144 62
f 131 140 139
f 140 142 143
f 139 143 60
f 140 143 139
f 9 144 63
f 144 142 145
f 63 145 146
f 144 145 63
f 142 141 147
f 141 138 148
f 147 148 149
f 141 148 147
f 65 150 69
f 150 151 152
f 69 152 71
f 150 152 69
f 142 147 145
f 147 149 153
f 145 153 146
f 147 153 145
f 154 155 156
f 155 157 158
f 156 158 159
f 155 158 156
f 157 160 161
f 160 85 84
f 161 84 81
f 160 84 161
f 159 162 163
f 162 81 80
f 163 80 71
f 162 80 163
f 157 161 158
f 161 81 162
f 158 162 159
f 161 162 158
f 154 164 155
f 164 165 166
f 155 166 157
f 164 166 155
f 165 167 168
f 167 101 100
f 168 100 97
f 167 100 168
f 157 169 160
f 169 97 96
f 160 96 85
f 169 96 160
f 165 168 166
f 168 97 169
f 166 169 157
f 168 169 166
f 154 170 164
f 170 171 172
f 164 172 165
f 170 172 164
f 173 174 175
f 174 122 121
f 175 121 117
f 174 121 175
f 165 176 167
f 176 177 115
f 167 115 101
f 176 115 167
f 173 175 178
f 175 117 179
f 172 176 165
f 180 176 172
f 154 181 170
f 182 183 184
f 185 184 173
f 181 186 170
f 183 187 188
f 187 138 137
f 188 137 134
f 187 137 188
f 173 189 174
f 189 134 133
f 174 133 122
f 189 133 174
f 183 188 184
f 188 134 189
f 184 189 173
f 188 189 184
f 154 156 181
f 156 159 190
f 181 190 191
f 156 190 181
f 159 163 192
f 163 71 152
f 192 152 151
f 163 152 192
f 183 193 187
f 193 149 148
f 187 148 138
f 193 148 187
f 159 192 190
f 192 151 194
f 190 194 191
f 192 194 190
f 5 19 6
f 6 19 12
f 6 12 3
f 3 12 22
f 10 67 11
f 11 67 15
f 11 15 8
f 8 15 18
f 8 18 20
f 20 18 13
f 20 13 5
f 5 13 19
f 3 22 26
f 26 22 23
f 26 23 21
f 21 23 24
f 21 24 35
f 35 24 25
f 35 25 46
f 46 25 38
f 46 38 43
f 43 38 40
f 63 64 68
f 68 64 66
f 68 66 10
f 10 66 67
f 43 40 106
f 106 40 109
f 106 109 107
f 107 109 105
f 107 105 113
f 113 105 104
f 113 104 114
f 114 104 118
f 114 118 116
f 116 118 115
f 116 115 117
f 117 115 177
f 146 65 63
f 63 65 64
f 149 151 153
f 153 151 150
f 153 150 146
f 146 150 65
f 175 180 178
f 178 180 172
f 178 172 173
f 173 172 171
f 117 177 179
f 179 177 176
f 179 176 175
f 175 176 180
f 182 181 183
f 183 181 191
f 184 186 182
f 182 186 181
f 185 170 184
f 184 170 186
f 173 171 185
f 185 171 170
f 183 191 193
f 193 191 194
f 193 194 149
f 149 194 151
