v 0.706557 1.19207 0.307557
v 0.741427 1.14825 0.303083
v 0.735844 1.19704 0.259875
v 0.764694 1.09882 0.29
v 0.768089 1.14941 0.251445
v 0.753953 1.19268 0.206875
v 0.774586 1.04753 0.269305
v 0.787802 1.08954 0.231364
v 0.770351 0.998305 0.242573
v 0.788493 1.03712 0.206244
v 0.79145 1.07879 0.168678
v 0.753953 1.20458 0.0868747
v 0.782156 1.15078 0.0676619
v 0.759506 1.19123 0.0325893
v 0.79145 1.09069 0.0486781
v 0.778996 1.13203 0.0127353
v 0.752078 1.1699 -0.0188482
v 0.782156 1.13889 0.187662
v 0.683604 1.23277 0.276379
v 0.709605 1.23491 0.224436
v 0.65345 1.26143 0.238626
v 0.723671 1.23628 0.0406528
v 0.721173 1.21656 -0.0139682
v 0.680207 1.25331 -0.00269625
v 0.65345 1.27333 0.118626
v 0.670834 1.27242 0.0573454
v 0.61839 1.28776 0.0771708
v 0.632297 1.27735 0.0141096
v 0.581092 1.28686 0.03517
v 0.709605 1.24681 0.104436
v 0.670834 1.26053 0.177345
v 0.656901 1.20607 0.329786
v 0.629758 1.24404 0.295146
v 0.602076 1.21006 0.341374
v 0.61839 1.27586 0.197171
v 0.590987 1.26966 0.248056
v 0.553354 1.28639 0.0840204
v 0.553354 1.27449 0.20402
v 0.528329 1.25879 0.251803
v 0.563978 1.24265 0.302074
v 0.546255 1.20373 0.341439
v 0.507923 1.22906 0.294882
v 0.493689 1.18756 0.329976
v 0.692637 1.15383 0.34629
v 0.638894 1.1642 0.365857
v 0.670828 1.10956 0.373125
v 0.573114 1.16281 0.372785
v 0.516956 1.15011 0.364793
v 0.545707 1.10691 0.386303
v 0.609259 1.10997 0.389477
v 0.64279 1.06261 0.386021
v 0.577754 1.06124 0.39287
v 0.610657 1.01658 0.383995
v 0.724387 1.10571 0.338848
v 0.694752 1.05148 0.362468
v 0.66228 1.00342 0.366167
v 0.708325 0.995666 0.334929
v 0.7441 1.04584 0.318767
v 0.745286 0.993918 0.292658
v 0.767789 0.977077 0.190623
v 0.767789 0.988975 0.0706232
v 0.751618 0.975163 0.0186257
v 0.780928 1.03017 0.0317813
v 0.788493 1.04902 0.0862439
v 0.780928 1.01828 0.151781
v 0.723068 0.96982 -0.0294609
v 0.75434 1.01879 -0.0277197
v 0.684312 0.973352 -0.0699763
v 0.717485 1.01861 -0.0726682
v 0.740878 1.06903 -0.0644997
v 0.775281 1.07952 -0.0119203
v 0.752709 1.12077 -0.0460926
v 0.716973 1.17301 -0.0625963
v 0.712549 1.12097 -0.0881139
v 0.672126 1.16953 -0.0962507
v 0.691608 1.06024 -0.103913
v 0.661045 1.0108 -0.104793
v 0.632293 1.05401 -0.126303
v 0.655462 1.11307 -0.120606
v 0.620951 1.15973 -0.11725
v 0.600246 1.09968 -0.13287
v 0.567343 1.14434 -0.123994
v 0.680652 1.21785 -0.0556219
v 0.623566 1.20996 -0.0881139
v 0.568711 1.19546 -0.100746
v 0.571622 1.23828 -0.0644997
v 0.627814 1.254 -0.0389293
v 0.575857 1.26955 -0.0180148
v 0.527067 1.27513 0.0251924
v 0.52138 1.25175 -0.0277197
v 0.477757 1.24902 0.0186257
v 0.517131 1.2077 -0.0769042
v 0.51572 1.1575 -0.106167
v 0.469675 1.16525 -0.0749287
v 0.467783 1.21335 -0.0332026
v 0.436915 1.21054 0.0159699
v 0.432714 1.167 -0.0326582
v 0.40765 1.16261 0.0174269
v 0.498619 1.26878 0.075483
v 0.498619 1.25688 0.195483
v 0.445023 1.23038 0.0700001
v 0.410211 1.18384 0.069377
v 0.445023 1.21849 0.19
v 0.410211 1.17194 0.189377
v 0.426382 1.18575 0.241374
v 0.47161 1.22987 0.249501
v 0.454933 1.1911 0.289461
v 0.460515 1.14231 0.332668
v 0.42366 1.14213 0.28772
v 0.437123 1.09189 0.3245
v 0.397073 1.13074 0.228219
v 0.389507 1.12379 0.0537562
v 0.389507 1.11189 0.173756
v 0.38655 1.07023 0.211322
v 0.397073 1.14264 0.108219
v 0.402719 1.08139 0.27192
v 0.425291 1.04015 0.306093
v 0.399005 1.02889 0.247265
v 0.425922 0.991019 0.278848
v 0.486393 1.10068 0.363913
v 0.465452 1.03994 0.348114
v 0.461028 0.987905 0.322596
v 0.505875 0.991383 0.356251
v 0.522538 1.04784 0.380606
v 0.55705 1.00119 0.37725
v 0.60929 0.965453 0.360746
v 0.554435 0.95096 0.348114
v 0.606378 0.922631 0.3245
v 0.497348 0.943063 0.315622
v 0.456827 0.94436 0.273968
v 0.497794 0.907609 0.262696
v 0.550186 0.906917 0.298929
v 0.602144 0.891371 0.278015
v 0.545703 0.883562 0.245891
v 0.596909 0.874051 0.22483
v 0.660869 0.953212 0.336904
v 0.656621 0.909169 0.28772
v 0.650933 0.885788 0.234808
v 0.700244 0.911891 0.241374
v 0.710217 0.947565 0.293203
v 0.741086 0.950373 0.24403
v 0.732978 0.930531 0.19
v 0.732978 0.942429 0.07
v 0.679381 0.892135 0.184517
v 0.624647 0.874529 0.17598
v 0.679381 0.904033 0.0645171
v 0.624647 0.886427 0.0559797
v 0.649671 0.902129 0.00819663
v 0.70639 0.931042 0.010499
v 0.670077 0.931858 -0.0348818
v 0.471443 0.96885 -0.047557
v 0.485363 1.00709 -0.0862898
v 0.521099 0.954846 -0.0697861
v 0.507172 1.05136 -0.113125
v 0.539106 0.996719 -0.105857
v 0.575925 0.950857 -0.0813743
v 0.53521 1.0983 -0.126021
v 0.568741 1.05095 -0.129477
v 0.604886 0.99811 -0.112785
v 0.631745 0.957186 -0.0814393
v 0.436573 1.01267 -0.0430826
v 0.413307 1.0621 -0.03
v 0.453613 1.0552 -0.0788478
v 0.403415 1.11338 -0.00930498
v 0.4339 1.11508 -0.0587666
v 0.483248 1.10943 -0.102468
v 0.442156 0.963879 0.000124648
v 0.424047 0.968235 0.0531254
v 0.409912 1.0115 0.00855542
v 0.424047 0.956337 0.173125
v 0.418495 0.969688 0.227411
v 0.395845 1.01013 0.192338
v 0.390198 1.07138 0.0286366
v 0.38655 1.08212 0.091322
v 0.395845 1.02203 0.0723382
v 0.494396 0.928142 -0.0163791
v 0.52455 0.899482 0.0213743
v 0.468396 0.926008 0.0355645
v 0.52455 0.887584 0.141374
v 0.559611 0.873154 0.182829
v 0.507167 0.888492 0.202655
v 0.454329 0.924637 0.219347
v 0.507167 0.90039 0.0826547
v 0.468396 0.91411 0.155564
v 0.548243 0.916872 -0.0351462
v 0.614023 0.918263 -0.0420741
v 0.587014 0.891254 0.011944
v 0.559611 0.885052 0.0628293
f 1 2 3
f 2 4 5
f 3 5 6
f 2 5 3
f 4 7 8
f 7 9 10
f 8 10 11
f 7 10 8
f 12 13 14
f 13 15 16
f 14 16 17
f 13 16 14
f 4 8 5
f 8 11 18
f 5 18 6
f 8 18 5
f 1 3 19
f 3 6 20
f 19 20 21
f 3 20 19
f 12 14 22
f 14 17 23
f 22 23 24
f 14 23 22
f 25 26 27
f 26 24 28
f 27 28 29
f 26 28 27
f 12 22 30
f 22 24 26
f 20 31 21
f 22 26 30
f 1 19 32
f 19 21 33
f 32 33 34
f 19 33 32
f 21 35 36
f 27 29 37
f 36 38 39
f 35 38 36
f 34 40 41
f 40 39 42
f 41 42 43
f 40 42 41
f 21 36 33
f 36 39 40
f 33 40 34
f 36 40 33
f 1 32 44
f 32 34 45
f 44 45 46
f 32 45 44
f 34 41 47
f 41 43 48
f 47 48 49
f 41 48 47
f 46 50 51
f 50 49 52
f 51 52 53
f 50 52 51
f 34 47 45
f 47 49 50
f 45 50 46
f 47 50 45
f 1 44 2
f 44 46 54
f 2 54 4
f 44 54 2
f 46 51 55
f 51 53 56
f 55 56 57
f 51 56 55
f 4 58 7
f 58 57 59
f 7 59 9
f 58 59 7
f 46 55 54
f 55 57 58
f 54 58 4
f 55 58 54
f 9 60 10
f 61 62 63
f 64 63 15
f 60 65 10
f 62 66 67
f 66 68 69
f 67 69 70
f 66 69 67
f 15 71 16
f 71 70 72
f 16 72 17
f 71 72 16
f 62 67 63
f 67 70 71
f 63 71 15
f 67 71 63
f 17 72 73
f 72 70 74
f 73 74 75
f 72 74 73
f 70 69 76
f 69 68 77
f 76 77 78
f 69 77 76
f 75 79 80
f 79 78 81
f 80 81 82
f 79 81 80
f 70 76 74
f 76 78 79
f 74 79 75
f 76 79 74
f 17 73 23
f 73 75 83
f 23 83 24
f 73 83 23
f 75 80 84
f 80 82 85
f 84 85 86
f 80 85 84
f 24 87 28
f 87 86 88
f 28 88 29
f 87 88 28
f 75 84 83
f 84 86 87
f 83 87 24
f 84 87 83
f 29 88 89
f 88 86 90
f 89 90 91
f 88 90 89
f 86 85 92
f 85 82 93
f 92 93 94
f 85 93 92
f 91 95 96
f 95 94 97
f 96 97 98
f 95 97 96
f 86 92 90
f 92 94 95
f 90 95 91
f 92 95 90
f 29 89 37
f 89 91 99
f 38 100 39
f 89 99 37
f 91 96 101
f 96 98 102
f 103 104 105
f 96 102 101
f 39 106 42
f 106 105 107
f 42 107 43
f 106 107 42
f 91 101 99
f 103 105 106
f 100 106 39
f 103 106 100
f 43 107 108
f 107 105 109
f 108 109 110
f 107 109 108
f 105 104 111
f 102 98 112
f 111 113 114
f 102 112 115
f 110 116 117
f 116 114 118
f 117 118 119
f 116 118 117
f 105 111 109
f 111 114 116
f 109 116 110
f 111 116 109
f 43 108 48
f 108 110 120
f 48 120 49
f 108 120 48
f 110 117 121
f 117 119 122
f 121 122 123
f 117 122 121
f 49 124 52
f 124 123 125
f 52 125 53
f 124 125 52
f 110 121 120
f 121 123 124
f 120 124 49
f 121 124 120
f 53 125 126
f 125 123 127
f 126 127 128
f 125 127 126
f 123 122 129
f 122 119 130
f 129 130 131
f 122 130 129
f 128 132 133
f 132 131 134
f 133 134 135
f 132 134 133
f 123 129 127
f 129 131 132
f 127 132 128
f 129 132 127
f 53 126 56
f 126 128 136
f 56 136 57
f 126 136 56
f 128 133 137
f 133 135 138
f 137 138 139
f 133 138 137
f 57 140 59
f 140 139 141
f 59 141 9
f 140 141 59
f 128 137 136
f 137 139 140
f 136 140 57
f 137 140 136
f 9 141 60
f 141 139 142
f 61 143 62
f 141 142 60
f 139 138 144
f 138 135 145
f 146 147 148
f 138 145 144
f 62 149 66
f 149 148 150
f 66 150 68
f 149 150 66
f 139 144 142
f 146 148 149
f 143 149 62
f 146 149 143
f 151 152 153
f 152 154 155
f 153 155 156
f 152 155 153
f 154 157 158
f 157 82 81
f 158 81 78
f 157 81 158
f 156 159 160
f 159 78 77
f 160 77 68
f 159 77 160
f 154 158 155
f 158 78 159
f 155 159 156
f 158 159 155
f 151 161 152
f 161 162 163
f 152 163 154
f 161 163 152
f 162 164 165
f 164 98 97
f 165 97 94
f 164 97 165
f 154 166 157
f 166 94 93
f 157 93 82
f 166 93 157
f 162 165 163
f 165 94 166
f 163 166 154
f 165 166 163
f 151 167 161
f 167 168 169
f 161 169 162
f 167 169 161
f 170 171 172
f 171 119 118
f 172 118 114
f 171 118 172
f 162 173 164
f 173 174 112
f 164 112 98
f 173 112 164
f 168 175 169
f 175 174 173
f 169 173 162
f 175 173 169
f 151 176 167
f 176 177 178
f 167 178 168
f 176 178 167
f 179 180 181
f 180 135 134
f 181 134 131
f 180 134 181
f 170 182 171
f 182 131 130
f 171 130 119
f 182 130 171
f 177 183 178
f 181 131 182
f 184 182 170
f 181 182 184
f 151 153 176
f 153 156 185
f 176 185 177
f 153 185 176
f 156 160 186
f 160 68 150
f 186 150 148
f 160 150 186
f 177 187 188
f 187 148 147
f 180 145 135
f 187 147 188
f 156 186 185
f 186 148 187
f 185 187 177
f 186 187 185
f 10 64 11
f 11 64 15
f 11 15 18
f 18 15 13
f 18 13 6
f 6 13 12
f 6 12 20
f 20 12 30
f 20 30 31
f 31 30 26
f 31 26 21
f 21 26 25
f 21 25 35
f 35 25 27
f 35 27 38
f 38 27 37
f 60 61 65
f 65 61 63
f 65 63 10
f 10 63 64
f 38 37 100
f 100 37 99
f 103 101 104
f 104 101 102
f 100 99 103
f 103 99 101
f 104 102 111
f 111 102 115
f 111 115 113
f 113 115 112
f 113 112 114
f 114 112 174
f 142 143 60
f 60 143 61
f 145 147 144
f 144 147 146
f 144 146 142
f 142 146 143
f 172 175 170
f 170 175 168
f 114 174 172
f 172 174 175
f 179 177 180
f 180 177 188
f 181 183 179
f 179 183 177
f 170 168 184
f 184 168 178
f 184 178 181
f 181 178 183
f 180 188 145
f 145 188 147
