v 0.706557 1.20396 0.187557
v 0.741427 1.16015 0.183083
v 0.735844 1.20894 0.139875
v 0.764694 1.11071 0.17
v 0.768089 1.16131 0.131445
v 0.753953 1.20458 0.0868747
v 0.774586 1.05943 0.149305
v 0.787802 1.10144 0.111364
v 0.770351 1.0102 0.122573
v 0.788493 1.04902 0.0862439
v 0.79145 1.09069 0.0486781
v 0.782156 1.15078 0.0676619
v 0.759506 1.19123 0.0325893
v 0.782156 1.13713 -0.0123381
v 0.79145 1.07703 -0.0313219
v 0.778996 1.11837 -0.0672646
v 0.759506 1.17757 -0.0474107
v 0.752078 1.15624 -0.0988482
v 0.683604 1.24467 0.156379
v 0.709605 1.24681 0.104436
v 0.65345 1.27333 0.118626
v 0.723671 1.23628 0.0406528
v 0.721173 1.2029 -0.0939682
v 0.723671 1.22262 -0.0393471
v 0.680207 1.23965 -0.0826962
v 0.670834 1.27242 0.0573454
v 0.61839 1.28776 0.0771708
v 0.670834 1.25877 -0.0226546
v 0.632297 1.2637 -0.0658904
v 0.632297 1.27735 0.0141096
v 0.581092 1.28686 0.03517
v 0.656901 1.21797 0.209786
v 0.629758 1.25594 0.175146
v 0.602076 1.22196 0.221374
v 0.590987 1.28156 0.128056
v 0.553354 1.28639 0.0840204
v 0.528329 1.27068 0.131803
v 0.563978 1.25455 0.182074
v 0.546255 1.21563 0.221439
v 0.507923 1.24096 0.174882
v 0.493689 1.19946 0.209976
v 0.692637 1.16573 0.22629
v 0.638894 1.17609 0.245857
v 0.670828 1.12145 0.253125
v 0.573114 1.1747 0.252785
v 0.516956 1.16201 0.244793
v 0.545707 1.11881 0.266303
v 0.609259 1.12187 0.269477
v 0.64279 1.07451 0.266021
v 0.577754 1.07314 0.27287
v 0.610657 1.02847 0.263995
v 0.724387 1.11761 0.218848
v 0.694752 1.06338 0.242468
v 0.66228 1.01531 0.246167
v 0.708325 1.00756 0.214929
v 0.7441 1.05774 0.198767
v 0.745286 1.00582 0.172658
v 0.767789 0.988975 0.0706232
v 0.767789 0.975319 -0.00937682
v 0.751618 0.961508 -0.0613742
v 0.780928 1.01652 -0.0482186
v 0.788493 1.03537 0.00624389
v 0.723068 0.956165 -0.109461
v 0.75434 1.00513 -0.10772
v 0.684312 0.959697 -0.149976
v 0.717485 1.00495 -0.152668
v 0.740878 1.05537 -0.1445
v 0.775281 1.06587 -0.0919202
v 0.752709 1.10712 -0.126093
v 0.716973 1.15936 -0.142596
v 0.712549 1.10732 -0.168114
v 0.672126 1.15588 -0.176251
v 0.691608 1.04658 -0.183913
v 0.661045 0.997147 -0.184793
v 0.632293 1.04035 -0.206303
v 0.655462 1.09942 -0.200606
v 0.620951 1.14607 -0.19725
v 0.600246 1.08602 -0.21287
v 0.567343 1.13068 -0.203994
v 0.680652 1.2042 -0.135622
v 0.623566 1.1963 -0.168114
v 0.568711 1.18181 -0.180746
v 0.571622 1.22463 -0.1445
v 0.627814 1.24034 -0.118929
v 0.575857 1.25589 -0.0980148
v 0.581092 1.27321 -0.04483
v 0.527067 1.26147 -0.0548076
v 0.52138 1.23809 -0.10772
v 0.477757 1.23537 -0.0613742
v 0.517131 1.19405 -0.156904
v 0.51572 1.14385 -0.186167
v 0.469675 1.15159 -0.154929
v 0.467783 1.1997 -0.113203
v 0.436915 1.19689 -0.0640301
v 0.432714 1.15334 -0.112658
v 0.40765 1.14896 -0.062573
v 0.527067 1.27513 0.0251924
v 0.477757 1.24902 0.0186257
v 0.498619 1.26878 0.075483
v 0.445023 1.21673 -0.00999992
v 0.410211 1.17018 -0.010623
v 0.445023 1.23038 0.0700001
v 0.410211 1.18384 0.069377
v 0.426382 1.19765 0.121374
v 0.436915 1.21054 0.0159699
v 0.47161 1.24177 0.129501
v 0.454933 1.20299 0.169461
v 0.460515 1.1542 0.212668
v 0.42366 1.15403 0.16772
v 0.437123 1.10378 0.2045
v 0.397073 1.14264 0.108219
v 0.389507 1.11014 -0.0262438
v 0.389507 1.12379 0.0537562
v 0.38655 1.08212 0.091322
v 0.402719 1.09329 0.15192
v 0.425291 1.05204 0.186093
v 0.399005 1.04078 0.127265
v 0.425922 1.00292 0.158848
v 0.486393 1.11258 0.243913
v 0.465452 1.05184 0.228114
v 0.461028 0.999803 0.202596
v 0.505875 1.00328 0.236251
v 0.522538 1.05974 0.260606
v 0.55705 1.01309 0.25725
v 0.60929 0.977351 0.240746
v 0.554435 0.962858 0.228114
v 0.606378 0.934529 0.2045
v 0.497348 0.954961 0.195622
v 0.456827 0.956258 0.153968
v 0.497794 0.919507 0.142696
v 0.550186 0.918815 0.178929
v 0.602144 0.903269 0.158015
v 0.545703 0.89546 0.125891
v 0.596909 0.885949 0.10483
v 0.660869 0.96511 0.216904
v 0.656621 0.921067 0.16772
v 0.650933 0.897686 0.114808
v 0.700244 0.923789 0.121374
v 0.710217 0.959463 0.173203
v 0.741086 0.962271 0.12403
v 0.732978 0.942429 0.07
v 0.732978 0.928774 -0.00999994
v 0.741086 0.948616 0.0440303
v 0.700244 0.910134 0.0413744
v 0.650933 0.884031 0.0348077
v 0.679381 0.890378 -0.0154828
v 0.596909 0.872294 0.0248301
v 0.624647 0.872772 -0.0240202
v 0.649671 0.888474 -0.0718033
v 0.70639 0.917387 -0.069501
v 0.670077 0.918203 -0.114882
v 0.471443 0.955195 -0.127557
v 0.485363 0.993431 -0.16629
v 0.521099 0.941191 -0.149786
v 0.507172 1.0377 -0.193125
v 0.539106 0.983064 -0.185857
v 0.575925 0.937201 -0.161374
v 0.53521 1.08465 -0.206021
v 0.568741 1.03729 -0.209477
v 0.604886 0.984455 -0.192785
v 0.631745 0.943531 -0.161439
v 0.436573 0.999013 -0.123083
v 0.413307 1.04844 -0.11
v 0.453613 1.04155 -0.158848
v 0.403415 1.09973 -0.089305
v 0.4339 1.10142 -0.138767
v 0.483248 1.09578 -0.182468
v 0.442156 0.950223 -0.0798753
v 0.424047 0.954579 -0.0268746
v 0.409912 0.997846 -0.0714446
v 0.418495 0.967931 0.0274108
v 0.395845 1.00837 -0.00766181
v 0.418495 0.981586 0.107411
v 0.395845 1.02203 0.0723382
v 0.390198 1.05772 -0.0513634
v 0.38655 1.06847 0.0113221
v 0.494396 0.914487 -0.096379
v 0.52455 0.885827 -0.0586257
v 0.468396 0.912353 -0.0444355
v 0.559611 0.871397 -0.0171707
v 0.507167 0.886735 0.00265471
v 0.545703 0.881805 0.0458905
v 0.507167 0.90039 0.0826547
v 0.454329 0.92288 0.0193473
v 0.454329 0.936536 0.0993472
v 0.548243 0.903217 -0.115146
v 0.614023 0.904608 -0.122074
v 0.587014 0.877599 -0.068056
f 1 2 3
f 2 4 5
f 3 5 6
f 2 5 3
f 4 7 8
f 7 9 10
f 8 10 11
f 7 10 8
f 6 12 13
f 14 15 16
f 17 16 18
f 14 16 17
f 4 8 5
f 8 11 12
f 5 12 6
f 8 12 5
f 1 3 19
f 3 6 20
f 19 20 21
f 3 20 19
f 6 13 22
f 17 18 23
f 24 23 25
f 17 23 24
f 21 26 27
f 28 25 29
f 27 30 31
f 26 30 27
f 6 22 20
f 24 25 28
f 20 26 21
f 22 26 20
f 1 19 32
f 19 21 33
f 32 33 34
f 19 33 32
f 21 27 35
f 27 31 36
f 35 36 37
f 27 36 35
f 34 38 39
f 38 37 40
f 39 40 41
f 38 40 39
f 21 35 33
f 35 37 38
f 33 38 34
f 35 38 33
f 1 32 42
f 32 34 43
f 42 43 44
f 32 43 42
f 34 39 45
f 39 41 46
f 45 46 47
f 39 46 45
f 44 48 49
f 48 47 50
f 49 50 51
f 48 50 49
f 34 45 43
f 45 47 48
f 43 48 44
f 45 48 43
f 1 42 2
f 42 44 52
f 2 52 4
f 42 52 2
f 44 49 53
f 49 51 54
f 53 54 55
f 49 54 53
f 4 56 7
f 56 55 57
f 7 57 9
f 56 57 7
f 44 53 52
f 53 55 56
f 52 56 4
f 53 56 52
f 9 58 10
f 59 60 61
f 62 61 15
f 59 61 62
f 60 63 64
f 63 65 66
f 64 66 67
f 63 66 64
f 15 68 16
f 68 67 69
f 16 69 18
f 68 69 16
f 60 64 61
f 64 67 68
f 61 68 15
f 64 68 61
f 18 69 70
f 69 67 71
f 70 71 72
f 69 71 70
f 67 66 73
f 66 65 74
f 73 74 75
f 66 74 73
f 72 76 77
f 76 75 78
f 77 78 79
f 76 78 77
f 67 73 71
f 73 75 76
f 71 76 72
f 73 76 71
f 18 70 23
f 70 72 80
f 23 80 25
f 70 80 23
f 72 77 81
f 77 79 82
f 81 82 83
f 77 82 81
f 25 84 29
f 84 83 85
f 29 85 86
f 84 85 29
f 72 81 80
f 81 83 84
f 80 84 25
f 81 84 80
f 86 85 87
f 85 83 88
f 87 88 89
f 85 88 87
f 83 82 90
f 82 79 91
f 90 91 92
f 82 91 90
f 89 93 94
f 93 92 95
f 94 95 96
f 93 95 94
f 83 90 88
f 90 92 93
f 88 93 89
f 90 93 88
f 31 97 36
f 97 98 99
f 36 99 37
f 97 99 36
f 89 94 100
f 94 96 101
f 102 103 104
f 105 103 102
f 37 106 40
f 106 104 107
f 40 107 41
f 106 107 40
f 98 102 99
f 102 104 106
f 99 106 37
f 102 106 99
f 41 107 108
f 107 104 109
f 108 109 110
f 107 109 108
f 104 103 111
f 101 96 112
f 111 113 114
f 103 113 111
f 110 115 116
f 115 114 117
f 116 117 118
f 115 117 116
f 104 111 109
f 111 114 115
f 109 115 110
f 111 115 109
f 41 108 46
f 108 110 119
f 46 119 47
f 108 119 46
f 110 116 120
f 116 118 121
f 120 121 122
f 116 121 120
f 47 123 50
f 123 122 124
f 50 124 51
f 123 124 50
f 110 120 119
f 120 122 123
f 119 123 47
f 120 123 119
f 51 124 125
f 124 122 126
f 125 126 127
f 124 126 125
f 122 121 128
f 121 118 129
f 128 129 130
f 121 129 128
f 127 131 132
f 131 130 133
f 132 133 134
f 131 133 132
f 122 128 126
f 128 130 131
f 126 131 127
f 128 131 126
f 51 125 54
f 125 127 135
f 54 135 55
f 125 135 54
f 127 132 136
f 132 134 137
f 136 137 138
f 132 137 136
f 55 139 57
f 139 138 140
f 57 140 9
f 139 140 57
f 127 136 135
f 136 138 139
f 135 139 55
f 136 139 135
f 9 140 58
f 140 138 141
f 59 142 60
f 143 142 59
f 144 145 146
f 145 147 148
f 146 148 149
f 145 148 146
f 60 150 63
f 150 149 151
f 63 151 65
f 150 151 63
f 144 146 142
f 146 149 150
f 142 150 60
f 146 150 142
f 152 153 154
f 153 155 156
f 154 156 157
f 153 156 154
f 155 158 159
f 158 79 78
f 159 78 75
f 158 78 159
f 157 160 161
f 160 75 74
f 161 74 65
f 160 74 161
f 155 159 156
f 159 75 160
f 156 160 157
f 159 160 156
f 152 162 153
f 162 163 164
f 153 164 155
f 162 164 153
f 163 165 166
f 165 96 95
f 166 95 92
f 165 95 166
f 155 167 158
f 167 92 91
f 158 91 79
f 167 91 158
f 163 166 164
f 166 92 167
f 164 167 155
f 166 167 164
f 152 168 162
f 168 169 170
f 162 170 163
f 168 170 162
f 169 171 172
f 173 118 117
f 174 117 114
f 173 117 174
f 163 175 165
f 175 176 112
f 165 112 96
f 175 112 165
f 169 172 170
f 172 176 175
f 170 175 163
f 172 175 170
f 152 177 168
f 177 178 179
f 168 179 169
f 177 179 168
f 178 180 181
f 180 147 182
f 183 133 130
f 180 182 181
f 169 184 171
f 185 130 129
f 173 129 118
f 185 129 173
f 178 181 179
f 183 130 185
f 179 184 169
f 181 184 179
f 152 154 177
f 154 157 186
f 177 186 178
f 154 186 177
f 157 161 187
f 161 65 151
f 187 151 149
f 161 151 187
f 178 188 180
f 188 149 148
f 180 148 147
f 188 148 180
f 157 187 186
f 187 149 188
f 186 188 178
f 187 188 186
f 10 62 11
f 11 62 15
f 12 14 13
f 13 14 17
f 11 15 12
f 12 15 14
f 13 17 22
f 22 17 24
f 30 29 31
f 31 29 86
f 26 28 30
f 30 28 29
f 22 24 26
f 26 24 28
f 58 59 10
f 10 59 62
f 31 86 97
f 97 86 87
f 97 87 98
f 98 87 89
f 105 94 103
f 103 94 101
f 102 100 105
f 105 100 94
f 98 89 102
f 102 89 100
f 113 112 114
f 114 112 176
f 103 101 113
f 113 101 112
f 133 182 134
f 134 182 147
f 134 147 137
f 137 147 145
f 137 145 138
f 138 145 144
f 140 143 58
f 58 143 59
f 138 144 141
f 141 144 142
f 141 142 140
f 140 142 143
f 114 176 174
f 174 176 172
f 174 172 173
f 173 172 171
f 183 181 133
f 133 181 182
f 173 171 185
f 185 171 184
f 185 184 183
f 183 184 181
