v 0.706557 1.19031 0.107557
v 0.741427 1.14649 0.103083
v 0.735844 1.19528 0.0598755
v 0.764694 1.09706 0.0900001
v 0.768089 1.14766 0.0514447
v 0.753953 1.19092 0.00687469
v 0.774586 1.04578 0.0693051
v 0.787802 1.08778 0.0313636
v 0.770351 0.996547 0.0425732
v 0.788493 1.03537 0.00624389
v 0.79145 1.07703 -0.0313219
v 0.753953 1.19401 -0.0731253
v 0.782156 1.14022 -0.0923381
v 0.759506 1.18066 -0.127411
v 0.79145 1.08012 -0.111322
v 0.778996 1.12146 -0.147265
v 0.752078 1.15933 -0.178848
v 0.782156 1.13713 -0.0123381
v 0.683604 1.23102 0.0763792
v 0.709605 1.23315 0.0244356
v 0.65345 1.25968 0.0386258
v 0.723671 1.22571 -0.119347
v 0.721173 1.20599 -0.173968
v 0.680207 1.24274 -0.162696
v 0.670834 1.25877 -0.0226546
v 0.61839 1.27411 -0.00282919
v 0.670834 1.26186 -0.102655
v 0.632297 1.26679 -0.14589
v 0.61839 1.2772 -0.0828292
v 0.581092 1.2763 -0.12483
v 0.723671 1.22262 -0.0393471
v 0.709605 1.23624 -0.0555644
v 0.656901 1.20431 0.129786
v 0.629758 1.24229 0.0951463
v 0.602076 1.2083 0.141374
v 0.590987 1.2679 0.0480561
v 0.553354 1.27582 -0.0759797
v 0.553354 1.27273 0.00402037
v 0.528329 1.25703 0.0518035
v 0.563978 1.2409 0.102074
v 0.546255 1.20197 0.141439
v 0.507923 1.2273 0.0948819
v 0.493689 1.18581 0.129976
v 0.692637 1.15207 0.14629
v 0.638894 1.16244 0.165857
v 0.670828 1.1078 0.173125
v 0.573114 1.16105 0.172785
v 0.516956 1.14836 0.164793
v 0.545707 1.10515 0.186303
v 0.609259 1.10821 0.189477
v 0.64279 1.06086 0.186021
v 0.577754 1.05948 0.19287
v 0.610657 1.01482 0.183995
v 0.724387 1.10396 0.138848
v 0.694752 1.04973 0.162468
v 0.66228 1.00166 0.166167
v 0.708325 0.993908 0.134929
v 0.7441 1.04408 0.118767
v 0.745286 0.99216 0.0926584
v 0.767789 0.975319 -0.00937682
v 0.767789 0.97841 -0.0893769
v 0.751618 0.964599 -0.141374
v 0.780928 1.01961 -0.128219
v 0.788493 1.03846 -0.0737562
v 0.723068 0.959256 -0.189461
v 0.75434 1.00822 -0.18772
v 0.684312 0.962788 -0.229976
v 0.717485 1.00805 -0.232668
v 0.740878 1.05846 -0.2245
v 0.775281 1.06896 -0.17192
v 0.752709 1.11021 -0.206093
v 0.716973 1.16245 -0.222596
v 0.712549 1.11041 -0.248114
v 0.672126 1.15897 -0.256251
v 0.691608 1.04967 -0.263913
v 0.661045 1.00024 -0.264793
v 0.632293 1.04344 -0.286303
v 0.655462 1.10251 -0.280606
v 0.620951 1.14916 -0.27725
v 0.600246 1.08911 -0.29287
v 0.567343 1.13377 -0.283994
v 0.680652 1.20729 -0.215622
v 0.623566 1.19939 -0.248114
v 0.568711 1.1849 -0.260746
v 0.571622 1.22772 -0.2245
v 0.627814 1.24343 -0.198929
v 0.575857 1.25898 -0.178015
v 0.527067 1.26456 -0.134808
v 0.52138 1.24118 -0.18772
v 0.477757 1.23846 -0.141374
v 0.517131 1.19714 -0.236904
v 0.51572 1.14694 -0.266167
v 0.469675 1.15469 -0.234929
v 0.467783 1.20279 -0.193203
v 0.436915 1.19998 -0.14403
v 0.432714 1.15643 -0.192658
v 0.40765 1.15205 -0.142573
v 0.498619 1.25822 -0.0845171
v 0.498619 1.25513 -0.00451702
v 0.445023 1.21982 -0.09
v 0.410211 1.17327 -0.0906231
v 0.445023 1.21673 -0.00999992
v 0.410211 1.17018 -0.010623
v 0.426382 1.184 0.0413744
v 0.47161 1.22812 0.0495011
v 0.454933 1.18934 0.0894611
v 0.460515 1.14055 0.132668
v 0.42366 1.14037 0.0877198
v 0.437123 1.09013 0.1245
v 0.397073 1.12898 0.0282188
v 0.389507 1.11323 -0.106244
v 0.389507 1.11014 -0.0262438
v 0.38655 1.06847 0.0113221
v 0.402719 1.07964 0.0719204
v 0.425291 1.03839 0.106093
v 0.399005 1.02713 0.0472648
v 0.425922 0.989262 0.0788483
v 0.486393 1.09892 0.163913
v 0.465452 1.03819 0.148114
v 0.461028 0.986148 0.122596
v 0.505875 0.989626 0.156251
v 0.522538 1.04608 0.180606
v 0.55705 0.999432 0.17725
v 0.60929 0.963696 0.160746
v 0.554435 0.949203 0.148114
v 0.606378 0.920874 0.1245
v 0.497348 0.941306 0.115622
v 0.456827 0.942603 0.0739683
v 0.497794 0.905852 0.0626964
v 0.550186 0.90516 0.0989294
v 0.602144 0.889613 0.0780149
v 0.545703 0.881805 0.0458905
v 0.596909 0.872294 0.0248301
v 0.660869 0.951454 0.136904
v 0.656621 0.907412 0.0877198
v 0.650933 0.884031 0.0348077
v 0.700244 0.910134 0.0413744
v 0.710217 0.945808 0.0932027
v 0.741086 0.948616 0.0440303
v 0.732978 0.928774 -0.00999994
v 0.732978 0.931865 -0.09
v 0.679381 0.890378 -0.0154828
v 0.624647 0.872772 -0.0240202
v 0.679381 0.893469 -0.0954829
v 0.624647 0.875863 -0.10402
v 0.649671 0.891565 -0.151803
v 0.70639 0.920478 -0.149501
v 0.670077 0.921294 -0.194882
v 0.471443 0.958285 -0.207557
v 0.485363 0.996522 -0.24629
v 0.521099 0.944282 -0.229786
v 0.507172 1.0408 -0.273125
v 0.539106 0.986154 -0.265857
v 0.575925 0.940292 -0.241374
v 0.53521 1.08774 -0.286021
v 0.568741 1.04038 -0.289477
v 0.604886 0.987546 -0.272785
v 0.631745 0.946622 -0.241439
v 0.436573 1.0021 -0.203083
v 0.413307 1.05154 -0.19
v 0.453613 1.04464 -0.238848
v 0.403415 1.10282 -0.169305
v 0.4339 1.10451 -0.218767
v 0.483248 1.09887 -0.262468
v 0.442156 0.953314 -0.159875
v 0.424047 0.95767 -0.106875
v 0.409912 1.00094 -0.151445
v 0.424047 0.954579 -0.0268746
v 0.418495 0.967931 0.0274108
v 0.395845 1.00837 -0.00766181
v 0.390198 1.06081 -0.131363
v 0.38655 1.07156 -0.068678
v 0.395845 1.01146 -0.0876618
v 0.494396 0.917578 -0.176379
v 0.52455 0.888918 -0.138626
v 0.468396 0.915444 -0.124436
v 0.559611 0.874488 -0.0971707
v 0.507167 0.889826 -0.0773453
v 0.559611 0.871397 -0.0171707
v 0.507167 0.886735 0.00265471
v 0.454329 0.92288 0.0193473
v 0.454329 0.925971 -0.0606528
v 0.468396 0.912353 -0.0444355
v 0.548243 0.906308 -0.195146
v 0.614023 0.907699 -0.202074
v 0.587014 0.88069 -0.148056
f 1 2 3
f 2 4 5
f 3 5 6
f 2 5 3
f 4 7 8
f 7 9 10
f 8 10 11
f 7 10 8
f 12 13 14
f 13 15 16
f 14 16 17
f 13 16 14
f 4 8 5
f 8 11 18
f 5 18 6
f 8 18 5
f 1 3 19
f 3 6 20
f 19 20 21
f 3 20 19
f 12 14 22
f 14 17 23
f 22 23 24
f 14 23 22
f 21 25 26
f 27 24 28
f 29 28 30
f 27 28 29
f 6 31 20
f 22 24 27
f 20 25 21
f 22 27 32
f 1 19 33
f 19 21 34
f 33 34 35
f 19 34 33
f 21 26 36
f 29 30 37
f 36 38 39
f 26 38 36
f 35 40 41
f 40 39 42
f 41 42 43
f 40 42 41
f 21 36 34
f 36 39 40
f 34 40 35
f 36 40 34
f 1 33 44
f 33 35 45
f 44 45 46
f 33 45 44
f 35 41 47
f 41 43 48
f 47 48 49
f 41 48 47
f 46 50 51
f 50 49 52
f 51 52 53
f 50 52 51
f 35 47 45
f 47 49 50
f 45 50 46
f 47 50 45
f 1 44 2
f 44 46 54
f 2 54 4
f 44 54 2
f 46 51 55
f 51 53 56
f 55 56 57
f 51 56 55
f 4 58 7
f 58 57 59
f 7 59 9
f 58 59 7
f 46 55 54
f 55 57 58
f 54 58 4
f 55 58 54
f 9 60 10
f 61 62 63
f 64 63 15
f 61 63 64
f 62 65 66
f 65 67 68
f 66 68 69
f 65 68 66
f 15 70 16
f 70 69 71
f 16 71 17
f 70 71 16
f 62 66 63
f 66 69 70
f 63 70 15
f 66 70 63
f 17 71 72
f 71 69 73
f 72 73 74
f 71 73 72
f 69 68 75
f 68 67 76
f 75 76 77
f 68 76 75
f 74 78 79
f 78 77 80
f 79 80 81
f 78 80 79
f 69 75 73
f 75 77 78
f 73 78 74
f 75 78 73
f 17 72 23
f 72 74 82
f 23 82 24
f 72 82 23
f 74 79 83
f 79 81 84
f 83 84 85
f 79 84 83
f 24 86 28
f 86 85 87
f 28 87 30
f 86 87 28
f 74 83 82
f 83 85 86
f 82 86 24
f 83 86 82
f 30 87 88
f 87 85 89
f 88 89 90
f 87 89 88
f 85 84 91
f 84 81 92
f 91 92 93
f 84 92 91
f 90 94 95
f 94 93 96
f 95 96 97
f 94 96 95
f 85 91 89
f 91 93 94
f 89 94 90
f 91 94 89
f 30 88 37
f 88 90 98
f 38 99 39
f 88 98 37
f 90 95 100
f 95 97 101
f 102 103 104
f 95 101 100
f 39 105 42
f 105 104 106
f 42 106 43
f 105 106 42
f 90 100 98
f 102 104 105
f 99 105 39
f 102 105 99
f 43 106 107
f 106 104 108
f 107 108 109
f 106 108 107
f 104 103 110
f 101 97 111
f 110 112 113
f 103 112 110
f 109 114 115
f 114 113 116
f 115 116 117
f 114 116 115
f 104 110 108
f 110 113 114
f 108 114 109
f 110 114 108
f 43 107 48
f 107 109 118
f 48 118 49
f 107 118 48
f 109 115 119
f 115 117 120
f 119 120 121
f 115 120 119
f 49 122 52
f 122 121 123
f 52 123 53
f 122 123 52
f 109 119 118
f 119 121 122
f 118 122 49
f 119 122 118
f 53 123 124
f 123 121 125
f 124 125 126
f 123 125 124
f 121 120 127
f 120 117 128
f 127 128 129
f 120 128 127
f 126 130 131
f 130 129 132
f 131 132 133
f 130 132 131
f 121 127 125
f 127 129 130
f 125 130 126
f 127 130 125
f 53 124 56
f 124 126 134
f 56 134 57
f 124 134 56
f 126 131 135
f 131 133 136
f 135 136 137
f 131 136 135
f 57 138 59
f 138 137 139
f 59 139 9
f 138 139 59
f 126 135 134
f 135 137 138
f 134 138 57
f 135 138 134
f 9 139 60
f 139 137 140
f 61 141 62
f 139 140 60
f 137 136 142
f 136 133 143
f 144 145 146
f 136 143 142
f 62 147 65
f 147 146 148
f 65 148 67
f 147 148 65
f 137 142 140
f 144 146 147
f 141 147 62
f 144 147 141
f 149 150 151
f 150 152 153
f 151 153 154
f 150 153 151
f 152 155 156
f 155 81 80
f 156 80 77
f 155 80 156
f 154 157 158
f 157 77 76
f 158 76 67
f 157 76 158
f 152 156 153
f 156 77 157
f 153 157 154
f 156 157 153
f 149 159 150
f 159 160 161
f 150 161 152
f 159 161 150
f 160 162 163
f 162 97 96
f 163 96 93
f 162 96 163
f 152 164 155
f 164 93 92
f 155 92 81
f 164 92 155
f 160 163 161
f 163 93 164
f 161 164 152
f 163 164 161
f 149 165 159
f 165 166 167
f 159 167 160
f 165 167 159
f 168 169 170
f 169 117 116
f 170 116 113
f 169 116 170
f 160 171 162
f 171 172 111
f 162 111 97
f 171 111 162
f 166 173 167
f 173 172 171
f 167 171 160
f 173 171 167
f 149 174 165
f 174 175 176
f 165 176 166
f 174 176 165
f 175 177 178
f 179 133 132
f 180 132 129
f 179 132 180
f 168 181 169
f 181 129 128
f 169 128 117
f 181 128 169
f 175 178 176
f 180 129 181
f 176 182 166
f 180 181 183
f 149 151 174
f 151 154 184
f 174 184 175
f 151 184 174
f 154 158 185
f 158 67 148
f 185 148 146
f 158 148 185
f 175 186 177
f 186 146 145
f 179 143 133
f 186 145 177
f 154 185 184
f 185 146 186
f 184 186 175
f 185 186 184
f 10 64 11
f 11 64 15
f 11 15 18
f 18 15 13
f 18 13 6
f 6 13 12
f 25 27 26
f 26 27 29
f 6 12 31
f 31 12 22
f 31 22 20
f 20 22 32
f 20 32 25
f 25 32 27
f 26 29 38
f 38 29 37
f 60 61 10
f 10 61 64
f 38 37 99
f 99 37 98
f 102 100 103
f 103 100 101
f 99 98 102
f 102 98 100
f 112 111 113
f 113 111 172
f 103 101 112
f 112 101 111
f 140 141 60
f 60 141 61
f 143 145 142
f 142 145 144
f 142 144 140
f 140 144 141
f 170 173 168
f 168 173 166
f 113 172 170
f 170 172 173
f 180 178 179
f 179 178 177
f 168 166 181
f 181 166 182
f 181 182 183
f 183 182 176
f 183 176 180
f 180 176 178
f 179 177 143
f 143 177 145
