v 0.826557 1.25016 -0.332443
v 0.861427 1.20634 -0.336917
v 0.855844 1.25513 -0.380125
v 0.884694 1.15691 -0.35
v 0.888089 1.20751 -0.388555
v 0.873953 1.25078 -0.433125
v 0.894586 1.10563 -0.370695
v 0.907802 1.14763 -0.408637
v 0.890351 1.0564 -0.397427
v 0.908493 1.09522 -0.433756
v 0.91145 1.13689 -0.471322
v 0.902156 1.19698 -0.452338
v 0.879506 1.23742 -0.487411
v 0.902156 1.17818 -0.532338
v 0.91145 1.11808 -0.551322
v 0.898996 1.15942 -0.587265
v 0.879506 1.21862 -0.567411
v 0.872078 1.19729 -0.618848
v 0.803604 1.29087 -0.363621
v 0.829605 1.293 -0.415564
v 0.77345 1.31953 -0.401374
v 0.843671 1.28248 -0.479347
v 0.841173 1.24395 -0.613968
v 0.843671 1.26367 -0.559347
v 0.800207 1.2807 -0.602696
v 0.790834 1.31862 -0.462655
v 0.73839 1.33396 -0.442829
v 0.790834 1.29982 -0.542655
v 0.752297 1.30475 -0.58589
v 0.752297 1.32355 -0.50589
v 0.701092 1.33306 -0.48483
v 0.800207 1.2995 -0.522696
v 0.776901 1.26416 -0.310214
v 0.749758 1.30214 -0.344854
v 0.722076 1.26815 -0.298626
v 0.710987 1.32776 -0.391944
v 0.673354 1.33258 -0.43598
v 0.648329 1.31688 -0.388197
v 0.683978 1.30075 -0.337926
v 0.666255 1.26182 -0.298561
v 0.627923 1.28715 -0.345118
v 0.613689 1.24566 -0.310024
v 0.812637 1.21192 -0.29371
v 0.758894 1.22229 -0.274143
v 0.790828 1.16765 -0.266875
v 0.693114 1.2209 -0.267215
v 0.636956 1.20821 -0.275207
v 0.665707 1.165 -0.253697
v 0.729259 1.16806 -0.250523
v 0.76279 1.12071 -0.253979
v 0.697754 1.11933 -0.24713
v 0.730657 1.07467 -0.256005
v 0.844387 1.16381 -0.301152
v 0.814752 1.10958 -0.277532
v 0.78228 1.06151 -0.273833
v 0.828325 1.05376 -0.305071
v 0.8641 1.10393 -0.321233
v 0.865286 1.05201 -0.347342
v 0.887789 1.03517 -0.449377
v 0.887789 1.01637 -0.529377
v 0.871618 1.00256 -0.581374
v 0.900928 1.05757 -0.568219
v 0.908493 1.07642 -0.513756
v 0.843068 0.997212 -0.629461
v 0.87434 1.04618 -0.62772
v 0.804312 1.00074 -0.669976
v 0.837485 1.046 -0.672668
v 0.860878 1.09642 -0.6645
v 0.895281 1.10691 -0.61192
v 0.872709 1.14816 -0.646093
v 0.836973 1.2004 -0.662596
v 0.832549 1.14836 -0.688114
v 0.792126 1.19692 -0.696251
v 0.811608 1.08763 -0.703913
v 0.781045 1.03819 -0.704793
v 0.752293 1.0814 -0.726303
v 0.775462 1.14047 -0.720606
v 0.740951 1.18712 -0.71725
v 0.720246 1.12707 -0.73287
v 0.687343 1.17173 -0.723994
v 0.800652 1.24525 -0.655622
v 0.743566 1.23735 -0.688114
v 0.688711 1.22285 -0.700746
v 0.691622 1.26568 -0.6645
v 0.747814 1.28139 -0.638929
v 0.695857 1.29694 -0.618015
v 0.701092 1.31426 -0.56483
v 0.647067 1.30252 -0.574808
v 0.64138 1.27914 -0.62772
v 0.597757 1.27642 -0.581374
v 0.637131 1.2351 -0.676904
v 0.63572 1.18489 -0.706167
v 0.589675 1.19264 -0.674929
v 0.587783 1.24074 -0.633203
v 0.556915 1.23793 -0.58403
v 0.552714 1.19439 -0.632658
v 0.52765 1.19 -0.582573
v 0.647067 1.32132 -0.494808
v 0.597757 1.29522 -0.501374
v 0.618619 1.31498 -0.444517
v 0.556915 1.25674 -0.50403
v 0.565023 1.27658 -0.45
v 0.530211 1.21123 -0.530623
v 0.530211 1.23004 -0.450623
v 0.546382 1.24385 -0.398626
v 0.59161 1.28797 -0.390499
v 0.574933 1.24919 -0.350539
v 0.580515 1.2004 -0.307332
v 0.54366 1.20022 -0.35228
v 0.557123 1.14998 -0.3155
v 0.517073 1.18884 -0.411781
v 0.509507 1.15118 -0.546244
v 0.509507 1.16999 -0.466244
v 0.50655 1.12832 -0.428678
v 0.522719 1.13949 -0.36808
v 0.545291 1.09824 -0.333907
v 0.519005 1.08698 -0.392735
v 0.545922 1.04911 -0.361152
v 0.606393 1.15877 -0.276087
v 0.585452 1.09804 -0.291886
v 0.581028 1.046 -0.317404
v 0.625875 1.04948 -0.283749
v 0.642538 1.10594 -0.259394
v 0.67705 1.05928 -0.26275
v 0.72929 1.02355 -0.279254
v 0.674435 1.00906 -0.291886
v 0.726378 0.980726 -0.3155
v 0.617348 1.00116 -0.324378
v 0.576827 1.00246 -0.366032
v 0.617794 0.965704 -0.377304
v 0.670186 0.965013 -0.341071
v 0.722144 0.949466 -0.361985
v 0.665703 0.941657 -0.39411
v 0.716909 0.932146 -0.41517
v 0.780869 1.01131 -0.303096
v 0.776621 0.967264 -0.35228
v 0.770933 0.943883 -0.405192
v 0.820244 0.969986 -0.398626
v 0.830217 1.00566 -0.346797
v 0.861086 1.00847 -0.39597
v 0.861086 0.989663 -0.47597
v 0.820244 0.951181 -0.478626
v 0.852978 0.969822 -0.53
v 0.770933 0.925078 -0.485192
v 0.799381 0.931425 -0.535483
v 0.716909 0.913341 -0.49517
v 0.744647 0.91382 -0.54402
v 0.769671 0.929521 -0.591803
v 0.82639 0.958434 -0.589501
v 0.790077 0.95925 -0.634882
v 0.591443 0.996242 -0.647557
v 0.605363 1.03448 -0.68629
v 0.641099 0.982238 -0.669786
v 0.627172 1.07875 -0.713125
v 0.659106 1.02411 -0.705857
v 0.695925 0.978249 -0.681374
v 0.65521 1.12569 -0.726021
v 0.688741 1.07834 -0.729477
v 0.724886 1.0255 -0.712785
v 0.751745 0.984578 -0.681439
v 0.556573 1.04006 -0.643083
v 0.533307 1.08949 -0.63
v 0.573613 1.0826 -0.678848
v 0.523415 1.14077 -0.609305
v 0.5539 1.14247 -0.658767
v 0.603248 1.13682 -0.702468
v 0.562156 0.991271 -0.599875
v 0.544047 0.995627 -0.546875
v 0.529912 1.03889 -0.591445
v 0.538495 1.00898 -0.492589
v 0.515845 1.04942 -0.527662
v 0.538495 1.02778 -0.412589
v 0.515845 1.06823 -0.447662
v 0.510198 1.09877 -0.571363
v 0.50655 1.10952 -0.508678
v 0.614396 0.955534 -0.616379
v 0.64455 0.926875 -0.578626
v 0.588396 0.9534 -0.564436
v 0.679611 0.912444 -0.537171
v 0.627167 0.927782 -0.517345
v 0.665703 0.922852 -0.47411
v 0.627167 0.946587 -0.437345
v 0.574329 0.963928 -0.500653
v 0.574329 0.982733 -0.420653
v 0.617794 0.946899 -0.457304
v 0.668243 0.944264 -0.635146
v 0.734023 0.945655 -0.642074
v 0.707014 0.918646 -0.588056
f 1 2 3
f 2 4 5
f 3 5 6
f 2 5 3
f 4 7 8
f 7 9 10
f 8 10 11
f 7 10 8
f 6 12 13
f 14 15 16
f 17 16 18
f 14 16 17
f 4 8 5
f 8 11 12
f 5 12 6
f 8 12 5
f 1 3 19
f 3 6 20
f 19 20 21
f 3 20 19
f 6 13 22
f 17 18 23
f 24 23 25
f 17 23 24
f 21 26 27
f 28 25 29
f 27 30 31
f 26 30 27
f 6 22 20
f 22 32 26
f 20 26 21
f 22 26 20
f 1 19 33
f 19 21 34
f 33 34 35
f 19 34 33
f 21 27 36
f 27 31 37
f 36 37 38
f 27 37 36
f 35 39 40
f 39 38 41
f 40 41 42
f 39 41 40
f 21 36 34
f 36 38 39
f 34 39 35
f 36 39 34
f 1 33 43
f 33 35 44
f 43 44 45
f 33 44 43
f 35 40 46
f 40 42 47
f 46 47 48
f 40 47 46
f 45 49 50
f 49 48 51
f 50 51 52
f 49 51 50
f 35 46 44
f 46 48 49
f 44 49 45
f 46 49 44
f 1 43 2
f 43 45 53
f 2 53 4
f 43 53 2
f 45 50 54
f 50 52 55
f 54 55 56
f 50 55 54
f 4 57 7
f 57 56 58
f 7 58 9
f 57 58 7
f 45 54 53
f 54 56 57
f 53 57 4
f 54 57 53
f 9 59 10
f 60 61 62
f 63 62 15
f 60 62 63
f 61 64 65
f 64 66 67
f 65 67 68
f 64 67 65
f 15 69 16
f 69 68 70
f 16 70 18
f 69 70 16
f 61 65 62
f 65 68 69
f 62 69 15
f 65 69 62
f 18 70 71
f 70 68 72
f 71 72 73
f 70 72 71
f 68 67 74
f 67 66 75
f 74 75 76
f 67 75 74
f 73 77 78
f 77 76 79
f 78 79 80
f 77 79 78
f 68 74 72
f 74 76 77
f 72 77 73
f 74 77 72
f 18 71 23
f 71 73 81
f 23 81 25
f 71 81 23
f 73 78 82
f 78 80 83
f 82 83 84
f 78 83 82
f 25 85 29
f 85 84 86
f 29 86 87
f 85 86 29
f 73 82 81
f 82 84 85
f 81 85 25
f 82 85 81
f 87 86 88
f 86 84 89
f 88 89 90
f 86 89 88
f 84 83 91
f 83 80 92
f 91 92 93
f 83 92 91
f 90 94 95
f 94 93 96
f 95 96 97
f 94 96 95
f 84 91 89
f 91 93 94
f 89 94 90
f 91 94 89
f 31 98 37
f 98 99 100
f 37 100 38
f 98 100 37
f 99 101 102
f 95 97 103
f 102 104 105
f 101 104 102
f 38 106 41
f 106 105 107
f 41 107 42
f 106 107 41
f 99 102 100
f 102 105 106
f 100 106 38
f 102 106 100
f 42 107 108
f 107 105 109
f 108 109 110
f 107 109 108
f 105 104 111
f 103 97 112
f 111 113 114
f 104 113 111
f 110 115 116
f 115 114 117
f 116 117 118
f 115 117 116
f 105 111 109
f 111 114 115
f 109 115 110
f 111 115 109
f 42 108 47
f 108 110 119
f 47 119 48
f 108 119 47
f 110 116 120
f 116 118 121
f 120 121 122
f 116 121 120
f 48 123 51
f 123 122 124
f 51 124 52
f 123 124 51
f 110 120 119
f 120 122 123
f 119 123 48
f 120 123 119
f 52 124 125
f 124 122 126
f 125 126 127
f 124 126 125
f 122 121 128
f 121 118 129
f 128 129 130
f 121 129 128
f 127 131 132
f 131 130 133
f 132 133 134
f 131 133 132
f 122 128 126
f 128 130 131
f 126 131 127
f 128 131 126
f 52 125 55
f 125 127 135
f 55 135 56
f 125 135 55
f 127 132 136
f 132 134 137
f 136 137 138
f 132 137 136
f 56 139 58
f 139 138 140
f 58 140 9
f 139 140 58
f 127 136 135
f 136 138 139
f 135 139 56
f 136 139 135
f 9 140 59
f 141 142 143
f 60 143 61
f 141 143 60
f 142 144 145
f 144 146 147
f 145 147 148
f 144 147 145
f 61 149 64
f 149 148 150
f 64 150 66
f 149 150 64
f 142 145 143
f 145 148 149
f 143 149 61
f 145 149 143
f 151 152 153
f 152 154 155
f 153 155 156
f 152 155 153
f 154 157 158
f 157 80 79
f 158 79 76
f 157 79 158
f 156 159 160
f 159 76 75
f 160 75 66
f 159 75 160
f 154 158 155
f 158 76 159
f 155 159 156
f 158 159 155
f 151 161 152
f 161 162 163
f 152 163 154
f 161 163 152
f 162 164 165
f 164 97 96
f 165 96 93
f 164 96 165
f 154 166 157
f 166 93 92
f 157 92 80
f 166 92 157
f 162 165 163
f 165 93 166
f 163 166 154
f 165 166 163
f 151 167 161
f 167 168 169
f 161 169 162
f 167 169 161
f 168 170 171
f 172 118 117
f 173 117 114
f 172 117 173
f 162 174 164
f 174 175 112
f 164 112 97
f 174 112 164
f 168 171 169
f 171 175 174
f 169 174 162
f 171 174 169
f 151 176 167
f 176 177 178
f 167 178 168
f 176 178 167
f 177 179 180
f 179 146 181
f 182 133 130
f 179 181 180
f 168 183 170
f 184 130 129
f 172 129 118
f 184 129 172
f 177 180 178
f 180 185 183
f 178 183 168
f 180 183 178
f 151 153 176
f 153 156 186
f 176 186 177
f 153 186 176
f 156 160 187
f 160 66 150
f 187 150 148
f 160 150 187
f 177 188 179
f 188 148 147
f 179 147 146
f 188 147 179
f 156 187 186
f 187 148 188
f 186 188 177
f 187 188 186
f 14 12 15
f 15 12 11
f 17 13 14
f 14 13 12
f 25 32 24
f 24 32 22
f 24 22 17
f 17 22 13
f 28 26 25
f 25 26 32
f 29 30 28
f 28 30 26
f 15 11 63
f 63 11 10
f 63 10 60
f 60 10 59
f 87 31 29
f 29 31 30
f 88 98 87
f 87 98 31
f 90 99 88
f 88 99 98
f 95 101 90
f 90 101 99
f 103 104 95
f 95 104 101
f 112 113 103
f 103 113 104
f 141 140 142
f 142 140 138
f 60 59 141
f 141 59 140
f 142 138 144
f 144 138 137
f 144 137 146
f 146 137 134
f 170 172 171
f 171 172 173
f 175 114 112
f 112 114 113
f 171 173 175
f 175 173 114
f 146 134 181
f 181 134 133
f 181 133 180
f 180 133 182
f 183 184 170
f 170 184 172
f 180 182 185
f 185 182 130
f 185 130 183
f 183 130 184
