v 0.706557 1.1934 0.0275571
v 0.741427 1.14958 0.0230827
v 0.735844 1.19837 -0.0201246
v 0.764694 1.10015 0.0100001
v 0.768089 1.15075 -0.0285553
v 0.753953 1.19401 -0.0731253
v 0.774586 1.04887 -0.0106949
v 0.787802 1.09087 -0.0486365
v 0.770351 0.999638 -0.0374269
v 0.788493 1.03846 -0.0737562
v 0.79145 1.08012 -0.111322
v 0.753953 1.23819 -0.273125
v 0.782156 1.1844 -0.292338
v 0.759506 1.22484 -0.327411
v 0.79145 1.1243 -0.311322
v 0.778996 1.16564 -0.347265
v 0.752078 1.20351 -0.378848
v 0.782156 1.14022 -0.0923381
v 0.683604 1.23411 -0.00362088
v 0.709605 1.23624 -0.0555644
v 0.65345 1.26277 -0.0413743
v 0.723671 1.26989 -0.319347
v 0.721173 1.25017 -0.373968
v 0.680207 1.28692 -0.362696
v 0.65345 1.30695 -0.241374
v 0.670834 1.30604 -0.302655
v 0.61839 1.32138 -0.282829
v 0.632297 1.31097 -0.34589
v 0.581092 1.32048 -0.32483
v 0.709605 1.28042 -0.255564
v 0.656901 1.2074 0.0497862
v 0.629758 1.24538 0.0151463
v 0.602076 1.21139 0.0613744
v 0.590987 1.31517 -0.231944
v 0.553354 1.32 -0.27598
v 0.590987 1.271 -0.0319439
v 0.553354 1.27582 -0.0759797
v 0.528329 1.26012 -0.0281965
v 0.563978 1.24399 0.0220742
v 0.546255 1.20506 0.0614394
v 0.507923 1.23039 0.0148819
v 0.493689 1.1889 0.0499764
v 0.692637 1.15516 0.0662899
v 0.638894 1.16553 0.085857
v 0.670828 1.11089 0.0931254
v 0.573114 1.16414 0.0927849
v 0.516956 1.15145 0.0847927
v 0.545707 1.10824 0.106303
v 0.609259 1.1113 0.109477
v 0.64279 1.06395 0.106021
v 0.577754 1.06257 0.11287
v 0.610657 1.01791 0.103995
v 0.724387 1.10705 0.0588479
v 0.694752 1.05282 0.0824683
v 0.66228 1.00475 0.0861669
v 0.708325 0.996999 0.0549288
v 0.7441 1.04717 0.0387667
v 0.745286 0.995251 0.0126583
v 0.767789 0.97841 -0.0893769
v 0.767789 1.02259 -0.289377
v 0.751618 1.00878 -0.341374
v 0.780928 1.06379 -0.328219
v 0.788493 1.08264 -0.273756
v 0.780928 1.01961 -0.128219
v 0.723068 1.00343 -0.389461
v 0.75434 1.0524 -0.38772
v 0.684312 1.00697 -0.429976
v 0.717485 1.05222 -0.432668
v 0.740878 1.10264 -0.4245
v 0.775281 1.11314 -0.37192
v 0.752709 1.15438 -0.406093
v 0.716973 1.20662 -0.422596
v 0.712549 1.15459 -0.448114
v 0.672126 1.20315 -0.456251
v 0.691608 1.09385 -0.463913
v 0.661045 1.04442 -0.464793
v 0.632293 1.08762 -0.486303
v 0.655462 1.14669 -0.480606
v 0.620951 1.19334 -0.47725
v 0.600246 1.13329 -0.49287
v 0.567343 1.17795 -0.483994
v 0.680652 1.25147 -0.415622
v 0.623566 1.24357 -0.448114
v 0.568711 1.22908 -0.460746
v 0.571622 1.2719 -0.4245
v 0.627814 1.28761 -0.398929
v 0.575857 1.30316 -0.378015
v 0.527067 1.30874 -0.334808
v 0.52138 1.28536 -0.38772
v 0.477757 1.28264 -0.341374
v 0.517131 1.24132 -0.436904
v 0.51572 1.19111 -0.466167
v 0.469675 1.19886 -0.434929
v 0.467783 1.24696 -0.393203
v 0.436915 1.24416 -0.34403
v 0.432714 1.20061 -0.392658
v 0.40765 1.19623 -0.342573
v 0.498619 1.30239 -0.284517
v 0.528329 1.3043 -0.228197
v 0.445023 1.264 -0.29
v 0.410211 1.21745 -0.290623
v 0.426382 1.23126 -0.238626
v 0.47161 1.23121 -0.0304989
v 0.426382 1.18709 -0.0386256
v 0.454933 1.19243 0.00946102
v 0.445023 1.21982 -0.09
v 0.498619 1.25822 -0.0845171
v 0.47161 1.27539 -0.230499
v 0.460515 1.14364 0.0526683
v 0.42366 1.14346 0.0077198
v 0.437123 1.09322 0.0444997
v 0.410211 1.17327 -0.0906231
v 0.397073 1.13208 -0.0517813
v 0.389507 1.1574 -0.306244
v 0.389507 1.11323 -0.106244
v 0.38655 1.07156 -0.068678
v 0.397073 1.17625 -0.251781
v 0.402719 1.08273 -0.00807966
v 0.425291 1.04148 0.0260927
v 0.399005 1.03022 -0.0327353
v 0.425922 0.992353 -0.00115173
v 0.486393 1.10201 0.0839134
v 0.465452 1.04128 0.0681139
v 0.461028 0.989239 0.0425964
v 0.505875 0.992717 0.0762508
v 0.522538 1.04917 0.100606
v 0.55705 1.00252 0.0972497
v 0.60929 0.966787 0.080746
v 0.554435 0.952294 0.0681139
v 0.606378 0.923965 0.0444997
v 0.497348 0.944396 0.0356219
v 0.456827 0.945694 -0.00603173
v 0.497794 0.908943 -0.0173037
v 0.550186 0.908251 0.0189294
v 0.602144 0.892704 -0.00198513
v 0.545703 0.884896 -0.0341095
v 0.596909 0.875385 -0.0551699
v 0.660869 0.954545 0.0569043
v 0.656621 0.910502 0.00771976
v 0.650933 0.887122 -0.0451923
v 0.700244 0.913225 -0.0386257
v 0.710217 0.948899 0.0132027
v 0.741086 0.951707 -0.0359698
v 0.732978 0.931865 -0.09
v 0.751618 0.964599 -0.141374
v 0.679381 0.893469 -0.0954829
v 0.624647 0.875863 -0.10402
v 0.649671 0.891565 -0.151803
v 0.70639 0.964656 -0.349501
v 0.649671 0.935743 -0.351803
v 0.670077 0.965472 -0.394882
v 0.679381 0.937647 -0.295483
v 0.732978 0.976043 -0.29
v 0.70639 0.920478 -0.149501
v 0.471443 1.00246 -0.407557
v 0.485363 1.0407 -0.44629
v 0.521099 0.98846 -0.429786
v 0.507172 1.08497 -0.473125
v 0.539106 1.03033 -0.465857
v 0.575925 0.984471 -0.441374
v 0.53521 1.13192 -0.486021
v 0.568741 1.08456 -0.489477
v 0.604886 1.03172 -0.472785
v 0.631745 0.9908 -0.441439
v 0.436573 1.04628 -0.403083
v 0.413307 1.09571 -0.39
v 0.453613 1.08882 -0.438848
v 0.403415 1.147 -0.369305
v 0.4339 1.14869 -0.418767
v 0.483248 1.14305 -0.462468
v 0.442156 0.997493 -0.359875
v 0.424047 1.00185 -0.306875
v 0.409912 1.04512 -0.351445
v 0.424047 0.95767 -0.106875
v 0.418495 0.971022 -0.0525892
v 0.395845 1.01146 -0.0876618
v 0.390198 1.10499 -0.331363
v 0.38655 1.11574 -0.268678
v 0.395845 1.05564 -0.287662
v 0.494396 0.961756 -0.376379
v 0.52455 0.933096 -0.338626
v 0.468396 0.959622 -0.324436
v 0.52455 0.888918 -0.138626
v 0.559611 0.874488 -0.0971707
v 0.507167 0.889826 -0.0773453
v 0.454329 0.925971 -0.0606528
v 0.468396 0.915444 -0.124436
v 0.548243 0.950486 -0.395146
v 0.614023 0.951877 -0.402074
v 0.587014 0.88069 -0.148056
v 0.587014 0.924868 -0.348056
v 0.624647 0.920042 -0.30402
f 1 2 3
f 2 4 5
f 3 5 6
f 2 5 3
f 4 7 8
f 7 9 10
f 8 10 11
f 7 10 8
f 12 13 14
f 13 15 16
f 14 16 17
f 13 16 14
f 4 8 5
f 8 11 18
f 5 18 6
f 8 18 5
f 1 3 19
f 3 6 20
f 19 20 21
f 3 20 19
f 12 14 22
f 14 17 23
f 22 23 24
f 14 23 22
f 25 26 27
f 26 24 28
f 27 28 29
f 26 28 27
f 12 22 30
f 22 24 26
f 30 26 25
f 22 26 30
f 1 19 31
f 19 21 32
f 31 32 33
f 19 32 31
f 25 27 34
f 27 29 35
f 36 37 38
f 27 35 34
f 33 39 40
f 39 38 41
f 40 41 42
f 39 41 40
f 21 36 32
f 36 38 39
f 32 39 33
f 36 39 32
f 1 31 43
f 31 33 44
f 43 44 45
f 31 44 43
f 33 40 46
f 40 42 47
f 46 47 48
f 40 47 46
f 45 49 50
f 49 48 51
f 50 51 52
f 49 51 50
f 33 46 44
f 46 48 49
f 44 49 45
f 46 49 44
f 1 43 2
f 43 45 53
f 2 53 4
f 43 53 2
f 45 50 54
f 50 52 55
f 54 55 56
f 50 55 54
f 4 57 7
f 57 56 58
f 7 58 9
f 57 58 7
f 45 54 53
f 54 56 57
f 53 57 4
f 54 57 53
f 9 59 10
f 60 61 62
f 63 62 15
f 59 64 10
f 61 65 66
f 65 67 68
f 66 68 69
f 65 68 66
f 15 70 16
f 70 69 71
f 16 71 17
f 70 71 16
f 61 66 62
f 66 69 70
f 62 70 15
f 66 70 62
f 17 71 72
f 71 69 73
f 72 73 74
f 71 73 72
f 69 68 75
f 68 67 76
f 75 76 77
f 68 76 75
f 74 78 79
f 78 77 80
f 79 80 81
f 78 80 79
f 69 75 73
f 75 77 78
f 73 78 74
f 75 78 73
f 17 72 23
f 72 74 82
f 23 82 24
f 72 82 23
f 74 79 83
f 79 81 84
f 83 84 85
f 79 84 83
f 24 86 28
f 86 85 87
f 28 87 29
f 86 87 28
f 74 83 82
f 83 85 86
f 82 86 24
f 83 86 82
f 29 87 88
f 87 85 89
f 88 89 90
f 87 89 88
f 85 84 91
f 84 81 92
f 91 92 93
f 84 92 91
f 90 94 95
f 94 93 96
f 95 96 97
f 94 96 95
f 85 91 89
f 91 93 94
f 89 94 90
f 91 94 89
f 29 88 35
f 88 90 98
f 35 98 99
f 88 98 35
f 90 95 100
f 95 97 101
f 100 101 102
f 95 101 100
f 38 103 41
f 103 104 105
f 41 105 42
f 103 105 41
f 90 100 98
f 106 104 103
f 107 103 38
f 100 108 98
f 42 105 109
f 105 104 110
f 109 110 111
f 105 110 109
f 104 112 113
f 101 97 114
f 113 115 116
f 101 114 117
f 111 118 119
f 118 116 120
f 119 120 121
f 118 120 119
f 104 113 110
f 113 116 118
f 110 118 111
f 113 118 110
f 42 109 47
f 109 111 122
f 47 122 48
f 109 122 47
f 111 119 123
f 119 121 124
f 123 124 125
f 119 124 123
f 48 126 51
f 126 125 127
f 51 127 52
f 126 127 51
f 111 123 122
f 123 125 126
f 122 126 48
f 123 126 122
f 52 127 128
f 127 125 129
f 128 129 130
f 127 129 128
f 125 124 131
f 124 121 132
f 131 132 133
f 124 132 131
f 130 134 135
f 134 133 136
f 135 136 137
f 134 136 135
f 125 131 129
f 131 133 134
f 129 134 130
f 131 134 129
f 52 128 55
f 128 130 138
f 55 138 56
f 128 138 55
f 130 135 139
f 135 137 140
f 139 140 141
f 135 140 139
f 56 142 58
f 142 141 143
f 58 143 9
f 142 143 58
f 130 139 138
f 139 141 142
f 138 142 56
f 139 142 138
f 9 143 59
f 143 141 144
f 59 144 145
f 143 144 59
f 141 140 146
f 140 137 147
f 146 147 148
f 140 147 146
f 61 149 65
f 149 150 151
f 65 151 67
f 149 151 65
f 141 146 144
f 152 150 149
f 153 149 61
f 146 154 144
f 155 156 157
f 156 158 159
f 157 159 160
f 156 159 157
f 158 161 162
f 161 81 80
f 162 80 77
f 161 80 162
f 160 163 164
f 163 77 76
f 164 76 67
f 163 76 164
f 158 162 159
f 162 77 163
f 159 163 160
f 162 163 159
f 155 165 156
f 165 166 167
f 156 167 158
f 165 167 156
f 166 168 169
f 168 97 96
f 169 96 93
f 168 96 169
f 158 170 161
f 170 93 92
f 161 92 81
f 170 92 161
f 166 169 167
f 169 93 170
f 167 170 158
f 169 170 167
f 155 171 165
f 171 172 173
f 165 173 166
f 171 173 165
f 174 175 176
f 175 121 120
f 176 120 116
f 175 120 176
f 166 177 168
f 177 178 114
f 168 114 97
f 177 114 168
f 172 179 173
f 179 178 177
f 173 177 166
f 179 177 173
f 155 180 171
f 180 181 182
f 171 182 172
f 180 182 171
f 183 184 185
f 184 137 136
f 185 136 133
f 184 136 185
f 174 186 175
f 186 133 132
f 175 132 121
f 186 132 175
f 183 185 187
f 185 133 186
f 187 186 174
f 185 186 187
f 155 157 180
f 157 160 188
f 180 188 181
f 157 188 180
f 160 164 189
f 164 67 151
f 189 151 150
f 164 151 189
f 183 190 184
f 191 150 192
f 184 147 137
f 190 147 184
f 160 189 188
f 189 150 191
f 188 191 181
f 189 191 188
f 10 63 11
f 11 63 15
f 11 15 18
f 18 15 13
f 18 13 6
f 6 13 12
f 6 12 20
f 20 12 30
f 20 30 21
f 21 30 25
f 36 34 37
f 37 34 35
f 37 35 38
f 38 35 99
f 21 25 36
f 36 25 34
f 59 60 64
f 64 60 62
f 64 62 10
f 10 62 63
f 106 100 104
f 104 100 102
f 103 108 106
f 106 108 100
f 107 98 103
f 103 98 108
f 38 99 107
f 107 99 98
f 104 102 112
f 112 102 101
f 112 101 113
f 113 101 117
f 113 117 115
f 115 117 114
f 115 114 116
f 116 114 178
f 144 153 145
f 145 153 61
f 145 61 59
f 59 61 60
f 147 192 148
f 148 192 150
f 148 150 146
f 146 150 152
f 146 152 154
f 154 152 149
f 154 149 144
f 144 149 153
f 176 179 174
f 174 179 172
f 116 178 176
f 176 178 179
f 187 182 183
f 183 182 181
f 174 172 187
f 187 172 182
f 183 181 190
f 190 181 191
f 190 191 147
f 147 191 192
