v 0.706557 1.23758 -0.172443
v 0.741427 1.19376 -0.176917
v 0.735844 1.24255 -0.220125
v 0.764694 1.14433 -0.19
v 0.768089 1.19493 -0.228555
v 0.753953 1.23819 -0.273125
v 0.774586 1.09305 -0.210695
v 0.787802 1.13505 -0.248636
v 0.770351 1.04382 -0.237427
v 0.788493 1.08264 -0.273756
v 0.79145 1.1243 -0.311322
v 0.753953 1.24849 -0.353125
v 0.782156 1.19469 -0.372338
v 0.759506 1.23514 -0.407411
v 0.79145 1.1346 -0.391322
v 0.778996 1.17594 -0.427265
v 0.752078 1.2138 -0.458848
v 0.782156 1.1844 -0.292338
v 0.683604 1.27829 -0.203621
v 0.709605 1.28042 -0.255564
v 0.65345 1.30695 -0.241374
v 0.723671 1.28019 -0.399347
v 0.721173 1.26046 -0.453968
v 0.680207 1.29721 -0.442696
v 0.65345 1.31724 -0.321374
v 0.670834 1.31633 -0.382655
v 0.61839 1.33167 -0.362829
v 0.632297 1.32126 -0.42589
v 0.581092 1.33077 -0.40483
v 0.709605 1.29071 -0.335564
v 0.656901 1.25158 -0.150214
v 0.629758 1.28956 -0.184854
v 0.602076 1.25557 -0.138626
v 0.61839 1.32138 -0.282829
v 0.590987 1.31517 -0.231944
v 0.553354 1.33029 -0.35598
v 0.553354 1.32 -0.27598
v 0.528329 1.3043 -0.228197
v 0.590987 1.32547 -0.311944
v 0.563978 1.28816 -0.177926
v 0.546255 1.24924 -0.138561
v 0.507923 1.27457 -0.185118
v 0.493689 1.23308 -0.150024
v 0.692637 1.19934 -0.13371
v 0.638894 1.20971 -0.114143
v 0.670828 1.15507 -0.106875
v 0.573114 1.20832 -0.107215
v 0.516956 1.19563 -0.115207
v 0.545707 1.15242 -0.0936968
v 0.609259 1.15548 -0.0905226
v 0.64279 1.10813 -0.0939792
v 0.577754 1.10675 -0.0871296
v 0.610657 1.06209 -0.0960055
v 0.724387 1.15122 -0.141152
v 0.694752 1.097 -0.117532
v 0.66228 1.04893 -0.113833
v 0.708325 1.04118 -0.145071
v 0.7441 1.09135 -0.161233
v 0.745286 1.03943 -0.187342
v 0.767789 1.02259 -0.289377
v 0.767789 1.03288 -0.369377
v 0.751618 1.01907 -0.421374
v 0.780928 1.07408 -0.408219
v 0.788493 1.09293 -0.353756
v 0.780928 1.06379 -0.328219
v 0.723068 1.01373 -0.469461
v 0.75434 1.06269 -0.46772
v 0.684312 1.01726 -0.509976
v 0.717485 1.06252 -0.512668
v 0.740878 1.11294 -0.5045
v 0.775281 1.12343 -0.45192
v 0.752709 1.16468 -0.486093
v 0.716973 1.21692 -0.502596
v 0.712549 1.16488 -0.528114
v 0.672126 1.21344 -0.536251
v 0.691608 1.10414 -0.543913
v 0.661045 1.05471 -0.544793
v 0.632293 1.09791 -0.566303
v 0.655462 1.15698 -0.560606
v 0.620951 1.20363 -0.55725
v 0.600246 1.14359 -0.57287
v 0.567343 1.18825 -0.563994
v 0.680652 1.26176 -0.495622
v 0.623566 1.25386 -0.528114
v 0.568711 1.23937 -0.540746
v 0.571622 1.28219 -0.5045
v 0.627814 1.29791 -0.478929
v 0.575857 1.31345 -0.458015
v 0.527067 1.31904 -0.414808
v 0.52138 1.29565 -0.46772
v 0.477757 1.29293 -0.421374
v 0.517131 1.25161 -0.516904
v 0.51572 1.20141 -0.546167
v 0.469675 1.20916 -0.514929
v 0.467783 1.25726 -0.473203
v 0.436915 1.25445 -0.42403
v 0.432714 1.21091 -0.472658
v 0.40765 1.20652 -0.422573
v 0.498619 1.31269 -0.364517
v 0.498619 1.30239 -0.284517
v 0.445023 1.27429 -0.37
v 0.410211 1.22775 -0.370623
v 0.445023 1.264 -0.29
v 0.410211 1.21745 -0.290623
v 0.426382 1.23126 -0.238626
v 0.47161 1.27539 -0.230499
v 0.454933 1.23661 -0.190539
v 0.460515 1.18782 -0.147332
v 0.42366 1.18764 -0.19228
v 0.437123 1.1374 -0.1555
v 0.397073 1.17625 -0.251781
v 0.389507 1.1677 -0.386244
v 0.389507 1.1574 -0.306244
v 0.38655 1.11574 -0.268678
v 0.397073 1.18655 -0.331781
v 0.402719 1.12691 -0.20808
v 0.425291 1.08566 -0.173907
v 0.399005 1.0744 -0.232735
v 0.425922 1.03653 -0.201152
v 0.486393 1.14619 -0.116087
v 0.465452 1.08546 -0.131886
v 0.461028 1.03342 -0.157404
v 0.505875 1.0369 -0.123749
v 0.522538 1.09335 -0.0993941
v 0.55705 1.0467 -0.10275
v 0.60929 1.01097 -0.119254
v 0.554435 0.996472 -0.131886
v 0.606378 0.968143 -0.1555
v 0.497348 0.988575 -0.164378
v 0.456827 0.989873 -0.206032
v 0.497794 0.953121 -0.217304
v 0.550186 0.95243 -0.181071
v 0.602144 0.936883 -0.201985
v 0.545703 0.929074 -0.23411
v 0.596909 0.919563 -0.25517
v 0.660869 0.998724 -0.143096
v 0.656621 0.954681 -0.19228
v 0.650933 0.9313 -0.245192
v 0.700244 0.957403 -0.238626
v 0.710217 0.993077 -0.186797
v 0.741086 0.995885 -0.23597
v 0.732978 0.976043 -0.29
v 0.732978 0.986337 -0.37
v 0.679381 0.937647 -0.295483
v 0.624647 0.920042 -0.30402
v 0.679381 0.947941 -0.375483
v 0.624647 0.930335 -0.38402
v 0.649671 0.946037 -0.431803
v 0.70639 0.97495 -0.429501
v 0.670077 0.975766 -0.474882
v 0.471443 1.01276 -0.487557
v 0.485363 1.05099 -0.52629
v 0.521099 0.998754 -0.509786
v 0.507172 1.09527 -0.553125
v 0.539106 1.04063 -0.545857
v 0.575925 0.994765 -0.521374
v 0.53521 1.14221 -0.566021
v 0.568741 1.09486 -0.569477
v 0.604886 1.04202 -0.552785
v 0.631745 1.00109 -0.521439
v 0.436573 1.05658 -0.483083
v 0.413307 1.10601 -0.47
v 0.453613 1.09911 -0.518848
v 0.403415 1.15729 -0.449305
v 0.4339 1.15899 -0.498767
v 0.483248 1.15334 -0.542468
v 0.442156 1.00779 -0.439875
v 0.424047 1.01214 -0.386875
v 0.409912 1.05541 -0.431445
v 0.424047 1.00185 -0.306875
v 0.418495 1.0152 -0.252589
v 0.395845 1.05564 -0.287662
v 0.390198 1.11528 -0.411363
v 0.38655 1.12603 -0.348678
v 0.395845 1.06594 -0.367662
v 0.494396 0.97205 -0.456379
v 0.52455 0.94339 -0.418626
v 0.468396 0.969916 -0.404436
v 0.52455 0.933096 -0.338626
v 0.559611 0.918666 -0.297171
v 0.507167 0.934004 -0.277345
v 0.454329 0.97015 -0.260653
v 0.468396 0.959622 -0.324436
v 0.548243 0.96078 -0.475146
v 0.614023 0.962171 -0.482074
v 0.587014 0.935162 -0.428056
v 0.559611 0.92896 -0.377171
v 0.587014 0.924868 -0.348056
f 1 2 3
f 2 4 5
f 3 5 6
f 2 5 3
f 4 7 8
f 7 9 10
f 8 10 11
f 7 10 8
f 12 13 14
f 13 15 16
f 14 16 17
f 13 16 14
f 4 8 5
f 8 11 18
f 5 18 6
f 8 18 5
f 1 3 19
f 3 6 20
f 19 20 21
f 3 20 19
f 12 14 22
f 14 17 23
f 22 23 24
f 14 23 22
f 25 26 27
f 26 24 28
f 27 28 29
f 26 28 27
f 12 22 30
f 22 24 26
f 30 26 25
f 22 26 30
f 1 19 31
f 19 21 32
f 31 32 33
f 19 32 31
f 21 34 35
f 27 29 36
f 35 37 38
f 27 36 39
f 33 40 41
f 40 38 42
f 41 42 43
f 40 42 41
f 21 35 32
f 35 38 40
f 32 40 33
f 35 40 32
f 1 31 44
f 31 33 45
f 44 45 46
f 31 45 44
f 33 41 47
f 41 43 48
f 47 48 49
f 41 48 47
f 46 50 51
f 50 49 52
f 51 52 53
f 50 52 51
f 33 47 45
f 47 49 50
f 45 50 46
f 47 50 45
f 1 44 2
f 44 46 54
f 2 54 4
f 44 54 2
f 46 51 55
f 51 53 56
f 55 56 57
f 51 56 55
f 4 58 7
f 58 57 59
f 7 59 9
f 58 59 7
f 46 55 54
f 55 57 58
f 54 58 4
f 55 58 54
f 9 60 10
f 61 62 63
f 64 63 15
f 60 65 10
f 62 66 67
f 66 68 69
f 67 69 70
f 66 69 67
f 15 71 16
f 71 70 72
f 16 72 17
f 71 72 16
f 62 67 63
f 67 70 71
f 63 71 15
f 67 71 63
f 17 72 73
f 72 70 74
f 73 74 75
f 72 74 73
f 70 69 76
f 69 68 77
f 76 77 78
f 69 77 76
f 75 79 80
f 79 78 81
f 80 81 82
f 79 81 80
f 70 76 74
f 76 78 79
f 74 79 75
f 76 79 74
f 17 73 23
f 73 75 83
f 23 83 24
f 73 83 23
f 75 80 84
f 80 82 85
f 84 85 86
f 80 85 84
f 24 87 28
f 87 86 88
f 28 88 29
f 87 88 28
f 75 84 83
f 84 86 87
f 83 87 24
f 84 87 83
f 29 88 89
f 88 86 90
f 89 90 91
f 88 90 89
f 86 85 92
f 85 82 93
f 92 93 94
f 85 93 92
f 91 95 96
f 95 94 97
f 96 97 98
f 95 97 96
f 86 92 90
f 92 94 95
f 90 95 91
f 92 95 90
f 29 89 36
f 89 91 99
f 37 100 38
f 89 99 36
f 91 96 101
f 96 98 102
f 103 104 105
f 96 102 101
f 38 106 42
f 106 105 107
f 42 107 43
f 106 107 42
f 91 101 99
f 103 105 106
f 100 106 38
f 103 106 100
f 43 107 108
f 107 105 109
f 108 109 110
f 107 109 108
f 105 104 111
f 102 98 112
f 111 113 114
f 102 112 115
f 110 116 117
f 116 114 118
f 117 118 119
f 116 118 117
f 105 111 109
f 111 114 116
f 109 116 110
f 111 116 109
f 43 108 48
f 108 110 120
f 48 120 49
f 108 120 48
f 110 117 121
f 117 119 122
f 121 122 123
f 117 122 121
f 49 124 52
f 124 123 125
f 52 125 53
f 124 125 52
f 110 121 120
f 121 123 124
f 120 124 49
f 121 124 120
f 53 125 126
f 125 123 127
f 126 127 128
f 125 127 126
f 123 122 129
f 122 119 130
f 129 130 131
f 122 130 129
f 128 132 133
f 132 131 134
f 133 134 135
f 132 134 133
f 123 129 127
f 129 131 132
f 127 132 128
f 129 132 127
f 53 126 56
f 126 128 136
f 56 136 57
f 126 136 56
f 128 133 137
f 133 135 138
f 137 138 139
f 133 138 137
f 57 140 59
f 140 139 141
f 59 141 9
f 140 141 59
f 128 137 136
f 137 139 140
f 136 140 57
f 137 140 136
f 9 141 60
f 141 139 142
f 61 143 62
f 141 142 60
f 139 138 144
f 138 135 145
f 146 147 148
f 138 145 144
f 62 149 66
f 149 148 150
f 66 150 68
f 149 150 66
f 139 144 142
f 146 148 149
f 143 149 62
f 146 149 143
f 151 152 153
f 152 154 155
f 153 155 156
f 152 155 153
f 154 157 158
f 157 82 81
f 158 81 78
f 157 81 158
f 156 159 160
f 159 78 77
f 160 77 68
f 159 77 160
f 154 158 155
f 158 78 159
f 155 159 156
f 158 159 155
f 151 161 152
f 161 162 163
f 152 163 154
f 161 163 152
f 162 164 165
f 164 98 97
f 165 97 94
f 164 97 165
f 154 166 157
f 166 94 93
f 157 93 82
f 166 93 157
f 162 165 163
f 165 94 166
f 163 166 154
f 165 166 163
f 151 167 161
f 167 168 169
f 161 169 162
f 167 169 161
f 170 171 172
f 171 119 118
f 172 118 114
f 171 118 172
f 162 173 164
f 173 174 112
f 164 112 98
f 173 112 164
f 168 175 169
f 175 174 173
f 169 173 162
f 175 173 169
f 151 176 167
f 176 177 178
f 167 178 168
f 176 178 167
f 179 180 181
f 180 135 134
f 181 134 131
f 180 134 181
f 170 182 171
f 182 131 130
f 171 130 119
f 182 130 171
f 179 181 183
f 181 131 182
f 183 182 170
f 181 182 183
f 151 153 176
f 153 156 184
f 176 184 177
f 153 184 176
f 156 160 185
f 160 68 150
f 185 150 148
f 160 150 185
f 177 186 187
f 186 148 147
f 180 145 135
f 188 145 180
f 156 185 184
f 185 148 186
f 184 186 177
f 185 186 184
f 10 64 11
f 11 64 15
f 11 15 18
f 18 15 13
f 18 13 6
f 6 13 12
f 6 12 20
f 20 12 30
f 20 30 21
f 21 30 25
f 21 25 34
f 34 25 27
f 34 27 35
f 35 27 39
f 35 39 37
f 37 39 36
f 60 61 65
f 65 61 63
f 65 63 10
f 10 63 64
f 37 36 100
f 100 36 99
f 103 101 104
f 104 101 102
f 100 99 103
f 103 99 101
f 104 102 111
f 111 102 115
f 111 115 113
f 113 115 112
f 113 112 114
f 114 112 174
f 142 143 60
f 60 143 61
f 145 147 144
f 144 147 146
f 144 146 142
f 142 146 143
f 172 175 170
f 170 175 168
f 114 174 172
f 172 174 175
f 179 177 180
f 180 177 187
f 183 178 179
f 179 178 177
f 170 168 183
f 183 168 178
f 188 186 145
f 145 186 147
f 180 187 188
f 188 187 186
