v 0.706557 1.24787 -0.252443
v 0.741427 1.20405 -0.256917
v 0.735844 1.25284 -0.300125
v 0.764694 1.15462 -0.27
v 0.768089 1.20522 -0.308555
v 0.753953 1.24849 -0.353125
v 0.774586 1.10334 -0.290695
v 0.787802 1.14534 -0.328636
v 0.770351 1.05411 -0.317427
v 0.788493 1.09293 -0.353756
v 0.79145 1.1346 -0.391322
v 0.782156 1.19469 -0.372338
v 0.759506 1.23514 -0.407411
v 0.782156 1.18695 -0.452338
v 0.79145 1.12686 -0.471322
v 0.778996 1.1682 -0.507265
v 0.759506 1.22739 -0.487411
v 0.752078 1.20606 -0.538848
v 0.683604 1.28858 -0.283621
v 0.709605 1.29071 -0.335564
v 0.65345 1.31724 -0.321374
v 0.753953 1.24075 -0.433125
v 0.723671 1.27245 -0.479347
v 0.721173 1.25272 -0.533968
v 0.680207 1.28947 -0.522696
v 0.670834 1.31633 -0.382655
v 0.61839 1.33167 -0.362829
v 0.670834 1.30859 -0.462655
v 0.632297 1.31352 -0.50589
v 0.61839 1.32393 -0.442829
v 0.581092 1.32303 -0.48483
v 0.723671 1.28019 -0.399347
v 0.656901 1.26188 -0.230214
v 0.629758 1.29985 -0.264854
v 0.602076 1.26586 -0.218626
v 0.590987 1.32547 -0.311944
v 0.581092 1.33077 -0.40483
v 0.553354 1.33029 -0.35598
v 0.528329 1.31459 -0.308197
v 0.563978 1.29846 -0.257926
v 0.546255 1.25954 -0.218561
v 0.507923 1.28486 -0.265118
v 0.493689 1.24337 -0.230024
v 0.692637 1.20964 -0.21371
v 0.638894 1.22 -0.194143
v 0.670828 1.16536 -0.186875
v 0.573114 1.21861 -0.187215
v 0.516956 1.20592 -0.195207
v 0.545707 1.16272 -0.173697
v 0.609259 1.16577 -0.170523
v 0.64279 1.11842 -0.173979
v 0.577754 1.11704 -0.16713
v 0.610657 1.07238 -0.176005
v 0.724387 1.16152 -0.221152
v 0.694752 1.10729 -0.197532
v 0.66228 1.05922 -0.193833
v 0.708325 1.05147 -0.225071
v 0.7441 1.10164 -0.241233
v 0.745286 1.04972 -0.267342
v 0.767789 1.03288 -0.369377
v 0.767789 1.02514 -0.449377
v 0.751618 1.01133 -0.501374
v 0.780928 1.06634 -0.488219
v 0.788493 1.08519 -0.433756
v 0.723068 1.00599 -0.549461
v 0.75434 1.05495 -0.54772
v 0.684312 1.00952 -0.589976
v 0.717485 1.05478 -0.592668
v 0.740878 1.1052 -0.5845
v 0.775281 1.11569 -0.53192
v 0.752709 1.15694 -0.566093
v 0.716973 1.20918 -0.582596
v 0.712549 1.15714 -0.608114
v 0.672126 1.2057 -0.616251
v 0.691608 1.0964 -0.623913
v 0.661045 1.04697 -0.624793
v 0.632293 1.09017 -0.646303
v 0.655462 1.14924 -0.640606
v 0.620951 1.19589 -0.63725
v 0.600246 1.13584 -0.65287
v 0.567343 1.18051 -0.643994
v 0.680652 1.25402 -0.575622
v 0.623566 1.24612 -0.608114
v 0.568711 1.23163 -0.620746
v 0.571622 1.27445 -0.5845
v 0.627814 1.29017 -0.558929
v 0.575857 1.30571 -0.538015
v 0.527067 1.31129 -0.494808
v 0.52138 1.28791 -0.54772
v 0.477757 1.28519 -0.501374
v 0.517131 1.24387 -0.596904
v 0.51572 1.19367 -0.626167
v 0.469675 1.20142 -0.594929
v 0.467783 1.24952 -0.553203
v 0.436915 1.24671 -0.50403
v 0.432714 1.20317 -0.552658
v 0.40765 1.19878 -0.502573
v 0.553354 1.32255 -0.43598
v 0.498619 1.30495 -0.444517
v 0.498619 1.31269 -0.364517
v 0.527067 1.31904 -0.414808
v 0.445023 1.26655 -0.45
v 0.410211 1.22001 -0.450623
v 0.445023 1.27429 -0.37
v 0.410211 1.22775 -0.370623
v 0.426382 1.24156 -0.318626
v 0.47161 1.28568 -0.310499
v 0.454933 1.2469 -0.270539
v 0.477757 1.29293 -0.421374
v 0.460515 1.19811 -0.227332
v 0.42366 1.19794 -0.27228
v 0.437123 1.14769 -0.2355
v 0.397073 1.18655 -0.331781
v 0.389507 1.15996 -0.466244
v 0.389507 1.1677 -0.386244
v 0.38655 1.12603 -0.348678
v 0.402719 1.1372 -0.28808
v 0.425291 1.09595 -0.253907
v 0.399005 1.08469 -0.312735
v 0.425922 1.04683 -0.281152
v 0.486393 1.15648 -0.196087
v 0.465452 1.09575 -0.211886
v 0.461028 1.04371 -0.237404
v 0.505875 1.04719 -0.203749
v 0.522538 1.10365 -0.179394
v 0.55705 1.057 -0.18275
v 0.60929 1.02126 -0.199254
v 0.554435 1.00677 -0.211886
v 0.606378 0.978437 -0.2355
v 0.497348 0.998869 -0.244378
v 0.456827 1.00017 -0.286032
v 0.497794 0.963415 -0.297304
v 0.550186 0.962723 -0.261071
v 0.602144 0.947177 -0.281985
v 0.545703 0.939368 -0.314109
v 0.596909 0.929857 -0.33517
v 0.660869 1.00902 -0.223096
v 0.656621 0.964975 -0.27228
v 0.650933 0.941594 -0.325192
v 0.700244 0.967697 -0.318626
v 0.710217 1.00337 -0.266797
v 0.741086 1.00618 -0.31597
v 0.732978 0.986337 -0.37
v 0.732978 0.978596 -0.45
v 0.679381 0.947941 -0.375483
v 0.624647 0.930335 -0.38402
v 0.679381 0.9402 -0.455483
v 0.624647 0.922594 -0.46402
v 0.649671 0.938296 -0.511803
v 0.650933 0.933853 -0.405192
v 0.70639 0.967209 -0.509501
v 0.670077 0.968025 -0.554882
v 0.700244 0.959956 -0.398626
v 0.471443 1.00502 -0.567557
v 0.485363 1.04325 -0.60629
v 0.521099 0.991013 -0.589786
v 0.507172 1.08753 -0.633125
v 0.539106 1.03289 -0.625857
v 0.575925 0.987024 -0.601374
v 0.53521 1.13447 -0.646021
v 0.568741 1.08711 -0.649477
v 0.604886 1.03428 -0.632785
v 0.631745 0.993353 -0.601439
v 0.436573 1.04884 -0.563083
v 0.413307 1.09827 -0.55
v 0.453613 1.09137 -0.598848
v 0.403415 1.14955 -0.529305
v 0.4339 1.15125 -0.578767
v 0.483248 1.1456 -0.622468
v 0.442156 1.00005 -0.519875
v 0.424047 1.0044 -0.466875
v 0.409912 1.04767 -0.511445
v 0.418495 1.01775 -0.412589
v 0.395845 1.0582 -0.447662
v 0.418495 1.02549 -0.332589
v 0.395845 1.06594 -0.367662
v 0.390198 1.10754 -0.491363
v 0.38655 1.11829 -0.428678
v 0.494396 0.964309 -0.536379
v 0.52455 0.935649 -0.498626
v 0.468396 0.962175 -0.484436
v 0.559611 0.921219 -0.457171
v 0.507167 0.936557 -0.437345
v 0.559611 0.92896 -0.377171
v 0.507167 0.944298 -0.357345
v 0.424047 1.01214 -0.386875
v 0.454329 0.980444 -0.340653
v 0.454329 0.972703 -0.420653
v 0.548243 0.953039 -0.555146
v 0.614023 0.95443 -0.562074
v 0.587014 0.927421 -0.508056
v 0.596909 0.922116 -0.41517
f 1 2 3
f 2 4 5
f 3 5 6
f 2 5 3
f 4 7 8
f 7 9 10
f 8 10 11
f 7 10 8
f 6 12 13
f 14 15 16
f 17 16 18
f 14 16 17
f 4 8 5
f 8 11 12
f 5 12 6
f 8 12 5
f 1 3 19
f 3 6 20
f 19 20 21
f 3 20 19
f 22 17 23
f 17 18 24
f 23 24 25
f 17 24 23
f 21 26 27
f 28 25 29
f 30 29 31
f 28 29 30
f 6 32 20
f 23 25 28
f 20 26 21
f 32 26 20
f 1 19 33
f 19 21 34
f 33 34 35
f 19 34 33
f 21 27 36
f 27 37 38
f 36 38 39
f 27 38 36
f 35 40 41
f 40 39 42
f 41 42 43
f 40 42 41
f 21 36 34
f 36 39 40
f 34 40 35
f 36 40 34
f 1 33 44
f 33 35 45
f 44 45 46
f 33 45 44
f 35 41 47
f 41 43 48
f 47 48 49
f 41 48 47
f 46 50 51
f 50 49 52
f 51 52 53
f 50 52 51
f 35 47 45
f 47 49 50
f 45 50 46
f 47 50 45
f 1 44 2
f 44 46 54
f 2 54 4
f 44 54 2
f 46 51 55
f 51 53 56
f 55 56 57
f 51 56 55
f 4 58 7
f 58 57 59
f 7 59 9
f 58 59 7
f 46 55 54
f 55 57 58
f 54 58 4
f 55 58 54
f 9 60 10
f 61 62 63
f 64 63 15
f 61 63 64
f 62 65 66
f 65 67 68
f 66 68 69
f 65 68 66
f 15 70 16
f 70 69 71
f 16 71 18
f 70 71 16
f 62 66 63
f 66 69 70
f 63 70 15
f 66 70 63
f 18 71 72
f 71 69 73
f 72 73 74
f 71 73 72
f 69 68 75
f 68 67 76
f 75 76 77
f 68 76 75
f 74 78 79
f 78 77 80
f 79 80 81
f 78 80 79
f 69 75 73
f 75 77 78
f 73 78 74
f 75 78 73
f 18 72 24
f 72 74 82
f 24 82 25
f 72 82 24
f 74 79 83
f 79 81 84
f 83 84 85
f 79 84 83
f 25 86 29
f 86 85 87
f 29 87 31
f 86 87 29
f 74 83 82
f 83 85 86
f 82 86 25
f 83 86 82
f 31 87 88
f 87 85 89
f 88 89 90
f 87 89 88
f 85 84 91
f 84 81 92
f 91 92 93
f 84 92 91
f 90 94 95
f 94 93 96
f 95 96 97
f 94 96 95
f 85 91 89
f 91 93 94
f 89 94 90
f 91 94 89
f 31 88 98
f 88 90 99
f 38 100 39
f 101 100 38
f 90 95 102
f 95 97 103
f 104 105 106
f 95 103 102
f 39 107 42
f 107 106 108
f 42 108 43
f 107 108 42
f 109 104 100
f 104 106 107
f 100 107 39
f 104 107 100
f 43 108 110
f 108 106 111
f 110 111 112
f 108 111 110
f 106 105 113
f 103 97 114
f 113 115 116
f 105 115 113
f 112 117 118
f 117 116 119
f 118 119 120
f 117 119 118
f 106 113 111
f 113 116 117
f 111 117 112
f 113 117 111
f 43 110 48
f 110 112 121
f 48 121 49
f 110 121 48
f 112 118 122
f 118 120 123
f 122 123 124
f 118 123 122
f 49 125 52
f 125 124 126
f 52 126 53
f 125 126 52
f 112 122 121
f 122 124 125
f 121 125 49
f 122 125 121
f 53 126 127
f 126 124 128
f 127 128 129
f 126 128 127
f 124 123 130
f 123 120 131
f 130 131 132
f 123 131 130
f 129 133 134
f 133 132 135
f 134 135 136
f 133 135 134
f 124 130 128
f 130 132 133
f 128 133 129
f 130 133 128
f 53 127 56
f 127 129 137
f 56 137 57
f 127 137 56
f 129 134 138
f 134 136 139
f 138 139 140
f 134 139 138
f 57 141 59
f 141 140 142
f 59 142 9
f 141 142 59
f 129 138 137
f 138 140 141
f 137 141 57
f 138 141 137
f 9 142 60
f 142 140 143
f 61 144 62
f 142 143 60
f 140 139 145
f 139 136 146
f 147 148 149
f 150 148 147
f 62 151 65
f 151 149 152
f 65 152 67
f 151 152 65
f 153 147 144
f 147 149 151
f 144 151 62
f 147 151 144
f 154 155 156
f 155 157 158
f 156 158 159
f 155 158 156
f 157 160 161
f 160 81 80
f 161 80 77
f 160 80 161
f 159 162 163
f 162 77 76
f 163 76 67
f 162 76 163
f 157 161 158
f 161 77 162
f 158 162 159
f 161 162 158
f 154 164 155
f 164 165 166
f 155 166 157
f 164 166 155
f 165 167 168
f 167 97 96
f 168 96 93
f 167 96 168
f 157 169 160
f 169 93 92
f 160 92 81
f 169 92 160
f 165 168 166
f 168 93 169
f 166 169 157
f 168 169 166
f 154 170 164
f 170 171 172
f 164 172 165
f 170 172 164
f 171 173 174
f 175 120 119
f 176 119 116
f 175 119 176
f 165 177 167
f 177 178 114
f 167 114 97
f 177 114 167
f 171 174 172
f 174 178 177
f 172 177 165
f 174 177 172
f 154 179 170
f 179 180 181
f 170 181 171
f 179 181 170
f 180 182 183
f 184 136 135
f 185 135 132
f 184 135 185
f 186 187 175
f 187 132 131
f 175 131 120
f 187 131 175
f 180 183 181
f 185 132 187
f 181 188 171
f 183 188 181
f 154 156 179
f 156 159 189
f 179 189 180
f 156 189 179
f 159 163 190
f 163 67 152
f 190 152 149
f 163 152 190
f 180 191 182
f 191 149 148
f 182 148 192
f 191 148 182
f 159 190 189
f 190 149 191
f 189 191 180
f 190 191 189
f 10 64 11
f 11 64 15
f 12 14 13
f 13 14 17
f 13 17 6
f 6 17 22
f 11 15 12
f 12 15 14
f 26 28 27
f 27 28 30
f 6 22 32
f 32 22 23
f 32 23 26
f 26 23 28
f 27 30 37
f 37 30 31
f 37 31 38
f 38 31 98
f 60 61 10
f 10 61 64
f 101 88 100
f 100 88 99
f 38 98 101
f 101 98 88
f 104 102 105
f 105 102 103
f 109 90 104
f 104 90 102
f 100 99 109
f 109 99 90
f 115 114 116
f 116 114 178
f 105 103 115
f 115 103 114
f 140 153 143
f 143 153 144
f 143 144 60
f 60 144 61
f 139 150 145
f 145 150 147
f 145 147 140
f 140 147 153
f 136 192 146
f 146 192 148
f 146 148 139
f 139 148 150
f 116 178 176
f 176 178 174
f 176 174 175
f 175 174 173
f 184 182 136
f 136 182 192
f 185 183 184
f 184 183 182
f 186 171 187
f 187 171 188
f 175 173 186
f 186 173 171
f 187 188 185
f 185 188 183
