v 0.706557 1.24013 -0.332443
v 0.741427 1.19631 -0.336917
v 0.735844 1.2451 -0.380125
v 0.764694 1.14688 -0.35
v 0.768089 1.19748 -0.388555
v 0.753953 1.24075 -0.433125
v 0.774586 1.0956 -0.370695
v 0.787802 1.1376 -0.408637
v 0.770351 1.04637 -0.397427
v 0.788493 1.08519 -0.433756
v 0.79145 1.12686 -0.471322
v 0.782156 1.18695 -0.452338
v 0.759506 1.22739 -0.487411
v 0.782156 1.17664 -0.492338
v 0.79145 1.11654 -0.511322
v 0.778996 1.15788 -0.547265
v 0.759506 1.21708 -0.527411
v 0.752078 1.19575 -0.578848
v 0.683604 1.28084 -0.363621
v 0.709605 1.28297 -0.415564
v 0.65345 1.3095 -0.401374
v 0.723671 1.27245 -0.479347
v 0.721173 1.24241 -0.573968
v 0.723671 1.26213 -0.519347
v 0.680207 1.27916 -0.562696
v 0.670834 1.30859 -0.462655
v 0.61839 1.32393 -0.442829
v 0.680207 1.28947 -0.522696
v 0.632297 1.31352 -0.50589
v 0.581092 1.32303 -0.48483
v 0.656901 1.25413 -0.310214
v 0.629758 1.29211 -0.344854
v 0.602076 1.25812 -0.298626
v 0.590987 1.31773 -0.391944
v 0.553354 1.32255 -0.43598
v 0.528329 1.30685 -0.388197
v 0.563978 1.29072 -0.337926
v 0.546255 1.25179 -0.298561
v 0.507923 1.27712 -0.345118
v 0.493689 1.23563 -0.310024
v 0.692637 1.20189 -0.29371
v 0.638894 1.21226 -0.274143
v 0.670828 1.15762 -0.266875
v 0.573114 1.21087 -0.267215
v 0.516956 1.19818 -0.275207
v 0.545707 1.15497 -0.253697
v 0.609259 1.15803 -0.250523
v 0.64279 1.11068 -0.253979
v 0.577754 1.1093 -0.24713
v 0.610657 1.06464 -0.256005
v 0.724387 1.15378 -0.301152
v 0.694752 1.09955 -0.277532
v 0.66228 1.05148 -0.273833
v 0.708325 1.04373 -0.305071
v 0.7441 1.0939 -0.321233
v 0.745286 1.04198 -0.347342
v 0.767789 1.02514 -0.449377
v 0.767789 1.01483 -0.489377
v 0.751618 1.00102 -0.541374
v 0.780928 1.05603 -0.528219
v 0.788493 1.07488 -0.473756
v 0.723068 0.995673 -0.589461
v 0.75434 1.04464 -0.58772
v 0.684312 0.999204 -0.629976
v 0.717485 1.04446 -0.632668
v 0.740878 1.09488 -0.6245
v 0.775281 1.10537 -0.57192
v 0.752709 1.14662 -0.606093
v 0.716973 1.19886 -0.622596
v 0.712549 1.14682 -0.648114
v 0.672126 1.19538 -0.656251
v 0.691608 1.08609 -0.663913
v 0.661045 1.03665 -0.664793
v 0.632293 1.07986 -0.686303
v 0.655462 1.13893 -0.680606
v 0.620951 1.18558 -0.67725
v 0.600246 1.12553 -0.69287
v 0.567343 1.17019 -0.683994
v 0.680652 1.24371 -0.615622
v 0.623566 1.23581 -0.648114
v 0.568711 1.22131 -0.660746
v 0.571622 1.26414 -0.6245
v 0.627814 1.27985 -0.598929
v 0.632297 1.30321 -0.54589
v 0.575857 1.2954 -0.578015
v 0.581092 1.31272 -0.52483
v 0.527067 1.30098 -0.534808
v 0.52138 1.2776 -0.58772
v 0.477757 1.27488 -0.541374
v 0.517131 1.23356 -0.636904
v 0.51572 1.18335 -0.666167
v 0.469675 1.1911 -0.634929
v 0.467783 1.2392 -0.593203
v 0.436915 1.23639 -0.54403
v 0.432714 1.19285 -0.592658
v 0.40765 1.18846 -0.542573
v 0.527067 1.31129 -0.494808
v 0.477757 1.28519 -0.501374
v 0.498619 1.30495 -0.444517
v 0.436915 1.24671 -0.50403
v 0.445023 1.26655 -0.45
v 0.410211 1.20969 -0.490623
v 0.410211 1.22001 -0.450623
v 0.426382 1.23382 -0.398626
v 0.47161 1.27794 -0.390499
v 0.454933 1.23916 -0.350539
v 0.460515 1.19037 -0.307332
v 0.42366 1.19019 -0.35228
v 0.437123 1.13995 -0.3155
v 0.397073 1.17881 -0.411781
v 0.389507 1.14964 -0.506244
v 0.389507 1.15996 -0.466244
v 0.38655 1.11829 -0.428678
v 0.402719 1.12946 -0.36808
v 0.425291 1.08821 -0.333907
v 0.399005 1.07695 -0.392735
v 0.425922 1.03908 -0.361152
v 0.486393 1.14874 -0.276087
v 0.465452 1.08801 -0.291886
v 0.461028 1.03597 -0.317404
v 0.505875 1.03945 -0.283749
v 0.522538 1.09591 -0.259394
v 0.55705 1.04925 -0.26275
v 0.60929 1.01352 -0.279254
v 0.554435 0.999025 -0.291886
v 0.606378 0.970696 -0.3155
v 0.497348 0.991128 -0.324378
v 0.456827 0.992426 -0.366032
v 0.497794 0.955674 -0.377304
v 0.550186 0.954983 -0.341071
v 0.602144 0.939436 -0.361985
v 0.545703 0.931627 -0.39411
v 0.596909 0.922116 -0.41517
v 0.660869 1.00128 -0.303096
v 0.656621 0.957234 -0.35228
v 0.650933 0.933853 -0.405192
v 0.700244 0.959956 -0.398626
v 0.710217 0.99563 -0.346797
v 0.741086 0.998438 -0.39597
v 0.741086 0.988123 -0.43597
v 0.700244 0.949641 -0.438626
v 0.732978 0.968282 -0.49
v 0.650933 0.923538 -0.445192
v 0.679381 0.929885 -0.495483
v 0.596909 0.911801 -0.45517
v 0.624647 0.91228 -0.50402
v 0.649671 0.927981 -0.551803
v 0.70639 0.956894 -0.549501
v 0.670077 0.95771 -0.594882
v 0.471443 0.994702 -0.607557
v 0.485363 1.03294 -0.64629
v 0.521099 0.980698 -0.629786
v 0.507172 1.07721 -0.673125
v 0.539106 1.02257 -0.665857
v 0.575925 0.976709 -0.641374
v 0.53521 1.12415 -0.686021
v 0.568741 1.0768 -0.689477
v 0.604886 1.02396 -0.672785
v 0.631745 0.983038 -0.641439
v 0.436573 1.03852 -0.603083
v 0.413307 1.08795 -0.59
v 0.453613 1.08106 -0.638848
v 0.403415 1.13923 -0.569305
v 0.4339 1.14093 -0.618767
v 0.483248 1.13528 -0.662468
v 0.442156 0.989731 -0.559875
v 0.424047 0.994087 -0.506875
v 0.409912 1.03735 -0.551445
v 0.418495 1.00744 -0.452589
v 0.395845 1.04788 -0.487662
v 0.418495 1.01775 -0.412589
v 0.395845 1.0582 -0.447662
v 0.390198 1.09723 -0.531363
v 0.38655 1.10798 -0.468678
v 0.494396 0.953995 -0.576379
v 0.52455 0.925335 -0.538626
v 0.468396 0.95186 -0.524436
v 0.559611 0.910904 -0.497171
v 0.507167 0.926243 -0.477345
v 0.545703 0.921312 -0.434109
v 0.497794 0.945359 -0.417304
v 0.454329 0.962388 -0.460653
v 0.454329 0.972703 -0.420653
v 0.548243 0.942724 -0.595146
v 0.614023 0.944116 -0.602074
v 0.587014 0.917106 -0.548056
f 1 2 3
f 2 4 5
f 3 5 6
f 2 5 3
f 4 7 8
f 7 9 10
f 8 10 11
f 7 10 8
f 6 12 13
f 14 15 16
f 17 16 18
f 14 16 17
f 4 8 5
f 8 11 12
f 5 12 6
f 8 12 5
f 1 3 19
f 3 6 20
f 19 20 21
f 3 20 19
f 6 13 22
f 17 18 23
f 24 23 25
f 17 23 24
f 21 26 27
f 26 28 29
f 27 29 30
f 26 29 27
f 6 22 20
f 22 28 26
f 20 26 21
f 22 26 20
f 1 19 31
f 19 21 32
f 31 32 33
f 19 32 31
f 21 27 34
f 27 30 35
f 34 35 36
f 27 35 34
f 33 37 38
f 37 36 39
f 38 39 40
f 37 39 38
f 21 34 32
f 34 36 37
f 32 37 33
f 34 37 32
f 1 31 41
f 31 33 42
f 41 42 43
f 31 42 41
f 33 38 44
f 38 40 45
f 44 45 46
f 38 45 44
f 43 47 48
f 47 46 49
f 48 49 50
f 47 49 48
f 33 44 42
f 44 46 47
f 42 47 43
f 44 47 42
f 1 41 2
f 41 43 51
f 2 51 4
f 41 51 2
f 43 48 52
f 48 50 53
f 52 53 54
f 48 53 52
f 4 55 7
f 55 54 56
f 7 56 9
f 55 56 7
f 43 52 51
f 52 54 55
f 51 55 4
f 52 55 51
f 9 57 10
f 58 59 60
f 61 60 15
f 58 60 61
f 59 62 63
f 62 64 65
f 63 65 66
f 62 65 63
f 15 67 16
f 67 66 68
f 16 68 18
f 67 68 16
f 59 63 60
f 63 66 67
f 60 67 15
f 63 67 60
f 18 68 69
f 68 66 70
f 69 70 71
f 68 70 69
f 66 65 72
f 65 64 73
f 72 73 74
f 65 73 72
f 71 75 76
f 75 74 77
f 76 77 78
f 75 77 76
f 66 72 70
f 72 74 75
f 70 75 71
f 72 75 70
f 18 69 23
f 69 71 79
f 23 79 25
f 69 79 23
f 71 76 80
f 76 78 81
f 80 81 82
f 76 81 80
f 25 83 84
f 83 82 85
f 84 85 86
f 83 85 84
f 71 80 79
f 80 82 83
f 79 83 25
f 80 83 79
f 86 85 87
f 85 82 88
f 87 88 89
f 85 88 87
f 82 81 90
f 81 78 91
f 90 91 92
f 81 91 90
f 89 93 94
f 93 92 95
f 94 95 96
f 93 95 94
f 82 90 88
f 90 92 93
f 88 93 89
f 90 93 88
f 30 97 35
f 97 98 99
f 35 99 36
f 97 99 35
f 98 100 101
f 94 96 102
f 101 103 104
f 100 103 101
f 36 105 39
f 105 104 106
f 39 106 40
f 105 106 39
f 98 101 99
f 101 104 105
f 99 105 36
f 101 105 99
f 40 106 107
f 106 104 108
f 107 108 109
f 106 108 107
f 104 103 110
f 102 96 111
f 110 112 113
f 103 112 110
f 109 114 115
f 114 113 116
f 115 116 117
f 114 116 115
f 104 110 108
f 110 113 114
f 108 114 109
f 110 114 108
f 40 107 45
f 107 109 118
f 45 118 46
f 107 118 45
f 109 115 119
f 115 117 120
f 119 120 121
f 115 120 119
f 46 122 49
f 122 121 123
f 49 123 50
f 122 123 49
f 109 119 118
f 119 121 122
f 118 122 46
f 119 122 118
f 50 123 124
f 123 121 125
f 124 125 126
f 123 125 124
f 121 120 127
f 120 117 128
f 127 128 129
f 120 128 127
f 126 130 131
f 130 129 132
f 131 132 133
f 130 132 131
f 121 127 125
f 127 129 130
f 125 130 126
f 127 130 125
f 50 124 53
f 124 126 134
f 53 134 54
f 124 134 53
f 126 131 135
f 131 133 136
f 135 136 137
f 131 136 135
f 54 138 56
f 138 137 139
f 56 139 9
f 138 139 56
f 126 135 134
f 135 137 138
f 134 138 54
f 135 138 134
f 9 139 57
f 140 141 142
f 58 142 59
f 140 142 58
f 141 143 144
f 143 145 146
f 144 146 147
f 143 146 144
f 59 148 62
f 148 147 149
f 62 149 64
f 148 149 62
f 141 144 142
f 144 147 148
f 142 148 59
f 144 148 142
f 150 151 152
f 151 153 154
f 152 154 155
f 151 154 152
f 153 156 157
f 156 78 77
f 157 77 74
f 156 77 157
f 155 158 159
f 158 74 73
f 159 73 64
f 158 73 159
f 153 157 154
f 157 74 158
f 154 158 155
f 157 158 154
f 150 160 151
f 160 161 162
f 151 162 153
f 160 162 151
f 161 163 164
f 163 96 95
f 164 95 92
f 163 95 164
f 153 165 156
f 165 92 91
f 156 91 78
f 165 91 156
f 161 164 162
f 164 92 165
f 162 165 153
f 164 165 162
f 150 166 160
f 166 167 168
f 160 168 161
f 166 168 160
f 167 169 170
f 171 117 116
f 172 116 113
f 171 116 172
f 161 173 163
f 173 174 111
f 163 111 96
f 173 111 163
f 167 170 168
f 170 174 173
f 168 173 161
f 170 173 168
f 150 175 166
f 175 176 177
f 166 177 167
f 175 177 166
f 176 178 179
f 178 145 180
f 179 180 181
f 178 180 179
f 167 182 169
f 183 129 128
f 171 128 117
f 183 128 171
f 176 179 177
f 179 181 182
f 177 182 167
f 179 182 177
f 150 152 175
f 152 155 184
f 175 184 176
f 152 184 175
f 155 159 185
f 159 64 149
f 185 149 147
f 159 149 185
f 176 186 178
f 186 147 146
f 178 146 145
f 186 146 178
f 155 185 184
f 185 147 186
f 184 186 176
f 185 186 184
f 10 61 11
f 11 61 15
f 12 14 13
f 13 14 17
f 11 15 12
f 12 15 14
f 13 17 22
f 22 17 24
f 28 25 29
f 29 25 84
f 29 84 30
f 30 84 86
f 22 24 28
f 28 24 25
f 57 58 10
f 10 58 61
f 30 86 97
f 97 86 87
f 97 87 98
f 98 87 89
f 98 89 100
f 100 89 94
f 100 94 103
f 103 94 102
f 112 111 113
f 113 111 174
f 103 102 112
f 112 102 111
f 129 181 132
f 132 181 180
f 132 180 133
f 133 180 145
f 133 145 136
f 136 145 143
f 136 143 137
f 137 143 141
f 137 141 139
f 139 141 140
f 139 140 57
f 57 140 58
f 113 174 172
f 172 174 170
f 172 170 171
f 171 170 169
f 183 182 129
f 129 182 181
f 171 169 183
f 183 169 182
