v 0.706557 1.22982 -0.372443
v 0.741427 1.186 -0.376917
v 0.735844 1.23479 -0.420125
v 0.764694 1.13657 -0.39
v 0.768089 1.18716 -0.428555
v 0.753953 1.23043 -0.473125
v 0.774586 1.08528 -0.410695
v 0.787802 1.12729 -0.448636
v 0.770351 1.03605 -0.437427
v 0.788493 1.07488 -0.473756
v 0.79145 1.11654 -0.511322
v 0.782156 1.17664 -0.492338
v 0.759506 1.21708 -0.527411
v 0.782156 1.11621 -0.612338
v 0.79145 1.05612 -0.631322
v 0.778996 1.09746 -0.667265
v 0.759506 1.15666 -0.647411
v 0.752078 1.13532 -0.698848
v 0.778996 1.15788 -0.547265
v 0.683604 1.27052 -0.403621
v 0.709605 1.27266 -0.455564
v 0.65345 1.29918 -0.441374
v 0.723671 1.26213 -0.519347
v 0.721173 1.18198 -0.693968
v 0.721173 1.24241 -0.573968
v 0.680207 1.27916 -0.562696
v 0.670834 1.29828 -0.502655
v 0.61839 1.31361 -0.482829
v 0.632297 1.30321 -0.54589
v 0.581092 1.31272 -0.52483
v 0.656901 1.24382 -0.350214
v 0.629758 1.28179 -0.384854
v 0.602076 1.24781 -0.338626
v 0.590987 1.30741 -0.431944
v 0.553354 1.31224 -0.47598
v 0.528329 1.29654 -0.428197
v 0.563978 1.2804 -0.377926
v 0.546255 1.24148 -0.338561
v 0.507923 1.26681 -0.385118
v 0.493689 1.22531 -0.350024
v 0.692637 1.19158 -0.33371
v 0.638894 1.20195 -0.314143
v 0.670828 1.14731 -0.306875
v 0.573114 1.20056 -0.307215
v 0.516956 1.18786 -0.315207
v 0.545707 1.14466 -0.293697
v 0.609259 1.14772 -0.290523
v 0.64279 1.10036 -0.293979
v 0.577754 1.09899 -0.28713
v 0.610657 1.05433 -0.296005
v 0.724387 1.14346 -0.341152
v 0.694752 1.08923 -0.317532
v 0.66228 1.04117 -0.313833
v 0.708325 1.03342 -0.345071
v 0.7441 1.08359 -0.361233
v 0.745286 1.03167 -0.387342
v 0.770351 0.975631 -0.557427
v 0.767789 0.954403 -0.609377
v 0.788493 1.01445 -0.593756
v 0.751618 0.940592 -0.661374
v 0.780928 0.995602 -0.648219
v 0.723068 0.935249 -0.709461
v 0.75434 0.984215 -0.70772
v 0.684312 0.938781 -0.749976
v 0.717485 0.984038 -0.752668
v 0.740878 1.03446 -0.7445
v 0.775281 1.04495 -0.69192
v 0.752709 1.0862 -0.726093
v 0.716973 1.13844 -0.742596
v 0.712549 1.0864 -0.768114
v 0.672126 1.13496 -0.776251
v 0.691608 1.02567 -0.783913
v 0.661045 0.97623 -0.784793
v 0.632293 1.01943 -0.806303
v 0.655462 1.0785 -0.800606
v 0.620951 1.12515 -0.79725
v 0.600246 1.06511 -0.81287
v 0.567343 1.10977 -0.803995
v 0.680652 1.18328 -0.735622
v 0.680207 1.21874 -0.682696
v 0.623566 1.17538 -0.768114
v 0.568711 1.16089 -0.780746
v 0.571622 1.20371 -0.7445
v 0.627814 1.27985 -0.598929
v 0.627814 1.21943 -0.718929
v 0.575857 1.23497 -0.698015
v 0.575857 1.2954 -0.578015
v 0.527067 1.30098 -0.534808
v 0.52138 1.21718 -0.70772
v 0.52138 1.2776 -0.58772
v 0.477757 1.27488 -0.541374
v 0.517131 1.17313 -0.756904
v 0.51572 1.12293 -0.786167
v 0.469675 1.13068 -0.754929
v 0.477757 1.21445 -0.661374
v 0.467783 1.17878 -0.713203
v 0.436915 1.17597 -0.66403
v 0.432714 1.13243 -0.712658
v 0.40765 1.12804 -0.662573
v 0.498619 1.29463 -0.484517
v 0.436915 1.23639 -0.54403
v 0.445023 1.25624 -0.49
v 0.40765 1.18846 -0.542573
v 0.410211 1.20969 -0.490623
v 0.426382 1.2235 -0.438626
v 0.47161 1.26762 -0.430499
v 0.454933 1.22885 -0.390539
v 0.460515 1.18006 -0.347332
v 0.42366 1.17988 -0.39228
v 0.437123 1.12964 -0.3555
v 0.397073 1.16849 -0.451781
v 0.389507 1.14964 -0.506244
v 0.38655 1.10798 -0.468678
v 0.402719 1.11914 -0.40808
v 0.425291 1.0779 -0.373907
v 0.399005 1.06664 -0.432735
v 0.425922 1.02877 -0.401152
v 0.486393 1.13843 -0.316087
v 0.465452 1.07769 -0.331886
v 0.461028 1.02566 -0.357404
v 0.505875 1.02913 -0.323749
v 0.522538 1.08559 -0.299394
v 0.55705 1.03894 -0.30275
v 0.60929 1.0032 -0.319254
v 0.554435 0.988711 -0.331886
v 0.606378 0.960381 -0.3555
v 0.497348 0.980813 -0.364378
v 0.456827 0.982111 -0.406032
v 0.497794 0.945359 -0.417304
v 0.550186 0.944668 -0.381071
v 0.602144 0.929121 -0.401985
v 0.550186 0.884244 -0.501071
v 0.497794 0.884935 -0.537304
v 0.545703 0.860889 -0.55411
v 0.602144 0.868697 -0.521985
v 0.596909 0.851377 -0.57517
v 0.660869 0.990962 -0.343096
v 0.656621 0.946919 -0.39228
v 0.650933 0.863114 -0.565192
v 0.656621 0.886495 -0.51228
v 0.700244 0.889217 -0.558626
v 0.710217 0.985315 -0.386797
v 0.700244 0.949641 -0.438626
v 0.741086 0.988123 -0.43597
v 0.741086 0.927699 -0.55597
v 0.732978 0.907858 -0.61
v 0.679381 0.869461 -0.615483
v 0.624647 0.851856 -0.62402
v 0.649671 0.867557 -0.671803
v 0.70639 0.89647 -0.669501
v 0.670077 0.897287 -0.714882
v 0.471443 0.934278 -0.727557
v 0.485363 0.972514 -0.76629
v 0.521099 0.920274 -0.749786
v 0.507172 1.01679 -0.793125
v 0.539106 0.962147 -0.785857
v 0.575925 0.916285 -0.761374
v 0.53521 1.06373 -0.806021
v 0.568741 1.01638 -0.809477
v 0.604886 0.963538 -0.792785
v 0.631745 0.922615 -0.761439
v 0.436573 0.978097 -0.723083
v 0.413307 1.02753 -0.71
v 0.453613 1.02063 -0.758848
v 0.403415 1.07881 -0.689305
v 0.4339 1.08051 -0.738767
v 0.483248 1.07486 -0.782468
v 0.442156 0.929307 -0.679875
v 0.424047 0.933663 -0.626875
v 0.409912 0.97693 -0.671445
v 0.418495 0.947015 -0.572589
v 0.395845 0.987457 -0.607662
v 0.418495 1.00744 -0.452589
v 0.395845 1.04788 -0.487662
v 0.399005 1.00621 -0.552735
v 0.390198 1.03681 -0.651363
v 0.38655 1.04755 -0.588678
v 0.389507 1.08922 -0.626244
v 0.494396 0.893571 -0.696379
v 0.52455 0.864911 -0.658626
v 0.468396 0.891436 -0.644436
v 0.559611 0.85048 -0.617171
v 0.507167 0.865819 -0.597345
v 0.454329 0.901964 -0.580653
v 0.456827 0.921687 -0.526032
v 0.548243 0.8823 -0.715146
v 0.614023 0.883692 -0.722074
v 0.587014 0.856683 -0.668056
f 1 2 3
f 2 4 5
f 3 5 6
f 2 5 3
f 4 7 8
f 7 9 10
f 8 10 11
f 7 10 8
f 6 12 13
f 14 15 16
f 17 16 18
f 12 19 13
f 4 8 5
f 8 11 12
f 5 12 6
f 8 12 5
f 1 3 20
f 3 6 21
f 20 21 22
f 3 21 20
f 6 13 23
f 17 18 24
f 23 25 26
f 13 25 23
f 22 27 28
f 27 26 29
f 28 29 30
f 27 29 28
f 6 23 21
f 23 26 27
f 21 27 22
f 23 27 21
f 1 20 31
f 20 22 32
f 31 32 33
f 20 32 31
f 22 28 34
f 28 30 35
f 34 35 36
f 28 35 34
f 33 37 38
f 37 36 39
f 38 39 40
f 37 39 38
f 22 34 32
f 34 36 37
f 32 37 33
f 34 37 32
f 1 31 41
f 31 33 42
f 41 42 43
f 31 42 41
f 33 38 44
f 38 40 45
f 44 45 46
f 38 45 44
f 43 47 48
f 47 46 49
f 48 49 50
f 47 49 48
f 33 44 42
f 44 46 47
f 42 47 43
f 44 47 42
f 1 41 2
f 41 43 51
f 2 51 4
f 41 51 2
f 43 48 52
f 48 50 53
f 52 53 54
f 48 53 52
f 4 55 7
f 55 54 56
f 7 56 9
f 55 56 7
f 43 52 51
f 52 54 55
f 51 55 4
f 52 55 51
f 57 58 59
f 58 60 61
f 59 61 15
f 58 61 59
f 60 62 63
f 62 64 65
f 63 65 66
f 62 65 63
f 15 67 16
f 67 66 68
f 16 68 18
f 67 68 16
f 60 63 61
f 63 66 67
f 61 67 15
f 63 67 61
f 18 68 69
f 68 66 70
f 69 70 71
f 68 70 69
f 66 65 72
f 65 64 73
f 72 73 74
f 65 73 72
f 71 75 76
f 75 74 77
f 76 77 78
f 75 77 76
f 66 72 70
f 72 74 75
f 70 75 71
f 72 75 70
f 18 69 24
f 69 71 79
f 24 79 80
f 69 79 24
f 71 76 81
f 76 78 82
f 81 82 83
f 76 82 81
f 26 84 29
f 85 83 86
f 29 87 30
f 84 87 29
f 71 81 79
f 81 83 85
f 79 85 80
f 81 85 79
f 30 87 88
f 86 83 89
f 88 90 91
f 87 90 88
f 83 82 92
f 82 78 93
f 92 93 94
f 82 93 92
f 95 96 97
f 96 94 98
f 97 98 99
f 96 98 97
f 83 92 89
f 92 94 96
f 89 96 95
f 92 96 89
f 30 88 35
f 88 91 100
f 35 100 36
f 88 100 35
f 91 101 102
f 101 103 104
f 102 104 105
f 101 104 102
f 36 106 39
f 106 105 107
f 39 107 40
f 106 107 39
f 91 102 100
f 102 105 106
f 100 106 36
f 102 106 100
f 40 107 108
f 107 105 109
f 108 109 110
f 107 109 108
f 105 104 111
f 104 103 112
f 111 112 113
f 104 112 111
f 110 114 115
f 114 113 116
f 115 116 117
f 114 116 115
f 105 111 109
f 111 113 114
f 109 114 110
f 111 114 109
f 40 108 45
f 108 110 118
f 45 118 46
f 108 118 45
f 110 115 119
f 115 117 120
f 119 120 121
f 115 120 119
f 46 122 49
f 122 121 123
f 49 123 50
f 122 123 49
f 110 119 118
f 119 121 122
f 118 122 46
f 119 122 118
f 50 123 124
f 123 121 125
f 124 125 126
f 123 125 124
f 121 120 127
f 120 117 128
f 127 128 129
f 120 128 127
f 126 130 131
f 132 133 134
f 135 134 136
f 132 134 135
f 121 127 125
f 127 129 130
f 125 130 126
f 127 130 125
f 50 124 53
f 124 126 137
f 53 137 54
f 124 137 53
f 126 131 138
f 135 136 139
f 140 139 141
f 135 139 140
f 54 142 56
f 142 143 144
f 56 144 9
f 142 144 56
f 126 138 137
f 138 143 142
f 137 142 54
f 138 142 137
f 57 145 58
f 145 141 146
f 58 146 60
f 145 146 58
f 141 139 147
f 139 136 148
f 147 148 149
f 139 148 147
f 60 150 62
f 150 149 151
f 62 151 64
f 150 151 62
f 141 147 146
f 147 149 150
f 146 150 60
f 147 150 146
f 152 153 154
f 153 155 156
f 154 156 157
f 153 156 154
f 155 158 159
f 158 78 77
f 159 77 74
f 158 77 159
f 157 160 161
f 160 74 73
f 161 73 64
f 160 73 161
f 155 159 156
f 159 74 160
f 156 160 157
f 159 160 156
f 152 162 153
f 162 163 164
f 153 164 155
f 162 164 153
f 163 165 166
f 165 99 98
f 166 98 94
f 165 98 166
f 155 167 158
f 167 94 93
f 158 93 78
f 167 93 158
f 163 166 164
f 166 94 167
f 164 167 155
f 166 167 164
f 152 168 162
f 168 169 170
f 162 170 163
f 168 170 162
f 169 171 172
f 173 117 116
f 174 116 113
f 171 175 172
f 163 176 165
f 176 177 178
f 165 178 99
f 176 178 165
f 169 172 170
f 172 177 176
f 170 176 163
f 172 176 170
f 152 179 168
f 179 180 181
f 168 181 169
f 179 181 168
f 180 182 183
f 182 136 134
f 183 134 133
f 182 134 183
f 169 184 171
f 184 133 185
f 173 128 117
f 184 185 171
f 180 183 181
f 183 133 184
f 181 184 169
f 183 184 181
f 152 154 179
f 154 157 186
f 179 186 180
f 154 186 179
f 157 161 187
f 161 64 151
f 187 151 149
f 161 151 187
f 180 188 182
f 188 149 148
f 182 148 136
f 188 148 182
f 157 187 186
f 187 149 188
f 186 188 180
f 187 188 186
f 9 57 10
f 10 57 59
f 10 59 11
f 11 59 15
f 12 14 19
f 19 14 16
f 19 16 13
f 13 16 17
f 11 15 12
f 12 15 14
f 25 24 26
f 26 24 80
f 13 17 25
f 25 17 24
f 26 80 84
f 84 80 85
f 84 85 87
f 87 85 86
f 90 89 91
f 91 89 95
f 87 86 90
f 90 86 89
f 91 95 101
f 101 95 97
f 101 97 103
f 103 97 99
f 103 99 112
f 112 99 178
f 112 178 113
f 113 178 177
f 128 185 129
f 129 185 133
f 130 132 131
f 131 132 135
f 129 133 130
f 130 133 132
f 131 135 138
f 138 135 140
f 143 141 144
f 144 141 145
f 144 145 9
f 9 145 57
f 138 140 143
f 143 140 141
f 116 175 173
f 173 175 171
f 174 172 116
f 116 172 175
f 113 177 174
f 174 177 172
f 173 171 128
f 128 171 185
