v 0.706557 1.16939 -0.492443
v 0.741427 1.12557 -0.496917
v 0.735844 1.17436 -0.540125
v 0.764694 1.07614 -0.51
v 0.768089 1.12674 -0.548555
v 0.753953 1.17001 -0.593125
v 0.774586 1.02486 -0.530695
v 0.787802 1.06687 -0.568637
v 0.770351 0.975631 -0.557427
v 0.788493 1.01445 -0.593756
v 0.79145 1.05612 -0.631322
v 0.782156 1.11621 -0.612338
v 0.759506 1.15666 -0.647411
v 0.782156 1.09987 -0.772338
v 0.79145 1.03978 -0.791322
v 0.778996 1.08112 -0.827265
v 0.759506 1.14032 -0.807411
v 0.752078 1.11898 -0.858848
v 0.683604 1.2101 -0.523621
v 0.709605 1.21223 -0.575564
v 0.65345 1.23876 -0.561374
v 0.753953 1.15367 -0.753125
v 0.723671 1.18537 -0.799347
v 0.721173 1.16564 -0.853968
v 0.680207 1.20239 -0.842696
v 0.670834 1.23785 -0.622655
v 0.61839 1.25319 -0.602829
v 0.670834 1.22151 -0.782655
v 0.632297 1.22644 -0.82589
v 0.61839 1.23685 -0.762829
v 0.581092 1.23595 -0.80483
v 0.723671 1.20171 -0.639347
v 0.656901 1.1834 -0.470214
v 0.629758 1.22137 -0.504854
v 0.602076 1.18739 -0.458626
v 0.590987 1.24699 -0.551944
v 0.581092 1.25229 -0.64483
v 0.553354 1.25181 -0.59598
v 0.528329 1.23611 -0.548197
v 0.563978 1.21998 -0.497926
v 0.546255 1.18106 -0.458561
v 0.507923 1.20638 -0.505118
v 0.493689 1.16489 -0.470024
v 0.692637 1.13116 -0.45371
v 0.638894 1.14152 -0.434143
v 0.670828 1.08688 -0.426875
v 0.573114 1.14013 -0.427215
v 0.516956 1.12744 -0.435207
v 0.545707 1.08424 -0.413697
v 0.609259 1.08729 -0.410523
v 0.64279 1.03994 -0.413979
v 0.577754 1.03856 -0.40713
v 0.610657 0.993903 -0.416006
v 0.724387 1.08304 -0.461152
v 0.694752 1.02881 -0.437532
v 0.66228 0.980742 -0.433833
v 0.708325 0.972992 -0.465071
v 0.7441 1.02316 -0.481233
v 0.745286 0.971244 -0.507342
v 0.767789 0.954403 -0.609377
v 0.767789 0.938063 -0.769377
v 0.751618 0.924252 -0.821374
v 0.780928 0.979262 -0.808219
v 0.788493 0.998111 -0.753756
v 0.723068 0.918909 -0.869461
v 0.75434 0.967875 -0.86772
v 0.684312 0.92244 -0.909976
v 0.717485 0.967698 -0.912668
v 0.740878 1.01812 -0.9045
v 0.775281 1.02861 -0.85192
v 0.752709 1.06986 -0.886093
v 0.716973 1.1221 -0.902596
v 0.712549 1.07006 -0.928114
v 0.672126 1.11862 -0.936251
v 0.691608 1.00933 -0.943913
v 0.661045 0.95989 -0.944793
v 0.632293 1.00309 -0.966303
v 0.655462 1.06216 -0.960606
v 0.620951 1.10881 -0.95725
v 0.600246 1.04877 -0.97287
v 0.567343 1.09343 -0.963995
v 0.680652 1.16694 -0.895622
v 0.623566 1.15904 -0.928114
v 0.568711 1.14455 -0.940746
v 0.571622 1.18737 -0.9045
v 0.627814 1.20309 -0.878929
v 0.575857 1.21863 -0.858015
v 0.527067 1.22422 -0.814808
v 0.52138 1.20084 -0.86772
v 0.477757 1.19811 -0.821374
v 0.517131 1.15679 -0.916904
v 0.51572 1.10659 -0.946167
v 0.469675 1.11434 -0.914929
v 0.467783 1.16244 -0.873203
v 0.436915 1.15963 -0.82403
v 0.432714 1.11609 -0.872658
v 0.40765 1.1117 -0.822573
v 0.553354 1.23547 -0.75598
v 0.498619 1.21787 -0.764517
v 0.498619 1.23421 -0.604517
v 0.527067 1.24056 -0.654808
v 0.445023 1.17947 -0.77
v 0.410211 1.13293 -0.770623
v 0.445023 1.19581 -0.61
v 0.410211 1.14927 -0.610623
v 0.426382 1.16308 -0.558626
v 0.47161 1.2072 -0.550499
v 0.454933 1.16842 -0.510539
v 0.477757 1.21445 -0.661374
v 0.460515 1.11963 -0.467332
v 0.42366 1.11946 -0.51228
v 0.437123 1.06921 -0.4755
v 0.397073 1.10807 -0.571781
v 0.389507 1.07288 -0.786244
v 0.389507 1.08922 -0.626244
v 0.38655 1.04755 -0.588678
v 0.402719 1.05872 -0.52808
v 0.425291 1.01747 -0.493907
v 0.399005 1.00621 -0.552735
v 0.425922 0.968346 -0.521152
v 0.486393 1.07801 -0.436087
v 0.465452 1.01727 -0.451886
v 0.461028 0.965231 -0.477404
v 0.505875 0.96871 -0.443749
v 0.522538 1.02517 -0.419394
v 0.55705 0.978516 -0.42275
v 0.60929 0.94278 -0.439254
v 0.554435 0.928287 -0.451886
v 0.606378 0.899957 -0.4755
v 0.497348 0.920389 -0.484378
v 0.456827 0.921687 -0.526032
v 0.497794 0.884935 -0.537304
v 0.550186 0.884244 -0.501071
v 0.602144 0.868697 -0.521985
v 0.545703 0.860889 -0.55411
v 0.596909 0.851377 -0.57517
v 0.660869 0.930538 -0.463096
v 0.656621 0.886495 -0.51228
v 0.650933 0.863114 -0.565192
v 0.700244 0.889217 -0.558626
v 0.710217 0.924892 -0.506797
v 0.741086 0.927699 -0.55597
v 0.732978 0.907858 -0.61
v 0.732978 0.891518 -0.77
v 0.679381 0.869461 -0.615483
v 0.624647 0.851856 -0.62402
v 0.679381 0.853121 -0.775483
v 0.624647 0.835516 -0.78402
v 0.649671 0.851217 -0.831803
v 0.650933 0.846774 -0.725192
v 0.70639 0.88013 -0.829501
v 0.670077 0.880946 -0.874882
v 0.700244 0.872877 -0.718626
v 0.471443 0.917938 -0.887557
v 0.485363 0.956174 -0.92629
v 0.521099 0.903934 -0.909786
v 0.507172 1.00045 -0.953125
v 0.539106 0.945807 -0.945857
v 0.575925 0.899945 -0.921374
v 0.53521 1.04739 -0.966021
v 0.568741 1.00004 -0.969477
v 0.604886 0.947198 -0.952785
v 0.631745 0.906274 -0.921439
v 0.436573 0.961757 -0.883083
v 0.413307 1.01119 -0.87
v 0.453613 1.00429 -0.918848
v 0.403415 1.06247 -0.849305
v 0.4339 1.06417 -0.898767
v 0.483248 1.05852 -0.942468
v 0.442156 0.912967 -0.839875
v 0.424047 0.917323 -0.786875
v 0.409912 0.96059 -0.831445
v 0.418495 0.930675 -0.732589
v 0.395845 0.971117 -0.767662
v 0.418495 0.947015 -0.572589
v 0.395845 0.987457 -0.607662
v 0.390198 1.02047 -0.811363
v 0.38655 1.03121 -0.748678
v 0.494396 0.877231 -0.856379
v 0.52455 0.848571 -0.818626
v 0.468396 0.875096 -0.804436
v 0.559611 0.83414 -0.777171
v 0.507167 0.849479 -0.757345
v 0.559611 0.85048 -0.617171
v 0.507167 0.865819 -0.597345
v 0.424047 0.933663 -0.626875
v 0.454329 0.901964 -0.580653
v 0.454329 0.885624 -0.740653
v 0.548243 0.86596 -0.875146
v 0.614023 0.867352 -0.882074
v 0.587014 0.840342 -0.828056
v 0.596909 0.835037 -0.73517
f 1 2 3
f 2 4 5
f 3 5 6
f 2 5 3
f 4 7 8
f 7 9 10
f 8 10 11
f 7 10 8
f 6 12 13
f 14 15 16
f 17 16 18
f 14 16 17
f 4 8 5
f 8 11 12
f 5 12 6
f 8 12 5
f 1 3 19
f 3 6 20
f 19 20 21
f 3 20 19
f 22 17 23
f 17 18 24
f 23 24 25
f 17 24 23
f 21 26 27
f 28 25 29
f 30 29 31
f 28 29 30
f 6 32 20
f 23 25 28
f 20 26 21
f 32 26 20
f 1 19 33
f 19 21 34
f 33 34 35
f 19 34 33
f 21 27 36
f 27 37 38
f 36 38 39
f 27 38 36
f 35 40 41
f 40 39 42
f 41 42 43
f 40 42 41
f 21 36 34
f 36 39 40
f 34 40 35
f 36 40 34
f 1 33 44
f 33 35 45
f 44 45 46
f 33 45 44
f 35 41 47
f 41 43 48
f 47 48 49
f 41 48 47
f 46 50 51
f 50 49 52
f 51 52 53
f 50 52 51
f 35 47 45
f 47 49 50
f 45 50 46
f 47 50 45
f 1 44 2
f 44 46 54
f 2 54 4
f 44 54 2
f 46 51 55
f 51 53 56
f 55 56 57
f 51 56 55
f 4 58 7
f 58 57 59
f 7 59 9
f 58 59 7
f 46 55 54
f 55 57 58
f 54 58 4
f 55 58 54
f 9 60 10
f 61 62 63
f 64 63 15
f 61 63 64
f 62 65 66
f 65 67 68
f 66 68 69
f 65 68 66
f 15 70 16
f 70 69 71
f 16 71 18
f 70 71 16
f 62 66 63
f 66 69 70
f 63 70 15
f 66 70 63
f 18 71 72
f 71 69 73
f 72 73 74
f 71 73 72
f 69 68 75
f 68 67 76
f 75 76 77
f 68 76 75
f 74 78 79
f 78 77 80
f 79 80 81
f 78 80 79
f 69 75 73
f 75 77 78
f 73 78 74
f 75 78 73
f 18 72 24
f 72 74 82
f 24 82 25
f 72 82 24
f 74 79 83
f 79 81 84
f 83 84 85
f 79 84 83
f 25 86 29
f 86 85 87
f 29 87 31
f 86 87 29
f 74 83 82
f 83 85 86
f 82 86 25
f 83 86 82
f 31 87 88
f 87 85 89
f 88 89 90
f 87 89 88
f 85 84 91
f 84 81 92
f 91 92 93
f 84 92 91
f 90 94 95
f 94 93 96
f 95 96 97
f 94 96 95
f 85 91 89
f 91 93 94
f 89 94 90
f 91 94 89
f 31 88 98
f 88 90 99
f 38 100 39
f 101 100 38
f 90 95 102
f 95 97 103
f 104 105 106
f 95 103 102
f 39 107 42
f 107 106 108
f 42 108 43
f 107 108 42
f 109 104 100
f 104 106 107
f 100 107 39
f 104 107 100
f 43 108 110
f 108 106 111
f 110 111 112
f 108 111 110
f 106 105 113
f 103 97 114
f 113 115 116
f 105 115 113
f 112 117 118
f 117 116 119
f 118 119 120
f 117 119 118
f 106 113 111
f 113 116 117
f 111 117 112
f 113 117 111
f 43 110 48
f 110 112 121
f 48 121 49
f 110 121 48
f 112 118 122
f 118 120 123
f 122 123 124
f 118 123 122
f 49 125 52
f 125 124 126
f 52 126 53
f 125 126 52
f 112 122 121
f 122 124 125
f 121 125 49
f 122 125 121
f 53 126 127
f 126 124 128
f 127 128 129
f 126 128 127
f 124 123 130
f 123 120 131
f 130 131 132
f 123 131 130
f 129 133 134
f 133 132 135
f 134 135 136
f 133 135 134
f 124 130 128
f 130 132 133
f 128 133 129
f 130 133 128
f 53 127 56
f 127 129 137
f 56 137 57
f 127 137 56
f 129 134 138
f 134 136 139
f 138 139 140
f 134 139 138
f 57 141 59
f 141 140 142
f 59 142 9
f 141 142 59
f 129 138 137
f 138 140 141
f 137 141 57
f 138 141 137
f 9 142 60
f 142 140 143
f 61 144 62
f 142 143 60
f 140 139 145
f 139 136 146
f 147 148 149
f 150 148 147
f 62 151 65
f 151 149 152
f 65 152 67
f 151 152 65
f 153 147 144
f 147 149 151
f 144 151 62
f 147 151 144
f 154 155 156
f 155 157 158
f 156 158 159
f 155 158 156
f 157 160 161
f 160 81 80
f 161 80 77
f 160 80 161
f 159 162 163
f 162 77 76
f 163 76 67
f 162 76 163
f 157 161 158
f 161 77 162
f 158 162 159
f 161 162 158
f 154 164 155
f 164 165 166
f 155 166 157
f 164 166 155
f 165 167 168
f 167 97 96
f 168 96 93
f 167 96 168
f 157 169 160
f 169 93 92
f 160 92 81
f 169 92 160
f 165 168 166
f 168 93 169
f 166 169 157
f 168 169 166
f 154 170 164
f 170 171 172
f 164 172 165
f 170 172 164
f 171 173 174
f 175 120 119
f 176 119 116
f 175 119 176
f 165 177 167
f 177 178 114
f 167 114 97
f 177 114 167
f 171 174 172
f 174 178 177
f 172 177 165
f 174 177 172
f 154 179 170
f 179 180 181
f 170 181 171
f 179 181 170
f 180 182 183
f 184 136 135
f 185 135 132
f 184 135 185
f 186 187 175
f 187 132 131
f 175 131 120
f 187 131 175
f 180 183 181
f 185 132 187
f 181 188 171
f 183 188 181
f 154 156 179
f 156 159 189
f 179 189 180
f 156 189 179
f 159 163 190
f 163 67 152
f 190 152 149
f 163 152 190
f 180 191 182
f 191 149 148
f 182 148 192
f 191 148 182
f 159 190 189
f 190 149 191
f 189 191 180
f 190 191 189
f 10 64 11
f 11 64 15
f 12 14 13
f 13 14 17
f 13 17 6
f 6 17 22
f 11 15 12
f 12 15 14
f 26 28 27
f 27 28 30
f 6 22 32
f 32 22 23
f 32 23 26
f 26 23 28
f 27 30 37
f 37 30 31
f 37 31 38
f 38 31 98
f 60 61 10
f 10 61 64
f 101 88 100
f 100 88 99
f 38 98 101
f 101 98 88
f 104 102 105
f 105 102 103
f 109 90 104
f 104 90 102
f 100 99 109
f 109 99 90
f 115 114 116
f 116 114 178
f 105 103 115
f 115 103 114
f 140 153 143
f 143 153 144
f 143 144 60
f 60 144 61
f 139 150 145
f 145 150 147
f 145 147 140
f 140 147 153
f 136 192 146
f 146 192 148
f 146 148 139
f 139 148 150
f 116 178 176
f 176 178 174
f 176 174 175
f 175 174 173
f 184 182 136
f 136 182 192
f 185 183 184
f 184 183 182
f 186 171 187
f 187 171 188
f 175 173 186
f 186 173 171
f 187 188 185
f 185 188 183
