v 0.706557 1.15305 -0.652443
v 0.741427 1.10923 -0.656917
v 0.735844 1.15802 -0.700125
v 0.764694 1.0598 -0.67
v 0.768089 1.1104 -0.708555
v 0.753953 1.15367 -0.753125
v 0.774586 1.00852 -0.690695
v 0.787802 1.05053 -0.728637
v 0.770351 0.959291 -0.717427
v 0.788493 0.998111 -0.753756
v 0.79145 1.03978 -0.791322
v 0.782156 1.09987 -0.772338
v 0.759506 1.14032 -0.807411
v 0.778996 1.08112 -0.827265
v 0.752078 1.11898 -0.858848
v 0.683604 1.19376 -0.683621
v 0.709605 1.19589 -0.735564
v 0.65345 1.22242 -0.721374
v 0.723671 1.18537 -0.799347
v 0.721173 1.16564 -0.853968
v 0.680207 1.20239 -0.842696
v 0.670834 1.22151 -0.782655
v 0.61839 1.23685 -0.762829
v 0.632297 1.22644 -0.82589
v 0.581092 1.23595 -0.80483
v 0.656901 1.16706 -0.630214
v 0.629758 1.20503 -0.664854
v 0.602076 1.17105 -0.618626
v 0.590987 1.23065 -0.711944
v 0.553354 1.23547 -0.75598
v 0.528329 1.21977 -0.708197
v 0.563978 1.20364 -0.657926
v 0.546255 1.16472 -0.618561
v 0.507923 1.19004 -0.665118
v 0.493689 1.14855 -0.630024
v 0.692637 1.11482 -0.61371
v 0.638894 1.12518 -0.594143
v 0.670828 1.07054 -0.586875
v 0.573114 1.12379 -0.587215
v 0.516956 1.1111 -0.595207
v 0.545707 1.0679 -0.573697
v 0.609259 1.07095 -0.570523
v 0.64279 1.0236 -0.573979
v 0.577754 1.02222 -0.56713
v 0.610657 0.977563 -0.576005
v 0.724387 1.0667 -0.621152
v 0.694752 1.01247 -0.597532
v 0.66228 0.964401 -0.593833
v 0.708325 0.956652 -0.625071
v 0.7441 1.00682 -0.641233
v 0.745286 0.954904 -0.667342
v 0.767789 0.938063 -0.769377
v 0.751618 0.924252 -0.821374
v 0.780928 0.979262 -0.808219
v 0.723068 0.918909 -0.869461
v 0.75434 0.967875 -0.86772
v 0.684312 0.92244 -0.909976
v 0.717485 0.967698 -0.912668
v 0.740878 1.01812 -0.9045
v 0.775281 1.02861 -0.85192
v 0.752709 1.06986 -0.886093
v 0.716973 1.1221 -0.902596
v 0.712549 1.07006 -0.928114
v 0.672126 1.11862 -0.936251
v 0.691608 1.00933 -0.943913
v 0.661045 0.95989 -0.944793
v 0.632293 1.00309 -0.966303
v 0.655462 1.06216 -0.960606
v 0.620951 1.10881 -0.95725
v 0.600246 1.04877 -0.97287
v 0.567343 1.09343 -0.963995
v 0.680652 1.16694 -0.895622
v 0.623566 1.15904 -0.928114
v 0.568711 1.14455 -0.940746
v 0.571622 1.18737 -0.9045
v 0.627814 1.20309 -0.878929
v 0.575857 1.21863 -0.858015
v 0.527067 1.22422 -0.814808
v 0.52138 1.20084 -0.86772
v 0.477757 1.19811 -0.821374
v 0.517131 1.15679 -0.916904
v 0.51572 1.10659 -0.946167
v 0.469675 1.11434 -0.914929
v 0.467783 1.16244 -0.873203
v 0.436915 1.15963 -0.82403
v 0.432714 1.11609 -0.872658
v 0.40765 1.1117 -0.822573
v 0.498619 1.21787 -0.764517
v 0.445023 1.17947 -0.77
v 0.410211 1.13293 -0.770623
v 0.426382 1.14674 -0.718626
v 0.47161 1.19086 -0.710499
v 0.454933 1.15208 -0.670539
v 0.460515 1.10329 -0.627332
v 0.42366 1.10312 -0.67228
v 0.437123 1.05287 -0.6355
v 0.397073 1.09173 -0.731781
v 0.389507 1.07288 -0.786244
v 0.38655 1.03121 -0.748678
v 0.402719 1.04238 -0.68808
v 0.425291 1.00113 -0.653907
v 0.399005 0.989873 -0.712735
v 0.425922 0.952006 -0.681152
v 0.486393 1.06166 -0.596087
v 0.465452 1.00093 -0.611886
v 0.461028 0.948891 -0.637404
v 0.505875 0.95237 -0.603749
v 0.522538 1.00883 -0.579394
v 0.55705 0.962176 -0.58275
v 0.60929 0.926439 -0.599254
v 0.554435 0.911947 -0.611886
v 0.606378 0.883617 -0.6355
v 0.497348 0.904049 -0.644378
v 0.456827 0.905347 -0.686032
v 0.497794 0.868595 -0.697304
v 0.550186 0.867904 -0.661071
v 0.602144 0.852357 -0.681985
v 0.545703 0.844548 -0.71411
v 0.596909 0.835037 -0.73517
v 0.660869 0.914198 -0.623096
v 0.656621 0.870155 -0.67228
v 0.650933 0.846774 -0.725192
v 0.700244 0.872877 -0.718626
v 0.710217 0.908551 -0.666797
v 0.741086 0.911359 -0.71597
v 0.732978 0.891518 -0.77
v 0.679381 0.853121 -0.775483
v 0.624647 0.835516 -0.78402
v 0.649671 0.851217 -0.831803
v 0.70639 0.88013 -0.829501
v 0.670077 0.880946 -0.874882
v 0.471443 0.917938 -0.887557
v 0.485363 0.956174 -0.92629
v 0.521099 0.903934 -0.909786
v 0.507172 1.00045 -0.953125
v 0.539106 0.945807 -0.945857
v 0.575925 0.899945 -0.921374
v 0.53521 1.04739 -0.966021
v 0.568741 1.00004 -0.969477
v 0.604886 0.947198 -0.952785
v 0.631745 0.906274 -0.921439
v 0.436573 0.961757 -0.883083
v 0.413307 1.01119 -0.87
v 0.453613 1.00429 -0.918848
v 0.403415 1.06247 -0.849305
v 0.4339 1.06417 -0.898767
v 0.483248 1.05852 -0.942468
v 0.442156 0.912967 -0.839875
v 0.424047 0.917323 -0.786875
v 0.409912 0.96059 -0.831445
v 0.418495 0.930675 -0.732589
v 0.395845 0.971117 -0.767662
v 0.390198 1.02047 -0.811363
v 0.494396 0.877231 -0.856379
v 0.52455 0.848571 -0.818626
v 0.468396 0.875096 -0.804436
v 0.559611 0.83414 -0.777171
v 0.507167 0.849479 -0.757345
v 0.454329 0.885624 -0.740653
v 0.548243 0.86596 -0.875146
v 0.614023 0.867352 -0.882074
v 0.587014 0.840342 -0.828056
f 1 2 3
f 2 4 5
f 3 5 6
f 2 5 3
f 4 7 8
f 7 9 10
f 8 10 11
f 7 10 8
f 6 12 13
f 12 11 14
f 13 14 15
f 12 14 13
f 4 8 5
f 8 11 12
f 5 12 6
f 8 12 5
f 1 3 16
f 3 6 17
f 16 17 18
f 3 17 16
f 6 13 19
f 13 15 20
f 19 20 21
f 13 20 19
f 18 22 23
f 22 21 24
f 23 24 25
f 22 24 23
f 6 19 17
f 19 21 22
f 17 22 18
f 19 22 17
f 1 16 26
f 16 18 27
f 26 27 28
f 16 27 26
f 18 23 29
f 23 25 30
f 29 30 31
f 23 30 29
f 28 32 33
f 32 31 34
f 33 34 35
f 32 34 33
f 18 29 27
f 29 31 32
f 27 32 28
f 29 32 27
f 1 26 36
f 26 28 37
f 36 37 38
f 26 37 36
f 28 33 39
f 33 35 40
f 39 40 41
f 33 40 39
f 38 42 43
f 42 41 44
f 43 44 45
f 42 44 43
f 28 39 37
f 39 41 42
f 37 42 38
f 39 42 37
f 1 36 2
f 36 38 46
f 2 46 4
f 36 46 2
f 38 43 47
f 43 45 48
f 47 48 49
f 43 48 47
f 4 50 7
f 50 49 51
f 7 51 9
f 50 51 7
f 38 47 46
f 47 49 50
f 46 50 4
f 47 50 46
f 9 52 10
f 52 53 54
f 10 54 11
f 52 54 10
f 53 55 56
f 55 57 58
f 56 58 59
f 55 58 56
f 11 60 14
f 60 59 61
f 14 61 15
f 60 61 14
f 53 56 54
f 56 59 60
f 54 60 11
f 56 60 54
f 15 61 62
f 61 59 63
f 62 63 64
f 61 63 62
f 59 58 65
f 58 57 66
f 65 66 67
f 58 66 65
f 64 68 69
f 68 67 70
f 69 70 71
f 68 70 69
f 59 65 63
f 65 67 68
f 63 68 64
f 65 68 63
f 15 62 20
f 62 64 72
f 20 72 21
f 62 72 20
f 64 69 73
f 69 71 74
f 73 74 75
f 69 74 73
f 21 76 24
f 76 75 77
f 24 77 25
f 76 77 24
f 64 73 72
f 73 75 76
f 72 76 21
f 73 76 72
f 25 77 78
f 77 75 79
f 78 79 80
f 77 79 78
f 75 74 81
f 74 71 82
f 81 82 83
f 74 82 81
f 80 84 85
f 84 83 86
f 85 86 87
f 84 86 85
f 75 81 79
f 81 83 84
f 79 84 80
f 81 84 79
f 25 78 30
f 78 80 88
f 30 88 31
f 78 88 30
f 80 85 89
f 85 87 90
f 89 90 91
f 85 90 89
f 31 92 34
f 92 91 93
f 34 93 35
f 92 93 34
f 80 89 88
f 89 91 92
f 88 92 31
f 89 92 88
f 35 93 94
f 93 91 95
f 94 95 96
f 93 95 94
f 91 90 97
f 90 87 98
f 97 98 99
f 90 98 97
f 96 100 101
f 100 99 102
f 101 102 103
f 100 102 101
f 91 97 95
f 97 99 100
f 95 100 96
f 97 100 95
f 35 94 40
f 94 96 104
f 40 104 41
f 94 104 40
f 96 101 105
f 101 103 106
f 105 106 107
f 101 106 105
f 41 108 44
f 108 107 109
f 44 109 45
f 108 109 44
f 96 105 104
f 105 107 108
f 104 108 41
f 105 108 104
f 45 109 110
f 109 107 111
f 110 111 112
f 109 111 110
f 107 106 113
f 106 103 114
f 113 114 115
f 106 114 113
f 112 116 117
f 116 115 118
f 117 118 119
f 116 118 117
f 107 113 111
f 113 115 116
f 111 116 112
f 113 116 111
f 45 110 48
f 110 112 120
f 48 120 49
f 110 120 48
f 112 117 121
f 117 119 122
f 121 122 123
f 117 122 121
f 49 124 51
f 124 123 125
f 51 125 9
f 124 125 51
f 112 121 120
f 121 123 124
f 120 124 49
f 121 124 120
f 9 125 52
f 125 123 126
f 52 126 53
f 125 126 52
f 123 122 127
f 122 119 128
f 127 128 129
f 122 128 127
f 53 130 55
f 130 129 131
f 55 131 57
f 130 131 55
f 123 127 126
f 127 129 130
f 126 130 53
f 127 130 126
f 132 133 134
f 133 135 136
f 134 136 137
f 133 136 134
f 135 138 139
f 138 71 70
f 139 70 67
f 138 70 139
f 137 140 141
f 140 67 66
f 141 66 57
f 140 66 141
f 135 139 136
f 139 67 140
f 136 140 137
f 139 140 136
f 132 142 133
f 142 143 144
f 133 144 135
f 142 144 133
f 143 145 146
f 145 87 86
f 146 86 83
f 145 86 146
f 135 147 138
f 147 83 82
f 138 82 71
f 147 82 138
f 143 146 144
f 146 83 147
f 144 147 135
f 146 147 144
f 132 148 142
f 148 149 150
f 142 150 143
f 148 150 142
f 149 151 152
f 151 103 102
f 152 102 99
f 151 102 152
f 143 153 145
f 153 99 98
f 145 98 87
f 153 98 145
f 149 152 150
f 152 99 153
f 150 153 143
f 152 153 150
f 132 154 148
f 154 155 156
f 148 156 149
f 154 156 148
f 155 157 158
f 157 119 118
f 158 118 115
f 157 118 158
f 149 159 151
f 159 115 114
f 151 114 103
f 159 114 151
f 155 158 156
f 158 115 159
f 156 159 149
f 158 159 156
f 132 134 154
f 134 137 160
f 154 160 155
f 134 160 154
f 137 141 161
f 141 57 131
f 161 131 129
f 141 131 161
f 155 162 157
f 162 129 128
f 157 128 119
f 162 128 157
f 137 161 160
f 161 129 162
f 160 162 155
f 161 162 160
