v 0.706557 1.15305 -0.652443
v 0.741427 1.10923 -0.656917
v 0.735844 1.15802 -0.700125
v 0.764694 1.0598 -0.67
v 0.768089 1.1104 -0.708555
v 0.753953 1.15367 -0.753125
v 0.774586 1.00852 -0.690695
v 0.787802 1.05053 -0.728637
v 0.770351 0.959291 -0.717427
v 0.788493 0.998111 -0.753756
v 0.79145 1.03978 -0.791322
v 0.782156 1.09987 -0.772338
v 0.759506 1.14032 -0.807411
v 0.778996 1.08112 -0.827265
v 0.752078 1.11898 -0.858848
v 0.683604 1.19376 -0.683621
v 0.709605 1.19589 -0.735564
v 0.65345 1.22242 -0.721374
v 0.723671 1.18537 -0.799347
v 0.721173 1.16564 -0.853968
v 0.680207 1.20239 -0.842696
v 0.670834 1.22151 -0.782655
v 0.61839 1.23685 -0.762829
v 0.632297 1.22644 -0.82589
v 0.581092 1.23595 -0.80483
v 0.656901 1.16706 -0.630214
v 0.629758 1.20503 -0.664854
v 0.602076 1.17105 -0.618626
v 0.590987 1.23065 -0.711944
v 0.49839 1.23685 -0.762829
v 0.461092 1.23595 -0.80483
v 0.433354 1.23547 -0.75598
v 0.470987 1.23065 -0.711944
v 0.408329 1.21977 -0.708197
v 0.482076 1.17105 -0.618626
v 0.443978 1.20364 -0.657926
v 0.426255 1.16472 -0.618561
v 0.387923 1.19004 -0.665118
v 0.373689 1.14855 -0.630024
v 0.563978 1.20364 -0.657926
v 0.692637 1.11482 -0.61371
v 0.638894 1.12518 -0.594143
v 0.670828 1.07054 -0.586875
v 0.453114 1.12379 -0.587215
v 0.396956 1.1111 -0.595207
v 0.425707 1.0679 -0.573697
v 0.609259 1.07095 -0.570523
v 0.64279 1.0236 -0.573979
v 0.489259 1.07095 -0.570523
v 0.457754 1.02222 -0.56713
v 0.577754 1.02222 -0.56713
v 0.610657 0.977563 -0.576005
v 0.573114 1.12379 -0.587215
v 0.724387 1.0667 -0.621152
v 0.694752 1.01247 -0.597532
v 0.66228 0.964401 -0.593833
v 0.708325 0.956652 -0.625071
v 0.7441 1.00682 -0.641233
v 0.745286 0.954904 -0.667342
v 0.767789 0.938063 -0.769377
v 0.751618 0.924252 -0.821374
v 0.780928 0.979262 -0.808219
v 0.723068 0.918909 -0.869461
v 0.75434 0.967875 -0.86772
v 0.684312 0.92244 -0.909976
v 0.717485 0.967698 -0.912668
v 0.740878 1.01812 -0.9045
v 0.775281 1.02861 -0.85192
v 0.752709 1.06986 -0.886093
v 0.716973 1.1221 -0.902596
v 0.712549 1.07006 -0.928114
v 0.672126 1.11862 -0.936251
v 0.691608 1.00933 -0.943913
v 0.661045 0.95989 -0.944793
v 0.632293 1.00309 -0.966303
v 0.655462 1.06216 -0.960606
v 0.620951 1.10881 -0.95725
v 0.600246 1.04877 -0.97287
v 0.567343 1.09343 -0.963995
v 0.680652 1.16694 -0.895622
v 0.623566 1.15904 -0.928114
v 0.500951 1.10881 -0.95725
v 0.447343 1.09343 -0.963995
v 0.448711 1.14455 -0.940746
v 0.568711 1.14455 -0.940746
v 0.571622 1.18737 -0.9045
v 0.627814 1.20309 -0.878929
v 0.575857 1.21863 -0.858015
v 0.455857 1.21863 -0.858015
v 0.407067 1.22422 -0.814808
v 0.451622 1.18737 -0.9045
v 0.40138 1.20084 -0.86772
v 0.357757 1.19811 -0.821374
v 0.397131 1.15679 -0.916904
v 0.39572 1.10659 -0.946167
v 0.349675 1.11434 -0.914929
v 0.347783 1.16244 -0.873203
v 0.316915 1.15963 -0.82403
v 0.312714 1.11609 -0.872658
v 0.28765 1.1117 -0.822573
v 0.378619 1.21787 -0.764517
v 0.325023 1.17947 -0.77
v 0.290211 1.13293 -0.770623
v 0.306382 1.14674 -0.718626
v 0.35161 1.19086 -0.710499
v 0.334933 1.15208 -0.670539
v 0.340515 1.10329 -0.627332
v 0.30366 1.10312 -0.67228
v 0.317123 1.05287 -0.6355
v 0.277073 1.09173 -0.731781
v 0.269507 1.07288 -0.786244
v 0.26655 1.03121 -0.748678
v 0.282719 1.04238 -0.68808
v 0.305291 1.00113 -0.653907
v 0.279005 0.989873 -0.712735
v 0.305922 0.952006 -0.681152
v 0.366393 1.06166 -0.596087
v 0.345452 1.00093 -0.611886
v 0.341028 0.948891 -0.637404
v 0.385875 0.95237 -0.603749
v 0.402538 1.00883 -0.579394
v 0.43705 0.962176 -0.58275
v 0.490657 0.977563 -0.576005
v 0.55705 0.962176 -0.58275
v 0.60929 0.926439 -0.599254
v 0.434435 0.911947 -0.611886
v 0.48929 0.926439 -0.599254
v 0.486378 0.883617 -0.6355
v 0.377348 0.904049 -0.644378
v 0.336827 0.905347 -0.686032
v 0.377794 0.868595 -0.697304
v 0.430186 0.867904 -0.661071
v 0.482144 0.852357 -0.681985
v 0.425703 0.844548 -0.71411
v 0.476909 0.835037 -0.73517
v 0.606378 0.883617 -0.6355
v 0.660869 0.914198 -0.623096
v 0.602144 0.852357 -0.681985
v 0.656621 0.870155 -0.67228
v 0.596909 0.835037 -0.73517
v 0.650933 0.846774 -0.725192
v 0.700244 0.872877 -0.718626
v 0.710217 0.908551 -0.666797
v 0.741086 0.911359 -0.71597
v 0.732978 0.891518 -0.77
v 0.679381 0.853121 -0.775483
v 0.624647 0.835516 -0.78402
v 0.649671 0.851217 -0.831803
v 0.70639 0.88013 -0.829501
v 0.670077 0.880946 -0.874882
v 0.351443 0.917938 -0.887557
v 0.365363 0.956174 -0.92629
v 0.401099 0.903934 -0.909786
v 0.387172 1.00045 -0.953125
v 0.419106 0.945807 -0.945857
v 0.455925 0.899945 -0.921374
v 0.41521 1.04739 -0.966021
v 0.448741 1.00004 -0.969477
v 0.480246 1.04877 -0.97287
v 0.568741 1.00004 -0.969477
v 0.575925 0.899945 -0.921374
v 0.604886 0.947198 -0.952785
v 0.631745 0.906274 -0.921439
v 0.484886 0.947198 -0.952785
v 0.316573 0.961757 -0.883083
v 0.293307 1.01119 -0.87
v 0.333613 1.00429 -0.918848
v 0.283415 1.06247 -0.849305
v 0.3139 1.06417 -0.898767
v 0.363248 1.05852 -0.942468
v 0.322156 0.912967 -0.839875
v 0.304047 0.917323 -0.786875
v 0.289912 0.96059 -0.831445
v 0.298495 0.930675 -0.732589
v 0.275845 0.971117 -0.767662
v 0.270198 1.02047 -0.811363
v 0.374396 0.877231 -0.856379
v 0.40455 0.848571 -0.818626
v 0.348396 0.875096 -0.804436
v 0.439611 0.83414 -0.777171
v 0.387167 0.849479 -0.757345
v 0.334329 0.885624 -0.740653
v 0.428243 0.86596 -0.875146
v 0.614023 0.867352 -0.882074
v 0.467014 0.840342 -0.828056
v 0.587014 0.840342 -0.828056
v 0.559611 0.83414 -0.777171
v 0.494023 0.867352 -0.882074
f 1 2 3
f 2 4 5
f 3 5 6
f 2 5 3
f 4 7 8
f 7 9 10
f 8 10 11
f 7 10 8
f 6 12 13
f 12 11 14
f 13 14 15
f 12 14 13
f 4 8 5
f 8 11 12
f 5 12 6
f 8 12 5
f 1 3 16
f 3 6 17
f 16 17 18
f 3 17 16
f 6 13 19
f 13 15 20
f 19 20 21
f 13 20 19
f 18 22 23
f 22 21 24
f 23 24 25
f 22 24 23
f 6 19 17
f 19 21 22
f 17 22 18
f 19 22 17
f 1 16 26
f 16 18 27
f 26 27 28
f 16 27 26
f 18 23 29
f 30 31 32
f 33 32 34
f 30 32 33
f 35 36 37
f 36 34 38
f 37 38 39
f 36 38 37
f 18 29 27
f 33 34 36
f 27 40 28
f 29 40 27
f 1 26 41
f 26 28 42
f 41 42 43
f 26 42 41
f 35 37 44
f 37 39 45
f 44 45 46
f 37 45 44
f 43 47 48
f 49 46 50
f 48 51 52
f 47 51 48
f 28 53 42
f 44 46 49
f 42 47 43
f 53 47 42
f 1 41 2
f 41 43 54
f 2 54 4
f 41 54 2
f 43 48 55
f 48 52 56
f 55 56 57
f 48 56 55
f 4 58 7
f 58 57 59
f 7 59 9
f 58 59 7
f 43 55 54
f 55 57 58
f 54 58 4
f 55 58 54
f 9 60 10
f 60 61 62
f 10 62 11
f 60 62 10
f 61 63 64
f 63 65 66
f 64 66 67
f 63 66 64
f 11 68 14
f 68 67 69
f 14 69 15
f 68 69 14
f 61 64 62
f 64 67 68
f 62 68 11
f 64 68 62
f 15 69 70
f 69 67 71
f 70 71 72
f 69 71 70
f 67 66 73
f 66 65 74
f 73 74 75
f 66 74 73
f 72 76 77
f 76 75 78
f 77 78 79
f 76 78 77
f 67 73 71
f 73 75 76
f 71 76 72
f 73 76 71
f 15 70 20
f 70 72 80
f 20 80 21
f 70 80 20
f 72 77 81
f 82 83 84
f 81 85 86
f 77 85 81
f 21 87 24
f 87 86 88
f 24 88 25
f 87 88 24
f 72 81 80
f 81 86 87
f 80 87 21
f 81 87 80
f 31 89 90
f 89 91 92
f 90 92 93
f 89 92 90
f 91 84 94
f 84 83 95
f 94 95 96
f 84 95 94
f 93 97 98
f 97 96 99
f 98 99 100
f 97 99 98
f 91 94 92
f 94 96 97
f 92 97 93
f 94 97 92
f 31 90 32
f 90 93 101
f 32 101 34
f 90 101 32
f 93 98 102
f 98 100 103
f 102 103 104
f 98 103 102
f 34 105 38
f 105 104 106
f 38 106 39
f 105 106 38
f 93 102 101
f 102 104 105
f 101 105 34
f 102 105 101
f 39 106 107
f 106 104 108
f 107 108 109
f 106 108 107
f 104 103 110
f 103 100 111
f 110 111 112
f 103 111 110
f 109 113 114
f 113 112 115
f 114 115 116
f 113 115 114
f 104 110 108
f 110 112 113
f 108 113 109
f 110 113 108
f 39 107 45
f 107 109 117
f 45 117 46
f 107 117 45
f 109 114 118
f 114 116 119
f 118 119 120
f 114 119 118
f 46 121 50
f 121 120 122
f 50 122 123
f 121 122 50
f 109 118 117
f 118 120 121
f 117 121 46
f 118 121 117
f 52 124 125
f 122 120 126
f 127 126 128
f 122 126 127
f 120 119 129
f 119 116 130
f 129 130 131
f 119 130 129
f 128 132 133
f 132 131 134
f 133 134 135
f 132 134 133
f 120 129 126
f 129 131 132
f 126 132 128
f 129 132 126
f 52 125 56
f 125 136 137
f 56 137 57
f 125 137 56
f 136 138 139
f 138 140 141
f 139 141 142
f 138 141 139
f 57 143 59
f 143 142 144
f 59 144 9
f 143 144 59
f 136 139 137
f 139 142 143
f 137 143 57
f 139 143 137
f 9 144 60
f 144 142 145
f 60 145 61
f 144 145 60
f 142 141 146
f 141 140 147
f 146 147 148
f 141 147 146
f 61 149 63
f 149 148 150
f 63 150 65
f 149 150 63
f 142 146 145
f 146 148 149
f 145 149 61
f 146 149 145
f 151 152 153
f 152 154 155
f 153 155 156
f 152 155 153
f 154 157 158
f 157 83 159
f 160 78 75
f 157 159 158
f 161 162 163
f 162 75 74
f 163 74 65
f 162 74 163
f 154 158 155
f 160 75 162
f 155 164 156
f 158 164 155
f 151 165 152
f 165 166 167
f 152 167 154
f 165 167 152
f 166 168 169
f 168 100 99
f 169 99 96
f 168 99 169
f 154 170 157
f 170 96 95
f 157 95 83
f 170 95 157
f 166 169 167
f 169 96 170
f 167 170 154
f 169 170 167
f 151 171 165
f 171 172 173
f 165 173 166
f 171 173 165
f 172 174 175
f 174 116 115
f 175 115 112
f 174 115 175
f 166 176 168
f 176 112 111
f 168 111 100
f 176 111 168
f 172 175 173
f 175 112 176
f 173 176 166
f 175 176 173
f 151 177 171
f 177 178 179
f 171 179 172
f 177 179 171
f 178 180 181
f 180 135 134
f 181 134 131
f 180 134 181
f 172 182 174
f 182 131 130
f 174 130 116
f 182 130 174
f 178 181 179
f 181 131 182
f 179 182 172
f 181 182 179
f 151 153 177
f 153 156 183
f 177 183 178
f 153 183 177
f 161 163 184
f 163 65 150
f 184 150 148
f 163 150 184
f 178 185 180
f 186 148 147
f 187 147 140
f 186 147 187
f 156 188 183
f 184 148 186
f 183 185 178
f 188 185 183
f 25 31 23
f 23 31 30
f 23 30 29
f 29 30 33
f 40 36 28
f 28 36 35
f 29 33 40
f 40 33 36
f 51 50 52
f 52 50 123
f 47 49 51
f 51 49 50
f 28 35 53
f 53 35 44
f 53 44 47
f 47 44 49
f 78 159 79
f 79 159 83
f 79 83 77
f 77 83 82
f 85 84 86
f 86 84 91
f 77 82 85
f 85 82 84
f 86 91 88
f 88 91 89
f 88 89 25
f 25 89 31
f 52 123 124
f 124 123 122
f 124 122 125
f 125 122 127
f 125 127 136
f 136 127 128
f 136 128 138
f 138 128 133
f 138 133 140
f 140 133 135
f 160 158 78
f 78 158 159
f 161 156 162
f 162 156 164
f 162 164 160
f 160 164 158
f 184 188 161
f 161 188 156
f 140 135 187
f 187 135 180
f 187 180 186
f 186 180 185
f 186 185 184
f 184 185 188
