v 0.586557 1.15305 -0.652443
v 0.621427 1.10923 -0.656917
v 0.615844 1.15802 -0.700125
v 0.644694 1.0598 -0.67
v 0.648089 1.1104 -0.708555
v 0.633953 1.15367 -0.753125
v 0.654586 1.00852 -0.690695
v 0.667802 1.05053 -0.728637
v 0.654586 0.970062 -0.690695
v 0.650351 0.920833 -0.717427
v 0.668493 0.959653 -0.753756
v 0.667802 1.01207 -0.728637
v 0.67145 1.00132 -0.791322
v 0.662156 1.09987 -0.772338
v 0.639506 1.14032 -0.807411
v 0.67145 1.03978 -0.791322
v 0.658996 1.08112 -0.827265
v 0.632078 1.11898 -0.858848
v 0.563604 1.19376 -0.683621
v 0.589605 1.19589 -0.735564
v 0.53345 1.22242 -0.721374
v 0.603671 1.18537 -0.799347
v 0.601173 1.16564 -0.853968
v 0.560207 1.20239 -0.842696
v 0.550834 1.22151 -0.782655
v 0.49839 1.23685 -0.762829
v 0.512297 1.22644 -0.82589
v 0.461092 1.23595 -0.80483
v 0.536901 1.16706 -0.630214
v 0.509758 1.20503 -0.664854
v 0.482076 1.17105 -0.618626
v 0.470987 1.23065 -0.711944
v 0.433354 1.23547 -0.75598
v 0.408329 1.21977 -0.708197
v 0.443978 1.20364 -0.657926
v 0.426255 1.16472 -0.618561
v 0.387923 1.19004 -0.665118
v 0.373689 1.14855 -0.630024
v 0.572637 1.11482 -0.61371
v 0.518894 1.12518 -0.594143
v 0.550828 1.07054 -0.586875
v 0.453114 1.12379 -0.587215
v 0.396956 1.1111 -0.595207
v 0.425707 1.0679 -0.573697
v 0.489259 1.07095 -0.570523
v 0.52279 1.0236 -0.573979
v 0.457754 1.02222 -0.56713
v 0.52279 0.985142 -0.573979
v 0.457754 0.983766 -0.56713
v 0.490657 0.939105 -0.576005
v 0.604387 1.0667 -0.621152
v 0.574752 1.01247 -0.597532
v 0.54228 0.925944 -0.593833
v 0.574752 0.974012 -0.597532
v 0.588325 0.918194 -0.625071
v 0.644694 1.02134 -0.67
v 0.6241 0.968365 -0.641233
v 0.625286 0.916446 -0.667342
v 0.6241 1.00682 -0.641233
v 0.604387 1.02824 -0.621152
v 0.647789 0.899605 -0.769377
v 0.631618 0.885794 -0.821374
v 0.660928 0.940804 -0.808219
v 0.603068 0.880451 -0.869461
v 0.63434 0.929417 -0.86772
v 0.564312 0.883983 -0.909976
v 0.597485 0.92924 -0.912668
v 0.620878 0.979659 -0.9045
v 0.655281 1.02861 -0.85192
v 0.620878 1.01812 -0.9045
v 0.632709 1.06986 -0.886093
v 0.655281 0.990152 -0.85192
v 0.596973 1.1221 -0.902596
v 0.592549 1.07006 -0.928114
v 0.552126 1.11862 -0.936251
v 0.571608 0.970867 -0.943913
v 0.541045 0.921432 -0.944793
v 0.512293 0.964637 -0.966303
v 0.535462 1.06216 -0.960606
v 0.500951 1.10881 -0.95725
v 0.512293 1.00309 -0.966303
v 0.480246 1.04877 -0.97287
v 0.447343 1.09343 -0.963995
v 0.592549 1.0316 -0.928114
v 0.535462 1.0237 -0.960606
v 0.571608 1.00933 -0.943913
v 0.560652 1.16694 -0.895622
v 0.503566 1.15904 -0.928114
v 0.448711 1.14455 -0.940746
v 0.451622 1.18737 -0.9045
v 0.507814 1.20309 -0.878929
v 0.455857 1.21863 -0.858015
v 0.407067 1.22422 -0.814808
v 0.40138 1.20084 -0.86772
v 0.357757 1.19811 -0.821374
v 0.397131 1.15679 -0.916904
v 0.39572 1.10659 -0.946167
v 0.349675 1.11434 -0.914929
v 0.347783 1.16244 -0.873203
v 0.316915 1.15963 -0.82403
v 0.312714 1.11609 -0.872658
v 0.28765 1.1117 -0.822573
v 0.378619 1.21787 -0.764517
v 0.325023 1.17947 -0.77
v 0.290211 1.13293 -0.770623
v 0.306382 1.14674 -0.718626
v 0.35161 1.19086 -0.710499
v 0.334933 1.15208 -0.670539
v 0.340515 1.10329 -0.627332
v 0.30366 1.10312 -0.67228
v 0.317123 1.05287 -0.6355
v 0.277073 1.09173 -0.731781
v 0.269507 1.07288 -0.786244
v 0.26655 1.03121 -0.748678
v 0.317123 1.01442 -0.6355
v 0.282719 1.00392 -0.68808
v 0.305291 0.962673 -0.653907
v 0.26655 0.992755 -0.748678
v 0.279005 0.951415 -0.712735
v 0.305922 0.913548 -0.681152
v 0.282719 1.04238 -0.68808
v 0.366393 1.06166 -0.596087
v 0.345452 0.962472 -0.611886
v 0.341028 0.910433 -0.637404
v 0.385875 0.913912 -0.603749
v 0.425707 1.02944 -0.573697
v 0.402538 0.970369 -0.579394
v 0.43705 0.923718 -0.58275
v 0.345452 1.00093 -0.611886
v 0.402538 1.00883 -0.579394
v 0.366393 1.02321 -0.596087
v 0.48929 0.887981 -0.599254
v 0.434435 0.873489 -0.611886
v 0.486378 0.845159 -0.6355
v 0.377348 0.865591 -0.644378
v 0.336827 0.866889 -0.686032
v 0.377794 0.830137 -0.697304
v 0.430186 0.829446 -0.661071
v 0.482144 0.813899 -0.681985
v 0.425703 0.80609 -0.71411
v 0.476909 0.796579 -0.73517
v 0.540869 0.87574 -0.623096
v 0.53662 0.831697 -0.67228
v 0.530933 0.808316 -0.725192
v 0.580244 0.834419 -0.718626
v 0.590217 0.870094 -0.666797
v 0.621086 0.872901 -0.71597
v 0.612978 0.85306 -0.77
v 0.559381 0.814663 -0.775483
v 0.504647 0.797058 -0.78402
v 0.529671 0.812759 -0.831803
v 0.58639 0.841672 -0.829501
v 0.550077 0.842489 -0.874882
v 0.351443 0.87948 -0.887557
v 0.365363 0.917716 -0.92629
v 0.401099 0.865476 -0.909786
v 0.387172 0.96199 -0.953125
v 0.419106 0.907349 -0.945857
v 0.455925 0.861487 -0.921374
v 0.41521 1.00893 -0.966021
v 0.448741 0.961578 -0.969477
v 0.41521 1.04739 -0.966021
v 0.480246 1.01031 -0.97287
v 0.484886 0.90874 -0.952785
v 0.511745 0.867816 -0.921439
v 0.316573 0.923299 -0.883083
v 0.293307 0.972731 -0.87
v 0.333613 0.965833 -0.918848
v 0.293307 1.01119 -0.87
v 0.283415 1.06247 -0.849305
v 0.3139 1.06417 -0.898767
v 0.363248 1.02006 -0.942468
v 0.363248 1.05852 -0.942468
v 0.3139 1.02571 -0.898767
v 0.333613 1.00429 -0.918848
v 0.322156 0.874509 -0.839875
v 0.304047 0.878865 -0.786875
v 0.289912 0.922132 -0.831445
v 0.298495 0.892217 -0.732589
v 0.275845 0.932659 -0.767662
v 0.270198 0.982007 -0.811363
v 0.283415 1.02401 -0.849305
v 0.270198 1.02047 -0.811363
v 0.374396 0.838773 -0.856379
v 0.40455 0.810113 -0.818626
v 0.348396 0.836638 -0.804436
v 0.439611 0.795682 -0.777171
v 0.387167 0.811021 -0.757345
v 0.334329 0.847166 -0.740653
v 0.428243 0.827502 -0.875146
v 0.494023 0.828894 -0.882074
v 0.467014 0.801885 -0.828056
f 1 2 3
f 2 4 5
f 3 5 6
f 2 5 3
f 4 7 8
f 9 10 11
f 12 11 13
f 9 11 12
f 6 14 15
f 14 16 17
f 15 17 18
f 14 17 15
f 4 8 5
f 8 16 14
f 5 14 6
f 8 14 5
f 1 3 19
f 3 6 20
f 19 20 21
f 3 20 19
f 6 15 22
f 15 18 23
f 22 23 24
f 15 23 22
f 21 25 26
f 25 24 27
f 26 27 28
f 25 27 26
f 6 22 20
f 22 24 25
f 20 25 21
f 22 25 20
f 1 19 29
f 19 21 30
f 29 30 31
f 19 30 29
f 21 26 32
f 26 28 33
f 32 33 34
f 26 33 32
f 31 35 36
f 35 34 37
f 36 37 38
f 35 37 36
f 21 32 30
f 32 34 35
f 30 35 31
f 32 35 30
f 1 29 39
f 29 31 40
f 39 40 41
f 29 40 39
f 31 36 42
f 36 38 43
f 42 43 44
f 36 43 42
f 41 45 46
f 45 44 47
f 48 49 50
f 45 47 46
f 31 42 40
f 42 44 45
f 40 45 41
f 42 45 40
f 1 39 2
f 39 41 51
f 2 51 4
f 39 51 2
f 41 46 52
f 48 50 53
f 54 53 55
f 48 53 54
f 56 57 9
f 57 55 58
f 9 58 10
f 57 58 9
f 41 52 51
f 54 55 57
f 51 59 4
f 54 57 60
f 10 61 11
f 61 62 63
f 11 63 13
f 61 63 11
f 62 64 65
f 64 66 67
f 65 67 68
f 64 67 65
f 16 69 17
f 69 70 71
f 17 71 18
f 69 71 17
f 62 65 63
f 65 68 72
f 63 72 13
f 65 72 63
f 18 71 73
f 71 70 74
f 73 74 75
f 71 74 73
f 68 67 76
f 67 66 77
f 76 77 78
f 67 77 76
f 75 79 80
f 79 81 82
f 80 82 83
f 79 82 80
f 68 76 84
f 76 78 85
f 74 79 75
f 86 79 74
f 18 73 23
f 73 75 87
f 23 87 24
f 73 87 23
f 75 80 88
f 80 83 89
f 88 89 90
f 80 89 88
f 24 91 27
f 91 90 92
f 27 92 28
f 91 92 27
f 75 88 87
f 88 90 91
f 87 91 24
f 88 91 87
f 28 92 93
f 92 90 94
f 93 94 95
f 92 94 93
f 90 89 96
f 89 83 97
f 96 97 98
f 89 97 96
f 95 99 100
f 99 98 101
f 100 101 102
f 99 101 100
f 90 96 94
f 96 98 99
f 94 99 95
f 96 99 94
f 28 93 33
f 93 95 103
f 33 103 34
f 93 103 33
f 95 100 104
f 100 102 105
f 104 105 106
f 100 105 104
f 34 107 37
f 107 106 108
f 37 108 38
f 107 108 37
f 95 104 103
f 104 106 107
f 103 107 34
f 104 107 103
f 38 108 109
f 108 106 110
f 109 110 111
f 108 110 109
f 106 105 112
f 105 102 113
f 112 113 114
f 105 113 112
f 115 116 117
f 116 118 119
f 117 119 120
f 116 119 117
f 106 112 110
f 112 114 121
f 110 121 111
f 112 121 110
f 38 109 43
f 109 111 122
f 43 122 44
f 109 122 43
f 115 117 123
f 117 120 124
f 123 124 125
f 117 124 123
f 126 127 49
f 127 125 128
f 49 128 50
f 127 128 49
f 111 129 122
f 123 125 127
f 122 130 44
f 123 127 131
f 50 128 132
f 128 125 133
f 132 133 134
f 128 133 132
f 125 124 135
f 124 120 136
f 135 136 137
f 124 136 135
f 134 138 139
f 138 137 140
f 139 140 141
f 138 140 139
f 125 135 133
f 135 137 138
f 133 138 134
f 135 138 133
f 50 132 53
f 132 134 142
f 53 142 55
f 132 142 53
f 134 139 143
f 139 141 144
f 143 144 145
f 139 144 143
f 55 146 58
f 146 145 147
f 58 147 10
f 146 147 58
f 134 143 142
f 143 145 146
f 142 146 55
f 143 146 142
f 10 147 61
f 147 145 148
f 61 148 62
f 147 148 61
f 145 144 149
f 144 141 150
f 149 150 151
f 144 150 149
f 62 152 64
f 152 151 153
f 64 153 66
f 152 153 64
f 145 149 148
f 149 151 152
f 148 152 62
f 149 152 148
f 154 155 156
f 155 157 158
f 156 158 159
f 155 158 156
f 157 160 161
f 162 83 82
f 161 163 78
f 160 163 161
f 159 164 165
f 164 78 77
f 165 77 66
f 164 77 165
f 157 161 158
f 161 78 164
f 158 164 159
f 161 164 158
f 154 166 155
f 166 167 168
f 155 168 157
f 166 168 155
f 169 170 171
f 170 102 101
f 171 101 98
f 170 101 171
f 157 172 160
f 173 98 97
f 162 97 83
f 173 97 162
f 167 174 168
f 171 98 173
f 168 172 157
f 171 173 175
f 154 176 166
f 176 177 178
f 166 178 167
f 176 178 166
f 177 179 180
f 179 120 119
f 180 119 118
f 179 119 180
f 167 181 182
f 183 114 113
f 170 113 102
f 183 113 170
f 177 180 178
f 180 118 181
f 178 181 167
f 180 181 178
f 154 184 176
f 184 185 186
f 176 186 177
f 184 186 176
f 185 187 188
f 187 141 140
f 188 140 137
f 187 140 188
f 177 189 179
f 189 137 136
f 179 136 120
f 189 136 179
f 185 188 186
f 188 137 189
f 186 189 177
f 188 189 186
f 154 156 184
f 156 159 190
f 184 190 185
f 156 190 184
f 159 165 191
f 165 66 153
f 191 153 151
f 165 153 191
f 185 192 187
f 192 151 150
f 187 150 141
f 192 150 187
f 159 191 190
f 191 151 192
f 190 192 185
f 191 192 190
f 4 56 7
f 7 56 9
f 7 9 8
f 8 9 12
f 8 12 16
f 16 12 13
f 44 126 47
f 47 126 49
f 47 49 46
f 46 49 48
f 46 48 52
f 52 48 54
f 52 54 51
f 51 54 60
f 51 60 59
f 59 60 57
f 59 57 4
f 4 57 56
f 16 13 69
f 69 13 72
f 69 72 70
f 70 72 68
f 70 68 74
f 74 68 84
f 79 85 81
f 81 85 78
f 81 78 82
f 82 78 163
f 86 76 79
f 79 76 85
f 74 84 86
f 86 84 76
f 114 118 121
f 121 118 116
f 121 116 111
f 111 116 115
f 111 115 129
f 129 115 123
f 129 123 122
f 122 123 131
f 122 131 130
f 130 131 127
f 130 127 44
f 44 127 126
f 82 163 162
f 162 163 160
f 169 167 170
f 170 167 182
f 171 174 169
f 169 174 167
f 162 160 173
f 173 160 172
f 173 172 175
f 175 172 168
f 175 168 171
f 171 168 174
f 183 181 114
f 114 181 118
f 170 182 183
f 183 182 181
