v 0.586557 1.11459 -0.572443
v 0.621427 1.07078 -0.576917
v 0.615844 1.11957 -0.620125
v 0.644694 1.02134 -0.59
v 0.648089 1.07194 -0.628555
v 0.633953 1.11521 -0.673125
v 0.654586 0.970062 -0.610695
v 0.667802 1.01207 -0.648637
v 0.650351 0.920833 -0.637427
v 0.668493 0.959653 -0.673756
v 0.67145 1.00132 -0.711322
v 0.633953 1.11521 -0.753125
v 0.662156 1.06142 -0.772338
v 0.639506 1.10186 -0.807411
v 0.67145 1.00132 -0.791322
v 0.658996 1.04266 -0.827265
v 0.632078 1.08053 -0.858848
v 0.662156 1.06142 -0.692338
v 0.563604 1.1553 -0.603621
v 0.589605 1.15744 -0.655564
v 0.53345 1.18396 -0.641374
v 0.603671 1.14691 -0.799347
v 0.601173 1.12719 -0.853968
v 0.560207 1.16394 -0.842696
v 0.550834 1.18305 -0.702655
v 0.49839 1.19839 -0.682829
v 0.550834 1.18305 -0.782655
v 0.512297 1.18798 -0.82589
v 0.49839 1.19839 -0.762829
v 0.461092 1.19749 -0.80483
v 0.603671 1.14691 -0.719347
v 0.589605 1.15744 -0.735564
v 0.536901 1.1286 -0.550214
v 0.509758 1.16657 -0.584854
v 0.482076 1.13259 -0.538626
v 0.470987 1.19219 -0.631944
v 0.433354 1.19702 -0.75598
v 0.433354 1.19702 -0.67598
v 0.408329 1.18132 -0.628197
v 0.443978 1.16518 -0.577926
v 0.426255 1.12626 -0.538561
v 0.387923 1.15159 -0.585118
v 0.373689 1.11009 -0.550024
v 0.572637 1.07636 -0.53371
v 0.518894 1.08673 -0.514143
v 0.550828 1.03208 -0.506875
v 0.453114 1.08533 -0.507215
v 0.396956 1.07264 -0.515207
v 0.425707 1.02944 -0.493697
v 0.489259 1.0325 -0.490523
v 0.52279 0.985142 -0.493979
v 0.457754 0.983766 -0.48713
v 0.490657 0.939105 -0.496006
v 0.604387 1.02824 -0.541152
v 0.574752 0.974012 -0.517532
v 0.54228 0.925944 -0.513833
v 0.588325 0.918194 -0.545071
v 0.6241 0.968365 -0.561233
v 0.625286 0.916446 -0.587342
v 0.647789 0.899605 -0.689377
v 0.647789 0.899605 -0.769377
v 0.631618 0.885794 -0.821374
v 0.660928 0.940804 -0.808219
v 0.668493 0.959653 -0.753756
v 0.603068 0.880451 -0.869461
v 0.63434 0.929417 -0.86772
v 0.564312 0.883983 -0.909976
v 0.597485 0.92924 -0.912668
v 0.620878 0.979659 -0.9045
v 0.655281 0.990152 -0.85192
v 0.632709 1.0314 -0.886093
v 0.596973 1.08364 -0.902596
v 0.592549 1.0316 -0.928114
v 0.552126 1.08016 -0.936251
v 0.571608 0.970867 -0.943913
v 0.541045 0.921432 -0.944793
v 0.512293 0.964637 -0.966303
v 0.535462 1.0237 -0.960606
v 0.500951 1.07036 -0.95725
v 0.480246 1.01031 -0.97287
v 0.447343 1.05497 -0.963995
v 0.560652 1.12848 -0.895622
v 0.503566 1.12059 -0.928114
v 0.448711 1.10609 -0.940746
v 0.451622 1.14891 -0.9045
v 0.507814 1.16463 -0.878929
v 0.455857 1.18018 -0.858015
v 0.407067 1.18576 -0.814808
v 0.40138 1.16238 -0.86772
v 0.357757 1.15965 -0.821374
v 0.397131 1.11833 -0.916904
v 0.39572 1.06813 -0.946167
v 0.349675 1.07588 -0.914929
v 0.347783 1.12398 -0.873203
v 0.316915 1.12117 -0.82403
v 0.312714 1.07763 -0.872658
v 0.28765 1.07324 -0.822573
v 0.378619 1.17941 -0.764517
v 0.378619 1.17941 -0.684517
v 0.325023 1.14101 -0.77
v 0.290211 1.09447 -0.770623
v 0.325023 1.14101 -0.69
v 0.290211 1.09447 -0.690623
v 0.306382 1.10828 -0.638626
v 0.35161 1.1524 -0.630499
v 0.334933 1.11362 -0.590539
v 0.340515 1.06483 -0.547332
v 0.30366 1.06466 -0.59228
v 0.317123 1.01442 -0.5555
v 0.277073 1.05327 -0.651781
v 0.269507 1.03442 -0.786244
v 0.269507 1.03442 -0.706244
v 0.26655 0.992755 -0.668678
v 0.282719 1.00392 -0.60808
v 0.305291 0.962673 -0.573907
v 0.279005 0.951415 -0.632735
v 0.305922 0.913548 -0.601152
v 0.366393 1.02321 -0.516087
v 0.345452 0.962472 -0.531886
v 0.341028 0.910433 -0.557404
v 0.385875 0.913912 -0.523749
v 0.402538 0.970369 -0.499394
v 0.43705 0.923718 -0.50275
v 0.48929 0.887981 -0.519254
v 0.434435 0.873489 -0.531886
v 0.486378 0.845159 -0.5555
v 0.377348 0.865591 -0.564378
v 0.336827 0.866889 -0.606032
v 0.377794 0.830137 -0.617304
v 0.430186 0.829446 -0.581071
v 0.482144 0.813899 -0.601985
v 0.425703 0.80609 -0.63411
v 0.476909 0.796579 -0.65517
v 0.540869 0.87574 -0.543096
v 0.53662 0.831697 -0.59228
v 0.530933 0.808316 -0.645192
v 0.580244 0.834419 -0.638626
v 0.590217 0.870094 -0.586797
v 0.621086 0.872901 -0.63597
v 0.612978 0.85306 -0.69
v 0.612978 0.85306 -0.77
v 0.559381 0.814663 -0.695483
v 0.504647 0.797058 -0.70402
v 0.559381 0.814663 -0.775483
v 0.504647 0.797058 -0.78402
v 0.529671 0.812759 -0.831803
v 0.58639 0.841672 -0.829501
v 0.550077 0.842489 -0.874882
v 0.351443 0.87948 -0.887557
v 0.365363 0.917716 -0.92629
v 0.401099 0.865476 -0.909786
v 0.387172 0.96199 -0.953125
v 0.419106 0.907349 -0.945857
v 0.455925 0.861487 -0.921374
v 0.41521 1.00893 -0.966021
v 0.448741 0.961578 -0.969477
v 0.484886 0.90874 -0.952785
v 0.511745 0.867816 -0.921439
v 0.316573 0.923299 -0.883083
v 0.293307 0.972731 -0.87
v 0.333613 0.965833 -0.918848
v 0.283415 1.02401 -0.849305
v 0.3139 1.02571 -0.898767
v 0.363248 1.02006 -0.942468
v 0.322156 0.874509 -0.839875
v 0.304047 0.878865 -0.786875
v 0.289912 0.922132 -0.831445
v 0.304047 0.878865 -0.706875
v 0.298495 0.892217 -0.652589
v 0.275845 0.932659 -0.687662
v 0.270198 0.982007 -0.811363
v 0.26655 0.992755 -0.748678
v 0.275845 0.932659 -0.767662
v 0.374396 0.838773 -0.856379
v 0.40455 0.810113 -0.818626
v 0.348396 0.836638 -0.804436
v 0.439611 0.795682 -0.777171
v 0.387167 0.811021 -0.757345
v 0.439611 0.795682 -0.697171
v 0.387167 0.811021 -0.677345
v 0.334329 0.847166 -0.660653
v 0.334329 0.847166 -0.740653
v 0.348396 0.836638 -0.724436
v 0.428243 0.827502 -0.875146
v 0.494023 0.828894 -0.882074
v 0.467014 0.801885 -0.828056
f 1 2 3
f 2 4 5
f 3 5 6
f 2 5 3
f 4 7 8
f 7 9 10
f 8 10 11
f 7 10 8
f 12 13 14
f 13 15 16
f 14 16 17
f 13 16 14
f 4 8 5
f 8 11 18
f 5 18 6
f 8 18 5
f 1 3 19
f 3 6 20
f 19 20 21
f 3 20 19
f 12 14 22
f 14 17 23
f 22 23 24
f 14 23 22
f 21 25 26
f 27 24 28
f 29 28 30
f 27 28 29
f 6 31 20
f 22 24 27
f 20 25 21
f 22 27 32
f 1 19 33
f 19 21 34
f 33 34 35
f 19 34 33
f 21 26 36
f 29 30 37
f 36 38 39
f 26 38 36
f 35 40 41
f 40 39 42
f 41 42 43
f 40 42 41
f 21 36 34
f 36 39 40
f 34 40 35
f 36 40 34
f 1 33 44
f 33 35 45
f 44 45 46
f 33 45 44
f 35 41 47
f 41 43 48
f 47 48 49
f 41 48 47
f 46 50 51
f 50 49 52
f 51 52 53
f 50 52 51
f 35 47 45
f 47 49 50
f 45 50 46
f 47 50 45
f 1 44 2
f 44 46 54
f 2 54 4
f 44 54 2
f 46 51 55
f 51 53 56
f 55 56 57
f 51 56 55
f 4 58 7
f 58 57 59
f 7 59 9
f 58 59 7
f 46 55 54
f 55 57 58
f 54 58 4
f 55 58 54
f 9 60 10
f 61 62 63
f 64 63 15
f 61 63 64
f 62 65 66
f 65 67 68
f 66 68 69
f 65 68 66
f 15 70 16
f 70 69 71
f 16 71 17
f 70 71 16
f 62 66 63
f 66 69 70
f 63 70 15
f 66 70 63
f 17 71 72
f 71 69 73
f 72 73 74
f 71 73 72
f 69 68 75
f 68 67 76
f 75 76 77
f 68 76 75
f 74 78 79
f 78 77 80
f 79 80 81
f 78 80 79
f 69 75 73
f 75 77 78
f 73 78 74
f 75 78 73
f 17 72 23
f 72 74 82
f 23 82 24
f 72 82 23
f 74 79 83
f 79 81 84
f 83 84 85
f 79 84 83
f 24 86 28
f 86 85 87
f 28 87 30
f 86 87 28
f 74 83 82
f 83 85 86
f 82 86 24
f 83 86 82
f 30 87 88
f 87 85 89
f 88 89 90
f 87 89 88
f 85 84 91
f 84 81 92
f 91 92 93
f 84 92 91
f 90 94 95
f 94 93 96
f 95 96 97
f 94 96 95
f 85 91 89
f 91 93 94
f 89 94 90
f 91 94 89
f 30 88 37
f 88 90 98
f 38 99 39
f 88 98 37
f 90 95 100
f 95 97 101
f 102 103 104
f 95 101 100
f 39 105 42
f 105 104 106
f 42 106 43
f 105 106 42
f 90 100 98
f 102 104 105
f 99 105 39
f 102 105 99
f 43 106 107
f 106 104 108
f 107 108 109
f 106 108 107
f 104 103 110
f 101 97 111
f 110 112 113
f 103 112 110
f 109 114 115
f 114 113 116
f 115 116 117
f 114 116 115
f 104 110 108
f 110 113 114
f 108 114 109
f 110 114 108
f 43 107 48
f 107 109 118
f 48 118 49
f 107 118 48
f 109 115 119
f 115 117 120
f 119 120 121
f 115 120 119
f 49 122 52
f 122 121 123
f 52 123 53
f 122 123 52
f 109 119 118
f 119 121 122
f 118 122 49
f 119 122 118
f 53 123 124
f 123 121 125
f 124 125 126
f 123 125 124
f 121 120 127
f 120 117 128
f 127 128 129
f 120 128 127
f 126 130 131
f 130 129 132
f 131 132 133
f 130 132 131
f 121 127 125
f 127 129 130
f 125 130 126
f 127 130 125
f 53 124 56
f 124 126 134
f 56 134 57
f 124 134 56
f 126 131 135
f 131 133 136
f 135 136 137
f 131 136 135
f 57 138 59
f 138 137 139
f 59 139 9
f 138 139 59
f 126 135 134
f 135 137 138
f 134 138 57
f 135 138 134
f 9 139 60
f 139 137 140
f 61 141 62
f 139 140 60
f 137 136 142
f 136 133 143
f 144 145 146
f 136 143 142
f 62 147 65
f 147 146 148
f 65 148 67
f 147 148 65
f 137 142 140
f 144 146 147
f 141 147 62
f 144 147 141
f 149 150 151
f 150 152 153
f 151 153 154
f 150 153 151
f 152 155 156
f 155 81 80
f 156 80 77
f 155 80 156
f 154 157 158
f 157 77 76
f 158 76 67
f 157 76 158
f 152 156 153
f 156 77 157
f 153 157 154
f 156 157 153
f 149 159 150
f 159 160 161
f 150 161 152
f 159 161 150
f 160 162 163
f 162 97 96
f 163 96 93
f 162 96 163
f 152 164 155
f 164 93 92
f 155 92 81
f 164 92 155
f 160 163 161
f 163 93 164
f 161 164 152
f 163 164 161
f 149 165 159
f 165 166 167
f 159 167 160
f 165 167 159
f 168 169 170
f 169 117 116
f 170 116 113
f 169 116 170
f 160 171 162
f 171 172 111
f 162 111 97
f 171 111 162
f 166 173 167
f 173 172 171
f 167 171 160
f 173 171 167
f 149 174 165
f 174 175 176
f 165 176 166
f 174 176 165
f 175 177 178
f 179 133 132
f 180 132 129
f 179 132 180
f 168 181 169
f 181 129 128
f 169 128 117
f 181 128 169
f 175 178 176
f 180 129 181
f 176 182 166
f 180 181 183
f 149 151 174
f 151 154 184
f 174 184 175
f 151 184 174
f 154 158 185
f 158 67 148
f 185 148 146
f 158 148 185
f 175 186 177
f 186 146 145
f 179 143 133
f 186 145 177
f 154 185 184
f 185 146 186
f 184 186 175
f 185 186 184
f 12 6 13
f 13 6 18
f 13 18 15
f 15 18 11
f 22 31 12
f 12 31 6
f 29 26 27
f 27 26 25
f 27 25 32
f 32 25 20
f 32 20 22
f 22 20 31
f 37 38 29
f 29 38 26
f 15 11 64
f 64 11 10
f 64 10 61
f 61 10 60
f 98 99 37
f 37 99 38
f 101 103 100
f 100 103 102
f 100 102 98
f 98 102 99
f 111 112 101
f 101 112 103
f 61 60 141
f 141 60 140
f 144 142 145
f 145 142 143
f 141 140 144
f 144 140 142
f 172 113 111
f 111 113 112
f 166 168 173
f 173 168 170
f 173 170 172
f 172 170 113
f 177 179 178
f 178 179 180
f 178 180 176
f 176 180 183
f 176 183 182
f 182 183 181
f 182 181 166
f 166 181 168
f 145 143 177
f 177 143 179
