v 0.826557 1.25359 -0.252443
v 0.861427 1.20977 -0.256917
v 0.855844 1.25856 -0.300125
v 0.884694 1.16034 -0.27
v 0.888089 1.21094 -0.308555
v 0.873953 1.25421 -0.353125
v 0.894586 1.10906 -0.290695
v 0.907802 1.15107 -0.328636
v 0.890351 1.05983 -0.317427
v 0.908493 1.09865 -0.353756
v 0.91145 1.14032 -0.391322
v 0.873953 1.25078 -0.433125
v 0.902156 1.19698 -0.452338
v 0.879506 1.23742 -0.487411
v 0.91145 1.13689 -0.471322
v 0.898996 1.17823 -0.507265
v 0.872078 1.21609 -0.538848
v 0.902156 1.20041 -0.372338
v 0.803604 1.2943 -0.283621
v 0.829605 1.29644 -0.335564
v 0.77345 1.32296 -0.321374
v 0.843671 1.28248 -0.479347
v 0.841173 1.26275 -0.533968
v 0.800207 1.2995 -0.522696
v 0.790834 1.32205 -0.382655
v 0.73839 1.33739 -0.362829
v 0.790834 1.31862 -0.462655
v 0.752297 1.32355 -0.50589
v 0.73839 1.33396 -0.442829
v 0.701092 1.33306 -0.48483
v 0.843671 1.28591 -0.399347
v 0.776901 1.2676 -0.230214
v 0.749758 1.30557 -0.264854
v 0.722076 1.27159 -0.218626
v 0.710987 1.33119 -0.311944
v 0.701092 1.33649 -0.40483
v 0.673354 1.33602 -0.35598
v 0.648329 1.32031 -0.308197
v 0.683978 1.30418 -0.257926
v 0.666255 1.26526 -0.218561
v 0.627923 1.29059 -0.265118
v 0.613689 1.24909 -0.230024
v 0.812637 1.21536 -0.21371
v 0.758894 1.22572 -0.194143
v 0.790828 1.17108 -0.186875
v 0.693114 1.22433 -0.187215
v 0.636956 1.21164 -0.195207
v 0.665707 1.16844 -0.173697
v 0.729259 1.1715 -0.170523
v 0.76279 1.12414 -0.173979
v 0.697754 1.12277 -0.16713
v 0.730657 1.0781 -0.176005
v 0.844387 1.16724 -0.221152
v 0.814752 1.11301 -0.197532
v 0.78228 1.06494 -0.193833
v 0.828325 1.05719 -0.225071
v 0.8641 1.10736 -0.241233
v 0.865286 1.05545 -0.267342
v 0.887789 1.0386 -0.369377
v 0.887789 1.03517 -0.449377
v 0.871618 1.02136 -0.501374
v 0.900928 1.07637 -0.488219
v 0.908493 1.09522 -0.433756
v 0.843068 1.01602 -0.549461
v 0.87434 1.06498 -0.54772
v 0.804312 1.01955 -0.589976
v 0.837485 1.06481 -0.592668
v 0.860878 1.11523 -0.5845
v 0.895281 1.12572 -0.53192
v 0.872709 1.16697 -0.566093
v 0.836973 1.21921 -0.582596
v 0.832549 1.16717 -0.608114
v 0.792126 1.21573 -0.616251
v 0.811608 1.10643 -0.623913
v 0.781045 1.057 -0.624793
v 0.752293 1.1002 -0.646303
v 0.775462 1.15927 -0.640606
v 0.740951 1.20592 -0.63725
v 0.720246 1.14587 -0.65287
v 0.687343 1.19054 -0.643994
v 0.800652 1.26405 -0.575622
v 0.743566 1.25615 -0.608114
v 0.688711 1.24166 -0.620746
v 0.691622 1.28448 -0.5845
v 0.747814 1.3002 -0.558929
v 0.695857 1.31574 -0.538015
v 0.647067 1.32132 -0.494808
v 0.64138 1.29794 -0.54772
v 0.597757 1.29522 -0.501374
v 0.637131 1.2539 -0.596904
v 0.63572 1.2037 -0.626167
v 0.589675 1.21145 -0.594929
v 0.587783 1.25955 -0.553203
v 0.556915 1.25674 -0.50403
v 0.552714 1.2132 -0.552658
v 0.52765 1.20881 -0.502573
v 0.673354 1.33258 -0.43598
v 0.618619 1.31498 -0.444517
v 0.618619 1.31841 -0.364517
v 0.565023 1.27658 -0.45
v 0.530211 1.23004 -0.450623
v 0.565023 1.28001 -0.37
v 0.530211 1.23347 -0.370623
v 0.546382 1.24728 -0.318626
v 0.59161 1.2914 -0.310499
v 0.574933 1.25262 -0.270539
v 0.580515 1.20383 -0.227332
v 0.54366 1.20366 -0.27228
v 0.557123 1.15341 -0.2355
v 0.517073 1.19227 -0.331781
v 0.509507 1.16999 -0.466244
v 0.509507 1.17342 -0.386244
v 0.50655 1.13175 -0.348678
v 0.522719 1.14292 -0.28808
v 0.545291 1.10167 -0.253907
v 0.519005 1.09041 -0.312735
v 0.545922 1.05255 -0.281152
v 0.606393 1.16221 -0.196087
v 0.585452 1.10147 -0.211886
v 0.581028 1.04943 -0.237404
v 0.625875 1.05291 -0.203749
v 0.642538 1.10937 -0.179394
v 0.67705 1.06272 -0.18275
v 0.72929 1.02698 -0.199254
v 0.674435 1.01249 -0.211886
v 0.726378 0.984159 -0.2355
v 0.617348 1.00459 -0.244378
v 0.576827 1.00589 -0.286032
v 0.617794 0.969136 -0.297304
v 0.670186 0.968445 -0.261071
v 0.722144 0.952898 -0.281985
v 0.665703 0.94509 -0.314109
v 0.716909 0.935579 -0.33517
v 0.780869 1.01474 -0.223096
v 0.776621 0.970696 -0.27228
v 0.770933 0.947316 -0.325192
v 0.820244 0.973419 -0.318626
v 0.830217 1.00909 -0.266797
v 0.861086 1.0119 -0.31597
v 0.852978 0.992059 -0.37
v 0.852978 0.988626 -0.45
v 0.799381 0.953663 -0.375483
v 0.744647 0.936057 -0.38402
v 0.799381 0.95023 -0.455483
v 0.744647 0.932625 -0.46402
v 0.769671 0.948326 -0.511803
v 0.82639 0.977239 -0.509501
v 0.790077 0.978055 -0.554882
v 0.591443 1.01505 -0.567557
v 0.605363 1.05328 -0.60629
v 0.641099 1.00104 -0.589786
v 0.627172 1.09756 -0.633125
v 0.659106 1.04292 -0.625857
v 0.695925 0.997054 -0.601374
v 0.65521 1.1445 -0.646021
v 0.688741 1.09714 -0.649477
v 0.724886 1.04431 -0.632785
v 0.751745 1.00338 -0.601439
v 0.556573 1.05887 -0.563083
v 0.533307 1.1083 -0.55
v 0.573613 1.1014 -0.598848
v 0.523415 1.15958 -0.529305
v 0.5539 1.16128 -0.578767
v 0.603248 1.15563 -0.622468
v 0.562156 1.01008 -0.519875
v 0.544047 1.01443 -0.466875
v 0.529912 1.0577 -0.511445
v 0.544047 1.01786 -0.386875
v 0.538495 1.03122 -0.332589
v 0.515845 1.07166 -0.367662
v 0.510198 1.11757 -0.491363
v 0.50655 1.12832 -0.428678
v 0.515845 1.06823 -0.447662
v 0.614396 0.974339 -0.536379
v 0.64455 0.945679 -0.498626
v 0.588396 0.972205 -0.484436
v 0.679611 0.931249 -0.457171
v 0.627167 0.946587 -0.437345
v 0.679611 0.934681 -0.377171
v 0.627167 0.95002 -0.357345
v 0.574329 0.986165 -0.340653
v 0.574329 0.982733 -0.420653
v 0.668243 0.963069 -0.555146
v 0.734023 0.96446 -0.562074
v 0.707014 0.937451 -0.508056
v 0.716909 0.932146 -0.41517
f 1 2 3
f 2 4 5
f 3 5 6
f 2 5 3
f 4 7 8
f 7 9 10
f 8 10 11
f 7 10 8
f 12 13 14
f 13 15 16
f 14 16 17
f 13 16 14
f 4 8 5
f 8 11 18
f 5 18 6
f 8 18 5
f 1 3 19
f 3 6 20
f 19 20 21
f 3 20 19
f 12 14 22
f 14 17 23
f 22 23 24
f 14 23 22
f 21 25 26
f 27 24 28
f 29 28 30
f 27 28 29
f 6 31 20
f 22 24 27
f 20 25 21
f 31 25 20
f 1 19 32
f 19 21 33
f 32 33 34
f 19 33 32
f 21 26 35
f 26 36 37
f 35 37 38
f 26 37 35
f 34 39 40
f 39 38 41
f 40 41 42
f 39 41 40
f 21 35 33
f 35 38 39
f 33 39 34
f 35 39 33
f 1 32 43
f 32 34 44
f 43 44 45
f 32 44 43
f 34 40 46
f 40 42 47
f 46 47 48
f 40 47 46
f 45 49 50
f 49 48 51
f 50 51 52
f 49 51 50
f 34 46 44
f 46 48 49
f 44 49 45
f 46 49 44
f 1 43 2
f 43 45 53
f 2 53 4
f 43 53 2
f 45 50 54
f 50 52 55
f 54 55 56
f 50 55 54
f 4 57 7
f 57 56 58
f 7 58 9
f 57 58 7
f 45 54 53
f 54 56 57
f 53 57 4
f 54 57 53
f 9 59 10
f 60 61 62
f 63 62 15
f 60 62 63
f 61 64 65
f 64 66 67
f 65 67 68
f 64 67 65
f 15 69 16
f 69 68 70
f 16 70 17
f 69 70 16
f 61 65 62
f 65 68 69
f 62 69 15
f 65 69 62
f 17 70 71
f 70 68 72
f 71 72 73
f 70 72 71
f 68 67 74
f 67 66 75
f 74 75 76
f 67 75 74
f 73 77 78
f 77 76 79
f 78 79 80
f 77 79 78
f 68 74 72
f 74 76 77
f 72 77 73
f 74 77 72
f 17 71 23
f 71 73 81
f 23 81 24
f 71 81 23
f 73 78 82
f 78 80 83
f 82 83 84
f 78 83 82
f 24 85 28
f 85 84 86
f 28 86 30
f 85 86 28
f 73 82 81
f 82 84 85
f 81 85 24
f 82 85 81
f 30 86 87
f 86 84 88
f 87 88 89
f 86 88 87
f 84 83 90
f 83 80 91
f 90 91 92
f 83 91 90
f 89 93 94
f 93 92 95
f 94 95 96
f 93 95 94
f 84 90 88
f 90 92 93
f 88 93 89
f 90 93 88
f 30 87 97
f 87 89 98
f 37 99 38
f 87 98 97
f 89 94 100
f 94 96 101
f 102 103 104
f 94 101 100
f 38 105 41
f 105 104 106
f 41 106 42
f 105 106 41
f 89 100 98
f 102 104 105
f 99 105 38
f 102 105 99
f 42 106 107
f 106 104 108
f 107 108 109
f 106 108 107
f 104 103 110
f 101 96 111
f 110 112 113
f 103 112 110
f 109 114 115
f 114 113 116
f 115 116 117
f 114 116 115
f 104 110 108
f 110 113 114
f 108 114 109
f 110 114 108
f 42 107 47
f 107 109 118
f 47 118 48
f 107 118 47
f 109 115 119
f 115 117 120
f 119 120 121
f 115 120 119
f 48 122 51
f 122 121 123
f 51 123 52
f 122 123 51
f 109 119 118
f 119 121 122
f 118 122 48
f 119 122 118
f 52 123 124
f 123 121 125
f 124 125 126
f 123 125 124
f 121 120 127
f 120 117 128
f 127 128 129
f 120 128 127
f 126 130 131
f 130 129 132
f 131 132 133
f 130 132 131
f 121 127 125
f 127 129 130
f 125 130 126
f 127 130 125
f 52 124 55
f 124 126 134
f 55 134 56
f 124 134 55
f 126 131 135
f 131 133 136
f 135 136 137
f 131 136 135
f 56 138 58
f 138 137 139
f 58 139 9
f 138 139 58
f 126 135 134
f 135 137 138
f 134 138 56
f 135 138 134
f 9 139 59
f 139 137 140
f 60 141 61
f 139 140 59
f 137 136 142
f 136 133 143
f 144 145 146
f 136 143 142
f 61 147 64
f 147 146 148
f 64 148 66
f 147 148 64
f 137 142 140
f 144 146 147
f 141 147 61
f 144 147 141
f 149 150 151
f 150 152 153
f 151 153 154
f 150 153 151
f 152 155 156
f 155 80 79
f 156 79 76
f 155 79 156
f 154 157 158
f 157 76 75
f 158 75 66
f 157 75 158
f 152 156 153
f 156 76 157
f 153 157 154
f 156 157 153
f 149 159 150
f 159 160 161
f 150 161 152
f 159 161 150
f 160 162 163
f 162 96 95
f 163 95 92
f 162 95 163
f 152 164 155
f 164 92 91
f 155 91 80
f 164 91 155
f 160 163 161
f 163 92 164
f 161 164 152
f 163 164 161
f 149 165 159
f 165 166 167
f 159 167 160
f 165 167 159
f 168 169 170
f 169 117 116
f 170 116 113
f 169 116 170
f 160 171 162
f 171 172 111
f 162 111 96
f 171 111 162
f 166 173 167
f 173 172 171
f 167 171 160
f 173 171 167
f 149 174 165
f 174 175 176
f 165 176 166
f 174 176 165
f 175 177 178
f 179 133 132
f 180 132 129
f 179 132 180
f 168 181 169
f 181 129 128
f 169 128 117
f 181 128 169
f 175 178 176
f 180 129 181
f 176 182 166
f 178 182 176
f 149 151 174
f 151 154 183
f 174 183 175
f 151 183 174
f 154 158 184
f 158 66 148
f 184 148 146
f 158 148 184
f 175 185 177
f 185 146 145
f 177 145 186
f 185 145 177
f 154 184 183
f 184 146 185
f 183 185 175
f 184 185 183
f 12 6 13
f 13 6 18
f 13 18 15
f 15 18 11
f 22 31 12
f 12 31 6
f 30 36 29
f 29 36 26
f 29 26 27
f 27 26 25
f 27 25 22
f 22 25 31
f 15 11 63
f 63 11 10
f 63 10 60
f 60 10 59
f 97 37 30
f 30 37 36
f 98 99 97
f 97 99 37
f 101 103 100
f 100 103 102
f 100 102 98
f 98 102 99
f 111 112 101
f 101 112 103
f 60 59 141
f 141 59 140
f 144 142 145
f 145 142 143
f 141 140 144
f 144 140 142
f 172 113 111
f 111 113 112
f 166 168 173
f 173 168 170
f 173 170 172
f 172 170 113
f 177 179 178
f 178 179 180
f 182 181 166
f 166 181 168
f 178 180 182
f 182 180 181
f 145 143 186
f 186 143 133
f 186 133 177
f 177 133 179
