v 0.586557 1.12416 -0.532443
v 0.621427 1.08035 -0.536917
v 0.615844 1.12914 -0.580125
v 0.644694 1.03091 -0.55
v 0.648089 1.08151 -0.588555
v 0.633953 1.12478 -0.633125
v 0.654586 0.979632 -0.570695
v 0.667802 1.02164 -0.608636
v 0.650351 0.930403 -0.597427
v 0.668493 0.969223 -0.633756
v 0.67145 1.01089 -0.671322
v 0.662156 1.07099 -0.652338
v 0.639506 1.11143 -0.687411
v 0.662156 1.06142 -0.692338
v 0.67145 1.00132 -0.711322
v 0.658996 1.04266 -0.747265
v 0.639506 1.10186 -0.727411
v 0.632078 1.08053 -0.778848
v 0.563604 1.16487 -0.563621
v 0.589605 1.16701 -0.615564
v 0.53345 1.19353 -0.601374
v 0.603671 1.15648 -0.679347
v 0.601173 1.12719 -0.773968
v 0.603671 1.14691 -0.719347
v 0.560207 1.16394 -0.762696
v 0.550834 1.19262 -0.662655
v 0.49839 1.20796 -0.642829
v 0.550834 1.18305 -0.702655
v 0.512297 1.18798 -0.74589
v 0.512297 1.19755 -0.70589
v 0.461092 1.20706 -0.68483
v 0.560207 1.17351 -0.722696
v 0.536901 1.13817 -0.510214
v 0.509758 1.17614 -0.544854
v 0.482076 1.14216 -0.498626
v 0.470987 1.20176 -0.591944
v 0.433354 1.20659 -0.63598
v 0.408329 1.19088 -0.588197
v 0.443978 1.17475 -0.537926
v 0.426255 1.13583 -0.498561
v 0.387923 1.16116 -0.545118
v 0.373689 1.11966 -0.510024
v 0.572637 1.08593 -0.49371
v 0.518894 1.0963 -0.474143
v 0.550828 1.04165 -0.466875
v 0.453114 1.0949 -0.467215
v 0.396956 1.08221 -0.475207
v 0.425707 1.03901 -0.453697
v 0.489259 1.04207 -0.450523
v 0.52279 0.994712 -0.453979
v 0.457754 0.993336 -0.44713
v 0.490657 0.948675 -0.456005
v 0.604387 1.03781 -0.501152
v 0.574752 0.983582 -0.477532
v 0.54228 0.935513 -0.473833
v 0.588325 0.927764 -0.505071
v 0.6241 0.977935 -0.521233
v 0.625286 0.926016 -0.547342
v 0.647789 0.909175 -0.649377
v 0.647789 0.899605 -0.689377
v 0.631618 0.885794 -0.741374
v 0.660928 0.940804 -0.728219
v 0.668493 0.959653 -0.673756
v 0.603068 0.880451 -0.789461
v 0.63434 0.929417 -0.78772
v 0.564312 0.883983 -0.829976
v 0.597485 0.92924 -0.832668
v 0.620878 0.979659 -0.8245
v 0.655281 0.990152 -0.77192
v 0.632709 1.0314 -0.806093
v 0.596973 1.08364 -0.822596
v 0.592549 1.0316 -0.848114
v 0.552126 1.08016 -0.856251
v 0.571608 0.970867 -0.863913
v 0.541045 0.921432 -0.864793
v 0.512293 0.964637 -0.886303
v 0.535462 1.0237 -0.880606
v 0.500951 1.07036 -0.87725
v 0.480246 1.01031 -0.89287
v 0.447343 1.05497 -0.883994
v 0.560652 1.12848 -0.815622
v 0.503566 1.12059 -0.848114
v 0.448711 1.10609 -0.860746
v 0.451622 1.14891 -0.8245
v 0.507814 1.16463 -0.798929
v 0.455857 1.18018 -0.778015
v 0.461092 1.19749 -0.72483
v 0.407067 1.18576 -0.734808
v 0.40138 1.16238 -0.78772
v 0.357757 1.15965 -0.741374
v 0.397131 1.11833 -0.836904
v 0.39572 1.06813 -0.866167
v 0.349675 1.07588 -0.834929
v 0.347783 1.12398 -0.793203
v 0.316915 1.12117 -0.74403
v 0.312714 1.07763 -0.792658
v 0.28765 1.07324 -0.742573
v 0.407067 1.19533 -0.694808
v 0.357757 1.16922 -0.701374
v 0.378619 1.18898 -0.644517
v 0.316915 1.13074 -0.70403
v 0.325023 1.15058 -0.65
v 0.290211 1.09447 -0.690623
v 0.290211 1.10404 -0.650623
v 0.306382 1.11785 -0.598626
v 0.35161 1.16197 -0.590499
v 0.334933 1.12319 -0.550539
v 0.340515 1.0744 -0.507332
v 0.30366 1.07423 -0.55228
v 0.317123 1.02399 -0.5155
v 0.277073 1.06284 -0.611781
v 0.269507 1.03442 -0.706244
v 0.269507 1.04399 -0.666244
v 0.26655 1.00232 -0.628678
v 0.282719 1.01349 -0.56808
v 0.305291 0.972243 -0.533907
v 0.279005 0.960985 -0.592735
v 0.305922 0.923118 -0.561152
v 0.366393 1.03278 -0.476087
v 0.345452 0.972042 -0.491886
v 0.341028 0.920003 -0.517404
v 0.385875 0.923482 -0.483749
v 0.402538 0.979939 -0.459394
v 0.43705 0.933288 -0.46275
v 0.48929 0.897551 -0.479254
v 0.434435 0.883059 -0.491886
v 0.486378 0.854729 -0.5155
v 0.377348 0.875161 -0.524378
v 0.336827 0.876459 -0.566032
v 0.377794 0.839707 -0.577304
v 0.430186 0.839016 -0.541071
v 0.482144 0.823469 -0.561985
v 0.425703 0.81566 -0.59411
v 0.476909 0.806149 -0.61517
v 0.540869 0.88531 -0.503096
v 0.53662 0.841267 -0.55228
v 0.530933 0.817886 -0.605192
v 0.580244 0.843989 -0.598626
v 0.590217 0.879663 -0.546797
v 0.621086 0.882471 -0.59597
v 0.621086 0.872901 -0.63597
v 0.580244 0.834419 -0.638626
v 0.612978 0.85306 -0.69
v 0.530933 0.808316 -0.645192
v 0.559381 0.814663 -0.695483
v 0.476909 0.796579 -0.65517
v 0.504647 0.797058 -0.70402
v 0.529671 0.812759 -0.751803
v 0.58639 0.841672 -0.749501
v 0.550077 0.842489 -0.794882
v 0.351443 0.87948 -0.807557
v 0.365363 0.917716 -0.84629
v 0.401099 0.865476 -0.829786
v 0.387172 0.96199 -0.873125
v 0.419106 0.907349 -0.865857
v 0.455925 0.861487 -0.841374
v 0.41521 1.00893 -0.886021
v 0.448741 0.961578 -0.889477
v 0.484886 0.90874 -0.872785
v 0.511745 0.867816 -0.841439
v 0.316573 0.923299 -0.803083
v 0.293307 0.972731 -0.79
v 0.333613 0.965833 -0.838848
v 0.283415 1.02401 -0.769305
v 0.3139 1.02571 -0.818767
v 0.363248 1.02006 -0.862468
v 0.322156 0.874509 -0.759875
v 0.304047 0.878865 -0.706875
v 0.289912 0.922132 -0.751445
v 0.298495 0.892217 -0.652589
v 0.275845 0.932659 -0.687662
v 0.298495 0.901787 -0.612589
v 0.275845 0.942229 -0.647662
v 0.270198 0.982007 -0.731363
v 0.26655 0.992755 -0.668678
v 0.374396 0.838773 -0.776379
v 0.40455 0.810113 -0.738626
v 0.348396 0.836638 -0.724436
v 0.439611 0.795682 -0.697171
v 0.387167 0.811021 -0.677345
v 0.425703 0.80609 -0.63411
v 0.387167 0.820591 -0.637345
v 0.334329 0.847166 -0.660653
v 0.334329 0.856736 -0.620653
v 0.377794 0.830137 -0.617304
v 0.428243 0.827502 -0.795146
v 0.494023 0.828894 -0.802074
v 0.467014 0.801885 -0.748056
f 1 2 3
f 2 4 5
f 3 5 6
f 2 5 3
f 4 7 8
f 7 9 10
f 8 10 11
f 7 10 8
f 6 12 13
f 14 15 16
f 17 16 18
f 14 16 17
f 4 8 5
f 8 11 12
f 5 12 6
f 8 12 5
f 1 3 19
f 3 6 20
f 19 20 21
f 3 20 19
f 6 13 22
f 17 18 23
f 24 23 25
f 17 23 24
f 21 26 27
f 28 25 29
f 27 30 31
f 26 30 27
f 6 22 20
f 22 32 26
f 20 26 21
f 22 26 20
f 1 19 33
f 19 21 34
f 33 34 35
f 19 34 33
f 21 27 36
f 27 31 37
f 36 37 38
f 27 37 36
f 35 39 40
f 39 38 41
f 40 41 42
f 39 41 40
f 21 36 34
f 36 38 39
f 34 39 35
f 36 39 34
f 1 33 43
f 33 35 44
f 43 44 45
f 33 44 43
f 35 40 46
f 40 42 47
f 46 47 48
f 40 47 46
f 45 49 50
f 49 48 51
f 50 51 52
f 49 51 50
f 35 46 44
f 46 48 49
f 44 49 45
f 46 49 44
f 1 43 2
f 43 45 53
f 2 53 4
f 43 53 2
f 45 50 54
f 50 52 55
f 54 55 56
f 50 55 54
f 4 57 7
f 57 56 58
f 7 58 9
f 57 58 7
f 45 54 53
f 54 56 57
f 53 57 4
f 54 57 53
f 9 59 10
f 60 61 62
f 63 62 15
f 60 62 63
f 61 64 65
f 64 66 67
f 65 67 68
f 64 67 65
f 15 69 16
f 69 68 70
f 16 70 18
f 69 70 16
f 61 65 62
f 65 68 69
f 62 69 15
f 65 69 62
f 18 70 71
f 70 68 72
f 71 72 73
f 70 72 71
f 68 67 74
f 67 66 75
f 74 75 76
f 67 75 74
f 73 77 78
f 77 76 79
f 78 79 80
f 77 79 78
f 68 74 72
f 74 76 77
f 72 77 73
f 74 77 72
f 18 71 23
f 71 73 81
f 23 81 25
f 71 81 23
f 73 78 82
f 78 80 83
f 82 83 84
f 78 83 82
f 25 85 29
f 85 84 86
f 29 86 87
f 85 86 29
f 73 82 81
f 82 84 85
f 81 85 25
f 82 85 81
f 87 86 88
f 86 84 89
f 88 89 90
f 86 89 88
f 84 83 91
f 83 80 92
f 91 92 93
f 83 92 91
f 90 94 95
f 94 93 96
f 95 96 97
f 94 96 95
f 84 91 89
f 91 93 94
f 89 94 90
f 91 94 89
f 31 98 37
f 98 99 100
f 37 100 38
f 98 100 37
f 99 101 102
f 95 97 103
f 102 104 105
f 101 104 102
f 38 106 41
f 106 105 107
f 41 107 42
f 106 107 41
f 99 102 100
f 102 105 106
f 100 106 38
f 102 106 100
f 42 107 108
f 107 105 109
f 108 109 110
f 107 109 108
f 105 104 111
f 103 97 112
f 111 113 114
f 104 113 111
f 110 115 116
f 115 114 117
f 116 117 118
f 115 117 116
f 105 111 109
f 111 114 115
f 109 115 110
f 111 115 109
f 42 108 47
f 108 110 119
f 47 119 48
f 108 119 47
f 110 116 120
f 116 118 121
f 120 121 122
f 116 121 120
f 48 123 51
f 123 122 124
f 51 124 52
f 123 124 51
f 110 120 119
f 120 122 123
f 119 123 48
f 120 123 119
f 52 124 125
f 124 122 126
f 125 126 127
f 124 126 125
f 122 121 128
f 121 118 129
f 128 129 130
f 121 129 128
f 127 131 132
f 131 130 133
f 132 133 134
f 131 133 132
f 122 128 126
f 128 130 131
f 126 131 127
f 128 131 126
f 52 125 55
f 125 127 135
f 55 135 56
f 125 135 55
f 127 132 136
f 132 134 137
f 136 137 138
f 132 137 136
f 56 139 58
f 139 138 140
f 58 140 9
f 139 140 58
f 127 136 135
f 136 138 139
f 135 139 56
f 136 139 135
f 9 140 59
f 141 142 143
f 60 143 61
f 141 143 60
f 142 144 145
f 144 146 147
f 145 147 148
f 144 147 145
f 61 149 64
f 149 148 150
f 64 150 66
f 149 150 64
f 142 145 143
f 145 148 149
f 143 149 61
f 145 149 143
f 151 152 153
f 152 154 155
f 153 155 156
f 152 155 153
f 154 157 158
f 157 80 79
f 158 79 76
f 157 79 158
f 156 159 160
f 159 76 75
f 160 75 66
f 159 75 160
f 154 158 155
f 158 76 159
f 155 159 156
f 158 159 155
f 151 161 152
f 161 162 163
f 152 163 154
f 161 163 152
f 162 164 165
f 164 97 96
f 165 96 93
f 164 96 165
f 154 166 157
f 166 93 92
f 157 92 80
f 166 92 157
f 162 165 163
f 165 93 166
f 163 166 154
f 165 166 163
f 151 167 161
f 167 168 169
f 161 169 162
f 167 169 161
f 168 170 171
f 172 118 117
f 173 117 114
f 172 117 173
f 162 174 164
f 174 175 112
f 164 112 97
f 174 112 164
f 168 171 169
f 171 175 174
f 169 174 162
f 171 174 169
f 151 176 167
f 176 177 178
f 167 178 168
f 176 178 167
f 177 179 180
f 179 146 181
f 182 133 130
f 179 181 180
f 168 183 170
f 184 130 129
f 172 129 118
f 184 129 172
f 177 180 178
f 180 185 183
f 178 183 168
f 180 183 178
f 151 153 176
f 153 156 186
f 176 186 177
f 153 186 176
f 156 160 187
f 160 66 150
f 187 150 148
f 160 150 187
f 177 188 179
f 188 148 147
f 179 147 146
f 188 147 179
f 156 187 186
f 187 148 188
f 186 188 177
f 187 188 186
f 14 12 15
f 15 12 11
f 17 13 14
f 14 13 12
f 25 32 24
f 24 32 22
f 24 22 17
f 17 22 13
f 28 26 25
f 25 26 32
f 29 30 28
f 28 30 26
f 15 11 63
f 63 11 10
f 63 10 60
f 60 10 59
f 87 31 29
f 29 31 30
f 88 98 87
f 87 98 31
f 90 99 88
f 88 99 98
f 95 101 90
f 90 101 99
f 103 104 95
f 95 104 101
f 112 113 103
f 103 113 104
f 141 140 142
f 142 140 138
f 60 59 141
f 141 59 140
f 142 138 144
f 144 138 137
f 144 137 146
f 146 137 134
f 170 172 171
f 171 172 173
f 175 114 112
f 112 114 113
f 171 173 175
f 175 173 114
f 146 134 181
f 181 134 133
f 181 133 180
f 180 133 182
f 183 184 170
f 170 184 172
f 180 182 185
f 185 182 130
f 185 130 183
f 183 130 184
