v 0.586557 1.21832 -0.332443
v 0.621427 1.17451 -0.336917
v 0.615844 1.22329 -0.380125
v 0.644694 1.12507 -0.35
v 0.648089 1.17567 -0.388555
v 0.633953 1.21894 -0.433125
v 0.654586 1.07379 -0.370695
v 0.667802 1.1158 -0.408637
v 0.650351 1.02456 -0.397427
v 0.668493 1.06338 -0.433756
v 0.67145 1.10505 -0.471322
v 0.662156 1.16514 -0.452338
v 0.639506 1.20559 -0.487411
v 0.662156 1.07099 -0.652338
v 0.67145 1.01089 -0.671322
v 0.658996 1.05223 -0.707265
v 0.639506 1.11143 -0.687411
v 0.632078 1.0901 -0.738848
v 0.563604 1.25903 -0.363621
v 0.589605 1.26117 -0.415564
v 0.53345 1.28769 -0.401374
v 0.603671 1.25064 -0.479347
v 0.601173 1.13676 -0.733968
v 0.601173 1.23092 -0.533968
v 0.560207 1.26767 -0.522696
v 0.550834 1.28678 -0.462655
v 0.49839 1.30212 -0.442829
v 0.512297 1.29171 -0.50589
v 0.461092 1.30122 -0.48483
v 0.536901 1.23233 -0.310214
v 0.509758 1.2703 -0.344854
v 0.482076 1.23632 -0.298626
v 0.470987 1.29592 -0.391944
v 0.433354 1.30075 -0.43598
v 0.408329 1.28504 -0.388197
v 0.443978 1.26891 -0.337926
v 0.426255 1.22999 -0.298561
v 0.387923 1.25532 -0.345118
v 0.373689 1.21382 -0.310024
v 0.572637 1.18009 -0.29371
v 0.518894 1.19045 -0.274143
v 0.550828 1.13581 -0.266875
v 0.453114 1.18906 -0.267215
v 0.396956 1.17637 -0.275207
v 0.425707 1.13317 -0.253697
v 0.489259 1.13623 -0.250523
v 0.52279 1.08887 -0.253979
v 0.457754 1.0875 -0.24713
v 0.490657 1.04283 -0.256005
v 0.604387 1.13197 -0.301152
v 0.574752 1.07774 -0.277532
v 0.54228 1.02967 -0.273833
v 0.588325 1.02192 -0.305071
v 0.6241 1.0721 -0.321233
v 0.625286 1.02018 -0.347342
v 0.650351 0.930403 -0.597427
v 0.647789 0.909175 -0.649377
v 0.668493 0.969223 -0.633756
v 0.631618 0.895364 -0.701374
v 0.660928 0.950374 -0.688219
v 0.603068 0.890021 -0.749461
v 0.63434 0.938987 -0.74772
v 0.564312 0.893552 -0.789976
v 0.597485 0.93881 -0.792668
v 0.620878 0.989229 -0.7845
v 0.655281 0.999722 -0.73192
v 0.632709 1.04097 -0.766093
v 0.596973 1.09321 -0.782596
v 0.592549 1.04117 -0.808114
v 0.552126 1.08973 -0.816251
v 0.571608 0.980437 -0.823913
v 0.541045 0.931002 -0.824793
v 0.512293 0.974207 -0.846303
v 0.535462 1.03327 -0.840606
v 0.500951 1.07993 -0.83725
v 0.480246 1.01988 -0.85287
v 0.447343 1.06454 -0.843994
v 0.560652 1.13805 -0.775622
v 0.560207 1.17351 -0.722696
v 0.503566 1.13016 -0.808114
v 0.448711 1.11566 -0.820746
v 0.451622 1.15848 -0.7845
v 0.507814 1.26836 -0.558929
v 0.507814 1.1742 -0.758929
v 0.455857 1.18975 -0.738015
v 0.455857 1.2839 -0.538015
v 0.407067 1.28949 -0.494808
v 0.40138 1.17195 -0.74772
v 0.40138 1.26611 -0.54772
v 0.357757 1.26338 -0.501374
v 0.397131 1.1279 -0.796904
v 0.39572 1.0777 -0.826167
v 0.349675 1.08545 -0.794929
v 0.357757 1.16922 -0.701374
v 0.347783 1.13355 -0.753203
v 0.316915 1.13074 -0.70403
v 0.312714 1.0872 -0.752658
v 0.28765 1.08281 -0.702573
v 0.378619 1.28314 -0.444517
v 0.316915 1.2249 -0.50403
v 0.325023 1.24474 -0.45
v 0.28765 1.17697 -0.502573
v 0.290211 1.1982 -0.450623
v 0.306382 1.21201 -0.398626
v 0.35161 1.25613 -0.390499
v 0.334933 1.21735 -0.350539
v 0.340515 1.16856 -0.307332
v 0.30366 1.16839 -0.35228
v 0.317123 1.11814 -0.3155
v 0.277073 1.157 -0.411781
v 0.269507 1.13815 -0.466244
v 0.26655 1.09648 -0.428678
v 0.282719 1.10765 -0.36808
v 0.305291 1.0664 -0.333907
v 0.279005 1.05514 -0.392735
v 0.305922 1.01728 -0.361152
v 0.366393 1.12694 -0.276087
v 0.345452 1.0662 -0.291886
v 0.341028 1.01416 -0.317404
v 0.385875 1.01764 -0.283749
v 0.402538 1.0741 -0.259394
v 0.43705 1.02745 -0.26275
v 0.48929 0.991711 -0.279254
v 0.434435 0.977218 -0.291886
v 0.486378 0.948889 -0.3155
v 0.377348 0.969321 -0.324378
v 0.336827 0.970618 -0.366032
v 0.377794 0.933867 -0.377304
v 0.430186 0.933175 -0.341071
v 0.482144 0.917628 -0.361985
v 0.430186 0.839016 -0.541071
v 0.377794 0.839707 -0.577304
v 0.425703 0.81566 -0.59411
v 0.482144 0.823469 -0.561985
v 0.476909 0.806149 -0.61517
v 0.540869 0.979469 -0.303096
v 0.53662 0.935427 -0.35228
v 0.530933 0.817886 -0.605192
v 0.53662 0.841267 -0.55228
v 0.580244 0.843989 -0.598626
v 0.590217 0.973823 -0.346797
v 0.580244 0.938149 -0.398626
v 0.621086 0.976631 -0.39597
v 0.621086 0.882471 -0.59597
v 0.612978 0.86263 -0.65
v 0.559381 0.824233 -0.655483
v 0.504647 0.806628 -0.66402
v 0.529671 0.822329 -0.711803
v 0.58639 0.851242 -0.709501
v 0.550077 0.852058 -0.754882
v 0.351443 0.88905 -0.767557
v 0.365363 0.927286 -0.80629
v 0.401099 0.875046 -0.789786
v 0.387172 0.97156 -0.833125
v 0.419106 0.916919 -0.825857
v 0.455925 0.871057 -0.801374
v 0.41521 1.0185 -0.846021
v 0.448741 0.971148 -0.849477
v 0.484886 0.91831 -0.832785
v 0.511745 0.877386 -0.801439
v 0.316573 0.932869 -0.763083
v 0.293307 0.9823 -0.75
v 0.333613 0.975403 -0.798848
v 0.283415 1.03358 -0.729305
v 0.3139 1.03528 -0.778767
v 0.363248 1.02963 -0.822468
v 0.322156 0.884079 -0.719875
v 0.304047 0.888435 -0.666875
v 0.289912 0.931702 -0.711445
v 0.298495 0.901787 -0.612589
v 0.275845 0.942229 -0.647662
v 0.298495 0.995946 -0.412589
v 0.275845 1.03639 -0.447662
v 0.270198 0.991577 -0.691363
v 0.26655 1.00232 -0.628678
v 0.269507 1.04399 -0.666244
v 0.374396 0.848343 -0.736379
v 0.40455 0.819683 -0.698626
v 0.348396 0.846208 -0.684436
v 0.439611 0.805252 -0.657171
v 0.387167 0.820591 -0.637345
v 0.334329 0.856736 -0.620653
v 0.336827 0.876459 -0.566032
v 0.428243 0.837072 -0.755146
v 0.494023 0.838464 -0.762074
v 0.467014 0.811454 -0.708056
f 1 2 3
f 2 4 5
f 3 5 6
f 2 5 3
f 4 7 8
f 7 9 10
f 8 10 11
f 7 10 8
f 6 12 13
f 14 15 16
f 17 16 18
f 14 16 17
f 4 8 5
f 8 11 12
f 5 12 6
f 8 12 5
f 1 3 19
f 3 6 20
f 19 20 21
f 3 20 19
f 6 13 22
f 17 18 23
f 22 24 25
f 13 24 22
f 21 26 27
f 26 25 28
f 27 28 29
f 26 28 27
f 6 22 20
f 22 25 26
f 20 26 21
f 22 26 20
f 1 19 30
f 19 21 31
f 30 31 32
f 19 31 30
f 21 27 33
f 27 29 34
f 33 34 35
f 27 34 33
f 32 36 37
f 36 35 38
f 37 38 39
f 36 38 37
f 21 33 31
f 33 35 36
f 31 36 32
f 33 36 31
f 1 30 40
f 30 32 41
f 40 41 42
f 30 41 40
f 32 37 43
f 37 39 44
f 43 44 45
f 37 44 43
f 42 46 47
f 46 45 48
f 47 48 49
f 46 48 47
f 32 43 41
f 43 45 46
f 41 46 42
f 43 46 41
f 1 40 2
f 40 42 50
f 2 50 4
f 40 50 2
f 42 47 51
f 47 49 52
f 51 52 53
f 47 52 51
f 4 54 7
f 54 53 55
f 7 55 9
f 54 55 7
f 42 51 50
f 51 53 54
f 50 54 4
f 51 54 50
f 56 57 58
f 57 59 60
f 58 60 15
f 57 60 58
f 59 61 62
f 61 63 64
f 62 64 65
f 61 64 62
f 15 66 16
f 66 65 67
f 16 67 18
f 66 67 16
f 59 62 60
f 62 65 66
f 60 66 15
f 62 66 60
f 18 67 68
f 67 65 69
f 68 69 70
f 67 69 68
f 65 64 71
f 64 63 72
f 71 72 73
f 64 72 71
f 70 74 75
f 74 73 76
f 75 76 77
f 74 76 75
f 65 71 69
f 71 73 74
f 69 74 70
f 71 74 69
f 18 68 23
f 68 70 78
f 23 78 79
f 68 78 23
f 70 75 80
f 75 77 81
f 80 81 82
f 75 81 80
f 25 83 28
f 84 82 85
f 28 86 29
f 83 86 28
f 70 80 78
f 80 82 84
f 78 84 79
f 80 84 78
f 29 86 87
f 85 82 88
f 87 89 90
f 86 89 87
f 82 81 91
f 81 77 92
f 91 92 93
f 81 92 91
f 94 95 96
f 95 93 97
f 96 97 98
f 95 97 96
f 82 91 88
f 91 93 95
f 88 95 94
f 91 95 88
f 29 87 34
f 87 90 99
f 34 99 35
f 87 99 34
f 90 100 101
f 100 102 103
f 101 103 104
f 100 103 101
f 35 105 38
f 105 104 106
f 38 106 39
f 105 106 38
f 90 101 99
f 101 104 105
f 99 105 35
f 101 105 99
f 39 106 107
f 106 104 108
f 107 108 109
f 106 108 107
f 104 103 110
f 103 102 111
f 110 111 112
f 103 111 110
f 109 113 114
f 113 112 115
f 114 115 116
f 113 115 114
f 104 110 108
f 110 112 113
f 108 113 109
f 110 113 108
f 39 107 44
f 107 109 117
f 44 117 45
f 107 117 44
f 109 114 118
f 114 116 119
f 118 119 120
f 114 119 118
f 45 121 48
f 121 120 122
f 48 122 49
f 121 122 48
f 109 118 117
f 118 120 121
f 117 121 45
f 118 121 117
f 49 122 123
f 122 120 124
f 123 124 125
f 122 124 123
f 120 119 126
f 119 116 127
f 126 127 128
f 119 127 126
f 125 129 130
f 131 132 133
f 134 133 135
f 131 133 134
f 120 126 124
f 126 128 129
f 124 129 125
f 126 129 124
f 49 123 52
f 123 125 136
f 52 136 53
f 123 136 52
f 125 130 137
f 134 135 138
f 139 138 140
f 134 138 139
f 53 141 55
f 141 142 143
f 55 143 9
f 141 143 55
f 125 137 136
f 137 142 141
f 136 141 53
f 137 141 136
f 56 144 57
f 144 140 145
f 57 145 59
f 144 145 57
f 140 138 146
f 138 135 147
f 146 147 148
f 138 147 146
f 59 149 61
f 149 148 150
f 61 150 63
f 149 150 61
f 140 146 145
f 146 148 149
f 145 149 59
f 146 149 145
f 151 152 153
f 152 154 155
f 153 155 156
f 152 155 153
f 154 157 158
f 157 77 76
f 158 76 73
f 157 76 158
f 156 159 160
f 159 73 72
f 160 72 63
f 159 72 160
f 154 158 155
f 158 73 159
f 155 159 156
f 158 159 155
f 151 161 152
f 161 162 163
f 152 163 154
f 161 163 152
f 162 164 165
f 164 98 97
f 165 97 93
f 164 97 165
f 154 166 157
f 166 93 92
f 157 92 77
f 166 92 157
f 162 165 163
f 165 93 166
f 163 166 154
f 165 166 163
f 151 167 161
f 167 168 169
f 161 169 162
f 167 169 161
f 168 170 171
f 172 116 115
f 173 115 112
f 172 115 173
f 162 174 164
f 174 175 176
f 164 176 98
f 174 176 164
f 168 171 169
f 171 175 174
f 169 174 162
f 171 174 169
f 151 177 167
f 177 178 179
f 167 179 168
f 177 179 167
f 178 180 181
f 180 135 133
f 181 133 132
f 180 133 181
f 168 182 170
f 182 132 183
f 172 127 116
f 182 183 170
f 178 181 179
f 181 132 182
f 179 182 168
f 181 182 179
f 151 153 177
f 153 156 184
f 177 184 178
f 153 184 177
f 156 160 185
f 160 63 150
f 185 150 148
f 160 150 185
f 178 186 180
f 186 148 147
f 180 147 135
f 186 147 180
f 156 185 184
f 185 148 186
f 184 186 178
f 185 186 184
f 14 12 15
f 15 12 11
f 17 13 14
f 14 13 12
f 23 24 17
f 17 24 13
f 58 10 56
f 56 10 9
f 15 11 58
f 58 11 10
f 79 25 23
f 23 25 24
f 85 86 84
f 84 86 83
f 84 83 79
f 79 83 25
f 88 89 85
f 85 89 86
f 96 100 94
f 94 100 90
f 98 102 96
f 96 102 100
f 94 90 88
f 88 90 89
f 131 129 132
f 132 129 128
f 134 130 131
f 131 130 129
f 140 142 139
f 139 142 137
f 139 137 134
f 134 137 130
f 56 9 144
f 144 9 143
f 144 143 140
f 140 143 142
f 170 172 171
f 171 172 173
f 175 112 176
f 176 112 111
f 176 111 98
f 98 111 102
f 171 173 175
f 175 173 112
f 132 128 183
f 183 128 127
f 183 127 170
f 170 127 172
