v 0.586557 1.22821 -0.292443
v 0.621427 1.18439 -0.296917
v 0.615844 1.23318 -0.340125
v 0.644694 1.13496 -0.31
v 0.648089 1.18556 -0.348555
v 0.633953 1.22882 -0.393125
v 0.654586 1.08368 -0.330695
v 0.667802 1.12568 -0.368636
v 0.650351 1.03445 -0.357427
v 0.668493 1.07327 -0.393756
v 0.67145 1.11493 -0.431322
v 0.662156 1.17503 -0.412338
v 0.639506 1.21547 -0.447411
v 0.662156 1.16514 -0.452338
v 0.67145 1.10505 -0.471322
v 0.658996 1.14639 -0.507265
v 0.639506 1.20559 -0.487411
v 0.632078 1.18426 -0.538848
v 0.563604 1.26892 -0.323621
v 0.589605 1.27105 -0.375564
v 0.53345 1.29758 -0.361374
v 0.603671 1.26052 -0.439347
v 0.601173 1.23092 -0.533968
v 0.603671 1.25064 -0.479347
v 0.560207 1.26767 -0.522696
v 0.550834 1.29667 -0.422655
v 0.49839 1.31201 -0.402829
v 0.550834 1.28678 -0.462655
v 0.512297 1.29171 -0.50589
v 0.512297 1.3016 -0.46589
v 0.461092 1.31111 -0.44483
v 0.560207 1.27755 -0.482696
v 0.536901 1.24221 -0.270214
v 0.509758 1.28019 -0.304854
v 0.482076 1.2462 -0.258626
v 0.470987 1.30581 -0.351944
v 0.433354 1.31063 -0.39598
v 0.408329 1.29493 -0.348197
v 0.443978 1.2788 -0.297926
v 0.426255 1.23987 -0.258561
v 0.387923 1.2652 -0.305118
v 0.373689 1.22371 -0.270024
v 0.572637 1.18997 -0.25371
v 0.518894 1.20034 -0.234143
v 0.550828 1.1457 -0.226875
v 0.453114 1.19895 -0.227215
v 0.396956 1.18626 -0.235207
v 0.425707 1.14305 -0.213697
v 0.489259 1.14611 -0.210523
v 0.52279 1.09876 -0.213979
v 0.457754 1.09738 -0.20713
v 0.490657 1.05272 -0.216005
v 0.604387 1.14186 -0.261152
v 0.574752 1.08763 -0.237532
v 0.54228 1.03956 -0.233833
v 0.588325 1.03181 -0.265071
v 0.6241 1.08198 -0.281233
v 0.625286 1.03006 -0.307342
v 0.647789 1.01322 -0.409377
v 0.647789 1.00333 -0.449377
v 0.631618 0.989523 -0.501374
v 0.660928 1.04453 -0.488219
v 0.668493 1.06338 -0.433756
v 0.603068 0.98418 -0.549461
v 0.63434 1.03315 -0.54772
v 0.564312 0.987712 -0.589976
v 0.597485 1.03297 -0.592668
v 0.620878 1.08339 -0.5845
v 0.655281 1.09388 -0.53192
v 0.632709 1.13513 -0.566093
v 0.596973 1.18737 -0.582596
v 0.592549 1.13533 -0.608114
v 0.552126 1.18389 -0.616251
v 0.571608 1.0746 -0.623913
v 0.541045 1.02516 -0.624793
v 0.512293 1.06837 -0.646303
v 0.535462 1.12743 -0.640606
v 0.500951 1.17409 -0.63725
v 0.480246 1.11404 -0.65287
v 0.447343 1.1587 -0.643994
v 0.560652 1.23221 -0.575622
v 0.503566 1.22432 -0.608114
v 0.448711 1.20982 -0.620746
v 0.451622 1.25264 -0.5845
v 0.507814 1.26836 -0.558929
v 0.455857 1.2839 -0.538015
v 0.461092 1.30122 -0.48483
v 0.407067 1.28949 -0.494808
v 0.40138 1.26611 -0.54772
v 0.357757 1.26338 -0.501374
v 0.397131 1.22206 -0.596904
v 0.39572 1.17186 -0.626167
v 0.349675 1.17961 -0.594929
v 0.347783 1.22771 -0.553203
v 0.316915 1.2249 -0.50403
v 0.312714 1.18136 -0.552658
v 0.28765 1.17697 -0.502573
v 0.407067 1.29937 -0.454808
v 0.357757 1.27327 -0.461374
v 0.378619 1.29303 -0.404517
v 0.316915 1.23479 -0.46403
v 0.325023 1.25463 -0.41
v 0.290211 1.1982 -0.450623
v 0.290211 1.20808 -0.410623
v 0.306382 1.2219 -0.358626
v 0.35161 1.26602 -0.350499
v 0.334933 1.22724 -0.310539
v 0.340515 1.17845 -0.267332
v 0.30366 1.17827 -0.31228
v 0.317123 1.12803 -0.2755
v 0.277073 1.16689 -0.371781
v 0.269507 1.13815 -0.466244
v 0.269507 1.14804 -0.426244
v 0.26655 1.10637 -0.388678
v 0.282719 1.11754 -0.32808
v 0.305291 1.07629 -0.293907
v 0.279005 1.06503 -0.352735
v 0.305922 1.02716 -0.321152
v 0.366393 1.13682 -0.236087
v 0.345452 1.07609 -0.251886
v 0.341028 1.02405 -0.277404
v 0.385875 1.02753 -0.243749
v 0.402538 1.08398 -0.219394
v 0.43705 1.03733 -0.22275
v 0.48929 1.0016 -0.239254
v 0.434435 0.987104 -0.251886
v 0.486378 0.958775 -0.2755
v 0.377348 0.979206 -0.284378
v 0.336827 0.980504 -0.326032
v 0.377794 0.943752 -0.337304
v 0.430186 0.943061 -0.301071
v 0.482144 0.927514 -0.321985
v 0.425703 0.919706 -0.354109
v 0.476909 0.910195 -0.37517
v 0.540869 0.989355 -0.263096
v 0.53662 0.945312 -0.31228
v 0.530933 0.921932 -0.365192
v 0.580244 0.948035 -0.358626
v 0.590217 0.983709 -0.306797
v 0.621086 0.986517 -0.35597
v 0.621086 0.976631 -0.39597
v 0.580244 0.938149 -0.398626
v 0.612978 0.956789 -0.45
v 0.530933 0.912046 -0.405192
v 0.559381 0.918393 -0.455483
v 0.476909 0.900309 -0.41517
v 0.504647 0.900787 -0.46402
v 0.529671 0.916489 -0.511803
v 0.58639 0.945402 -0.509501
v 0.550077 0.946218 -0.554882
v 0.351443 0.98321 -0.567557
v 0.365363 1.02145 -0.60629
v 0.401099 0.969206 -0.589786
v 0.387172 1.06572 -0.633125
v 0.419106 1.01108 -0.625857
v 0.455925 0.965217 -0.601374
v 0.41521 1.11266 -0.646021
v 0.448741 1.06531 -0.649477
v 0.484886 1.01247 -0.632785
v 0.511745 0.971546 -0.601439
v 0.316573 1.02703 -0.563083
v 0.293307 1.07646 -0.55
v 0.333613 1.06956 -0.598848
v 0.283415 1.12774 -0.529305
v 0.3139 1.12944 -0.578767
v 0.363248 1.12379 -0.622468
v 0.322156 0.978238 -0.519875
v 0.304047 0.982594 -0.466875
v 0.289912 1.02586 -0.511445
v 0.298495 0.995946 -0.412589
v 0.275845 1.03639 -0.447662
v 0.298495 1.00583 -0.372589
v 0.275845 1.04627 -0.407662
v 0.270198 1.08574 -0.491363
v 0.26655 1.09648 -0.428678
v 0.374396 0.942502 -0.536379
v 0.40455 0.913842 -0.498626
v 0.348396 0.940368 -0.484436
v 0.439611 0.899412 -0.457171
v 0.387167 0.91475 -0.437345
v 0.425703 0.90982 -0.39411
v 0.387167 0.924636 -0.397345
v 0.334329 0.950895 -0.420653
v 0.334329 0.960781 -0.380653
v 0.377794 0.933867 -0.377304
v 0.428243 0.931232 -0.555146
v 0.494023 0.932623 -0.562074
v 0.467014 0.905614 -0.508056
f 1 2 3
f 2 4 5
f 3 5 6
f 2 5 3
f 4 7 8
f 7 9 10
f 8 10 11
f 7 10 8
f 6 12 13
f 14 15 16
f 17 16 18
f 14 16 17
f 4 8 5
f 8 11 12
f 5 12 6
f 8 12 5
f 1 3 19
f 3 6 20
f 19 20 21
f 3 20 19
f 6 13 22
f 17 18 23
f 24 23 25
f 17 23 24
f 21 26 27
f 28 25 29
f 27 30 31
f 26 30 27
f 6 22 20
f 22 32 26
f 20 26 21
f 22 26 20
f 1 19 33
f 19 21 34
f 33 34 35
f 19 34 33
f 21 27 36
f 27 31 37
f 36 37 38
f 27 37 36
f 35 39 40
f 39 38 41
f 40 41 42
f 39 41 40
f 21 36 34
f 36 38 39
f 34 39 35
f 36 39 34
f 1 33 43
f 33 35 44
f 43 44 45
f 33 44 43
f 35 40 46
f 40 42 47
f 46 47 48
f 40 47 46
f 45 49 50
f 49 48 51
f 50 51 52
f 49 51 50
f 35 46 44
f 46 48 49
f 44 49 45
f 46 49 44
f 1 43 2
f 43 45 53
f 2 53 4
f 43 53 2
f 45 50 54
f 50 52 55
f 54 55 56
f 50 55 54
f 4 57 7
f 57 56 58
f 7 58 9
f 57 58 7
f 45 54 53
f 54 56 57
f 53 57 4
f 54 57 53
f 9 59 10
f 60 61 62
f 63 62 15
f 60 62 63
f 61 64 65
f 64 66 67
f 65 67 68
f 64 67 65
f 15 69 16
f 69 68 70
f 16 70 18
f 69 70 16
f 61 65 62
f 65 68 69
f 62 69 15
f 65 69 62
f 18 70 71
f 70 68 72
f 71 72 73
f 70 72 71
f 68 67 74
f 67 66 75
f 74 75 76
f 67 75 74
f 73 77 78
f 77 76 79
f 78 79 80
f 77 79 78
f 68 74 72
f 74 76 77
f 72 77 73
f 74 77 72
f 18 71 23
f 71 73 81
f 23 81 25
f 71 81 23
f 73 78 82
f 78 80 83
f 82 83 84
f 78 83 82
f 25 85 29
f 85 84 86
f 29 86 87
f 85 86 29
f 73 82 81
f 82 84 85
f 81 85 25
f 82 85 81
f 87 86 88
f 86 84 89
f 88 89 90
f 86 89 88
f 84 83 91
f 83 80 92
f 91 92 93
f 83 92 91
f 90 94 95
f 94 93 96
f 95 96 97
f 94 96 95
f 84 91 89
f 91 93 94
f 89 94 90
f 91 94 89
f 31 98 37
f 98 99 100
f 37 100 38
f 98 100 37
f 99 101 102
f 95 97 103
f 102 104 105
f 101 104 102
f 38 106 41
f 106 105 107
f 41 107 42
f 106 107 41
f 99 102 100
f 102 105 106
f 100 106 38
f 102 106 100
f 42 107 108
f 107 105 109
f 108 109 110
f 107 109 108
f 105 104 111
f 103 97 112
f 111 113 114
f 104 113 111
f 110 115 116
f 115 114 117
f 116 117 118
f 115 117 116
f 105 111 109
f 111 114 115
f 109 115 110
f 111 115 109
f 42 108 47
f 108 110 119
f 47 119 48
f 108 119 47
f 110 116 120
f 116 118 121
f 120 121 122
f 116 121 120
f 48 123 51
f 123 122 124
f 51 124 52
f 123 124 51
f 110 120 119
f 120 122 123
f 119 123 48
f 120 123 119
f 52 124 125
f 124 122 126
f 125 126 127
f 124 126 125
f 122 121 128
f 121 118 129
f 128 129 130
f 121 129 128
f 127 131 132
f 131 130 133
f 132 133 134
f 131 133 132
f 122 128 126
f 128 130 131
f 126 131 127
f 128 131 126
f 52 125 55
f 125 127 135
f 55 135 56
f 125 135 55
f 127 132 136
f 132 134 137
f 136 137 138
f 132 137 136
f 56 139 58
f 139 138 140
f 58 140 9
f 139 140 58
f 127 136 135
f 136 138 139
f 135 139 56
f 136 139 135
f 9 140 59
f 141 142 143
f 60 143 61
f 141 143 60
f 142 144 145
f 144 146 147
f 145 147 148
f 144 147 145
f 61 149 64
f 149 148 150
f 64 150 66
f 149 150 64
f 142 145 143
f 145 148 149
f 143 149 61
f 145 149 143
f 151 152 153
f 152 154 155
f 153 155 156
f 152 155 153
f 154 157 158
f 157 80 79
f 158 79 76
f 157 79 158
f 156 159 160
f 159 76 75
f 160 75 66
f 159 75 160
f 154 158 155
f 158 76 159
f 155 159 156
f 158 159 155
f 151 161 152
f 161 162 163
f 152 163 154
f 161 163 152
f 162 164 165
f 164 97 96
f 165 96 93
f 164 96 165
f 154 166 157
f 166 93 92
f 157 92 80
f 166 92 157
f 162 165 163
f 165 93 166
f 163 166 154
f 165 166 163
f 151 167 161
f 167 168 169
f 161 169 162
f 167 169 161
f 168 170 171
f 172 118 117
f 173 117 114
f 172 117 173
f 162 174 164
f 174 175 112
f 164 112 97
f 174 112 164
f 168 171 169
f 171 175 174
f 169 174 162
f 171 174 169
f 151 176 167
f 176 177 178
f 167 178 168
f 176 178 167
f 177 179 180
f 179 146 181
f 182 133 130
f 179 181 180
f 168 183 170
f 184 130 129
f 172 129 118
f 184 129 172
f 177 180 178
f 180 185 183
f 178 183 168
f 180 183 178
f 151 153 176
f 153 156 186
f 176 186 177
f 153 186 176
f 156 160 187
f 160 66 150
f 187 150 148
f 160 150 187
f 177 188 179
f 188 148 147
f 179 147 146
f 188 147 179
f 156 187 186
f 187 148 188
f 186 188 177
f 187 188 186
f 14 12 15
f 15 12 11
f 17 13 14
f 14 13 12
f 25 32 24
f 24 32 22
f 24 22 17
f 17 22 13
f 28 26 25
f 25 26 32
f 29 30 28
f 28 30 26
f 15 11 63
f 63 11 10
f 63 10 60
f 60 10 59
f 87 31 29
f 29 31 30
f 88 98 87
f 87 98 31
f 90 99 88
f 88 99 98
f 95 101 90
f 90 101 99
f 103 104 95
f 95 104 101
f 112 113 103
f 103 113 104
f 141 140 142
f 142 140 138
f 60 59 141
f 141 59 140
f 142 138 144
f 144 138 137
f 144 137 146
f 146 137 134
f 170 172 171
f 171 172 173
f 175 114 112
f 112 114 113
f 171 173 175
f 175 173 114
f 146 134 181
f 181 134 133
f 181 133 180
f 180 133 182
f 183 184 170
f 170 184 172
f 180 182 185
f 185 182 130
f 185 130 183
f 183 130 184
