v 0.586557 1.23233 -0.172443
v 0.621427 1.18852 -0.176917
v 0.615844 1.23731 -0.220125
v 0.644694 1.13908 -0.19
v 0.648089 1.18968 -0.228555
v 0.633953 1.23295 -0.273125
v 0.654586 1.0878 -0.210695
v 0.667802 1.12981 -0.248636
v 0.650351 1.03857 -0.237427
v 0.668493 1.07739 -0.273756
v 0.67145 1.11906 -0.311322
v 0.633953 1.22882 -0.393125
v 0.662156 1.17503 -0.412338
v 0.639506 1.21547 -0.447411
v 0.67145 1.11493 -0.431322
v 0.658996 1.15627 -0.467265
v 0.632078 1.19414 -0.498848
v 0.662156 1.17916 -0.292338
v 0.563604 1.27304 -0.203621
v 0.589605 1.27518 -0.255564
v 0.53345 1.3017 -0.241374
v 0.603671 1.26052 -0.439347
v 0.601173 1.2408 -0.493968
v 0.560207 1.27755 -0.482696
v 0.550834 1.30079 -0.302655
v 0.49839 1.31613 -0.282829
v 0.550834 1.29667 -0.422655
v 0.512297 1.3016 -0.46589
v 0.49839 1.31201 -0.402829
v 0.461092 1.31111 -0.44483
v 0.603671 1.26465 -0.319347
v 0.536901 1.24634 -0.150214
v 0.509758 1.28431 -0.184854
v 0.482076 1.25033 -0.138626
v 0.470987 1.30993 -0.231944
v 0.461092 1.31524 -0.32483
v 0.433354 1.31476 -0.27598
v 0.408329 1.29906 -0.228197
v 0.443978 1.28292 -0.177926
v 0.426255 1.244 -0.138561
v 0.387923 1.26933 -0.185118
v 0.373689 1.22783 -0.150024
v 0.572637 1.1941 -0.13371
v 0.518894 1.20447 -0.114143
v 0.550828 1.14982 -0.106875
v 0.453114 1.20307 -0.107215
v 0.396956 1.19038 -0.115207
v 0.425707 1.14718 -0.0936968
v 0.489259 1.15024 -0.0905226
v 0.52279 1.10288 -0.0939792
v 0.457754 1.10151 -0.0871296
v 0.490657 1.05685 -0.0960055
v 0.604387 1.14598 -0.141152
v 0.574752 1.09175 -0.117532
v 0.54228 1.04368 -0.113833
v 0.588325 1.03593 -0.145071
v 0.6241 1.08611 -0.161233
v 0.625286 1.03419 -0.187342
v 0.647789 1.01735 -0.289377
v 0.647789 1.01322 -0.409377
v 0.631618 0.999409 -0.461374
v 0.660928 1.05442 -0.448219
v 0.668493 1.07327 -0.393756
v 0.603068 0.994066 -0.509461
v 0.63434 1.04303 -0.50772
v 0.564312 0.997598 -0.549976
v 0.597485 1.04286 -0.552668
v 0.620878 1.09327 -0.5445
v 0.655281 1.10377 -0.49192
v 0.632709 1.14502 -0.526093
v 0.596973 1.19726 -0.542596
v 0.592549 1.14522 -0.568114
v 0.552126 1.19378 -0.576251
v 0.571608 1.08448 -0.583913
v 0.541045 1.03505 -0.584793
v 0.512293 1.07825 -0.606303
v 0.535462 1.13732 -0.600606
v 0.500951 1.18397 -0.59725
v 0.480246 1.12392 -0.61287
v 0.447343 1.16858 -0.603994
v 0.560652 1.2421 -0.535622
v 0.503566 1.2342 -0.568114
v 0.448711 1.21971 -0.580746
v 0.451622 1.26253 -0.5445
v 0.507814 1.27824 -0.518929
v 0.455857 1.29379 -0.498015
v 0.407067 1.29937 -0.454808
v 0.40138 1.27599 -0.50772
v 0.357757 1.27327 -0.461374
v 0.397131 1.23195 -0.556904
v 0.39572 1.18175 -0.586167
v 0.349675 1.1895 -0.554929
v 0.347783 1.2376 -0.513203
v 0.316915 1.23479 -0.46403
v 0.312714 1.19124 -0.512658
v 0.28765 1.18686 -0.462573
v 0.433354 1.31063 -0.39598
v 0.378619 1.29303 -0.404517
v 0.378619 1.29715 -0.284517
v 0.325023 1.25463 -0.41
v 0.290211 1.20808 -0.410623
v 0.325023 1.25875 -0.29
v 0.290211 1.21221 -0.290623
v 0.306382 1.22602 -0.238626
v 0.35161 1.27014 -0.230499
v 0.334933 1.23136 -0.190539
v 0.340515 1.18257 -0.147332
v 0.30366 1.1824 -0.19228
v 0.317123 1.13216 -0.1555
v 0.277073 1.17101 -0.251781
v 0.269507 1.14804 -0.426244
v 0.269507 1.15216 -0.306244
v 0.26655 1.1105 -0.268678
v 0.282719 1.12166 -0.20808
v 0.305291 1.08041 -0.173907
v 0.279005 1.06916 -0.232735
v 0.305922 1.03129 -0.201152
v 0.366393 1.14095 -0.116087
v 0.345452 1.08021 -0.131886
v 0.341028 1.02817 -0.157404
v 0.385875 1.03165 -0.123749
v 0.402538 1.08811 -0.0993941
v 0.43705 1.04146 -0.10275
v 0.48929 1.00572 -0.119254
v 0.434435 0.991229 -0.131886
v 0.486378 0.9629 -0.1555
v 0.377348 0.983331 -0.164378
v 0.336827 0.984629 -0.206032
v 0.377794 0.947878 -0.217304
v 0.430186 0.947186 -0.181071
v 0.482144 0.931639 -0.201985
v 0.425703 0.923831 -0.23411
v 0.476909 0.91432 -0.25517
v 0.540869 0.99348 -0.143096
v 0.53662 0.949437 -0.19228
v 0.530933 0.926057 -0.245192
v 0.580244 0.95216 -0.238626
v 0.590217 0.987834 -0.186797
v 0.621086 0.990642 -0.23597
v 0.612978 0.9708 -0.29
v 0.612978 0.966675 -0.41
v 0.559381 0.932404 -0.295483
v 0.504647 0.914798 -0.30402
v 0.559381 0.928279 -0.415483
v 0.504647 0.910673 -0.42402
v 0.529671 0.926375 -0.471803
v 0.58639 0.955288 -0.469501
v 0.550077 0.956104 -0.514882
v 0.351443 0.993095 -0.527557
v 0.365363 1.03133 -0.56629
v 0.401099 0.979091 -0.549786
v 0.387172 1.07561 -0.593125
v 0.419106 1.02096 -0.585857
v 0.455925 0.975102 -0.561374
v 0.41521 1.12255 -0.606021
v 0.448741 1.07519 -0.609477
v 0.484886 1.02236 -0.592785
v 0.511745 0.981432 -0.561439
v 0.316573 1.03691 -0.523083
v 0.293307 1.08635 -0.51
v 0.333613 1.07945 -0.558848
v 0.283415 1.13763 -0.489305
v 0.3139 1.13932 -0.538767
v 0.363248 1.13368 -0.582468
v 0.322156 0.988124 -0.479875
v 0.304047 0.99248 -0.426875
v 0.289912 1.03575 -0.471445
v 0.304047 0.996605 -0.306875
v 0.298495 1.00996 -0.252589
v 0.275845 1.0504 -0.287662
v 0.270198 1.09562 -0.451363
v 0.26655 1.10637 -0.388678
v 0.275845 1.04627 -0.407662
v 0.374396 0.952388 -0.496379
v 0.40455 0.923728 -0.458626
v 0.348396 0.950254 -0.444436
v 0.439611 0.909297 -0.417171
v 0.387167 0.924636 -0.397345
v 0.439611 0.913423 -0.297171
v 0.387167 0.928761 -0.277345
v 0.334329 0.964906 -0.260653
v 0.334329 0.960781 -0.380653
v 0.428243 0.941118 -0.515146
v 0.494023 0.942509 -0.522074
v 0.467014 0.9155 -0.468056
v 0.476909 0.910195 -0.37517
f 1 2 3
f 2 4 5
f 3 5 6
f 2 5 3
f 4 7 8
f 7 9 10
f 8 10 11
f 7 10 8
f 12 13 14
f 13 15 16
f 14 16 17
f 13 16 14
f 4 8 5
f 8 11 18
f 5 18 6
f 8 18 5
f 1 3 19
f 3 6 20
f 19 20 21
f 3 20 19
f 12 14 22
f 14 17 23
f 22 23 24
f 14 23 22
f 21 25 26
f 27 24 28
f 29 28 30
f 27 28 29
f 6 31 20
f 22 24 27
f 20 25 21
f 31 25 20
f 1 19 32
f 19 21 33
f 32 33 34
f 19 33 32
f 21 26 35
f 26 36 37
f 35 37 38
f 26 37 35
f 34 39 40
f 39 38 41
f 40 41 42
f 39 41 40
f 21 35 33
f 35 38 39
f 33 39 34
f 35 39 33
f 1 32 43
f 32 34 44
f 43 44 45
f 32 44 43
f 34 40 46
f 40 42 47
f 46 47 48
f 40 47 46
f 45 49 50
f 49 48 51
f 50 51 52
f 49 51 50
f 34 46 44
f 46 48 49
f 44 49 45
f 46 49 44
f 1 43 2
f 43 45 53
f 2 53 4
f 43 53 2
f 45 50 54
f 50 52 55
f 54 55 56
f 50 55 54
f 4 57 7
f 57 56 58
f 7 58 9
f 57 58 7
f 45 54 53
f 54 56 57
f 53 57 4
f 54 57 53
f 9 59 10
f 60 61 62
f 63 62 15
f 60 62 63
f 61 64 65
f 64 66 67
f 65 67 68
f 64 67 65
f 15 69 16
f 69 68 70
f 16 70 17
f 69 70 16
f 61 65 62
f 65 68 69
f 62 69 15
f 65 69 62
f 17 70 71
f 70 68 72
f 71 72 73
f 70 72 71
f 68 67 74
f 67 66 75
f 74 75 76
f 67 75 74
f 73 77 78
f 77 76 79
f 78 79 80
f 77 79 78
f 68 74 72
f 74 76 77
f 72 77 73
f 74 77 72
f 17 71 23
f 71 73 81
f 23 81 24
f 71 81 23
f 73 78 82
f 78 80 83
f 82 83 84
f 78 83 82
f 24 85 28
f 85 84 86
f 28 86 30
f 85 86 28
f 73 82 81
f 82 84 85
f 81 85 24
f 82 85 81
f 30 86 87
f 86 84 88
f 87 88 89
f 86 88 87
f 84 83 90
f 83 80 91
f 90 91 92
f 83 91 90
f 89 93 94
f 93 92 95
f 94 95 96
f 93 95 94
f 84 90 88
f 90 92 93
f 88 93 89
f 90 93 88
f 30 87 97
f 87 89 98
f 37 99 38
f 87 98 97
f 89 94 100
f 94 96 101
f 102 103 104
f 94 101 100
f 38 105 41
f 105 104 106
f 41 106 42
f 105 106 41
f 89 100 98
f 102 104 105
f 99 105 38
f 102 105 99
f 42 106 107
f 106 104 108
f 107 108 109
f 106 108 107
f 104 103 110
f 101 96 111
f 110 112 113
f 103 112 110
f 109 114 115
f 114 113 116
f 115 116 117
f 114 116 115
f 104 110 108
f 110 113 114
f 108 114 109
f 110 114 108
f 42 107 47
f 107 109 118
f 47 118 48
f 107 118 47
f 109 115 119
f 115 117 120
f 119 120 121
f 115 120 119
f 48 122 51
f 122 121 123
f 51 123 52
f 122 123 51
f 109 119 118
f 119 121 122
f 118 122 48
f 119 122 118
f 52 123 124
f 123 121 125
f 124 125 126
f 123 125 124
f 121 120 127
f 120 117 128
f 127 128 129
f 120 128 127
f 126 130 131
f 130 129 132
f 131 132 133
f 130 132 131
f 121 127 125
f 127 129 130
f 125 130 126
f 127 130 125
f 52 124 55
f 124 126 134
f 55 134 56
f 124 134 55
f 126 131 135
f 131 133 136
f 135 136 137
f 131 136 135
f 56 138 58
f 138 137 139
f 58 139 9
f 138 139 58
f 126 135 134
f 135 137 138
f 134 138 56
f 135 138 134
f 9 139 59
f 139 137 140
f 60 141 61
f 139 140 59
f 137 136 142
f 136 133 143
f 144 145 146
f 136 143 142
f 61 147 64
f 147 146 148
f 64 148 66
f 147 148 64
f 137 142 140
f 144 146 147
f 141 147 61
f 144 147 141
f 149 150 151
f 150 152 153
f 151 153 154
f 150 153 151
f 152 155 156
f 155 80 79
f 156 79 76
f 155 79 156
f 154 157 158
f 157 76 75
f 158 75 66
f 157 75 158
f 152 156 153
f 156 76 157
f 153 157 154
f 156 157 153
f 149 159 150
f 159 160 161
f 150 161 152
f 159 161 150
f 160 162 163
f 162 96 95
f 163 95 92
f 162 95 163
f 152 164 155
f 164 92 91
f 155 91 80
f 164 91 155
f 160 163 161
f 163 92 164
f 161 164 152
f 163 164 161
f 149 165 159
f 165 166 167
f 159 167 160
f 165 167 159
f 168 169 170
f 169 117 116
f 170 116 113
f 169 116 170
f 160 171 162
f 171 172 111
f 162 111 96
f 171 111 162
f 166 173 167
f 173 172 171
f 167 171 160
f 173 171 167
f 149 174 165
f 174 175 176
f 165 176 166
f 174 176 165
f 175 177 178
f 179 133 132
f 180 132 129
f 179 132 180
f 168 181 169
f 181 129 128
f 169 128 117
f 181 128 169
f 175 178 176
f 180 129 181
f 176 182 166
f 178 182 176
f 149 151 174
f 151 154 183
f 174 183 175
f 151 183 174
f 154 158 184
f 158 66 148
f 184 148 146
f 158 148 184
f 175 185 177
f 185 146 145
f 177 145 186
f 185 145 177
f 154 184 183
f 184 146 185
f 183 185 175
f 184 185 183
f 12 6 13
f 13 6 18
f 13 18 15
f 15 18 11
f 22 31 12
f 12 31 6
f 30 36 29
f 29 36 26
f 29 26 27
f 27 26 25
f 27 25 22
f 22 25 31
f 15 11 63
f 63 11 10
f 63 10 60
f 60 10 59
f 97 37 30
f 30 37 36
f 98 99 97
f 97 99 37
f 101 103 100
f 100 103 102
f 100 102 98
f 98 102 99
f 111 112 101
f 101 112 103
f 60 59 141
f 141 59 140
f 144 142 145
f 145 142 143
f 141 140 144
f 144 140 142
f 172 113 111
f 111 113 112
f 166 168 173
f 173 168 170
f 173 170 172
f 172 170 113
f 177 179 178
f 178 179 180
f 182 181 166
f 166 181 168
f 178 180 182
f 182 180 181
f 145 143 186
f 186 143 133
f 186 133 177
f 177 133 179
