v 0.586557 1.22427 -0.0524429
v 0.621427 1.18045 -0.0569173
v 0.615844 1.22924 -0.100125
v 0.644694 1.13102 -0.0699999
v 0.648089 1.18161 -0.108555
v 0.633953 1.22488 -0.153125
v 0.654586 1.07973 -0.0906949
v 0.667802 1.12174 -0.128636
v 0.650351 1.0305 -0.117427
v 0.668493 1.06932 -0.153756
v 0.67145 1.11099 -0.191322
v 0.633953 1.23295 -0.273125
v 0.662156 1.17916 -0.292338
v 0.639506 1.2196 -0.327411
v 0.67145 1.11906 -0.311322
v 0.658996 1.1604 -0.347265
v 0.632078 1.19827 -0.378848
v 0.662156 1.17109 -0.172338
v 0.563604 1.26497 -0.0836209
v 0.589605 1.26711 -0.135564
v 0.53345 1.29363 -0.121374
v 0.603671 1.26465 -0.319347
v 0.601173 1.24493 -0.373968
v 0.560207 1.28168 -0.362696
v 0.550834 1.29272 -0.182655
v 0.49839 1.30806 -0.162829
v 0.550834 1.30079 -0.302655
v 0.512297 1.30572 -0.34589
v 0.49839 1.31613 -0.282829
v 0.461092 1.31524 -0.32483
v 0.589605 1.27518 -0.255564
v 0.536901 1.23827 -0.0302138
v 0.509758 1.27624 -0.0648537
v 0.482076 1.24226 -0.0186256
v 0.470987 1.30186 -0.111944
v 0.433354 1.31476 -0.27598
v 0.433354 1.30669 -0.15598
v 0.408329 1.29099 -0.108197
v 0.443978 1.27485 -0.0579258
v 0.426255 1.23593 -0.0185606
v 0.387923 1.26126 -0.0651181
v 0.373689 1.21976 -0.0300236
v 0.572637 1.18603 -0.0137101
v 0.518894 1.1964 0.00585698
v 0.550828 1.14176 0.0131254
v 0.453114 1.19501 0.0127849
v 0.396956 1.18231 0.00479268
v 0.425707 1.13911 0.0263032
v 0.489259 1.14217 0.0294774
v 0.52279 1.09481 0.0260209
v 0.457754 1.09344 0.0328704
v 0.490657 1.04878 0.0239945
v 0.604387 1.13791 -0.0211521
v 0.574752 1.08368 0.00246835
v 0.54228 1.03561 0.00616688
v 0.588325 1.02787 -0.0250712
v 0.6241 1.07804 -0.0412333
v 0.625286 1.02612 -0.0673417
v 0.647789 1.00928 -0.169377
v 0.647789 1.01735 -0.289377
v 0.631618 1.00353 -0.341374
v 0.660928 1.05854 -0.328219
v 0.668493 1.07739 -0.273756
v 0.660928 1.05048 -0.208219
v 0.603068 0.998191 -0.389461
v 0.63434 1.04716 -0.38772
v 0.564312 1.00172 -0.429976
v 0.597485 1.04698 -0.432668
v 0.620878 1.0974 -0.4245
v 0.655281 1.10789 -0.37192
v 0.632709 1.14914 -0.406093
v 0.596973 1.20138 -0.422596
v 0.592549 1.14934 -0.448114
v 0.552126 1.1979 -0.456251
v 0.571608 1.08861 -0.463913
v 0.541045 1.03917 -0.464793
v 0.512293 1.08238 -0.486303
v 0.535462 1.14145 -0.480606
v 0.500951 1.1881 -0.47725
v 0.480246 1.12805 -0.49287
v 0.447343 1.17271 -0.483994
v 0.560652 1.24622 -0.415622
v 0.503566 1.23833 -0.448114
v 0.448711 1.22383 -0.460746
v 0.451622 1.26666 -0.4245
v 0.507814 1.28237 -0.398929
v 0.455857 1.29792 -0.378015
v 0.407067 1.3035 -0.334808
v 0.40138 1.28012 -0.38772
v 0.357757 1.2774 -0.341374
v 0.397131 1.23607 -0.436904
v 0.39572 1.18587 -0.466167
v 0.349675 1.19362 -0.434929
v 0.347783 1.24172 -0.393203
v 0.316915 1.23891 -0.34403
v 0.312714 1.19537 -0.392658
v 0.28765 1.19098 -0.342573
v 0.378619 1.29715 -0.284517
v 0.378619 1.28908 -0.164517
v 0.325023 1.25875 -0.29
v 0.290211 1.21221 -0.290623
v 0.325023 1.25069 -0.17
v 0.290211 1.20414 -0.170623
v 0.306382 1.21795 -0.118626
v 0.35161 1.26207 -0.110499
v 0.334933 1.22329 -0.070539
v 0.340515 1.17451 -0.0273317
v 0.30366 1.17433 -0.0722802
v 0.317123 1.12409 -0.0355002
v 0.277073 1.16294 -0.131781
v 0.269507 1.15216 -0.306244
v 0.269507 1.14409 -0.186244
v 0.26655 1.10243 -0.148678
v 0.277073 1.17101 -0.251781
v 0.282719 1.11359 -0.0880796
v 0.305291 1.07234 -0.0539073
v 0.279005 1.06109 -0.112735
v 0.305922 1.02322 -0.0811517
v 0.366393 1.13288 0.0039134
v 0.345452 1.07214 -0.011886
v 0.341028 1.0201 -0.0374036
v 0.385875 1.02358 -0.00374918
v 0.402538 1.08004 0.0206059
v 0.43705 1.03339 0.0172497
v 0.48929 0.997653 0.000745997
v 0.434435 0.98316 -0.0118861
v 0.486378 0.954831 -0.0355003
v 0.377348 0.975262 -0.044378
v 0.336827 0.97656 -0.0860317
v 0.377794 0.939808 -0.0973037
v 0.430186 0.939117 -0.0610706
v 0.482144 0.92357 -0.0819851
v 0.425703 0.915762 -0.11411
v 0.476909 0.906251 -0.13517
v 0.540869 0.985411 -0.0230957
v 0.53662 0.941368 -0.0722802
v 0.530933 0.917988 -0.125192
v 0.580244 0.944091 -0.118626
v 0.590217 0.979765 -0.0667973
v 0.621086 0.982573 -0.11597
v 0.612978 0.962731 -0.17
v 0.612978 0.9708 -0.29
v 0.559381 0.924335 -0.175483
v 0.504647 0.906729 -0.18402
v 0.559381 0.932404 -0.295483
v 0.504647 0.914798 -0.30402
v 0.529671 0.9305 -0.351803
v 0.58639 0.959413 -0.349501
v 0.550077 0.960229 -0.394882
v 0.351443 0.997221 -0.407557
v 0.365363 1.03546 -0.44629
v 0.401099 0.983217 -0.429786
v 0.387172 1.07973 -0.473125
v 0.419106 1.02509 -0.465857
v 0.455925 0.979227 -0.441374
v 0.41521 1.12667 -0.486021
v 0.448741 1.07932 -0.489477
v 0.484886 1.02648 -0.472785
v 0.511745 0.985557 -0.441439
v 0.316573 1.04104 -0.403083
v 0.293307 1.09047 -0.39
v 0.333613 1.08357 -0.438848
v 0.283415 1.14175 -0.369305
v 0.3139 1.14345 -0.418767
v 0.363248 1.1378 -0.462468
v 0.322156 0.992249 -0.359875
v 0.304047 0.996605 -0.306875
v 0.289912 1.03987 -0.351445
v 0.304047 0.988536 -0.186875
v 0.298495 1.00189 -0.132589
v 0.275845 1.04233 -0.167662
v 0.270198 1.09975 -0.331363
v 0.26655 1.1105 -0.268678
v 0.275845 1.0504 -0.287662
v 0.374396 0.956513 -0.376379
v 0.40455 0.927853 -0.338626
v 0.348396 0.954379 -0.324436
v 0.439611 0.913423 -0.297171
v 0.387167 0.928761 -0.277345
v 0.439611 0.905353 -0.177171
v 0.387167 0.920692 -0.157345
v 0.334329 0.956837 -0.140653
v 0.348396 0.94631 -0.204436
v 0.428243 0.945243 -0.395146
v 0.494023 0.946634 -0.402074
v 0.467014 0.919625 -0.348056
f 1 2 3
f 2 4 5
f 3 5 6
f 2 5 3
f 4 7 8
f 7 9 10
f 8 10 11
f 7 10 8
f 12 13 14
f 13 15 16
f 14 16 17
f 13 16 14
f 4 8 5
f 8 11 18
f 5 18 6
f 8 18 5
f 1 3 19
f 3 6 20
f 19 20 21
f 3 20 19
f 12 14 22
f 14 17 23
f 22 23 24
f 14 23 22
f 21 25 26
f 27 24 28
f 29 28 30
f 27 28 29
f 12 22 31
f 22 24 27
f 20 25 21
f 22 27 31
f 1 19 32
f 19 21 33
f 32 33 34
f 19 33 32
f 21 26 35
f 29 30 36
f 35 37 38
f 26 37 35
f 34 39 40
f 39 38 41
f 40 41 42
f 39 41 40
f 21 35 33
f 35 38 39
f 33 39 34
f 35 39 33
f 1 32 43
f 32 34 44
f 43 44 45
f 32 44 43
f 34 40 46
f 40 42 47
f 46 47 48
f 40 47 46
f 45 49 50
f 49 48 51
f 50 51 52
f 49 51 50
f 34 46 44
f 46 48 49
f 44 49 45
f 46 49 44
f 1 43 2
f 43 45 53
f 2 53 4
f 43 53 2
f 45 50 54
f 50 52 55
f 54 55 56
f 50 55 54
f 4 57 7
f 57 56 58
f 7 58 9
f 57 58 7
f 45 54 53
f 54 56 57
f 53 57 4
f 54 57 53
f 9 59 10
f 60 61 62
f 63 62 15
f 59 64 10
f 61 65 66
f 65 67 68
f 66 68 69
f 65 68 66
f 15 70 16
f 70 69 71
f 16 71 17
f 70 71 16
f 61 66 62
f 66 69 70
f 62 70 15
f 66 70 62
f 17 71 72
f 71 69 73
f 72 73 74
f 71 73 72
f 69 68 75
f 68 67 76
f 75 76 77
f 68 76 75
f 74 78 79
f 78 77 80
f 79 80 81
f 78 80 79
f 69 75 73
f 75 77 78
f 73 78 74
f 75 78 73
f 17 72 23
f 72 74 82
f 23 82 24
f 72 82 23
f 74 79 83
f 79 81 84
f 83 84 85
f 79 84 83
f 24 86 28
f 86 85 87
f 28 87 30
f 86 87 28
f 74 83 82
f 83 85 86
f 82 86 24
f 83 86 82
f 30 87 88
f 87 85 89
f 88 89 90
f 87 89 88
f 85 84 91
f 84 81 92
f 91 92 93
f 84 92 91
f 90 94 95
f 94 93 96
f 95 96 97
f 94 96 95
f 85 91 89
f 91 93 94
f 89 94 90
f 91 94 89
f 30 88 36
f 88 90 98
f 37 99 38
f 88 98 36
f 90 95 100
f 95 97 101
f 102 103 104
f 95 101 100
f 38 105 41
f 105 104 106
f 41 106 42
f 105 106 41
f 90 100 98
f 102 104 105
f 99 105 38
f 102 105 99
f 42 106 107
f 106 104 108
f 107 108 109
f 106 108 107
f 104 103 110
f 101 97 111
f 110 112 113
f 101 111 114
f 109 115 116
f 115 113 117
f 116 117 118
f 115 117 116
f 104 110 108
f 110 113 115
f 108 115 109
f 110 115 108
f 42 107 47
f 107 109 119
f 47 119 48
f 107 119 47
f 109 116 120
f 116 118 121
f 120 121 122
f 116 121 120
f 48 123 51
f 123 122 124
f 51 124 52
f 123 124 51
f 109 120 119
f 120 122 123
f 119 123 48
f 120 123 119
f 52 124 125
f 124 122 126
f 125 126 127
f 124 126 125
f 122 121 128
f 121 118 129
f 128 129 130
f 121 129 128
f 127 131 132
f 131 130 133
f 132 133 134
f 131 133 132
f 122 128 126
f 128 130 131
f 126 131 127
f 128 131 126
f 52 125 55
f 125 127 135
f 55 135 56
f 125 135 55
f 127 132 136
f 132 134 137
f 136 137 138
f 132 137 136
f 56 139 58
f 139 138 140
f 58 140 9
f 139 140 58
f 127 136 135
f 136 138 139
f 135 139 56
f 136 139 135
f 9 140 59
f 140 138 141
f 60 142 61
f 140 141 59
f 138 137 143
f 137 134 144
f 145 146 147
f 137 144 143
f 61 148 65
f 148 147 149
f 65 149 67
f 148 149 65
f 138 143 141
f 145 147 148
f 142 148 61
f 145 148 142
f 150 151 152
f 151 153 154
f 152 154 155
f 151 154 152
f 153 156 157
f 156 81 80
f 157 80 77
f 156 80 157
f 155 158 159
f 158 77 76
f 159 76 67
f 158 76 159
f 153 157 154
f 157 77 158
f 154 158 155
f 157 158 154
f 150 160 151
f 160 161 162
f 151 162 153
f 160 162 151
f 161 163 164
f 163 97 96
f 164 96 93
f 163 96 164
f 153 165 156
f 165 93 92
f 156 92 81
f 165 92 156
f 161 164 162
f 164 93 165
f 162 165 153
f 164 165 162
f 150 166 160
f 166 167 168
f 160 168 161
f 166 168 160
f 169 170 171
f 170 118 117
f 171 117 113
f 170 117 171
f 161 172 163
f 172 173 111
f 163 111 97
f 172 111 163
f 167 174 168
f 174 173 172
f 168 172 161
f 174 172 168
f 150 175 166
f 175 176 177
f 166 177 167
f 175 177 166
f 176 178 179
f 180 134 133
f 181 133 130
f 180 133 181
f 169 182 170
f 182 130 129
f 170 129 118
f 182 129 170
f 176 179 177
f 181 130 182
f 183 182 169
f 181 182 183
f 150 152 175
f 152 155 184
f 175 184 176
f 152 184 175
f 155 159 185
f 159 67 149
f 185 149 147
f 159 149 185
f 176 186 178
f 186 147 146
f 180 144 134
f 186 146 178
f 155 185 184
f 185 147 186
f 184 186 176
f 185 186 184
f 12 6 13
f 13 6 18
f 13 18 15
f 15 18 11
f 29 26 27
f 27 26 25
f 31 20 12
f 12 20 6
f 27 25 31
f 31 25 20
f 36 37 29
f 29 37 26
f 62 64 60
f 60 64 59
f 63 10 62
f 62 10 64
f 15 11 63
f 63 11 10
f 98 99 36
f 36 99 37
f 101 103 100
f 100 103 102
f 100 102 98
f 98 102 99
f 111 112 114
f 114 112 110
f 114 110 101
f 101 110 103
f 60 59 142
f 142 59 141
f 145 143 146
f 146 143 144
f 142 141 145
f 145 141 143
f 173 113 111
f 111 113 112
f 167 169 174
f 174 169 171
f 174 171 173
f 173 171 113
f 177 183 167
f 167 183 169
f 178 180 179
f 179 180 181
f 179 181 177
f 177 181 183
f 146 144 178
f 178 144 180
