v 0.586557 1.22642 0.0275571
v 0.621427 1.1826 0.0230827
v 0.615844 1.23139 -0.0201246
v 0.644694 1.13317 0.0100001
v 0.648089 1.18377 -0.0285553
v 0.633953 1.22703 -0.0731253
v 0.654586 1.08189 -0.0106949
v 0.667802 1.12389 -0.0486365
v 0.650351 1.03266 -0.0374269
v 0.668493 1.07148 -0.0737562
v 0.67145 1.11314 -0.111322
v 0.633953 1.22488 -0.153125
v 0.662156 1.17109 -0.172338
v 0.639506 1.21153 -0.207411
v 0.67145 1.11099 -0.191322
v 0.658996 1.15233 -0.227265
v 0.632078 1.1902 -0.258848
v 0.662156 1.17324 -0.0923381
v 0.563604 1.26713 -0.00362088
v 0.589605 1.26926 -0.0555644
v 0.53345 1.29579 -0.0413743
v 0.603671 1.25658 -0.199347
v 0.601173 1.23686 -0.253968
v 0.560207 1.27361 -0.242696
v 0.550834 1.29488 -0.102655
v 0.49839 1.31022 -0.0828292
v 0.550834 1.29272 -0.182655
v 0.512297 1.29765 -0.22589
v 0.49839 1.30806 -0.162829
v 0.461092 1.30717 -0.20483
v 0.603671 1.25873 -0.119347
v 0.536901 1.24042 0.0497862
v 0.509758 1.2784 0.0151463
v 0.482076 1.24441 0.0613744
v 0.470987 1.30401 -0.0319439
v 0.461092 1.30932 -0.12483
v 0.433354 1.30884 -0.0759797
v 0.408329 1.29314 -0.0281965
v 0.443978 1.277 0.0220742
v 0.426255 1.23808 0.0614394
v 0.387923 1.26341 0.0148819
v 0.373689 1.22192 0.0499764
v 0.572637 1.18818 0.0662899
v 0.518894 1.19855 0.085857
v 0.550828 1.14391 0.0931254
v 0.453114 1.19716 0.0927849
v 0.396956 1.18447 0.0847927
v 0.425707 1.14126 0.106303
v 0.489259 1.14432 0.109477
v 0.52279 1.09697 0.106021
v 0.457754 1.09559 0.11287
v 0.490657 1.05093 0.103995
v 0.604387 1.14006 0.0588479
v 0.574752 1.08584 0.0824683
v 0.54228 1.03777 0.0861669
v 0.588325 1.03002 0.0549288
v 0.6241 1.08019 0.0387667
v 0.625286 1.02827 0.0126583
v 0.647789 1.01143 -0.0893769
v 0.647789 1.00928 -0.169377
v 0.631618 0.995465 -0.221374
v 0.660928 1.05048 -0.208219
v 0.668493 1.06932 -0.153756
v 0.603068 0.990122 -0.269461
v 0.63434 1.03909 -0.26772
v 0.564312 0.993654 -0.309976
v 0.597485 1.03891 -0.312668
v 0.620878 1.08933 -0.3045
v 0.655281 1.09982 -0.25192
v 0.632709 1.14107 -0.286093
v 0.596973 1.19331 -0.302596
v 0.592549 1.14127 -0.328114
v 0.552126 1.18983 -0.336251
v 0.571608 1.08054 -0.343913
v 0.541045 1.0311 -0.344793
v 0.512293 1.07431 -0.366303
v 0.535462 1.13338 -0.360606
v 0.500951 1.18003 -0.35725
v 0.480246 1.11998 -0.37287
v 0.447343 1.16464 -0.363994
v 0.560652 1.23815 -0.295622
v 0.503566 1.23026 -0.328114
v 0.448711 1.21576 -0.340746
v 0.451622 1.25859 -0.3045
v 0.507814 1.2743 -0.278929
v 0.455857 1.28985 -0.258015
v 0.407067 1.29543 -0.214808
v 0.40138 1.27205 -0.26772
v 0.357757 1.26933 -0.221374
v 0.397131 1.22801 -0.316904
v 0.39572 1.1778 -0.346167
v 0.349675 1.18555 -0.314929
v 0.347783 1.23365 -0.273203
v 0.316915 1.23084 -0.22403
v 0.312714 1.1873 -0.272658
v 0.28765 1.18291 -0.222573
v 0.433354 1.30669 -0.15598
v 0.378619 1.28908 -0.164517
v 0.378619 1.29123 -0.0845171
v 0.325023 1.25069 -0.17
v 0.290211 1.20414 -0.170623
v 0.325023 1.25284 -0.09
v 0.290211 1.20629 -0.0906231
v 0.306382 1.2201 -0.0386256
v 0.35161 1.26423 -0.0304989
v 0.334933 1.22545 0.00946102
v 0.340515 1.17666 0.0526683
v 0.30366 1.17648 0.0077198
v 0.317123 1.12624 0.0444997
v 0.277073 1.16509 -0.0517813
v 0.269507 1.14409 -0.186244
v 0.269507 1.14624 -0.106244
v 0.26655 1.10458 -0.068678
v 0.282719 1.11575 -0.00807966
v 0.305291 1.0745 0.0260927
v 0.279005 1.06324 -0.0327353
v 0.305922 1.02537 -0.00115173
v 0.366393 1.13503 0.0839134
v 0.345452 1.0743 0.0681139
v 0.341028 1.02226 0.0425964
v 0.385875 1.02574 0.0762508
v 0.402538 1.08219 0.100606
v 0.43705 1.03554 0.0972497
v 0.48929 0.999805 0.080746
v 0.434435 0.985313 0.0681139
v 0.486378 0.956983 0.0444997
v 0.377348 0.977415 0.0356219
v 0.336827 0.978713 -0.00603173
v 0.377794 0.941961 -0.0173037
v 0.430186 0.94127 0.0189294
v 0.482144 0.925723 -0.00198513
v 0.425703 0.917914 -0.0341095
v 0.476909 0.908403 -0.0551699
v 0.540869 0.987564 0.0569043
v 0.53662 0.943521 0.00771976
v 0.530933 0.92014 -0.0451923
v 0.580244 0.946243 -0.0386257
v 0.590217 0.981917 0.0132027
v 0.621086 0.984725 -0.0359698
v 0.612978 0.964884 -0.09
v 0.612978 0.962731 -0.17
v 0.559381 0.926487 -0.0954829
v 0.504647 0.908882 -0.10402
v 0.559381 0.924335 -0.175483
v 0.504647 0.906729 -0.18402
v 0.529671 0.922431 -0.231803
v 0.58639 0.951344 -0.229501
v 0.550077 0.95216 -0.274882
v 0.351443 0.989151 -0.287557
v 0.365363 1.02739 -0.32629
v 0.401099 0.975147 -0.309786
v 0.387172 1.07166 -0.353125
v 0.419106 1.01702 -0.345857
v 0.455925 0.971158 -0.321374
v 0.41521 1.1186 -0.366021
v 0.448741 1.07125 -0.369477
v 0.484886 1.01841 -0.352785
v 0.511745 0.977488 -0.321439
v 0.316573 1.03297 -0.283083
v 0.293307 1.0824 -0.27
v 0.333613 1.0755 -0.318848
v 0.283415 1.13368 -0.249305
v 0.3139 1.13538 -0.298767
v 0.363248 1.12973 -0.342468
v 0.322156 0.98418 -0.239875
v 0.304047 0.988536 -0.186875
v 0.289912 1.0318 -0.231445
v 0.304047 0.990689 -0.106875
v 0.298495 1.00404 -0.0525892
v 0.275845 1.04448 -0.0876618
v 0.270198 1.09168 -0.211363
v 0.26655 1.10243 -0.148678
v 0.275845 1.04233 -0.167662
v 0.374396 0.948444 -0.256379
v 0.40455 0.919784 -0.218626
v 0.348396 0.94631 -0.204436
v 0.439611 0.905353 -0.177171
v 0.387167 0.920692 -0.157345
v 0.439611 0.907506 -0.0971707
v 0.387167 0.922844 -0.0773453
v 0.334329 0.95899 -0.0606528
v 0.334329 0.956837 -0.140653
v 0.428243 0.937173 -0.275146
v 0.494023 0.938565 -0.282074
v 0.467014 0.911556 -0.228056
v 0.476909 0.906251 -0.13517
f 1 2 3
f 2 4 5
f 3 5 6
f 2 5 3
f 4 7 8
f 7 9 10
f 8 10 11
f 7 10 8
f 12 13 14
f 13 15 16
f 14 16 17
f 13 16 14
f 4 8 5
f 8 11 18
f 5 18 6
f 8 18 5
f 1 3 19
f 3 6 20
f 19 20 21
f 3 20 19
f 12 14 22
f 14 17 23
f 22 23 24
f 14 23 22
f 21 25 26
f 27 24 28
f 29 28 30
f 27 28 29
f 6 31 20
f 22 24 27
f 20 25 21
f 31 25 20
f 1 19 32
f 19 21 33
f 32 33 34
f 19 33 32
f 21 26 35
f 26 36 37
f 35 37 38
f 26 37 35
f 34 39 40
f 39 38 41
f 40 41 42
f 39 41 40
f 21 35 33
f 35 38 39
f 33 39 34
f 35 39 33
f 1 32 43
f 32 34 44
f 43 44 45
f 32 44 43
f 34 40 46
f 40 42 47
f 46 47 48
f 40 47 46
f 45 49 50
f 49 48 51
f 50 51 52
f 49 51 50
f 34 46 44
f 46 48 49
f 44 49 45
f 46 49 44
f 1 43 2
f 43 45 53
f 2 53 4
f 43 53 2
f 45 50 54
f 50 52 55
f 54 55 56
f 50 55 54
f 4 57 7
f 57 56 58
f 7 58 9
f 57 58 7
f 45 54 53
f 54 56 57
f 53 57 4
f 54 57 53
f 9 59 10
f 60 61 62
f 63 62 15
f 60 62 63
f 61 64 65
f 64 66 67
f 65 67 68
f 64 67 65
f 15 69 16
f 69 68 70
f 16 70 17
f 69 70 16
f 61 65 62
f 65 68 69
f 62 69 15
f 65 69 62
f 17 70 71
f 70 68 72
f 71 72 73
f 70 72 71
f 68 67 74
f 67 66 75
f 74 75 76
f 67 75 74
f 73 77 78
f 77 76 79
f 78 79 80
f 77 79 78
f 68 74 72
f 74 76 77
f 72 77 73
f 74 77 72
f 17 71 23
f 71 73 81
f 23 81 24
f 71 81 23
f 73 78 82
f 78 80 83
f 82 83 84
f 78 83 82
f 24 85 28
f 85 84 86
f 28 86 30
f 85 86 28
f 73 82 81
f 82 84 85
f 81 85 24
f 82 85 81
f 30 86 87
f 86 84 88
f 87 88 89
f 86 88 87
f 84 83 90
f 83 80 91
f 90 91 92
f 83 91 90
f 89 93 94
f 93 92 95
f 94 95 96
f 93 95 94
f 84 90 88
f 90 92 93
f 88 93 89
f 90 93 88
f 30 87 97
f 87 89 98
f 37 99 38
f 87 98 97
f 89 94 100
f 94 96 101
f 102 103 104
f 94 101 100
f 38 105 41
f 105 104 106
f 41 106 42
f 105 106 41
f 89 100 98
f 102 104 105
f 99 105 38
f 102 105 99
f 42 106 107
f 106 104 108
f 107 108 109
f 106 108 107
f 104 103 110
f 101 96 111
f 110 112 113
f 103 112 110
f 109 114 115
f 114 113 116
f 115 116 117
f 114 116 115
f 104 110 108
f 110 113 114
f 108 114 109
f 110 114 108
f 42 107 47
f 107 109 118
f 47 118 48
f 107 118 47
f 109 115 119
f 115 117 120
f 119 120 121
f 115 120 119
f 48 122 51
f 122 121 123
f 51 123 52
f 122 123 51
f 109 119 118
f 119 121 122
f 118 122 48
f 119 122 118
f 52 123 124
f 123 121 125
f 124 125 126
f 123 125 124
f 121 120 127
f 120 117 128
f 127 128 129
f 120 128 127
f 126 130 131
f 130 129 132
f 131 132 133
f 130 132 131
f 121 127 125
f 127 129 130
f 125 130 126
f 127 130 125
f 52 124 55
f 124 126 134
f 55 134 56
f 124 134 55
f 126 131 135
f 131 133 136
f 135 136 137
f 131 136 135
f 56 138 58
f 138 137 139
f 58 139 9
f 138 139 58
f 126 135 134
f 135 137 138
f 134 138 56
f 135 138 134
f 9 139 59
f 139 137 140
f 60 141 61
f 139 140 59
f 137 136 142
f 136 133 143
f 144 145 146
f 136 143 142
f 61 147 64
f 147 146 148
f 64 148 66
f 147 148 64
f 137 142 140
f 144 146 147
f 141 147 61
f 144 147 141
f 149 150 151
f 150 152 153
f 151 153 154
f 150 153 151
f 152 155 156
f 155 80 79
f 156 79 76
f 155 79 156
f 154 157 158
f 157 76 75
f 158 75 66
f 157 75 158
f 152 156 153
f 156 76 157
f 153 157 154
f 156 157 153
f 149 159 150
f 159 160 161
f 150 161 152
f 159 161 150
f 160 162 163
f 162 96 95
f 163 95 92
f 162 95 163
f 152 164 155
f 164 92 91
f 155 91 80
f 164 91 155
f 160 163 161
f 163 92 164
f 161 164 152
f 163 164 161
f 149 165 159
f 165 166 167
f 159 167 160
f 165 167 159
f 168 169 170
f 169 117 116
f 170 116 113
f 169 116 170
f 160 171 162
f 171 172 111
f 162 111 96
f 171 111 162
f 166 173 167
f 173 172 171
f 167 171 160
f 173 171 167
f 149 174 165
f 174 175 176
f 165 176 166
f 174 176 165
f 175 177 178
f 179 133 132
f 180 132 129
f 179 132 180
f 168 181 169
f 181 129 128
f 169 128 117
f 181 128 169
f 175 178 176
f 180 129 181
f 176 182 166
f 178 182 176
f 149 151 174
f 151 154 183
f 174 183 175
f 151 183 174
f 154 158 184
f 158 66 148
f 184 148 146
f 158 148 184
f 175 185 177
f 185 146 145
f 177 145 186
f 185 145 177
f 154 184 183
f 184 146 185
f 183 185 175
f 184 185 183
f 12 6 13
f 13 6 18
f 13 18 15
f 15 18 11
f 22 31 12
f 12 31 6
f 30 36 29
f 29 36 26
f 29 26 27
f 27 26 25
f 27 25 22
f 22 25 31
f 15 11 63
f 63 11 10
f 63 10 60
f 60 10 59
f 97 37 30
f 30 37 36
f 98 99 97
f 97 99 37
f 101 103 100
f 100 103 102
f 100 102 98
f 98 102 99
f 111 112 101
f 101 112 103
f 60 59 141
f 141 59 140
f 144 142 145
f 145 142 143
f 141 140 144
f 144 140 142
f 172 113 111
f 111 113 112
f 166 168 173
f 173 168 170
f 173 170 172
f 172 170 113
f 177 179 178
f 178 179 180
f 182 181 166
f 166 181 168
f 178 180 182
f 182 180 181
f 145 143 186
f 186 143 133
f 186 133 177
f 177 133 179
