v 0.586557 1.2129 0.267557
v 0.621427 1.16908 0.263083
v 0.615844 1.21787 0.219875
v 0.644694 1.11965 0.25
v 0.648089 1.17024 0.211445
v 0.633953 1.21351 0.166875
v 0.654586 1.06836 0.229305
v 0.667802 1.11037 0.191364
v 0.650351 1.01913 0.202573
v 0.668493 1.05795 0.166244
v 0.67145 1.09962 0.128678
v 0.633953 1.22703 -0.0731253
v 0.662156 1.17324 -0.0923381
v 0.639506 1.21368 -0.127411
v 0.67145 1.11314 -0.111322
v 0.658996 1.15448 -0.147265
v 0.632078 1.19235 -0.178848
v 0.662156 1.15972 0.147662
v 0.563604 1.2536 0.236379
v 0.589605 1.25574 0.184436
v 0.53345 1.28226 0.198626
v 0.603671 1.25873 -0.119347
v 0.601173 1.23901 -0.173968
v 0.560207 1.27576 -0.162696
v 0.550834 1.28136 0.137345
v 0.49839 1.29669 0.157171
v 0.550834 1.29488 -0.102655
v 0.512297 1.29981 -0.14589
v 0.49839 1.31022 -0.0828292
v 0.461092 1.30932 -0.12483
v 0.589605 1.26926 -0.0555644
v 0.536901 1.2269 0.289786
v 0.509758 1.26487 0.255146
v 0.482076 1.23089 0.301374
v 0.470987 1.29049 0.208056
v 0.433354 1.30884 -0.0759797
v 0.433354 1.29532 0.16402
v 0.408329 1.27962 0.211804
v 0.443978 1.26348 0.262074
v 0.426255 1.22456 0.301439
v 0.387923 1.24989 0.254882
v 0.373689 1.20839 0.289976
v 0.572637 1.17466 0.30629
v 0.518894 1.18503 0.325857
v 0.550828 1.13039 0.333126
v 0.453114 1.18364 0.332785
v 0.396956 1.17094 0.324793
v 0.425707 1.12774 0.346303
v 0.489259 1.1308 0.349477
v 0.52279 1.08344 0.346021
v 0.457754 1.08207 0.35287
v 0.490657 1.03741 0.343995
v 0.604387 1.12654 0.298848
v 0.574752 1.07231 0.322468
v 0.54228 1.02425 0.326167
v 0.588325 1.0165 0.294929
v 0.6241 1.06667 0.278767
v 0.625286 1.01475 0.252658
v 0.647789 0.997907 0.150623
v 0.647789 1.01143 -0.0893769
v 0.631618 0.997617 -0.141374
v 0.660928 1.05263 -0.128219
v 0.668493 1.07148 -0.0737562
v 0.603068 0.992274 -0.189461
v 0.63434 1.04124 -0.18772
v 0.564312 0.995806 -0.229976
v 0.597485 1.04106 -0.232668
v 0.620878 1.09148 -0.2245
v 0.655281 1.10198 -0.17192
v 0.632709 1.14322 -0.206093
v 0.596973 1.19546 -0.222596
v 0.592549 1.14343 -0.248114
v 0.552126 1.19199 -0.256251
v 0.571608 1.08269 -0.263913
v 0.541045 1.03326 -0.264793
v 0.512293 1.07646 -0.286303
v 0.535462 1.13553 -0.280606
v 0.500951 1.18218 -0.27725
v 0.480246 1.12213 -0.29287
v 0.447343 1.16679 -0.283994
v 0.560652 1.24031 -0.215622
v 0.503566 1.23241 -0.248114
v 0.448711 1.21792 -0.260746
v 0.451622 1.26074 -0.2245
v 0.507814 1.27645 -0.198929
v 0.455857 1.292 -0.178015
v 0.407067 1.29758 -0.134808
v 0.40138 1.2742 -0.18772
v 0.357757 1.27148 -0.141374
v 0.397131 1.23016 -0.236904
v 0.39572 1.17995 -0.266167
v 0.349675 1.1877 -0.234929
v 0.347783 1.2358 -0.193203
v 0.316915 1.233 -0.14403
v 0.312714 1.18945 -0.192658
v 0.28765 1.18507 -0.142573
v 0.378619 1.29123 -0.0845171
v 0.378619 1.27771 0.155483
v 0.325023 1.25284 -0.09
v 0.290211 1.20629 -0.0906231
v 0.325023 1.23932 0.15
v 0.290211 1.19277 0.149377
v 0.306382 1.20658 0.201374
v 0.35161 1.2507 0.209501
v 0.334933 1.21193 0.249461
v 0.340515 1.16314 0.292668
v 0.30366 1.16296 0.24772
v 0.317123 1.11272 0.2845
v 0.277073 1.15157 0.188219
v 0.269507 1.14624 -0.106244
v 0.269507 1.13272 0.133756
v 0.26655 1.09106 0.171322
v 0.282719 1.10222 0.23192
v 0.305291 1.06098 0.266093
v 0.279005 1.04972 0.207265
v 0.305922 1.01185 0.238848
v 0.366393 1.12151 0.323913
v 0.345452 1.06077 0.308114
v 0.341028 1.00874 0.282596
v 0.385875 1.01221 0.316251
v 0.402538 1.06867 0.340606
v 0.43705 1.02202 0.33725
v 0.48929 0.986283 0.320746
v 0.434435 0.97179 0.308114
v 0.486378 0.943461 0.2845
v 0.377348 0.963893 0.275622
v 0.336827 0.96519 0.233968
v 0.377794 0.928439 0.222696
v 0.430186 0.927747 0.258929
v 0.482144 0.912201 0.238015
v 0.425703 0.904392 0.205891
v 0.476909 0.894881 0.18483
v 0.540869 0.974042 0.296904
v 0.53662 0.929999 0.24772
v 0.530933 0.906618 0.194808
v 0.580244 0.932721 0.201374
v 0.590217 0.968395 0.253203
v 0.621086 0.971203 0.20403
v 0.612978 0.951361 0.15
v 0.612978 0.964884 -0.09
v 0.559381 0.912965 0.144517
v 0.504647 0.895359 0.13598
v 0.559381 0.926487 -0.0954829
v 0.504647 0.908882 -0.10402
v 0.529671 0.924583 -0.151803
v 0.58639 0.953496 -0.149501
v 0.550077 0.954312 -0.194882
v 0.351443 0.991304 -0.207557
v 0.365363 1.02954 -0.24629
v 0.401099 0.9773 -0.229786
v 0.387172 1.07381 -0.273125
v 0.419106 1.01917 -0.265857
v 0.455925 0.973311 -0.241374
v 0.41521 1.12076 -0.286021
v 0.448741 1.0734 -0.289477
v 0.484886 1.02056 -0.272785
v 0.511745 0.97964 -0.241439
v 0.316573 1.03512 -0.203083
v 0.293307 1.08455 -0.19
v 0.333613 1.07766 -0.238848
v 0.283415 1.13584 -0.169305
v 0.3139 1.13753 -0.218767
v 0.363248 1.13189 -0.262468
v 0.322156 0.986333 -0.159875
v 0.304047 0.990689 -0.106875
v 0.289912 1.03396 -0.151445
v 0.304047 0.977167 0.133125
v 0.298495 0.990518 0.187411
v 0.275845 1.03096 0.152338
v 0.270198 1.09383 -0.131363
v 0.26655 1.10458 -0.068678
v 0.275845 1.04448 -0.0876618
v 0.374396 0.950596 -0.176379
v 0.40455 0.921937 -0.138626
v 0.348396 0.948462 -0.124436
v 0.439611 0.907506 -0.0971707
v 0.387167 0.922844 -0.0773453
v 0.439611 0.893984 0.142829
v 0.387167 0.909322 0.162655
v 0.334329 0.945468 0.179347
v 0.348396 0.93494 0.115565
v 0.428243 0.939326 -0.195146
v 0.494023 0.940717 -0.202074
v 0.467014 0.913708 -0.148056
f 1 2 3
f 2 4 5
f 3 5 6
f 2 5 3
f 4 7 8
f 7 9 10
f 8 10 11
f 7 10 8
f 12 13 14
f 13 15 16
f 14 16 17
f 13 16 14
f 4 8 5
f 8 11 18
f 5 18 6
f 8 18 5
f 1 3 19
f 3 6 20
f 19 20 21
f 3 20 19
f 12 14 22
f 14 17 23
f 22 23 24
f 14 23 22
f 21 25 26
f 27 24 28
f 29 28 30
f 27 28 29
f 12 22 31
f 22 24 27
f 20 25 21
f 22 27 31
f 1 19 32
f 19 21 33
f 32 33 34
f 19 33 32
f 21 26 35
f 29 30 36
f 35 37 38
f 26 37 35
f 34 39 40
f 39 38 41
f 40 41 42
f 39 41 40
f 21 35 33
f 35 38 39
f 33 39 34
f 35 39 33
f 1 32 43
f 32 34 44
f 43 44 45
f 32 44 43
f 34 40 46
f 40 42 47
f 46 47 48
f 40 47 46
f 45 49 50
f 49 48 51
f 50 51 52
f 49 51 50
f 34 46 44
f 46 48 49
f 44 49 45
f 46 49 44
f 1 43 2
f 43 45 53
f 2 53 4
f 43 53 2
f 45 50 54
f 50 52 55
f 54 55 56
f 50 55 54
f 4 57 7
f 57 56 58
f 7 58 9
f 57 58 7
f 45 54 53
f 54 56 57
f 53 57 4
f 54 57 53
f 9 59 10
f 60 61 62
f 63 62 15
f 60 62 63
f 61 64 65
f 64 66 67
f 65 67 68
f 64 67 65
f 15 69 16
f 69 68 70
f 16 70 17
f 69 70 16
f 61 65 62
f 65 68 69
f 62 69 15
f 65 69 62
f 17 70 71
f 70 68 72
f 71 72 73
f 70 72 71
f 68 67 74
f 67 66 75
f 74 75 76
f 67 75 74
f 73 77 78
f 77 76 79
f 78 79 80
f 77 79 78
f 68 74 72
f 74 76 77
f 72 77 73
f 74 77 72
f 17 71 23
f 71 73 81
f 23 81 24
f 71 81 23
f 73 78 82
f 78 80 83
f 82 83 84
f 78 83 82
f 24 85 28
f 85 84 86
f 28 86 30
f 85 86 28
f 73 82 81
f 82 84 85
f 81 85 24
f 82 85 81
f 30 86 87
f 86 84 88
f 87 88 89
f 86 88 87
f 84 83 90
f 83 80 91
f 90 91 92
f 83 91 90
f 89 93 94
f 93 92 95
f 94 95 96
f 93 95 94
f 84 90 88
f 90 92 93
f 88 93 89
f 90 93 88
f 30 87 36
f 87 89 97
f 37 98 38
f 87 97 36
f 89 94 99
f 94 96 100
f 101 102 103
f 94 100 99
f 38 104 41
f 104 103 105
f 41 105 42
f 104 105 41
f 89 99 97
f 101 103 104
f 98 104 38
f 101 104 98
f 42 105 106
f 105 103 107
f 106 107 108
f 105 107 106
f 103 102 109
f 100 96 110
f 109 111 112
f 102 111 109
f 108 113 114
f 113 112 115
f 114 115 116
f 113 115 114
f 103 109 107
f 109 112 113
f 107 113 108
f 109 113 107
f 42 106 47
f 106 108 117
f 47 117 48
f 106 117 47
f 108 114 118
f 114 116 119
f 118 119 120
f 114 119 118
f 48 121 51
f 121 120 122
f 51 122 52
f 121 122 51
f 108 118 117
f 118 120 121
f 117 121 48
f 118 121 117
f 52 122 123
f 122 120 124
f 123 124 125
f 122 124 123
f 120 119 126
f 119 116 127
f 126 127 128
f 119 127 126
f 125 129 130
f 129 128 131
f 130 131 132
f 129 131 130
f 120 126 124
f 126 128 129
f 124 129 125
f 126 129 124
f 52 123 55
f 123 125 133
f 55 133 56
f 123 133 55
f 125 130 134
f 130 132 135
f 134 135 136
f 130 135 134
f 56 137 58
f 137 136 138
f 58 138 9
f 137 138 58
f 125 134 133
f 134 136 137
f 133 137 56
f 134 137 133
f 9 138 59
f 138 136 139
f 60 140 61
f 138 139 59
f 136 135 141
f 135 132 142
f 143 144 145
f 135 142 141
f 61 146 64
f 146 145 147
f 64 147 66
f 146 147 64
f 136 141 139
f 143 145 146
f 140 146 61
f 143 146 140
f 148 149 150
f 149 151 152
f 150 152 153
f 149 152 150
f 151 154 155
f 154 80 79
f 155 79 76
f 154 79 155
f 153 156 157
f 156 76 75
f 157 75 66
f 156 75 157
f 151 155 152
f 155 76 156
f 152 156 153
f 155 156 152
f 148 158 149
f 158 159 160
f 149 160 151
f 158 160 149
f 159 161 162
f 161 96 95
f 162 95 92
f 161 95 162
f 151 163 154
f 163 92 91
f 154 91 80
f 163 91 154
f 159 162 160
f 162 92 163
f 160 163 151
f 162 163 160
f 148 164 158
f 164 165 166
f 158 166 159
f 164 166 158
f 167 168 169
f 168 116 115
f 169 115 112
f 168 115 169
f 159 170 161
f 170 171 110
f 161 110 96
f 170 110 161
f 165 172 166
f 172 171 170
f 166 170 159
f 172 170 166
f 148 173 164
f 173 174 175
f 164 175 165
f 173 175 164
f 174 176 177
f 178 132 131
f 179 131 128
f 178 131 179
f 167 180 168
f 180 128 127
f 168 127 116
f 180 127 168
f 174 177 175
f 179 128 180
f 181 180 167
f 179 180 181
f 148 150 173
f 150 153 182
f 173 182 174
f 150 182 173
f 153 157 183
f 157 66 147
f 183 147 145
f 157 147 183
f 174 184 176
f 184 145 144
f 178 142 132
f 184 144 176
f 153 183 182
f 183 145 184
f 182 184 174
f 183 184 182
f 12 6 13
f 13 6 18
f 13 18 15
f 15 18 11
f 29 26 27
f 27 26 25
f 31 20 12
f 12 20 6
f 27 25 31
f 31 25 20
f 36 37 29
f 29 37 26
f 15 11 63
f 63 11 10
f 63 10 60
f 60 10 59
f 97 98 36
f 36 98 37
f 100 102 99
f 99 102 101
f 99 101 97
f 97 101 98
f 110 111 100
f 100 111 102
f 60 59 140
f 140 59 139
f 143 141 144
f 144 141 142
f 140 139 143
f 143 139 141
f 171 112 110
f 110 112 111
f 165 167 172
f 172 167 169
f 172 169 171
f 171 169 112
f 175 181 165
f 165 181 167
f 176 178 177
f 177 178 179
f 177 179 175
f 175 179 181
f 144 142 176
f 176 142 178
