v 0.586557 1.16149 0.467557
v 0.621427 1.11768 0.463083
v 0.615844 1.16647 0.419876
v 0.644694 1.06824 0.45
v 0.648089 1.11884 0.411445
v 0.633953 1.16211 0.366875
v 0.654586 1.01696 0.429305
v 0.667802 1.05897 0.391364
v 0.650351 0.967733 0.402573
v 0.668493 1.00655 0.366244
v 0.67145 1.04822 0.328678
v 0.633953 1.21351 0.166875
v 0.662156 1.15972 0.147662
v 0.639506 1.20016 0.112589
v 0.67145 1.09962 0.128678
v 0.658996 1.14096 0.0927354
v 0.632078 1.17883 0.0611518
v 0.667802 1.11037 0.191364
v 0.662156 1.10831 0.347662
v 0.563604 1.2022 0.436379
v 0.589605 1.20434 0.384436
v 0.53345 1.23086 0.398626
v 0.603671 1.24521 0.120653
v 0.601173 1.22549 0.0660318
v 0.560207 1.26224 0.0773038
v 0.53345 1.28226 0.198626
v 0.550834 1.28136 0.137345
v 0.49839 1.29669 0.157171
v 0.512297 1.28629 0.0941096
v 0.461092 1.2958 0.11517
v 0.589605 1.25574 0.184436
v 0.536901 1.1755 0.489786
v 0.509758 1.21347 0.455146
v 0.482076 1.17949 0.501374
v 0.470987 1.29049 0.208056
v 0.433354 1.29532 0.16402
v 0.408329 1.27962 0.211804
v 0.443978 1.21208 0.462074
v 0.426255 1.17316 0.50144
v 0.408329 1.22821 0.411804
v 0.387923 1.19849 0.454882
v 0.373689 1.15699 0.489976
v 0.470987 1.23909 0.408056
v 0.572637 1.12326 0.50629
v 0.518894 1.13363 0.525857
v 0.550828 1.07898 0.533126
v 0.453114 1.13223 0.532785
v 0.396956 1.11954 0.524793
v 0.425707 1.07634 0.546303
v 0.489259 1.0794 0.549478
v 0.52279 1.03204 0.546021
v 0.457754 1.03067 0.552871
v 0.490657 0.986005 0.543995
v 0.604387 1.07514 0.498848
v 0.574752 1.02091 0.522468
v 0.54228 0.972843 0.526167
v 0.588325 0.965094 0.494929
v 0.6241 1.01527 0.478767
v 0.625286 0.963346 0.452658
v 0.647789 0.946505 0.350623
v 0.647789 0.997907 0.150623
v 0.631618 0.984095 0.0986258
v 0.660928 1.03911 0.111781
v 0.668493 1.05795 0.166244
v 0.660928 0.987704 0.311781
v 0.603068 0.978752 0.0505391
v 0.63434 1.02772 0.0522803
v 0.564312 0.982284 0.0100238
v 0.597485 1.02754 0.00733189
v 0.620878 1.07796 0.0155004
v 0.655281 1.08845 0.0680798
v 0.632709 1.1297 0.0339074
v 0.596973 1.18194 0.0174038
v 0.592549 1.1299 -0.00811382
v 0.552126 1.17846 -0.0162507
v 0.571608 1.06917 -0.0239132
v 0.541045 1.01973 -0.0247925
v 0.512293 1.06294 -0.046303
v 0.535462 1.12201 -0.0406058
v 0.500951 1.16866 -0.0372496
v 0.480246 1.10861 -0.0528703
v 0.447343 1.15327 -0.0439944
v 0.560652 1.22678 0.0243782
v 0.503566 1.21889 -0.00811382
v 0.448711 1.20439 -0.0207459
v 0.451622 1.24722 0.0155004
v 0.507814 1.26293 0.0410707
v 0.455857 1.27848 0.0619852
v 0.407067 1.28406 0.105192
v 0.40138 1.26068 0.0522803
v 0.357757 1.25796 0.0986258
v 0.397131 1.21664 0.00309582
v 0.39572 1.16643 -0.0261667
v 0.349675 1.17418 0.0050713
v 0.347783 1.22228 0.0467975
v 0.316915 1.21947 0.0959699
v 0.312714 1.17593 0.0473418
v 0.28765 1.17154 0.097427
v 0.378619 1.27771 0.155483
v 0.325023 1.23932 0.15
v 0.290211 1.19277 0.149377
v 0.306382 1.20658 0.201374
v 0.35161 1.1993 0.409501
v 0.306382 1.15518 0.401374
v 0.334933 1.16052 0.449461
v 0.325023 1.18791 0.35
v 0.35161 1.2507 0.209501
v 0.340515 1.11173 0.492668
v 0.30366 1.11156 0.44772
v 0.317123 1.06131 0.4845
v 0.290211 1.14137 0.349377
v 0.277073 1.10017 0.388219
v 0.269507 1.13272 0.133756
v 0.269507 1.08132 0.333756
v 0.26655 1.03965 0.371322
v 0.277073 1.15157 0.188219
v 0.282719 1.05082 0.43192
v 0.305291 1.00957 0.466093
v 0.279005 0.998315 0.407265
v 0.305922 0.960448 0.438848
v 0.366393 1.07011 0.523914
v 0.345452 1.00937 0.508114
v 0.341028 0.957333 0.482596
v 0.385875 0.960812 0.516251
v 0.402538 1.01727 0.540606
v 0.43705 0.970618 0.53725
v 0.48929 0.934881 0.520746
v 0.434435 0.920389 0.508114
v 0.486378 0.892059 0.4845
v 0.377348 0.912491 0.475622
v 0.336827 0.913789 0.433968
v 0.377794 0.877037 0.422696
v 0.430186 0.876346 0.45893
v 0.482144 0.860799 0.438015
v 0.425703 0.85299 0.405891
v 0.476909 0.843479 0.38483
v 0.540869 0.92264 0.496904
v 0.53662 0.878597 0.44772
v 0.530933 0.855216 0.394808
v 0.580244 0.881319 0.401374
v 0.590217 0.916993 0.453203
v 0.621086 0.919801 0.40403
v 0.612978 0.89996 0.35
v 0.631618 0.932693 0.298626
v 0.559381 0.861563 0.344517
v 0.504647 0.843958 0.33598
v 0.529671 0.859659 0.288197
v 0.58639 0.939974 0.090499
v 0.529671 0.911061 0.0881967
v 0.550077 0.94079 0.0451182
v 0.58639 0.888572 0.290499
v 0.612978 0.951361 0.15
v 0.351443 0.977782 0.032443
v 0.365363 1.01602 -0.00628977
v 0.401099 0.963778 0.0102139
v 0.387172 1.06029 -0.0331253
v 0.419106 1.00565 -0.0258568
v 0.455925 0.959789 -0.00137424
v 0.41521 1.10723 -0.0460207
v 0.448741 1.05988 -0.0494773
v 0.484886 1.00704 -0.0327848
v 0.511745 0.966118 -0.00143926
v 0.316573 1.0216 0.0369175
v 0.293307 1.07103 0.0500001
v 0.333613 1.06413 0.00115226
v 0.283415 1.12231 0.0706951
v 0.3139 1.12401 0.0212334
v 0.363248 1.11836 -0.0224682
v 0.322156 0.972811 0.0801247
v 0.304047 0.977167 0.133125
v 0.289912 1.02043 0.0885555
v 0.304047 0.925765 0.333126
v 0.298495 0.939117 0.387411
v 0.275845 0.979559 0.352338
v 0.270198 1.08031 0.108637
v 0.26655 1.09106 0.171322
v 0.275845 1.03096 0.152338
v 0.270198 1.02891 0.308637
v 0.374396 0.937074 0.063621
v 0.40455 0.908414 0.101374
v 0.348396 0.93494 0.115565
v 0.40455 0.857013 0.301374
v 0.439611 0.842582 0.342829
v 0.387167 0.85792 0.362655
v 0.334329 0.894066 0.379347
v 0.348396 0.883538 0.315565
v 0.428243 0.925804 0.0448538
v 0.494023 0.927195 0.0379259
v 0.467014 0.848784 0.291944
v 0.467014 0.900186 0.0919441
f 1 2 3
f 2 4 5
f 3 5 6
f 2 5 3
f 4 7 8
f 7 9 10
f 8 10 11
f 7 10 8
f 12 13 14
f 13 15 16
f 14 16 17
f 13 16 14
f 4 8 5
f 18 15 13
f 5 19 6
f 8 19 5
f 1 3 20
f 3 6 21
f 20 21 22
f 3 21 20
f 12 14 23
f 14 17 24
f 23 24 25
f 14 24 23
f 26 27 28
f 27 25 29
f 28 29 30
f 27 29 28
f 12 23 31
f 23 25 27
f 31 27 26
f 23 27 31
f 1 20 32
f 20 22 33
f 32 33 34
f 20 33 32
f 26 28 35
f 28 30 36
f 35 36 37
f 28 36 35
f 34 38 39
f 38 40 41
f 39 41 42
f 38 41 39
f 22 43 33
f 43 40 38
f 33 38 34
f 43 38 33
f 1 32 44
f 32 34 45
f 44 45 46
f 32 45 44
f 34 39 47
f 39 42 48
f 47 48 49
f 39 48 47
f 46 50 51
f 50 49 52
f 51 52 53
f 50 52 51
f 34 47 45
f 47 49 50
f 45 50 46
f 47 50 45
f 1 44 2
f 44 46 54
f 2 54 4
f 44 54 2
f 46 51 55
f 51 53 56
f 55 56 57
f 51 56 55
f 4 58 7
f 58 57 59
f 7 59 9
f 58 59 7
f 46 55 54
f 55 57 58
f 54 58 4
f 55 58 54
f 9 60 10
f 61 62 63
f 64 63 15
f 60 65 10
f 62 66 67
f 66 68 69
f 67 69 70
f 66 69 67
f 15 71 16
f 71 70 72
f 16 72 17
f 71 72 16
f 62 67 63
f 67 70 71
f 63 71 15
f 67 71 63
f 17 72 73
f 72 70 74
f 73 74 75
f 72 74 73
f 70 69 76
f 69 68 77
f 76 77 78
f 69 77 76
f 75 79 80
f 79 78 81
f 80 81 82
f 79 81 80
f 70 76 74
f 76 78 79
f 74 79 75
f 76 79 74
f 17 73 24
f 73 75 83
f 24 83 25
f 73 83 24
f 75 80 84
f 80 82 85
f 84 85 86
f 80 85 84
f 25 87 29
f 87 86 88
f 29 88 30
f 87 88 29
f 75 84 83
f 84 86 87
f 83 87 25
f 84 87 83
f 30 88 89
f 88 86 90
f 89 90 91
f 88 90 89
f 86 85 92
f 85 82 93
f 92 93 94
f 85 93 92
f 91 95 96
f 95 94 97
f 96 97 98
f 95 97 96
f 86 92 90
f 92 94 95
f 90 95 91
f 92 95 90
f 30 89 36
f 89 91 99
f 36 99 37
f 89 99 36
f 91 96 100
f 96 98 101
f 100 101 102
f 96 101 100
f 40 103 41
f 103 104 105
f 41 105 42
f 103 105 41
f 91 100 99
f 106 104 103
f 99 107 37
f 100 107 99
f 42 105 108
f 105 104 109
f 108 109 110
f 105 109 108
f 104 111 112
f 101 98 113
f 112 114 115
f 101 113 116
f 110 117 118
f 117 115 119
f 118 119 120
f 117 119 118
f 104 112 109
f 112 115 117
f 109 117 110
f 112 117 109
f 42 108 48
f 108 110 121
f 48 121 49
f 108 121 48
f 110 118 122
f 118 120 123
f 122 123 124
f 118 123 122
f 49 125 52
f 125 124 126
f 52 126 53
f 125 126 52
f 110 122 121
f 122 124 125
f 121 125 49
f 122 125 121
f 53 126 127
f 126 124 128
f 127 128 129
f 126 128 127
f 124 123 130
f 123 120 131
f 130 131 132
f 123 131 130
f 129 133 134
f 133 132 135
f 134 135 136
f 133 135 134
f 124 130 128
f 130 132 133
f 128 133 129
f 130 133 128
f 53 127 56
f 127 129 137
f 56 137 57
f 127 137 56
f 129 134 138
f 134 136 139
f 138 139 140
f 134 139 138
f 57 141 59
f 141 140 142
f 59 142 9
f 141 142 59
f 129 138 137
f 138 140 141
f 137 141 57
f 138 141 137
f 9 142 60
f 142 140 143
f 60 143 144
f 142 143 60
f 140 139 145
f 139 136 146
f 145 146 147
f 139 146 145
f 62 148 66
f 148 149 150
f 66 150 68
f 148 150 66
f 140 145 143
f 145 147 151
f 152 148 62
f 145 151 143
f 153 154 155
f 154 156 157
f 155 157 158
f 154 157 155
f 156 159 160
f 159 82 81
f 160 81 78
f 159 81 160
f 158 161 162
f 161 78 77
f 162 77 68
f 161 77 162
f 156 160 157
f 160 78 161
f 157 161 158
f 160 161 157
f 153 163 154
f 163 164 165
f 154 165 156
f 163 165 154
f 164 166 167
f 166 98 97
f 167 97 94
f 166 97 167
f 156 168 159
f 168 94 93
f 159 93 82
f 168 93 159
f 164 167 165
f 167 94 168
f 165 168 156
f 167 168 165
f 153 169 163
f 169 170 171
f 163 171 164
f 169 171 163
f 172 173 174
f 173 120 119
f 174 119 115
f 173 119 174
f 164 175 166
f 175 176 113
f 166 113 98
f 175 113 166
f 170 177 171
f 174 115 178
f 171 175 164
f 177 175 171
f 153 179 169
f 179 180 181
f 169 181 170
f 179 181 169
f 182 183 184
f 183 136 135
f 184 135 132
f 183 135 184
f 172 185 173
f 185 132 131
f 173 131 120
f 185 131 173
f 182 184 186
f 184 132 185
f 186 185 172
f 184 185 186
f 153 155 179
f 155 158 187
f 179 187 180
f 155 187 179
f 158 162 188
f 162 68 150
f 188 150 149
f 162 150 188
f 182 189 183
f 189 147 146
f 183 146 136
f 189 146 183
f 158 188 187
f 188 149 190
f 187 190 180
f 188 190 187
f 12 6 13
f 13 6 19
f 18 8 15
f 15 8 11
f 13 19 18
f 18 19 8
f 31 21 12
f 12 21 6
f 26 22 31
f 31 22 21
f 35 43 26
f 26 43 22
f 37 40 35
f 35 40 43
f 61 60 62
f 62 60 144
f 63 65 61
f 61 65 60
f 64 10 63
f 63 10 65
f 15 11 64
f 64 11 10
f 101 111 102
f 102 111 104
f 102 104 100
f 100 104 106
f 107 103 37
f 37 103 40
f 100 106 107
f 107 106 103
f 113 114 116
f 116 114 112
f 116 112 101
f 101 112 111
f 148 151 149
f 149 151 147
f 152 143 148
f 148 143 151
f 62 144 152
f 152 144 143
f 175 178 176
f 176 178 115
f 176 115 113
f 113 115 114
f 170 172 177
f 177 172 174
f 177 174 175
f 175 174 178
f 180 182 181
f 181 182 186
f 181 186 170
f 170 186 172
f 149 147 190
f 190 147 189
f 190 189 180
f 180 189 182
