v 0.586557 1.06187 0.747557
v 0.621427 1.01805 0.743083
v 0.615844 1.06684 0.699876
v 0.644694 0.968616 0.73
v 0.648089 1.01921 0.691445
v 0.633953 1.06248 0.646875
v 0.654586 0.917334 0.709305
v 0.667802 0.959339 0.671364
v 0.650351 0.868105 0.682573
v 0.668493 0.906925 0.646244
v 0.67145 0.948592 0.608678
v 0.633953 1.16211 0.366875
v 0.662156 1.10831 0.347662
v 0.639506 1.14876 0.312589
v 0.67145 1.04822 0.328678
v 0.658996 1.08956 0.292735
v 0.632078 1.12743 0.261152
v 0.667802 1.05897 0.391364
v 0.648089 1.11884 0.411445
v 0.662156 1.00869 0.627662
v 0.563604 1.10257 0.716379
v 0.615844 1.16647 0.419876
v 0.589605 1.20434 0.384436
v 0.563604 1.2022 0.436379
v 0.53345 1.23086 0.398626
v 0.589605 1.10471 0.664436
v 0.603671 1.19381 0.320653
v 0.601173 1.17409 0.266032
v 0.560207 1.21084 0.277304
v 0.550834 1.22995 0.337345
v 0.49839 1.24529 0.357171
v 0.512297 1.23488 0.29411
v 0.461092 1.24439 0.31517
v 0.536901 1.07587 0.769786
v 0.53345 1.13123 0.678626
v 0.509758 1.11384 0.735146
v 0.482076 1.07986 0.781374
v 0.470987 1.23909 0.408056
v 0.433354 1.24392 0.36402
v 0.408329 1.22821 0.411804
v 0.443978 1.11245 0.742074
v 0.426255 1.07353 0.781439
v 0.408329 1.12859 0.691804
v 0.387923 1.09886 0.734882
v 0.373689 1.05736 0.769976
v 0.470987 1.13946 0.688056
v 0.572637 1.02363 0.78629
v 0.518894 1.034 0.805857
v 0.550828 0.979356 0.813125
v 0.453114 1.03261 0.812785
v 0.396956 1.01991 0.804793
v 0.425707 0.97671 0.826303
v 0.489259 0.979768 0.829478
v 0.52279 0.932414 0.826021
v 0.457754 0.931038 0.83287
v 0.490657 0.886377 0.823995
v 0.604387 0.975513 0.778848
v 0.574752 0.921284 0.802468
v 0.54228 0.873216 0.806167
v 0.588325 0.865466 0.774929
v 0.6241 0.915638 0.758767
v 0.625286 0.863718 0.732658
v 0.647789 0.846877 0.630623
v 0.647789 0.946505 0.350623
v 0.631618 0.932693 0.298626
v 0.660928 0.987704 0.311781
v 0.668493 1.00655 0.366244
v 0.660928 0.888076 0.591781
v 0.603068 0.92735 0.250539
v 0.63434 0.976317 0.25228
v 0.564312 0.930882 0.210024
v 0.597485 0.97614 0.207332
v 0.620878 1.02656 0.2155
v 0.655281 1.03705 0.26808
v 0.632709 1.0783 0.233907
v 0.596973 1.13054 0.217404
v 0.592549 1.0785 0.191886
v 0.552126 1.12706 0.183749
v 0.571608 1.01777 0.176087
v 0.541045 0.968332 0.175208
v 0.512293 1.01154 0.153697
v 0.535462 1.0706 0.159394
v 0.500951 1.11726 0.16275
v 0.480246 1.05721 0.14713
v 0.447343 1.10187 0.156006
v 0.560652 1.17538 0.224378
v 0.503566 1.16749 0.191886
v 0.448711 1.15299 0.179254
v 0.451622 1.19581 0.2155
v 0.507814 1.21153 0.241071
v 0.455857 1.22708 0.261985
v 0.407067 1.23266 0.305193
v 0.40138 1.20928 0.25228
v 0.357757 1.20655 0.298626
v 0.397131 1.16523 0.203096
v 0.39572 1.11503 0.173833
v 0.349675 1.12278 0.205071
v 0.347783 1.17088 0.246798
v 0.316915 1.16807 0.29597
v 0.312714 1.12453 0.247342
v 0.28765 1.12014 0.297427
v 0.378619 1.22631 0.355483
v 0.325023 1.18791 0.35
v 0.290211 1.14137 0.349377
v 0.306382 1.15518 0.401374
v 0.35161 1.09967 0.689501
v 0.306382 1.05555 0.681374
v 0.334933 1.0609 0.729461
v 0.35161 1.1993 0.409501
v 0.340515 1.01211 0.772668
v 0.30366 1.01193 0.72772
v 0.317123 0.961687 0.7645
v 0.290211 1.04174 0.629377
v 0.277073 1.00054 0.668219
v 0.269507 1.08132 0.333756
v 0.269507 0.981693 0.613756
v 0.26655 0.940027 0.651322
v 0.277073 1.10017 0.388219
v 0.282719 0.951194 0.71192
v 0.305291 0.909946 0.746093
v 0.279005 0.898687 0.687265
v 0.305922 0.86082 0.718848
v 0.366393 0.970479 0.803913
v 0.345452 0.909744 0.788114
v 0.341028 0.857706 0.762596
v 0.385875 0.861184 0.796251
v 0.402538 0.917642 0.820606
v 0.43705 0.87099 0.81725
v 0.48929 0.835254 0.800746
v 0.434435 0.820761 0.788114
v 0.486378 0.792432 0.7645
v 0.377348 0.812863 0.755622
v 0.336827 0.814161 0.713968
v 0.377794 0.777409 0.702696
v 0.430186 0.776718 0.73893
v 0.482144 0.761171 0.718015
v 0.425703 0.753363 0.685891
v 0.476909 0.743852 0.66483
v 0.540869 0.823012 0.776904
v 0.53662 0.778969 0.72772
v 0.530933 0.755589 0.674808
v 0.580244 0.781692 0.681374
v 0.590217 0.817366 0.733203
v 0.621086 0.820174 0.68403
v 0.612978 0.800332 0.63
v 0.631618 0.833066 0.578626
v 0.559381 0.761936 0.624517
v 0.504647 0.74433 0.61598
v 0.529671 0.760032 0.568197
v 0.58639 0.888572 0.290499
v 0.529671 0.859659 0.288197
v 0.550077 0.889388 0.245118
v 0.58639 0.788945 0.570499
v 0.351443 0.92638 0.232443
v 0.365363 0.964616 0.19371
v 0.401099 0.912376 0.210214
v 0.387172 1.00889 0.166875
v 0.419106 0.954249 0.174143
v 0.455925 0.908387 0.198626
v 0.41521 1.05583 0.153979
v 0.448741 1.00848 0.150523
v 0.484886 0.95564 0.167215
v 0.511745 0.914716 0.198561
v 0.316573 0.970199 0.236918
v 0.293307 1.01963 0.25
v 0.333613 1.01273 0.201152
v 0.283415 1.07091 0.270695
v 0.3139 1.07261 0.221233
v 0.363248 1.06696 0.177532
v 0.322156 0.921409 0.280125
v 0.304047 0.925765 0.333126
v 0.289912 0.969031 0.288556
v 0.304047 0.826137 0.613126
v 0.298495 0.839489 0.667411
v 0.275845 0.879931 0.632338
v 0.270198 1.02891 0.308637
v 0.26655 1.03965 0.371322
v 0.289912 0.869404 0.568555
v 0.270198 0.929279 0.588637
v 0.275845 0.979559 0.352338
v 0.374396 0.885672 0.263621
v 0.374396 0.786045 0.543621
v 0.40455 0.757385 0.581374
v 0.348396 0.783911 0.595565
v 0.322156 0.821781 0.560125
v 0.348396 0.883538 0.315565
v 0.439611 0.742954 0.622829
v 0.387167 0.758293 0.642655
v 0.334329 0.794438 0.659347
v 0.428243 0.874402 0.244854
v 0.40455 0.857013 0.301374
v 0.494023 0.875793 0.237926
v 0.467014 0.749157 0.571944
v 0.467014 0.848784 0.291944
f 1 2 3
f 2 4 5
f 3 5 6
f 2 5 3
f 4 7 8
f 7 9 10
f 8 10 11
f 7 10 8
f 12 13 14
f 13 15 16
f 14 16 17
f 13 16 14
f 4 8 5
f 18 15 13
f 19 13 12
f 8 20 5
f 1 3 21
f 22 12 23
f 24 23 25
f 3 26 21
f 12 14 27
f 14 17 28
f 27 28 29
f 14 28 27
f 25 30 31
f 30 29 32
f 31 32 33
f 30 32 31
f 12 27 23
f 27 29 30
f 23 30 25
f 27 30 23
f 1 21 34
f 21 35 36
f 34 36 37
f 21 36 34
f 25 31 38
f 31 33 39
f 38 39 40
f 31 39 38
f 37 41 42
f 41 43 44
f 42 44 45
f 41 44 42
f 35 46 36
f 46 43 41
f 36 41 37
f 46 41 36
f 1 34 47
f 34 37 48
f 47 48 49
f 34 48 47
f 37 42 50
f 42 45 51
f 50 51 52
f 42 51 50
f 49 53 54
f 53 52 55
f 54 55 56
f 53 55 54
f 37 50 48
f 50 52 53
f 48 53 49
f 50 53 48
f 1 47 2
f 47 49 57
f 2 57 4
f 47 57 2
f 49 54 58
f 54 56 59
f 58 59 60
f 54 59 58
f 4 61 7
f 61 60 62
f 7 62 9
f 61 62 7
f 49 58 57
f 58 60 61
f 57 61 4
f 58 61 57
f 9 63 10
f 64 65 66
f 67 66 15
f 63 68 10
f 65 69 70
f 69 71 72
f 70 72 73
f 69 72 70
f 15 74 16
f 74 73 75
f 16 75 17
f 74 75 16
f 65 70 66
f 70 73 74
f 66 74 15
f 70 74 66
f 17 75 76
f 75 73 77
f 76 77 78
f 75 77 76
f 73 72 79
f 72 71 80
f 79 80 81
f 72 80 79
f 78 82 83
f 82 81 84
f 83 84 85
f 82 84 83
f 73 79 77
f 79 81 82
f 77 82 78
f 79 82 77
f 17 76 28
f 76 78 86
f 28 86 29
f 76 86 28
f 78 83 87
f 83 85 88
f 87 88 89
f 83 88 87
f 29 90 32
f 90 89 91
f 32 91 33
f 90 91 32
f 78 87 86
f 87 89 90
f 86 90 29
f 87 90 86
f 33 91 92
f 91 89 93
f 92 93 94
f 91 93 92
f 89 88 95
f 88 85 96
f 95 96 97
f 88 96 95
f 94 98 99
f 98 97 100
f 99 100 101
f 98 100 99
f 89 95 93
f 95 97 98
f 93 98 94
f 95 98 93
f 33 92 39
f 92 94 102
f 39 102 40
f 92 102 39
f 94 99 103
f 99 101 104
f 103 104 105
f 99 104 103
f 43 106 44
f 106 107 108
f 44 108 45
f 106 108 44
f 94 103 102
f 103 105 109
f 102 109 40
f 103 109 102
f 45 108 110
f 108 107 111
f 110 111 112
f 108 111 110
f 107 113 114
f 104 101 115
f 114 116 117
f 104 115 118
f 112 119 120
f 119 117 121
f 120 121 122
f 119 121 120
f 107 114 111
f 114 117 119
f 111 119 112
f 114 119 111
f 45 110 51
f 110 112 123
f 51 123 52
f 110 123 51
f 112 120 124
f 120 122 125
f 124 125 126
f 120 125 124
f 52 127 55
f 127 126 128
f 55 128 56
f 127 128 55
f 112 124 123
f 124 126 127
f 123 127 52
f 124 127 123
f 56 128 129
f 128 126 130
f 129 130 131
f 128 130 129
f 126 125 132
f 125 122 133
f 132 133 134
f 125 133 132
f 131 135 136
f 135 134 137
f 136 137 138
f 135 137 136
f 126 132 130
f 132 134 135
f 130 135 131
f 132 135 130
f 56 129 59
f 129 131 139
f 59 139 60
f 129 139 59
f 131 136 140
f 136 138 141
f 140 141 142
f 136 141 140
f 60 143 62
f 143 142 144
f 62 144 9
f 143 144 62
f 131 140 139
f 140 142 143
f 139 143 60
f 140 143 139
f 9 144 63
f 144 142 145
f 63 145 146
f 144 145 63
f 142 141 147
f 141 138 148
f 147 148 149
f 141 148 147
f 65 150 69
f 150 151 152
f 69 152 71
f 150 152 69
f 142 147 145
f 147 149 153
f 145 153 146
f 147 153 145
f 154 155 156
f 155 157 158
f 156 158 159
f 155 158 156
f 157 160 161
f 160 85 84
f 161 84 81
f 160 84 161
f 159 162 163
f 162 81 80
f 163 80 71
f 162 80 163
f 157 161 158
f 161 81 162
f 158 162 159
f 161 162 158
f 154 164 155
f 164 165 166
f 155 166 157
f 164 166 155
f 165 167 168
f 167 101 100
f 168 100 97
f 167 100 168
f 157 169 160
f 169 97 96
f 160 96 85
f 169 96 160
f 165 168 166
f 168 97 169
f 166 169 157
f 168 169 166
f 154 170 164
f 170 171 172
f 164 172 165
f 170 172 164
f 173 174 175
f 174 122 121
f 175 121 117
f 174 121 175
f 165 176 167
f 176 177 115
f 167 115 101
f 176 115 167
f 173 175 178
f 175 117 179
f 172 176 165
f 180 176 172
f 154 181 170
f 182 183 184
f 185 184 173
f 181 186 170
f 183 187 188
f 187 138 137
f 188 137 134
f 187 137 188
f 173 189 174
f 189 134 133
f 174 133 122
f 189 133 174
f 183 188 184
f 188 134 189
f 184 189 173
f 188 189 184
f 154 156 181
f 156 159 190
f 181 190 191
f 156 190 181
f 159 163 192
f 163 71 152
f 192 152 151
f 163 152 192
f 183 193 187
f 193 149 148
f 187 148 138
f 193 148 187
f 159 192 190
f 192 151 194
f 190 194 191
f 192 194 190
f 18 8 15
f 15 8 11
f 13 20 18
f 18 20 8
f 19 5 13
f 13 5 20
f 12 6 19
f 19 6 5
f 22 3 12
f 12 3 6
f 23 26 22
f 22 26 3
f 24 21 23
f 23 21 26
f 25 35 24
f 24 35 21
f 38 46 25
f 25 46 35
f 40 43 38
f 38 43 46
f 64 63 65
f 65 63 146
f 66 68 64
f 64 68 63
f 67 10 66
f 66 10 68
f 15 11 67
f 67 11 10
f 104 113 105
f 105 113 107
f 105 107 109
f 109 107 106
f 109 106 40
f 40 106 43
f 115 116 118
f 118 116 114
f 118 114 104
f 104 114 113
f 65 146 150
f 150 146 153
f 150 153 151
f 151 153 149
f 170 185 171
f 171 185 173
f 171 173 172
f 172 173 178
f 176 179 177
f 177 179 117
f 177 117 115
f 115 117 116
f 180 175 176
f 176 175 179
f 172 178 180
f 180 178 175
f 181 182 186
f 186 182 184
f 186 184 170
f 170 184 185
f 191 183 181
f 181 183 182
f 151 149 194
f 194 149 193
f 194 193 191
f 191 193 183
