v 0.586557 1.0696 0.867557
v 0.621427 1.02578 0.863083
v 0.615844 1.07457 0.819876
v 0.644694 0.976351 0.85
v 0.648089 1.02695 0.811445
v 0.633953 1.07022 0.766875
v 0.654586 0.925069 0.829305
v 0.667802 0.967075 0.791364
v 0.650351 0.875841 0.802573
v 0.668493 0.914661 0.766244
v 0.67145 0.956327 0.728678
v 0.662156 1.01642 0.747662
v 0.639506 1.05687 0.712589
v 0.662156 1.00869 0.627662
v 0.67145 0.948592 0.608678
v 0.658996 0.989932 0.572735
v 0.639506 1.04913 0.592589
v 0.632078 1.0278 0.541152
v 0.563604 1.11031 0.836379
v 0.589605 1.11244 0.784436
v 0.53345 1.13897 0.798626
v 0.633953 1.06248 0.646875
v 0.603671 1.09418 0.600653
v 0.601173 1.07446 0.546032
v 0.560207 1.11121 0.557304
v 0.550834 1.13806 0.737345
v 0.49839 1.1534 0.757171
v 0.550834 1.13033 0.617345
v 0.512297 1.13526 0.57411
v 0.49839 1.14566 0.637171
v 0.461092 1.14477 0.59517
v 0.603671 1.10192 0.720653
v 0.536901 1.08361 0.889786
v 0.509758 1.12158 0.855146
v 0.482076 1.08759 0.901374
v 0.470987 1.1472 0.808056
v 0.461092 1.1525 0.71517
v 0.433354 1.15202 0.76402
v 0.408329 1.13632 0.811804
v 0.443978 1.12019 0.862074
v 0.426255 1.08127 0.901439
v 0.387923 1.10659 0.854882
v 0.373689 1.0651 0.889977
v 0.572637 1.03137 0.90629
v 0.518894 1.04173 0.925857
v 0.550828 0.987092 0.933125
v 0.453114 1.04034 0.932785
v 0.396956 1.02765 0.924793
v 0.425707 0.984445 0.946303
v 0.489259 0.987504 0.949478
v 0.52279 0.940149 0.946021
v 0.457754 0.938774 0.95287
v 0.490657 0.894113 0.943995
v 0.604387 0.983249 0.898848
v 0.574752 0.92902 0.922468
v 0.54228 0.880951 0.926167
v 0.588325 0.873202 0.894929
v 0.6241 0.923373 0.878767
v 0.625286 0.871454 0.852658
v 0.647789 0.854613 0.750623
v 0.647789 0.846877 0.630623
v 0.631618 0.833066 0.578626
v 0.660928 0.888076 0.591781
v 0.668493 0.906925 0.646244
v 0.603068 0.827723 0.530539
v 0.63434 0.876689 0.53228
v 0.564312 0.831255 0.490024
v 0.597485 0.876513 0.487332
v 0.620878 0.926932 0.4955
v 0.655281 0.937425 0.54808
v 0.632709 0.978673 0.513907
v 0.596973 1.03091 0.497404
v 0.592549 0.978875 0.471886
v 0.552126 1.02743 0.463749
v 0.571608 0.918139 0.456087
v 0.541045 0.868704 0.455208
v 0.512293 0.911909 0.433697
v 0.535462 0.970977 0.439394
v 0.500951 1.01763 0.44275
v 0.480246 0.95758 0.42713
v 0.447343 1.00224 0.436006
v 0.560652 1.07576 0.504378
v 0.503566 1.06786 0.471886
v 0.448711 1.05336 0.459254
v 0.451622 1.09619 0.4955
v 0.507814 1.1119 0.521071
v 0.455857 1.12745 0.541985
v 0.407067 1.13303 0.585192
v 0.40138 1.10965 0.53228
v 0.357757 1.10693 0.578626
v 0.397131 1.06561 0.483096
v 0.39572 1.0154 0.453833
v 0.349675 1.02315 0.485071
v 0.347783 1.07125 0.526797
v 0.316915 1.06845 0.57597
v 0.312714 1.0249 0.527342
v 0.28765 1.02051 0.577427
v 0.433354 1.14429 0.64402
v 0.378619 1.12668 0.635483
v 0.378619 1.13442 0.755483
v 0.407067 1.14077 0.705192
v 0.325023 1.08829 0.63
v 0.290211 1.04174 0.629377
v 0.325023 1.09602 0.75
v 0.290211 1.04948 0.749377
v 0.306382 1.06329 0.801374
v 0.35161 1.10741 0.809501
v 0.334933 1.06863 0.849461
v 0.340515 1.01984 0.892668
v 0.30366 1.01967 0.84772
v 0.317123 0.969423 0.8845
v 0.277073 1.00828 0.788219
v 0.269507 0.981693 0.613756
v 0.269507 0.989429 0.733756
v 0.26655 0.947763 0.771322
v 0.282719 0.95893 0.83192
v 0.305291 0.917681 0.866093
v 0.279005 0.906423 0.807265
v 0.305922 0.868555 0.838848
v 0.366393 0.978215 0.923913
v 0.345452 0.917479 0.908114
v 0.341028 0.865441 0.882596
v 0.385875 0.868919 0.916251
v 0.402538 0.925377 0.940606
v 0.43705 0.878726 0.93725
v 0.48929 0.842989 0.920746
v 0.434435 0.828496 0.908114
v 0.486378 0.800167 0.8845
v 0.377348 0.820599 0.875622
v 0.336827 0.821896 0.833968
v 0.377794 0.785145 0.822696
v 0.430186 0.784454 0.85893
v 0.482144 0.768907 0.838015
v 0.425703 0.761098 0.805891
v 0.476909 0.751587 0.78483
v 0.540869 0.830748 0.896904
v 0.53662 0.786705 0.84772
v 0.530933 0.763324 0.794808
v 0.580244 0.789427 0.801374
v 0.590217 0.825101 0.853203
v 0.621086 0.827909 0.80403
v 0.612978 0.808067 0.75
v 0.612978 0.800332 0.63
v 0.559381 0.769671 0.744517
v 0.504647 0.752065 0.73598
v 0.559381 0.761936 0.624517
v 0.504647 0.74433 0.61598
v 0.529671 0.760032 0.568197
v 0.530933 0.755589 0.674808
v 0.58639 0.788945 0.570499
v 0.550077 0.789761 0.525118
v 0.351443 0.826752 0.512443
v 0.365363 0.864988 0.47371
v 0.401099 0.812748 0.490214
v 0.387172 0.909263 0.446875
v 0.419106 0.854621 0.454143
v 0.455925 0.808759 0.478626
v 0.41521 0.956205 0.433979
v 0.448741 0.90885 0.430523
v 0.484886 0.856013 0.447215
v 0.511745 0.815089 0.478561
v 0.316573 0.870571 0.516917
v 0.293307 0.920003 0.53
v 0.333613 0.913105 0.481152
v 0.283415 0.971285 0.550695
v 0.3139 0.972981 0.501233
v 0.363248 0.967335 0.457532
v 0.322156 0.821781 0.560125
v 0.304047 0.826137 0.613126
v 0.289912 0.869404 0.568555
v 0.298495 0.839489 0.667411
v 0.275845 0.879931 0.632338
v 0.298495 0.847224 0.787411
v 0.275845 0.887667 0.752338
v 0.270198 0.929279 0.588637
v 0.26655 0.940027 0.651322
v 0.374396 0.786045 0.543621
v 0.40455 0.757385 0.581374
v 0.348396 0.783911 0.595565
v 0.439611 0.742954 0.622829
v 0.387167 0.758293 0.642655
v 0.439611 0.75069 0.742829
v 0.387167 0.766028 0.762655
v 0.304047 0.833873 0.733126
v 0.334329 0.802174 0.779347
v 0.334329 0.794438 0.659347
v 0.428243 0.774775 0.524854
v 0.494023 0.776166 0.517926
v 0.467014 0.749157 0.571944
v 0.476909 0.743852 0.66483
f 1 2 3
f 2 4 5
f 3 5 6
f 2 5 3
f 4 7 8
f 7 9 10
f 8 10 11
f 7 10 8
f 6 12 13
f 14 15 16
f 17 16 18
f 14 16 17
f 4 8 5
f 8 11 12
f 5 12 6
f 8 12 5
f 1 3 19
f 3 6 20
f 19 20 21
f 3 20 19
f 22 17 23
f 17 18 24
f 23 24 25
f 17 24 23
f 21 26 27
f 28 25 29
f 30 29 31
f 28 29 30
f 6 32 20
f 23 25 28
f 20 26 21
f 32 26 20
f 1 19 33
f 19 21 34
f 33 34 35
f 19 34 33
f 21 27 36
f 27 37 38
f 36 38 39
f 27 38 36
f 35 40 41
f 40 39 42
f 41 42 43
f 40 42 41
f 21 36 34
f 36 39 40
f 34 40 35
f 36 40 34
f 1 33 44
f 33 35 45
f 44 45 46
f 33 45 44
f 35 41 47
f 41 43 48
f 47 48 49
f 41 48 47
f 46 50 51
f 50 49 52
f 51 52 53
f 50 52 51
f 35 47 45
f 47 49 50
f 45 50 46
f 47 50 45
f 1 44 2
f 44 46 54
f 2 54 4
f 44 54 2
f 46 51 55
f 51 53 56
f 55 56 57
f 51 56 55
f 4 58 7
f 58 57 59
f 7 59 9
f 58 59 7
f 46 55 54
f 55 57 58
f 54 58 4
f 55 58 54
f 9 60 10
f 61 62 63
f 64 63 15
f 61 63 64
f 62 65 66
f 65 67 68
f 66 68 69
f 65 68 66
f 15 70 16
f 70 69 71
f 16 71 18
f 70 71 16
f 62 66 63
f 66 69 70
f 63 70 15
f 66 70 63
f 18 71 72
f 71 69 73
f 72 73 74
f 71 73 72
f 69 68 75
f 68 67 76
f 75 76 77
f 68 76 75
f 74 78 79
f 78 77 80
f 79 80 81
f 78 80 79
f 69 75 73
f 75 77 78
f 73 78 74
f 75 78 73
f 18 72 24
f 72 74 82
f 24 82 25
f 72 82 24
f 74 79 83
f 79 81 84
f 83 84 85
f 79 84 83
f 25 86 29
f 86 85 87
f 29 87 31
f 86 87 29
f 74 83 82
f 83 85 86
f 82 86 25
f 83 86 82
f 31 87 88
f 87 85 89
f 88 89 90
f 87 89 88
f 85 84 91
f 84 81 92
f 91 92 93
f 84 92 91
f 90 94 95
f 94 93 96
f 95 96 97
f 94 96 95
f 85 91 89
f 91 93 94
f 89 94 90
f 91 94 89
f 31 88 98
f 88 90 99
f 38 100 39
f 101 100 38
f 90 95 102
f 95 97 103
f 104 105 106
f 95 103 102
f 39 107 42
f 107 106 108
f 42 108 43
f 107 108 42
f 90 102 99
f 104 106 107
f 100 107 39
f 104 107 100
f 43 108 109
f 108 106 110
f 109 110 111
f 108 110 109
f 106 105 112
f 103 97 113
f 112 114 115
f 105 114 112
f 111 116 117
f 116 115 118
f 117 118 119
f 116 118 117
f 106 112 110
f 112 115 116
f 110 116 111
f 112 116 110
f 43 109 48
f 109 111 120
f 48 120 49
f 109 120 48
f 111 117 121
f 117 119 122
f 121 122 123
f 117 122 121
f 49 124 52
f 124 123 125
f 52 125 53
f 124 125 52
f 111 121 120
f 121 123 124
f 120 124 49
f 121 124 120
f 53 125 126
f 125 123 127
f 126 127 128
f 125 127 126
f 123 122 129
f 122 119 130
f 129 130 131
f 122 130 129
f 128 132 133
f 132 131 134
f 133 134 135
f 132 134 133
f 123 129 127
f 129 131 132
f 127 132 128
f 129 132 127
f 53 126 56
f 126 128 136
f 56 136 57
f 126 136 56
f 128 133 137
f 133 135 138
f 137 138 139
f 133 138 137
f 57 140 59
f 140 139 141
f 59 141 9
f 140 141 59
f 128 137 136
f 137 139 140
f 136 140 57
f 137 140 136
f 9 141 60
f 141 139 142
f 61 143 62
f 141 142 60
f 139 138 144
f 138 135 145
f 146 147 148
f 149 147 146
f 62 150 65
f 150 148 151
f 65 151 67
f 150 151 65
f 139 144 142
f 146 148 150
f 143 150 62
f 146 150 143
f 152 153 154
f 153 155 156
f 154 156 157
f 153 156 154
f 155 158 159
f 158 81 80
f 159 80 77
f 158 80 159
f 157 160 161
f 160 77 76
f 161 76 67
f 160 76 161
f 155 159 156
f 159 77 160
f 156 160 157
f 159 160 156
f 152 162 153
f 162 163 164
f 153 164 155
f 162 164 153
f 163 165 166
f 165 97 96
f 166 96 93
f 165 96 166
f 155 167 158
f 167 93 92
f 158 92 81
f 167 92 158
f 163 166 164
f 166 93 167
f 164 167 155
f 166 167 164
f 152 168 162
f 168 169 170
f 162 170 163
f 168 170 162
f 169 171 172
f 173 119 118
f 174 118 115
f 173 118 174
f 163 175 165
f 175 176 113
f 165 113 97
f 175 113 165
f 169 172 170
f 172 176 175
f 170 175 163
f 172 175 170
f 152 177 168
f 177 178 179
f 168 179 169
f 177 179 168
f 178 180 181
f 182 135 134
f 183 134 131
f 182 134 183
f 184 185 173
f 185 131 130
f 173 130 119
f 185 130 173
f 178 181 179
f 183 131 185
f 179 186 169
f 181 186 179
f 152 154 177
f 154 157 187
f 177 187 178
f 154 187 177
f 157 161 188
f 161 67 151
f 188 151 148
f 161 151 188
f 178 189 180
f 189 148 147
f 180 147 190
f 189 147 180
f 157 188 187
f 188 148 189
f 187 189 178
f 188 189 187
f 14 12 15
f 15 12 11
f 17 13 14
f 14 13 12
f 22 6 17
f 17 6 13
f 23 32 22
f 22 32 6
f 31 37 30
f 30 37 27
f 30 27 28
f 28 27 26
f 28 26 23
f 23 26 32
f 15 11 64
f 64 11 10
f 64 10 61
f 61 10 60
f 88 101 98
f 98 101 38
f 98 38 31
f 31 38 37
f 99 100 88
f 88 100 101
f 103 105 102
f 102 105 104
f 102 104 99
f 99 104 100
f 113 114 103
f 103 114 105
f 61 60 143
f 143 60 142
f 149 138 147
f 147 138 145
f 146 144 149
f 149 144 138
f 143 142 146
f 146 142 144
f 169 184 171
f 171 184 173
f 171 173 172
f 172 173 174
f 176 115 113
f 113 115 114
f 172 174 176
f 176 174 115
f 180 182 181
f 181 182 183
f 186 185 169
f 169 185 184
f 181 183 186
f 186 183 185
f 147 145 190
f 190 145 135
f 190 135 180
f 180 135 182
