v 0.826557 1.25043 -0.212443
v 0.861427 1.20661 -0.216917
v 0.855844 1.2554 -0.260125
v 0.884694 1.15717 -0.23
v 0.888089 1.20777 -0.268555
v 0.873953 1.25104 -0.313125
v 0.894586 1.10589 -0.250695
v 0.907802 1.1479 -0.288637
v 0.890351 1.05666 -0.277427
v 0.908493 1.09548 -0.313756
v 0.91145 1.13715 -0.351322
v 0.873953 1.25421 -0.353125
v 0.902156 1.20041 -0.372338
v 0.879506 1.24086 -0.407411
v 0.91145 1.14032 -0.391322
v 0.898996 1.18166 -0.427265
v 0.872078 1.21953 -0.458848
v 0.902156 1.19725 -0.332338
v 0.803604 1.29113 -0.243621
v 0.829605 1.29327 -0.295564
v 0.77345 1.31979 -0.281374
v 0.843671 1.28591 -0.399347
v 0.841173 1.26618 -0.453968
v 0.800207 1.30294 -0.442696
v 0.77345 1.32296 -0.321374
v 0.790834 1.32205 -0.382655
v 0.73839 1.33739 -0.362829
v 0.752297 1.32698 -0.42589
v 0.701092 1.33649 -0.40483
v 0.829605 1.29644 -0.335564
v 0.790834 1.31888 -0.342655
v 0.776901 1.26443 -0.190214
v 0.749758 1.3024 -0.224854
v 0.722076 1.26842 -0.178626
v 0.73839 1.33422 -0.322829
v 0.710987 1.32802 -0.271944
v 0.673354 1.33602 -0.35598
v 0.673354 1.33285 -0.31598
v 0.648329 1.31715 -0.268197
v 0.683978 1.30101 -0.217926
v 0.666255 1.26209 -0.178561
v 0.627923 1.28742 -0.225118
v 0.613689 1.24592 -0.190024
v 0.812637 1.21219 -0.17371
v 0.758894 1.22256 -0.154143
v 0.790828 1.16791 -0.146875
v 0.693114 1.22116 -0.147215
v 0.636956 1.20847 -0.155207
v 0.665707 1.16527 -0.133697
v 0.729259 1.16833 -0.130523
v 0.76279 1.12097 -0.133979
v 0.697754 1.1196 -0.12713
v 0.730657 1.07494 -0.136005
v 0.844387 1.16407 -0.181152
v 0.814752 1.10984 -0.157532
v 0.78228 1.06177 -0.153833
v 0.828325 1.05402 -0.185071
v 0.8641 1.1042 -0.201233
v 0.865286 1.05228 -0.227342
v 0.887789 1.03544 -0.329377
v 0.887789 1.0386 -0.369377
v 0.871618 1.02479 -0.421374
v 0.900928 1.0798 -0.408219
v 0.908493 1.09865 -0.353756
v 0.900928 1.07664 -0.368219
v 0.843068 1.01945 -0.469461
v 0.87434 1.06842 -0.46772
v 0.804312 1.02298 -0.509976
v 0.837485 1.06824 -0.512668
v 0.860878 1.11866 -0.5045
v 0.895281 1.12915 -0.45192
v 0.872709 1.1704 -0.486093
v 0.836973 1.22264 -0.502596
v 0.832549 1.1706 -0.528114
v 0.792126 1.21916 -0.536251
v 0.811608 1.10987 -0.543913
v 0.781045 1.06043 -0.544793
v 0.752293 1.10364 -0.566303
v 0.775462 1.1627 -0.560606
v 0.740951 1.20936 -0.55725
v 0.720246 1.14931 -0.57287
v 0.687343 1.19397 -0.563994
v 0.800652 1.26748 -0.495622
v 0.743566 1.25958 -0.528114
v 0.688711 1.24509 -0.540746
v 0.691622 1.28791 -0.5045
v 0.747814 1.30363 -0.478929
v 0.695857 1.31917 -0.458015
v 0.647067 1.32476 -0.414808
v 0.64138 1.30138 -0.46772
v 0.597757 1.29865 -0.421374
v 0.637131 1.25733 -0.516904
v 0.63572 1.20713 -0.546167
v 0.589675 1.21488 -0.514929
v 0.587783 1.26298 -0.473203
v 0.556915 1.26017 -0.42403
v 0.552714 1.21663 -0.472658
v 0.52765 1.21224 -0.422573
v 0.618619 1.31841 -0.364517
v 0.618619 1.31524 -0.324517
v 0.565023 1.28001 -0.37
v 0.530211 1.23347 -0.370623
v 0.565023 1.27685 -0.33
v 0.530211 1.2303 -0.330623
v 0.546382 1.24411 -0.278626
v 0.59161 1.28823 -0.270499
v 0.574933 1.24945 -0.230539
v 0.580515 1.20066 -0.187332
v 0.54366 1.20049 -0.23228
v 0.557123 1.15025 -0.1955
v 0.517073 1.1891 -0.291781
v 0.509507 1.17342 -0.386244
v 0.509507 1.17025 -0.346244
v 0.50655 1.12859 -0.308678
v 0.517073 1.19227 -0.331781
v 0.522719 1.13975 -0.24808
v 0.545291 1.0985 -0.213907
v 0.519005 1.08725 -0.272735
v 0.545922 1.04938 -0.241152
v 0.606393 1.15904 -0.156087
v 0.585452 1.0983 -0.171886
v 0.581028 1.04626 -0.197404
v 0.625875 1.04974 -0.163749
v 0.642538 1.1062 -0.139394
v 0.67705 1.05955 -0.14275
v 0.72929 1.02381 -0.159254
v 0.674435 1.00932 -0.171886
v 0.726378 0.98099 -0.1955
v 0.617348 1.00142 -0.204378
v 0.576827 1.00272 -0.246032
v 0.617794 0.965968 -0.257304
v 0.670186 0.965277 -0.221071
v 0.722144 0.94973 -0.241985
v 0.665703 0.941921 -0.27411
v 0.716909 0.93241 -0.29517
v 0.780869 1.01157 -0.183096
v 0.776621 0.967528 -0.23228
v 0.770933 0.944147 -0.285192
v 0.820244 0.97025 -0.278626
v 0.830217 1.00592 -0.226797
v 0.861086 1.00873 -0.27597
v 0.852978 0.988891 -0.33
v 0.852978 0.992059 -0.37
v 0.799381 0.950494 -0.335483
v 0.744647 0.932889 -0.34402
v 0.799381 0.953663 -0.375483
v 0.744647 0.936057 -0.38402
v 0.769671 0.951759 -0.431803
v 0.82639 0.980672 -0.429501
v 0.790077 0.981488 -0.474882
v 0.591443 1.01848 -0.487557
v 0.605363 1.05672 -0.52629
v 0.641099 1.00448 -0.509786
v 0.627172 1.10099 -0.553125
v 0.659106 1.04635 -0.545857
v 0.695925 1.00049 -0.521374
v 0.65521 1.14793 -0.566021
v 0.688741 1.10058 -0.569477
v 0.724886 1.04774 -0.552785
v 0.751745 1.00682 -0.521439
v 0.556573 1.0623 -0.483083
v 0.533307 1.11173 -0.47
v 0.573613 1.10483 -0.518848
v 0.523415 1.16301 -0.449305
v 0.5539 1.16471 -0.498767
v 0.603248 1.15906 -0.542468
v 0.562156 1.01351 -0.439875
v 0.544047 1.01786 -0.386875
v 0.529912 1.06113 -0.431445
v 0.544047 1.0147 -0.346875
v 0.538495 1.02805 -0.292589
v 0.515845 1.06849 -0.327662
v 0.510198 1.12101 -0.411363
v 0.50655 1.13175 -0.348678
v 0.515845 1.07166 -0.367662
v 0.614396 0.977772 -0.456379
v 0.64455 0.949112 -0.418626
v 0.588396 0.975638 -0.404436
v 0.64455 0.945944 -0.378626
v 0.679611 0.931513 -0.337171
v 0.627167 0.946852 -0.317345
v 0.574329 0.982997 -0.300653
v 0.627167 0.95002 -0.357345
v 0.588396 0.972469 -0.364436
v 0.668243 0.966501 -0.475146
v 0.734023 0.967893 -0.482074
v 0.707014 0.940884 -0.428056
v 0.679611 0.934681 -0.377171
f 1 2 3
f 2 4 5
f 3 5 6
f 2 5 3
f 4 7 8
f 7 9 10
f 8 10 11
f 7 10 8
f 12 13 14
f 13 15 16
f 14 16 17
f 13 16 14
f 4 8 5
f 8 11 18
f 5 18 6
f 8 18 5
f 1 3 19
f 3 6 20
f 19 20 21
f 3 20 19
f 12 14 22
f 14 17 23
f 22 23 24
f 14 23 22
f 25 26 27
f 26 24 28
f 27 28 29
f 26 28 27
f 12 22 30
f 22 24 26
f 20 31 21
f 22 26 30
f 1 19 32
f 19 21 33
f 32 33 34
f 19 33 32
f 21 35 36
f 27 29 37
f 36 38 39
f 35 38 36
f 34 40 41
f 40 39 42
f 41 42 43
f 40 42 41
f 21 36 33
f 36 39 40
f 33 40 34
f 36 40 33
f 1 32 44
f 32 34 45
f 44 45 46
f 32 45 44
f 34 41 47
f 41 43 48
f 47 48 49
f 41 48 47
f 46 50 51
f 50 49 52
f 51 52 53
f 50 52 51
f 34 47 45
f 47 49 50
f 45 50 46
f 47 50 45
f 1 44 2
f 44 46 54
f 2 54 4
f 44 54 2
f 46 51 55
f 51 53 56
f 55 56 57
f 51 56 55
f 4 58 7
f 58 57 59
f 7 59 9
f 58 59 7
f 46 55 54
f 55 57 58
f 54 58 4
f 55 58 54
f 9 60 10
f 61 62 63
f 64 63 15
f 60 65 10
f 62 66 67
f 66 68 69
f 67 69 70
f 66 69 67
f 15 71 16
f 71 70 72
f 16 72 17
f 71 72 16
f 62 67 63
f 67 70 71
f 63 71 15
f 67 71 63
f 17 72 73
f 72 70 74
f 73 74 75
f 72 74 73
f 70 69 76
f 69 68 77
f 76 77 78
f 69 77 76
f 75 79 80
f 79 78 81
f 80 81 82
f 79 81 80
f 70 76 74
f 76 78 79
f 74 79 75
f 76 79 74
f 17 73 23
f 73 75 83
f 23 83 24
f 73 83 23
f 75 80 84
f 80 82 85
f 84 85 86
f 80 85 84
f 24 87 28
f 87 86 88
f 28 88 29
f 87 88 28
f 75 84 83
f 84 86 87
f 83 87 24
f 84 87 83
f 29 88 89
f 88 86 90
f 89 90 91
f 88 90 89
f 86 85 92
f 85 82 93
f 92 93 94
f 85 93 92
f 91 95 96
f 95 94 97
f 96 97 98
f 95 97 96
f 86 92 90
f 92 94 95
f 90 95 91
f 92 95 90
f 29 89 37
f 89 91 99
f 38 100 39
f 89 99 37
f 91 96 101
f 96 98 102
f 103 104 105
f 96 102 101
f 39 106 42
f 106 105 107
f 42 107 43
f 106 107 42
f 91 101 99
f 103 105 106
f 100 106 39
f 103 106 100
f 43 107 108
f 107 105 109
f 108 109 110
f 107 109 108
f 105 104 111
f 102 98 112
f 111 113 114
f 102 112 115
f 110 116 117
f 116 114 118
f 117 118 119
f 116 118 117
f 105 111 109
f 111 114 116
f 109 116 110
f 111 116 109
f 43 108 48
f 108 110 120
f 48 120 49
f 108 120 48
f 110 117 121
f 117 119 122
f 121 122 123
f 117 122 121
f 49 124 52
f 124 123 125
f 52 125 53
f 124 125 52
f 110 121 120
f 121 123 124
f 120 124 49
f 121 124 120
f 53 125 126
f 125 123 127
f 126 127 128
f 125 127 126
f 123 122 129
f 122 119 130
f 129 130 131
f 122 130 129
f 128 132 133
f 132 131 134
f 133 134 135
f 132 134 133
f 123 129 127
f 129 131 132
f 127 132 128
f 129 132 127
f 53 126 56
f 126 128 136
f 56 136 57
f 126 136 56
f 128 133 137
f 133 135 138
f 137 138 139
f 133 138 137
f 57 140 59
f 140 139 141
f 59 141 9
f 140 141 59
f 128 137 136
f 137 139 140
f 136 140 57
f 137 140 136
f 9 141 60
f 141 139 142
f 61 143 62
f 141 142 60
f 139 138 144
f 138 135 145
f 146 147 148
f 138 145 144
f 62 149 66
f 149 148 150
f 66 150 68
f 149 150 66
f 139 144 142
f 146 148 149
f 143 149 62
f 146 149 143
f 151 152 153
f 152 154 155
f 153 155 156
f 152 155 153
f 154 157 158
f 157 82 81
f 158 81 78
f 157 81 158
f 156 159 160
f 159 78 77
f 160 77 68
f 159 77 160
f 154 158 155
f 158 78 159
f 155 159 156
f 158 159 155
f 151 161 152
f 161 162 163
f 152 163 154
f 161 163 152
f 162 164 165
f 164 98 97
f 165 97 94
f 164 97 165
f 154 166 157
f 166 94 93
f 157 93 82
f 166 93 157
f 162 165 163
f 165 94 166
f 163 166 154
f 165 166 163
f 151 167 161
f 167 168 169
f 161 169 162
f 167 169 161
f 170 171 172
f 171 119 118
f 172 118 114
f 171 118 172
f 162 173 164
f 173 174 112
f 164 112 98
f 173 112 164
f 168 175 169
f 175 174 173
f 169 173 162
f 175 173 169
f 151 176 167
f 176 177 178
f 167 178 168
f 176 178 167
f 179 180 181
f 180 135 134
f 181 134 131
f 180 134 181
f 170 182 171
f 182 131 130
f 171 130 119
f 182 130 171
f 177 183 178
f 181 131 182
f 184 182 170
f 181 182 184
f 151 153 176
f 153 156 185
f 176 185 177
f 153 185 176
f 156 160 186
f 160 68 150
f 186 150 148
f 160 150 186
f 177 187 188
f 187 148 147
f 180 145 135
f 187 147 188
f 156 186 185
f 186 148 187
f 185 187 177
f 186 187 185
f 12 6 13
f 13 6 18
f 13 18 15
f 15 18 11
f 25 21 26
f 26 21 31
f 27 35 25
f 25 35 21
f 30 20 12
f 12 20 6
f 26 31 30
f 30 31 20
f 37 38 27
f 27 38 35
f 63 65 61
f 61 65 60
f 64 10 63
f 63 10 65
f 15 11 64
f 64 11 10
f 99 100 37
f 37 100 38
f 102 104 101
f 101 104 103
f 101 103 99
f 99 103 100
f 112 113 115
f 115 113 111
f 115 111 102
f 102 111 104
f 61 60 143
f 143 60 142
f 146 144 147
f 147 144 145
f 143 142 146
f 146 142 144
f 174 114 112
f 112 114 113
f 168 170 175
f 175 170 172
f 175 172 174
f 174 172 114
f 178 184 168
f 168 184 170
f 177 179 183
f 183 179 181
f 183 181 178
f 178 181 184
f 188 180 177
f 177 180 179
f 147 145 188
f 188 145 180
