v 0.586557 1.0784 0.867557
v 0.621427 1.03458 0.863083
v 0.615844 1.08337 0.819876
v 0.644694 0.985147 0.85
v 0.648089 1.03575 0.811445
v 0.633953 1.07901 0.766875
v 0.654586 0.933865 0.829305
v 0.667802 0.97587 0.791364
v 0.654586 0.925069 0.829305
v 0.650351 0.875841 0.802573
v 0.668493 0.914661 0.766244
v 0.667802 0.967075 0.791364
v 0.67145 0.956327 0.728678
v 0.662156 1.02522 0.747662
v 0.639506 1.06566 0.712589
v 0.67145 0.965123 0.728678
v 0.658996 1.00646 0.692735
v 0.632078 1.04433 0.661152
v 0.563604 1.1191 0.836379
v 0.589605 1.12124 0.784436
v 0.53345 1.14776 0.798626
v 0.603671 1.11071 0.720653
v 0.601173 1.09099 0.666032
v 0.560207 1.12774 0.677304
v 0.550834 1.14686 0.737345
v 0.49839 1.1622 0.757171
v 0.512297 1.15179 0.69411
v 0.461092 1.1613 0.71517
v 0.536901 1.0924 0.889786
v 0.509758 1.13038 0.855146
v 0.482076 1.09639 0.901374
v 0.470987 1.15599 0.808056
v 0.433354 1.16082 0.76402
v 0.408329 1.14512 0.811804
v 0.443978 1.12898 0.862074
v 0.426255 1.09006 0.901439
v 0.387923 1.11539 0.854882
v 0.373689 1.07389 0.889977
v 0.572637 1.04016 0.90629
v 0.518894 1.05053 0.925857
v 0.550828 0.995887 0.933125
v 0.453114 1.04914 0.932785
v 0.396956 1.03645 0.924793
v 0.425707 0.993241 0.946303
v 0.489259 0.996299 0.949478
v 0.52279 0.948945 0.946021
v 0.457754 0.947569 0.95287
v 0.52279 0.940149 0.946021
v 0.457754 0.938774 0.95287
v 0.490657 0.894113 0.943995
v 0.604387 0.992044 0.898848
v 0.574752 0.937815 0.922468
v 0.54228 0.880951 0.926167
v 0.574752 0.92902 0.922468
v 0.588325 0.873202 0.894929
v 0.644694 0.976351 0.85
v 0.6241 0.923373 0.878767
v 0.625286 0.871454 0.852658
v 0.6241 0.932169 0.878767
v 0.604387 0.983249 0.898848
v 0.647789 0.854613 0.750623
v 0.631618 0.840801 0.698626
v 0.660928 0.895812 0.711781
v 0.603068 0.835458 0.650539
v 0.63434 0.884425 0.65228
v 0.564312 0.83899 0.610024
v 0.597485 0.884248 0.607332
v 0.620878 0.934667 0.6155
v 0.655281 0.953955 0.66808
v 0.620878 0.943462 0.6155
v 0.632709 0.995204 0.633907
v 0.655281 0.94516 0.66808
v 0.596973 1.04744 0.617404
v 0.592549 0.995406 0.591886
v 0.552126 1.04397 0.583749
v 0.571608 0.925875 0.576087
v 0.541045 0.87644 0.575208
v 0.512293 0.919645 0.553697
v 0.535462 0.987508 0.559394
v 0.500951 1.03416 0.56275
v 0.512293 0.92844 0.553697
v 0.480246 0.974111 0.54713
v 0.447343 1.01877 0.556006
v 0.592549 0.98661 0.591886
v 0.535462 0.978713 0.559394
v 0.571608 0.93467 0.576087
v 0.560652 1.09229 0.624378
v 0.503566 1.08439 0.591886
v 0.448711 1.0699 0.579254
v 0.451622 1.11272 0.6155
v 0.507814 1.12843 0.641071
v 0.455857 1.14398 0.661985
v 0.407067 1.14956 0.705192
v 0.40138 1.12618 0.65228
v 0.357757 1.12346 0.698626
v 0.397131 1.08214 0.603096
v 0.39572 1.03193 0.573833
v 0.349675 1.03968 0.605071
v 0.347783 1.08778 0.646797
v 0.316915 1.08498 0.69597
v 0.312714 1.04143 0.647342
v 0.28765 1.03704 0.697427
v 0.378619 1.14321 0.755483
v 0.325023 1.10482 0.75
v 0.290211 1.05827 0.749377
v 0.306382 1.07208 0.801374
v 0.35161 1.11621 0.809501
v 0.334933 1.07743 0.849461
v 0.340515 1.02864 0.892668
v 0.30366 1.02846 0.84772
v 0.317123 0.978218 0.8845
v 0.277073 1.01707 0.788219
v 0.269507 0.998224 0.733756
v 0.26655 0.956558 0.771322
v 0.317123 0.969423 0.8845
v 0.282719 0.95893 0.83192
v 0.305291 0.917681 0.866093
v 0.26655 0.947763 0.771322
v 0.279005 0.906423 0.807265
v 0.305922 0.868555 0.838848
v 0.282719 0.967725 0.83192
v 0.366393 0.98701 0.923913
v 0.345452 0.917479 0.908114
v 0.341028 0.865441 0.882596
v 0.385875 0.868919 0.916251
v 0.425707 0.984445 0.946303
v 0.402538 0.925377 0.940606
v 0.43705 0.878726 0.93725
v 0.345452 0.926275 0.908114
v 0.402538 0.934173 0.940606
v 0.366393 0.978215 0.923913
v 0.48929 0.842989 0.920746
v 0.434435 0.828496 0.908114
v 0.486378 0.800167 0.8845
v 0.377348 0.820599 0.875622
v 0.336827 0.821896 0.833968
v 0.377794 0.785145 0.822696
v 0.430186 0.784454 0.85893
v 0.482144 0.768907 0.838015
v 0.425703 0.761098 0.805891
v 0.476909 0.751587 0.78483
v 0.540869 0.830748 0.896904
v 0.53662 0.786705 0.84772
v 0.530933 0.763324 0.794808
v 0.580244 0.789427 0.801374
v 0.590217 0.825101 0.853203
v 0.621086 0.827909 0.80403
v 0.612978 0.808067 0.75
v 0.559381 0.769671 0.744517
v 0.504647 0.752065 0.73598
v 0.529671 0.767767 0.688197
v 0.58639 0.79668 0.690499
v 0.550077 0.797496 0.645118
v 0.351443 0.834488 0.632443
v 0.365363 0.872724 0.59371
v 0.401099 0.820484 0.610214
v 0.387172 0.916998 0.566875
v 0.419106 0.862357 0.574143
v 0.455925 0.816495 0.598626
v 0.41521 0.96394 0.553979
v 0.448741 0.916586 0.550523
v 0.41521 0.972736 0.553979
v 0.480246 0.965316 0.54713
v 0.484886 0.863748 0.567215
v 0.511745 0.822824 0.598561
v 0.316573 0.878306 0.636917
v 0.293307 0.927738 0.65
v 0.333613 0.920841 0.601152
v 0.293307 0.936534 0.65
v 0.283415 0.987816 0.670695
v 0.3139 0.989512 0.621233
v 0.363248 0.97507 0.577532
v 0.363248 0.983865 0.577532
v 0.3139 0.980716 0.621233
v 0.333613 0.929636 0.601152
v 0.322156 0.829517 0.680125
v 0.304047 0.833873 0.733126
v 0.289912 0.877139 0.688555
v 0.298495 0.847224 0.787411
v 0.275845 0.887667 0.752338
v 0.270198 0.937015 0.708637
v 0.283415 0.97902 0.670695
v 0.270198 0.94581 0.708637
v 0.374396 0.79378 0.663621
v 0.40455 0.76512 0.701374
v 0.348396 0.791646 0.715565
v 0.439611 0.75069 0.742829
v 0.387167 0.766028 0.762655
v 0.334329 0.802174 0.779347
v 0.428243 0.78251 0.644854
v 0.494023 0.783901 0.637926
v 0.467014 0.756892 0.691944
f 1 2 3
f 2 4 5
f 3 5 6
f 2 5 3
f 4 7 8
f 9 10 11
f 12 11 13
f 9 11 12
f 6 14 15
f 14 16 17
f 15 17 18
f 14 17 15
f 4 8 5
f 8 16 14
f 5 14 6
f 8 14 5
f 1 3 19
f 3 6 20
f 19 20 21
f 3 20 19
f 6 15 22
f 15 18 23
f 22 23 24
f 15 23 22
f 21 25 26
f 25 24 27
f 26 27 28
f 25 27 26
f 6 22 20
f 22 24 25
f 20 25 21
f 22 25 20
f 1 19 29
f 19 21 30
f 29 30 31
f 19 30 29
f 21 26 32
f 26 28 33
f 32 33 34
f 26 33 32
f 31 35 36
f 35 34 37
f 36 37 38
f 35 37 36
f 21 32 30
f 32 34 35
f 30 35 31
f 32 35 30
f 1 29 39
f 29 31 40
f 39 40 41
f 29 40 39
f 31 36 42
f 36 38 43
f 42 43 44
f 36 43 42
f 41 45 46
f 45 44 47
f 48 49 50
f 45 47 46
f 31 42 40
f 42 44 45
f 40 45 41
f 42 45 40
f 1 39 2
f 39 41 51
f 2 51 4
f 39 51 2
f 41 46 52
f 48 50 53
f 54 53 55
f 48 53 54
f 56 57 9
f 57 55 58
f 9 58 10
f 57 58 9
f 41 52 51
f 54 55 57
f 51 59 4
f 54 57 60
f 10 61 11
f 61 62 63
f 11 63 13
f 61 63 11
f 62 64 65
f 64 66 67
f 65 67 68
f 64 67 65
f 16 69 17
f 69 70 71
f 17 71 18
f 69 71 17
f 62 65 63
f 65 68 72
f 63 72 13
f 65 72 63
f 18 71 73
f 71 70 74
f 73 74 75
f 71 74 73
f 68 67 76
f 67 66 77
f 76 77 78
f 67 77 76
f 75 79 80
f 79 81 82
f 80 82 83
f 79 82 80
f 68 76 84
f 76 78 85
f 74 79 75
f 86 79 74
f 18 73 23
f 73 75 87
f 23 87 24
f 73 87 23
f 75 80 88
f 80 83 89
f 88 89 90
f 80 89 88
f 24 91 27
f 91 90 92
f 27 92 28
f 91 92 27
f 75 88 87
f 88 90 91
f 87 91 24
f 88 91 87
f 28 92 93
f 92 90 94
f 93 94 95
f 92 94 93
f 90 89 96
f 89 83 97
f 96 97 98
f 89 97 96
f 95 99 100
f 99 98 101
f 100 101 102
f 99 101 100
f 90 96 94
f 96 98 99
f 94 99 95
f 96 99 94
f 28 93 33
f 93 95 103
f 33 103 34
f 93 103 33
f 95 100 104
f 100 102 105
f 104 105 106
f 100 105 104
f 34 107 37
f 107 106 108
f 37 108 38
f 107 108 37
f 95 104 103
f 104 106 107
f 103 107 34
f 104 107 103
f 38 108 109
f 108 106 110
f 109 110 111
f 108 110 109
f 106 105 112
f 105 102 113
f 112 113 114
f 105 113 112
f 115 116 117
f 116 118 119
f 117 119 120
f 116 119 117
f 106 112 110
f 112 114 121
f 110 121 111
f 112 121 110
f 38 109 43
f 109 111 122
f 43 122 44
f 109 122 43
f 115 117 123
f 117 120 124
f 123 124 125
f 117 124 123
f 126 127 49
f 127 125 128
f 49 128 50
f 127 128 49
f 111 129 122
f 123 125 127
f 122 130 44
f 123 127 131
f 50 128 132
f 128 125 133
f 132 133 134
f 128 133 132
f 125 124 135
f 124 120 136
f 135 136 137
f 124 136 135
f 134 138 139
f 138 137 140
f 139 140 141
f 138 140 139
f 125 135 133
f 135 137 138
f 133 138 134
f 135 138 133
f 50 132 53
f 132 134 142
f 53 142 55
f 132 142 53
f 134 139 143
f 139 141 144
f 143 144 145
f 139 144 143
f 55 146 58
f 146 145 147
f 58 147 10
f 146 147 58
f 134 143 142
f 143 145 146
f 142 146 55
f 143 146 142
f 10 147 61
f 147 145 148
f 61 148 62
f 147 148 61
f 145 144 149
f 144 141 150
f 149 150 151
f 144 150 149
f 62 152 64
f 152 151 153
f 64 153 66
f 152 153 64
f 145 149 148
f 149 151 152
f 148 152 62
f 149 152 148
f 154 155 156
f 155 157 158
f 156 158 159
f 155 158 156
f 157 160 161
f 162 83 82
f 161 163 78
f 160 163 161
f 159 164 165
f 164 78 77
f 165 77 66
f 164 77 165
f 157 161 158
f 161 78 164
f 158 164 159
f 161 164 158
f 154 166 155
f 166 167 168
f 155 168 157
f 166 168 155
f 169 170 171
f 170 102 101
f 171 101 98
f 170 101 171
f 157 172 160
f 173 98 97
f 162 97 83
f 173 97 162
f 167 174 168
f 171 98 173
f 168 172 157
f 171 173 175
f 154 176 166
f 176 177 178
f 166 178 167
f 176 178 166
f 177 179 180
f 179 120 119
f 180 119 118
f 179 119 180
f 167 181 182
f 183 114 113
f 170 113 102
f 183 113 170
f 177 180 178
f 180 118 181
f 178 181 167
f 180 181 178
f 154 184 176
f 184 185 186
f 176 186 177
f 184 186 176
f 185 187 188
f 187 141 140
f 188 140 137
f 187 140 188
f 177 189 179
f 189 137 136
f 179 136 120
f 189 136 179
f 185 188 186
f 188 137 189
f 186 189 177
f 188 189 186
f 154 156 184
f 156 159 190
f 184 190 185
f 156 190 184
f 159 165 191
f 165 66 153
f 191 153 151
f 165 153 191
f 185 192 187
f 192 151 150
f 187 150 141
f 192 150 187
f 159 191 190
f 191 151 192
f 190 192 185
f 191 192 190
f 13 16 12
f 12 16 8
f 12 8 9
f 9 8 7
f 48 46 49
f 49 46 47
f 54 52 48
f 48 52 46
f 56 4 57
f 57 4 59
f 9 7 56
f 56 7 4
f 57 59 60
f 60 59 51
f 60 51 54
f 54 51 52
f 68 70 72
f 72 70 69
f 72 69 13
f 13 69 16
f 76 86 84
f 84 86 74
f 84 74 68
f 68 74 70
f 78 81 85
f 85 81 79
f 85 79 76
f 76 79 86
f 115 111 116
f 116 111 121
f 116 121 118
f 118 121 114
f 123 129 115
f 115 129 111
f 126 44 127
f 127 44 130
f 49 47 126
f 126 47 44
f 127 130 131
f 131 130 122
f 131 122 123
f 123 122 129
f 163 82 78
f 78 82 81
f 160 162 163
f 163 162 82
f 172 173 160
f 160 173 162
f 167 169 174
f 174 169 171
f 174 171 168
f 168 171 175
f 168 175 172
f 172 175 173
f 181 183 182
f 182 183 170
f 182 170 167
f 167 170 169
f 118 114 181
f 181 114 183
