v 0.586557 1.0784 0.867557
v 0.621427 1.03458 0.863083
v 0.615844 1.08337 0.819876
v 0.644694 0.985147 0.85
v 0.648089 1.03575 0.811445
v 0.633953 1.07901 0.766875
v 0.654586 0.933865 0.829305
v 0.667802 0.97587 0.791364
v 0.650351 0.884636 0.802573
v 0.668493 0.923456 0.766244
v 0.67145 0.965123 0.728678
v 0.662156 1.02522 0.747662
v 0.639506 1.06566 0.712589
v 0.658996 1.00646 0.692735
v 0.632078 1.04433 0.661152
v 0.563604 1.1191 0.836379
v 0.589605 1.12124 0.784436
v 0.53345 1.14776 0.798626
v 0.603671 1.11071 0.720653
v 0.601173 1.09099 0.666032
v 0.560207 1.12774 0.677304
v 0.550834 1.14686 0.737345
v 0.49839 1.1622 0.757171
v 0.512297 1.15179 0.69411
v 0.461092 1.1613 0.71517
v 0.536901 1.0924 0.889786
v 0.509758 1.13038 0.855146
v 0.482076 1.09639 0.901374
v 0.470987 1.15599 0.808056
v 0.37839 1.1622 0.757171
v 0.341092 1.1613 0.71517
v 0.313354 1.16082 0.76402
v 0.350987 1.15599 0.808056
v 0.288329 1.14512 0.811804
v 0.362076 1.09639 0.901374
v 0.323978 1.12898 0.862074
v 0.306255 1.09006 0.901439
v 0.267923 1.11539 0.854882
v 0.253689 1.07389 0.889977
v 0.443978 1.12898 0.862074
v 0.572637 1.04016 0.90629
v 0.518894 1.05053 0.925857
v 0.550828 0.995887 0.933125
v 0.333114 1.04914 0.932785
v 0.276956 1.03645 0.924793
v 0.305707 0.993241 0.946303
v 0.489259 0.996299 0.949478
v 0.52279 0.948945 0.946021
v 0.369259 0.996299 0.949478
v 0.337754 0.947569 0.95287
v 0.457754 0.947569 0.95287
v 0.490657 0.902908 0.943995
v 0.453114 1.04914 0.932785
v 0.604387 0.992044 0.898848
v 0.574752 0.937815 0.922468
v 0.54228 0.889747 0.926167
v 0.588325 0.881997 0.894929
v 0.6241 0.932169 0.878767
v 0.625286 0.880249 0.852658
v 0.647789 0.863408 0.750623
v 0.631618 0.849597 0.698626
v 0.660928 0.904607 0.711781
v 0.603068 0.844254 0.650539
v 0.63434 0.89322 0.65228
v 0.564312 0.847786 0.610024
v 0.597485 0.893044 0.607332
v 0.620878 0.943462 0.6155
v 0.655281 0.953955 0.66808
v 0.632709 0.995204 0.633907
v 0.596973 1.04744 0.617404
v 0.592549 0.995406 0.591886
v 0.552126 1.04397 0.583749
v 0.571608 0.93467 0.576087
v 0.541045 0.885235 0.575208
v 0.512293 0.92844 0.553697
v 0.535462 0.987508 0.559394
v 0.500951 1.03416 0.56275
v 0.480246 0.974111 0.54713
v 0.447343 1.01877 0.556006
v 0.560652 1.09229 0.624378
v 0.503566 1.08439 0.591886
v 0.380951 1.03416 0.56275
v 0.327343 1.01877 0.556006
v 0.328711 1.0699 0.579254
v 0.448711 1.0699 0.579254
v 0.451622 1.11272 0.6155
v 0.507814 1.12843 0.641071
v 0.455857 1.14398 0.661985
v 0.335857 1.14398 0.661985
v 0.287067 1.14956 0.705192
v 0.331622 1.11272 0.6155
v 0.28138 1.12618 0.65228
v 0.237757 1.12346 0.698626
v 0.277131 1.08214 0.603096
v 0.27572 1.03193 0.573833
v 0.229675 1.03968 0.605071
v 0.227783 1.08778 0.646797
v 0.196915 1.08498 0.69597
v 0.192714 1.04143 0.647342
v 0.16765 1.03704 0.697427
v 0.258619 1.14321 0.755483
v 0.205023 1.10482 0.75
v 0.170211 1.05827 0.749377
v 0.186382 1.07208 0.801374
v 0.23161 1.11621 0.809501
v 0.214933 1.07743 0.849461
v 0.220515 1.02864 0.892668
v 0.18366 1.02846 0.84772
v 0.197122 0.978218 0.8845
v 0.157073 1.01707 0.788219
v 0.149507 0.998224 0.733756
v 0.14655 0.956558 0.771322
v 0.162719 0.967725 0.83192
v 0.185291 0.926477 0.866093
v 0.159004 0.915218 0.807265
v 0.185922 0.877351 0.838848
v 0.246393 0.98701 0.923913
v 0.225452 0.926275 0.908114
v 0.221028 0.874237 0.882596
v 0.265875 0.877715 0.916251
v 0.282538 0.934173 0.940606
v 0.31705 0.887521 0.93725
v 0.370657 0.902908 0.943995
v 0.43705 0.887521 0.93725
v 0.48929 0.851785 0.920746
v 0.314435 0.837292 0.908114
v 0.36929 0.851785 0.920746
v 0.366378 0.808963 0.8845
v 0.257348 0.829394 0.875622
v 0.216827 0.830692 0.833968
v 0.257794 0.79394 0.822696
v 0.310186 0.793249 0.85893
v 0.362144 0.777702 0.838015
v 0.305703 0.769894 0.805891
v 0.356909 0.760383 0.78483
v 0.486378 0.808963 0.8845
v 0.540869 0.839543 0.896904
v 0.482144 0.777702 0.838015
v 0.53662 0.7955 0.84772
v 0.476909 0.760383 0.78483
v 0.530933 0.77212 0.794808
v 0.580244 0.798223 0.801374
v 0.590217 0.833897 0.853203
v 0.621086 0.836705 0.80403
v 0.612978 0.816863 0.75
v 0.559381 0.778466 0.744517
v 0.504647 0.760861 0.73598
v 0.529671 0.776562 0.688197
v 0.58639 0.805476 0.690499
v 0.550077 0.806292 0.645118
v 0.231443 0.843283 0.632443
v 0.245363 0.881519 0.59371
v 0.281099 0.829279 0.610214
v 0.267172 0.925794 0.566875
v 0.299106 0.871152 0.574143
v 0.335925 0.82529 0.598626
v 0.29521 0.972736 0.553979
v 0.328741 0.925381 0.550523
v 0.360246 0.974111 0.54713
v 0.448741 0.925381 0.550523
v 0.455925 0.82529 0.598626
v 0.484886 0.872544 0.567215
v 0.511745 0.83162 0.598561
v 0.364886 0.872544 0.567215
v 0.196573 0.887102 0.636917
v 0.173307 0.936534 0.65
v 0.213613 0.929636 0.601152
v 0.163415 0.987816 0.670695
v 0.1939 0.989512 0.621233
v 0.243248 0.983865 0.577532
v 0.202156 0.838312 0.680125
v 0.184047 0.842668 0.733126
v 0.169912 0.885935 0.688555
v 0.178495 0.85602 0.787411
v 0.155845 0.896462 0.752338
v 0.150198 0.94581 0.708637
v 0.254396 0.802576 0.663621
v 0.28455 0.773916 0.701374
v 0.228396 0.800442 0.715565
v 0.319611 0.759485 0.742829
v 0.267167 0.774824 0.762655
v 0.214329 0.810969 0.779347
v 0.308243 0.791305 0.644854
v 0.494023 0.792697 0.637926
v 0.347014 0.765688 0.691944
v 0.467014 0.765688 0.691944
v 0.439611 0.759485 0.742829
v 0.374023 0.792697 0.637926
f 1 2 3
f 2 4 5
f 3 5 6
f 2 5 3
f 4 7 8
f 7 9 10
f 8 10 11
f 7 10 8
f 6 12 13
f 12 11 14
f 13 14 15
f 12 14 13
f 4 8 5
f 8 11 12
f 5 12 6
f 8 12 5
f 1 3 16
f 3 6 17
f 16 17 18
f 3 17 16
f 6 13 19
f 13 15 20
f 19 20 21
f 13 20 19
f 18 22 23
f 22 21 24
f 23 24 25
f 22 24 23
f 6 19 17
f 19 21 22
f 17 22 18
f 19 22 17
f 1 16 26
f 16 18 27
f 26 27 28
f 16 27 26
f 18 23 29
f 30 31 32
f 33 32 34
f 30 32 33
f 35 36 37
f 36 34 38
f 37 38 39
f 36 38 37
f 18 29 27
f 33 34 36
f 27 40 28
f 29 40 27
f 1 26 41
f 26 28 42
f 41 42 43
f 26 42 41
f 35 37 44
f 37 39 45
f 44 45 46
f 37 45 44
f 43 47 48
f 49 46 50
f 48 51 52
f 47 51 48
f 28 53 42
f 44 46 49
f 42 47 43
f 53 47 42
f 1 41 2
f 41 43 54
f 2 54 4
f 41 54 2
f 43 48 55
f 48 52 56
f 55 56 57
f 48 56 55
f 4 58 7
f 58 57 59
f 7 59 9
f 58 59 7
f 43 55 54
f 55 57 58
f 54 58 4
f 55 58 54
f 9 60 10
f 60 61 62
f 10 62 11
f 60 62 10
f 61 63 64
f 63 65 66
f 64 66 67
f 63 66 64
f 11 68 14
f 68 67 69
f 14 69 15
f 68 69 14
f 61 64 62
f 64 67 68
f 62 68 11
f 64 68 62
f 15 69 70
f 69 67 71
f 70 71 72
f 69 71 70
f 67 66 73
f 66 65 74
f 73 74 75
f 66 74 73
f 72 76 77
f 76 75 78
f 77 78 79
f 76 78 77
f 67 73 71
f 73 75 76
f 71 76 72
f 73 76 71
f 15 70 20
f 70 72 80
f 20 80 21
f 70 80 20
f 72 77 81
f 82 83 84
f 81 85 86
f 77 85 81
f 21 87 24
f 87 86 88
f 24 88 25
f 87 88 24
f 72 81 80
f 81 86 87
f 80 87 21
f 81 87 80
f 31 89 90
f 89 91 92
f 90 92 93
f 89 92 90
f 91 84 94
f 84 83 95
f 94 95 96
f 84 95 94
f 93 97 98
f 97 96 99
f 98 99 100
f 97 99 98
f 91 94 92
f 94 96 97
f 92 97 93
f 94 97 92
f 31 90 32
f 90 93 101
f 32 101 34
f 90 101 32
f 93 98 102
f 98 100 103
f 102 103 104
f 98 103 102
f 34 105 38
f 105 104 106
f 38 106 39
f 105 106 38
f 93 102 101
f 102 104 105
f 101 105 34
f 102 105 101
f 39 106 107
f 106 104 108
f 107 108 109
f 106 108 107
f 104 103 110
f 103 100 111
f 110 111 112
f 103 111 110
f 109 113 114
f 113 112 115
f 114 115 116
f 113 115 114
f 104 110 108
f 110 112 113
f 108 113 109
f 110 113 108
f 39 107 45
f 107 109 117
f 45 117 46
f 107 117 45
f 109 114 118
f 114 116 119
f 118 119 120
f 114 119 118
f 46 121 50
f 121 120 122
f 50 122 123
f 121 122 50
f 109 118 117
f 118 120 121
f 117 121 46
f 118 121 117
f 52 124 125
f 122 120 126
f 127 126 128
f 122 126 127
f 120 119 129
f 119 116 130
f 129 130 131
f 119 130 129
f 128 132 133
f 132 131 134
f 133 134 135
f 132 134 133
f 120 129 126
f 129 131 132
f 126 132 128
f 129 132 126
f 52 125 56
f 125 136 137
f 56 137 57
f 125 137 56
f 136 138 139
f 138 140 141
f 139 141 142
f 138 141 139
f 57 143 59
f 143 142 144
f 59 144 9
f 143 144 59
f 136 139 137
f 139 142 143
f 137 143 57
f 139 143 137
f 9 144 60
f 144 142 145
f 60 145 61
f 144 145 60
f 142 141 146
f 141 140 147
f 146 147 148
f 141 147 146
f 61 149 63
f 149 148 150
f 63 150 65
f 149 150 63
f 142 146 145
f 146 148 149
f 145 149 61
f 146 149 145
f 151 152 153
f 152 154 155
f 153 155 156
f 152 155 153
f 154 157 158
f 157 83 159
f 160 78 75
f 157 159 158
f 161 162 163
f 162 75 74
f 163 74 65
f 162 74 163
f 154 158 155
f 160 75 162
f 155 164 156
f 158 164 155
f 151 165 152
f 165 166 167
f 152 167 154
f 165 167 152
f 166 168 169
f 168 100 99
f 169 99 96
f 168 99 169
f 154 170 157
f 170 96 95
f 157 95 83
f 170 95 157
f 166 169 167
f 169 96 170
f 167 170 154
f 169 170 167
f 151 171 165
f 171 172 173
f 165 173 166
f 171 173 165
f 172 174 175
f 174 116 115
f 175 115 112
f 174 115 175
f 166 176 168
f 176 112 111
f 168 111 100
f 176 111 168
f 172 175 173
f 175 112 176
f 173 176 166
f 175 176 173
f 151 177 171
f 177 178 179
f 171 179 172
f 177 179 171
f 178 180 181
f 180 135 134
f 181 134 131
f 180 134 181
f 172 182 174
f 182 131 130
f 174 130 116
f 182 130 174
f 178 181 179
f 181 131 182
f 179 182 172
f 181 182 179
f 151 153 177
f 153 156 183
f 177 183 178
f 153 183 177
f 161 163 184
f 163 65 150
f 184 150 148
f 163 150 184
f 178 185 180
f 186 148 147
f 187 147 140
f 186 147 187
f 156 188 183
f 184 148 186
f 183 185 178
f 188 185 183
f 25 31 23
f 23 31 30
f 23 30 29
f 29 30 33
f 40 36 28
f 28 36 35
f 29 33 40
f 40 33 36
f 51 50 52
f 52 50 123
f 47 49 51
f 51 49 50
f 28 35 53
f 53 35 44
f 53 44 47
f 47 44 49
f 78 159 79
f 79 159 83
f 79 83 77
f 77 83 82
f 85 84 86
f 86 84 91
f 77 82 85
f 85 82 84
f 86 91 88
f 88 91 89
f 88 89 25
f 25 89 31
f 52 123 124
f 124 123 122
f 124 122 125
f 125 122 127
f 125 127 136
f 136 127 128
f 136 128 138
f 138 128 133
f 138 133 140
f 140 133 135
f 160 158 78
f 78 158 159
f 161 156 162
f 162 156 164
f 162 164 160
f 160 164 158
f 184 188 161
f 161 188 156
f 140 135 187
f 187 135 180
f 187 180 186
f 186 180 185
f 186 185 184
f 184 185 188
