v 0.466557 1.07681 0.867557
v 0.501427 1.03299 0.863083
v 0.495844 1.08178 0.819876
v 0.524694 0.983563 0.85
v 0.528089 1.03416 0.811445
v 0.513953 1.07743 0.766875
v 0.534586 0.932281 0.829305
v 0.547802 0.974286 0.791364
v 0.530351 0.883052 0.802573
v 0.548493 0.921872 0.766244
v 0.55145 0.963538 0.728678
v 0.542156 1.02363 0.747662
v 0.519506 1.06408 0.712589
v 0.538996 1.00488 0.692735
v 0.512078 1.04275 0.661152
v 0.443604 1.11752 0.836379
v 0.469605 1.11966 0.784436
v 0.41345 1.14618 0.798626
v 0.483671 1.10913 0.720653
v 0.481173 1.0894 0.666032
v 0.440207 1.12616 0.677304
v 0.430834 1.14527 0.737345
v 0.37839 1.16061 0.757171
v 0.392297 1.1502 0.69411
v 0.341092 1.15971 0.71517
v 0.416901 1.09082 0.889786
v 0.389758 1.12879 0.855146
v 0.362076 1.09481 0.901374
v 0.350987 1.15441 0.808056
v 0.313354 1.15924 0.76402
v 0.288329 1.14353 0.811804
v 0.323978 1.1274 0.862074
v 0.306255 1.08848 0.901439
v 0.267923 1.1138 0.854882
v 0.253689 1.07231 0.889977
v 0.452637 1.03858 0.90629
v 0.398894 1.04894 0.925857
v 0.430828 0.994303 0.933125
v 0.333114 1.04755 0.932785
v 0.276956 1.03486 0.924793
v 0.305707 0.991657 0.946303
v 0.369259 0.994715 0.949478
v 0.40279 0.947361 0.946021
v 0.337754 0.945985 0.95287
v 0.370657 0.901324 0.943995
v 0.484387 0.99046 0.898848
v 0.454752 0.936231 0.922468
v 0.42228 0.888163 0.926167
v 0.468325 0.880413 0.894929
v 0.5041 0.930585 0.878767
v 0.505286 0.878665 0.852658
v 0.527789 0.861824 0.750623
v 0.511618 0.848013 0.698626
v 0.540928 0.903023 0.711781
v 0.483068 0.84267 0.650539
v 0.51434 0.891636 0.65228
v 0.444312 0.846202 0.610024
v 0.477485 0.89146 0.607332
v 0.500878 0.941878 0.6155
v 0.535281 0.952371 0.66808
v 0.512709 0.99362 0.633907
v 0.476973 1.04586 0.617404
v 0.472549 0.993822 0.591886
v 0.432126 1.04238 0.583749
v 0.451608 0.933086 0.576087
v 0.421045 0.883651 0.575208
v 0.392293 0.926856 0.553697
v 0.415462 0.985924 0.559394
v 0.380951 1.03258 0.56275
v 0.360246 0.972527 0.54713
v 0.327343 1.01719 0.556006
v 0.440652 1.0907 0.624378
v 0.383566 1.0828 0.591886
v 0.328711 1.06831 0.579254
v 0.331622 1.11113 0.6155
v 0.387814 1.12685 0.641071
v 0.335857 1.14239 0.661985
v 0.287067 1.14798 0.705192
v 0.28138 1.1246 0.65228
v 0.237757 1.12187 0.698626
v 0.277131 1.08055 0.603096
v 0.27572 1.03035 0.573833
v 0.229675 1.0381 0.605071
v 0.227783 1.0862 0.646797
v 0.196915 1.08339 0.69597
v 0.192714 1.03985 0.647342
v 0.16765 1.03546 0.697427
v 0.258619 1.14163 0.755483
v 0.205023 1.10323 0.75
v 0.170211 1.05669 0.749377
v 0.186382 1.0705 0.801374
v 0.23161 1.11462 0.809501
v 0.214933 1.07584 0.849461
v 0.220515 1.02705 0.892668
v 0.18366 1.02688 0.84772
v 0.197122 0.976634 0.8845
v 0.157073 1.01549 0.788219
v 0.149507 0.99664 0.733756
v 0.14655 0.954974 0.771322
v 0.162719 0.966141 0.83192
v 0.185291 0.924893 0.866093
v 0.159004 0.913634 0.807265
v 0.185922 0.875767 0.838848
v 0.246393 0.985426 0.923913
v 0.225452 0.924691 0.908114
v 0.221028 0.872653 0.882596
v 0.265875 0.876131 0.916251
v 0.282538 0.932589 0.940606
v 0.31705 0.885937 0.93725
v 0.36929 0.850201 0.920746
v 0.314435 0.835708 0.908114
v 0.366378 0.807379 0.8845
v 0.257348 0.82781 0.875622
v 0.216827 0.829108 0.833968
v 0.257794 0.792356 0.822696
v 0.310186 0.791665 0.85893
v 0.362144 0.776118 0.838015
v 0.305703 0.76831 0.805891
v 0.356909 0.758798 0.78483
v 0.420869 0.837959 0.896904
v 0.41662 0.793916 0.84772
v 0.410933 0.770535 0.794808
v 0.460244 0.796638 0.801374
v 0.470217 0.832313 0.853203
v 0.501086 0.83512 0.80403
v 0.492978 0.815279 0.75
v 0.439381 0.776882 0.744517
v 0.384647 0.759277 0.73598
v 0.409671 0.774978 0.688197
v 0.46639 0.803891 0.690499
v 0.430077 0.804708 0.645118
v 0.231443 0.841699 0.632443
v 0.245363 0.879935 0.59371
v 0.281099 0.827695 0.610214
v 0.267172 0.92421 0.566875
v 0.299106 0.869568 0.574143
v 0.335925 0.823706 0.598626
v 0.29521 0.971152 0.553979
v 0.328741 0.923797 0.550523
v 0.364886 0.87096 0.567215
v 0.391745 0.830036 0.598561
v 0.196573 0.885518 0.636917
v 0.173307 0.93495 0.65
v 0.213613 0.928052 0.601152
v 0.163415 0.986232 0.670695
v 0.1939 0.987928 0.621233
v 0.243248 0.982281 0.577532
v 0.202156 0.836728 0.680125
v 0.184047 0.841084 0.733126
v 0.169912 0.884351 0.688555
v 0.178495 0.854436 0.787411
v 0.155845 0.894878 0.752338
v 0.150198 0.944226 0.708637
v 0.254396 0.800992 0.663621
v 0.28455 0.772332 0.701374
v 0.228396 0.798858 0.715565
v 0.319611 0.757901 0.742829
v 0.267167 0.77324 0.762655
v 0.214329 0.809385 0.779347
v 0.308243 0.789721 0.644854
v 0.374023 0.791113 0.637926
v 0.347014 0.764104 0.691944
f 1 2 3
f 2 4 5
f 3 5 6
f 2 5 3
f 4 7 8
f 7 9 10
f 8 10 11
f 7 10 8
f 6 12 13
f 12 11 14
f 13 14 15
f 12 14 13
f 4 8 5
f 8 11 12
f 5 12 6
f 8 12 5
f 1 3 16
f 3 6 17
f 16 17 18
f 3 17 16
f 6 13 19
f 13 15 20
f 19 20 21
f 13 20 19
f 18 22 23
f 22 21 24
f 23 24 25
f 22 24 23
f 6 19 17
f 19 21 22
f 17 22 18
f 19 22 17
f 1 16 26
f 16 18 27
f 26 27 28
f 16 27 26
f 18 23 29
f 23 25 30
f 29 30 31
f 23 30 29
f 28 32 33
f 32 31 34
f 33 34 35
f 32 34 33
f 18 29 27
f 29 31 32
f 27 32 28
f 29 32 27
f 1 26 36
f 26 28 37
f 36 37 38
f 26 37 36
f 28 33 39
f 33 35 40
f 39 40 41
f 33 40 39
f 38 42 43
f 42 41 44
f 43 44 45
f 42 44 43
f 28 39 37
f 39 41 42
f 37 42 38
f 39 42 37
f 1 36 2
f 36 38 46
f 2 46 4
f 36 46 2
f 38 43 47
f 43 45 48
f 47 48 49
f 43 48 47
f 4 50 7
f 50 49 51
f 7 51 9
f 50 51 7
f 38 47 46
f 47 49 50
f 46 50 4
f 47 50 46
f 9 52 10
f 52 53 54
f 10 54 11
f 52 54 10
f 53 55 56
f 55 57 58
f 56 58 59
f 55 58 56
f 11 60 14
f 60 59 61
f 14 61 15
f 60 61 14
f 53 56 54
f 56 59 60
f 54 60 11
f 56 60 54
f 15 61 62
f 61 59 63
f 62 63 64
f 61 63 62
f 59 58 65
f 58 57 66
f 65 66 67
f 58 66 65
f 64 68 69
f 68 67 70
f 69 70 71
f 68 70 69
f 59 65 63
f 65 67 68
f 63 68 64
f 65 68 63
f 15 62 20
f 62 64 72
f 20 72 21
f 62 72 20
f 64 69 73
f 69 71 74
f 73 74 75
f 69 74 73
f 21 76 24
f 76 75 77
f 24 77 25
f 76 77 24
f 64 73 72
f 73 75 76
f 72 76 21
f 73 76 72
f 25 77 78
f 77 75 79
f 78 79 80
f 77 79 78
f 75 74 81
f 74 71 82
f 81 82 83
f 74 82 81
f 80 84 85
f 84 83 86
f 85 86 87
f 84 86 85
f 75 81 79
f 81 83 84
f 79 84 80
f 81 84 79
f 25 78 30
f 78 80 88
f 30 88 31
f 78 88 30
f 80 85 89
f 85 87 90
f 89 90 91
f 85 90 89
f 31 92 34
f 92 91 93
f 34 93 35
f 92 93 34
f 80 89 88
f 89 91 92
f 88 92 31
f 89 92 88
f 35 93 94
f 93 91 95
f 94 95 96
f 93 95 94
f 91 90 97
f 90 87 98
f 97 98 99
f 90 98 97
f 96 100 101
f 100 99 102
f 101 102 103
f 100 102 101
f 91 97 95
f 97 99 100
f 95 100 96
f 97 100 95
f 35 94 40
f 94 96 104
f 40 104 41
f 94 104 40
f 96 101 105
f 101 103 106
f 105 106 107
f 101 106 105
f 41 108 44
f 108 107 109
f 44 109 45
f 108 109 44
f 96 105 104
f 105 107 108
f 104 108 41
f 105 108 104
f 45 109 110
f 109 107 111
f 110 111 112
f 109 111 110
f 107 106 113
f 106 103 114
f 113 114 115
f 106 114 113
f 112 116 117
f 116 115 118
f 117 118 119
f 116 118 117
f 107 113 111
f 113 115 116
f 111 116 112
f 113 116 111
f 45 110 48
f 110 112 120
f 48 120 49
f 110 120 48
f 112 117 121
f 117 119 122
f 121 122 123
f 117 122 121
f 49 124 51
f 124 123 125
f 51 125 9
f 124 125 51
f 112 121 120
f 121 123 124
f 120 124 49
f 121 124 120
f 9 125 52
f 125 123 126
f 52 126 53
f 125 126 52
f 123 122 127
f 122 119 128
f 127 128 129
f 122 128 127
f 53 130 55
f 130 129 131
f 55 131 57
f 130 131 55
f 123 127 126
f 127 129 130
f 126 130 53
f 127 130 126
f 132 133 134
f 133 135 136
f 134 136 137
f 133 136 134
f 135 138 139
f 138 71 70
f 139 70 67
f 138 70 139
f 137 140 141
f 140 67 66
f 141 66 57
f 140 66 141
f 135 139 136
f 139 67 140
f 136 140 137
f 139 140 136
f 132 142 133
f 142 143 144
f 133 144 135
f 142 144 133
f 143 145 146
f 145 87 86
f 146 86 83
f 145 86 146
f 135 147 138
f 147 83 82
f 138 82 71
f 147 82 138
f 143 146 144
f 146 83 147
f 144 147 135
f 146 147 144
f 132 148 142
f 148 149 150
f 142 150 143
f 148 150 142
f 149 151 152
f 151 103 102
f 152 102 99
f 151 102 152
f 143 153 145
f 153 99 98
f 145 98 87
f 153 98 145
f 149 152 150
f 152 99 153
f 150 153 143
f 152 153 150
f 132 154 148
f 154 155 156
f 148 156 149
f 154 156 148
f 155 157 158
f 157 119 118
f 158 118 115
f 157 118 158
f 149 159 151
f 159 115 114
f 151 114 103
f 159 114 151
f 155 158 156
f 158 115 159
f 156 159 149
f 158 159 156
f 132 134 154
f 134 137 160
f 154 160 155
f 134 160 154
f 137 141 161
f 141 57 131
f 161 131 129
f 141 131 161
f 155 162 157
f 162 129 128
f 157 128 119
f 162 128 157
f 137 161 160
f 161 129 162
f 160 162 155
f 161 162 160
