v 0.466557 1.07523 0.867557
v 0.501427 1.03141 0.863083
v 0.495844 1.0802 0.819876
v 0.524694 0.981979 0.85
v 0.528089 1.03258 0.811445
v 0.513953 1.07584 0.766875
v 0.534586 0.930697 0.829305
v 0.547802 0.972702 0.791364
v 0.530351 0.881468 0.802573
v 0.548493 0.920288 0.766244
v 0.55145 0.961954 0.728678
v 0.513953 1.07843 0.726875
v 0.542156 1.02464 0.707662
v 0.519506 1.06508 0.672589
v 0.55145 0.964545 0.688678
v 0.538996 1.00588 0.652735
v 0.512078 1.04375 0.621152
v 0.542156 1.02205 0.747662
v 0.443604 1.11594 0.836379
v 0.469605 1.11807 0.784436
v 0.41345 1.1446 0.798626
v 0.483671 1.11013 0.680653
v 0.481173 1.09041 0.626032
v 0.440207 1.12716 0.637304
v 0.430834 1.14369 0.737345
v 0.37839 1.15903 0.757171
v 0.430834 1.14628 0.697345
v 0.392297 1.15121 0.65411
v 0.37839 1.16162 0.717171
v 0.341092 1.16072 0.67517
v 0.469605 1.12066 0.744436
v 0.416901 1.08923 0.889786
v 0.389758 1.12721 0.855146
v 0.362076 1.09322 0.901374
v 0.350987 1.15282 0.808056
v 0.313354 1.16024 0.72402
v 0.313354 1.15765 0.76402
v 0.288329 1.14195 0.811804
v 0.323978 1.12582 0.862074
v 0.306255 1.08689 0.901439
v 0.267923 1.11222 0.854882
v 0.253689 1.07073 0.889977
v 0.452637 1.03699 0.90629
v 0.398894 1.04736 0.925857
v 0.430828 0.992719 0.933125
v 0.333114 1.04597 0.932785
v 0.276956 1.03328 0.924793
v 0.305707 0.990072 0.946303
v 0.369259 0.993131 0.949478
v 0.40279 0.945777 0.946021
v 0.337754 0.944401 0.95287
v 0.370657 0.89974 0.943995
v 0.484387 0.988876 0.898848
v 0.454752 0.934647 0.922468
v 0.42228 0.886579 0.926167
v 0.468325 0.878829 0.894929
v 0.5041 0.929001 0.878767
v 0.505286 0.877081 0.852658
v 0.527789 0.86024 0.750623
v 0.527789 0.86283 0.710623
v 0.511618 0.849019 0.658626
v 0.540928 0.90403 0.671781
v 0.548493 0.922879 0.726244
v 0.540928 0.901439 0.711781
v 0.483068 0.843676 0.610539
v 0.51434 0.892642 0.61228
v 0.444312 0.847208 0.570024
v 0.477485 0.892466 0.567332
v 0.500878 0.942885 0.5755
v 0.535281 0.953378 0.62808
v 0.512709 0.994626 0.593907
v 0.476973 1.04687 0.577404
v 0.472549 0.994828 0.551886
v 0.432126 1.04339 0.543749
v 0.451608 0.934093 0.536087
v 0.421045 0.884658 0.535208
v 0.392293 0.927862 0.513697
v 0.415462 0.98693 0.519394
v 0.380951 1.03358 0.52275
v 0.360246 0.973534 0.50713
v 0.327343 1.01819 0.516006
v 0.440652 1.09171 0.584378
v 0.383566 1.08381 0.551886
v 0.328711 1.06932 0.539254
v 0.331622 1.11214 0.5755
v 0.387814 1.12785 0.601071
v 0.335857 1.1434 0.621985
v 0.287067 1.14898 0.665192
v 0.28138 1.1256 0.61228
v 0.237757 1.12288 0.658626
v 0.277131 1.08156 0.563096
v 0.27572 1.03136 0.533833
v 0.229675 1.03911 0.565071
v 0.227783 1.08721 0.606798
v 0.196915 1.0844 0.65597
v 0.192714 1.04085 0.607342
v 0.16765 1.03647 0.657427
v 0.258619 1.14264 0.715483
v 0.258619 1.14005 0.755483
v 0.205023 1.10424 0.71
v 0.170211 1.05769 0.709377
v 0.205023 1.10165 0.75
v 0.170211 1.0551 0.749377
v 0.186382 1.06892 0.801374
v 0.23161 1.11304 0.809501
v 0.214933 1.07426 0.849461
v 0.220515 1.02547 0.892668
v 0.18366 1.02529 0.84772
v 0.197122 0.97505 0.8845
v 0.157073 1.01391 0.788219
v 0.149507 0.997646 0.693756
v 0.149507 0.995056 0.733756
v 0.14655 0.95339 0.771322
v 0.157073 1.0165 0.748219
v 0.162719 0.964557 0.83192
v 0.185291 0.923308 0.866093
v 0.159004 0.91205 0.807265
v 0.185922 0.874183 0.838848
v 0.246393 0.983842 0.923913
v 0.225452 0.923107 0.908114
v 0.221028 0.871068 0.882596
v 0.265875 0.874547 0.916251
v 0.282538 0.931004 0.940606
v 0.31705 0.884353 0.93725
v 0.36929 0.848617 0.920746
v 0.314435 0.834124 0.908114
v 0.366378 0.805794 0.8845
v 0.257348 0.826226 0.875622
v 0.216827 0.827524 0.833968
v 0.257794 0.790772 0.822696
v 0.310186 0.790081 0.85893
v 0.362144 0.774534 0.838015
v 0.305703 0.766726 0.805891
v 0.356909 0.757214 0.78483
v 0.420869 0.836375 0.896904
v 0.41662 0.792332 0.84772
v 0.410933 0.768951 0.794808
v 0.460244 0.795054 0.801374
v 0.470217 0.830729 0.853203
v 0.501086 0.833536 0.80403
v 0.492978 0.813695 0.75
v 0.492978 0.816285 0.71
v 0.439381 0.775298 0.744517
v 0.384647 0.757693 0.73598
v 0.439381 0.777889 0.704517
v 0.384647 0.760283 0.69598
v 0.409671 0.775985 0.648197
v 0.46639 0.804898 0.650499
v 0.430077 0.805714 0.605118
v 0.231443 0.842705 0.592443
v 0.245363 0.880942 0.55371
v 0.281099 0.828702 0.570214
v 0.267172 0.925216 0.526875
v 0.299106 0.870574 0.534143
v 0.335925 0.824712 0.558626
v 0.29521 0.972158 0.513979
v 0.328741 0.924804 0.510523
v 0.364886 0.871966 0.527215
v 0.391745 0.831042 0.558561
v 0.196573 0.886524 0.596918
v 0.173307 0.935956 0.61
v 0.213613 0.929059 0.561152
v 0.163415 0.987238 0.630695
v 0.1939 0.988934 0.581233
v 0.243248 0.983288 0.537532
v 0.202156 0.837734 0.640125
v 0.184047 0.84209 0.693126
v 0.169912 0.885357 0.648556
v 0.184047 0.8395 0.733126
v 0.178495 0.852852 0.787411
v 0.155845 0.893294 0.752338
v 0.150198 0.945233 0.668637
v 0.14655 0.95598 0.731322
v 0.155845 0.895885 0.712338
v 0.254396 0.801998 0.623621
v 0.28455 0.773338 0.661374
v 0.228396 0.799864 0.675565
v 0.319611 0.758908 0.702829
v 0.267167 0.774246 0.722655
v 0.319611 0.756317 0.742829
v 0.267167 0.771656 0.762655
v 0.214329 0.807801 0.779347
v 0.228396 0.797273 0.715565
v 0.308243 0.790728 0.604854
v 0.374023 0.792119 0.597926
v 0.347014 0.76511 0.651944
f 1 2 3
f 2 4 5
f 3 5 6
f 2 5 3
f 4 7 8
f 7 9 10
f 8 10 11
f 7 10 8
f 12 13 14
f 13 15 16
f 14 16 17
f 13 16 14
f 4 8 5
f 8 11 18
f 5 18 6
f 8 18 5
f 1 3 19
f 3 6 20
f 19 20 21
f 3 20 19
f 12 14 22
f 14 17 23
f 22 23 24
f 14 23 22
f 21 25 26
f 27 24 28
f 29 28 30
f 27 28 29
f 12 22 31
f 22 24 27
f 20 25 21
f 22 27 31
f 1 19 32
f 19 21 33
f 32 33 34
f 19 33 32
f 21 26 35
f 29 30 36
f 35 37 38
f 26 37 35
f 34 39 40
f 39 38 41
f 40 41 42
f 39 41 40
f 21 35 33
f 35 38 39
f 33 39 34
f 35 39 33
f 1 32 43
f 32 34 44
f 43 44 45
f 32 44 43
f 34 40 46
f 40 42 47
f 46 47 48
f 40 47 46
f 45 49 50
f 49 48 51
f 50 51 52
f 49 51 50
f 34 46 44
f 46 48 49
f 44 49 45
f 46 49 44
f 1 43 2
f 43 45 53
f 2 53 4
f 43 53 2
f 45 50 54
f 50 52 55
f 54 55 56
f 50 55 54
f 4 57 7
f 57 56 58
f 7 58 9
f 57 58 7
f 45 54 53
f 54 56 57
f 53 57 4
f 54 57 53
f 9 59 10
f 60 61 62
f 63 62 15
f 59 64 10
f 61 65 66
f 65 67 68
f 66 68 69
f 65 68 66
f 15 70 16
f 70 69 71
f 16 71 17
f 70 71 16
f 61 66 62
f 66 69 70
f 62 70 15
f 66 70 62
f 17 71 72
f 71 69 73
f 72 73 74
f 71 73 72
f 69 68 75
f 68 67 76
f 75 76 77
f 68 76 75
f 74 78 79
f 78 77 80
f 79 80 81
f 78 80 79
f 69 75 73
f 75 77 78
f 73 78 74
f 75 78 73
f 17 72 23
f 72 74 82
f 23 82 24
f 72 82 23
f 74 79 83
f 79 81 84
f 83 84 85
f 79 84 83
f 24 86 28
f 86 85 87
f 28 87 30
f 86 87 28
f 74 83 82
f 83 85 86
f 82 86 24
f 83 86 82
f 30 87 88
f 87 85 89
f 88 89 90
f 87 89 88
f 85 84 91
f 84 81 92
f 91 92 93
f 84 92 91
f 90 94 95
f 94 93 96
f 95 96 97
f 94 96 95
f 85 91 89
f 91 93 94
f 89 94 90
f 91 94 89
f 30 88 36
f 88 90 98
f 37 99 38
f 88 98 36
f 90 95 100
f 95 97 101
f 102 103 104
f 95 101 100
f 38 105 41
f 105 104 106
f 41 106 42
f 105 106 41
f 90 100 98
f 102 104 105
f 99 105 38
f 102 105 99
f 42 106 107
f 106 104 108
f 107 108 109
f 106 108 107
f 104 103 110
f 101 97 111
f 110 112 113
f 101 111 114
f 109 115 116
f 115 113 117
f 116 117 118
f 115 117 116
f 104 110 108
f 110 113 115
f 108 115 109
f 110 115 108
f 42 107 47
f 107 109 119
f 47 119 48
f 107 119 47
f 109 116 120
f 116 118 121
f 120 121 122
f 116 121 120
f 48 123 51
f 123 122 124
f 51 124 52
f 123 124 51
f 109 120 119
f 120 122 123
f 119 123 48
f 120 123 119
f 52 124 125
f 124 122 126
f 125 126 127
f 124 126 125
f 122 121 128
f 121 118 129
f 128 129 130
f 121 129 128
f 127 131 132
f 131 130 133
f 132 133 134
f 131 133 132
f 122 128 126
f 128 130 131
f 126 131 127
f 128 131 126
f 52 125 55
f 125 127 135
f 55 135 56
f 125 135 55
f 127 132 136
f 132 134 137
f 136 137 138
f 132 137 136
f 56 139 58
f 139 138 140
f 58 140 9
f 139 140 58
f 127 136 135
f 136 138 139
f 135 139 56
f 136 139 135
f 9 140 59
f 140 138 141
f 60 142 61
f 140 141 59
f 138 137 143
f 137 134 144
f 145 146 147
f 137 144 143
f 61 148 65
f 148 147 149
f 65 149 67
f 148 149 65
f 138 143 141
f 145 147 148
f 142 148 61
f 145 148 142
f 150 151 152
f 151 153 154
f 152 154 155
f 151 154 152
f 153 156 157
f 156 81 80
f 157 80 77
f 156 80 157
f 155 158 159
f 158 77 76
f 159 76 67
f 158 76 159
f 153 157 154
f 157 77 158
f 154 158 155
f 157 158 154
f 150 160 151
f 160 161 162
f 151 162 153
f 160 162 151
f 161 163 164
f 163 97 96
f 164 96 93
f 163 96 164
f 153 165 156
f 165 93 92
f 156 92 81
f 165 92 156
f 161 164 162
f 164 93 165
f 162 165 153
f 164 165 162
f 150 166 160
f 166 167 168
f 160 168 161
f 166 168 160
f 169 170 171
f 170 118 117
f 171 117 113
f 170 117 171
f 161 172 163
f 172 173 111
f 163 111 97
f 172 111 163
f 167 174 168
f 174 173 172
f 168 172 161
f 174 172 168
f 150 175 166
f 175 176 177
f 166 177 167
f 175 177 166
f 176 178 179
f 180 134 133
f 181 133 130
f 180 133 181
f 169 182 170
f 182 130 129
f 170 129 118
f 182 129 170
f 176 179 177
f 181 130 182
f 183 182 169
f 181 182 183
f 150 152 175
f 152 155 184
f 175 184 176
f 152 184 175
f 155 159 185
f 159 67 149
f 185 149 147
f 159 149 185
f 176 186 178
f 186 147 146
f 180 144 134
f 186 146 178
f 155 185 184
f 185 147 186
f 184 186 176
f 185 186 184
f 10 63 11
f 11 63 15
f 11 15 18
f 18 15 13
f 18 13 6
f 6 13 12
f 6 12 20
f 20 12 31
f 25 27 26
f 26 27 29
f 20 31 25
f 25 31 27
f 26 29 37
f 37 29 36
f 59 60 64
f 64 60 62
f 64 62 10
f 10 62 63
f 37 36 99
f 99 36 98
f 102 100 103
f 103 100 101
f 99 98 102
f 102 98 100
f 103 101 110
f 110 101 114
f 110 114 112
f 112 114 111
f 112 111 113
f 113 111 173
f 141 142 59
f 59 142 60
f 144 146 143
f 143 146 145
f 143 145 141
f 141 145 142
f 171 174 169
f 169 174 167
f 113 173 171
f 171 173 174
f 181 179 180
f 180 179 178
f 169 167 183
f 183 167 177
f 183 177 181
f 181 177 179
f 180 178 144
f 144 178 146
