v 0.466557 1.07782 0.827557
v 0.501427 1.034 0.823083
v 0.495844 1.08279 0.779876
v 0.524694 0.984569 0.81
v 0.528089 1.03517 0.771445
v 0.513953 1.07843 0.726875
v 0.534586 0.933287 0.789305
v 0.547802 0.975293 0.751364
v 0.530351 0.884058 0.762573
v 0.548493 0.922879 0.726244
v 0.55145 0.964545 0.688678
v 0.513953 1.09472 0.686875
v 0.542156 1.04093 0.667662
v 0.519506 1.08137 0.632589
v 0.55145 0.980829 0.648678
v 0.538996 1.02217 0.612735
v 0.512078 1.06004 0.581152
v 0.547802 0.991577 0.711364
v 0.528089 1.05145 0.731445
v 0.542156 1.02464 0.707662
v 0.443604 1.11853 0.796379
v 0.495844 1.09908 0.739875
v 0.469605 1.13695 0.704436
v 0.443604 1.13481 0.756379
v 0.41345 1.16347 0.718626
v 0.469605 1.12066 0.744436
v 0.483671 1.12642 0.640653
v 0.481173 1.1067 0.586032
v 0.440207 1.14345 0.597304
v 0.430834 1.16256 0.657345
v 0.37839 1.1779 0.677171
v 0.392297 1.16749 0.61411
v 0.341092 1.17701 0.63517
v 0.416901 1.09182 0.849786
v 0.41345 1.14719 0.758626
v 0.389758 1.1298 0.815146
v 0.362076 1.09581 0.861374
v 0.350987 1.1717 0.728056
v 0.313354 1.17653 0.68402
v 0.288329 1.16083 0.731803
v 0.323978 1.12841 0.822074
v 0.306255 1.08948 0.86144
v 0.288329 1.14454 0.771804
v 0.267923 1.11481 0.814882
v 0.253689 1.07332 0.849977
v 0.389758 1.14608 0.775146
v 0.350987 1.15542 0.768056
v 0.452637 1.03958 0.86629
v 0.398894 1.04995 0.885857
v 0.430828 0.995309 0.893126
v 0.333114 1.04856 0.892785
v 0.276956 1.03587 0.884793
v 0.305707 0.992663 0.906303
v 0.369259 0.995722 0.909478
v 0.40279 0.948367 0.906021
v 0.337754 0.946992 0.912871
v 0.370657 0.902331 0.903995
v 0.484387 0.991466 0.858848
v 0.454752 0.937237 0.882468
v 0.42228 0.889169 0.886167
v 0.468325 0.881419 0.854929
v 0.5041 0.931591 0.838767
v 0.505286 0.879671 0.812658
v 0.527789 0.86283 0.710623
v 0.511618 0.849019 0.658626
v 0.540928 0.90403 0.671781
v 0.548493 0.939163 0.686244
v 0.540928 0.920314 0.631781
v 0.511618 0.865304 0.618626
v 0.483068 0.859961 0.570539
v 0.51434 0.908927 0.57228
v 0.444312 0.863493 0.530024
v 0.477485 0.908751 0.527332
v 0.500878 0.959169 0.5355
v 0.535281 0.969662 0.58808
v 0.512709 1.01091 0.553907
v 0.476973 1.06315 0.537404
v 0.472549 1.01111 0.511886
v 0.432126 1.05967 0.503749
v 0.451608 0.950377 0.496087
v 0.421045 0.900942 0.495207
v 0.392293 0.944147 0.473697
v 0.415462 1.00322 0.479394
v 0.380951 1.04987 0.48275
v 0.360246 0.989818 0.46713
v 0.327343 1.03448 0.476006
v 0.440652 1.10799 0.544378
v 0.383566 1.1001 0.511886
v 0.328711 1.0856 0.499254
v 0.331622 1.12843 0.5355
v 0.387814 1.14414 0.561071
v 0.335857 1.15969 0.581985
v 0.287067 1.16527 0.625192
v 0.28138 1.14189 0.57228
v 0.237757 1.13917 0.618626
v 0.277131 1.09784 0.523096
v 0.27572 1.04764 0.493833
v 0.229675 1.05539 0.525071
v 0.227783 1.10349 0.566797
v 0.196915 1.10068 0.61597
v 0.192714 1.05714 0.567342
v 0.16765 1.05275 0.617427
v 0.258619 1.15892 0.675483
v 0.205023 1.12052 0.67
v 0.170211 1.07398 0.669377
v 0.186382 1.08779 0.721374
v 0.23161 1.11563 0.769501
v 0.186382 1.07151 0.761374
v 0.214933 1.07685 0.809461
v 0.23161 1.13191 0.729501
v 0.220515 1.02806 0.852668
v 0.18366 1.02788 0.80772
v 0.197122 0.97764 0.8445
v 0.157073 1.03278 0.708219
v 0.149507 1.01393 0.653756
v 0.157073 1.0165 0.748219
v 0.149507 0.997646 0.693756
v 0.14655 0.95598 0.731322
v 0.162719 0.967147 0.79192
v 0.185291 0.925899 0.826093
v 0.159004 0.91464 0.767265
v 0.185922 0.876773 0.798848
v 0.246393 0.986432 0.883914
v 0.225452 0.925697 0.868114
v 0.221028 0.873659 0.842597
v 0.265875 0.877137 0.876251
v 0.282538 0.933595 0.900606
v 0.31705 0.886943 0.89725
v 0.36929 0.851207 0.880746
v 0.314435 0.836714 0.868114
v 0.366378 0.808385 0.8445
v 0.257348 0.828816 0.835622
v 0.216827 0.830114 0.793968
v 0.257794 0.793363 0.782696
v 0.310186 0.792671 0.81893
v 0.362144 0.777124 0.798015
v 0.305703 0.769316 0.765891
v 0.356909 0.759805 0.74483
v 0.420869 0.838965 0.856904
v 0.41662 0.794922 0.80772
v 0.410933 0.771542 0.754808
v 0.460244 0.797645 0.761374
v 0.470217 0.833319 0.813203
v 0.501086 0.836127 0.76403
v 0.492978 0.816285 0.71
v 0.439381 0.777889 0.704517
v 0.384647 0.760283 0.69598
v 0.409671 0.775985 0.648197
v 0.46639 0.821182 0.610499
v 0.409671 0.792269 0.608197
v 0.430077 0.821999 0.565118
v 0.46639 0.804898 0.650499
v 0.231443 0.85899 0.552443
v 0.245363 0.897226 0.51371
v 0.281099 0.844986 0.530214
v 0.267172 0.941501 0.486875
v 0.299106 0.886859 0.494143
v 0.335925 0.840997 0.518626
v 0.29521 0.988443 0.473979
v 0.328741 0.941088 0.470523
v 0.364886 0.888251 0.487215
v 0.391745 0.847327 0.518561
v 0.196573 0.902809 0.556917
v 0.173307 0.952241 0.57
v 0.213613 0.945343 0.521152
v 0.163415 1.00352 0.590695
v 0.1939 1.00522 0.541233
v 0.243248 0.999572 0.497532
v 0.202156 0.854019 0.600125
v 0.184047 0.858375 0.653125
v 0.169912 0.901642 0.608555
v 0.184047 0.84209 0.693126
v 0.178495 0.855442 0.747411
v 0.155845 0.895885 0.712338
v 0.150198 0.961517 0.628637
v 0.14655 0.972265 0.691322
v 0.169912 0.885357 0.648556
v 0.150198 0.945233 0.668637
v 0.155845 0.912169 0.672338
v 0.254396 0.818283 0.583621
v 0.254396 0.801998 0.623621
v 0.28455 0.773338 0.661374
v 0.228396 0.799864 0.675565
v 0.202156 0.837734 0.640125
v 0.228396 0.816149 0.635565
v 0.319611 0.758908 0.702829
v 0.267167 0.774246 0.722655
v 0.214329 0.810391 0.739347
v 0.308243 0.807012 0.564854
v 0.28455 0.789623 0.621374
v 0.374023 0.808404 0.557926
v 0.347014 0.76511 0.651944
v 0.347014 0.781395 0.611944
v 0.308243 0.790728 0.604854
f 1 2 3
f 2 4 5
f 3 5 6
f 2 5 3
f 4 7 8
f 7 9 10
f 8 10 11
f 7 10 8
f 12 13 14
f 13 15 16
f 14 16 17
f 13 16 14
f 4 8 5
f 18 15 13
f 19 13 12
f 8 20 5
f 1 3 21
f 22 12 23
f 24 23 25
f 3 26 21
f 12 14 27
f 14 17 28
f 27 28 29
f 14 28 27
f 25 30 31
f 30 29 32
f 31 32 33
f 30 32 31
f 12 27 23
f 27 29 30
f 23 30 25
f 27 30 23
f 1 21 34
f 21 35 36
f 34 36 37
f 21 36 34
f 25 31 38
f 31 33 39
f 38 39 40
f 31 39 38
f 37 41 42
f 41 43 44
f 42 44 45
f 41 44 42
f 25 38 46
f 47 43 41
f 36 41 37
f 47 41 36
f 1 34 48
f 34 37 49
f 48 49 50
f 34 49 48
f 37 42 51
f 42 45 52
f 51 52 53
f 42 52 51
f 50 54 55
f 54 53 56
f 55 56 57
f 54 56 55
f 37 51 49
f 51 53 54
f 49 54 50
f 51 54 49
f 1 48 2
f 48 50 58
f 2 58 4
f 48 58 2
f 50 55 59
f 55 57 60
f 59 60 61
f 55 60 59
f 4 62 7
f 62 61 63
f 7 63 9
f 62 63 7
f 50 59 58
f 59 61 62
f 58 62 4
f 59 62 58
f 9 64 10
f 64 65 66
f 67 68 15
f 64 66 10
f 69 70 71
f 70 72 73
f 71 73 74
f 70 73 71
f 15 75 16
f 75 74 76
f 16 76 17
f 75 76 16
f 69 71 68
f 71 74 75
f 68 75 15
f 71 75 68
f 17 76 77
f 76 74 78
f 77 78 79
f 76 78 77
f 74 73 80
f 73 72 81
f 80 81 82
f 73 81 80
f 79 83 84
f 83 82 85
f 84 85 86
f 83 85 84
f 74 80 78
f 80 82 83
f 78 83 79
f 80 83 78
f 17 77 28
f 77 79 87
f 28 87 29
f 77 87 28
f 79 84 88
f 84 86 89
f 88 89 90
f 84 89 88
f 29 91 32
f 91 90 92
f 32 92 33
f 91 92 32
f 79 88 87
f 88 90 91
f 87 91 29
f 88 91 87
f 33 92 93
f 92 90 94
f 93 94 95
f 92 94 93
f 90 89 96
f 89 86 97
f 96 97 98
f 89 97 96
f 95 99 100
f 99 98 101
f 100 101 102
f 99 101 100
f 90 96 94
f 96 98 99
f 94 99 95
f 96 99 94
f 33 93 39
f 93 95 103
f 39 103 40
f 93 103 39
f 95 100 104
f 100 102 105
f 104 105 106
f 100 105 104
f 43 107 44
f 107 108 109
f 44 109 45
f 107 109 44
f 95 104 103
f 104 106 110
f 103 110 40
f 104 110 103
f 45 109 111
f 109 108 112
f 111 112 113
f 109 112 111
f 106 105 114
f 105 102 115
f 116 117 118
f 105 115 114
f 113 119 120
f 119 118 121
f 120 121 122
f 119 121 120
f 108 116 112
f 116 118 119
f 112 119 113
f 116 119 112
f 45 111 52
f 111 113 123
f 52 123 53
f 111 123 52
f 113 120 124
f 120 122 125
f 124 125 126
f 120 125 124
f 53 127 56
f 127 126 128
f 56 128 57
f 127 128 56
f 113 124 123
f 124 126 127
f 123 127 53
f 124 127 123
f 57 128 129
f 128 126 130
f 129 130 131
f 128 130 129
f 126 125 132
f 125 122 133
f 132 133 134
f 125 133 132
f 131 135 136
f 135 134 137
f 136 137 138
f 135 137 136
f 126 132 130
f 132 134 135
f 130 135 131
f 132 135 130
f 57 129 60
f 129 131 139
f 60 139 61
f 129 139 60
f 131 136 140
f 136 138 141
f 140 141 142
f 136 141 140
f 61 143 63
f 143 142 144
f 63 144 9
f 143 144 63
f 131 140 139
f 140 142 143
f 139 143 61
f 140 143 139
f 9 144 64
f 144 142 145
f 64 145 65
f 144 145 64
f 142 141 146
f 141 138 147
f 146 147 148
f 141 147 146
f 69 149 70
f 149 150 151
f 70 151 72
f 149 151 70
f 142 146 145
f 146 148 152
f 145 152 65
f 146 152 145
f 153 154 155
f 154 156 157
f 155 157 158
f 154 157 155
f 156 159 160
f 159 86 85
f 160 85 82
f 159 85 160
f 158 161 162
f 161 82 81
f 162 81 72
f 161 81 162
f 156 160 157
f 160 82 161
f 157 161 158
f 160 161 157
f 153 163 154
f 163 164 165
f 154 165 156
f 163 165 154
f 164 166 167
f 166 102 101
f 167 101 98
f 166 101 167
f 156 168 159
f 168 98 97
f 159 97 86
f 168 97 159
f 164 167 165
f 167 98 168
f 165 168 156
f 167 168 165
f 153 169 163
f 169 170 171
f 163 171 164
f 169 171 163
f 172 173 174
f 173 122 121
f 174 121 118
f 173 121 174
f 164 175 166
f 175 176 115
f 166 115 102
f 175 115 166
f 172 174 177
f 174 118 178
f 171 175 164
f 179 175 171
f 153 180 169
f 181 182 183
f 184 183 172
f 180 185 169
f 182 186 187
f 186 138 137
f 187 137 134
f 186 137 187
f 172 188 173
f 188 134 133
f 173 133 122
f 188 133 173
f 182 187 183
f 187 134 188
f 183 188 172
f 187 188 183
f 153 155 180
f 155 158 189
f 180 189 190
f 155 189 180
f 158 162 191
f 162 72 151
f 191 151 150
f 162 151 191
f 182 192 186
f 192 148 147
f 186 147 138
f 192 147 186
f 158 191 189
f 191 150 193
f 194 192 182
f 191 193 189
f 5 19 6
f 6 19 12
f 6 12 3
f 3 12 22
f 10 67 11
f 11 67 15
f 11 15 8
f 8 15 18
f 8 18 20
f 20 18 13
f 20 13 5
f 5 13 19
f 3 22 26
f 26 22 23
f 26 23 21
f 21 23 24
f 21 24 35
f 35 24 25
f 35 25 36
f 36 25 46
f 47 38 43
f 43 38 40
f 36 46 47
f 47 46 38
f 65 69 66
f 66 69 68
f 66 68 10
f 10 68 67
f 43 40 107
f 107 40 110
f 107 110 108
f 108 110 106
f 116 114 117
f 117 114 115
f 117 115 118
f 118 115 176
f 108 106 116
f 116 106 114
f 148 150 152
f 152 150 149
f 152 149 65
f 65 149 69
f 174 179 177
f 177 179 171
f 177 171 172
f 172 171 170
f 118 176 178
f 178 176 175
f 178 175 174
f 174 175 179
f 181 180 182
f 182 180 190
f 183 185 181
f 181 185 180
f 184 169 183
f 183 169 185
f 172 170 184
f 184 170 169
f 192 193 148
f 148 193 150
f 194 189 192
f 192 189 193
f 182 190 194
f 194 190 189
