v 0.466557 1.0941 0.787557
v 0.501427 1.05029 0.783083
v 0.495844 1.09908 0.739875
v 0.524694 1.00085 0.77
v 0.528089 1.05145 0.731445
v 0.513953 1.09472 0.686875
v 0.534586 0.949572 0.749305
v 0.547802 0.991577 0.711364
v 0.530351 0.900343 0.722573
v 0.548493 0.939163 0.686244
v 0.55145 0.980829 0.648678
v 0.513953 1.11109 0.606875
v 0.542156 1.05729 0.587662
v 0.519506 1.09774 0.552589
v 0.55145 0.997199 0.568678
v 0.538996 1.03854 0.532735
v 0.512078 1.07641 0.501152
v 0.542156 1.04093 0.667662
v 0.443604 1.13481 0.756379
v 0.469605 1.13695 0.704436
v 0.41345 1.16347 0.718626
v 0.483671 1.14279 0.560653
v 0.481173 1.12306 0.506032
v 0.440207 1.15982 0.517304
v 0.41345 1.17984 0.638626
v 0.430834 1.17893 0.577345
v 0.37839 1.19427 0.597171
v 0.392297 1.18386 0.53411
v 0.341092 1.19337 0.55517
v 0.469605 1.15332 0.624436
v 0.416901 1.10811 0.809786
v 0.389758 1.14608 0.775146
v 0.362076 1.1121 0.821374
v 0.37839 1.1779 0.677171
v 0.350987 1.1717 0.728056
v 0.313354 1.1929 0.60402
v 0.313354 1.17653 0.68402
v 0.288329 1.16083 0.731803
v 0.350987 1.18807 0.648056
v 0.323978 1.14469 0.782074
v 0.306255 1.10577 0.821439
v 0.267923 1.1311 0.774882
v 0.253689 1.0896 0.809976
v 0.452637 1.05587 0.82629
v 0.398894 1.06624 0.845857
v 0.430828 1.01159 0.853125
v 0.333114 1.06484 0.852785
v 0.276956 1.05215 0.844793
v 0.305707 1.00895 0.866303
v 0.369259 1.01201 0.869478
v 0.40279 0.964652 0.866021
v 0.337754 0.963276 0.87287
v 0.370657 0.918615 0.863995
v 0.484387 1.00775 0.818848
v 0.454752 0.953522 0.842468
v 0.42228 0.905454 0.846167
v 0.468325 0.897704 0.814929
v 0.5041 0.947876 0.798767
v 0.505286 0.895956 0.772658
v 0.527789 0.879115 0.670623
v 0.527789 0.895484 0.590623
v 0.511618 0.881673 0.538626
v 0.540928 0.936684 0.551781
v 0.548493 0.955533 0.606244
v 0.540928 0.920314 0.631781
v 0.483068 0.87633 0.490539
v 0.51434 0.925296 0.49228
v 0.444312 0.879862 0.450024
v 0.477485 0.92512 0.447332
v 0.500878 0.975539 0.4555
v 0.535281 0.986032 0.50808
v 0.512709 1.02728 0.473907
v 0.476973 1.07952 0.457404
v 0.472549 1.02748 0.431886
v 0.432126 1.07604 0.423749
v 0.451608 0.966747 0.416087
v 0.421045 0.917312 0.415208
v 0.392293 0.960516 0.393697
v 0.415462 1.01958 0.399394
v 0.380951 1.06624 0.40275
v 0.360246 1.00619 0.38713
v 0.327343 1.05085 0.396006
v 0.440652 1.12436 0.464378
v 0.383566 1.11647 0.431886
v 0.328711 1.10197 0.419254
v 0.331622 1.14479 0.4555
v 0.387814 1.16051 0.481071
v 0.335857 1.17605 0.501985
v 0.287067 1.18164 0.545192
v 0.28138 1.15826 0.49228
v 0.237757 1.15553 0.538626
v 0.277131 1.11421 0.443096
v 0.27572 1.06401 0.413833
v 0.229675 1.07176 0.445071
v 0.227783 1.11986 0.486798
v 0.196915 1.11705 0.53597
v 0.192714 1.07351 0.487342
v 0.16765 1.06912 0.537427
v 0.258619 1.17529 0.595483
v 0.288329 1.17719 0.651804
v 0.205023 1.13689 0.59
v 0.170211 1.09035 0.589377
v 0.186382 1.10416 0.641374
v 0.23161 1.13191 0.729501
v 0.186382 1.08779 0.721374
v 0.214933 1.09313 0.769461
v 0.205023 1.12052 0.67
v 0.258619 1.15892 0.675483
v 0.23161 1.14828 0.649501
v 0.220515 1.04434 0.812668
v 0.18366 1.04417 0.76772
v 0.197122 0.993925 0.8045
v 0.170211 1.07398 0.669377
v 0.157073 1.03278 0.708219
v 0.149507 1.0303 0.573756
v 0.149507 1.01393 0.653756
v 0.14655 0.972265 0.691322
v 0.157073 1.04915 0.628219
v 0.162719 0.983432 0.75192
v 0.185291 0.942184 0.786093
v 0.159004 0.930925 0.727265
v 0.185922 0.893058 0.758848
v 0.246393 1.00272 0.843913
v 0.225452 0.941982 0.828114
v 0.221028 0.889944 0.802596
v 0.265875 0.893422 0.836251
v 0.282538 0.94988 0.860606
v 0.31705 0.903228 0.85725
v 0.36929 0.867492 0.840746
v 0.314435 0.852999 0.828114
v 0.366378 0.82467 0.8045
v 0.257348 0.845101 0.795622
v 0.216827 0.846399 0.753968
v 0.257794 0.809647 0.742696
v 0.310186 0.808956 0.778929
v 0.362144 0.793409 0.758015
v 0.305703 0.785601 0.725891
v 0.356909 0.77609 0.70483
v 0.420869 0.85525 0.816904
v 0.41662 0.811207 0.76772
v 0.410933 0.787827 0.714808
v 0.460244 0.813929 0.721374
v 0.470217 0.849604 0.773203
v 0.501086 0.852412 0.72403
v 0.492978 0.83257 0.67
v 0.511618 0.865304 0.618626
v 0.439381 0.794173 0.664517
v 0.384647 0.776568 0.65598
v 0.409671 0.792269 0.608197
v 0.46639 0.837552 0.530499
v 0.409671 0.808639 0.528197
v 0.430077 0.838368 0.485118
v 0.439381 0.810543 0.584517
v 0.492978 0.848939 0.59
v 0.46639 0.821182 0.610499
v 0.231443 0.87536 0.472443
v 0.245363 0.913596 0.43371
v 0.281099 0.861356 0.450214
v 0.267172 0.95787 0.406875
v 0.299106 0.903229 0.414143
v 0.335925 0.857367 0.438626
v 0.29521 1.00481 0.393979
v 0.328741 0.957458 0.390523
v 0.364886 0.90462 0.407215
v 0.391745 0.863696 0.438561
v 0.196573 0.919178 0.476918
v 0.173307 0.96861 0.49
v 0.213613 0.961713 0.441152
v 0.163415 1.01989 0.510695
v 0.1939 1.02159 0.461233
v 0.243248 1.01594 0.417532
v 0.202156 0.870388 0.520125
v 0.184047 0.874744 0.573126
v 0.169912 0.918011 0.528556
v 0.184047 0.858375 0.653125
v 0.178495 0.871727 0.707411
v 0.155845 0.912169 0.672338
v 0.150198 0.977887 0.548637
v 0.14655 0.988635 0.611322
v 0.155845 0.928539 0.592338
v 0.254396 0.834652 0.503621
v 0.28455 0.805992 0.541374
v 0.228396 0.832518 0.555565
v 0.28455 0.789623 0.621374
v 0.319611 0.775192 0.662829
v 0.267167 0.790531 0.682655
v 0.214329 0.826676 0.699347
v 0.228396 0.816149 0.635565
v 0.308243 0.823382 0.484854
v 0.374023 0.824773 0.477926
v 0.347014 0.797764 0.531944
v 0.319611 0.791562 0.582829
v 0.384647 0.792937 0.57598
v 0.347014 0.781395 0.611944
f 1 2 3
f 2 4 5
f 3 5 6
f 2 5 3
f 4 7 8
f 7 9 10
f 8 10 11
f 7 10 8
f 12 13 14
f 13 15 16
f 14 16 17
f 13 16 14
f 4 8 5
f 8 11 18
f 5 18 6
f 8 18 5
f 1 3 19
f 3 6 20
f 19 20 21
f 3 20 19
f 12 14 22
f 14 17 23
f 22 23 24
f 14 23 22
f 25 26 27
f 26 24 28
f 27 28 29
f 26 28 27
f 12 22 30
f 22 24 26
f 30 26 25
f 22 26 30
f 1 19 31
f 19 21 32
f 31 32 33
f 19 32 31
f 21 34 35
f 27 29 36
f 35 37 38
f 27 36 39
f 33 40 41
f 40 38 42
f 41 42 43
f 40 42 41
f 21 35 32
f 35 38 40
f 32 40 33
f 35 40 32
f 1 31 44
f 31 33 45
f 44 45 46
f 31 45 44
f 33 41 47
f 41 43 48
f 47 48 49
f 41 48 47
f 46 50 51
f 50 49 52
f 51 52 53
f 50 52 51
f 33 47 45
f 47 49 50
f 45 50 46
f 47 50 45
f 1 44 2
f 44 46 54
f 2 54 4
f 44 54 2
f 46 51 55
f 51 53 56
f 55 56 57
f 51 56 55
f 4 58 7
f 58 57 59
f 7 59 9
f 58 59 7
f 46 55 54
f 55 57 58
f 54 58 4
f 55 58 54
f 9 60 10
f 61 62 63
f 64 63 15
f 60 65 10
f 62 66 67
f 66 68 69
f 67 69 70
f 66 69 67
f 15 71 16
f 71 70 72
f 16 72 17
f 71 72 16
f 62 67 63
f 67 70 71
f 63 71 15
f 67 71 63
f 17 72 73
f 72 70 74
f 73 74 75
f 72 74 73
f 70 69 76
f 69 68 77
f 76 77 78
f 69 77 76
f 75 79 80
f 79 78 81
f 80 81 82
f 79 81 80
f 70 76 74
f 76 78 79
f 74 79 75
f 76 79 74
f 17 73 23
f 73 75 83
f 23 83 24
f 73 83 23
f 75 80 84
f 80 82 85
f 84 85 86
f 80 85 84
f 24 87 28
f 87 86 88
f 28 88 29
f 87 88 28
f 75 84 83
f 84 86 87
f 83 87 24
f 84 87 83
f 29 88 89
f 88 86 90
f 89 90 91
f 88 90 89
f 86 85 92
f 85 82 93
f 92 93 94
f 85 93 92
f 91 95 96
f 95 94 97
f 96 97 98
f 95 97 96
f 86 92 90
f 92 94 95
f 90 95 91
f 92 95 90
f 29 89 36
f 89 91 99
f 36 99 100
f 89 99 36
f 91 96 101
f 96 98 102
f 101 102 103
f 96 102 101
f 38 104 42
f 104 105 106
f 42 106 43
f 104 106 42
f 91 101 99
f 107 105 104
f 108 104 38
f 101 109 99
f 43 106 110
f 106 105 111
f 110 111 112
f 106 111 110
f 105 113 114
f 102 98 115
f 114 116 117
f 102 115 118
f 112 119 120
f 119 117 121
f 120 121 122
f 119 121 120
f 105 114 111
f 114 117 119
f 111 119 112
f 114 119 111
f 43 110 48
f 110 112 123
f 48 123 49
f 110 123 48
f 112 120 124
f 120 122 125
f 124 125 126
f 120 125 124
f 49 127 52
f 127 126 128
f 52 128 53
f 127 128 52
f 112 124 123
f 124 126 127
f 123 127 49
f 124 127 123
f 53 128 129
f 128 126 130
f 129 130 131
f 128 130 129
f 126 125 132
f 125 122 133
f 132 133 134
f 125 133 132
f 131 135 136
f 135 134 137
f 136 137 138
f 135 137 136
f 126 132 130
f 132 134 135
f 130 135 131
f 132 135 130
f 53 129 56
f 129 131 139
f 56 139 57
f 129 139 56
f 131 136 140
f 136 138 141
f 140 141 142
f 136 141 140
f 57 143 59
f 143 142 144
f 59 144 9
f 143 144 59
f 131 140 139
f 140 142 143
f 139 143 57
f 140 143 139
f 9 144 60
f 144 142 145
f 60 145 146
f 144 145 60
f 142 141 147
f 141 138 148
f 147 148 149
f 141 148 147
f 62 150 66
f 150 151 152
f 66 152 68
f 150 152 66
f 142 147 145
f 153 151 150
f 154 150 62
f 147 155 145
f 156 157 158
f 157 159 160
f 158 160 161
f 157 160 158
f 159 162 163
f 162 82 81
f 163 81 78
f 162 81 163
f 161 164 165
f 164 78 77
f 165 77 68
f 164 77 165
f 159 163 160
f 163 78 164
f 160 164 161
f 163 164 160
f 156 166 157
f 166 167 168
f 157 168 159
f 166 168 157
f 167 169 170
f 169 98 97
f 170 97 94
f 169 97 170
f 159 171 162
f 171 94 93
f 162 93 82
f 171 93 162
f 167 170 168
f 170 94 171
f 168 171 159
f 170 171 168
f 156 172 166
f 172 173 174
f 166 174 167
f 172 174 166
f 175 176 177
f 176 122 121
f 177 121 117
f 176 121 177
f 167 178 169
f 178 179 115
f 169 115 98
f 178 115 169
f 173 180 174
f 180 179 178
f 174 178 167
f 180 178 174
f 156 181 172
f 181 182 183
f 172 183 173
f 181 183 172
f 184 185 186
f 185 138 137
f 186 137 134
f 185 137 186
f 175 187 176
f 187 134 133
f 176 133 122
f 187 133 176
f 184 186 188
f 186 134 187
f 188 187 175
f 186 187 188
f 156 158 181
f 158 161 189
f 181 189 182
f 158 189 181
f 161 165 190
f 165 68 152
f 190 152 151
f 165 152 190
f 182 191 192
f 191 151 193
f 185 148 138
f 194 148 185
f 161 190 189
f 190 151 191
f 189 191 182
f 190 191 189
f 10 64 11
f 11 64 15
f 11 15 18
f 18 15 13
f 18 13 6
f 6 13 12
f 6 12 20
f 20 12 30
f 20 30 21
f 21 30 25
f 21 25 34
f 34 25 27
f 34 27 35
f 35 27 39
f 35 39 37
f 37 39 36
f 37 36 38
f 38 36 100
f 60 61 65
f 65 61 63
f 65 63 10
f 10 63 64
f 107 101 105
f 105 101 103
f 104 109 107
f 107 109 101
f 108 99 104
f 104 99 109
f 38 100 108
f 108 100 99
f 105 103 113
f 113 103 102
f 113 102 114
f 114 102 118
f 114 118 116
f 116 118 115
f 116 115 117
f 117 115 179
f 145 154 146
f 146 154 62
f 146 62 60
f 60 62 61
f 148 193 149
f 149 193 151
f 149 151 147
f 147 151 153
f 147 153 155
f 155 153 150
f 155 150 145
f 145 150 154
f 177 180 175
f 175 180 173
f 117 179 177
f 177 179 180
f 184 182 185
f 185 182 192
f 188 183 184
f 184 183 182
f 175 173 188
f 188 173 183
f 194 191 148
f 148 191 193
f 185 192 194
f 194 192 191
