v 0.466557 1.11047 0.707557
v 0.501427 1.06666 0.703083
v 0.495844 1.11544 0.659876
v 0.524694 1.01722 0.69
v 0.528089 1.06782 0.651445
v 0.513953 1.11109 0.606875
v 0.534586 0.965941 0.669305
v 0.547802 1.00795 0.631364
v 0.530351 0.916712 0.642573
v 0.548493 0.955533 0.606244
v 0.55145 0.997199 0.568678
v 0.513953 1.11211 0.526875
v 0.542156 1.05831 0.507662
v 0.519506 1.09875 0.472589
v 0.55145 0.998216 0.488678
v 0.538996 1.03956 0.452735
v 0.512078 1.07742 0.421152
v 0.542156 1.05729 0.587662
v 0.443604 1.15118 0.676379
v 0.469605 1.15332 0.624436
v 0.41345 1.17984 0.638626
v 0.483671 1.1438 0.480653
v 0.481173 1.12408 0.426032
v 0.440207 1.16083 0.437304
v 0.430834 1.17893 0.577345
v 0.37839 1.19427 0.597171
v 0.430834 1.17995 0.497345
v 0.392297 1.18488 0.45411
v 0.37839 1.19529 0.517171
v 0.341092 1.19439 0.47517
v 0.483671 1.14279 0.560653
v 0.469605 1.15433 0.544436
v 0.416901 1.12448 0.729786
v 0.389758 1.16245 0.695146
v 0.362076 1.12847 0.741374
v 0.350987 1.18807 0.648056
v 0.313354 1.19391 0.52402
v 0.313354 1.1929 0.60402
v 0.288329 1.17719 0.651804
v 0.323978 1.16106 0.702074
v 0.306255 1.12214 0.74144
v 0.267923 1.14747 0.694882
v 0.253689 1.10597 0.729977
v 0.452637 1.07224 0.74629
v 0.398894 1.0826 0.765857
v 0.430828 1.02796 0.773126
v 0.333114 1.08121 0.772785
v 0.276956 1.06852 0.764793
v 0.305707 1.02532 0.786303
v 0.369259 1.02838 0.789478
v 0.40279 0.981021 0.786021
v 0.337754 0.979646 0.792871
v 0.370657 0.934985 0.783995
v 0.484387 1.02412 0.738848
v 0.454752 0.969891 0.762468
v 0.42228 0.921823 0.766167
v 0.468325 0.914073 0.734929
v 0.5041 0.964245 0.718767
v 0.505286 0.912326 0.692658
v 0.527789 0.895484 0.590623
v 0.527789 0.896501 0.510623
v 0.511618 0.88269 0.458626
v 0.540928 0.937701 0.471781
v 0.548493 0.95655 0.526244
v 0.483068 0.877347 0.410539
v 0.51434 0.926313 0.41228
v 0.444312 0.880879 0.370024
v 0.477485 0.926137 0.367332
v 0.500878 0.976556 0.3755
v 0.535281 0.987049 0.42808
v 0.512709 1.0283 0.393907
v 0.476973 1.08054 0.377404
v 0.472549 1.0285 0.351886
v 0.432126 1.07706 0.343749
v 0.451608 0.967764 0.336087
v 0.421045 0.918329 0.335208
v 0.392293 0.961533 0.313697
v 0.415462 1.0206 0.319394
v 0.380951 1.06725 0.32275
v 0.360246 1.0072 0.30713
v 0.327343 1.05187 0.316006
v 0.440652 1.12538 0.384378
v 0.383566 1.11748 0.351886
v 0.328711 1.10299 0.339254
v 0.331622 1.14581 0.3755
v 0.387814 1.16152 0.401071
v 0.335857 1.17707 0.421985
v 0.287067 1.18265 0.465192
v 0.28138 1.15927 0.41228
v 0.237757 1.15655 0.458626
v 0.277131 1.11523 0.363096
v 0.27572 1.06503 0.333833
v 0.229675 1.07278 0.365071
v 0.227783 1.12088 0.406797
v 0.196915 1.11807 0.45597
v 0.192714 1.07452 0.407342
v 0.16765 1.07014 0.457427
v 0.258619 1.17631 0.515483
v 0.258619 1.17529 0.595483
v 0.205023 1.13791 0.51
v 0.170211 1.09137 0.509377
v 0.205023 1.13689 0.59
v 0.170211 1.09035 0.589377
v 0.186382 1.10416 0.641374
v 0.23161 1.14828 0.649501
v 0.214933 1.1095 0.689461
v 0.220515 1.06071 0.732668
v 0.18366 1.06054 0.68772
v 0.197122 1.01029 0.7245
v 0.157073 1.04915 0.628219
v 0.149507 1.03132 0.493756
v 0.149507 1.0303 0.573756
v 0.14655 0.988635 0.611322
v 0.162719 0.999802 0.67192
v 0.185291 0.958553 0.706093
v 0.159004 0.947294 0.647265
v 0.185922 0.909427 0.678848
v 0.246393 1.01909 0.763914
v 0.225452 0.958351 0.748114
v 0.221028 0.906313 0.722597
v 0.265875 0.909791 0.756251
v 0.282538 0.966249 0.780606
v 0.31705 0.919597 0.77725
v 0.36929 0.883861 0.760746
v 0.314435 0.869368 0.748114
v 0.366378 0.841039 0.7245
v 0.257348 0.861471 0.715622
v 0.216827 0.862768 0.673968
v 0.257794 0.826017 0.662696
v 0.310186 0.825325 0.69893
v 0.362144 0.809778 0.678015
v 0.305703 0.80197 0.645891
v 0.356909 0.792459 0.62483
v 0.420869 0.871619 0.736904
v 0.41662 0.827577 0.68772
v 0.410933 0.804196 0.634808
v 0.460244 0.830299 0.641374
v 0.470217 0.865973 0.693203
v 0.501086 0.868781 0.64403
v 0.492978 0.848939 0.59
v 0.492978 0.849956 0.51
v 0.439381 0.810543 0.584517
v 0.384647 0.792937 0.57598
v 0.439381 0.81156 0.504517
v 0.384647 0.793954 0.49598
v 0.409671 0.809656 0.448197
v 0.46639 0.838569 0.450499
v 0.430077 0.839385 0.405118
v 0.231443 0.876377 0.392443
v 0.245363 0.914613 0.35371
v 0.281099 0.862373 0.370214
v 0.267172 0.958887 0.326875
v 0.299106 0.904246 0.334143
v 0.335925 0.858384 0.358626
v 0.29521 1.00583 0.313979
v 0.328741 0.958475 0.310523
v 0.364886 0.905637 0.327215
v 0.391745 0.864713 0.358561
v 0.196573 0.920195 0.396917
v 0.173307 0.969627 0.41
v 0.213613 0.96273 0.361152
v 0.163415 1.02091 0.430695
v 0.1939 1.02261 0.381233
v 0.243248 1.01696 0.337532
v 0.202156 0.871405 0.440125
v 0.184047 0.875761 0.493125
v 0.169912 0.919028 0.448555
v 0.184047 0.874744 0.573126
v 0.178495 0.888096 0.627411
v 0.155845 0.928539 0.592338
v 0.150198 0.978904 0.468637
v 0.14655 0.989652 0.531322
v 0.155845 0.929556 0.512338
v 0.254396 0.835669 0.423621
v 0.28455 0.807009 0.461374
v 0.228396 0.833535 0.475565
v 0.319611 0.792579 0.502829
v 0.267167 0.807917 0.522655
v 0.319611 0.791562 0.582829
v 0.267167 0.8069 0.602655
v 0.214329 0.843045 0.619347
v 0.214329 0.844062 0.539347
v 0.228396 0.832518 0.555565
v 0.308243 0.824399 0.404854
v 0.374023 0.82579 0.397926
v 0.347014 0.798781 0.451944
f 1 2 3
f 2 4 5
f 3 5 6
f 2 5 3
f 4 7 8
f 7 9 10
f 8 10 11
f 7 10 8
f 12 13 14
f 13 15 16
f 14 16 17
f 13 16 14
f 4 8 5
f 8 11 18
f 5 18 6
f 8 18 5
f 1 3 19
f 3 6 20
f 19 20 21
f 3 20 19
f 12 14 22
f 14 17 23
f 22 23 24
f 14 23 22
f 21 25 26
f 27 24 28
f 29 28 30
f 27 28 29
f 6 31 20
f 22 24 27
f 20 25 21
f 22 27 32
f 1 19 33
f 19 21 34
f 33 34 35
f 19 34 33
f 21 26 36
f 29 30 37
f 36 38 39
f 26 38 36
f 35 40 41
f 40 39 42
f 41 42 43
f 40 42 41
f 21 36 34
f 36 39 40
f 34 40 35
f 36 40 34
f 1 33 44
f 33 35 45
f 44 45 46
f 33 45 44
f 35 41 47
f 41 43 48
f 47 48 49
f 41 48 47
f 46 50 51
f 50 49 52
f 51 52 53
f 50 52 51
f 35 47 45
f 47 49 50
f 45 50 46
f 47 50 45
f 1 44 2
f 44 46 54
f 2 54 4
f 44 54 2
f 46 51 55
f 51 53 56
f 55 56 57
f 51 56 55
f 4 58 7
f 58 57 59
f 7 59 9
f 58 59 7
f 46 55 54
f 55 57 58
f 54 58 4
f 55 58 54
f 9 60 10
f 61 62 63
f 64 63 15
f 61 63 64
f 62 65 66
f 65 67 68
f 66 68 69
f 65 68 66
f 15 70 16
f 70 69 71
f 16 71 17
f 70 71 16
f 62 66 63
f 66 69 70
f 63 70 15
f 66 70 63
f 17 71 72
f 71 69 73
f 72 73 74
f 71 73 72
f 69 68 75
f 68 67 76
f 75 76 77
f 68 76 75
f 74 78 79
f 78 77 80
f 79 80 81
f 78 80 79
f 69 75 73
f 75 77 78
f 73 78 74
f 75 78 73
f 17 72 23
f 72 74 82
f 23 82 24
f 72 82 23
f 74 79 83
f 79 81 84
f 83 84 85
f 79 84 83
f 24 86 28
f 86 85 87
f 28 87 30
f 86 87 28
f 74 83 82
f 83 85 86
f 82 86 24
f 83 86 82
f 30 87 88
f 87 85 89
f 88 89 90
f 87 89 88
f 85 84 91
f 84 81 92
f 91 92 93
f 84 92 91
f 90 94 95
f 94 93 96
f 95 96 97
f 94 96 95
f 85 91 89
f 91 93 94
f 89 94 90
f 91 94 89
f 30 88 37
f 88 90 98
f 38 99 39
f 88 98 37
f 90 95 100
f 95 97 101
f 102 103 104
f 95 101 100
f 39 105 42
f 105 104 106
f 42 106 43
f 105 106 42
f 90 100 98
f 102 104 105
f 99 105 39
f 102 105 99
f 43 106 107
f 106 104 108
f 107 108 109
f 106 108 107
f 104 103 110
f 101 97 111
f 110 112 113
f 103 112 110
f 109 114 115
f 114 113 116
f 115 116 117
f 114 116 115
f 104 110 108
f 110 113 114
f 108 114 109
f 110 114 108
f 43 107 48
f 107 109 118
f 48 118 49
f 107 118 48
f 109 115 119
f 115 117 120
f 119 120 121
f 115 120 119
f 49 122 52
f 122 121 123
f 52 123 53
f 122 123 52
f 109 119 118
f 119 121 122
f 118 122 49
f 119 122 118
f 53 123 124
f 123 121 125
f 124 125 126
f 123 125 124
f 121 120 127
f 120 117 128
f 127 128 129
f 120 128 127
f 126 130 131
f 130 129 132
f 131 132 133
f 130 132 131
f 121 127 125
f 127 129 130
f 125 130 126
f 127 130 125
f 53 124 56
f 124 126 134
f 56 134 57
f 124 134 56
f 126 131 135
f 131 133 136
f 135 136 137
f 131 136 135
f 57 138 59
f 138 137 139
f 59 139 9
f 138 139 59
f 126 135 134
f 135 137 138
f 134 138 57
f 135 138 134
f 9 139 60
f 139 137 140
f 61 141 62
f 139 140 60
f 137 136 142
f 136 133 143
f 144 145 146
f 136 143 142
f 62 147 65
f 147 146 148
f 65 148 67
f 147 148 65
f 137 142 140
f 144 146 147
f 141 147 62
f 144 147 141
f 149 150 151
f 150 152 153
f 151 153 154
f 150 153 151
f 152 155 156
f 155 81 80
f 156 80 77
f 155 80 156
f 154 157 158
f 157 77 76
f 158 76 67
f 157 76 158
f 152 156 153
f 156 77 157
f 153 157 154
f 156 157 153
f 149 159 150
f 159 160 161
f 150 161 152
f 159 161 150
f 160 162 163
f 162 97 96
f 163 96 93
f 162 96 163
f 152 164 155
f 164 93 92
f 155 92 81
f 164 92 155
f 160 163 161
f 163 93 164
f 161 164 152
f 163 164 161
f 149 165 159
f 165 166 167
f 159 167 160
f 165 167 159
f 168 169 170
f 169 117 116
f 170 116 113
f 169 116 170
f 160 171 162
f 171 172 111
f 162 111 97
f 171 111 162
f 166 173 167
f 173 172 171
f 167 171 160
f 173 171 167
f 149 174 165
f 174 175 176
f 165 176 166
f 174 176 165
f 175 177 178
f 179 133 132
f 180 132 129
f 179 132 180
f 168 181 169
f 181 129 128
f 169 128 117
f 181 128 169
f 175 178 176
f 180 129 181
f 176 182 166
f 180 181 183
f 149 151 174
f 151 154 184
f 174 184 175
f 151 184 174
f 154 158 185
f 158 67 148
f 185 148 146
f 158 148 185
f 175 186 177
f 186 146 145
f 179 143 133
f 186 145 177
f 154 185 184
f 185 146 186
f 184 186 175
f 185 186 184
f 10 64 11
f 11 64 15
f 11 15 18
f 18 15 13
f 18 13 6
f 6 13 12
f 25 27 26
f 26 27 29
f 6 12 31
f 31 12 22
f 31 22 20
f 20 22 32
f 20 32 25
f 25 32 27
f 26 29 38
f 38 29 37
f 60 61 10
f 10 61 64
f 38 37 99
f 99 37 98
f 102 100 103
f 103 100 101
f 99 98 102
f 102 98 100
f 112 111 113
f 113 111 172
f 103 101 112
f 112 101 111
f 140 141 60
f 60 141 61
f 143 145 142
f 142 145 144
f 142 144 140
f 140 144 141
f 170 173 168
f 168 173 166
f 113 172 170
f 170 172 173
f 180 178 179
f 179 178 177
f 168 166 181
f 181 166 182
f 181 182 183
f 183 182 176
f 183 176 180
f 180 176 178
f 179 177 143
f 143 177 145
