v 0.466557 1.11149 0.627557
v 0.501427 1.06767 0.623083
v 0.495844 1.11646 0.579876
v 0.524694 1.01824 0.61
v 0.528089 1.06884 0.571445
v 0.513953 1.11211 0.526875
v 0.534586 0.966958 0.589305
v 0.547802 1.00896 0.551364
v 0.530351 0.917729 0.562573
v 0.548493 0.95655 0.526244
v 0.55145 0.998216 0.488678
v 0.513953 1.17397 0.366875
v 0.542156 1.12017 0.347662
v 0.519506 1.16061 0.312589
v 0.55145 1.06008 0.328678
v 0.538996 1.10142 0.292735
v 0.512078 1.13928 0.261152
v 0.547802 1.07082 0.391364
v 0.528089 1.1307 0.411445
v 0.542156 1.05831 0.507662
v 0.443604 1.1522 0.596379
v 0.495844 1.17832 0.419876
v 0.469605 1.21619 0.384436
v 0.443604 1.21406 0.436379
v 0.41345 1.24272 0.398626
v 0.469605 1.15433 0.544436
v 0.483671 1.20566 0.320653
v 0.481173 1.18594 0.266032
v 0.440207 1.22269 0.277304
v 0.430834 1.24181 0.337345
v 0.37839 1.25715 0.357171
v 0.392297 1.24674 0.29411
v 0.341092 1.25625 0.31517
v 0.416901 1.12549 0.649786
v 0.41345 1.18086 0.558626
v 0.389758 1.16347 0.615146
v 0.362076 1.12948 0.661374
v 0.350987 1.25095 0.408056
v 0.313354 1.25577 0.36402
v 0.288329 1.24007 0.411804
v 0.323978 1.16208 0.622074
v 0.306255 1.12315 0.661439
v 0.288329 1.17821 0.571804
v 0.267923 1.14848 0.614882
v 0.253689 1.10699 0.649976
v 0.350987 1.18909 0.568056
v 0.452637 1.07325 0.66629
v 0.398894 1.08362 0.685857
v 0.430828 1.02898 0.693125
v 0.333114 1.08223 0.692785
v 0.276956 1.06954 0.684793
v 0.305707 1.02633 0.706303
v 0.369259 1.02939 0.709478
v 0.40279 0.982038 0.706021
v 0.337754 0.980663 0.71287
v 0.370657 0.936002 0.703995
v 0.484387 1.02514 0.658848
v 0.454752 0.970908 0.682468
v 0.42228 0.92284 0.686167
v 0.468325 0.91509 0.654929
v 0.5041 0.965262 0.638767
v 0.505286 0.913342 0.612658
v 0.527789 0.896501 0.510623
v 0.511618 0.88269 0.458626
v 0.540928 0.937701 0.471781
v 0.548493 1.01841 0.366244
v 0.540928 0.99956 0.311781
v 0.511618 0.94455 0.298626
v 0.483068 0.939207 0.250539
v 0.51434 0.988173 0.25228
v 0.444312 0.942739 0.210024
v 0.477485 0.987996 0.207332
v 0.500878 1.03842 0.2155
v 0.535281 1.04891 0.26808
v 0.512709 1.09016 0.233907
v 0.476973 1.1424 0.217404
v 0.472549 1.09036 0.191886
v 0.432126 1.13892 0.183749
v 0.451608 1.02962 0.176087
v 0.421045 0.980188 0.175208
v 0.392293 1.02339 0.153697
v 0.415462 1.08246 0.159394
v 0.380951 1.12911 0.16275
v 0.360246 1.06906 0.14713
v 0.327343 1.11373 0.156006
v 0.440652 1.18724 0.224378
v 0.383566 1.17934 0.191886
v 0.328711 1.16485 0.179254
v 0.331622 1.20767 0.2155
v 0.387814 1.22338 0.241071
v 0.335857 1.23893 0.261985
v 0.287067 1.24451 0.305193
v 0.28138 1.22113 0.25228
v 0.237757 1.21841 0.298626
v 0.277131 1.17709 0.203096
v 0.27572 1.12689 0.173833
v 0.229675 1.13464 0.205071
v 0.227783 1.18274 0.246798
v 0.196915 1.17993 0.29597
v 0.192714 1.13638 0.247342
v 0.16765 1.132 0.297427
v 0.258619 1.23817 0.355483
v 0.205023 1.19977 0.35
v 0.170211 1.15323 0.349377
v 0.186382 1.16704 0.401374
v 0.23161 1.1493 0.569501
v 0.186382 1.10518 0.561374
v 0.214933 1.11052 0.609461
v 0.23161 1.21116 0.409501
v 0.220515 1.06173 0.652668
v 0.18366 1.06155 0.60772
v 0.197122 1.01131 0.6445
v 0.157073 1.11203 0.388219
v 0.149507 1.09318 0.333756
v 0.157073 1.05017 0.548219
v 0.149507 1.03132 0.493756
v 0.14655 0.989652 0.531322
v 0.162719 1.00082 0.59192
v 0.185291 0.95957 0.626093
v 0.159004 0.948311 0.567265
v 0.185922 0.910444 0.598848
v 0.246393 1.0201 0.683913
v 0.225452 0.959368 0.668114
v 0.221028 0.90733 0.642596
v 0.265875 0.910808 0.676251
v 0.282538 0.967266 0.700606
v 0.31705 0.920614 0.69725
v 0.36929 0.884878 0.680746
v 0.314435 0.870385 0.668114
v 0.366378 0.842056 0.6445
v 0.257348 0.862487 0.635622
v 0.216827 0.863785 0.593968
v 0.257794 0.827034 0.582696
v 0.310186 0.826342 0.61893
v 0.362144 0.810795 0.598015
v 0.305703 0.802987 0.565891
v 0.356909 0.793476 0.54483
v 0.420869 0.872636 0.656904
v 0.41662 0.828594 0.60772
v 0.410933 0.805213 0.554808
v 0.460244 0.831316 0.561374
v 0.470217 0.86699 0.613203
v 0.501086 0.869798 0.56403
v 0.492978 0.849956 0.51
v 0.439381 0.81156 0.504517
v 0.384647 0.793954 0.49598
v 0.409671 0.809656 0.448197
v 0.46639 0.900428 0.290499
v 0.409671 0.871515 0.288197
v 0.430077 0.901245 0.245118
v 0.46639 0.838569 0.450499
v 0.231443 0.938236 0.232443
v 0.245363 0.976472 0.19371
v 0.281099 0.924232 0.210214
v 0.267172 1.02075 0.166875
v 0.299106 0.966105 0.174143
v 0.335925 0.920243 0.198626
v 0.29521 1.06769 0.153979
v 0.328741 1.02033 0.150523
v 0.364886 0.967496 0.167215
v 0.391745 0.926573 0.198561
v 0.196573 0.982055 0.236918
v 0.173307 1.03149 0.25
v 0.213613 1.02459 0.201152
v 0.163415 1.08277 0.270695
v 0.1939 1.08446 0.221233
v 0.243248 1.07882 0.177532
v 0.202156 0.933265 0.280125
v 0.184047 0.937621 0.333126
v 0.169912 0.980888 0.288556
v 0.184047 0.875761 0.493125
v 0.178495 0.889113 0.547411
v 0.155845 0.929556 0.512338
v 0.150198 1.04076 0.308637
v 0.14655 1.05151 0.371322
v 0.169912 0.919028 0.448555
v 0.150198 0.978904 0.468637
v 0.155845 0.991415 0.352338
v 0.254396 0.897529 0.263621
v 0.254396 0.835669 0.423621
v 0.28455 0.807009 0.461374
v 0.228396 0.833535 0.475565
v 0.202156 0.871405 0.440125
v 0.228396 0.895394 0.315565
v 0.319611 0.792579 0.502829
v 0.267167 0.807917 0.522655
v 0.214329 0.844062 0.539347
v 0.308243 0.886258 0.244854
v 0.28455 0.868869 0.301374
v 0.374023 0.88765 0.237926
v 0.347014 0.798781 0.451944
v 0.347014 0.860641 0.291944
f 1 2 3
f 2 4 5
f 3 5 6
f 2 5 3
f 4 7 8
f 7 9 10
f 8 10 11
f 7 10 8
f 12 13 14
f 13 15 16
f 14 16 17
f 13 16 14
f 4 8 5
f 18 15 13
f 19 13 12
f 8 20 5
f 1 3 21
f 22 12 23
f 24 23 25
f 3 26 21
f 12 14 27
f 14 17 28
f 27 28 29
f 14 28 27
f 25 30 31
f 30 29 32
f 31 32 33
f 30 32 31
f 12 27 23
f 27 29 30
f 23 30 25
f 27 30 23
f 1 21 34
f 21 35 36
f 34 36 37
f 21 36 34
f 25 31 38
f 31 33 39
f 38 39 40
f 31 39 38
f 37 41 42
f 41 43 44
f 42 44 45
f 41 44 42
f 35 46 36
f 46 43 41
f 36 41 37
f 46 41 36
f 1 34 47
f 34 37 48
f 47 48 49
f 34 48 47
f 37 42 50
f 42 45 51
f 50 51 52
f 42 51 50
f 49 53 54
f 53 52 55
f 54 55 56
f 53 55 54
f 37 50 48
f 50 52 53
f 48 53 49
f 50 53 48
f 1 47 2
f 47 49 57
f 2 57 4
f 47 57 2
f 49 54 58
f 54 56 59
f 58 59 60
f 54 59 58
f 4 61 7
f 61 60 62
f 7 62 9
f 61 62 7
f 49 58 57
f 58 60 61
f 57 61 4
f 58 61 57
f 9 63 10
f 63 64 65
f 66 67 15
f 63 65 10
f 68 69 70
f 69 71 72
f 70 72 73
f 69 72 70
f 15 74 16
f 74 73 75
f 16 75 17
f 74 75 16
f 68 70 67
f 70 73 74
f 67 74 15
f 70 74 67
f 17 75 76
f 75 73 77
f 76 77 78
f 75 77 76
f 73 72 79
f 72 71 80
f 79 80 81
f 72 80 79
f 78 82 83
f 82 81 84
f 83 84 85
f 82 84 83
f 73 79 77
f 79 81 82
f 77 82 78
f 79 82 77
f 17 76 28
f 76 78 86
f 28 86 29
f 76 86 28
f 78 83 87
f 83 85 88
f 87 88 89
f 83 88 87
f 29 90 32
f 90 89 91
f 32 91 33
f 90 91 32
f 78 87 86
f 87 89 90
f 86 90 29
f 87 90 86
f 33 91 92
f 91 89 93
f 92 93 94
f 91 93 92
f 89 88 95
f 88 85 96
f 95 96 97
f 88 96 95
f 94 98 99
f 98 97 100
f 99 100 101
f 98 100 99
f 89 95 93
f 95 97 98
f 93 98 94
f 95 98 93
f 33 92 39
f 92 94 102
f 39 102 40
f 92 102 39
f 94 99 103
f 99 101 104
f 103 104 105
f 99 104 103
f 43 106 44
f 106 107 108
f 44 108 45
f 106 108 44
f 94 103 102
f 103 105 109
f 102 109 40
f 103 109 102
f 45 108 110
f 108 107 111
f 110 111 112
f 108 111 110
f 105 104 113
f 104 101 114
f 115 116 117
f 104 114 113
f 112 118 119
f 118 117 120
f 119 120 121
f 118 120 119
f 107 115 111
f 115 117 118
f 111 118 112
f 115 118 111
f 45 110 51
f 110 112 122
f 51 122 52
f 110 122 51
f 112 119 123
f 119 121 124
f 123 124 125
f 119 124 123
f 52 126 55
f 126 125 127
f 55 127 56
f 126 127 55
f 112 123 122
f 123 125 126
f 122 126 52
f 123 126 122
f 56 127 128
f 127 125 129
f 128 129 130
f 127 129 128
f 125 124 131
f 124 121 132
f 131 132 133
f 124 132 131
f 130 134 135
f 134 133 136
f 135 136 137
f 134 136 135
f 125 131 129
f 131 133 134
f 129 134 130
f 131 134 129
f 56 128 59
f 128 130 138
f 59 138 60
f 128 138 59
f 130 135 139
f 135 137 140
f 139 140 141
f 135 140 139
f 60 142 62
f 142 141 143
f 62 143 9
f 142 143 62
f 130 139 138
f 139 141 142
f 138 142 60
f 139 142 138
f 9 143 63
f 143 141 144
f 63 144 64
f 143 144 63
f 141 140 145
f 140 137 146
f 145 146 147
f 140 146 145
f 68 148 69
f 148 149 150
f 69 150 71
f 148 150 69
f 141 145 144
f 145 147 151
f 144 151 64
f 145 151 144
f 152 153 154
f 153 155 156
f 154 156 157
f 153 156 154
f 155 158 159
f 158 85 84
f 159 84 81
f 158 84 159
f 157 160 161
f 160 81 80
f 161 80 71
f 160 80 161
f 155 159 156
f 159 81 160
f 156 160 157
f 159 160 156
f 152 162 153
f 162 163 164
f 153 164 155
f 162 164 153
f 163 165 166
f 165 101 100
f 166 100 97
f 165 100 166
f 155 167 158
f 167 97 96
f 158 96 85
f 167 96 158
f 163 166 164
f 166 97 167
f 164 167 155
f 166 167 164
f 152 168 162
f 168 169 170
f 162 170 163
f 168 170 162
f 171 172 173
f 172 121 120
f 173 120 117
f 172 120 173
f 163 174 165
f 174 175 114
f 165 114 101
f 174 114 165
f 171 173 176
f 173 117 177
f 170 174 163
f 178 174 170
f 152 179 168
f 180 181 182
f 183 182 171
f 179 184 168
f 181 185 186
f 185 137 136
f 186 136 133
f 185 136 186
f 171 187 172
f 187 133 132
f 172 132 121
f 187 132 172
f 181 186 182
f 186 133 187
f 182 187 171
f 186 187 182
f 152 154 179
f 154 157 188
f 179 188 189
f 154 188 179
f 157 161 190
f 161 71 150
f 190 150 149
f 161 150 190
f 181 191 185
f 191 147 146
f 185 146 137
f 191 146 185
f 157 190 188
f 190 149 192
f 188 192 189
f 190 192 188
f 5 19 6
f 6 19 12
f 6 12 3
f 3 12 22
f 10 66 11
f 11 66 15
f 11 15 8
f 8 15 18
f 8 18 20
f 20 18 13
f 20 13 5
f 5 13 19
f 3 22 26
f 26 22 23
f 26 23 21
f 21 23 24
f 21 24 35
f 35 24 25
f 35 25 46
f 46 25 38
f 46 38 43
f 43 38 40
f 64 68 65
f 65 68 67
f 65 67 10
f 10 67 66
f 43 40 106
f 106 40 109
f 106 109 107
f 107 109 105
f 115 113 116
f 116 113 114
f 116 114 117
f 117 114 175
f 107 105 115
f 115 105 113
f 147 149 151
f 151 149 148
f 151 148 64
f 64 148 68
f 173 178 176
f 176 178 170
f 176 170 171
f 171 170 169
f 117 175 177
f 177 175 174
f 177 174 173
f 173 174 178
f 180 179 181
f 181 179 189
f 182 184 180
f 180 184 179
f 183 168 182
f 182 168 184
f 171 169 183
f 183 169 168
f 181 189 191
f 191 189 192
f 191 192 147
f 147 192 149
