v 0.466557 1.17335 0.467557
v 0.501427 1.12953 0.463083
v 0.495844 1.17832 0.419876
v 0.524694 1.0801 0.45
v 0.528089 1.1307 0.411445
v 0.513953 1.17397 0.366875
v 0.534586 1.02882 0.429305
v 0.547802 1.07082 0.391364
v 0.530351 0.979589 0.402573
v 0.548493 1.01841 0.366244
v 0.55145 1.06008 0.328678
v 0.513953 1.24012 0.166875
v 0.542156 1.18632 0.147662
v 0.519506 1.22677 0.112589
v 0.55145 1.12623 0.128678
v 0.538996 1.16757 0.0927354
v 0.512078 1.20544 0.0611518
v 0.547802 1.13698 0.191364
v 0.528089 1.19685 0.211445
v 0.542156 1.12017 0.347662
v 0.443604 1.21406 0.436379
v 0.495844 1.24447 0.219875
v 0.469605 1.28234 0.184436
v 0.443604 1.28021 0.236379
v 0.41345 1.30887 0.198626
v 0.469605 1.21619 0.384436
v 0.483671 1.27182 0.120653
v 0.481173 1.25209 0.0660318
v 0.440207 1.28885 0.0773038
v 0.430834 1.30796 0.137345
v 0.37839 1.3233 0.157171
v 0.392297 1.31289 0.0941096
v 0.341092 1.3224 0.11517
v 0.416901 1.18735 0.489786
v 0.41345 1.24272 0.398626
v 0.389758 1.22533 0.455146
v 0.362076 1.19134 0.501374
v 0.350987 1.3171 0.208056
v 0.313354 1.32193 0.16402
v 0.288329 1.30622 0.211804
v 0.323978 1.22394 0.462074
v 0.306255 1.18501 0.50144
v 0.288329 1.24007 0.411804
v 0.267923 1.21034 0.454882
v 0.253689 1.16885 0.489976
v 0.350987 1.25095 0.408056
v 0.452637 1.13511 0.50629
v 0.398894 1.14548 0.525857
v 0.430828 1.09084 0.533126
v 0.333114 1.14409 0.532785
v 0.276956 1.1314 0.524793
v 0.305707 1.08819 0.546303
v 0.369259 1.09125 0.549478
v 0.40279 1.0439 0.546021
v 0.337754 1.04252 0.552871
v 0.370657 0.997861 0.543995
v 0.484387 1.087 0.498848
v 0.454752 1.03277 0.522468
v 0.42228 0.9847 0.526167
v 0.468325 0.97695 0.494929
v 0.5041 1.02712 0.478767
v 0.505286 0.975202 0.452658
v 0.527789 0.958361 0.350623
v 0.527789 1.02451 0.150623
v 0.511618 1.0107 0.0986258
v 0.540928 1.06571 0.111781
v 0.548493 1.08456 0.166244
v 0.540928 0.99956 0.311781
v 0.483068 1.00536 0.0505391
v 0.51434 1.05433 0.0522803
v 0.444312 1.00889 0.0100238
v 0.477485 1.05415 0.00733189
v 0.500878 1.10457 0.0155004
v 0.535281 1.11506 0.0680798
v 0.512709 1.15631 0.0339074
v 0.476973 1.20855 0.0174038
v 0.472549 1.15651 -0.00811382
v 0.432126 1.20507 -0.0162507
v 0.451608 1.09578 -0.0239132
v 0.421045 1.04634 -0.0247925
v 0.392293 1.08955 -0.046303
v 0.415462 1.14861 -0.0406058
v 0.380951 1.19527 -0.0372496
v 0.360246 1.13522 -0.0528703
v 0.327343 1.17988 -0.0439944
v 0.440652 1.25339 0.0243782
v 0.383566 1.24549 -0.00811382
v 0.328711 1.231 -0.0207459
v 0.331622 1.27382 0.0155004
v 0.387814 1.28954 0.0410707
v 0.335857 1.30508 0.0619852
v 0.287067 1.31067 0.105192
v 0.28138 1.28729 0.0522803
v 0.237757 1.28456 0.0986258
v 0.277131 1.24324 0.00309582
v 0.27572 1.19304 -0.0261667
v 0.229675 1.20079 0.0050713
v 0.227783 1.24889 0.0467975
v 0.196915 1.24608 0.0959699
v 0.192714 1.20254 0.0473418
v 0.16765 1.19815 0.097427
v 0.258619 1.30432 0.155483
v 0.205023 1.26592 0.15
v 0.170211 1.21938 0.149377
v 0.186382 1.23319 0.201374
v 0.23161 1.21116 0.409501
v 0.186382 1.16704 0.401374
v 0.214933 1.17238 0.449461
v 0.23161 1.27731 0.209501
v 0.220515 1.12359 0.492668
v 0.18366 1.12341 0.44772
v 0.197122 1.07317 0.4845
v 0.170211 1.15323 0.349377
v 0.157073 1.11203 0.388219
v 0.149507 1.15933 0.133756
v 0.149507 1.09318 0.333756
v 0.14655 1.05151 0.371322
v 0.157073 1.17818 0.188219
v 0.162719 1.06268 0.43192
v 0.185291 1.02143 0.466093
v 0.159004 1.01017 0.407265
v 0.185922 0.972304 0.438848
v 0.246393 1.08196 0.523914
v 0.225452 1.02123 0.508114
v 0.221028 0.969189 0.482596
v 0.265875 0.972668 0.516251
v 0.282538 1.02913 0.540606
v 0.31705 0.982474 0.53725
v 0.36929 0.946738 0.520746
v 0.314435 0.932245 0.508114
v 0.366378 0.903915 0.4845
v 0.257348 0.924347 0.475622
v 0.216827 0.925645 0.433968
v 0.257794 0.888893 0.422696
v 0.310186 0.888202 0.45893
v 0.362144 0.872655 0.438015
v 0.305703 0.864847 0.405891
v 0.356909 0.855335 0.38483
v 0.420869 0.934496 0.496904
v 0.41662 0.890453 0.44772
v 0.410933 0.867072 0.394808
v 0.460244 0.893175 0.401374
v 0.470217 0.92885 0.453203
v 0.501086 0.931657 0.40403
v 0.492978 0.911816 0.35
v 0.511618 0.94455 0.298626
v 0.439381 0.873419 0.344517
v 0.384647 0.855814 0.33598
v 0.409671 0.871515 0.288197
v 0.46639 0.966581 0.090499
v 0.409671 0.937668 0.0881967
v 0.430077 0.967397 0.0451182
v 0.46639 0.900428 0.290499
v 0.231443 1.00439 0.032443
v 0.245363 1.04262 -0.00628977
v 0.281099 0.990385 0.0102139
v 0.267172 1.0869 -0.0331253
v 0.299106 1.03226 -0.0258568
v 0.335925 0.986396 -0.00137424
v 0.29521 1.13384 -0.0460207
v 0.328741 1.08649 -0.0494773
v 0.364886 1.03365 -0.0327848
v 0.391745 0.992725 -0.00143926
v 0.196573 1.04821 0.0369175
v 0.173307 1.09764 0.0500001
v 0.213613 1.09074 0.00115226
v 0.163415 1.14892 0.0706951
v 0.1939 1.15062 0.0212334
v 0.243248 1.14497 -0.0224682
v 0.202156 0.999418 0.0801247
v 0.184047 1.00377 0.133125
v 0.169912 1.04704 0.0885555
v 0.184047 0.937621 0.333126
v 0.178495 0.950973 0.387411
v 0.155845 0.991415 0.352338
v 0.150198 1.10692 0.108637
v 0.14655 1.11766 0.171322
v 0.169912 0.980888 0.288556
v 0.150198 1.04076 0.308637
v 0.155845 1.05757 0.152338
v 0.254396 0.963681 0.063621
v 0.254396 0.897529 0.263621
v 0.28455 0.868869 0.301374
v 0.228396 0.895394 0.315565
v 0.202156 0.933265 0.280125
v 0.228396 0.961547 0.115565
v 0.319611 0.854438 0.342829
v 0.267167 0.869777 0.362655
v 0.214329 0.905922 0.379347
v 0.308243 0.952411 0.0448538
v 0.28455 0.935021 0.101374
v 0.374023 0.953802 0.0379259
v 0.347014 0.860641 0.291944
v 0.347014 0.926793 0.0919441
f 1 2 3
f 2 4 5
f 3 5 6
f 2 5 3
f 4 7 8
f 7 9 10
f 8 10 11
f 7 10 8
f 12 13 14
f 13 15 16
f 14 16 17
f 13 16 14
f 4 8 5
f 18 15 13
f 19 13 12
f 8 20 5
f 1 3 21
f 22 12 23
f 24 23 25
f 3 26 21
f 12 14 27
f 14 17 28
f 27 28 29
f 14 28 27
f 25 30 31
f 30 29 32
f 31 32 33
f 30 32 31
f 12 27 23
f 27 29 30
f 23 30 25
f 27 30 23
f 1 21 34
f 21 35 36
f 34 36 37
f 21 36 34
f 25 31 38
f 31 33 39
f 38 39 40
f 31 39 38
f 37 41 42
f 41 43 44
f 42 44 45
f 41 44 42
f 35 46 36
f 46 43 41
f 36 41 37
f 46 41 36
f 1 34 47
f 34 37 48
f 47 48 49
f 34 48 47
f 37 42 50
f 42 45 51
f 50 51 52
f 42 51 50
f 49 53 54
f 53 52 55
f 54 55 56
f 53 55 54
f 37 50 48
f 50 52 53
f 48 53 49
f 50 53 48
f 1 47 2
f 47 49 57
f 2 57 4
f 47 57 2
f 49 54 58
f 54 56 59
f 58 59 60
f 54 59 58
f 4 61 7
f 61 60 62
f 7 62 9
f 61 62 7
f 49 58 57
f 58 60 61
f 57 61 4
f 58 61 57
f 9 63 10
f 64 65 66
f 67 66 15
f 63 68 10
f 65 69 70
f 69 71 72
f 70 72 73
f 69 72 70
f 15 74 16
f 74 73 75
f 16 75 17
f 74 75 16
f 65 70 66
f 70 73 74
f 66 74 15
f 70 74 66
f 17 75 76
f 75 73 77
f 76 77 78
f 75 77 76
f 73 72 79
f 72 71 80
f 79 80 81
f 72 80 79
f 78 82 83
f 82 81 84
f 83 84 85
f 82 84 83
f 73 79 77
f 79 81 82
f 77 82 78
f 79 82 77
f 17 76 28
f 76 78 86
f 28 86 29
f 76 86 28
f 78 83 87
f 83 85 88
f 87 88 89
f 83 88 87
f 29 90 32
f 90 89 91
f 32 91 33
f 90 91 32
f 78 87 86
f 87 89 90
f 86 90 29
f 87 90 86
f 33 91 92
f 91 89 93
f 92 93 94
f 91 93 92
f 89 88 95
f 88 85 96
f 95 96 97
f 88 96 95
f 94 98 99
f 98 97 100
f 99 100 101
f 98 100 99
f 89 95 93
f 95 97 98
f 93 98 94
f 95 98 93
f 33 92 39
f 92 94 102
f 39 102 40
f 92 102 39
f 94 99 103
f 99 101 104
f 103 104 105
f 99 104 103
f 43 106 44
f 106 107 108
f 44 108 45
f 106 108 44
f 94 103 102
f 103 105 109
f 102 109 40
f 103 109 102
f 45 108 110
f 108 107 111
f 110 111 112
f 108 111 110
f 107 113 114
f 104 101 115
f 114 116 117
f 104 115 118
f 112 119 120
f 119 117 121
f 120 121 122
f 119 121 120
f 107 114 111
f 114 117 119
f 111 119 112
f 114 119 111
f 45 110 51
f 110 112 123
f 51 123 52
f 110 123 51
f 112 120 124
f 120 122 125
f 124 125 126
f 120 125 124
f 52 127 55
f 127 126 128
f 55 128 56
f 127 128 55
f 112 124 123
f 124 126 127
f 123 127 52
f 124 127 123
f 56 128 129
f 128 126 130
f 129 130 131
f 128 130 129
f 126 125 132
f 125 122 133
f 132 133 134
f 125 133 132
f 131 135 136
f 135 134 137
f 136 137 138
f 135 137 136
f 126 132 130
f 132 134 135
f 130 135 131
f 132 135 130
f 56 129 59
f 129 131 139
f 59 139 60
f 129 139 59
f 131 136 140
f 136 138 141
f 140 141 142
f 136 141 140
f 60 143 62
f 143 142 144
f 62 144 9
f 143 144 62
f 131 140 139
f 140 142 143
f 139 143 60
f 140 143 139
f 9 144 63
f 144 142 145
f 63 145 146
f 144 145 63
f 142 141 147
f 141 138 148
f 147 148 149
f 141 148 147
f 65 150 69
f 150 151 152
f 69 152 71
f 150 152 69
f 142 147 145
f 147 149 153
f 145 153 146
f 147 153 145
f 154 155 156
f 155 157 158
f 156 158 159
f 155 158 156
f 157 160 161
f 160 85 84
f 161 84 81
f 160 84 161
f 159 162 163
f 162 81 80
f 163 80 71
f 162 80 163
f 157 161 158
f 161 81 162
f 158 162 159
f 161 162 158
f 154 164 155
f 164 165 166
f 155 166 157
f 164 166 155
f 165 167 168
f 167 101 100
f 168 100 97
f 167 100 168
f 157 169 160
f 169 97 96
f 160 96 85
f 169 96 160
f 165 168 166
f 168 97 169
f 166 169 157
f 168 169 166
f 154 170 164
f 170 171 172
f 164 172 165
f 170 172 164
f 173 174 175
f 174 122 121
f 175 121 117
f 174 121 175
f 165 176 167
f 176 177 115
f 167 115 101
f 176 115 167
f 173 175 178
f 175 117 179
f 172 176 165
f 180 176 172
f 154 181 170
f 182 183 184
f 185 184 173
f 181 186 170
f 183 187 188
f 187 138 137
f 188 137 134
f 187 137 188
f 173 189 174
f 189 134 133
f 174 133 122
f 189 133 174
f 183 188 184
f 188 134 189
f 184 189 173
f 188 189 184
f 154 156 181
f 156 159 190
f 181 190 191
f 156 190 181
f 159 163 192
f 163 71 152
f 192 152 151
f 163 152 192
f 183 193 187
f 193 149 148
f 187 148 138
f 193 148 187
f 159 192 190
f 192 151 194
f 190 194 191
f 192 194 190
f 5 19 6
f 6 19 12
f 6 12 3
f 3 12 22
f 10 67 11
f 11 67 15
f 11 15 8
f 8 15 18
f 8 18 20
f 20 18 13
f 20 13 5
f 5 13 19
f 3 22 26
f 26 22 23
f 26 23 21
f 21 23 24
f 21 24 35
f 35 24 25
f 35 25 46
f 46 25 38
f 46 38 43
f 43 38 40
f 63 64 68
f 68 64 66
f 68 66 10
f 10 66 67
f 43 40 106
f 106 40 109
f 106 109 107
f 107 109 105
f 107 105 113
f 113 105 104
f 113 104 114
f 114 104 118
f 114 118 116
f 116 118 115
f 116 115 117
f 117 115 177
f 146 65 63
f 63 65 64
f 149 151 153
f 153 151 150
f 153 150 146
f 146 150 65
f 175 180 178
f 178 180 172
f 178 172 173
f 173 172 171
f 117 177 179
f 179 177 176
f 179 176 175
f 175 176 180
f 182 181 183
f 183 181 191
f 184 186 182
f 182 186 181
f 185 170 184
f 184 170 186
f 173 171 185
f 185 171 170
f 183 191 193
f 193 191 194
f 193 194 149
f 149 194 151
