v 0.466557 1.2395 0.267557
v 0.501427 1.19568 0.263083
v 0.495844 1.24447 0.219875
v 0.524694 1.14625 0.25
v 0.528089 1.19685 0.211445
v 0.513953 1.24012 0.166875
v 0.534586 1.09497 0.229305
v 0.547802 1.13698 0.191364
v 0.530351 1.04574 0.202573
v 0.548493 1.08456 0.166244
v 0.55145 1.12623 0.128678
v 0.513953 1.26111 0.0868747
v 0.542156 1.20732 0.0676619
v 0.519506 1.24776 0.0325893
v 0.55145 1.14722 0.0486781
v 0.538996 1.18856 0.0127353
v 0.512078 1.22643 -0.0188482
v 0.547802 1.15797 0.111364
v 0.542156 1.18632 0.147662
v 0.443604 1.28021 0.236379
v 0.469605 1.28234 0.184436
v 0.41345 1.30887 0.198626
v 0.483671 1.29281 0.0406528
v 0.481173 1.27309 -0.0139682
v 0.440207 1.30984 -0.00269625
v 0.41345 1.32986 0.118626
v 0.430834 1.32896 0.0573454
v 0.37839 1.34429 0.0771708
v 0.392297 1.33389 0.0141096
v 0.341092 1.3434 0.03517
v 0.469605 1.30334 0.104436
v 0.416901 1.25351 0.289786
v 0.389758 1.29148 0.255146
v 0.362076 1.2575 0.301374
v 0.350987 1.33809 0.128056
v 0.313354 1.34292 0.0840204
v 0.288329 1.32722 0.131803
v 0.323978 1.29009 0.262074
v 0.306255 1.25117 0.301439
v 0.288329 1.30622 0.211804
v 0.267923 1.27649 0.254882
v 0.253689 1.235 0.289976
v 0.350987 1.3171 0.208056
v 0.452637 1.20127 0.30629
v 0.398894 1.21163 0.325857
v 0.430828 1.15699 0.333126
v 0.333114 1.21024 0.332785
v 0.276956 1.19755 0.324793
v 0.305707 1.15435 0.346303
v 0.369259 1.1574 0.349477
v 0.40279 1.11005 0.346021
v 0.337754 1.10867 0.35287
v 0.370657 1.06401 0.343995
v 0.484387 1.15315 0.298848
v 0.454752 1.09892 0.322468
v 0.42228 1.05085 0.326167
v 0.468325 1.0431 0.294929
v 0.5041 1.09327 0.278767
v 0.505286 1.04135 0.252658
v 0.527789 1.02451 0.150623
v 0.527789 1.04551 0.0706232
v 0.511618 1.0317 0.0186257
v 0.540928 1.08671 0.0317813
v 0.548493 1.10556 0.0862439
v 0.540928 1.06571 0.111781
v 0.483068 1.02635 -0.0294609
v 0.51434 1.07532 -0.0277197
v 0.444312 1.02989 -0.0699763
v 0.477485 1.07514 -0.0726682
v 0.500878 1.12556 -0.0644997
v 0.535281 1.13605 -0.0119203
v 0.512709 1.1773 -0.0460926
v 0.476973 1.22954 -0.0625963
v 0.472549 1.17751 -0.0881139
v 0.432126 1.22607 -0.0962507
v 0.451608 1.11677 -0.103913
v 0.421045 1.06733 -0.104793
v 0.392293 1.11054 -0.126303
v 0.415462 1.16961 -0.120606
v 0.380951 1.21626 -0.11725
v 0.360246 1.15621 -0.13287
v 0.327343 1.20087 -0.123994
v 0.440652 1.27439 -0.0556219
v 0.383566 1.26649 -0.0881139
v 0.328711 1.252 -0.100746
v 0.331622 1.29482 -0.0644997
v 0.387814 1.31053 -0.0389293
v 0.335857 1.32608 -0.0180148
v 0.287067 1.33166 0.0251924
v 0.28138 1.30828 -0.0277197
v 0.237757 1.30556 0.0186257
v 0.277131 1.26424 -0.0769042
v 0.27572 1.21403 -0.106167
v 0.229675 1.22178 -0.0749287
v 0.227783 1.26988 -0.0332026
v 0.196915 1.26708 0.0159699
v 0.192714 1.22353 -0.0326582
v 0.16765 1.21914 0.0174269
v 0.258619 1.32531 0.075483
v 0.205023 1.28692 0.0700001
v 0.170211 1.24037 0.069377
v 0.186382 1.25418 0.121374
v 0.23161 1.27731 0.209501
v 0.186382 1.23319 0.201374
v 0.214933 1.23853 0.249461
v 0.205023 1.26592 0.15
v 0.23161 1.2983 0.129501
v 0.220515 1.18974 0.292668
v 0.18366 1.18957 0.24772
v 0.197122 1.13932 0.2845
v 0.170211 1.21938 0.149377
v 0.157073 1.17818 0.188219
v 0.149507 1.18032 0.0537562
v 0.149507 1.15933 0.133756
v 0.14655 1.11766 0.171322
v 0.157073 1.19917 0.108219
v 0.162719 1.12883 0.23192
v 0.185291 1.08758 0.266093
v 0.159004 1.07632 0.207265
v 0.185922 1.03846 0.238848
v 0.246393 1.14812 0.323913
v 0.225452 1.08738 0.308114
v 0.221028 1.03534 0.282596
v 0.265875 1.03882 0.316251
v 0.282538 1.09528 0.340606
v 0.31705 1.04863 0.33725
v 0.36929 1.01289 0.320746
v 0.314435 0.998397 0.308114
v 0.366378 0.970068 0.2845
v 0.257348 0.9905 0.275622
v 0.216827 0.991798 0.233968
v 0.257794 0.955046 0.222696
v 0.310186 0.954355 0.258929
v 0.362144 0.938808 0.238015
v 0.305703 0.930999 0.205891
v 0.356909 0.921488 0.18483
v 0.420869 1.00065 0.296904
v 0.41662 0.956606 0.24772
v 0.410933 0.933225 0.194808
v 0.460244 0.959328 0.201374
v 0.470217 0.995002 0.253203
v 0.501086 0.99781 0.20403
v 0.492978 0.977968 0.15
v 0.511618 1.0107 0.0986258
v 0.439381 0.939572 0.144517
v 0.384647 0.921966 0.13598
v 0.409671 0.937668 0.0881967
v 0.46639 0.987575 0.010499
v 0.409671 0.958662 0.00819663
v 0.430077 0.988391 -0.0348818
v 0.46639 0.966581 0.090499
v 0.492978 0.998962 0.07
v 0.231443 1.02538 -0.047557
v 0.245363 1.06362 -0.0862898
v 0.281099 1.01138 -0.0697861
v 0.267172 1.10789 -0.113125
v 0.299106 1.05325 -0.105857
v 0.335925 1.00739 -0.0813743
v 0.29521 1.15484 -0.126021
v 0.328741 1.10748 -0.129477
v 0.364886 1.05464 -0.112785
v 0.391745 1.01372 -0.0814393
v 0.196573 1.0692 -0.0430826
v 0.173307 1.11863 -0.03
v 0.213613 1.11174 -0.0788478
v 0.163415 1.16992 -0.00930498
v 0.1939 1.17161 -0.0587666
v 0.243248 1.16596 -0.102468
v 0.202156 1.02041 0.000124648
v 0.184047 1.02477 0.0531254
v 0.169912 1.06803 0.00855542
v 0.184047 1.00377 0.133125
v 0.178495 1.01713 0.187411
v 0.155845 1.05757 0.152338
v 0.150198 1.12791 0.0286366
v 0.14655 1.13866 0.091322
v 0.155845 1.07856 0.0723382
v 0.150198 1.10692 0.108637
v 0.254396 0.984675 -0.0163791
v 0.28455 0.956015 0.0213743
v 0.228396 0.982541 0.0355645
v 0.28455 0.935021 0.101374
v 0.319611 0.920591 0.142829
v 0.267167 0.935929 0.162655
v 0.214329 0.972075 0.179347
v 0.228396 0.961547 0.115565
v 0.308243 0.973405 -0.0351462
v 0.374023 0.974796 -0.0420741
v 0.347014 0.926793 0.0919441
v 0.347014 0.947787 0.011944
f 1 2 3
f 2 4 5
f 3 5 6
f 2 5 3
f 4 7 8
f 7 9 10
f 8 10 11
f 7 10 8
f 12 13 14
f 13 15 16
f 14 16 17
f 13 16 14
f 4 8 5
f 18 15 13
f 5 19 6
f 8 19 5
f 1 3 20
f 3 6 21
f 20 21 22
f 3 21 20
f 12 14 23
f 14 17 24
f 23 24 25
f 14 24 23
f 26 27 28
f 27 25 29
f 28 29 30
f 27 29 28
f 12 23 31
f 23 25 27
f 31 27 26
f 23 27 31
f 1 20 32
f 20 22 33
f 32 33 34
f 20 33 32
f 26 28 35
f 28 30 36
f 35 36 37
f 28 36 35
f 34 38 39
f 38 40 41
f 39 41 42
f 38 41 39
f 22 43 33
f 43 40 38
f 33 38 34
f 43 38 33
f 1 32 44
f 32 34 45
f 44 45 46
f 32 45 44
f 34 39 47
f 39 42 48
f 47 48 49
f 39 48 47
f 46 50 51
f 50 49 52
f 51 52 53
f 50 52 51
f 34 47 45
f 47 49 50
f 45 50 46
f 47 50 45
f 1 44 2
f 44 46 54
f 2 54 4
f 44 54 2
f 46 51 55
f 51 53 56
f 55 56 57
f 51 56 55
f 4 58 7
f 58 57 59
f 7 59 9
f 58 59 7
f 46 55 54
f 55 57 58
f 54 58 4
f 55 58 54
f 9 60 10
f 61 62 63
f 64 63 15
f 60 65 10
f 62 66 67
f 66 68 69
f 67 69 70
f 66 69 67
f 15 71 16
f 71 70 72
f 16 72 17
f 71 72 16
f 62 67 63
f 67 70 71
f 63 71 15
f 67 71 63
f 17 72 73
f 72 70 74
f 73 74 75
f 72 74 73
f 70 69 76
f 69 68 77
f 76 77 78
f 69 77 76
f 75 79 80
f 79 78 81
f 80 81 82
f 79 81 80
f 70 76 74
f 76 78 79
f 74 79 75
f 76 79 74
f 17 73 24
f 73 75 83
f 24 83 25
f 73 83 24
f 75 80 84
f 80 82 85
f 84 85 86
f 80 85 84
f 25 87 29
f 87 86 88
f 29 88 30
f 87 88 29
f 75 84 83
f 84 86 87
f 83 87 25
f 84 87 83
f 30 88 89
f 88 86 90
f 89 90 91
f 88 90 89
f 86 85 92
f 85 82 93
f 92 93 94
f 85 93 92
f 91 95 96
f 95 94 97
f 96 97 98
f 95 97 96
f 86 92 90
f 92 94 95
f 90 95 91
f 92 95 90
f 30 89 36
f 89 91 99
f 36 99 37
f 89 99 36
f 91 96 100
f 96 98 101
f 100 101 102
f 96 101 100
f 40 103 41
f 103 104 105
f 41 105 42
f 103 105 41
f 91 100 99
f 106 104 103
f 99 107 37
f 100 107 99
f 42 105 108
f 105 104 109
f 108 109 110
f 105 109 108
f 104 111 112
f 101 98 113
f 112 114 115
f 101 113 116
f 110 117 118
f 117 115 119
f 118 119 120
f 117 119 118
f 104 112 109
f 112 115 117
f 109 117 110
f 112 117 109
f 42 108 48
f 108 110 121
f 48 121 49
f 108 121 48
f 110 118 122
f 118 120 123
f 122 123 124
f 118 123 122
f 49 125 52
f 125 124 126
f 52 126 53
f 125 126 52
f 110 122 121
f 122 124 125
f 121 125 49
f 122 125 121
f 53 126 127
f 126 124 128
f 127 128 129
f 126 128 127
f 124 123 130
f 123 120 131
f 130 131 132
f 123 131 130
f 129 133 134
f 133 132 135
f 134 135 136
f 133 135 134
f 124 130 128
f 130 132 133
f 128 133 129
f 130 133 128
f 53 127 56
f 127 129 137
f 56 137 57
f 127 137 56
f 129 134 138
f 134 136 139
f 138 139 140
f 134 139 138
f 57 141 59
f 141 140 142
f 59 142 9
f 141 142 59
f 129 138 137
f 138 140 141
f 137 141 57
f 138 141 137
f 9 142 60
f 142 140 143
f 60 143 144
f 142 143 60
f 140 139 145
f 139 136 146
f 145 146 147
f 139 146 145
f 62 148 66
f 148 149 150
f 66 150 68
f 148 150 66
f 140 145 143
f 145 147 151
f 152 148 62
f 145 151 143
f 153 154 155
f 154 156 157
f 155 157 158
f 154 157 155
f 156 159 160
f 159 82 81
f 160 81 78
f 159 81 160
f 158 161 162
f 161 78 77
f 162 77 68
f 161 77 162
f 156 160 157
f 160 78 161
f 157 161 158
f 160 161 157
f 153 163 154
f 163 164 165
f 154 165 156
f 163 165 154
f 164 166 167
f 166 98 97
f 167 97 94
f 166 97 167
f 156 168 159
f 168 94 93
f 159 93 82
f 168 93 159
f 164 167 165
f 167 94 168
f 165 168 156
f 167 168 165
f 153 169 163
f 169 170 171
f 163 171 164
f 169 171 163
f 172 173 174
f 173 120 119
f 174 119 115
f 173 119 174
f 164 175 166
f 175 176 113
f 166 113 98
f 175 113 166
f 170 177 171
f 174 115 178
f 171 175 164
f 177 175 171
f 153 179 169
f 179 180 181
f 169 181 170
f 179 181 169
f 182 183 184
f 183 136 135
f 184 135 132
f 183 135 184
f 172 185 173
f 185 132 131
f 173 131 120
f 185 131 173
f 182 184 186
f 184 132 185
f 186 185 172
f 184 185 186
f 153 155 179
f 155 158 187
f 179 187 180
f 155 187 179
f 158 162 188
f 162 68 150
f 188 150 149
f 162 150 188
f 182 189 183
f 189 147 146
f 183 146 136
f 189 146 183
f 158 188 187
f 188 149 190
f 187 190 180
f 188 190 187
f 10 64 11
f 11 64 15
f 11 15 8
f 8 15 18
f 19 13 6
f 6 13 12
f 8 18 19
f 19 18 13
f 6 12 21
f 21 12 31
f 21 31 22
f 22 31 26
f 22 26 43
f 43 26 35
f 43 35 40
f 40 35 37
f 60 61 65
f 65 61 63
f 65 63 10
f 10 63 64
f 40 37 103
f 103 37 107
f 106 100 104
f 104 100 102
f 103 107 106
f 106 107 100
f 104 102 111
f 111 102 101
f 111 101 112
f 112 101 116
f 112 116 114
f 114 116 113
f 114 113 115
f 115 113 176
f 143 152 144
f 144 152 62
f 144 62 60
f 60 62 61
f 147 149 151
f 151 149 148
f 151 148 143
f 143 148 152
f 174 177 172
f 172 177 170
f 115 176 178
f 178 176 175
f 178 175 174
f 174 175 177
f 186 181 182
f 182 181 180
f 172 170 186
f 186 170 181
f 182 180 189
f 189 180 190
f 189 190 147
f 147 190 149
