v 0.826557 1.22347 -0.132443
v 0.861427 1.17965 -0.136917
v 0.855844 1.22844 -0.180125
v 0.884694 1.13022 -0.15
v 0.888089 1.18082 -0.188555
v 0.873953 1.22409 -0.233125
v 0.894586 1.07894 -0.170695
v 0.907802 1.12094 -0.208636
v 0.890351 1.02971 -0.197427
v 0.908493 1.06853 -0.233756
v 0.91145 1.1102 -0.271322
v 0.873953 1.25104 -0.313125
v 0.902156 1.19725 -0.332338
v 0.879506 1.23769 -0.367411
v 0.91145 1.13715 -0.351322
v 0.898996 1.17849 -0.387265
v 0.872078 1.21636 -0.418848
v 0.907802 1.1479 -0.288637
v 0.888089 1.20777 -0.268555
v 0.902156 1.17029 -0.252338
v 0.803604 1.26418 -0.163621
v 0.855844 1.2554 -0.260125
v 0.829605 1.29327 -0.295564
v 0.803604 1.29113 -0.243621
v 0.77345 1.31979 -0.281374
v 0.829605 1.26631 -0.215564
v 0.843671 1.28274 -0.359347
v 0.841173 1.26302 -0.413968
v 0.800207 1.29977 -0.402696
v 0.790834 1.31888 -0.342655
v 0.73839 1.33422 -0.322829
v 0.752297 1.32381 -0.38589
v 0.701092 1.33333 -0.36483
v 0.776901 1.23748 -0.110214
v 0.77345 1.29284 -0.201374
v 0.749758 1.27545 -0.144854
v 0.722076 1.24146 -0.0986256
v 0.710987 1.32802 -0.271944
v 0.673354 1.33285 -0.31598
v 0.648329 1.31715 -0.268197
v 0.683978 1.27406 -0.137926
v 0.666255 1.23514 -0.0985606
v 0.648329 1.29019 -0.188197
v 0.627923 1.26046 -0.145118
v 0.613689 1.21897 -0.110024
v 0.710987 1.30107 -0.191944
v 0.812637 1.18524 -0.0937101
v 0.758894 1.1956 -0.074143
v 0.790828 1.14096 -0.0668745
v 0.693114 1.19421 -0.0672151
v 0.636956 1.18152 -0.0752073
v 0.665707 1.13832 -0.0536968
v 0.729259 1.14137 -0.0505225
v 0.76279 1.09402 -0.0539791
v 0.697754 1.09264 -0.0471296
v 0.730657 1.04798 -0.0560054
v 0.844387 1.13712 -0.101152
v 0.814752 1.08289 -0.0775316
v 0.78228 1.03482 -0.0738331
v 0.828325 1.02707 -0.105071
v 0.8641 1.07724 -0.121233
v 0.865286 1.02532 -0.147342
v 0.887789 1.00848 -0.249377
v 0.887789 1.03544 -0.329377
v 0.871618 1.02162 -0.381374
v 0.900928 1.07664 -0.368219
v 0.908493 1.09548 -0.313756
v 0.900928 1.04968 -0.288219
v 0.843068 1.01628 -0.429461
v 0.87434 1.06525 -0.42772
v 0.804312 1.01981 -0.469976
v 0.837485 1.06507 -0.472668
v 0.860878 1.11549 -0.4645
v 0.895281 1.12598 -0.41192
v 0.872709 1.16723 -0.446093
v 0.836973 1.21947 -0.462596
v 0.832549 1.16743 -0.488114
v 0.792126 1.21599 -0.496251
v 0.811608 1.1067 -0.503913
v 0.781045 1.05726 -0.504793
v 0.752293 1.10047 -0.526303
v 0.775462 1.15954 -0.520606
v 0.740951 1.20619 -0.51725
v 0.720246 1.14614 -0.53287
v 0.687343 1.1908 -0.523994
v 0.800652 1.26431 -0.455622
v 0.743566 1.25642 -0.488114
v 0.688711 1.24192 -0.500746
v 0.691622 1.28475 -0.4645
v 0.747814 1.30046 -0.438929
v 0.695857 1.31601 -0.418015
v 0.647067 1.32159 -0.374808
v 0.64138 1.29821 -0.42772
v 0.597757 1.29549 -0.381374
v 0.637131 1.25417 -0.476904
v 0.63572 1.20396 -0.506167
v 0.589675 1.21171 -0.474929
v 0.587783 1.25981 -0.433203
v 0.556915 1.257 -0.38403
v 0.552714 1.21346 -0.432658
v 0.52765 1.20907 -0.382573
v 0.618619 1.31524 -0.324517
v 0.565023 1.27685 -0.33
v 0.530211 1.2303 -0.330623
v 0.546382 1.24411 -0.278626
v 0.59161 1.26128 -0.190499
v 0.546382 1.21716 -0.198626
v 0.574933 1.2225 -0.150539
v 0.59161 1.28823 -0.270499
v 0.580515 1.17371 -0.107332
v 0.54366 1.17354 -0.15228
v 0.557123 1.12329 -0.1155
v 0.530211 1.20335 -0.250623
v 0.517073 1.16215 -0.211781
v 0.509507 1.17025 -0.346244
v 0.509507 1.1433 -0.266244
v 0.50655 1.10163 -0.228678
v 0.517073 1.1891 -0.291781
v 0.522719 1.1128 -0.16808
v 0.545291 1.07155 -0.133907
v 0.519005 1.06029 -0.192735
v 0.545922 1.02243 -0.161152
v 0.606393 1.13208 -0.0760866
v 0.585452 1.07135 -0.091886
v 0.581028 1.01931 -0.117404
v 0.625875 1.02279 -0.0837492
v 0.642538 1.07925 -0.0593941
v 0.67705 1.0326 -0.0627503
v 0.72929 0.996859 -0.079254
v 0.674435 0.982366 -0.0918861
v 0.726378 0.954037 -0.1155
v 0.617348 0.974469 -0.124378
v 0.576827 0.975766 -0.166032
v 0.617794 0.939015 -0.177304
v 0.670186 0.938323 -0.141071
v 0.722144 0.922777 -0.161985
v 0.665703 0.914968 -0.194109
v 0.716909 0.905457 -0.21517
v 0.780869 0.984618 -0.103096
v 0.776621 0.940575 -0.15228
v 0.770933 0.917194 -0.205192
v 0.820244 0.943297 -0.198626
v 0.830217 0.978971 -0.146797
v 0.861086 0.981779 -0.19597
v 0.852978 0.961937 -0.25
v 0.871618 0.994671 -0.301374
v 0.799381 0.923541 -0.255483
v 0.744647 0.905935 -0.26402
v 0.769671 0.921637 -0.311803
v 0.82639 0.977503 -0.389501
v 0.769671 0.94859 -0.391803
v 0.790077 0.978319 -0.434882
v 0.82639 0.95055 -0.309501
v 0.591443 1.01531 -0.447557
v 0.605363 1.05355 -0.48629
v 0.641099 1.00131 -0.469786
v 0.627172 1.09782 -0.513125
v 0.659106 1.04318 -0.505857
v 0.695925 0.997318 -0.481374
v 0.65521 1.14476 -0.526021
v 0.688741 1.09741 -0.529477
v 0.724886 1.04457 -0.512785
v 0.751745 1.00365 -0.481439
v 0.556573 1.05913 -0.443083
v 0.533307 1.10856 -0.43
v 0.573613 1.10166 -0.478848
v 0.523415 1.15984 -0.409305
v 0.5539 1.16154 -0.458767
v 0.603248 1.15589 -0.502468
v 0.562156 1.01034 -0.399875
v 0.544047 1.0147 -0.346875
v 0.529912 1.05796 -0.391445
v 0.544047 0.987743 -0.266875
v 0.538495 1.00109 -0.212589
v 0.515845 1.04154 -0.247662
v 0.510198 1.11784 -0.371363
v 0.50655 1.12859 -0.308678
v 0.529912 1.03101 -0.311445
v 0.510198 1.09088 -0.291363
v 0.515845 1.06849 -0.327662
v 0.614396 0.974604 -0.416379
v 0.614396 0.94765 -0.336379
v 0.64455 0.91899 -0.298626
v 0.588396 0.945516 -0.284436
v 0.562156 0.983387 -0.319875
v 0.588396 0.972469 -0.364436
v 0.679611 0.90456 -0.257171
v 0.627167 0.919898 -0.237345
v 0.574329 0.956044 -0.220653
v 0.668243 0.963333 -0.435146
v 0.64455 0.945944 -0.378626
v 0.734023 0.964725 -0.442074
v 0.707014 0.910762 -0.308056
v 0.707014 0.937715 -0.388056
f 1 2 3
f 2 4 5
f 3 5 6
f 2 5 3
f 4 7 8
f 7 9 10
f 8 10 11
f 7 10 8
f 12 13 14
f 13 15 16
f 14 16 17
f 13 16 14
f 4 8 5
f 18 15 13
f 19 13 12
f 8 20 5
f 1 3 21
f 22 12 23
f 24 23 25
f 3 26 21
f 12 14 27
f 14 17 28
f 27 28 29
f 14 28 27
f 25 30 31
f 30 29 32
f 31 32 33
f 30 32 31
f 12 27 23
f 27 29 30
f 23 30 25
f 27 30 23
f 1 21 34
f 21 35 36
f 34 36 37
f 21 36 34
f 25 31 38
f 31 33 39
f 38 39 40
f 31 39 38
f 37 41 42
f 41 43 44
f 42 44 45
f 41 44 42
f 35 46 36
f 46 43 41
f 36 41 37
f 46 41 36
f 1 34 47
f 34 37 48
f 47 48 49
f 34 48 47
f 37 42 50
f 42 45 51
f 50 51 52
f 42 51 50
f 49 53 54
f 53 52 55
f 54 55 56
f 53 55 54
f 37 50 48
f 50 52 53
f 48 53 49
f 50 53 48
f 1 47 2
f 47 49 57
f 2 57 4
f 47 57 2
f 49 54 58
f 54 56 59
f 58 59 60
f 54 59 58
f 4 61 7
f 61 60 62
f 7 62 9
f 61 62 7
f 49 58 57
f 58 60 61
f 57 61 4
f 58 61 57
f 9 63 10
f 64 65 66
f 67 66 15
f 63 68 10
f 65 69 70
f 69 71 72
f 70 72 73
f 69 72 70
f 15 74 16
f 74 73 75
f 16 75 17
f 74 75 16
f 65 70 66
f 70 73 74
f 66 74 15
f 70 74 66
f 17 75 76
f 75 73 77
f 76 77 78
f 75 77 76
f 73 72 79
f 72 71 80
f 79 80 81
f 72 80 79
f 78 82 83
f 82 81 84
f 83 84 85
f 82 84 83
f 73 79 77
f 79 81 82
f 77 82 78
f 79 82 77
f 17 76 28
f 76 78 86
f 28 86 29
f 76 86 28
f 78 83 87
f 83 85 88
f 87 88 89
f 83 88 87
f 29 90 32
f 90 89 91
f 32 91 33
f 90 91 32
f 78 87 86
f 87 89 90
f 86 90 29
f 87 90 86
f 33 91 92
f 91 89 93
f 92 93 94
f 91 93 92
f 89 88 95
f 88 85 96
f 95 96 97
f 88 96 95
f 94 98 99
f 98 97 100
f 99 100 101
f 98 100 99
f 89 95 93
f 95 97 98
f 93 98 94
f 95 98 93
f 33 92 39
f 92 94 102
f 39 102 40
f 92 102 39
f 94 99 103
f 99 101 104
f 103 104 105
f 99 104 103
f 43 106 44
f 106 107 108
f 44 108 45
f 106 108 44
f 94 103 102
f 103 105 109
f 102 109 40
f 103 109 102
f 45 108 110
f 108 107 111
f 110 111 112
f 108 111 110
f 107 113 114
f 104 101 115
f 114 116 117
f 104 115 118
f 112 119 120
f 119 117 121
f 120 121 122
f 119 121 120
f 107 114 111
f 114 117 119
f 111 119 112
f 114 119 111
f 45 110 51
f 110 112 123
f 51 123 52
f 110 123 51
f 112 120 124
f 120 122 125
f 124 125 126
f 120 125 124
f 52 127 55
f 127 126 128
f 55 128 56
f 127 128 55
f 112 124 123
f 124 126 127
f 123 127 52
f 124 127 123
f 56 128 129
f 128 126 130
f 129 130 131
f 128 130 129
f 126 125 132
f 125 122 133
f 132 133 134
f 125 133 132
f 131 135 136
f 135 134 137
f 136 137 138
f 135 137 136
f 126 132 130
f 132 134 135
f 130 135 131
f 132 135 130
f 56 129 59
f 129 131 139
f 59 139 60
f 129 139 59
f 131 136 140
f 136 138 141
f 140 141 142
f 136 141 140
f 60 143 62
f 143 142 144
f 62 144 9
f 143 144 62
f 131 140 139
f 140 142 143
f 139 143 60
f 140 143 139
f 9 144 63
f 144 142 145
f 63 145 146
f 144 145 63
f 142 141 147
f 141 138 148
f 147 148 149
f 141 148 147
f 65 150 69
f 150 151 152
f 69 152 71
f 150 152 69
f 142 147 145
f 147 149 153
f 145 153 146
f 147 153 145
f 154 155 156
f 155 157 158
f 156 158 159
f 155 158 156
f 157 160 161
f 160 85 84
f 161 84 81
f 160 84 161
f 159 162 163
f 162 81 80
f 163 80 71
f 162 80 163
f 157 161 158
f 161 81 162
f 158 162 159
f 161 162 158
f 154 164 155
f 164 165 166
f 155 166 157
f 164 166 155
f 165 167 168
f 167 101 100
f 168 100 97
f 167 100 168
f 157 169 160
f 169 97 96
f 160 96 85
f 169 96 160
f 165 168 166
f 168 97 169
f 166 169 157
f 168 169 166
f 154 170 164
f 170 171 172
f 164 172 165
f 170 172 164
f 173 174 175
f 174 122 121
f 175 121 117
f 174 121 175
f 165 176 167
f 176 177 115
f 167 115 101
f 176 115 167
f 173 175 178
f 175 117 179
f 172 176 165
f 180 176 172
f 154 181 170
f 182 183 184
f 185 184 173
f 181 186 170
f 183 187 188
f 187 138 137
f 188 137 134
f 187 137 188
f 173 189 174
f 189 134 133
f 174 133 122
f 189 133 174
f 183 188 184
f 188 134 189
f 184 189 173
f 188 189 184
f 154 156 181
f 156 159 190
f 181 190 191
f 156 190 181
f 159 163 192
f 163 71 152
f 192 152 151
f 163 152 192
f 183 193 187
f 193 149 148
f 187 148 138
f 193 148 187
f 159 192 190
f 192 151 194
f 190 194 191
f 192 194 190
f 18 8 15
f 15 8 11
f 13 20 18
f 18 20 8
f 19 5 13
f 13 5 20
f 12 6 19
f 19 6 5
f 22 3 12
f 12 3 6
f 23 26 22
f 22 26 3
f 24 21 23
f 23 21 26
f 25 35 24
f 24 35 21
f 38 46 25
f 25 46 35
f 40 43 38
f 38 43 46
f 64 63 65
f 65 63 146
f 66 68 64
f 64 68 63
f 67 10 66
f 66 10 68
f 15 11 67
f 67 11 10
f 104 113 105
f 105 113 107
f 105 107 109
f 109 107 106
f 109 106 40
f 40 106 43
f 115 116 118
f 118 116 114
f 118 114 104
f 104 114 113
f 65 146 150
f 150 146 153
f 150 153 151
f 151 153 149
f 170 185 171
f 171 185 173
f 171 173 172
f 172 173 178
f 176 179 177
f 177 179 117
f 177 117 115
f 115 117 116
f 180 175 176
f 176 175 179
f 172 178 180
f 180 178 175
f 181 182 186
f 186 182 184
f 186 184 170
f 170 184 185
f 191 183 181
f 181 183 182
f 151 149 194
f 194 149 193
f 194 193 191
f 191 193 183
