v 0.466557 1.2605 0.187557
v 0.501427 1.21668 0.183083
v 0.495844 1.26547 0.139875
v 0.524694 1.16725 0.17
v 0.528089 1.21785 0.131445
v 0.513953 1.26111 0.0868747
v 0.534586 1.11596 0.149305
v 0.547802 1.15797 0.111364
v 0.530351 1.06674 0.122573
v 0.548493 1.10556 0.0862439
v 0.55145 1.14722 0.0486781
v 0.513953 1.26445 0.0468747
v 0.542156 1.21066 0.027662
v 0.519506 1.2511 -0.00741064
v 0.55145 1.15056 0.0086781
v 0.538996 1.1919 -0.0272646
v 0.512078 1.22977 -0.0588482
v 0.542156 1.20732 0.0676619
v 0.443604 1.3012 0.156379
v 0.469605 1.30334 0.104436
v 0.41345 1.32986 0.118626
v 0.483671 1.29615 0.000652889
v 0.481173 1.27643 -0.0539682
v 0.440207 1.31318 -0.0426962
v 0.41345 1.3332 0.0786258
v 0.430834 1.3323 0.0173454
v 0.37839 1.34764 0.0371708
v 0.392297 1.33723 -0.0258904
v 0.341092 1.34674 -0.00482999
v 0.469605 1.30668 0.0644356
v 0.430834 1.32896 0.0573454
v 0.416901 1.2745 0.209786
v 0.389758 1.31247 0.175146
v 0.362076 1.27849 0.221374
v 0.37839 1.34429 0.0771708
v 0.350987 1.33809 0.128056
v 0.313354 1.34626 0.0440204
v 0.313354 1.34292 0.0840204
v 0.288329 1.32722 0.131803
v 0.323978 1.31108 0.182074
v 0.306255 1.27216 0.221439
v 0.267923 1.29749 0.174882
v 0.253689 1.25599 0.209976
v 0.452637 1.22226 0.22629
v 0.398894 1.23263 0.245857
v 0.430828 1.17799 0.253125
v 0.333114 1.23124 0.252785
v 0.276956 1.21854 0.244793
v 0.305707 1.17534 0.266303
v 0.369259 1.1784 0.269477
v 0.40279 1.13104 0.266021
v 0.337754 1.12967 0.27287
v 0.370657 1.08501 0.263995
v 0.484387 1.17414 0.218848
v 0.454752 1.11991 0.242468
v 0.42228 1.07185 0.246167
v 0.468325 1.0641 0.214929
v 0.5041 1.11427 0.198767
v 0.505286 1.06235 0.172658
v 0.527789 1.04551 0.0706232
v 0.527789 1.04885 0.0306232
v 0.511618 1.03504 -0.0213742
v 0.540928 1.09005 -0.00821862
v 0.548493 1.1089 0.0462439
v 0.540928 1.08671 0.0317813
v 0.483068 1.02969 -0.0694609
v 0.51434 1.07866 -0.0677197
v 0.444312 1.03323 -0.109976
v 0.477485 1.07848 -0.112668
v 0.500878 1.1289 -0.1045
v 0.535281 1.1394 -0.0519202
v 0.512709 1.18064 -0.0860926
v 0.476973 1.23288 -0.102596
v 0.472549 1.18085 -0.128114
v 0.432126 1.22941 -0.136251
v 0.451608 1.12011 -0.143913
v 0.421045 1.07068 -0.144793
v 0.392293 1.11388 -0.166303
v 0.415462 1.17295 -0.160606
v 0.380951 1.2196 -0.15725
v 0.360246 1.15955 -0.17287
v 0.327343 1.20421 -0.163994
v 0.440652 1.27773 -0.0956218
v 0.383566 1.26983 -0.128114
v 0.328711 1.25534 -0.140746
v 0.331622 1.29816 -0.1045
v 0.387814 1.31387 -0.0789293
v 0.335857 1.32942 -0.0580148
v 0.287067 1.335 -0.0148076
v 0.28138 1.31162 -0.0677197
v 0.237757 1.3089 -0.0213742
v 0.277131 1.26758 -0.116904
v 0.27572 1.21737 -0.146167
v 0.229675 1.22512 -0.114929
v 0.227783 1.27322 -0.0732026
v 0.196915 1.27042 -0.0240301
v 0.192714 1.22687 -0.0726582
v 0.16765 1.22248 -0.022573
v 0.258619 1.32865 0.035483
v 0.258619 1.32531 0.075483
v 0.205023 1.29026 0.0300001
v 0.170211 1.24371 0.029377
v 0.205023 1.28692 0.0700001
v 0.170211 1.24037 0.069377
v 0.186382 1.25418 0.121374
v 0.23161 1.2983 0.129501
v 0.214933 1.25953 0.169461
v 0.220515 1.21074 0.212668
v 0.18366 1.21056 0.16772
v 0.197122 1.16032 0.2045
v 0.157073 1.19917 0.108219
v 0.149507 1.18366 0.0137563
v 0.149507 1.18032 0.0537562
v 0.14655 1.13866 0.091322
v 0.157073 1.20251 0.0682188
v 0.162719 1.14982 0.15192
v 0.185291 1.10858 0.186093
v 0.159004 1.09732 0.127265
v 0.185922 1.05945 0.158848
v 0.246393 1.16911 0.243913
v 0.225452 1.10837 0.228114
v 0.221028 1.05634 0.202596
v 0.265875 1.05981 0.236251
v 0.282538 1.11627 0.260606
v 0.31705 1.06962 0.25725
v 0.36929 1.03388 0.240746
v 0.314435 1.01939 0.228114
v 0.366378 0.991062 0.2045
v 0.257348 1.01149 0.195622
v 0.216827 1.01279 0.153968
v 0.257794 0.97604 0.142696
v 0.310186 0.975348 0.178929
v 0.362144 0.959802 0.158015
v 0.305703 0.951993 0.125891
v 0.356909 0.942482 0.10483
v 0.420869 1.02164 0.216904
v 0.41662 0.9776 0.16772
v 0.410933 0.954219 0.114808
v 0.460244 0.980322 0.121374
v 0.470217 1.016 0.173203
v 0.501086 1.0188 0.12403
v 0.492978 0.998962 0.07
v 0.492978 1.0023 0.0300001
v 0.439381 0.960566 0.0645171
v 0.384647 0.94296 0.0559797
v 0.439381 0.963906 0.0245172
v 0.384647 0.946301 0.0159798
v 0.409671 0.962002 -0.0318033
v 0.46639 0.990915 -0.029501
v 0.430077 0.991731 -0.0748818
v 0.231443 1.02872 -0.087557
v 0.245363 1.06696 -0.12629
v 0.281099 1.01472 -0.109786
v 0.267172 1.11123 -0.153125
v 0.299106 1.05659 -0.145857
v 0.335925 1.01073 -0.121374
v 0.29521 1.15818 -0.166021
v 0.328741 1.11082 -0.169477
v 0.364886 1.05798 -0.152785
v 0.391745 1.01706 -0.121439
v 0.196573 1.07254 -0.0830825
v 0.173307 1.12197 -0.0699999
v 0.213613 1.11508 -0.118848
v 0.163415 1.17326 -0.0493049
v 0.1939 1.17495 -0.0987666
v 0.243248 1.16931 -0.142468
v 0.202156 1.02375 -0.0398753
v 0.184047 1.02811 0.0131255
v 0.169912 1.07137 -0.0314445
v 0.184047 1.02477 0.0531254
v 0.178495 1.03812 0.107411
v 0.155845 1.07856 0.0723382
v 0.150198 1.13125 -0.0113634
v 0.14655 1.142 0.0513221
v 0.155845 1.0819 0.0323382
v 0.254396 0.988016 -0.056379
v 0.28455 0.959356 -0.0186256
v 0.228396 0.985881 -0.00443548
v 0.28455 0.956015 0.0213743
v 0.319611 0.941585 0.0628293
v 0.267167 0.956923 0.0826547
v 0.214329 0.993069 0.0993472
v 0.267167 0.960264 0.0426547
v 0.228396 0.982541 0.0355645
v 0.308243 0.976745 -0.0751462
v 0.374023 0.978137 -0.0820741
v 0.347014 0.951127 -0.028056
v 0.319611 0.944925 0.0228293
f 1 2 3
f 2 4 5
f 3 5 6
f 2 5 3
f 4 7 8
f 7 9 10
f 8 10 11
f 7 10 8
f 12 13 14
f 13 15 16
f 14 16 17
f 13 16 14
f 4 8 5
f 8 11 18
f 5 18 6
f 8 18 5
f 1 3 19
f 3 6 20
f 19 20 21
f 3 20 19
f 12 14 22
f 14 17 23
f 22 23 24
f 14 23 22
f 25 26 27
f 26 24 28
f 27 28 29
f 26 28 27
f 12 22 30
f 22 24 26
f 20 31 21
f 22 26 30
f 1 19 32
f 19 21 33
f 32 33 34
f 19 33 32
f 21 35 36
f 27 29 37
f 36 38 39
f 35 38 36
f 34 40 41
f 40 39 42
f 41 42 43
f 40 42 41
f 21 36 33
f 36 39 40
f 33 40 34
f 36 40 33
f 1 32 44
f 32 34 45
f 44 45 46
f 32 45 44
f 34 41 47
f 41 43 48
f 47 48 49
f 41 48 47
f 46 50 51
f 50 49 52
f 51 52 53
f 50 52 51
f 34 47 45
f 47 49 50
f 45 50 46
f 47 50 45
f 1 44 2
f 44 46 54
f 2 54 4
f 44 54 2
f 46 51 55
f 51 53 56
f 55 56 57
f 51 56 55
f 4 58 7
f 58 57 59
f 7 59 9
f 58 59 7
f 46 55 54
f 55 57 58
f 54 58 4
f 55 58 54
f 9 60 10
f 61 62 63
f 64 63 15
f 60 65 10
f 62 66 67
f 66 68 69
f 67 69 70
f 66 69 67
f 15 71 16
f 71 70 72
f 16 72 17
f 71 72 16
f 62 67 63
f 67 70 71
f 63 71 15
f 67 71 63
f 17 72 73
f 72 70 74
f 73 74 75
f 72 74 73
f 70 69 76
f 69 68 77
f 76 77 78
f 69 77 76
f 75 79 80
f 79 78 81
f 80 81 82
f 79 81 80
f 70 76 74
f 76 78 79
f 74 79 75
f 76 79 74
f 17 73 23
f 73 75 83
f 23 83 24
f 73 83 23
f 75 80 84
f 80 82 85
f 84 85 86
f 80 85 84
f 24 87 28
f 87 86 88
f 28 88 29
f 87 88 28
f 75 84 83
f 84 86 87
f 83 87 24
f 84 87 83
f 29 88 89
f 88 86 90
f 89 90 91
f 88 90 89
f 86 85 92
f 85 82 93
f 92 93 94
f 85 93 92
f 91 95 96
f 95 94 97
f 96 97 98
f 95 97 96
f 86 92 90
f 92 94 95
f 90 95 91
f 92 95 90
f 29 89 37
f 89 91 99
f 38 100 39
f 89 99 37
f 91 96 101
f 96 98 102
f 103 104 105
f 96 102 101
f 39 106 42
f 106 105 107
f 42 107 43
f 106 107 42
f 91 101 99
f 103 105 106
f 100 106 39
f 103 106 100
f 43 107 108
f 107 105 109
f 108 109 110
f 107 109 108
f 105 104 111
f 102 98 112
f 111 113 114
f 102 112 115
f 110 116 117
f 116 114 118
f 117 118 119
f 116 118 117
f 105 111 109
f 111 114 116
f 109 116 110
f 111 116 109
f 43 108 48
f 108 110 120
f 48 120 49
f 108 120 48
f 110 117 121
f 117 119 122
f 121 122 123
f 117 122 121
f 49 124 52
f 124 123 125
f 52 125 53
f 124 125 52
f 110 121 120
f 121 123 124
f 120 124 49
f 121 124 120
f 53 125 126
f 125 123 127
f 126 127 128
f 125 127 126
f 123 122 129
f 122 119 130
f 129 130 131
f 122 130 129
f 128 132 133
f 132 131 134
f 133 134 135
f 132 134 133
f 123 129 127
f 129 131 132
f 127 132 128
f 129 132 127
f 53 126 56
f 126 128 136
f 56 136 57
f 126 136 56
f 128 133 137
f 133 135 138
f 137 138 139
f 133 138 137
f 57 140 59
f 140 139 141
f 59 141 9
f 140 141 59
f 128 137 136
f 137 139 140
f 136 140 57
f 137 140 136
f 9 141 60
f 141 139 142
f 61 143 62
f 141 142 60
f 139 138 144
f 138 135 145
f 146 147 148
f 138 145 144
f 62 149 66
f 149 148 150
f 66 150 68
f 149 150 66
f 139 144 142
f 146 148 149
f 143 149 62
f 146 149 143
f 151 152 153
f 152 154 155
f 153 155 156
f 152 155 153
f 154 157 158
f 157 82 81
f 158 81 78
f 157 81 158
f 156 159 160
f 159 78 77
f 160 77 68
f 159 77 160
f 154 158 155
f 158 78 159
f 155 159 156
f 158 159 155
f 151 161 152
f 161 162 163
f 152 163 154
f 161 163 152
f 162 164 165
f 164 98 97
f 165 97 94
f 164 97 165
f 154 166 157
f 166 94 93
f 157 93 82
f 166 93 157
f 162 165 163
f 165 94 166
f 163 166 154
f 165 166 163
f 151 167 161
f 167 168 169
f 161 169 162
f 167 169 161
f 170 171 172
f 171 119 118
f 172 118 114
f 171 118 172
f 162 173 164
f 173 174 112
f 164 112 98
f 173 112 164
f 168 175 169
f 175 174 173
f 169 173 162
f 175 173 169
f 151 176 167
f 176 177 178
f 167 178 168
f 176 178 167
f 179 180 181
f 180 135 134
f 181 134 131
f 180 134 181
f 170 182 171
f 182 131 130
f 171 130 119
f 182 130 171
f 177 183 178
f 181 131 182
f 184 182 170
f 181 182 184
f 151 153 176
f 153 156 185
f 176 185 177
f 153 185 176
f 156 160 186
f 160 68 150
f 186 150 148
f 160 150 186
f 177 187 188
f 187 148 147
f 180 145 135
f 187 147 188
f 156 186 185
f 186 148 187
f 185 187 177
f 186 187 185
f 10 64 11
f 11 64 15
f 11 15 18
f 18 15 13
f 18 13 6
f 6 13 12
f 6 12 20
f 20 12 30
f 20 30 31
f 31 30 26
f 31 26 21
f 21 26 25
f 21 25 35
f 35 25 27
f 35 27 38
f 38 27 37
f 60 61 65
f 65 61 63
f 65 63 10
f 10 63 64
f 38 37 100
f 100 37 99
f 103 101 104
f 104 101 102
f 100 99 103
f 103 99 101
f 104 102 111
f 111 102 115
f 111 115 113
f 113 115 112
f 113 112 114
f 114 112 174
f 142 143 60
f 60 143 61
f 145 147 144
f 144 147 146
f 144 146 142
f 142 146 143
f 172 175 170
f 170 175 168
f 114 174 172
f 172 174 175
f 179 177 180
f 180 177 188
f 181 183 179
f 179 183 177
f 170 168 184
f 184 168 178
f 184 178 181
f 181 178 183
f 180 188 145
f 145 188 147
