v 0.466557 1.26384 0.147557
v 0.501427 1.22002 0.143083
v 0.495844 1.26881 0.0998755
v 0.524694 1.17059 0.13
v 0.528089 1.22119 0.0914447
v 0.513953 1.26445 0.0468747
v 0.534586 1.1193 0.109305
v 0.547802 1.16131 0.0713636
v 0.530351 1.07008 0.0825732
v 0.548493 1.1089 0.0462439
v 0.55145 1.15056 0.0086781
v 0.513953 1.25986 -0.153125
v 0.542156 1.20606 -0.172338
v 0.519506 1.2465 -0.207411
v 0.55145 1.14597 -0.191322
v 0.538996 1.18731 -0.227265
v 0.512078 1.22517 -0.258848
v 0.542156 1.21066 0.027662
v 0.443604 1.30454 0.116379
v 0.469605 1.30668 0.0644356
v 0.41345 1.3332 0.0786258
v 0.483671 1.29156 -0.199347
v 0.481173 1.27183 -0.253968
v 0.440207 1.30858 -0.242696
v 0.430834 1.3323 0.0173454
v 0.37839 1.34764 0.0371708
v 0.430834 1.3277 -0.182655
v 0.392297 1.33263 -0.22589
v 0.37839 1.34304 -0.162829
v 0.341092 1.34214 -0.20483
v 0.483671 1.29615 0.000652889
v 0.416901 1.27784 0.169786
v 0.389758 1.31581 0.135146
v 0.362076 1.28183 0.181374
v 0.350987 1.34143 0.0880561
v 0.341092 1.34674 -0.00482999
v 0.313354 1.34626 0.0440204
v 0.288329 1.33056 0.0918035
v 0.323978 1.31442 0.142074
v 0.306255 1.2755 0.181439
v 0.267923 1.30083 0.134882
v 0.253689 1.25933 0.169976
v 0.452637 1.2256 0.18629
v 0.398894 1.23597 0.205857
v 0.430828 1.18133 0.213125
v 0.333114 1.23458 0.212785
v 0.276956 1.22189 0.204793
v 0.305707 1.17868 0.226303
v 0.369259 1.18174 0.229477
v 0.40279 1.13438 0.226021
v 0.337754 1.13301 0.23287
v 0.370657 1.08835 0.223995
v 0.484387 1.17748 0.178848
v 0.454752 1.12325 0.202468
v 0.42228 1.07519 0.206167
v 0.468325 1.06744 0.174929
v 0.5041 1.11761 0.158767
v 0.505286 1.06569 0.132658
v 0.527789 1.04885 0.0306232
v 0.527789 1.04425 -0.169377
v 0.511618 1.03044 -0.221374
v 0.540928 1.08545 -0.208219
v 0.548493 1.1043 -0.153756
v 0.483068 1.0251 -0.269461
v 0.51434 1.07406 -0.26772
v 0.444312 1.02863 -0.309976
v 0.477485 1.07389 -0.312668
v 0.500878 1.12431 -0.3045
v 0.535281 1.1348 -0.25192
v 0.512709 1.17605 -0.286093
v 0.476973 1.22829 -0.302596
v 0.472549 1.17625 -0.328114
v 0.432126 1.22481 -0.336251
v 0.451608 1.11551 -0.343913
v 0.421045 1.06608 -0.344793
v 0.392293 1.10928 -0.366303
v 0.415462 1.16835 -0.360606
v 0.380951 1.215 -0.35725
v 0.360246 1.15495 -0.37287
v 0.327343 1.19962 -0.363994
v 0.440652 1.27313 -0.295622
v 0.383566 1.26523 -0.328114
v 0.328711 1.25074 -0.340746
v 0.331622 1.29356 -0.3045
v 0.387814 1.30928 -0.278929
v 0.335857 1.32482 -0.258015
v 0.287067 1.3304 -0.214808
v 0.28138 1.30702 -0.26772
v 0.237757 1.3043 -0.221374
v 0.277131 1.26298 -0.316904
v 0.27572 1.21278 -0.346167
v 0.229675 1.22053 -0.314929
v 0.227783 1.26863 -0.273203
v 0.196915 1.26582 -0.22403
v 0.192714 1.22228 -0.272658
v 0.16765 1.21789 -0.222573
v 0.313354 1.34166 -0.15598
v 0.258619 1.32406 -0.164517
v 0.258619 1.32865 0.035483
v 0.205023 1.28566 -0.17
v 0.170211 1.23912 -0.170623
v 0.205023 1.29026 0.0300001
v 0.170211 1.24371 0.029377
v 0.186382 1.25752 0.0813744
v 0.23161 1.30164 0.0895012
v 0.214933 1.26287 0.129461
v 0.220515 1.21408 0.172668
v 0.18366 1.2139 0.12772
v 0.197122 1.16366 0.1645
v 0.157073 1.20251 0.0682188
v 0.149507 1.17907 -0.186244
v 0.149507 1.18366 0.0137563
v 0.14655 1.142 0.0513221
v 0.162719 1.15316 0.11192
v 0.185291 1.11192 0.146093
v 0.159004 1.10066 0.0872648
v 0.185922 1.06279 0.118848
v 0.246393 1.17245 0.203913
v 0.225452 1.11171 0.188114
v 0.221028 1.05968 0.162596
v 0.265875 1.06315 0.196251
v 0.282538 1.11961 0.220606
v 0.31705 1.07296 0.21725
v 0.36929 1.03722 0.200746
v 0.314435 1.02273 0.188114
v 0.366378 0.994402 0.1645
v 0.257348 1.01483 0.155622
v 0.216827 1.01613 0.113968
v 0.257794 0.97938 0.102696
v 0.310186 0.978689 0.138929
v 0.362144 0.963142 0.118015
v 0.305703 0.955333 0.0858905
v 0.356909 0.945822 0.0648301
v 0.420869 1.02498 0.176904
v 0.41662 0.98094 0.12772
v 0.410933 0.957559 0.0748077
v 0.460244 0.983662 0.0813744
v 0.470217 1.01934 0.133203
v 0.501086 1.02214 0.0840303
v 0.492978 1.0023 0.0300001
v 0.492978 0.997707 -0.17
v 0.439381 0.963906 0.0245172
v 0.384647 0.946301 0.0159798
v 0.439381 0.95931 -0.175483
v 0.384647 0.941705 -0.18402
v 0.409671 0.957406 -0.231803
v 0.46639 0.986319 -0.229501
v 0.430077 0.987135 -0.274882
v 0.231443 1.02413 -0.287557
v 0.245363 1.06236 -0.32629
v 0.281099 1.01012 -0.309786
v 0.267172 1.10664 -0.353125
v 0.299106 1.052 -0.345857
v 0.335925 1.00613 -0.321374
v 0.29521 1.15358 -0.366021
v 0.328741 1.10622 -0.369477
v 0.364886 1.05339 -0.352785
v 0.391745 1.01246 -0.321439
v 0.196573 1.06795 -0.283083
v 0.173307 1.11738 -0.27
v 0.213613 1.11048 -0.318848
v 0.163415 1.16866 -0.249305
v 0.1939 1.17036 -0.298767
v 0.243248 1.16471 -0.342468
v 0.202156 1.01916 -0.239875
v 0.184047 1.02351 -0.186875
v 0.169912 1.06678 -0.231445
v 0.184047 1.02811 0.0131255
v 0.178495 1.04146 0.0674108
v 0.155845 1.0819 0.0323382
v 0.150198 1.12665 -0.211363
v 0.14655 1.1374 -0.148678
v 0.155845 1.07731 -0.167662
v 0.254396 0.983419 -0.256379
v 0.28455 0.954759 -0.218626
v 0.228396 0.981285 -0.204436
v 0.319611 0.940329 -0.177171
v 0.267167 0.955667 -0.157345
v 0.319611 0.944925 0.0228293
v 0.267167 0.960264 0.0426547
v 0.214329 0.996409 0.0593473
v 0.214329 0.991813 -0.140653
v 0.308243 0.972149 -0.275146
v 0.374023 0.97354 -0.282074
v 0.347014 0.946531 -0.228056
v 0.356909 0.941226 -0.13517
f 1 2 3
f 2 4 5
f 3 5 6
f 2 5 3
f 4 7 8
f 7 9 10
f 8 10 11
f 7 10 8
f 12 13 14
f 13 15 16
f 14 16 17
f 13 16 14
f 4 8 5
f 8 11 18
f 5 18 6
f 8 18 5
f 1 3 19
f 3 6 20
f 19 20 21
f 3 20 19
f 12 14 22
f 14 17 23
f 22 23 24
f 14 23 22
f 21 25 26
f 27 24 28
f 29 28 30
f 27 28 29
f 6 31 20
f 22 24 27
f 20 25 21
f 31 25 20
f 1 19 32
f 19 21 33
f 32 33 34
f 19 33 32
f 21 26 35
f 26 36 37
f 35 37 38
f 26 37 35
f 34 39 40
f 39 38 41
f 40 41 42
f 39 41 40
f 21 35 33
f 35 38 39
f 33 39 34
f 35 39 33
f 1 32 43
f 32 34 44
f 43 44 45
f 32 44 43
f 34 40 46
f 40 42 47
f 46 47 48
f 40 47 46
f 45 49 50
f 49 48 51
f 50 51 52
f 49 51 50
f 34 46 44
f 46 48 49
f 44 49 45
f 46 49 44
f 1 43 2
f 43 45 53
f 2 53 4
f 43 53 2
f 45 50 54
f 50 52 55
f 54 55 56
f 50 55 54
f 4 57 7
f 57 56 58
f 7 58 9
f 57 58 7
f 45 54 53
f 54 56 57
f 53 57 4
f 54 57 53
f 9 59 10
f 60 61 62
f 63 62 15
f 60 62 63
f 61 64 65
f 64 66 67
f 65 67 68
f 64 67 65
f 15 69 16
f 69 68 70
f 16 70 17
f 69 70 16
f 61 65 62
f 65 68 69
f 62 69 15
f 65 69 62
f 17 70 71
f 70 68 72
f 71 72 73
f 70 72 71
f 68 67 74
f 67 66 75
f 74 75 76
f 67 75 74
f 73 77 78
f 77 76 79
f 78 79 80
f 77 79 78
f 68 74 72
f 74 76 77
f 72 77 73
f 74 77 72
f 17 71 23
f 71 73 81
f 23 81 24
f 71 81 23
f 73 78 82
f 78 80 83
f 82 83 84
f 78 83 82
f 24 85 28
f 85 84 86
f 28 86 30
f 85 86 28
f 73 82 81
f 82 84 85
f 81 85 24
f 82 85 81
f 30 86 87
f 86 84 88
f 87 88 89
f 86 88 87
f 84 83 90
f 83 80 91
f 90 91 92
f 83 91 90
f 89 93 94
f 93 92 95
f 94 95 96
f 93 95 94
f 84 90 88
f 90 92 93
f 88 93 89
f 90 93 88
f 30 87 97
f 87 89 98
f 37 99 38
f 87 98 97
f 89 94 100
f 94 96 101
f 102 103 104
f 94 101 100
f 38 105 41
f 105 104 106
f 41 106 42
f 105 106 41
f 89 100 98
f 102 104 105
f 99 105 38
f 102 105 99
f 42 106 107
f 106 104 108
f 107 108 109
f 106 108 107
f 104 103 110
f 101 96 111
f 110 112 113
f 103 112 110
f 109 114 115
f 114 113 116
f 115 116 117
f 114 116 115
f 104 110 108
f 110 113 114
f 108 114 109
f 110 114 108
f 42 107 47
f 107 109 118
f 47 118 48
f 107 118 47
f 109 115 119
f 115 117 120
f 119 120 121
f 115 120 119
f 48 122 51
f 122 121 123
f 51 123 52
f 122 123 51
f 109 119 118
f 119 121 122
f 118 122 48
f 119 122 118
f 52 123 124
f 123 121 125
f 124 125 126
f 123 125 124
f 121 120 127
f 120 117 128
f 127 128 129
f 120 128 127
f 126 130 131
f 130 129 132
f 131 132 133
f 130 132 131
f 121 127 125
f 127 129 130
f 125 130 126
f 127 130 125
f 52 124 55
f 124 126 134
f 55 134 56
f 124 134 55
f 126 131 135
f 131 133 136
f 135 136 137
f 131 136 135
f 56 138 58
f 138 137 139
f 58 139 9
f 138 139 58
f 126 135 134
f 135 137 138
f 134 138 56
f 135 138 134
f 9 139 59
f 139 137 140
f 60 141 61
f 139 140 59
f 137 136 142
f 136 133 143
f 144 145 146
f 136 143 142
f 61 147 64
f 147 146 148
f 64 148 66
f 147 148 64
f 137 142 140
f 144 146 147
f 141 147 61
f 144 147 141
f 149 150 151
f 150 152 153
f 151 153 154
f 150 153 151
f 152 155 156
f 155 80 79
f 156 79 76
f 155 79 156
f 154 157 158
f 157 76 75
f 158 75 66
f 157 75 158
f 152 156 153
f 156 76 157
f 153 157 154
f 156 157 153
f 149 159 150
f 159 160 161
f 150 161 152
f 159 161 150
f 160 162 163
f 162 96 95
f 163 95 92
f 162 95 163
f 152 164 155
f 164 92 91
f 155 91 80
f 164 91 155
f 160 163 161
f 163 92 164
f 161 164 152
f 163 164 161
f 149 165 159
f 165 166 167
f 159 167 160
f 165 167 159
f 168 169 170
f 169 117 116
f 170 116 113
f 169 116 170
f 160 171 162
f 171 172 111
f 162 111 96
f 171 111 162
f 166 173 167
f 173 172 171
f 167 171 160
f 173 171 167
f 149 174 165
f 174 175 176
f 165 176 166
f 174 176 165
f 175 177 178
f 179 133 132
f 180 132 129
f 179 132 180
f 168 181 169
f 181 129 128
f 169 128 117
f 181 128 169
f 175 178 176
f 180 129 181
f 176 182 166
f 178 182 176
f 149 151 174
f 151 154 183
f 174 183 175
f 151 183 174
f 154 158 184
f 158 66 148
f 184 148 146
f 158 148 184
f 175 185 177
f 185 146 145
f 177 145 186
f 185 145 177
f 154 184 183
f 184 146 185
f 183 185 175
f 184 185 183
f 10 63 11
f 11 63 15
f 11 15 18
f 18 15 13
f 18 13 6
f 6 13 12
f 25 27 26
f 26 27 29
f 6 12 31
f 31 12 22
f 31 22 25
f 25 22 27
f 26 29 36
f 36 29 30
f 36 30 37
f 37 30 97
f 59 60 10
f 10 60 63
f 37 97 99
f 99 97 98
f 102 100 103
f 103 100 101
f 99 98 102
f 102 98 100
f 112 111 113
f 113 111 172
f 103 101 112
f 112 101 111
f 140 141 59
f 59 141 60
f 133 186 143
f 143 186 145
f 143 145 142
f 142 145 144
f 142 144 140
f 140 144 141
f 170 173 168
f 168 173 166
f 113 172 170
f 170 172 173
f 179 177 133
f 133 177 186
f 180 178 179
f 179 178 177
f 168 166 181
f 181 166 182
f 181 182 180
f 180 182 178
