v 0.466557 1.25924 -0.0524429
v 0.501427 1.21542 -0.0569173
v 0.495844 1.26421 -0.100125
v 0.524694 1.16599 -0.0699999
v 0.528089 1.21659 -0.108555
v 0.513953 1.25986 -0.153125
v 0.534586 1.11471 -0.0906949
v 0.547802 1.15671 -0.128636
v 0.530351 1.06548 -0.117427
v 0.548493 1.1043 -0.153756
v 0.55145 1.14597 -0.191322
v 0.542156 1.20606 -0.172338
v 0.519506 1.2465 -0.207411
v 0.542156 1.1857 -0.332338
v 0.55145 1.12561 -0.351322
v 0.538996 1.16695 -0.387265
v 0.519506 1.22614 -0.367411
v 0.512078 1.20481 -0.418848
v 0.443604 1.29995 -0.0836209
v 0.469605 1.30208 -0.135564
v 0.41345 1.32861 -0.121374
v 0.483671 1.29156 -0.199347
v 0.481173 1.25147 -0.413968
v 0.483671 1.27119 -0.359347
v 0.440207 1.28822 -0.402696
v 0.430834 1.3277 -0.182655
v 0.37839 1.34304 -0.162829
v 0.430834 1.30734 -0.342655
v 0.392297 1.31227 -0.38589
v 0.37839 1.32268 -0.322829
v 0.341092 1.32178 -0.36483
v 0.392297 1.33263 -0.22589
v 0.416901 1.27324 -0.0302138
v 0.389758 1.31122 -0.0648537
v 0.362076 1.27723 -0.0186256
v 0.350987 1.33684 -0.111944
v 0.341092 1.34214 -0.20483
v 0.313354 1.34166 -0.15598
v 0.288329 1.32596 -0.108197
v 0.323978 1.30983 -0.0579258
v 0.306255 1.2709 -0.0185606
v 0.267923 1.29623 -0.0651181
v 0.253689 1.25474 -0.0300236
v 0.452637 1.221 -0.0137101
v 0.398894 1.23137 0.00585698
v 0.430828 1.17673 0.0131254
v 0.333114 1.22998 0.0127849
v 0.276956 1.21729 0.00479268
v 0.305707 1.17408 0.0263032
v 0.369259 1.17714 0.0294774
v 0.40279 1.12979 0.0260209
v 0.337754 1.12841 0.0328704
v 0.370657 1.08375 0.0239945
v 0.484387 1.17289 -0.0211521
v 0.454752 1.11866 0.00246835
v 0.42228 1.07059 0.00616688
v 0.468325 1.06284 -0.0250712
v 0.5041 1.11301 -0.0412333
v 0.505286 1.06109 -0.0673417
v 0.527789 1.04425 -0.169377
v 0.527789 1.02389 -0.329377
v 0.511618 1.01008 -0.381374
v 0.540928 1.06509 -0.368219
v 0.548493 1.08394 -0.313756
v 0.483068 1.00474 -0.429461
v 0.51434 1.0537 -0.42772
v 0.444312 1.00827 -0.469976
v 0.477485 1.05353 -0.472668
v 0.500878 1.10395 -0.4645
v 0.535281 1.11444 -0.41192
v 0.512709 1.15569 -0.446093
v 0.476973 1.20793 -0.462596
v 0.472549 1.15589 -0.488114
v 0.432126 1.20445 -0.496251
v 0.451608 1.09515 -0.503913
v 0.421045 1.04572 -0.504793
v 0.392293 1.08892 -0.526303
v 0.415462 1.14799 -0.520606
v 0.380951 1.19464 -0.51725
v 0.360246 1.13459 -0.53287
v 0.327343 1.17926 -0.523994
v 0.440652 1.25277 -0.455622
v 0.383566 1.24487 -0.488114
v 0.328711 1.23038 -0.500746
v 0.331622 1.2732 -0.4645
v 0.387814 1.28891 -0.438929
v 0.335857 1.30446 -0.418015
v 0.287067 1.31004 -0.374808
v 0.28138 1.28666 -0.42772
v 0.237757 1.28394 -0.381374
v 0.277131 1.24262 -0.476904
v 0.27572 1.19242 -0.506167
v 0.229675 1.20017 -0.474929
v 0.227783 1.24827 -0.433203
v 0.196915 1.24546 -0.38403
v 0.192714 1.20191 -0.432658
v 0.16765 1.19753 -0.382573
v 0.287067 1.3304 -0.214808
v 0.258619 1.3037 -0.324517
v 0.258619 1.32406 -0.164517
v 0.205023 1.2653 -0.33
v 0.170211 1.21876 -0.330623
v 0.205023 1.28566 -0.17
v 0.170211 1.23912 -0.170623
v 0.186382 1.25293 -0.118626
v 0.23161 1.29705 -0.110499
v 0.214933 1.25827 -0.070539
v 0.237757 1.3043 -0.221374
v 0.220515 1.20948 -0.0273317
v 0.18366 1.2093 -0.0722802
v 0.197122 1.15906 -0.0355002
v 0.157073 1.19792 -0.131781
v 0.149507 1.15871 -0.346244
v 0.149507 1.17907 -0.186244
v 0.14655 1.1374 -0.148678
v 0.162719 1.14857 -0.0880796
v 0.185291 1.10732 -0.0539073
v 0.159004 1.09606 -0.112735
v 0.185922 1.05819 -0.0811517
v 0.246393 1.16785 0.0039134
v 0.225452 1.10712 -0.011886
v 0.221028 1.05508 -0.0374036
v 0.265875 1.05856 -0.00374918
v 0.282538 1.11502 0.0206059
v 0.31705 1.06836 0.0172497
v 0.36929 1.03263 0.000745997
v 0.314435 1.01814 -0.0118861
v 0.366378 0.989806 -0.0355003
v 0.257348 1.01024 -0.044378
v 0.216827 1.01154 -0.0860317
v 0.257794 0.974784 -0.0973037
v 0.310186 0.974093 -0.0610706
v 0.362144 0.958546 -0.0819851
v 0.305703 0.950737 -0.11411
v 0.356909 0.941226 -0.13517
v 0.420869 1.02039 -0.0230957
v 0.41662 0.976344 -0.0722802
v 0.410933 0.952963 -0.125192
v 0.460244 0.979066 -0.118626
v 0.470217 1.01474 -0.0667973
v 0.501086 1.01755 -0.11597
v 0.492978 0.997707 -0.17
v 0.492978 0.977346 -0.33
v 0.439381 0.95931 -0.175483
v 0.410933 0.932602 -0.285192
v 0.356909 0.920865 -0.29517
v 0.384647 0.921344 -0.34402
v 0.439381 0.938949 -0.335483
v 0.409671 0.937045 -0.391803
v 0.46639 0.965958 -0.389501
v 0.430077 0.966775 -0.434882
v 0.460244 0.958705 -0.278626
v 0.231443 1.00377 -0.447557
v 0.245363 1.042 -0.48629
v 0.281099 0.989762 -0.469786
v 0.267172 1.08628 -0.513125
v 0.299106 1.03164 -0.505857
v 0.335925 0.985773 -0.481374
v 0.29521 1.13322 -0.526021
v 0.328741 1.08586 -0.529477
v 0.364886 1.03303 -0.512785
v 0.391745 0.992102 -0.481439
v 0.196573 1.04758 -0.443083
v 0.173307 1.09702 -0.43
v 0.213613 1.09012 -0.478848
v 0.163415 1.1483 -0.409305
v 0.1939 1.14999 -0.458767
v 0.243248 1.14435 -0.502468
v 0.202156 0.998795 -0.399875
v 0.184047 1.00315 -0.346875
v 0.169912 1.04642 -0.391445
v 0.178495 1.0165 -0.292589
v 0.155845 1.05695 -0.327662
v 0.178495 1.03686 -0.132589
v 0.155845 1.07731 -0.167662
v 0.150198 1.10629 -0.371363
v 0.14655 1.11704 -0.308678
v 0.254396 0.963059 -0.416379
v 0.28455 0.934399 -0.378626
v 0.228396 0.960924 -0.364436
v 0.319611 0.919968 -0.337171
v 0.267167 0.935307 -0.317345
v 0.319611 0.940329 -0.177171
v 0.267167 0.955667 -0.157345
v 0.305703 0.930376 -0.27411
v 0.214329 0.971452 -0.300653
v 0.214329 0.991813 -0.140653
v 0.308243 0.951788 -0.435146
v 0.374023 0.95318 -0.442074
v 0.347014 0.92617 -0.388056
f 1 2 3
f 2 4 5
f 3 5 6
f 2 5 3
f 4 7 8
f 7 9 10
f 8 10 11
f 7 10 8
f 6 12 13
f 14 15 16
f 17 16 18
f 14 16 17
f 4 8 5
f 8 11 12
f 5 12 6
f 8 12 5
f 1 3 19
f 3 6 20
f 19 20 21
f 3 20 19
f 6 13 22
f 17 18 23
f 24 23 25
f 17 23 24
f 21 26 27
f 28 25 29
f 30 29 31
f 26 32 27
f 6 22 20
f 24 25 28
f 20 26 21
f 22 26 20
f 1 19 33
f 19 21 34
f 33 34 35
f 19 34 33
f 21 27 36
f 27 37 38
f 36 38 39
f 27 38 36
f 35 40 41
f 40 39 42
f 41 42 43
f 40 42 41
f 21 36 34
f 36 39 40
f 34 40 35
f 36 40 34
f 1 33 44
f 33 35 45
f 44 45 46
f 33 45 44
f 35 41 47
f 41 43 48
f 47 48 49
f 41 48 47
f 46 50 51
f 50 49 52
f 51 52 53
f 50 52 51
f 35 47 45
f 47 49 50
f 45 50 46
f 47 50 45
f 1 44 2
f 44 46 54
f 2 54 4
f 44 54 2
f 46 51 55
f 51 53 56
f 55 56 57
f 51 56 55
f 4 58 7
f 58 57 59
f 7 59 9
f 58 59 7
f 46 55 54
f 55 57 58
f 54 58 4
f 55 58 54
f 9 60 10
f 61 62 63
f 64 63 15
f 61 63 64
f 62 65 66
f 65 67 68
f 66 68 69
f 65 68 66
f 15 70 16
f 70 69 71
f 16 71 18
f 70 71 16
f 62 66 63
f 66 69 70
f 63 70 15
f 66 70 63
f 18 71 72
f 71 69 73
f 72 73 74
f 71 73 72
f 69 68 75
f 68 67 76
f 75 76 77
f 68 76 75
f 74 78 79
f 78 77 80
f 79 80 81
f 78 80 79
f 69 75 73
f 75 77 78
f 73 78 74
f 75 78 73
f 18 72 23
f 72 74 82
f 23 82 25
f 72 82 23
f 74 79 83
f 79 81 84
f 83 84 85
f 79 84 83
f 25 86 29
f 86 85 87
f 29 87 31
f 86 87 29
f 74 83 82
f 83 85 86
f 82 86 25
f 83 86 82
f 31 87 88
f 87 85 89
f 88 89 90
f 87 89 88
f 85 84 91
f 84 81 92
f 91 92 93
f 84 92 91
f 90 94 95
f 94 93 96
f 95 96 97
f 94 96 95
f 85 91 89
f 91 93 94
f 89 94 90
f 91 94 89
f 37 98 38
f 88 90 99
f 38 100 39
f 98 100 38
f 90 95 101
f 95 97 102
f 103 104 105
f 95 102 101
f 39 106 42
f 106 105 107
f 42 107 43
f 106 107 42
f 108 103 100
f 103 105 106
f 100 106 39
f 103 106 100
f 43 107 109
f 107 105 110
f 109 110 111
f 107 110 109
f 105 104 112
f 102 97 113
f 112 114 115
f 104 114 112
f 111 116 117
f 116 115 118
f 117 118 119
f 116 118 117
f 105 112 110
f 112 115 116
f 110 116 111
f 112 116 110
f 43 109 48
f 109 111 120
f 48 120 49
f 109 120 48
f 111 117 121
f 117 119 122
f 121 122 123
f 117 122 121
f 49 124 52
f 124 123 125
f 52 125 53
f 124 125 52
f 111 121 120
f 121 123 124
f 120 124 49
f 121 124 120
f 53 125 126
f 125 123 127
f 126 127 128
f 125 127 126
f 123 122 129
f 122 119 130
f 129 130 131
f 122 130 129
f 128 132 133
f 132 131 134
f 133 134 135
f 132 134 133
f 123 129 127
f 129 131 132
f 127 132 128
f 129 132 127
f 53 126 56
f 126 128 136
f 56 136 57
f 126 136 56
f 128 133 137
f 133 135 138
f 137 138 139
f 133 138 137
f 57 140 59
f 140 139 141
f 59 141 9
f 140 141 59
f 128 137 136
f 137 139 140
f 136 140 57
f 137 140 136
f 9 141 60
f 141 139 142
f 61 143 62
f 141 142 60
f 139 138 144
f 145 146 147
f 148 147 149
f 145 147 148
f 62 150 65
f 150 149 151
f 65 151 67
f 150 151 65
f 152 148 143
f 148 149 150
f 143 150 62
f 148 150 143
f 153 154 155
f 154 156 157
f 155 157 158
f 154 157 155
f 156 159 160
f 159 81 80
f 160 80 77
f 159 80 160
f 158 161 162
f 161 77 76
f 162 76 67
f 161 76 162
f 156 160 157
f 160 77 161
f 157 161 158
f 160 161 157
f 153 163 154
f 163 164 165
f 154 165 156
f 163 165 154
f 164 166 167
f 166 97 96
f 167 96 93
f 166 96 167
f 156 168 159
f 168 93 92
f 159 92 81
f 168 92 159
f 164 167 165
f 167 93 168
f 165 168 156
f 167 168 165
f 153 169 163
f 169 170 171
f 163 171 164
f 169 171 163
f 170 172 173
f 174 119 118
f 175 118 115
f 174 118 175
f 164 176 166
f 176 177 113
f 166 113 97
f 176 113 166
f 170 173 171
f 173 177 176
f 171 176 164
f 173 176 171
f 153 178 169
f 178 179 180
f 169 180 170
f 178 180 169
f 179 181 182
f 183 135 134
f 184 134 131
f 181 185 182
f 170 186 172
f 187 131 130
f 174 130 119
f 187 130 174
f 179 182 180
f 184 131 187
f 180 186 170
f 182 186 180
f 153 155 178
f 155 158 188
f 178 188 179
f 155 188 178
f 158 162 189
f 162 67 151
f 189 151 149
f 162 151 189
f 179 190 181
f 190 149 147
f 181 147 146
f 190 147 181
f 158 189 188
f 189 149 190
f 188 190 179
f 189 190 188
f 10 64 11
f 11 64 15
f 12 14 13
f 13 14 17
f 11 15 12
f 12 15 14
f 13 17 22
f 22 17 24
f 26 28 32
f 32 28 29
f 32 29 27
f 27 29 30
f 22 24 26
f 26 24 28
f 27 30 37
f 37 30 31
f 60 61 10
f 10 61 64
f 37 31 98
f 98 31 88
f 98 88 100
f 100 88 99
f 103 101 104
f 104 101 102
f 108 90 103
f 103 90 101
f 100 99 108
f 108 99 90
f 114 113 115
f 115 113 177
f 104 102 114
f 114 102 113
f 135 146 138
f 138 146 145
f 139 152 142
f 142 152 143
f 142 143 60
f 60 143 61
f 138 145 144
f 144 145 148
f 144 148 139
f 139 148 152
f 115 177 175
f 175 177 173
f 175 173 174
f 174 173 172
f 183 181 135
f 135 181 146
f 134 185 183
f 183 185 181
f 184 182 134
f 134 182 185
f 174 172 187
f 187 172 186
f 187 186 184
f 184 186 182
