v 0.466557 1.23888 -0.212443
v 0.501427 1.19506 -0.216917
v 0.495844 1.24385 -0.260125
v 0.524694 1.14563 -0.23
v 0.528089 1.19623 -0.268555
v 0.513953 1.2395 -0.313125
v 0.534586 1.09435 -0.250695
v 0.547802 1.13635 -0.288637
v 0.530351 1.04512 -0.277427
v 0.548493 1.08394 -0.313756
v 0.55145 1.12561 -0.351322
v 0.542156 1.1857 -0.332338
v 0.519506 1.22614 -0.367411
v 0.542156 1.15836 -0.412338
v 0.55145 1.09826 -0.431322
v 0.538996 1.1396 -0.467265
v 0.519506 1.1988 -0.447411
v 0.512078 1.17747 -0.498848
v 0.443604 1.27959 -0.243621
v 0.469605 1.28172 -0.295564
v 0.41345 1.30825 -0.281374
v 0.483671 1.27119 -0.359347
v 0.481173 1.22413 -0.493968
v 0.483671 1.24385 -0.439347
v 0.440207 1.26088 -0.482696
v 0.430834 1.30734 -0.342655
v 0.37839 1.32268 -0.322829
v 0.440207 1.28822 -0.402696
v 0.392297 1.31227 -0.38589
v 0.341092 1.32178 -0.36483
v 0.416901 1.25288 -0.190214
v 0.389758 1.29086 -0.224854
v 0.362076 1.25687 -0.178626
v 0.350987 1.31648 -0.271944
v 0.313354 1.3213 -0.31598
v 0.288329 1.3056 -0.268197
v 0.323978 1.28947 -0.217926
v 0.306255 1.25054 -0.178561
v 0.267923 1.27587 -0.225118
v 0.253689 1.23438 -0.190024
v 0.452637 1.20064 -0.17371
v 0.398894 1.21101 -0.154143
v 0.430828 1.15637 -0.146875
v 0.333114 1.20962 -0.147215
v 0.276956 1.19693 -0.155207
v 0.305707 1.15372 -0.133697
v 0.369259 1.15678 -0.130523
v 0.40279 1.10943 -0.133979
v 0.337754 1.10805 -0.12713
v 0.370657 1.06339 -0.136005
v 0.484387 1.15253 -0.181152
v 0.454752 1.0983 -0.157532
v 0.42228 1.05023 -0.153833
v 0.468325 1.04248 -0.185071
v 0.5041 1.09265 -0.201233
v 0.505286 1.04073 -0.227342
v 0.530351 1.01777 -0.357427
v 0.527789 0.996545 -0.409377
v 0.548493 1.05659 -0.393756
v 0.511618 0.982734 -0.461374
v 0.540928 1.03774 -0.448219
v 0.483068 0.977391 -0.509461
v 0.51434 1.02636 -0.50772
v 0.444312 0.980923 -0.549976
v 0.477485 1.02618 -0.552668
v 0.500878 1.0766 -0.5445
v 0.535281 1.08709 -0.49192
v 0.512709 1.12834 -0.526093
v 0.476973 1.18058 -0.542596
v 0.472549 1.12854 -0.568114
v 0.432126 1.1771 -0.576251
v 0.451608 1.06781 -0.583913
v 0.421045 1.01837 -0.584793
v 0.392293 1.06158 -0.606303
v 0.415462 1.12065 -0.600606
v 0.380951 1.1673 -0.59725
v 0.360246 1.10725 -0.61287
v 0.327343 1.15191 -0.603994
v 0.440652 1.22542 -0.535622
v 0.383566 1.21753 -0.568114
v 0.328711 1.20303 -0.580746
v 0.331622 1.24586 -0.5445
v 0.387814 1.26157 -0.518929
v 0.392297 1.28492 -0.46589
v 0.335857 1.27712 -0.498015
v 0.335857 1.30446 -0.418015
v 0.287067 1.31004 -0.374808
v 0.28138 1.25932 -0.50772
v 0.287067 1.2827 -0.454808
v 0.237757 1.2566 -0.461374
v 0.277131 1.21527 -0.556904
v 0.27572 1.16507 -0.586167
v 0.229675 1.17282 -0.554929
v 0.227783 1.22092 -0.513203
v 0.196915 1.21811 -0.46403
v 0.192714 1.17457 -0.512658
v 0.16765 1.17018 -0.462573
v 0.237757 1.28394 -0.381374
v 0.258619 1.3037 -0.324517
v 0.196915 1.24546 -0.38403
v 0.205023 1.2653 -0.33
v 0.16765 1.19753 -0.382573
v 0.170211 1.21876 -0.330623
v 0.186382 1.23257 -0.278626
v 0.23161 1.27669 -0.270499
v 0.214933 1.23791 -0.230539
v 0.220515 1.18912 -0.187332
v 0.18366 1.18894 -0.23228
v 0.197122 1.1387 -0.1955
v 0.157073 1.17756 -0.291781
v 0.149507 1.15871 -0.346244
v 0.14655 1.11704 -0.308678
v 0.162719 1.12821 -0.24808
v 0.185291 1.08696 -0.213907
v 0.159004 1.0757 -0.272735
v 0.185922 1.03783 -0.241152
v 0.246393 1.14749 -0.156087
v 0.225452 1.08676 -0.171886
v 0.221028 1.03472 -0.197404
v 0.265875 1.0382 -0.163749
v 0.282538 1.09466 -0.139394
v 0.31705 1.048 -0.14275
v 0.36929 1.01227 -0.159254
v 0.314435 0.997775 -0.171886
v 0.366378 0.969445 -0.1955
v 0.257348 0.989877 -0.204378
v 0.216827 0.991175 -0.246032
v 0.257794 0.954423 -0.257304
v 0.310186 0.953732 -0.221071
v 0.362144 0.938185 -0.241985
v 0.305703 0.930376 -0.27411
v 0.362144 0.910839 -0.321985
v 0.305703 0.903031 -0.354109
v 0.356909 0.89352 -0.37517
v 0.420869 1.00003 -0.183096
v 0.41662 0.955983 -0.23228
v 0.410933 0.905257 -0.365192
v 0.410933 0.932602 -0.285192
v 0.460244 0.958705 -0.278626
v 0.470217 0.99438 -0.226797
v 0.501086 0.997187 -0.27597
v 0.501086 0.969842 -0.35597
v 0.460244 0.93136 -0.358626
v 0.492978 0.95 -0.41
v 0.439381 0.911604 -0.415483
v 0.384647 0.893998 -0.42402
v 0.409671 0.9097 -0.471803
v 0.46639 0.938613 -0.469501
v 0.430077 0.939429 -0.514882
v 0.231443 0.976421 -0.527557
v 0.245363 1.01466 -0.56629
v 0.281099 0.962417 -0.549786
v 0.267172 1.05893 -0.593125
v 0.299106 1.00429 -0.585857
v 0.335925 0.958428 -0.561374
v 0.29521 1.10587 -0.606021
v 0.328741 1.05852 -0.609477
v 0.364886 1.00568 -0.592785
v 0.391745 0.964757 -0.561439
v 0.196573 1.02024 -0.523083
v 0.173307 1.06967 -0.51
v 0.213613 1.06277 -0.558848
v 0.163415 1.12095 -0.489305
v 0.1939 1.12265 -0.538767
v 0.243248 1.117 -0.582468
v 0.202156 0.971449 -0.479875
v 0.184047 0.975806 -0.426875
v 0.169912 1.01907 -0.471445
v 0.178495 0.989157 -0.372589
v 0.155845 1.0296 -0.407662
v 0.178495 1.0165 -0.292589
v 0.155845 1.05695 -0.327662
v 0.150198 1.07895 -0.451363
v 0.14655 1.0897 -0.388678
v 0.149507 1.13136 -0.426244
v 0.254396 0.935713 -0.496379
v 0.28455 0.907053 -0.458626
v 0.228396 0.933579 -0.444436
v 0.319611 0.892623 -0.417171
v 0.267167 0.907961 -0.397345
v 0.257794 0.927078 -0.337304
v 0.214329 0.944106 -0.380653
v 0.214329 0.971452 -0.300653
v 0.308243 0.924443 -0.515146
v 0.374023 0.925834 -0.522074
v 0.347014 0.898825 -0.468056
f 1 2 3
f 2 4 5
f 3 5 6
f 2 5 3
f 4 7 8
f 7 9 10
f 8 10 11
f 7 10 8
f 6 12 13
f 14 15 16
f 17 16 18
f 14 16 17
f 4 8 5
f 8 11 12
f 5 12 6
f 8 12 5
f 1 3 19
f 3 6 20
f 19 20 21
f 3 20 19
f 6 13 22
f 17 18 23
f 24 23 25
f 17 23 24
f 21 26 27
f 26 28 29
f 27 29 30
f 26 29 27
f 6 22 20
f 22 28 26
f 20 26 21
f 22 26 20
f 1 19 31
f 19 21 32
f 31 32 33
f 19 32 31
f 21 27 34
f 27 30 35
f 34 35 36
f 27 35 34
f 33 37 38
f 37 36 39
f 38 39 40
f 37 39 38
f 21 34 32
f 34 36 37
f 32 37 33
f 34 37 32
f 1 31 41
f 31 33 42
f 41 42 43
f 31 42 41
f 33 38 44
f 38 40 45
f 44 45 46
f 38 45 44
f 43 47 48
f 47 46 49
f 48 49 50
f 47 49 48
f 33 44 42
f 44 46 47
f 42 47 43
f 44 47 42
f 1 41 2
f 41 43 51
f 2 51 4
f 41 51 2
f 43 48 52
f 48 50 53
f 52 53 54
f 48 53 52
f 4 55 7
f 55 54 56
f 7 56 9
f 55 56 7
f 43 52 51
f 52 54 55
f 51 55 4
f 52 55 51
f 57 58 59
f 58 60 61
f 59 61 15
f 58 61 59
f 60 62 63
f 62 64 65
f 63 65 66
f 62 65 63
f 15 67 16
f 67 66 68
f 16 68 18
f 67 68 16
f 60 63 61
f 63 66 67
f 61 67 15
f 63 67 61
f 18 68 69
f 68 66 70
f 69 70 71
f 68 70 69
f 66 65 72
f 65 64 73
f 72 73 74
f 65 73 72
f 71 75 76
f 75 74 77
f 76 77 78
f 75 77 76
f 66 72 70
f 72 74 75
f 70 75 71
f 72 75 70
f 18 69 23
f 69 71 79
f 23 79 25
f 69 79 23
f 71 76 80
f 76 78 81
f 80 81 82
f 76 81 80
f 25 83 84
f 83 82 85
f 29 86 30
f 83 85 84
f 71 80 79
f 80 82 83
f 79 83 25
f 80 83 79
f 30 86 87
f 85 82 88
f 89 88 90
f 85 88 89
f 82 81 91
f 81 78 92
f 91 92 93
f 81 92 91
f 90 94 95
f 94 93 96
f 95 96 97
f 94 96 95
f 82 91 88
f 91 93 94
f 88 94 90
f 91 94 88
f 30 87 35
f 87 98 99
f 35 99 36
f 87 99 35
f 98 100 101
f 100 102 103
f 101 103 104
f 100 103 101
f 36 105 39
f 105 104 106
f 39 106 40
f 105 106 39
f 98 101 99
f 101 104 105
f 99 105 36
f 101 105 99
f 40 106 107
f 106 104 108
f 107 108 109
f 106 108 107
f 104 103 110
f 103 102 111
f 110 111 112
f 103 111 110
f 109 113 114
f 113 112 115
f 114 115 116
f 113 115 114
f 104 110 108
f 110 112 113
f 108 113 109
f 110 113 108
f 40 107 45
f 107 109 117
f 45 117 46
f 107 117 45
f 109 114 118
f 114 116 119
f 118 119 120
f 114 119 118
f 46 121 49
f 121 120 122
f 49 122 50
f 121 122 49
f 109 118 117
f 118 120 121
f 117 121 46
f 118 121 117
f 50 122 123
f 122 120 124
f 123 124 125
f 122 124 123
f 120 119 126
f 119 116 127
f 126 127 128
f 119 127 126
f 125 129 130
f 129 128 131
f 132 133 134
f 129 131 130
f 120 126 124
f 126 128 129
f 124 129 125
f 126 129 124
f 50 123 53
f 123 125 135
f 53 135 54
f 123 135 53
f 125 130 136
f 132 134 137
f 136 138 139
f 130 138 136
f 54 140 56
f 140 139 141
f 56 141 9
f 140 141 56
f 125 136 135
f 136 139 140
f 135 140 54
f 136 140 135
f 57 142 58
f 142 143 144
f 58 144 60
f 142 144 58
f 143 137 145
f 137 134 146
f 145 146 147
f 137 146 145
f 60 148 62
f 148 147 149
f 62 149 64
f 148 149 62
f 143 145 144
f 145 147 148
f 144 148 60
f 145 148 144
f 150 151 152
f 151 153 154
f 152 154 155
f 151 154 152
f 153 156 157
f 156 78 77
f 157 77 74
f 156 77 157
f 155 158 159
f 158 74 73
f 159 73 64
f 158 73 159
f 153 157 154
f 157 74 158
f 154 158 155
f 157 158 154
f 150 160 151
f 160 161 162
f 151 162 153
f 160 162 151
f 161 163 164
f 163 97 96
f 164 96 93
f 163 96 164
f 153 165 156
f 165 93 92
f 156 92 78
f 165 92 156
f 161 164 162
f 164 93 165
f 162 165 153
f 164 165 162
f 150 166 160
f 166 167 168
f 160 168 161
f 166 168 160
f 167 169 170
f 171 116 115
f 172 115 112
f 171 115 172
f 161 173 163
f 173 174 175
f 163 175 97
f 173 175 163
f 167 170 168
f 170 174 173
f 168 173 161
f 170 173 168
f 150 176 166
f 176 177 178
f 166 178 167
f 176 178 166
f 177 179 180
f 179 134 133
f 180 133 181
f 179 133 180
f 167 182 169
f 183 128 127
f 171 127 116
f 183 127 171
f 177 180 178
f 180 181 182
f 178 182 167
f 180 182 178
f 150 152 176
f 152 155 184
f 176 184 177
f 152 184 176
f 155 159 185
f 159 64 149
f 185 149 147
f 159 149 185
f 177 186 179
f 186 147 146
f 179 146 134
f 186 146 179
f 155 185 184
f 185 147 186
f 184 186 177
f 185 186 184
f 9 57 10
f 10 57 59
f 10 59 11
f 11 59 15
f 12 14 13
f 13 14 17
f 11 15 12
f 12 15 14
f 13 17 22
f 22 17 24
f 28 25 29
f 29 25 84
f 22 24 28
f 28 24 25
f 29 84 86
f 86 84 85
f 86 85 87
f 87 85 89
f 87 89 98
f 98 89 90
f 98 90 100
f 100 90 95
f 100 95 102
f 102 95 97
f 102 97 111
f 111 97 175
f 111 175 112
f 112 175 174
f 128 181 131
f 131 181 133
f 131 133 130
f 130 133 132
f 138 137 139
f 139 137 143
f 130 132 138
f 138 132 137
f 139 143 141
f 141 143 142
f 141 142 9
f 9 142 57
f 112 174 172
f 172 174 170
f 172 170 171
f 171 170 169
f 183 182 128
f 128 182 181
f 171 169 183
f 183 169 182
