v 0.466557 1.21153 -0.292443
v 0.501427 1.16772 -0.296917
v 0.495844 1.21651 -0.340125
v 0.524694 1.11828 -0.31
v 0.528089 1.16888 -0.348555
v 0.513953 1.21215 -0.393125
v 0.534586 1.067 -0.330695
v 0.547802 1.10901 -0.368636
v 0.530351 1.01777 -0.357427
v 0.548493 1.05659 -0.393756
v 0.55145 1.09826 -0.431322
v 0.542156 1.15836 -0.412338
v 0.519506 1.1988 -0.447411
v 0.542156 1.09319 -0.532338
v 0.55145 1.0331 -0.551322
v 0.538996 1.07444 -0.587265
v 0.519506 1.13363 -0.567411
v 0.512078 1.1123 -0.618848
v 0.538996 1.1396 -0.467265
v 0.443604 1.25224 -0.323621
v 0.469605 1.25438 -0.375564
v 0.41345 1.2809 -0.361374
v 0.483671 1.24385 -0.439347
v 0.481173 1.15896 -0.613968
v 0.481173 1.22413 -0.493968
v 0.440207 1.26088 -0.482696
v 0.430834 1.27999 -0.422655
v 0.37839 1.29533 -0.402829
v 0.392297 1.28492 -0.46589
v 0.341092 1.29444 -0.44483
v 0.416901 1.22554 -0.270214
v 0.389758 1.26351 -0.304854
v 0.362076 1.22953 -0.258626
v 0.350987 1.28913 -0.351944
v 0.313354 1.29396 -0.39598
v 0.288329 1.27826 -0.348197
v 0.323978 1.26212 -0.297926
v 0.306255 1.2232 -0.258561
v 0.267923 1.24853 -0.305118
v 0.253689 1.20703 -0.270024
v 0.452637 1.1733 -0.25371
v 0.398894 1.18367 -0.234143
v 0.430828 1.12902 -0.226875
v 0.333114 1.18227 -0.227215
v 0.276956 1.16958 -0.235207
v 0.305707 1.12638 -0.213697
v 0.369259 1.12944 -0.210523
v 0.40279 1.08208 -0.213979
v 0.337754 1.08071 -0.20713
v 0.370657 1.03605 -0.216005
v 0.484387 1.12518 -0.261152
v 0.454752 1.07095 -0.237532
v 0.42228 1.02288 -0.233833
v 0.468325 1.01513 -0.265071
v 0.5041 1.06531 -0.281233
v 0.505286 1.01339 -0.307342
v 0.530351 0.952609 -0.477427
v 0.527789 0.931381 -0.529377
v 0.548493 0.991429 -0.513756
v 0.511618 0.917569 -0.581374
v 0.540928 0.97258 -0.568219
v 0.483068 0.912226 -0.629461
v 0.51434 0.961193 -0.62772
v 0.444312 0.915758 -0.669976
v 0.477485 0.961016 -0.672668
v 0.500878 1.01143 -0.6645
v 0.535281 1.02193 -0.61192
v 0.512709 1.06318 -0.646093
v 0.476973 1.11542 -0.662596
v 0.472549 1.06338 -0.688114
v 0.432126 1.11194 -0.696251
v 0.451608 1.00264 -0.703913
v 0.421045 0.953208 -0.704793
v 0.392293 0.996413 -0.726303
v 0.415462 1.05548 -0.720606
v 0.380951 1.10213 -0.71725
v 0.360246 1.04208 -0.73287
v 0.327343 1.08674 -0.723994
v 0.440652 1.16026 -0.655622
v 0.440207 1.19571 -0.602696
v 0.383566 1.15236 -0.688114
v 0.328711 1.13787 -0.700746
v 0.331622 1.18069 -0.6645
v 0.387814 1.26157 -0.518929
v 0.387814 1.1964 -0.638929
v 0.335857 1.21195 -0.618015
v 0.335857 1.27712 -0.498015
v 0.287067 1.2827 -0.454808
v 0.28138 1.19415 -0.62772
v 0.28138 1.25932 -0.50772
v 0.237757 1.2566 -0.461374
v 0.277131 1.15011 -0.676904
v 0.27572 1.09991 -0.706167
v 0.229675 1.10766 -0.674929
v 0.227783 1.22092 -0.513203
v 0.196915 1.21811 -0.46403
v 0.227783 1.15576 -0.633203
v 0.192714 1.1094 -0.632658
v 0.196915 1.15295 -0.58403
v 0.16765 1.10502 -0.582573
v 0.237757 1.19143 -0.581374
v 0.258619 1.27635 -0.404517
v 0.205023 1.23796 -0.41
v 0.16765 1.17018 -0.462573
v 0.170211 1.19141 -0.410623
v 0.186382 1.20522 -0.358626
v 0.23161 1.24934 -0.350499
v 0.214933 1.21056 -0.310539
v 0.220515 1.16177 -0.267332
v 0.18366 1.1616 -0.31228
v 0.197122 1.11136 -0.2755
v 0.157073 1.15021 -0.371781
v 0.149507 1.13136 -0.426244
v 0.14655 1.0897 -0.388678
v 0.162719 1.10086 -0.32808
v 0.185291 1.05961 -0.293907
v 0.159004 1.04836 -0.352735
v 0.185922 1.01049 -0.321152
v 0.246393 1.12015 -0.236087
v 0.225452 1.05941 -0.251886
v 0.221028 1.00737 -0.277404
v 0.265875 1.01085 -0.243749
v 0.282538 1.06731 -0.219394
v 0.31705 1.02066 -0.22275
v 0.36929 0.984922 -0.239254
v 0.314435 0.970429 -0.251886
v 0.366378 0.9421 -0.2755
v 0.257348 0.962532 -0.284378
v 0.216827 0.963829 -0.326032
v 0.257794 0.927078 -0.337304
v 0.310186 0.926386 -0.301071
v 0.362144 0.910839 -0.321985
v 0.310186 0.861222 -0.421071
v 0.257794 0.861913 -0.457304
v 0.305703 0.837866 -0.47411
v 0.362144 0.845675 -0.441985
v 0.356909 0.828355 -0.49517
v 0.420869 0.972681 -0.263096
v 0.41662 0.928638 -0.31228
v 0.410933 0.840092 -0.485192
v 0.41662 0.863473 -0.43228
v 0.460244 0.866195 -0.478626
v 0.470217 0.967034 -0.306797
v 0.470217 0.901869 -0.426797
v 0.501086 0.904677 -0.47597
v 0.501086 0.969842 -0.35597
v 0.460244 0.93136 -0.358626
v 0.492978 0.884835 -0.53
v 0.439381 0.846439 -0.535483
v 0.384647 0.828834 -0.54402
v 0.409671 0.844535 -0.591803
v 0.46639 0.873448 -0.589501
v 0.430077 0.874264 -0.634882
v 0.231443 0.911256 -0.647557
v 0.245363 0.949492 -0.68629
v 0.281099 0.897252 -0.669786
v 0.267172 0.993766 -0.713125
v 0.299106 0.939125 -0.705857
v 0.335925 0.893263 -0.681374
v 0.29521 1.04071 -0.726021
v 0.328741 0.993354 -0.729477
v 0.364886 0.940516 -0.712785
v 0.391745 0.899592 -0.681439
v 0.196573 0.955074 -0.643083
v 0.173307 1.00451 -0.63
v 0.213613 0.997609 -0.678848
v 0.163415 1.05579 -0.609305
v 0.1939 1.05748 -0.658767
v 0.243248 1.05184 -0.702468
v 0.202156 0.906285 -0.599875
v 0.184047 0.910641 -0.546875
v 0.169912 0.953907 -0.591445
v 0.178495 0.923992 -0.492589
v 0.155845 0.964435 -0.527662
v 0.178495 0.989157 -0.372589
v 0.155845 1.0296 -0.407662
v 0.159004 0.983191 -0.472735
v 0.150198 1.01378 -0.571363
v 0.14655 1.02453 -0.508678
v 0.149507 1.0662 -0.546244
v 0.254396 0.870548 -0.616379
v 0.28455 0.841888 -0.578626
v 0.228396 0.868414 -0.564436
v 0.319611 0.827458 -0.537171
v 0.267167 0.842796 -0.517345
v 0.214329 0.878942 -0.500653
v 0.216827 0.898665 -0.446032
v 0.308243 0.859278 -0.635146
v 0.374023 0.860669 -0.642074
v 0.347014 0.83366 -0.588056
f 1 2 3
f 2 4 5
f 3 5 6
f 2 5 3
f 4 7 8
f 7 9 10
f 8 10 11
f 7 10 8
f 6 12 13
f 14 15 16
f 17 16 18
f 12 19 13
f 4 8 5
f 8 11 12
f 5 12 6
f 8 12 5
f 1 3 20
f 3 6 21
f 20 21 22
f 3 21 20
f 6 13 23
f 17 18 24
f 23 25 26
f 13 25 23
f 22 27 28
f 27 26 29
f 28 29 30
f 27 29 28
f 6 23 21
f 23 26 27
f 21 27 22
f 23 27 21
f 1 20 31
f 20 22 32
f 31 32 33
f 20 32 31
f 22 28 34
f 28 30 35
f 34 35 36
f 28 35 34
f 33 37 38
f 37 36 39
f 38 39 40
f 37 39 38
f 22 34 32
f 34 36 37
f 32 37 33
f 34 37 32
f 1 31 41
f 31 33 42
f 41 42 43
f 31 42 41
f 33 38 44
f 38 40 45
f 44 45 46
f 38 45 44
f 43 47 48
f 47 46 49
f 48 49 50
f 47 49 48
f 33 44 42
f 44 46 47
f 42 47 43
f 44 47 42
f 1 41 2
f 41 43 51
f 2 51 4
f 41 51 2
f 43 48 52
f 48 50 53
f 52 53 54
f 48 53 52
f 4 55 7
f 55 54 56
f 7 56 9
f 55 56 7
f 43 52 51
f 52 54 55
f 51 55 4
f 52 55 51
f 57 58 59
f 58 60 61
f 59 61 15
f 58 61 59
f 60 62 63
f 62 64 65
f 63 65 66
f 62 65 63
f 15 67 16
f 67 66 68
f 16 68 18
f 67 68 16
f 60 63 61
f 63 66 67
f 61 67 15
f 63 67 61
f 18 68 69
f 68 66 70
f 69 70 71
f 68 70 69
f 66 65 72
f 65 64 73
f 72 73 74
f 65 73 72
f 71 75 76
f 75 74 77
f 76 77 78
f 75 77 76
f 66 72 70
f 72 74 75
f 70 75 71
f 72 75 70
f 18 69 24
f 69 71 79
f 24 79 80
f 69 79 24
f 71 76 81
f 76 78 82
f 81 82 83
f 76 82 81
f 26 84 29
f 85 83 86
f 29 87 30
f 84 87 29
f 71 81 79
f 81 83 85
f 79 85 80
f 81 85 79
f 30 87 88
f 86 83 89
f 88 90 91
f 87 90 88
f 83 82 92
f 82 78 93
f 92 93 94
f 82 93 92
f 91 95 96
f 97 94 98
f 99 98 100
f 97 98 99
f 83 92 89
f 92 94 97
f 89 97 101
f 92 97 89
f 30 88 35
f 88 91 102
f 35 102 36
f 88 102 35
f 91 96 103
f 96 104 105
f 103 105 106
f 96 105 103
f 36 107 39
f 107 106 108
f 39 108 40
f 107 108 39
f 91 103 102
f 103 106 107
f 102 107 36
f 103 107 102
f 40 108 109
f 108 106 110
f 109 110 111
f 108 110 109
f 106 105 112
f 105 104 113
f 112 113 114
f 105 113 112
f 111 115 116
f 115 114 117
f 116 117 118
f 115 117 116
f 106 112 110
f 112 114 115
f 110 115 111
f 112 115 110
f 40 109 45
f 109 111 119
f 45 119 46
f 109 119 45
f 111 116 120
f 116 118 121
f 120 121 122
f 116 121 120
f 46 123 49
f 123 122 124
f 49 124 50
f 123 124 49
f 111 120 119
f 120 122 123
f 119 123 46
f 120 123 119
f 50 124 125
f 124 122 126
f 125 126 127
f 124 126 125
f 122 121 128
f 121 118 129
f 128 129 130
f 121 129 128
f 127 131 132
f 133 134 135
f 136 135 137
f 133 135 136
f 122 128 126
f 128 130 131
f 126 131 127
f 128 131 126
f 50 125 53
f 125 127 138
f 53 138 54
f 125 138 53
f 127 132 139
f 136 137 140
f 141 140 142
f 136 140 141
f 54 143 56
f 144 142 145
f 56 146 9
f 143 146 56
f 127 139 138
f 139 147 143
f 138 143 54
f 139 143 138
f 57 145 58
f 145 142 148
f 58 148 60
f 145 148 58
f 142 140 149
f 140 137 150
f 149 150 151
f 140 150 149
f 60 152 62
f 152 151 153
f 62 153 64
f 152 153 62
f 142 149 148
f 149 151 152
f 148 152 60
f 149 152 148
f 154 155 156
f 155 157 158
f 156 158 159
f 155 158 156
f 157 160 161
f 160 78 77
f 161 77 74
f 160 77 161
f 159 162 163
f 162 74 73
f 163 73 64
f 162 73 163
f 157 161 158
f 161 74 162
f 158 162 159
f 161 162 158
f 154 164 155
f 164 165 166
f 155 166 157
f 164 166 155
f 165 167 168
f 167 100 98
f 168 98 94
f 167 98 168
f 157 169 160
f 169 94 93
f 160 93 78
f 169 93 160
f 165 168 166
f 168 94 169
f 166 169 157
f 168 169 166
f 154 170 164
f 170 171 172
f 164 172 165
f 170 172 164
f 171 173 174
f 175 118 117
f 176 117 114
f 173 177 174
f 165 178 167
f 178 179 180
f 167 180 100
f 178 180 167
f 171 174 172
f 174 179 178
f 172 178 165
f 174 178 172
f 154 181 170
f 181 182 183
f 170 183 171
f 181 183 170
f 182 184 185
f 184 137 135
f 185 135 134
f 184 135 185
f 171 186 173
f 186 134 187
f 175 129 118
f 186 187 173
f 182 185 183
f 185 134 186
f 183 186 171
f 185 186 183
f 154 156 181
f 156 159 188
f 181 188 182
f 156 188 181
f 159 163 189
f 163 64 153
f 189 153 151
f 163 153 189
f 182 190 184
f 190 151 150
f 184 150 137
f 190 150 184
f 159 189 188
f 189 151 190
f 188 190 182
f 189 190 188
f 9 57 10
f 10 57 59
f 10 59 11
f 11 59 15
f 12 14 19
f 19 14 16
f 19 16 13
f 13 16 17
f 11 15 12
f 12 15 14
f 25 24 26
f 26 24 80
f 13 17 25
f 25 17 24
f 26 80 84
f 84 80 85
f 84 85 87
f 87 85 86
f 90 89 91
f 91 89 101
f 87 86 90
f 90 86 89
f 91 101 95
f 95 101 97
f 95 97 96
f 96 97 99
f 96 99 104
f 104 99 100
f 104 100 113
f 113 100 180
f 113 180 114
f 114 180 179
f 129 187 130
f 130 187 134
f 131 133 132
f 132 133 136
f 130 134 131
f 131 134 133
f 132 136 139
f 139 136 141
f 146 145 9
f 9 145 57
f 143 144 146
f 146 144 145
f 139 141 147
f 147 141 142
f 147 142 143
f 143 142 144
f 117 177 175
f 175 177 173
f 176 174 117
f 117 174 177
f 114 179 176
f 176 179 174
f 175 173 129
f 129 173 187
