v 0.466557 1.14637 -0.412443
v 0.501427 1.10255 -0.416917
v 0.495844 1.15134 -0.460125
v 0.524694 1.05312 -0.43
v 0.528089 1.10372 -0.468555
v 0.513953 1.14699 -0.513125
v 0.534586 1.00184 -0.450695
v 0.547802 1.04384 -0.488636
v 0.530351 0.952609 -0.477427
v 0.548493 0.991429 -0.513756
v 0.55145 1.0331 -0.551322
v 0.542156 1.09319 -0.532338
v 0.519506 1.13363 -0.567411
v 0.542156 1.06018 -0.612338
v 0.55145 1.00008 -0.631322
v 0.538996 1.04142 -0.667265
v 0.519506 1.10062 -0.647411
v 0.512078 1.07929 -0.698848
v 0.443604 1.18708 -0.443621
v 0.469605 1.18921 -0.495564
v 0.41345 1.21574 -0.481374
v 0.483671 1.17868 -0.559347
v 0.481173 1.12595 -0.693968
v 0.481173 1.15896 -0.613968
v 0.440207 1.19571 -0.602696
v 0.483671 1.14567 -0.639347
v 0.430834 1.21483 -0.542655
v 0.37839 1.23017 -0.522829
v 0.392297 1.21976 -0.58589
v 0.341092 1.22927 -0.56483
v 0.416901 1.16037 -0.390214
v 0.389758 1.19835 -0.424854
v 0.362076 1.16436 -0.378626
v 0.350987 1.22397 -0.471944
v 0.313354 1.22879 -0.51598
v 0.288329 1.21309 -0.468197
v 0.323978 1.19696 -0.417926
v 0.306255 1.15803 -0.378561
v 0.267923 1.18336 -0.425118
v 0.253689 1.14187 -0.390024
v 0.452637 1.10813 -0.37371
v 0.398894 1.1185 -0.354143
v 0.430828 1.06386 -0.346875
v 0.333114 1.11711 -0.347215
v 0.276956 1.10442 -0.355207
v 0.305707 1.06121 -0.333697
v 0.369259 1.06427 -0.330523
v 0.40279 1.01692 -0.333979
v 0.337754 1.01554 -0.32713
v 0.370657 0.970881 -0.336005
v 0.484387 1.06002 -0.381152
v 0.454752 1.00579 -0.357532
v 0.42228 0.957719 -0.353833
v 0.468325 0.94997 -0.385071
v 0.5041 1.00014 -0.401233
v 0.505286 0.948222 -0.427342
v 0.530351 0.919595 -0.557427
v 0.527789 0.898367 -0.609377
v 0.548493 0.958416 -0.593756
v 0.511618 0.884556 -0.661374
v 0.540928 0.939567 -0.648219
v 0.483068 0.879213 -0.709461
v 0.51434 0.928179 -0.70772
v 0.444312 0.882745 -0.749976
v 0.477485 0.928003 -0.752668
v 0.500878 0.978422 -0.7445
v 0.535281 0.988915 -0.69192
v 0.512709 1.03016 -0.726093
v 0.476973 1.0824 -0.742596
v 0.472549 1.03036 -0.768114
v 0.432126 1.07892 -0.776251
v 0.451608 0.96963 -0.783913
v 0.421045 0.920195 -0.784793
v 0.392293 0.963399 -0.806303
v 0.415462 1.02247 -0.800606
v 0.380951 1.06912 -0.79725
v 0.360246 1.00907 -0.81287
v 0.327343 1.05373 -0.803995
v 0.440652 1.12725 -0.735622
v 0.440207 1.1627 -0.682696
v 0.383566 1.11935 -0.768114
v 0.328711 1.10486 -0.780746
v 0.331622 1.14768 -0.7445
v 0.387814 1.16339 -0.718929
v 0.392297 1.18675 -0.665891
v 0.335857 1.17894 -0.698015
v 0.335857 1.21195 -0.618015
v 0.287067 1.21753 -0.574808
v 0.28138 1.16114 -0.70772
v 0.28138 1.19415 -0.62772
v 0.237757 1.19143 -0.581374
v 0.287067 1.18452 -0.654808
v 0.277131 1.1171 -0.756904
v 0.27572 1.06689 -0.786167
v 0.229675 1.07464 -0.754929
v 0.237757 1.15842 -0.661374
v 0.227783 1.12274 -0.713203
v 0.196915 1.11994 -0.66403
v 0.192714 1.07639 -0.712658
v 0.16765 1.072 -0.662573
v 0.258619 1.21119 -0.524517
v 0.196915 1.15295 -0.58403
v 0.205023 1.17279 -0.53
v 0.16765 1.10502 -0.582573
v 0.170211 1.12625 -0.530623
v 0.186382 1.14006 -0.478626
v 0.23161 1.18418 -0.470499
v 0.214933 1.1454 -0.430539
v 0.220515 1.09661 -0.387332
v 0.18366 1.09643 -0.43228
v 0.197122 1.04619 -0.3955
v 0.157073 1.08505 -0.491781
v 0.149507 1.0662 -0.546244
v 0.14655 1.02453 -0.508678
v 0.162719 1.0357 -0.44808
v 0.185291 0.994449 -0.413907
v 0.159004 0.983191 -0.472735
v 0.185922 0.945323 -0.441152
v 0.246393 1.05498 -0.356087
v 0.225452 0.994247 -0.371886
v 0.221028 0.942209 -0.397404
v 0.265875 0.945687 -0.363749
v 0.282538 1.00215 -0.339394
v 0.31705 0.955494 -0.34275
v 0.36929 0.919757 -0.359254
v 0.314435 0.905264 -0.371886
v 0.366378 0.876935 -0.3955
v 0.257348 0.897367 -0.404378
v 0.216827 0.898665 -0.446032
v 0.257794 0.861913 -0.457304
v 0.310186 0.861222 -0.421071
v 0.362144 0.845675 -0.441985
v 0.305703 0.837866 -0.47411
v 0.362144 0.812661 -0.521985
v 0.305703 0.804853 -0.55411
v 0.356909 0.795342 -0.57517
v 0.420869 0.907516 -0.383096
v 0.41662 0.863473 -0.43228
v 0.410933 0.807079 -0.565192
v 0.41662 0.830459 -0.51228
v 0.460244 0.833182 -0.558626
v 0.410933 0.840092 -0.485192
v 0.470217 0.901869 -0.426797
v 0.460244 0.866195 -0.478626
v 0.501086 0.904677 -0.47597
v 0.501086 0.871664 -0.55597
v 0.492978 0.851822 -0.61
v 0.439381 0.813426 -0.615483
v 0.384647 0.79582 -0.62402
v 0.409671 0.811522 -0.671803
v 0.46639 0.840435 -0.669501
v 0.430077 0.841251 -0.714882
v 0.231443 0.878242 -0.727557
v 0.245363 0.916479 -0.76629
v 0.281099 0.864239 -0.749786
v 0.267172 0.960753 -0.793125
v 0.299106 0.906111 -0.785857
v 0.335925 0.860249 -0.761374
v 0.29521 1.00769 -0.806021
v 0.328741 0.960341 -0.809477
v 0.364886 0.907503 -0.792785
v 0.391745 0.866579 -0.761439
v 0.196573 0.922061 -0.723083
v 0.173307 0.971493 -0.71
v 0.213613 0.964596 -0.758848
v 0.163415 1.02278 -0.689305
v 0.1939 1.02447 -0.738767
v 0.243248 1.01882 -0.782468
v 0.202156 0.873271 -0.679875
v 0.184047 0.877627 -0.626875
v 0.169912 0.920894 -0.671445
v 0.178495 0.890979 -0.572589
v 0.155845 0.931422 -0.607662
v 0.178495 0.923992 -0.492589
v 0.155845 0.964435 -0.527662
v 0.150198 0.98077 -0.651363
v 0.14655 0.991517 -0.588678
v 0.149507 1.03318 -0.626244
v 0.254396 0.837535 -0.696379
v 0.28455 0.808875 -0.658626
v 0.228396 0.835401 -0.644436
v 0.319611 0.794445 -0.617171
v 0.267167 0.809783 -0.597345
v 0.257794 0.8289 -0.537304
v 0.214329 0.845928 -0.580653
v 0.216827 0.865651 -0.526032
v 0.214329 0.878942 -0.500653
v 0.308243 0.826265 -0.715146
v 0.374023 0.827656 -0.722074
v 0.347014 0.800647 -0.668056
f 1 2 3
f 2 4 5
f 3 5 6
f 2 5 3
f 4 7 8
f 7 9 10
f 8 10 11
f 7 10 8
f 6 12 13
f 14 15 16
f 17 16 18
f 14 16 17
f 4 8 5
f 8 11 12
f 5 12 6
f 8 12 5
f 1 3 19
f 3 6 20
f 19 20 21
f 3 20 19
f 6 13 22
f 17 18 23
f 22 24 25
f 17 23 26
f 21 27 28
f 27 25 29
f 28 29 30
f 27 29 28
f 6 22 20
f 22 25 27
f 20 27 21
f 22 27 20
f 1 19 31
f 19 21 32
f 31 32 33
f 19 32 31
f 21 28 34
f 28 30 35
f 34 35 36
f 28 35 34
f 33 37 38
f 37 36 39
f 38 39 40
f 37 39 38
f 21 34 32
f 34 36 37
f 32 37 33
f 34 37 32
f 1 31 41
f 31 33 42
f 41 42 43
f 31 42 41
f 33 38 44
f 38 40 45
f 44 45 46
f 38 45 44
f 43 47 48
f 47 46 49
f 48 49 50
f 47 49 48
f 33 44 42
f 44 46 47
f 42 47 43
f 44 47 42
f 1 41 2
f 41 43 51
f 2 51 4
f 41 51 2
f 43 48 52
f 48 50 53
f 52 53 54
f 48 53 52
f 4 55 7
f 55 54 56
f 7 56 9
f 55 56 7
f 43 52 51
f 52 54 55
f 51 55 4
f 52 55 51
f 57 58 59
f 58 60 61
f 59 61 15
f 58 61 59
f 60 62 63
f 62 64 65
f 63 65 66
f 62 65 63
f 15 67 16
f 67 66 68
f 16 68 18
f 67 68 16
f 60 63 61
f 63 66 67
f 61 67 15
f 63 67 61
f 18 68 69
f 68 66 70
f 69 70 71
f 68 70 69
f 66 65 72
f 65 64 73
f 72 73 74
f 65 73 72
f 71 75 76
f 75 74 77
f 76 77 78
f 75 77 76
f 66 72 70
f 72 74 75
f 70 75 71
f 72 75 70
f 18 69 23
f 69 71 79
f 23 79 80
f 69 79 23
f 71 76 81
f 76 78 82
f 81 82 83
f 76 82 81
f 80 84 85
f 84 83 86
f 29 87 30
f 84 86 85
f 71 81 79
f 81 83 84
f 79 84 80
f 81 84 79
f 30 87 88
f 86 83 89
f 88 90 91
f 86 89 92
f 83 82 93
f 82 78 94
f 93 94 95
f 82 94 93
f 96 97 98
f 97 95 99
f 98 99 100
f 97 99 98
f 83 93 89
f 93 95 97
f 89 97 96
f 93 97 89
f 30 88 35
f 88 91 101
f 35 101 36
f 88 101 35
f 91 102 103
f 102 104 105
f 103 105 106
f 102 105 103
f 36 107 39
f 107 106 108
f 39 108 40
f 107 108 39
f 91 103 101
f 103 106 107
f 101 107 36
f 103 107 101
f 40 108 109
f 108 106 110
f 109 110 111
f 108 110 109
f 106 105 112
f 105 104 113
f 112 113 114
f 105 113 112
f 111 115 116
f 115 114 117
f 116 117 118
f 115 117 116
f 106 112 110
f 112 114 115
f 110 115 111
f 112 115 110
f 40 109 45
f 109 111 119
f 45 119 46
f 109 119 45
f 111 116 120
f 116 118 121
f 120 121 122
f 116 121 120
f 46 123 49
f 123 122 124
f 49 124 50
f 123 124 49
f 111 120 119
f 120 122 123
f 119 123 46
f 120 123 119
f 50 124 125
f 124 122 126
f 125 126 127
f 124 126 125
f 122 121 128
f 121 118 129
f 128 129 130
f 121 129 128
f 127 131 132
f 131 130 133
f 134 135 136
f 131 133 132
f 122 128 126
f 128 130 131
f 126 131 127
f 128 131 126
f 50 125 53
f 125 127 137
f 53 137 54
f 125 137 53
f 127 132 138
f 134 136 139
f 140 139 141
f 132 142 138
f 54 143 56
f 143 144 145
f 56 145 9
f 143 145 56
f 127 138 137
f 138 144 143
f 137 143 54
f 138 143 137
f 57 146 58
f 146 141 147
f 58 147 60
f 146 147 58
f 141 139 148
f 139 136 149
f 148 149 150
f 139 149 148
f 60 151 62
f 151 150 152
f 62 152 64
f 151 152 62
f 141 148 147
f 148 150 151
f 147 151 60
f 148 151 147
f 153 154 155
f 154 156 157
f 155 157 158
f 154 157 155
f 156 159 160
f 159 78 77
f 160 77 74
f 159 77 160
f 158 161 162
f 161 74 73
f 162 73 64
f 161 73 162
f 156 160 157
f 160 74 161
f 157 161 158
f 160 161 157
f 153 163 154
f 163 164 165
f 154 165 156
f 163 165 154
f 164 166 167
f 166 100 99
f 167 99 95
f 166 99 167
f 156 168 159
f 168 95 94
f 159 94 78
f 168 94 159
f 164 167 165
f 167 95 168
f 165 168 156
f 167 168 165
f 153 169 163
f 169 170 171
f 163 171 164
f 169 171 163
f 170 172 173
f 174 118 117
f 175 117 114
f 174 117 175
f 164 176 166
f 176 177 178
f 166 178 100
f 176 178 166
f 170 173 171
f 173 177 176
f 171 176 164
f 173 176 171
f 153 179 169
f 179 180 181
f 169 181 170
f 179 181 169
f 180 182 183
f 182 136 135
f 183 135 184
f 182 135 183
f 170 185 172
f 185 184 186
f 174 129 118
f 187 129 174
f 180 183 181
f 183 184 185
f 181 185 170
f 183 185 181
f 153 155 179
f 155 158 188
f 179 188 180
f 155 188 179
f 158 162 189
f 162 64 152
f 189 152 150
f 162 152 189
f 180 190 182
f 190 150 149
f 182 149 136
f 190 149 182
f 158 189 188
f 189 150 190
f 188 190 180
f 189 190 188
f 9 57 10
f 10 57 59
f 10 59 11
f 11 59 15
f 12 14 13
f 13 14 17
f 11 15 12
f 12 15 14
f 13 17 22
f 22 17 26
f 22 26 24
f 24 26 23
f 24 23 25
f 25 23 80
f 25 80 29
f 29 80 85
f 29 85 87
f 87 85 86
f 87 86 88
f 88 86 92
f 88 92 90
f 90 92 89
f 90 89 91
f 91 89 96
f 91 96 102
f 102 96 98
f 102 98 104
f 104 98 100
f 104 100 113
f 113 100 178
f 113 178 114
f 114 178 177
f 129 186 130
f 130 186 184
f 130 184 133
f 133 184 135
f 133 135 132
f 132 135 134
f 132 134 142
f 142 134 139
f 142 139 138
f 138 139 140
f 144 141 145
f 145 141 146
f 145 146 9
f 9 146 57
f 138 140 144
f 144 140 141
f 114 177 175
f 175 177 173
f 175 173 174
f 174 173 172
f 187 185 129
f 129 185 186
f 174 172 187
f 187 172 185
