v 0.466557 1.11336 -0.492443
v 0.501427 1.06954 -0.496917
v 0.495844 1.11833 -0.540125
v 0.524694 1.02011 -0.51
v 0.528089 1.07071 -0.548555
v 0.513953 1.11397 -0.593125
v 0.534586 0.968824 -0.530695
v 0.547802 1.01083 -0.568637
v 0.530351 0.919595 -0.557427
v 0.548493 0.958416 -0.593756
v 0.55145 1.00008 -0.631322
v 0.542156 1.06018 -0.612338
v 0.519506 1.10062 -0.647411
v 0.542156 1.018 -0.772338
v 0.55145 0.957908 -0.791322
v 0.538996 0.999248 -0.827265
v 0.519506 1.05845 -0.807411
v 0.512078 1.03712 -0.858848
v 0.443604 1.15406 -0.523621
v 0.469605 1.1562 -0.575564
v 0.41345 1.18272 -0.561374
v 0.483671 1.14567 -0.639347
v 0.481173 1.08377 -0.853968
v 0.483671 1.1035 -0.799347
v 0.440207 1.12053 -0.842696
v 0.430834 1.18182 -0.622655
v 0.37839 1.19715 -0.602829
v 0.440207 1.1627 -0.682696
v 0.392297 1.18675 -0.665891
v 0.341092 1.19626 -0.64483
v 0.416901 1.12736 -0.470214
v 0.389758 1.16533 -0.504854
v 0.362076 1.13135 -0.458626
v 0.350987 1.19095 -0.551944
v 0.313354 1.19578 -0.59598
v 0.288329 1.18008 -0.548197
v 0.323978 1.16394 -0.497926
v 0.306255 1.12502 -0.458561
v 0.267923 1.15035 -0.505118
v 0.253689 1.10885 -0.470024
v 0.452637 1.07512 -0.45371
v 0.398894 1.08549 -0.434143
v 0.430828 1.03085 -0.426875
v 0.333114 1.0841 -0.427215
v 0.276956 1.0714 -0.435207
v 0.305707 1.0282 -0.413697
v 0.369259 1.03126 -0.410523
v 0.40279 0.983904 -0.413979
v 0.337754 0.982529 -0.40713
v 0.370657 0.937868 -0.416006
v 0.484387 1.027 -0.461152
v 0.454752 0.972774 -0.437532
v 0.42228 0.924706 -0.433833
v 0.468325 0.916956 -0.465071
v 0.5041 0.967128 -0.481233
v 0.505286 0.915208 -0.507342
v 0.527789 0.898367 -0.609377
v 0.527789 0.856193 -0.769377
v 0.511618 0.842382 -0.821374
v 0.540928 0.897393 -0.808219
v 0.548493 0.916242 -0.753756
v 0.483068 0.837039 -0.869461
v 0.51434 0.886005 -0.86772
v 0.444312 0.840571 -0.909976
v 0.477485 0.885829 -0.912668
v 0.500878 0.936248 -0.9045
v 0.535281 0.946741 -0.85192
v 0.512709 0.987989 -0.886093
v 0.476973 1.04023 -0.902596
v 0.472549 0.988191 -0.928114
v 0.432126 1.03675 -0.936251
v 0.451608 0.927456 -0.943913
v 0.421045 0.878021 -0.944793
v 0.392293 0.921225 -0.966303
v 0.415462 0.980293 -0.960606
v 0.380951 1.02694 -0.95725
v 0.360246 0.966897 -0.97287
v 0.327343 1.01156 -0.963995
v 0.440652 1.08507 -0.895622
v 0.383566 1.07717 -0.928114
v 0.328711 1.06268 -0.940746
v 0.331622 1.1055 -0.9045
v 0.387814 1.12122 -0.878929
v 0.392297 1.14457 -0.82589
v 0.335857 1.13676 -0.858015
v 0.341092 1.15408 -0.80483
v 0.287067 1.14235 -0.814808
v 0.28138 1.11897 -0.86772
v 0.237757 1.11624 -0.821374
v 0.277131 1.07492 -0.916904
v 0.27572 1.02472 -0.946167
v 0.229675 1.03247 -0.914929
v 0.227783 1.08057 -0.873203
v 0.196915 1.07776 -0.82403
v 0.192714 1.03422 -0.872658
v 0.16765 1.02983 -0.822573
v 0.287067 1.18452 -0.654808
v 0.237757 1.15842 -0.661374
v 0.258619 1.17817 -0.604517
v 0.196915 1.11994 -0.66403
v 0.205023 1.13978 -0.61
v 0.170211 1.05106 -0.770623
v 0.170211 1.09323 -0.610623
v 0.186382 1.10704 -0.558626
v 0.23161 1.15116 -0.550499
v 0.214933 1.11239 -0.510539
v 0.220515 1.0636 -0.467332
v 0.18366 1.06342 -0.51228
v 0.197122 1.01318 -0.4755
v 0.157073 1.05203 -0.571781
v 0.149507 0.99101 -0.786244
v 0.149507 1.03318 -0.626244
v 0.14655 0.991517 -0.588678
v 0.162719 1.00268 -0.52808
v 0.185291 0.961436 -0.493907
v 0.159004 0.950177 -0.552735
v 0.185922 0.91231 -0.521152
v 0.246393 1.02197 -0.436087
v 0.225452 0.961234 -0.451886
v 0.221028 0.909196 -0.477404
v 0.265875 0.912674 -0.443749
v 0.282538 0.969132 -0.419394
v 0.31705 0.92248 -0.42275
v 0.36929 0.886744 -0.439254
v 0.314435 0.872251 -0.451886
v 0.366378 0.843922 -0.4755
v 0.257348 0.864353 -0.484378
v 0.216827 0.865651 -0.526032
v 0.257794 0.8289 -0.537304
v 0.310186 0.828208 -0.501071
v 0.362144 0.812661 -0.521985
v 0.305703 0.804853 -0.55411
v 0.356909 0.795342 -0.57517
v 0.420869 0.874502 -0.463096
v 0.41662 0.830459 -0.51228
v 0.410933 0.807079 -0.565192
v 0.460244 0.833182 -0.558626
v 0.470217 0.868856 -0.506797
v 0.501086 0.871664 -0.55597
v 0.501086 0.82949 -0.71597
v 0.460244 0.791008 -0.718626
v 0.492978 0.809648 -0.77
v 0.410933 0.764905 -0.725192
v 0.439381 0.771252 -0.775483
v 0.356909 0.753168 -0.73517
v 0.384647 0.753646 -0.78402
v 0.409671 0.769348 -0.831803
v 0.46639 0.798261 -0.829501
v 0.430077 0.799077 -0.874882
v 0.231443 0.836069 -0.887557
v 0.245363 0.874305 -0.92629
v 0.281099 0.822065 -0.909786
v 0.267172 0.918579 -0.953125
v 0.299106 0.863938 -0.945857
v 0.335925 0.818076 -0.921374
v 0.29521 0.965521 -0.966021
v 0.328741 0.918167 -0.969477
v 0.364886 0.865329 -0.952785
v 0.391745 0.824405 -0.921439
v 0.196573 0.879887 -0.883083
v 0.173307 0.929319 -0.87
v 0.213613 0.922422 -0.918848
v 0.163415 0.980601 -0.849305
v 0.1939 0.982297 -0.898767
v 0.243248 0.976651 -0.942468
v 0.202156 0.831097 -0.839875
v 0.184047 0.835453 -0.786875
v 0.169912 0.87872 -0.831445
v 0.178495 0.848805 -0.732589
v 0.155845 0.889248 -0.767662
v 0.178495 0.890979 -0.572589
v 0.155845 0.931422 -0.607662
v 0.150198 0.938596 -0.811363
v 0.14655 0.949344 -0.748678
v 0.254396 0.795361 -0.856379
v 0.28455 0.766701 -0.818626
v 0.228396 0.793227 -0.804436
v 0.319611 0.752271 -0.777171
v 0.267167 0.767609 -0.757345
v 0.305703 0.762679 -0.71411
v 0.257794 0.786726 -0.697304
v 0.214329 0.803754 -0.740653
v 0.214329 0.845928 -0.580653
v 0.308243 0.784091 -0.875146
v 0.374023 0.785482 -0.882074
v 0.347014 0.758473 -0.828056
f 1 2 3
f 2 4 5
f 3 5 6
f 2 5 3
f 4 7 8
f 7 9 10
f 8 10 11
f 7 10 8
f 6 12 13
f 14 15 16
f 17 16 18
f 14 16 17
f 4 8 5
f 8 11 12
f 5 12 6
f 8 12 5
f 1 3 19
f 3 6 20
f 19 20 21
f 3 20 19
f 6 13 22
f 17 18 23
f 24 23 25
f 17 23 24
f 21 26 27
f 26 28 29
f 27 29 30
f 26 29 27
f 6 22 20
f 22 28 26
f 20 26 21
f 22 26 20
f 1 19 31
f 19 21 32
f 31 32 33
f 19 32 31
f 21 27 34
f 27 30 35
f 34 35 36
f 27 35 34
f 33 37 38
f 37 36 39
f 38 39 40
f 37 39 38
f 21 34 32
f 34 36 37
f 32 37 33
f 34 37 32
f 1 31 41
f 31 33 42
f 41 42 43
f 31 42 41
f 33 38 44
f 38 40 45
f 44 45 46
f 38 45 44
f 43 47 48
f 47 46 49
f 48 49 50
f 47 49 48
f 33 44 42
f 44 46 47
f 42 47 43
f 44 47 42
f 1 41 2
f 41 43 51
f 2 51 4
f 41 51 2
f 43 48 52
f 48 50 53
f 52 53 54
f 48 53 52
f 4 55 7
f 55 54 56
f 7 56 9
f 55 56 7
f 43 52 51
f 52 54 55
f 51 55 4
f 52 55 51
f 9 57 10
f 58 59 60
f 61 60 15
f 58 60 61
f 59 62 63
f 62 64 65
f 63 65 66
f 62 65 63
f 15 67 16
f 67 66 68
f 16 68 18
f 67 68 16
f 59 63 60
f 63 66 67
f 60 67 15
f 63 67 60
f 18 68 69
f 68 66 70
f 69 70 71
f 68 70 69
f 66 65 72
f 65 64 73
f 72 73 74
f 65 73 72
f 71 75 76
f 75 74 77
f 76 77 78
f 75 77 76
f 66 72 70
f 72 74 75
f 70 75 71
f 72 75 70
f 18 69 23
f 69 71 79
f 23 79 25
f 69 79 23
f 71 76 80
f 76 78 81
f 80 81 82
f 76 81 80
f 25 83 84
f 83 82 85
f 84 85 86
f 83 85 84
f 71 80 79
f 80 82 83
f 79 83 25
f 80 83 79
f 86 85 87
f 85 82 88
f 87 88 89
f 85 88 87
f 82 81 90
f 81 78 91
f 90 91 92
f 81 91 90
f 89 93 94
f 93 92 95
f 94 95 96
f 93 95 94
f 82 90 88
f 90 92 93
f 88 93 89
f 90 93 88
f 30 97 35
f 97 98 99
f 35 99 36
f 97 99 35
f 98 100 101
f 94 96 102
f 101 103 104
f 100 103 101
f 36 105 39
f 105 104 106
f 39 106 40
f 105 106 39
f 98 101 99
f 101 104 105
f 99 105 36
f 101 105 99
f 40 106 107
f 106 104 108
f 107 108 109
f 106 108 107
f 104 103 110
f 102 96 111
f 110 112 113
f 103 112 110
f 109 114 115
f 114 113 116
f 115 116 117
f 114 116 115
f 104 110 108
f 110 113 114
f 108 114 109
f 110 114 108
f 40 107 45
f 107 109 118
f 45 118 46
f 107 118 45
f 109 115 119
f 115 117 120
f 119 120 121
f 115 120 119
f 46 122 49
f 122 121 123
f 49 123 50
f 122 123 49
f 109 119 118
f 119 121 122
f 118 122 46
f 119 122 118
f 50 123 124
f 123 121 125
f 124 125 126
f 123 125 124
f 121 120 127
f 120 117 128
f 127 128 129
f 120 128 127
f 126 130 131
f 130 129 132
f 131 132 133
f 130 132 131
f 121 127 125
f 127 129 130
f 125 130 126
f 127 130 125
f 50 124 53
f 124 126 134
f 53 134 54
f 124 134 53
f 126 131 135
f 131 133 136
f 135 136 137
f 131 136 135
f 54 138 56
f 138 137 139
f 56 139 9
f 138 139 56
f 126 135 134
f 135 137 138
f 134 138 54
f 135 138 134
f 9 139 57
f 140 141 142
f 58 142 59
f 140 142 58
f 141 143 144
f 143 145 146
f 144 146 147
f 143 146 144
f 59 148 62
f 148 147 149
f 62 149 64
f 148 149 62
f 141 144 142
f 144 147 148
f 142 148 59
f 144 148 142
f 150 151 152
f 151 153 154
f 152 154 155
f 151 154 152
f 153 156 157
f 156 78 77
f 157 77 74
f 156 77 157
f 155 158 159
f 158 74 73
f 159 73 64
f 158 73 159
f 153 157 154
f 157 74 158
f 154 158 155
f 157 158 154
f 150 160 151
f 160 161 162
f 151 162 153
f 160 162 151
f 161 163 164
f 163 96 95
f 164 95 92
f 163 95 164
f 153 165 156
f 165 92 91
f 156 91 78
f 165 91 156
f 161 164 162
f 164 92 165
f 162 165 153
f 164 165 162
f 150 166 160
f 166 167 168
f 160 168 161
f 166 168 160
f 167 169 170
f 171 117 116
f 172 116 113
f 171 116 172
f 161 173 163
f 173 174 111
f 163 111 96
f 173 111 163
f 167 170 168
f 170 174 173
f 168 173 161
f 170 173 168
f 150 175 166
f 175 176 177
f 166 177 167
f 175 177 166
f 176 178 179
f 178 145 180
f 179 180 181
f 178 180 179
f 167 182 169
f 183 129 128
f 171 128 117
f 183 128 171
f 176 179 177
f 179 181 182
f 177 182 167
f 179 182 177
f 150 152 175
f 152 155 184
f 175 184 176
f 152 184 175
f 155 159 185
f 159 64 149
f 185 149 147
f 159 149 185
f 176 186 178
f 186 147 146
f 178 146 145
f 186 146 178
f 155 185 184
f 185 147 186
f 184 186 176
f 185 186 184
f 10 61 11
f 11 61 15
f 12 14 13
f 13 14 17
f 11 15 12
f 12 15 14
f 13 17 22
f 22 17 24
f 28 25 29
f 29 25 84
f 29 84 30
f 30 84 86
f 22 24 28
f 28 24 25
f 57 58 10
f 10 58 61
f 30 86 97
f 97 86 87
f 97 87 98
f 98 87 89
f 98 89 100
f 100 89 94
f 100 94 103
f 103 94 102
f 112 111 113
f 113 111 174
f 103 102 112
f 112 102 111
f 129 181 132
f 132 181 180
f 132 180 133
f 133 180 145
f 133 145 136
f 136 145 143
f 136 143 137
f 137 143 141
f 137 141 139
f 139 141 140
f 139 140 57
f 57 140 58
f 113 174 172
f 172 174 170
f 172 170 171
f 171 170 169
f 183 182 129
f 129 182 181
f 171 169 183
f 183 169 182
