v 0.466557 1.07239 -0.652443
v 0.501427 1.02857 -0.656917
v 0.495844 1.07736 -0.700125
v 0.524694 0.979135 -0.67
v 0.528089 1.02973 -0.708555
v 0.513953 1.073 -0.753125
v 0.534586 0.927853 -0.690695
v 0.547802 0.969859 -0.728637
v 0.530351 0.878624 -0.717427
v 0.548493 0.917445 -0.753756
v 0.55145 0.959111 -0.791322
v 0.542156 1.01921 -0.772338
v 0.519506 1.05965 -0.807411
v 0.538996 1.00045 -0.827265
v 0.512078 1.03832 -0.858848
v 0.443604 1.11309 -0.683621
v 0.469605 1.11523 -0.735564
v 0.41345 1.14175 -0.721374
v 0.483671 1.1047 -0.799347
v 0.481173 1.08498 -0.853968
v 0.440207 1.12173 -0.842696
v 0.430834 1.14085 -0.782655
v 0.37839 1.15618 -0.762829
v 0.392297 1.14578 -0.82589
v 0.341092 1.15529 -0.80483
v 0.416901 1.08639 -0.630214
v 0.389758 1.12436 -0.664854
v 0.362076 1.09038 -0.618626
v 0.350987 1.14998 -0.711944
v 0.313354 1.15481 -0.75598
v 0.288329 1.13911 -0.708197
v 0.323978 1.12297 -0.657926
v 0.306255 1.08405 -0.618561
v 0.267923 1.10938 -0.665118
v 0.253689 1.06788 -0.630024
v 0.452637 1.03415 -0.61371
v 0.398894 1.04452 -0.594143
v 0.430828 0.989875 -0.586875
v 0.333114 1.04313 -0.587215
v 0.276956 1.03043 -0.595207
v 0.305707 0.987229 -0.573697
v 0.369259 0.990287 -0.570523
v 0.40279 0.942933 -0.573979
v 0.337754 0.941558 -0.56713
v 0.370657 0.896897 -0.576005
v 0.484387 0.986032 -0.621152
v 0.454752 0.931803 -0.597532
v 0.42228 0.883735 -0.593833
v 0.468325 0.875985 -0.625071
v 0.5041 0.926157 -0.641233
v 0.505286 0.874237 -0.667342
v 0.527789 0.857396 -0.769377
v 0.511618 0.843585 -0.821374
v 0.540928 0.898596 -0.808219
v 0.483068 0.838242 -0.869461
v 0.51434 0.887208 -0.86772
v 0.444312 0.841774 -0.909976
v 0.477485 0.887032 -0.912668
v 0.500878 0.937451 -0.9045
v 0.535281 0.947944 -0.85192
v 0.512709 0.989192 -0.886093
v 0.476973 1.04143 -0.902596
v 0.472549 0.989394 -0.928114
v 0.432126 1.03795 -0.936251
v 0.451608 0.928659 -0.943913
v 0.421045 0.879223 -0.944793
v 0.392293 0.922428 -0.966303
v 0.415462 0.981496 -0.960606
v 0.380951 1.02815 -0.95725
v 0.360246 0.968099 -0.97287
v 0.327343 1.01276 -0.963995
v 0.440652 1.08627 -0.895622
v 0.383566 1.07838 -0.928114
v 0.328711 1.06388 -0.940746
v 0.331622 1.10671 -0.9045
v 0.387814 1.12242 -0.878929
v 0.335857 1.13797 -0.858015
v 0.287067 1.14355 -0.814808
v 0.28138 1.12017 -0.86772
v 0.237757 1.11745 -0.821374
v 0.277131 1.07613 -0.916904
v 0.27572 1.02592 -0.946167
v 0.229675 1.03367 -0.914929
v 0.227783 1.08177 -0.873203
v 0.196915 1.07896 -0.82403
v 0.192714 1.03542 -0.872658
v 0.16765 1.03103 -0.822573
v 0.258619 1.1372 -0.764517
v 0.205023 1.09881 -0.77
v 0.170211 1.05226 -0.770623
v 0.186382 1.06607 -0.718626
v 0.23161 1.11019 -0.710499
v 0.214933 1.07141 -0.670539
v 0.220515 1.02263 -0.627332
v 0.18366 1.02245 -0.67228
v 0.197122 0.972206 -0.6355
v 0.157073 1.01106 -0.731781
v 0.149507 0.992212 -0.786244
v 0.14655 0.950546 -0.748678
v 0.162719 0.961713 -0.68808
v 0.185291 0.920465 -0.653907
v 0.159004 0.909206 -0.712735
v 0.185922 0.871339 -0.681152
v 0.246393 0.980998 -0.596087
v 0.225452 0.920263 -0.611886
v 0.221028 0.868225 -0.637404
v 0.265875 0.871703 -0.603749
v 0.282538 0.928161 -0.579394
v 0.31705 0.881509 -0.58275
v 0.36929 0.845773 -0.599254
v 0.314435 0.83128 -0.611886
v 0.366378 0.802951 -0.6355
v 0.257348 0.823382 -0.644378
v 0.216827 0.82468 -0.686032
v 0.257794 0.787929 -0.697304
v 0.310186 0.787237 -0.661071
v 0.362144 0.77169 -0.681985
v 0.305703 0.763882 -0.71411
v 0.356909 0.754371 -0.73517
v 0.420869 0.833531 -0.623096
v 0.41662 0.789488 -0.67228
v 0.410933 0.766108 -0.725192
v 0.460244 0.792211 -0.718626
v 0.470217 0.827885 -0.666797
v 0.501086 0.830693 -0.71597
v 0.492978 0.810851 -0.77
v 0.439381 0.772455 -0.775483
v 0.384647 0.754849 -0.78402
v 0.409671 0.770551 -0.831803
v 0.46639 0.799464 -0.829501
v 0.430077 0.80028 -0.874882
v 0.231443 0.837271 -0.887557
v 0.245363 0.875508 -0.92629
v 0.281099 0.823268 -0.909786
v 0.267172 0.919782 -0.953125
v 0.299106 0.86514 -0.945857
v 0.335925 0.819278 -0.921374
v 0.29521 0.966724 -0.966021
v 0.328741 0.91937 -0.969477
v 0.364886 0.866532 -0.952785
v 0.391745 0.825608 -0.921439
v 0.196573 0.88109 -0.883083
v 0.173307 0.930522 -0.87
v 0.213613 0.923625 -0.918848
v 0.163415 0.981804 -0.849305
v 0.1939 0.9835 -0.898767
v 0.243248 0.977854 -0.942468
v 0.202156 0.8323 -0.839875
v 0.184047 0.836656 -0.786875
v 0.169912 0.879923 -0.831445
v 0.178495 0.850008 -0.732589
v 0.155845 0.89045 -0.767662
v 0.150198 0.939798 -0.811363
v 0.254396 0.796564 -0.856379
v 0.28455 0.767904 -0.818626
v 0.228396 0.79443 -0.804436
v 0.319611 0.753474 -0.777171
v 0.267167 0.768812 -0.757345
v 0.214329 0.804957 -0.740653
v 0.308243 0.785294 -0.875146
v 0.374023 0.786685 -0.882074
v 0.347014 0.759676 -0.828056
f 1 2 3
f 2 4 5
f 3 5 6
f 2 5 3
f 4 7 8
f 7 9 10
f 8 10 11
f 7 10 8
f 6 12 13
f 12 11 14
f 13 14 15
f 12 14 13
f 4 8 5
f 8 11 12
f 5 12 6
f 8 12 5
f 1 3 16
f 3 6 17
f 16 17 18
f 3 17 16
f 6 13 19
f 13 15 20
f 19 20 21
f 13 20 19
f 18 22 23
f 22 21 24
f 23 24 25
f 22 24 23
f 6 19 17
f 19 21 22
f 17 22 18
f 19 22 17
f 1 16 26
f 16 18 27
f 26 27 28
f 16 27 26
f 18 23 29
f 23 25 30
f 29 30 31
f 23 30 29
f 28 32 33
f 32 31 34
f 33 34 35
f 32 34 33
f 18 29 27
f 29 31 32
f 27 32 28
f 29 32 27
f 1 26 36
f 26 28 37
f 36 37 38
f 26 37 36
f 28 33 39
f 33 35 40
f 39 40 41
f 33 40 39
f 38 42 43
f 42 41 44
f 43 44 45
f 42 44 43
f 28 39 37
f 39 41 42
f 37 42 38
f 39 42 37
f 1 36 2
f 36 38 46
f 2 46 4
f 36 46 2
f 38 43 47
f 43 45 48
f 47 48 49
f 43 48 47
f 4 50 7
f 50 49 51
f 7 51 9
f 50 51 7
f 38 47 46
f 47 49 50
f 46 50 4
f 47 50 46
f 9 52 10
f 52 53 54
f 10 54 11
f 52 54 10
f 53 55 56
f 55 57 58
f 56 58 59
f 55 58 56
f 11 60 14
f 60 59 61
f 14 61 15
f 60 61 14
f 53 56 54
f 56 59 60
f 54 60 11
f 56 60 54
f 15 61 62
f 61 59 63
f 62 63 64
f 61 63 62
f 59 58 65
f 58 57 66
f 65 66 67
f 58 66 65
f 64 68 69
f 68 67 70
f 69 70 71
f 68 70 69
f 59 65 63
f 65 67 68
f 63 68 64
f 65 68 63
f 15 62 20
f 62 64 72
f 20 72 21
f 62 72 20
f 64 69 73
f 69 71 74
f 73 74 75
f 69 74 73
f 21 76 24
f 76 75 77
f 24 77 25
f 76 77 24
f 64 73 72
f 73 75 76
f 72 76 21
f 73 76 72
f 25 77 78
f 77 75 79
f 78 79 80
f 77 79 78
f 75 74 81
f 74 71 82
f 81 82 83
f 74 82 81
f 80 84 85
f 84 83 86
f 85 86 87
f 84 86 85
f 75 81 79
f 81 83 84
f 79 84 80
f 81 84 79
f 25 78 30
f 78 80 88
f 30 88 31
f 78 88 30
f 80 85 89
f 85 87 90
f 89 90 91
f 85 90 89
f 31 92 34
f 92 91 93
f 34 93 35
f 92 93 34
f 80 89 88
f 89 91 92
f 88 92 31
f 89 92 88
f 35 93 94
f 93 91 95
f 94 95 96
f 93 95 94
f 91 90 97
f 90 87 98
f 97 98 99
f 90 98 97
f 96 100 101
f 100 99 102
f 101 102 103
f 100 102 101
f 91 97 95
f 97 99 100
f 95 100 96
f 97 100 95
f 35 94 40
f 94 96 104
f 40 104 41
f 94 104 40
f 96 101 105
f 101 103 106
f 105 106 107
f 101 106 105
f 41 108 44
f 108 107 109
f 44 109 45
f 108 109 44
f 96 105 104
f 105 107 108
f 104 108 41
f 105 108 104
f 45 109 110
f 109 107 111
f 110 111 112
f 109 111 110
f 107 106 113
f 106 103 114
f 113 114 115
f 106 114 113
f 112 116 117
f 116 115 118
f 117 118 119
f 116 118 117
f 107 113 111
f 113 115 116
f 111 116 112
f 113 116 111
f 45 110 48
f 110 112 120
f 48 120 49
f 110 120 48
f 112 117 121
f 117 119 122
f 121 122 123
f 117 122 121
f 49 124 51
f 124 123 125
f 51 125 9
f 124 125 51
f 112 121 120
f 121 123 124
f 120 124 49
f 121 124 120
f 9 125 52
f 125 123 126
f 52 126 53
f 125 126 52
f 123 122 127
f 122 119 128
f 127 128 129
f 122 128 127
f 53 130 55
f 130 129 131
f 55 131 57
f 130 131 55
f 123 127 126
f 127 129 130
f 126 130 53
f 127 130 126
f 132 133 134
f 133 135 136
f 134 136 137
f 133 136 134
f 135 138 139
f 138 71 70
f 139 70 67
f 138 70 139
f 137 140 141
f 140 67 66
f 141 66 57
f 140 66 141
f 135 139 136
f 139 67 140
f 136 140 137
f 139 140 136
f 132 142 133
f 142 143 144
f 133 144 135
f 142 144 133
f 143 145 146
f 145 87 86
f 146 86 83
f 145 86 146
f 135 147 138
f 147 83 82
f 138 82 71
f 147 82 138
f 143 146 144
f 146 83 147
f 144 147 135
f 146 147 144
f 132 148 142
f 148 149 150
f 142 150 143
f 148 150 142
f 149 151 152
f 151 103 102
f 152 102 99
f 151 102 152
f 143 153 145
f 153 99 98
f 145 98 87
f 153 98 145
f 149 152 150
f 152 99 153
f 150 153 143
f 152 153 150
f 132 154 148
f 154 155 156
f 148 156 149
f 154 156 148
f 155 157 158
f 157 119 118
f 158 118 115
f 157 118 158
f 149 159 151
f 159 115 114
f 151 114 103
f 159 114 151
f 155 158 156
f 158 115 159
f 156 159 149
f 158 159 156
f 132 134 154
f 134 137 160
f 154 160 155
f 134 160 154
f 137 141 161
f 141 57 131
f 161 131 129
f 141 131 161
f 155 162 157
f 162 129 128
f 157 128 119
f 162 128 157
f 137 161 160
f 161 129 162
f 160 162 155
f 161 162 160
