v 0.466557 1.07359 -0.652443
v 0.501427 1.02977 -0.656917
v 0.495844 1.07856 -0.700125
v 0.524694 0.980338 -0.67
v 0.528089 1.03094 -0.708555
v 0.513953 1.0742 -0.753125
v 0.534586 0.929056 -0.690695
v 0.547802 0.971061 -0.728637
v 0.530351 0.879827 -0.717427
v 0.548493 0.918647 -0.753756
v 0.55145 0.960314 -0.791322
v 0.542156 1.02041 -0.772338
v 0.519506 1.06085 -0.807411
v 0.538996 1.00165 -0.827265
v 0.512078 1.03952 -0.858848
v 0.443604 1.1143 -0.683621
v 0.469605 1.11643 -0.735564
v 0.41345 1.14296 -0.721374
v 0.483671 1.1059 -0.799347
v 0.481173 1.08618 -0.853968
v 0.440207 1.12293 -0.842696
v 0.430834 1.14205 -0.782655
v 0.37839 1.15739 -0.762829
v 0.392297 1.14698 -0.82589
v 0.341092 1.15649 -0.80483
v 0.416901 1.08759 -0.630214
v 0.389758 1.12557 -0.664854
v 0.362076 1.09158 -0.618626
v 0.350987 1.15118 -0.711944
v 0.258389 1.15739 -0.762829
v 0.221092 1.15649 -0.80483
v 0.193354 1.15601 -0.75598
v 0.230987 1.15118 -0.711944
v 0.168329 1.14031 -0.708197
v 0.242076 1.09158 -0.618626
v 0.203978 1.12417 -0.657926
v 0.186255 1.08525 -0.618561
v 0.147923 1.11058 -0.665118
v 0.133689 1.06909 -0.630024
v 0.323978 1.12417 -0.657926
v 0.452637 1.03535 -0.61371
v 0.398894 1.04572 -0.594143
v 0.430828 0.991078 -0.586875
v 0.213114 1.04433 -0.587215
v 0.156956 1.03164 -0.595207
v 0.185707 0.988432 -0.573697
v 0.369259 0.99149 -0.570523
v 0.40279 0.944136 -0.573979
v 0.249259 0.99149 -0.570523
v 0.217754 0.94276 -0.56713
v 0.337754 0.94276 -0.56713
v 0.370657 0.898099 -0.576005
v 0.333114 1.04433 -0.587215
v 0.484387 0.987235 -0.621152
v 0.454752 0.933006 -0.597532
v 0.42228 0.884938 -0.593833
v 0.468325 0.877188 -0.625071
v 0.5041 0.92736 -0.641233
v 0.505286 0.87544 -0.667342
v 0.527789 0.858599 -0.769377
v 0.511618 0.844788 -0.821374
v 0.540928 0.899798 -0.808219
v 0.483068 0.839445 -0.869461
v 0.51434 0.888411 -0.86772
v 0.444312 0.842977 -0.909976
v 0.477485 0.888235 -0.912668
v 0.500878 0.938653 -0.9045
v 0.535281 0.949147 -0.85192
v 0.512709 0.990395 -0.886093
v 0.476973 1.04264 -0.902596
v 0.472549 0.990597 -0.928114
v 0.432126 1.03916 -0.936251
v 0.451608 0.929861 -0.943913
v 0.421045 0.880426 -0.944793
v 0.392293 0.923631 -0.966303
v 0.415462 0.982699 -0.960606
v 0.380951 1.02935 -0.95725
v 0.360246 0.969302 -0.97287
v 0.327343 1.01396 -0.963995
v 0.440652 1.08748 -0.895622
v 0.383566 1.07958 -0.928114
v 0.26095 1.02935 -0.95725
v 0.207343 1.01396 -0.963995
v 0.20871 1.06509 -0.940746
v 0.328711 1.06509 -0.940746
v 0.331622 1.10791 -0.9045
v 0.387814 1.12362 -0.878929
v 0.335857 1.13917 -0.858015
v 0.215857 1.13917 -0.858015
v 0.167067 1.14475 -0.814808
v 0.211622 1.10791 -0.9045
v 0.16138 1.12137 -0.86772
v 0.117757 1.11865 -0.821374
v 0.157131 1.07733 -0.916904
v 0.15572 1.02712 -0.946167
v 0.109675 1.03487 -0.914929
v 0.107783 1.08297 -0.873203
v 0.0769144 1.08017 -0.82403
v 0.072714 1.03662 -0.872658
v 0.0476496 1.03224 -0.822573
v 0.138619 1.13841 -0.764517
v 0.0850226 1.10001 -0.77
v 0.0502109 1.05346 -0.770623
v 0.0663822 1.06727 -0.718626
v 0.11161 1.1114 -0.710499
v 0.0949325 1.07262 -0.670539
v 0.100515 1.02383 -0.627332
v 0.06366 1.02365 -0.67228
v 0.0771224 0.973409 -0.6355
v 0.0370725 1.01226 -0.731781
v 0.0295067 0.993415 -0.786244
v 0.02655 0.951749 -0.748678
v 0.0427189 0.962916 -0.68808
v 0.0652911 0.921668 -0.653907
v 0.0390044 0.910409 -0.712735
v 0.0659218 0.872542 -0.681152
v 0.126393 0.982201 -0.596087
v 0.105452 0.921466 -0.611886
v 0.101027 0.869428 -0.637404
v 0.145875 0.872906 -0.603749
v 0.162538 0.929364 -0.579394
v 0.19705 0.882712 -0.58275
v 0.250657 0.898099 -0.576005
v 0.31705 0.882712 -0.58275
v 0.36929 0.846976 -0.599254
v 0.194435 0.832483 -0.611886
v 0.24929 0.846976 -0.599254
v 0.246378 0.804154 -0.6355
v 0.137348 0.824585 -0.644378
v 0.0968269 0.825883 -0.686032
v 0.137793 0.789131 -0.697304
v 0.190186 0.78844 -0.661071
v 0.242143 0.772893 -0.681985
v 0.185703 0.765085 -0.71411
v 0.236908 0.755574 -0.73517
v 0.366378 0.804154 -0.6355
v 0.420869 0.834734 -0.623096
v 0.362144 0.772893 -0.681985
v 0.41662 0.790691 -0.67228
v 0.356909 0.755574 -0.73517
v 0.410933 0.767311 -0.725192
v 0.460244 0.793414 -0.718626
v 0.470217 0.829088 -0.666797
v 0.501086 0.831896 -0.71597
v 0.492978 0.812054 -0.77
v 0.439381 0.773658 -0.775483
v 0.384647 0.756052 -0.78402
v 0.409671 0.771753 -0.831803
v 0.46639 0.800667 -0.829501
v 0.430077 0.801483 -0.874882
v 0.111443 0.838474 -0.887557
v 0.125363 0.87671 -0.92629
v 0.161099 0.82447 -0.909786
v 0.147172 0.920985 -0.953125
v 0.179106 0.866343 -0.945857
v 0.215924 0.820481 -0.921374
v 0.17521 0.967927 -0.966021
v 0.208741 0.920572 -0.969477
v 0.240246 0.969302 -0.97287
v 0.328741 0.920572 -0.969477
v 0.335925 0.820481 -0.921374
v 0.364886 0.867735 -0.952785
v 0.391745 0.826811 -0.921439
v 0.244886 0.867735 -0.952785
v 0.0765732 0.882293 -0.883083
v 0.0533066 0.931725 -0.87
v 0.0936131 0.924827 -0.918848
v 0.0434144 0.983007 -0.849305
v 0.0738999 0.984703 -0.898767
v 0.123248 0.979057 -0.942468
v 0.0821557 0.833503 -0.839875
v 0.0640468 0.837859 -0.786875
v 0.0499115 0.881126 -0.831445
v 0.0584946 0.851211 -0.732589
v 0.0358447 0.891653 -0.767662
v 0.0301982 0.941001 -0.811363
v 0.134396 0.797767 -0.856379
v 0.16455 0.769107 -0.818626
v 0.108396 0.795633 -0.804436
v 0.199611 0.754676 -0.777171
v 0.147167 0.770015 -0.757345
v 0.0943288 0.80616 -0.740653
v 0.188242 0.786497 -0.875146
v 0.374023 0.787888 -0.882074
v 0.227013 0.760879 -0.828056
v 0.347014 0.760879 -0.828056
v 0.319611 0.754676 -0.777171
v 0.254022 0.787888 -0.882074
f 1 2 3
f 2 4 5
f 3 5 6
f 2 5 3
f 4 7 8
f 7 9 10
f 8 10 11
f 7 10 8
f 6 12 13
f 12 11 14
f 13 14 15
f 12 14 13
f 4 8 5
f 8 11 12
f 5 12 6
f 8 12 5
f 1 3 16
f 3 6 17
f 16 17 18
f 3 17 16
f 6 13 19
f 13 15 20
f 19 20 21
f 13 20 19
f 18 22 23
f 22 21 24
f 23 24 25
f 22 24 23
f 6 19 17
f 19 21 22
f 17 22 18
f 19 22 17
f 1 16 26
f 16 18 27
f 26 27 28
f 16 27 26
f 18 23 29
f 30 31 32
f 33 32 34
f 30 32 33
f 35 36 37
f 36 34 38
f 37 38 39
f 36 38 37
f 18 29 27
f 33 34 36
f 27 40 28
f 29 40 27
f 1 26 41
f 26 28 42
f 41 42 43
f 26 42 41
f 35 37 44
f 37 39 45
f 44 45 46
f 37 45 44
f 43 47 48
f 49 46 50
f 48 51 52
f 47 51 48
f 28 53 42
f 44 46 49
f 42 47 43
f 53 47 42
f 1 41 2
f 41 43 54
f 2 54 4
f 41 54 2
f 43 48 55
f 48 52 56
f 55 56 57
f 48 56 55
f 4 58 7
f 58 57 59
f 7 59 9
f 58 59 7
f 43 55 54
f 55 57 58
f 54 58 4
f 55 58 54
f 9 60 10
f 60 61 62
f 10 62 11
f 60 62 10
f 61 63 64
f 63 65 66
f 64 66 67
f 63 66 64
f 11 68 14
f 68 67 69
f 14 69 15
f 68 69 14
f 61 64 62
f 64 67 68
f 62 68 11
f 64 68 62
f 15 69 70
f 69 67 71
f 70 71 72
f 69 71 70
f 67 66 73
f 66 65 74
f 73 74 75
f 66 74 73
f 72 76 77
f 76 75 78
f 77 78 79
f 76 78 77
f 67 73 71
f 73 75 76
f 71 76 72
f 73 76 71
f 15 70 20
f 70 72 80
f 20 80 21
f 70 80 20
f 72 77 81
f 82 83 84
f 81 85 86
f 77 85 81
f 21 87 24
f 87 86 88
f 24 88 25
f 87 88 24
f 72 81 80
f 81 86 87
f 80 87 21
f 81 87 80
f 31 89 90
f 89 91 92
f 90 92 93
f 89 92 90
f 91 84 94
f 84 83 95
f 94 95 96
f 84 95 94
f 93 97 98
f 97 96 99
f 98 99 100
f 97 99 98
f 91 94 92
f 94 96 97
f 92 97 93
f 94 97 92
f 31 90 32
f 90 93 101
f 32 101 34
f 90 101 32
f 93 98 102
f 98 100 103
f 102 103 104
f 98 103 102
f 34 105 38
f 105 104 106
f 38 106 39
f 105 106 38
f 93 102 101
f 102 104 105
f 101 105 34
f 102 105 101
f 39 106 107
f 106 104 108
f 107 108 109
f 106 108 107
f 104 103 110
f 103 100 111
f 110 111 112
f 103 111 110
f 109 113 114
f 113 112 115
f 114 115 116
f 113 115 114
f 104 110 108
f 110 112 113
f 108 113 109
f 110 113 108
f 39 107 45
f 107 109 117
f 45 117 46
f 107 117 45
f 109 114 118
f 114 116 119
f 118 119 120
f 114 119 118
f 46 121 50
f 121 120 122
f 50 122 123
f 121 122 50
f 109 118 117
f 118 120 121
f 117 121 46
f 118 121 117
f 52 124 125
f 122 120 126
f 127 126 128
f 122 126 127
f 120 119 129
f 119 116 130
f 129 130 131
f 119 130 129
f 128 132 133
f 132 131 134
f 133 134 135
f 132 134 133
f 120 129 126
f 129 131 132
f 126 132 128
f 129 132 126
f 52 125 56
f 125 136 137
f 56 137 57
f 125 137 56
f 136 138 139
f 138 140 141
f 139 141 142
f 138 141 139
f 57 143 59
f 143 142 144
f 59 144 9
f 143 144 59
f 136 139 137
f 139 142 143
f 137 143 57
f 139 143 137
f 9 144 60
f 144 142 145
f 60 145 61
f 144 145 60
f 142 141 146
f 141 140 147
f 146 147 148
f 141 147 146
f 61 149 63
f 149 148 150
f 63 150 65
f 149 150 63
f 142 146 145
f 146 148 149
f 145 149 61
f 146 149 145
f 151 152 153
f 152 154 155
f 153 155 156
f 152 155 153
f 154 157 158
f 157 83 159
f 160 78 75
f 157 159 158
f 161 162 163
f 162 75 74
f 163 74 65
f 162 74 163
f 154 158 155
f 160 75 162
f 155 164 156
f 158 164 155
f 151 165 152
f 165 166 167
f 152 167 154
f 165 167 152
f 166 168 169
f 168 100 99
f 169 99 96
f 168 99 169
f 154 170 157
f 170 96 95
f 157 95 83
f 170 95 157
f 166 169 167
f 169 96 170
f 167 170 154
f 169 170 167
f 151 171 165
f 171 172 173
f 165 173 166
f 171 173 165
f 172 174 175
f 174 116 115
f 175 115 112
f 174 115 175
f 166 176 168
f 176 112 111
f 168 111 100
f 176 111 168
f 172 175 173
f 175 112 176
f 173 176 166
f 175 176 173
f 151 177 171
f 177 178 179
f 171 179 172
f 177 179 171
f 178 180 181
f 180 135 134
f 181 134 131
f 180 134 181
f 172 182 174
f 182 131 130
f 174 130 116
f 182 130 174
f 178 181 179
f 181 131 182
f 179 182 172
f 181 182 179
f 151 153 177
f 153 156 183
f 177 183 178
f 153 183 177
f 161 163 184
f 163 65 150
f 184 150 148
f 163 150 184
f 178 185 180
f 186 148 147
f 187 147 140
f 186 147 187
f 156 188 183
f 184 148 186
f 183 185 178
f 188 185 183
f 25 31 23
f 23 31 30
f 23 30 29
f 29 30 33
f 40 36 28
f 28 36 35
f 29 33 40
f 40 33 36
f 51 50 52
f 52 50 123
f 47 49 51
f 51 49 50
f 28 35 53
f 53 35 44
f 53 44 47
f 47 44 49
f 78 159 79
f 79 159 83
f 79 83 77
f 77 83 82
f 85 84 86
f 86 84 91
f 77 82 85
f 85 82 84
f 86 91 88
f 88 91 89
f 88 89 25
f 25 89 31
f 52 123 124
f 124 123 122
f 124 122 125
f 125 122 127
f 125 127 136
f 136 127 128
f 136 128 138
f 138 128 133
f 138 133 140
f 140 133 135
f 160 158 78
f 78 158 159
f 161 156 162
f 162 156 164
f 162 164 160
f 160 164 158
f 184 188 161
f 161 188 156
f 140 135 187
f 187 135 180
f 187 180 186
f 186 180 185
f 186 185 184
f 184 185 188
