v 0.346557 1.07223 -0.652443
v 0.381427 1.02841 -0.656917
v 0.375844 1.0772 -0.700125
v 0.404693 0.978982 -0.67
v 0.408089 1.02958 -0.708555
v 0.393953 1.07285 -0.753125
v 0.414586 0.9277 -0.690695
v 0.427802 0.969706 -0.728637
v 0.41035 0.878472 -0.717427
v 0.428493 0.917292 -0.753756
v 0.43145 0.958958 -0.791322
v 0.422155 1.01905 -0.772338
v 0.399505 1.0595 -0.807411
v 0.418996 1.0003 -0.827265
v 0.392078 1.03817 -0.858848
v 0.323604 1.11294 -0.683621
v 0.349604 1.11507 -0.735564
v 0.29345 1.1416 -0.721374
v 0.363671 1.10455 -0.799347
v 0.361173 1.08482 -0.853968
v 0.320207 1.12158 -0.842696
v 0.310833 1.14069 -0.782655
v 0.258389 1.15603 -0.762829
v 0.272297 1.14562 -0.82589
v 0.221092 1.15513 -0.80483
v 0.296901 1.08624 -0.630214
v 0.269758 1.12421 -0.664854
v 0.242076 1.09023 -0.618626
v 0.230987 1.14983 -0.711944
v 0.193354 1.15466 -0.75598
v 0.168329 1.13895 -0.708197
v 0.203978 1.12282 -0.657926
v 0.186255 1.0839 -0.618561
v 0.147923 1.10922 -0.665118
v 0.133689 1.06773 -0.630024
v 0.332637 1.034 -0.61371
v 0.278894 1.04436 -0.594143
v 0.310828 0.989723 -0.586875
v 0.213114 1.04297 -0.587215
v 0.156956 1.03028 -0.595207
v 0.185707 0.987076 -0.573697
v 0.249259 0.990135 -0.570523
v 0.28279 0.94278 -0.573979
v 0.217754 0.941405 -0.56713
v 0.250657 0.896744 -0.576005
v 0.364387 0.98588 -0.621152
v 0.334752 0.931651 -0.597532
v 0.30228 0.883582 -0.593833
v 0.348325 0.875833 -0.625071
v 0.3841 0.926004 -0.641233
v 0.385286 0.874085 -0.667342
v 0.407789 0.857244 -0.769377
v 0.391618 0.843432 -0.821374
v 0.420928 0.898443 -0.808219
v 0.363068 0.838089 -0.869461
v 0.39434 0.887056 -0.86772
v 0.324312 0.841621 -0.909976
v 0.357485 0.886879 -0.912668
v 0.380878 0.937298 -0.9045
v 0.415281 0.947791 -0.85192
v 0.392709 0.98904 -0.886093
v 0.356973 1.04128 -0.902596
v 0.352548 0.989241 -0.928114
v 0.312125 1.0378 -0.936251
v 0.331607 0.928506 -0.943913
v 0.301045 0.879071 -0.944793
v 0.272293 0.922276 -0.966303
v 0.295462 0.981344 -0.960606
v 0.26095 1.028 -0.95725
v 0.240246 0.967947 -0.97287
v 0.207343 1.01261 -0.963995
v 0.320652 1.08612 -0.895622
v 0.263566 1.07822 -0.928114
v 0.20871 1.06373 -0.940746
v 0.211622 1.10655 -0.9045
v 0.267814 1.12227 -0.878929
v 0.215857 1.13781 -0.858015
v 0.167067 1.1434 -0.814808
v 0.16138 1.12002 -0.86772
v 0.117757 1.11729 -0.821374
v 0.157131 1.07597 -0.916904
v 0.15572 1.02577 -0.946167
v 0.109675 1.03352 -0.914929
v 0.107783 1.08162 -0.873203
v 0.0769144 1.07881 -0.82403
v 0.072714 1.03527 -0.872658
v 0.0476496 1.03088 -0.822573
v 0.138619 1.13705 -0.764517
v 0.0850226 1.09865 -0.77
v 0.0502109 1.05211 -0.770623
v 0.0663822 1.06592 -0.718626
v 0.11161 1.11004 -0.710499
v 0.0949325 1.07126 -0.670539
v 0.100515 1.02247 -0.627332
v 0.06366 1.0223 -0.67228
v 0.0771224 0.972054 -0.6355
v 0.0370725 1.01091 -0.731781
v 0.0295067 0.99206 -0.786244
v 0.02655 0.950394 -0.748678
v 0.0427189 0.961561 -0.68808
v 0.0652911 0.920312 -0.653907
v 0.0390044 0.909054 -0.712735
v 0.0659218 0.871186 -0.681152
v 0.126393 0.980846 -0.596087
v 0.105452 0.92011 -0.611886
v 0.101027 0.868072 -0.637404
v 0.145875 0.87155 -0.603749
v 0.162538 0.928008 -0.579394
v 0.19705 0.881357 -0.58275
v 0.24929 0.84562 -0.599254
v 0.194435 0.831127 -0.611886
v 0.246378 0.802798 -0.6355
v 0.137348 0.82323 -0.644378
v 0.0968269 0.824528 -0.686032
v 0.137793 0.787776 -0.697304
v 0.190186 0.787085 -0.661071
v 0.242143 0.771538 -0.681985
v 0.185703 0.763729 -0.71411
v 0.236908 0.754218 -0.73517
v 0.300869 0.833379 -0.623096
v 0.29662 0.789336 -0.67228
v 0.290933 0.765955 -0.725192
v 0.340244 0.792058 -0.718626
v 0.350217 0.827732 -0.666797
v 0.381086 0.83054 -0.71597
v 0.372977 0.810698 -0.77
v 0.319381 0.772302 -0.775483
v 0.264647 0.754696 -0.78402
v 0.289671 0.770398 -0.831803
v 0.34639 0.799311 -0.829501
v 0.310077 0.800127 -0.874882
v 0.111443 0.837119 -0.887557
v 0.125363 0.875355 -0.92629
v 0.161099 0.823115 -0.909786
v 0.147172 0.919629 -0.953125
v 0.179106 0.864988 -0.945857
v 0.215924 0.819126 -0.921374
v 0.17521 0.966571 -0.966021
v 0.208741 0.919217 -0.969477
v 0.244886 0.866379 -0.952785
v 0.271745 0.825455 -0.921439
v 0.0765732 0.880937 -0.883083
v 0.0533066 0.930369 -0.87
v 0.0936131 0.923472 -0.918848
v 0.0434144 0.981651 -0.849305
v 0.0738999 0.983347 -0.898767
v 0.123248 0.977701 -0.942468
v 0.0821557 0.832148 -0.839875
v 0.0640468 0.836504 -0.786875
v 0.0499115 0.87977 -0.831445
v 0.0584946 0.849855 -0.732589
v 0.0358447 0.890298 -0.767662
v 0.0301982 0.939646 -0.811363
v 0.134396 0.796411 -0.856379
v 0.16455 0.767751 -0.818626
v 0.108396 0.794277 -0.804436
v 0.199611 0.753321 -0.777171
v 0.147167 0.768659 -0.757345
v 0.0943288 0.804805 -0.740653
v 0.188242 0.785141 -0.875146
v 0.254022 0.786532 -0.882074
v 0.227013 0.759523 -0.828056
f 1 2 3
f 2 4 5
f 3 5 6
f 2 5 3
f 4 7 8
f 7 9 10
f 8 10 11
f 7 10 8
f 6 12 13
f 12 11 14
f 13 14 15
f 12 14 13
f 4 8 5
f 8 11 12
f 5 12 6
f 8 12 5
f 1 3 16
f 3 6 17
f 16 17 18
f 3 17 16
f 6 13 19
f 13 15 20
f 19 20 21
f 13 20 19
f 18 22 23
f 22 21 24
f 23 24 25
f 22 24 23
f 6 19 17
f 19 21 22
f 17 22 18
f 19 22 17
f 1 16 26
f 16 18 27
f 26 27 28
f 16 27 26
f 18 23 29
f 23 25 30
f 29 30 31
f 23 30 29
f 28 32 33
f 32 31 34
f 33 34 35
f 32 34 33
f 18 29 27
f 29 31 32
f 27 32 28
f 29 32 27
f 1 26 36
f 26 28 37
f 36 37 38
f 26 37 36
f 28 33 39
f 33 35 40
f 39 40 41
f 33 40 39
f 38 42 43
f 42 41 44
f 43 44 45
f 42 44 43
f 28 39 37
f 39 41 42
f 37 42 38
f 39 42 37
f 1 36 2
f 36 38 46
f 2 46 4
f 36 46 2
f 38 43 47
f 43 45 48
f 47 48 49
f 43 48 47
f 4 50 7
f 50 49 51
f 7 51 9
f 50 51 7
f 38 47 46
f 47 49 50
f 46 50 4
f 47 50 46
f 9 52 10
f 52 53 54
f 10 54 11
f 52 54 10
f 53 55 56
f 55 57 58
f 56 58 59
f 55 58 56
f 11 60 14
f 60 59 61
f 14 61 15
f 60 61 14
f 53 56 54
f 56 59 60
f 54 60 11
f 56 60 54
f 15 61 62
f 61 59 63
f 62 63 64
f 61 63 62
f 59 58 65
f 58 57 66
f 65 66 67
f 58 66 65
f 64 68 69
f 68 67 70
f 69 70 71
f 68 70 69
f 59 65 63
f 65 67 68
f 63 68 64
f 65 68 63
f 15 62 20
f 62 64 72
f 20 72 21
f 62 72 20
f 64 69 73
f 69 71 74
f 73 74 75
f 69 74 73
f 21 76 24
f 76 75 77
f 24 77 25
f 76 77 24
f 64 73 72
f 73 75 76
f 72 76 21
f 73 76 72
f 25 77 78
f 77 75 79
f 78 79 80
f 77 79 78
f 75 74 81
f 74 71 82
f 81 82 83
f 74 82 81
f 80 84 85
f 84 83 86
f 85 86 87
f 84 86 85
f 75 81 79
f 81 83 84
f 79 84 80
f 81 84 79
f 25 78 30
f 78 80 88
f 30 88 31
f 78 88 30
f 80 85 89
f 85 87 90
f 89 90 91
f 85 90 89
f 31 92 34
f 92 91 93
f 34 93 35
f 92 93 34
f 80 89 88
f 89 91 92
f 88 92 31
f 89 92 88
f 35 93 94
f 93 91 95
f 94 95 96
f 93 95 94
f 91 90 97
f 90 87 98
f 97 98 99
f 90 98 97
f 96 100 101
f 100 99 102
f 101 102 103
f 100 102 101
f 91 97 95
f 97 99 100
f 95 100 96
f 97 100 95
f 35 94 40
f 94 96 104
f 40 104 41
f 94 104 40
f 96 101 105
f 101 103 106
f 105 106 107
f 101 106 105
f 41 108 44
f 108 107 109
f 44 109 45
f 108 109 44
f 96 105 104
f 105 107 108
f 104 108 41
f 105 108 104
f 45 109 110
f 109 107 111
f 110 111 112
f 109 111 110
f 107 106 113
f 106 103 114
f 113 114 115
f 106 114 113
f 112 116 117
f 116 115 118
f 117 118 119
f 116 118 117
f 107 113 111
f 113 115 116
f 111 116 112
f 113 116 111
f 45 110 48
f 110 112 120
f 48 120 49
f 110 120 48
f 112 117 121
f 117 119 122
f 121 122 123
f 117 122 121
f 49 124 51
f 124 123 125
f 51 125 9
f 124 125 51
f 112 121 120
f 121 123 124
f 120 124 49
f 121 124 120
f 9 125 52
f 125 123 126
f 52 126 53
f 125 126 52
f 123 122 127
f 122 119 128
f 127 128 129
f 122 128 127
f 53 130 55
f 130 129 131
f 55 131 57
f 130 131 55
f 123 127 126
f 127 129 130
f 126 130 53
f 127 130 126
f 132 133 134
f 133 135 136
f 134 136 137
f 133 136 134
f 135 138 139
f 138 71 70
f 139 70 67
f 138 70 139
f 137 140 141
f 140 67 66
f 141 66 57
f 140 66 141
f 135 139 136
f 139 67 140
f 136 140 137
f 139 140 136
f 132 142 133
f 142 143 144
f 133 144 135
f 142 144 133
f 143 145 146
f 145 87 86
f 146 86 83
f 145 86 146
f 135 147 138
f 147 83 82
f 138 82 71
f 147 82 138
f 143 146 144
f 146 83 147
f 144 147 135
f 146 147 144
f 132 148 142
f 148 149 150
f 142 150 143
f 148 150 142
f 149 151 152
f 151 103 102
f 152 102 99
f 151 102 152
f 143 153 145
f 153 99 98
f 145 98 87
f 153 98 145
f 149 152 150
f 152 99 153
f 150 153 143
f 152 153 150
f 132 154 148
f 154 155 156
f 148 156 149
f 154 156 148
f 155 157 158
f 157 119 118
f 158 118 115
f 157 118 158
f 149 159 151
f 159 115 114
f 151 114 103
f 159 114 151
f 155 158 156
f 158 115 159
f 156 159 149
f 158 159 156
f 132 134 154
f 134 137 160
f 154 160 155
f 134 160 154
f 137 141 161
f 141 57 131
f 161 131 129
f 141 131 161
f 155 162 157
f 162 129 128
f 157 128 119
f 162 128 157
f 137 161 160
f 161 129 162
f 160 162 155
f 161 162 160
