v 0.826557 1.18571 0.0275571
v 0.861427 1.14189 0.0230827
v 0.855844 1.19068 -0.0201246
v 0.884694 1.09246 0.0100001
v 0.888089 1.14306 -0.0285553
v 0.873953 1.18632 -0.0731253
v 0.894586 1.04118 -0.0106949
v 0.907802 1.08318 -0.0486365
v 0.890351 0.991946 -0.0374269
v 0.908493 1.03077 -0.0737562
v 0.91145 1.07243 -0.111322
v 0.873953 1.22409 -0.233125
v 0.902156 1.17029 -0.252338
v 0.879506 1.21074 -0.287411
v 0.91145 1.1102 -0.271322
v 0.898996 1.15154 -0.307265
v 0.872078 1.1894 -0.338848
v 0.907802 1.12094 -0.208636
v 0.902156 1.13253 -0.0923381
v 0.803604 1.22642 -0.00362088
v 0.829605 1.22855 -0.0555644
v 0.77345 1.25508 -0.0413743
v 0.843671 1.25579 -0.279347
v 0.841173 1.23606 -0.333968
v 0.800207 1.27281 -0.322696
v 0.77345 1.29284 -0.201374
v 0.790834 1.29193 -0.262655
v 0.73839 1.30727 -0.242829
v 0.752297 1.29686 -0.30589
v 0.701092 1.30637 -0.28483
v 0.829605 1.26631 -0.215564
v 0.776901 1.19971 0.0497862
v 0.749758 1.23769 0.0151463
v 0.722076 1.2037 0.0613744
v 0.710987 1.30107 -0.191944
v 0.673354 1.30589 -0.23598
v 0.710987 1.2633 -0.0319439
v 0.673354 1.26813 -0.0759797
v 0.648329 1.25243 -0.0281965
v 0.683978 1.23629 0.0220742
v 0.666255 1.19737 0.0614394
v 0.627923 1.2227 0.0148819
v 0.613689 1.18121 0.0499764
v 0.812637 1.14747 0.0662899
v 0.758894 1.15784 0.085857
v 0.790828 1.1032 0.0931254
v 0.693114 1.15645 0.0927849
v 0.636956 1.14376 0.0847927
v 0.665707 1.10055 0.106303
v 0.729259 1.10361 0.109477
v 0.76279 1.05626 0.106021
v 0.697754 1.05488 0.11287
v 0.730657 1.01022 0.103995
v 0.844387 1.09935 0.0588479
v 0.814752 1.04513 0.0824683
v 0.78228 0.997057 0.0861669
v 0.828325 0.989307 0.0549288
v 0.8641 1.03948 0.0387667
v 0.865286 0.987559 0.0126583
v 0.887789 0.970718 -0.0893769
v 0.887789 1.00848 -0.249377
v 0.871618 0.994671 -0.301374
v 0.900928 1.04968 -0.288219
v 0.908493 1.06853 -0.233756
v 0.900928 1.01192 -0.128219
v 0.843068 0.989328 -0.349461
v 0.87434 1.03829 -0.34772
v 0.804312 0.99286 -0.389976
v 0.837485 1.03812 -0.392668
v 0.860878 1.08854 -0.3845
v 0.895281 1.09903 -0.33192
v 0.872709 1.14028 -0.366093
v 0.836973 1.19252 -0.382596
v 0.832549 1.14048 -0.408114
v 0.792126 1.18904 -0.416251
v 0.811608 1.07974 -0.423913
v 0.781045 1.03031 -0.424793
v 0.752293 1.07351 -0.446303
v 0.775462 1.13258 -0.440606
v 0.740951 1.17923 -0.43725
v 0.720246 1.11919 -0.45287
v 0.687343 1.16385 -0.443994
v 0.800652 1.23736 -0.375622
v 0.743566 1.22946 -0.408114
v 0.688711 1.21497 -0.420746
v 0.691622 1.25779 -0.3845
v 0.747814 1.27351 -0.358929
v 0.695857 1.28905 -0.338015
v 0.647067 1.29464 -0.294808
v 0.64138 1.27125 -0.34772
v 0.597757 1.26853 -0.301374
v 0.637131 1.22721 -0.396904
v 0.63572 1.17701 -0.426167
v 0.589675 1.18476 -0.394929
v 0.587783 1.23286 -0.353203
v 0.556915 1.23005 -0.30403
v 0.552714 1.18651 -0.352658
v 0.52765 1.18212 -0.302573
v 0.618619 1.28829 -0.244517
v 0.648329 1.29019 -0.188197
v 0.565023 1.24989 -0.25
v 0.530211 1.20335 -0.250623
v 0.546382 1.21716 -0.198626
v 0.59161 1.22352 -0.0304989
v 0.546382 1.17939 -0.0386256
v 0.574933 1.18474 0.00946102
v 0.565023 1.21213 -0.09
v 0.618619 1.25052 -0.0845171
v 0.59161 1.26128 -0.190499
v 0.580515 1.13595 0.0526683
v 0.54366 1.13577 0.0077198
v 0.557123 1.08553 0.0444997
v 0.530211 1.16558 -0.0906231
v 0.517073 1.12438 -0.0517813
v 0.509507 1.1433 -0.266244
v 0.509507 1.10553 -0.106244
v 0.50655 1.06387 -0.068678
v 0.517073 1.16215 -0.211781
v 0.522719 1.07504 -0.00807966
v 0.545291 1.03379 0.0260927
v 0.519005 1.02253 -0.0327353
v 0.545922 0.984661 -0.00115173
v 0.606393 1.09432 0.0839134
v 0.585452 1.03359 0.0681139
v 0.581028 0.981547 0.0425964
v 0.625875 0.985025 0.0762508
v 0.642538 1.04148 0.100606
v 0.67705 0.994831 0.0972497
v 0.72929 0.959095 0.080746
v 0.674435 0.944602 0.0681139
v 0.726378 0.916273 0.0444997
v 0.617348 0.936705 0.0356219
v 0.576827 0.938002 -0.00603173
v 0.617794 0.901251 -0.0173037
v 0.670186 0.900559 0.0189294
v 0.722144 0.885012 -0.00198513
v 0.665703 0.877204 -0.0341095
v 0.716909 0.867693 -0.0551699
v 0.780869 0.946853 0.0569043
v 0.776621 0.902811 0.00771976
v 0.770933 0.87943 -0.0451923
v 0.820244 0.905533 -0.0386257
v 0.830217 0.941207 0.0132027
v 0.861086 0.944015 -0.0359698
v 0.852978 0.924173 -0.09
v 0.871618 0.956907 -0.141374
v 0.799381 0.885777 -0.0954829
v 0.744647 0.868171 -0.10402
v 0.769671 0.883873 -0.151803
v 0.82639 0.95055 -0.309501
v 0.769671 0.921637 -0.311803
v 0.790077 0.951366 -0.354882
v 0.799381 0.923541 -0.255483
v 0.852978 0.961937 -0.25
v 0.82639 0.912786 -0.149501
v 0.591443 0.988358 -0.367557
v 0.605363 1.02659 -0.40629
v 0.641099 0.974354 -0.389786
v 0.627172 1.07087 -0.433125
v 0.659106 1.01623 -0.425857
v 0.695925 0.970365 -0.401374
v 0.65521 1.11781 -0.446021
v 0.688741 1.07046 -0.449477
v 0.724886 1.01762 -0.432785
v 0.751745 0.976694 -0.401439
v 0.556573 1.03218 -0.363083
v 0.533307 1.08161 -0.35
v 0.573613 1.07471 -0.398848
v 0.523415 1.13289 -0.329305
v 0.5539 1.13459 -0.378767
v 0.603248 1.12894 -0.422468
v 0.562156 0.983387 -0.319875
v 0.544047 0.987743 -0.266875
v 0.529912 1.03101 -0.311445
v 0.544047 0.949978 -0.106875
v 0.538495 0.96333 -0.0525892
v 0.515845 1.00377 -0.0876618
v 0.510198 1.09088 -0.291363
v 0.50655 1.10163 -0.228678
v 0.515845 1.04154 -0.247662
v 0.510198 1.05312 -0.131363
v 0.614396 0.94765 -0.336379
v 0.64455 0.91899 -0.298626
v 0.588396 0.945516 -0.284436
v 0.64455 0.881226 -0.138626
v 0.679611 0.866796 -0.0971707
v 0.627167 0.882134 -0.0773453
v 0.574329 0.918279 -0.0606528
v 0.588396 0.907752 -0.124436
v 0.668243 0.93638 -0.355146
v 0.734023 0.937771 -0.362074
v 0.707014 0.872998 -0.148056
v 0.707014 0.910762 -0.308056
v 0.744647 0.905935 -0.26402
f 1 2 3
f 2 4 5
f 3 5 6
f 2 5 3
f 4 7 8
f 7 9 10
f 8 10 11
f 7 10 8
f 12 13 14
f 13 15 16
f 14 16 17
f 13 16 14
f 4 8 5
f 18 15 13
f 5 19 6
f 8 19 5
f 1 3 20
f 3 6 21
f 20 21 22
f 3 21 20
f 12 14 23
f 14 17 24
f 23 24 25
f 14 24 23
f 26 27 28
f 27 25 29
f 28 29 30
f 27 29 28
f 12 23 31
f 23 25 27
f 31 27 26
f 23 27 31
f 1 20 32
f 20 22 33
f 32 33 34
f 20 33 32
f 26 28 35
f 28 30 36
f 37 38 39
f 28 36 35
f 34 40 41
f 40 39 42
f 41 42 43
f 40 42 41
f 22 37 33
f 37 39 40
f 33 40 34
f 37 40 33
f 1 32 44
f 32 34 45
f 44 45 46
f 32 45 44
f 34 41 47
f 41 43 48
f 47 48 49
f 41 48 47
f 46 50 51
f 50 49 52
f 51 52 53
f 50 52 51
f 34 47 45
f 47 49 50
f 45 50 46
f 47 50 45
f 1 44 2
f 44 46 54
f 2 54 4
f 44 54 2
f 46 51 55
f 51 53 56
f 55 56 57
f 51 56 55
f 4 58 7
f 58 57 59
f 7 59 9
f 58 59 7
f 46 55 54
f 55 57 58
f 54 58 4
f 55 58 54
f 9 60 10
f 61 62 63
f 64 63 15
f 60 65 10
f 62 66 67
f 66 68 69
f 67 69 70
f 66 69 67
f 15 71 16
f 71 70 72
f 16 72 17
f 71 72 16
f 62 67 63
f 67 70 71
f 63 71 15
f 67 71 63
f 17 72 73
f 72 70 74
f 73 74 75
f 72 74 73
f 70 69 76
f 69 68 77
f 76 77 78
f 69 77 76
f 75 79 80
f 79 78 81
f 80 81 82
f 79 81 80
f 70 76 74
f 76 78 79
f 74 79 75
f 76 79 74
f 17 73 24
f 73 75 83
f 24 83 25
f 73 83 24
f 75 80 84
f 80 82 85
f 84 85 86
f 80 85 84
f 25 87 29
f 87 86 88
f 29 88 30
f 87 88 29
f 75 84 83
f 84 86 87
f 83 87 25
f 84 87 83
f 30 88 89
f 88 86 90
f 89 90 91
f 88 90 89
f 86 85 92
f 85 82 93
f 92 93 94
f 85 93 92
f 91 95 96
f 95 94 97
f 96 97 98
f 95 97 96
f 86 92 90
f 92 94 95
f 90 95 91
f 92 95 90
f 30 89 36
f 89 91 99
f 36 99 100
f 89 99 36
f 91 96 101
f 96 98 102
f 101 102 103
f 96 102 101
f 39 104 42
f 104 105 106
f 42 106 43
f 104 106 42
f 91 101 99
f 107 105 104
f 108 104 39
f 101 109 99
f 43 106 110
f 106 105 111
f 110 111 112
f 106 111 110
f 105 113 114
f 102 98 115
f 114 116 117
f 102 115 118
f 112 119 120
f 119 117 121
f 120 121 122
f 119 121 120
f 105 114 111
f 114 117 119
f 111 119 112
f 114 119 111
f 43 110 48
f 110 112 123
f 48 123 49
f 110 123 48
f 112 120 124
f 120 122 125
f 124 125 126
f 120 125 124
f 49 127 52
f 127 126 128
f 52 128 53
f 127 128 52
f 112 124 123
f 124 126 127
f 123 127 49
f 124 127 123
f 53 128 129
f 128 126 130
f 129 130 131
f 128 130 129
f 126 125 132
f 125 122 133
f 132 133 134
f 125 133 132
f 131 135 136
f 135 134 137
f 136 137 138
f 135 137 136
f 126 132 130
f 132 134 135
f 130 135 131
f 132 135 130
f 53 129 56
f 129 131 139
f 56 139 57
f 129 139 56
f 131 136 140
f 136 138 141
f 140 141 142
f 136 141 140
f 57 143 59
f 143 142 144
f 59 144 9
f 143 144 59
f 131 140 139
f 140 142 143
f 139 143 57
f 140 143 139
f 9 144 60
f 144 142 145
f 60 145 146
f 144 145 60
f 142 141 147
f 141 138 148
f 147 148 149
f 141 148 147
f 62 150 66
f 150 151 152
f 66 152 68
f 150 152 66
f 142 147 145
f 153 151 150
f 154 150 62
f 147 155 145
f 156 157 158
f 157 159 160
f 158 160 161
f 157 160 158
f 159 162 163
f 162 82 81
f 163 81 78
f 162 81 163
f 161 164 165
f 164 78 77
f 165 77 68
f 164 77 165
f 159 163 160
f 163 78 164
f 160 164 161
f 163 164 160
f 156 166 157
f 166 167 168
f 157 168 159
f 166 168 157
f 167 169 170
f 169 98 97
f 170 97 94
f 169 97 170
f 159 171 162
f 171 94 93
f 162 93 82
f 171 93 162
f 167 170 168
f 170 94 171
f 168 171 159
f 170 171 168
f 156 172 166
f 172 173 174
f 166 174 167
f 172 174 166
f 175 176 177
f 176 122 121
f 177 121 117
f 176 121 177
f 167 178 169
f 178 179 115
f 169 115 98
f 178 115 169
f 173 180 174
f 177 117 181
f 174 178 167
f 180 178 174
f 156 182 172
f 182 183 184
f 172 184 173
f 182 184 172
f 185 186 187
f 186 138 137
f 187 137 134
f 186 137 187
f 175 188 176
f 188 134 133
f 176 133 122
f 188 133 176
f 185 187 189
f 187 134 188
f 189 188 175
f 187 188 189
f 156 158 182
f 158 161 190
f 182 190 183
f 158 190 182
f 161 165 191
f 165 68 152
f 191 152 151
f 165 152 191
f 185 192 186
f 193 151 194
f 186 148 138
f 192 148 186
f 161 191 190
f 191 151 193
f 190 193 183
f 191 193 190
f 12 6 13
f 13 6 19
f 18 8 15
f 15 8 11
f 13 19 18
f 18 19 8
f 31 21 12
f 12 21 6
f 26 22 31
f 31 22 21
f 35 37 26
f 26 37 22
f 36 38 35
f 35 38 37
f 61 60 62
f 62 60 146
f 63 65 61
f 61 65 60
f 64 10 63
f 63 10 65
f 15 11 64
f 64 11 10
f 99 108 100
f 100 108 39
f 100 39 36
f 36 39 38
f 102 113 103
f 103 113 105
f 103 105 101
f 101 105 107
f 101 107 109
f 109 107 104
f 109 104 99
f 99 104 108
f 115 116 118
f 118 116 114
f 118 114 102
f 102 114 113
f 153 147 151
f 151 147 149
f 150 155 153
f 153 155 147
f 154 145 150
f 150 145 155
f 62 146 154
f 154 146 145
f 178 181 179
f 179 181 117
f 179 117 115
f 115 117 116
f 173 175 180
f 180 175 177
f 180 177 178
f 178 177 181
f 183 185 184
f 184 185 189
f 184 189 173
f 173 189 175
f 151 149 194
f 194 149 148
f 194 148 193
f 193 148 192
f 193 192 183
f 183 192 185
