v 0.346557 1.12689 -0.412443
v 0.381427 1.08307 -0.416917
v 0.375844 1.13186 -0.460125
v 0.404693 1.03364 -0.43
v 0.408089 1.08424 -0.468555
v 0.393953 1.1275 -0.513125
v 0.414586 0.982355 -0.450695
v 0.427802 1.02436 -0.488636
v 0.41035 0.933126 -0.477427
v 0.428493 0.971946 -0.513756
v 0.43145 1.01361 -0.551322
v 0.422155 1.07371 -0.532338
v 0.399505 1.11415 -0.567411
v 0.422155 1.0177 -0.772338
v 0.43145 0.957603 -0.791322
v 0.418996 0.998943 -0.827265
v 0.399505 1.05814 -0.807411
v 0.392078 1.03681 -0.858848
v 0.323604 1.16759 -0.443621
v 0.349604 1.16973 -0.495564
v 0.29345 1.19625 -0.481374
v 0.363671 1.1592 -0.559347
v 0.361173 1.08347 -0.853968
v 0.363671 1.10319 -0.799347
v 0.320207 1.12022 -0.842696
v 0.310833 1.19535 -0.542655
v 0.258389 1.21069 -0.522829
v 0.310833 1.13934 -0.782655
v 0.272297 1.14427 -0.82589
v 0.272297 1.20028 -0.58589
v 0.221092 1.20979 -0.56483
v 0.320207 1.17623 -0.602696
v 0.296901 1.14089 -0.390214
v 0.269758 1.17886 -0.424854
v 0.242076 1.14488 -0.378626
v 0.230987 1.20448 -0.471944
v 0.193354 1.20931 -0.51598
v 0.168329 1.19361 -0.468197
v 0.203978 1.17747 -0.417926
v 0.186255 1.13855 -0.378561
v 0.147923 1.16388 -0.425118
v 0.133689 1.12238 -0.390024
v 0.332637 1.08865 -0.37371
v 0.278894 1.09902 -0.354143
v 0.310828 1.04438 -0.346875
v 0.213114 1.09763 -0.347215
v 0.156956 1.08494 -0.355207
v 0.185707 1.04173 -0.333697
v 0.249259 1.04479 -0.330523
v 0.28279 0.997435 -0.333979
v 0.217754 0.996059 -0.32713
v 0.250657 0.951398 -0.336005
v 0.364387 1.04053 -0.381152
v 0.334752 0.986305 -0.357532
v 0.30228 0.938236 -0.353833
v 0.348325 0.930487 -0.385071
v 0.3841 0.980658 -0.401233
v 0.385286 0.928739 -0.427342
v 0.407789 0.911898 -0.529377
v 0.407789 0.855888 -0.769377
v 0.391618 0.842077 -0.821374
v 0.420928 0.897087 -0.808219
v 0.428493 0.915936 -0.753756
v 0.363068 0.836734 -0.869461
v 0.39434 0.8857 -0.86772
v 0.324312 0.840266 -0.909976
v 0.357485 0.885524 -0.912668
v 0.380878 0.935942 -0.9045
v 0.415281 0.946435 -0.85192
v 0.392709 0.987684 -0.886093
v 0.356973 1.03992 -0.902596
v 0.352548 0.987886 -0.928114
v 0.312125 1.03645 -0.936251
v 0.331607 0.92715 -0.943913
v 0.301045 0.877715 -0.944793
v 0.272293 0.92092 -0.966303
v 0.295462 0.979988 -0.960606
v 0.26095 1.02664 -0.95725
v 0.240246 0.966591 -0.97287
v 0.207343 1.01125 -0.963995
v 0.320652 1.08477 -0.895622
v 0.263566 1.07687 -0.928114
v 0.20871 1.06238 -0.940746
v 0.211622 1.1052 -0.9045
v 0.267814 1.12091 -0.878929
v 0.215857 1.13646 -0.858015
v 0.221092 1.15378 -0.80483
v 0.167067 1.14204 -0.814808
v 0.16138 1.11866 -0.86772
v 0.117757 1.11594 -0.821374
v 0.157131 1.07462 -0.916904
v 0.15572 1.02441 -0.946167
v 0.109675 1.03216 -0.914929
v 0.107783 1.08026 -0.873203
v 0.0769144 1.07746 -0.82403
v 0.072714 1.03391 -0.872658
v 0.0476496 1.02952 -0.822573
v 0.167067 1.19805 -0.574808
v 0.117757 1.17195 -0.581374
v 0.138619 1.1917 -0.524517
v 0.0769144 1.13347 -0.58403
v 0.0850226 1.15331 -0.53
v 0.0502109 1.05075 -0.770623
v 0.0502109 1.10676 -0.530623
v 0.0663822 1.12057 -0.478626
v 0.11161 1.16469 -0.470499
v 0.0949325 1.12592 -0.430539
v 0.100515 1.07713 -0.387332
v 0.06366 1.07695 -0.43228
v 0.0771224 1.02671 -0.3955
v 0.0370725 1.06556 -0.491781
v 0.0295067 0.990704 -0.786244
v 0.0295067 1.04671 -0.546244
v 0.02655 1.00505 -0.508678
v 0.0427189 1.01621 -0.44808
v 0.0652911 0.974966 -0.413907
v 0.0390044 0.963708 -0.472735
v 0.0659218 0.925841 -0.441152
v 0.126393 1.0355 -0.356087
v 0.105452 0.974765 -0.371886
v 0.101027 0.922726 -0.397404
v 0.145875 0.926205 -0.363749
v 0.162538 0.982662 -0.339394
v 0.19705 0.936011 -0.34275
v 0.24929 0.900274 -0.359254
v 0.194435 0.885782 -0.371886
v 0.246378 0.857452 -0.3955
v 0.137348 0.877884 -0.404378
v 0.0968269 0.879182 -0.446032
v 0.137793 0.84243 -0.457304
v 0.190186 0.841739 -0.421071
v 0.242143 0.826192 -0.441985
v 0.185703 0.818383 -0.47411
v 0.236908 0.808872 -0.49517
v 0.300869 0.888033 -0.383096
v 0.29662 0.84399 -0.43228
v 0.290933 0.820609 -0.485192
v 0.340244 0.846712 -0.478626
v 0.350217 0.882386 -0.426797
v 0.381086 0.885194 -0.47597
v 0.381086 0.829185 -0.71597
v 0.340244 0.790702 -0.718626
v 0.372977 0.809343 -0.77
v 0.290933 0.7646 -0.725192
v 0.319381 0.770946 -0.775483
v 0.236908 0.752863 -0.73517
v 0.264647 0.753341 -0.78402
v 0.289671 0.769042 -0.831803
v 0.34639 0.797956 -0.829501
v 0.310077 0.798772 -0.874882
v 0.111443 0.835763 -0.887557
v 0.125363 0.873999 -0.92629
v 0.161099 0.821759 -0.909786
v 0.147172 0.918274 -0.953125
v 0.179106 0.863632 -0.945857
v 0.215924 0.81777 -0.921374
v 0.17521 0.965216 -0.966021
v 0.208741 0.917861 -0.969477
v 0.244886 0.865024 -0.952785
v 0.271745 0.8241 -0.921439
v 0.0765732 0.879582 -0.883083
v 0.0533066 0.929014 -0.87
v 0.0936131 0.922116 -0.918848
v 0.0434144 0.980296 -0.849305
v 0.0738999 0.981992 -0.898767
v 0.123248 0.976345 -0.942468
v 0.0821557 0.830792 -0.839875
v 0.0640468 0.835148 -0.786875
v 0.0499115 0.878415 -0.831445
v 0.0584946 0.8485 -0.732589
v 0.0358447 0.888942 -0.767662
v 0.0584946 0.90451 -0.492589
v 0.0358447 0.944952 -0.527662
v 0.0301982 0.93829 -0.811363
v 0.02655 0.949038 -0.748678
v 0.134396 0.795056 -0.856379
v 0.16455 0.766396 -0.818626
v 0.108396 0.792922 -0.804436
v 0.199611 0.751965 -0.777171
v 0.147167 0.767304 -0.757345
v 0.185703 0.762374 -0.71411
v 0.147167 0.823314 -0.517345
v 0.0943288 0.803449 -0.740653
v 0.0943288 0.859459 -0.500653
v 0.137793 0.78642 -0.697304
v 0.188242 0.783785 -0.875146
v 0.254022 0.785177 -0.882074
v 0.227013 0.758168 -0.828056
f 1 2 3
f 2 4 5
f 3 5 6
f 2 5 3
f 4 7 8
f 7 9 10
f 8 10 11
f 7 10 8
f 6 12 13
f 14 15 16
f 17 16 18
f 14 16 17
f 4 8 5
f 8 11 12
f 5 12 6
f 8 12 5
f 1 3 19
f 3 6 20
f 19 20 21
f 3 20 19
f 6 13 22
f 17 18 23
f 24 23 25
f 17 23 24
f 21 26 27
f 28 25 29
f 27 30 31
f 26 30 27
f 6 22 20
f 22 32 26
f 20 26 21
f 22 26 20
f 1 19 33
f 19 21 34
f 33 34 35
f 19 34 33
f 21 27 36
f 27 31 37
f 36 37 38
f 27 37 36
f 35 39 40
f 39 38 41
f 40 41 42
f 39 41 40
f 21 36 34
f 36 38 39
f 34 39 35
f 36 39 34
f 1 33 43
f 33 35 44
f 43 44 45
f 33 44 43
f 35 40 46
f 40 42 47
f 46 47 48
f 40 47 46
f 45 49 50
f 49 48 51
f 50 51 52
f 49 51 50
f 35 46 44
f 46 48 49
f 44 49 45
f 46 49 44
f 1 43 2
f 43 45 53
f 2 53 4
f 43 53 2
f 45 50 54
f 50 52 55
f 54 55 56
f 50 55 54
f 4 57 7
f 57 56 58
f 7 58 9
f 57 58 7
f 45 54 53
f 54 56 57
f 53 57 4
f 54 57 53
f 9 59 10
f 60 61 62
f 63 62 15
f 60 62 63
f 61 64 65
f 64 66 67
f 65 67 68
f 64 67 65
f 15 69 16
f 69 68 70
f 16 70 18
f 69 70 16
f 61 65 62
f 65 68 69
f 62 69 15
f 65 69 62
f 18 70 71
f 70 68 72
f 71 72 73
f 70 72 71
f 68 67 74
f 67 66 75
f 74 75 76
f 67 75 74
f 73 77 78
f 77 76 79
f 78 79 80
f 77 79 78
f 68 74 72
f 74 76 77
f 72 77 73
f 74 77 72
f 18 71 23
f 71 73 81
f 23 81 25
f 71 81 23
f 73 78 82
f 78 80 83
f 82 83 84
f 78 83 82
f 25 85 29
f 85 84 86
f 29 86 87
f 85 86 29
f 73 82 81
f 82 84 85
f 81 85 25
f 82 85 81
f 87 86 88
f 86 84 89
f 88 89 90
f 86 89 88
f 84 83 91
f 83 80 92
f 91 92 93
f 83 92 91
f 90 94 95
f 94 93 96
f 95 96 97
f 94 96 95
f 84 91 89
f 91 93 94
f 89 94 90
f 91 94 89
f 31 98 37
f 98 99 100
f 37 100 38
f 98 100 37
f 99 101 102
f 95 97 103
f 102 104 105
f 101 104 102
f 38 106 41
f 106 105 107
f 41 107 42
f 106 107 41
f 99 102 100
f 102 105 106
f 100 106 38
f 102 106 100
f 42 107 108
f 107 105 109
f 108 109 110
f 107 109 108
f 105 104 111
f 103 97 112
f 111 113 114
f 104 113 111
f 110 115 116
f 115 114 117
f 116 117 118
f 115 117 116
f 105 111 109
f 111 114 115
f 109 115 110
f 111 115 109
f 42 108 47
f 108 110 119
f 47 119 48
f 108 119 47
f 110 116 120
f 116 118 121
f 120 121 122
f 116 121 120
f 48 123 51
f 123 122 124
f 51 124 52
f 123 124 51
f 110 120 119
f 120 122 123
f 119 123 48
f 120 123 119
f 52 124 125
f 124 122 126
f 125 126 127
f 124 126 125
f 122 121 128
f 121 118 129
f 128 129 130
f 121 129 128
f 127 131 132
f 131 130 133
f 132 133 134
f 131 133 132
f 122 128 126
f 128 130 131
f 126 131 127
f 128 131 126
f 52 125 55
f 125 127 135
f 55 135 56
f 125 135 55
f 127 132 136
f 132 134 137
f 136 137 138
f 132 137 136
f 56 139 58
f 139 138 140
f 58 140 9
f 139 140 58
f 127 136 135
f 136 138 139
f 135 139 56
f 136 139 135
f 9 140 59
f 141 142 143
f 60 143 61
f 141 143 60
f 142 144 145
f 144 146 147
f 145 147 148
f 144 147 145
f 61 149 64
f 149 148 150
f 64 150 66
f 149 150 64
f 142 145 143
f 145 148 149
f 143 149 61
f 145 149 143
f 151 152 153
f 152 154 155
f 153 155 156
f 152 155 153
f 154 157 158
f 157 80 79
f 158 79 76
f 157 79 158
f 156 159 160
f 159 76 75
f 160 75 66
f 159 75 160
f 154 158 155
f 158 76 159
f 155 159 156
f 158 159 155
f 151 161 152
f 161 162 163
f 152 163 154
f 161 163 152
f 162 164 165
f 164 97 96
f 165 96 93
f 164 96 165
f 154 166 157
f 166 93 92
f 157 92 80
f 166 92 157
f 162 165 163
f 165 93 166
f 163 166 154
f 165 166 163
f 151 167 161
f 167 168 169
f 161 169 162
f 167 169 161
f 168 170 171
f 172 118 117
f 173 117 114
f 172 117 173
f 162 174 164
f 174 175 112
f 164 112 97
f 174 112 164
f 168 171 169
f 171 175 174
f 169 174 162
f 171 174 169
f 151 176 167
f 176 177 178
f 167 178 168
f 176 178 167
f 177 179 180
f 179 146 181
f 182 133 130
f 179 181 180
f 168 183 170
f 184 130 129
f 172 129 118
f 184 129 172
f 177 180 178
f 180 185 183
f 178 183 168
f 180 183 178
f 151 153 176
f 153 156 186
f 176 186 177
f 153 186 176
f 156 160 187
f 160 66 150
f 187 150 148
f 160 150 187
f 177 188 179
f 188 148 147
f 179 147 146
f 188 147 179
f 156 187 186
f 187 148 188
f 186 188 177
f 187 188 186
f 14 12 15
f 15 12 11
f 17 13 14
f 14 13 12
f 25 32 24
f 24 32 22
f 24 22 17
f 17 22 13
f 28 26 25
f 25 26 32
f 29 30 28
f 28 30 26
f 15 11 63
f 63 11 10
f 63 10 60
f 60 10 59
f 87 31 29
f 29 31 30
f 88 98 87
f 87 98 31
f 90 99 88
f 88 99 98
f 95 101 90
f 90 101 99
f 103 104 95
f 95 104 101
f 112 113 103
f 103 113 104
f 141 140 142
f 142 140 138
f 60 59 141
f 141 59 140
f 142 138 144
f 144 138 137
f 144 137 146
f 146 137 134
f 170 172 171
f 171 172 173
f 175 114 112
f 112 114 113
f 171 173 175
f 175 173 114
f 146 134 181
f 181 134 133
f 181 133 180
f 180 133 182
f 183 184 170
f 170 184 172
f 180 182 185
f 185 182 130
f 185 130 183
f 183 130 184
