v 0.346557 1.23583 -0.132443
v 0.381427 1.19201 -0.136917
v 0.375844 1.2408 -0.180125
v 0.404693 1.14258 -0.15
v 0.408089 1.19318 -0.188555
v 0.393953 1.23645 -0.233125
v 0.414586 1.0913 -0.170695
v 0.427802 1.1333 -0.208636
v 0.41035 1.04207 -0.197427
v 0.428493 1.08089 -0.233756
v 0.43145 1.12256 -0.271322
v 0.422155 1.18265 -0.252338
v 0.399505 1.2231 -0.287411
v 0.422155 1.07371 -0.532338
v 0.43145 1.01361 -0.551322
v 0.418996 1.05495 -0.587265
v 0.399505 1.11415 -0.567411
v 0.392078 1.09282 -0.618848
v 0.323604 1.27654 -0.163621
v 0.349604 1.27867 -0.215564
v 0.29345 1.3052 -0.201374
v 0.363671 1.26815 -0.279347
v 0.361173 1.13948 -0.613968
v 0.363671 1.1592 -0.559347
v 0.320207 1.17623 -0.602696
v 0.310833 1.30429 -0.262655
v 0.258389 1.31963 -0.242829
v 0.320207 1.28517 -0.322696
v 0.272297 1.30922 -0.30589
v 0.221092 1.31873 -0.28483
v 0.296901 1.24984 -0.110214
v 0.269758 1.28781 -0.144854
v 0.242076 1.25382 -0.0986256
v 0.230987 1.31343 -0.191944
v 0.193354 1.31825 -0.23598
v 0.168329 1.30255 -0.188197
v 0.203978 1.28642 -0.137926
v 0.186255 1.2475 -0.0985606
v 0.147923 1.27282 -0.145118
v 0.133689 1.23133 -0.110024
v 0.332637 1.1976 -0.0937101
v 0.278894 1.20796 -0.074143
v 0.310828 1.15332 -0.0668745
v 0.213114 1.20657 -0.0672151
v 0.156956 1.19388 -0.0752073
v 0.185707 1.15067 -0.0536968
v 0.249259 1.15373 -0.0505225
v 0.28279 1.10638 -0.0539791
v 0.217754 1.105 -0.0471296
v 0.250657 1.06034 -0.0560054
v 0.364387 1.14948 -0.101152
v 0.334752 1.09525 -0.0775316
v 0.30228 1.04718 -0.0738331
v 0.348325 1.03943 -0.105071
v 0.3841 1.0896 -0.121233
v 0.385286 1.03768 -0.147342
v 0.41035 0.933126 -0.477427
v 0.407789 0.911898 -0.529377
v 0.428493 0.971946 -0.513756
v 0.391618 0.898087 -0.581374
v 0.420928 0.953097 -0.568219
v 0.363068 0.892744 -0.629461
v 0.39434 0.94171 -0.62772
v 0.324312 0.896275 -0.669976
v 0.357485 0.941533 -0.672668
v 0.380878 0.991952 -0.6645
v 0.415281 1.00245 -0.61192
v 0.392709 1.04369 -0.646093
v 0.356973 1.09593 -0.662596
v 0.352548 1.0439 -0.688114
v 0.312125 1.09246 -0.696251
v 0.331607 0.98316 -0.703913
v 0.301045 0.933725 -0.704793
v 0.272293 0.97693 -0.726303
v 0.295462 1.036 -0.720606
v 0.26095 1.08265 -0.71725
v 0.240246 1.0226 -0.73287
v 0.207343 1.06726 -0.723994
v 0.320652 1.14078 -0.655622
v 0.263566 1.13288 -0.688114
v 0.20871 1.11839 -0.700746
v 0.211622 1.16121 -0.6645
v 0.267814 1.17692 -0.638929
v 0.272297 1.20028 -0.58589
v 0.215857 1.19247 -0.618015
v 0.215857 1.30141 -0.338015
v 0.167067 1.307 -0.294808
v 0.16138 1.17467 -0.62772
v 0.167067 1.19805 -0.574808
v 0.117757 1.17195 -0.581374
v 0.157131 1.13063 -0.676904
v 0.15572 1.08042 -0.706167
v 0.109675 1.08817 -0.674929
v 0.107783 1.13627 -0.633203
v 0.0769144 1.13347 -0.58403
v 0.072714 1.08992 -0.632658
v 0.0476496 1.08553 -0.582573
v 0.117757 1.28089 -0.301374
v 0.138619 1.30065 -0.244517
v 0.0769144 1.24241 -0.30403
v 0.0850226 1.26225 -0.25
v 0.0476496 1.19448 -0.302573
v 0.0502109 1.21571 -0.250623
v 0.0663822 1.22952 -0.198626
v 0.11161 1.27364 -0.190499
v 0.0949325 1.23486 -0.150539
v 0.100515 1.18607 -0.107332
v 0.06366 1.18589 -0.15228
v 0.0771224 1.13565 -0.1155
v 0.0370725 1.17451 -0.211781
v 0.0295067 1.15566 -0.266244
v 0.02655 1.11399 -0.228678
v 0.0427189 1.12516 -0.16808
v 0.0652911 1.08391 -0.133907
v 0.0390044 1.07265 -0.192735
v 0.0659218 1.03479 -0.161152
v 0.126393 1.14444 -0.0760866
v 0.105452 1.08371 -0.091886
v 0.101027 1.03167 -0.117404
v 0.145875 1.03515 -0.0837492
v 0.162538 1.09161 -0.0593941
v 0.19705 1.04496 -0.0627503
v 0.24929 1.00922 -0.079254
v 0.194435 0.994726 -0.0918861
v 0.246378 0.966397 -0.1155
v 0.137348 0.986828 -0.124378
v 0.0968269 0.988126 -0.166032
v 0.137793 0.951375 -0.177304
v 0.190186 0.950683 -0.141071
v 0.242143 0.935136 -0.161985
v 0.185703 0.927328 -0.194109
v 0.242143 0.826192 -0.441985
v 0.185703 0.818383 -0.47411
v 0.236908 0.808872 -0.49517
v 0.300869 0.996977 -0.103096
v 0.29662 0.952935 -0.15228
v 0.290933 0.820609 -0.485192
v 0.290933 0.929554 -0.205192
v 0.340244 0.955657 -0.198626
v 0.350217 0.991331 -0.146797
v 0.381086 0.994139 -0.19597
v 0.381086 0.885194 -0.47597
v 0.340244 0.846712 -0.478626
v 0.372977 0.865353 -0.53
v 0.319381 0.826956 -0.535483
v 0.264647 0.809351 -0.54402
v 0.289671 0.825052 -0.591803
v 0.34639 0.853965 -0.589501
v 0.310077 0.854781 -0.634882
v 0.111443 0.891773 -0.647557
v 0.125363 0.930009 -0.68629
v 0.161099 0.877769 -0.669786
v 0.147172 0.974283 -0.713125
v 0.179106 0.919642 -0.705857
v 0.215924 0.87378 -0.681374
v 0.17521 1.02123 -0.726021
v 0.208741 0.973871 -0.729477
v 0.244886 0.921033 -0.712785
v 0.271745 0.880109 -0.681439
v 0.0765732 0.935592 -0.643083
v 0.0533066 0.985023 -0.63
v 0.0936131 0.978126 -0.678848
v 0.0434144 1.03631 -0.609305
v 0.0738999 1.038 -0.658767
v 0.123248 1.03236 -0.702468
v 0.0821557 0.886802 -0.599875
v 0.0640468 0.891158 -0.546875
v 0.0499115 0.934425 -0.591445
v 0.0584946 0.90451 -0.492589
v 0.0358447 0.944952 -0.527662
v 0.0584946 1.01345 -0.212589
v 0.0358447 1.0539 -0.247662
v 0.0301982 0.9943 -0.571363
v 0.02655 1.00505 -0.508678
v 0.0295067 1.04671 -0.546244
v 0.134396 0.851066 -0.616379
v 0.16455 0.822406 -0.578626
v 0.108396 0.848931 -0.564436
v 0.199611 0.807975 -0.537171
v 0.147167 0.823314 -0.517345
v 0.137793 0.84243 -0.457304
v 0.0943288 0.859459 -0.500653
v 0.0943288 0.968403 -0.220653
v 0.188242 0.839795 -0.635146
v 0.254022 0.841187 -0.642074
v 0.227013 0.814177 -0.588056
f 1 2 3
f 2 4 5
f 3 5 6
f 2 5 3
f 4 7 8
f 7 9 10
f 8 10 11
f 7 10 8
f 6 12 13
f 14 15 16
f 17 16 18
f 14 16 17
f 4 8 5
f 8 11 12
f 5 12 6
f 8 12 5
f 1 3 19
f 3 6 20
f 19 20 21
f 3 20 19
f 6 13 22
f 17 18 23
f 24 23 25
f 17 23 24
f 21 26 27
f 26 28 29
f 27 29 30
f 26 29 27
f 6 22 20
f 22 28 26
f 20 26 21
f 22 26 20
f 1 19 31
f 19 21 32
f 31 32 33
f 19 32 31
f 21 27 34
f 27 30 35
f 34 35 36
f 27 35 34
f 33 37 38
f 37 36 39
f 38 39 40
f 37 39 38
f 21 34 32
f 34 36 37
f 32 37 33
f 34 37 32
f 1 31 41
f 31 33 42
f 41 42 43
f 31 42 41
f 33 38 44
f 38 40 45
f 44 45 46
f 38 45 44
f 43 47 48
f 47 46 49
f 48 49 50
f 47 49 48
f 33 44 42
f 44 46 47
f 42 47 43
f 44 47 42
f 1 41 2
f 41 43 51
f 2 51 4
f 41 51 2
f 43 48 52
f 48 50 53
f 52 53 54
f 48 53 52
f 4 55 7
f 55 54 56
f 7 56 9
f 55 56 7
f 43 52 51
f 52 54 55
f 51 55 4
f 52 55 51
f 57 58 59
f 58 60 61
f 59 61 15
f 58 61 59
f 60 62 63
f 62 64 65
f 63 65 66
f 62 65 63
f 15 67 16
f 67 66 68
f 16 68 18
f 67 68 16
f 60 63 61
f 63 66 67
f 61 67 15
f 63 67 61
f 18 68 69
f 68 66 70
f 69 70 71
f 68 70 69
f 66 65 72
f 65 64 73
f 72 73 74
f 65 73 72
f 71 75 76
f 75 74 77
f 76 77 78
f 75 77 76
f 66 72 70
f 72 74 75
f 70 75 71
f 72 75 70
f 18 69 23
f 69 71 79
f 23 79 25
f 69 79 23
f 71 76 80
f 76 78 81
f 80 81 82
f 76 81 80
f 25 83 84
f 83 82 85
f 29 86 30
f 83 85 84
f 71 80 79
f 80 82 83
f 79 83 25
f 80 83 79
f 30 86 87
f 85 82 88
f 89 88 90
f 85 88 89
f 82 81 91
f 81 78 92
f 91 92 93
f 81 92 91
f 90 94 95
f 94 93 96
f 95 96 97
f 94 96 95
f 82 91 88
f 91 93 94
f 88 94 90
f 91 94 88
f 30 87 35
f 87 98 99
f 35 99 36
f 87 99 35
f 98 100 101
f 100 102 103
f 101 103 104
f 100 103 101
f 36 105 39
f 105 104 106
f 39 106 40
f 105 106 39
f 98 101 99
f 101 104 105
f 99 105 36
f 101 105 99
f 40 106 107
f 106 104 108
f 107 108 109
f 106 108 107
f 104 103 110
f 103 102 111
f 110 111 112
f 103 111 110
f 109 113 114
f 113 112 115
f 114 115 116
f 113 115 114
f 104 110 108
f 110 112 113
f 108 113 109
f 110 113 108
f 40 107 45
f 107 109 117
f 45 117 46
f 107 117 45
f 109 114 118
f 114 116 119
f 118 119 120
f 114 119 118
f 46 121 49
f 121 120 122
f 49 122 50
f 121 122 49
f 109 118 117
f 118 120 121
f 117 121 46
f 118 121 117
f 50 122 123
f 122 120 124
f 123 124 125
f 122 124 123
f 120 119 126
f 119 116 127
f 126 127 128
f 119 127 126
f 125 129 130
f 129 128 131
f 132 133 134
f 129 131 130
f 120 126 124
f 126 128 129
f 124 129 125
f 126 129 124
f 50 123 53
f 123 125 135
f 53 135 54
f 123 135 53
f 125 130 136
f 132 134 137
f 136 138 139
f 130 138 136
f 54 140 56
f 140 139 141
f 56 141 9
f 140 141 56
f 125 136 135
f 136 139 140
f 135 140 54
f 136 140 135
f 57 142 58
f 142 143 144
f 58 144 60
f 142 144 58
f 143 137 145
f 137 134 146
f 145 146 147
f 137 146 145
f 60 148 62
f 148 147 149
f 62 149 64
f 148 149 62
f 143 145 144
f 145 147 148
f 144 148 60
f 145 148 144
f 150 151 152
f 151 153 154
f 152 154 155
f 151 154 152
f 153 156 157
f 156 78 77
f 157 77 74
f 156 77 157
f 155 158 159
f 158 74 73
f 159 73 64
f 158 73 159
f 153 157 154
f 157 74 158
f 154 158 155
f 157 158 154
f 150 160 151
f 160 161 162
f 151 162 153
f 160 162 151
f 161 163 164
f 163 97 96
f 164 96 93
f 163 96 164
f 153 165 156
f 165 93 92
f 156 92 78
f 165 92 156
f 161 164 162
f 164 93 165
f 162 165 153
f 164 165 162
f 150 166 160
f 166 167 168
f 160 168 161
f 166 168 160
f 167 169 170
f 171 116 115
f 172 115 112
f 171 115 172
f 161 173 163
f 173 174 175
f 163 175 97
f 173 175 163
f 167 170 168
f 170 174 173
f 168 173 161
f 170 173 168
f 150 176 166
f 176 177 178
f 166 178 167
f 176 178 166
f 177 179 180
f 179 134 133
f 180 133 181
f 179 133 180
f 167 182 169
f 183 128 127
f 171 127 116
f 183 127 171
f 177 180 178
f 180 181 182
f 178 182 167
f 180 182 178
f 150 152 176
f 152 155 184
f 176 184 177
f 152 184 176
f 155 159 185
f 159 64 149
f 185 149 147
f 159 149 185
f 177 186 179
f 186 147 146
f 179 146 134
f 186 146 179
f 155 185 184
f 185 147 186
f 184 186 177
f 185 186 184
f 14 12 15
f 15 12 11
f 17 13 14
f 14 13 12
f 25 28 24
f 24 28 22
f 24 22 17
f 17 22 13
f 59 10 57
f 57 10 9
f 15 11 59
f 59 11 10
f 84 29 25
f 25 29 28
f 85 86 84
f 84 86 29
f 90 98 89
f 89 98 87
f 89 87 85
f 85 87 86
f 95 100 90
f 90 100 98
f 97 102 95
f 95 102 100
f 132 130 133
f 133 130 131
f 137 138 132
f 132 138 130
f 57 9 142
f 142 9 141
f 142 141 143
f 143 141 139
f 143 139 137
f 137 139 138
f 169 171 170
f 170 171 172
f 174 112 175
f 175 112 111
f 175 111 97
f 97 111 102
f 170 172 174
f 174 172 112
f 133 131 181
f 181 131 128
f 182 183 169
f 169 183 171
f 181 128 182
f 182 128 183
