v 0.346557 1.27814 0.0675571
v 0.381427 1.23433 0.0630827
v 0.375844 1.28312 0.0198755
v 0.404693 1.18489 0.0500001
v 0.408089 1.23549 0.0114447
v 0.393953 1.27876 -0.0331253
v 0.414586 1.13361 0.0293051
v 0.427802 1.17562 -0.00863647
v 0.41035 1.08438 0.00257317
v 0.428493 1.1232 -0.0337561
v 0.43145 1.16487 -0.0713219
v 0.422155 1.22497 -0.0523381
v 0.399505 1.26541 -0.0874107
v 0.422155 1.18265 -0.252338
v 0.43145 1.12256 -0.271322
v 0.418996 1.1639 -0.307265
v 0.399505 1.2231 -0.287411
v 0.392078 1.20176 -0.338848
v 0.323604 1.31885 0.0363791
v 0.349604 1.32099 -0.0155644
v 0.29345 1.34751 -0.00137424
v 0.363671 1.31046 -0.0793472
v 0.361173 1.24842 -0.333968
v 0.363671 1.26815 -0.279347
v 0.320207 1.28517 -0.322696
v 0.310833 1.3466 -0.0626546
v 0.258389 1.36194 -0.0428292
v 0.310833 1.30429 -0.262655
v 0.272297 1.30922 -0.30589
v 0.272297 1.35153 -0.10589
v 0.221092 1.36104 -0.08483
v 0.296901 1.29215 0.0897862
v 0.269758 1.33012 0.0551463
v 0.242076 1.29614 0.101374
v 0.230987 1.35574 0.00805608
v 0.193354 1.36057 -0.0359797
v 0.168329 1.34486 0.0118035
v 0.203978 1.32873 0.0620742
v 0.186255 1.28981 0.101439
v 0.147923 1.31514 0.0548819
v 0.133689 1.27364 0.0899764
v 0.332637 1.23991 0.10629
v 0.278894 1.25028 0.125857
v 0.310828 1.19563 0.133125
v 0.213114 1.24888 0.132785
v 0.156956 1.23619 0.124793
v 0.185707 1.19299 0.146303
v 0.249259 1.19605 0.149477
v 0.28279 1.14869 0.146021
v 0.217754 1.14732 0.15287
v 0.250657 1.10266 0.143995
v 0.364387 1.19179 0.0988479
v 0.334752 1.13756 0.122468
v 0.30228 1.08949 0.126167
v 0.348325 1.08174 0.0949288
v 0.3841 1.13192 0.0787667
v 0.385286 1.08 0.0526583
v 0.407789 1.06315 -0.0493768
v 0.407789 1.02084 -0.249377
v 0.391618 1.00703 -0.301374
v 0.420928 1.06204 -0.288219
v 0.428493 1.08089 -0.233756
v 0.363068 1.00169 -0.349461
v 0.39434 1.05065 -0.34772
v 0.324312 1.00522 -0.389976
v 0.357485 1.05048 -0.392668
v 0.380878 1.1009 -0.3845
v 0.415281 1.11139 -0.33192
v 0.392709 1.15264 -0.366093
v 0.356973 1.20488 -0.382596
v 0.352548 1.15284 -0.408114
v 0.312125 1.2014 -0.416251
v 0.331607 1.0921 -0.423913
v 0.301045 1.04267 -0.424793
v 0.272293 1.08587 -0.446303
v 0.295462 1.14494 -0.440606
v 0.26095 1.19159 -0.43725
v 0.240246 1.13155 -0.45287
v 0.207343 1.17621 -0.443994
v 0.320652 1.24972 -0.375622
v 0.263566 1.24182 -0.408114
v 0.20871 1.22733 -0.420746
v 0.211622 1.27015 -0.3845
v 0.267814 1.28587 -0.358929
v 0.215857 1.30141 -0.338015
v 0.221092 1.31873 -0.28483
v 0.167067 1.307 -0.294808
v 0.16138 1.28361 -0.34772
v 0.117757 1.28089 -0.301374
v 0.157131 1.23957 -0.396904
v 0.15572 1.18937 -0.426167
v 0.109675 1.19712 -0.394929
v 0.107783 1.24522 -0.353203
v 0.0769144 1.24241 -0.30403
v 0.072714 1.19887 -0.352658
v 0.0476496 1.19448 -0.302573
v 0.167067 1.34931 -0.0948076
v 0.117757 1.3232 -0.101374
v 0.138619 1.34296 -0.044517
v 0.0850226 1.26225 -0.25
v 0.0502109 1.21571 -0.250623
v 0.0850226 1.30456 -0.0499999
v 0.0502109 1.25802 -0.0506231
v 0.0663822 1.27183 0.00137438
v 0.0769144 1.28472 -0.10403
v 0.11161 1.31595 0.00950112
v 0.0949325 1.27717 0.049461
v 0.100515 1.22838 0.0926683
v 0.06366 1.22821 0.0477198
v 0.0771224 1.17797 0.0844998
v 0.0370725 1.21682 -0.0117812
v 0.0295067 1.15566 -0.266244
v 0.0295067 1.19797 -0.0662438
v 0.02655 1.1563 -0.028678
v 0.0427189 1.16747 0.0319204
v 0.0652911 1.12622 0.0660927
v 0.0390044 1.11496 0.00726476
v 0.0659218 1.0771 0.0388483
v 0.126393 1.18676 0.123913
v 0.105452 1.12602 0.108114
v 0.101027 1.07398 0.0825964
v 0.145875 1.07746 0.116251
v 0.162538 1.13392 0.140606
v 0.19705 1.08727 0.13725
v 0.24929 1.05153 0.120746
v 0.194435 1.03704 0.108114
v 0.246378 1.00871 0.0844997
v 0.137348 1.02914 0.075622
v 0.0968269 1.03044 0.0339683
v 0.137793 0.993687 0.0226963
v 0.190186 0.992996 0.0589294
v 0.242143 0.977449 0.0380149
v 0.185703 0.96964 0.00589051
v 0.236908 0.960129 -0.0151699
v 0.300869 1.03929 0.0969043
v 0.29662 0.995247 0.0477198
v 0.290933 0.971866 -0.00519233
v 0.340244 0.997969 0.00137434
v 0.350217 1.03364 0.0532027
v 0.381086 1.03645 0.00403023
v 0.372977 1.01661 -0.05
v 0.372977 0.974297 -0.25
v 0.381086 0.994139 -0.19597
v 0.340244 0.955657 -0.198626
v 0.290933 0.929554 -0.205192
v 0.319381 0.935901 -0.255483
v 0.236908 0.917817 -0.21517
v 0.264647 0.918295 -0.26402
v 0.289671 0.933997 -0.311803
v 0.34639 0.96291 -0.309501
v 0.310077 0.963726 -0.354882
v 0.111443 1.00072 -0.367557
v 0.125363 1.03895 -0.40629
v 0.161099 0.986714 -0.389786
v 0.147172 1.08323 -0.433125
v 0.179106 1.02859 -0.425857
v 0.215924 0.982724 -0.401374
v 0.17521 1.13017 -0.446021
v 0.208741 1.08282 -0.449477
v 0.244886 1.02998 -0.432785
v 0.271745 0.989054 -0.401439
v 0.0765732 1.04454 -0.363083
v 0.0533066 1.09397 -0.35
v 0.0936131 1.08707 -0.398848
v 0.0434144 1.14525 -0.329305
v 0.0738999 1.14695 -0.378767
v 0.123248 1.1413 -0.422468
v 0.0821557 0.995746 -0.319875
v 0.0640468 1.0001 -0.266875
v 0.0499115 1.04337 -0.311445
v 0.0584946 1.01345 -0.212589
v 0.0358447 1.0539 -0.247662
v 0.0584946 1.05577 -0.0125892
v 0.0358447 1.09621 -0.0476618
v 0.0301982 1.10324 -0.291363
v 0.02655 1.11399 -0.228678
v 0.134396 0.96001 -0.336379
v 0.16455 0.93135 -0.298626
v 0.108396 0.957876 -0.284436
v 0.199611 0.91692 -0.257171
v 0.147167 0.932258 -0.237345
v 0.185703 0.927328 -0.194109
v 0.147167 0.974571 -0.0373453
v 0.0943288 0.968403 -0.220653
v 0.0943288 1.01072 -0.0206528
v 0.188242 0.94874 -0.355146
v 0.254022 0.950131 -0.362074
v 0.227013 0.923122 -0.308056
f 1 2 3
f 2 4 5
f 3 5 6
f 2 5 3
f 4 7 8
f 7 9 10
f 8 10 11
f 7 10 8
f 6 12 13
f 14 15 16
f 17 16 18
f 14 16 17
f 4 8 5
f 8 11 12
f 5 12 6
f 8 12 5
f 1 3 19
f 3 6 20
f 19 20 21
f 3 20 19
f 6 13 22
f 17 18 23
f 24 23 25
f 17 23 24
f 21 26 27
f 28 25 29
f 27 30 31
f 26 30 27
f 6 22 20
f 24 25 28
f 20 26 21
f 22 26 20
f 1 19 32
f 19 21 33
f 32 33 34
f 19 33 32
f 21 27 35
f 27 31 36
f 35 36 37
f 27 36 35
f 34 38 39
f 38 37 40
f 39 40 41
f 38 40 39
f 21 35 33
f 35 37 38
f 33 38 34
f 35 38 33
f 1 32 42
f 32 34 43
f 42 43 44
f 32 43 42
f 34 39 45
f 39 41 46
f 45 46 47
f 39 46 45
f 44 48 49
f 48 47 50
f 49 50 51
f 48 50 49
f 34 45 43
f 45 47 48
f 43 48 44
f 45 48 43
f 1 42 2
f 42 44 52
f 2 52 4
f 42 52 2
f 44 49 53
f 49 51 54
f 53 54 55
f 49 54 53
f 4 56 7
f 56 55 57
f 7 57 9
f 56 57 7
f 44 53 52
f 53 55 56
f 52 56 4
f 53 56 52
f 9 58 10
f 59 60 61
f 62 61 15
f 59 61 62
f 60 63 64
f 63 65 66
f 64 66 67
f 63 66 64
f 15 68 16
f 68 67 69
f 16 69 18
f 68 69 16
f 60 64 61
f 64 67 68
f 61 68 15
f 64 68 61
f 18 69 70
f 69 67 71
f 70 71 72
f 69 71 70
f 67 66 73
f 66 65 74
f 73 74 75
f 66 74 73
f 72 76 77
f 76 75 78
f 77 78 79
f 76 78 77
f 67 73 71
f 73 75 76
f 71 76 72
f 73 76 71
f 18 70 23
f 70 72 80
f 23 80 25
f 70 80 23
f 72 77 81
f 77 79 82
f 81 82 83
f 77 82 81
f 25 84 29
f 84 83 85
f 29 85 86
f 84 85 29
f 72 81 80
f 81 83 84
f 80 84 25
f 81 84 80
f 86 85 87
f 85 83 88
f 87 88 89
f 85 88 87
f 83 82 90
f 82 79 91
f 90 91 92
f 82 91 90
f 89 93 94
f 93 92 95
f 94 95 96
f 93 95 94
f 83 90 88
f 90 92 93
f 88 93 89
f 90 93 88
f 31 97 36
f 97 98 99
f 36 99 37
f 97 99 36
f 89 94 100
f 94 96 101
f 102 103 104
f 105 103 102
f 37 106 40
f 106 104 107
f 40 107 41
f 106 107 40
f 98 102 99
f 102 104 106
f 99 106 37
f 102 106 99
f 41 107 108
f 107 104 109
f 108 109 110
f 107 109 108
f 104 103 111
f 101 96 112
f 111 113 114
f 103 113 111
f 110 115 116
f 115 114 117
f 116 117 118
f 115 117 116
f 104 111 109
f 111 114 115
f 109 115 110
f 111 115 109
f 41 108 46
f 108 110 119
f 46 119 47
f 108 119 46
f 110 116 120
f 116 118 121
f 120 121 122
f 116 121 120
f 47 123 50
f 123 122 124
f 50 124 51
f 123 124 50
f 110 120 119
f 120 122 123
f 119 123 47
f 120 123 119
f 51 124 125
f 124 122 126
f 125 126 127
f 124 126 125
f 122 121 128
f 121 118 129
f 128 129 130
f 121 129 128
f 127 131 132
f 131 130 133
f 132 133 134
f 131 133 132
f 122 128 126
f 128 130 131
f 126 131 127
f 128 131 126
f 51 125 54
f 125 127 135
f 54 135 55
f 125 135 54
f 127 132 136
f 132 134 137
f 136 137 138
f 132 137 136
f 55 139 57
f 139 138 140
f 57 140 9
f 139 140 57
f 127 136 135
f 136 138 139
f 135 139 55
f 136 139 135
f 9 140 58
f 140 138 141
f 59 142 60
f 143 142 59
f 144 145 146
f 145 147 148
f 146 148 149
f 145 148 146
f 60 150 63
f 150 149 151
f 63 151 65
f 150 151 63
f 144 146 142
f 146 149 150
f 142 150 60
f 146 150 142
f 152 153 154
f 153 155 156
f 154 156 157
f 153 156 154
f 155 158 159
f 158 79 78
f 159 78 75
f 158 78 159
f 157 160 161
f 160 75 74
f 161 74 65
f 160 74 161
f 155 159 156
f 159 75 160
f 156 160 157
f 159 160 156
f 152 162 153
f 162 163 164
f 153 164 155
f 162 164 153
f 163 165 166
f 165 96 95
f 166 95 92
f 165 95 166
f 155 167 158
f 167 92 91
f 158 91 79
f 167 91 158
f 163 166 164
f 166 92 167
f 164 167 155
f 166 167 164
f 152 168 162
f 168 169 170
f 162 170 163
f 168 170 162
f 169 171 172
f 173 118 117
f 174 117 114
f 173 117 174
f 163 175 165
f 175 176 112
f 165 112 96
f 175 112 165
f 169 172 170
f 172 176 175
f 170 175 163
f 172 175 170
f 152 177 168
f 177 178 179
f 168 179 169
f 177 179 168
f 178 180 181
f 180 147 182
f 183 133 130
f 180 182 181
f 169 184 171
f 185 130 129
f 173 129 118
f 185 129 173
f 178 181 179
f 183 130 185
f 179 184 169
f 181 184 179
f 152 154 177
f 154 157 186
f 177 186 178
f 154 186 177
f 157 161 187
f 161 65 151
f 187 151 149
f 161 151 187
f 178 188 180
f 188 149 148
f 180 148 147
f 188 148 180
f 157 187 186
f 187 149 188
f 186 188 178
f 187 188 186
f 14 12 15
f 15 12 11
f 17 13 14
f 14 13 12
f 24 22 17
f 17 22 13
f 29 30 28
f 28 30 26
f 28 26 24
f 24 26 22
f 15 11 62
f 62 11 10
f 62 10 59
f 59 10 58
f 86 31 29
f 29 31 30
f 87 97 86
f 86 97 31
f 89 98 87
f 87 98 97
f 94 105 100
f 100 105 102
f 100 102 89
f 89 102 98
f 101 103 94
f 94 103 105
f 112 113 101
f 101 113 103
f 143 140 142
f 142 140 141
f 59 58 143
f 143 58 140
f 144 138 145
f 145 138 137
f 145 137 147
f 147 137 134
f 142 141 144
f 144 141 138
f 171 173 172
f 172 173 174
f 176 114 112
f 112 114 113
f 172 174 176
f 176 174 114
f 147 134 182
f 182 134 133
f 182 133 181
f 181 133 183
f 184 185 171
f 171 185 173
f 181 183 184
f 184 183 185
