v 0.346557 1.28723 0.0675571
v 0.381427 1.24342 0.0630827
v 0.375844 1.29221 0.0198755
v 0.404693 1.19398 0.0500001
v 0.408089 1.24458 0.0114447
v 0.393953 1.28785 -0.0331253
v 0.414586 1.1427 0.0293051
v 0.427802 1.18471 -0.00863647
v 0.414586 1.13361 0.0293051
v 0.41035 1.08438 0.00257317
v 0.428493 1.1232 -0.0337561
v 0.427802 1.17562 -0.00863647
v 0.43145 1.16487 -0.0713219
v 0.422155 1.23406 -0.0523381
v 0.399505 1.2745 -0.0874107
v 0.43145 1.17396 -0.0713219
v 0.418996 1.2153 -0.107265
v 0.392078 1.25317 -0.138848
v 0.323604 1.32794 0.0363791
v 0.349604 1.33008 -0.0155644
v 0.29345 1.3566 -0.00137424
v 0.363671 1.31955 -0.0793472
v 0.361173 1.29983 -0.133968
v 0.320207 1.33658 -0.122696
v 0.310833 1.35569 -0.0626546
v 0.258389 1.37103 -0.0428292
v 0.272297 1.36062 -0.10589
v 0.221092 1.37014 -0.08483
v 0.296901 1.30124 0.0897862
v 0.269758 1.33921 0.0551463
v 0.242076 1.30523 0.101374
v 0.230987 1.36483 0.00805608
v 0.193354 1.36966 -0.0359797
v 0.168329 1.35396 0.0118035
v 0.203978 1.33782 0.0620742
v 0.186255 1.2989 0.101439
v 0.147923 1.32423 0.0548819
v 0.133689 1.28273 0.0899764
v 0.332637 1.249 0.10629
v 0.278894 1.25937 0.125857
v 0.310828 1.20472 0.133125
v 0.213114 1.25797 0.132785
v 0.156956 1.24528 0.124793
v 0.185707 1.20208 0.146303
v 0.249259 1.20514 0.149477
v 0.28279 1.15778 0.146021
v 0.217754 1.15641 0.15287
v 0.28279 1.14869 0.146021
v 0.217754 1.14732 0.15287
v 0.250657 1.10266 0.143995
v 0.364387 1.20088 0.0988479
v 0.334752 1.14665 0.122468
v 0.30228 1.08949 0.126167
v 0.334752 1.13756 0.122468
v 0.348325 1.08174 0.0949288
v 0.404693 1.18489 0.0500001
v 0.3841 1.13192 0.0787667
v 0.385286 1.08 0.0526583
v 0.3841 1.14101 0.0787667
v 0.364387 1.19179 0.0988479
v 0.407789 1.06315 -0.0493768
v 0.391618 1.04934 -0.101374
v 0.420928 1.10435 -0.0882187
v 0.363068 1.044 -0.149461
v 0.39434 1.09297 -0.14772
v 0.324312 1.04753 -0.189976
v 0.357485 1.09279 -0.192668
v 0.380878 1.14321 -0.1845
v 0.415281 1.16279 -0.13192
v 0.380878 1.1523 -0.1845
v 0.392709 1.20404 -0.166093
v 0.415281 1.1537 -0.13192
v 0.356973 1.25628 -0.182596
v 0.352548 1.20424 -0.208114
v 0.312125 1.2528 -0.216251
v 0.331607 1.13442 -0.223913
v 0.301045 1.08498 -0.224793
v 0.272293 1.12819 -0.246303
v 0.295462 1.19635 -0.240606
v 0.26095 1.243 -0.23725
v 0.272293 1.13728 -0.246303
v 0.240246 1.18295 -0.25287
v 0.207343 1.22761 -0.243994
v 0.352548 1.19515 -0.208114
v 0.295462 1.18725 -0.240606
v 0.331607 1.14351 -0.223913
v 0.320652 1.30112 -0.175622
v 0.263566 1.29323 -0.208114
v 0.20871 1.27873 -0.220746
v 0.211622 1.32156 -0.1845
v 0.267814 1.33727 -0.158929
v 0.215857 1.35282 -0.138015
v 0.167067 1.3584 -0.0948076
v 0.16138 1.33502 -0.14772
v 0.117757 1.3323 -0.101374
v 0.157131 1.29097 -0.196904
v 0.15572 1.24077 -0.226167
v 0.109675 1.24852 -0.194929
v 0.107783 1.29662 -0.153203
v 0.0769144 1.29381 -0.10403
v 0.072714 1.25027 -0.152658
v 0.0476496 1.24588 -0.102573
v 0.138619 1.35205 -0.044517
v 0.0850226 1.31366 -0.0499999
v 0.0502109 1.26711 -0.0506231
v 0.0663822 1.28092 0.00137438
v 0.11161 1.32504 0.00950112
v 0.0949325 1.28626 0.049461
v 0.100515 1.23747 0.0926683
v 0.06366 1.2373 0.0477198
v 0.0771224 1.18706 0.0844998
v 0.0370725 1.22591 -0.0117812
v 0.0295067 1.20706 -0.0662438
v 0.02655 1.1654 -0.028678
v 0.0771224 1.17797 0.0844998
v 0.0427189 1.16747 0.0319204
v 0.0652911 1.12622 0.0660927
v 0.02655 1.1563 -0.028678
v 0.0390044 1.11496 0.00726476
v 0.0659218 1.0771 0.0388483
v 0.0427189 1.17656 0.0319204
v 0.126393 1.19585 0.123913
v 0.105452 1.12602 0.108114
v 0.101027 1.07398 0.0825964
v 0.145875 1.07746 0.116251
v 0.185707 1.19299 0.146303
v 0.162538 1.13392 0.140606
v 0.19705 1.08727 0.13725
v 0.105452 1.13511 0.108114
v 0.162538 1.14301 0.140606
v 0.126393 1.18676 0.123913
v 0.24929 1.05153 0.120746
v 0.194435 1.03704 0.108114
v 0.246378 1.00871 0.0844997
v 0.137348 1.02914 0.075622
v 0.0968269 1.03044 0.0339683
v 0.137793 0.993687 0.0226963
v 0.190186 0.992996 0.0589294
v 0.242143 0.977449 0.0380149
v 0.185703 0.96964 0.00589051
v 0.236908 0.960129 -0.0151699
v 0.300869 1.03929 0.0969043
v 0.29662 0.995247 0.0477198
v 0.290933 0.971866 -0.00519233
v 0.340244 0.997969 0.00137434
v 0.350217 1.03364 0.0532027
v 0.381086 1.03645 0.00403023
v 0.372977 1.01661 -0.05
v 0.319381 0.978213 -0.0554829
v 0.264647 0.960608 -0.0640203
v 0.289671 0.976309 -0.111803
v 0.34639 1.00522 -0.109501
v 0.310077 1.00604 -0.154882
v 0.111443 1.04303 -0.167557
v 0.125363 1.08127 -0.20629
v 0.161099 1.02903 -0.189786
v 0.147172 1.12554 -0.233125
v 0.179106 1.0709 -0.225857
v 0.215924 1.02504 -0.201374
v 0.17521 1.17248 -0.246021
v 0.208741 1.12513 -0.249477
v 0.17521 1.18157 -0.246021
v 0.240246 1.17386 -0.25287
v 0.244886 1.07229 -0.232785
v 0.271745 1.03137 -0.201439
v 0.0765732 1.08685 -0.163083
v 0.0533066 1.13628 -0.15
v 0.0936131 1.12938 -0.198848
v 0.0533066 1.14537 -0.15
v 0.0434144 1.19665 -0.129305
v 0.0738999 1.19835 -0.178767
v 0.123248 1.18361 -0.222468
v 0.123248 1.1927 -0.222468
v 0.0738999 1.18926 -0.178767
v 0.0936131 1.13847 -0.198848
v 0.0821557 1.03806 -0.119875
v 0.0640468 1.04241 -0.0668746
v 0.0499115 1.08568 -0.111445
v 0.0584946 1.05577 -0.0125892
v 0.0358447 1.09621 -0.0476618
v 0.0301982 1.14556 -0.0913634
v 0.0434144 1.18756 -0.129305
v 0.0301982 1.15465 -0.0913634
v 0.134396 1.00232 -0.136379
v 0.16455 0.973663 -0.0986257
v 0.108396 1.00019 -0.0844355
v 0.199611 0.959232 -0.0571707
v 0.147167 0.974571 -0.0373453
v 0.0943288 1.01072 -0.0206528
v 0.188242 0.991052 -0.155146
v 0.254022 0.992444 -0.162074
v 0.227013 0.965434 -0.108056
f 1 2 3
f 2 4 5
f 3 5 6
f 2 5 3
f 4 7 8
f 9 10 11
f 12 11 13
f 9 11 12
f 6 14 15
f 14 16 17
f 15 17 18
f 14 17 15
f 4 8 5
f 8 16 14
f 5 14 6
f 8 14 5
f 1 3 19
f 3 6 20
f 19 20 21
f 3 20 19
f 6 15 22
f 15 18 23
f 22 23 24
f 15 23 22
f 21 25 26
f 25 24 27
f 26 27 28
f 25 27 26
f 6 22 20
f 22 24 25
f 20 25 21
f 22 25 20
f 1 19 29
f 19 21 30
f 29 30 31
f 19 30 29
f 21 26 32
f 26 28 33
f 32 33 34
f 26 33 32
f 31 35 36
f 35 34 37
f 36 37 38
f 35 37 36
f 21 32 30
f 32 34 35
f 30 35 31
f 32 35 30
f 1 29 39
f 29 31 40
f 39 40 41
f 29 40 39
f 31 36 42
f 36 38 43
f 42 43 44
f 36 43 42
f 41 45 46
f 45 44 47
f 48 49 50
f 45 47 46
f 31 42 40
f 42 44 45
f 40 45 41
f 42 45 40
f 1 39 2
f 39 41 51
f 2 51 4
f 39 51 2
f 41 46 52
f 48 50 53
f 54 53 55
f 48 53 54
f 56 57 9
f 57 55 58
f 9 58 10
f 57 58 9
f 41 52 51
f 54 55 57
f 51 59 4
f 54 57 60
f 10 61 11
f 61 62 63
f 11 63 13
f 61 63 11
f 62 64 65
f 64 66 67
f 65 67 68
f 64 67 65
f 16 69 17
f 69 70 71
f 17 71 18
f 69 71 17
f 62 65 63
f 65 68 72
f 63 72 13
f 65 72 63
f 18 71 73
f 71 70 74
f 73 74 75
f 71 74 73
f 68 67 76
f 67 66 77
f 76 77 78
f 67 77 76
f 75 79 80
f 79 81 82
f 80 82 83
f 79 82 80
f 68 76 84
f 76 78 85
f 74 79 75
f 86 79 74
f 18 73 23
f 73 75 87
f 23 87 24
f 73 87 23
f 75 80 88
f 80 83 89
f 88 89 90
f 80 89 88
f 24 91 27
f 91 90 92
f 27 92 28
f 91 92 27
f 75 88 87
f 88 90 91
f 87 91 24
f 88 91 87
f 28 92 93
f 92 90 94
f 93 94 95
f 92 94 93
f 90 89 96
f 89 83 97
f 96 97 98
f 89 97 96
f 95 99 100
f 99 98 101
f 100 101 102
f 99 101 100
f 90 96 94
f 96 98 99
f 94 99 95
f 96 99 94
f 28 93 33
f 93 95 103
f 33 103 34
f 93 103 33
f 95 100 104
f 100 102 105
f 104 105 106
f 100 105 104
f 34 107 37
f 107 106 108
f 37 108 38
f 107 108 37
f 95 104 103
f 104 106 107
f 103 107 34
f 104 107 103
f 38 108 109
f 108 106 110
f 109 110 111
f 108 110 109
f 106 105 112
f 105 102 113
f 112 113 114
f 105 113 112
f 115 116 117
f 116 118 119
f 117 119 120
f 116 119 117
f 106 112 110
f 112 114 121
f 110 121 111
f 112 121 110
f 38 109 43
f 109 111 122
f 43 122 44
f 109 122 43
f 115 117 123
f 117 120 124
f 123 124 125
f 117 124 123
f 126 127 49
f 127 125 128
f 49 128 50
f 127 128 49
f 111 129 122
f 123 125 127
f 122 130 44
f 123 127 131
f 50 128 132
f 128 125 133
f 132 133 134
f 128 133 132
f 125 124 135
f 124 120 136
f 135 136 137
f 124 136 135
f 134 138 139
f 138 137 140
f 139 140 141
f 138 140 139
f 125 135 133
f 135 137 138
f 133 138 134
f 135 138 133
f 50 132 53
f 132 134 142
f 53 142 55
f 132 142 53
f 134 139 143
f 139 141 144
f 143 144 145
f 139 144 143
f 55 146 58
f 146 145 147
f 58 147 10
f 146 147 58
f 134 143 142
f 143 145 146
f 142 146 55
f 143 146 142
f 10 147 61
f 147 145 148
f 61 148 62
f 147 148 61
f 145 144 149
f 144 141 150
f 149 150 151
f 144 150 149
f 62 152 64
f 152 151 153
f 64 153 66
f 152 153 64
f 145 149 148
f 149 151 152
f 148 152 62
f 149 152 148
f 154 155 156
f 155 157 158
f 156 158 159
f 155 158 156
f 157 160 161
f 162 83 82
f 161 163 78
f 160 163 161
f 159 164 165
f 164 78 77
f 165 77 66
f 164 77 165
f 157 161 158
f 161 78 164
f 158 164 159
f 161 164 158
f 154 166 155
f 166 167 168
f 155 168 157
f 166 168 155
f 169 170 171
f 170 102 101
f 171 101 98
f 170 101 171
f 157 172 160
f 173 98 97
f 162 97 83
f 173 97 162
f 167 174 168
f 171 98 173
f 168 172 157
f 171 173 175
f 154 176 166
f 176 177 178
f 166 178 167
f 176 178 166
f 177 179 180
f 179 120 119
f 180 119 118
f 179 119 180
f 167 181 182
f 183 114 113
f 170 113 102
f 183 113 170
f 177 180 178
f 180 118 181
f 178 181 167
f 180 181 178
f 154 184 176
f 184 185 186
f 176 186 177
f 184 186 176
f 185 187 188
f 187 141 140
f 188 140 137
f 187 140 188
f 177 189 179
f 189 137 136
f 179 136 120
f 189 136 179
f 185 188 186
f 188 137 189
f 186 189 177
f 188 189 186
f 154 156 184
f 156 159 190
f 184 190 185
f 156 190 184
f 159 165 191
f 165 66 153
f 191 153 151
f 165 153 191
f 185 192 187
f 192 151 150
f 187 150 141
f 192 150 187
f 159 191 190
f 191 151 192
f 190 192 185
f 191 192 190
f 13 16 12
f 12 16 8
f 12 8 9
f 9 8 7
f 48 46 49
f 49 46 47
f 54 52 48
f 48 52 46
f 56 4 57
f 57 4 59
f 9 7 56
f 56 7 4
f 57 59 60
f 60 59 51
f 60 51 54
f 54 51 52
f 68 70 72
f 72 70 69
f 72 69 13
f 13 69 16
f 76 86 84
f 84 86 74
f 84 74 68
f 68 74 70
f 78 81 85
f 85 81 79
f 85 79 76
f 76 79 86
f 115 111 116
f 116 111 121
f 116 121 118
f 118 121 114
f 123 129 115
f 115 129 111
f 126 44 127
f 127 44 130
f 49 47 126
f 126 47 44
f 127 130 131
f 131 130 122
f 131 122 123
f 123 122 129
f 163 82 78
f 78 82 81
f 160 162 163
f 163 162 82
f 172 173 160
f 160 173 162
f 167 169 174
f 174 169 171
f 174 171 168
f 168 171 175
f 168 175 172
f 172 175 173
f 181 183 182
f 182 183 170
f 182 170 167
f 167 170 169
f 118 114 181
f 181 114 183
