v 0.346557 1.28723 0.227557
v 0.381427 1.24342 0.223083
v 0.375844 1.29221 0.179875
v 0.404693 1.19398 0.21
v 0.408089 1.24458 0.171445
v 0.393953 1.28785 0.126875
v 0.414586 1.1427 0.189305
v 0.427802 1.18471 0.151363
v 0.41035 1.09347 0.162573
v 0.428493 1.13229 0.126244
v 0.43145 1.17396 0.088678
v 0.393953 1.28785 -0.0331253
v 0.422155 1.23406 -0.0523381
v 0.399505 1.2745 -0.0874107
v 0.43145 1.17396 -0.0713219
v 0.418996 1.2153 -0.107265
v 0.392078 1.25317 -0.138848
v 0.422155 1.23406 0.107662
v 0.323604 1.32794 0.196379
v 0.349604 1.33008 0.144436
v 0.29345 1.3566 0.158626
v 0.363671 1.31955 -0.0793472
v 0.361173 1.29983 -0.133968
v 0.320207 1.33658 -0.122696
v 0.310833 1.35569 0.0973453
v 0.258389 1.37103 0.117171
v 0.310833 1.35569 -0.0626546
v 0.272297 1.36062 -0.10589
v 0.258389 1.37103 -0.0428292
v 0.221092 1.37014 -0.08483
v 0.363671 1.31955 0.0806528
v 0.349604 1.33008 -0.0155644
v 0.296901 1.30124 0.249786
v 0.269758 1.33921 0.215146
v 0.242076 1.30523 0.261374
v 0.230987 1.36483 0.168056
v 0.193354 1.36966 -0.0359797
v 0.193354 1.36966 0.12402
v 0.168329 1.35396 0.171803
v 0.203978 1.33782 0.222074
v 0.186255 1.2989 0.261439
v 0.147923 1.32423 0.214882
v 0.133689 1.28273 0.249976
v 0.332637 1.249 0.26629
v 0.278894 1.25937 0.285857
v 0.310828 1.20472 0.293125
v 0.213114 1.25797 0.292785
v 0.156956 1.24528 0.284793
v 0.185707 1.20208 0.306303
v 0.249259 1.20514 0.309477
v 0.28279 1.15778 0.306021
v 0.217754 1.15641 0.31287
v 0.250657 1.11175 0.303995
v 0.364387 1.20088 0.258848
v 0.334752 1.14665 0.282468
v 0.30228 1.09858 0.286167
v 0.348325 1.09083 0.254929
v 0.3841 1.14101 0.238767
v 0.385286 1.08909 0.212658
v 0.407789 1.07225 0.110623
v 0.407789 1.07225 -0.0493768
v 0.391618 1.05843 -0.101374
v 0.420928 1.11344 -0.0882187
v 0.428493 1.13229 -0.0337561
v 0.363068 1.05309 -0.149461
v 0.39434 1.10206 -0.14772
v 0.324312 1.05662 -0.189976
v 0.357485 1.10188 -0.192668
v 0.380878 1.1523 -0.1845
v 0.415281 1.16279 -0.13192
v 0.392709 1.20404 -0.166093
v 0.356973 1.25628 -0.182596
v 0.352548 1.20424 -0.208114
v 0.312125 1.2528 -0.216251
v 0.331607 1.14351 -0.223913
v 0.301045 1.09407 -0.224793
v 0.272293 1.13728 -0.246303
v 0.295462 1.19635 -0.240606
v 0.26095 1.243 -0.23725
v 0.240246 1.18295 -0.25287
v 0.207343 1.22761 -0.243994
v 0.320652 1.30112 -0.175622
v 0.263566 1.29323 -0.208114
v 0.20871 1.27873 -0.220746
v 0.211622 1.32156 -0.1845
v 0.267814 1.33727 -0.158929
v 0.215857 1.35282 -0.138015
v 0.167067 1.3584 -0.0948076
v 0.16138 1.33502 -0.14772
v 0.117757 1.3323 -0.101374
v 0.157131 1.29097 -0.196904
v 0.15572 1.24077 -0.226167
v 0.109675 1.24852 -0.194929
v 0.107783 1.29662 -0.153203
v 0.0769144 1.29381 -0.10403
v 0.072714 1.25027 -0.152658
v 0.0476496 1.24588 -0.102573
v 0.138619 1.35205 -0.044517
v 0.138619 1.35205 0.115483
v 0.0850226 1.31366 -0.0499999
v 0.0502109 1.26711 -0.0506231
v 0.0850226 1.31366 0.11
v 0.0502109 1.26711 0.109377
v 0.0663822 1.28092 0.161374
v 0.11161 1.32504 0.169501
v 0.0949325 1.28626 0.209461
v 0.100515 1.23747 0.252668
v 0.06366 1.2373 0.20772
v 0.0771224 1.18706 0.2445
v 0.0370725 1.22591 0.148219
v 0.0295067 1.20706 -0.0662438
v 0.0295067 1.20706 0.0937562
v 0.02655 1.1654 0.131322
v 0.0427189 1.17656 0.19192
v 0.0652911 1.13531 0.226093
v 0.0390044 1.12406 0.167265
v 0.0659218 1.08619 0.198848
v 0.126393 1.19585 0.283913
v 0.105452 1.13511 0.268114
v 0.101027 1.08307 0.242596
v 0.145875 1.08655 0.276251
v 0.162538 1.14301 0.300606
v 0.19705 1.09636 0.29725
v 0.24929 1.06062 0.280746
v 0.194435 1.04613 0.268114
v 0.246378 1.0178 0.2445
v 0.137348 1.03823 0.235622
v 0.0968269 1.03953 0.193968
v 0.137793 1.00278 0.182696
v 0.190186 1.00209 0.218929
v 0.242143 0.986539 0.198015
v 0.185703 0.978731 0.16589
v 0.236908 0.96922 0.14483
v 0.300869 1.04838 0.256904
v 0.29662 1.00434 0.20772
v 0.290933 0.980957 0.154808
v 0.340244 1.00706 0.161374
v 0.350217 1.04273 0.213203
v 0.381086 1.04554 0.16403
v 0.372977 1.0257 0.11
v 0.372977 1.0257 -0.05
v 0.319381 0.987304 0.104517
v 0.264647 0.969698 0.0959797
v 0.319381 0.987304 -0.0554829
v 0.264647 0.969698 -0.0640203
v 0.289671 0.9854 -0.111803
v 0.34639 1.01431 -0.109501
v 0.310077 1.01513 -0.154882
v 0.111443 1.05212 -0.167557
v 0.125363 1.09036 -0.20629
v 0.161099 1.03812 -0.189786
v 0.147172 1.13463 -0.233125
v 0.179106 1.07999 -0.225857
v 0.215924 1.03413 -0.201374
v 0.17521 1.18157 -0.246021
v 0.208741 1.13422 -0.249477
v 0.244886 1.08138 -0.232785
v 0.271745 1.04046 -0.201439
v 0.0765732 1.09594 -0.163083
v 0.0533066 1.14537 -0.15
v 0.0936131 1.13847 -0.198848
v 0.0434144 1.19665 -0.129305
v 0.0738999 1.19835 -0.178767
v 0.123248 1.1927 -0.222468
v 0.0821557 1.04715 -0.119875
v 0.0640468 1.05151 -0.0668746
v 0.0499115 1.09477 -0.111445
v 0.0640468 1.05151 0.0931254
v 0.0584946 1.06486 0.147411
v 0.0358447 1.1053 0.112338
v 0.0301982 1.15465 -0.0913634
v 0.02655 1.1654 -0.028678
v 0.0358447 1.1053 -0.0476618
v 0.134396 1.01141 -0.136379
v 0.16455 0.982753 -0.0986257
v 0.108396 1.00928 -0.0844355
v 0.199611 0.968323 -0.0571707
v 0.147167 0.983661 -0.0373453
v 0.199611 0.968323 0.102829
v 0.147167 0.983661 0.122655
v 0.0943288 1.01981 0.139347
v 0.0943288 1.01981 -0.0206528
v 0.108396 1.00928 0.0755644
v 0.188242 1.00014 -0.155146
v 0.254022 1.00153 -0.162074
v 0.227013 0.974525 -0.108056
f 1 2 3
f 2 4 5
f 3 5 6
f 2 5 3
f 4 7 8
f 7 9 10
f 8 10 11
f 7 10 8
f 12 13 14
f 13 15 16
f 14 16 17
f 13 16 14
f 4 8 5
f 8 11 18
f 5 18 6
f 8 18 5
f 1 3 19
f 3 6 20
f 19 20 21
f 3 20 19
f 12 14 22
f 14 17 23
f 22 23 24
f 14 23 22
f 21 25 26
f 27 24 28
f 29 28 30
f 27 28 29
f 6 31 20
f 22 24 27
f 20 25 21
f 22 27 32
f 1 19 33
f 19 21 34
f 33 34 35
f 19 34 33
f 21 26 36
f 29 30 37
f 36 38 39
f 26 38 36
f 35 40 41
f 40 39 42
f 41 42 43
f 40 42 41
f 21 36 34
f 36 39 40
f 34 40 35
f 36 40 34
f 1 33 44
f 33 35 45
f 44 45 46
f 33 45 44
f 35 41 47
f 41 43 48
f 47 48 49
f 41 48 47
f 46 50 51
f 50 49 52
f 51 52 53
f 50 52 51
f 35 47 45
f 47 49 50
f 45 50 46
f 47 50 45
f 1 44 2
f 44 46 54
f 2 54 4
f 44 54 2
f 46 51 55
f 51 53 56
f 55 56 57
f 51 56 55
f 4 58 7
f 58 57 59
f 7 59 9
f 58 59 7
f 46 55 54
f 55 57 58
f 54 58 4
f 55 58 54
f 9 60 10
f 61 62 63
f 64 63 15
f 61 63 64
f 62 65 66
f 65 67 68
f 66 68 69
f 65 68 66
f 15 70 16
f 70 69 71
f 16 71 17
f 70 71 16
f 62 66 63
f 66 69 70
f 63 70 15
f 66 70 63
f 17 71 72
f 71 69 73
f 72 73 74
f 71 73 72
f 69 68 75
f 68 67 76
f 75 76 77
f 68 76 75
f 74 78 79
f 78 77 80
f 79 80 81
f 78 80 79
f 69 75 73
f 75 77 78
f 73 78 74
f 75 78 73
f 17 72 23
f 72 74 82
f 23 82 24
f 72 82 23
f 74 79 83
f 79 81 84
f 83 84 85
f 79 84 83
f 24 86 28
f 86 85 87
f 28 87 30
f 86 87 28
f 74 83 82
f 83 85 86
f 82 86 24
f 83 86 82
f 30 87 88
f 87 85 89
f 88 89 90
f 87 89 88
f 85 84 91
f 84 81 92
f 91 92 93
f 84 92 91
f 90 94 95
f 94 93 96
f 95 96 97
f 94 96 95
f 85 91 89
f 91 93 94
f 89 94 90
f 91 94 89
f 30 88 37
f 88 90 98
f 38 99 39
f 88 98 37
f 90 95 100
f 95 97 101
f 102 103 104
f 95 101 100
f 39 105 42
f 105 104 106
f 42 106 43
f 105 106 42
f 90 100 98
f 102 104 105
f 99 105 39
f 102 105 99
f 43 106 107
f 106 104 108
f 107 108 109
f 106 108 107
f 104 103 110
f 101 97 111
f 110 112 113
f 103 112 110
f 109 114 115
f 114 113 116
f 115 116 117
f 114 116 115
f 104 110 108
f 110 113 114
f 108 114 109
f 110 114 108
f 43 107 48
f 107 109 118
f 48 118 49
f 107 118 48
f 109 115 119
f 115 117 120
f 119 120 121
f 115 120 119
f 49 122 52
f 122 121 123
f 52 123 53
f 122 123 52
f 109 119 118
f 119 121 122
f 118 122 49
f 119 122 118
f 53 123 124
f 123 121 125
f 124 125 126
f 123 125 124
f 121 120 127
f 120 117 128
f 127 128 129
f 120 128 127
f 126 130 131
f 130 129 132
f 131 132 133
f 130 132 131
f 121 127 125
f 127 129 130
f 125 130 126
f 127 130 125
f 53 124 56
f 124 126 134
f 56 134 57
f 124 134 56
f 126 131 135
f 131 133 136
f 135 136 137
f 131 136 135
f 57 138 59
f 138 137 139
f 59 139 9
f 138 139 59
f 126 135 134
f 135 137 138
f 134 138 57
f 135 138 134
f 9 139 60
f 139 137 140
f 61 141 62
f 139 140 60
f 137 136 142
f 136 133 143
f 144 145 146
f 136 143 142
f 62 147 65
f 147 146 148
f 65 148 67
f 147 148 65
f 137 142 140
f 144 146 147
f 141 147 62
f 144 147 141
f 149 150 151
f 150 152 153
f 151 153 154
f 150 153 151
f 152 155 156
f 155 81 80
f 156 80 77
f 155 80 156
f 154 157 158
f 157 77 76
f 158 76 67
f 157 76 158
f 152 156 153
f 156 77 157
f 153 157 154
f 156 157 153
f 149 159 150
f 159 160 161
f 150 161 152
f 159 161 150
f 160 162 163
f 162 97 96
f 163 96 93
f 162 96 163
f 152 164 155
f 164 93 92
f 155 92 81
f 164 92 155
f 160 163 161
f 163 93 164
f 161 164 152
f 163 164 161
f 149 165 159
f 165 166 167
f 159 167 160
f 165 167 159
f 168 169 170
f 169 117 116
f 170 116 113
f 169 116 170
f 160 171 162
f 171 172 111
f 162 111 97
f 171 111 162
f 166 173 167
f 173 172 171
f 167 171 160
f 173 171 167
f 149 174 165
f 174 175 176
f 165 176 166
f 174 176 165
f 175 177 178
f 179 133 132
f 180 132 129
f 179 132 180
f 168 181 169
f 181 129 128
f 169 128 117
f 181 128 169
f 175 178 176
f 180 129 181
f 176 182 166
f 180 181 183
f 149 151 174
f 151 154 184
f 174 184 175
f 151 184 174
f 154 158 185
f 158 67 148
f 185 148 146
f 158 148 185
f 175 186 177
f 186 146 145
f 179 143 133
f 186 145 177
f 154 185 184
f 185 146 186
f 184 186 175
f 185 186 184
f 12 6 13
f 13 6 18
f 13 18 15
f 15 18 11
f 22 31 12
f 12 31 6
f 29 26 27
f 27 26 25
f 27 25 32
f 32 25 20
f 32 20 22
f 22 20 31
f 37 38 29
f 29 38 26
f 15 11 64
f 64 11 10
f 64 10 61
f 61 10 60
f 98 99 37
f 37 99 38
f 101 103 100
f 100 103 102
f 100 102 98
f 98 102 99
f 111 112 101
f 101 112 103
f 61 60 141
f 141 60 140
f 144 142 145
f 145 142 143
f 141 140 144
f 144 140 142
f 172 113 111
f 111 113 112
f 166 168 173
f 173 168 170
f 173 170 172
f 172 170 113
f 177 179 178
f 178 179 180
f 178 180 176
f 176 180 183
f 176 183 182
f 182 183 181
f 182 181 166
f 166 181 168
f 145 143 177
f 177 143 179
