v 0.346557 1.28723 0.227557
v 0.381427 1.24342 0.223083
v 0.375844 1.29221 0.179875
v 0.404693 1.19398 0.21
v 0.408089 1.24458 0.171445
v 0.393953 1.28785 0.126875
v 0.414586 1.1427 0.189305
v 0.427802 1.18471 0.151363
v 0.414586 1.12978 0.189305
v 0.41035 1.08055 0.162573
v 0.428493 1.11937 0.126244
v 0.427802 1.17179 0.151363
v 0.43145 1.16104 0.088678
v 0.422155 1.23406 0.107662
v 0.399505 1.2745 0.0725893
v 0.43145 1.17396 0.088678
v 0.418996 1.2153 0.0527353
v 0.392078 1.25317 0.0211518
v 0.323604 1.32794 0.196379
v 0.349604 1.33008 0.144436
v 0.29345 1.3566 0.158626
v 0.363671 1.31955 0.0806528
v 0.361173 1.29983 0.0260318
v 0.320207 1.33658 0.0373037
v 0.310833 1.35569 0.0973453
v 0.258389 1.37103 0.117171
v 0.272297 1.36062 0.0541095
v 0.221092 1.37014 0.0751699
v 0.296901 1.30124 0.249786
v 0.269758 1.33921 0.215146
v 0.242076 1.30523 0.261374
v 0.230987 1.36483 0.168056
v 0.193354 1.36966 0.12402
v 0.168329 1.35396 0.171803
v 0.203978 1.33782 0.222074
v 0.186255 1.2989 0.261439
v 0.147923 1.32423 0.214882
v 0.133689 1.28273 0.249976
v 0.332637 1.249 0.26629
v 0.278894 1.25937 0.285857
v 0.310828 1.20472 0.293125
v 0.213114 1.25797 0.292785
v 0.156956 1.24528 0.284793
v 0.185707 1.20208 0.306303
v 0.249259 1.20514 0.309477
v 0.28279 1.15778 0.306021
v 0.217754 1.15641 0.31287
v 0.28279 1.14486 0.306021
v 0.217754 1.14348 0.31287
v 0.250657 1.09882 0.303995
v 0.364387 1.20088 0.258848
v 0.334752 1.14665 0.282468
v 0.30228 1.08566 0.286167
v 0.334752 1.13373 0.282468
v 0.348325 1.07791 0.254929
v 0.404693 1.18106 0.21
v 0.3841 1.12808 0.238767
v 0.385286 1.07616 0.212658
v 0.3841 1.14101 0.238767
v 0.364387 1.18796 0.258848
v 0.407789 1.05932 0.110623
v 0.391618 1.04551 0.0586257
v 0.420928 1.10052 0.0717813
v 0.363068 1.04017 0.0105391
v 0.39434 1.08913 0.0122802
v 0.324312 1.0437 -0.0299763
v 0.357485 1.08896 -0.0326682
v 0.380878 1.13938 -0.0244997
v 0.415281 1.16279 0.0280797
v 0.380878 1.1523 -0.0244997
v 0.392709 1.20404 -0.00609265
v 0.415281 1.14987 0.0280797
v 0.356973 1.25628 -0.0225963
v 0.352548 1.20424 -0.0481139
v 0.312125 1.2528 -0.0562508
v 0.331607 1.13059 -0.0639133
v 0.301045 1.08115 -0.0647926
v 0.272293 1.12435 -0.0863031
v 0.295462 1.19635 -0.0806059
v 0.26095 1.243 -0.0772496
v 0.272293 1.13728 -0.0863031
v 0.240246 1.18295 -0.0928704
v 0.207343 1.22761 -0.0839945
v 0.352548 1.19132 -0.0481139
v 0.295462 1.18342 -0.0806059
v 0.331607 1.14351 -0.0639133
v 0.320652 1.30112 -0.0156219
v 0.263566 1.29323 -0.0481139
v 0.20871 1.27873 -0.060746
v 0.211622 1.32156 -0.0244997
v 0.267814 1.33727 0.00107062
v 0.215857 1.35282 0.0219851
v 0.167067 1.3584 0.0651924
v 0.16138 1.33502 0.0122802
v 0.117757 1.3323 0.0586257
v 0.157131 1.29097 -0.0369043
v 0.15572 1.24077 -0.0661668
v 0.109675 1.24852 -0.0349288
v 0.107783 1.29662 0.00679737
v 0.0769144 1.29381 0.0559698
v 0.072714 1.25027 0.00734174
v 0.0476496 1.24588 0.0574269
v 0.138619 1.35205 0.115483
v 0.0850226 1.31366 0.11
v 0.0502109 1.26711 0.109377
v 0.0663822 1.28092 0.161374
v 0.11161 1.32504 0.169501
v 0.0949325 1.28626 0.209461
v 0.100515 1.23747 0.252668
v 0.06366 1.2373 0.20772
v 0.0771224 1.18706 0.2445
v 0.0370725 1.22591 0.148219
v 0.0295067 1.20706 0.0937562
v 0.02655 1.1654 0.131322
v 0.0771224 1.17413 0.2445
v 0.0427189 1.16364 0.19192
v 0.0652911 1.12239 0.226093
v 0.02655 1.15247 0.131322
v 0.0390044 1.11113 0.167265
v 0.0659218 1.07327 0.198848
v 0.0427189 1.17656 0.19192
v 0.126393 1.19585 0.283913
v 0.105452 1.12219 0.268114
v 0.101027 1.07015 0.242596
v 0.145875 1.07363 0.276251
v 0.185707 1.18916 0.306303
v 0.162538 1.13009 0.300606
v 0.19705 1.08344 0.29725
v 0.105452 1.13511 0.268114
v 0.162538 1.14301 0.300606
v 0.126393 1.18293 0.283913
v 0.24929 1.0477 0.280746
v 0.194435 1.03321 0.268114
v 0.246378 1.00488 0.2445
v 0.137348 1.02531 0.235622
v 0.0968269 1.02661 0.193968
v 0.137793 0.989855 0.182696
v 0.190186 0.989164 0.218929
v 0.242143 0.973617 0.198015
v 0.185703 0.965809 0.16589
v 0.236908 0.956297 0.14483
v 0.300869 1.03546 0.256904
v 0.29662 0.991415 0.20772
v 0.290933 0.968034 0.154808
v 0.340244 0.994137 0.161374
v 0.350217 1.02981 0.213203
v 0.381086 1.03262 0.16403
v 0.372977 1.01278 0.11
v 0.319381 0.974381 0.104517
v 0.264647 0.956776 0.0959797
v 0.289671 0.972477 0.0481966
v 0.34639 1.00139 0.050499
v 0.310077 1.00221 0.00511817
v 0.111443 1.0392 -0.00755705
v 0.125363 1.07743 -0.0462898
v 0.161099 1.02519 -0.0297862
v 0.147172 1.12171 -0.0731254
v 0.179106 1.06707 -0.0658569
v 0.215924 1.02121 -0.0413743
v 0.17521 1.16865 -0.0860208
v 0.208741 1.1213 -0.0894774
v 0.17521 1.18157 -0.0860208
v 0.240246 1.17003 -0.0928704
v 0.244886 1.06846 -0.0727849
v 0.271745 1.02753 -0.0414393
v 0.0765732 1.08302 -0.00308262
v 0.0533066 1.13245 0.01
v 0.0936131 1.12555 -0.0388478
v 0.0533066 1.14537 0.01
v 0.0434144 1.19665 0.030695
v 0.0738999 1.19835 -0.0187667
v 0.123248 1.17978 -0.0624683
v 0.123248 1.1927 -0.0624683
v 0.0738999 1.18543 -0.0187667
v 0.0936131 1.13847 -0.0388478
v 0.0821557 1.03423 0.0401246
v 0.0640468 1.03858 0.0931254
v 0.0499115 1.08185 0.0485554
v 0.0584946 1.05193 0.147411
v 0.0358447 1.09238 0.112338
v 0.0301982 1.14173 0.0686365
v 0.0434144 1.18373 0.030695
v 0.0301982 1.15465 0.0686365
v 0.134396 0.998491 0.0236209
v 0.16455 0.969831 0.0613743
v 0.108396 0.996356 0.0755644
v 0.199611 0.9554 0.102829
v 0.147167 0.970739 0.122655
v 0.0943288 1.00688 0.139347
v 0.188242 0.98722 0.00485376
v 0.254022 0.988612 -0.00207417
v 0.227013 0.961603 0.051944
f 1 2 3
f 2 4 5
f 3 5 6
f 2 5 3
f 4 7 8
f 9 10 11
f 12 11 13
f 9 11 12
f 6 14 15
f 14 16 17
f 15 17 18
f 14 17 15
f 4 8 5
f 8 16 14
f 5 14 6
f 8 14 5
f 1 3 19
f 3 6 20
f 19 20 21
f 3 20 19
f 6 15 22
f 15 18 23
f 22 23 24
f 15 23 22
f 21 25 26
f 25 24 27
f 26 27 28
f 25 27 26
f 6 22 20
f 22 24 25
f 20 25 21
f 22 25 20
f 1 19 29
f 19 21 30
f 29 30 31
f 19 30 29
f 21 26 32
f 26 28 33
f 32 33 34
f 26 33 32
f 31 35 36
f 35 34 37
f 36 37 38
f 35 37 36
f 21 32 30
f 32 34 35
f 30 35 31
f 32 35 30
f 1 29 39
f 29 31 40
f 39 40 41
f 29 40 39
f 31 36 42
f 36 38 43
f 42 43 44
f 36 43 42
f 41 45 46
f 45 44 47
f 48 49 50
f 45 47 46
f 31 42 40
f 42 44 45
f 40 45 41
f 42 45 40
f 1 39 2
f 39 41 51
f 2 51 4
f 39 51 2
f 41 46 52
f 48 50 53
f 54 53 55
f 48 53 54
f 56 57 9
f 57 55 58
f 9 58 10
f 57 58 9
f 41 52 51
f 54 55 57
f 51 59 4
f 54 57 60
f 10 61 11
f 61 62 63
f 11 63 13
f 61 63 11
f 62 64 65
f 64 66 67
f 65 67 68
f 64 67 65
f 16 69 17
f 69 70 71
f 17 71 18
f 69 71 17
f 62 65 63
f 65 68 72
f 63 72 13
f 65 72 63
f 18 71 73
f 71 70 74
f 73 74 75
f 71 74 73
f 68 67 76
f 67 66 77
f 76 77 78
f 67 77 76
f 75 79 80
f 79 81 82
f 80 82 83
f 79 82 80
f 68 76 84
f 76 78 85
f 74 79 75
f 86 79 74
f 18 73 23
f 73 75 87
f 23 87 24
f 73 87 23
f 75 80 88
f 80 83 89
f 88 89 90
f 80 89 88
f 24 91 27
f 91 90 92
f 27 92 28
f 91 92 27
f 75 88 87
f 88 90 91
f 87 91 24
f 88 91 87
f 28 92 93
f 92 90 94
f 93 94 95
f 92 94 93
f 90 89 96
f 89 83 97
f 96 97 98
f 89 97 96
f 95 99 100
f 99 98 101
f 100 101 102
f 99 101 100
f 90 96 94
f 96 98 99
f 94 99 95
f 96 99 94
f 28 93 33
f 93 95 103
f 33 103 34
f 93 103 33
f 95 100 104
f 100 102 105
f 104 105 106
f 100 105 104
f 34 107 37
f 107 106 108
f 37 108 38
f 107 108 37
f 95 104 103
f 104 106 107
f 103 107 34
f 104 107 103
f 38 108 109
f 108 106 110
f 109 110 111
f 108 110 109
f 106 105 112
f 105 102 113
f 112 113 114
f 105 113 112
f 115 116 117
f 116 118 119
f 117 119 120
f 116 119 117
f 106 112 110
f 112 114 121
f 110 121 111
f 112 121 110
f 38 109 43
f 109 111 122
f 43 122 44
f 109 122 43
f 115 117 123
f 117 120 124
f 123 124 125
f 117 124 123
f 126 127 49
f 127 125 128
f 49 128 50
f 127 128 49
f 111 129 122
f 123 125 127
f 122 130 44
f 123 127 131
f 50 128 132
f 128 125 133
f 132 133 134
f 128 133 132
f 125 124 135
f 124 120 136
f 135 136 137
f 124 136 135
f 134 138 139
f 138 137 140
f 139 140 141
f 138 140 139
f 125 135 133
f 135 137 138
f 133 138 134
f 135 138 133
f 50 132 53
f 132 134 142
f 53 142 55
f 132 142 53
f 134 139 143
f 139 141 144
f 143 144 145
f 139 144 143
f 55 146 58
f 146 145 147
f 58 147 10
f 146 147 58
f 134 143 142
f 143 145 146
f 142 146 55
f 143 146 142
f 10 147 61
f 147 145 148
f 61 148 62
f 147 148 61
f 145 144 149
f 144 141 150
f 149 150 151
f 144 150 149
f 62 152 64
f 152 151 153
f 64 153 66
f 152 153 64
f 145 149 148
f 149 151 152
f 148 152 62
f 149 152 148
f 154 155 156
f 155 157 158
f 156 158 159
f 155 158 156
f 157 160 161
f 162 83 82
f 161 163 78
f 160 163 161
f 159 164 165
f 164 78 77
f 165 77 66
f 164 77 165
f 157 161 158
f 161 78 164
f 158 164 159
f 161 164 158
f 154 166 155
f 166 167 168
f 155 168 157
f 166 168 155
f 169 170 171
f 170 102 101
f 171 101 98
f 170 101 171
f 157 172 160
f 173 98 97
f 162 97 83
f 173 97 162
f 167 174 168
f 171 98 173
f 168 172 157
f 171 173 175
f 154 176 166
f 176 177 178
f 166 178 167
f 176 178 166
f 177 179 180
f 179 120 119
f 180 119 118
f 179 119 180
f 167 181 182
f 183 114 113
f 170 113 102
f 183 113 170
f 177 180 178
f 180 118 181
f 178 181 167
f 180 181 178
f 154 184 176
f 184 185 186
f 176 186 177
f 184 186 176
f 185 187 188
f 187 141 140
f 188 140 137
f 187 140 188
f 177 189 179
f 189 137 136
f 179 136 120
f 189 136 179
f 185 188 186
f 188 137 189
f 186 189 177
f 188 189 186
f 154 156 184
f 156 159 190
f 184 190 185
f 156 190 184
f 159 165 191
f 165 66 153
f 191 153 151
f 165 153 191
f 185 192 187
f 192 151 150
f 187 150 141
f 192 150 187
f 159 191 190
f 191 151 192
f 190 192 185
f 191 192 190
f 4 56 7
f 7 56 9
f 7 9 8
f 8 9 12
f 8 12 16
f 16 12 13
f 44 126 47
f 47 126 49
f 47 49 46
f 46 49 48
f 46 48 52
f 52 48 54
f 52 54 51
f 51 54 60
f 51 60 59
f 59 60 57
f 59 57 4
f 4 57 56
f 16 13 69
f 69 13 72
f 69 72 70
f 70 72 68
f 70 68 74
f 74 68 84
f 79 85 81
f 81 85 78
f 81 78 82
f 82 78 163
f 86 76 79
f 79 76 85
f 74 84 86
f 86 84 76
f 114 118 121
f 121 118 116
f 121 116 111
f 111 116 115
f 111 115 129
f 129 115 123
f 129 123 122
f 122 123 131
f 122 131 130
f 130 131 127
f 130 127 44
f 44 127 126
f 82 163 162
f 162 163 160
f 169 167 170
f 170 167 182
f 171 174 169
f 169 174 167
f 162 160 173
f 173 160 172
f 173 172 175
f 175 172 168
f 175 168 171
f 171 168 174
f 183 181 114
f 114 181 118
f 170 182 183
f 183 182 181
