v 0.346557 1.19286 0.427557
v 0.381427 1.14904 0.423083
v 0.375844 1.19783 0.379875
v 0.404693 1.09961 0.41
v 0.408089 1.15021 0.371445
v 0.393953 1.19348 0.326875
v 0.414586 1.04833 0.389305
v 0.427802 1.09034 0.351364
v 0.41035 0.999102 0.362573
v 0.428493 1.03792 0.326244
v 0.43145 1.07959 0.288678
v 0.393953 1.27493 0.126875
v 0.422155 1.22113 0.107662
v 0.399505 1.26158 0.0725893
v 0.43145 1.16104 0.088678
v 0.418996 1.20238 0.0527353
v 0.392078 1.24024 0.0211518
v 0.427802 1.17179 0.151363
v 0.408089 1.23166 0.171445
v 0.422155 1.13968 0.307662
v 0.323604 1.23357 0.396379
v 0.375844 1.27928 0.179875
v 0.349604 1.31715 0.144436
v 0.323604 1.31502 0.196379
v 0.29345 1.34368 0.158626
v 0.349604 1.23571 0.344436
v 0.363671 1.30663 0.0806528
v 0.361173 1.2869 0.0260318
v 0.320207 1.32366 0.0373037
v 0.310833 1.34277 0.0973453
v 0.258389 1.35811 0.117171
v 0.272297 1.3477 0.0541095
v 0.221092 1.35721 0.0751699
v 0.296901 1.20687 0.449786
v 0.29345 1.26223 0.358626
v 0.269758 1.24484 0.415146
v 0.242076 1.21086 0.461374
v 0.230987 1.35191 0.168056
v 0.193354 1.35673 0.12402
v 0.168329 1.34103 0.171803
v 0.203978 1.24345 0.422074
v 0.186255 1.20453 0.461439
v 0.168329 1.25958 0.371803
v 0.147923 1.22986 0.414882
v 0.133689 1.18836 0.449976
v 0.269758 1.32629 0.215146
v 0.230987 1.27046 0.368056
v 0.332637 1.15463 0.46629
v 0.278894 1.16499 0.485857
v 0.310828 1.11035 0.493125
v 0.213114 1.1636 0.492785
v 0.156956 1.15091 0.484793
v 0.185707 1.10771 0.506303
v 0.249259 1.11077 0.509477
v 0.28279 1.06341 0.506021
v 0.217754 1.06204 0.51287
v 0.250657 1.01737 0.503995
v 0.364387 1.10651 0.458848
v 0.334752 1.05228 0.482468
v 0.30228 1.00421 0.486167
v 0.348325 0.996463 0.454929
v 0.3841 1.04663 0.438767
v 0.385286 0.994715 0.412658
v 0.407789 0.977874 0.310623
v 0.391618 0.964063 0.258626
v 0.420928 1.01907 0.271781
v 0.428493 1.11937 0.126244
v 0.420928 1.10052 0.0717813
v 0.391618 1.04551 0.0586257
v 0.363068 1.04017 0.0105391
v 0.39434 1.08913 0.0122802
v 0.324312 1.0437 -0.0299763
v 0.357485 1.08896 -0.0326682
v 0.380878 1.13938 -0.0244997
v 0.415281 1.14987 0.0280797
v 0.392709 1.19112 -0.00609265
v 0.356973 1.24336 -0.0225963
v 0.352548 1.19132 -0.0481139
v 0.312125 1.23988 -0.0562508
v 0.331607 1.13059 -0.0639133
v 0.301045 1.08115 -0.0647926
v 0.272293 1.12435 -0.0863031
v 0.295462 1.18342 -0.0806059
v 0.26095 1.23007 -0.0772496
v 0.240246 1.17003 -0.0928704
v 0.207343 1.21469 -0.0839945
v 0.320652 1.2882 -0.0156219
v 0.263566 1.2803 -0.0481139
v 0.20871 1.26581 -0.060746
v 0.211622 1.30863 -0.0244997
v 0.267814 1.32435 0.00107062
v 0.215857 1.33989 0.0219851
v 0.167067 1.34548 0.0651924
v 0.16138 1.3221 0.0122802
v 0.117757 1.31937 0.0586257
v 0.157131 1.27805 -0.0369043
v 0.15572 1.22785 -0.0661668
v 0.109675 1.2356 -0.0349288
v 0.107783 1.2837 0.00679737
v 0.0769144 1.28089 0.0559698
v 0.072714 1.23735 0.00734174
v 0.0476496 1.23296 0.0574269
v 0.138619 1.33913 0.115483
v 0.0850226 1.30073 0.11
v 0.0502109 1.25419 0.109377
v 0.0663822 1.268 0.161374
v 0.11161 1.23067 0.369501
v 0.0663822 1.18655 0.361374
v 0.0949325 1.19189 0.409461
v 0.11161 1.31212 0.169501
v 0.100515 1.1431 0.452668
v 0.06366 1.14293 0.40772
v 0.0771224 1.09268 0.4445
v 0.0370725 1.21299 0.148219
v 0.0295067 1.19414 0.0937562
v 0.0370725 1.13154 0.348219
v 0.0295067 1.11269 0.293756
v 0.02655 1.07102 0.331322
v 0.0427189 1.08219 0.39192
v 0.0652911 1.04094 0.426093
v 0.0390044 1.02968 0.367265
v 0.0659218 0.991817 0.398848
v 0.126393 1.10148 0.483913
v 0.105452 1.04074 0.468114
v 0.101027 0.988703 0.442596
v 0.145875 0.992181 0.476251
v 0.162538 1.04864 0.500606
v 0.19705 1.00199 0.49725
v 0.24929 0.966251 0.480746
v 0.194435 0.951758 0.468114
v 0.246378 0.923429 0.4445
v 0.137348 0.94386 0.435622
v 0.0968269 0.945158 0.393968
v 0.137793 0.908406 0.382696
v 0.190186 0.907715 0.418929
v 0.242143 0.892168 0.398015
v 0.185703 0.88436 0.365891
v 0.236908 0.874849 0.34483
v 0.300869 0.954009 0.456904
v 0.29662 0.909966 0.40772
v 0.290933 0.886586 0.354808
v 0.340244 0.912689 0.361374
v 0.350217 0.948363 0.413203
v 0.381086 0.951171 0.36403
v 0.372977 0.931329 0.31
v 0.319381 0.892933 0.304517
v 0.264647 0.875327 0.29598
v 0.289671 0.891029 0.248197
v 0.34639 1.00139 0.050499
v 0.289671 0.972477 0.0481966
v 0.310077 1.00221 0.00511817
v 0.34639 0.919942 0.250499
v 0.111443 1.0392 -0.00755705
v 0.125363 1.07743 -0.0462898
v 0.161099 1.02519 -0.0297862
v 0.147172 1.12171 -0.0731254
v 0.179106 1.06707 -0.0658569
v 0.215924 1.02121 -0.0413743
v 0.17521 1.16865 -0.0860208
v 0.208741 1.1213 -0.0894774
v 0.244886 1.06846 -0.0727849
v 0.271745 1.02753 -0.0414393
v 0.0765732 1.08302 -0.00308262
v 0.0533066 1.13245 0.01
v 0.0936131 1.12555 -0.0388478
v 0.0434144 1.18373 0.030695
v 0.0738999 1.18543 -0.0187667
v 0.123248 1.17978 -0.0624683
v 0.0821557 1.03423 0.0401246
v 0.0640468 1.03858 0.0931254
v 0.0499115 1.08185 0.0485554
v 0.0640468 0.957134 0.293125
v 0.0584946 0.970486 0.347411
v 0.0358447 1.01093 0.312338
v 0.0301982 1.14173 0.0686365
v 0.02655 1.15247 0.131322
v 0.0499115 1.0004 0.248555
v 0.0301982 1.06028 0.268637
v 0.0358447 1.09238 0.112338
v 0.134396 0.998491 0.0236209
v 0.134396 0.917042 0.223621
v 0.16455 0.888382 0.261374
v 0.108396 0.914908 0.275564
v 0.0821557 0.952778 0.240125
v 0.108396 0.996356 0.0755644
v 0.199611 0.873951 0.302829
v 0.147167 0.88929 0.322655
v 0.0943288 0.925435 0.339347
v 0.188242 0.98722 0.00485376
v 0.16455 0.969831 0.0613743
v 0.254022 0.988612 -0.00207417
v 0.227013 0.880154 0.251944
v 0.227013 0.961603 0.051944
v 0.188242 0.905771 0.204854
f 1 2 3
f 2 4 5
f 3 5 6
f 2 5 3
f 4 7 8
f 7 9 10
f 8 10 11
f 7 10 8
f 12 13 14
f 13 15 16
f 14 16 17
f 13 16 14
f 4 8 5
f 18 15 13
f 19 13 12
f 8 20 5
f 1 3 21
f 22 12 23
f 24 23 25
f 3 26 21
f 12 14 27
f 14 17 28
f 27 28 29
f 14 28 27
f 25 30 31
f 30 29 32
f 31 32 33
f 30 32 31
f 12 27 23
f 27 29 30
f 23 30 25
f 27 30 23
f 1 21 34
f 21 35 36
f 34 36 37
f 21 36 34
f 25 31 38
f 31 33 39
f 38 39 40
f 31 39 38
f 37 41 42
f 41 43 44
f 42 44 45
f 41 44 42
f 25 38 46
f 47 43 41
f 36 41 37
f 47 41 36
f 1 34 48
f 34 37 49
f 48 49 50
f 34 49 48
f 37 42 51
f 42 45 52
f 51 52 53
f 42 52 51
f 50 54 55
f 54 53 56
f 55 56 57
f 54 56 55
f 37 51 49
f 51 53 54
f 49 54 50
f 51 54 49
f 1 48 2
f 48 50 58
f 2 58 4
f 48 58 2
f 50 55 59
f 55 57 60
f 59 60 61
f 55 60 59
f 4 62 7
f 62 61 63
f 7 63 9
f 62 63 7
f 50 59 58
f 59 61 62
f 58 62 4
f 59 62 58
f 9 64 10
f 64 65 66
f 67 68 15
f 64 66 10
f 69 70 71
f 70 72 73
f 71 73 74
f 70 73 71
f 15 75 16
f 75 74 76
f 16 76 17
f 75 76 16
f 69 71 68
f 71 74 75
f 68 75 15
f 71 75 68
f 17 76 77
f 76 74 78
f 77 78 79
f 76 78 77
f 74 73 80
f 73 72 81
f 80 81 82
f 73 81 80
f 79 83 84
f 83 82 85
f 84 85 86
f 83 85 84
f 74 80 78
f 80 82 83
f 78 83 79
f 80 83 78
f 17 77 28
f 77 79 87
f 28 87 29
f 77 87 28
f 79 84 88
f 84 86 89
f 88 89 90
f 84 89 88
f 29 91 32
f 91 90 92
f 32 92 33
f 91 92 32
f 79 88 87
f 88 90 91
f 87 91 29
f 88 91 87
f 33 92 93
f 92 90 94
f 93 94 95
f 92 94 93
f 90 89 96
f 89 86 97
f 96 97 98
f 89 97 96
f 95 99 100
f 99 98 101
f 100 101 102
f 99 101 100
f 90 96 94
f 96 98 99
f 94 99 95
f 96 99 94
f 33 93 39
f 93 95 103
f 39 103 40
f 93 103 39
f 95 100 104
f 100 102 105
f 104 105 106
f 100 105 104
f 43 107 44
f 107 108 109
f 44 109 45
f 107 109 44
f 95 104 103
f 104 106 110
f 103 110 40
f 104 110 103
f 45 109 111
f 109 108 112
f 111 112 113
f 109 112 111
f 106 105 114
f 105 102 115
f 116 117 118
f 105 115 114
f 113 119 120
f 119 118 121
f 120 121 122
f 119 121 120
f 108 116 112
f 116 118 119
f 112 119 113
f 116 119 112
f 45 111 52
f 111 113 123
f 52 123 53
f 111 123 52
f 113 120 124
f 120 122 125
f 124 125 126
f 120 125 124
f 53 127 56
f 127 126 128
f 56 128 57
f 127 128 56
f 113 124 123
f 124 126 127
f 123 127 53
f 124 127 123
f 57 128 129
f 128 126 130
f 129 130 131
f 128 130 129
f 126 125 132
f 125 122 133
f 132 133 134
f 125 133 132
f 131 135 136
f 135 134 137
f 136 137 138
f 135 137 136
f 126 132 130
f 132 134 135
f 130 135 131
f 132 135 130
f 57 129 60
f 129 131 139
f 60 139 61
f 129 139 60
f 131 136 140
f 136 138 141
f 140 141 142
f 136 141 140
f 61 143 63
f 143 142 144
f 63 144 9
f 143 144 63
f 131 140 139
f 140 142 143
f 139 143 61
f 140 143 139
f 9 144 64
f 144 142 145
f 64 145 65
f 144 145 64
f 142 141 146
f 141 138 147
f 146 147 148
f 141 147 146
f 69 149 70
f 149 150 151
f 70 151 72
f 149 151 70
f 142 146 145
f 146 148 152
f 145 152 65
f 146 152 145
f 153 154 155
f 154 156 157
f 155 157 158
f 154 157 155
f 156 159 160
f 159 86 85
f 160 85 82
f 159 85 160
f 158 161 162
f 161 82 81
f 162 81 72
f 161 81 162
f 156 160 157
f 160 82 161
f 157 161 158
f 160 161 157
f 153 163 154
f 163 164 165
f 154 165 156
f 163 165 154
f 164 166 167
f 166 102 101
f 167 101 98
f 166 101 167
f 156 168 159
f 168 98 97
f 159 97 86
f 168 97 159
f 164 167 165
f 167 98 168
f 165 168 156
f 167 168 165
f 153 169 163
f 169 170 171
f 163 171 164
f 169 171 163
f 172 173 174
f 173 122 121
f 174 121 118
f 173 121 174
f 164 175 166
f 175 176 115
f 166 115 102
f 175 115 166
f 172 174 177
f 174 118 178
f 171 175 164
f 179 175 171
f 153 180 169
f 181 182 183
f 184 183 172
f 180 185 169
f 182 186 187
f 186 138 137
f 187 137 134
f 186 137 187
f 172 188 173
f 188 134 133
f 173 133 122
f 188 133 173
f 182 187 183
f 187 134 188
f 183 188 172
f 187 188 183
f 153 155 180
f 155 158 189
f 180 189 190
f 155 189 180
f 158 162 191
f 162 72 151
f 191 151 150
f 162 151 191
f 182 192 186
f 192 148 147
f 186 147 138
f 192 147 186
f 158 191 189
f 191 150 193
f 194 192 182
f 191 193 189
f 18 8 15
f 15 8 11
f 13 20 18
f 18 20 8
f 19 5 13
f 13 5 20
f 12 6 19
f 19 6 5
f 22 3 12
f 12 3 6
f 23 26 22
f 22 26 3
f 24 21 23
f 23 21 26
f 25 35 24
f 24 35 21
f 40 43 38
f 38 43 47
f 38 47 46
f 46 47 36
f 46 36 25
f 25 36 35
f 67 10 68
f 68 10 66
f 15 11 67
f 67 11 10
f 68 66 69
f 69 66 65
f 106 108 110
f 110 108 107
f 110 107 40
f 40 107 43
f 114 116 106
f 106 116 108
f 115 117 114
f 114 117 116
f 69 65 149
f 149 65 152
f 149 152 150
f 150 152 148
f 169 184 170
f 170 184 172
f 170 172 171
f 171 172 177
f 175 178 176
f 176 178 118
f 176 118 115
f 115 118 117
f 179 174 175
f 175 174 178
f 171 177 179
f 179 177 174
f 180 181 185
f 185 181 183
f 185 183 169
f 169 183 184
f 189 194 190
f 190 194 182
f 190 182 180
f 180 182 181
f 150 148 193
f 193 148 192
f 193 192 189
f 189 192 194
