v 0.346557 1.16761 0.467557
v 0.381427 1.12379 0.463083
v 0.375844 1.17258 0.419876
v 0.404693 1.07436 0.45
v 0.408089 1.12496 0.411445
v 0.375844 1.19783 0.379875
v 0.408089 1.15021 0.371445
v 0.393953 1.19348 0.326875
v 0.414586 1.02308 0.429305
v 0.427802 1.06508 0.391364
v 0.41035 0.973847 0.402573
v 0.428493 1.01267 0.366244
v 0.43145 1.05433 0.328678
v 0.422155 1.13968 0.307662
v 0.399505 1.18013 0.272589
v 0.43145 1.07959 0.288678
v 0.418996 1.12093 0.252735
v 0.392078 1.1588 0.221152
v 0.427802 1.09034 0.351364
v 0.422155 1.11443 0.347662
v 0.323604 1.20832 0.436379
v 0.349604 1.23571 0.344436
v 0.323604 1.23357 0.396379
v 0.29345 1.26223 0.358626
v 0.363671 1.22518 0.280653
v 0.361173 1.20545 0.226032
v 0.320207 1.24221 0.237304
v 0.310833 1.26132 0.297345
v 0.258389 1.27666 0.317171
v 0.272297 1.26625 0.25411
v 0.221092 1.27576 0.27517
v 0.296901 1.18161 0.489786
v 0.269758 1.24484 0.415146
v 0.269758 1.21959 0.455146
v 0.242076 1.1856 0.501374
v 0.230987 1.27046 0.368056
v 0.193354 1.27529 0.32402
v 0.168329 1.25958 0.371803
v 0.203978 1.21819 0.462074
v 0.186255 1.17927 0.50144
v 0.203978 1.24345 0.422074
v 0.147923 1.22986 0.414882
v 0.147923 1.2046 0.454882
v 0.133689 1.16311 0.489976
v 0.332637 1.12937 0.50629
v 0.278894 1.13974 0.525857
v 0.310828 1.0851 0.533126
v 0.213114 1.13835 0.532785
v 0.156956 1.12566 0.524793
v 0.185707 1.08245 0.546303
v 0.249259 1.08551 0.549478
v 0.28279 1.03816 0.546021
v 0.217754 1.03678 0.552871
v 0.250657 0.992119 0.543995
v 0.364387 1.08126 0.498848
v 0.334752 1.02703 0.522468
v 0.30228 0.978958 0.526167
v 0.348325 0.971208 0.494929
v 0.3841 1.02138 0.478767
v 0.385286 0.96946 0.452658
v 0.407789 0.952619 0.350623
v 0.391618 0.938808 0.298626
v 0.420928 0.993818 0.311781
v 0.391618 0.964063 0.258626
v 0.363068 0.95872 0.210539
v 0.39434 1.00769 0.21228
v 0.324312 0.962252 0.170024
v 0.357485 1.00751 0.167332
v 0.380878 1.05793 0.1755
v 0.415281 1.06842 0.22808
v 0.392709 1.10967 0.193907
v 0.420928 1.01907 0.271781
v 0.356973 1.16191 0.177404
v 0.352548 1.10987 0.151886
v 0.312125 1.15843 0.143749
v 0.331607 1.04914 0.136087
v 0.301045 0.999701 0.135207
v 0.272293 1.04291 0.113697
v 0.295462 1.10197 0.119394
v 0.26095 1.14863 0.12275
v 0.240246 1.08858 0.10713
v 0.207343 1.13324 0.116006
v 0.320652 1.20675 0.184378
v 0.263566 1.19885 0.151886
v 0.20871 1.18436 0.139254
v 0.211622 1.22718 0.1755
v 0.267814 1.2429 0.201071
v 0.215857 1.25844 0.221985
v 0.167067 1.26403 0.265192
v 0.16138 1.24065 0.21228
v 0.117757 1.23792 0.258626
v 0.157131 1.1966 0.163096
v 0.15572 1.1464 0.133833
v 0.109675 1.15415 0.165071
v 0.107783 1.20225 0.206797
v 0.0769144 1.19944 0.25597
v 0.072714 1.1559 0.207342
v 0.0476496 1.15151 0.257427
v 0.138619 1.25768 0.315483
v 0.0850226 1.21928 0.31
v 0.0502109 1.17274 0.309377
v 0.0663822 1.18655 0.361374
v 0.11161 1.23067 0.369501
v 0.0949325 1.19189 0.409461
v 0.0949325 1.16664 0.449461
v 0.11161 1.20542 0.409501
v 0.100515 1.11785 0.492668
v 0.0663822 1.16129 0.401374
v 0.06366 1.11767 0.44772
v 0.0771224 1.06743 0.4845
v 0.0370725 1.13154 0.348219
v 0.0295067 1.11269 0.293756
v 0.02655 1.07102 0.331322
v 0.0427189 1.05694 0.43192
v 0.0652911 1.01569 0.466093
v 0.02655 1.04577 0.371322
v 0.0390044 1.00443 0.407265
v 0.0659218 0.966562 0.438848
v 0.0370725 1.10628 0.388219
v 0.126393 1.07622 0.523914
v 0.105452 1.01549 0.508114
v 0.101027 0.963448 0.482596
v 0.145875 0.966926 0.516251
v 0.162538 1.02338 0.540606
v 0.19705 0.976732 0.53725
v 0.24929 0.940996 0.520746
v 0.194435 0.926503 0.508114
v 0.246378 0.898174 0.4845
v 0.137348 0.918605 0.475622
v 0.0968269 0.919903 0.433968
v 0.137793 0.883151 0.422696
v 0.190186 0.88246 0.45893
v 0.242143 0.866913 0.438015
v 0.185703 0.859105 0.405891
v 0.236908 0.849593 0.38483
v 0.300869 0.928754 0.496904
v 0.29662 0.884711 0.44772
v 0.290933 0.86133 0.394808
v 0.340244 0.887433 0.401374
v 0.350217 0.923108 0.453203
v 0.381086 0.925915 0.40403
v 0.372977 0.906074 0.35
v 0.319381 0.867677 0.344517
v 0.264647 0.850072 0.33598
v 0.289671 0.865773 0.288197
v 0.34639 0.894686 0.290499
v 0.363068 0.933465 0.250539
v 0.310077 0.895503 0.245118
v 0.310077 0.920758 0.205118
v 0.34639 0.919942 0.250499
v 0.111443 0.957749 0.192443
v 0.125363 0.995985 0.15371
v 0.161099 0.943745 0.170214
v 0.147172 1.04026 0.126875
v 0.179106 0.985618 0.134143
v 0.215924 0.939756 0.158626
v 0.17521 1.0872 0.113979
v 0.208741 1.03985 0.110523
v 0.244886 0.98701 0.127215
v 0.271745 0.946086 0.158561
v 0.0765732 1.00157 0.196917
v 0.0533066 1.051 0.21
v 0.0936131 1.0441 0.161152
v 0.0434144 1.10228 0.230695
v 0.0738999 1.10398 0.181233
v 0.123248 1.09833 0.137532
v 0.0821557 0.952778 0.240125
v 0.0821557 0.927523 0.280125
v 0.0640468 0.931879 0.333126
v 0.0499115 0.975146 0.288556
v 0.0499115 1.0004 0.248555
v 0.0584946 0.945231 0.387411
v 0.0358447 0.985673 0.352338
v 0.0301982 1.06028 0.268637
v 0.0301982 1.03502 0.308637
v 0.0358447 1.01093 0.312338
v 0.134396 0.917042 0.223621
v 0.134396 0.891787 0.263621
v 0.16455 0.863127 0.301374
v 0.108396 0.889652 0.315565
v 0.199611 0.848696 0.342829
v 0.147167 0.864035 0.362655
v 0.0943288 0.90018 0.379347
v 0.188242 0.905771 0.204854
v 0.188242 0.880516 0.244854
v 0.254022 0.907163 0.197926
v 0.254022 0.881908 0.237926
v 0.227013 0.854899 0.291944
f 1 2 3
f 2 4 5
f 6 7 8
f 2 5 3
f 4 9 10
f 9 11 12
f 10 12 13
f 9 12 10
f 8 14 15
f 14 16 17
f 15 17 18
f 14 17 15
f 4 10 5
f 19 16 14
f 7 14 8
f 10 20 5
f 1 3 21
f 6 8 22
f 23 22 24
f 6 22 23
f 8 15 25
f 15 18 26
f 25 26 27
f 15 26 25
f 24 28 29
f 28 27 30
f 29 30 31
f 28 30 29
f 8 25 22
f 25 27 28
f 22 28 24
f 25 28 22
f 1 21 32
f 23 24 33
f 32 34 35
f 21 34 32
f 24 29 36
f 29 31 37
f 36 37 38
f 29 37 36
f 35 39 40
f 41 38 42
f 40 43 44
f 39 43 40
f 24 36 33
f 36 38 41
f 34 39 35
f 36 41 33
f 1 32 45
f 32 35 46
f 45 46 47
f 32 46 45
f 35 40 48
f 40 44 49
f 48 49 50
f 40 49 48
f 47 51 52
f 51 50 53
f 52 53 54
f 51 53 52
f 35 48 46
f 48 50 51
f 46 51 47
f 48 51 46
f 1 45 2
f 45 47 55
f 2 55 4
f 45 55 2
f 47 52 56
f 52 54 57
f 56 57 58
f 52 57 56
f 4 59 9
f 59 58 60
f 9 60 11
f 59 60 9
f 47 56 55
f 56 58 59
f 55 59 4
f 56 59 55
f 11 61 12
f 61 62 63
f 12 63 13
f 61 63 12
f 64 65 66
f 65 67 68
f 66 68 69
f 65 68 66
f 16 70 17
f 70 69 71
f 17 71 18
f 70 71 17
f 64 66 72
f 66 69 70
f 72 70 16
f 66 70 72
f 18 71 73
f 71 69 74
f 73 74 75
f 71 74 73
f 69 68 76
f 68 67 77
f 76 77 78
f 68 77 76
f 75 79 80
f 79 78 81
f 80 81 82
f 79 81 80
f 69 76 74
f 76 78 79
f 74 79 75
f 76 79 74
f 18 73 26
f 73 75 83
f 26 83 27
f 73 83 26
f 75 80 84
f 80 82 85
f 84 85 86
f 80 85 84
f 27 87 30
f 87 86 88
f 30 88 31
f 87 88 30
f 75 84 83
f 84 86 87
f 83 87 27
f 84 87 83
f 31 88 89
f 88 86 90
f 89 90 91
f 88 90 89
f 86 85 92
f 85 82 93
f 92 93 94
f 85 93 92
f 91 95 96
f 95 94 97
f 96 97 98
f 95 97 96
f 86 92 90
f 92 94 95
f 90 95 91
f 92 95 90
f 31 89 37
f 89 91 99
f 37 99 38
f 89 99 37
f 91 96 100
f 96 98 101
f 100 101 102
f 96 101 100
f 38 103 42
f 103 102 104
f 43 105 44
f 106 105 43
f 91 100 99
f 100 102 103
f 99 103 38
f 100 103 99
f 44 105 107
f 105 108 109
f 107 109 110
f 105 109 107
f 102 101 111
f 101 98 112
f 111 112 113
f 101 112 111
f 110 114 115
f 114 116 117
f 115 117 118
f 114 117 115
f 108 119 109
f 119 116 114
f 109 114 110
f 119 114 109
f 44 107 49
f 107 110 120
f 49 120 50
f 107 120 49
f 110 115 121
f 115 118 122
f 121 122 123
f 115 122 121
f 50 124 53
f 124 123 125
f 53 125 54
f 124 125 53
f 110 121 120
f 121 123 124
f 120 124 50
f 121 124 120
f 54 125 126
f 125 123 127
f 126 127 128
f 125 127 126
f 123 122 129
f 122 118 130
f 129 130 131
f 122 130 129
f 128 132 133
f 132 131 134
f 133 134 135
f 132 134 133
f 123 129 127
f 129 131 132
f 127 132 128
f 129 132 127
f 54 126 57
f 126 128 136
f 57 136 58
f 126 136 57
f 128 133 137
f 133 135 138
f 137 138 139
f 133 138 137
f 58 140 60
f 140 139 141
f 60 141 11
f 140 141 60
f 128 137 136
f 137 139 140
f 136 140 58
f 137 140 136
f 11 141 61
f 141 139 142
f 61 142 62
f 141 142 61
f 139 138 143
f 138 135 144
f 143 144 145
f 138 144 143
f 62 146 147
f 146 145 148
f 65 149 67
f 150 149 65
f 139 143 142
f 143 145 146
f 142 146 62
f 143 146 142
f 151 152 153
f 152 154 155
f 153 155 156
f 152 155 153
f 154 157 158
f 157 82 81
f 158 81 78
f 157 81 158
f 156 159 160
f 159 78 77
f 160 77 67
f 159 77 160
f 154 158 155
f 158 78 159
f 155 159 156
f 158 159 155
f 151 161 152
f 161 162 163
f 152 163 154
f 161 163 152
f 162 164 165
f 164 98 97
f 165 97 94
f 164 97 165
f 154 166 157
f 166 94 93
f 157 93 82
f 166 93 157
f 162 165 163
f 165 94 166
f 163 166 154
f 165 166 163
f 151 167 161
f 168 169 170
f 161 171 162
f 167 171 161
f 169 172 173
f 172 118 117
f 173 117 116
f 172 117 173
f 162 174 164
f 174 113 112
f 164 112 98
f 174 112 164
f 169 173 170
f 173 116 175
f 171 174 162
f 176 174 171
f 151 177 167
f 178 179 180
f 168 180 169
f 178 180 168
f 179 181 182
f 181 135 134
f 182 134 131
f 181 134 182
f 169 183 172
f 183 131 130
f 172 130 118
f 183 130 172
f 179 182 180
f 182 131 183
f 180 183 169
f 182 183 180
f 151 153 177
f 153 156 184
f 178 185 179
f 153 184 177
f 156 160 186
f 160 67 149
f 187 148 145
f 160 149 186
f 179 188 181
f 188 145 144
f 181 144 135
f 188 144 181
f 156 186 184
f 187 145 188
f 185 188 179
f 187 188 185
f 6 3 7
f 7 3 5
f 19 10 16
f 16 10 13
f 14 20 19
f 19 20 10
f 7 5 14
f 14 5 20
f 23 21 6
f 6 21 3
f 33 34 23
f 23 34 21
f 42 43 41
f 41 43 39
f 41 39 33
f 33 39 34
f 64 62 65
f 65 62 147
f 72 63 64
f 64 63 62
f 16 13 72
f 72 13 63
f 103 106 42
f 42 106 43
f 102 108 104
f 104 108 105
f 104 105 103
f 103 105 106
f 111 119 102
f 102 119 108
f 113 116 111
f 111 116 119
f 150 146 149
f 149 146 148
f 65 147 150
f 150 147 146
f 167 168 171
f 171 168 170
f 174 175 113
f 113 175 116
f 176 173 174
f 174 173 175
f 171 170 176
f 176 170 173
f 177 178 167
f 167 178 168
f 184 185 177
f 177 185 178
f 149 148 186
f 186 148 187
f 186 187 184
f 184 187 185
