v 0.346557 1.12552 0.707557
v 0.381427 1.08171 0.703083
v 0.375844 1.1305 0.659876
v 0.404693 1.03227 0.69
v 0.408089 1.08287 0.651445
v 0.393953 1.12614 0.606875
v 0.414586 0.980992 0.669305
v 0.427802 1.023 0.631364
v 0.41035 0.931763 0.642573
v 0.428493 0.970584 0.606244
v 0.43145 1.01225 0.568678
v 0.393953 1.16822 0.366875
v 0.422155 1.11443 0.347662
v 0.399505 1.15487 0.312589
v 0.43145 1.05433 0.328678
v 0.418996 1.09567 0.292735
v 0.392078 1.13354 0.261152
v 0.422155 1.07235 0.587662
v 0.323604 1.16623 0.676379
v 0.349604 1.16837 0.624436
v 0.29345 1.19489 0.638626
v 0.363671 1.19992 0.320653
v 0.361173 1.1802 0.266032
v 0.320207 1.21695 0.277304
v 0.29345 1.23698 0.398626
v 0.310833 1.23607 0.337345
v 0.258389 1.25141 0.357171
v 0.272297 1.241 0.29411
v 0.221092 1.25051 0.31517
v 0.349604 1.21045 0.384436
v 0.296901 1.13953 0.729786
v 0.269758 1.1775 0.695146
v 0.242076 1.14352 0.741374
v 0.258389 1.20932 0.597171
v 0.230987 1.20312 0.648056
v 0.193354 1.25003 0.36402
v 0.193354 1.20795 0.60402
v 0.168329 1.19225 0.651804
v 0.230987 1.2452 0.408056
v 0.203978 1.17611 0.702074
v 0.186255 1.13719 0.74144
v 0.147923 1.16252 0.694882
v 0.133689 1.12102 0.729977
v 0.332637 1.08729 0.74629
v 0.278894 1.09766 0.765857
v 0.310828 1.04301 0.773126
v 0.213114 1.09626 0.772785
v 0.156956 1.08357 0.764793
v 0.185707 1.04037 0.786303
v 0.249259 1.04343 0.789478
v 0.28279 0.996072 0.786021
v 0.217754 0.994696 0.792871
v 0.250657 0.950036 0.783995
v 0.364387 1.03917 0.738848
v 0.334752 0.984942 0.762468
v 0.30228 0.936874 0.766167
v 0.348325 0.929124 0.734929
v 0.3841 0.979296 0.718767
v 0.385286 0.927376 0.692658
v 0.407789 0.910535 0.590623
v 0.407789 0.952619 0.350623
v 0.391618 0.938808 0.298626
v 0.420928 0.993818 0.311781
v 0.428493 1.01267 0.366244
v 0.420928 0.951735 0.551781
v 0.363068 0.933465 0.250539
v 0.39434 0.982431 0.25228
v 0.324312 0.936997 0.210024
v 0.357485 0.982255 0.207332
v 0.380878 1.03267 0.2155
v 0.415281 1.04317 0.26808
v 0.392709 1.08441 0.233907
v 0.356973 1.13665 0.217404
v 0.352548 1.08462 0.191886
v 0.312125 1.13318 0.183749
v 0.331607 1.02388 0.176087
v 0.301045 0.974446 0.175208
v 0.272293 1.01765 0.153697
v 0.295462 1.07672 0.159394
v 0.26095 1.12337 0.16275
v 0.240246 1.06332 0.14713
v 0.207343 1.10798 0.156006
v 0.320652 1.1815 0.224378
v 0.263566 1.1736 0.191886
v 0.20871 1.15911 0.179254
v 0.211622 1.20193 0.2155
v 0.267814 1.21764 0.241071
v 0.215857 1.23319 0.261985
v 0.167067 1.23877 0.305193
v 0.16138 1.21539 0.25228
v 0.117757 1.21267 0.298626
v 0.157131 1.17135 0.203096
v 0.15572 1.12114 0.173833
v 0.109675 1.12889 0.205071
v 0.107783 1.17699 0.246798
v 0.0769144 1.17419 0.29597
v 0.072714 1.13064 0.247342
v 0.0476496 1.12626 0.297427
v 0.138619 1.23243 0.355483
v 0.168329 1.23433 0.411804
v 0.0850226 1.19403 0.35
v 0.0502109 1.14748 0.349377
v 0.0663822 1.16129 0.401374
v 0.11161 1.16333 0.649501
v 0.0663822 1.11921 0.641374
v 0.0949325 1.12455 0.689461
v 0.0850226 1.15194 0.59
v 0.138619 1.19034 0.595483
v 0.11161 1.20542 0.409501
v 0.100515 1.07576 0.732668
v 0.06366 1.07559 0.68772
v 0.0771224 1.02535 0.7245
v 0.0502109 1.1054 0.589377
v 0.0370725 1.0642 0.628219
v 0.0295067 1.08744 0.333756
v 0.0295067 1.04535 0.573756
v 0.02655 1.00369 0.611322
v 0.0370725 1.10628 0.388219
v 0.0427189 1.01485 0.67192
v 0.0652911 0.973604 0.706093
v 0.0390044 0.962345 0.647265
v 0.0659218 0.924478 0.678848
v 0.126393 1.03414 0.763914
v 0.105452 0.973402 0.748114
v 0.101027 0.921364 0.722597
v 0.145875 0.924842 0.756251
v 0.162538 0.9813 0.780606
v 0.19705 0.934648 0.77725
v 0.24929 0.898912 0.760746
v 0.194435 0.884419 0.748114
v 0.246378 0.85609 0.7245
v 0.137348 0.876521 0.715622
v 0.0968269 0.877819 0.673968
v 0.137793 0.841067 0.662696
v 0.190186 0.840376 0.69893
v 0.242143 0.824829 0.678015
v 0.185703 0.817021 0.645891
v 0.236908 0.80751 0.62483
v 0.300869 0.88667 0.736904
v 0.29662 0.842627 0.68772
v 0.290933 0.819247 0.634808
v 0.340244 0.84535 0.641374
v 0.350217 0.881024 0.693203
v 0.381086 0.883832 0.64403
v 0.372977 0.86399 0.59
v 0.391618 0.896724 0.538626
v 0.319381 0.825594 0.584517
v 0.264647 0.807988 0.57598
v 0.289671 0.82369 0.528197
v 0.34639 0.894686 0.290499
v 0.289671 0.865773 0.288197
v 0.310077 0.895503 0.245118
v 0.319381 0.867677 0.344517
v 0.372977 0.906074 0.35
v 0.34639 0.852603 0.530499
v 0.111443 0.932494 0.232443
v 0.125363 0.97073 0.19371
v 0.161099 0.91849 0.210214
v 0.147172 1.015 0.166875
v 0.179106 0.960363 0.174143
v 0.215924 0.914501 0.198626
v 0.17521 1.06195 0.153979
v 0.208741 1.01459 0.150523
v 0.244886 0.961755 0.167215
v 0.271745 0.920831 0.198561
v 0.0765732 0.976313 0.236918
v 0.0533066 1.02574 0.25
v 0.0936131 1.01885 0.201152
v 0.0434144 1.07703 0.270695
v 0.0738999 1.07872 0.221233
v 0.123248 1.07308 0.177532
v 0.0821557 0.927523 0.280125
v 0.0640468 0.931879 0.333126
v 0.0499115 0.975146 0.288556
v 0.0640468 0.889795 0.573126
v 0.0584946 0.903147 0.627411
v 0.0358447 0.943589 0.592338
v 0.0301982 1.03502 0.308637
v 0.02655 1.04577 0.371322
v 0.0358447 0.985673 0.352338
v 0.134396 0.891787 0.263621
v 0.16455 0.863127 0.301374
v 0.108396 0.889652 0.315565
v 0.16455 0.821043 0.541374
v 0.199611 0.806612 0.582829
v 0.147167 0.821951 0.602655
v 0.0943288 0.858096 0.619347
v 0.108396 0.847569 0.555565
v 0.188242 0.880516 0.244854
v 0.254022 0.881908 0.237926
v 0.227013 0.854899 0.291944
v 0.199611 0.848696 0.342829
v 0.264647 0.850072 0.33598
v 0.227013 0.812815 0.531944
f 1 2 3
f 2 4 5
f 3 5 6
f 2 5 3
f 4 7 8
f 7 9 10
f 8 10 11
f 7 10 8
f 12 13 14
f 13 15 16
f 14 16 17
f 13 16 14
f 4 8 5
f 8 11 18
f 5 18 6
f 8 18 5
f 1 3 19
f 3 6 20
f 19 20 21
f 3 20 19
f 12 14 22
f 14 17 23
f 22 23 24
f 14 23 22
f 25 26 27
f 26 24 28
f 27 28 29
f 26 28 27
f 12 22 30
f 22 24 26
f 30 26 25
f 22 26 30
f 1 19 31
f 19 21 32
f 31 32 33
f 19 32 31
f 21 34 35
f 27 29 36
f 35 37 38
f 27 36 39
f 33 40 41
f 40 38 42
f 41 42 43
f 40 42 41
f 21 35 32
f 35 38 40
f 32 40 33
f 35 40 32
f 1 31 44
f 31 33 45
f 44 45 46
f 31 45 44
f 33 41 47
f 41 43 48
f 47 48 49
f 41 48 47
f 46 50 51
f 50 49 52
f 51 52 53
f 50 52 51
f 33 47 45
f 47 49 50
f 45 50 46
f 47 50 45
f 1 44 2
f 44 46 54
f 2 54 4
f 44 54 2
f 46 51 55
f 51 53 56
f 55 56 57
f 51 56 55
f 4 58 7
f 58 57 59
f 7 59 9
f 58 59 7
f 46 55 54
f 55 57 58
f 54 58 4
f 55 58 54
f 9 60 10
f 61 62 63
f 64 63 15
f 60 65 10
f 62 66 67
f 66 68 69
f 67 69 70
f 66 69 67
f 15 71 16
f 71 70 72
f 16 72 17
f 71 72 16
f 62 67 63
f 67 70 71
f 63 71 15
f 67 71 63
f 17 72 73
f 72 70 74
f 73 74 75
f 72 74 73
f 70 69 76
f 69 68 77
f 76 77 78
f 69 77 76
f 75 79 80
f 79 78 81
f 80 81 82
f 79 81 80
f 70 76 74
f 76 78 79
f 74 79 75
f 76 79 74
f 17 73 23
f 73 75 83
f 23 83 24
f 73 83 23
f 75 80 84
f 80 82 85
f 84 85 86
f 80 85 84
f 24 87 28
f 87 86 88
f 28 88 29
f 87 88 28
f 75 84 83
f 84 86 87
f 83 87 24
f 84 87 83
f 29 88 89
f 88 86 90
f 89 90 91
f 88 90 89
f 86 85 92
f 85 82 93
f 92 93 94
f 85 93 92
f 91 95 96
f 95 94 97
f 96 97 98
f 95 97 96
f 86 92 90
f 92 94 95
f 90 95 91
f 92 95 90
f 29 89 36
f 89 91 99
f 36 99 100
f 89 99 36
f 91 96 101
f 96 98 102
f 101 102 103
f 96 102 101
f 38 104 42
f 104 105 106
f 42 106 43
f 104 106 42
f 91 101 99
f 107 105 104
f 108 104 38
f 101 109 99
f 43 106 110
f 106 105 111
f 110 111 112
f 106 111 110
f 105 113 114
f 102 98 115
f 114 116 117
f 102 115 118
f 112 119 120
f 119 117 121
f 120 121 122
f 119 121 120
f 105 114 111
f 114 117 119
f 111 119 112
f 114 119 111
f 43 110 48
f 110 112 123
f 48 123 49
f 110 123 48
f 112 120 124
f 120 122 125
f 124 125 126
f 120 125 124
f 49 127 52
f 127 126 128
f 52 128 53
f 127 128 52
f 112 124 123
f 124 126 127
f 123 127 49
f 124 127 123
f 53 128 129
f 128 126 130
f 129 130 131
f 128 130 129
f 126 125 132
f 125 122 133
f 132 133 134
f 125 133 132
f 131 135 136
f 135 134 137
f 136 137 138
f 135 137 136
f 126 132 130
f 132 134 135
f 130 135 131
f 132 135 130
f 53 129 56
f 129 131 139
f 56 139 57
f 129 139 56
f 131 136 140
f 136 138 141
f 140 141 142
f 136 141 140
f 57 143 59
f 143 142 144
f 59 144 9
f 143 144 59
f 131 140 139
f 140 142 143
f 139 143 57
f 140 143 139
f 9 144 60
f 144 142 145
f 60 145 146
f 144 145 60
f 142 141 147
f 141 138 148
f 147 148 149
f 141 148 147
f 62 150 66
f 150 151 152
f 66 152 68
f 150 152 66
f 142 147 145
f 153 151 150
f 154 150 62
f 147 155 145
f 156 157 158
f 157 159 160
f 158 160 161
f 157 160 158
f 159 162 163
f 162 82 81
f 163 81 78
f 162 81 163
f 161 164 165
f 164 78 77
f 165 77 68
f 164 77 165
f 159 163 160
f 163 78 164
f 160 164 161
f 163 164 160
f 156 166 157
f 166 167 168
f 157 168 159
f 166 168 157
f 167 169 170
f 169 98 97
f 170 97 94
f 169 97 170
f 159 171 162
f 171 94 93
f 162 93 82
f 171 93 162
f 167 170 168
f 170 94 171
f 168 171 159
f 170 171 168
f 156 172 166
f 172 173 174
f 166 174 167
f 172 174 166
f 175 176 177
f 176 122 121
f 177 121 117
f 176 121 177
f 167 178 169
f 178 179 115
f 169 115 98
f 178 115 169
f 173 180 174
f 180 179 178
f 174 178 167
f 180 178 174
f 156 181 172
f 181 182 183
f 172 183 173
f 181 183 172
f 184 185 186
f 185 138 137
f 186 137 134
f 185 137 186
f 175 187 176
f 187 134 133
f 176 133 122
f 187 133 176
f 184 186 188
f 186 134 187
f 188 187 175
f 186 187 188
f 156 158 181
f 158 161 189
f 181 189 182
f 158 189 181
f 161 165 190
f 165 68 152
f 190 152 151
f 165 152 190
f 182 191 192
f 191 151 193
f 185 148 138
f 194 148 185
f 161 190 189
f 190 151 191
f 189 191 182
f 190 191 189
f 12 6 13
f 13 6 18
f 13 18 15
f 15 18 11
f 27 34 25
f 25 34 21
f 30 20 12
f 12 20 6
f 25 21 30
f 30 21 20
f 36 37 39
f 39 37 35
f 39 35 27
f 27 35 34
f 61 60 62
f 62 60 146
f 63 65 61
f 61 65 60
f 64 10 63
f 63 10 65
f 15 11 64
f 64 11 10
f 99 108 100
f 100 108 38
f 100 38 36
f 36 38 37
f 102 113 103
f 103 113 105
f 103 105 101
f 101 105 107
f 101 107 109
f 109 107 104
f 109 104 99
f 99 104 108
f 115 116 118
f 118 116 114
f 118 114 102
f 102 114 113
f 153 147 151
f 151 147 149
f 150 155 153
f 153 155 147
f 154 145 150
f 150 145 155
f 62 146 154
f 154 146 145
f 179 117 115
f 115 117 116
f 173 175 180
f 180 175 177
f 180 177 179
f 179 177 117
f 182 184 183
f 183 184 188
f 183 188 173
f 173 188 175
f 191 194 192
f 192 194 185
f 192 185 182
f 182 185 184
f 151 149 193
f 193 149 148
f 193 148 191
f 191 148 194
