v 0.346557 1.08453 0.867557
v 0.381427 1.04071 0.863083
v 0.375844 1.0895 0.819876
v 0.404693 0.991279 0.85
v 0.408089 1.04188 0.811445
v 0.393953 1.08514 0.766875
v 0.414586 0.939997 0.829305
v 0.427802 0.982003 0.791364
v 0.41035 0.890769 0.802573
v 0.428493 0.929589 0.766244
v 0.43145 0.971255 0.728678
v 0.393953 1.12614 0.606875
v 0.422155 1.07235 0.587662
v 0.399505 1.11279 0.552589
v 0.43145 1.01225 0.568678
v 0.418996 1.05359 0.532735
v 0.392078 1.09146 0.501152
v 0.427802 1.023 0.631364
v 0.422155 1.03135 0.747662
v 0.323604 1.12524 0.836379
v 0.349604 1.12737 0.784436
v 0.29345 1.1539 0.798626
v 0.363671 1.15784 0.560653
v 0.361173 1.13812 0.506032
v 0.320207 1.17487 0.517304
v 0.29345 1.19489 0.638626
v 0.310833 1.19398 0.577345
v 0.258389 1.20932 0.597171
v 0.272297 1.19891 0.53411
v 0.221092 1.20843 0.55517
v 0.349604 1.16837 0.624436
v 0.296901 1.09853 0.889786
v 0.269758 1.13651 0.855146
v 0.242076 1.10252 0.901374
v 0.230987 1.20312 0.648056
v 0.193354 1.20795 0.60402
v 0.168329 1.19225 0.651804
v 0.203978 1.13512 0.862074
v 0.186255 1.09619 0.901439
v 0.168329 1.15125 0.811804
v 0.147923 1.12152 0.854882
v 0.133689 1.08003 0.889977
v 0.230987 1.16213 0.808056
v 0.332637 1.04629 0.90629
v 0.278894 1.05666 0.925857
v 0.310828 1.00202 0.933125
v 0.213114 1.05527 0.932785
v 0.156956 1.04258 0.924793
v 0.185707 0.999373 0.946303
v 0.249259 1.00243 0.949478
v 0.28279 0.955077 0.946021
v 0.217754 0.953702 0.95287
v 0.250657 0.909041 0.943995
v 0.364387 0.998177 0.898848
v 0.334752 0.943948 0.922468
v 0.30228 0.895879 0.926167
v 0.348325 0.88813 0.894929
v 0.3841 0.938301 0.878767
v 0.385286 0.886382 0.852658
v 0.407789 0.869541 0.750623
v 0.407789 0.910535 0.590623
v 0.391618 0.896724 0.538626
v 0.420928 0.951735 0.551781
v 0.428493 0.970584 0.606244
v 0.420928 0.91074 0.711781
v 0.363068 0.891381 0.490539
v 0.39434 0.940347 0.49228
v 0.324312 0.894913 0.450024
v 0.357485 0.940171 0.447332
v 0.380878 0.990589 0.4555
v 0.415281 1.00108 0.50808
v 0.392709 1.04233 0.473907
v 0.356973 1.09457 0.457404
v 0.352548 1.04253 0.431886
v 0.312125 1.09109 0.423749
v 0.331607 0.981798 0.416087
v 0.301045 0.932362 0.415208
v 0.272293 0.975567 0.393697
v 0.295462 1.03464 0.399394
v 0.26095 1.08129 0.40275
v 0.240246 1.02124 0.38713
v 0.207343 1.0659 0.396006
v 0.320652 1.13941 0.464378
v 0.263566 1.13152 0.431886
v 0.20871 1.11702 0.419254
v 0.211622 1.15985 0.4555
v 0.267814 1.17556 0.481071
v 0.215857 1.19111 0.501985
v 0.167067 1.19669 0.545192
v 0.16138 1.17331 0.49228
v 0.117757 1.17059 0.538626
v 0.157131 1.12926 0.443096
v 0.15572 1.07906 0.413833
v 0.109675 1.08681 0.445071
v 0.107783 1.13491 0.486798
v 0.0769144 1.1321 0.53597
v 0.072714 1.08856 0.487342
v 0.0476496 1.08417 0.537427
v 0.138619 1.19034 0.595483
v 0.0850226 1.15194 0.59
v 0.0502109 1.1054 0.589377
v 0.0663822 1.11921 0.641374
v 0.11161 1.12234 0.809501
v 0.0663822 1.07822 0.801374
v 0.0949325 1.08356 0.849461
v 0.0850226 1.11095 0.75
v 0.11161 1.16333 0.649501
v 0.100515 1.03477 0.892668
v 0.06366 1.03459 0.84772
v 0.0771224 0.984351 0.8845
v 0.0502109 1.06441 0.749377
v 0.0370725 1.02321 0.788219
v 0.0295067 1.04535 0.573756
v 0.0295067 1.00436 0.733756
v 0.02655 0.962691 0.771322
v 0.0370725 1.0642 0.628219
v 0.0427189 0.973858 0.83192
v 0.0652911 0.932609 0.866093
v 0.0390044 0.921351 0.807265
v 0.0659218 0.883483 0.838848
v 0.126393 0.993143 0.923913
v 0.105452 0.932407 0.908114
v 0.101027 0.880369 0.882596
v 0.145875 0.883847 0.916251
v 0.162538 0.940305 0.940606
v 0.19705 0.893654 0.93725
v 0.24929 0.857917 0.920746
v 0.194435 0.843424 0.908114
v 0.246378 0.815095 0.8845
v 0.137348 0.835527 0.875622
v 0.0968269 0.836824 0.833968
v 0.137793 0.800073 0.822696
v 0.190186 0.799381 0.85893
v 0.242143 0.783835 0.838015
v 0.185703 0.776026 0.805891
v 0.236908 0.766515 0.78483
v 0.300869 0.845676 0.896904
v 0.29662 0.801633 0.84772
v 0.290933 0.778252 0.794808
v 0.340244 0.804355 0.801374
v 0.350217 0.840029 0.853203
v 0.381086 0.842837 0.80403
v 0.372977 0.822995 0.75
v 0.391618 0.855729 0.698626
v 0.319381 0.784599 0.744517
v 0.264647 0.766993 0.73598
v 0.289671 0.782695 0.688197
v 0.34639 0.852603 0.530499
v 0.289671 0.82369 0.528197
v 0.310077 0.853419 0.485118
v 0.34639 0.811608 0.690499
v 0.372977 0.86399 0.59
v 0.111443 0.89041 0.472443
v 0.125363 0.928647 0.43371
v 0.161099 0.876406 0.450214
v 0.147172 0.972921 0.406875
v 0.179106 0.918279 0.414143
v 0.215924 0.872417 0.438626
v 0.17521 1.01986 0.393979
v 0.208741 0.972508 0.390523
v 0.244886 0.919671 0.407215
v 0.271745 0.878747 0.438561
v 0.0765732 0.934229 0.476918
v 0.0533066 0.983661 0.49
v 0.0936131 0.976764 0.441152
v 0.0434144 1.03494 0.510695
v 0.0738999 1.03664 0.461233
v 0.123248 1.03099 0.417532
v 0.0821557 0.885439 0.520125
v 0.0640468 0.889795 0.573126
v 0.0499115 0.933062 0.528556
v 0.0640468 0.848801 0.733126
v 0.0584946 0.862152 0.787411
v 0.0358447 0.902595 0.752338
v 0.0301982 0.992937 0.548637
v 0.02655 1.00369 0.611322
v 0.0358447 0.943589 0.592338
v 0.0301982 0.951943 0.708637
v 0.134396 0.849703 0.503621
v 0.16455 0.821043 0.541374
v 0.108396 0.847569 0.555565
v 0.16455 0.780048 0.701374
v 0.199611 0.765618 0.742829
v 0.147167 0.780956 0.762655
v 0.0943288 0.817102 0.779347
v 0.108396 0.806574 0.715565
v 0.188242 0.838433 0.484854
v 0.254022 0.839824 0.477926
v 0.227013 0.77182 0.691944
v 0.227013 0.812815 0.531944
f 1 2 3
f 2 4 5
f 3 5 6
f 2 5 3
f 4 7 8
f 7 9 10
f 8 10 11
f 7 10 8
f 12 13 14
f 13 15 16
f 14 16 17
f 13 16 14
f 4 8 5
f 18 15 13
f 5 19 6
f 8 19 5
f 1 3 20
f 3 6 21
f 20 21 22
f 3 21 20
f 12 14 23
f 14 17 24
f 23 24 25
f 14 24 23
f 26 27 28
f 27 25 29
f 28 29 30
f 27 29 28
f 12 23 31
f 23 25 27
f 31 27 26
f 23 27 31
f 1 20 32
f 20 22 33
f 32 33 34
f 20 33 32
f 26 28 35
f 28 30 36
f 35 36 37
f 28 36 35
f 34 38 39
f 38 40 41
f 39 41 42
f 38 41 39
f 22 43 33
f 43 40 38
f 33 38 34
f 43 38 33
f 1 32 44
f 32 34 45
f 44 45 46
f 32 45 44
f 34 39 47
f 39 42 48
f 47 48 49
f 39 48 47
f 46 50 51
f 50 49 52
f 51 52 53
f 50 52 51
f 34 47 45
f 47 49 50
f 45 50 46
f 47 50 45
f 1 44 2
f 44 46 54
f 2 54 4
f 44 54 2
f 46 51 55
f 51 53 56
f 55 56 57
f 51 56 55
f 4 58 7
f 58 57 59
f 7 59 9
f 58 59 7
f 46 55 54
f 55 57 58
f 54 58 4
f 55 58 54
f 9 60 10
f 61 62 63
f 64 63 15
f 60 65 10
f 62 66 67
f 66 68 69
f 67 69 70
f 66 69 67
f 15 71 16
f 71 70 72
f 16 72 17
f 71 72 16
f 62 67 63
f 67 70 71
f 63 71 15
f 67 71 63
f 17 72 73
f 72 70 74
f 73 74 75
f 72 74 73
f 70 69 76
f 69 68 77
f 76 77 78
f 69 77 76
f 75 79 80
f 79 78 81
f 80 81 82
f 79 81 80
f 70 76 74
f 76 78 79
f 74 79 75
f 76 79 74
f 17 73 24
f 73 75 83
f 24 83 25
f 73 83 24
f 75 80 84
f 80 82 85
f 84 85 86
f 80 85 84
f 25 87 29
f 87 86 88
f 29 88 30
f 87 88 29
f 75 84 83
f 84 86 87
f 83 87 25
f 84 87 83
f 30 88 89
f 88 86 90
f 89 90 91
f 88 90 89
f 86 85 92
f 85 82 93
f 92 93 94
f 85 93 92
f 91 95 96
f 95 94 97
f 96 97 98
f 95 97 96
f 86 92 90
f 92 94 95
f 90 95 91
f 92 95 90
f 30 89 36
f 89 91 99
f 36 99 37
f 89 99 36
f 91 96 100
f 96 98 101
f 100 101 102
f 96 101 100
f 40 103 41
f 103 104 105
f 41 105 42
f 103 105 41
f 91 100 99
f 106 104 103
f 99 107 37
f 100 107 99
f 42 105 108
f 105 104 109
f 108 109 110
f 105 109 108
f 104 111 112
f 101 98 113
f 112 114 115
f 101 113 116
f 110 117 118
f 117 115 119
f 118 119 120
f 117 119 118
f 104 112 109
f 112 115 117
f 109 117 110
f 112 117 109
f 42 108 48
f 108 110 121
f 48 121 49
f 108 121 48
f 110 118 122
f 118 120 123
f 122 123 124
f 118 123 122
f 49 125 52
f 125 124 126
f 52 126 53
f 125 126 52
f 110 122 121
f 122 124 125
f 121 125 49
f 122 125 121
f 53 126 127
f 126 124 128
f 127 128 129
f 126 128 127
f 124 123 130
f 123 120 131
f 130 131 132
f 123 131 130
f 129 133 134
f 133 132 135
f 134 135 136
f 133 135 134
f 124 130 128
f 130 132 133
f 128 133 129
f 130 133 128
f 53 127 56
f 127 129 137
f 56 137 57
f 127 137 56
f 129 134 138
f 134 136 139
f 138 139 140
f 134 139 138
f 57 141 59
f 141 140 142
f 59 142 9
f 141 142 59
f 129 138 137
f 138 140 141
f 137 141 57
f 138 141 137
f 9 142 60
f 142 140 143
f 60 143 144
f 142 143 60
f 140 139 145
f 139 136 146
f 145 146 147
f 139 146 145
f 62 148 66
f 148 149 150
f 66 150 68
f 148 150 66
f 140 145 143
f 145 147 151
f 152 148 62
f 145 151 143
f 153 154 155
f 154 156 157
f 155 157 158
f 154 157 155
f 156 159 160
f 159 82 81
f 160 81 78
f 159 81 160
f 158 161 162
f 161 78 77
f 162 77 68
f 161 77 162
f 156 160 157
f 160 78 161
f 157 161 158
f 160 161 157
f 153 163 154
f 163 164 165
f 154 165 156
f 163 165 154
f 164 166 167
f 166 98 97
f 167 97 94
f 166 97 167
f 156 168 159
f 168 94 93
f 159 93 82
f 168 93 159
f 164 167 165
f 167 94 168
f 165 168 156
f 167 168 165
f 153 169 163
f 169 170 171
f 163 171 164
f 169 171 163
f 172 173 174
f 173 120 119
f 174 119 115
f 173 119 174
f 164 175 166
f 175 176 113
f 166 113 98
f 175 113 166
f 170 177 171
f 174 115 178
f 171 175 164
f 177 175 171
f 153 179 169
f 179 180 181
f 169 181 170
f 179 181 169
f 182 183 184
f 183 136 135
f 184 135 132
f 183 135 184
f 172 185 173
f 185 132 131
f 173 131 120
f 185 131 173
f 182 184 186
f 184 132 185
f 186 185 172
f 184 185 186
f 153 155 179
f 155 158 187
f 179 187 180
f 155 187 179
f 158 162 188
f 162 68 150
f 188 150 149
f 162 150 188
f 182 189 183
f 189 147 146
f 183 146 136
f 189 146 183
f 158 188 187
f 188 149 190
f 187 190 180
f 188 190 187
f 12 6 13
f 13 6 19
f 18 8 15
f 15 8 11
f 13 19 18
f 18 19 8
f 31 21 12
f 12 21 6
f 26 22 31
f 31 22 21
f 35 43 26
f 26 43 22
f 37 40 35
f 35 40 43
f 61 60 62
f 62 60 144
f 63 65 61
f 61 65 60
f 64 10 63
f 63 10 65
f 15 11 64
f 64 11 10
f 101 111 102
f 102 111 104
f 102 104 100
f 100 104 106
f 107 103 37
f 37 103 40
f 100 106 107
f 107 106 103
f 113 114 116
f 116 114 112
f 116 112 101
f 101 112 111
f 148 151 149
f 149 151 147
f 152 143 148
f 148 143 151
f 62 144 152
f 152 144 143
f 175 178 176
f 176 178 115
f 176 115 113
f 113 115 114
f 170 172 177
f 177 172 174
f 177 174 175
f 175 174 178
f 180 182 181
f 181 182 186
f 181 186 170
f 170 186 172
f 149 147 190
f 190 147 189
f 190 189 180
f 180 189 182
