v 0.826557 1.17991 0.187557
v 0.861427 1.13609 0.183083
v 0.855844 1.18488 0.139875
v 0.884694 1.08666 0.17
v 0.888089 1.13726 0.131445
v 0.873953 1.18052 0.0868747
v 0.894586 1.03538 0.149305
v 0.907802 1.07738 0.111364
v 0.890351 0.986147 0.122573
v 0.908493 1.02497 0.0862439
v 0.91145 1.06663 0.0486781
v 0.873953 1.18632 -0.0731253
v 0.902156 1.13253 -0.0923381
v 0.879506 1.17297 -0.127411
v 0.91145 1.07243 -0.111322
v 0.898996 1.11377 -0.147265
v 0.872078 1.15164 -0.178848
v 0.902156 1.12673 0.0676619
v 0.803604 1.22062 0.156379
v 0.829605 1.22275 0.104436
v 0.77345 1.24928 0.118626
v 0.843671 1.21802 -0.119347
v 0.841173 1.1983 -0.173968
v 0.800207 1.23505 -0.162696
v 0.790834 1.24837 0.0573454
v 0.73839 1.26371 0.0771708
v 0.790834 1.25417 -0.102655
v 0.752297 1.2591 -0.14589
v 0.73839 1.26951 -0.0828292
v 0.701092 1.26861 -0.12483
v 0.843671 1.21222 0.0406528
v 0.829605 1.22855 -0.0555644
v 0.776901 1.19391 0.209786
v 0.749758 1.23189 0.175146
v 0.722076 1.1979 0.221374
v 0.710987 1.2575 0.128056
v 0.673354 1.26813 -0.0759797
v 0.673354 1.26233 0.0840204
v 0.648329 1.24663 0.131803
v 0.683978 1.23049 0.182074
v 0.666255 1.19157 0.221439
v 0.627923 1.2169 0.174882
v 0.613689 1.17541 0.209976
v 0.812637 1.14167 0.22629
v 0.758894 1.15204 0.245857
v 0.790828 1.0974 0.253125
v 0.693114 1.15065 0.252785
v 0.636956 1.13796 0.244793
v 0.665707 1.09475 0.266303
v 0.729259 1.09781 0.269477
v 0.76279 1.05046 0.266021
v 0.697754 1.04908 0.27287
v 0.730657 1.00442 0.263995
v 0.844387 1.09355 0.218848
v 0.814752 1.03933 0.242468
v 0.78228 0.991257 0.246167
v 0.828325 0.983508 0.214929
v 0.8641 1.03368 0.198767
v 0.865286 0.98176 0.172658
v 0.887789 0.964918 0.0706232
v 0.887789 0.970718 -0.0893769
v 0.871618 0.956907 -0.141374
v 0.900928 1.01192 -0.128219
v 0.908493 1.03077 -0.0737562
v 0.843068 0.951564 -0.189461
v 0.87434 1.00053 -0.18772
v 0.804312 0.955096 -0.229976
v 0.837485 1.00035 -0.232668
v 0.860878 1.05077 -0.2245
v 0.895281 1.06127 -0.17192
v 0.872709 1.10251 -0.206093
v 0.836973 1.15475 -0.222596
v 0.832549 1.10272 -0.248114
v 0.792126 1.15128 -0.256251
v 0.811608 1.04198 -0.263913
v 0.781045 0.992546 -0.264793
v 0.752293 1.03575 -0.286303
v 0.775462 1.09482 -0.280606
v 0.740951 1.14147 -0.27725
v 0.720246 1.08142 -0.29287
v 0.687343 1.12608 -0.283994
v 0.800652 1.1996 -0.215622
v 0.743566 1.1917 -0.248114
v 0.688711 1.17721 -0.260746
v 0.691622 1.22003 -0.2245
v 0.747814 1.23574 -0.198929
v 0.695857 1.25129 -0.178015
v 0.647067 1.25687 -0.134808
v 0.64138 1.23349 -0.18772
v 0.597757 1.23077 -0.141374
v 0.637131 1.18945 -0.236904
v 0.63572 1.13924 -0.266167
v 0.589675 1.14699 -0.234929
v 0.587783 1.19509 -0.193203
v 0.556915 1.19229 -0.14403
v 0.552714 1.14874 -0.192658
v 0.52765 1.14435 -0.142573
v 0.618619 1.25052 -0.0845171
v 0.618619 1.24472 0.075483
v 0.565023 1.21213 -0.09
v 0.530211 1.16558 -0.0906231
v 0.565023 1.20633 0.0700001
v 0.530211 1.15978 0.069377
v 0.546382 1.17359 0.121374
v 0.59161 1.21772 0.129501
v 0.574933 1.17894 0.169461
v 0.580515 1.13015 0.212668
v 0.54366 1.12997 0.16772
v 0.557123 1.07973 0.2045
v 0.517073 1.11858 0.108219
v 0.509507 1.10553 -0.106244
v 0.509507 1.09973 0.0537562
v 0.50655 1.05807 0.091322
v 0.522719 1.06924 0.15192
v 0.545291 1.02799 0.186093
v 0.519005 1.01673 0.127265
v 0.545922 0.978861 0.158848
v 0.606393 1.08852 0.243913
v 0.585452 1.02779 0.228114
v 0.581028 0.975747 0.202596
v 0.625875 0.979225 0.236251
v 0.642538 1.03568 0.260606
v 0.67705 0.989031 0.25725
v 0.72929 0.953295 0.240746
v 0.674435 0.938802 0.228114
v 0.726378 0.910473 0.2045
v 0.617348 0.930905 0.195622
v 0.576827 0.932202 0.153968
v 0.617794 0.895451 0.142696
v 0.670186 0.894759 0.178929
v 0.722144 0.879212 0.158015
v 0.665703 0.871404 0.125891
v 0.716909 0.861893 0.10483
v 0.780869 0.941054 0.216904
v 0.776621 0.897011 0.16772
v 0.770933 0.87363 0.114808
v 0.820244 0.899733 0.121374
v 0.830217 0.935407 0.173203
v 0.861086 0.938215 0.12403
v 0.852978 0.918373 0.07
v 0.852978 0.924173 -0.09
v 0.799381 0.879977 0.0645171
v 0.744647 0.862371 0.0559797
v 0.799381 0.885777 -0.0954829
v 0.744647 0.868171 -0.10402
v 0.769671 0.883873 -0.151803
v 0.82639 0.912786 -0.149501
v 0.790077 0.913602 -0.194882
v 0.591443 0.950594 -0.207557
v 0.605363 0.98883 -0.24629
v 0.641099 0.93659 -0.229786
v 0.627172 1.0331 -0.273125
v 0.659106 0.978463 -0.265857
v 0.695925 0.9326 -0.241374
v 0.65521 1.08005 -0.286021
v 0.688741 1.03269 -0.289477
v 0.724886 0.979854 -0.272785
v 0.751745 0.93893 -0.241439
v 0.556573 0.994412 -0.203083
v 0.533307 1.04384 -0.19
v 0.573613 1.03695 -0.238848
v 0.523415 1.09513 -0.169305
v 0.5539 1.09682 -0.218767
v 0.603248 1.09118 -0.262468
v 0.562156 0.945622 -0.159875
v 0.544047 0.949978 -0.106875
v 0.529912 0.993245 -0.151445
v 0.544047 0.944179 0.0531254
v 0.538495 0.95753 0.107411
v 0.515845 0.997973 0.0723382
v 0.510198 1.05312 -0.131363
v 0.50655 1.06387 -0.068678
v 0.515845 1.00377 -0.0876618
v 0.614396 0.909886 -0.176379
v 0.64455 0.881226 -0.138626
v 0.588396 0.907752 -0.124436
v 0.679611 0.866796 -0.0971707
v 0.627167 0.882134 -0.0773453
v 0.679611 0.860996 0.0628293
v 0.627167 0.876334 0.0826547
v 0.574329 0.912479 0.0993472
v 0.574329 0.918279 -0.0606528
v 0.588396 0.901952 0.0355645
v 0.668243 0.898616 -0.195146
v 0.734023 0.900007 -0.202074
v 0.707014 0.872998 -0.148056
f 1 2 3
f 2 4 5
f 3 5 6
f 2 5 3
f 4 7 8
f 7 9 10
f 8 10 11
f 7 10 8
f 12 13 14
f 13 15 16
f 14 16 17
f 13 16 14
f 4 8 5
f 8 11 18
f 5 18 6
f 8 18 5
f 1 3 19
f 3 6 20
f 19 20 21
f 3 20 19
f 12 14 22
f 14 17 23
f 22 23 24
f 14 23 22
f 21 25 26
f 27 24 28
f 29 28 30
f 27 28 29
f 6 31 20
f 22 24 27
f 20 25 21
f 22 27 32
f 1 19 33
f 19 21 34
f 33 34 35
f 19 34 33
f 21 26 36
f 29 30 37
f 36 38 39
f 26 38 36
f 35 40 41
f 40 39 42
f 41 42 43
f 40 42 41
f 21 36 34
f 36 39 40
f 34 40 35
f 36 40 34
f 1 33 44
f 33 35 45
f 44 45 46
f 33 45 44
f 35 41 47
f 41 43 48
f 47 48 49
f 41 48 47
f 46 50 51
f 50 49 52
f 51 52 53
f 50 52 51
f 35 47 45
f 47 49 50
f 45 50 46
f 47 50 45
f 1 44 2
f 44 46 54
f 2 54 4
f 44 54 2
f 46 51 55
f 51 53 56
f 55 56 57
f 51 56 55
f 4 58 7
f 58 57 59
f 7 59 9
f 58 59 7
f 46 55 54
f 55 57 58
f 54 58 4
f 55 58 54
f 9 60 10
f 61 62 63
f 64 63 15
f 61 63 64
f 62 65 66
f 65 67 68
f 66 68 69
f 65 68 66
f 15 70 16
f 70 69 71
f 16 71 17
f 70 71 16
f 62 66 63
f 66 69 70
f 63 70 15
f 66 70 63
f 17 71 72
f 71 69 73
f 72 73 74
f 71 73 72
f 69 68 75
f 68 67 76
f 75 76 77
f 68 76 75
f 74 78 79
f 78 77 80
f 79 80 81
f 78 80 79
f 69 75 73
f 75 77 78
f 73 78 74
f 75 78 73
f 17 72 23
f 72 74 82
f 23 82 24
f 72 82 23
f 74 79 83
f 79 81 84
f 83 84 85
f 79 84 83
f 24 86 28
f 86 85 87
f 28 87 30
f 86 87 28
f 74 83 82
f 83 85 86
f 82 86 24
f 83 86 82
f 30 87 88
f 87 85 89
f 88 89 90
f 87 89 88
f 85 84 91
f 84 81 92
f 91 92 93
f 84 92 91
f 90 94 95
f 94 93 96
f 95 96 97
f 94 96 95
f 85 91 89
f 91 93 94
f 89 94 90
f 91 94 89
f 30 88 37
f 88 90 98
f 38 99 39
f 88 98 37
f 90 95 100
f 95 97 101
f 102 103 104
f 95 101 100
f 39 105 42
f 105 104 106
f 42 106 43
f 105 106 42
f 90 100 98
f 102 104 105
f 99 105 39
f 102 105 99
f 43 106 107
f 106 104 108
f 107 108 109
f 106 108 107
f 104 103 110
f 101 97 111
f 110 112 113
f 103 112 110
f 109 114 115
f 114 113 116
f 115 116 117
f 114 116 115
f 104 110 108
f 110 113 114
f 108 114 109
f 110 114 108
f 43 107 48
f 107 109 118
f 48 118 49
f 107 118 48
f 109 115 119
f 115 117 120
f 119 120 121
f 115 120 119
f 49 122 52
f 122 121 123
f 52 123 53
f 122 123 52
f 109 119 118
f 119 121 122
f 118 122 49
f 119 122 118
f 53 123 124
f 123 121 125
f 124 125 126
f 123 125 124
f 121 120 127
f 120 117 128
f 127 128 129
f 120 128 127
f 126 130 131
f 130 129 132
f 131 132 133
f 130 132 131
f 121 127 125
f 127 129 130
f 125 130 126
f 127 130 125
f 53 124 56
f 124 126 134
f 56 134 57
f 124 134 56
f 126 131 135
f 131 133 136
f 135 136 137
f 131 136 135
f 57 138 59
f 138 137 139
f 59 139 9
f 138 139 59
f 126 135 134
f 135 137 138
f 134 138 57
f 135 138 134
f 9 139 60
f 139 137 140
f 61 141 62
f 139 140 60
f 137 136 142
f 136 133 143
f 144 145 146
f 136 143 142
f 62 147 65
f 147 146 148
f 65 148 67
f 147 148 65
f 137 142 140
f 144 146 147
f 141 147 62
f 144 147 141
f 149 150 151
f 150 152 153
f 151 153 154
f 150 153 151
f 152 155 156
f 155 81 80
f 156 80 77
f 155 80 156
f 154 157 158
f 157 77 76
f 158 76 67
f 157 76 158
f 152 156 153
f 156 77 157
f 153 157 154
f 156 157 153
f 149 159 150
f 159 160 161
f 150 161 152
f 159 161 150
f 160 162 163
f 162 97 96
f 163 96 93
f 162 96 163
f 152 164 155
f 164 93 92
f 155 92 81
f 164 92 155
f 160 163 161
f 163 93 164
f 161 164 152
f 163 164 161
f 149 165 159
f 165 166 167
f 159 167 160
f 165 167 159
f 168 169 170
f 169 117 116
f 170 116 113
f 169 116 170
f 160 171 162
f 171 172 111
f 162 111 97
f 171 111 162
f 166 173 167
f 173 172 171
f 167 171 160
f 173 171 167
f 149 174 165
f 174 175 176
f 165 176 166
f 174 176 165
f 175 177 178
f 179 133 132
f 180 132 129
f 179 132 180
f 168 181 169
f 181 129 128
f 169 128 117
f 181 128 169
f 175 178 176
f 180 129 181
f 176 182 166
f 180 181 183
f 149 151 174
f 151 154 184
f 174 184 175
f 151 184 174
f 154 158 185
f 158 67 148
f 185 148 146
f 158 148 185
f 175 186 177
f 186 146 145
f 179 143 133
f 186 145 177
f 154 185 184
f 185 146 186
f 184 186 175
f 185 186 184
f 12 6 13
f 13 6 18
f 13 18 15
f 15 18 11
f 22 31 12
f 12 31 6
f 29 26 27
f 27 26 25
f 27 25 32
f 32 25 20
f 32 20 22
f 22 20 31
f 37 38 29
f 29 38 26
f 15 11 64
f 64 11 10
f 64 10 61
f 61 10 60
f 98 99 37
f 37 99 38
f 101 103 100
f 100 103 102
f 100 102 98
f 98 102 99
f 111 112 101
f 101 112 103
f 61 60 141
f 141 60 140
f 144 142 145
f 145 142 143
f 141 140 144
f 144 140 142
f 172 113 111
f 111 113 112
f 166 168 173
f 173 168 170
f 173 170 172
f 172 170 113
f 177 179 178
f 178 179 180
f 178 180 176
f 176 180 183
f 176 183 182
f 182 183 181
f 182 181 166
f 166 181 168
f 145 143 177
f 177 143 179
