v 0.346557 1.10106 0.867557
v 0.381427 1.05724 0.863083
v 0.375844 1.10603 0.819876
v 0.404693 1.0078 0.85
v 0.408089 1.0584 0.811445
v 0.393953 1.10167 0.766875
v 0.414586 0.956523 0.829305
v 0.427802 0.998528 0.791364
v 0.414586 0.939997 0.829305
v 0.41035 0.890769 0.802573
v 0.428493 0.929589 0.766244
v 0.427802 0.982003 0.791364
v 0.43145 0.971255 0.728678
v 0.422155 1.04788 0.747662
v 0.399505 1.08832 0.712589
v 0.43145 0.98778 0.728678
v 0.418996 1.02912 0.692735
v 0.392078 1.06699 0.661152
v 0.323604 1.14176 0.836379
v 0.349604 1.1439 0.784436
v 0.29345 1.17042 0.798626
v 0.363671 1.13337 0.720653
v 0.361173 1.11365 0.666032
v 0.320207 1.1504 0.677304
v 0.310833 1.16951 0.737345
v 0.258389 1.18485 0.757171
v 0.272297 1.17444 0.69411
v 0.221092 1.18396 0.71517
v 0.296901 1.11506 0.889786
v 0.269758 1.15303 0.855146
v 0.242076 1.11905 0.901374
v 0.230987 1.17865 0.808056
v 0.193354 1.18348 0.76402
v 0.168329 1.16778 0.811804
v 0.203978 1.15164 0.862074
v 0.186255 1.11272 0.901439
v 0.147923 1.13805 0.854882
v 0.133689 1.09655 0.889977
v 0.332637 1.06282 0.90629
v 0.278894 1.07319 0.925857
v 0.310828 1.01854 0.933125
v 0.213114 1.07179 0.932785
v 0.156956 1.0591 0.924793
v 0.185707 1.0159 0.946303
v 0.249259 1.01896 0.949478
v 0.28279 0.971603 0.946021
v 0.217754 0.970227 0.95287
v 0.28279 0.955077 0.946021
v 0.217754 0.953702 0.95287
v 0.250657 0.909041 0.943995
v 0.364387 1.0147 0.898848
v 0.334752 0.960473 0.922468
v 0.30228 0.895879 0.926167
v 0.334752 0.943948 0.922468
v 0.348325 0.88813 0.894929
v 0.404693 0.991279 0.85
v 0.3841 0.938301 0.878767
v 0.385286 0.886382 0.852658
v 0.3841 0.954827 0.878767
v 0.364387 0.998177 0.898848
v 0.407789 0.869541 0.750623
v 0.391618 0.855729 0.698626
v 0.420928 0.91074 0.711781
v 0.363068 0.850386 0.650539
v 0.39434 0.899353 0.65228
v 0.324312 0.853918 0.610024
v 0.357485 0.899176 0.607332
v 0.380878 0.949595 0.6155
v 0.415281 0.976613 0.66808
v 0.380878 0.96612 0.6155
v 0.392709 1.01786 0.633907
v 0.415281 0.960088 0.66808
v 0.356973 1.0701 0.617404
v 0.352548 1.01806 0.591886
v 0.312125 1.06662 0.583749
v 0.331607 0.940803 0.576087
v 0.301045 0.891368 0.575208
v 0.272293 0.934573 0.553697
v 0.295462 1.01017 0.559394
v 0.26095 1.05682 0.56275
v 0.272293 0.951098 0.553697
v 0.240246 0.996769 0.54713
v 0.207343 1.04143 0.556006
v 0.352548 1.00154 0.591886
v 0.295462 0.993641 0.559394
v 0.331607 0.957328 0.576087
v 0.320652 1.11494 0.624378
v 0.263566 1.10705 0.591886
v 0.20871 1.09255 0.579254
v 0.211622 1.13538 0.6155
v 0.267814 1.15109 0.641071
v 0.215857 1.16664 0.661985
v 0.167067 1.17222 0.705192
v 0.16138 1.14884 0.65228
v 0.117757 1.14612 0.698626
v 0.157131 1.1048 0.603096
v 0.15572 1.05459 0.573833
v 0.109675 1.06234 0.605071
v 0.107783 1.11044 0.646797
v 0.0769144 1.10763 0.69597
v 0.072714 1.06409 0.647342
v 0.0476496 1.0597 0.697427
v 0.138619 1.16587 0.755483
v 0.0850226 1.12748 0.75
v 0.0502109 1.08093 0.749377
v 0.0663822 1.09474 0.801374
v 0.11161 1.13886 0.809501
v 0.0949325 1.10008 0.849461
v 0.100515 1.05129 0.892668
v 0.06366 1.05112 0.84772
v 0.0771224 1.00088 0.8845
v 0.0370725 1.03973 0.788219
v 0.0295067 1.02088 0.733756
v 0.02655 0.979216 0.771322
v 0.0771224 0.984351 0.8845
v 0.0427189 0.973858 0.83192
v 0.0652911 0.932609 0.866093
v 0.02655 0.962691 0.771322
v 0.0390044 0.921351 0.807265
v 0.0659218 0.883483 0.838848
v 0.0427189 0.990383 0.83192
v 0.126393 1.00967 0.923913
v 0.105452 0.932407 0.908114
v 0.101027 0.880369 0.882596
v 0.145875 0.883847 0.916251
v 0.185707 0.999373 0.946303
v 0.162538 0.940305 0.940606
v 0.19705 0.893654 0.93725
v 0.105452 0.948933 0.908114
v 0.162538 0.95683 0.940606
v 0.126393 0.993143 0.923913
v 0.24929 0.857917 0.920746
v 0.194435 0.843424 0.908114
v 0.246378 0.815095 0.8845
v 0.137348 0.835527 0.875622
v 0.0968269 0.836824 0.833968
v 0.137793 0.800073 0.822696
v 0.190186 0.799381 0.85893
v 0.242143 0.783835 0.838015
v 0.185703 0.776026 0.805891
v 0.236908 0.766515 0.78483
v 0.300869 0.845676 0.896904
v 0.29662 0.801633 0.84772
v 0.290933 0.778252 0.794808
v 0.340244 0.804355 0.801374
v 0.350217 0.840029 0.853203
v 0.381086 0.842837 0.80403
v 0.372977 0.822995 0.75
v 0.319381 0.784599 0.744517
v 0.264647 0.766993 0.73598
v 0.289671 0.782695 0.688197
v 0.34639 0.811608 0.690499
v 0.310077 0.812424 0.645118
v 0.111443 0.849416 0.632443
v 0.125363 0.887652 0.59371
v 0.161099 0.835412 0.610214
v 0.147172 0.931926 0.566875
v 0.179106 0.877285 0.574143
v 0.215924 0.831423 0.598626
v 0.17521 0.978868 0.553979
v 0.208741 0.931514 0.550523
v 0.17521 0.995394 0.553979
v 0.240246 0.980244 0.54713
v 0.244886 0.878676 0.567215
v 0.271745 0.837752 0.598561
v 0.0765732 0.893234 0.636917
v 0.0533066 0.942666 0.65
v 0.0936131 0.935769 0.601152
v 0.0533066 0.959192 0.65
v 0.0434144 1.01047 0.670695
v 0.0738999 1.01217 0.621233
v 0.123248 0.989998 0.577532
v 0.123248 1.00652 0.577532
v 0.0738999 0.995644 0.621233
v 0.0936131 0.952294 0.601152
v 0.0821557 0.844445 0.680125
v 0.0640468 0.848801 0.733126
v 0.0499115 0.892067 0.688555
v 0.0584946 0.862152 0.787411
v 0.0358447 0.902595 0.752338
v 0.0301982 0.951943 0.708637
v 0.0434144 0.993948 0.670695
v 0.0301982 0.968468 0.708637
v 0.134396 0.808708 0.663621
v 0.16455 0.780048 0.701374
v 0.108396 0.806574 0.715565
v 0.199611 0.765618 0.742829
v 0.147167 0.780956 0.762655
v 0.0943288 0.817102 0.779347
v 0.188242 0.797438 0.644854
v 0.254022 0.798829 0.637926
v 0.227013 0.77182 0.691944
f 1 2 3
f 2 4 5
f 3 5 6
f 2 5 3
f 4 7 8
f 9 10 11
f 12 11 13
f 9 11 12
f 6 14 15
f 14 16 17
f 15 17 18
f 14 17 15
f 4 8 5
f 8 16 14
f 5 14 6
f 8 14 5
f 1 3 19
f 3 6 20
f 19 20 21
f 3 20 19
f 6 15 22
f 15 18 23
f 22 23 24
f 15 23 22
f 21 25 26
f 25 24 27
f 26 27 28
f 25 27 26
f 6 22 20
f 22 24 25
f 20 25 21
f 22 25 20
f 1 19 29
f 19 21 30
f 29 30 31
f 19 30 29
f 21 26 32
f 26 28 33
f 32 33 34
f 26 33 32
f 31 35 36
f 35 34 37
f 36 37 38
f 35 37 36
f 21 32 30
f 32 34 35
f 30 35 31
f 32 35 30
f 1 29 39
f 29 31 40
f 39 40 41
f 29 40 39
f 31 36 42
f 36 38 43
f 42 43 44
f 36 43 42
f 41 45 46
f 45 44 47
f 48 49 50
f 45 47 46
f 31 42 40
f 42 44 45
f 40 45 41
f 42 45 40
f 1 39 2
f 39 41 51
f 2 51 4
f 39 51 2
f 41 46 52
f 48 50 53
f 54 53 55
f 48 53 54
f 56 57 9
f 57 55 58
f 9 58 10
f 57 58 9
f 41 52 51
f 54 55 57
f 51 59 4
f 54 57 60
f 10 61 11
f 61 62 63
f 11 63 13
f 61 63 11
f 62 64 65
f 64 66 67
f 65 67 68
f 64 67 65
f 16 69 17
f 69 70 71
f 17 71 18
f 69 71 17
f 62 65 63
f 65 68 72
f 63 72 13
f 65 72 63
f 18 71 73
f 71 70 74
f 73 74 75
f 71 74 73
f 68 67 76
f 67 66 77
f 76 77 78
f 67 77 76
f 75 79 80
f 79 81 82
f 80 82 83
f 79 82 80
f 68 76 84
f 76 78 85
f 74 79 75
f 86 79 74
f 18 73 23
f 73 75 87
f 23 87 24
f 73 87 23
f 75 80 88
f 80 83 89
f 88 89 90
f 80 89 88
f 24 91 27
f 91 90 92
f 27 92 28
f 91 92 27
f 75 88 87
f 88 90 91
f 87 91 24
f 88 91 87
f 28 92 93
f 92 90 94
f 93 94 95
f 92 94 93
f 90 89 96
f 89 83 97
f 96 97 98
f 89 97 96
f 95 99 100
f 99 98 101
f 100 101 102
f 99 101 100
f 90 96 94
f 96 98 99
f 94 99 95
f 96 99 94
f 28 93 33
f 93 95 103
f 33 103 34
f 93 103 33
f 95 100 104
f 100 102 105
f 104 105 106
f 100 105 104
f 34 107 37
f 107 106 108
f 37 108 38
f 107 108 37
f 95 104 103
f 104 106 107
f 103 107 34
f 104 107 103
f 38 108 109
f 108 106 110
f 109 110 111
f 108 110 109
f 106 105 112
f 105 102 113
f 112 113 114
f 105 113 112
f 115 116 117
f 116 118 119
f 117 119 120
f 116 119 117
f 106 112 110
f 112 114 121
f 110 121 111
f 112 121 110
f 38 109 43
f 109 111 122
f 43 122 44
f 109 122 43
f 115 117 123
f 117 120 124
f 123 124 125
f 117 124 123
f 126 127 49
f 127 125 128
f 49 128 50
f 127 128 49
f 111 129 122
f 123 125 127
f 122 130 44
f 123 127 131
f 50 128 132
f 128 125 133
f 132 133 134
f 128 133 132
f 125 124 135
f 124 120 136
f 135 136 137
f 124 136 135
f 134 138 139
f 138 137 140
f 139 140 141
f 138 140 139
f 125 135 133
f 135 137 138
f 133 138 134
f 135 138 133
f 50 132 53
f 132 134 142
f 53 142 55
f 132 142 53
f 134 139 143
f 139 141 144
f 143 144 145
f 139 144 143
f 55 146 58
f 146 145 147
f 58 147 10
f 146 147 58
f 134 143 142
f 143 145 146
f 142 146 55
f 143 146 142
f 10 147 61
f 147 145 148
f 61 148 62
f 147 148 61
f 145 144 149
f 144 141 150
f 149 150 151
f 144 150 149
f 62 152 64
f 152 151 153
f 64 153 66
f 152 153 64
f 145 149 148
f 149 151 152
f 148 152 62
f 149 152 148
f 154 155 156
f 155 157 158
f 156 158 159
f 155 158 156
f 157 160 161
f 162 83 82
f 161 163 78
f 160 163 161
f 159 164 165
f 164 78 77
f 165 77 66
f 164 77 165
f 157 161 158
f 161 78 164
f 158 164 159
f 161 164 158
f 154 166 155
f 166 167 168
f 155 168 157
f 166 168 155
f 169 170 171
f 170 102 101
f 171 101 98
f 170 101 171
f 157 172 160
f 173 98 97
f 162 97 83
f 173 97 162
f 167 174 168
f 171 98 173
f 168 172 157
f 171 173 175
f 154 176 166
f 176 177 178
f 166 178 167
f 176 178 166
f 177 179 180
f 179 120 119
f 180 119 118
f 179 119 180
f 167 181 182
f 183 114 113
f 170 113 102
f 183 113 170
f 177 180 178
f 180 118 181
f 178 181 167
f 180 181 178
f 154 184 176
f 184 185 186
f 176 186 177
f 184 186 176
f 185 187 188
f 187 141 140
f 188 140 137
f 187 140 188
f 177 189 179
f 189 137 136
f 179 136 120
f 189 136 179
f 185 188 186
f 188 137 189
f 186 189 177
f 188 189 186
f 154 156 184
f 156 159 190
f 184 190 185
f 156 190 184
f 159 165 191
f 165 66 153
f 191 153 151
f 165 153 191
f 185 192 187
f 192 151 150
f 187 150 141
f 192 150 187
f 159 191 190
f 191 151 192
f 190 192 185
f 191 192 190
f 13 16 12
f 12 16 8
f 12 8 9
f 9 8 7
f 48 46 49
f 49 46 47
f 54 52 48
f 48 52 46
f 56 4 57
f 57 4 59
f 9 7 56
f 56 7 4
f 57 59 60
f 60 59 51
f 60 51 54
f 54 51 52
f 68 70 72
f 72 70 69
f 72 69 13
f 13 69 16
f 76 86 84
f 84 86 74
f 84 74 68
f 68 74 70
f 78 81 85
f 85 81 79
f 85 79 76
f 76 79 86
f 115 111 116
f 116 111 121
f 116 121 118
f 118 121 114
f 123 129 115
f 115 129 111
f 126 44 127
f 127 44 130
f 49 47 126
f 126 47 44
f 127 130 131
f 131 130 122
f 131 122 123
f 123 122 129
f 163 82 78
f 78 82 81
f 160 162 163
f 163 162 82
f 172 173 160
f 160 173 162
f 167 169 174
f 174 169 171
f 174 171 168
f 168 171 175
f 168 175 172
f 172 175 173
f 181 183 182
f 182 183 170
f 182 170 167
f 167 170 169
f 118 114 181
f 181 114 183
