v 0.346557 1.10106 0.867557
v 0.381427 1.05724 0.863083
v 0.375844 1.10603 0.819876
v 0.404693 1.0078 0.85
v 0.408089 1.0584 0.811445
v 0.393953 1.10167 0.766875
v 0.414586 0.956523 0.829305
v 0.427802 0.998528 0.791364
v 0.41035 0.907294 0.802573
v 0.428493 0.946114 0.766244
v 0.43145 0.98778 0.728678
v 0.422155 1.04788 0.747662
v 0.399505 1.08832 0.712589
v 0.418996 1.02912 0.692735
v 0.392078 1.06699 0.661152
v 0.323604 1.14176 0.836379
v 0.349604 1.1439 0.784436
v 0.29345 1.17042 0.798626
v 0.363671 1.13337 0.720653
v 0.361173 1.11365 0.666032
v 0.320207 1.1504 0.677304
v 0.310833 1.16951 0.737345
v 0.258389 1.18485 0.757171
v 0.272297 1.17444 0.69411
v 0.221092 1.18396 0.71517
v 0.296901 1.11506 0.889786
v 0.269758 1.15303 0.855146
v 0.242076 1.11905 0.901374
v 0.230987 1.17865 0.808056
v 0.138389 1.18485 0.757171
v 0.101092 1.18396 0.71517
v 0.0733535 1.18348 0.76402
v 0.110987 1.17865 0.808056
v 0.0483289 1.16778 0.811804
v 0.122076 1.11905 0.901374
v 0.0839776 1.15164 0.862074
v 0.0662551 1.11272 0.901439
v 0.0279228 1.13805 0.854882
v 0.0136885 1.09655 0.889977
v 0.203978 1.15164 0.862074
v 0.332637 1.06282 0.90629
v 0.278894 1.07319 0.925857
v 0.310828 1.01854 0.933125
v 0.0931137 1.07179 0.932785
v 0.0369556 1.0591 0.924793
v 0.0657069 1.0159 0.946303
v 0.249259 1.01896 0.949478
v 0.28279 0.971603 0.946021
v 0.129259 1.01896 0.949478
v 0.0977538 0.970227 0.95287
v 0.217754 0.970227 0.95287
v 0.250657 0.925566 0.943995
v 0.213114 1.07179 0.932785
v 0.364387 1.0147 0.898848
v 0.334752 0.960473 0.922468
v 0.30228 0.912405 0.926167
v 0.348325 0.904655 0.894929
v 0.3841 0.954827 0.878767
v 0.385286 0.902907 0.852658
v 0.407789 0.886066 0.750623
v 0.391618 0.872255 0.698626
v 0.420928 0.927265 0.711781
v 0.363068 0.866912 0.650539
v 0.39434 0.915878 0.65228
v 0.324312 0.870444 0.610024
v 0.357485 0.915701 0.607332
v 0.380878 0.96612 0.6155
v 0.415281 0.976613 0.66808
v 0.392709 1.01786 0.633907
v 0.356973 1.0701 0.617404
v 0.352548 1.01806 0.591886
v 0.312125 1.06662 0.583749
v 0.331607 0.957328 0.576087
v 0.301045 0.907893 0.575208
v 0.272293 0.951098 0.553697
v 0.295462 1.01017 0.559394
v 0.26095 1.05682 0.56275
v 0.240246 0.996769 0.54713
v 0.207343 1.04143 0.556006
v 0.320652 1.11494 0.624378
v 0.263566 1.10705 0.591886
v 0.14095 1.05682 0.56275
v 0.0873432 1.04143 0.556006
v 0.0887104 1.09255 0.579254
v 0.20871 1.09255 0.579254
v 0.211622 1.13538 0.6155
v 0.267814 1.15109 0.641071
v 0.215857 1.16664 0.661985
v 0.0958566 1.16664 0.661985
v 0.0470668 1.17222 0.705192
v 0.0916221 1.13538 0.6155
v 0.0413797 1.14884 0.65228
v -0.00224348 1.14612 0.698626
v 0.0371312 1.1048 0.603096
v 0.0357201 1.05459 0.573833
v -0.0103246 1.06234 0.605071
v -0.0122168 1.11044 0.646797
v -0.0430856 1.10763 0.69597
v -0.047286 1.06409 0.647342
v -0.0723504 1.0597 0.697427
v 0.0186192 1.16587 0.755483
v -0.0349774 1.12748 0.75
v -0.0697891 1.08093 0.749377
v -0.0536178 1.09474 0.801374
v -0.00838992 1.13886 0.809501
v -0.0250675 1.10008 0.849461
v -0.0194849 1.05129 0.892668
v -0.05634 1.05112 0.84772
v -0.0428776 1.00088 0.8845
v -0.0829275 1.03973 0.788219
v -0.0904933 1.02088 0.733756
v -0.09345 0.979216 0.771322
v -0.0772811 0.990383 0.83192
v -0.0547089 0.949134 0.866093
v -0.0809956 0.937876 0.807265
v -0.0540782 0.900009 0.838848
v 0.00639266 1.00967 0.923913
v -0.0145484 0.948933 0.908114
v -0.0189726 0.896894 0.882596
v 0.0258746 0.900373 0.916251
v 0.0425379 0.95683 0.940606
v 0.0770497 0.910179 0.93725
v 0.130657 0.925566 0.943995
v 0.19705 0.910179 0.93725
v 0.24929 0.874443 0.920746
v 0.0744346 0.85995 0.908114
v 0.12929 0.874443 0.920746
v 0.126378 0.83162 0.8845
v 0.0173483 0.852052 0.875622
v -0.0231731 0.85335 0.833968
v 0.0177935 0.816598 0.822696
v 0.0701861 0.815907 0.85893
v 0.122143 0.80036 0.838015
v 0.065703 0.792552 0.805891
v 0.116908 0.78304 0.78483
v 0.246378 0.83162 0.8845
v 0.300869 0.862201 0.896904
v 0.242143 0.80036 0.838015
v 0.29662 0.818158 0.84772
v 0.236908 0.78304 0.78483
v 0.290933 0.794777 0.794808
v 0.340244 0.82088 0.801374
v 0.350217 0.856555 0.853203
v 0.381086 0.859362 0.80403
v 0.372977 0.839521 0.75
v 0.319381 0.801124 0.744517
v 0.264647 0.783519 0.73598
v 0.289671 0.79922 0.688197
v 0.34639 0.828133 0.690499
v 0.310077 0.82895 0.645118
v -0.00855704 0.865941 0.632443
v 0.00536297 0.904177 0.59371
v 0.0410993 0.851937 0.610214
v 0.0271721 0.948451 0.566875
v 0.0591063 0.89381 0.574143
v 0.0959244 0.847948 0.598626
v 0.0552104 0.995394 0.553979
v 0.0887411 0.948039 0.550523
v 0.120246 0.996769 0.54713
v 0.208741 0.948039 0.550523
v 0.215924 0.847948 0.598626
v 0.244886 0.895201 0.567215
v 0.271745 0.854277 0.598561
v 0.124886 0.895201 0.567215
v -0.0434268 0.90976 0.636917
v -0.0666934 0.959192 0.65
v -0.0263869 0.952294 0.601152
v -0.0765856 1.01047 0.670695
v -0.0461002 1.01217 0.621233
v 0.00324788 1.00652 0.577532
v -0.0378443 0.86097 0.680125
v -0.0559532 0.865326 0.733126
v -0.0700885 0.908593 0.688555
v -0.0615054 0.878678 0.787411
v -0.0841554 0.91912 0.752338
v -0.0898018 0.968468 0.708637
v 0.0143958 0.825234 0.663621
v 0.0445501 0.796574 0.701374
v -0.0116044 0.823099 0.715565
v 0.0796106 0.782143 0.742829
v 0.0271666 0.797482 0.762655
v -0.0256712 0.833627 0.779347
v 0.0682425 0.813963 0.644854
v 0.254022 0.815355 0.637926
v 0.107013 0.788346 0.691944
v 0.227013 0.788346 0.691944
v 0.199611 0.782143 0.742829
v 0.134022 0.815355 0.637926
f 1 2 3
f 2 4 5
f 3 5 6
f 2 5 3
f 4 7 8
f 7 9 10
f 8 10 11
f 7 10 8
f 6 12 13
f 12 11 14
f 13 14 15
f 12 14 13
f 4 8 5
f 8 11 12
f 5 12 6
f 8 12 5
f 1 3 16
f 3 6 17
f 16 17 18
f 3 17 16
f 6 13 19
f 13 15 20
f 19 20 21
f 13 20 19
f 18 22 23
f 22 21 24
f 23 24 25
f 22 24 23
f 6 19 17
f 19 21 22
f 17 22 18
f 19 22 17
f 1 16 26
f 16 18 27
f 26 27 28
f 16 27 26
f 18 23 29
f 30 31 32
f 33 32 34
f 30 32 33
f 35 36 37
f 36 34 38
f 37 38 39
f 36 38 37
f 18 29 27
f 33 34 36
f 27 40 28
f 29 40 27
f 1 26 41
f 26 28 42
f 41 42 43
f 26 42 41
f 35 37 44
f 37 39 45
f 44 45 46
f 37 45 44
f 43 47 48
f 49 46 50
f 48 51 52
f 47 51 48
f 28 53 42
f 44 46 49
f 42 47 43
f 53 47 42
f 1 41 2
f 41 43 54
f 2 54 4
f 41 54 2
f 43 48 55
f 48 52 56
f 55 56 57
f 48 56 55
f 4 58 7
f 58 57 59
f 7 59 9
f 58 59 7
f 43 55 54
f 55 57 58
f 54 58 4
f 55 58 54
f 9 60 10
f 60 61 62
f 10 62 11
f 60 62 10
f 61 63 64
f 63 65 66
f 64 66 67
f 63 66 64
f 11 68 14
f 68 67 69
f 14 69 15
f 68 69 14
f 61 64 62
f 64 67 68
f 62 68 11
f 64 68 62
f 15 69 70
f 69 67 71
f 70 71 72
f 69 71 70
f 67 66 73
f 66 65 74
f 73 74 75
f 66 74 73
f 72 76 77
f 76 75 78
f 77 78 79
f 76 78 77
f 67 73 71
f 73 75 76
f 71 76 72
f 73 76 71
f 15 70 20
f 70 72 80
f 20 80 21
f 70 80 20
f 72 77 81
f 82 83 84
f 81 85 86
f 77 85 81
f 21 87 24
f 87 86 88
f 24 88 25
f 87 88 24
f 72 81 80
f 81 86 87
f 80 87 21
f 81 87 80
f 31 89 90
f 89 91 92
f 90 92 93
f 89 92 90
f 91 84 94
f 84 83 95
f 94 95 96
f 84 95 94
f 93 97 98
f 97 96 99
f 98 99 100
f 97 99 98
f 91 94 92
f 94 96 97
f 92 97 93
f 94 97 92
f 31 90 32
f 90 93 101
f 32 101 34
f 90 101 32
f 93 98 102
f 98 100 103
f 102 103 104
f 98 103 102
f 34 105 38
f 105 104 106
f 38 106 39
f 105 106 38
f 93 102 101
f 102 104 105
f 101 105 34
f 102 105 101
f 39 106 107
f 106 104 108
f 107 108 109
f 106 108 107
f 104 103 110
f 103 100 111
f 110 111 112
f 103 111 110
f 109 113 114
f 113 112 115
f 114 115 116
f 113 115 114
f 104 110 108
f 110 112 113
f 108 113 109
f 110 113 108
f 39 107 45
f 107 109 117
f 45 117 46
f 107 117 45
f 109 114 118
f 114 116 119
f 118 119 120
f 114 119 118
f 46 121 50
f 121 120 122
f 50 122 123
f 121 122 50
f 109 118 117
f 118 120 121
f 117 121 46
f 118 121 117
f 52 124 125
f 122 120 126
f 127 126 128
f 122 126 127
f 120 119 129
f 119 116 130
f 129 130 131
f 119 130 129
f 128 132 133
f 132 131 134
f 133 134 135
f 132 134 133
f 120 129 126
f 129 131 132
f 126 132 128
f 129 132 126
f 52 125 56
f 125 136 137
f 56 137 57
f 125 137 56
f 136 138 139
f 138 140 141
f 139 141 142
f 138 141 139
f 57 143 59
f 143 142 144
f 59 144 9
f 143 144 59
f 136 139 137
f 139 142 143
f 137 143 57
f 139 143 137
f 9 144 60
f 144 142 145
f 60 145 61
f 144 145 60
f 142 141 146
f 141 140 147
f 146 147 148
f 141 147 146
f 61 149 63
f 149 148 150
f 63 150 65
f 149 150 63
f 142 146 145
f 146 148 149
f 145 149 61
f 146 149 145
f 151 152 153
f 152 154 155
f 153 155 156
f 152 155 153
f 154 157 158
f 157 83 159
f 160 78 75
f 157 159 158
f 161 162 163
f 162 75 74
f 163 74 65
f 162 74 163
f 154 158 155
f 160 75 162
f 155 164 156
f 158 164 155
f 151 165 152
f 165 166 167
f 152 167 154
f 165 167 152
f 166 168 169
f 168 100 99
f 169 99 96
f 168 99 169
f 154 170 157
f 170 96 95
f 157 95 83
f 170 95 157
f 166 169 167
f 169 96 170
f 167 170 154
f 169 170 167
f 151 171 165
f 171 172 173
f 165 173 166
f 171 173 165
f 172 174 175
f 174 116 115
f 175 115 112
f 174 115 175
f 166 176 168
f 176 112 111
f 168 111 100
f 176 111 168
f 172 175 173
f 175 112 176
f 173 176 166
f 175 176 173
f 151 177 171
f 177 178 179
f 171 179 172
f 177 179 171
f 178 180 181
f 180 135 134
f 181 134 131
f 180 134 181
f 172 182 174
f 182 131 130
f 174 130 116
f 182 130 174
f 178 181 179
f 181 131 182
f 179 182 172
f 181 182 179
f 151 153 177
f 153 156 183
f 177 183 178
f 153 183 177
f 161 163 184
f 163 65 150
f 184 150 148
f 163 150 184
f 178 185 180
f 186 148 147
f 187 147 140
f 186 147 187
f 156 188 183
f 184 148 186
f 183 185 178
f 188 185 183
f 25 31 23
f 23 31 30
f 23 30 29
f 29 30 33
f 40 36 28
f 28 36 35
f 29 33 40
f 40 33 36
f 51 50 52
f 52 50 123
f 47 49 51
f 51 49 50
f 28 35 53
f 53 35 44
f 53 44 47
f 47 44 49
f 78 159 79
f 79 159 83
f 79 83 77
f 77 83 82
f 85 84 86
f 86 84 91
f 77 82 85
f 85 82 84
f 86 91 88
f 88 91 89
f 88 89 25
f 25 89 31
f 52 123 124
f 124 123 122
f 124 122 125
f 125 122 127
f 125 127 136
f 136 127 128
f 136 128 138
f 138 128 133
f 138 133 140
f 140 133 135
f 160 158 78
f 78 158 159
f 161 156 162
f 162 156 164
f 162 164 160
f 160 164 158
f 184 188 161
f 161 188 156
f 140 135 187
f 187 135 180
f 187 180 186
f 186 180 185
f 186 185 184
f 184 185 188
