v 0.226557 1.10106 0.867557
v 0.261427 1.05724 0.863083
v 0.255844 1.10603 0.819876
v 0.284693 1.0078 0.85
v 0.288089 1.0584 0.811445
v 0.273953 1.10167 0.766875
v 0.294586 0.956523 0.829305
v 0.307802 0.998528 0.791364
v 0.29035 0.907294 0.802573
v 0.308493 0.946114 0.766244
v 0.31145 0.98778 0.728678
v 0.302155 1.04788 0.747662
v 0.279505 1.08832 0.712589
v 0.298996 1.02912 0.692735
v 0.272078 1.06699 0.661152
v 0.203604 1.14176 0.836379
v 0.229604 1.1439 0.784436
v 0.17345 1.17042 0.798626
v 0.243671 1.13337 0.720653
v 0.241173 1.11365 0.666032
v 0.200207 1.1504 0.677304
v 0.190833 1.16951 0.737345
v 0.138389 1.18485 0.757171
v 0.152297 1.17444 0.69411
v 0.101092 1.18396 0.71517
v 0.176901 1.11506 0.889786
v 0.149758 1.15303 0.855146
v 0.122076 1.11905 0.901374
v 0.110987 1.17865 0.808056
v 0.0733535 1.18348 0.76402
v 0.0483289 1.16778 0.811804
v 0.0839776 1.15164 0.862074
v 0.0662551 1.11272 0.901439
v 0.0279228 1.13805 0.854882
v 0.0136885 1.09655 0.889977
v 0.212637 1.06282 0.90629
v 0.158894 1.07319 0.925857
v 0.190828 1.01854 0.933125
v 0.0931137 1.07179 0.932785
v 0.0369556 1.0591 0.924793
v 0.0657069 1.0159 0.946303
v 0.129259 1.01896 0.949478
v 0.16279 0.971603 0.946021
v 0.0977538 0.970227 0.95287
v 0.130657 0.925566 0.943995
v 0.244387 1.0147 0.898848
v 0.214752 0.960473 0.922468
v 0.18228 0.912405 0.926167
v 0.228325 0.904655 0.894929
v 0.2641 0.954827 0.878767
v 0.265286 0.902907 0.852658
v 0.287789 0.886066 0.750623
v 0.271618 0.872255 0.698626
v 0.300928 0.927265 0.711781
v 0.243068 0.866912 0.650539
v 0.27434 0.915878 0.65228
v 0.204312 0.870444 0.610024
v 0.237485 0.915701 0.607332
v 0.260878 0.96612 0.6155
v 0.295281 0.976613 0.66808
v 0.272709 1.01786 0.633907
v 0.236973 1.0701 0.617404
v 0.232548 1.01806 0.591886
v 0.192125 1.06662 0.583749
v 0.211607 0.957328 0.576087
v 0.181045 0.907893 0.575208
v 0.152293 0.951098 0.553697
v 0.175462 1.01017 0.559394
v 0.14095 1.05682 0.56275
v 0.120246 0.996769 0.54713
v 0.0873432 1.04143 0.556006
v 0.200652 1.11494 0.624378
v 0.143566 1.10705 0.591886
v 0.0887104 1.09255 0.579254
v 0.0916221 1.13538 0.6155
v 0.147814 1.15109 0.641071
v 0.0958566 1.16664 0.661985
v 0.0470668 1.17222 0.705192
v 0.0413797 1.14884 0.65228
v -0.00224348 1.14612 0.698626
v 0.0371312 1.1048 0.603096
v 0.0357201 1.05459 0.573833
v -0.0103246 1.06234 0.605071
v -0.0122168 1.11044 0.646797
v -0.0430856 1.10763 0.69597
v -0.047286 1.06409 0.647342
v -0.0723504 1.0597 0.697427
v 0.0186192 1.16587 0.755483
v -0.0349774 1.12748 0.75
v -0.0697891 1.08093 0.749377
v -0.0536178 1.09474 0.801374
v -0.00838992 1.13886 0.809501
v -0.0250675 1.10008 0.849461
v -0.0194849 1.05129 0.892668
v -0.05634 1.05112 0.84772
v -0.0428776 1.00088 0.8845
v -0.0829275 1.03973 0.788219
v -0.0904933 1.02088 0.733756
v -0.09345 0.979216 0.771322
v -0.0772811 0.990383 0.83192
v -0.0547089 0.949134 0.866093
v -0.0809956 0.937876 0.807265
v -0.0540782 0.900009 0.838848
v 0.00639266 1.00967 0.923913
v -0.0145484 0.948933 0.908114
v -0.0189726 0.896894 0.882596
v 0.0258746 0.900373 0.916251
v 0.0425379 0.95683 0.940606
v 0.0770497 0.910179 0.93725
v 0.12929 0.874443 0.920746
v 0.0744346 0.85995 0.908114
v 0.126378 0.83162 0.8845
v 0.0173483 0.852052 0.875622
v -0.0231731 0.85335 0.833968
v 0.0177935 0.816598 0.822696
v 0.0701861 0.815907 0.85893
v 0.122143 0.80036 0.838015
v 0.065703 0.792552 0.805891
v 0.116908 0.78304 0.78483
v 0.180869 0.862201 0.896904
v 0.17662 0.818158 0.84772
v 0.170933 0.794777 0.794808
v 0.220244 0.82088 0.801374
v 0.230217 0.856555 0.853203
v 0.261086 0.859362 0.80403
v 0.252977 0.839521 0.75
v 0.199381 0.801124 0.744517
v 0.144647 0.783519 0.73598
v 0.169671 0.79922 0.688197
v 0.22639 0.828133 0.690499
v 0.190077 0.82895 0.645118
v -0.00855704 0.865941 0.632443
v 0.00536297 0.904177 0.59371
v 0.0410993 0.851937 0.610214
v 0.0271721 0.948451 0.566875
v 0.0591063 0.89381 0.574143
v 0.0959244 0.847948 0.598626
v 0.0552104 0.995394 0.553979
v 0.0887411 0.948039 0.550523
v 0.124886 0.895201 0.567215
v 0.151745 0.854277 0.598561
v -0.0434268 0.90976 0.636917
v -0.0666934 0.959192 0.65
v -0.0263869 0.952294 0.601152
v -0.0765856 1.01047 0.670695
v -0.0461002 1.01217 0.621233
v 0.00324788 1.00652 0.577532
v -0.0378443 0.86097 0.680125
v -0.0559532 0.865326 0.733126
v -0.0700885 0.908593 0.688555
v -0.0615054 0.878678 0.787411
v -0.0841554 0.91912 0.752338
v -0.0898018 0.968468 0.708637
v 0.0143958 0.825234 0.663621
v 0.0445501 0.796574 0.701374
v -0.0116044 0.823099 0.715565
v 0.0796106 0.782143 0.742829
v 0.0271666 0.797482 0.762655
v -0.0256712 0.833627 0.779347
v 0.0682425 0.813963 0.644854
v 0.134022 0.815355 0.637926
v 0.107013 0.788346 0.691944
f 1 2 3
f 2 4 5
f 3 5 6
f 2 5 3
f 4 7 8
f 7 9 10
f 8 10 11
f 7 10 8
f 6 12 13
f 12 11 14
f 13 14 15
f 12 14 13
f 4 8 5
f 8 11 12
f 5 12 6
f 8 12 5
f 1 3 16
f 3 6 17
f 16 17 18
f 3 17 16
f 6 13 19
f 13 15 20
f 19 20 21
f 13 20 19
f 18 22 23
f 22 21 24
f 23 24 25
f 22 24 23
f 6 19 17
f 19 21 22
f 17 22 18
f 19 22 17
f 1 16 26
f 16 18 27
f 26 27 28
f 16 27 26
f 18 23 29
f 23 25 30
f 29 30 31
f 23 30 29
f 28 32 33
f 32 31 34
f 33 34 35
f 32 34 33
f 18 29 27
f 29 31 32
f 27 32 28
f 29 32 27
f 1 26 36
f 26 28 37
f 36 37 38
f 26 37 36
f 28 33 39
f 33 35 40
f 39 40 41
f 33 40 39
f 38 42 43
f 42 41 44
f 43 44 45
f 42 44 43
f 28 39 37
f 39 41 42
f 37 42 38
f 39 42 37
f 1 36 2
f 36 38 46
f 2 46 4
f 36 46 2
f 38 43 47
f 43 45 48
f 47 48 49
f 43 48 47
f 4 50 7
f 50 49 51
f 7 51 9
f 50 51 7
f 38 47 46
f 47 49 50
f 46 50 4
f 47 50 46
f 9 52 10
f 52 53 54
f 10 54 11
f 52 54 10
f 53 55 56
f 55 57 58
f 56 58 59
f 55 58 56
f 11 60 14
f 60 59 61
f 14 61 15
f 60 61 14
f 53 56 54
f 56 59 60
f 54 60 11
f 56 60 54
f 15 61 62
f 61 59 63
f 62 63 64
f 61 63 62
f 59 58 65
f 58 57 66
f 65 66 67
f 58 66 65
f 64 68 69
f 68 67 70
f 69 70 71
f 68 70 69
f 59 65 63
f 65 67 68
f 63 68 64
f 65 68 63
f 15 62 20
f 62 64 72
f 20 72 21
f 62 72 20
f 64 69 73
f 69 71 74
f 73 74 75
f 69 74 73
f 21 76 24
f 76 75 77
f 24 77 25
f 76 77 24
f 64 73 72
f 73 75 76
f 72 76 21
f 73 76 72
f 25 77 78
f 77 75 79
f 78 79 80
f 77 79 78
f 75 74 81
f 74 71 82
f 81 82 83
f 74 82 81
f 80 84 85
f 84 83 86
f 85 86 87
f 84 86 85
f 75 81 79
f 81 83 84
f 79 84 80
f 81 84 79
f 25 78 30
f 78 80 88
f 30 88 31
f 78 88 30
f 80 85 89
f 85 87 90
f 89 90 91
f 85 90 89
f 31 92 34
f 92 91 93
f 34 93 35
f 92 93 34
f 80 89 88
f 89 91 92
f 88 92 31
f 89 92 88
f 35 93 94
f 93 91 95
f 94 95 96
f 93 95 94
f 91 90 97
f 90 87 98
f 97 98 99
f 90 98 97
f 96 100 101
f 100 99 102
f 101 102 103
f 100 102 101
f 91 97 95
f 97 99 100
f 95 100 96
f 97 100 95
f 35 94 40
f 94 96 104
f 40 104 41
f 94 104 40
f 96 101 105
f 101 103 106
f 105 106 107
f 101 106 105
f 41 108 44
f 108 107 109
f 44 109 45
f 108 109 44
f 96 105 104
f 105 107 108
f 104 108 41
f 105 108 104
f 45 109 110
f 109 107 111
f 110 111 112
f 109 111 110
f 107 106 113
f 106 103 114
f 113 114 115
f 106 114 113
f 112 116 117
f 116 115 118
f 117 118 119
f 116 118 117
f 107 113 111
f 113 115 116
f 111 116 112
f 113 116 111
f 45 110 48
f 110 112 120
f 48 120 49
f 110 120 48
f 112 117 121
f 117 119 122
f 121 122 123
f 117 122 121
f 49 124 51
f 124 123 125
f 51 125 9
f 124 125 51
f 112 121 120
f 121 123 124
f 120 124 49
f 121 124 120
f 9 125 52
f 125 123 126
f 52 126 53
f 125 126 52
f 123 122 127
f 122 119 128
f 127 128 129
f 122 128 127
f 53 130 55
f 130 129 131
f 55 131 57
f 130 131 55
f 123 127 126
f 127 129 130
f 126 130 53
f 127 130 126
f 132 133 134
f 133 135 136
f 134 136 137
f 133 136 134
f 135 138 139
f 138 71 70
f 139 70 67
f 138 70 139
f 137 140 141
f 140 67 66
f 141 66 57
f 140 66 141
f 135 139 136
f 139 67 140
f 136 140 137
f 139 140 136
f 132 142 133
f 142 143 144
f 133 144 135
f 142 144 133
f 143 145 146
f 145 87 86
f 146 86 83
f 145 86 146
f 135 147 138
f 147 83 82
f 138 82 71
f 147 82 138
f 143 146 144
f 146 83 147
f 144 147 135
f 146 147 144
f 132 148 142
f 148 149 150
f 142 150 143
f 148 150 142
f 149 151 152
f 151 103 102
f 152 102 99
f 151 102 152
f 143 153 145
f 153 99 98
f 145 98 87
f 153 98 145
f 149 152 150
f 152 99 153
f 150 153 143
f 152 153 150
f 132 154 148
f 154 155 156
f 148 156 149
f 154 156 148
f 155 157 158
f 157 119 118
f 158 118 115
f 157 118 158
f 149 159 151
f 159 115 114
f 151 114 103
f 159 114 151
f 155 158 156
f 158 115 159
f 156 159 149
f 158 159 156
f 132 134 154
f 134 137 160
f 154 160 155
f 134 160 154
f 137 141 161
f 141 57 131
f 161 131 129
f 141 131 161
f 155 162 157
f 162 129 128
f 157 128 119
f 162 128 157
f 137 161 160
f 161 129 162
f 160 162 155
f 161 162 160
