v 0.226557 1.10106 0.867557
v 0.261427 1.05724 0.863083
v 0.255844 1.10603 0.819876
v 0.284693 1.0078 0.85
v 0.288089 1.0584 0.811445
v 0.273953 1.10167 0.766875
v 0.294586 0.956523 0.829305
v 0.307802 0.998528 0.791364
v 0.29035 0.907294 0.802573
v 0.308493 0.946114 0.766244
v 0.31145 0.98778 0.728678
v 0.273953 1.13005 0.686875
v 0.302155 1.07625 0.667662
v 0.279505 1.11669 0.632589
v 0.31145 1.01616 0.648678
v 0.298996 1.0575 0.612735
v 0.272078 1.09536 0.581152
v 0.307802 1.0269 0.711364
v 0.288089 1.08678 0.731445
v 0.302155 1.04788 0.747662
v 0.203604 1.14176 0.836379
v 0.255844 1.1344 0.739875
v 0.229604 1.17227 0.704436
v 0.203604 1.17014 0.756379
v 0.17345 1.1988 0.718626
v 0.229604 1.1439 0.784436
v 0.243671 1.16174 0.640653
v 0.241173 1.14202 0.586032
v 0.200207 1.17877 0.597304
v 0.190833 1.19789 0.657345
v 0.138389 1.21323 0.677171
v 0.152297 1.20282 0.61411
v 0.101092 1.21233 0.63517
v 0.176901 1.11506 0.889786
v 0.17345 1.17042 0.798626
v 0.149758 1.15303 0.855146
v 0.122076 1.11905 0.901374
v 0.110987 1.20703 0.728056
v 0.0733535 1.21185 0.68402
v 0.0483289 1.19615 0.731803
v 0.0839776 1.15164 0.862074
v 0.0662551 1.11272 0.901439
v 0.0483289 1.16778 0.811804
v 0.0279228 1.13805 0.854882
v 0.0136885 1.09655 0.889977
v 0.110987 1.17865 0.808056
v 0.212637 1.06282 0.90629
v 0.158894 1.07319 0.925857
v 0.190828 1.01854 0.933125
v 0.0931137 1.07179 0.932785
v 0.0369556 1.0591 0.924793
v 0.0657069 1.0159 0.946303
v 0.129259 1.01896 0.949478
v 0.16279 0.971603 0.946021
v 0.0977538 0.970227 0.95287
v 0.130657 0.925566 0.943995
v 0.244387 1.0147 0.898848
v 0.214752 0.960473 0.922468
v 0.18228 0.912405 0.926167
v 0.228325 0.904655 0.894929
v 0.2641 0.954827 0.878767
v 0.265286 0.902907 0.852658
v 0.287789 0.886066 0.750623
v 0.287789 0.914441 0.670623
v 0.271618 0.90063 0.618626
v 0.300928 0.95564 0.631781
v 0.308493 0.974489 0.686244
v 0.300928 0.927265 0.711781
v 0.243068 0.895287 0.570539
v 0.27434 0.944253 0.57228
v 0.204312 0.898819 0.530024
v 0.237485 0.944077 0.527332
v 0.260878 0.994495 0.5355
v 0.295281 1.00499 0.58808
v 0.272709 1.04624 0.553907
v 0.236973 1.09848 0.537404
v 0.232548 1.04644 0.511886
v 0.192125 1.095 0.503749
v 0.211607 0.985703 0.496087
v 0.181045 0.936268 0.495207
v 0.152293 0.979473 0.473697
v 0.175462 1.03854 0.479394
v 0.14095 1.08519 0.48275
v 0.120246 1.02514 0.46713
v 0.0873432 1.06981 0.476006
v 0.200652 1.14332 0.544378
v 0.143566 1.13542 0.511886
v 0.0887104 1.12093 0.499254
v 0.0916221 1.16375 0.5355
v 0.147814 1.17946 0.561071
v 0.0958566 1.19501 0.581985
v 0.0470668 1.20059 0.625192
v 0.0413797 1.17721 0.57228
v -0.00224348 1.17449 0.618626
v 0.0371312 1.13317 0.523096
v 0.0357201 1.08297 0.493833
v -0.0103246 1.09072 0.525071
v -0.0122168 1.13882 0.566797
v -0.0430856 1.13601 0.61597
v -0.047286 1.09246 0.567342
v -0.0723504 1.08808 0.617427
v 0.0186192 1.19425 0.675483
v -0.0349774 1.15585 0.67
v -0.0697891 1.10931 0.669377
v -0.0536178 1.12312 0.721374
v -0.00838992 1.13886 0.809501
v -0.0536178 1.09474 0.801374
v -0.0250675 1.10008 0.849461
v -0.00838992 1.16724 0.729501
v -0.0194849 1.05129 0.892668
v -0.05634 1.05112 0.84772
v -0.0428776 1.00088 0.8845
v -0.0697891 1.08093 0.749377
v -0.0829275 1.03973 0.788219
v -0.0904933 1.04926 0.653756
v -0.0904933 1.02088 0.733756
v -0.09345 0.979216 0.771322
v -0.0829275 1.06811 0.708219
v -0.0772811 0.990383 0.83192
v -0.0547089 0.949134 0.866093
v -0.0809956 0.937876 0.807265
v -0.0540782 0.900009 0.838848
v 0.00639266 1.00967 0.923913
v -0.0145484 0.948933 0.908114
v -0.0189726 0.896894 0.882596
v 0.0258746 0.900373 0.916251
v 0.0425379 0.95683 0.940606
v 0.0770497 0.910179 0.93725
v 0.12929 0.874443 0.920746
v 0.0744346 0.85995 0.908114
v 0.126378 0.83162 0.8845
v 0.0173483 0.852052 0.875622
v -0.0231731 0.85335 0.833968
v 0.0177935 0.816598 0.822696
v 0.0701861 0.815907 0.85893
v 0.122143 0.80036 0.838015
v 0.065703 0.792552 0.805891
v 0.116908 0.78304 0.78483
v 0.180869 0.862201 0.896904
v 0.17662 0.818158 0.84772
v 0.170933 0.794777 0.794808
v 0.220244 0.82088 0.801374
v 0.230217 0.856555 0.853203
v 0.261086 0.859362 0.80403
v 0.252977 0.839521 0.75
v 0.271618 0.872255 0.698626
v 0.199381 0.801124 0.744517
v 0.144647 0.783519 0.73598
v 0.169671 0.79922 0.688197
v 0.22639 0.856508 0.610499
v 0.169671 0.827595 0.608197
v 0.190077 0.857325 0.565118
v 0.22639 0.828133 0.690499
v -0.00855704 0.894316 0.552443
v 0.00536297 0.932552 0.51371
v 0.0410993 0.880312 0.530214
v 0.0271721 0.976826 0.486875
v 0.0591063 0.922185 0.494143
v 0.0959244 0.876323 0.518626
v 0.0552104 1.02377 0.473979
v 0.0887411 0.976414 0.470523
v 0.124886 0.923577 0.487215
v 0.151745 0.882653 0.518561
v -0.0434268 0.938135 0.556917
v -0.0666934 0.987567 0.57
v -0.0263869 0.980669 0.521152
v -0.0765856 1.03885 0.590695
v -0.0461002 1.04054 0.541233
v 0.00324788 1.0349 0.497532
v -0.0378443 0.889345 0.600125
v -0.0559532 0.893701 0.653125
v -0.0700885 0.936968 0.608555
v -0.0559532 0.865326 0.733126
v -0.0615054 0.878678 0.787411
v -0.0841554 0.91912 0.752338
v -0.0898018 0.996843 0.628637
v -0.09345 1.00759 0.691322
v -0.0700885 0.908593 0.688555
v -0.0898018 0.968468 0.708637
v -0.0841554 0.947495 0.672338
v 0.0143958 0.853609 0.583621
v 0.0143958 0.825234 0.663621
v 0.0445501 0.796574 0.701374
v -0.0116044 0.823099 0.715565
v -0.0378443 0.86097 0.680125
v -0.0116044 0.851474 0.635565
v 0.0796106 0.782143 0.742829
v 0.0271666 0.797482 0.762655
v -0.0256712 0.833627 0.779347
v 0.0682425 0.842338 0.564854
v 0.0445501 0.824949 0.621374
v 0.134022 0.84373 0.557926
v 0.107013 0.788346 0.691944
v 0.107013 0.816721 0.611944
f 1 2 3
f 2 4 5
f 3 5 6
f 2 5 3
f 4 7 8
f 7 9 10
f 8 10 11
f 7 10 8
f 12 13 14
f 13 15 16
f 14 16 17
f 13 16 14
f 4 8 5
f 18 15 13
f 19 13 12
f 8 20 5
f 1 3 21
f 22 12 23
f 24 23 25
f 3 26 21
f 12 14 27
f 14 17 28
f 27 28 29
f 14 28 27
f 25 30 31
f 30 29 32
f 31 32 33
f 30 32 31
f 12 27 23
f 27 29 30
f 23 30 25
f 27 30 23
f 1 21 34
f 21 35 36
f 34 36 37
f 21 36 34
f 25 31 38
f 31 33 39
f 38 39 40
f 31 39 38
f 37 41 42
f 41 43 44
f 42 44 45
f 41 44 42
f 35 46 36
f 46 43 41
f 36 41 37
f 46 41 36
f 1 34 47
f 34 37 48
f 47 48 49
f 34 48 47
f 37 42 50
f 42 45 51
f 50 51 52
f 42 51 50
f 49 53 54
f 53 52 55
f 54 55 56
f 53 55 54
f 37 50 48
f 50 52 53
f 48 53 49
f 50 53 48
f 1 47 2
f 47 49 57
f 2 57 4
f 47 57 2
f 49 54 58
f 54 56 59
f 58 59 60
f 54 59 58
f 4 61 7
f 61 60 62
f 7 62 9
f 61 62 7
f 49 58 57
f 58 60 61
f 57 61 4
f 58 61 57
f 9 63 10
f 64 65 66
f 67 66 15
f 63 68 10
f 65 69 70
f 69 71 72
f 70 72 73
f 69 72 70
f 15 74 16
f 74 73 75
f 16 75 17
f 74 75 16
f 65 70 66
f 70 73 74
f 66 74 15
f 70 74 66
f 17 75 76
f 75 73 77
f 76 77 78
f 75 77 76
f 73 72 79
f 72 71 80
f 79 80 81
f 72 80 79
f 78 82 83
f 82 81 84
f 83 84 85
f 82 84 83
f 73 79 77
f 79 81 82
f 77 82 78
f 79 82 77
f 17 76 28
f 76 78 86
f 28 86 29
f 76 86 28
f 78 83 87
f 83 85 88
f 87 88 89
f 83 88 87
f 29 90 32
f 90 89 91
f 32 91 33
f 90 91 32
f 78 87 86
f 87 89 90
f 86 90 29
f 87 90 86
f 33 91 92
f 91 89 93
f 92 93 94
f 91 93 92
f 89 88 95
f 88 85 96
f 95 96 97
f 88 96 95
f 94 98 99
f 98 97 100
f 99 100 101
f 98 100 99
f 89 95 93
f 95 97 98
f 93 98 94
f 95 98 93
f 33 92 39
f 92 94 102
f 39 102 40
f 92 102 39
f 94 99 103
f 99 101 104
f 103 104 105
f 99 104 103
f 43 106 44
f 106 107 108
f 44 108 45
f 106 108 44
f 94 103 102
f 103 105 109
f 102 109 40
f 103 109 102
f 45 108 110
f 108 107 111
f 110 111 112
f 108 111 110
f 107 113 114
f 104 101 115
f 114 116 117
f 104 115 118
f 112 119 120
f 119 117 121
f 120 121 122
f 119 121 120
f 107 114 111
f 114 117 119
f 111 119 112
f 114 119 111
f 45 110 51
f 110 112 123
f 51 123 52
f 110 123 51
f 112 120 124
f 120 122 125
f 124 125 126
f 120 125 124
f 52 127 55
f 127 126 128
f 55 128 56
f 127 128 55
f 112 124 123
f 124 126 127
f 123 127 52
f 124 127 123
f 56 128 129
f 128 126 130
f 129 130 131
f 128 130 129
f 126 125 132
f 125 122 133
f 132 133 134
f 125 133 132
f 131 135 136
f 135 134 137
f 136 137 138
f 135 137 136
f 126 132 130
f 132 134 135
f 130 135 131
f 132 135 130
f 56 129 59
f 129 131 139
f 59 139 60
f 129 139 59
f 131 136 140
f 136 138 141
f 140 141 142
f 136 141 140
f 60 143 62
f 143 142 144
f 62 144 9
f 143 144 62
f 131 140 139
f 140 142 143
f 139 143 60
f 140 143 139
f 9 144 63
f 144 142 145
f 63 145 146
f 144 145 63
f 142 141 147
f 141 138 148
f 147 148 149
f 141 148 147
f 65 150 69
f 150 151 152
f 69 152 71
f 150 152 69
f 142 147 145
f 147 149 153
f 145 153 146
f 147 153 145
f 154 155 156
f 155 157 158
f 156 158 159
f 155 158 156
f 157 160 161
f 160 85 84
f 161 84 81
f 160 84 161
f 159 162 163
f 162 81 80
f 163 80 71
f 162 80 163
f 157 161 158
f 161 81 162
f 158 162 159
f 161 162 158
f 154 164 155
f 164 165 166
f 155 166 157
f 164 166 155
f 165 167 168
f 167 101 100
f 168 100 97
f 167 100 168
f 157 169 160
f 169 97 96
f 160 96 85
f 169 96 160
f 165 168 166
f 168 97 169
f 166 169 157
f 168 169 166
f 154 170 164
f 170 171 172
f 164 172 165
f 170 172 164
f 173 174 175
f 174 122 121
f 175 121 117
f 174 121 175
f 165 176 167
f 176 177 115
f 167 115 101
f 176 115 167
f 173 175 178
f 175 117 179
f 172 176 165
f 180 176 172
f 154 181 170
f 182 183 184
f 185 184 173
f 181 186 170
f 183 187 188
f 187 138 137
f 188 137 134
f 187 137 188
f 173 189 174
f 189 134 133
f 174 133 122
f 189 133 174
f 183 188 184
f 188 134 189
f 184 189 173
f 188 189 184
f 154 156 181
f 156 159 190
f 181 190 191
f 156 190 181
f 159 163 192
f 163 71 152
f 192 152 151
f 163 152 192
f 183 193 187
f 193 149 148
f 187 148 138
f 193 148 187
f 159 192 190
f 192 151 194
f 190 194 191
f 192 194 190
f 5 19 6
f 6 19 12
f 6 12 3
f 3 12 22
f 10 67 11
f 11 67 15
f 11 15 8
f 8 15 18
f 8 18 20
f 20 18 13
f 20 13 5
f 5 13 19
f 3 22 26
f 26 22 23
f 26 23 21
f 21 23 24
f 21 24 35
f 35 24 25
f 35 25 46
f 46 25 38
f 46 38 43
f 43 38 40
f 63 64 68
f 68 64 66
f 68 66 10
f 10 66 67
f 43 40 106
f 106 40 109
f 106 109 107
f 107 109 105
f 107 105 113
f 113 105 104
f 113 104 114
f 114 104 118
f 114 118 116
f 116 118 115
f 116 115 117
f 117 115 177
f 146 65 63
f 63 65 64
f 149 151 153
f 153 151 150
f 153 150 146
f 146 150 65
f 175 180 178
f 178 180 172
f 178 172 173
f 173 172 171
f 117 177 179
f 179 177 176
f 179 176 175
f 175 176 180
f 182 181 183
f 183 181 191
f 184 186 182
f 182 186 181
f 185 170 184
f 184 170 186
f 173 171 185
f 185 171 170
f 183 191 193
f 193 191 194
f 193 194 149
f 149 194 151
