v 0.226557 1.12943 0.787557
v 0.261427 1.08561 0.783083
v 0.255844 1.1344 0.739875
v 0.284693 1.03618 0.77
v 0.288089 1.08678 0.731445
v 0.273953 1.13005 0.686875
v 0.294586 0.984898 0.749305
v 0.307802 1.0269 0.711364
v 0.29035 0.935669 0.722573
v 0.308493 0.974489 0.686244
v 0.31145 1.01616 0.648678
v 0.273953 1.16742 0.526875
v 0.302155 1.11363 0.507662
v 0.279505 1.15407 0.472589
v 0.31145 1.05353 0.488678
v 0.298996 1.09487 0.452735
v 0.272078 1.13274 0.421152
v 0.307802 1.06428 0.551364
v 0.302155 1.07625 0.667662
v 0.203604 1.17014 0.756379
v 0.229604 1.17227 0.704436
v 0.17345 1.1988 0.718626
v 0.243671 1.19912 0.480653
v 0.241173 1.1794 0.426032
v 0.200207 1.21615 0.437304
v 0.17345 1.23617 0.558626
v 0.190833 1.23526 0.497345
v 0.138389 1.2506 0.517171
v 0.152297 1.24019 0.45411
v 0.101092 1.24971 0.47517
v 0.229604 1.20965 0.544436
v 0.176901 1.14343 0.809786
v 0.149758 1.18141 0.775146
v 0.122076 1.14742 0.821374
v 0.110987 1.2444 0.568056
v 0.0733535 1.24923 0.52402
v 0.110987 1.20703 0.728056
v 0.0733535 1.21185 0.68402
v 0.0483289 1.19615 0.731803
v 0.0839776 1.18002 0.782074
v 0.0662551 1.14109 0.821439
v 0.0279228 1.16642 0.774882
v 0.0136885 1.12493 0.809976
v 0.212637 1.09119 0.82629
v 0.158894 1.10156 0.845857
v 0.190828 1.04692 0.853125
v 0.0931137 1.10017 0.852785
v 0.0369556 1.08748 0.844793
v 0.0657069 1.04427 0.866303
v 0.129259 1.04733 0.869478
v 0.16279 0.999978 0.866021
v 0.0977538 0.998602 0.87287
v 0.130657 0.953941 0.863995
v 0.244387 1.04308 0.818848
v 0.214752 0.988848 0.842468
v 0.18228 0.94078 0.846167
v 0.228325 0.93303 0.814929
v 0.2641 0.983202 0.798767
v 0.265286 0.931282 0.772658
v 0.287789 0.914441 0.670623
v 0.287789 0.951815 0.510623
v 0.271618 0.938004 0.458626
v 0.300928 0.993015 0.471781
v 0.308493 1.01186 0.526244
v 0.300928 0.95564 0.631781
v 0.243068 0.932661 0.410539
v 0.27434 0.981627 0.41228
v 0.204312 0.936193 0.370024
v 0.237485 0.981451 0.367332
v 0.260878 1.03187 0.3755
v 0.295281 1.04236 0.42808
v 0.272709 1.08361 0.393907
v 0.236973 1.13585 0.377404
v 0.232548 1.08381 0.351886
v 0.192125 1.13237 0.343749
v 0.211607 1.02308 0.336087
v 0.181045 0.973642 0.335208
v 0.152293 1.01685 0.313697
v 0.175462 1.07592 0.319394
v 0.14095 1.12257 0.32275
v 0.120246 1.06252 0.30713
v 0.0873432 1.10718 0.316006
v 0.200652 1.18069 0.384378
v 0.143566 1.1728 0.351886
v 0.0887104 1.1583 0.339254
v 0.0916221 1.20113 0.3755
v 0.147814 1.21684 0.401071
v 0.0958566 1.23239 0.421985
v 0.0470668 1.23797 0.465192
v 0.0413797 1.21459 0.41228
v -0.00224348 1.21187 0.458626
v 0.0371312 1.17054 0.363096
v 0.0357201 1.12034 0.333833
v -0.0103246 1.12809 0.365071
v -0.0122168 1.17619 0.406797
v -0.0430856 1.17338 0.45597
v -0.047286 1.12984 0.407342
v -0.0723504 1.12545 0.457427
v 0.0186192 1.23162 0.515483
v 0.0483289 1.23353 0.571804
v -0.0349774 1.19322 0.51
v -0.0697891 1.14668 0.509377
v -0.0536178 1.16049 0.561374
v -0.00838992 1.16724 0.729501
v -0.0536178 1.12312 0.721374
v -0.0250675 1.12846 0.769461
v -0.0349774 1.15585 0.67
v 0.0186192 1.19425 0.675483
v -0.00838992 1.20461 0.569501
v -0.0194849 1.07967 0.812668
v -0.05634 1.07949 0.76772
v -0.0428776 1.02925 0.8045
v -0.0697891 1.10931 0.669377
v -0.0829275 1.06811 0.708219
v -0.0904933 1.08663 0.493756
v -0.0904933 1.04926 0.653756
v -0.09345 1.00759 0.691322
v -0.0829275 1.10548 0.548219
v -0.0772811 1.01876 0.75192
v -0.0547089 0.97751 0.786093
v -0.0809956 0.966251 0.727265
v -0.0540782 0.928384 0.758848
v 0.00639266 1.03804 0.843913
v -0.0145484 0.977308 0.828114
v -0.0189726 0.92527 0.802596
v 0.0258746 0.928748 0.836251
v 0.0425379 0.985205 0.860606
v 0.0770497 0.938554 0.85725
v 0.12929 0.902818 0.840746
v 0.0744346 0.888325 0.828114
v 0.126378 0.859996 0.8045
v 0.0173483 0.880427 0.795622
v -0.0231731 0.881725 0.753968
v 0.0177935 0.844973 0.742696
v 0.0701861 0.844282 0.778929
v 0.122143 0.828735 0.758015
v 0.065703 0.820927 0.725891
v 0.116908 0.811415 0.70483
v 0.180869 0.890576 0.816904
v 0.17662 0.846533 0.76772
v 0.170933 0.823152 0.714808
v 0.220244 0.849255 0.721374
v 0.230217 0.88493 0.773203
v 0.261086 0.887737 0.72403
v 0.252977 0.867896 0.67
v 0.271618 0.90063 0.618626
v 0.199381 0.829499 0.664517
v 0.144647 0.811894 0.65598
v 0.169671 0.827595 0.608197
v 0.22639 0.893883 0.450499
v 0.169671 0.86497 0.448197
v 0.190077 0.894699 0.405118
v 0.199381 0.866874 0.504517
v 0.252977 0.90527 0.51
v 0.22639 0.856508 0.610499
v -0.00855704 0.93169 0.392443
v 0.00536297 0.969927 0.35371
v 0.0410993 0.917687 0.370214
v 0.0271721 1.0142 0.326875
v 0.0591063 0.959559 0.334143
v 0.0959244 0.913697 0.358626
v 0.0552104 1.06114 0.313979
v 0.0887411 1.01379 0.310523
v 0.124886 0.960951 0.327215
v 0.151745 0.920027 0.358561
v -0.0434268 0.975509 0.396917
v -0.0666934 1.02494 0.41
v -0.0263869 1.01804 0.361152
v -0.0765856 1.07622 0.430695
v -0.0461002 1.07792 0.381233
v 0.00324788 1.07227 0.337532
v -0.0378443 0.926719 0.440125
v -0.0559532 0.931075 0.493125
v -0.0700885 0.974342 0.448555
v -0.0559532 0.893701 0.653125
v -0.0615054 0.907053 0.707411
v -0.0841554 0.947495 0.672338
v -0.0898018 1.03422 0.468637
v -0.09345 1.04497 0.531322
v -0.0841554 0.984869 0.512338
v -0.0898018 0.996843 0.628637
v 0.0143958 0.890983 0.423621
v 0.0445501 0.862323 0.461374
v -0.0116044 0.888849 0.475565
v 0.0445501 0.824949 0.621374
v 0.0796106 0.810518 0.662829
v 0.0271666 0.825857 0.682655
v -0.0256712 0.862002 0.699347
v -0.0116044 0.851474 0.635565
v 0.0682425 0.879713 0.404854
v 0.134022 0.881104 0.397926
v 0.107013 0.816721 0.611944
v 0.107013 0.854095 0.451944
v 0.144647 0.849268 0.49598
f 1 2 3
f 2 4 5
f 3 5 6
f 2 5 3
f 4 7 8
f 7 9 10
f 8 10 11
f 7 10 8
f 12 13 14
f 13 15 16
f 14 16 17
f 13 16 14
f 4 8 5
f 18 15 13
f 5 19 6
f 8 19 5
f 1 3 20
f 3 6 21
f 20 21 22
f 3 21 20
f 12 14 23
f 14 17 24
f 23 24 25
f 14 24 23
f 26 27 28
f 27 25 29
f 28 29 30
f 27 29 28
f 12 23 31
f 23 25 27
f 31 27 26
f 23 27 31
f 1 20 32
f 20 22 33
f 32 33 34
f 20 33 32
f 26 28 35
f 28 30 36
f 37 38 39
f 28 36 35
f 34 40 41
f 40 39 42
f 41 42 43
f 40 42 41
f 22 37 33
f 37 39 40
f 33 40 34
f 37 40 33
f 1 32 44
f 32 34 45
f 44 45 46
f 32 45 44
f 34 41 47
f 41 43 48
f 47 48 49
f 41 48 47
f 46 50 51
f 50 49 52
f 51 52 53
f 50 52 51
f 34 47 45
f 47 49 50
f 45 50 46
f 47 50 45
f 1 44 2
f 44 46 54
f 2 54 4
f 44 54 2
f 46 51 55
f 51 53 56
f 55 56 57
f 51 56 55
f 4 58 7
f 58 57 59
f 7 59 9
f 58 59 7
f 46 55 54
f 55 57 58
f 54 58 4
f 55 58 54
f 9 60 10
f 61 62 63
f 64 63 15
f 60 65 10
f 62 66 67
f 66 68 69
f 67 69 70
f 66 69 67
f 15 71 16
f 71 70 72
f 16 72 17
f 71 72 16
f 62 67 63
f 67 70 71
f 63 71 15
f 67 71 63
f 17 72 73
f 72 70 74
f 73 74 75
f 72 74 73
f 70 69 76
f 69 68 77
f 76 77 78
f 69 77 76
f 75 79 80
f 79 78 81
f 80 81 82
f 79 81 80
f 70 76 74
f 76 78 79
f 74 79 75
f 76 79 74
f 17 73 24
f 73 75 83
f 24 83 25
f 73 83 24
f 75 80 84
f 80 82 85
f 84 85 86
f 80 85 84
f 25 87 29
f 87 86 88
f 29 88 30
f 87 88 29
f 75 84 83
f 84 86 87
f 83 87 25
f 84 87 83
f 30 88 89
f 88 86 90
f 89 90 91
f 88 90 89
f 86 85 92
f 85 82 93
f 92 93 94
f 85 93 92
f 91 95 96
f 95 94 97
f 96 97 98
f 95 97 96
f 86 92 90
f 92 94 95
f 90 95 91
f 92 95 90
f 30 89 36
f 89 91 99
f 36 99 100
f 89 99 36
f 91 96 101
f 96 98 102
f 101 102 103
f 96 102 101
f 39 104 42
f 104 105 106
f 42 106 43
f 104 106 42
f 91 101 99
f 107 105 104
f 108 104 39
f 101 109 99
f 43 106 110
f 106 105 111
f 110 111 112
f 106 111 110
f 105 113 114
f 102 98 115
f 114 116 117
f 102 115 118
f 112 119 120
f 119 117 121
f 120 121 122
f 119 121 120
f 105 114 111
f 114 117 119
f 111 119 112
f 114 119 111
f 43 110 48
f 110 112 123
f 48 123 49
f 110 123 48
f 112 120 124
f 120 122 125
f 124 125 126
f 120 125 124
f 49 127 52
f 127 126 128
f 52 128 53
f 127 128 52
f 112 124 123
f 124 126 127
f 123 127 49
f 124 127 123
f 53 128 129
f 128 126 130
f 129 130 131
f 128 130 129
f 126 125 132
f 125 122 133
f 132 133 134
f 125 133 132
f 131 135 136
f 135 134 137
f 136 137 138
f 135 137 136
f 126 132 130
f 132 134 135
f 130 135 131
f 132 135 130
f 53 129 56
f 129 131 139
f 56 139 57
f 129 139 56
f 131 136 140
f 136 138 141
f 140 141 142
f 136 141 140
f 57 143 59
f 143 142 144
f 59 144 9
f 143 144 59
f 131 140 139
f 140 142 143
f 139 143 57
f 140 143 139
f 9 144 60
f 144 142 145
f 60 145 146
f 144 145 60
f 142 141 147
f 141 138 148
f 147 148 149
f 141 148 147
f 62 150 66
f 150 151 152
f 66 152 68
f 150 152 66
f 142 147 145
f 153 151 150
f 154 150 62
f 147 155 145
f 156 157 158
f 157 159 160
f 158 160 161
f 157 160 158
f 159 162 163
f 162 82 81
f 163 81 78
f 162 81 163
f 161 164 165
f 164 78 77
f 165 77 68
f 164 77 165
f 159 163 160
f 163 78 164
f 160 164 161
f 163 164 160
f 156 166 157
f 166 167 168
f 157 168 159
f 166 168 157
f 167 169 170
f 169 98 97
f 170 97 94
f 169 97 170
f 159 171 162
f 171 94 93
f 162 93 82
f 171 93 162
f 167 170 168
f 170 94 171
f 168 171 159
f 170 171 168
f 156 172 166
f 172 173 174
f 166 174 167
f 172 174 166
f 175 176 177
f 176 122 121
f 177 121 117
f 176 121 177
f 167 178 169
f 178 179 115
f 169 115 98
f 178 115 169
f 173 180 174
f 177 117 181
f 174 178 167
f 180 178 174
f 156 182 172
f 182 183 184
f 172 184 173
f 182 184 172
f 185 186 187
f 186 138 137
f 187 137 134
f 186 137 187
f 175 188 176
f 188 134 133
f 176 133 122
f 188 133 176
f 185 187 189
f 187 134 188
f 189 188 175
f 187 188 189
f 156 158 182
f 158 161 190
f 182 190 183
f 158 190 182
f 161 165 191
f 165 68 152
f 191 152 151
f 165 152 191
f 185 192 186
f 193 151 194
f 186 148 138
f 192 148 186
f 161 191 190
f 191 151 193
f 190 193 183
f 191 193 190
f 10 64 11
f 11 64 15
f 11 15 8
f 8 15 18
f 19 13 6
f 6 13 12
f 8 18 19
f 19 18 13
f 6 12 21
f 21 12 31
f 21 31 22
f 22 31 26
f 37 35 38
f 38 35 36
f 38 36 39
f 39 36 100
f 22 26 37
f 37 26 35
f 60 61 65
f 65 61 63
f 65 63 10
f 10 63 64
f 107 101 105
f 105 101 103
f 104 109 107
f 107 109 101
f 108 99 104
f 104 99 109
f 39 100 108
f 108 100 99
f 105 103 113
f 113 103 102
f 113 102 114
f 114 102 118
f 114 118 116
f 116 118 115
f 116 115 117
f 117 115 179
f 145 154 146
f 146 154 62
f 146 62 60
f 60 62 61
f 148 194 149
f 149 194 151
f 149 151 147
f 147 151 153
f 147 153 155
f 155 153 150
f 155 150 145
f 145 150 154
f 177 180 175
f 175 180 173
f 117 179 181
f 181 179 178
f 181 178 177
f 177 178 180
f 189 184 185
f 185 184 183
f 175 173 189
f 189 173 184
f 185 183 192
f 192 183 193
f 192 193 148
f 148 193 194
