v 0.226557 1.1668 0.627557
v 0.261427 1.12299 0.623083
v 0.255844 1.17178 0.579876
v 0.284693 1.07355 0.61
v 0.288089 1.12415 0.571445
v 0.273953 1.16742 0.526875
v 0.294586 1.02227 0.589305
v 0.307802 1.06428 0.551364
v 0.29035 0.973043 0.562573
v 0.308493 1.01186 0.526244
v 0.31145 1.05353 0.488678
v 0.273953 1.18277 0.406875
v 0.302155 1.12897 0.387662
v 0.279505 1.16942 0.352589
v 0.31145 1.06888 0.368678
v 0.298996 1.11022 0.332735
v 0.272078 1.14809 0.301152
v 0.302155 1.11363 0.507662
v 0.203604 1.20751 0.596379
v 0.229604 1.20965 0.544436
v 0.17345 1.23617 0.558626
v 0.243671 1.21447 0.360653
v 0.241173 1.19475 0.306032
v 0.200207 1.2315 0.317304
v 0.17345 1.25152 0.438626
v 0.190833 1.25061 0.377345
v 0.138389 1.26595 0.397171
v 0.152297 1.25554 0.33411
v 0.101092 1.26505 0.35517
v 0.229604 1.225 0.424436
v 0.190833 1.23526 0.497345
v 0.176901 1.18081 0.649786
v 0.149758 1.21878 0.615146
v 0.122076 1.1848 0.661374
v 0.138389 1.2506 0.517171
v 0.110987 1.2444 0.568056
v 0.0733535 1.26458 0.40402
v 0.0733535 1.24923 0.52402
v 0.0483289 1.23353 0.571804
v 0.110987 1.25975 0.448056
v 0.0839776 1.21739 0.622074
v 0.0662551 1.17847 0.661439
v 0.0279228 1.2038 0.614882
v 0.0136885 1.1623 0.649976
v 0.212637 1.12857 0.66629
v 0.158894 1.13894 0.685857
v 0.190828 1.08429 0.693125
v 0.0931137 1.13754 0.692785
v 0.0369556 1.12485 0.684793
v 0.0657069 1.08165 0.706303
v 0.129259 1.08471 0.709478
v 0.16279 1.03735 0.706021
v 0.0977538 1.03598 0.71287
v 0.130657 0.991316 0.703995
v 0.244387 1.08045 0.658848
v 0.214752 1.02622 0.682468
v 0.18228 0.978154 0.686167
v 0.228325 0.970404 0.654929
v 0.2641 1.02058 0.638767
v 0.265286 0.968656 0.612658
v 0.287789 0.951815 0.510623
v 0.287789 0.967165 0.390623
v 0.271618 0.953353 0.338626
v 0.300928 1.00836 0.351781
v 0.308493 1.02721 0.406244
v 0.300928 0.993015 0.471781
v 0.243068 0.94801 0.290539
v 0.27434 0.996977 0.29228
v 0.204312 0.951542 0.250024
v 0.237485 0.9968 0.247332
v 0.260878 1.04722 0.2555
v 0.295281 1.05771 0.30808
v 0.272709 1.09896 0.273907
v 0.236973 1.1512 0.257404
v 0.232548 1.09916 0.231886
v 0.192125 1.14772 0.223749
v 0.211607 1.03843 0.216087
v 0.181045 0.988992 0.215208
v 0.152293 1.0322 0.193697
v 0.175462 1.09126 0.199394
v 0.14095 1.13792 0.20275
v 0.120246 1.07787 0.18713
v 0.0873432 1.12253 0.196006
v 0.200652 1.19604 0.264378
v 0.143566 1.18815 0.231886
v 0.0887104 1.17365 0.219254
v 0.0916221 1.21647 0.2555
v 0.147814 1.23219 0.281071
v 0.0958566 1.24774 0.301985
v 0.0470668 1.25332 0.345192
v 0.0413797 1.22994 0.29228
v -0.00224348 1.22721 0.338626
v 0.0371312 1.18589 0.243096
v 0.0357201 1.13569 0.213833
v -0.0103246 1.14344 0.245071
v -0.0122168 1.19154 0.286797
v -0.0430856 1.18873 0.33597
v -0.047286 1.14519 0.287342
v -0.0723504 1.1408 0.337427
v 0.0186192 1.24697 0.395483
v 0.0186192 1.23162 0.515483
v -0.0349774 1.20857 0.39
v -0.0697891 1.16203 0.389377
v -0.0349774 1.19322 0.51
v -0.0697891 1.14668 0.509377
v -0.0536178 1.16049 0.561374
v -0.00838992 1.20461 0.569501
v -0.0250675 1.16583 0.609461
v -0.0194849 1.11704 0.652668
v -0.05634 1.11687 0.60772
v -0.0428776 1.06663 0.6445
v -0.0829275 1.10548 0.548219
v -0.0904933 1.10198 0.373756
v -0.0904933 1.08663 0.493756
v -0.09345 1.04497 0.531322
v -0.0829275 1.12083 0.428219
v -0.0772811 1.05613 0.59192
v -0.0547089 1.01488 0.626093
v -0.0809956 1.00363 0.567265
v -0.0540782 0.965758 0.598848
v 0.00639266 1.07542 0.683913
v -0.0145484 1.01468 0.668114
v -0.0189726 0.962644 0.642596
v 0.0258746 0.966122 0.676251
v 0.0425379 1.02258 0.700606
v 0.0770497 0.975928 0.69725
v 0.12929 0.940192 0.680746
v 0.0744346 0.925699 0.668114
v 0.126378 0.89737 0.6445
v 0.0173483 0.917801 0.635622
v -0.0231731 0.919099 0.593968
v 0.0177935 0.882348 0.582696
v 0.0701861 0.881656 0.61893
v 0.122143 0.866109 0.598015
v 0.065703 0.858301 0.565891
v 0.116908 0.84879 0.54483
v 0.180869 0.92795 0.656904
v 0.17662 0.883907 0.60772
v 0.170933 0.860527 0.554808
v 0.220244 0.88663 0.561374
v 0.230217 0.922304 0.613203
v 0.261086 0.925112 0.56403
v 0.252977 0.90527 0.51
v 0.252977 0.920619 0.39
v 0.199381 0.866874 0.504517
v 0.144647 0.849268 0.49598
v 0.199381 0.882223 0.384517
v 0.144647 0.864618 0.37598
v 0.169671 0.880319 0.328197
v 0.22639 0.909232 0.330499
v 0.190077 0.910048 0.285118
v -0.00855704 0.94704 0.272443
v 0.00536297 0.985276 0.23371
v 0.0410993 0.933036 0.250214
v 0.0271721 1.02955 0.206875
v 0.0591063 0.974909 0.214143
v 0.0959244 0.929047 0.238626
v 0.0552104 1.07649 0.193979
v 0.0887411 1.02914 0.190523
v 0.124886 0.9763 0.207215
v 0.151745 0.935376 0.238561
v -0.0434268 0.990858 0.276917
v -0.0666934 1.04029 0.29
v -0.0263869 1.03339 0.241152
v -0.0765856 1.09157 0.310695
v -0.0461002 1.09327 0.261233
v 0.00324788 1.08762 0.217532
v -0.0378443 0.942069 0.320125
v -0.0559532 0.946425 0.373125
v -0.0700885 0.989691 0.328555
v -0.0559532 0.931075 0.493125
v -0.0615054 0.944427 0.547411
v -0.0841554 0.984869 0.512338
v -0.0898018 1.04957 0.348637
v -0.09345 1.06031 0.411322
v -0.0841554 1.00022 0.392338
v 0.0143958 0.906332 0.303621
v 0.0445501 0.877672 0.341374
v -0.0116044 0.904198 0.355565
v 0.0445501 0.862323 0.461374
v 0.0796106 0.847893 0.502829
v 0.0271666 0.863231 0.522655
v -0.0256712 0.899376 0.539347
v 0.0271666 0.87858 0.402655
v -0.0116044 0.888849 0.475565
v 0.0682425 0.895062 0.284854
v 0.134022 0.896453 0.277926
v 0.107013 0.869444 0.331944
v 0.0796106 0.863242 0.382829
v 0.107013 0.854095 0.451944
f 1 2 3
f 2 4 5
f 3 5 6
f 2 5 3
f 4 7 8
f 7 9 10
f 8 10 11
f 7 10 8
f 12 13 14
f 13 15 16
f 14 16 17
f 13 16 14
f 4 8 5
f 8 11 18
f 5 18 6
f 8 18 5
f 1 3 19
f 3 6 20
f 19 20 21
f 3 20 19
f 12 14 22
f 14 17 23
f 22 23 24
f 14 23 22
f 25 26 27
f 26 24 28
f 27 28 29
f 26 28 27
f 12 22 30
f 22 24 26
f 20 31 21
f 22 26 30
f 1 19 32
f 19 21 33
f 32 33 34
f 19 33 32
f 21 35 36
f 27 29 37
f 36 38 39
f 27 37 40
f 34 41 42
f 41 39 43
f 42 43 44
f 41 43 42
f 21 36 33
f 36 39 41
f 33 41 34
f 36 41 33
f 1 32 45
f 32 34 46
f 45 46 47
f 32 46 45
f 34 42 48
f 42 44 49
f 48 49 50
f 42 49 48
f 47 51 52
f 51 50 53
f 52 53 54
f 51 53 52
f 34 48 46
f 48 50 51
f 46 51 47
f 48 51 46
f 1 45 2
f 45 47 55
f 2 55 4
f 45 55 2
f 47 52 56
f 52 54 57
f 56 57 58
f 52 57 56
f 4 59 7
f 59 58 60
f 7 60 9
f 59 60 7
f 47 56 55
f 56 58 59
f 55 59 4
f 56 59 55
f 9 61 10
f 62 63 64
f 65 64 15
f 61 66 10
f 63 67 68
f 67 69 70
f 68 70 71
f 67 70 68
f 15 72 16
f 72 71 73
f 16 73 17
f 72 73 16
f 63 68 64
f 68 71 72
f 64 72 15
f 68 72 64
f 17 73 74
f 73 71 75
f 74 75 76
f 73 75 74
f 71 70 77
f 70 69 78
f 77 78 79
f 70 78 77
f 76 80 81
f 80 79 82
f 81 82 83
f 80 82 81
f 71 77 75
f 77 79 80
f 75 80 76
f 77 80 75
f 17 74 23
f 74 76 84
f 23 84 24
f 74 84 23
f 76 81 85
f 81 83 86
f 85 86 87
f 81 86 85
f 24 88 28
f 88 87 89
f 28 89 29
f 88 89 28
f 76 85 84
f 85 87 88
f 84 88 24
f 85 88 84
f 29 89 90
f 89 87 91
f 90 91 92
f 89 91 90
f 87 86 93
f 86 83 94
f 93 94 95
f 86 94 93
f 92 96 97
f 96 95 98
f 97 98 99
f 96 98 97
f 87 93 91
f 93 95 96
f 91 96 92
f 93 96 91
f 29 90 37
f 90 92 100
f 38 101 39
f 90 100 37
f 92 97 102
f 97 99 103
f 104 105 106
f 97 103 102
f 39 107 43
f 107 106 108
f 43 108 44
f 107 108 43
f 92 102 100
f 104 106 107
f 101 107 39
f 104 107 101
f 44 108 109
f 108 106 110
f 109 110 111
f 108 110 109
f 106 105 112
f 103 99 113
f 112 114 115
f 103 113 116
f 111 117 118
f 117 115 119
f 118 119 120
f 117 119 118
f 106 112 110
f 112 115 117
f 110 117 111
f 112 117 110
f 44 109 49
f 109 111 121
f 49 121 50
f 109 121 49
f 111 118 122
f 118 120 123
f 122 123 124
f 118 123 122
f 50 125 53
f 125 124 126
f 53 126 54
f 125 126 53
f 111 122 121
f 122 124 125
f 121 125 50
f 122 125 121
f 54 126 127
f 126 124 128
f 127 128 129
f 126 128 127
f 124 123 130
f 123 120 131
f 130 131 132
f 123 131 130
f 129 133 134
f 133 132 135
f 134 135 136
f 133 135 134
f 124 130 128
f 130 132 133
f 128 133 129
f 130 133 128
f 54 127 57
f 127 129 137
f 57 137 58
f 127 137 57
f 129 134 138
f 134 136 139
f 138 139 140
f 134 139 138
f 58 141 60
f 141 140 142
f 60 142 9
f 141 142 60
f 129 138 137
f 138 140 141
f 137 141 58
f 138 141 137
f 9 142 61
f 142 140 143
f 62 144 63
f 142 143 61
f 140 139 145
f 139 136 146
f 147 148 149
f 139 146 145
f 63 150 67
f 150 149 151
f 67 151 69
f 150 151 67
f 140 145 143
f 147 149 150
f 144 150 63
f 147 150 144
f 152 153 154
f 153 155 156
f 154 156 157
f 153 156 154
f 155 158 159
f 158 83 82
f 159 82 79
f 158 82 159
f 157 160 161
f 160 79 78
f 161 78 69
f 160 78 161
f 155 159 156
f 159 79 160
f 156 160 157
f 159 160 156
f 152 162 153
f 162 163 164
f 153 164 155
f 162 164 153
f 163 165 166
f 165 99 98
f 166 98 95
f 165 98 166
f 155 167 158
f 167 95 94
f 158 94 83
f 167 94 158
f 163 166 164
f 166 95 167
f 164 167 155
f 166 167 164
f 152 168 162
f 168 169 170
f 162 170 163
f 168 170 162
f 171 172 173
f 172 120 119
f 173 119 115
f 172 119 173
f 163 174 165
f 174 175 113
f 165 113 99
f 174 113 165
f 169 176 170
f 176 175 174
f 170 174 163
f 176 174 170
f 152 177 168
f 177 178 179
f 168 179 169
f 177 179 168
f 180 181 182
f 181 136 135
f 182 135 132
f 181 135 182
f 171 183 172
f 183 132 131
f 172 131 120
f 183 131 172
f 178 184 179
f 182 132 183
f 185 183 171
f 182 183 185
f 152 154 177
f 154 157 186
f 177 186 178
f 154 186 177
f 157 161 187
f 161 69 151
f 187 151 149
f 161 151 187
f 178 188 189
f 188 149 148
f 181 146 136
f 190 146 181
f 157 187 186
f 187 149 188
f 186 188 178
f 187 188 186
f 10 65 11
f 11 65 15
f 11 15 18
f 18 15 13
f 18 13 6
f 6 13 12
f 6 12 20
f 20 12 30
f 20 30 31
f 31 30 26
f 31 26 21
f 21 26 25
f 21 25 35
f 35 25 27
f 35 27 36
f 36 27 40
f 36 40 38
f 38 40 37
f 61 62 66
f 66 62 64
f 66 64 10
f 10 64 65
f 38 37 101
f 101 37 100
f 104 102 105
f 105 102 103
f 101 100 104
f 104 100 102
f 105 103 112
f 112 103 116
f 112 116 114
f 114 116 113
f 114 113 115
f 115 113 175
f 143 144 61
f 61 144 62
f 146 148 145
f 145 148 147
f 145 147 143
f 143 147 144
f 173 176 171
f 171 176 169
f 115 175 173
f 173 175 176
f 180 178 181
f 181 178 189
f 182 184 180
f 180 184 178
f 171 169 185
f 185 169 179
f 185 179 182
f 182 179 184
f 190 188 146
f 146 188 148
f 181 189 190
f 190 189 188
