v 0.226557 1.18215 0.507557
v 0.261427 1.13834 0.503083
v 0.255844 1.18713 0.459876
v 0.284693 1.0889 0.49
v 0.288089 1.1395 0.451445
v 0.273953 1.18277 0.406875
v 0.294586 1.03762 0.469305
v 0.307802 1.07963 0.431364
v 0.29035 0.988393 0.442573
v 0.308493 1.02721 0.406244
v 0.31145 1.06888 0.368678
v 0.273953 1.18697 0.286875
v 0.302155 1.13318 0.267662
v 0.279505 1.17362 0.232589
v 0.31145 1.07308 0.248678
v 0.298996 1.11442 0.212735
v 0.272078 1.15229 0.181152
v 0.302155 1.12897 0.387662
v 0.203604 1.22286 0.476379
v 0.229604 1.225 0.424436
v 0.17345 1.25152 0.438626
v 0.243671 1.21867 0.240653
v 0.241173 1.19895 0.186032
v 0.200207 1.2357 0.197304
v 0.190833 1.25061 0.377345
v 0.138389 1.26595 0.397171
v 0.190833 1.25482 0.257345
v 0.152297 1.25975 0.21411
v 0.138389 1.27015 0.277171
v 0.101092 1.26926 0.23517
v 0.243671 1.21447 0.360653
v 0.229604 1.2292 0.304436
v 0.176901 1.19616 0.529786
v 0.149758 1.23413 0.495146
v 0.122076 1.20015 0.541374
v 0.110987 1.25975 0.448056
v 0.0733535 1.26878 0.28402
v 0.0733535 1.26458 0.40402
v 0.0483289 1.24887 0.451804
v 0.0839776 1.23274 0.502074
v 0.0662551 1.19382 0.541439
v 0.0279228 1.21915 0.494882
v 0.0136885 1.17765 0.529976
v 0.212637 1.14392 0.54629
v 0.158894 1.15428 0.565857
v 0.190828 1.09964 0.573125
v 0.0931137 1.15289 0.572785
v 0.0369556 1.1402 0.564793
v 0.0657069 1.097 0.586303
v 0.129259 1.10006 0.589478
v 0.16279 1.0527 0.586021
v 0.0977538 1.05133 0.59287
v 0.130657 1.00666 0.583995
v 0.244387 1.0958 0.538848
v 0.214752 1.04157 0.562468
v 0.18228 0.993503 0.566167
v 0.228325 0.985754 0.534929
v 0.2641 1.03593 0.518767
v 0.265286 0.984006 0.492658
v 0.287789 0.967165 0.390623
v 0.287789 0.971367 0.270623
v 0.271618 0.957556 0.218626
v 0.300928 1.01257 0.231781
v 0.308493 1.03142 0.286244
v 0.243068 0.952213 0.170539
v 0.27434 1.00118 0.17228
v 0.204312 0.955745 0.130024
v 0.237485 1.001 0.127332
v 0.260878 1.05142 0.1355
v 0.295281 1.06191 0.18808
v 0.272709 1.10316 0.153907
v 0.236973 1.1554 0.137404
v 0.232548 1.10336 0.111886
v 0.192125 1.15192 0.103749
v 0.211607 1.04263 0.0960868
v 0.181045 0.993194 0.0952075
v 0.152293 1.0364 0.073697
v 0.175462 1.09547 0.0793942
v 0.14095 1.14212 0.0827504
v 0.120246 1.08207 0.0671297
v 0.0873432 1.12673 0.0760056
v 0.200652 1.20025 0.144378
v 0.143566 1.19235 0.111886
v 0.0887104 1.17786 0.0992541
v 0.0916221 1.22068 0.1355
v 0.147814 1.23639 0.161071
v 0.0958566 1.25194 0.181985
v 0.0470668 1.25752 0.225192
v 0.0413797 1.23414 0.17228
v -0.00224348 1.23142 0.218626
v 0.0371312 1.1901 0.123096
v 0.0357201 1.13989 0.0938333
v -0.0103246 1.14764 0.125071
v -0.0122168 1.19574 0.166797
v -0.0430856 1.19294 0.21597
v -0.047286 1.14939 0.167342
v -0.0723504 1.145 0.217427
v 0.0186192 1.25117 0.275483
v 0.0186192 1.24697 0.395483
v -0.0349774 1.21278 0.27
v -0.0697891 1.16623 0.269377
v -0.0349774 1.20857 0.39
v -0.0697891 1.16203 0.389377
v -0.0536178 1.17584 0.441374
v -0.00838992 1.21996 0.449501
v -0.0250675 1.18118 0.489461
v -0.0194849 1.13239 0.532668
v -0.05634 1.13222 0.48772
v -0.0428776 1.08197 0.5245
v -0.0829275 1.12083 0.428219
v -0.0904933 1.10618 0.253756
v -0.0904933 1.10198 0.373756
v -0.09345 1.06031 0.411322
v -0.0772811 1.07148 0.47192
v -0.0547089 1.03023 0.506093
v -0.0809956 1.01897 0.447265
v -0.0540782 0.981107 0.478848
v 0.00639266 1.09077 0.563913
v -0.0145484 1.03003 0.548114
v -0.0189726 0.977993 0.522596
v 0.0258746 0.981471 0.556251
v 0.0425379 1.03793 0.580606
v 0.0770497 0.991278 0.57725
v 0.12929 0.955541 0.560746
v 0.0744346 0.941048 0.548114
v 0.126378 0.912719 0.5245
v 0.0173483 0.933151 0.515622
v -0.0231731 0.934449 0.473968
v 0.0177935 0.897697 0.462696
v 0.0701861 0.897006 0.498929
v 0.122143 0.881459 0.478015
v 0.065703 0.87365 0.445891
v 0.116908 0.864139 0.42483
v 0.180869 0.9433 0.536904
v 0.17662 0.899257 0.48772
v 0.170933 0.875876 0.434808
v 0.220244 0.901979 0.441374
v 0.230217 0.937653 0.493203
v 0.261086 0.940461 0.44403
v 0.252977 0.920619 0.39
v 0.252977 0.924822 0.27
v 0.199381 0.882223 0.384517
v 0.144647 0.864618 0.37598
v 0.199381 0.886426 0.264517
v 0.144647 0.86882 0.25598
v 0.169671 0.884522 0.208197
v 0.22639 0.913435 0.210499
v 0.190077 0.914251 0.165118
v -0.00855704 0.951242 0.152443
v 0.00536297 0.989479 0.11371
v 0.0410993 0.937239 0.130214
v 0.0271721 1.03375 0.0868747
v 0.0591063 0.979111 0.0941432
v 0.0959244 0.933249 0.118626
v 0.0552104 1.08069 0.0739793
v 0.0887411 1.03334 0.0705227
v 0.124886 0.980503 0.0872152
v 0.151745 0.939579 0.118561
v -0.0434268 0.995061 0.156917
v -0.0666934 1.04449 0.17
v -0.0263869 1.0376 0.121152
v -0.0765856 1.09578 0.190695
v -0.0461002 1.09747 0.141233
v 0.00324788 1.09182 0.0975318
v -0.0378443 0.946271 0.200125
v -0.0559532 0.950627 0.253125
v -0.0700885 0.993894 0.208555
v -0.0559532 0.946425 0.373125
v -0.0615054 0.959776 0.427411
v -0.0841554 1.00022 0.392338
v -0.0898018 1.05377 0.228637
v -0.09345 1.06452 0.291322
v -0.0841554 1.00442 0.272338
v 0.0143958 0.910535 0.183621
v 0.0445501 0.881875 0.221374
v -0.0116044 0.908401 0.235565
v 0.0796106 0.867445 0.262829
v 0.0271666 0.882783 0.282655
v 0.0796106 0.863242 0.382829
v 0.0271666 0.87858 0.402655
v -0.0256712 0.914726 0.419347
v -0.0256712 0.918928 0.299347
v -0.0116044 0.904198 0.355565
v 0.0682425 0.899265 0.164854
v 0.134022 0.900656 0.157926
v 0.107013 0.873647 0.211944
f 1 2 3
f 2 4 5
f 3 5 6
f 2 5 3
f 4 7 8
f 7 9 10
f 8 10 11
f 7 10 8
f 12 13 14
f 13 15 16
f 14 16 17
f 13 16 14
f 4 8 5
f 8 11 18
f 5 18 6
f 8 18 5
f 1 3 19
f 3 6 20
f 19 20 21
f 3 20 19
f 12 14 22
f 14 17 23
f 22 23 24
f 14 23 22
f 21 25 26
f 27 24 28
f 29 28 30
f 27 28 29
f 6 31 20
f 22 24 27
f 20 25 21
f 22 27 32
f 1 19 33
f 19 21 34
f 33 34 35
f 19 34 33
f 21 26 36
f 29 30 37
f 36 38 39
f 26 38 36
f 35 40 41
f 40 39 42
f 41 42 43
f 40 42 41
f 21 36 34
f 36 39 40
f 34 40 35
f 36 40 34
f 1 33 44
f 33 35 45
f 44 45 46
f 33 45 44
f 35 41 47
f 41 43 48
f 47 48 49
f 41 48 47
f 46 50 51
f 50 49 52
f 51 52 53
f 50 52 51
f 35 47 45
f 47 49 50
f 45 50 46
f 47 50 45
f 1 44 2
f 44 46 54
f 2 54 4
f 44 54 2
f 46 51 55
f 51 53 56
f 55 56 57
f 51 56 55
f 4 58 7
f 58 57 59
f 7 59 9
f 58 59 7
f 46 55 54
f 55 57 58
f 54 58 4
f 55 58 54
f 9 60 10
f 61 62 63
f 64 63 15
f 61 63 64
f 62 65 66
f 65 67 68
f 66 68 69
f 65 68 66
f 15 70 16
f 70 69 71
f 16 71 17
f 70 71 16
f 62 66 63
f 66 69 70
f 63 70 15
f 66 70 63
f 17 71 72
f 71 69 73
f 72 73 74
f 71 73 72
f 69 68 75
f 68 67 76
f 75 76 77
f 68 76 75
f 74 78 79
f 78 77 80
f 79 80 81
f 78 80 79
f 69 75 73
f 75 77 78
f 73 78 74
f 75 78 73
f 17 72 23
f 72 74 82
f 23 82 24
f 72 82 23
f 74 79 83
f 79 81 84
f 83 84 85
f 79 84 83
f 24 86 28
f 86 85 87
f 28 87 30
f 86 87 28
f 74 83 82
f 83 85 86
f 82 86 24
f 83 86 82
f 30 87 88
f 87 85 89
f 88 89 90
f 87 89 88
f 85 84 91
f 84 81 92
f 91 92 93
f 84 92 91
f 90 94 95
f 94 93 96
f 95 96 97
f 94 96 95
f 85 91 89
f 91 93 94
f 89 94 90
f 91 94 89
f 30 88 37
f 88 90 98
f 38 99 39
f 88 98 37
f 90 95 100
f 95 97 101
f 102 103 104
f 95 101 100
f 39 105 42
f 105 104 106
f 42 106 43
f 105 106 42
f 90 100 98
f 102 104 105
f 99 105 39
f 102 105 99
f 43 106 107
f 106 104 108
f 107 108 109
f 106 108 107
f 104 103 110
f 101 97 111
f 110 112 113
f 103 112 110
f 109 114 115
f 114 113 116
f 115 116 117
f 114 116 115
f 104 110 108
f 110 113 114
f 108 114 109
f 110 114 108
f 43 107 48
f 107 109 118
f 48 118 49
f 107 118 48
f 109 115 119
f 115 117 120
f 119 120 121
f 115 120 119
f 49 122 52
f 122 121 123
f 52 123 53
f 122 123 52
f 109 119 118
f 119 121 122
f 118 122 49
f 119 122 118
f 53 123 124
f 123 121 125
f 124 125 126
f 123 125 124
f 121 120 127
f 120 117 128
f 127 128 129
f 120 128 127
f 126 130 131
f 130 129 132
f 131 132 133
f 130 132 131
f 121 127 125
f 127 129 130
f 125 130 126
f 127 130 125
f 53 124 56
f 124 126 134
f 56 134 57
f 124 134 56
f 126 131 135
f 131 133 136
f 135 136 137
f 131 136 135
f 57 138 59
f 138 137 139
f 59 139 9
f 138 139 59
f 126 135 134
f 135 137 138
f 134 138 57
f 135 138 134
f 9 139 60
f 139 137 140
f 61 141 62
f 139 140 60
f 137 136 142
f 136 133 143
f 144 145 146
f 136 143 142
f 62 147 65
f 147 146 148
f 65 148 67
f 147 148 65
f 137 142 140
f 144 146 147
f 141 147 62
f 144 147 141
f 149 150 151
f 150 152 153
f 151 153 154
f 150 153 151
f 152 155 156
f 155 81 80
f 156 80 77
f 155 80 156
f 154 157 158
f 157 77 76
f 158 76 67
f 157 76 158
f 152 156 153
f 156 77 157
f 153 157 154
f 156 157 153
f 149 159 150
f 159 160 161
f 150 161 152
f 159 161 150
f 160 162 163
f 162 97 96
f 163 96 93
f 162 96 163
f 152 164 155
f 164 93 92
f 155 92 81
f 164 92 155
f 160 163 161
f 163 93 164
f 161 164 152
f 163 164 161
f 149 165 159
f 165 166 167
f 159 167 160
f 165 167 159
f 168 169 170
f 169 117 116
f 170 116 113
f 169 116 170
f 160 171 162
f 171 172 111
f 162 111 97
f 171 111 162
f 166 173 167
f 173 172 171
f 167 171 160
f 173 171 167
f 149 174 165
f 174 175 176
f 165 176 166
f 174 176 165
f 175 177 178
f 179 133 132
f 180 132 129
f 179 132 180
f 168 181 169
f 181 129 128
f 169 128 117
f 181 128 169
f 175 178 176
f 180 129 181
f 176 182 166
f 180 181 183
f 149 151 174
f 151 154 184
f 174 184 175
f 151 184 174
f 154 158 185
f 158 67 148
f 185 148 146
f 158 148 185
f 175 186 177
f 186 146 145
f 179 143 133
f 186 145 177
f 154 185 184
f 185 146 186
f 184 186 175
f 185 186 184
f 10 64 11
f 11 64 15
f 11 15 18
f 18 15 13
f 18 13 6
f 6 13 12
f 25 27 26
f 26 27 29
f 6 12 31
f 31 12 22
f 31 22 20
f 20 22 32
f 20 32 25
f 25 32 27
f 26 29 38
f 38 29 37
f 60 61 10
f 10 61 64
f 38 37 99
f 99 37 98
f 102 100 103
f 103 100 101
f 99 98 102
f 102 98 100
f 112 111 113
f 113 111 172
f 103 101 112
f 112 101 111
f 140 141 60
f 60 141 61
f 143 145 142
f 142 145 144
f 142 144 140
f 140 144 141
f 170 173 168
f 168 173 166
f 113 172 170
f 170 172 173
f 180 178 179
f 179 178 177
f 168 166 181
f 181 166 182
f 181 182 183
f 183 182 176
f 183 176 180
f 180 176 178
f 179 177 143
f 143 177 145
