v 0.226557 1.18636 0.387557
v 0.261427 1.14254 0.383083
v 0.255844 1.19133 0.339876
v 0.284693 1.09311 0.37
v 0.288089 1.14371 0.331445
v 0.273953 1.18697 0.286875
v 0.294586 1.04182 0.349305
v 0.307802 1.08383 0.311364
v 0.29035 0.992595 0.322573
v 0.308493 1.03142 0.286244
v 0.31145 1.07308 0.248678
v 0.273953 1.26729 0.0468747
v 0.302155 1.21349 0.027662
v 0.279505 1.25394 -0.00741064
v 0.31145 1.1534 0.0086781
v 0.298996 1.19474 -0.0272646
v 0.272078 1.2326 -0.0588482
v 0.307802 1.16414 0.0713636
v 0.288089 1.22402 0.0914447
v 0.302155 1.13318 0.267662
v 0.203604 1.22706 0.356379
v 0.255844 1.27164 0.0998755
v 0.229604 1.30951 0.0644356
v 0.203604 1.30738 0.116379
v 0.17345 1.33604 0.0786258
v 0.229604 1.2292 0.304436
v 0.243671 1.29899 0.000652889
v 0.241173 1.27926 -0.0539682
v 0.200207 1.31601 -0.0426962
v 0.190833 1.33513 0.0173454
v 0.138389 1.35047 0.0371708
v 0.152297 1.34006 -0.0258904
v 0.101092 1.34957 -0.00482999
v 0.176901 1.20036 0.409786
v 0.17345 1.25572 0.318626
v 0.149758 1.23833 0.375146
v 0.122076 1.20435 0.421374
v 0.110987 1.34427 0.0880561
v 0.0733535 1.34909 0.0440204
v 0.0483289 1.33339 0.0918035
v 0.0839776 1.23694 0.382074
v 0.0662551 1.19802 0.421439
v 0.0483289 1.25308 0.331804
v 0.0279228 1.22335 0.374882
v 0.0136885 1.18185 0.409976
v 0.110987 1.26395 0.328056
v 0.212637 1.14812 0.42629
v 0.158894 1.15849 0.445857
v 0.190828 1.10385 0.453126
v 0.0931137 1.1571 0.452785
v 0.0369556 1.1444 0.444793
v 0.0657069 1.1012 0.466303
v 0.129259 1.10426 0.469478
v 0.16279 1.0569 0.466021
v 0.0977538 1.05553 0.47287
v 0.130657 1.01087 0.463995
v 0.244387 1.1 0.418848
v 0.214752 1.04577 0.442468
v 0.18228 0.997706 0.446167
v 0.228325 0.989956 0.414929
v 0.2641 1.04013 0.398767
v 0.265286 0.988208 0.372658
v 0.287789 0.971367 0.270623
v 0.287789 1.05168 0.0306232
v 0.271618 1.03787 -0.0213742
v 0.300928 1.09288 -0.00821862
v 0.308493 1.11173 0.0462439
v 0.300928 1.01257 0.231781
v 0.243068 1.03253 -0.0694609
v 0.27434 1.08149 -0.0677197
v 0.204312 1.03606 -0.109976
v 0.237485 1.08132 -0.112668
v 0.260878 1.13174 -0.1045
v 0.295281 1.14223 -0.0519202
v 0.272709 1.18348 -0.0860926
v 0.236973 1.23572 -0.102596
v 0.232548 1.18368 -0.128114
v 0.192125 1.23224 -0.136251
v 0.211607 1.12295 -0.143913
v 0.181045 1.07351 -0.144793
v 0.152293 1.11671 -0.166303
v 0.175462 1.17578 -0.160606
v 0.14095 1.22243 -0.15725
v 0.120246 1.16239 -0.17287
v 0.0873432 1.20705 -0.163994
v 0.200652 1.28056 -0.0956218
v 0.143566 1.27266 -0.128114
v 0.0887104 1.25817 -0.140746
v 0.0916221 1.30099 -0.1045
v 0.147814 1.31671 -0.0789293
v 0.0958566 1.33225 -0.0580148
v 0.0470668 1.33784 -0.0148076
v 0.0413797 1.31446 -0.0677197
v -0.00224348 1.31173 -0.0213742
v 0.0371312 1.27041 -0.116904
v 0.0357201 1.22021 -0.146167
v -0.0103246 1.22796 -0.114929
v -0.0122168 1.27606 -0.0732026
v -0.0430856 1.27325 -0.0240301
v -0.047286 1.22971 -0.0726582
v -0.0723504 1.22532 -0.022573
v 0.0186192 1.33149 0.035483
v -0.0349774 1.29309 0.0300001
v -0.0697891 1.24655 0.029377
v -0.0536178 1.26036 0.0813744
v -0.00838992 1.22416 0.329501
v -0.0536178 1.18004 0.321374
v -0.0250675 1.18539 0.369461
v -0.00838992 1.30448 0.0895012
v -0.0194849 1.1366 0.412668
v -0.05634 1.13642 0.36772
v -0.0428776 1.08618 0.4045
v -0.0697891 1.16623 0.269377
v -0.0829275 1.12503 0.308219
v -0.0904933 1.1865 0.0137563
v -0.0904933 1.10618 0.253756
v -0.09345 1.06452 0.291322
v -0.0829275 1.20535 0.0682188
v -0.0772811 1.07568 0.35192
v -0.0547089 1.03444 0.386093
v -0.0809956 1.02318 0.327265
v -0.0540782 0.98531 0.358848
v 0.00639266 1.09497 0.443913
v -0.0145484 1.03423 0.428114
v -0.0189726 0.982196 0.402596
v 0.0258746 0.985674 0.436251
v 0.0425379 1.04213 0.460606
v 0.0770497 0.99548 0.45725
v 0.12929 0.959744 0.440746
v 0.0744346 0.945251 0.428114
v 0.126378 0.916922 0.4045
v 0.0173483 0.937353 0.395622
v -0.0231731 0.938651 0.353968
v 0.0177935 0.9019 0.342696
v 0.0701861 0.901208 0.378929
v 0.122143 0.885661 0.358015
v 0.065703 0.877853 0.325891
v 0.116908 0.868342 0.30483
v 0.180869 0.947502 0.416904
v 0.17662 0.903459 0.36772
v 0.170933 0.880079 0.314808
v 0.220244 0.906182 0.321374
v 0.230217 0.941856 0.373203
v 0.261086 0.944664 0.32403
v 0.252977 0.924822 0.27
v 0.271618 0.957556 0.218626
v 0.199381 0.886426 0.264517
v 0.144647 0.86882 0.25598
v 0.169671 0.884522 0.208197
v 0.22639 0.99375 -0.029501
v 0.169671 0.964837 -0.0318033
v 0.190077 0.994566 -0.0748818
v 0.22639 0.913435 0.210499
v -0.00855704 1.03156 -0.087557
v 0.00536297 1.06979 -0.12629
v 0.0410993 1.01755 -0.109786
v 0.0271721 1.11407 -0.153125
v 0.0591063 1.05943 -0.145857
v 0.0959244 1.01356 -0.121374
v 0.0552104 1.16101 -0.166021
v 0.0887411 1.11366 -0.169477
v 0.124886 1.06082 -0.152785
v 0.151745 1.01989 -0.121439
v -0.0434268 1.07538 -0.0830825
v -0.0666934 1.12481 -0.0699999
v -0.0263869 1.11791 -0.118848
v -0.0765856 1.17609 -0.0493049
v -0.0461002 1.17779 -0.0987666
v 0.00324788 1.17214 -0.142468
v -0.0378443 1.02659 -0.0398753
v -0.0559532 1.03094 0.0131255
v -0.0700885 1.07421 -0.0314445
v -0.0559532 0.950627 0.253125
v -0.0615054 0.963979 0.307411
v -0.0841554 1.00442 0.272338
v -0.0898018 1.13408 -0.0113634
v -0.09345 1.14483 0.0513221
v -0.0700885 0.993894 0.208555
v -0.0898018 1.05377 0.228637
v -0.0841554 1.08474 0.0323382
v 0.0143958 0.99085 -0.056379
v 0.0143958 0.910535 0.183621
v 0.0445501 0.881875 0.221374
v -0.0116044 0.908401 0.235565
v -0.0378443 0.946271 0.200125
v -0.0116044 0.988716 -0.00443548
v 0.0796106 0.867445 0.262829
v 0.0271666 0.882783 0.282655
v -0.0256712 0.918928 0.299347
v 0.0682425 0.97958 -0.0751462
v 0.0445501 0.962191 -0.0186256
v 0.134022 0.980971 -0.0820741
v 0.107013 0.873647 0.211944
v 0.107013 0.953962 -0.028056
f 1 2 3
f 2 4 5
f 3 5 6
f 2 5 3
f 4 7 8
f 7 9 10
f 8 10 11
f 7 10 8
f 12 13 14
f 13 15 16
f 14 16 17
f 13 16 14
f 4 8 5
f 18 15 13
f 19 13 12
f 8 20 5
f 1 3 21
f 22 12 23
f 24 23 25
f 3 26 21
f 12 14 27
f 14 17 28
f 27 28 29
f 14 28 27
f 25 30 31
f 30 29 32
f 31 32 33
f 30 32 31
f 12 27 23
f 27 29 30
f 23 30 25
f 27 30 23
f 1 21 34
f 21 35 36
f 34 36 37
f 21 36 34
f 25 31 38
f 31 33 39
f 38 39 40
f 31 39 38
f 37 41 42
f 41 43 44
f 42 44 45
f 41 44 42
f 35 46 36
f 46 43 41
f 36 41 37
f 46 41 36
f 1 34 47
f 34 37 48
f 47 48 49
f 34 48 47
f 37 42 50
f 42 45 51
f 50 51 52
f 42 51 50
f 49 53 54
f 53 52 55
f 54 55 56
f 53 55 54
f 37 50 48
f 50 52 53
f 48 53 49
f 50 53 48
f 1 47 2
f 47 49 57
f 2 57 4
f 47 57 2
f 49 54 58
f 54 56 59
f 58 59 60
f 54 59 58
f 4 61 7
f 61 60 62
f 7 62 9
f 61 62 7
f 49 58 57
f 58 60 61
f 57 61 4
f 58 61 57
f 9 63 10
f 64 65 66
f 67 66 15
f 63 68 10
f 65 69 70
f 69 71 72
f 70 72 73
f 69 72 70
f 15 74 16
f 74 73 75
f 16 75 17
f 74 75 16
f 65 70 66
f 70 73 74
f 66 74 15
f 70 74 66
f 17 75 76
f 75 73 77
f 76 77 78
f 75 77 76
f 73 72 79
f 72 71 80
f 79 80 81
f 72 80 79
f 78 82 83
f 82 81 84
f 83 84 85
f 82 84 83
f 73 79 77
f 79 81 82
f 77 82 78
f 79 82 77
f 17 76 28
f 76 78 86
f 28 86 29
f 76 86 28
f 78 83 87
f 83 85 88
f 87 88 89
f 83 88 87
f 29 90 32
f 90 89 91
f 32 91 33
f 90 91 32
f 78 87 86
f 87 89 90
f 86 90 29
f 87 90 86
f 33 91 92
f 91 89 93
f 92 93 94
f 91 93 92
f 89 88 95
f 88 85 96
f 95 96 97
f 88 96 95
f 94 98 99
f 98 97 100
f 99 100 101
f 98 100 99
f 89 95 93
f 95 97 98
f 93 98 94
f 95 98 93
f 33 92 39
f 92 94 102
f 39 102 40
f 92 102 39
f 94 99 103
f 99 101 104
f 103 104 105
f 99 104 103
f 43 106 44
f 106 107 108
f 44 108 45
f 106 108 44
f 94 103 102
f 103 105 109
f 102 109 40
f 103 109 102
f 45 108 110
f 108 107 111
f 110 111 112
f 108 111 110
f 107 113 114
f 104 101 115
f 114 116 117
f 104 115 118
f 112 119 120
f 119 117 121
f 120 121 122
f 119 121 120
f 107 114 111
f 114 117 119
f 111 119 112
f 114 119 111
f 45 110 51
f 110 112 123
f 51 123 52
f 110 123 51
f 112 120 124
f 120 122 125
f 124 125 126
f 120 125 124
f 52 127 55
f 127 126 128
f 55 128 56
f 127 128 55
f 112 124 123
f 124 126 127
f 123 127 52
f 124 127 123
f 56 128 129
f 128 126 130
f 129 130 131
f 128 130 129
f 126 125 132
f 125 122 133
f 132 133 134
f 125 133 132
f 131 135 136
f 135 134 137
f 136 137 138
f 135 137 136
f 126 132 130
f 132 134 135
f 130 135 131
f 132 135 130
f 56 129 59
f 129 131 139
f 59 139 60
f 129 139 59
f 131 136 140
f 136 138 141
f 140 141 142
f 136 141 140
f 60 143 62
f 143 142 144
f 62 144 9
f 143 144 62
f 131 140 139
f 140 142 143
f 139 143 60
f 140 143 139
f 9 144 63
f 144 142 145
f 63 145 146
f 144 145 63
f 142 141 147
f 141 138 148
f 147 148 149
f 141 148 147
f 65 150 69
f 150 151 152
f 69 152 71
f 150 152 69
f 142 147 145
f 147 149 153
f 145 153 146
f 147 153 145
f 154 155 156
f 155 157 158
f 156 158 159
f 155 158 156
f 157 160 161
f 160 85 84
f 161 84 81
f 160 84 161
f 159 162 163
f 162 81 80
f 163 80 71
f 162 80 163
f 157 161 158
f 161 81 162
f 158 162 159
f 161 162 158
f 154 164 155
f 164 165 166
f 155 166 157
f 164 166 155
f 165 167 168
f 167 101 100
f 168 100 97
f 167 100 168
f 157 169 160
f 169 97 96
f 160 96 85
f 169 96 160
f 165 168 166
f 168 97 169
f 166 169 157
f 168 169 166
f 154 170 164
f 170 171 172
f 164 172 165
f 170 172 164
f 173 174 175
f 174 122 121
f 175 121 117
f 174 121 175
f 165 176 167
f 176 177 115
f 167 115 101
f 176 115 167
f 173 175 178
f 175 117 179
f 172 176 165
f 180 176 172
f 154 181 170
f 182 183 184
f 185 184 173
f 181 186 170
f 183 187 188
f 187 138 137
f 188 137 134
f 187 137 188
f 173 189 174
f 189 134 133
f 174 133 122
f 189 133 174
f 183 188 184
f 188 134 189
f 184 189 173
f 188 189 184
f 154 156 181
f 156 159 190
f 181 190 191
f 156 190 181
f 159 163 192
f 163 71 152
f 192 152 151
f 163 152 192
f 183 193 187
f 193 149 148
f 187 148 138
f 193 148 187
f 159 192 190
f 192 151 194
f 190 194 191
f 192 194 190
f 5 19 6
f 6 19 12
f 6 12 3
f 3 12 22
f 10 67 11
f 11 67 15
f 11 15 8
f 8 15 18
f 8 18 20
f 20 18 13
f 20 13 5
f 5 13 19
f 3 22 26
f 26 22 23
f 26 23 21
f 21 23 24
f 21 24 35
f 35 24 25
f 35 25 46
f 46 25 38
f 46 38 43
f 43 38 40
f 63 64 68
f 68 64 66
f 68 66 10
f 10 66 67
f 43 40 106
f 106 40 109
f 106 109 107
f 107 109 105
f 107 105 113
f 113 105 104
f 113 104 114
f 114 104 118
f 114 118 116
f 116 118 115
f 116 115 117
f 117 115 177
f 146 65 63
f 63 65 64
f 149 151 153
f 153 151 150
f 153 150 146
f 146 150 65
f 175 180 178
f 178 180 172
f 178 172 173
f 173 172 171
f 117 177 179
f 179 177 176
f 179 176 175
f 175 176 180
f 182 181 183
f 183 181 191
f 184 186 182
f 182 186 181
f 185 170 184
f 184 170 186
f 173 171 185
f 185 171 170
f 183 191 193
f 193 191 194
f 193 194 149
f 149 194 151
