v 0.226557 1.26667 0.147557
v 0.261427 1.22285 0.143083
v 0.255844 1.27164 0.0998755
v 0.284693 1.17342 0.13
v 0.288089 1.22402 0.0914447
v 0.273953 1.26729 0.0468747
v 0.294586 1.12214 0.109305
v 0.307802 1.16414 0.0713636
v 0.29035 1.07291 0.0825732
v 0.308493 1.11173 0.0462439
v 0.31145 1.1534 0.0086781
v 0.273953 1.28094 -0.0331253
v 0.302155 1.22715 -0.0523381
v 0.279505 1.26759 -0.0874107
v 0.31145 1.16705 -0.0713219
v 0.298996 1.20839 -0.107265
v 0.272078 1.24626 -0.138848
v 0.302155 1.21349 0.027662
v 0.203604 1.30738 0.116379
v 0.229604 1.30951 0.0644356
v 0.17345 1.33604 0.0786258
v 0.243671 1.31264 -0.0793472
v 0.241173 1.29292 -0.133968
v 0.200207 1.32967 -0.122696
v 0.17345 1.34969 -0.00137424
v 0.190833 1.34879 -0.0626546
v 0.138389 1.36413 -0.0428292
v 0.152297 1.35372 -0.10589
v 0.101092 1.36323 -0.08483
v 0.229604 1.32317 -0.0155644
v 0.176901 1.28068 0.169786
v 0.149758 1.31865 0.135146
v 0.122076 1.28467 0.181374
v 0.138389 1.35047 0.0371708
v 0.110987 1.34427 0.0880561
v 0.0733535 1.36275 -0.0359797
v 0.0733535 1.34909 0.0440204
v 0.0483289 1.33339 0.0918035
v 0.110987 1.35792 0.00805608
v 0.0839776 1.31726 0.142074
v 0.0662551 1.27834 0.181439
v 0.0279228 1.30366 0.134882
v 0.0136885 1.26217 0.169976
v 0.212637 1.22844 0.18629
v 0.158894 1.2388 0.205857
v 0.190828 1.18416 0.213125
v 0.0931137 1.23741 0.212785
v 0.0369556 1.22472 0.204793
v 0.0657069 1.18152 0.226303
v 0.129259 1.18457 0.229477
v 0.16279 1.13722 0.226021
v 0.0977538 1.13584 0.23287
v 0.130657 1.09118 0.223995
v 0.244387 1.18032 0.178848
v 0.214752 1.12609 0.202468
v 0.18228 1.07802 0.206167
v 0.228325 1.07027 0.174929
v 0.2641 1.12044 0.158767
v 0.265286 1.06852 0.132658
v 0.287789 1.05168 0.0306232
v 0.287789 1.06534 -0.0493768
v 0.271618 1.05153 -0.101374
v 0.300928 1.10654 -0.0882187
v 0.308493 1.12539 -0.0337561
v 0.300928 1.09288 -0.00821862
v 0.243068 1.04618 -0.149461
v 0.27434 1.09515 -0.14772
v 0.204312 1.04972 -0.189976
v 0.237485 1.09497 -0.192668
v 0.260878 1.14539 -0.1845
v 0.295281 1.15589 -0.13192
v 0.272709 1.19713 -0.166093
v 0.236973 1.24937 -0.182596
v 0.232548 1.19734 -0.208114
v 0.192125 1.2459 -0.216251
v 0.211607 1.1366 -0.223913
v 0.181045 1.08717 -0.224793
v 0.152293 1.13037 -0.246303
v 0.175462 1.18944 -0.240606
v 0.14095 1.23609 -0.23725
v 0.120246 1.17604 -0.25287
v 0.0873432 1.2207 -0.243994
v 0.200652 1.29422 -0.175622
v 0.143566 1.28632 -0.208114
v 0.0887104 1.27183 -0.220746
v 0.0916221 1.31465 -0.1845
v 0.147814 1.33036 -0.158929
v 0.0958566 1.34591 -0.138015
v 0.0470668 1.35149 -0.0948076
v 0.0413797 1.32811 -0.14772
v -0.00224348 1.32539 -0.101374
v 0.0371312 1.28407 -0.196904
v 0.0357201 1.23386 -0.226167
v -0.0103246 1.24161 -0.194929
v -0.0122168 1.28971 -0.153203
v -0.0430856 1.28691 -0.10403
v -0.047286 1.24336 -0.152658
v -0.0723504 1.23897 -0.102573
v 0.0186192 1.34514 -0.044517
v 0.0483289 1.34705 0.0118035
v -0.0349774 1.30675 -0.0499999
v -0.0697891 1.2602 -0.0506231
v -0.0536178 1.27401 0.00137438
v -0.00838992 1.30448 0.0895012
v -0.0536178 1.26036 0.0813744
v -0.0250675 1.2657 0.129461
v -0.0349774 1.29309 0.0300001
v 0.0186192 1.33149 0.035483
v -0.00838992 1.31814 0.00950112
v -0.0194849 1.21691 0.172668
v -0.05634 1.21674 0.12772
v -0.0428776 1.16649 0.1645
v -0.0697891 1.24655 0.029377
v -0.0829275 1.20535 0.0682188
v -0.0904933 1.20015 -0.0662438
v -0.0904933 1.1865 0.0137563
v -0.09345 1.14483 0.0513221
v -0.0829275 1.219 -0.0117812
v -0.0772811 1.156 0.11192
v -0.0547089 1.11475 0.146093
v -0.0809956 1.10349 0.0872648
v -0.0540782 1.06563 0.118848
v 0.00639266 1.17528 0.203913
v -0.0145484 1.11455 0.188114
v -0.0189726 1.06251 0.162596
v 0.0258746 1.06599 0.196251
v 0.0425379 1.12245 0.220606
v 0.0770497 1.0758 0.21725
v 0.12929 1.04006 0.200746
v 0.0744346 1.02557 0.188114
v 0.126378 0.997237 0.1645
v 0.0173483 1.01767 0.155622
v -0.0231731 1.01897 0.113968
v 0.0177935 0.982215 0.102696
v 0.0701861 0.981524 0.138929
v 0.122143 0.965977 0.118015
v 0.065703 0.958168 0.0858905
v 0.116908 0.948657 0.0648301
v 0.180869 1.02782 0.176904
v 0.17662 0.983775 0.12772
v 0.170933 0.960394 0.0748077
v 0.220244 0.986497 0.0813744
v 0.230217 1.02217 0.133203
v 0.261086 1.02498 0.0840303
v 0.252977 1.00514 0.0300001
v 0.271618 1.03787 -0.0213742
v 0.199381 0.966741 0.0245172
v 0.144647 0.949136 0.0159798
v 0.169671 0.964837 -0.0318033
v 0.22639 1.00741 -0.109501
v 0.169671 0.978492 -0.111803
v 0.190077 1.00822 -0.154882
v 0.199381 0.980396 -0.0554829
v 0.252977 1.01879 -0.05
v 0.22639 0.99375 -0.029501
v -0.00855704 1.04521 -0.167557
v 0.00536297 1.08345 -0.20629
v 0.0410993 1.03121 -0.189786
v 0.0271721 1.12772 -0.233125
v 0.0591063 1.07308 -0.225857
v 0.0959244 1.02722 -0.201374
v 0.0552104 1.17467 -0.246021
v 0.0887411 1.12731 -0.249477
v 0.124886 1.07447 -0.232785
v 0.151745 1.03355 -0.201439
v -0.0434268 1.08903 -0.163083
v -0.0666934 1.13846 -0.15
v -0.0263869 1.13157 -0.198848
v -0.0765856 1.18975 -0.129305
v -0.0461002 1.19144 -0.178767
v 0.00324788 1.1858 -0.222468
v -0.0378443 1.04024 -0.119875
v -0.0559532 1.0446 -0.0668746
v -0.0700885 1.08786 -0.111445
v -0.0559532 1.03094 0.0131255
v -0.0615054 1.04429 0.0674108
v -0.0841554 1.08474 0.0323382
v -0.0898018 1.14774 -0.0913634
v -0.09345 1.15849 -0.028678
v -0.0841554 1.09839 -0.0476618
v 0.0143958 1.00451 -0.136379
v 0.0445501 0.975846 -0.0986257
v -0.0116044 1.00237 -0.0844355
v 0.0445501 0.962191 -0.0186256
v 0.0796106 0.94776 0.0228293
v 0.0271666 0.963098 0.0426547
v -0.0256712 0.999244 0.0593473
v -0.0116044 0.988716 -0.00443548
v 0.0682425 0.993235 -0.155146
v 0.134022 0.994627 -0.162074
v 0.107013 0.967618 -0.108056
v 0.0796106 0.961415 -0.0571707
v 0.144647 0.962791 -0.0640203
v 0.107013 0.953962 -0.028056
f 1 2 3
f 2 4 5
f 3 5 6
f 2 5 3
f 4 7 8
f 7 9 10
f 8 10 11
f 7 10 8
f 12 13 14
f 13 15 16
f 14 16 17
f 13 16 14
f 4 8 5
f 8 11 18
f 5 18 6
f 8 18 5
f 1 3 19
f 3 6 20
f 19 20 21
f 3 20 19
f 12 14 22
f 14 17 23
f 22 23 24
f 14 23 22
f 25 26 27
f 26 24 28
f 27 28 29
f 26 28 27
f 12 22 30
f 22 24 26
f 30 26 25
f 22 26 30
f 1 19 31
f 19 21 32
f 31 32 33
f 19 32 31
f 21 34 35
f 27 29 36
f 35 37 38
f 27 36 39
f 33 40 41
f 40 38 42
f 41 42 43
f 40 42 41
f 21 35 32
f 35 38 40
f 32 40 33
f 35 40 32
f 1 31 44
f 31 33 45
f 44 45 46
f 31 45 44
f 33 41 47
f 41 43 48
f 47 48 49
f 41 48 47
f 46 50 51
f 50 49 52
f 51 52 53
f 50 52 51
f 33 47 45
f 47 49 50
f 45 50 46
f 47 50 45
f 1 44 2
f 44 46 54
f 2 54 4
f 44 54 2
f 46 51 55
f 51 53 56
f 55 56 57
f 51 56 55
f 4 58 7
f 58 57 59
f 7 59 9
f 58 59 7
f 46 55 54
f 55 57 58
f 54 58 4
f 55 58 54
f 9 60 10
f 61 62 63
f 64 63 15
f 60 65 10
f 62 66 67
f 66 68 69
f 67 69 70
f 66 69 67
f 15 71 16
f 71 70 72
f 16 72 17
f 71 72 16
f 62 67 63
f 67 70 71
f 63 71 15
f 67 71 63
f 17 72 73
f 72 70 74
f 73 74 75
f 72 74 73
f 70 69 76
f 69 68 77
f 76 77 78
f 69 77 76
f 75 79 80
f 79 78 81
f 80 81 82
f 79 81 80
f 70 76 74
f 76 78 79
f 74 79 75
f 76 79 74
f 17 73 23
f 73 75 83
f 23 83 24
f 73 83 23
f 75 80 84
f 80 82 85
f 84 85 86
f 80 85 84
f 24 87 28
f 87 86 88
f 28 88 29
f 87 88 28
f 75 84 83
f 84 86 87
f 83 87 24
f 84 87 83
f 29 88 89
f 88 86 90
f 89 90 91
f 88 90 89
f 86 85 92
f 85 82 93
f 92 93 94
f 85 93 92
f 91 95 96
f 95 94 97
f 96 97 98
f 95 97 96
f 86 92 90
f 92 94 95
f 90 95 91
f 92 95 90
f 29 89 36
f 89 91 99
f 36 99 100
f 89 99 36
f 91 96 101
f 96 98 102
f 101 102 103
f 96 102 101
f 38 104 42
f 104 105 106
f 42 106 43
f 104 106 42
f 91 101 99
f 107 105 104
f 108 104 38
f 101 109 99
f 43 106 110
f 106 105 111
f 110 111 112
f 106 111 110
f 105 113 114
f 102 98 115
f 114 116 117
f 102 115 118
f 112 119 120
f 119 117 121
f 120 121 122
f 119 121 120
f 105 114 111
f 114 117 119
f 111 119 112
f 114 119 111
f 43 110 48
f 110 112 123
f 48 123 49
f 110 123 48
f 112 120 124
f 120 122 125
f 124 125 126
f 120 125 124
f 49 127 52
f 127 126 128
f 52 128 53
f 127 128 52
f 112 124 123
f 124 126 127
f 123 127 49
f 124 127 123
f 53 128 129
f 128 126 130
f 129 130 131
f 128 130 129
f 126 125 132
f 125 122 133
f 132 133 134
f 125 133 132
f 131 135 136
f 135 134 137
f 136 137 138
f 135 137 136
f 126 132 130
f 132 134 135
f 130 135 131
f 132 135 130
f 53 129 56
f 129 131 139
f 56 139 57
f 129 139 56
f 131 136 140
f 136 138 141
f 140 141 142
f 136 141 140
f 57 143 59
f 143 142 144
f 59 144 9
f 143 144 59
f 131 140 139
f 140 142 143
f 139 143 57
f 140 143 139
f 9 144 60
f 144 142 145
f 60 145 146
f 144 145 60
f 142 141 147
f 141 138 148
f 147 148 149
f 141 148 147
f 62 150 66
f 150 151 152
f 66 152 68
f 150 152 66
f 142 147 145
f 153 151 150
f 154 150 62
f 147 155 145
f 156 157 158
f 157 159 160
f 158 160 161
f 157 160 158
f 159 162 163
f 162 82 81
f 163 81 78
f 162 81 163
f 161 164 165
f 164 78 77
f 165 77 68
f 164 77 165
f 159 163 160
f 163 78 164
f 160 164 161
f 163 164 160
f 156 166 157
f 166 167 168
f 157 168 159
f 166 168 157
f 167 169 170
f 169 98 97
f 170 97 94
f 169 97 170
f 159 171 162
f 171 94 93
f 162 93 82
f 171 93 162
f 167 170 168
f 170 94 171
f 168 171 159
f 170 171 168
f 156 172 166
f 172 173 174
f 166 174 167
f 172 174 166
f 175 176 177
f 176 122 121
f 177 121 117
f 176 121 177
f 167 178 169
f 178 179 115
f 169 115 98
f 178 115 169
f 173 180 174
f 180 179 178
f 174 178 167
f 180 178 174
f 156 181 172
f 181 182 183
f 172 183 173
f 181 183 172
f 184 185 186
f 185 138 137
f 186 137 134
f 185 137 186
f 175 187 176
f 187 134 133
f 176 133 122
f 187 133 176
f 184 186 188
f 186 134 187
f 188 187 175
f 186 187 188
f 156 158 181
f 158 161 189
f 181 189 182
f 158 189 181
f 161 165 190
f 165 68 152
f 190 152 151
f 165 152 190
f 182 191 192
f 191 151 193
f 185 148 138
f 194 148 185
f 161 190 189
f 190 151 191
f 189 191 182
f 190 191 189
f 10 64 11
f 11 64 15
f 11 15 18
f 18 15 13
f 18 13 6
f 6 13 12
f 6 12 20
f 20 12 30
f 20 30 21
f 21 30 25
f 21 25 34
f 34 25 27
f 34 27 35
f 35 27 39
f 35 39 37
f 37 39 36
f 37 36 38
f 38 36 100
f 60 61 65
f 65 61 63
f 65 63 10
f 10 63 64
f 107 101 105
f 105 101 103
f 104 109 107
f 107 109 101
f 108 99 104
f 104 99 109
f 38 100 108
f 108 100 99
f 105 103 113
f 113 103 102
f 113 102 114
f 114 102 118
f 114 118 116
f 116 118 115
f 116 115 117
f 117 115 179
f 145 154 146
f 146 154 62
f 146 62 60
f 60 62 61
f 148 193 149
f 149 193 151
f 149 151 147
f 147 151 153
f 147 153 155
f 155 153 150
f 155 150 145
f 145 150 154
f 177 180 175
f 175 180 173
f 117 179 177
f 177 179 180
f 184 182 185
f 185 182 192
f 188 183 184
f 184 183 182
f 175 173 188
f 188 173 183
f 194 191 148
f 148 191 193
f 185 192 194
f 194 192 191
