v 0.226557 1.28033 0.0675571
v 0.261427 1.23651 0.0630827
v 0.255844 1.2853 0.0198755
v 0.284693 1.18708 0.0500001
v 0.288089 1.23768 0.0114447
v 0.273953 1.28094 -0.0331253
v 0.294586 1.13579 0.0293051
v 0.307802 1.1778 -0.00863647
v 0.29035 1.08657 0.00257317
v 0.308493 1.12539 -0.0337561
v 0.31145 1.16705 -0.0713219
v 0.302155 1.22715 -0.0523381
v 0.279505 1.26759 -0.0874107
v 0.302155 1.22381 -0.0923381
v 0.31145 1.16371 -0.111322
v 0.298996 1.20505 -0.147265
v 0.279505 1.26425 -0.127411
v 0.272078 1.24292 -0.178848
v 0.203604 1.32103 0.0363791
v 0.229604 1.32317 -0.0155644
v 0.17345 1.34969 -0.00137424
v 0.273953 1.2776 -0.0731253
v 0.243671 1.3093 -0.119347
v 0.241173 1.28958 -0.173968
v 0.200207 1.32633 -0.162696
v 0.190833 1.34879 -0.0626546
v 0.138389 1.36413 -0.0428292
v 0.190833 1.34545 -0.102655
v 0.152297 1.35038 -0.14589
v 0.138389 1.36078 -0.0828292
v 0.101092 1.35989 -0.12483
v 0.243671 1.31264 -0.0793472
v 0.176901 1.29433 0.0897862
v 0.149758 1.33231 0.0551463
v 0.122076 1.29832 0.101374
v 0.110987 1.35792 0.00805608
v 0.101092 1.36323 -0.08483
v 0.0733535 1.36275 -0.0359797
v 0.0483289 1.34705 0.0118035
v 0.0839776 1.33091 0.0620742
v 0.0662551 1.29199 0.101439
v 0.0279228 1.31732 0.0548819
v 0.0136885 1.27582 0.0899764
v 0.212637 1.24209 0.10629
v 0.158894 1.25246 0.125857
v 0.190828 1.19782 0.133125
v 0.0931137 1.25107 0.132785
v 0.0369556 1.23838 0.124793
v 0.0657069 1.19517 0.146303
v 0.129259 1.19823 0.149477
v 0.16279 1.15087 0.146021
v 0.0977538 1.1495 0.15287
v 0.130657 1.10484 0.143995
v 0.244387 1.19397 0.0988479
v 0.214752 1.13974 0.122468
v 0.18228 1.09168 0.126167
v 0.228325 1.08393 0.0949288
v 0.2641 1.1341 0.0787667
v 0.265286 1.08218 0.0526583
v 0.287789 1.06534 -0.0493768
v 0.287789 1.062 -0.0893769
v 0.271618 1.04819 -0.141374
v 0.300928 1.1032 -0.128219
v 0.308493 1.12205 -0.0737562
v 0.243068 1.04284 -0.189461
v 0.27434 1.09181 -0.18772
v 0.204312 1.04638 -0.229976
v 0.237485 1.09163 -0.232668
v 0.260878 1.14205 -0.2245
v 0.295281 1.15254 -0.17192
v 0.272709 1.19379 -0.206093
v 0.236973 1.24603 -0.222596
v 0.232548 1.194 -0.248114
v 0.192125 1.24256 -0.256251
v 0.211607 1.13326 -0.263913
v 0.181045 1.08382 -0.264793
v 0.152293 1.12703 -0.286303
v 0.175462 1.1861 -0.280606
v 0.14095 1.23275 -0.27725
v 0.120246 1.1727 -0.29287
v 0.0873432 1.21736 -0.283994
v 0.200652 1.29088 -0.215622
v 0.143566 1.28298 -0.248114
v 0.0887104 1.26849 -0.260746
v 0.0916221 1.31131 -0.2245
v 0.147814 1.32702 -0.198929
v 0.0958566 1.34257 -0.178015
v 0.0470668 1.34815 -0.134808
v 0.0413797 1.32477 -0.18772
v -0.00224348 1.32205 -0.141374
v 0.0371312 1.28073 -0.236904
v 0.0357201 1.23052 -0.266167
v -0.0103246 1.23827 -0.234929
v -0.0122168 1.28637 -0.193203
v -0.0430856 1.28357 -0.14403
v -0.047286 1.24002 -0.192658
v -0.0723504 1.23563 -0.142573
v 0.0733535 1.35941 -0.0759797
v 0.0186192 1.3418 -0.0845171
v 0.0186192 1.34514 -0.044517
v 0.0470668 1.35149 -0.0948076
v -0.0349774 1.30341 -0.09
v -0.0697891 1.25686 -0.0906231
v -0.0349774 1.30675 -0.0499999
v -0.0697891 1.2602 -0.0506231
v -0.0536178 1.27401 0.00137438
v -0.00838992 1.31814 0.00950112
v -0.0250675 1.27936 0.049461
v -0.0194849 1.23057 0.0926683
v -0.05634 1.23039 0.0477198
v -0.0428776 1.18015 0.0844998
v -0.0829275 1.219 -0.0117812
v -0.0904933 1.19681 -0.106244
v -0.0904933 1.20015 -0.0662438
v -0.09345 1.15849 -0.028678
v -0.0772811 1.16965 0.0319204
v -0.0547089 1.12841 0.0660927
v -0.0809956 1.11715 0.00726476
v -0.0540782 1.07928 0.0388483
v 0.00639266 1.18894 0.123913
v -0.0145484 1.1282 0.108114
v -0.0189726 1.07617 0.0825964
v 0.0258746 1.07964 0.116251
v 0.0425379 1.1361 0.140606
v 0.0770497 1.08945 0.13725
v 0.12929 1.05371 0.120746
v 0.0744346 1.03922 0.108114
v 0.126378 1.01089 0.0844997
v 0.0173483 1.03132 0.075622
v -0.0231731 1.03262 0.0339683
v 0.0177935 0.99587 0.0226963
v 0.0701861 0.995179 0.0589294
v 0.122143 0.979632 0.0380149
v 0.065703 0.971824 0.00589051
v 0.116908 0.962312 -0.0151699
v 0.180869 1.04147 0.0969043
v 0.17662 0.99743 0.0477198
v 0.170933 0.974049 -0.00519233
v 0.220244 1.00015 0.00137434
v 0.230217 1.03583 0.0532027
v 0.261086 1.03863 0.00403023
v 0.252977 1.01879 -0.05
v 0.252977 1.01545 -0.09
v 0.199381 0.980396 -0.0554829
v 0.144647 0.962791 -0.0640203
v 0.199381 0.977056 -0.0954829
v 0.144647 0.95945 -0.10402
v 0.169671 0.975152 -0.151803
v 0.170933 0.970709 -0.0451923
v 0.22639 1.00407 -0.149501
v 0.190077 1.00488 -0.194882
v -0.00855704 1.04187 -0.207557
v 0.00536297 1.08011 -0.24629
v 0.0410993 1.02787 -0.229786
v 0.0271721 1.12438 -0.273125
v 0.0591063 1.06974 -0.265857
v 0.0959244 1.02388 -0.241374
v 0.0552104 1.17133 -0.286021
v 0.0887411 1.12397 -0.289477
v 0.124886 1.07113 -0.272785
v 0.151745 1.03021 -0.241439
v -0.0434268 1.08569 -0.203083
v -0.0666934 1.13512 -0.19
v -0.0263869 1.12823 -0.238848
v -0.0765856 1.18641 -0.169305
v -0.0461002 1.1881 -0.218767
v 0.00324788 1.18245 -0.262468
v -0.0378443 1.0369 -0.159875
v -0.0559532 1.04126 -0.106875
v -0.0700885 1.08452 -0.151445
v -0.0615054 1.05461 -0.0525892
v -0.0841554 1.09505 -0.0876618
v -0.0615054 1.05795 -0.0125892
v -0.0841554 1.09839 -0.0476618
v -0.0898018 1.1444 -0.131363
v -0.09345 1.15515 -0.068678
v 0.0143958 1.00117 -0.176379
v 0.0445501 0.972505 -0.138626
v -0.0116044 0.999031 -0.124436
v 0.0796106 0.958075 -0.0971707
v 0.0271666 0.973413 -0.0773453
v 0.0796106 0.961415 -0.0571707
v 0.0271666 0.976754 -0.0373453
v -0.0559532 1.0446 -0.0668746
v -0.0256712 1.0129 -0.0206528
v -0.0256712 1.00956 -0.0606528
v 0.0682425 0.989895 -0.195146
v 0.134022 0.991286 -0.202074
v 0.107013 0.964277 -0.148056
v 0.116908 0.958972 -0.0551699
f 1 2 3
f 2 4 5
f 3 5 6
f 2 5 3
f 4 7 8
f 7 9 10
f 8 10 11
f 7 10 8
f 6 12 13
f 14 15 16
f 17 16 18
f 14 16 17
f 4 8 5
f 8 11 12
f 5 12 6
f 8 12 5
f 1 3 19
f 3 6 20
f 19 20 21
f 3 20 19
f 22 17 23
f 17 18 24
f 23 24 25
f 17 24 23
f 21 26 27
f 28 25 29
f 30 29 31
f 28 29 30
f 6 32 20
f 23 25 28
f 20 26 21
f 32 26 20
f 1 19 33
f 19 21 34
f 33 34 35
f 19 34 33
f 21 27 36
f 27 37 38
f 36 38 39
f 27 38 36
f 35 40 41
f 40 39 42
f 41 42 43
f 40 42 41
f 21 36 34
f 36 39 40
f 34 40 35
f 36 40 34
f 1 33 44
f 33 35 45
f 44 45 46
f 33 45 44
f 35 41 47
f 41 43 48
f 47 48 49
f 41 48 47
f 46 50 51
f 50 49 52
f 51 52 53
f 50 52 51
f 35 47 45
f 47 49 50
f 45 50 46
f 47 50 45
f 1 44 2
f 44 46 54
f 2 54 4
f 44 54 2
f 46 51 55
f 51 53 56
f 55 56 57
f 51 56 55
f 4 58 7
f 58 57 59
f 7 59 9
f 58 59 7
f 46 55 54
f 55 57 58
f 54 58 4
f 55 58 54
f 9 60 10
f 61 62 63
f 64 63 15
f 61 63 64
f 62 65 66
f 65 67 68
f 66 68 69
f 65 68 66
f 15 70 16
f 70 69 71
f 16 71 18
f 70 71 16
f 62 66 63
f 66 69 70
f 63 70 15
f 66 70 63
f 18 71 72
f 71 69 73
f 72 73 74
f 71 73 72
f 69 68 75
f 68 67 76
f 75 76 77
f 68 76 75
f 74 78 79
f 78 77 80
f 79 80 81
f 78 80 79
f 69 75 73
f 75 77 78
f 73 78 74
f 75 78 73
f 18 72 24
f 72 74 82
f 24 82 25
f 72 82 24
f 74 79 83
f 79 81 84
f 83 84 85
f 79 84 83
f 25 86 29
f 86 85 87
f 29 87 31
f 86 87 29
f 74 83 82
f 83 85 86
f 82 86 25
f 83 86 82
f 31 87 88
f 87 85 89
f 88 89 90
f 87 89 88
f 85 84 91
f 84 81 92
f 91 92 93
f 84 92 91
f 90 94 95
f 94 93 96
f 95 96 97
f 94 96 95
f 85 91 89
f 91 93 94
f 89 94 90
f 91 94 89
f 31 88 98
f 88 90 99
f 38 100 39
f 101 100 38
f 90 95 102
f 95 97 103
f 104 105 106
f 95 103 102
f 39 107 42
f 107 106 108
f 42 108 43
f 107 108 42
f 90 102 99
f 104 106 107
f 100 107 39
f 104 107 100
f 43 108 109
f 108 106 110
f 109 110 111
f 108 110 109
f 106 105 112
f 103 97 113
f 112 114 115
f 105 114 112
f 111 116 117
f 116 115 118
f 117 118 119
f 116 118 117
f 106 112 110
f 112 115 116
f 110 116 111
f 112 116 110
f 43 109 48
f 109 111 120
f 48 120 49
f 109 120 48
f 111 117 121
f 117 119 122
f 121 122 123
f 117 122 121
f 49 124 52
f 124 123 125
f 52 125 53
f 124 125 52
f 111 121 120
f 121 123 124
f 120 124 49
f 121 124 120
f 53 125 126
f 125 123 127
f 126 127 128
f 125 127 126
f 123 122 129
f 122 119 130
f 129 130 131
f 122 130 129
f 128 132 133
f 132 131 134
f 133 134 135
f 132 134 133
f 123 129 127
f 129 131 132
f 127 132 128
f 129 132 127
f 53 126 56
f 126 128 136
f 56 136 57
f 126 136 56
f 128 133 137
f 133 135 138
f 137 138 139
f 133 138 137
f 57 140 59
f 140 139 141
f 59 141 9
f 140 141 59
f 128 137 136
f 137 139 140
f 136 140 57
f 137 140 136
f 9 141 60
f 141 139 142
f 61 143 62
f 141 142 60
f 139 138 144
f 138 135 145
f 146 147 148
f 149 147 146
f 62 150 65
f 150 148 151
f 65 151 67
f 150 151 65
f 139 144 142
f 146 148 150
f 143 150 62
f 146 150 143
f 152 153 154
f 153 155 156
f 154 156 157
f 153 156 154
f 155 158 159
f 158 81 80
f 159 80 77
f 158 80 159
f 157 160 161
f 160 77 76
f 161 76 67
f 160 76 161
f 155 159 156
f 159 77 160
f 156 160 157
f 159 160 156
f 152 162 153
f 162 163 164
f 153 164 155
f 162 164 153
f 163 165 166
f 165 97 96
f 166 96 93
f 165 96 166
f 155 167 158
f 167 93 92
f 158 92 81
f 167 92 158
f 163 166 164
f 166 93 167
f 164 167 155
f 166 167 164
f 152 168 162
f 168 169 170
f 162 170 163
f 168 170 162
f 169 171 172
f 173 119 118
f 174 118 115
f 173 118 174
f 163 175 165
f 175 176 113
f 165 113 97
f 175 113 165
f 169 172 170
f 172 176 175
f 170 175 163
f 172 175 170
f 152 177 168
f 177 178 179
f 168 179 169
f 177 179 168
f 178 180 181
f 182 135 134
f 183 134 131
f 182 134 183
f 184 185 173
f 185 131 130
f 173 130 119
f 185 130 173
f 178 181 179
f 183 131 185
f 179 186 169
f 181 186 179
f 152 154 177
f 154 157 187
f 177 187 178
f 154 187 177
f 157 161 188
f 161 67 151
f 188 151 148
f 161 151 188
f 178 189 180
f 189 148 147
f 180 147 190
f 189 147 180
f 157 188 187
f 188 148 189
f 187 189 178
f 188 189 187
f 10 64 11
f 11 64 15
f 12 14 13
f 13 14 17
f 13 17 6
f 6 17 22
f 11 15 12
f 12 15 14
f 26 28 27
f 27 28 30
f 6 22 32
f 32 22 23
f 32 23 26
f 26 23 28
f 27 30 37
f 37 30 31
f 37 31 38
f 38 31 98
f 60 61 10
f 10 61 64
f 101 88 100
f 100 88 99
f 38 98 101
f 101 98 88
f 104 102 105
f 105 102 103
f 100 99 104
f 104 99 102
f 114 113 115
f 115 113 176
f 105 103 114
f 114 103 113
f 142 143 60
f 60 143 61
f 138 149 144
f 144 149 146
f 135 190 145
f 145 190 147
f 145 147 138
f 138 147 149
f 144 146 142
f 142 146 143
f 115 176 174
f 174 176 172
f 174 172 173
f 173 172 171
f 182 180 135
f 135 180 190
f 183 181 182
f 182 181 180
f 184 169 185
f 185 169 186
f 173 171 184
f 184 171 169
f 185 186 183
f 183 186 181
