v 0.826557 1.16622 0.267557
v 0.861427 1.1224 0.263083
v 0.855844 1.17119 0.219875
v 0.884694 1.07297 0.25
v 0.888089 1.12357 0.211445
v 0.873953 1.16683 0.166875
v 0.894586 1.02169 0.229305
v 0.907802 1.06369 0.191364
v 0.890351 0.972457 0.202573
v 0.908493 1.01128 0.166244
v 0.91145 1.05294 0.128678
v 0.873953 1.18052 0.0868747
v 0.902156 1.12673 0.0676619
v 0.879506 1.16717 0.0325893
v 0.91145 1.06663 0.0486781
v 0.898996 1.10797 0.0127353
v 0.872078 1.14584 -0.0188482
v 0.902156 1.11304 0.147662
v 0.803604 1.20693 0.236379
v 0.829605 1.20906 0.184436
v 0.77345 1.23559 0.198626
v 0.843671 1.21222 0.0406528
v 0.841173 1.1925 -0.0139682
v 0.800207 1.22925 -0.00269625
v 0.77345 1.24928 0.118626
v 0.790834 1.24837 0.0573454
v 0.73839 1.26371 0.0771708
v 0.752297 1.2533 0.0141096
v 0.701092 1.26281 0.03517
v 0.829605 1.22275 0.104436
v 0.776901 1.18022 0.289786
v 0.749758 1.2182 0.255146
v 0.722076 1.18421 0.301374
v 0.73839 1.25002 0.157171
v 0.710987 1.24381 0.208056
v 0.673354 1.26233 0.0840204
v 0.673354 1.24864 0.16402
v 0.648329 1.23294 0.211804
v 0.710987 1.2575 0.128056
v 0.683978 1.2168 0.262074
v 0.666255 1.17788 0.301439
v 0.627923 1.20321 0.254882
v 0.613689 1.16172 0.289976
v 0.812637 1.12798 0.30629
v 0.758894 1.13835 0.325857
v 0.790828 1.08371 0.333126
v 0.693114 1.13696 0.332785
v 0.636956 1.12427 0.324793
v 0.665707 1.08106 0.346303
v 0.729259 1.08412 0.349477
v 0.76279 1.03677 0.346021
v 0.697754 1.03539 0.35287
v 0.730657 0.990729 0.343995
v 0.844387 1.07986 0.298848
v 0.814752 1.02564 0.322468
v 0.78228 0.977567 0.326167
v 0.828325 0.969818 0.294929
v 0.8641 1.01999 0.278767
v 0.865286 0.96807 0.252658
v 0.887789 0.951228 0.150623
v 0.887789 0.964918 0.0706232
v 0.871618 0.951107 0.0186257
v 0.900928 1.00612 0.0317813
v 0.908493 1.02497 0.0862439
v 0.900928 0.992428 0.111781
v 0.843068 0.945764 -0.0294609
v 0.87434 0.99473 -0.0277197
v 0.804312 0.949296 -0.0699763
v 0.837485 0.994554 -0.0726682
v 0.860878 1.04497 -0.0644997
v 0.895281 1.05547 -0.0119203
v 0.872709 1.09671 -0.0460926
v 0.836973 1.14895 -0.0625963
v 0.832549 1.09692 -0.0881139
v 0.792126 1.14548 -0.0962507
v 0.811608 1.03618 -0.103913
v 0.781045 0.986746 -0.104793
v 0.752293 1.02995 -0.126303
v 0.775462 1.08902 -0.120606
v 0.740951 1.13567 -0.11725
v 0.720246 1.07562 -0.13287
v 0.687343 1.12028 -0.123994
v 0.800652 1.1938 -0.0556219
v 0.743566 1.1859 -0.0881139
v 0.688711 1.17141 -0.100746
v 0.691622 1.21423 -0.0644997
v 0.747814 1.22994 -0.0389293
v 0.695857 1.24549 -0.0180148
v 0.647067 1.25107 0.0251924
v 0.64138 1.22769 -0.0277197
v 0.597757 1.22497 0.0186257
v 0.637131 1.18365 -0.0769042
v 0.63572 1.13344 -0.106167
v 0.589675 1.14119 -0.0749287
v 0.587783 1.18929 -0.0332026
v 0.556915 1.18649 0.0159699
v 0.552714 1.14294 -0.0326582
v 0.52765 1.13855 0.0174269
v 0.618619 1.24472 0.075483
v 0.648329 1.24663 0.131803
v 0.565023 1.20633 0.0700001
v 0.530211 1.15978 0.069377
v 0.546382 1.17359 0.121374
v 0.59161 1.20403 0.209501
v 0.546382 1.1599 0.201374
v 0.574933 1.16525 0.249461
v 0.565023 1.19264 0.15
v 0.618619 1.23103 0.155483
v 0.59161 1.21772 0.129501
v 0.580515 1.11646 0.292668
v 0.54366 1.11628 0.24772
v 0.557123 1.06604 0.2845
v 0.530211 1.14609 0.149377
v 0.517073 1.10489 0.188219
v 0.509507 1.09973 0.0537562
v 0.509507 1.08604 0.133756
v 0.50655 1.04438 0.171322
v 0.517073 1.11858 0.108219
v 0.522719 1.05555 0.23192
v 0.545291 1.0143 0.266093
v 0.519005 1.00304 0.207265
v 0.545922 0.965171 0.238848
v 0.606393 1.07483 0.323913
v 0.585452 1.0141 0.308114
v 0.581028 0.962057 0.282596
v 0.625875 0.965535 0.316251
v 0.642538 1.02199 0.340606
v 0.67705 0.975341 0.33725
v 0.72929 0.939605 0.320746
v 0.674435 0.925112 0.308114
v 0.726378 0.896783 0.2845
v 0.617348 0.917215 0.275622
v 0.576827 0.918512 0.233968
v 0.617794 0.881761 0.222696
v 0.670186 0.881069 0.258929
v 0.722144 0.865523 0.238015
v 0.665703 0.857714 0.205891
v 0.716909 0.848203 0.18483
v 0.780869 0.927364 0.296904
v 0.776621 0.883321 0.24772
v 0.770933 0.85994 0.194808
v 0.820244 0.886043 0.201374
v 0.830217 0.921717 0.253203
v 0.861086 0.924525 0.20403
v 0.852978 0.904683 0.15
v 0.871618 0.937417 0.0986258
v 0.799381 0.866287 0.144517
v 0.744647 0.848681 0.13598
v 0.769671 0.864383 0.0881967
v 0.82639 0.906986 0.010499
v 0.769671 0.878073 0.00819663
v 0.790077 0.907802 -0.0348818
v 0.799381 0.879977 0.0645171
v 0.852978 0.918373 0.07
v 0.82639 0.893296 0.090499
v 0.591443 0.944794 -0.047557
v 0.605363 0.98303 -0.0862898
v 0.641099 0.93079 -0.0697861
v 0.627172 1.0273 -0.113125
v 0.659106 0.972663 -0.105857
v 0.695925 0.926801 -0.0813743
v 0.65521 1.07425 -0.126021
v 0.688741 1.02689 -0.129477
v 0.724886 0.974054 -0.112785
v 0.751745 0.93313 -0.0814393
v 0.556573 0.988612 -0.0430826
v 0.533307 1.03804 -0.03
v 0.573613 1.03115 -0.0788478
v 0.523415 1.08933 -0.00930498
v 0.5539 1.09102 -0.0587666
v 0.603248 1.08538 -0.102468
v 0.562156 0.939823 0.000124648
v 0.544047 0.944179 0.0531254
v 0.529912 0.987445 0.00855542
v 0.544047 0.930489 0.133125
v 0.538495 0.94384 0.187411
v 0.515845 0.984283 0.152338
v 0.510198 1.04732 0.0286366
v 0.50655 1.05807 0.091322
v 0.515845 0.997973 0.0723382
v 0.614396 0.904086 -0.0163791
v 0.64455 0.875426 0.0213743
v 0.588396 0.901952 0.0355645
v 0.64455 0.861736 0.101374
v 0.679611 0.847306 0.142829
v 0.627167 0.862644 0.162655
v 0.574329 0.898789 0.179347
v 0.588396 0.888262 0.115565
v 0.668243 0.892816 -0.0351462
v 0.734023 0.894207 -0.0420741
v 0.707014 0.867198 0.011944
v 0.679611 0.860996 0.0628293
v 0.744647 0.862371 0.0559797
v 0.707014 0.853508 0.0919441
f 1 2 3
f 2 4 5
f 3 5 6
f 2 5 3
f 4 7 8
f 7 9 10
f 8 10 11
f 7 10 8
f 12 13 14
f 13 15 16
f 14 16 17
f 13 16 14
f 4 8 5
f 8 11 18
f 5 18 6
f 8 18 5
f 1 3 19
f 3 6 20
f 19 20 21
f 3 20 19
f 12 14 22
f 14 17 23
f 22 23 24
f 14 23 22
f 25 26 27
f 26 24 28
f 27 28 29
f 26 28 27
f 12 22 30
f 22 24 26
f 30 26 25
f 22 26 30
f 1 19 31
f 19 21 32
f 31 32 33
f 19 32 31
f 21 34 35
f 27 29 36
f 35 37 38
f 27 36 39
f 33 40 41
f 40 38 42
f 41 42 43
f 40 42 41
f 21 35 32
f 35 38 40
f 32 40 33
f 35 40 32
f 1 31 44
f 31 33 45
f 44 45 46
f 31 45 44
f 33 41 47
f 41 43 48
f 47 48 49
f 41 48 47
f 46 50 51
f 50 49 52
f 51 52 53
f 50 52 51
f 33 47 45
f 47 49 50
f 45 50 46
f 47 50 45
f 1 44 2
f 44 46 54
f 2 54 4
f 44 54 2
f 46 51 55
f 51 53 56
f 55 56 57
f 51 56 55
f 4 58 7
f 58 57 59
f 7 59 9
f 58 59 7
f 46 55 54
f 55 57 58
f 54 58 4
f 55 58 54
f 9 60 10
f 61 62 63
f 64 63 15
f 60 65 10
f 62 66 67
f 66 68 69
f 67 69 70
f 66 69 67
f 15 71 16
f 71 70 72
f 16 72 17
f 71 72 16
f 62 67 63
f 67 70 71
f 63 71 15
f 67 71 63
f 17 72 73
f 72 70 74
f 73 74 75
f 72 74 73
f 70 69 76
f 69 68 77
f 76 77 78
f 69 77 76
f 75 79 80
f 79 78 81
f 80 81 82
f 79 81 80
f 70 76 74
f 76 78 79
f 74 79 75
f 76 79 74
f 17 73 23
f 73 75 83
f 23 83 24
f 73 83 23
f 75 80 84
f 80 82 85
f 84 85 86
f 80 85 84
f 24 87 28
f 87 86 88
f 28 88 29
f 87 88 28
f 75 84 83
f 84 86 87
f 83 87 24
f 84 87 83
f 29 88 89
f 88 86 90
f 89 90 91
f 88 90 89
f 86 85 92
f 85 82 93
f 92 93 94
f 85 93 92
f 91 95 96
f 95 94 97
f 96 97 98
f 95 97 96
f 86 92 90
f 92 94 95
f 90 95 91
f 92 95 90
f 29 89 36
f 89 91 99
f 36 99 100
f 89 99 36
f 91 96 101
f 96 98 102
f 101 102 103
f 96 102 101
f 38 104 42
f 104 105 106
f 42 106 43
f 104 106 42
f 91 101 99
f 107 105 104
f 108 104 38
f 101 109 99
f 43 106 110
f 106 105 111
f 110 111 112
f 106 111 110
f 105 113 114
f 102 98 115
f 114 116 117
f 102 115 118
f 112 119 120
f 119 117 121
f 120 121 122
f 119 121 120
f 105 114 111
f 114 117 119
f 111 119 112
f 114 119 111
f 43 110 48
f 110 112 123
f 48 123 49
f 110 123 48
f 112 120 124
f 120 122 125
f 124 125 126
f 120 125 124
f 49 127 52
f 127 126 128
f 52 128 53
f 127 128 52
f 112 124 123
f 124 126 127
f 123 127 49
f 124 127 123
f 53 128 129
f 128 126 130
f 129 130 131
f 128 130 129
f 126 125 132
f 125 122 133
f 132 133 134
f 125 133 132
f 131 135 136
f 135 134 137
f 136 137 138
f 135 137 136
f 126 132 130
f 132 134 135
f 130 135 131
f 132 135 130
f 53 129 56
f 129 131 139
f 56 139 57
f 129 139 56
f 131 136 140
f 136 138 141
f 140 141 142
f 136 141 140
f 57 143 59
f 143 142 144
f 59 144 9
f 143 144 59
f 131 140 139
f 140 142 143
f 139 143 57
f 140 143 139
f 9 144 60
f 144 142 145
f 60 145 146
f 144 145 60
f 142 141 147
f 141 138 148
f 147 148 149
f 141 148 147
f 62 150 66
f 150 151 152
f 66 152 68
f 150 152 66
f 142 147 145
f 153 151 150
f 154 150 62
f 147 155 145
f 156 157 158
f 157 159 160
f 158 160 161
f 157 160 158
f 159 162 163
f 162 82 81
f 163 81 78
f 162 81 163
f 161 164 165
f 164 78 77
f 165 77 68
f 164 77 165
f 159 163 160
f 163 78 164
f 160 164 161
f 163 164 160
f 156 166 157
f 166 167 168
f 157 168 159
f 166 168 157
f 167 169 170
f 169 98 97
f 170 97 94
f 169 97 170
f 159 171 162
f 171 94 93
f 162 93 82
f 171 93 162
f 167 170 168
f 170 94 171
f 168 171 159
f 170 171 168
f 156 172 166
f 172 173 174
f 166 174 167
f 172 174 166
f 175 176 177
f 176 122 121
f 177 121 117
f 176 121 177
f 167 178 169
f 178 179 115
f 169 115 98
f 178 115 169
f 173 180 174
f 180 179 178
f 174 178 167
f 180 178 174
f 156 181 172
f 181 182 183
f 172 183 173
f 181 183 172
f 184 185 186
f 185 138 137
f 186 137 134
f 185 137 186
f 175 187 176
f 187 134 133
f 176 133 122
f 187 133 176
f 184 186 188
f 186 134 187
f 188 187 175
f 186 187 188
f 156 158 181
f 158 161 189
f 181 189 182
f 158 189 181
f 161 165 190
f 165 68 152
f 190 152 151
f 165 152 190
f 182 191 192
f 191 151 193
f 185 148 138
f 194 148 185
f 161 190 189
f 190 151 191
f 189 191 182
f 190 191 189
f 12 6 13
f 13 6 18
f 13 18 15
f 15 18 11
f 27 34 25
f 25 34 21
f 30 20 12
f 12 20 6
f 25 21 30
f 30 21 20
f 36 37 39
f 39 37 35
f 39 35 27
f 27 35 34
f 61 60 62
f 62 60 146
f 63 65 61
f 61 65 60
f 64 10 63
f 63 10 65
f 15 11 64
f 64 11 10
f 99 108 100
f 100 108 38
f 100 38 36
f 36 38 37
f 102 113 103
f 103 113 105
f 103 105 101
f 101 105 107
f 101 107 109
f 109 107 104
f 109 104 99
f 99 104 108
f 115 116 118
f 118 116 114
f 118 114 102
f 102 114 113
f 153 147 151
f 151 147 149
f 150 155 153
f 153 155 147
f 154 145 150
f 150 145 155
f 62 146 154
f 154 146 145
f 179 117 115
f 115 117 116
f 173 175 180
f 180 175 177
f 180 177 179
f 179 177 117
f 182 184 183
f 183 184 188
f 183 188 173
f 173 188 175
f 191 194 192
f 192 194 185
f 192 185 182
f 182 185 184
f 151 149 193
f 193 149 148
f 193 148 191
f 191 148 194
