v 0.226557 1.27699 0.0275571
v 0.261427 1.23317 0.0230827
v 0.255844 1.28196 -0.0201246
v 0.284693 1.18374 0.0100001
v 0.288089 1.23434 -0.0285553
v 0.273953 1.2776 -0.0731253
v 0.294586 1.13245 -0.0106949
v 0.307802 1.17446 -0.0486365
v 0.29035 1.08323 -0.0374269
v 0.308493 1.12205 -0.0737562
v 0.31145 1.16371 -0.111322
v 0.302155 1.22381 -0.0923381
v 0.279505 1.26425 -0.127411
v 0.302155 1.20137 -0.172338
v 0.31145 1.14128 -0.191322
v 0.298996 1.18262 -0.227265
v 0.279505 1.24182 -0.207411
v 0.272078 1.22049 -0.258848
v 0.203604 1.31769 -0.00362088
v 0.229604 1.31983 -0.0555644
v 0.17345 1.34635 -0.0413743
v 0.243671 1.3093 -0.119347
v 0.241173 1.26715 -0.253968
v 0.243671 1.28687 -0.199347
v 0.200207 1.3039 -0.242696
v 0.190833 1.34545 -0.102655
v 0.138389 1.36078 -0.0828292
v 0.200207 1.32633 -0.162696
v 0.152297 1.35038 -0.14589
v 0.101092 1.35989 -0.12483
v 0.176901 1.29099 0.0497862
v 0.149758 1.32896 0.0151463
v 0.122076 1.29498 0.0613744
v 0.110987 1.35458 -0.0319439
v 0.0733535 1.35941 -0.0759797
v 0.0483289 1.34371 -0.0281965
v 0.0839776 1.32757 0.0220742
v 0.0662551 1.28865 0.0614394
v 0.0279228 1.31398 0.0148819
v 0.0136885 1.27248 0.0499764
v 0.212637 1.23875 0.0662899
v 0.158894 1.24912 0.085857
v 0.190828 1.19448 0.0931254
v 0.0931137 1.24773 0.0927849
v 0.0369556 1.23503 0.0847927
v 0.0657069 1.19183 0.106303
v 0.129259 1.19489 0.109477
v 0.16279 1.14753 0.106021
v 0.0977538 1.14616 0.11287
v 0.130657 1.1015 0.103995
v 0.244387 1.19063 0.0588479
v 0.214752 1.1364 0.0824683
v 0.18228 1.08834 0.0861669
v 0.228325 1.08059 0.0549288
v 0.2641 1.13076 0.0387667
v 0.265286 1.07884 0.0126583
v 0.29035 1.06079 -0.117427
v 0.287789 1.03956 -0.169377
v 0.308493 1.09961 -0.153756
v 0.271618 1.02575 -0.221374
v 0.300928 1.08076 -0.208219
v 0.243068 1.02041 -0.269461
v 0.27434 1.06938 -0.26772
v 0.204312 1.02394 -0.309976
v 0.237485 1.0692 -0.312668
v 0.260878 1.11962 -0.3045
v 0.295281 1.13011 -0.25192
v 0.272709 1.17136 -0.286093
v 0.236973 1.2236 -0.302596
v 0.232548 1.17156 -0.328114
v 0.192125 1.22012 -0.336251
v 0.211607 1.11083 -0.343913
v 0.181045 1.06139 -0.344793
v 0.152293 1.1046 -0.366303
v 0.175462 1.16366 -0.360606
v 0.14095 1.21032 -0.35725
v 0.120246 1.15027 -0.37287
v 0.0873432 1.19493 -0.363994
v 0.200652 1.26844 -0.295622
v 0.143566 1.26055 -0.328114
v 0.0887104 1.24605 -0.340746
v 0.0916221 1.28887 -0.3045
v 0.147814 1.30459 -0.278929
v 0.152297 1.32794 -0.22589
v 0.0958566 1.32013 -0.258015
v 0.101092 1.33745 -0.20483
v 0.0470668 1.32572 -0.214808
v 0.0413797 1.30234 -0.26772
v -0.00224348 1.29961 -0.221374
v 0.0371312 1.25829 -0.316904
v 0.0357201 1.20809 -0.346167
v -0.0103246 1.21584 -0.314929
v -0.0122168 1.26394 -0.273203
v -0.0430856 1.26113 -0.22403
v -0.047286 1.21759 -0.272658
v -0.0723504 1.2132 -0.222573
v 0.0470668 1.34815 -0.134808
v -0.00224348 1.32205 -0.141374
v 0.0186192 1.3418 -0.0845171
v -0.0430856 1.28357 -0.14403
v -0.0349774 1.30341 -0.09
v -0.0697891 1.23443 -0.170623
v -0.0697891 1.25686 -0.0906231
v -0.0536178 1.27067 -0.0386256
v -0.00838992 1.31479 -0.0304989
v -0.0250675 1.27602 0.00946102
v -0.0194849 1.22723 0.0526683
v -0.05634 1.22705 0.0077198
v -0.0428776 1.17681 0.0444997
v -0.0829275 1.21566 -0.0517813
v -0.0723504 1.23563 -0.142573
v -0.0904933 1.19681 -0.106244
v -0.09345 1.15515 -0.068678
v -0.0772811 1.16631 -0.00807966
v -0.0547089 1.12507 0.0260927
v -0.0809956 1.11381 -0.0327353
v -0.0540782 1.07594 -0.00115173
v 0.00639266 1.1856 0.0839134
v -0.0145484 1.12486 0.0681139
v -0.0189726 1.07283 0.0425964
v 0.0258746 1.0763 0.0762508
v 0.0425379 1.13276 0.100606
v 0.0770497 1.08611 0.0972497
v 0.12929 1.05037 0.080746
v 0.0744346 1.03588 0.0681139
v 0.126378 1.00755 0.0444997
v 0.0173483 1.02798 0.0356219
v -0.0231731 1.02928 -0.00603173
v 0.0177935 0.99253 -0.0173037
v 0.0701861 0.991838 0.0189294
v 0.122143 0.976292 -0.00198513
v 0.065703 0.968483 -0.0341095
v 0.116908 0.958972 -0.0551699
v 0.180869 1.03813 0.0569043
v 0.17662 0.99409 0.00771976
v 0.170933 0.970709 -0.0451923
v 0.220244 0.996812 -0.0386257
v 0.230217 1.03249 0.0132027
v 0.261086 1.03529 -0.0359698
v 0.287789 1.062 -0.0893769
v 0.261086 1.01286 -0.11597
v 0.220244 0.974379 -0.118626
v 0.252977 0.993019 -0.17
v 0.170933 0.948276 -0.125192
v 0.199381 0.954623 -0.175483
v 0.116908 0.936539 -0.13517
v 0.144647 0.937017 -0.18402
v 0.169671 0.952719 -0.231803
v 0.22639 0.981632 -0.229501
v 0.190077 0.982448 -0.274882
v -0.00855704 1.01944 -0.287557
v 0.00536297 1.05768 -0.32629
v 0.0410993 1.00544 -0.309786
v 0.0271721 1.10195 -0.353125
v 0.0591063 1.04731 -0.345857
v 0.0959244 1.00145 -0.321374
v 0.0552104 1.14889 -0.366021
v 0.0887411 1.10154 -0.369477
v 0.124886 1.0487 -0.352785
v 0.151745 1.00778 -0.321439
v -0.0434268 1.06326 -0.283083
v -0.0666934 1.11269 -0.27
v -0.0263869 1.10579 -0.318848
v -0.0765856 1.16397 -0.249305
v -0.0461002 1.16567 -0.298767
v 0.00324788 1.16002 -0.342468
v -0.0378443 1.01447 -0.239875
v -0.0559532 1.01882 -0.186875
v -0.0700885 1.06209 -0.231445
v -0.0615054 1.03218 -0.132589
v -0.0841554 1.07262 -0.167662
v -0.0615054 1.05461 -0.0525892
v -0.0841554 1.09505 -0.0876618
v -0.0898018 1.12197 -0.211363
v -0.09345 1.13271 -0.148678
v -0.0904933 1.17438 -0.186244
v 0.0143958 0.978732 -0.256379
v 0.0445501 0.950072 -0.218626
v -0.0116044 0.976598 -0.204436
v 0.0796106 0.935642 -0.177171
v 0.0271666 0.95098 -0.157345
v 0.065703 0.94605 -0.11411
v 0.0177935 0.970097 -0.0973037
v -0.0256712 0.987125 -0.140653
v -0.0256712 1.00956 -0.0606528
v 0.0682425 0.967462 -0.275146
v 0.134022 0.968853 -0.282074
v 0.107013 0.941844 -0.228056
f 1 2 3
f 2 4 5
f 3 5 6
f 2 5 3
f 4 7 8
f 7 9 10
f 8 10 11
f 7 10 8
f 6 12 13
f 14 15 16
f 17 16 18
f 14 16 17
f 4 8 5
f 8 11 12
f 5 12 6
f 8 12 5
f 1 3 19
f 3 6 20
f 19 20 21
f 3 20 19
f 6 13 22
f 17 18 23
f 24 23 25
f 17 23 24
f 21 26 27
f 26 28 29
f 27 29 30
f 26 29 27
f 6 22 20
f 22 28 26
f 20 26 21
f 22 26 20
f 1 19 31
f 19 21 32
f 31 32 33
f 19 32 31
f 21 27 34
f 27 30 35
f 34 35 36
f 27 35 34
f 33 37 38
f 37 36 39
f 38 39 40
f 37 39 38
f 21 34 32
f 34 36 37
f 32 37 33
f 34 37 32
f 1 31 41
f 31 33 42
f 41 42 43
f 31 42 41
f 33 38 44
f 38 40 45
f 44 45 46
f 38 45 44
f 43 47 48
f 47 46 49
f 48 49 50
f 47 49 48
f 33 44 42
f 44 46 47
f 42 47 43
f 44 47 42
f 1 41 2
f 41 43 51
f 2 51 4
f 41 51 2
f 43 48 52
f 48 50 53
f 52 53 54
f 48 53 52
f 4 55 7
f 55 54 56
f 7 56 9
f 55 56 7
f 43 52 51
f 52 54 55
f 51 55 4
f 52 55 51
f 57 58 59
f 58 60 61
f 59 61 15
f 58 61 59
f 60 62 63
f 62 64 65
f 63 65 66
f 62 65 63
f 15 67 16
f 67 66 68
f 16 68 18
f 67 68 16
f 60 63 61
f 63 66 67
f 61 67 15
f 63 67 61
f 18 68 69
f 68 66 70
f 69 70 71
f 68 70 69
f 66 65 72
f 65 64 73
f 72 73 74
f 65 73 72
f 71 75 76
f 75 74 77
f 76 77 78
f 75 77 76
f 66 72 70
f 72 74 75
f 70 75 71
f 72 75 70
f 18 69 23
f 69 71 79
f 23 79 25
f 69 79 23
f 71 76 80
f 76 78 81
f 80 81 82
f 76 81 80
f 25 83 84
f 83 82 85
f 84 85 86
f 83 85 84
f 71 80 79
f 80 82 83
f 79 83 25
f 80 83 79
f 86 85 87
f 85 82 88
f 87 88 89
f 85 88 87
f 82 81 90
f 81 78 91
f 90 91 92
f 81 91 90
f 89 93 94
f 93 92 95
f 94 95 96
f 93 95 94
f 82 90 88
f 90 92 93
f 88 93 89
f 90 93 88
f 30 97 35
f 97 98 99
f 35 99 36
f 97 99 35
f 98 100 101
f 94 96 102
f 101 103 104
f 100 103 101
f 36 105 39
f 105 104 106
f 39 106 40
f 105 106 39
f 98 101 99
f 101 104 105
f 99 105 36
f 101 105 99
f 40 106 107
f 106 104 108
f 107 108 109
f 106 108 107
f 104 103 110
f 103 111 112
f 110 112 113
f 103 112 110
f 109 114 115
f 114 113 116
f 115 116 117
f 114 116 115
f 104 110 108
f 110 113 114
f 108 114 109
f 110 114 108
f 40 107 45
f 107 109 118
f 45 118 46
f 107 118 45
f 109 115 119
f 115 117 120
f 119 120 121
f 115 120 119
f 46 122 49
f 122 121 123
f 49 123 50
f 122 123 49
f 109 119 118
f 119 121 122
f 118 122 46
f 119 122 118
f 50 123 124
f 123 121 125
f 124 125 126
f 123 125 124
f 121 120 127
f 120 117 128
f 127 128 129
f 120 128 127
f 126 130 131
f 130 129 132
f 131 132 133
f 130 132 131
f 121 127 125
f 127 129 130
f 125 130 126
f 127 130 125
f 50 124 53
f 124 126 134
f 53 134 54
f 124 134 53
f 126 131 135
f 131 133 136
f 135 136 137
f 131 136 135
f 54 138 56
f 138 137 139
f 56 139 9
f 138 139 56
f 126 135 134
f 135 137 138
f 134 138 54
f 135 138 134
f 9 139 140
f 141 142 143
f 58 143 60
f 141 143 58
f 142 144 145
f 144 146 147
f 145 147 148
f 144 147 145
f 60 149 62
f 149 148 150
f 62 150 64
f 149 150 62
f 142 145 143
f 145 148 149
f 143 149 60
f 145 149 143
f 151 152 153
f 152 154 155
f 153 155 156
f 152 155 153
f 154 157 158
f 157 78 77
f 158 77 74
f 157 77 158
f 156 159 160
f 159 74 73
f 160 73 64
f 159 73 160
f 154 158 155
f 158 74 159
f 155 159 156
f 158 159 155
f 151 161 152
f 161 162 163
f 152 163 154
f 161 163 152
f 162 164 165
f 164 96 95
f 165 95 92
f 164 95 165
f 154 166 157
f 166 92 91
f 157 91 78
f 166 91 157
f 162 165 163
f 165 92 166
f 163 166 154
f 165 166 163
f 151 167 161
f 167 168 169
f 161 169 162
f 167 169 161
f 168 170 171
f 172 117 116
f 173 116 113
f 172 116 173
f 162 174 164
f 174 175 176
f 164 176 96
f 174 176 164
f 168 171 169
f 171 175 174
f 169 174 162
f 171 174 169
f 151 177 167
f 177 178 179
f 167 179 168
f 177 179 167
f 178 180 181
f 180 146 182
f 181 182 183
f 180 182 181
f 168 184 170
f 185 129 128
f 172 128 117
f 185 128 172
f 178 181 179
f 181 183 184
f 179 184 168
f 181 184 179
f 151 153 177
f 153 156 186
f 177 186 178
f 153 186 177
f 156 160 187
f 160 64 150
f 187 150 148
f 160 150 187
f 178 188 180
f 188 148 147
f 180 147 146
f 188 147 180
f 156 187 186
f 187 148 188
f 186 188 178
f 187 188 186
f 9 57 10
f 10 57 59
f 10 59 11
f 11 59 15
f 12 14 13
f 13 14 17
f 11 15 12
f 12 15 14
f 13 17 22
f 22 17 24
f 28 25 29
f 29 25 84
f 29 84 30
f 30 84 86
f 22 24 28
f 28 24 25
f 30 86 97
f 97 86 87
f 97 87 98
f 98 87 89
f 98 89 100
f 100 89 94
f 100 94 103
f 103 94 102
f 103 102 111
f 111 102 96
f 111 96 112
f 112 96 176
f 112 176 113
f 113 176 175
f 129 183 132
f 132 183 182
f 132 182 133
f 133 182 146
f 133 146 136
f 136 146 144
f 136 144 137
f 137 144 142
f 137 142 139
f 139 142 141
f 139 141 140
f 140 141 58
f 140 58 9
f 9 58 57
f 113 175 173
f 173 175 171
f 173 171 172
f 172 171 170
f 185 184 129
f 129 184 183
f 172 170 185
f 185 170 184
