v 0.226557 1.25455 -0.0524429
v 0.261427 1.21074 -0.0569173
v 0.255844 1.25952 -0.100125
v 0.284693 1.1613 -0.0699999
v 0.288089 1.2119 -0.108555
v 0.273953 1.25517 -0.153125
v 0.294586 1.11002 -0.0906949
v 0.307802 1.15203 -0.128636
v 0.29035 1.06079 -0.117427
v 0.308493 1.09961 -0.153756
v 0.31145 1.14128 -0.191322
v 0.302155 1.20137 -0.172338
v 0.279505 1.24182 -0.207411
v 0.302155 1.18392 -0.212338
v 0.31145 1.12382 -0.231322
v 0.298996 1.16516 -0.267265
v 0.279505 1.22436 -0.247411
v 0.272078 1.20303 -0.298848
v 0.203604 1.29526 -0.0836209
v 0.229604 1.2974 -0.135564
v 0.17345 1.32392 -0.121374
v 0.243671 1.28687 -0.199347
v 0.241173 1.24969 -0.293968
v 0.241173 1.26715 -0.253968
v 0.200207 1.3039 -0.242696
v 0.190833 1.32301 -0.182655
v 0.138389 1.33835 -0.162829
v 0.152297 1.32794 -0.22589
v 0.101092 1.33745 -0.20483
v 0.176901 1.26856 -0.0302138
v 0.149758 1.30653 -0.0648537
v 0.122076 1.27255 -0.0186256
v 0.110987 1.33215 -0.111944
v 0.0733535 1.33698 -0.15598
v 0.0483289 1.32127 -0.108197
v 0.0839776 1.30514 -0.0579258
v 0.0662551 1.26622 -0.0185606
v 0.0279228 1.29155 -0.0651181
v 0.0136885 1.25005 -0.0300236
v 0.212637 1.21632 -0.0137101
v 0.158894 1.22668 0.00585698
v 0.190828 1.17204 0.0131254
v 0.0931137 1.22529 0.0127849
v 0.0369556 1.2126 0.00479268
v 0.0657069 1.1694 0.0263032
v 0.129259 1.17246 0.0294774
v 0.16279 1.1251 0.0260209
v 0.0977538 1.12373 0.0328704
v 0.130657 1.07906 0.0239945
v 0.244387 1.1682 -0.0211521
v 0.214752 1.11397 0.00246835
v 0.18228 1.0659 0.00616688
v 0.228325 1.05815 -0.0250712
v 0.2641 1.10833 -0.0412333
v 0.265286 1.05641 -0.0673417
v 0.29035 1.04333 -0.157427
v 0.287789 1.0221 -0.209377
v 0.308493 1.08215 -0.193756
v 0.271618 1.00829 -0.261374
v 0.300928 1.0633 -0.248219
v 0.243068 1.00295 -0.309461
v 0.27434 1.05192 -0.30772
v 0.204312 1.00648 -0.349976
v 0.237485 1.05174 -0.352668
v 0.260878 1.10216 -0.3445
v 0.295281 1.11265 -0.29192
v 0.272709 1.1539 -0.326093
v 0.236973 1.20614 -0.342596
v 0.232548 1.1541 -0.368114
v 0.192125 1.20266 -0.376251
v 0.211607 1.09337 -0.383913
v 0.181045 1.04393 -0.384793
v 0.152293 1.08714 -0.406303
v 0.175462 1.1462 -0.400606
v 0.14095 1.19286 -0.39725
v 0.120246 1.13281 -0.41287
v 0.0873432 1.17747 -0.403994
v 0.200652 1.25098 -0.335622
v 0.200207 1.28644 -0.282696
v 0.143566 1.24309 -0.368114
v 0.0887104 1.22859 -0.380746
v 0.0916221 1.27141 -0.3445
v 0.147814 1.28713 -0.318929
v 0.152297 1.31048 -0.26589
v 0.0958566 1.30268 -0.298015
v 0.0958566 1.32013 -0.258015
v 0.0470668 1.32572 -0.214808
v 0.0413797 1.28488 -0.30772
v 0.0413797 1.30234 -0.26772
v -0.00224348 1.29961 -0.221374
v 0.0371312 1.24083 -0.356904
v 0.0357201 1.19063 -0.386167
v -0.0103246 1.19838 -0.354929
v -0.00224348 1.28215 -0.261374
v -0.0122168 1.24648 -0.313203
v -0.0430856 1.24367 -0.26403
v -0.047286 1.20013 -0.312658
v -0.0723504 1.19574 -0.262573
v 0.0186192 1.31937 -0.164517
v -0.0430856 1.26113 -0.22403
v -0.0349774 1.28097 -0.17
v -0.0723504 1.2132 -0.222573
v -0.0697891 1.23443 -0.170623
v -0.0536178 1.24824 -0.118626
v -0.00838992 1.29236 -0.110499
v -0.0250675 1.25358 -0.070539
v -0.0194849 1.20479 -0.0273317
v -0.05634 1.20462 -0.0722802
v -0.0428776 1.15437 -0.0355002
v -0.0829275 1.19323 -0.131781
v -0.0904933 1.17438 -0.186244
v -0.09345 1.13271 -0.148678
v -0.0772811 1.14388 -0.0880796
v -0.0547089 1.10263 -0.0539073
v -0.0809956 1.09137 -0.112735
v -0.0540782 1.05351 -0.0811517
v 0.00639266 1.16317 0.0039134
v -0.0145484 1.10243 -0.011886
v -0.0189726 1.05039 -0.0374036
v 0.0258746 1.05387 -0.00374918
v 0.0425379 1.11033 0.0206059
v 0.0770497 1.06368 0.0172497
v 0.12929 1.02794 0.000745997
v 0.0744346 1.01345 -0.0118861
v 0.126378 0.985119 -0.0355003
v 0.0173483 1.00555 -0.044378
v -0.0231731 1.00685 -0.0860317
v 0.0177935 0.970097 -0.0973037
v 0.0701861 0.969405 -0.0610706
v 0.122143 0.953858 -0.0819851
v 0.065703 0.94605 -0.11411
v 0.122143 0.936399 -0.121985
v 0.065703 0.92859 -0.15411
v 0.116908 0.919079 -0.17517
v 0.180869 1.0157 -0.0230957
v 0.17662 0.971657 -0.0722802
v 0.170933 0.930816 -0.165192
v 0.17662 0.954197 -0.11228
v 0.220244 0.956919 -0.158626
v 0.230217 1.01005 -0.0667973
v 0.220244 0.974379 -0.118626
v 0.261086 1.01286 -0.11597
v 0.261086 0.995401 -0.15597
v 0.252977 0.97556 -0.21
v 0.199381 0.937163 -0.215483
v 0.144647 0.919558 -0.22402
v 0.169671 0.935259 -0.271803
v 0.22639 0.964172 -0.269501
v 0.190077 0.964989 -0.314882
v -0.00855704 1.00198 -0.327557
v 0.00536297 1.04022 -0.36629
v 0.0410993 0.987976 -0.349786
v 0.0271721 1.08449 -0.393125
v 0.0591063 1.02985 -0.385857
v 0.0959244 0.983987 -0.361374
v 0.0552104 1.13143 -0.406021
v 0.0887411 1.08408 -0.409477
v 0.124886 1.03124 -0.392785
v 0.151745 0.990316 -0.361439
v -0.0434268 1.0458 -0.323083
v -0.0666934 1.09523 -0.31
v -0.0263869 1.08833 -0.358848
v -0.0765856 1.14651 -0.289305
v -0.0461002 1.14821 -0.338767
v 0.00324788 1.14256 -0.382468
v -0.0378443 0.997009 -0.279875
v -0.0559532 1.00136 -0.226875
v -0.0700885 1.04463 -0.271445
v -0.0615054 1.01472 -0.172589
v -0.0841554 1.05516 -0.207662
v -0.0615054 1.03218 -0.132589
v -0.0841554 1.07262 -0.167662
v -0.0898018 1.10451 -0.251363
v -0.09345 1.11525 -0.188678
v -0.0904933 1.15692 -0.226244
v 0.0143958 0.961273 -0.296379
v 0.0445501 0.932613 -0.258626
v -0.0116044 0.959138 -0.244436
v 0.0796106 0.918182 -0.217171
v 0.0271666 0.933521 -0.197345
v 0.0177935 0.952637 -0.137304
v -0.0256712 0.969666 -0.180653
v -0.0231731 0.989389 -0.126032
v 0.0682425 0.950002 -0.315146
v 0.134022 0.951394 -0.322074
v 0.107013 0.924384 -0.268056
f 1 2 3
f 2 4 5
f 3 5 6
f 2 5 3
f 4 7 8
f 7 9 10
f 8 10 11
f 7 10 8
f 6 12 13
f 14 15 16
f 17 16 18
f 14 16 17
f 4 8 5
f 8 11 12
f 5 12 6
f 8 12 5
f 1 3 19
f 3 6 20
f 19 20 21
f 3 20 19
f 6 13 22
f 17 18 23
f 22 24 25
f 13 24 22
f 21 26 27
f 26 25 28
f 27 28 29
f 26 28 27
f 6 22 20
f 22 25 26
f 20 26 21
f 22 26 20
f 1 19 30
f 19 21 31
f 30 31 32
f 19 31 30
f 21 27 33
f 27 29 34
f 33 34 35
f 27 34 33
f 32 36 37
f 36 35 38
f 37 38 39
f 36 38 37
f 21 33 31
f 33 35 36
f 31 36 32
f 33 36 31
f 1 30 40
f 30 32 41
f 40 41 42
f 30 41 40
f 32 37 43
f 37 39 44
f 43 44 45
f 37 44 43
f 42 46 47
f 46 45 48
f 47 48 49
f 46 48 47
f 32 43 41
f 43 45 46
f 41 46 42
f 43 46 41
f 1 40 2
f 40 42 50
f 2 50 4
f 40 50 2
f 42 47 51
f 47 49 52
f 51 52 53
f 47 52 51
f 4 54 7
f 54 53 55
f 7 55 9
f 54 55 7
f 42 51 50
f 51 53 54
f 50 54 4
f 51 54 50
f 56 57 58
f 57 59 60
f 58 60 15
f 57 60 58
f 59 61 62
f 61 63 64
f 62 64 65
f 61 64 62
f 15 66 16
f 66 65 67
f 16 67 18
f 66 67 16
f 59 62 60
f 62 65 66
f 60 66 15
f 62 66 60
f 18 67 68
f 67 65 69
f 68 69 70
f 67 69 68
f 65 64 71
f 64 63 72
f 71 72 73
f 64 72 71
f 70 74 75
f 74 73 76
f 75 76 77
f 74 76 75
f 65 71 69
f 71 73 74
f 69 74 70
f 71 74 69
f 18 68 23
f 68 70 78
f 23 78 79
f 68 78 23
f 70 75 80
f 75 77 81
f 80 81 82
f 75 81 80
f 79 83 84
f 83 82 85
f 28 86 29
f 83 85 84
f 70 80 78
f 80 82 83
f 78 83 79
f 80 83 78
f 29 86 87
f 85 82 88
f 87 89 90
f 86 89 87
f 82 81 91
f 81 77 92
f 91 92 93
f 81 92 91
f 94 95 96
f 95 93 97
f 96 97 98
f 95 97 96
f 82 91 88
f 91 93 95
f 88 95 94
f 91 95 88
f 29 87 34
f 87 90 99
f 34 99 35
f 87 99 34
f 90 100 101
f 100 102 103
f 101 103 104
f 100 103 101
f 35 105 38
f 105 104 106
f 38 106 39
f 105 106 38
f 90 101 99
f 101 104 105
f 99 105 35
f 101 105 99
f 39 106 107
f 106 104 108
f 107 108 109
f 106 108 107
f 104 103 110
f 103 102 111
f 110 111 112
f 103 111 110
f 109 113 114
f 113 112 115
f 114 115 116
f 113 115 114
f 104 110 108
f 110 112 113
f 108 113 109
f 110 113 108
f 39 107 44
f 107 109 117
f 44 117 45
f 107 117 44
f 109 114 118
f 114 116 119
f 118 119 120
f 114 119 118
f 45 121 48
f 121 120 122
f 48 122 49
f 121 122 48
f 109 118 117
f 118 120 121
f 117 121 45
f 118 121 117
f 49 122 123
f 122 120 124
f 123 124 125
f 122 124 123
f 120 119 126
f 119 116 127
f 126 127 128
f 119 127 126
f 125 129 130
f 129 128 131
f 132 133 134
f 129 131 130
f 120 126 124
f 126 128 129
f 124 129 125
f 126 129 124
f 49 123 52
f 123 125 135
f 52 135 53
f 123 135 52
f 125 130 136
f 132 134 137
f 138 137 139
f 132 137 138
f 53 140 55
f 140 141 142
f 55 142 9
f 140 142 55
f 125 136 135
f 136 141 140
f 135 140 53
f 136 140 135
f 56 143 57
f 143 139 144
f 57 144 59
f 143 144 57
f 139 137 145
f 137 134 146
f 145 146 147
f 137 146 145
f 59 148 61
f 148 147 149
f 61 149 63
f 148 149 61
f 139 145 144
f 145 147 148
f 144 148 59
f 145 148 144
f 150 151 152
f 151 153 154
f 152 154 155
f 151 154 152
f 153 156 157
f 156 77 76
f 157 76 73
f 156 76 157
f 155 158 159
f 158 73 72
f 159 72 63
f 158 72 159
f 153 157 154
f 157 73 158
f 154 158 155
f 157 158 154
f 150 160 151
f 160 161 162
f 151 162 153
f 160 162 151
f 161 163 164
f 163 98 97
f 164 97 93
f 163 97 164
f 153 165 156
f 165 93 92
f 156 92 77
f 165 92 156
f 161 164 162
f 164 93 165
f 162 165 153
f 164 165 162
f 150 166 160
f 166 167 168
f 160 168 161
f 166 168 160
f 167 169 170
f 171 116 115
f 172 115 112
f 171 115 172
f 161 173 163
f 173 174 175
f 163 175 98
f 173 175 163
f 167 170 168
f 170 174 173
f 168 173 161
f 170 173 168
f 150 176 166
f 176 177 178
f 166 178 167
f 176 178 166
f 177 179 180
f 179 134 133
f 180 133 181
f 179 133 180
f 167 182 169
f 182 181 183
f 171 127 116
f 182 183 169
f 177 180 178
f 180 181 182
f 178 182 167
f 180 182 178
f 150 152 176
f 152 155 184
f 176 184 177
f 152 184 176
f 155 159 185
f 159 63 149
f 185 149 147
f 159 149 185
f 177 186 179
f 186 147 146
f 179 146 134
f 186 146 179
f 155 185 184
f 185 147 186
f 184 186 177
f 185 186 184
f 9 56 10
f 10 56 58
f 10 58 11
f 11 58 15
f 12 14 13
f 13 14 17
f 11 15 12
f 12 15 14
f 24 23 25
f 25 23 79
f 13 17 24
f 24 17 23
f 25 79 28
f 28 79 84
f 28 84 86
f 86 84 85
f 89 88 90
f 90 88 94
f 86 85 89
f 89 85 88
f 90 94 100
f 100 94 96
f 100 96 102
f 102 96 98
f 102 98 111
f 111 98 175
f 111 175 112
f 112 175 174
f 127 183 128
f 128 183 181
f 128 181 131
f 131 181 133
f 131 133 130
f 130 133 132
f 130 132 136
f 136 132 138
f 141 139 142
f 142 139 143
f 142 143 9
f 9 143 56
f 136 138 141
f 141 138 139
f 112 174 172
f 172 174 170
f 172 170 171
f 171 170 169
f 171 169 127
f 127 169 183
