v 0.226557 1.23709 -0.0924429
v 0.261427 1.19328 -0.0969173
v 0.255844 1.24207 -0.140125
v 0.284693 1.14384 -0.11
v 0.288089 1.19444 -0.148555
v 0.273953 1.23771 -0.193125
v 0.294586 1.09256 -0.130695
v 0.307802 1.13457 -0.168637
v 0.29035 1.04333 -0.157427
v 0.308493 1.08215 -0.193756
v 0.31145 1.12382 -0.231322
v 0.302155 1.18392 -0.212338
v 0.279505 1.22436 -0.247411
v 0.298996 1.16516 -0.267265
v 0.272078 1.20303 -0.298848
v 0.203604 1.2778 -0.123621
v 0.229604 1.27994 -0.175564
v 0.17345 1.30646 -0.161374
v 0.243671 1.26941 -0.239347
v 0.241173 1.24969 -0.293968
v 0.200207 1.28644 -0.282696
v 0.190833 1.30555 -0.222655
v 0.138389 1.32089 -0.202829
v 0.152297 1.31048 -0.26589
v 0.101092 1.31999 -0.24483
v 0.176901 1.2511 -0.0702138
v 0.149758 1.28907 -0.104854
v 0.122076 1.25509 -0.0586256
v 0.110987 1.31469 -0.151944
v 0.0733535 1.31952 -0.19598
v 0.0483289 1.30382 -0.148197
v 0.0839776 1.28768 -0.0979258
v 0.0662551 1.24876 -0.0585606
v 0.0279228 1.27409 -0.105118
v 0.0136885 1.23259 -0.0700236
v 0.212637 1.19886 -0.0537101
v 0.158894 1.20923 -0.034143
v 0.190828 1.15458 -0.0268746
v 0.0931137 1.20783 -0.0272151
v 0.0369556 1.19514 -0.0352073
v 0.0657069 1.15194 -0.0136968
v 0.129259 1.155 -0.0105226
v 0.16279 1.10764 -0.0139792
v 0.0977538 1.10627 -0.00712961
v 0.130657 1.06161 -0.0160055
v 0.244387 1.15074 -0.0611521
v 0.214752 1.09651 -0.0375317
v 0.18228 1.04844 -0.0338331
v 0.228325 1.04069 -0.0650712
v 0.2641 1.09087 -0.0812333
v 0.265286 1.03895 -0.107342
v 0.29035 0.983445 -0.237427
v 0.287789 0.962217 -0.289377
v 0.308493 1.02227 -0.273756
v 0.271618 0.948406 -0.341374
v 0.300928 1.00342 -0.328219
v 0.31145 1.06393 -0.311322
v 0.243068 0.943063 -0.389461
v 0.27434 0.992029 -0.38772
v 0.204312 0.946595 -0.429976
v 0.237485 0.991853 -0.432668
v 0.260878 1.04227 -0.4245
v 0.295281 1.05276 -0.37192
v 0.298996 1.10527 -0.347265
v 0.272709 1.09401 -0.406093
v 0.272078 1.14314 -0.378848
v 0.236973 1.14625 -0.422596
v 0.232548 1.09422 -0.448114
v 0.192125 1.14277 -0.456251
v 0.211607 1.03348 -0.463913
v 0.181045 0.984045 -0.464793
v 0.152293 1.02725 -0.486303
v 0.175462 1.08632 -0.480606
v 0.14095 1.13297 -0.47725
v 0.120246 1.07292 -0.49287
v 0.0873432 1.11758 -0.483994
v 0.241173 1.1898 -0.373968
v 0.200652 1.1911 -0.415622
v 0.200652 1.25098 -0.335622
v 0.143566 1.1832 -0.448114
v 0.0887104 1.16871 -0.460746
v 0.0916221 1.21153 -0.4245
v 0.147814 1.28713 -0.318929
v 0.0916221 1.27141 -0.3445
v 0.0958566 1.30268 -0.298015
v 0.147814 1.22724 -0.398929
v 0.0470668 1.30826 -0.254808
v 0.0413797 1.28488 -0.30772
v -0.00224348 1.28215 -0.261374
v 0.0371312 1.18095 -0.436904
v 0.0357201 1.13074 -0.466167
v -0.0103246 1.13849 -0.434929
v -0.0122168 1.24648 -0.313203
v -0.0430856 1.24367 -0.26403
v -0.0122168 1.18659 -0.393203
v -0.047286 1.14024 -0.392658
v -0.0430856 1.18379 -0.34403
v -0.0723504 1.13585 -0.342573
v 0.0413797 1.22499 -0.38772
v 0.0186192 1.30191 -0.204517
v -0.0349774 1.26351 -0.21
v -0.0723504 1.19574 -0.262573
v -0.0697891 1.21697 -0.210623
v -0.0536178 1.23078 -0.158626
v -0.00838992 1.2749 -0.150499
v -0.0250675 1.23612 -0.110539
v -0.0194849 1.18733 -0.0673317
v -0.05634 1.18716 -0.11228
v -0.0428776 1.13692 -0.0755003
v -0.0829275 1.17577 -0.171781
v -0.0904933 1.15692 -0.226244
v -0.09345 1.11525 -0.188678
v -0.0772811 1.12642 -0.12808
v -0.0547089 1.08517 -0.0939073
v -0.0809956 1.07391 -0.152735
v -0.0540782 1.03605 -0.121152
v 0.00639266 1.14571 -0.0360866
v -0.0145484 1.08497 -0.0518861
v -0.0189726 1.03293 -0.0774036
v 0.0258746 1.03641 -0.0437492
v 0.0425379 1.09287 -0.0193941
v 0.0770497 1.04622 -0.0227503
v 0.12929 1.01048 -0.039254
v 0.0744346 0.995989 -0.0518861
v 0.126378 0.967659 -0.0755003
v 0.0173483 0.988091 -0.0843781
v -0.0231731 0.989389 -0.126032
v 0.0173483 0.928203 -0.164378
v -0.0231731 0.929501 -0.206032
v 0.0177935 0.89275 -0.217304
v 0.126378 0.907772 -0.1555
v 0.0701861 0.892058 -0.181071
v 0.122143 0.876511 -0.201985
v 0.065703 0.868703 -0.23411
v 0.116908 0.859192 -0.25517
v 0.0701861 0.951946 -0.101071
v 0.180869 0.99824 -0.0630957
v 0.17662 0.89431 -0.19228
v 0.170933 0.870929 -0.245192
v 0.220244 0.897032 -0.238626
v 0.230217 0.992594 -0.106797
v 0.230217 0.932706 -0.186797
v 0.261086 0.935514 -0.23597
v 0.261086 0.995401 -0.15597
v 0.17662 0.954197 -0.11228
v 0.252977 0.915672 -0.29
v 0.199381 0.877276 -0.295483
v 0.144647 0.85967 -0.30402
v 0.169671 0.875372 -0.351803
v 0.22639 0.904285 -0.349501
v 0.190077 0.905101 -0.394882
v -0.00855704 0.942093 -0.407557
v 0.00536297 0.980329 -0.44629
v 0.0410993 0.928089 -0.429786
v 0.0271721 1.0246 -0.473125
v 0.0591063 0.969962 -0.465857
v 0.0959244 0.924099 -0.441374
v 0.0552104 1.07154 -0.486021
v 0.0887411 1.02419 -0.489477
v 0.124886 0.971353 -0.472785
v 0.151745 0.930429 -0.441439
v -0.0434268 0.985911 -0.403083
v -0.0666934 1.03534 -0.39
v -0.0263869 1.02845 -0.438848
v -0.0765856 1.08663 -0.369305
v -0.0461002 1.08832 -0.418767
v 0.00324788 1.08267 -0.462468
v -0.0378443 0.937121 -0.359875
v -0.0559532 0.941477 -0.306875
v -0.0700885 0.984744 -0.351445
v -0.0615054 0.954829 -0.252589
v -0.0841554 0.995272 -0.287662
v -0.0540782 0.97616 -0.201152
v -0.0809956 1.01403 -0.232735
v -0.09345 1.05537 -0.268678
v -0.0898018 1.04462 -0.331363
v -0.0904933 1.09703 -0.306244
v 0.0143958 0.901385 -0.376379
v 0.0445501 0.872725 -0.338626
v -0.0116044 0.899251 -0.324436
v 0.0796106 0.858295 -0.297171
v 0.0271666 0.873633 -0.277345
v -0.0256712 0.909778 -0.260653
v 0.0682425 0.890115 -0.395146
v 0.134022 0.891506 -0.402074
v 0.107013 0.864497 -0.348056
f 1 2 3
f 2 4 5
f 3 5 6
f 2 5 3
f 4 7 8
f 7 9 10
f 8 10 11
f 7 10 8
f 6 12 13
f 12 11 14
f 13 14 15
f 12 14 13
f 4 8 5
f 8 11 12
f 5 12 6
f 8 12 5
f 1 3 16
f 3 6 17
f 16 17 18
f 3 17 16
f 6 13 19
f 13 15 20
f 19 20 21
f 13 20 19
f 18 22 23
f 22 21 24
f 23 24 25
f 22 24 23
f 6 19 17
f 19 21 22
f 17 22 18
f 19 22 17
f 1 16 26
f 16 18 27
f 26 27 28
f 16 27 26
f 18 23 29
f 23 25 30
f 29 30 31
f 23 30 29
f 28 32 33
f 32 31 34
f 33 34 35
f 32 34 33
f 18 29 27
f 29 31 32
f 27 32 28
f 29 32 27
f 1 26 36
f 26 28 37
f 36 37 38
f 26 37 36
f 28 33 39
f 33 35 40
f 39 40 41
f 33 40 39
f 38 42 43
f 42 41 44
f 43 44 45
f 42 44 43
f 28 39 37
f 39 41 42
f 37 42 38
f 39 42 37
f 1 36 2
f 36 38 46
f 2 46 4
f 36 46 2
f 38 43 47
f 43 45 48
f 47 48 49
f 43 48 47
f 4 50 7
f 50 49 51
f 7 51 9
f 50 51 7
f 38 47 46
f 47 49 50
f 46 50 4
f 47 50 46
f 52 53 54
f 53 55 56
f 54 56 57
f 53 56 54
f 55 58 59
f 58 60 61
f 59 61 62
f 58 61 59
f 57 63 64
f 63 62 65
f 64 65 66
f 63 65 64
f 55 59 56
f 59 62 63
f 56 63 57
f 59 63 56
f 66 65 67
f 65 62 68
f 67 68 69
f 65 68 67
f 62 61 70
f 61 60 71
f 70 71 72
f 61 71 70
f 69 73 74
f 73 72 75
f 74 75 76
f 73 75 74
f 62 70 68
f 70 72 73
f 68 73 69
f 70 73 68
f 66 67 77
f 67 69 78
f 20 79 21
f 67 78 77
f 69 74 80
f 74 76 81
f 80 81 82
f 74 81 80
f 21 83 24
f 83 84 85
f 24 85 25
f 83 85 24
f 69 80 78
f 80 82 86
f 79 83 21
f 80 86 78
f 25 85 87
f 85 84 88
f 87 88 89
f 85 88 87
f 82 81 90
f 81 76 91
f 90 91 92
f 81 91 90
f 89 93 94
f 95 92 96
f 97 96 98
f 95 96 97
f 82 90 99
f 90 92 95
f 88 93 89
f 90 95 99
f 25 87 30
f 87 89 100
f 30 100 31
f 87 100 30
f 89 94 101
f 94 102 103
f 101 103 104
f 94 103 101
f 31 105 34
f 105 104 106
f 34 106 35
f 105 106 34
f 89 101 100
f 101 104 105
f 100 105 31
f 101 105 100
f 35 106 107
f 106 104 108
f 107 108 109
f 106 108 107
f 104 103 110
f 103 102 111
f 110 111 112
f 103 111 110
f 109 113 114
f 113 112 115
f 114 115 116
f 113 115 114
f 104 110 108
f 110 112 113
f 108 113 109
f 110 113 108
f 35 107 40
f 107 109 117
f 40 117 41
f 107 117 40
f 109 114 118
f 114 116 119
f 118 119 120
f 114 119 118
f 41 121 44
f 121 120 122
f 44 122 45
f 121 122 44
f 109 118 117
f 118 120 121
f 117 121 41
f 118 121 117
f 45 122 123
f 122 120 124
f 123 124 125
f 122 124 123
f 120 119 126
f 119 116 127
f 128 129 130
f 119 127 126
f 131 132 133
f 132 130 134
f 133 134 135
f 132 134 133
f 120 126 124
f 128 130 132
f 124 136 125
f 126 136 124
f 45 123 48
f 123 125 137
f 48 137 49
f 123 137 48
f 131 133 138
f 133 135 139
f 138 139 140
f 133 139 138
f 49 141 51
f 142 140 143
f 51 144 9
f 141 144 51
f 125 145 137
f 138 140 142
f 137 141 49
f 145 141 137
f 52 143 53
f 143 140 146
f 53 146 55
f 143 146 53
f 140 139 147
f 139 135 148
f 147 148 149
f 139 148 147
f 55 150 58
f 150 149 151
f 58 151 60
f 150 151 58
f 140 147 146
f 147 149 150
f 146 150 55
f 147 150 146
f 152 153 154
f 153 155 156
f 154 156 157
f 153 156 154
f 155 158 159
f 158 76 75
f 159 75 72
f 158 75 159
f 157 160 161
f 160 72 71
f 161 71 60
f 160 71 161
f 155 159 156
f 159 72 160
f 156 160 157
f 159 160 156
f 152 162 153
f 162 163 164
f 153 164 155
f 162 164 153
f 163 165 166
f 165 98 96
f 166 96 92
f 165 96 166
f 155 167 158
f 167 92 91
f 158 91 76
f 167 91 158
f 163 166 164
f 166 92 167
f 164 167 155
f 166 167 164
f 152 168 162
f 168 169 170
f 162 170 163
f 168 170 162
f 169 171 172
f 171 173 174
f 172 174 175
f 171 174 172
f 163 176 165
f 176 175 177
f 165 177 98
f 176 177 165
f 169 172 170
f 172 175 176
f 170 176 163
f 172 176 170
f 152 178 168
f 178 179 180
f 168 180 169
f 178 180 168
f 179 181 182
f 181 135 134
f 182 134 130
f 181 134 182
f 169 183 171
f 183 130 129
f 171 129 173
f 183 129 171
f 179 182 180
f 182 130 183
f 180 183 169
f 182 183 180
f 152 154 178
f 154 157 184
f 178 184 179
f 154 184 178
f 157 161 185
f 161 60 151
f 185 151 149
f 161 151 185
f 179 186 181
f 186 149 148
f 181 148 135
f 186 148 181
f 157 185 184
f 185 149 186
f 184 186 179
f 185 186 184
f 9 52 10
f 10 52 54
f 10 54 11
f 11 54 57
f 11 57 14
f 14 57 64
f 14 64 15
f 15 64 66
f 15 66 20
f 20 66 77
f 20 77 79
f 79 77 78
f 83 86 84
f 84 86 82
f 79 78 83
f 83 78 86
f 84 82 88
f 88 82 99
f 93 95 94
f 94 95 97
f 88 99 93
f 93 99 95
f 94 97 102
f 102 97 98
f 102 98 111
f 111 98 177
f 111 177 112
f 112 177 175
f 112 175 115
f 115 175 174
f 115 174 116
f 116 174 173
f 116 173 127
f 127 173 129
f 127 129 126
f 126 129 128
f 136 132 125
f 125 132 131
f 126 128 136
f 136 128 132
f 144 143 9
f 9 143 52
f 141 142 144
f 144 142 143
f 125 131 145
f 145 131 138
f 145 138 141
f 141 138 142
