v 0.226557 1.17721 -0.172443
v 0.261427 1.13339 -0.176917
v 0.255844 1.18218 -0.220125
v 0.284693 1.08396 -0.19
v 0.288089 1.13456 -0.228555
v 0.273953 1.17782 -0.273125
v 0.294586 1.03267 -0.210695
v 0.307802 1.07468 -0.248636
v 0.29035 0.983445 -0.237427
v 0.308493 1.02227 -0.273756
v 0.31145 1.06393 -0.311322
v 0.302155 1.12403 -0.292338
v 0.279505 1.16447 -0.327411
v 0.302155 1.1097 -0.332338
v 0.31145 1.04961 -0.351322
v 0.298996 1.09095 -0.387265
v 0.279505 1.15014 -0.367411
v 0.272078 1.12881 -0.418848
v 0.203604 1.21791 -0.203621
v 0.229604 1.22005 -0.255564
v 0.17345 1.24657 -0.241374
v 0.243671 1.20952 -0.319347
v 0.241173 1.17547 -0.413968
v 0.243671 1.19519 -0.359347
v 0.200207 1.21222 -0.402696
v 0.190833 1.24567 -0.302655
v 0.138389 1.261 -0.282829
v 0.200207 1.22655 -0.362696
v 0.152297 1.2506 -0.34589
v 0.101092 1.26011 -0.32483
v 0.176901 1.19121 -0.150214
v 0.149758 1.22918 -0.184854
v 0.122076 1.1952 -0.138626
v 0.110987 1.2548 -0.231944
v 0.0733535 1.25963 -0.27598
v 0.0483289 1.24393 -0.228197
v 0.0839776 1.22779 -0.177926
v 0.0662551 1.18887 -0.138561
v 0.0279228 1.2142 -0.185118
v 0.0136885 1.1727 -0.150024
v 0.212637 1.13897 -0.13371
v 0.158894 1.14934 -0.114143
v 0.190828 1.0947 -0.106875
v 0.0931137 1.14795 -0.107215
v 0.0369556 1.13525 -0.115207
v 0.0657069 1.09205 -0.0936968
v 0.129259 1.09511 -0.0905226
v 0.16279 1.04775 -0.0939792
v 0.0977538 1.04638 -0.0871296
v 0.130657 1.00172 -0.0960055
v 0.244387 1.09085 -0.141152
v 0.214752 1.03662 -0.117532
v 0.18228 0.988556 -0.113833
v 0.228325 0.980806 -0.145071
v 0.2641 1.03098 -0.161233
v 0.265286 0.979058 -0.187342
v 0.29035 0.969119 -0.277427
v 0.287789 0.947891 -0.329377
v 0.308493 1.00794 -0.313756
v 0.271618 0.93408 -0.381374
v 0.300928 0.98909 -0.368219
v 0.243068 0.928737 -0.429461
v 0.27434 0.977703 -0.42772
v 0.204312 0.932269 -0.469976
v 0.237485 0.977526 -0.472668
v 0.260878 1.02795 -0.4645
v 0.295281 1.03844 -0.41192
v 0.272709 1.07969 -0.446093
v 0.236973 1.13193 -0.462596
v 0.232548 1.07989 -0.488114
v 0.192125 1.12845 -0.496251
v 0.211607 1.01915 -0.503913
v 0.181045 0.969718 -0.504793
v 0.152293 1.01292 -0.526303
v 0.175462 1.07199 -0.520606
v 0.14095 1.11864 -0.51725
v 0.120246 1.05859 -0.53287
v 0.0873432 1.10326 -0.523994
v 0.200652 1.17677 -0.455622
v 0.143566 1.16887 -0.488114
v 0.0887104 1.15438 -0.500746
v 0.0916221 1.1972 -0.4645
v 0.147814 1.21291 -0.438929
v 0.152297 1.23627 -0.38589
v 0.0958566 1.22846 -0.418015
v 0.0958566 1.24279 -0.378015
v 0.0470668 1.24837 -0.334808
v 0.0413797 1.21066 -0.42772
v 0.0470668 1.23404 -0.374808
v -0.00224348 1.20794 -0.381374
v 0.0371312 1.16662 -0.476904
v 0.0357201 1.11642 -0.506167
v -0.0103246 1.12417 -0.474929
v -0.0122168 1.17227 -0.433203
v -0.0430856 1.16946 -0.38403
v -0.047286 1.12591 -0.432658
v -0.0723504 1.12153 -0.382573
v -0.00224348 1.22227 -0.341374
v 0.0186192 1.24202 -0.284517
v -0.0430856 1.18379 -0.34403
v -0.0349774 1.20363 -0.29
v -0.0723504 1.13585 -0.342573
v -0.0697891 1.15708 -0.290623
v -0.0536178 1.17089 -0.238626
v -0.00838992 1.21501 -0.230499
v -0.0250675 1.17624 -0.190539
v -0.0194849 1.12745 -0.147332
v -0.05634 1.12727 -0.19228
v -0.0428776 1.07703 -0.1555
v -0.0829275 1.11588 -0.251781
v -0.0904933 1.09703 -0.306244
v -0.09345 1.05537 -0.268678
v -0.0772811 1.06653 -0.20808
v -0.0547089 1.02529 -0.173907
v -0.0809956 1.01403 -0.232735
v -0.0540782 0.97616 -0.201152
v 0.00639266 1.08582 -0.116087
v -0.0145484 1.02508 -0.131886
v -0.0189726 0.973046 -0.157404
v 0.0258746 0.976524 -0.123749
v 0.0425379 1.03298 -0.0993941
v 0.0770497 0.98633 -0.10275
v 0.12929 0.950594 -0.119254
v 0.0744346 0.936101 -0.131886
v 0.126378 0.907772 -0.1555
v 0.0173483 0.928203 -0.164378
v -0.0231731 0.929501 -0.206032
v 0.0177935 0.89275 -0.217304
v 0.0701861 0.892058 -0.181071
v 0.122143 0.876511 -0.201985
v 0.065703 0.868703 -0.23411
v 0.122143 0.862185 -0.241985
v 0.065703 0.854376 -0.27411
v 0.116908 0.844865 -0.29517
v 0.180869 0.938352 -0.143096
v 0.17662 0.89431 -0.19228
v 0.170933 0.856602 -0.285192
v 0.170933 0.870929 -0.245192
v 0.220244 0.897032 -0.238626
v 0.230217 0.932706 -0.186797
v 0.261086 0.935514 -0.23597
v 0.261086 0.921187 -0.27597
v 0.220244 0.882705 -0.278626
v 0.252977 0.901346 -0.33
v 0.199381 0.862949 -0.335483
v 0.144647 0.845344 -0.34402
v 0.169671 0.861045 -0.391803
v 0.22639 0.889958 -0.389501
v 0.190077 0.890775 -0.434882
v -0.00855704 0.927766 -0.447557
v 0.00536297 0.966002 -0.48629
v 0.0410993 0.913762 -0.469786
v 0.0271721 1.01028 -0.513125
v 0.0591063 0.955635 -0.505857
v 0.0959244 0.909773 -0.481374
v 0.0552104 1.05722 -0.526021
v 0.0887411 1.00986 -0.529477
v 0.124886 0.957026 -0.512785
v 0.151745 0.916102 -0.481439
v -0.0434268 0.971585 -0.443083
v -0.0666934 1.02102 -0.43
v -0.0263869 1.01412 -0.478848
v -0.0765856 1.0723 -0.409305
v -0.0461002 1.07399 -0.458767
v 0.00324788 1.06835 -0.502468
v -0.0378443 0.922795 -0.399875
v -0.0559532 0.927151 -0.346875
v -0.0700885 0.970418 -0.391445
v -0.0615054 0.940503 -0.292589
v -0.0841554 0.980945 -0.327662
v -0.0615054 0.954829 -0.252589
v -0.0841554 0.995272 -0.287662
v -0.0898018 1.03029 -0.371363
v -0.09345 1.04104 -0.308678
v -0.0904933 1.08271 -0.346244
v 0.0143958 0.887059 -0.416379
v 0.0445501 0.858399 -0.378626
v -0.0116044 0.884924 -0.364436
v 0.0796106 0.843968 -0.337171
v 0.0271666 0.859307 -0.317345
v 0.0177935 0.878423 -0.257304
v -0.0256712 0.895452 -0.300653
v -0.0256712 0.909778 -0.260653
v 0.0682425 0.875788 -0.435146
v 0.134022 0.87718 -0.442074
v 0.107013 0.85017 -0.388056
f 1 2 3
f 2 4 5
f 3 5 6
f 2 5 3
f 4 7 8
f 7 9 10
f 8 10 11
f 7 10 8
f 6 12 13
f 14 15 16
f 17 16 18
f 14 16 17
f 4 8 5
f 8 11 12
f 5 12 6
f 8 12 5
f 1 3 19
f 3 6 20
f 19 20 21
f 3 20 19
f 6 13 22
f 17 18 23
f 24 23 25
f 17 23 24
f 21 26 27
f 26 28 29
f 27 29 30
f 26 29 27
f 6 22 20
f 22 28 26
f 20 26 21
f 22 26 20
f 1 19 31
f 19 21 32
f 31 32 33
f 19 32 31
f 21 27 34
f 27 30 35
f 34 35 36
f 27 35 34
f 33 37 38
f 37 36 39
f 38 39 40
f 37 39 38
f 21 34 32
f 34 36 37
f 32 37 33
f 34 37 32
f 1 31 41
f 31 33 42
f 41 42 43
f 31 42 41
f 33 38 44
f 38 40 45
f 44 45 46
f 38 45 44
f 43 47 48
f 47 46 49
f 48 49 50
f 47 49 48
f 33 44 42
f 44 46 47
f 42 47 43
f 44 47 42
f 1 41 2
f 41 43 51
f 2 51 4
f 41 51 2
f 43 48 52
f 48 50 53
f 52 53 54
f 48 53 52
f 4 55 7
f 55 54 56
f 7 56 9
f 55 56 7
f 43 52 51
f 52 54 55
f 51 55 4
f 52 55 51
f 57 58 59
f 58 60 61
f 59 61 15
f 58 61 59
f 60 62 63
f 62 64 65
f 63 65 66
f 62 65 63
f 15 67 16
f 67 66 68
f 16 68 18
f 67 68 16
f 60 63 61
f 63 66 67
f 61 67 15
f 63 67 61
f 18 68 69
f 68 66 70
f 69 70 71
f 68 70 69
f 66 65 72
f 65 64 73
f 72 73 74
f 65 73 72
f 71 75 76
f 75 74 77
f 76 77 78
f 75 77 76
f 66 72 70
f 72 74 75
f 70 75 71
f 72 75 70
f 18 69 23
f 69 71 79
f 23 79 25
f 69 79 23
f 71 76 80
f 76 78 81
f 80 81 82
f 76 81 80
f 25 83 84
f 83 82 85
f 29 86 30
f 83 85 84
f 71 80 79
f 80 82 83
f 79 83 25
f 80 83 79
f 30 86 87
f 85 82 88
f 89 88 90
f 85 88 89
f 82 81 91
f 81 78 92
f 91 92 93
f 81 92 91
f 90 94 95
f 94 93 96
f 95 96 97
f 94 96 95
f 82 91 88
f 91 93 94
f 88 94 90
f 91 94 88
f 30 87 35
f 87 98 99
f 35 99 36
f 87 99 35
f 98 100 101
f 100 102 103
f 101 103 104
f 100 103 101
f 36 105 39
f 105 104 106
f 39 106 40
f 105 106 39
f 98 101 99
f 101 104 105
f 99 105 36
f 101 105 99
f 40 106 107
f 106 104 108
f 107 108 109
f 106 108 107
f 104 103 110
f 103 102 111
f 110 111 112
f 103 111 110
f 109 113 114
f 113 112 115
f 114 115 116
f 113 115 114
f 104 110 108
f 110 112 113
f 108 113 109
f 110 113 108
f 40 107 45
f 107 109 117
f 45 117 46
f 107 117 45
f 109 114 118
f 114 116 119
f 118 119 120
f 114 119 118
f 46 121 49
f 121 120 122
f 49 122 50
f 121 122 49
f 109 118 117
f 118 120 121
f 117 121 46
f 118 121 117
f 50 122 123
f 122 120 124
f 123 124 125
f 122 124 123
f 120 119 126
f 119 116 127
f 126 127 128
f 119 127 126
f 125 129 130
f 129 128 131
f 132 133 134
f 129 131 130
f 120 126 124
f 126 128 129
f 124 129 125
f 126 129 124
f 50 123 53
f 123 125 135
f 53 135 54
f 123 135 53
f 125 130 136
f 132 134 137
f 136 138 139
f 130 138 136
f 54 140 56
f 140 139 141
f 56 141 9
f 140 141 56
f 125 136 135
f 136 139 140
f 135 140 54
f 136 140 135
f 57 142 58
f 142 143 144
f 58 144 60
f 142 144 58
f 143 137 145
f 137 134 146
f 145 146 147
f 137 146 145
f 60 148 62
f 148 147 149
f 62 149 64
f 148 149 62
f 143 145 144
f 145 147 148
f 144 148 60
f 145 148 144
f 150 151 152
f 151 153 154
f 152 154 155
f 151 154 152
f 153 156 157
f 156 78 77
f 157 77 74
f 156 77 157
f 155 158 159
f 158 74 73
f 159 73 64
f 158 73 159
f 153 157 154
f 157 74 158
f 154 158 155
f 157 158 154
f 150 160 151
f 160 161 162
f 151 162 153
f 160 162 151
f 161 163 164
f 163 97 96
f 164 96 93
f 163 96 164
f 153 165 156
f 165 93 92
f 156 92 78
f 165 92 156
f 161 164 162
f 164 93 165
f 162 165 153
f 164 165 162
f 150 166 160
f 166 167 168
f 160 168 161
f 166 168 160
f 167 169 170
f 171 116 115
f 172 115 112
f 171 115 172
f 161 173 163
f 173 174 175
f 163 175 97
f 173 175 163
f 167 170 168
f 170 174 173
f 168 173 161
f 170 173 168
f 150 176 166
f 176 177 178
f 166 178 167
f 176 178 166
f 177 179 180
f 179 134 133
f 180 133 181
f 179 133 180
f 167 182 169
f 183 128 127
f 171 127 116
f 183 127 171
f 177 180 178
f 180 181 182
f 178 182 167
f 180 182 178
f 150 152 176
f 152 155 184
f 176 184 177
f 152 184 176
f 155 159 185
f 159 64 149
f 185 149 147
f 159 149 185
f 177 186 179
f 186 147 146
f 179 146 134
f 186 146 179
f 155 185 184
f 185 147 186
f 184 186 177
f 185 186 184
f 9 57 10
f 10 57 59
f 10 59 11
f 11 59 15
f 12 14 13
f 13 14 17
f 11 15 12
f 12 15 14
f 13 17 22
f 22 17 24
f 28 25 29
f 29 25 84
f 22 24 28
f 28 24 25
f 29 84 86
f 86 84 85
f 86 85 87
f 87 85 89
f 87 89 98
f 98 89 90
f 98 90 100
f 100 90 95
f 100 95 102
f 102 95 97
f 102 97 111
f 111 97 175
f 111 175 112
f 112 175 174
f 128 181 131
f 131 181 133
f 131 133 130
f 130 133 132
f 138 137 139
f 139 137 143
f 130 132 138
f 138 132 137
f 139 143 141
f 141 143 142
f 141 142 9
f 9 142 57
f 112 174 172
f 172 174 170
f 172 170 171
f 171 170 169
f 183 182 128
f 128 182 181
f 171 169 183
f 183 169 182
