v 0.226557 1.16288 -0.212443
v 0.261427 1.11906 -0.216917
v 0.255844 1.16785 -0.260125
v 0.284693 1.06963 -0.23
v 0.288089 1.12023 -0.268555
v 0.273953 1.1635 -0.313125
v 0.294586 1.01835 -0.250695
v 0.307802 1.06035 -0.288637
v 0.29035 0.969119 -0.277427
v 0.308493 1.00794 -0.313756
v 0.31145 1.04961 -0.351322
v 0.302155 1.1097 -0.332338
v 0.279505 1.15014 -0.367411
v 0.302155 1.09004 -0.412338
v 0.31145 1.02995 -0.431322
v 0.298996 1.07129 -0.467265
v 0.279505 1.13048 -0.447411
v 0.272078 1.10915 -0.498848
v 0.203604 1.20359 -0.243621
v 0.229604 1.20572 -0.295564
v 0.17345 1.23225 -0.281374
v 0.243671 1.19519 -0.359347
v 0.241173 1.15581 -0.493968
v 0.243671 1.17553 -0.439347
v 0.200207 1.19256 -0.482696
v 0.190833 1.23134 -0.342655
v 0.138389 1.24668 -0.322829
v 0.190833 1.21168 -0.422655
v 0.152297 1.21661 -0.46589
v 0.152297 1.23627 -0.38589
v 0.101092 1.24578 -0.36483
v 0.200207 1.21222 -0.402696
v 0.176901 1.17688 -0.190214
v 0.149758 1.21486 -0.224854
v 0.122076 1.18087 -0.178626
v 0.110987 1.24048 -0.271944
v 0.0733535 1.2453 -0.31598
v 0.0483289 1.2296 -0.268197
v 0.0839776 1.21347 -0.217926
v 0.0662551 1.17454 -0.178561
v 0.0279228 1.19987 -0.225118
v 0.0136885 1.15838 -0.190024
v 0.212637 1.12464 -0.17371
v 0.158894 1.13501 -0.154143
v 0.190828 1.08037 -0.146875
v 0.0931137 1.13362 -0.147215
v 0.0369556 1.12093 -0.155207
v 0.0657069 1.07772 -0.133697
v 0.129259 1.08078 -0.130523
v 0.16279 1.03343 -0.133979
v 0.0977538 1.03205 -0.12713
v 0.130657 0.987391 -0.136005
v 0.244387 1.07653 -0.181152
v 0.214752 1.0223 -0.157532
v 0.18228 0.97423 -0.153833
v 0.228325 0.96648 -0.185071
v 0.2641 1.01665 -0.201233
v 0.265286 0.964732 -0.227342
v 0.287789 0.947891 -0.329377
v 0.287789 0.928231 -0.409377
v 0.271618 0.91442 -0.461374
v 0.300928 0.969431 -0.448219
v 0.308493 0.98828 -0.393756
v 0.243068 0.909077 -0.509461
v 0.27434 0.958043 -0.50772
v 0.204312 0.912609 -0.549976
v 0.237485 0.957867 -0.552668
v 0.260878 1.00829 -0.5445
v 0.295281 1.01878 -0.49192
v 0.272709 1.06003 -0.526093
v 0.236973 1.11227 -0.542596
v 0.232548 1.06023 -0.568114
v 0.192125 1.10879 -0.576251
v 0.211607 0.999494 -0.583913
v 0.181045 0.950058 -0.584793
v 0.152293 0.993263 -0.606303
v 0.175462 1.05233 -0.600606
v 0.14095 1.09898 -0.59725
v 0.120246 1.03893 -0.61287
v 0.0873432 1.0836 -0.603994
v 0.200652 1.15711 -0.535622
v 0.143566 1.14921 -0.568114
v 0.0887104 1.13472 -0.580746
v 0.0916221 1.17754 -0.5445
v 0.147814 1.19325 -0.518929
v 0.0958566 1.2088 -0.498015
v 0.101092 1.22612 -0.44483
v 0.0470668 1.21438 -0.454808
v 0.0413797 1.191 -0.50772
v -0.00224348 1.18828 -0.461374
v 0.0371312 1.14696 -0.556904
v 0.0357201 1.09676 -0.586167
v -0.0103246 1.10451 -0.554929
v -0.0122168 1.15261 -0.513203
v -0.0430856 1.1498 -0.46403
v -0.047286 1.10625 -0.512658
v -0.0723504 1.10187 -0.462573
v 0.0470668 1.23404 -0.374808
v -0.00224348 1.20794 -0.381374
v 0.0186192 1.2277 -0.324517
v -0.0430856 1.16946 -0.38403
v -0.0349774 1.1893 -0.33
v -0.0697891 1.1231 -0.410623
v -0.0697891 1.14276 -0.330623
v -0.0536178 1.15657 -0.278626
v -0.00838992 1.20069 -0.270499
v -0.0250675 1.16191 -0.230539
v -0.0194849 1.11312 -0.187332
v -0.05634 1.11294 -0.23228
v -0.0428776 1.0627 -0.1955
v -0.0829275 1.10156 -0.291781
v -0.0904933 1.06305 -0.426244
v -0.0904933 1.08271 -0.346244
v -0.09345 1.04104 -0.308678
v -0.0772811 1.05221 -0.24808
v -0.0547089 1.01096 -0.213907
v -0.0809956 0.999701 -0.272735
v -0.0540782 0.961834 -0.241152
v 0.00639266 1.07149 -0.156087
v -0.0145484 1.01076 -0.171886
v -0.0189726 0.958719 -0.197404
v 0.0258746 0.962198 -0.163749
v 0.0425379 1.01866 -0.139394
v 0.0770497 0.972004 -0.14275
v 0.12929 0.936267 -0.159254
v 0.0744346 0.921775 -0.171886
v 0.126378 0.893445 -0.1955
v 0.0173483 0.913877 -0.204378
v -0.0231731 0.915175 -0.246032
v 0.0177935 0.878423 -0.257304
v 0.0701861 0.877732 -0.221071
v 0.122143 0.862185 -0.241985
v 0.065703 0.854376 -0.27411
v 0.116908 0.844865 -0.29517
v 0.180869 0.924026 -0.183096
v 0.17662 0.879983 -0.23228
v 0.170933 0.856602 -0.285192
v 0.220244 0.882705 -0.278626
v 0.230217 0.91838 -0.226797
v 0.261086 0.921187 -0.27597
v 0.261086 0.901528 -0.35597
v 0.220244 0.863046 -0.358626
v 0.252977 0.881686 -0.41
v 0.170933 0.836943 -0.365192
v 0.199381 0.84329 -0.415483
v 0.116908 0.825206 -0.37517
v 0.144647 0.825684 -0.42402
v 0.169671 0.841386 -0.471803
v 0.22639 0.870299 -0.469501
v 0.190077 0.871115 -0.514882
v -0.00855704 0.908106 -0.527557
v 0.00536297 0.946343 -0.56629
v 0.0410993 0.894103 -0.549786
v 0.0271721 0.990617 -0.593125
v 0.0591063 0.935975 -0.585857
v 0.0959244 0.890113 -0.561374
v 0.0552104 1.03756 -0.606021
v 0.0887411 0.990205 -0.609477
v 0.124886 0.937367 -0.592785
v 0.151745 0.896443 -0.561439
v -0.0434268 0.951925 -0.523083
v -0.0666934 1.00136 -0.51
v -0.0263869 0.99446 -0.558848
v -0.0765856 1.05264 -0.489305
v -0.0461002 1.05434 -0.538767
v 0.00324788 1.04869 -0.582468
v -0.0378443 0.903135 -0.479875
v -0.0559532 0.907491 -0.426875
v -0.0700885 0.950758 -0.471445
v -0.0615054 0.920843 -0.372589
v -0.0841554 0.961285 -0.407662
v -0.0615054 0.940503 -0.292589
v -0.0841554 0.980945 -0.327662
v -0.0898018 1.01063 -0.451363
v -0.09345 1.02138 -0.388678
v 0.0143958 0.867399 -0.496379
v 0.0445501 0.838739 -0.458626
v -0.0116044 0.865265 -0.444436
v 0.0796106 0.824309 -0.417171
v 0.0271666 0.839647 -0.397345
v 0.065703 0.834717 -0.354109
v 0.0271666 0.859307 -0.317345
v -0.0256712 0.875792 -0.380653
v -0.0256712 0.895452 -0.300653
v 0.0177935 0.858764 -0.337304
v 0.0682425 0.856129 -0.515146
v 0.134022 0.85752 -0.522074
v 0.107013 0.830511 -0.468056
f 1 2 3
f 2 4 5
f 3 5 6
f 2 5 3
f 4 7 8
f 7 9 10
f 8 10 11
f 7 10 8
f 6 12 13
f 14 15 16
f 17 16 18
f 14 16 17
f 4 8 5
f 8 11 12
f 5 12 6
f 8 12 5
f 1 3 19
f 3 6 20
f 19 20 21
f 3 20 19
f 6 13 22
f 17 18 23
f 24 23 25
f 17 23 24
f 21 26 27
f 28 25 29
f 27 30 31
f 26 30 27
f 6 22 20
f 22 32 26
f 20 26 21
f 22 26 20
f 1 19 33
f 19 21 34
f 33 34 35
f 19 34 33
f 21 27 36
f 27 31 37
f 36 37 38
f 27 37 36
f 35 39 40
f 39 38 41
f 40 41 42
f 39 41 40
f 21 36 34
f 36 38 39
f 34 39 35
f 36 39 34
f 1 33 43
f 33 35 44
f 43 44 45
f 33 44 43
f 35 40 46
f 40 42 47
f 46 47 48
f 40 47 46
f 45 49 50
f 49 48 51
f 50 51 52
f 49 51 50
f 35 46 44
f 46 48 49
f 44 49 45
f 46 49 44
f 1 43 2
f 43 45 53
f 2 53 4
f 43 53 2
f 45 50 54
f 50 52 55
f 54 55 56
f 50 55 54
f 4 57 7
f 57 56 58
f 7 58 9
f 57 58 7
f 45 54 53
f 54 56 57
f 53 57 4
f 54 57 53
f 9 59 10
f 60 61 62
f 63 62 15
f 60 62 63
f 61 64 65
f 64 66 67
f 65 67 68
f 64 67 65
f 15 69 16
f 69 68 70
f 16 70 18
f 69 70 16
f 61 65 62
f 65 68 69
f 62 69 15
f 65 69 62
f 18 70 71
f 70 68 72
f 71 72 73
f 70 72 71
f 68 67 74
f 67 66 75
f 74 75 76
f 67 75 74
f 73 77 78
f 77 76 79
f 78 79 80
f 77 79 78
f 68 74 72
f 74 76 77
f 72 77 73
f 74 77 72
f 18 71 23
f 71 73 81
f 23 81 25
f 71 81 23
f 73 78 82
f 78 80 83
f 82 83 84
f 78 83 82
f 25 85 29
f 85 84 86
f 29 86 87
f 85 86 29
f 73 82 81
f 82 84 85
f 81 85 25
f 82 85 81
f 87 86 88
f 86 84 89
f 88 89 90
f 86 89 88
f 84 83 91
f 83 80 92
f 91 92 93
f 83 92 91
f 90 94 95
f 94 93 96
f 95 96 97
f 94 96 95
f 84 91 89
f 91 93 94
f 89 94 90
f 91 94 89
f 31 98 37
f 98 99 100
f 37 100 38
f 98 100 37
f 99 101 102
f 95 97 103
f 102 104 105
f 101 104 102
f 38 106 41
f 106 105 107
f 41 107 42
f 106 107 41
f 99 102 100
f 102 105 106
f 100 106 38
f 102 106 100
f 42 107 108
f 107 105 109
f 108 109 110
f 107 109 108
f 105 104 111
f 103 97 112
f 111 113 114
f 104 113 111
f 110 115 116
f 115 114 117
f 116 117 118
f 115 117 116
f 105 111 109
f 111 114 115
f 109 115 110
f 111 115 109
f 42 108 47
f 108 110 119
f 47 119 48
f 108 119 47
f 110 116 120
f 116 118 121
f 120 121 122
f 116 121 120
f 48 123 51
f 123 122 124
f 51 124 52
f 123 124 51
f 110 120 119
f 120 122 123
f 119 123 48
f 120 123 119
f 52 124 125
f 124 122 126
f 125 126 127
f 124 126 125
f 122 121 128
f 121 118 129
f 128 129 130
f 121 129 128
f 127 131 132
f 131 130 133
f 132 133 134
f 131 133 132
f 122 128 126
f 128 130 131
f 126 131 127
f 128 131 126
f 52 125 55
f 125 127 135
f 55 135 56
f 125 135 55
f 127 132 136
f 132 134 137
f 136 137 138
f 132 137 136
f 56 139 58
f 139 138 140
f 58 140 9
f 139 140 58
f 127 136 135
f 136 138 139
f 135 139 56
f 136 139 135
f 9 140 59
f 141 142 143
f 60 143 61
f 141 143 60
f 142 144 145
f 144 146 147
f 145 147 148
f 144 147 145
f 61 149 64
f 149 148 150
f 64 150 66
f 149 150 64
f 142 145 143
f 145 148 149
f 143 149 61
f 145 149 143
f 151 152 153
f 152 154 155
f 153 155 156
f 152 155 153
f 154 157 158
f 157 80 79
f 158 79 76
f 157 79 158
f 156 159 160
f 159 76 75
f 160 75 66
f 159 75 160
f 154 158 155
f 158 76 159
f 155 159 156
f 158 159 155
f 151 161 152
f 161 162 163
f 152 163 154
f 161 163 152
f 162 164 165
f 164 97 96
f 165 96 93
f 164 96 165
f 154 166 157
f 166 93 92
f 157 92 80
f 166 92 157
f 162 165 163
f 165 93 166
f 163 166 154
f 165 166 163
f 151 167 161
f 167 168 169
f 161 169 162
f 167 169 161
f 168 170 171
f 172 118 117
f 173 117 114
f 172 117 173
f 162 174 164
f 174 175 112
f 164 112 97
f 174 112 164
f 168 171 169
f 171 175 174
f 169 174 162
f 171 174 169
f 151 176 167
f 176 177 178
f 167 178 168
f 176 178 167
f 177 179 180
f 179 146 181
f 182 133 130
f 179 181 180
f 168 183 170
f 184 130 129
f 172 129 118
f 184 129 172
f 177 180 178
f 180 185 183
f 178 183 168
f 180 183 178
f 151 153 176
f 153 156 186
f 176 186 177
f 153 186 176
f 156 160 187
f 160 66 150
f 187 150 148
f 160 150 187
f 177 188 179
f 188 148 147
f 179 147 146
f 188 147 179
f 156 187 186
f 187 148 188
f 186 188 177
f 187 188 186
f 10 63 11
f 11 63 15
f 12 14 13
f 13 14 17
f 11 15 12
f 12 15 14
f 13 17 22
f 22 17 24
f 30 29 31
f 31 29 87
f 26 28 30
f 30 28 29
f 22 24 32
f 32 24 25
f 32 25 26
f 26 25 28
f 59 60 10
f 10 60 63
f 31 87 98
f 98 87 88
f 98 88 99
f 99 88 90
f 99 90 101
f 101 90 95
f 101 95 104
f 104 95 103
f 113 112 114
f 114 112 175
f 104 103 113
f 113 103 112
f 133 181 134
f 134 181 146
f 134 146 137
f 137 146 144
f 137 144 138
f 138 144 142
f 138 142 140
f 140 142 141
f 140 141 59
f 59 141 60
f 114 175 173
f 173 175 171
f 173 171 172
f 172 171 170
f 182 180 133
f 133 180 181
f 130 185 182
f 182 185 180
f 184 183 130
f 130 183 185
f 172 170 184
f 184 170 183
