v 0.226557 1.14322 -0.292443
v 0.261427 1.0994 -0.296917
v 0.255844 1.14819 -0.340125
v 0.284693 1.04997 -0.31
v 0.288089 1.10057 -0.348555
v 0.273953 1.14384 -0.393125
v 0.294586 0.998688 -0.330695
v 0.307802 1.04069 -0.368636
v 0.29035 0.949459 -0.357427
v 0.308493 0.98828 -0.393756
v 0.31145 1.02995 -0.431322
v 0.273953 1.14052 -0.553125
v 0.302155 1.08673 -0.572338
v 0.279505 1.12717 -0.607411
v 0.31145 1.02663 -0.591322
v 0.298996 1.06798 -0.627265
v 0.272078 1.10584 -0.658848
v 0.302155 1.09004 -0.412338
v 0.203604 1.18393 -0.323621
v 0.229604 1.18606 -0.375564
v 0.17345 1.21259 -0.361374
v 0.243671 1.17222 -0.599347
v 0.241173 1.1525 -0.653968
v 0.200207 1.18925 -0.642696
v 0.190833 1.21168 -0.422655
v 0.138389 1.22702 -0.402829
v 0.190833 1.20837 -0.582655
v 0.152297 1.2133 -0.62589
v 0.138389 1.22371 -0.562829
v 0.101092 1.22281 -0.60483
v 0.243671 1.17553 -0.439347
v 0.176901 1.15722 -0.270214
v 0.149758 1.1952 -0.304854
v 0.122076 1.16121 -0.258626
v 0.110987 1.22082 -0.351944
v 0.101092 1.22612 -0.44483
v 0.0733535 1.22564 -0.39598
v 0.0483289 1.20994 -0.348197
v 0.0839776 1.19381 -0.297926
v 0.0662551 1.15488 -0.258561
v 0.0279228 1.18021 -0.305118
v 0.0136885 1.13872 -0.270024
v 0.212637 1.10498 -0.25371
v 0.158894 1.11535 -0.234143
v 0.190828 1.06071 -0.226875
v 0.0931137 1.11396 -0.227215
v 0.0369556 1.10127 -0.235207
v 0.0657069 1.05806 -0.213697
v 0.129259 1.06112 -0.210523
v 0.16279 1.01377 -0.213979
v 0.0977538 1.01239 -0.20713
v 0.130657 0.967732 -0.216005
v 0.244387 1.05687 -0.261152
v 0.214752 1.00264 -0.237532
v 0.18228 0.95457 -0.233833
v 0.228325 0.94682 -0.265071
v 0.2641 0.996992 -0.281233
v 0.265286 0.945072 -0.307342
v 0.287789 0.928231 -0.409377
v 0.287789 0.924921 -0.569377
v 0.271618 0.911109 -0.621374
v 0.300928 0.96612 -0.608219
v 0.308493 0.984969 -0.553756
v 0.243068 0.905766 -0.669461
v 0.27434 0.954733 -0.66772
v 0.204312 0.909298 -0.709976
v 0.237485 0.954556 -0.712668
v 0.260878 1.00497 -0.7045
v 0.295281 1.01547 -0.65192
v 0.272709 1.05672 -0.686093
v 0.236973 1.10896 -0.702596
v 0.232548 1.05692 -0.728114
v 0.192125 1.10548 -0.736251
v 0.211607 0.996183 -0.743913
v 0.181045 0.946748 -0.744793
v 0.152293 0.989953 -0.766303
v 0.175462 1.04902 -0.760606
v 0.14095 1.09567 -0.75725
v 0.120246 1.03562 -0.77287
v 0.0873432 1.08028 -0.763994
v 0.200652 1.1538 -0.695622
v 0.143566 1.1459 -0.728114
v 0.0887104 1.13141 -0.740746
v 0.0916221 1.17423 -0.7045
v 0.147814 1.18994 -0.678929
v 0.0958566 1.20549 -0.658015
v 0.0470668 1.21107 -0.614808
v 0.0413797 1.18769 -0.66772
v -0.00224348 1.18497 -0.621374
v 0.0371312 1.14365 -0.716904
v 0.0357201 1.09345 -0.746167
v -0.0103246 1.1012 -0.714929
v -0.0122168 1.1493 -0.673203
v -0.0430856 1.14649 -0.62403
v -0.047286 1.10294 -0.672658
v -0.0723504 1.09856 -0.622573
v 0.0733535 1.22233 -0.55598
v 0.0186192 1.20473 -0.564517
v 0.0186192 1.20804 -0.404517
v -0.0349774 1.16633 -0.57
v -0.0697891 1.11979 -0.570623
v -0.0349774 1.16964 -0.41
v -0.0697891 1.1231 -0.410623
v -0.0536178 1.13691 -0.358626
v -0.00838992 1.18103 -0.350499
v -0.0250675 1.14225 -0.310539
v -0.0194849 1.09346 -0.267332
v -0.05634 1.09328 -0.31228
v -0.0428776 1.04304 -0.2755
v -0.0829275 1.0819 -0.371781
v -0.0904933 1.05974 -0.586244
v -0.0904933 1.06305 -0.426244
v -0.09345 1.02138 -0.388678
v -0.0772811 1.03255 -0.32808
v -0.0547089 0.9913 -0.293907
v -0.0809956 0.980041 -0.352735
v -0.0540782 0.942174 -0.321152
v 0.00639266 1.05183 -0.236087
v -0.0145484 0.991098 -0.251886
v -0.0189726 0.93906 -0.277404
v 0.0258746 0.942538 -0.243749
v 0.0425379 0.998996 -0.219394
v 0.0770497 0.952344 -0.22275
v 0.12929 0.916608 -0.239254
v 0.0744346 0.902115 -0.251886
v 0.126378 0.873786 -0.2755
v 0.0173483 0.894217 -0.284378
v -0.0231731 0.895515 -0.326032
v 0.0177935 0.858764 -0.337304
v 0.0701861 0.858072 -0.301071
v 0.122143 0.842525 -0.321985
v 0.065703 0.834717 -0.354109
v 0.116908 0.825206 -0.37517
v 0.180869 0.904366 -0.263096
v 0.17662 0.860323 -0.31228
v 0.170933 0.836943 -0.365192
v 0.220244 0.863046 -0.358626
v 0.230217 0.89872 -0.306797
v 0.261086 0.901528 -0.35597
v 0.252977 0.881686 -0.41
v 0.252977 0.878375 -0.57
v 0.199381 0.84329 -0.415483
v 0.144647 0.825684 -0.42402
v 0.199381 0.839979 -0.575483
v 0.144647 0.822373 -0.58402
v 0.169671 0.838075 -0.631803
v 0.22639 0.866988 -0.629501
v 0.190077 0.867804 -0.674882
v -0.00855704 0.904796 -0.687557
v 0.00536297 0.943032 -0.72629
v 0.0410993 0.890792 -0.709786
v 0.0271721 0.987306 -0.753125
v 0.0591063 0.932665 -0.745857
v 0.0959244 0.886803 -0.721374
v 0.0552104 1.03425 -0.766021
v 0.0887411 0.986894 -0.769477
v 0.124886 0.934056 -0.752785
v 0.151745 0.893132 -0.721439
v -0.0434268 0.948614 -0.683083
v -0.0666934 0.998046 -0.67
v -0.0263869 0.991149 -0.718848
v -0.0765856 1.04933 -0.649305
v -0.0461002 1.05102 -0.698767
v 0.00324788 1.04538 -0.742468
v -0.0378443 0.899825 -0.639875
v -0.0559532 0.904181 -0.586875
v -0.0700885 0.947447 -0.631445
v -0.0559532 0.907491 -0.426875
v -0.0615054 0.920843 -0.372589
v -0.0841554 0.961285 -0.407662
v -0.0898018 1.00732 -0.611363
v -0.09345 1.01807 -0.548678
v -0.0841554 0.957975 -0.567662
v 0.0143958 0.864088 -0.656379
v 0.0445501 0.835428 -0.618626
v -0.0116044 0.861954 -0.604436
v 0.0796106 0.820998 -0.577171
v 0.0271666 0.836336 -0.557345
v 0.0796106 0.824309 -0.417171
v 0.0271666 0.839647 -0.397345
v -0.0256712 0.875792 -0.380653
v -0.0256712 0.872482 -0.540653
v 0.0682425 0.852818 -0.675146
v 0.134022 0.854209 -0.682074
v 0.107013 0.8272 -0.628056
v 0.116908 0.821895 -0.53517
f 1 2 3
f 2 4 5
f 3 5 6
f 2 5 3
f 4 7 8
f 7 9 10
f 8 10 11
f 7 10 8
f 12 13 14
f 13 15 16
f 14 16 17
f 13 16 14
f 4 8 5
f 8 11 18
f 5 18 6
f 8 18 5
f 1 3 19
f 3 6 20
f 19 20 21
f 3 20 19
f 12 14 22
f 14 17 23
f 22 23 24
f 14 23 22
f 21 25 26
f 27 24 28
f 29 28 30
f 27 28 29
f 6 31 20
f 22 24 27
f 20 25 21
f 31 25 20
f 1 19 32
f 19 21 33
f 32 33 34
f 19 33 32
f 21 26 35
f 26 36 37
f 35 37 38
f 26 37 35
f 34 39 40
f 39 38 41
f 40 41 42
f 39 41 40
f 21 35 33
f 35 38 39
f 33 39 34
f 35 39 33
f 1 32 43
f 32 34 44
f 43 44 45
f 32 44 43
f 34 40 46
f 40 42 47
f 46 47 48
f 40 47 46
f 45 49 50
f 49 48 51
f 50 51 52
f 49 51 50
f 34 46 44
f 46 48 49
f 44 49 45
f 46 49 44
f 1 43 2
f 43 45 53
f 2 53 4
f 43 53 2
f 45 50 54
f 50 52 55
f 54 55 56
f 50 55 54
f 4 57 7
f 57 56 58
f 7 58 9
f 57 58 7
f 45 54 53
f 54 56 57
f 53 57 4
f 54 57 53
f 9 59 10
f 60 61 62
f 63 62 15
f 60 62 63
f 61 64 65
f 64 66 67
f 65 67 68
f 64 67 65
f 15 69 16
f 69 68 70
f 16 70 17
f 69 70 16
f 61 65 62
f 65 68 69
f 62 69 15
f 65 69 62
f 17 70 71
f 70 68 72
f 71 72 73
f 70 72 71
f 68 67 74
f 67 66 75
f 74 75 76
f 67 75 74
f 73 77 78
f 77 76 79
f 78 79 80
f 77 79 78
f 68 74 72
f 74 76 77
f 72 77 73
f 74 77 72
f 17 71 23
f 71 73 81
f 23 81 24
f 71 81 23
f 73 78 82
f 78 80 83
f 82 83 84
f 78 83 82
f 24 85 28
f 85 84 86
f 28 86 30
f 85 86 28
f 73 82 81
f 82 84 85
f 81 85 24
f 82 85 81
f 30 86 87
f 86 84 88
f 87 88 89
f 86 88 87
f 84 83 90
f 83 80 91
f 90 91 92
f 83 91 90
f 89 93 94
f 93 92 95
f 94 95 96
f 93 95 94
f 84 90 88
f 90 92 93
f 88 93 89
f 90 93 88
f 30 87 97
f 87 89 98
f 37 99 38
f 87 98 97
f 89 94 100
f 94 96 101
f 102 103 104
f 94 101 100
f 38 105 41
f 105 104 106
f 41 106 42
f 105 106 41
f 89 100 98
f 102 104 105
f 99 105 38
f 102 105 99
f 42 106 107
f 106 104 108
f 107 108 109
f 106 108 107
f 104 103 110
f 101 96 111
f 110 112 113
f 103 112 110
f 109 114 115
f 114 113 116
f 115 116 117
f 114 116 115
f 104 110 108
f 110 113 114
f 108 114 109
f 110 114 108
f 42 107 47
f 107 109 118
f 47 118 48
f 107 118 47
f 109 115 119
f 115 117 120
f 119 120 121
f 115 120 119
f 48 122 51
f 122 121 123
f 51 123 52
f 122 123 51
f 109 119 118
f 119 121 122
f 118 122 48
f 119 122 118
f 52 123 124
f 123 121 125
f 124 125 126
f 123 125 124
f 121 120 127
f 120 117 128
f 127 128 129
f 120 128 127
f 126 130 131
f 130 129 132
f 131 132 133
f 130 132 131
f 121 127 125
f 127 129 130
f 125 130 126
f 127 130 125
f 52 124 55
f 124 126 134
f 55 134 56
f 124 134 55
f 126 131 135
f 131 133 136
f 135 136 137
f 131 136 135
f 56 138 58
f 138 137 139
f 58 139 9
f 138 139 58
f 126 135 134
f 135 137 138
f 134 138 56
f 135 138 134
f 9 139 59
f 139 137 140
f 60 141 61
f 139 140 59
f 137 136 142
f 136 133 143
f 144 145 146
f 136 143 142
f 61 147 64
f 147 146 148
f 64 148 66
f 147 148 64
f 137 142 140
f 144 146 147
f 141 147 61
f 144 147 141
f 149 150 151
f 150 152 153
f 151 153 154
f 150 153 151
f 152 155 156
f 155 80 79
f 156 79 76
f 155 79 156
f 154 157 158
f 157 76 75
f 158 75 66
f 157 75 158
f 152 156 153
f 156 76 157
f 153 157 154
f 156 157 153
f 149 159 150
f 159 160 161
f 150 161 152
f 159 161 150
f 160 162 163
f 162 96 95
f 163 95 92
f 162 95 163
f 152 164 155
f 164 92 91
f 155 91 80
f 164 91 155
f 160 163 161
f 163 92 164
f 161 164 152
f 163 164 161
f 149 165 159
f 165 166 167
f 159 167 160
f 165 167 159
f 168 169 170
f 169 117 116
f 170 116 113
f 169 116 170
f 160 171 162
f 171 172 111
f 162 111 96
f 171 111 162
f 166 173 167
f 173 172 171
f 167 171 160
f 173 171 167
f 149 174 165
f 174 175 176
f 165 176 166
f 174 176 165
f 175 177 178
f 179 133 132
f 180 132 129
f 179 132 180
f 168 181 169
f 181 129 128
f 169 128 117
f 181 128 169
f 175 178 176
f 180 129 181
f 176 182 166
f 178 182 176
f 149 151 174
f 151 154 183
f 174 183 175
f 151 183 174
f 154 158 184
f 158 66 148
f 184 148 146
f 158 148 184
f 175 185 177
f 185 146 145
f 177 145 186
f 185 145 177
f 154 184 183
f 184 146 185
f 183 185 175
f 184 185 183
f 10 63 11
f 11 63 15
f 11 15 18
f 18 15 13
f 18 13 6
f 6 13 12
f 25 27 26
f 26 27 29
f 6 12 31
f 31 12 22
f 31 22 25
f 25 22 27
f 26 29 36
f 36 29 30
f 36 30 37
f 37 30 97
f 59 60 10
f 10 60 63
f 37 97 99
f 99 97 98
f 102 100 103
f 103 100 101
f 99 98 102
f 102 98 100
f 112 111 113
f 113 111 172
f 103 101 112
f 112 101 111
f 140 141 59
f 59 141 60
f 133 186 143
f 143 186 145
f 143 145 142
f 142 145 144
f 142 144 140
f 140 144 141
f 170 173 168
f 168 173 166
f 113 172 170
f 170 172 173
f 179 177 133
f 133 177 186
f 180 178 179
f 179 178 177
f 168 166 181
f 181 166 182
f 181 182 180
f 180 182 178
