v 0.226557 1.13991 -0.452443
v 0.261427 1.09609 -0.456917
v 0.255844 1.14488 -0.500125
v 0.284693 1.04666 -0.47
v 0.288089 1.09726 -0.508555
v 0.273953 1.14052 -0.553125
v 0.294586 0.995377 -0.490695
v 0.307802 1.03738 -0.528637
v 0.29035 0.946149 -0.517427
v 0.308493 0.984969 -0.553756
v 0.31145 1.02663 -0.591322
v 0.302155 1.08673 -0.572338
v 0.279505 1.12717 -0.607411
v 0.302155 1.06485 -0.652338
v 0.31145 1.00475 -0.671322
v 0.298996 1.04609 -0.707265
v 0.279505 1.10529 -0.687411
v 0.272078 1.08396 -0.738848
v 0.203604 1.18062 -0.483621
v 0.229604 1.18275 -0.535564
v 0.17345 1.20928 -0.521374
v 0.243671 1.17222 -0.599347
v 0.241173 1.13062 -0.733968
v 0.243671 1.15034 -0.679347
v 0.200207 1.16737 -0.722696
v 0.190833 1.20837 -0.582655
v 0.138389 1.22371 -0.562829
v 0.200207 1.18925 -0.642696
v 0.152297 1.2133 -0.62589
v 0.101092 1.22281 -0.60483
v 0.176901 1.15391 -0.430214
v 0.149758 1.19189 -0.464854
v 0.122076 1.1579 -0.418626
v 0.110987 1.21751 -0.511944
v 0.0733535 1.22233 -0.55598
v 0.0483289 1.20663 -0.508197
v 0.0839776 1.1905 -0.457926
v 0.0662551 1.15157 -0.418561
v 0.0279228 1.1769 -0.465118
v 0.0136885 1.13541 -0.430024
v 0.212637 1.10167 -0.41371
v 0.158894 1.11204 -0.394143
v 0.190828 1.0574 -0.386875
v 0.0931137 1.11065 -0.387215
v 0.0369556 1.09796 -0.395207
v 0.0657069 1.05475 -0.373697
v 0.129259 1.05781 -0.370523
v 0.16279 1.01046 -0.373979
v 0.0977538 1.00908 -0.36713
v 0.130657 0.964421 -0.376006
v 0.244387 1.05356 -0.421152
v 0.214752 0.999328 -0.397532
v 0.18228 0.951259 -0.393833
v 0.228325 0.94351 -0.425071
v 0.2641 0.993681 -0.441233
v 0.265286 0.941762 -0.467342
v 0.287789 0.924921 -0.569377
v 0.287789 0.903039 -0.649377
v 0.271618 0.889228 -0.701374
v 0.300928 0.944238 -0.688219
v 0.308493 0.963087 -0.633756
v 0.243068 0.883885 -0.749461
v 0.27434 0.932851 -0.74772
v 0.204312 0.887417 -0.789976
v 0.237485 0.932675 -0.792668
v 0.260878 0.983093 -0.7845
v 0.295281 0.993586 -0.73192
v 0.272709 1.03483 -0.766093
v 0.236973 1.08707 -0.782596
v 0.232548 1.03504 -0.808114
v 0.192125 1.0836 -0.816251
v 0.211607 0.974301 -0.823913
v 0.181045 0.924866 -0.824793
v 0.152293 0.968071 -0.846303
v 0.175462 1.02714 -0.840606
v 0.14095 1.07379 -0.83725
v 0.120246 1.01374 -0.85287
v 0.0873432 1.0584 -0.843994
v 0.200652 1.13192 -0.775622
v 0.143566 1.12402 -0.808114
v 0.0887104 1.10953 -0.820746
v 0.0916221 1.15235 -0.7845
v 0.147814 1.16806 -0.758929
v 0.152297 1.19142 -0.70589
v 0.0958566 1.18361 -0.738015
v 0.101092 1.20093 -0.68483
v 0.0470668 1.18919 -0.694808
v 0.0413797 1.16581 -0.74772
v -0.00224348 1.16309 -0.701374
v 0.0371312 1.12177 -0.796904
v 0.0357201 1.07156 -0.826167
v -0.0103246 1.07931 -0.794929
v -0.0122168 1.12741 -0.753203
v -0.0430856 1.12461 -0.70403
v -0.047286 1.08106 -0.752658
v -0.0723504 1.07668 -0.702573
v 0.0470668 1.21107 -0.614808
v -0.00224348 1.18497 -0.621374
v 0.0186192 1.20473 -0.564517
v -0.0430856 1.14649 -0.62403
v -0.0349774 1.16633 -0.57
v -0.0697891 1.0979 -0.650623
v -0.0697891 1.11979 -0.570623
v -0.0536178 1.1336 -0.518626
v -0.00838992 1.17772 -0.510499
v -0.0250675 1.13894 -0.470539
v -0.0194849 1.09015 -0.427332
v -0.05634 1.08997 -0.47228
v -0.0428776 1.03973 -0.4355
v -0.0829275 1.07859 -0.531781
v -0.0904933 1.03786 -0.666244
v -0.0904933 1.05974 -0.586244
v -0.09345 1.01807 -0.548678
v -0.0772811 1.02924 -0.48808
v -0.0547089 0.987989 -0.453907
v -0.0809956 0.976731 -0.512735
v -0.0540782 0.938863 -0.481152
v 0.00639266 1.04852 -0.396087
v -0.0145484 0.987787 -0.411886
v -0.0189726 0.935749 -0.437404
v 0.0258746 0.939227 -0.403749
v 0.0425379 0.995685 -0.379394
v 0.0770497 0.949033 -0.38275
v 0.12929 0.913297 -0.399254
v 0.0744346 0.898804 -0.411886
v 0.126378 0.870475 -0.4355
v 0.0173483 0.890907 -0.444378
v -0.0231731 0.892204 -0.486032
v 0.0177935 0.855453 -0.497304
v 0.0701861 0.854761 -0.461071
v 0.122143 0.839215 -0.481985
v 0.065703 0.831406 -0.51411
v 0.116908 0.821895 -0.53517
v 0.180869 0.901056 -0.423096
v 0.17662 0.857013 -0.47228
v 0.170933 0.833632 -0.525192
v 0.220244 0.859735 -0.518626
v 0.230217 0.895409 -0.466797
v 0.261086 0.898217 -0.51597
v 0.261086 0.876336 -0.59597
v 0.220244 0.837854 -0.598626
v 0.252977 0.856494 -0.65
v 0.170933 0.811751 -0.605192
v 0.199381 0.818097 -0.655483
v 0.116908 0.800014 -0.61517
v 0.144647 0.800492 -0.66402
v 0.169671 0.816193 -0.711803
v 0.22639 0.845107 -0.709501
v 0.190077 0.845923 -0.754882
v -0.00855704 0.882914 -0.767557
v 0.00536297 0.92115 -0.80629
v 0.0410993 0.86891 -0.789786
v 0.0271721 0.965425 -0.833125
v 0.0591063 0.910783 -0.825857
v 0.0959244 0.864921 -0.801374
v 0.0552104 1.01237 -0.846021
v 0.0887411 0.965012 -0.849477
v 0.124886 0.912175 -0.832785
v 0.151745 0.871251 -0.801439
v -0.0434268 0.926733 -0.763083
v -0.0666934 0.976165 -0.75
v -0.0263869 0.969267 -0.798848
v -0.0765856 1.02745 -0.729305
v -0.0461002 1.02914 -0.778767
v 0.00324788 1.0235 -0.822468
v -0.0378443 0.877943 -0.719875
v -0.0559532 0.882299 -0.666875
v -0.0700885 0.925566 -0.711445
v -0.0615054 0.895651 -0.612589
v -0.0841554 0.936093 -0.647662
v -0.0615054 0.917532 -0.532589
v -0.0841554 0.957975 -0.567662
v -0.0898018 0.985441 -0.691363
v -0.09345 0.996189 -0.628678
v 0.0143958 0.842207 -0.736379
v 0.0445501 0.813547 -0.698626
v -0.0116044 0.840073 -0.684436
v 0.0796106 0.799116 -0.657171
v 0.0271666 0.814455 -0.637345
v 0.065703 0.809525 -0.59411
v 0.0177935 0.833571 -0.577304
v -0.0256712 0.8506 -0.620653
v -0.0256712 0.872482 -0.540653
v 0.0682425 0.830936 -0.755146
v 0.134022 0.832328 -0.762074
v 0.107013 0.805319 -0.708056
f 1 2 3
f 2 4 5
f 3 5 6
f 2 5 3
f 4 7 8
f 7 9 10
f 8 10 11
f 7 10 8
f 6 12 13
f 14 15 16
f 17 16 18
f 14 16 17
f 4 8 5
f 8 11 12
f 5 12 6
f 8 12 5
f 1 3 19
f 3 6 20
f 19 20 21
f 3 20 19
f 6 13 22
f 17 18 23
f 24 23 25
f 17 23 24
f 21 26 27
f 26 28 29
f 27 29 30
f 26 29 27
f 6 22 20
f 22 28 26
f 20 26 21
f 22 26 20
f 1 19 31
f 19 21 32
f 31 32 33
f 19 32 31
f 21 27 34
f 27 30 35
f 34 35 36
f 27 35 34
f 33 37 38
f 37 36 39
f 38 39 40
f 37 39 38
f 21 34 32
f 34 36 37
f 32 37 33
f 34 37 32
f 1 31 41
f 31 33 42
f 41 42 43
f 31 42 41
f 33 38 44
f 38 40 45
f 44 45 46
f 38 45 44
f 43 47 48
f 47 46 49
f 48 49 50
f 47 49 48
f 33 44 42
f 44 46 47
f 42 47 43
f 44 47 42
f 1 41 2
f 41 43 51
f 2 51 4
f 41 51 2
f 43 48 52
f 48 50 53
f 52 53 54
f 48 53 52
f 4 55 7
f 55 54 56
f 7 56 9
f 55 56 7
f 43 52 51
f 52 54 55
f 51 55 4
f 52 55 51
f 9 57 10
f 58 59 60
f 61 60 15
f 58 60 61
f 59 62 63
f 62 64 65
f 63 65 66
f 62 65 63
f 15 67 16
f 67 66 68
f 16 68 18
f 67 68 16
f 59 63 60
f 63 66 67
f 60 67 15
f 63 67 60
f 18 68 69
f 68 66 70
f 69 70 71
f 68 70 69
f 66 65 72
f 65 64 73
f 72 73 74
f 65 73 72
f 71 75 76
f 75 74 77
f 76 77 78
f 75 77 76
f 66 72 70
f 72 74 75
f 70 75 71
f 72 75 70
f 18 69 23
f 69 71 79
f 23 79 25
f 69 79 23
f 71 76 80
f 76 78 81
f 80 81 82
f 76 81 80
f 25 83 84
f 83 82 85
f 84 85 86
f 83 85 84
f 71 80 79
f 80 82 83
f 79 83 25
f 80 83 79
f 86 85 87
f 85 82 88
f 87 88 89
f 85 88 87
f 82 81 90
f 81 78 91
f 90 91 92
f 81 91 90
f 89 93 94
f 93 92 95
f 94 95 96
f 93 95 94
f 82 90 88
f 90 92 93
f 88 93 89
f 90 93 88
f 30 97 35
f 97 98 99
f 35 99 36
f 97 99 35
f 98 100 101
f 94 96 102
f 101 103 104
f 100 103 101
f 36 105 39
f 105 104 106
f 39 106 40
f 105 106 39
f 98 101 99
f 101 104 105
f 99 105 36
f 101 105 99
f 40 106 107
f 106 104 108
f 107 108 109
f 106 108 107
f 104 103 110
f 102 96 111
f 110 112 113
f 103 112 110
f 109 114 115
f 114 113 116
f 115 116 117
f 114 116 115
f 104 110 108
f 110 113 114
f 108 114 109
f 110 114 108
f 40 107 45
f 107 109 118
f 45 118 46
f 107 118 45
f 109 115 119
f 115 117 120
f 119 120 121
f 115 120 119
f 46 122 49
f 122 121 123
f 49 123 50
f 122 123 49
f 109 119 118
f 119 121 122
f 118 122 46
f 119 122 118
f 50 123 124
f 123 121 125
f 124 125 126
f 123 125 124
f 121 120 127
f 120 117 128
f 127 128 129
f 120 128 127
f 126 130 131
f 130 129 132
f 131 132 133
f 130 132 131
f 121 127 125
f 127 129 130
f 125 130 126
f 127 130 125
f 50 124 53
f 124 126 134
f 53 134 54
f 124 134 53
f 126 131 135
f 131 133 136
f 135 136 137
f 131 136 135
f 54 138 56
f 138 137 139
f 56 139 9
f 138 139 56
f 126 135 134
f 135 137 138
f 134 138 54
f 135 138 134
f 9 139 57
f 140 141 142
f 58 142 59
f 140 142 58
f 141 143 144
f 143 145 146
f 144 146 147
f 143 146 144
f 59 148 62
f 148 147 149
f 62 149 64
f 148 149 62
f 141 144 142
f 144 147 148
f 142 148 59
f 144 148 142
f 150 151 152
f 151 153 154
f 152 154 155
f 151 154 152
f 153 156 157
f 156 78 77
f 157 77 74
f 156 77 157
f 155 158 159
f 158 74 73
f 159 73 64
f 158 73 159
f 153 157 154
f 157 74 158
f 154 158 155
f 157 158 154
f 150 160 151
f 160 161 162
f 151 162 153
f 160 162 151
f 161 163 164
f 163 96 95
f 164 95 92
f 163 95 164
f 153 165 156
f 165 92 91
f 156 91 78
f 165 91 156
f 161 164 162
f 164 92 165
f 162 165 153
f 164 165 162
f 150 166 160
f 166 167 168
f 160 168 161
f 166 168 160
f 167 169 170
f 171 117 116
f 172 116 113
f 171 116 172
f 161 173 163
f 173 174 111
f 163 111 96
f 173 111 163
f 167 170 168
f 170 174 173
f 168 173 161
f 170 173 168
f 150 175 166
f 175 176 177
f 166 177 167
f 175 177 166
f 176 178 179
f 178 145 180
f 179 180 181
f 178 180 179
f 167 182 169
f 183 129 128
f 171 128 117
f 183 128 171
f 176 179 177
f 179 181 182
f 177 182 167
f 179 182 177
f 150 152 175
f 152 155 184
f 175 184 176
f 152 184 175
f 155 159 185
f 159 64 149
f 185 149 147
f 159 149 185
f 176 186 178
f 186 147 146
f 178 146 145
f 186 146 178
f 155 185 184
f 185 147 186
f 184 186 176
f 185 186 184
f 10 61 11
f 11 61 15
f 12 14 13
f 13 14 17
f 11 15 12
f 12 15 14
f 13 17 22
f 22 17 24
f 28 25 29
f 29 25 84
f 29 84 30
f 30 84 86
f 22 24 28
f 28 24 25
f 57 58 10
f 10 58 61
f 30 86 97
f 97 86 87
f 97 87 98
f 98 87 89
f 98 89 100
f 100 89 94
f 100 94 103
f 103 94 102
f 112 111 113
f 113 111 174
f 103 102 112
f 112 102 111
f 129 181 132
f 132 181 180
f 132 180 133
f 133 180 145
f 133 145 136
f 136 145 143
f 136 143 137
f 137 143 141
f 137 141 139
f 139 141 140
f 139 140 57
f 57 140 58
f 113 174 172
f 172 174 170
f 172 170 171
f 171 170 169
f 183 182 129
f 129 182 181
f 171 169 183
f 183 169 182
