v 0.226557 1.11803 -0.532443
v 0.261427 1.07421 -0.536917
v 0.255844 1.123 -0.580125
v 0.284693 1.02478 -0.55
v 0.288089 1.07538 -0.588555
v 0.273953 1.11864 -0.633125
v 0.294586 0.973496 -0.570695
v 0.307802 1.0155 -0.608636
v 0.29035 0.924267 -0.597427
v 0.308493 0.963087 -0.633756
v 0.31145 1.00475 -0.671322
v 0.302155 1.06485 -0.652338
v 0.279505 1.10529 -0.687411
v 0.302155 1.01845 -0.772338
v 0.31145 0.958358 -0.791322
v 0.298996 0.999698 -0.827265
v 0.279505 1.0589 -0.807411
v 0.272078 1.03757 -0.858848
v 0.203604 1.15874 -0.563621
v 0.229604 1.16087 -0.615564
v 0.17345 1.1874 -0.601374
v 0.243671 1.15034 -0.679347
v 0.241173 1.08422 -0.853968
v 0.243671 1.10395 -0.799347
v 0.200207 1.12098 -0.842696
v 0.190833 1.18649 -0.662655
v 0.138389 1.20183 -0.642829
v 0.200207 1.16737 -0.722696
v 0.152297 1.19142 -0.70589
v 0.101092 1.20093 -0.68483
v 0.176901 1.13203 -0.510214
v 0.149758 1.17001 -0.544854
v 0.122076 1.13602 -0.498626
v 0.110987 1.19562 -0.591944
v 0.0733535 1.20045 -0.63598
v 0.0483289 1.18475 -0.588197
v 0.0839776 1.16861 -0.537926
v 0.0662551 1.12969 -0.498561
v 0.0279228 1.15502 -0.545118
v 0.0136885 1.11353 -0.510024
v 0.212637 1.07979 -0.49371
v 0.158894 1.09016 -0.474143
v 0.190828 1.03552 -0.466875
v 0.0931137 1.08877 -0.467215
v 0.0369556 1.07608 -0.475207
v 0.0657069 1.03287 -0.453697
v 0.129259 1.03593 -0.450523
v 0.16279 0.988576 -0.453979
v 0.0977538 0.9872 -0.44713
v 0.130657 0.942539 -0.456005
v 0.244387 1.03168 -0.501152
v 0.214752 0.977446 -0.477532
v 0.18228 0.929378 -0.473833
v 0.228325 0.921628 -0.505071
v 0.2641 0.9718 -0.521233
v 0.265286 0.91988 -0.547342
v 0.29035 0.877872 -0.717427
v 0.287789 0.856644 -0.769377
v 0.308493 0.916692 -0.753756
v 0.271618 0.842832 -0.821374
v 0.300928 0.897843 -0.808219
v 0.243068 0.837489 -0.869461
v 0.27434 0.886456 -0.86772
v 0.204312 0.841021 -0.909976
v 0.237485 0.886279 -0.912668
v 0.260878 0.936698 -0.9045
v 0.295281 0.947191 -0.85192
v 0.272709 0.98844 -0.886093
v 0.236973 1.04068 -0.902596
v 0.232548 0.988641 -0.928114
v 0.192125 1.0372 -0.936251
v 0.211607 0.927906 -0.943913
v 0.181045 0.878471 -0.944793
v 0.152293 0.921676 -0.966303
v 0.175462 0.980744 -0.960606
v 0.14095 1.0274 -0.95725
v 0.120246 0.967347 -0.97287
v 0.0873432 1.01201 -0.963995
v 0.200652 1.08552 -0.895622
v 0.143566 1.07762 -0.928114
v 0.0887104 1.06313 -0.940746
v 0.0916221 1.10595 -0.9045
v 0.147814 1.12167 -0.878929
v 0.152297 1.14502 -0.82589
v 0.0958566 1.13721 -0.858015
v 0.0958566 1.18361 -0.738015
v 0.0470668 1.18919 -0.694808
v 0.0413797 1.11942 -0.86772
v 0.0470668 1.1428 -0.814808
v -0.00224348 1.11669 -0.821374
v 0.0371312 1.07537 -0.916904
v 0.0357201 1.02517 -0.946167
v -0.0103246 1.03292 -0.914929
v -0.0122168 1.08102 -0.873203
v -0.0430856 1.07821 -0.82403
v -0.047286 1.03467 -0.872658
v -0.0723504 1.03028 -0.822573
v -0.00224348 1.16309 -0.701374
v 0.0186192 1.18285 -0.644517
v -0.0430856 1.12461 -0.70403
v -0.0349774 1.14445 -0.65
v -0.0723504 1.07668 -0.702573
v -0.0697891 1.0979 -0.650623
v -0.0536178 1.11171 -0.598626
v -0.00838992 1.15584 -0.590499
v -0.0250675 1.11706 -0.550539
v -0.0194849 1.06827 -0.507332
v -0.05634 1.06809 -0.55228
v -0.0428776 1.01785 -0.5155
v -0.0829275 1.0567 -0.611781
v -0.0904933 1.03786 -0.666244
v -0.09345 0.996189 -0.628678
v -0.0772811 1.00736 -0.56808
v -0.0547089 0.966108 -0.533907
v -0.0809956 0.954849 -0.592735
v -0.0540782 0.916982 -0.561152
v 0.00639266 1.02664 -0.476087
v -0.0145484 0.965906 -0.491886
v -0.0189726 0.913868 -0.517404
v 0.0258746 0.917346 -0.483749
v 0.0425379 0.973804 -0.459394
v 0.0770497 0.927152 -0.46275
v 0.12929 0.891416 -0.479254
v 0.0744346 0.876923 -0.491886
v 0.126378 0.848594 -0.5155
v 0.0173483 0.869025 -0.524378
v -0.0231731 0.870323 -0.566032
v 0.0177935 0.833571 -0.577304
v 0.0701861 0.83288 -0.541071
v 0.122143 0.817333 -0.561985
v 0.065703 0.809525 -0.59411
v 0.122143 0.770938 -0.681985
v 0.065703 0.763129 -0.71411
v 0.116908 0.753618 -0.73517
v 0.180869 0.879174 -0.503096
v 0.17662 0.835131 -0.55228
v 0.170933 0.765355 -0.725192
v 0.170933 0.811751 -0.605192
v 0.220244 0.837854 -0.598626
v 0.230217 0.873528 -0.546797
v 0.261086 0.876336 -0.59597
v 0.261086 0.82994 -0.71597
v 0.220244 0.791458 -0.718626
v 0.252977 0.810099 -0.77
v 0.199381 0.771702 -0.775483
v 0.144647 0.754097 -0.78402
v 0.169671 0.769798 -0.831803
v 0.22639 0.798711 -0.829501
v 0.190077 0.799527 -0.874882
v -0.00855704 0.836519 -0.887557
v 0.00536297 0.874755 -0.92629
v 0.0410993 0.822515 -0.909786
v 0.0271721 0.919029 -0.953125
v 0.0591063 0.864388 -0.945857
v 0.0959244 0.818526 -0.921374
v 0.0552104 0.965971 -0.966021
v 0.0887411 0.918617 -0.969477
v 0.124886 0.865779 -0.952785
v 0.151745 0.824855 -0.921439
v -0.0434268 0.880337 -0.883083
v -0.0666934 0.929769 -0.87
v -0.0263869 0.922872 -0.918848
v -0.0765856 0.981051 -0.849305
v -0.0461002 0.982748 -0.898767
v 0.00324788 0.977101 -0.942468
v -0.0378443 0.831548 -0.839875
v -0.0559532 0.835904 -0.786875
v -0.0700885 0.87917 -0.831445
v -0.0615054 0.849256 -0.732589
v -0.0841554 0.889698 -0.767662
v -0.0615054 0.895651 -0.612589
v -0.0841554 0.936093 -0.647662
v -0.0898018 0.939046 -0.811363
v -0.09345 0.949794 -0.748678
v -0.0904933 0.99146 -0.786244
v 0.0143958 0.795811 -0.856379
v 0.0445501 0.767151 -0.818626
v -0.0116044 0.793677 -0.804436
v 0.0796106 0.752721 -0.777171
v 0.0271666 0.768059 -0.757345
v 0.0177935 0.787176 -0.697304
v -0.0256712 0.804205 -0.740653
v -0.0256712 0.8506 -0.620653
v 0.0682425 0.784541 -0.875146
v 0.134022 0.785932 -0.882074
v 0.107013 0.758923 -0.828056
f 1 2 3
f 2 4 5
f 3 5 6
f 2 5 3
f 4 7 8
f 7 9 10
f 8 10 11
f 7 10 8
f 6 12 13
f 14 15 16
f 17 16 18
f 14 16 17
f 4 8 5
f 8 11 12
f 5 12 6
f 8 12 5
f 1 3 19
f 3 6 20
f 19 20 21
f 3 20 19
f 6 13 22
f 17 18 23
f 24 23 25
f 17 23 24
f 21 26 27
f 26 28 29
f 27 29 30
f 26 29 27
f 6 22 20
f 22 28 26
f 20 26 21
f 22 26 20
f 1 19 31
f 19 21 32
f 31 32 33
f 19 32 31
f 21 27 34
f 27 30 35
f 34 35 36
f 27 35 34
f 33 37 38
f 37 36 39
f 38 39 40
f 37 39 38
f 21 34 32
f 34 36 37
f 32 37 33
f 34 37 32
f 1 31 41
f 31 33 42
f 41 42 43
f 31 42 41
f 33 38 44
f 38 40 45
f 44 45 46
f 38 45 44
f 43 47 48
f 47 46 49
f 48 49 50
f 47 49 48
f 33 44 42
f 44 46 47
f 42 47 43
f 44 47 42
f 1 41 2
f 41 43 51
f 2 51 4
f 41 51 2
f 43 48 52
f 48 50 53
f 52 53 54
f 48 53 52
f 4 55 7
f 55 54 56
f 7 56 9
f 55 56 7
f 43 52 51
f 52 54 55
f 51 55 4
f 52 55 51
f 57 58 59
f 58 60 61
f 59 61 15
f 58 61 59
f 60 62 63
f 62 64 65
f 63 65 66
f 62 65 63
f 15 67 16
f 67 66 68
f 16 68 18
f 67 68 16
f 60 63 61
f 63 66 67
f 61 67 15
f 63 67 61
f 18 68 69
f 68 66 70
f 69 70 71
f 68 70 69
f 66 65 72
f 65 64 73
f 72 73 74
f 65 73 72
f 71 75 76
f 75 74 77
f 76 77 78
f 75 77 76
f 66 72 70
f 72 74 75
f 70 75 71
f 72 75 70
f 18 69 23
f 69 71 79
f 23 79 25
f 69 79 23
f 71 76 80
f 76 78 81
f 80 81 82
f 76 81 80
f 25 83 84
f 83 82 85
f 29 86 30
f 83 85 84
f 71 80 79
f 80 82 83
f 79 83 25
f 80 83 79
f 30 86 87
f 85 82 88
f 89 88 90
f 85 88 89
f 82 81 91
f 81 78 92
f 91 92 93
f 81 92 91
f 90 94 95
f 94 93 96
f 95 96 97
f 94 96 95
f 82 91 88
f 91 93 94
f 88 94 90
f 91 94 88
f 30 87 35
f 87 98 99
f 35 99 36
f 87 99 35
f 98 100 101
f 100 102 103
f 101 103 104
f 100 103 101
f 36 105 39
f 105 104 106
f 39 106 40
f 105 106 39
f 98 101 99
f 101 104 105
f 99 105 36
f 101 105 99
f 40 106 107
f 106 104 108
f 107 108 109
f 106 108 107
f 104 103 110
f 103 102 111
f 110 111 112
f 103 111 110
f 109 113 114
f 113 112 115
f 114 115 116
f 113 115 114
f 104 110 108
f 110 112 113
f 108 113 109
f 110 113 108
f 40 107 45
f 107 109 117
f 45 117 46
f 107 117 45
f 109 114 118
f 114 116 119
f 118 119 120
f 114 119 118
f 46 121 49
f 121 120 122
f 49 122 50
f 121 122 49
f 109 118 117
f 118 120 121
f 117 121 46
f 118 121 117
f 50 122 123
f 122 120 124
f 123 124 125
f 122 124 123
f 120 119 126
f 119 116 127
f 126 127 128
f 119 127 126
f 125 129 130
f 129 128 131
f 132 133 134
f 129 131 130
f 120 126 124
f 126 128 129
f 124 129 125
f 126 129 124
f 50 123 53
f 123 125 135
f 53 135 54
f 123 135 53
f 125 130 136
f 132 134 137
f 136 138 139
f 130 138 136
f 54 140 56
f 140 139 141
f 56 141 9
f 140 141 56
f 125 136 135
f 136 139 140
f 135 140 54
f 136 140 135
f 57 142 58
f 142 143 144
f 58 144 60
f 142 144 58
f 143 137 145
f 137 134 146
f 145 146 147
f 137 146 145
f 60 148 62
f 148 147 149
f 62 149 64
f 148 149 62
f 143 145 144
f 145 147 148
f 144 148 60
f 145 148 144
f 150 151 152
f 151 153 154
f 152 154 155
f 151 154 152
f 153 156 157
f 156 78 77
f 157 77 74
f 156 77 157
f 155 158 159
f 158 74 73
f 159 73 64
f 158 73 159
f 153 157 154
f 157 74 158
f 154 158 155
f 157 158 154
f 150 160 151
f 160 161 162
f 151 162 153
f 160 162 151
f 161 163 164
f 163 97 96
f 164 96 93
f 163 96 164
f 153 165 156
f 165 93 92
f 156 92 78
f 165 92 156
f 161 164 162
f 164 93 165
f 162 165 153
f 164 165 162
f 150 166 160
f 166 167 168
f 160 168 161
f 166 168 160
f 167 169 170
f 171 116 115
f 172 115 112
f 171 115 172
f 161 173 163
f 173 174 175
f 163 175 97
f 173 175 163
f 167 170 168
f 170 174 173
f 168 173 161
f 170 173 168
f 150 176 166
f 176 177 178
f 166 178 167
f 176 178 166
f 177 179 180
f 179 134 133
f 180 133 181
f 179 133 180
f 167 182 169
f 183 128 127
f 171 127 116
f 183 127 171
f 177 180 178
f 180 181 182
f 178 182 167
f 180 182 178
f 150 152 176
f 152 155 184
f 176 184 177
f 152 184 176
f 155 159 185
f 159 64 149
f 185 149 147
f 159 149 185
f 177 186 179
f 186 147 146
f 179 146 134
f 186 146 179
f 155 185 184
f 185 147 186
f 184 186 177
f 185 186 184
f 9 57 10
f 10 57 59
f 10 59 11
f 11 59 15
f 12 14 13
f 13 14 17
f 11 15 12
f 12 15 14
f 13 17 22
f 22 17 24
f 28 25 29
f 29 25 84
f 22 24 28
f 28 24 25
f 29 84 86
f 86 84 85
f 86 85 87
f 87 85 89
f 87 89 98
f 98 89 90
f 98 90 100
f 100 90 95
f 100 95 102
f 102 95 97
f 102 97 111
f 111 97 175
f 111 175 112
f 112 175 174
f 128 181 131
f 131 181 133
f 131 133 130
f 130 133 132
f 138 137 139
f 139 137 143
f 130 132 138
f 138 132 137
f 139 143 141
f 141 143 142
f 141 142 9
f 9 142 57
f 112 174 172
f 172 174 170
f 172 170 171
f 171 170 169
f 183 182 128
f 128 182 181
f 171 169 183
f 183 169 182
