v 0.226557 1.07163 -0.652443
v 0.261427 1.02781 -0.656917
v 0.255844 1.0766 -0.700125
v 0.284693 0.978383 -0.67
v 0.288089 1.02898 -0.708555
v 0.273953 1.07225 -0.753125
v 0.294586 0.9271 -0.690695
v 0.307802 0.969106 -0.728637
v 0.29035 0.877872 -0.717427
v 0.308493 0.916692 -0.753756
v 0.31145 0.958358 -0.791322
v 0.302155 1.01845 -0.772338
v 0.279505 1.0589 -0.807411
v 0.298996 0.999698 -0.827265
v 0.272078 1.03757 -0.858848
v 0.203604 1.11234 -0.683621
v 0.229604 1.11447 -0.735564
v 0.17345 1.141 -0.721374
v 0.243671 1.10395 -0.799347
v 0.241173 1.08422 -0.853968
v 0.200207 1.12098 -0.842696
v 0.190833 1.14009 -0.782655
v 0.138389 1.15543 -0.762829
v 0.152297 1.14502 -0.82589
v 0.101092 1.15453 -0.80483
v 0.176901 1.08564 -0.630214
v 0.149758 1.12361 -0.664854
v 0.122076 1.08963 -0.618626
v 0.110987 1.14923 -0.711944
v 0.0733535 1.15406 -0.75598
v 0.0483289 1.13835 -0.708197
v 0.0839776 1.12222 -0.657926
v 0.0662551 1.0833 -0.618561
v 0.0279228 1.10862 -0.665118
v 0.0136885 1.06713 -0.630024
v 0.212637 1.0334 -0.61371
v 0.158894 1.04376 -0.594143
v 0.190828 0.989123 -0.586875
v 0.0931137 1.04237 -0.587215
v 0.0369556 1.02968 -0.595207
v 0.0657069 0.986476 -0.573697
v 0.129259 0.989535 -0.570523
v 0.16279 0.942181 -0.573979
v 0.0977538 0.940805 -0.56713
v 0.130657 0.896144 -0.576005
v 0.244387 0.98528 -0.621152
v 0.214752 0.931051 -0.597532
v 0.18228 0.882982 -0.593833
v 0.228325 0.875233 -0.625071
v 0.2641 0.925404 -0.641233
v 0.265286 0.873485 -0.667342
v 0.287789 0.856644 -0.769377
v 0.271618 0.842832 -0.821374
v 0.300928 0.897843 -0.808219
v 0.243068 0.837489 -0.869461
v 0.27434 0.886456 -0.86772
v 0.204312 0.841021 -0.909976
v 0.237485 0.886279 -0.912668
v 0.260878 0.936698 -0.9045
v 0.295281 0.947191 -0.85192
v 0.272709 0.98844 -0.886093
v 0.236973 1.04068 -0.902596
v 0.232548 0.988641 -0.928114
v 0.192125 1.0372 -0.936251
v 0.211607 0.927906 -0.943913
v 0.181045 0.878471 -0.944793
v 0.152293 0.921676 -0.966303
v 0.175462 0.980744 -0.960606
v 0.14095 1.0274 -0.95725
v 0.120246 0.967347 -0.97287
v 0.0873432 1.01201 -0.963995
v 0.200652 1.08552 -0.895622
v 0.143566 1.07762 -0.928114
v 0.0887104 1.06313 -0.940746
v 0.0916221 1.10595 -0.9045
v 0.147814 1.12167 -0.878929
v 0.0958566 1.13721 -0.858015
v 0.0470668 1.1428 -0.814808
v 0.0413797 1.11942 -0.86772
v -0.00224348 1.11669 -0.821374
v 0.0371312 1.07537 -0.916904
v 0.0357201 1.02517 -0.946167
v -0.0103246 1.03292 -0.914929
v -0.0122168 1.08102 -0.873203
v -0.0430856 1.07821 -0.82403
v -0.047286 1.03467 -0.872658
v -0.0723504 1.03028 -0.822573
v 0.0186192 1.13645 -0.764517
v -0.0349774 1.09805 -0.77
v -0.0697891 1.05151 -0.770623
v -0.0536178 1.06532 -0.718626
v -0.00838992 1.10944 -0.710499
v -0.0250675 1.07066 -0.670539
v -0.0194849 1.02187 -0.627332
v -0.05634 1.0217 -0.67228
v -0.0428776 0.971454 -0.6355
v -0.0829275 1.01031 -0.731781
v -0.0904933 0.99146 -0.786244
v -0.09345 0.949794 -0.748678
v -0.0772811 0.960961 -0.68808
v -0.0547089 0.919712 -0.653907
v -0.0809956 0.908454 -0.712735
v -0.0540782 0.870587 -0.681152
v 0.00639266 0.980246 -0.596087
v -0.0145484 0.91951 -0.611886
v -0.0189726 0.867472 -0.637404
v 0.0258746 0.870951 -0.603749
v 0.0425379 0.927408 -0.579394
v 0.0770497 0.880757 -0.58275
v 0.12929 0.84502 -0.599254
v 0.0744346 0.830527 -0.611886
v 0.126378 0.802198 -0.6355
v 0.0173483 0.82263 -0.644378
v -0.0231731 0.823928 -0.686032
v 0.0177935 0.787176 -0.697304
v 0.0701861 0.786485 -0.661071
v 0.122143 0.770938 -0.681985
v 0.065703 0.763129 -0.71411
v 0.116908 0.753618 -0.73517
v 0.180869 0.832779 -0.623096
v 0.17662 0.788736 -0.67228
v 0.170933 0.765355 -0.725192
v 0.220244 0.791458 -0.718626
v 0.230217 0.827132 -0.666797
v 0.261086 0.82994 -0.71597
v 0.252977 0.810099 -0.77
v 0.199381 0.771702 -0.775483
v 0.144647 0.754097 -0.78402
v 0.169671 0.769798 -0.831803
v 0.22639 0.798711 -0.829501
v 0.190077 0.799527 -0.874882
v -0.00855704 0.836519 -0.887557
v 0.00536297 0.874755 -0.92629
v 0.0410993 0.822515 -0.909786
v 0.0271721 0.919029 -0.953125
v 0.0591063 0.864388 -0.945857
v 0.0959244 0.818526 -0.921374
v 0.0552104 0.965971 -0.966021
v 0.0887411 0.918617 -0.969477
v 0.124886 0.865779 -0.952785
v 0.151745 0.824855 -0.921439
v -0.0434268 0.880337 -0.883083
v -0.0666934 0.929769 -0.87
v -0.0263869 0.922872 -0.918848
v -0.0765856 0.981051 -0.849305
v -0.0461002 0.982748 -0.898767
v 0.00324788 0.977101 -0.942468
v -0.0378443 0.831548 -0.839875
v -0.0559532 0.835904 -0.786875
v -0.0700885 0.87917 -0.831445
v -0.0615054 0.849256 -0.732589
v -0.0841554 0.889698 -0.767662
v -0.0898018 0.939046 -0.811363
v 0.0143958 0.795811 -0.856379
v 0.0445501 0.767151 -0.818626
v -0.0116044 0.793677 -0.804436
v 0.0796106 0.752721 -0.777171
v 0.0271666 0.768059 -0.757345
v -0.0256712 0.804205 -0.740653
v 0.0682425 0.784541 -0.875146
v 0.134022 0.785932 -0.882074
v 0.107013 0.758923 -0.828056
f 1 2 3
f 2 4 5
f 3 5 6
f 2 5 3
f 4 7 8
f 7 9 10
f 8 10 11
f 7 10 8
f 6 12 13
f 12 11 14
f 13 14 15
f 12 14 13
f 4 8 5
f 8 11 12
f 5 12 6
f 8 12 5
f 1 3 16
f 3 6 17
f 16 17 18
f 3 17 16
f 6 13 19
f 13 15 20
f 19 20 21
f 13 20 19
f 18 22 23
f 22 21 24
f 23 24 25
f 22 24 23
f 6 19 17
f 19 21 22
f 17 22 18
f 19 22 17
f 1 16 26
f 16 18 27
f 26 27 28
f 16 27 26
f 18 23 29
f 23 25 30
f 29 30 31
f 23 30 29
f 28 32 33
f 32 31 34
f 33 34 35
f 32 34 33
f 18 29 27
f 29 31 32
f 27 32 28
f 29 32 27
f 1 26 36
f 26 28 37
f 36 37 38
f 26 37 36
f 28 33 39
f 33 35 40
f 39 40 41
f 33 40 39
f 38 42 43
f 42 41 44
f 43 44 45
f 42 44 43
f 28 39 37
f 39 41 42
f 37 42 38
f 39 42 37
f 1 36 2
f 36 38 46
f 2 46 4
f 36 46 2
f 38 43 47
f 43 45 48
f 47 48 49
f 43 48 47
f 4 50 7
f 50 49 51
f 7 51 9
f 50 51 7
f 38 47 46
f 47 49 50
f 46 50 4
f 47 50 46
f 9 52 10
f 52 53 54
f 10 54 11
f 52 54 10
f 53 55 56
f 55 57 58
f 56 58 59
f 55 58 56
f 11 60 14
f 60 59 61
f 14 61 15
f 60 61 14
f 53 56 54
f 56 59 60
f 54 60 11
f 56 60 54
f 15 61 62
f 61 59 63
f 62 63 64
f 61 63 62
f 59 58 65
f 58 57 66
f 65 66 67
f 58 66 65
f 64 68 69
f 68 67 70
f 69 70 71
f 68 70 69
f 59 65 63
f 65 67 68
f 63 68 64
f 65 68 63
f 15 62 20
f 62 64 72
f 20 72 21
f 62 72 20
f 64 69 73
f 69 71 74
f 73 74 75
f 69 74 73
f 21 76 24
f 76 75 77
f 24 77 25
f 76 77 24
f 64 73 72
f 73 75 76
f 72 76 21
f 73 76 72
f 25 77 78
f 77 75 79
f 78 79 80
f 77 79 78
f 75 74 81
f 74 71 82
f 81 82 83
f 74 82 81
f 80 84 85
f 84 83 86
f 85 86 87
f 84 86 85
f 75 81 79
f 81 83 84
f 79 84 80
f 81 84 79
f 25 78 30
f 78 80 88
f 30 88 31
f 78 88 30
f 80 85 89
f 85 87 90
f 89 90 91
f 85 90 89
f 31 92 34
f 92 91 93
f 34 93 35
f 92 93 34
f 80 89 88
f 89 91 92
f 88 92 31
f 89 92 88
f 35 93 94
f 93 91 95
f 94 95 96
f 93 95 94
f 91 90 97
f 90 87 98
f 97 98 99
f 90 98 97
f 96 100 101
f 100 99 102
f 101 102 103
f 100 102 101
f 91 97 95
f 97 99 100
f 95 100 96
f 97 100 95
f 35 94 40
f 94 96 104
f 40 104 41
f 94 104 40
f 96 101 105
f 101 103 106
f 105 106 107
f 101 106 105
f 41 108 44
f 108 107 109
f 44 109 45
f 108 109 44
f 96 105 104
f 105 107 108
f 104 108 41
f 105 108 104
f 45 109 110
f 109 107 111
f 110 111 112
f 109 111 110
f 107 106 113
f 106 103 114
f 113 114 115
f 106 114 113
f 112 116 117
f 116 115 118
f 117 118 119
f 116 118 117
f 107 113 111
f 113 115 116
f 111 116 112
f 113 116 111
f 45 110 48
f 110 112 120
f 48 120 49
f 110 120 48
f 112 117 121
f 117 119 122
f 121 122 123
f 117 122 121
f 49 124 51
f 124 123 125
f 51 125 9
f 124 125 51
f 112 121 120
f 121 123 124
f 120 124 49
f 121 124 120
f 9 125 52
f 125 123 126
f 52 126 53
f 125 126 52
f 123 122 127
f 122 119 128
f 127 128 129
f 122 128 127
f 53 130 55
f 130 129 131
f 55 131 57
f 130 131 55
f 123 127 126
f 127 129 130
f 126 130 53
f 127 130 126
f 132 133 134
f 133 135 136
f 134 136 137
f 133 136 134
f 135 138 139
f 138 71 70
f 139 70 67
f 138 70 139
f 137 140 141
f 140 67 66
f 141 66 57
f 140 66 141
f 135 139 136
f 139 67 140
f 136 140 137
f 139 140 136
f 132 142 133
f 142 143 144
f 133 144 135
f 142 144 133
f 143 145 146
f 145 87 86
f 146 86 83
f 145 86 146
f 135 147 138
f 147 83 82
f 138 82 71
f 147 82 138
f 143 146 144
f 146 83 147
f 144 147 135
f 146 147 144
f 132 148 142
f 148 149 150
f 142 150 143
f 148 150 142
f 149 151 152
f 151 103 102
f 152 102 99
f 151 102 152
f 143 153 145
f 153 99 98
f 145 98 87
f 153 98 145
f 149 152 150
f 152 99 153
f 150 153 143
f 152 153 150
f 132 154 148
f 154 155 156
f 148 156 149
f 154 156 148
f 155 157 158
f 157 119 118
f 158 118 115
f 157 118 158
f 149 159 151
f 159 115 114
f 151 114 103
f 159 114 151
f 155 158 156
f 158 115 159
f 156 159 149
f 158 159 156
f 132 134 154
f 134 137 160
f 154 160 155
f 134 160 154
f 137 141 161
f 141 57 131
f 161 131 129
f 141 131 161
f 155 162 157
f 162 129 128
f 157 128 119
f 162 128 157
f 137 161 160
f 161 129 162
f 160 162 155
f 161 162 160
