v 0.226557 1.07163 -0.652443
v 0.261427 1.02781 -0.656917
v 0.255844 1.0766 -0.700125
v 0.284693 0.978383 -0.67
v 0.288089 1.02898 -0.708555
v 0.273953 1.07225 -0.753125
v 0.294586 0.9271 -0.690695
v 0.307802 0.969106 -0.728637
v 0.29035 0.877872 -0.717427
v 0.308493 0.916692 -0.753756
v 0.31145 0.958358 -0.791322
v 0.302155 1.01845 -0.772338
v 0.279505 1.0589 -0.807411
v 0.298996 0.999698 -0.827265
v 0.272078 1.03757 -0.858848
v 0.203604 1.11234 -0.683621
v 0.229604 1.11447 -0.735564
v 0.17345 1.141 -0.721374
v 0.243671 1.10395 -0.799347
v 0.241173 1.08422 -0.853968
v 0.200207 1.12098 -0.842696
v 0.190833 1.14009 -0.782655
v 0.138389 1.15543 -0.762829
v 0.152297 1.14502 -0.82589
v 0.101092 1.15453 -0.80483
v 0.176901 1.08564 -0.630214
v 0.149758 1.12361 -0.664854
v 0.122076 1.08963 -0.618626
v 0.110987 1.14923 -0.711944
v 0.0183895 1.15543 -0.762829
v -0.0189082 1.15453 -0.80483
v -0.0466464 1.15406 -0.75598
v -0.00901328 1.14923 -0.711944
v -0.071671 1.13835 -0.708197
v 0.00207569 1.08963 -0.618626
v -0.0360224 1.12222 -0.657926
v -0.0537448 1.0833 -0.618561
v -0.0920772 1.10862 -0.665118
v -0.106311 1.06713 -0.630024
v 0.0839776 1.12222 -0.657926
v 0.212637 1.0334 -0.61371
v 0.158894 1.04376 -0.594143
v 0.190828 0.989123 -0.586875
v -0.0268862 1.04237 -0.587215
v -0.0830444 1.02968 -0.595207
v -0.0542931 0.986476 -0.573697
v 0.129259 0.989535 -0.570523
v 0.16279 0.942181 -0.573979
v 0.00925899 0.989535 -0.570523
v -0.0222461 0.940805 -0.56713
v 0.0977538 0.940805 -0.56713
v 0.130657 0.896144 -0.576005
v 0.0931137 1.04237 -0.587215
v 0.244387 0.98528 -0.621152
v 0.214752 0.931051 -0.597532
v 0.18228 0.882982 -0.593833
v 0.228325 0.875233 -0.625071
v 0.2641 0.925404 -0.641233
v 0.265286 0.873485 -0.667342
v 0.287789 0.856644 -0.769377
v 0.271618 0.842832 -0.821374
v 0.300928 0.897843 -0.808219
v 0.243068 0.837489 -0.869461
v 0.27434 0.886456 -0.86772
v 0.204312 0.841021 -0.909976
v 0.237485 0.886279 -0.912668
v 0.260878 0.936698 -0.9045
v 0.295281 0.947191 -0.85192
v 0.272709 0.98844 -0.886093
v 0.236973 1.04068 -0.902596
v 0.232548 0.988641 -0.928114
v 0.192125 1.0372 -0.936251
v 0.211607 0.927906 -0.943913
v 0.181045 0.878471 -0.944793
v 0.152293 0.921676 -0.966303
v 0.175462 0.980744 -0.960606
v 0.14095 1.0274 -0.95725
v 0.120246 0.967347 -0.97287
v 0.0873432 1.01201 -0.963995
v 0.200652 1.08552 -0.895622
v 0.143566 1.07762 -0.928114
v 0.0209505 1.0274 -0.95725
v -0.0326567 1.01201 -0.963995
v -0.0312896 1.06313 -0.940746
v 0.0887104 1.06313 -0.940746
v 0.0916221 1.10595 -0.9045
v 0.147814 1.12167 -0.878929
v 0.0958566 1.13721 -0.858015
v -0.0241433 1.13721 -0.858015
v -0.0729331 1.1428 -0.814808
v -0.0283779 1.10595 -0.9045
v -0.0786202 1.11942 -0.86772
v -0.122243 1.11669 -0.821374
v -0.0828687 1.07537 -0.916904
v -0.0842798 1.02517 -0.946167
v -0.130325 1.03292 -0.914929
v -0.132217 1.08102 -0.873203
v -0.163086 1.07821 -0.82403
v -0.167286 1.03467 -0.872658
v -0.19235 1.03028 -0.822573
v -0.101381 1.13645 -0.764517
v -0.154977 1.09805 -0.77
v -0.189789 1.05151 -0.770623
v -0.173618 1.06532 -0.718626
v -0.12839 1.10944 -0.710499
v -0.145067 1.07066 -0.670539
v -0.139485 1.02187 -0.627332
v -0.17634 1.0217 -0.67228
v -0.162878 0.971454 -0.6355
v -0.202927 1.01031 -0.731781
v -0.210493 0.99146 -0.786244
v -0.21345 0.949794 -0.748678
v -0.197281 0.960961 -0.68808
v -0.174709 0.919712 -0.653907
v -0.200996 0.908454 -0.712735
v -0.174078 0.870587 -0.681152
v -0.113607 0.980246 -0.596087
v -0.134548 0.91951 -0.611886
v -0.138973 0.867472 -0.637404
v -0.0941253 0.870951 -0.603749
v -0.0774621 0.927408 -0.579394
v -0.0429503 0.880757 -0.58275
v 0.0106569 0.896144 -0.576005
v 0.0770497 0.880757 -0.58275
v 0.12929 0.84502 -0.599254
v -0.0455654 0.830527 -0.611886
v 0.00928974 0.84502 -0.599254
v 0.00637807 0.802198 -0.6355
v -0.102652 0.82263 -0.644378
v -0.143173 0.823928 -0.686032
v -0.102206 0.787176 -0.697304
v -0.0498139 0.786485 -0.661071
v 0.00214352 0.770938 -0.681985
v -0.054297 0.763129 -0.71411
v -0.00309155 0.753618 -0.73517
v 0.126378 0.802198 -0.6355
v 0.180869 0.832779 -0.623096
v 0.122143 0.770938 -0.681985
v 0.17662 0.788736 -0.67228
v 0.116908 0.753618 -0.73517
v 0.170933 0.765355 -0.725192
v 0.220244 0.791458 -0.718626
v 0.230217 0.827132 -0.666797
v 0.261086 0.82994 -0.71597
v 0.252977 0.810099 -0.77
v 0.199381 0.771702 -0.775483
v 0.144647 0.754097 -0.78402
v 0.169671 0.769798 -0.831803
v 0.22639 0.798711 -0.829501
v 0.190077 0.799527 -0.874882
v -0.128557 0.836519 -0.887557
v -0.114637 0.874755 -0.92629
v -0.0789007 0.822515 -0.909786
v -0.0928278 0.919029 -0.953125
v -0.0608936 0.864388 -0.945857
v -0.0240755 0.818526 -0.921374
v -0.0647896 0.965971 -0.966021
v -0.0312588 0.918617 -0.969477
v 0.000246303 0.967347 -0.97287
v 0.0887411 0.918617 -0.969477
v 0.0959244 0.818526 -0.921374
v 0.124886 0.865779 -0.952785
v 0.151745 0.824855 -0.921439
v 0.00488639 0.865779 -0.952785
v -0.163427 0.880337 -0.883083
v -0.186693 0.929769 -0.87
v -0.146387 0.922872 -0.918848
v -0.196586 0.981051 -0.849305
v -0.1661 0.982748 -0.898767
v -0.116752 0.977101 -0.942468
v -0.157844 0.831548 -0.839875
v -0.175953 0.835904 -0.786875
v -0.190088 0.87917 -0.831445
v -0.181505 0.849256 -0.732589
v -0.204155 0.889698 -0.767662
v -0.209802 0.939046 -0.811363
v -0.105604 0.795811 -0.856379
v -0.0754498 0.767151 -0.818626
v -0.131604 0.793677 -0.804436
v -0.0403893 0.752721 -0.777171
v -0.0928334 0.768059 -0.757345
v -0.145671 0.804205 -0.740653
v -0.0517575 0.784541 -0.875146
v 0.134022 0.785932 -0.882074
v -0.0129865 0.758923 -0.828056
v 0.107013 0.758923 -0.828056
v 0.0796106 0.752721 -0.777171
v 0.0140225 0.785932 -0.882074
f 1 2 3
f 2 4 5
f 3 5 6
f 2 5 3
f 4 7 8
f 7 9 10
f 8 10 11
f 7 10 8
f 6 12 13
f 12 11 14
f 13 14 15
f 12 14 13
f 4 8 5
f 8 11 12
f 5 12 6
f 8 12 5
f 1 3 16
f 3 6 17
f 16 17 18
f 3 17 16
f 6 13 19
f 13 15 20
f 19 20 21
f 13 20 19
f 18 22 23
f 22 21 24
f 23 24 25
f 22 24 23
f 6 19 17
f 19 21 22
f 17 22 18
f 19 22 17
f 1 16 26
f 16 18 27
f 26 27 28
f 16 27 26
f 18 23 29
f 30 31 32
f 33 32 34
f 30 32 33
f 35 36 37
f 36 34 38
f 37 38 39
f 36 38 37
f 18 29 27
f 33 34 36
f 27 40 28
f 29 40 27
f 1 26 41
f 26 28 42
f 41 42 43
f 26 42 41
f 35 37 44
f 37 39 45
f 44 45 46
f 37 45 44
f 43 47 48
f 49 46 50
f 48 51 52
f 47 51 48
f 28 53 42
f 44 46 49
f 42 47 43
f 53 47 42
f 1 41 2
f 41 43 54
f 2 54 4
f 41 54 2
f 43 48 55
f 48 52 56
f 55 56 57
f 48 56 55
f 4 58 7
f 58 57 59
f 7 59 9
f 58 59 7
f 43 55 54
f 55 57 58
f 54 58 4
f 55 58 54
f 9 60 10
f 60 61 62
f 10 62 11
f 60 62 10
f 61 63 64
f 63 65 66
f 64 66 67
f 63 66 64
f 11 68 14
f 68 67 69
f 14 69 15
f 68 69 14
f 61 64 62
f 64 67 68
f 62 68 11
f 64 68 62
f 15 69 70
f 69 67 71
f 70 71 72
f 69 71 70
f 67 66 73
f 66 65 74
f 73 74 75
f 66 74 73
f 72 76 77
f 76 75 78
f 77 78 79
f 76 78 77
f 67 73 71
f 73 75 76
f 71 76 72
f 73 76 71
f 15 70 20
f 70 72 80
f 20 80 21
f 70 80 20
f 72 77 81
f 82 83 84
f 81 85 86
f 77 85 81
f 21 87 24
f 87 86 88
f 24 88 25
f 87 88 24
f 72 81 80
f 81 86 87
f 80 87 21
f 81 87 80
f 31 89 90
f 89 91 92
f 90 92 93
f 89 92 90
f 91 84 94
f 84 83 95
f 94 95 96
f 84 95 94
f 93 97 98
f 97 96 99
f 98 99 100
f 97 99 98
f 91 94 92
f 94 96 97
f 92 97 93
f 94 97 92
f 31 90 32
f 90 93 101
f 32 101 34
f 90 101 32
f 93 98 102
f 98 100 103
f 102 103 104
f 98 103 102
f 34 105 38
f 105 104 106
f 38 106 39
f 105 106 38
f 93 102 101
f 102 104 105
f 101 105 34
f 102 105 101
f 39 106 107
f 106 104 108
f 107 108 109
f 106 108 107
f 104 103 110
f 103 100 111
f 110 111 112
f 103 111 110
f 109 113 114
f 113 112 115
f 114 115 116
f 113 115 114
f 104 110 108
f 110 112 113
f 108 113 109
f 110 113 108
f 39 107 45
f 107 109 117
f 45 117 46
f 107 117 45
f 109 114 118
f 114 116 119
f 118 119 120
f 114 119 118
f 46 121 50
f 121 120 122
f 50 122 123
f 121 122 50
f 109 118 117
f 118 120 121
f 117 121 46
f 118 121 117
f 52 124 125
f 122 120 126
f 127 126 128
f 122 126 127
f 120 119 129
f 119 116 130
f 129 130 131
f 119 130 129
f 128 132 133
f 132 131 134
f 133 134 135
f 132 134 133
f 120 129 126
f 129 131 132
f 126 132 128
f 129 132 126
f 52 125 56
f 125 136 137
f 56 137 57
f 125 137 56
f 136 138 139
f 138 140 141
f 139 141 142
f 138 141 139
f 57 143 59
f 143 142 144
f 59 144 9
f 143 144 59
f 136 139 137
f 139 142 143
f 137 143 57
f 139 143 137
f 9 144 60
f 144 142 145
f 60 145 61
f 144 145 60
f 142 141 146
f 141 140 147
f 146 147 148
f 141 147 146
f 61 149 63
f 149 148 150
f 63 150 65
f 149 150 63
f 142 146 145
f 146 148 149
f 145 149 61
f 146 149 145
f 151 152 153
f 152 154 155
f 153 155 156
f 152 155 153
f 154 157 158
f 157 83 159
f 160 78 75
f 157 159 158
f 161 162 163
f 162 75 74
f 163 74 65
f 162 74 163
f 154 158 155
f 160 75 162
f 155 164 156
f 158 164 155
f 151 165 152
f 165 166 167
f 152 167 154
f 165 167 152
f 166 168 169
f 168 100 99
f 169 99 96
f 168 99 169
f 154 170 157
f 170 96 95
f 157 95 83
f 170 95 157
f 166 169 167
f 169 96 170
f 167 170 154
f 169 170 167
f 151 171 165
f 171 172 173
f 165 173 166
f 171 173 165
f 172 174 175
f 174 116 115
f 175 115 112
f 174 115 175
f 166 176 168
f 176 112 111
f 168 111 100
f 176 111 168
f 172 175 173
f 175 112 176
f 173 176 166
f 175 176 173
f 151 177 171
f 177 178 179
f 171 179 172
f 177 179 171
f 178 180 181
f 180 135 134
f 181 134 131
f 180 134 181
f 172 182 174
f 182 131 130
f 174 130 116
f 182 130 174
f 178 181 179
f 181 131 182
f 179 182 172
f 181 182 179
f 151 153 177
f 153 156 183
f 177 183 178
f 153 183 177
f 161 163 184
f 163 65 150
f 184 150 148
f 163 150 184
f 178 185 180
f 186 148 147
f 187 147 140
f 186 147 187
f 156 188 183
f 184 148 186
f 183 185 178
f 188 185 183
f 25 31 23
f 23 31 30
f 23 30 29
f 29 30 33
f 40 36 28
f 28 36 35
f 29 33 40
f 40 33 36
f 51 50 52
f 52 50 123
f 47 49 51
f 51 49 50
f 28 35 53
f 53 35 44
f 53 44 47
f 47 44 49
f 78 159 79
f 79 159 83
f 79 83 77
f 77 83 82
f 85 84 86
f 86 84 91
f 77 82 85
f 85 82 84
f 86 91 88
f 88 91 89
f 88 89 25
f 25 89 31
f 52 123 124
f 124 123 122
f 124 122 125
f 125 122 127
f 125 127 136
f 136 127 128
f 136 128 138
f 138 128 133
f 138 133 140
f 140 133 135
f 160 158 78
f 78 158 159
f 161 156 162
f 162 156 164
f 162 164 160
f 160 164 158
f 184 188 161
f 161 188 156
f 140 135 187
f 187 135 180
f 187 180 186
f 186 180 185
f 186 185 184
f 184 185 188
